<svg width="1024" height="410" viewBox="0 0 1024 410" fill="none" xmlns="http://www.w3.org/2000/svg">
<rect width="1024" height="409.851" fill="white"/>
<path d="M284.718 339.242C284.704 344.124 284.704 349.01 284.669 353.891C284.649 356.794 283.645 358.156 280.861 358.902C264.368 363.321 247.855 367.675 231.367 372.109C217.101 375.947 202.859 379.894 188.593 383.746C172.189 388.175 155.751 392.48 139.382 397.018C136.718 397.759 134.396 397.262 132.229 396.213C115.94 388.354 99.5907 380.619 83.202 372.969C67.5141 365.642 51.9505 358.047 36.3322 350.566C33.6579 349.284 31.0135 347.936 28.2944 346.758C25.9333 345.739 24.9043 344 24.9043 341.514C24.9043 338.785 24.8944 336.051 24.8844 333.322C24.9242 333.268 25.0037 333.183 24.9938 333.168C24.9292 333.084 24.8397 333.014 24.7602 332.944L24.7353 332.741C24.7353 308.806 24.7353 284.877 24.7353 260.942C24.7353 253.904 24.6806 246.865 24.7701 239.826C24.79 238.176 24.3327 237.266 22.7619 236.645C16.7721 234.279 10.827 231.803 4.86701 229.363C4.18104 229.079 3.50004 228.771 2.83395 228.433C-0.0839119 226.962 -0.81462 224.486 0.950016 221.668C7.61587 211.026 14.3165 200.408 21.0022 189.78C22.1455 187.961 23.4081 186.206 24.4023 184.312C25.6002 182.021 27.4544 181.061 29.9199 180.733C40.5127 179.317 51.0905 177.791 61.6833 176.359C71.953 174.972 82.2326 173.68 92.5023 172.278C104.069 170.697 115.622 169.007 127.189 167.427C136.315 166.179 145.451 165.036 154.583 163.838C155.562 163.708 156.576 163.649 157.496 163.336C164.286 161.029 170.459 164.017 176.762 165.607C202.481 172.104 228.18 178.685 253.885 185.237C260.988 187.046 268.086 188.89 275.194 190.69C279.579 191.798 282.695 193.886 284.833 198.375C290.301 209.867 296.464 221.027 302.375 232.306C302.996 233.494 302.822 234.552 302.534 235.84C301.326 241.268 296.842 241.462 292.721 242.307C290.072 242.849 286.642 242.57 285.042 244.36C283.486 246.1 284.584 249.43 284.584 252.06C284.559 280.96 284.574 309.865 284.584 338.765C284.589 338.934 284.634 339.088 284.723 339.233L284.718 339.242ZM31.2272 185.267C30.6655 185.232 30.0839 185.123 29.6962 185.694C28.4883 185.65 28.2944 186.738 27.8421 187.449C20.4853 199.041 13.2031 210.683 5.78164 222.24C4.62841 224.034 4.97637 224.556 6.79071 225.302C22.7619 231.873 38.7182 238.489 54.6397 245.185C71.1726 252.139 87.6657 259.173 104.149 266.236C105.68 266.892 106.406 266.679 107.295 265.262C115.87 251.602 124.485 237.962 133.208 224.392C134.391 222.553 133.835 222.125 132.159 221.598C128.635 220.485 125.141 219.257 121.641 218.069C109.289 213.874 96.9164 209.743 84.5987 205.463C74.9007 202.093 65.2573 198.554 55.604 195.044C49.9075 192.972 44.2358 190.819 38.5542 188.702C39.4042 188.18 40.1597 188.726 40.9103 188.965C46.408 190.72 51.9058 192.474 57.3935 194.279C67.0319 197.445 76.6703 200.607 86.2839 203.838C102.121 209.152 117.938 214.52 133.76 219.864C135.008 220.286 136.235 220.738 137.622 220.49C144.984 219.173 152.351 217.86 159.732 216.633C160.95 216.429 161.393 216.051 161.398 214.778C161.482 199.463 161.611 184.148 161.761 168.833C161.771 167.61 161.437 167.238 160.17 167.461C157.297 167.968 154.399 168.361 151.501 168.749C144.835 169.644 138.159 170.479 131.493 171.403C123.674 172.487 115.865 173.685 108.046 174.754C98.6462 176.041 89.2315 177.224 79.8268 178.492C68.2398 180.052 56.6529 181.628 45.0709 183.239C40.7612 183.835 36.4714 184.541 32.1717 185.197C31.8535 185.222 31.5354 185.247 31.2173 185.272L31.2272 185.267ZM141.47 232.907C142.628 233.066 142.593 234.189 142.956 234.905C148.016 244.946 153.057 254.997 158.008 265.093C158.813 266.728 159.474 267.429 161.502 266.793C164.773 265.769 168.208 265.287 171.558 264.487C192.475 259.496 213.467 254.838 234.479 250.275C255.301 245.752 276.119 241.193 296.962 236.749C299.169 236.277 299.159 235.561 298.239 233.827C292.021 222.076 285.837 210.31 279.763 198.484C278.903 196.804 277.854 196.396 276.233 196.705C271.829 197.54 267.42 198.355 263.026 199.23C249.963 201.825 236.924 204.558 223.841 207.029C208.934 209.842 193.981 212.412 179.059 215.126C165.837 217.527 152.639 220.048 139.402 222.349C136.976 222.772 137.25 223.661 138.065 225.277C138.82 226.783 140.113 228.08 140.003 229.949C138.875 228.915 138.94 227.096 137.419 225.953V270.079C137.384 270.273 137.344 270.461 137.309 270.655C137.309 284.917 137.309 299.173 137.309 313.434C137.299 313.593 137.289 313.747 137.274 313.906C137.225 314.895 137.135 315.885 137.13 316.874C137.085 341.459 137.051 366.05 137.026 390.636C137.026 391.346 136.767 392.107 137.314 392.848C138.229 392.604 139.163 392.356 140.098 392.102C158.579 387.091 177.051 382.051 195.542 377.08C222.991 369.704 250.45 362.367 277.918 355.045C279.415 354.647 280.25 354.239 280.245 352.331C280.14 316.566 280.125 280.801 280.14 245.041C280.14 243.192 279.857 242.645 277.819 243.102C263.811 246.273 249.779 249.301 235.751 252.378C219.318 255.981 202.889 259.605 186.451 263.179C178 265.018 169.535 266.763 161.075 268.568C159.211 268.965 157.973 268.756 157.013 266.639C153.131 258.054 148.951 249.604 144.994 241.054C143.756 238.375 142.126 235.85 141.475 232.917L141.47 232.907ZM29.4278 309.403C29.4775 319.653 29.5669 329.902 29.5272 340.157C29.5222 341.817 30.0342 342.603 31.5354 343.309C45.046 349.651 58.512 356.098 71.9978 362.496C93.0094 372.462 114.031 382.414 135.047 392.37C135.385 392.41 135.48 392.246 135.4 391.943C135.336 382.31 135.271 372.681 135.207 363.048C135.49 359.24 135.589 355.432 135.157 351.625C135.157 349.507 135.157 347.39 135.162 345.272C135.435 344.904 135.455 344.546 135.137 344.193V226.43C131.364 231.326 128.113 236.287 124.902 241.268C119.26 250.017 113.648 258.79 108.001 267.539C107.355 268.543 106.833 269.482 105.123 268.761C84.3651 260.003 63.5623 251.354 42.7794 242.665C38.3056 240.796 33.8418 238.902 29.3681 237.018V274.711C29.3681 279.812 29.3681 284.912 29.3681 290.012C29.3781 296.001 29.388 301.996 29.393 307.986C29.4029 308.458 29.4129 308.935 29.4228 309.408L29.4278 309.403ZM275.015 195.407C270.586 194.259 266.863 193.285 263.14 192.33C230.571 183.984 197.998 175.653 165.444 167.258C163.62 166.785 163.252 167.163 163.267 168.992C163.371 183.731 163.431 198.469 163.366 213.208C163.356 215.594 163.913 216.026 166.244 215.549C191.213 210.424 216.345 206.154 241.413 201.556C252.359 199.548 263.309 197.55 275.02 195.407H275.015Z" fill="#663C19"/>
<path d="M284.718 339.243C284.634 339.098 284.584 338.944 284.579 338.775C284.952 338.736 285.265 338.815 285.444 339.178C285.201 339.198 284.957 339.223 284.718 339.243Z" fill="#DA7A37"/>
<path d="M24.7602 332.944C24.8397 333.019 24.9292 333.084 24.9938 333.168C25.0037 333.183 24.9242 333.272 24.8844 333.322C24.79 333.213 24.7453 333.084 24.7552 332.939L24.7602 332.944Z" fill="#DA7A37"/>
<path d="M135.167 345.272C135.167 347.39 135.167 349.507 135.157 351.625C134.948 355.432 134.854 359.24 135.206 363.048C135.271 372.681 135.336 382.31 135.4 391.943C135.281 392.087 135.167 392.226 135.047 392.37C114.031 382.414 93.0093 372.462 71.9977 362.496C58.5119 356.098 45.046 349.651 31.5353 343.309C30.0342 342.603 29.5222 341.817 29.5271 340.157C29.5669 329.907 29.4725 319.658 29.4277 309.408C29.7608 308.926 29.7707 308.453 29.3979 307.981C29.388 301.991 29.378 295.996 29.373 290.007C29.9049 284.907 29.9 279.807 29.373 274.706V237.013C33.8468 238.897 38.3106 240.791 42.7843 242.66C63.5722 251.344 84.375 259.998 105.128 268.756C106.843 269.477 107.36 268.543 108.006 267.534C113.653 258.785 119.265 250.016 124.907 241.263C128.118 236.282 131.369 231.326 135.142 226.425C135.142 265.68 135.142 304.934 135.142 344.188C135.152 344.546 135.157 344.904 135.167 345.267V345.272ZM40.0354 326.308C40.5176 320.781 41.293 315.736 41.0196 310.635C40.6369 303.502 40.115 296.374 40.1547 289.226C40.1647 287.655 40.1796 286.085 40.1348 284.519C40.1199 284.032 40.4082 283.296 39.4886 283.221C38.9419 283.674 39.1457 284.285 39.1258 284.827C38.922 289.917 39.1556 295.002 38.738 300.117C38.2509 306.107 38.3652 312.181 38.753 318.186C38.917 320.711 38.6138 323.44 40.0305 326.303L40.0354 326.308Z" fill="#F7AB6B"/>
<path d="M137.304 313.434C137.304 299.173 137.304 284.917 137.304 270.655C137.339 270.461 137.379 270.273 137.414 270.079C137.414 255.46 137.414 240.845 137.414 225.953C138.93 227.096 138.87 228.911 139.998 229.949L139.983 229.91C139.974 230.347 140.008 230.77 140.51 230.949L140.481 230.904C140.54 231.724 140.744 232.47 141.505 232.932L141.47 232.912C142.121 235.85 143.751 238.37 144.989 241.049C148.941 249.604 153.126 258.049 157.008 266.634C157.963 268.747 159.201 268.96 161.07 268.563C169.525 266.758 177.995 265.013 186.446 263.174C202.884 259.6 219.313 255.977 235.746 252.373C249.774 249.296 263.811 246.269 277.814 243.097C279.852 242.635 280.135 243.182 280.135 245.036C280.12 280.801 280.135 316.566 280.24 352.326C280.245 354.234 279.41 354.642 277.913 355.04C250.45 362.362 222.991 369.694 195.537 377.075C177.046 382.046 158.574 387.087 140.093 392.097C139.158 392.351 138.224 392.599 137.309 392.843C136.762 392.107 137.021 391.342 137.021 390.631C137.046 366.045 137.08 341.455 137.125 316.869C137.125 315.88 137.22 314.891 137.269 313.901C137.309 313.857 137.379 313.807 137.379 313.762C137.374 313.648 137.329 313.538 137.304 313.429V313.434ZM259.323 256.792C259.293 255.136 259.124 253.471 259.278 251.836C259.457 249.932 258.666 249.549 257.021 249.907C241.617 253.233 226.207 256.538 210.803 259.869C195.706 263.13 180.635 266.49 165.509 269.607C163.326 270.054 162.76 270.715 162.765 272.852C162.834 304.054 162.809 335.251 162.809 366.453C162.809 367.268 162.809 368.083 162.809 369.092C171.285 367.064 179.546 365.091 187.803 363.107C205.002 358.977 222.191 354.821 239.395 350.715C245.936 349.154 252.498 347.688 259.054 346.182C260.178 345.506 259.7 344.392 259.7 343.483C259.725 315.462 259.725 287.442 259.705 259.421C259.705 258.541 259.999 257.592 259.323 256.802V256.792ZM175.674 372.999C193.256 368.799 211.17 365.876 228.116 359.22C210.072 361.631 193.101 368.207 175.674 372.999Z" fill="#F39455"/>
<path d="M139.993 229.949C140.103 228.08 138.81 226.783 138.055 225.277C137.24 223.656 136.966 222.766 139.392 222.349C152.629 220.047 165.832 217.527 179.049 215.126C193.976 212.412 208.924 209.847 223.831 207.029C236.919 204.558 249.953 201.824 263.016 199.23C267.41 198.355 271.819 197.54 276.223 196.705C277.844 196.396 278.888 196.809 279.753 198.484C285.827 210.31 292.011 222.076 298.229 233.827C299.149 235.561 299.159 236.277 296.952 236.749C276.109 241.198 255.291 245.752 234.469 250.275C213.457 254.838 192.465 259.496 171.548 264.486C168.203 265.287 164.768 265.769 161.492 266.793C159.459 267.429 158.798 266.728 157.998 265.093C153.042 254.997 148.006 244.946 142.946 234.905C142.583 234.189 142.623 233.071 141.46 232.907L141.495 232.927C141.723 231.962 141.435 231.262 140.471 230.899L140.5 230.943C140.699 230.407 140.719 229.959 139.974 229.905L139.988 229.944L139.993 229.949Z" fill="#F7AB6B"/>
<path d="M38.5542 188.702C44.2358 190.819 49.9075 192.972 55.6041 195.044C65.2574 198.554 74.8958 202.093 84.5988 205.463C96.9164 209.748 109.289 213.879 121.641 218.069C125.146 219.257 128.635 220.485 132.159 221.598C133.835 222.13 134.391 222.553 133.208 224.392C124.485 237.957 115.87 251.597 107.295 265.262C106.406 266.679 105.68 266.892 104.149 266.236C87.6658 259.168 71.1676 252.134 54.6397 245.185C38.7182 238.489 22.7619 231.873 6.79073 225.302C4.97639 224.556 4.62843 224.029 5.78166 222.24C13.2031 210.688 20.4853 199.046 27.8421 187.449C28.2895 186.743 28.4883 185.65 29.6962 185.694C30.1983 185.863 30.7003 186.032 31.1974 186.201C33.648 187.036 36.1036 187.872 38.5542 188.702ZM68.9805 245.314C68.8264 245.702 69.0103 245.707 69.2986 245.598C69.1793 245.513 69.055 245.433 68.9357 245.349C67.7428 244.171 66.1869 243.574 64.7454 242.809C52.8154 236.466 39.946 232.355 27.5389 227.141C27.0368 226.932 26.5199 226.773 25.9333 227.22C27.4842 227.941 28.9655 228.647 30.4567 229.313C40.632 233.871 50.4792 239.17 60.9725 243.013C63.5723 243.962 66.1074 245.269 68.9805 245.314Z" fill="#F39455"/>
<path d="M38.5542 188.702C36.1036 187.867 33.648 187.031 31.1974 186.201L31.1825 186.216C31.8287 186.181 32.1767 185.853 32.1767 185.192C36.4764 184.536 40.7712 183.835 45.0759 183.239C56.6579 181.633 68.2448 180.052 79.8318 178.492C89.2365 177.224 98.6512 176.041 108.051 174.754C115.875 173.685 123.679 172.487 131.498 171.403C138.159 170.479 144.835 169.649 151.506 168.749C154.399 168.361 157.297 167.968 160.175 167.461C161.438 167.238 161.776 167.61 161.766 168.833C161.616 184.148 161.487 199.463 161.403 214.778C161.398 216.051 160.955 216.429 159.737 216.633C152.356 217.855 144.994 219.168 137.627 220.49C136.236 220.738 135.013 220.286 133.765 219.864C117.938 214.52 102.121 209.152 86.2889 203.838C76.6703 200.612 67.0369 197.445 57.3985 194.279C51.9157 192.479 46.418 190.72 40.9153 188.965C40.1598 188.726 39.4092 188.18 38.5592 188.702H38.5542ZM153.161 184.213C152.734 192.897 151.078 201.556 153.226 210.215C155.517 201.546 153.439 192.867 153.161 184.213Z" fill="#DA7A37"/>
<path d="M275.015 195.407C263.304 197.55 252.358 199.553 241.408 201.556C216.34 206.154 191.208 210.424 166.239 215.549C163.908 216.026 163.351 215.594 163.361 213.208C163.426 198.469 163.366 183.731 163.262 168.992C163.247 167.163 163.615 166.785 165.439 167.257C197.998 175.648 230.566 183.979 263.135 192.33C266.863 193.285 270.581 194.259 275.01 195.407H275.015Z" fill="#DA7A37"/>
<path d="M29.373 274.706C29.9 279.806 29.9049 284.907 29.373 290.007C29.373 284.907 29.373 279.806 29.373 274.706Z" fill="#F39455"/>
<path d="M135.212 363.048C134.859 359.24 134.953 355.432 135.162 351.625C135.594 355.432 135.495 359.24 135.212 363.048Z" fill="#DA7A37"/>
<path d="M31.1974 186.201C30.6953 186.032 30.1932 185.863 29.6962 185.694C30.0839 185.118 30.6655 185.232 31.2272 185.267C31.2123 185.585 31.1974 185.898 31.1874 186.216L31.2023 186.201H31.1974Z" fill="#DA7A37"/>
<path d="M31.1825 186.216C31.1974 185.898 31.2074 185.585 31.2223 185.267C31.5404 185.242 31.8585 185.217 32.1767 185.192C32.1767 185.853 31.8287 186.181 31.1825 186.216Z" fill="#F39455"/>
<path d="M29.3979 307.976C29.7708 308.443 29.7558 308.921 29.4278 309.403C29.4178 308.925 29.4079 308.453 29.3979 307.976Z" fill="#DA7A37"/>
<path d="M135.167 345.272C135.157 344.914 135.147 344.551 135.142 344.193C135.46 344.546 135.445 344.904 135.167 345.272Z" fill="#DA7A37"/>
<path d="M137.414 270.079C137.374 270.272 137.339 270.461 137.304 270.655C137.344 270.461 137.379 270.272 137.414 270.079Z" fill="#DA7A37"/>
<path d="M137.304 313.434C137.329 313.543 137.374 313.653 137.379 313.767C137.379 313.812 137.309 313.862 137.269 313.906C137.279 313.747 137.289 313.593 137.304 313.434Z" fill="#DA7A37"/>
<path d="M135.052 392.37C135.172 392.226 135.286 392.087 135.405 391.943C135.485 392.246 135.39 392.41 135.052 392.37Z" fill="#DA7A37"/>
<path d="M40.0355 326.313C38.6138 323.45 38.922 320.721 38.758 318.196C38.3702 312.191 38.2559 306.117 38.743 300.127C39.1606 295.012 38.922 289.927 39.1308 284.837C39.1507 284.295 38.9468 283.679 39.4936 283.231C40.4132 283.306 40.1249 284.047 40.1398 284.529C40.1846 286.095 40.1697 287.665 40.1597 289.236C40.12 296.384 40.6419 303.512 41.0246 310.645C41.298 315.741 40.5176 320.791 40.0404 326.318L40.0355 326.313Z" fill="#663C19"/>
<path d="M259.054 346.177C252.503 347.683 245.936 349.149 239.395 350.71C222.191 354.821 205.002 358.972 187.803 363.102C179.546 365.086 171.285 367.059 162.809 369.087C162.809 368.078 162.809 367.263 162.809 366.448C162.809 335.246 162.829 304.049 162.765 272.847C162.765 270.71 163.326 270.049 165.509 269.601C180.635 266.485 195.706 263.13 210.803 259.864C226.207 256.533 241.617 253.233 257.021 249.902C258.666 249.544 259.457 249.932 259.278 251.831C259.124 253.466 259.298 255.131 259.323 256.787C259.293 257.696 259.238 258.606 259.233 259.511C259.223 279.464 259.233 299.411 259.203 319.364C259.188 328.302 259.104 337.234 259.054 346.172V346.177ZM258.065 321.621C258.1 321.377 258.159 321.129 258.159 320.885C258.184 298.283 258.169 275.681 258.289 253.079C258.299 250.762 256.991 251.12 255.808 251.359C247.92 252.969 240.046 254.644 232.182 256.359C221.897 258.601 211.638 260.942 201.348 263.169C189.632 265.709 177.911 268.239 166.15 270.591C164.087 271.003 163.809 271.878 163.809 273.658C163.848 304.124 163.838 334.595 163.838 365.061V367.795C165.931 366.999 167.9 366.647 169.838 366.169C181.609 363.251 193.435 360.552 205.235 357.764C217.97 354.751 230.731 351.819 243.426 348.652C248.312 347.434 253.323 346.659 258.055 344.85C258.229 344.457 258.259 344.069 258.02 343.691C258.03 336.34 258.045 328.988 258.055 321.636V321.621H258.065Z" fill="#F39455"/>
<path d="M175.674 372.999C193.102 368.207 210.072 361.631 228.116 359.22C211.17 365.876 193.256 368.799 175.674 372.999Z" fill="#663C19"/>
<path d="M259.054 346.177C259.109 337.239 259.193 328.307 259.203 319.369C259.233 299.416 259.223 279.469 259.233 259.516C259.233 258.606 259.288 257.696 259.323 256.792C259.999 257.582 259.705 258.536 259.705 259.411C259.72 287.432 259.725 315.452 259.7 343.473C259.7 344.387 260.178 345.496 259.054 346.172V346.177Z" fill="#F7AB6B"/>
<path d="M140.481 230.904C141.445 231.267 141.733 231.967 141.505 232.932C140.744 232.469 140.54 231.724 140.481 230.904Z" fill="#663C19"/>
<path d="M139.978 229.91C140.724 229.964 140.704 230.412 140.505 230.948C140.003 230.765 139.969 230.347 139.978 229.91Z" fill="#663C19"/>
<path d="M68.9805 245.314C66.1073 245.269 63.5722 243.967 60.9725 243.013C50.4791 239.17 40.632 233.876 30.4567 229.313C28.9655 228.642 27.4842 227.936 25.9333 227.22C26.5198 226.773 27.0368 226.932 27.5389 227.141C39.946 232.355 52.8154 236.466 64.7453 242.809C66.1869 243.574 67.7378 244.171 68.9357 245.349L68.9854 245.309L68.9805 245.314Z" fill="#663C19"/>
<path d="M68.9308 245.349C69.0501 245.433 69.1744 245.513 69.2937 245.597C69.0053 245.707 68.8214 245.702 68.9755 245.314L68.9258 245.354L68.9308 245.349Z" fill="#663C19"/>
<path d="M153.161 184.213C153.444 192.867 155.517 201.551 153.226 210.215C151.078 201.556 152.734 192.892 153.161 184.213Z" fill="#663C19"/>
<path d="M258.06 344.85C257.742 344.467 257.652 344.079 258.025 343.681C258.264 344.069 258.234 344.457 258.06 344.85Z" fill="#F7AB6B"/>
<path d="M258.06 321.636L257.921 321.621H258.06V321.636Z" fill="#F7AB6B"/>
<path fill-rule="evenodd" clip-rule="evenodd" d="M247.847 347.635C251.294 346.874 254.743 346.113 258.06 344.85L258.07 344.854C257.752 344.472 257.662 344.084 258.035 343.686C258.04 340.016 258.046 336.344 258.053 332.672C258.059 328.994 258.065 325.315 258.07 321.636L257.931 321.621H258.07C258.08 321.55 258.092 321.479 258.104 321.408C258.134 321.234 258.164 321.058 258.164 320.885C258.17 315.719 258.174 310.553 258.177 305.387C258.189 287.951 258.202 270.515 258.294 253.078C258.308 250.839 257.087 251.093 255.938 251.333C255.896 251.341 255.855 251.35 255.813 251.359C247.93 252.969 240.051 254.644 232.187 256.359C227.389 257.405 222.596 258.473 217.803 259.54C212.321 260.761 206.84 261.981 201.353 263.169L201.353 263.169C189.632 265.704 177.911 268.239 166.155 270.591C164.092 271.003 163.814 271.878 163.814 273.658C163.847 299.046 163.845 324.437 163.844 349.826C163.844 354.905 163.843 359.983 163.843 365.061V367.795C165.409 367.2 166.904 366.855 168.37 366.518C168.864 366.404 169.355 366.291 169.843 366.169C178.181 364.102 186.547 362.145 194.912 360.188C198.356 359.382 201.799 358.577 205.24 357.764C208.483 356.997 211.727 356.235 214.971 355.473C224.467 353.243 233.964 351.012 243.431 348.652C244.896 348.287 246.371 347.961 247.847 347.635Z" fill="#F39455"/>
<path d="M645.321 339.242C645.306 344.124 645.306 349.01 645.271 353.891C645.251 356.794 644.247 358.156 641.463 358.902C624.97 363.321 608.457 367.675 591.969 372.109C577.703 375.947 563.461 379.894 549.195 383.746C532.792 388.175 516.353 392.48 499.984 397.018C497.32 397.759 494.999 397.262 492.831 396.213C476.542 388.354 460.193 380.619 443.804 372.969C428.116 365.642 412.553 358.047 396.935 350.566C394.26 349.284 391.616 347.936 388.897 346.758C386.536 345.739 385.507 344 385.507 341.514C385.507 338.785 385.497 336.051 385.487 333.322C385.527 333.268 385.606 333.183 385.596 333.168C385.531 333.084 385.442 333.014 385.362 332.944L385.338 332.741C385.338 308.806 385.338 284.877 385.338 260.942C385.338 253.904 385.283 246.865 385.372 239.826C385.392 238.176 384.935 237.266 383.364 236.645C377.374 234.279 371.429 231.803 365.469 229.363C364.783 229.079 364.102 228.771 363.436 228.433C360.518 226.962 359.788 224.486 361.552 221.668C368.218 211.026 374.919 200.408 381.605 189.78C382.748 187.961 384.01 186.206 385.005 184.312C386.203 182.021 388.057 181.061 390.522 180.733C401.115 179.317 411.693 177.791 422.286 176.359C432.555 174.972 442.835 173.68 453.105 172.278C464.672 170.697 476.224 169.007 487.791 167.427C496.917 166.179 506.054 165.036 515.185 163.838C516.164 163.708 517.178 163.649 518.098 163.336C524.888 161.029 531.062 164.017 537.365 165.607C563.084 172.104 588.783 178.685 614.487 185.237C621.59 187.046 628.688 188.89 635.797 190.69C640.181 191.798 643.298 193.886 645.435 198.375C650.903 209.867 657.067 221.027 662.977 232.306C663.598 233.494 663.424 234.552 663.136 235.84C661.928 241.268 657.445 241.462 653.324 242.307C650.674 242.849 647.244 242.57 645.644 244.36C644.088 246.1 645.187 249.43 645.187 252.06C645.162 280.96 645.177 309.865 645.187 338.765C645.191 338.934 645.236 339.088 645.326 339.233L645.321 339.242ZM391.829 185.267C391.268 185.232 390.686 185.123 390.298 185.694C389.091 185.65 388.897 186.738 388.444 187.449C381.088 199.041 373.805 210.683 366.384 222.24C365.231 224.034 365.579 224.556 367.393 225.302C383.364 231.873 399.32 238.489 415.242 245.185C431.775 252.139 448.268 259.173 464.751 266.236C466.282 266.892 467.008 266.679 467.898 265.262C476.472 251.602 485.087 237.962 493.811 224.392C494.994 222.553 494.437 222.125 492.762 221.598C489.237 220.485 485.743 219.257 482.243 218.069C469.891 213.874 457.519 209.743 445.201 205.463C435.503 202.093 425.86 198.554 416.206 195.044C410.51 192.972 404.838 190.819 399.156 188.702C400.006 188.18 400.762 188.726 401.513 188.965C407.01 190.72 412.508 192.474 417.996 194.279C427.634 197.445 437.273 200.607 446.886 203.838C462.723 209.152 478.54 214.52 494.362 219.864C495.61 220.286 496.838 220.738 498.225 220.49C505.586 219.173 512.953 217.86 520.335 216.633C521.553 216.429 521.995 216.051 522 214.778C522.085 199.463 522.214 184.148 522.363 168.833C522.373 167.61 522.04 167.238 520.772 167.461C517.899 167.968 515.001 168.361 512.103 168.749C505.437 169.644 498.761 170.479 492.096 171.403C484.277 172.487 476.467 173.685 468.648 174.754C459.249 176.041 449.834 177.224 440.429 178.492C428.842 180.052 417.255 181.628 405.673 183.239C401.363 183.835 397.074 184.541 392.774 185.197C392.456 185.222 392.138 185.247 391.82 185.272L391.829 185.267ZM502.072 232.907C503.23 233.066 503.195 234.189 503.558 234.905C508.619 244.946 513.659 254.997 518.61 265.093C519.415 266.728 520.076 267.429 522.104 266.793C525.375 265.769 528.81 265.287 532.16 264.487C553.077 259.496 574.069 254.838 595.081 250.275C615.904 245.752 636.721 241.193 657.564 236.749C659.771 236.277 659.761 235.561 658.841 233.827C652.623 222.076 646.439 210.31 640.365 198.484C639.505 196.804 638.456 196.396 636.836 196.705C632.431 197.54 628.022 198.355 623.628 199.23C610.565 201.825 597.526 204.558 584.443 207.029C569.536 209.842 554.584 212.412 539.661 215.126C526.439 217.527 513.241 220.048 500.004 222.349C497.578 222.772 497.852 223.661 498.667 225.277C499.423 226.783 500.715 228.08 500.606 229.949C499.477 228.915 499.542 227.096 498.021 225.953V270.079C497.986 270.273 497.946 270.461 497.911 270.655C497.911 284.917 497.911 299.173 497.911 313.434C497.902 313.593 497.892 313.747 497.877 313.906C497.827 314.895 497.737 315.885 497.733 316.874C497.688 341.459 497.653 366.05 497.628 390.636C497.628 391.346 497.37 392.107 497.916 392.848C498.831 392.604 499.766 392.356 500.7 392.102C519.182 387.091 537.653 382.051 556.144 377.08C583.593 369.704 611.052 362.367 638.521 355.045C640.017 354.647 640.852 354.239 640.847 352.331C640.743 316.566 640.728 280.801 640.743 245.041C640.743 243.192 640.459 242.645 638.421 243.102C624.414 246.273 610.381 249.301 596.353 252.378C579.92 255.981 563.491 259.605 547.053 263.179C538.602 265.018 530.137 266.763 521.677 268.568C519.813 268.965 518.575 268.756 517.616 266.639C513.734 258.054 509.553 249.604 505.596 241.054C504.359 238.375 502.728 235.85 502.077 232.917L502.072 232.907ZM390.03 309.403C390.08 319.653 390.169 329.902 390.129 340.157C390.125 341.817 390.637 342.603 392.138 343.309C405.648 349.651 419.114 356.098 432.6 362.496C453.612 372.462 474.633 382.414 495.65 392.37C495.988 392.41 496.082 392.246 496.003 391.943C495.938 382.31 495.873 372.681 495.809 363.048C496.092 359.24 496.192 355.432 495.759 351.625C495.759 349.507 495.759 347.39 495.764 345.272C496.037 344.904 496.057 344.546 495.739 344.193V226.43C491.966 231.326 488.715 236.287 485.504 241.268C479.862 250.017 474.25 258.79 468.604 267.539C467.957 268.543 467.435 269.482 465.726 268.761C444.967 260.003 424.165 251.354 403.382 242.665C398.908 240.796 394.444 238.902 389.97 237.018V274.711C389.97 279.812 389.97 284.912 389.97 290.012C389.98 296.001 389.99 301.996 389.995 307.986C390.005 308.458 390.015 308.935 390.025 309.408L390.03 309.403ZM635.618 195.407C631.189 194.259 627.466 193.285 623.742 192.33C591.174 183.984 558.6 175.653 526.046 167.258C524.222 166.785 523.854 167.163 523.869 168.992C523.973 183.731 524.033 198.469 523.968 213.208C523.958 215.594 524.515 216.026 526.847 215.549C551.815 210.424 576.947 206.154 602.015 201.556C612.961 199.548 623.911 197.55 635.623 195.407H635.618Z" fill="#663C19"/>
<path d="M645.321 339.243C645.236 339.098 645.187 338.944 645.182 338.775C645.554 338.736 645.868 338.815 646.047 339.178C645.803 339.198 645.559 339.223 645.321 339.243Z" fill="#DA7A37"/>
<path d="M385.362 332.944C385.442 333.019 385.531 333.084 385.596 333.168C385.606 333.183 385.527 333.272 385.487 333.322C385.392 333.213 385.348 333.084 385.357 332.939L385.362 332.944Z" fill="#DA7A37"/>
<path d="M495.769 345.272C495.769 347.39 495.769 349.507 495.759 351.625C495.55 355.432 495.456 359.24 495.809 363.048C495.873 372.681 495.938 382.31 496.003 391.943C495.883 392.087 495.769 392.226 495.65 392.37C474.633 382.414 453.612 372.462 432.6 362.496C419.114 356.098 405.648 349.651 392.138 343.309C390.636 342.603 390.124 341.817 390.129 340.157C390.169 329.907 390.075 319.658 390.03 309.408C390.363 308.926 390.373 308.453 390 307.981C389.99 301.991 389.98 295.996 389.975 290.007C390.507 284.907 390.502 279.807 389.975 274.706V237.013C394.449 238.897 398.913 240.791 403.387 242.66C424.175 251.344 444.977 259.998 465.73 268.756C467.445 269.477 467.962 268.543 468.609 267.534C474.255 258.785 479.867 250.016 485.509 241.263C488.72 236.282 491.971 231.326 495.744 226.425C495.744 265.68 495.744 304.934 495.744 344.188C495.754 344.546 495.759 344.904 495.769 345.267V345.272ZM400.638 326.308C401.12 320.781 401.895 315.736 401.622 310.635C401.239 303.502 400.717 296.374 400.757 289.226C400.767 287.655 400.782 286.085 400.737 284.519C400.722 284.032 401.011 283.296 400.091 283.221C399.544 283.674 399.748 284.285 399.728 284.827C399.524 289.917 399.758 295.002 399.34 300.117C398.853 306.107 398.968 312.181 399.355 318.186C399.519 320.711 399.216 323.44 400.633 326.303L400.638 326.308Z" fill="#F7AB6B"/>
<path d="M497.906 313.434C497.906 299.173 497.906 284.917 497.906 270.655C497.941 270.461 497.981 270.273 498.016 270.079C498.016 255.46 498.016 240.845 498.016 225.953C499.532 227.096 499.472 228.911 500.601 229.949L500.586 229.91C500.576 230.347 500.611 230.77 501.113 230.949L501.083 230.904C501.142 231.724 501.346 232.47 502.107 232.932L502.072 232.912C502.723 235.85 504.354 238.37 505.591 241.049C509.543 249.604 513.729 258.049 517.611 266.634C518.565 268.747 519.803 268.96 521.672 268.563C530.127 266.758 538.597 265.013 547.048 263.174C563.486 259.6 579.915 255.977 596.348 252.373C610.376 249.296 624.413 246.269 638.416 243.097C640.454 242.635 640.738 243.182 640.738 245.036C640.723 280.801 640.738 316.566 640.842 352.326C640.847 354.234 640.012 354.642 638.516 355.04C611.052 362.362 583.593 369.694 556.139 377.075C537.648 382.046 519.177 387.087 500.695 392.097C499.761 392.351 498.826 392.599 497.911 392.843C497.365 392.107 497.623 391.342 497.623 390.631C497.648 366.045 497.683 341.455 497.728 316.869C497.728 315.88 497.822 314.891 497.872 313.901C497.911 313.857 497.981 313.807 497.981 313.762C497.976 313.648 497.931 313.538 497.906 313.429V313.434ZM619.925 256.792C619.895 255.136 619.726 253.471 619.88 251.836C620.059 249.932 619.269 249.549 617.623 249.907C602.219 253.233 586.809 256.538 571.405 259.869C556.308 263.13 541.237 266.49 526.111 269.607C523.929 270.054 523.362 270.715 523.367 272.852C523.437 304.054 523.412 335.251 523.412 366.453C523.412 367.268 523.412 368.083 523.412 369.092C531.887 367.064 540.148 365.091 548.405 363.107C565.604 358.977 582.793 354.821 599.997 350.715C606.538 349.154 613.1 347.688 619.656 346.182C620.78 345.506 620.303 344.392 620.303 343.483C620.327 315.462 620.327 287.442 620.308 259.421C620.308 258.541 620.601 257.592 619.925 256.802V256.792ZM536.276 372.999C553.858 368.799 571.773 365.876 588.718 359.22C570.674 361.631 553.704 368.207 536.276 372.999Z" fill="#F39455"/>
<path d="M500.596 229.949C500.705 228.08 499.413 226.783 498.657 225.277C497.842 223.656 497.568 222.766 499.994 222.349C513.231 220.047 526.434 217.527 539.651 215.126C554.579 212.412 569.526 209.847 584.433 207.029C597.521 204.558 610.555 201.824 623.618 199.23C628.012 198.355 632.421 197.54 636.826 196.705C638.446 196.396 639.49 196.809 640.355 198.484C646.429 210.31 652.613 222.076 658.831 233.827C659.751 235.561 659.761 236.277 657.554 236.749C636.711 241.198 615.894 245.752 595.071 250.275C574.059 254.838 553.067 259.496 532.15 264.486C528.805 265.287 525.37 265.769 522.094 266.793C520.061 267.429 519.4 266.728 518.6 265.093C513.644 254.997 508.609 244.946 503.548 234.905C503.185 234.189 503.225 233.071 502.062 232.907L502.097 232.927C502.326 231.962 502.037 231.262 501.073 230.899L501.103 230.943C501.302 230.407 501.321 229.959 500.576 229.905L500.591 229.944L500.596 229.949Z" fill="#F7AB6B"/>
<path d="M399.156 188.702C404.838 190.819 410.51 192.972 416.206 195.044C425.86 198.554 435.498 202.093 445.201 205.463C457.519 209.748 469.891 213.879 482.243 218.069C485.748 219.257 489.237 220.485 492.762 221.598C494.437 222.13 494.994 222.553 493.811 224.392C485.087 237.957 476.472 251.597 467.898 265.262C467.008 266.679 466.282 266.892 464.751 266.236C448.268 259.168 431.77 252.134 415.242 245.185C399.32 238.489 383.364 231.873 367.393 225.302C365.579 224.556 365.231 224.029 366.384 222.24C373.805 210.688 381.088 199.046 388.444 187.449C388.892 186.743 389.091 185.65 390.298 185.694C390.801 185.863 391.303 186.032 391.8 186.201C394.25 187.036 396.706 187.872 399.156 188.702ZM429.583 245.314C429.429 245.702 429.613 245.707 429.901 245.598C429.782 245.513 429.657 245.433 429.538 245.349C428.345 244.171 426.789 243.574 425.348 242.809C413.418 236.466 400.548 232.355 388.141 227.141C387.639 226.932 387.122 226.773 386.536 227.22C388.086 227.941 389.568 228.647 391.059 229.313C401.234 233.871 411.081 239.17 421.575 243.013C424.175 243.962 426.71 245.269 429.583 245.314Z" fill="#F39455"/>
<path d="M399.156 188.702C396.706 187.867 394.25 187.031 391.8 186.201L391.785 186.216C392.431 186.181 392.779 185.853 392.779 185.192C397.079 184.536 401.373 183.835 405.678 183.239C417.26 181.633 428.847 180.052 440.434 178.492C449.839 177.224 459.253 176.041 468.653 174.754C476.477 173.685 484.282 172.487 492.101 171.403C498.761 170.479 505.437 169.649 512.108 168.749C515.001 168.361 517.899 167.968 520.777 167.461C522.04 167.238 522.378 167.61 522.368 168.833C522.219 184.148 522.089 199.463 522.005 214.778C522 216.051 521.558 216.429 520.34 216.633C512.958 217.855 505.596 219.168 498.23 220.49C496.838 220.738 495.615 220.286 494.367 219.864C478.54 214.52 462.723 209.152 446.891 203.838C437.273 200.612 427.639 197.445 418.001 194.279C412.518 192.479 407.02 190.72 401.518 188.965C400.762 188.726 400.011 188.18 399.161 188.702H399.156ZM513.763 184.213C513.336 192.897 511.681 201.556 513.828 210.215C516.12 201.546 514.042 192.867 513.763 184.213Z" fill="#DA7A37"/>
<path d="M635.618 195.407C623.907 197.55 612.961 199.553 602.01 201.556C576.942 206.154 551.81 210.424 526.842 215.549C524.51 216.026 523.954 215.594 523.963 213.208C524.028 198.469 523.968 183.731 523.864 168.992C523.849 167.163 524.217 166.785 526.041 167.257C558.6 175.648 591.169 183.979 623.738 192.33C627.466 193.285 631.184 194.259 635.613 195.407H635.618Z" fill="#DA7A37"/>
<path d="M389.975 274.706C390.502 279.806 390.507 284.907 389.975 290.007C389.975 284.907 389.975 279.806 389.975 274.706Z" fill="#F39455"/>
<path d="M495.814 363.048C495.461 359.24 495.555 355.432 495.764 351.625C496.197 355.432 496.097 359.24 495.814 363.048Z" fill="#DA7A37"/>
<path d="M391.8 186.201C391.298 186.032 390.796 185.863 390.298 185.694C390.686 185.118 391.268 185.232 391.829 185.267C391.815 185.585 391.8 185.898 391.79 186.216L391.805 186.201H391.8Z" fill="#DA7A37"/>
<path d="M391.785 186.216C391.8 185.898 391.81 185.585 391.825 185.267C392.143 185.242 392.461 185.217 392.779 185.192C392.779 185.853 392.431 186.181 391.785 186.216Z" fill="#F39455"/>
<path d="M390 307.976C390.373 308.443 390.358 308.921 390.03 309.403C390.02 308.925 390.01 308.453 390 307.976Z" fill="#DA7A37"/>
<path d="M495.769 345.272C495.759 344.914 495.749 344.551 495.744 344.193C496.062 344.546 496.047 344.904 495.769 345.272Z" fill="#DA7A37"/>
<path d="M498.016 270.079C497.976 270.272 497.941 270.461 497.906 270.655C497.946 270.461 497.981 270.272 498.016 270.079Z" fill="#DA7A37"/>
<path d="M497.906 313.434C497.931 313.543 497.976 313.653 497.981 313.767C497.981 313.812 497.911 313.862 497.872 313.906C497.882 313.747 497.892 313.593 497.906 313.434Z" fill="#DA7A37"/>
<path d="M495.655 392.37C495.774 392.226 495.888 392.087 496.008 391.943C496.087 392.246 495.993 392.41 495.655 392.37Z" fill="#DA7A37"/>
<path d="M400.638 326.313C399.216 323.45 399.524 320.721 399.36 318.196C398.973 312.191 398.858 306.117 399.345 300.127C399.763 295.012 399.524 289.927 399.733 284.837C399.753 284.295 399.549 283.679 400.096 283.231C401.016 283.306 400.727 284.047 400.742 284.529C400.787 286.095 400.772 287.665 400.762 289.236C400.722 296.384 401.244 303.512 401.627 310.645C401.9 315.741 401.12 320.791 400.643 326.318L400.638 326.313Z" fill="#663C19"/>
<path d="M619.656 346.177C613.105 347.683 606.538 349.149 599.997 350.71C582.793 354.821 565.604 358.972 548.405 363.102C540.148 365.086 531.887 367.059 523.412 369.087C523.412 368.078 523.412 367.263 523.412 366.448C523.412 335.246 523.432 304.049 523.367 272.847C523.367 270.71 523.929 270.049 526.111 269.601C541.237 266.485 556.308 263.13 571.405 259.864C586.809 256.533 602.219 253.233 617.623 249.902C619.269 249.544 620.059 249.932 619.88 251.831C619.726 253.466 619.9 255.131 619.925 256.787C619.895 257.696 619.84 258.606 619.835 259.511C619.825 279.464 619.835 299.411 619.806 319.364C619.791 328.302 619.706 337.234 619.656 346.172V346.177ZM618.667 321.621C618.702 321.377 618.762 321.129 618.762 320.885C618.787 298.283 618.772 275.681 618.891 253.079C618.901 250.762 617.594 251.12 616.411 251.359C608.522 252.969 600.648 254.644 592.784 256.359C582.5 258.601 572.24 260.942 561.95 263.169C550.234 265.709 538.513 268.239 526.752 270.591C524.689 271.003 524.411 271.878 524.411 273.658C524.451 304.124 524.441 334.595 524.441 365.061V367.795C526.533 366.999 528.502 366.647 530.44 366.169C542.211 363.251 554.037 360.552 565.838 357.764C578.573 354.751 591.333 351.819 604.028 348.652C608.915 347.434 613.925 346.659 618.657 344.85C618.831 344.457 618.861 344.069 618.622 343.691C618.632 336.34 618.647 328.988 618.657 321.636V321.621H618.667Z" fill="#F39455"/>
<path d="M536.276 372.999C553.704 368.207 570.674 361.631 588.718 359.22C571.773 365.876 553.858 368.799 536.276 372.999Z" fill="#663C19"/>
<path d="M619.656 346.177C619.711 337.239 619.796 328.307 619.806 319.369C619.835 299.416 619.825 279.469 619.835 259.516C619.835 258.606 619.89 257.696 619.925 256.792C620.601 257.582 620.308 258.536 620.308 259.411C620.322 287.432 620.327 315.452 620.303 343.473C620.303 344.387 620.78 345.496 619.656 346.172V346.177Z" fill="#F7AB6B"/>
<path d="M501.083 230.904C502.047 231.267 502.335 231.967 502.107 232.932C501.346 232.469 501.142 231.724 501.083 230.904Z" fill="#663C19"/>
<path d="M500.581 229.91C501.326 229.964 501.307 230.412 501.108 230.948C500.606 230.765 500.571 230.347 500.581 229.91Z" fill="#663C19"/>
<path d="M429.583 245.314C426.71 245.269 424.174 243.967 421.575 243.013C411.081 239.17 401.234 233.876 391.059 229.313C389.568 228.642 388.086 227.936 386.536 227.22C387.122 226.773 387.639 226.932 388.141 227.141C400.548 232.355 413.418 236.466 425.348 242.809C426.789 243.574 428.34 244.171 429.538 245.349L429.588 245.309L429.583 245.314Z" fill="#663C19"/>
<path d="M429.533 245.349C429.652 245.433 429.777 245.513 429.896 245.597C429.608 245.707 429.424 245.702 429.578 245.314L429.528 245.354L429.533 245.349Z" fill="#663C19"/>
<path d="M513.763 184.213C514.047 192.867 516.12 201.551 513.828 210.215C511.681 201.556 513.336 192.892 513.763 184.213Z" fill="#663C19"/>
<path d="M618.662 344.85C618.344 344.467 618.255 344.079 618.628 343.681C618.866 344.069 618.836 344.457 618.662 344.85Z" fill="#F7AB6B"/>
<path d="M618.662 321.636L618.523 321.621H618.662V321.636Z" fill="#F7AB6B"/>
<mask id="path-60-outside-1_18_142" maskUnits="userSpaceOnUse" x="521.416" y="248.18" width="100" height="122" fill="black">
<rect fill="white" x="521.416" y="248.18" width="100" height="122"/>
<path fill-rule="evenodd" clip-rule="evenodd" d="M608.449 347.635C611.896 346.874 615.345 346.113 618.661 344.85C618.662 344.85 618.663 344.85 618.663 344.85V344.85C618.665 344.851 618.667 344.848 618.666 344.847C618.373 344.491 618.279 344.131 618.572 343.762C618.612 343.712 618.638 343.651 618.638 343.586C618.643 339.949 618.649 336.311 618.655 332.672C618.661 329.041 618.667 325.408 618.672 321.776C618.672 321.696 618.612 321.629 618.533 321.621V321.621V321.621C618.613 321.621 618.681 321.562 618.694 321.483C618.698 321.458 618.702 321.433 618.707 321.408C618.737 321.234 618.767 321.058 618.767 320.885C618.772 315.719 618.776 310.553 618.78 305.387C618.792 287.951 618.804 270.515 618.896 253.078C618.91 250.839 617.689 251.093 616.54 251.333C616.499 251.341 616.457 251.35 616.416 251.359C608.532 252.969 600.653 254.644 592.789 256.359C587.991 257.405 583.198 258.473 578.405 259.54C572.923 260.761 567.442 261.981 561.955 263.169L561.955 263.169C550.234 265.704 538.513 268.239 526.757 270.591C524.694 271.003 524.416 271.878 524.416 273.658C524.449 299.046 524.448 324.437 524.446 349.826C524.446 354.905 524.446 359.983 524.446 365.061V366.119C524.446 366.928 525.258 367.491 526.034 367.261C527.034 366.964 528.01 366.739 528.973 366.518C529.466 366.404 529.957 366.291 530.445 366.169C538.784 364.102 547.15 362.145 555.514 360.188C558.958 359.382 562.401 358.577 565.843 357.764C569.085 356.997 572.329 356.235 575.573 355.473C585.07 353.243 594.567 351.012 604.033 348.652C605.498 348.287 606.974 347.961 608.449 347.635Z"/>
</mask>
<path fill-rule="evenodd" clip-rule="evenodd" d="M608.449 347.635C611.896 346.874 615.345 346.113 618.661 344.85C618.662 344.85 618.663 344.85 618.663 344.85V344.85C618.665 344.851 618.667 344.848 618.666 344.847C618.373 344.491 618.279 344.131 618.572 343.762C618.612 343.712 618.638 343.651 618.638 343.586C618.643 339.949 618.649 336.311 618.655 332.672C618.661 329.041 618.667 325.408 618.672 321.776C618.672 321.696 618.612 321.629 618.533 321.621V321.621V321.621C618.613 321.621 618.681 321.562 618.694 321.483C618.698 321.458 618.702 321.433 618.707 321.408C618.737 321.234 618.767 321.058 618.767 320.885C618.772 315.719 618.776 310.553 618.78 305.387C618.792 287.951 618.804 270.515 618.896 253.078C618.91 250.839 617.689 251.093 616.54 251.333C616.499 251.341 616.457 251.35 616.416 251.359C608.532 252.969 600.653 254.644 592.789 256.359C587.991 257.405 583.198 258.473 578.405 259.54C572.923 260.761 567.442 261.981 561.955 263.169L561.955 263.169C550.234 265.704 538.513 268.239 526.757 270.591C524.694 271.003 524.416 271.878 524.416 273.658C524.449 299.046 524.448 324.437 524.446 349.826C524.446 354.905 524.446 359.983 524.446 365.061V366.119C524.446 366.928 525.258 367.491 526.034 367.261C527.034 366.964 528.01 366.739 528.973 366.518C529.466 366.404 529.957 366.291 530.445 366.169C538.784 364.102 547.15 362.145 555.514 360.188C558.958 359.382 562.401 358.577 565.843 357.764C569.085 356.997 572.329 356.235 575.573 355.473C585.07 353.243 594.567 351.012 604.033 348.652C605.498 348.287 606.974 347.961 608.449 347.635Z" fill="white"/>
<path d="M608.449 347.635L607.951 345.378L607.951 345.378L608.449 347.635ZM618.655 332.672L620.967 332.676L620.967 332.676L618.655 332.672ZM618.707 321.408L616.428 321.017L616.428 321.018L618.707 321.408ZM618.767 320.885L616.454 320.883V320.885H618.767ZM618.78 305.387L616.467 305.385L616.467 305.385L618.78 305.387ZM618.896 253.078L616.584 253.064L616.584 253.066L618.896 253.078ZM616.54 251.333L617.012 253.596L617.012 253.596L616.54 251.333ZM616.416 251.359L616.878 253.624L616.882 253.623L616.416 251.359ZM592.789 256.359L593.282 258.618L593.282 258.618L592.789 256.359ZM578.405 259.54L578.907 261.797L578.907 261.797L578.405 259.54ZM561.955 263.169L562.443 265.429L562.445 265.429L561.955 263.169ZM561.955 263.169L561.467 260.909L561.466 260.909L561.955 263.169ZM526.757 270.591L527.211 272.858L527.211 272.858L526.757 270.591ZM524.416 273.658L522.104 273.658L522.104 273.661L524.416 273.658ZM524.446 349.826L526.758 349.827L524.446 349.826ZM528.973 366.518L528.454 364.264L528.453 364.264L528.973 366.518ZM530.445 366.169L529.889 363.925L529.887 363.925L530.445 366.169ZM555.514 360.188L554.988 357.937L554.988 357.937L555.514 360.188ZM565.843 357.764L566.374 360.014L566.375 360.014L565.843 357.764ZM575.573 355.473L576.102 357.724L576.102 357.724L575.573 355.473ZM604.033 348.652L603.474 346.409L603.474 346.409L604.033 348.652ZM618.572 343.762L616.762 342.323L618.572 343.762ZM618.638 343.586L616.325 343.583L618.638 343.586ZM618.694 321.483L620.974 321.866L618.694 321.483ZM618.666 344.847L616.88 346.316L618.666 344.847ZM618.672 321.776L620.984 321.779L618.672 321.776ZM526.034 367.261L525.376 365.044L526.034 367.261ZM618.661 344.85L619.484 347.011L618.661 344.85ZM617.838 342.689C614.707 343.882 611.425 344.611 607.951 345.378L608.948 349.893C612.367 349.138 615.983 348.344 619.484 347.011L617.838 342.689ZM616.762 342.323C616.28 342.93 615.992 343.726 616.106 344.607C616.208 345.389 616.594 345.968 616.88 346.316L620.451 343.377C620.458 343.385 620.5 343.438 620.549 343.534C620.599 343.632 620.664 343.794 620.692 344.011C620.722 344.238 620.705 344.479 620.634 344.712C620.564 344.938 620.462 345.101 620.382 345.201L616.762 342.323ZM616.343 332.668C616.336 336.307 616.33 339.946 616.325 343.583L620.95 343.589C620.955 339.953 620.961 336.315 620.967 332.676L616.343 332.668ZM616.36 321.773C616.355 325.405 616.349 329.037 616.343 332.668L620.967 332.676C620.973 329.045 620.979 325.412 620.984 321.779L616.36 321.773ZM616.428 321.018C616.424 321.042 616.419 321.071 616.414 321.101L620.974 321.866C620.978 321.846 620.981 321.825 620.986 321.799L616.428 321.018ZM616.454 320.885C616.454 320.841 616.458 320.824 616.455 320.85C616.453 320.863 616.45 320.881 616.446 320.91C616.441 320.94 616.436 320.972 616.428 321.017L620.986 321.799C621.009 321.661 621.079 321.289 621.079 320.885H616.454ZM616.467 305.385C616.464 310.551 616.46 315.717 616.454 320.883L621.079 320.888C621.085 315.721 621.088 310.555 621.092 305.389L616.467 305.385ZM616.584 253.066C616.492 270.509 616.48 287.95 616.467 305.385L621.092 305.389C621.104 287.952 621.116 270.521 621.208 253.091L616.584 253.066ZM617.012 253.596C617.162 253.565 617.273 253.542 617.377 253.524C617.479 253.505 617.544 253.497 617.583 253.494C617.624 253.491 617.612 253.495 617.564 253.49C617.513 253.485 617.404 253.468 617.265 253.41C617.118 253.349 616.965 253.253 616.832 253.121C616.701 252.991 616.627 252.865 616.59 252.783C616.555 252.706 616.556 252.678 616.565 252.728C616.573 252.779 616.585 252.885 616.584 253.064L621.208 253.093C621.217 251.691 620.835 249.888 619.044 249.142C618.333 248.845 617.65 248.849 617.207 248.885C616.762 248.921 616.325 249.016 616.069 249.069L617.012 253.596ZM616.882 253.623C616.927 253.614 616.971 253.605 617.012 253.596L616.069 249.069C616.026 249.078 615.987 249.086 615.949 249.094L616.882 253.623ZM593.282 258.618C601.138 256.905 609.007 255.232 616.878 253.624L615.953 249.093C608.057 250.706 600.168 252.383 592.297 254.1L593.282 258.618ZM578.907 261.797C583.701 260.729 588.49 259.663 593.282 258.618L592.297 254.1C587.493 255.147 582.695 256.216 577.902 257.283L578.907 261.797ZM562.445 265.429C567.939 264.239 573.427 263.017 578.907 261.797L577.902 257.283C572.42 258.504 566.945 259.723 561.466 260.909L562.445 265.429ZM562.443 265.43L562.443 265.429L561.467 260.909L561.467 260.909L562.443 265.43ZM527.211 272.858C538.987 270.503 550.726 267.964 562.444 265.429L561.466 260.909C549.742 263.445 538.039 265.976 526.304 268.323L527.211 272.858ZM526.728 273.658C526.728 273.253 526.746 273.021 526.77 272.878C526.792 272.751 526.804 272.793 526.739 272.891C526.662 273.006 526.582 273.048 526.605 273.036C526.655 273.01 526.823 272.935 527.211 272.858L526.304 268.323C525.047 268.575 523.721 269.077 522.887 270.332C522.134 271.465 522.104 272.787 522.104 273.658H526.728ZM526.758 349.827C526.76 324.438 526.761 299.045 526.728 273.655L522.104 273.661C522.137 299.047 522.135 324.437 522.134 349.826L526.758 349.827ZM526.758 365.061C526.758 359.983 526.758 354.905 526.758 349.827L522.134 349.826C522.134 354.905 522.133 359.983 522.133 365.061H526.758ZM526.758 366.119V365.061H522.133V366.119H526.758ZM528.453 364.264C527.5 364.484 526.456 364.724 525.376 365.044L526.692 369.478C527.612 369.204 528.52 368.995 529.492 368.771L528.453 364.264ZM529.887 363.925C529.421 364.041 528.951 364.15 528.454 364.264L529.492 368.771C529.982 368.658 530.492 368.54 531.004 368.413L529.887 363.925ZM554.988 357.937C546.625 359.893 538.245 361.854 529.889 363.925L531.002 368.414C539.323 366.351 547.674 364.397 556.041 362.44L554.988 357.937ZM565.311 355.513C561.872 356.326 558.432 357.131 554.988 357.937L556.041 362.44C559.484 361.634 562.93 360.828 566.374 360.014L565.311 355.513ZM575.045 353.222C571.801 353.984 568.555 354.746 565.31 355.513L566.375 360.014C569.615 359.247 572.858 358.486 576.102 357.724L575.045 353.222ZM603.474 346.409C594.025 348.764 584.544 350.991 575.045 353.222L576.102 357.724C585.596 355.494 595.108 353.26 604.593 350.896L603.474 346.409ZM607.951 345.378C606.48 345.702 604.974 346.035 603.474 346.409L604.592 350.896C606.022 350.54 607.467 350.22 608.948 349.893L607.951 345.378ZM620.382 345.201C620.681 344.825 620.949 344.272 620.95 343.589L616.325 343.583C616.326 343.029 616.543 342.598 616.762 342.323L620.382 345.201ZM618.533 323.933C619.771 323.933 620.779 323.03 620.974 321.866L616.414 321.101C616.583 320.094 617.455 319.309 618.533 319.309V323.933ZM617.629 346.918C618.775 347.491 619.938 346.993 620.503 346.254C621.058 345.528 621.232 344.327 620.451 343.377L616.88 346.316C616.101 345.368 616.275 344.169 616.829 343.445C617.393 342.707 618.553 342.21 619.697 342.782L617.629 346.918ZM620.984 321.779C620.986 320.516 620.035 319.456 618.779 319.322L618.287 323.92C617.19 323.803 616.358 322.876 616.36 321.773L620.984 321.779ZM522.133 366.119C522.133 368.594 524.551 370.113 526.692 369.478L525.376 365.044C525.965 364.869 526.758 365.262 526.758 366.119H522.133ZM619.484 347.011C618.881 347.241 618.208 347.207 617.629 346.918L619.697 342.782C619.117 342.492 618.443 342.459 617.838 342.689L619.484 347.011Z" fill="black" mask="url(#path-60-outside-1_18_142)"/>
<path d="M536.521 317.136L534.918 305.48L537.048 305.187L537.444 306.674C537.848 306.011 538.359 305.479 538.979 305.079C539.599 304.679 540.258 304.431 540.957 304.335C542.046 304.185 542.901 304.379 543.523 304.916C544.15 305.444 544.539 306.256 544.69 307.353L545.859 315.851L543.387 316.191L542.386 308.918C542.293 308.241 542.178 307.702 542.04 307.301C541.902 306.9 541.7 306.624 541.431 306.474C541.171 306.322 540.805 306.279 540.334 306.344C539.959 306.395 539.613 306.525 539.297 306.734C538.98 306.942 538.701 307.198 538.458 307.501C538.213 307.797 538.009 308.107 537.843 308.429L538.994 316.796L536.521 317.136ZM550.627 303.32L551.747 311.465C551.842 312.157 552.046 312.631 552.359 312.888C552.679 313.144 553.119 313.233 553.678 313.157C554.208 313.084 554.697 312.855 555.147 312.471C555.596 312.087 555.933 311.647 556.157 311.151L554.997 302.719L557.47 302.379L559.073 314.034L556.943 314.327L556.583 312.858C556.229 313.499 555.742 314.02 555.122 314.42C554.502 314.813 553.845 315.057 553.154 315.152C552.028 315.307 551.143 315.113 550.499 314.572C549.861 314.023 549.467 313.203 549.317 312.114L548.154 303.66L550.627 303.32ZM569.383 300.425C569.824 300.365 570.235 300.406 570.614 300.548C570.994 300.691 571.316 300.988 571.58 301.439C571.852 301.889 572.047 302.544 572.166 303.405L573.357 312.069L571.161 312.371L570.016 304.049C569.932 303.439 569.828 303.007 569.703 302.754C569.586 302.5 569.351 302.398 568.997 302.446C568.718 302.485 568.447 302.612 568.184 302.828C567.92 303.037 567.67 303.371 567.433 303.831L568.655 312.716L566.658 312.991L565.513 304.669C565.429 304.058 565.325 303.626 565.2 303.373C565.083 303.12 564.847 303.017 564.494 303.066C564.207 303.105 563.932 303.233 563.67 303.449C563.413 303.657 563.167 303.99 562.93 304.45L564.152 313.335L561.945 313.639L560.342 301.984L562.207 301.727L562.546 302.963C562.813 302.453 563.122 302.029 563.472 301.688C563.822 301.34 564.273 301.128 564.825 301.052C565.266 300.991 565.682 301.047 566.073 301.218C566.464 301.389 566.782 301.739 567.027 302.267C567.29 301.781 567.609 301.374 567.984 301.045C568.357 300.709 568.824 300.502 569.383 300.425ZM577.29 301.07C577.622 300.484 578.036 300.004 578.531 299.628C579.034 299.252 579.609 299.019 580.257 298.93C581.28 298.789 582.142 298.929 582.845 299.35C583.554 299.762 584.119 300.408 584.54 301.287C584.967 302.158 585.266 303.211 585.436 304.448C585.598 305.632 585.567 306.712 585.341 307.688C585.116 308.664 584.694 309.464 584.075 310.089C583.463 310.713 582.654 311.094 581.646 311.233C580.343 311.412 579.254 311.071 578.378 310.209L578.404 311.375L576.229 311.674L573.983 295.339L576.417 294.723L577.29 301.07ZM580.768 309.431C581.607 309.315 582.207 308.884 582.569 308.137C582.939 307.389 583.023 306.283 582.821 304.818C582.685 303.825 582.482 303.032 582.213 302.439C581.943 301.839 581.608 301.42 581.208 301.183C580.815 300.945 580.361 300.861 579.846 300.932C579.294 301.008 578.832 301.24 578.458 301.629C578.084 302.018 577.781 302.457 577.548 302.946L578.298 308.398C578.628 308.78 579.001 309.066 579.417 309.257C579.839 309.438 580.29 309.496 580.768 309.431ZM590.826 304.538C590.987 305.326 591.246 305.954 591.602 306.422C591.958 306.883 592.384 307.199 592.88 307.371C593.383 307.542 593.915 307.589 594.474 307.512C595.048 307.433 595.565 307.272 596.027 307.028C596.488 306.785 596.943 306.467 597.392 306.076L598.666 307.408C598.182 307.924 597.594 308.365 596.902 308.73C596.21 309.095 595.448 309.335 594.617 309.449C593.41 309.615 592.352 309.498 591.442 309.098C590.54 308.698 589.808 308.067 589.248 307.207C588.687 306.347 588.324 305.314 588.158 304.107C587.997 302.937 588.066 301.863 588.367 300.884C588.666 299.899 589.176 299.082 589.897 298.436C590.617 297.782 591.528 297.379 592.632 297.228C593.67 297.085 594.592 297.198 595.4 297.567C596.215 297.934 596.885 298.524 597.409 299.337C597.94 300.141 598.289 301.15 598.456 302.364C598.483 302.563 598.503 302.763 598.515 302.964C598.534 303.156 598.547 303.327 598.552 303.476L590.826 304.538ZM592.906 299.057C592.134 299.163 591.531 299.527 591.1 300.149C590.675 300.769 590.503 301.67 590.583 302.851L595.98 302.109C595.807 301.016 595.456 300.205 594.926 299.679C594.404 299.151 593.73 298.943 592.906 299.057ZM602.812 308.018L602.569 306.252L604.28 306.017L603.161 297.882L601.45 298.118L601.209 296.363L604.807 295.868L605.631 298.51C605.931 297.471 606.366 296.654 606.936 296.059C607.513 295.455 608.309 295.083 609.324 294.943C609.67 294.895 609.983 294.882 610.263 294.904C610.55 294.917 610.836 294.949 611.12 295L610.672 297.22C610.428 297.187 610.2 297.169 609.99 297.168C609.779 297.16 609.548 297.173 609.298 297.207C608.452 297.323 607.763 297.74 607.232 298.458C606.709 299.175 606.35 300.139 606.157 301.35L606.752 305.677L609.103 305.353L609.346 307.119L602.812 308.018ZM609.525 299.594L609.131 296.724L609.244 295.258L611.12 295L611.291 299.351L609.525 299.594Z" fill="black"/>
<path d="M1005.92 339.242C1005.91 344.124 1005.91 349.01 1005.87 353.891C1005.85 356.794 1004.85 358.156 1002.07 358.902C985.573 363.321 969.06 367.675 952.571 372.109C938.305 375.947 924.064 379.894 909.798 383.746C893.394 388.175 876.955 392.48 860.587 397.018C857.922 397.759 855.601 397.262 853.434 396.213C837.144 388.354 820.795 380.619 804.407 372.969C788.719 365.642 773.155 358.047 757.537 350.566C754.863 349.284 752.218 347.936 749.499 346.758C747.138 345.739 746.109 344 746.109 341.514C746.109 338.785 746.099 336.051 746.089 333.322C746.129 333.268 746.208 333.183 746.198 333.168C746.134 333.084 746.044 333.014 745.965 332.944L745.94 332.741C745.94 308.806 745.94 284.877 745.94 260.942C745.94 253.904 745.885 246.865 745.975 239.826C745.995 238.176 745.537 237.266 743.967 236.645C737.977 234.279 732.032 231.803 726.072 229.363C725.386 229.079 724.705 228.771 724.039 228.433C721.121 226.962 720.39 224.486 722.155 221.668C728.82 211.026 735.521 200.408 742.207 189.78C743.35 187.961 744.613 186.206 745.607 184.312C746.805 182.021 748.659 181.061 751.124 180.733C761.717 179.317 772.295 177.791 782.888 176.359C793.158 174.972 803.437 173.68 813.707 172.278C825.274 170.697 836.826 169.007 848.393 167.427C857.52 166.179 866.656 165.036 875.787 163.838C876.767 163.708 877.781 163.649 878.7 163.336C885.49 161.029 891.664 164.017 897.967 165.607C923.686 172.104 949.385 178.685 975.089 185.237C982.192 187.046 989.291 188.89 996.399 190.69C1000.78 191.798 1003.9 193.886 1006.04 198.375C1011.51 209.867 1017.67 221.027 1023.58 232.306C1024.2 233.494 1024.03 234.552 1023.74 235.84C1022.53 241.268 1018.05 241.462 1013.93 242.307C1011.28 242.849 1007.85 242.57 1006.25 244.36C1004.69 246.1 1005.79 249.43 1005.79 252.06C1005.76 280.96 1005.78 309.865 1005.79 338.765C1005.79 338.934 1005.84 339.088 1005.93 339.233L1005.92 339.242ZM752.432 185.267C751.87 185.232 751.289 185.123 750.901 185.694C749.693 185.65 749.499 186.738 749.047 187.449C741.69 199.041 734.408 210.683 726.986 222.24C725.833 224.034 726.181 224.556 727.995 225.302C743.967 231.873 759.923 238.489 775.844 245.185C792.377 252.139 808.87 259.173 825.354 266.236C826.885 266.892 827.61 266.679 828.5 265.262C837.075 251.602 845.689 237.962 854.413 224.392C855.596 222.553 855.039 222.125 853.364 221.598C849.84 220.485 846.345 219.257 842.846 218.069C830.493 213.874 818.121 209.743 805.803 205.463C796.105 202.093 786.462 198.554 776.809 195.044C771.112 192.972 765.44 190.819 759.759 188.702C760.609 188.18 761.364 188.726 762.115 188.965C767.613 190.72 773.11 192.474 778.598 194.279C788.237 197.445 797.875 200.607 807.488 203.838C823.325 209.152 839.143 214.52 854.965 219.864C856.212 220.286 857.44 220.738 858.827 220.49C866.189 219.173 873.555 217.86 880.937 216.633C882.155 216.429 882.597 216.051 882.602 214.778C882.687 199.463 882.816 184.148 882.965 168.833C882.975 167.61 882.642 167.238 881.375 167.461C878.501 167.968 875.603 168.361 872.705 168.749C866.04 169.644 859.364 170.479 852.698 171.403C844.879 172.487 837.07 173.685 829.251 174.754C819.851 176.041 810.436 177.224 801.031 178.492C789.444 180.052 777.857 181.628 766.275 183.239C761.966 183.835 757.676 184.541 753.376 185.197C753.058 185.222 752.74 185.247 752.422 185.272L752.432 185.267ZM862.674 232.907C863.833 233.066 863.798 234.189 864.161 234.905C869.221 244.946 874.261 254.997 879.212 265.093C880.017 266.728 880.679 267.429 882.707 266.793C885.977 265.769 889.412 265.287 892.763 264.487C913.68 259.496 934.671 254.838 955.683 250.275C976.506 245.752 997.324 241.193 1018.17 236.749C1020.37 236.277 1020.36 235.561 1019.44 233.827C1013.23 222.076 1007.04 210.31 1000.97 198.484C1000.11 196.804 999.058 196.396 997.438 196.705C993.034 197.54 988.625 198.355 984.23 199.23C971.167 201.825 958.129 204.558 945.046 207.029C930.138 209.842 915.186 212.412 900.264 215.126C887.041 217.527 873.844 220.048 860.606 222.349C858.181 222.772 858.454 223.661 859.269 225.277C860.025 226.783 861.317 228.08 861.208 229.949C860.08 228.915 860.144 227.096 858.623 225.953V270.079C858.588 270.273 858.549 270.461 858.514 270.655C858.514 284.917 858.514 299.173 858.514 313.434C858.504 313.593 858.494 313.747 858.479 313.906C858.429 314.895 858.34 315.885 858.335 316.874C858.29 341.459 858.255 366.05 858.23 390.636C858.23 391.346 857.972 392.107 858.519 392.848C859.433 392.604 860.368 392.356 861.302 392.102C879.784 387.091 898.255 382.051 916.747 377.08C944.196 369.704 971.654 362.367 999.123 355.045C1000.62 354.647 1001.45 354.239 1001.45 352.331C1001.34 316.566 1001.33 280.801 1001.34 245.041C1001.34 243.192 1001.06 242.645 999.024 243.102C985.016 246.273 970.983 249.301 956.956 252.378C940.522 255.981 924.094 259.605 907.655 263.179C899.205 265.018 890.74 266.763 882.279 268.568C880.415 268.965 879.177 268.756 878.218 266.639C874.336 258.054 870.155 249.604 866.199 241.054C864.961 238.375 863.33 235.85 862.679 232.917L862.674 232.907ZM750.632 309.403C750.682 319.653 750.772 329.902 750.732 340.157C750.727 341.817 751.239 342.603 752.74 343.309C766.251 349.651 779.717 356.098 793.202 362.496C814.214 372.462 835.235 382.414 856.252 392.37C856.59 392.41 856.685 392.246 856.605 391.943C856.54 382.31 856.476 372.681 856.411 363.048C856.694 359.24 856.794 355.432 856.361 351.625C856.361 349.507 856.361 347.39 856.366 345.272C856.64 344.904 856.66 344.546 856.342 344.193V226.43C852.569 231.326 849.318 236.287 846.107 241.268C840.465 250.017 834.853 258.79 829.206 267.539C828.56 268.543 828.038 269.482 826.328 268.761C805.57 260.003 784.767 251.354 763.984 242.665C759.51 240.796 755.046 238.902 750.573 237.018V274.711C750.573 279.812 750.573 284.912 750.573 290.012C750.583 296.001 750.593 301.996 750.598 307.986C750.608 308.458 750.617 308.935 750.627 309.408L750.632 309.403ZM996.22 195.407C991.791 194.259 988.068 193.285 984.345 192.33C951.776 183.984 919.202 175.653 886.649 167.258C884.824 166.785 884.456 167.163 884.471 168.992C884.576 183.731 884.635 198.469 884.571 213.208C884.561 215.594 885.118 216.026 887.449 215.549C912.417 210.424 937.55 206.154 962.617 201.556C973.563 199.548 984.514 197.55 996.225 195.407H996.22Z" fill="#663C19"/>
<path d="M1005.92 339.243C1005.84 339.098 1005.79 338.944 1005.78 338.775C1006.16 338.736 1006.47 338.815 1006.65 339.178C1006.41 339.198 1006.16 339.223 1005.92 339.243Z" fill="#DA7A37"/>
<path d="M745.965 332.944C746.044 333.019 746.134 333.084 746.198 333.168C746.208 333.183 746.129 333.272 746.089 333.322C745.995 333.213 745.95 333.084 745.96 332.939L745.965 332.944Z" fill="#DA7A37"/>
<path d="M856.371 345.272C856.371 347.39 856.371 349.507 856.361 351.625C856.153 355.432 856.058 359.24 856.411 363.048C856.476 372.681 856.54 382.31 856.605 391.943C856.486 392.087 856.371 392.226 856.252 392.37C835.235 382.414 814.214 372.462 793.202 362.496C779.717 356.098 766.251 349.651 752.74 343.309C751.239 342.603 750.727 341.817 750.732 340.157C750.771 329.907 750.677 319.658 750.632 309.408C750.965 308.926 750.975 308.453 750.602 307.981C750.593 301.991 750.583 295.996 750.578 290.007C751.11 284.907 751.105 279.807 750.578 274.706V237.013C755.051 238.897 759.515 240.791 763.989 242.66C784.777 251.344 805.58 259.998 826.333 268.756C828.048 269.477 828.565 268.543 829.211 267.534C834.858 258.785 840.47 250.016 846.112 241.263C849.323 236.282 852.574 231.326 856.346 226.425C856.346 265.68 856.346 304.934 856.346 344.188C856.356 344.546 856.361 344.904 856.371 345.267V345.272ZM761.24 326.308C761.722 320.781 762.498 315.736 762.224 310.635C761.841 303.502 761.32 296.374 761.359 289.226C761.369 287.655 761.384 286.085 761.339 284.519C761.325 284.032 761.613 283.296 760.693 283.221C760.146 283.674 760.35 284.285 760.33 284.827C760.127 289.917 760.36 295.002 759.943 300.117C759.455 306.107 759.57 312.181 759.958 318.186C760.122 320.711 759.818 323.44 761.235 326.303L761.24 326.308Z" fill="#F7AB6B"/>
<path d="M858.509 313.434C858.509 299.173 858.509 284.917 858.509 270.655C858.544 270.461 858.583 270.273 858.618 270.079C858.618 255.46 858.618 240.845 858.618 225.953C860.134 227.096 860.075 228.911 861.203 229.949L861.188 229.91C861.178 230.347 861.213 230.77 861.715 230.949L861.685 230.904C861.745 231.724 861.949 232.47 862.709 232.932L862.674 232.912C863.325 235.85 864.956 238.37 866.194 241.049C870.145 249.604 874.331 258.049 878.213 266.634C879.167 268.747 880.405 268.96 882.274 268.563C890.73 266.758 899.2 265.013 907.65 263.174C924.089 259.6 940.517 255.977 956.951 252.373C970.978 249.296 985.016 246.269 999.019 243.097C1001.06 242.635 1001.34 243.182 1001.34 245.036C1001.32 280.801 1001.34 316.566 1001.44 352.326C1001.45 354.234 1000.61 354.642 999.118 355.04C971.654 362.362 944.196 369.694 916.742 377.075C898.25 382.046 879.779 387.087 861.297 392.097C860.363 392.351 859.428 392.599 858.514 392.843C857.967 392.107 858.225 391.342 858.225 390.631C858.25 366.045 858.285 341.455 858.33 316.869C858.33 315.88 858.424 314.891 858.474 313.901C858.514 313.857 858.583 313.807 858.583 313.762C858.578 313.648 858.534 313.538 858.509 313.429V313.434ZM980.527 256.792C980.497 255.136 980.328 253.471 980.482 251.836C980.661 249.932 979.871 249.549 978.226 249.907C962.821 253.233 947.412 256.538 932.007 259.869C916.911 263.13 901.839 266.49 886.713 269.607C884.531 270.054 883.964 270.715 883.969 272.852C884.039 304.054 884.014 335.251 884.014 366.453C884.014 367.268 884.014 368.083 884.014 369.092C892.489 367.064 900.751 365.091 909.007 363.107C926.206 358.977 943.395 354.821 960.599 350.715C967.141 349.154 973.702 347.688 980.259 346.182C981.382 345.506 980.905 344.392 980.905 343.483C980.93 315.462 980.93 287.442 980.91 259.421C980.91 258.541 981.203 257.592 980.527 256.802V256.792ZM896.878 372.999C914.46 368.799 932.375 365.876 949.32 359.22C931.276 361.631 914.306 368.207 896.878 372.999Z" fill="#F39455"/>
<path d="M861.198 229.949C861.307 228.08 860.015 226.783 859.259 225.277C858.444 223.656 858.171 222.766 860.596 222.349C873.834 220.047 887.036 217.527 900.254 215.126C915.181 212.412 930.128 209.847 945.036 207.029C958.124 204.558 971.157 201.824 984.22 199.23C988.615 198.355 993.024 197.54 997.428 196.705C999.048 196.396 1000.09 196.809 1000.96 198.484C1007.03 210.31 1013.22 222.076 1019.43 233.827C1020.35 235.561 1020.36 236.277 1018.16 236.749C997.314 241.198 976.496 245.752 955.673 250.275C934.662 254.838 913.67 259.496 892.753 264.486C889.407 265.287 885.972 265.769 882.697 266.793C880.664 267.429 880.003 266.728 879.202 265.093C874.246 254.997 869.211 244.946 864.151 234.905C863.788 234.189 863.828 233.071 862.664 232.907L862.699 232.927C862.928 231.962 862.639 231.262 861.675 230.899L861.705 230.943C861.904 230.407 861.924 229.959 861.178 229.905L861.193 229.944L861.198 229.949Z" fill="#F7AB6B"/>
<path d="M759.759 188.702C765.44 190.819 771.112 192.972 776.809 195.044C786.462 198.554 796.1 202.093 805.803 205.463C818.121 209.748 830.493 213.879 842.846 218.069C846.35 219.257 849.84 220.485 853.364 221.598C855.039 222.13 855.596 222.553 854.413 224.392C845.689 237.957 837.075 251.597 828.5 265.262C827.61 266.679 826.885 266.892 825.354 266.236C808.87 259.168 792.372 252.134 775.844 245.185C759.923 238.489 743.966 231.873 727.995 225.302C726.181 224.556 725.833 224.029 726.986 222.24C734.408 210.688 741.69 199.046 749.047 187.449C749.494 186.743 749.693 185.65 750.901 185.694C751.403 185.863 751.905 186.032 752.402 186.201C754.853 187.036 757.308 187.872 759.759 188.702ZM790.185 245.314C790.031 245.702 790.215 245.707 790.503 245.598C790.384 245.513 790.26 245.433 790.14 245.349C788.947 244.171 787.391 243.574 785.95 242.809C774.02 236.466 761.151 232.355 748.743 227.141C748.241 226.932 747.724 226.773 747.138 227.22C748.689 227.941 750.17 228.647 751.661 229.313C761.837 233.871 771.684 239.17 782.177 243.013C784.777 243.962 787.312 245.269 790.185 245.314Z" fill="#F39455"/>
<path d="M759.759 188.702C757.308 187.867 754.853 187.031 752.402 186.201L752.387 186.216C753.033 186.181 753.381 185.853 753.381 185.192C757.681 184.536 761.976 183.835 766.28 183.239C777.862 181.633 789.449 180.052 801.036 178.492C810.441 177.224 819.856 176.041 829.256 174.754C837.08 173.685 844.884 172.487 852.703 171.403C859.364 170.479 866.04 169.649 872.71 168.749C875.603 168.361 878.501 167.968 881.379 167.461C882.642 167.238 882.98 167.61 882.97 168.833C882.821 184.148 882.692 199.463 882.607 214.778C882.602 216.051 882.16 216.429 880.942 216.633C873.56 217.855 866.199 219.168 858.832 220.49C857.44 220.738 856.217 220.286 854.97 219.864C839.143 214.52 823.325 209.152 807.493 203.838C797.875 200.612 788.241 197.445 778.603 194.279C773.12 192.479 767.623 190.72 762.12 188.965C761.364 188.726 760.614 188.18 759.764 188.702H759.759ZM874.366 184.213C873.938 192.897 872.283 201.556 874.43 210.215C876.722 201.546 874.644 192.867 874.366 184.213Z" fill="#DA7A37"/>
<path d="M996.22 195.407C984.509 197.55 973.563 199.553 962.612 201.556C937.545 206.154 912.412 210.424 887.444 215.549C885.113 216.026 884.556 215.594 884.566 213.208C884.63 198.469 884.571 183.731 884.466 168.992C884.451 167.163 884.819 166.785 886.644 167.257C919.202 175.648 951.771 183.979 984.34 192.33C988.068 193.285 991.786 194.259 996.215 195.407H996.22Z" fill="#DA7A37"/>
<path d="M750.578 274.706C751.105 279.806 751.11 284.907 750.578 290.007C750.578 284.907 750.578 279.806 750.578 274.706Z" fill="#F39455"/>
<path d="M856.416 363.048C856.063 359.24 856.158 355.432 856.366 351.625C856.799 355.432 856.699 359.24 856.416 363.048Z" fill="#DA7A37"/>
<path d="M752.402 186.201C751.9 186.032 751.398 185.863 750.901 185.694C751.288 185.118 751.87 185.232 752.432 185.267C752.417 185.585 752.402 185.898 752.392 186.216L752.407 186.201H752.402Z" fill="#DA7A37"/>
<path d="M752.387 186.216C752.402 185.898 752.412 185.585 752.427 185.267C752.745 185.242 753.063 185.217 753.381 185.192C753.381 185.853 753.033 186.181 752.387 186.216Z" fill="#F39455"/>
<path d="M750.602 307.976C750.975 308.443 750.96 308.921 750.632 309.403C750.622 308.925 750.612 308.453 750.602 307.976Z" fill="#DA7A37"/>
<path d="M856.371 345.272C856.361 344.914 856.351 344.551 856.346 344.193C856.665 344.546 856.65 344.904 856.371 345.272Z" fill="#DA7A37"/>
<path d="M858.618 270.079C858.578 270.272 858.544 270.461 858.509 270.655C858.549 270.461 858.583 270.272 858.618 270.079Z" fill="#DA7A37"/>
<path d="M858.509 313.434C858.534 313.543 858.578 313.653 858.583 313.767C858.583 313.812 858.514 313.862 858.474 313.906C858.484 313.747 858.494 313.593 858.509 313.434Z" fill="#DA7A37"/>
<path d="M856.257 392.37C856.376 392.226 856.491 392.087 856.61 391.943C856.689 392.246 856.595 392.41 856.257 392.37Z" fill="#DA7A37"/>
<path d="M761.24 326.313C759.818 323.45 760.127 320.721 759.962 318.196C759.575 312.191 759.46 306.117 759.948 300.127C760.365 295.012 760.127 289.927 760.335 284.837C760.355 284.295 760.151 283.679 760.698 283.231C761.618 283.306 761.329 284.047 761.344 284.529C761.389 286.095 761.374 287.665 761.364 289.236C761.324 296.384 761.846 303.512 762.229 310.645C762.503 315.741 761.722 320.791 761.245 326.318L761.24 326.313Z" fill="#663C19"/>
<path d="M980.259 346.177C973.707 347.683 967.141 349.149 960.599 350.71C943.395 354.821 926.206 358.972 909.007 363.102C900.751 365.086 892.489 367.059 884.014 369.087C884.014 368.078 884.014 367.263 884.014 366.448C884.014 335.246 884.034 304.049 883.969 272.847C883.969 270.71 884.531 270.049 886.713 269.601C901.839 266.485 916.911 263.13 932.007 259.864C947.412 256.533 962.821 253.233 978.226 249.902C979.871 249.544 980.661 249.932 980.482 251.831C980.328 253.466 980.502 255.131 980.527 256.787C980.497 257.696 980.443 258.606 980.438 259.511C980.428 279.464 980.438 299.411 980.408 319.364C980.393 328.302 980.308 337.234 980.259 346.172V346.177ZM979.27 321.621C979.304 321.377 979.364 321.129 979.364 320.885C979.389 298.283 979.374 275.681 979.493 253.079C979.503 250.762 978.196 251.12 977.013 251.359C969.124 252.969 961.25 254.644 953.387 256.359C943.102 258.601 932.842 260.942 922.553 263.169C910.836 265.709 899.115 268.239 887.354 270.591C885.291 271.003 885.013 271.878 885.013 273.658C885.053 304.124 885.043 334.595 885.043 365.061V367.795C887.136 366.999 889.104 366.647 891.043 366.169C902.814 363.251 914.639 360.552 926.44 357.764C939.175 354.751 951.935 351.819 964.631 348.652C969.517 347.434 974.527 346.659 979.26 344.85C979.434 344.457 979.463 344.069 979.225 343.691C979.235 336.34 979.25 328.988 979.26 321.636V321.621H979.27Z" fill="#F39455"/>
<path d="M896.878 372.999C914.306 368.207 931.276 361.631 949.32 359.22C932.375 365.876 914.46 368.799 896.878 372.999Z" fill="#663C19"/>
<path d="M980.259 346.177C980.313 337.239 980.398 328.307 980.408 319.369C980.438 299.416 980.428 279.469 980.438 259.516C980.438 258.606 980.492 257.696 980.527 256.792C981.203 257.582 980.91 258.536 980.91 259.411C980.925 287.432 980.93 315.452 980.905 343.473C980.905 344.387 981.382 345.496 980.259 346.172V346.177Z" fill="#F7AB6B"/>
<path d="M861.685 230.904C862.649 231.267 862.938 231.967 862.709 232.932C861.949 232.469 861.745 231.724 861.685 230.904Z" fill="#663C19"/>
<path d="M861.183 229.91C861.929 229.964 861.909 230.412 861.71 230.948C861.208 230.765 861.173 230.347 861.183 229.91Z" fill="#663C19"/>
<path d="M790.185 245.314C787.312 245.269 784.777 243.967 782.177 243.013C771.684 239.17 761.837 233.876 751.661 229.313C750.17 228.642 748.689 227.936 747.138 227.22C747.724 226.773 748.241 226.932 748.743 227.141C761.151 232.355 774.02 236.466 785.95 242.809C787.391 243.574 788.942 244.171 790.14 245.349L790.19 245.309L790.185 245.314Z" fill="#663C19"/>
<path d="M790.135 245.349C790.255 245.433 790.379 245.513 790.498 245.597C790.21 245.707 790.026 245.702 790.18 245.314L790.13 245.354L790.135 245.349Z" fill="#663C19"/>
<path d="M874.366 184.213C874.649 192.867 876.722 201.551 874.43 210.215C872.283 201.556 873.938 192.892 874.366 184.213Z" fill="#663C19"/>
<path d="M979.265 344.85C978.946 344.467 978.857 344.079 979.23 343.681C979.468 344.069 979.439 344.457 979.265 344.85Z" fill="#F7AB6B"/>
<path d="M979.265 321.636L979.125 321.621H979.265V321.636Z" fill="#F7AB6B"/>
<mask id="path-92-outside-2_18_142" maskUnits="userSpaceOnUse" x="882.018" y="248.18" width="100" height="122" fill="black">
<rect fill="white" x="882.018" y="248.18" width="100" height="122"/>
<path fill-rule="evenodd" clip-rule="evenodd" d="M969.052 347.635C972.499 346.874 975.947 346.113 979.264 344.85C979.264 344.85 979.265 344.85 979.265 344.85V344.85C979.268 344.851 979.27 344.848 979.268 344.847C978.975 344.491 978.881 344.131 979.174 343.762C979.214 343.712 979.24 343.651 979.24 343.586C979.245 339.949 979.251 336.311 979.257 332.672C979.263 329.041 979.269 325.408 979.274 321.776C979.274 321.696 979.215 321.629 979.135 321.621V321.621V321.621C979.215 321.621 979.283 321.562 979.296 321.483C979.3 321.458 979.305 321.433 979.309 321.408C979.339 321.234 979.369 321.058 979.369 320.885C979.375 315.719 979.378 310.553 979.382 305.387C979.394 287.951 979.406 270.515 979.498 253.078C979.513 250.839 978.291 251.093 977.143 251.333C977.101 251.341 977.059 251.35 977.018 251.359C969.134 252.969 961.255 254.644 953.392 256.359C948.594 257.405 943.8 258.473 939.007 259.54C933.526 260.761 928.044 261.981 922.558 263.169L922.557 263.169C910.836 265.704 899.115 268.239 887.359 270.591C885.297 271.003 885.018 271.878 885.018 273.658C885.051 299.046 885.05 324.437 885.049 349.826C885.048 354.905 885.048 359.983 885.048 365.061V366.119C885.048 366.928 885.861 367.491 886.636 367.261C887.636 366.964 888.612 366.739 889.575 366.518C890.069 366.404 890.559 366.291 891.048 366.169C899.386 364.102 907.752 362.145 916.117 360.188C919.56 359.382 923.004 358.577 926.445 357.764C929.687 356.997 932.931 356.235 936.175 355.473C945.672 353.243 955.169 351.012 964.636 348.652C966.1 348.287 967.576 347.961 969.052 347.635Z"/>
</mask>
<path fill-rule="evenodd" clip-rule="evenodd" d="M969.052 347.635C972.499 346.874 975.947 346.113 979.264 344.85C979.264 344.85 979.265 344.85 979.265 344.85V344.85C979.268 344.851 979.27 344.848 979.268 344.847C978.975 344.491 978.881 344.131 979.174 343.762C979.214 343.712 979.24 343.651 979.24 343.586C979.245 339.949 979.251 336.311 979.257 332.672C979.263 329.041 979.269 325.408 979.274 321.776C979.274 321.696 979.215 321.629 979.135 321.621V321.621V321.621C979.215 321.621 979.283 321.562 979.296 321.483C979.3 321.458 979.305 321.433 979.309 321.408C979.339 321.234 979.369 321.058 979.369 320.885C979.375 315.719 979.378 310.553 979.382 305.387C979.394 287.951 979.406 270.515 979.498 253.078C979.513 250.839 978.291 251.093 977.143 251.333C977.101 251.341 977.059 251.35 977.018 251.359C969.134 252.969 961.255 254.644 953.392 256.359C948.594 257.405 943.8 258.473 939.007 259.54C933.526 260.761 928.044 261.981 922.558 263.169L922.557 263.169C910.836 265.704 899.115 268.239 887.359 270.591C885.297 271.003 885.018 271.878 885.018 273.658C885.051 299.046 885.05 324.437 885.049 349.826C885.048 354.905 885.048 359.983 885.048 365.061V366.119C885.048 366.928 885.861 367.491 886.636 367.261C887.636 366.964 888.612 366.739 889.575 366.518C890.069 366.404 890.559 366.291 891.048 366.169C899.386 364.102 907.752 362.145 916.117 360.188C919.56 359.382 923.004 358.577 926.445 357.764C929.687 356.997 932.931 356.235 936.175 355.473C945.672 353.243 955.169 351.012 964.636 348.652C966.1 348.287 967.576 347.961 969.052 347.635Z" fill="white"/>
<path d="M969.052 347.635L968.553 345.378L968.553 345.378L969.052 347.635ZM979.257 332.672L981.569 332.676L981.569 332.676L979.257 332.672ZM979.309 321.408L977.03 321.017L977.03 321.018L979.309 321.408ZM979.369 320.885L977.057 320.883V320.885H979.369ZM979.382 305.387L977.07 305.385L977.07 305.385L979.382 305.387ZM979.498 253.078L977.186 253.064L977.186 253.066L979.498 253.078ZM977.143 251.333L977.615 253.596L977.615 253.596L977.143 251.333ZM977.018 251.359L977.481 253.624L977.484 253.623L977.018 251.359ZM953.392 256.359L953.884 258.618L953.884 258.618L953.392 256.359ZM939.007 259.54L939.51 261.797L939.51 261.797L939.007 259.54ZM922.558 263.169L923.046 265.429L923.047 265.429L922.558 263.169ZM922.557 263.169L922.069 260.909L922.068 260.909L922.557 263.169ZM887.359 270.591L887.813 272.858L887.813 272.858L887.359 270.591ZM885.018 273.658L882.706 273.658L882.706 273.661L885.018 273.658ZM885.049 349.826L887.361 349.827L885.049 349.826ZM889.575 366.518L889.056 364.264L889.056 364.264L889.575 366.518ZM891.048 366.169L890.491 363.925L890.49 363.925L891.048 366.169ZM916.117 360.188L915.59 357.937L915.59 357.937L916.117 360.188ZM926.445 357.764L926.977 360.014L926.977 360.014L926.445 357.764ZM936.175 355.473L936.704 357.724L936.704 357.724L936.175 355.473ZM964.636 348.652L964.076 346.409L964.076 346.409L964.636 348.652ZM979.174 343.762L977.364 342.323L979.174 343.762ZM979.24 343.586L976.928 343.583L979.24 343.586ZM979.296 321.483L981.577 321.866L979.296 321.483ZM979.268 344.847L977.482 346.316L979.268 344.847ZM979.274 321.776L981.587 321.779L979.274 321.776ZM886.636 367.261L885.979 365.044L886.636 367.261ZM979.264 344.85L980.087 347.011L979.264 344.85ZM978.441 342.689C975.309 343.882 972.027 344.611 968.553 345.378L969.55 349.893C972.97 349.138 976.585 348.344 980.087 347.011L978.441 342.689ZM977.364 342.323C976.882 342.93 976.594 343.726 976.709 344.607C976.81 345.389 977.196 345.968 977.482 346.316L981.054 343.377C981.06 343.385 981.103 343.438 981.151 343.534C981.201 343.632 981.266 343.794 981.295 344.011C981.324 344.238 981.307 344.479 981.236 344.712C981.167 344.938 981.064 345.101 980.985 345.201L977.364 342.323ZM976.945 332.668C976.939 336.307 976.933 339.946 976.928 343.583L981.552 343.589C981.557 339.953 981.563 336.315 981.569 332.676L976.945 332.668ZM976.962 321.773C976.957 325.405 976.951 329.037 976.945 332.668L981.569 332.676C981.576 329.045 981.582 325.412 981.587 321.779L976.962 321.773ZM977.03 321.018C977.026 321.042 977.021 321.071 977.016 321.101L981.577 321.866C981.58 321.846 981.584 321.825 981.588 321.799L977.03 321.018ZM977.057 320.885C977.057 320.841 977.06 320.824 977.057 320.85C977.055 320.863 977.053 320.881 977.048 320.91C977.043 320.94 977.038 320.972 977.03 321.017L981.588 321.799C981.612 321.661 981.681 321.289 981.681 320.885H977.057ZM977.07 305.385C977.066 310.551 977.062 315.717 977.057 320.883L981.681 320.888C981.687 315.721 981.691 310.555 981.694 305.389L977.07 305.385ZM977.186 253.066C977.094 270.509 977.082 287.95 977.07 305.385L981.694 305.389C981.706 287.952 981.719 270.521 981.811 253.091L977.186 253.066ZM977.615 253.596C977.764 253.565 977.875 253.542 977.979 253.524C978.081 253.505 978.146 253.497 978.186 253.494C978.226 253.491 978.214 253.495 978.166 253.49C978.116 253.485 978.006 253.468 977.867 253.41C977.72 253.349 977.568 253.253 977.434 253.121C977.303 252.991 977.229 252.865 977.192 252.783C977.158 252.706 977.159 252.678 977.167 252.728C977.175 252.779 977.187 252.885 977.186 253.064L981.81 253.093C981.819 251.691 981.437 249.888 979.646 249.142C978.935 248.845 978.252 248.849 977.809 248.885C977.364 248.921 976.927 249.016 976.671 249.069L977.615 253.596ZM977.484 253.623C977.529 253.614 977.573 253.605 977.615 253.596L976.671 249.069C976.629 249.078 976.59 249.086 976.551 249.094L977.484 253.623ZM953.884 258.618C961.74 256.905 969.609 255.232 977.481 253.624L976.555 249.093C968.659 250.706 960.77 252.383 952.899 254.1L953.884 258.618ZM939.51 261.797C944.304 260.729 949.092 259.663 953.884 258.618L952.899 254.1C948.095 255.147 943.297 256.216 938.505 257.283L939.51 261.797ZM923.047 265.429C928.542 264.239 934.029 263.017 939.51 261.797L938.505 257.283C933.022 258.504 927.547 259.723 922.068 260.909L923.047 265.429ZM923.045 265.43L923.046 265.429L922.07 260.909L922.069 260.909L923.045 265.43ZM887.813 272.858C899.589 270.503 911.328 267.964 923.046 265.429L922.068 260.909C910.344 263.445 898.641 265.976 886.906 268.323L887.813 272.858ZM887.33 273.658C887.33 273.253 887.348 273.021 887.373 272.878C887.394 272.751 887.406 272.793 887.341 272.891C887.265 273.006 887.185 273.048 887.207 273.036C887.257 273.01 887.426 272.935 887.813 272.858L886.906 268.323C885.65 268.575 884.323 269.077 883.489 270.332C882.736 271.465 882.706 272.787 882.706 273.658H887.33ZM887.361 349.827C887.362 324.438 887.364 299.045 887.33 273.655L882.706 273.661C882.739 299.047 882.738 324.437 882.736 349.826L887.361 349.827ZM887.36 365.061C887.36 359.983 887.361 354.905 887.361 349.827L882.736 349.826C882.736 354.905 882.736 359.983 882.736 365.061H887.36ZM887.36 366.119V365.061H882.736V366.119H887.36ZM889.056 364.264C888.102 364.484 887.058 364.724 885.979 365.044L887.294 369.478C888.215 369.204 889.122 368.995 890.094 368.771L889.056 364.264ZM890.49 363.925C890.024 364.041 889.553 364.15 889.056 364.264L890.094 368.771C890.585 368.658 891.095 368.54 891.606 368.413L890.49 363.925ZM915.59 357.937C907.228 359.893 898.847 361.854 890.491 363.925L891.604 368.414C899.925 366.351 908.276 364.397 916.643 362.44L915.59 357.937ZM925.913 355.513C922.475 356.326 919.034 357.131 915.59 357.937L916.643 362.44C920.087 361.634 923.532 360.828 926.977 360.014L925.913 355.513ZM935.647 353.222C932.403 353.984 929.157 354.746 925.913 355.513L926.977 360.014C930.218 359.247 933.46 358.486 936.704 357.724L935.647 353.222ZM964.076 346.409C954.627 348.764 945.146 350.991 935.647 353.222L936.704 357.724C946.198 355.494 955.71 353.26 965.195 350.896L964.076 346.409ZM968.553 345.378C967.082 345.702 965.576 346.035 964.076 346.409L965.195 350.896C966.624 350.54 968.069 350.22 969.55 349.893L968.553 345.378ZM980.985 345.201C981.283 344.825 981.551 344.272 981.552 343.589L976.928 343.583C976.928 343.029 977.146 342.598 977.364 342.323L980.985 345.201ZM979.135 323.933C980.373 323.933 981.381 323.03 981.577 321.866L977.016 321.101C977.185 320.094 978.057 319.309 979.135 319.309V323.933ZM978.231 346.918C979.377 347.491 980.54 346.993 981.105 346.254C981.66 345.528 981.835 344.327 981.054 343.377L977.482 346.316C976.703 345.368 976.877 344.169 977.431 343.445C977.995 342.707 979.156 342.21 980.3 342.782L978.231 346.918ZM981.587 321.779C981.588 320.516 980.637 319.456 979.382 319.322L978.889 323.92C977.792 323.803 976.961 322.876 976.962 321.773L981.587 321.779ZM882.736 366.119C882.736 368.594 885.153 370.113 887.294 369.478L885.979 365.044C886.568 364.869 887.36 365.262 887.36 366.119H882.736ZM980.087 347.011C979.483 347.241 978.81 347.207 978.231 346.918L980.3 342.782C979.72 342.492 979.046 342.459 978.441 342.689L980.087 347.011Z" fill="black" mask="url(#path-92-outside-2_18_142)"/>
<path d="M523.357 107.398L517.657 105.631L527.481 84.9769H515.909V80.4546H533.561V84.5208L523.357 107.398Z" fill="black"/>
<mask id="path-95-outside-3_18_142" maskUnits="userSpaceOnUse" x="866.103" y="171.344" width="31" height="41" fill="black">
<rect fill="white" x="866.103" y="171.344" width="31" height="41"/>
<path d="M873.651 210.344L888.163 178.59H868.974V173.382H894.559V177.452L880.047 210.344H873.651Z"/>
</mask>
<path d="M873.651 210.344L888.163 178.59H868.974V173.382H894.559V177.452L880.047 210.344H873.651Z" fill="black"/>
<path d="M873.651 210.344L871.93 209.558L870.706 212.236H873.651V210.344ZM888.163 178.59L889.884 179.376L891.108 176.698H888.163V178.59ZM868.974 178.59H867.082V180.482H868.974V178.59ZM868.974 173.382V171.49H867.082V173.382H868.974ZM894.559 173.382H896.451V171.49H894.559V173.382ZM894.559 177.452L896.29 178.216L896.451 177.851V177.452H894.559ZM880.047 210.344V212.236H881.28L881.778 211.108L880.047 210.344ZM875.372 211.131L889.884 179.376L886.442 177.803L871.93 209.558L875.372 211.131ZM888.163 176.698H868.974V180.482H888.163V176.698ZM870.866 178.59V173.382H867.082V178.59H870.866ZM868.974 175.273H894.559V171.49H868.974V175.273ZM892.667 173.382V177.452H896.451V173.382H892.667ZM892.828 176.688L878.316 209.581L881.778 211.108L896.29 178.216L892.828 176.688ZM880.047 208.452H873.651V212.236H880.047V208.452Z" fill="white" mask="url(#path-95-outside-3_18_142)"/>
<path d="M434.147 40V18.7103H437.038L437.301 21.6622C438.163 20.5704 439.242 19.7347 440.536 19.1551C441.843 18.5621 443.11 18.2655 444.337 18.2655C446.426 18.2655 447.942 18.8182 448.886 19.9234C449.843 21.0287 450.321 22.5653 450.321 24.5332V40H446.925V27.0402C446.925 25.5845 446.844 24.4118 446.682 23.5222C446.52 22.6192 446.183 21.9655 445.671 21.5611C445.159 21.1433 444.364 20.9343 443.285 20.9343C442.45 20.9343 441.661 21.1163 440.92 21.4802C440.192 21.8441 439.538 22.3024 438.959 22.8551C438.393 23.3942 437.921 23.9401 437.543 24.4927V40H434.147ZM461.789 18.7103V33.793C461.789 35.1948 462.079 36.2057 462.659 36.8258C463.238 37.4458 464.141 37.7558 465.368 37.7558C466.541 37.7558 467.646 37.4256 468.684 36.7651C469.735 36.0912 470.551 35.2959 471.13 34.3794V18.7103H474.527V40H471.636L471.353 37.129C470.517 38.2073 469.486 39.0363 468.259 39.6159C467.033 40.182 465.793 40.465 464.539 40.465C462.477 40.465 460.933 39.9191 459.909 38.8274C458.898 37.7221 458.393 36.1788 458.393 34.1974V18.7103H461.789ZM496.67 18.2655C497.357 18.2655 498.011 18.4138 498.631 18.7103C499.265 19.0069 499.784 19.5797 500.188 20.4289C500.592 21.278 500.795 22.5181 500.795 24.149V40H497.64V24.6949C497.64 23.3605 497.56 22.3968 497.398 21.8037C497.236 21.2106 496.771 20.9141 496.003 20.9141C495.369 20.9141 494.736 21.1163 494.102 21.5207C493.482 21.9115 492.876 22.5585 492.283 23.4616V40H489.108V24.6949C489.108 23.3605 489.028 22.3968 488.866 21.8037C488.704 21.2106 488.239 20.9141 487.471 20.9141C486.81 20.9141 486.17 21.1163 485.55 21.5207C484.944 21.9115 484.344 22.5585 483.751 23.4616V40H480.617V18.7103H483.286L483.488 21.1769C484.067 20.3547 484.714 19.6673 485.429 19.1147C486.157 18.5486 487.053 18.2655 488.118 18.2655C488.926 18.2655 489.688 18.461 490.402 18.8519C491.117 19.2293 491.642 19.9706 491.979 21.0759C492.559 20.2402 493.213 19.5662 493.941 19.0541C494.668 18.5284 495.578 18.2655 496.67 18.2655ZM510.281 21.4802C511.063 20.4558 511.959 19.6673 512.97 19.1147C513.995 18.5486 515.12 18.2655 516.347 18.2655C518.247 18.2655 519.784 18.7238 520.956 19.6404C522.129 20.5569 522.985 21.8509 523.524 23.5222C524.063 25.1801 524.333 27.1211 524.333 29.3451C524.333 31.4882 524.009 33.4022 523.362 35.087C522.715 36.7584 521.765 38.0725 520.512 39.0295C519.272 39.9865 517.735 40.465 515.902 40.465C513.435 40.465 511.501 39.5754 510.099 37.7962L509.857 40H506.885V10.1379L510.281 9.71329V21.4802ZM515.093 37.7154C516.872 37.7154 518.24 37.0279 519.197 35.6531C520.154 34.2783 520.633 32.1689 520.633 29.3248C520.633 27.4648 520.444 25.9215 520.067 24.6949C519.689 23.4549 519.123 22.5316 518.368 21.925C517.627 21.305 516.711 20.995 515.619 20.995C514.433 20.995 513.388 21.3522 512.485 22.0665C511.595 22.7674 510.861 23.5492 510.281 24.4118V34.9657C510.834 35.8014 511.528 36.4686 512.364 36.9673C513.213 37.466 514.123 37.7154 515.093 37.7154ZM533.799 30.5581C533.867 32.2026 534.183 33.5504 534.75 34.6018C535.316 35.6396 536.064 36.4079 536.994 36.9066C537.924 37.3919 538.935 37.6345 540.026 37.6345C541.118 37.6345 542.102 37.4727 542.978 37.1492C543.868 36.8258 544.778 36.3473 545.708 35.7138L547.305 37.958C546.308 38.7397 545.169 39.353 543.888 39.7978C542.621 40.2426 541.32 40.465 539.986 40.465C537.924 40.465 536.165 40 534.709 39.07C533.253 38.1399 532.141 36.846 531.373 35.1881C530.618 33.5167 530.241 31.5825 530.241 29.3855C530.241 27.2289 530.625 25.3149 531.393 23.6436C532.162 21.9722 533.24 20.658 534.628 19.701C536.017 18.744 537.654 18.2655 539.541 18.2655C541.334 18.2655 542.877 18.6901 544.171 19.5393C545.465 20.375 546.456 21.5746 547.143 23.1381C547.844 24.6882 548.195 26.5415 548.195 28.6981C548.195 29.062 548.188 29.4057 548.174 29.7292C548.161 30.0392 548.141 30.3155 548.114 30.5581H533.799ZM539.582 21.0556C538.005 21.0556 536.684 21.615 535.619 22.7337C534.568 23.8525 533.968 25.5845 533.82 27.9298H544.919C544.879 25.6519 544.38 23.9401 543.423 22.7944C542.466 21.6352 541.186 21.0556 539.582 21.0556ZM555.579 40V37.3919H558.894V21.3185H555.579V18.7103H561.482L562.109 23.7446C562.931 21.9924 563.929 20.6378 565.101 19.6808C566.274 18.7238 567.824 18.2453 569.751 18.2453C570.345 18.2453 570.87 18.2925 571.329 18.3869C571.8 18.4677 572.279 18.5756 572.764 18.7103L571.773 21.7431C571.329 21.6217 570.924 21.5341 570.56 21.4802C570.196 21.4128 569.778 21.3791 569.307 21.3791C567.676 21.3791 566.274 21.9587 565.101 23.1179C563.929 24.2771 562.992 26.0293 562.291 28.3746V37.3919H566.618V40H555.579ZM569.489 25.908V21.278L569.832 18.7103H572.764L572.279 25.908H569.489ZM595.554 22.1272V25.0588H579.825V22.1272H595.554ZM595.554 29.7899V32.7417H579.825V29.7899H595.554ZM609.125 40.3841L605.951 39.4137L616.808 14.9902H603.747V12.1597H620.225V14.7678L609.125 40.3841Z" fill="black"/>
<path d="M524.661 120.896C524.661 119.907 523.859 119.106 522.871 119.106C521.882 119.106 521.081 119.907 521.081 120.896L524.661 120.896ZM522.871 155.5L533.205 137.602L512.537 137.602L522.871 155.5ZM521.081 120.896L521.081 139.391L524.661 139.391L524.661 120.896L521.081 120.896Z" fill="black"/>
<path d="M897.55 322.56L895.623 310.954L897.744 310.602L898.181 312.076C898.566 311.402 899.063 310.857 899.671 310.44C900.279 310.023 900.932 309.756 901.628 309.641C902.712 309.461 903.572 309.63 904.208 310.15C904.85 310.66 905.262 311.462 905.443 312.553L906.848 321.016L904.386 321.425L903.184 314.182C903.072 313.508 902.941 312.972 902.793 312.575C902.644 312.179 902.433 311.909 902.161 311.766C901.896 311.621 901.529 311.588 901.06 311.666C900.687 311.728 900.345 311.868 900.035 312.085C899.724 312.302 899.452 312.565 899.217 312.875C898.981 313.178 898.785 313.493 898.629 313.82L900.012 322.151L897.55 322.56ZM911.265 308.357L912.612 316.468C912.726 317.157 912.943 317.625 913.263 317.873C913.59 318.12 914.032 318.197 914.589 318.105C915.116 318.017 915.599 317.775 916.038 317.378C916.477 316.982 916.801 316.533 917.011 316.031L915.617 307.634L918.079 307.225L920.006 318.831L917.885 319.184L917.485 317.725C917.149 318.376 916.676 318.91 916.068 319.327C915.458 319.737 914.809 319.999 914.12 320.114C912.999 320.3 912.109 320.131 911.45 319.608C910.797 319.077 910.381 318.269 910.201 317.184L908.803 308.765L911.265 308.357ZM929.933 304.941C930.373 304.868 930.785 304.898 931.168 305.03C931.551 305.162 931.881 305.45 932.158 305.893C932.442 306.335 932.656 306.985 932.798 307.842L934.23 316.47L932.043 316.833L930.667 308.546C930.566 307.938 930.45 307.509 930.318 307.26C930.194 307.01 929.956 306.914 929.604 306.972C929.326 307.018 929.058 307.153 928.802 307.376C928.544 307.592 928.303 307.933 928.08 308.4L929.548 317.247L927.559 317.577L926.183 309.291C926.082 308.682 925.966 308.254 925.834 308.005C925.71 307.754 925.472 307.658 925.12 307.717C924.834 307.764 924.563 307.899 924.307 308.123C924.056 308.337 923.819 308.678 923.595 309.144L925.064 317.992L922.866 318.357L920.939 306.751L922.797 306.442L923.169 307.668C923.423 307.151 923.72 306.718 924.06 306.368C924.4 306.01 924.845 305.786 925.394 305.695C925.834 305.622 926.251 305.665 926.647 305.825C927.043 305.986 927.37 306.327 927.63 306.848C927.879 306.355 928.187 305.939 928.552 305.6C928.916 305.253 929.377 305.033 929.933 304.941ZM937.855 305.365C938.171 304.771 938.571 304.279 939.056 303.889C939.548 303.499 940.117 303.25 940.762 303.143C941.78 302.974 942.646 303.09 943.36 303.491C944.081 303.883 944.663 304.513 945.108 305.38C945.56 306.239 945.887 307.284 946.092 308.515C946.288 309.695 946.286 310.775 946.088 311.757C945.89 312.738 945.49 313.55 944.889 314.192C944.295 314.833 943.496 315.236 942.492 315.403C941.195 315.618 940.097 315.308 939.198 314.471L939.256 315.636L937.09 315.995L934.39 299.729L936.806 299.045L937.855 305.365ZM941.565 313.626C942.4 313.487 942.988 313.039 943.329 312.283C943.678 311.525 943.731 310.416 943.489 308.958C943.325 307.969 943.1 307.182 942.814 306.597C942.528 306.005 942.181 305.595 941.775 305.369C941.376 305.142 940.92 305.071 940.407 305.156C939.857 305.247 939.401 305.492 939.038 305.891C938.675 306.29 938.384 306.738 938.166 307.233L939.067 312.663C939.407 313.035 939.788 313.311 940.209 313.49C940.637 313.66 941.088 313.705 941.565 313.626ZM951.483 308.456C951.665 309.238 951.942 309.859 952.311 310.317C952.68 310.768 953.114 311.072 953.615 311.23C954.123 311.387 954.655 311.419 955.212 311.326C955.783 311.231 956.296 311.056 956.751 310.8C957.205 310.543 957.651 310.213 958.088 309.81L959.399 311.105C958.93 311.635 958.354 312.092 957.673 312.476C956.991 312.86 956.237 313.121 955.409 313.259C954.207 313.458 953.146 313.371 952.225 312.997C951.312 312.621 950.564 312.011 949.979 311.167C949.395 310.323 949.003 309.3 948.803 308.099C948.61 306.934 948.65 305.858 948.923 304.871C949.194 303.878 949.681 303.048 950.384 302.381C951.085 301.708 951.985 301.28 953.085 301.097C954.118 300.926 955.043 301.013 955.861 301.359C956.686 301.704 957.372 302.275 957.919 303.073C958.471 303.862 958.848 304.861 959.049 306.07C959.082 306.268 959.107 306.467 959.125 306.667C959.15 306.859 959.167 307.029 959.176 307.178L951.483 308.456ZM953.409 302.918C952.64 303.046 952.048 303.426 951.634 304.06C951.227 304.692 951.08 305.597 951.193 306.776L956.567 305.884C956.364 304.795 955.99 303.995 955.446 303.483C954.909 302.97 954.23 302.782 953.409 302.918ZM963.561 311.6L963.269 309.842L964.972 309.559L963.627 301.459L961.924 301.742L961.634 299.994L965.217 299.399L966.114 302.017C966.385 300.971 966.797 300.142 967.35 299.531C967.91 298.911 968.695 298.517 969.707 298.349C970.051 298.292 970.364 298.27 970.644 298.283C970.931 298.289 971.218 298.313 971.503 298.355L971.117 300.588C970.872 300.561 970.644 300.55 970.434 300.555C970.223 300.552 969.993 300.571 969.744 300.613C968.901 300.753 968.224 301.189 967.713 301.921C967.21 302.652 966.878 303.626 966.719 304.842L967.434 309.15L969.775 308.761L970.067 310.52L963.561 311.6ZM970.037 302.992L969.563 300.135L969.635 298.666L971.503 298.355L971.796 302.7L970.037 302.992Z" fill="black"/>
<rect x="969.421" y="10.4053" width="36.9964" height="36.9964" rx="7.22586" fill="#0037AC"/>
<path d="M983.254 19.5721C983.009 18.9745 982.162 18.9746 981.917 19.5722L981.531 20.512C981.459 20.6872 981.459 20.8837 981.531 21.0591L986.692 33.7247C986.886 34.2 986.536 34.72 986.023 34.72H980.886H979.151C978.637 34.72 978.288 34.1985 978.483 33.723L979.374 31.5532C979.446 31.378 979.446 31.1815 979.375 31.0061L978.969 30.012C978.725 29.4129 977.878 29.4118 977.632 30.0102L975.205 35.9201C975.01 36.3956 975.36 36.9171 975.874 36.9171H989.297C989.811 36.9171 990.16 36.3956 989.965 35.9201L983.254 19.5721Z" fill="white"/>
<path d="M988.15 23.0858C987.956 22.6106 988.305 22.0905 988.819 22.0905H993.956H995.691C996.205 22.0905 996.554 22.6121 996.359 23.0876L995.468 25.2573C995.396 25.4326 995.396 25.629 995.467 25.8044L995.872 26.7986C996.117 27.3976 996.964 27.3988 997.21 26.8004L999.637 20.8905C999.832 20.415 999.482 19.8934 998.968 19.8934H985.545C985.031 19.8934 984.682 20.4149 984.877 20.8904L991.588 37.2385C991.833 37.8361 992.68 37.836 992.925 37.2384L993.311 36.2986C993.383 36.1233 993.383 35.9269 993.311 35.7515L988.15 23.0858Z" fill="white"/>
</svg>
