<svg width="1400" height="128" viewBox="0 0 1400 128" fill="none" xmlns="http://www.w3.org/2000/svg">
<rect width="1400" height="128" fill="white"/>
<rect x="310.5" y="3.5" width="77" height="77" rx="4.5" fill="#08003C" stroke="white"/>
<path d="M334.135 32.255V52.4H330.25V36.245L325.825 38.99L324.13 36.245L330.64 32.255H334.135ZM338.17 49.955V53H325.225V49.955H338.17ZM348.988 31.805C351.378 31.805 353.183 32.75 354.403 34.64C355.623 36.52 356.233 39.17 356.233 42.59C356.233 46.02 355.623 48.69 354.403 50.6C353.183 52.5 351.378 53.45 348.988 53.45C346.588 53.45 344.778 52.5 343.558 50.6C342.348 48.69 341.743 46.02 341.743 42.59C341.743 39.17 342.348 36.52 343.558 34.64C344.778 32.75 346.588 31.805 348.988 31.805ZM348.988 34.745C347.858 34.745 347.003 35.35 346.423 36.56C345.853 37.76 345.568 39.77 345.568 42.59C345.568 44.15 345.623 45.445 345.733 46.475C345.853 47.495 346.048 48.3 346.318 48.89C346.588 49.48 346.938 49.9 347.368 50.15C347.808 50.39 348.348 50.51 348.988 50.51C349.748 50.51 350.378 50.255 350.878 49.745C351.388 49.225 351.768 48.385 352.018 47.225C352.268 46.055 352.393 44.51 352.393 42.59C352.393 40.55 352.283 38.96 352.063 37.82C351.853 36.68 351.498 35.885 350.998 35.435C350.508 34.975 349.838 34.745 348.988 34.745ZM351.583 35.42L352.603 37.88L346.693 50L345.478 47.99L351.583 35.42ZM371.567 31.61L373.772 32.66L362.147 53.78L359.957 52.73L371.567 31.61ZM371.402 45.845C370.872 45.845 370.482 46.065 370.232 46.505C369.992 46.945 369.872 47.59 369.872 48.44C369.872 49.24 369.997 49.875 370.247 50.345C370.497 50.815 370.882 51.05 371.402 51.05C371.932 51.05 372.312 50.83 372.542 50.39C372.782 49.95 372.902 49.3 372.902 48.44C372.902 47.54 372.782 46.885 372.542 46.475C372.312 46.055 371.932 45.845 371.402 45.845ZM362.582 33.935C362.052 33.935 361.662 34.16 361.412 34.61C361.172 35.06 361.052 35.705 361.052 36.545C361.052 37.345 361.177 37.98 361.427 38.45C361.677 38.92 362.062 39.155 362.582 39.155C363.112 39.155 363.492 38.935 363.722 38.495C363.962 38.045 364.082 37.395 364.082 36.545C364.082 35.645 363.962 34.985 363.722 34.565C363.492 34.145 363.112 33.935 362.582 33.935ZM362.582 31.805C363.482 31.805 364.252 32.01 364.892 32.42C365.542 32.82 366.037 33.38 366.377 34.1C366.717 34.81 366.887 35.625 366.887 36.545C366.887 37.445 366.717 38.255 366.377 38.975C366.037 39.695 365.542 40.26 364.892 40.67C364.252 41.08 363.482 41.285 362.582 41.285C361.672 41.285 360.892 41.08 360.242 40.67C359.592 40.26 359.097 39.695 358.757 38.975C358.417 38.255 358.247 37.445 358.247 36.545C358.247 35.645 358.417 34.84 358.757 34.13C359.097 33.41 359.592 32.845 360.242 32.435C360.892 32.015 361.672 31.805 362.582 31.805ZM371.402 43.7C372.302 43.7 373.072 43.905 373.712 44.315C374.362 44.725 374.857 45.285 375.197 45.995C375.537 46.705 375.707 47.52 375.707 48.44C375.707 49.35 375.537 50.165 375.197 50.885C374.857 51.595 374.362 52.155 373.712 52.565C373.072 52.975 372.302 53.18 371.402 53.18C370.492 53.18 369.712 52.975 369.062 52.565C368.412 52.155 367.917 51.595 367.577 50.885C367.237 50.165 367.067 49.35 367.067 48.44C367.067 47.55 367.237 46.745 367.577 46.025C367.917 45.305 368.412 44.74 369.062 44.33C369.712 43.91 370.492 43.7 371.402 43.7Z" fill="white"/>
<rect x="388.5" y="3.5" width="77" height="77" rx="4.5" fill="#08003C" stroke="white"/>
<path d="M412.135 32.255V52.4H408.25V36.245L403.825 38.99L402.13 36.245L408.64 32.255H412.135ZM416.17 49.955V53H403.225V49.955H416.17ZM426.988 31.805C429.378 31.805 431.183 32.75 432.403 34.64C433.623 36.52 434.233 39.17 434.233 42.59C434.233 46.02 433.623 48.69 432.403 50.6C431.183 52.5 429.378 53.45 426.988 53.45C424.588 53.45 422.778 52.5 421.558 50.6C420.348 48.69 419.743 46.02 419.743 42.59C419.743 39.17 420.348 36.52 421.558 34.64C422.778 32.75 424.588 31.805 426.988 31.805ZM426.988 34.745C425.858 34.745 425.003 35.35 424.423 36.56C423.853 37.76 423.568 39.77 423.568 42.59C423.568 44.15 423.623 45.445 423.733 46.475C423.853 47.495 424.048 48.3 424.318 48.89C424.588 49.48 424.938 49.9 425.368 50.15C425.808 50.39 426.348 50.51 426.988 50.51C427.748 50.51 428.378 50.255 428.878 49.745C429.388 49.225 429.768 48.385 430.018 47.225C430.268 46.055 430.393 44.51 430.393 42.59C430.393 40.55 430.283 38.96 430.063 37.82C429.853 36.68 429.498 35.885 428.998 35.435C428.508 34.975 427.838 34.745 426.988 34.745ZM429.583 35.42L430.603 37.88L424.693 50L423.478 47.99L429.583 35.42ZM449.567 31.61L451.772 32.66L440.147 53.78L437.957 52.73L449.567 31.61ZM449.402 45.845C448.872 45.845 448.482 46.065 448.232 46.505C447.992 46.945 447.872 47.59 447.872 48.44C447.872 49.24 447.997 49.875 448.247 50.345C448.497 50.815 448.882 51.05 449.402 51.05C449.932 51.05 450.312 50.83 450.542 50.39C450.782 49.95 450.902 49.3 450.902 48.44C450.902 47.54 450.782 46.885 450.542 46.475C450.312 46.055 449.932 45.845 449.402 45.845ZM440.582 33.935C440.052 33.935 439.662 34.16 439.412 34.61C439.172 35.06 439.052 35.705 439.052 36.545C439.052 37.345 439.177 37.98 439.427 38.45C439.677 38.92 440.062 39.155 440.582 39.155C441.112 39.155 441.492 38.935 441.722 38.495C441.962 38.045 442.082 37.395 442.082 36.545C442.082 35.645 441.962 34.985 441.722 34.565C441.492 34.145 441.112 33.935 440.582 33.935ZM440.582 31.805C441.482 31.805 442.252 32.01 442.892 32.42C443.542 32.82 444.037 33.38 444.377 34.1C444.717 34.81 444.887 35.625 444.887 36.545C444.887 37.445 444.717 38.255 444.377 38.975C444.037 39.695 443.542 40.26 442.892 40.67C442.252 41.08 441.482 41.285 440.582 41.285C439.672 41.285 438.892 41.08 438.242 40.67C437.592 40.26 437.097 39.695 436.757 38.975C436.417 38.255 436.247 37.445 436.247 36.545C436.247 35.645 436.417 34.84 436.757 34.13C437.097 33.41 437.592 32.845 438.242 32.435C438.892 32.015 439.672 31.805 440.582 31.805ZM449.402 43.7C450.302 43.7 451.072 43.905 451.712 44.315C452.362 44.725 452.857 45.285 453.197 45.995C453.537 46.705 453.707 47.52 453.707 48.44C453.707 49.35 453.537 50.165 453.197 50.885C452.857 51.595 452.362 52.155 451.712 52.565C451.072 52.975 450.302 53.18 449.402 53.18C448.492 53.18 447.712 52.975 447.062 52.565C446.412 52.155 445.917 51.595 445.577 50.885C445.237 50.165 445.067 49.35 445.067 48.44C445.067 47.55 445.237 46.745 445.577 46.025C445.917 45.305 446.412 44.74 447.062 44.33C447.712 43.91 448.492 43.7 449.402 43.7Z" fill="white"/>
<rect x="466.5" y="3.5" width="77" height="77" rx="4.5" fill="#08003C" stroke="white"/>
<path d="M490.135 32.255V52.4H486.25V36.245L481.825 38.99L480.13 36.245L486.64 32.255H490.135ZM494.17 49.955V53H481.225V49.955H494.17ZM504.988 31.805C507.378 31.805 509.183 32.75 510.403 34.64C511.623 36.52 512.233 39.17 512.233 42.59C512.233 46.02 511.623 48.69 510.403 50.6C509.183 52.5 507.378 53.45 504.988 53.45C502.588 53.45 500.778 52.5 499.558 50.6C498.348 48.69 497.743 46.02 497.743 42.59C497.743 39.17 498.348 36.52 499.558 34.64C500.778 32.75 502.588 31.805 504.988 31.805ZM504.988 34.745C503.858 34.745 503.003 35.35 502.423 36.56C501.853 37.76 501.568 39.77 501.568 42.59C501.568 44.15 501.623 45.445 501.733 46.475C501.853 47.495 502.048 48.3 502.318 48.89C502.588 49.48 502.938 49.9 503.368 50.15C503.808 50.39 504.348 50.51 504.988 50.51C505.748 50.51 506.378 50.255 506.878 49.745C507.388 49.225 507.768 48.385 508.018 47.225C508.268 46.055 508.393 44.51 508.393 42.59C508.393 40.55 508.283 38.96 508.063 37.82C507.853 36.68 507.498 35.885 506.998 35.435C506.508 34.975 505.838 34.745 504.988 34.745ZM507.583 35.42L508.603 37.88L502.693 50L501.478 47.99L507.583 35.42ZM527.567 31.61L529.772 32.66L518.147 53.78L515.957 52.73L527.567 31.61ZM527.402 45.845C526.872 45.845 526.482 46.065 526.232 46.505C525.992 46.945 525.872 47.59 525.872 48.44C525.872 49.24 525.997 49.875 526.247 50.345C526.497 50.815 526.882 51.05 527.402 51.05C527.932 51.05 528.312 50.83 528.542 50.39C528.782 49.95 528.902 49.3 528.902 48.44C528.902 47.54 528.782 46.885 528.542 46.475C528.312 46.055 527.932 45.845 527.402 45.845ZM518.582 33.935C518.052 33.935 517.662 34.16 517.412 34.61C517.172 35.06 517.052 35.705 517.052 36.545C517.052 37.345 517.177 37.98 517.427 38.45C517.677 38.92 518.062 39.155 518.582 39.155C519.112 39.155 519.492 38.935 519.722 38.495C519.962 38.045 520.082 37.395 520.082 36.545C520.082 35.645 519.962 34.985 519.722 34.565C519.492 34.145 519.112 33.935 518.582 33.935ZM518.582 31.805C519.482 31.805 520.252 32.01 520.892 32.42C521.542 32.82 522.037 33.38 522.377 34.1C522.717 34.81 522.887 35.625 522.887 36.545C522.887 37.445 522.717 38.255 522.377 38.975C522.037 39.695 521.542 40.26 520.892 40.67C520.252 41.08 519.482 41.285 518.582 41.285C517.672 41.285 516.892 41.08 516.242 40.67C515.592 40.26 515.097 39.695 514.757 38.975C514.417 38.255 514.247 37.445 514.247 36.545C514.247 35.645 514.417 34.84 514.757 34.13C515.097 33.41 515.592 32.845 516.242 32.435C516.892 32.015 517.672 31.805 518.582 31.805ZM527.402 43.7C528.302 43.7 529.072 43.905 529.712 44.315C530.362 44.725 530.857 45.285 531.197 45.995C531.537 46.705 531.707 47.52 531.707 48.44C531.707 49.35 531.537 50.165 531.197 50.885C530.857 51.595 530.362 52.155 529.712 52.565C529.072 52.975 528.302 53.18 527.402 53.18C526.492 53.18 525.712 52.975 525.062 52.565C524.412 52.155 523.917 51.595 523.577 50.885C523.237 50.165 523.067 49.35 523.067 48.44C523.067 47.55 523.237 46.745 523.577 46.025C523.917 45.305 524.412 44.74 525.062 44.33C525.712 43.91 526.492 43.7 527.402 43.7Z" fill="white"/>
<rect x="544.5" y="3.5" width="77" height="77" rx="4.5" fill="#08003C" stroke="white"/>
<path d="M568.135 32.255V52.4H564.25V36.245L559.825 38.99L558.13 36.245L564.64 32.255H568.135ZM572.17 49.955V53H559.225V49.955H572.17ZM582.988 31.805C585.378 31.805 587.183 32.75 588.403 34.64C589.623 36.52 590.233 39.17 590.233 42.59C590.233 46.02 589.623 48.69 588.403 50.6C587.183 52.5 585.378 53.45 582.988 53.45C580.588 53.45 578.778 52.5 577.558 50.6C576.348 48.69 575.743 46.02 575.743 42.59C575.743 39.17 576.348 36.52 577.558 34.64C578.778 32.75 580.588 31.805 582.988 31.805ZM582.988 34.745C581.858 34.745 581.003 35.35 580.423 36.56C579.853 37.76 579.568 39.77 579.568 42.59C579.568 44.15 579.623 45.445 579.733 46.475C579.853 47.495 580.048 48.3 580.318 48.89C580.588 49.48 580.938 49.9 581.368 50.15C581.808 50.39 582.348 50.51 582.988 50.51C583.748 50.51 584.378 50.255 584.878 49.745C585.388 49.225 585.768 48.385 586.018 47.225C586.268 46.055 586.393 44.51 586.393 42.59C586.393 40.55 586.283 38.96 586.063 37.82C585.853 36.68 585.498 35.885 584.998 35.435C584.508 34.975 583.838 34.745 582.988 34.745ZM585.583 35.42L586.603 37.88L580.693 50L579.478 47.99L585.583 35.42ZM605.567 31.61L607.772 32.66L596.147 53.78L593.957 52.73L605.567 31.61ZM605.402 45.845C604.872 45.845 604.482 46.065 604.232 46.505C603.992 46.945 603.872 47.59 603.872 48.44C603.872 49.24 603.997 49.875 604.247 50.345C604.497 50.815 604.882 51.05 605.402 51.05C605.932 51.05 606.312 50.83 606.542 50.39C606.782 49.95 606.902 49.3 606.902 48.44C606.902 47.54 606.782 46.885 606.542 46.475C606.312 46.055 605.932 45.845 605.402 45.845ZM596.582 33.935C596.052 33.935 595.662 34.16 595.412 34.61C595.172 35.06 595.052 35.705 595.052 36.545C595.052 37.345 595.177 37.98 595.427 38.45C595.677 38.92 596.062 39.155 596.582 39.155C597.112 39.155 597.492 38.935 597.722 38.495C597.962 38.045 598.082 37.395 598.082 36.545C598.082 35.645 597.962 34.985 597.722 34.565C597.492 34.145 597.112 33.935 596.582 33.935ZM596.582 31.805C597.482 31.805 598.252 32.01 598.892 32.42C599.542 32.82 600.037 33.38 600.377 34.1C600.717 34.81 600.887 35.625 600.887 36.545C600.887 37.445 600.717 38.255 600.377 38.975C600.037 39.695 599.542 40.26 598.892 40.67C598.252 41.08 597.482 41.285 596.582 41.285C595.672 41.285 594.892 41.08 594.242 40.67C593.592 40.26 593.097 39.695 592.757 38.975C592.417 38.255 592.247 37.445 592.247 36.545C592.247 35.645 592.417 34.84 592.757 34.13C593.097 33.41 593.592 32.845 594.242 32.435C594.892 32.015 595.672 31.805 596.582 31.805ZM605.402 43.7C606.302 43.7 607.072 43.905 607.712 44.315C608.362 44.725 608.857 45.285 609.197 45.995C609.537 46.705 609.707 47.52 609.707 48.44C609.707 49.35 609.537 50.165 609.197 50.885C608.857 51.595 608.362 52.155 607.712 52.565C607.072 52.975 606.302 53.18 605.402 53.18C604.492 53.18 603.712 52.975 603.062 52.565C602.412 52.155 601.917 51.595 601.577 50.885C601.237 50.165 601.067 49.35 601.067 48.44C601.067 47.55 601.237 46.745 601.577 46.025C601.917 45.305 602.412 44.74 603.062 44.33C603.712 43.91 604.492 43.7 605.402 43.7Z" fill="white"/>
<rect x="622.5" y="3.5" width="77" height="77" rx="4.5" fill="#08003C" stroke="white"/>
<path d="M646.135 32.255V52.4H642.25V36.245L637.825 38.99L636.13 36.245L642.64 32.255H646.135ZM650.17 49.955V53H637.225V49.955H650.17ZM660.988 31.805C663.378 31.805 665.183 32.75 666.403 34.64C667.623 36.52 668.233 39.17 668.233 42.59C668.233 46.02 667.623 48.69 666.403 50.6C665.183 52.5 663.378 53.45 660.988 53.45C658.588 53.45 656.778 52.5 655.558 50.6C654.348 48.69 653.743 46.02 653.743 42.59C653.743 39.17 654.348 36.52 655.558 34.64C656.778 32.75 658.588 31.805 660.988 31.805ZM660.988 34.745C659.858 34.745 659.003 35.35 658.423 36.56C657.853 37.76 657.568 39.77 657.568 42.59C657.568 44.15 657.623 45.445 657.733 46.475C657.853 47.495 658.048 48.3 658.318 48.89C658.588 49.48 658.938 49.9 659.368 50.15C659.808 50.39 660.348 50.51 660.988 50.51C661.748 50.51 662.378 50.255 662.878 49.745C663.388 49.225 663.768 48.385 664.018 47.225C664.268 46.055 664.393 44.51 664.393 42.59C664.393 40.55 664.283 38.96 664.063 37.82C663.853 36.68 663.498 35.885 662.998 35.435C662.508 34.975 661.838 34.745 660.988 34.745ZM663.583 35.42L664.603 37.88L658.693 50L657.478 47.99L663.583 35.42ZM683.567 31.61L685.772 32.66L674.147 53.78L671.957 52.73L683.567 31.61ZM683.402 45.845C682.872 45.845 682.482 46.065 682.232 46.505C681.992 46.945 681.872 47.59 681.872 48.44C681.872 49.24 681.997 49.875 682.247 50.345C682.497 50.815 682.882 51.05 683.402 51.05C683.932 51.05 684.312 50.83 684.542 50.39C684.782 49.95 684.902 49.3 684.902 48.44C684.902 47.54 684.782 46.885 684.542 46.475C684.312 46.055 683.932 45.845 683.402 45.845ZM674.582 33.935C674.052 33.935 673.662 34.16 673.412 34.61C673.172 35.06 673.052 35.705 673.052 36.545C673.052 37.345 673.177 37.98 673.427 38.45C673.677 38.92 674.062 39.155 674.582 39.155C675.112 39.155 675.492 38.935 675.722 38.495C675.962 38.045 676.082 37.395 676.082 36.545C676.082 35.645 675.962 34.985 675.722 34.565C675.492 34.145 675.112 33.935 674.582 33.935ZM674.582 31.805C675.482 31.805 676.252 32.01 676.892 32.42C677.542 32.82 678.037 33.38 678.377 34.1C678.717 34.81 678.887 35.625 678.887 36.545C678.887 37.445 678.717 38.255 678.377 38.975C678.037 39.695 677.542 40.26 676.892 40.67C676.252 41.08 675.482 41.285 674.582 41.285C673.672 41.285 672.892 41.08 672.242 40.67C671.592 40.26 671.097 39.695 670.757 38.975C670.417 38.255 670.247 37.445 670.247 36.545C670.247 35.645 670.417 34.84 670.757 34.13C671.097 33.41 671.592 32.845 672.242 32.435C672.892 32.015 673.672 31.805 674.582 31.805ZM683.402 43.7C684.302 43.7 685.072 43.905 685.712 44.315C686.362 44.725 686.857 45.285 687.197 45.995C687.537 46.705 687.707 47.52 687.707 48.44C687.707 49.35 687.537 50.165 687.197 50.885C686.857 51.595 686.362 52.155 685.712 52.565C685.072 52.975 684.302 53.18 683.402 53.18C682.492 53.18 681.712 52.975 681.062 52.565C680.412 52.155 679.917 51.595 679.577 50.885C679.237 50.165 679.067 49.35 679.067 48.44C679.067 47.55 679.237 46.745 679.577 46.025C679.917 45.305 680.412 44.74 681.062 44.33C681.712 43.91 682.492 43.7 683.402 43.7Z" fill="white"/>
<rect x="700.5" y="3.5" width="77" height="77" rx="4.5" fill="#0037AC" stroke="white"/>
<path d="M724.135 32.255V52.4H720.25V36.245L715.825 38.99L714.13 36.245L720.64 32.255H724.135ZM728.17 49.955V53H715.225V49.955H728.17ZM738.988 31.805C741.378 31.805 743.183 32.75 744.403 34.64C745.623 36.52 746.233 39.17 746.233 42.59C746.233 46.02 745.623 48.69 744.403 50.6C743.183 52.5 741.378 53.45 738.988 53.45C736.588 53.45 734.778 52.5 733.558 50.6C732.348 48.69 731.743 46.02 731.743 42.59C731.743 39.17 732.348 36.52 733.558 34.64C734.778 32.75 736.588 31.805 738.988 31.805ZM738.988 34.745C737.858 34.745 737.003 35.35 736.423 36.56C735.853 37.76 735.568 39.77 735.568 42.59C735.568 44.15 735.623 45.445 735.733 46.475C735.853 47.495 736.048 48.3 736.318 48.89C736.588 49.48 736.938 49.9 737.368 50.15C737.808 50.39 738.348 50.51 738.988 50.51C739.748 50.51 740.378 50.255 740.878 49.745C741.388 49.225 741.768 48.385 742.018 47.225C742.268 46.055 742.393 44.51 742.393 42.59C742.393 40.55 742.283 38.96 742.063 37.82C741.853 36.68 741.498 35.885 740.998 35.435C740.508 34.975 739.838 34.745 738.988 34.745ZM741.583 35.42L742.603 37.88L736.693 50L735.478 47.99L741.583 35.42ZM761.567 31.61L763.772 32.66L752.147 53.78L749.957 52.73L761.567 31.61ZM761.402 45.845C760.872 45.845 760.482 46.065 760.232 46.505C759.992 46.945 759.872 47.59 759.872 48.44C759.872 49.24 759.997 49.875 760.247 50.345C760.497 50.815 760.882 51.05 761.402 51.05C761.932 51.05 762.312 50.83 762.542 50.39C762.782 49.95 762.902 49.3 762.902 48.44C762.902 47.54 762.782 46.885 762.542 46.475C762.312 46.055 761.932 45.845 761.402 45.845ZM752.582 33.935C752.052 33.935 751.662 34.16 751.412 34.61C751.172 35.06 751.052 35.705 751.052 36.545C751.052 37.345 751.177 37.98 751.427 38.45C751.677 38.92 752.062 39.155 752.582 39.155C753.112 39.155 753.492 38.935 753.722 38.495C753.962 38.045 754.082 37.395 754.082 36.545C754.082 35.645 753.962 34.985 753.722 34.565C753.492 34.145 753.112 33.935 752.582 33.935ZM752.582 31.805C753.482 31.805 754.252 32.01 754.892 32.42C755.542 32.82 756.037 33.38 756.377 34.1C756.717 34.81 756.887 35.625 756.887 36.545C756.887 37.445 756.717 38.255 756.377 38.975C756.037 39.695 755.542 40.26 754.892 40.67C754.252 41.08 753.482 41.285 752.582 41.285C751.672 41.285 750.892 41.08 750.242 40.67C749.592 40.26 749.097 39.695 748.757 38.975C748.417 38.255 748.247 37.445 748.247 36.545C748.247 35.645 748.417 34.84 748.757 34.13C749.097 33.41 749.592 32.845 750.242 32.435C750.892 32.015 751.672 31.805 752.582 31.805ZM761.402 43.7C762.302 43.7 763.072 43.905 763.712 44.315C764.362 44.725 764.857 45.285 765.197 45.995C765.537 46.705 765.707 47.52 765.707 48.44C765.707 49.35 765.537 50.165 765.197 50.885C764.857 51.595 764.362 52.155 763.712 52.565C763.072 52.975 762.302 53.18 761.402 53.18C760.492 53.18 759.712 52.975 759.062 52.565C758.412 52.155 757.917 51.595 757.577 50.885C757.237 50.165 757.067 49.35 757.067 48.44C757.067 47.55 757.237 46.745 757.577 46.025C757.917 45.305 758.412 44.74 759.062 44.33C759.712 43.91 760.492 43.7 761.402 43.7Z" fill="white"/>
<rect x="778.5" y="3.5" width="77" height="77" rx="4.5" fill="#0037AC" stroke="white"/>
<path d="M802.135 32.255V52.4H798.25V36.245L793.825 38.99L792.13 36.245L798.64 32.255H802.135ZM806.17 49.955V53H793.225V49.955H806.17ZM816.988 31.805C819.378 31.805 821.183 32.75 822.403 34.64C823.623 36.52 824.233 39.17 824.233 42.59C824.233 46.02 823.623 48.69 822.403 50.6C821.183 52.5 819.378 53.45 816.988 53.45C814.588 53.45 812.778 52.5 811.558 50.6C810.348 48.69 809.743 46.02 809.743 42.59C809.743 39.17 810.348 36.52 811.558 34.64C812.778 32.75 814.588 31.805 816.988 31.805ZM816.988 34.745C815.858 34.745 815.003 35.35 814.423 36.56C813.853 37.76 813.568 39.77 813.568 42.59C813.568 44.15 813.623 45.445 813.733 46.475C813.853 47.495 814.048 48.3 814.318 48.89C814.588 49.48 814.938 49.9 815.368 50.15C815.808 50.39 816.348 50.51 816.988 50.51C817.748 50.51 818.378 50.255 818.878 49.745C819.388 49.225 819.768 48.385 820.018 47.225C820.268 46.055 820.393 44.51 820.393 42.59C820.393 40.55 820.283 38.96 820.063 37.82C819.853 36.68 819.498 35.885 818.998 35.435C818.508 34.975 817.838 34.745 816.988 34.745ZM819.583 35.42L820.603 37.88L814.693 50L813.478 47.99L819.583 35.42ZM839.567 31.61L841.772 32.66L830.147 53.78L827.957 52.73L839.567 31.61ZM839.402 45.845C838.872 45.845 838.482 46.065 838.232 46.505C837.992 46.945 837.872 47.59 837.872 48.44C837.872 49.24 837.997 49.875 838.247 50.345C838.497 50.815 838.882 51.05 839.402 51.05C839.932 51.05 840.312 50.83 840.542 50.39C840.782 49.95 840.902 49.3 840.902 48.44C840.902 47.54 840.782 46.885 840.542 46.475C840.312 46.055 839.932 45.845 839.402 45.845ZM830.582 33.935C830.052 33.935 829.662 34.16 829.412 34.61C829.172 35.06 829.052 35.705 829.052 36.545C829.052 37.345 829.177 37.98 829.427 38.45C829.677 38.92 830.062 39.155 830.582 39.155C831.112 39.155 831.492 38.935 831.722 38.495C831.962 38.045 832.082 37.395 832.082 36.545C832.082 35.645 831.962 34.985 831.722 34.565C831.492 34.145 831.112 33.935 830.582 33.935ZM830.582 31.805C831.482 31.805 832.252 32.01 832.892 32.42C833.542 32.82 834.037 33.38 834.377 34.1C834.717 34.81 834.887 35.625 834.887 36.545C834.887 37.445 834.717 38.255 834.377 38.975C834.037 39.695 833.542 40.26 832.892 40.67C832.252 41.08 831.482 41.285 830.582 41.285C829.672 41.285 828.892 41.08 828.242 40.67C827.592 40.26 827.097 39.695 826.757 38.975C826.417 38.255 826.247 37.445 826.247 36.545C826.247 35.645 826.417 34.84 826.757 34.13C827.097 33.41 827.592 32.845 828.242 32.435C828.892 32.015 829.672 31.805 830.582 31.805ZM839.402 43.7C840.302 43.7 841.072 43.905 841.712 44.315C842.362 44.725 842.857 45.285 843.197 45.995C843.537 46.705 843.707 47.52 843.707 48.44C843.707 49.35 843.537 50.165 843.197 50.885C842.857 51.595 842.362 52.155 841.712 52.565C841.072 52.975 840.302 53.18 839.402 53.18C838.492 53.18 837.712 52.975 837.062 52.565C836.412 52.155 835.917 51.595 835.577 50.885C835.237 50.165 835.067 49.35 835.067 48.44C835.067 47.55 835.237 46.745 835.577 46.025C835.917 45.305 836.412 44.74 837.062 44.33C837.712 43.91 838.492 43.7 839.402 43.7Z" fill="white"/>
<rect x="856.5" y="3.5" width="77" height="77" rx="4.5" fill="#0037AC" stroke="white"/>
<path d="M880.135 32.255V52.4H876.25V36.245L871.825 38.99L870.13 36.245L876.64 32.255H880.135ZM884.17 49.955V53H871.225V49.955H884.17ZM894.988 31.805C897.378 31.805 899.183 32.75 900.403 34.64C901.623 36.52 902.233 39.17 902.233 42.59C902.233 46.02 901.623 48.69 900.403 50.6C899.183 52.5 897.378 53.45 894.988 53.45C892.588 53.45 890.778 52.5 889.558 50.6C888.348 48.69 887.743 46.02 887.743 42.59C887.743 39.17 888.348 36.52 889.558 34.64C890.778 32.75 892.588 31.805 894.988 31.805ZM894.988 34.745C893.858 34.745 893.003 35.35 892.423 36.56C891.853 37.76 891.568 39.77 891.568 42.59C891.568 44.15 891.623 45.445 891.733 46.475C891.853 47.495 892.048 48.3 892.318 48.89C892.588 49.48 892.938 49.9 893.368 50.15C893.808 50.39 894.348 50.51 894.988 50.51C895.748 50.51 896.378 50.255 896.878 49.745C897.388 49.225 897.768 48.385 898.018 47.225C898.268 46.055 898.393 44.51 898.393 42.59C898.393 40.55 898.283 38.96 898.063 37.82C897.853 36.68 897.498 35.885 896.998 35.435C896.508 34.975 895.838 34.745 894.988 34.745ZM897.583 35.42L898.603 37.88L892.693 50L891.478 47.99L897.583 35.42ZM917.567 31.61L919.772 32.66L908.147 53.78L905.957 52.73L917.567 31.61ZM917.402 45.845C916.872 45.845 916.482 46.065 916.232 46.505C915.992 46.945 915.872 47.59 915.872 48.44C915.872 49.24 915.997 49.875 916.247 50.345C916.497 50.815 916.882 51.05 917.402 51.05C917.932 51.05 918.312 50.83 918.542 50.39C918.782 49.95 918.902 49.3 918.902 48.44C918.902 47.54 918.782 46.885 918.542 46.475C918.312 46.055 917.932 45.845 917.402 45.845ZM908.582 33.935C908.052 33.935 907.662 34.16 907.412 34.61C907.172 35.06 907.052 35.705 907.052 36.545C907.052 37.345 907.177 37.98 907.427 38.45C907.677 38.92 908.062 39.155 908.582 39.155C909.112 39.155 909.492 38.935 909.722 38.495C909.962 38.045 910.082 37.395 910.082 36.545C910.082 35.645 909.962 34.985 909.722 34.565C909.492 34.145 909.112 33.935 908.582 33.935ZM908.582 31.805C909.482 31.805 910.252 32.01 910.892 32.42C911.542 32.82 912.037 33.38 912.377 34.1C912.717 34.81 912.887 35.625 912.887 36.545C912.887 37.445 912.717 38.255 912.377 38.975C912.037 39.695 911.542 40.26 910.892 40.67C910.252 41.08 909.482 41.285 908.582 41.285C907.672 41.285 906.892 41.08 906.242 40.67C905.592 40.26 905.097 39.695 904.757 38.975C904.417 38.255 904.247 37.445 904.247 36.545C904.247 35.645 904.417 34.84 904.757 34.13C905.097 33.41 905.592 32.845 906.242 32.435C906.892 32.015 907.672 31.805 908.582 31.805ZM917.402 43.7C918.302 43.7 919.072 43.905 919.712 44.315C920.362 44.725 920.857 45.285 921.197 45.995C921.537 46.705 921.707 47.52 921.707 48.44C921.707 49.35 921.537 50.165 921.197 50.885C920.857 51.595 920.362 52.155 919.712 52.565C919.072 52.975 918.302 53.18 917.402 53.18C916.492 53.18 915.712 52.975 915.062 52.565C914.412 52.155 913.917 51.595 913.577 50.885C913.237 50.165 913.067 49.35 913.067 48.44C913.067 47.55 913.237 46.745 913.577 46.025C913.917 45.305 914.412 44.74 915.062 44.33C915.712 43.91 916.492 43.7 917.402 43.7Z" fill="white"/>
<rect x="934.5" y="3.5" width="77" height="77" rx="4.5" fill="#0037AC" stroke="white"/>
<path d="M958.135 32.255V52.4H954.25V36.245L949.825 38.99L948.13 36.245L954.64 32.255H958.135ZM962.17 49.955V53H949.225V49.955H962.17ZM972.988 31.805C975.378 31.805 977.183 32.75 978.403 34.64C979.623 36.52 980.233 39.17 980.233 42.59C980.233 46.02 979.623 48.69 978.403 50.6C977.183 52.5 975.378 53.45 972.988 53.45C970.588 53.45 968.778 52.5 967.558 50.6C966.348 48.69 965.743 46.02 965.743 42.59C965.743 39.17 966.348 36.52 967.558 34.64C968.778 32.75 970.588 31.805 972.988 31.805ZM972.988 34.745C971.858 34.745 971.003 35.35 970.423 36.56C969.853 37.76 969.568 39.77 969.568 42.59C969.568 44.15 969.623 45.445 969.733 46.475C969.853 47.495 970.048 48.3 970.318 48.89C970.588 49.48 970.938 49.9 971.368 50.15C971.808 50.39 972.348 50.51 972.988 50.51C973.748 50.51 974.378 50.255 974.878 49.745C975.388 49.225 975.768 48.385 976.018 47.225C976.268 46.055 976.393 44.51 976.393 42.59C976.393 40.55 976.283 38.96 976.063 37.82C975.853 36.68 975.498 35.885 974.998 35.435C974.508 34.975 973.838 34.745 972.988 34.745ZM975.583 35.42L976.603 37.88L970.693 50L969.478 47.99L975.583 35.42ZM995.567 31.61L997.772 32.66L986.147 53.78L983.957 52.73L995.567 31.61ZM995.402 45.845C994.872 45.845 994.482 46.065 994.232 46.505C993.992 46.945 993.872 47.59 993.872 48.44C993.872 49.24 993.997 49.875 994.247 50.345C994.497 50.815 994.882 51.05 995.402 51.05C995.932 51.05 996.312 50.83 996.542 50.39C996.782 49.95 996.902 49.3 996.902 48.44C996.902 47.54 996.782 46.885 996.542 46.475C996.312 46.055 995.932 45.845 995.402 45.845ZM986.582 33.935C986.052 33.935 985.662 34.16 985.412 34.61C985.172 35.06 985.052 35.705 985.052 36.545C985.052 37.345 985.177 37.98 985.427 38.45C985.677 38.92 986.062 39.155 986.582 39.155C987.112 39.155 987.492 38.935 987.722 38.495C987.962 38.045 988.082 37.395 988.082 36.545C988.082 35.645 987.962 34.985 987.722 34.565C987.492 34.145 987.112 33.935 986.582 33.935ZM986.582 31.805C987.482 31.805 988.252 32.01 988.892 32.42C989.542 32.82 990.037 33.38 990.377 34.1C990.717 34.81 990.887 35.625 990.887 36.545C990.887 37.445 990.717 38.255 990.377 38.975C990.037 39.695 989.542 40.26 988.892 40.67C988.252 41.08 987.482 41.285 986.582 41.285C985.672 41.285 984.892 41.08 984.242 40.67C983.592 40.26 983.097 39.695 982.757 38.975C982.417 38.255 982.247 37.445 982.247 36.545C982.247 35.645 982.417 34.84 982.757 34.13C983.097 33.41 983.592 32.845 984.242 32.435C984.892 32.015 985.672 31.805 986.582 31.805ZM995.402 43.7C996.302 43.7 997.072 43.905 997.712 44.315C998.362 44.725 998.857 45.285 999.197 45.995C999.537 46.705 999.707 47.52 999.707 48.44C999.707 49.35 999.537 50.165 999.197 50.885C998.857 51.595 998.362 52.155 997.712 52.565C997.072 52.975 996.302 53.18 995.402 53.18C994.492 53.18 993.712 52.975 993.062 52.565C992.412 52.155 991.917 51.595 991.577 50.885C991.237 50.165 991.067 49.35 991.067 48.44C991.067 47.55 991.237 46.745 991.577 46.025C991.917 45.305 992.412 44.74 993.062 44.33C993.712 43.91 994.492 43.7 995.402 43.7Z" fill="white"/>
<rect x="1012.5" y="3.5" width="77" height="77" rx="4.5" fill="#0037AC" stroke="white"/>
<path d="M1036.14 32.255V52.4H1032.25V36.245L1027.83 38.99L1026.13 36.245L1032.64 32.255H1036.14ZM1040.17 49.955V53H1027.23V49.955H1040.17ZM1050.99 31.805C1053.38 31.805 1055.18 32.75 1056.4 34.64C1057.62 36.52 1058.23 39.17 1058.23 42.59C1058.23 46.02 1057.62 48.69 1056.4 50.6C1055.18 52.5 1053.38 53.45 1050.99 53.45C1048.59 53.45 1046.78 52.5 1045.56 50.6C1044.35 48.69 1043.74 46.02 1043.74 42.59C1043.74 39.17 1044.35 36.52 1045.56 34.64C1046.78 32.75 1048.59 31.805 1050.99 31.805ZM1050.99 34.745C1049.86 34.745 1049 35.35 1048.42 36.56C1047.85 37.76 1047.57 39.77 1047.57 42.59C1047.57 44.15 1047.62 45.445 1047.73 46.475C1047.85 47.495 1048.05 48.3 1048.32 48.89C1048.59 49.48 1048.94 49.9 1049.37 50.15C1049.81 50.39 1050.35 50.51 1050.99 50.51C1051.75 50.51 1052.38 50.255 1052.88 49.745C1053.39 49.225 1053.77 48.385 1054.02 47.225C1054.27 46.055 1054.39 44.51 1054.39 42.59C1054.39 40.55 1054.28 38.96 1054.06 37.82C1053.85 36.68 1053.5 35.885 1053 35.435C1052.51 34.975 1051.84 34.745 1050.99 34.745ZM1053.58 35.42L1054.6 37.88L1048.69 50L1047.48 47.99L1053.58 35.42ZM1073.57 31.61L1075.77 32.66L1064.15 53.78L1061.96 52.73L1073.57 31.61ZM1073.4 45.845C1072.87 45.845 1072.48 46.065 1072.23 46.505C1071.99 46.945 1071.87 47.59 1071.87 48.44C1071.87 49.24 1072 49.875 1072.25 50.345C1072.5 50.815 1072.88 51.05 1073.4 51.05C1073.93 51.05 1074.31 50.83 1074.54 50.39C1074.78 49.95 1074.9 49.3 1074.9 48.44C1074.9 47.54 1074.78 46.885 1074.54 46.475C1074.31 46.055 1073.93 45.845 1073.4 45.845ZM1064.58 33.935C1064.05 33.935 1063.66 34.16 1063.41 34.61C1063.17 35.06 1063.05 35.705 1063.05 36.545C1063.05 37.345 1063.18 37.98 1063.43 38.45C1063.68 38.92 1064.06 39.155 1064.58 39.155C1065.11 39.155 1065.49 38.935 1065.72 38.495C1065.96 38.045 1066.08 37.395 1066.08 36.545C1066.08 35.645 1065.96 34.985 1065.72 34.565C1065.49 34.145 1065.11 33.935 1064.58 33.935ZM1064.58 31.805C1065.48 31.805 1066.25 32.01 1066.89 32.42C1067.54 32.82 1068.04 33.38 1068.38 34.1C1068.72 34.81 1068.89 35.625 1068.89 36.545C1068.89 37.445 1068.72 38.255 1068.38 38.975C1068.04 39.695 1067.54 40.26 1066.89 40.67C1066.25 41.08 1065.48 41.285 1064.58 41.285C1063.67 41.285 1062.89 41.08 1062.24 40.67C1061.59 40.26 1061.1 39.695 1060.76 38.975C1060.42 38.255 1060.25 37.445 1060.25 36.545C1060.25 35.645 1060.42 34.84 1060.76 34.13C1061.1 33.41 1061.59 32.845 1062.24 32.435C1062.89 32.015 1063.67 31.805 1064.58 31.805ZM1073.4 43.7C1074.3 43.7 1075.07 43.905 1075.71 44.315C1076.36 44.725 1076.86 45.285 1077.2 45.995C1077.54 46.705 1077.71 47.52 1077.71 48.44C1077.71 49.35 1077.54 50.165 1077.2 50.885C1076.86 51.595 1076.36 52.155 1075.71 52.565C1075.07 52.975 1074.3 53.18 1073.4 53.18C1072.49 53.18 1071.71 52.975 1071.06 52.565C1070.41 52.155 1069.92 51.595 1069.58 50.885C1069.24 50.165 1069.07 49.35 1069.07 48.44C1069.07 47.55 1069.24 46.745 1069.58 46.025C1069.92 45.305 1070.41 44.74 1071.06 44.33C1071.71 43.91 1072.49 43.7 1073.4 43.7Z" fill="white"/>
<path d="M382.72 105.53C382.72 103.99 382.575 102.745 382.285 101.795C382.005 100.845 381.62 100.12 381.13 99.62C380.64 99.11 380.085 98.765 379.465 98.585C378.845 98.405 378.2 98.315 377.53 98.315H376V112.955H377.545C378.245 112.955 378.905 112.845 379.525 112.625C380.155 112.405 380.71 112.025 381.19 111.485C381.67 110.935 382.045 110.18 382.315 109.22C382.585 108.25 382.72 107.02 382.72 105.53ZM387.01 105.53C387.01 107.23 386.825 108.685 386.455 109.895C386.095 111.105 385.595 112.11 384.955 112.91C384.315 113.7 383.575 114.32 382.735 114.77C381.905 115.22 381.015 115.54 380.065 115.73C379.125 115.91 378.17 116 377.2 116H371.89V95.255H376.84C378.13 95.255 379.38 95.395 380.59 95.675C381.8 95.945 382.885 96.445 383.845 97.175C384.815 97.905 385.585 98.945 386.155 100.295C386.725 101.635 387.01 103.38 387.01 105.53ZM400.123 95.255V115.4H396.238V99.245L391.813 101.99L390.118 99.245L396.628 95.255H400.123ZM404.158 112.955V116H391.213V112.955H404.158Z" fill="black"/>
<path d="M295.24 116V95.255H299.35V112.67H308.5L308.065 116H295.24ZM317.089 112.442V120.056H319.519V122H311.536V120.056H314.245V114.386H311.626V112.442H317.089ZM315.37 107.438C315.862 107.438 316.264 107.591 316.576 107.897C316.888 108.203 317.044 108.584 317.044 109.04C317.044 109.496 316.888 109.88 316.576 110.192C316.264 110.498 315.862 110.651 315.37 110.651C314.872 110.651 314.464 110.498 314.146 110.192C313.834 109.88 313.678 109.496 313.678 109.04C313.678 108.584 313.834 108.203 314.146 107.897C314.464 107.591 314.872 107.438 315.37 107.438Z" fill="black"/>
<path d="M460.72 105.53C460.72 103.99 460.575 102.745 460.285 101.795C460.005 100.845 459.62 100.12 459.13 99.62C458.64 99.11 458.085 98.765 457.465 98.585C456.845 98.405 456.2 98.315 455.53 98.315H454V112.955H455.545C456.245 112.955 456.905 112.845 457.525 112.625C458.155 112.405 458.71 112.025 459.19 111.485C459.67 110.935 460.045 110.18 460.315 109.22C460.585 108.25 460.72 107.02 460.72 105.53ZM465.01 105.53C465.01 107.23 464.825 108.685 464.455 109.895C464.095 111.105 463.595 112.11 462.955 112.91C462.315 113.7 461.575 114.32 460.735 114.77C459.905 115.22 459.015 115.54 458.065 115.73C457.125 115.91 456.17 116 455.2 116H449.89V95.255H454.84C456.13 95.255 457.38 95.395 458.59 95.675C459.8 95.945 460.885 96.445 461.845 97.175C462.815 97.905 463.585 98.945 464.155 100.295C464.725 101.635 465.01 103.38 465.01 105.53ZM474.193 94.805C475.683 94.805 476.933 95.07 477.943 95.6C478.963 96.13 479.733 96.845 480.253 97.745C480.773 98.635 481.033 99.615 481.033 100.685C481.033 101.565 480.883 102.425 480.583 103.265C480.283 104.105 479.793 104.99 479.113 105.92C478.443 106.85 477.553 107.885 476.443 109.025C475.333 110.155 473.963 111.445 472.333 112.895H481.513L481.078 116H467.803V113.105C469.233 111.725 470.468 110.51 471.508 109.46C472.548 108.4 473.418 107.465 474.118 106.655C474.828 105.845 475.388 105.12 475.798 104.48C476.218 103.83 476.518 103.225 476.698 102.665C476.878 102.105 476.968 101.545 476.968 100.985C476.968 100.035 476.693 99.285 476.143 98.735C475.603 98.185 474.843 97.91 473.863 97.91C472.993 97.91 472.253 98.08 471.643 98.42C471.043 98.75 470.453 99.29 469.873 100.04L467.383 98.15C468.173 97.09 469.113 96.27 470.203 95.69C471.293 95.1 472.623 94.805 474.193 94.805Z" fill="black"/>
<path d="M538.72 105.53C538.72 103.99 538.575 102.745 538.285 101.795C538.005 100.845 537.62 100.12 537.13 99.62C536.64 99.11 536.085 98.765 535.465 98.585C534.845 98.405 534.2 98.315 533.53 98.315H532V112.955H533.545C534.245 112.955 534.905 112.845 535.525 112.625C536.155 112.405 536.71 112.025 537.19 111.485C537.67 110.935 538.045 110.18 538.315 109.22C538.585 108.25 538.72 107.02 538.72 105.53ZM543.01 105.53C543.01 107.23 542.825 108.685 542.455 109.895C542.095 111.105 541.595 112.11 540.955 112.91C540.315 113.7 539.575 114.32 538.735 114.77C537.905 115.22 537.015 115.54 536.065 115.73C535.125 115.91 534.17 116 533.2 116H527.89V95.255H532.84C534.13 95.255 535.38 95.395 536.59 95.675C537.8 95.945 538.885 96.445 539.845 97.175C540.815 97.905 541.585 98.945 542.155 100.295C542.725 101.635 543.01 103.38 543.01 105.53ZM552.118 94.805C553.548 94.805 554.768 95.045 555.778 95.525C556.798 95.995 557.578 96.63 558.118 97.43C558.658 98.23 558.928 99.11 558.928 100.07C558.928 100.93 558.748 101.695 558.388 102.365C558.038 103.025 557.548 103.575 556.918 104.015C556.298 104.455 555.578 104.78 554.758 104.99C555.668 105.1 556.483 105.35 557.203 105.74C557.933 106.12 558.513 106.67 558.943 107.39C559.373 108.1 559.588 109.01 559.588 110.12C559.588 111.29 559.273 112.355 558.643 113.315C558.013 114.275 557.118 115.04 555.958 115.61C554.808 116.17 553.443 116.45 551.863 116.45C550.453 116.45 549.148 116.2 547.948 115.7C546.748 115.19 545.728 114.445 544.888 113.465L547.213 111.365C547.803 112.055 548.478 112.56 549.238 112.88C550.008 113.2 550.808 113.36 551.638 113.36C552.808 113.36 553.743 113.06 554.443 112.46C555.153 111.85 555.508 110.995 555.508 109.895C555.508 109.075 555.353 108.42 555.043 107.93C554.733 107.43 554.293 107.07 553.723 106.85C553.163 106.62 552.498 106.505 551.728 106.505H549.883L550.348 103.685H551.653C552.283 103.685 552.853 103.575 553.363 103.355C553.883 103.135 554.293 102.8 554.593 102.35C554.903 101.9 555.058 101.335 555.058 100.655C555.058 99.755 554.743 99.055 554.113 98.555C553.483 98.045 552.693 97.79 551.743 97.79C550.883 97.79 550.118 97.95 549.448 98.27C548.778 98.59 548.128 99.045 547.498 99.635L545.443 97.46C546.363 96.57 547.378 95.905 548.488 95.465C549.608 95.025 550.818 94.805 552.118 94.805Z" fill="black"/>
<path d="M616.72 105.53C616.72 103.99 616.575 102.745 616.285 101.795C616.005 100.845 615.62 100.12 615.13 99.62C614.64 99.11 614.085 98.765 613.465 98.585C612.845 98.405 612.2 98.315 611.53 98.315H610V112.955H611.545C612.245 112.955 612.905 112.845 613.525 112.625C614.155 112.405 614.71 112.025 615.19 111.485C615.67 110.935 616.045 110.18 616.315 109.22C616.585 108.25 616.72 107.02 616.72 105.53ZM621.01 105.53C621.01 107.23 620.825 108.685 620.455 109.895C620.095 111.105 619.595 112.11 618.955 112.91C618.315 113.7 617.575 114.32 616.735 114.77C615.905 115.22 615.015 115.54 614.065 115.73C613.125 115.91 612.17 116 611.2 116H605.89V95.255H610.84C612.13 95.255 613.38 95.395 614.59 95.675C615.8 95.945 616.885 96.445 617.845 97.175C618.815 97.905 619.585 98.945 620.155 100.295C620.725 101.635 621.01 103.38 621.01 105.53ZM629.488 94.805L632.848 96.08L627.718 108.395H638.323V111.41H623.608V108.71L629.488 94.805ZM636.043 103.085V116H632.233L632.188 108.875L632.698 103.085H636.043Z" fill="black"/>
<path d="M694.72 105.53C694.72 103.99 694.575 102.745 694.285 101.795C694.005 100.845 693.62 100.12 693.13 99.62C692.64 99.11 692.085 98.765 691.465 98.585C690.845 98.405 690.2 98.315 689.53 98.315H688V112.955H689.545C690.245 112.955 690.905 112.845 691.525 112.625C692.155 112.405 692.71 112.025 693.19 111.485C693.67 110.935 694.045 110.18 694.315 109.22C694.585 108.25 694.72 107.02 694.72 105.53ZM699.01 105.53C699.01 107.23 698.825 108.685 698.455 109.895C698.095 111.105 697.595 112.11 696.955 112.91C696.315 113.7 695.575 114.32 694.735 114.77C693.905 115.22 693.015 115.54 692.065 115.73C691.125 115.91 690.17 116 689.2 116H683.89V95.255H688.84C690.13 95.255 691.38 95.395 692.59 95.675C693.8 95.945 694.885 96.445 695.845 97.175C696.815 97.905 697.585 98.945 698.155 100.295C698.725 101.635 699.01 103.38 699.01 105.53ZM715.138 95.255L714.673 98.165H706.873V103.355C707.423 103.085 707.973 102.895 708.523 102.785C709.073 102.675 709.603 102.62 710.113 102.62C711.203 102.62 712.183 102.885 713.053 103.415C713.933 103.945 714.623 104.71 715.123 105.71C715.633 106.7 715.888 107.89 715.888 109.28C715.888 110.67 715.563 111.91 714.913 113C714.273 114.08 713.373 114.925 712.213 115.535C711.053 116.145 709.693 116.45 708.133 116.45C706.723 116.45 705.468 116.19 704.368 115.67C703.278 115.15 702.343 114.45 701.563 113.57L703.873 111.425C704.423 112.065 705.038 112.55 705.718 112.88C706.398 113.2 707.128 113.36 707.908 113.36C709.098 113.36 710.043 113 710.743 112.28C711.443 111.55 711.793 110.555 711.793 109.295C711.793 108.345 711.658 107.59 711.388 107.03C711.118 106.47 710.748 106.065 710.278 105.815C709.808 105.565 709.268 105.44 708.658 105.44C708.198 105.44 707.743 105.495 707.293 105.605C706.853 105.705 706.378 105.88 705.868 106.13H703.093V95.255H715.138Z" fill="black"/>
<path d="M772.72 105.53C772.72 103.99 772.575 102.745 772.285 101.795C772.005 100.845 771.62 100.12 771.13 99.62C770.64 99.11 770.085 98.765 769.465 98.585C768.845 98.405 768.2 98.315 767.53 98.315H766V112.955H767.545C768.245 112.955 768.905 112.845 769.525 112.625C770.155 112.405 770.71 112.025 771.19 111.485C771.67 110.935 772.045 110.18 772.315 109.22C772.585 108.25 772.72 107.02 772.72 105.53ZM777.01 105.53C777.01 107.23 776.825 108.685 776.455 109.895C776.095 111.105 775.595 112.11 774.955 112.91C774.315 113.7 773.575 114.32 772.735 114.77C771.905 115.22 771.015 115.54 770.065 115.73C769.125 115.91 768.17 116 767.2 116H761.89V95.255H766.84C768.13 95.255 769.38 95.395 770.59 95.675C771.8 95.945 772.885 96.445 773.845 97.175C774.815 97.905 775.585 98.945 776.155 100.295C776.725 101.635 777.01 103.38 777.01 105.53ZM788.338 94.805C789.218 94.805 790.018 94.92 790.738 95.15C791.468 95.37 792.123 95.685 792.703 96.095L791.188 98.555C790.768 98.265 790.318 98.05 789.838 97.91C789.358 97.77 788.873 97.7 788.383 97.7C787.483 97.7 786.693 97.995 786.013 98.585C785.343 99.175 784.818 100.025 784.438 101.135C784.068 102.235 783.878 103.565 783.868 105.125L783.898 106.4C783.888 108.82 784.128 110.615 784.618 111.785C785.118 112.955 785.998 113.54 787.258 113.54C788.298 113.54 789.068 113.13 789.568 112.31C790.068 111.49 790.318 110.45 790.318 109.19C790.318 108.17 790.203 107.365 789.973 106.775C789.743 106.175 789.423 105.745 789.013 105.485C788.603 105.215 788.108 105.08 787.528 105.08C786.748 105.08 786.013 105.31 785.323 105.77C784.643 106.22 784.063 106.825 783.583 107.585L783.553 104.855C784.213 103.945 784.968 103.28 785.818 102.86C786.668 102.44 787.553 102.23 788.473 102.23C789.543 102.23 790.518 102.49 791.398 103.01C792.278 103.52 792.978 104.275 793.498 105.275C794.028 106.275 794.293 107.51 794.293 108.98C794.293 110.42 793.998 111.705 793.408 112.835C792.818 113.955 791.988 114.84 790.918 115.49C789.858 116.13 788.628 116.45 787.228 116.45C785.888 116.45 784.748 116.2 783.808 115.7C782.868 115.19 782.103 114.485 781.513 113.585C780.923 112.675 780.488 111.615 780.208 110.405C779.938 109.185 779.803 107.875 779.803 106.475C779.803 104.155 780.143 102.12 780.823 100.37C781.503 98.61 782.478 97.245 783.748 96.275C785.028 95.295 786.558 94.805 788.338 94.805Z" fill="black"/>
<path d="M850.72 105.53C850.72 103.99 850.575 102.745 850.285 101.795C850.005 100.845 849.62 100.12 849.13 99.62C848.64 99.11 848.085 98.765 847.465 98.585C846.845 98.405 846.2 98.315 845.53 98.315H844V112.955H845.545C846.245 112.955 846.905 112.845 847.525 112.625C848.155 112.405 848.71 112.025 849.19 111.485C849.67 110.935 850.045 110.18 850.315 109.22C850.585 108.25 850.72 107.02 850.72 105.53ZM855.01 105.53C855.01 107.23 854.825 108.685 854.455 109.895C854.095 111.105 853.595 112.11 852.955 112.91C852.315 113.7 851.575 114.32 850.735 114.77C849.905 115.22 849.015 115.54 848.065 115.73C847.125 115.91 846.17 116 845.2 116H839.89V95.255H844.84C846.13 95.255 847.38 95.395 848.59 95.675C849.8 95.945 850.885 96.445 851.845 97.175C852.815 97.905 853.585 98.945 854.155 100.295C854.725 101.635 855.01 103.38 855.01 105.53ZM863.548 116.405L859.813 115.25L867.673 98.315H858.343V95.255H871.678V98.015L863.548 116.405Z" fill="black"/>
<path d="M928.72 105.53C928.72 103.99 928.575 102.745 928.285 101.795C928.005 100.845 927.62 100.12 927.13 99.62C926.64 99.11 926.085 98.765 925.465 98.585C924.845 98.405 924.2 98.315 923.53 98.315H922V112.955H923.545C924.245 112.955 924.905 112.845 925.525 112.625C926.155 112.405 926.71 112.025 927.19 111.485C927.67 110.935 928.045 110.18 928.315 109.22C928.585 108.25 928.72 107.02 928.72 105.53ZM933.01 105.53C933.01 107.23 932.825 108.685 932.455 109.895C932.095 111.105 931.595 112.11 930.955 112.91C930.315 113.7 929.575 114.32 928.735 114.77C927.905 115.22 927.015 115.54 926.065 115.73C925.125 115.91 924.17 116 923.2 116H917.89V95.255H922.84C924.13 95.255 925.38 95.395 926.59 95.675C927.8 95.945 928.885 96.445 929.845 97.175C930.815 97.905 931.585 98.945 932.155 100.295C932.725 101.635 933.01 103.38 933.01 105.53ZM949.648 100.22C949.648 101.2 949.368 102.045 948.808 102.755C948.258 103.465 947.423 104.135 946.303 104.765C947.683 105.415 948.723 106.215 949.423 107.165C950.123 108.115 950.473 109.19 950.473 110.39C950.473 111.48 950.178 112.485 949.588 113.405C949.008 114.325 948.158 115.065 947.038 115.625C945.918 116.175 944.543 116.45 942.913 116.45C941.293 116.45 939.933 116.18 938.833 115.64C937.733 115.09 936.903 114.365 936.343 113.465C935.783 112.565 935.503 111.575 935.503 110.495C935.503 109.275 935.858 108.225 936.568 107.345C937.288 106.465 938.248 105.76 939.448 105.23C938.368 104.61 937.578 103.94 937.078 103.22C936.578 102.5 936.328 101.565 936.328 100.415C936.328 99.505 936.508 98.705 936.868 98.015C937.228 97.315 937.718 96.73 938.338 96.26C938.968 95.78 939.683 95.42 940.483 95.18C941.283 94.93 942.123 94.805 943.003 94.805C943.923 94.805 944.783 94.925 945.583 95.165C946.393 95.395 947.103 95.74 947.713 96.2C948.323 96.66 948.798 97.225 949.138 97.895C949.478 98.565 949.648 99.34 949.648 100.22ZM946.468 110.39C946.468 109.61 946.293 108.99 945.943 108.53C945.603 108.06 945.098 107.66 944.428 107.33C943.758 107 942.928 106.66 941.938 106.31C941.478 106.57 941.063 106.885 940.693 107.255C940.333 107.625 940.043 108.06 939.823 108.56C939.613 109.06 939.508 109.645 939.508 110.315C939.508 111.285 939.798 112.065 940.378 112.655C940.968 113.245 941.838 113.54 942.988 113.54C944.158 113.54 945.028 113.235 945.598 112.625C946.178 112.005 946.468 111.26 946.468 110.39ZM940.123 100.43C940.123 101.03 940.258 101.53 940.528 101.93C940.798 102.32 941.198 102.66 941.728 102.95C942.258 103.24 942.913 103.525 943.693 103.805C944.463 103.285 945.013 102.77 945.343 102.26C945.683 101.74 945.853 101.13 945.853 100.43C945.853 99.58 945.608 98.895 945.118 98.375C944.638 97.845 943.933 97.58 943.003 97.58C942.093 97.58 941.383 97.825 940.873 98.315C940.373 98.805 940.123 99.51 940.123 100.43Z" fill="black"/>
<path d="M1006.72 105.53C1006.72 103.99 1006.58 102.745 1006.29 101.795C1006.01 100.845 1005.62 100.12 1005.13 99.62C1004.64 99.11 1004.09 98.765 1003.47 98.585C1002.85 98.405 1002.2 98.315 1001.53 98.315H1000V112.955H1001.55C1002.25 112.955 1002.91 112.845 1003.53 112.625C1004.16 112.405 1004.71 112.025 1005.19 111.485C1005.67 110.935 1006.05 110.18 1006.32 109.22C1006.59 108.25 1006.72 107.02 1006.72 105.53ZM1011.01 105.53C1011.01 107.23 1010.83 108.685 1010.46 109.895C1010.1 111.105 1009.6 112.11 1008.96 112.91C1008.32 113.7 1007.58 114.32 1006.74 114.77C1005.91 115.22 1005.02 115.54 1004.07 115.73C1003.13 115.91 1002.17 116 1001.2 116H995.89V95.255H1000.84C1002.13 95.255 1003.38 95.395 1004.59 95.675C1005.8 95.945 1006.89 96.445 1007.85 97.175C1008.82 97.905 1009.59 98.945 1010.16 100.295C1010.73 101.635 1011.01 103.38 1011.01 105.53ZM1020.79 94.805C1022.42 94.805 1023.78 95.155 1024.86 95.855C1025.95 96.555 1026.76 97.53 1027.3 98.78C1027.85 100.03 1028.13 101.49 1028.13 103.16C1028.13 105.18 1027.89 106.945 1027.41 108.455C1026.94 109.955 1026.21 111.24 1025.22 112.31C1024.24 113.37 1022.98 114.265 1021.45 114.995C1019.93 115.725 1018.13 116.33 1016.04 116.81L1015.2 113.975C1017.04 113.485 1018.58 112.895 1019.83 112.205C1021.08 111.515 1022.05 110.665 1022.74 109.655C1023.43 108.645 1023.86 107.42 1024.02 105.98L1024.03 104.435C1024.05 102.875 1023.97 101.6 1023.78 100.61C1023.6 99.62 1023.27 98.89 1022.79 98.42C1022.32 97.95 1021.65 97.715 1020.78 97.715C1019.76 97.715 1018.96 98.07 1018.39 98.78C1017.83 99.48 1017.55 100.55 1017.55 101.99C1017.55 103.37 1017.83 104.355 1018.39 104.945C1018.95 105.525 1019.67 105.815 1020.54 105.815C1021.35 105.815 1022.07 105.62 1022.7 105.23C1023.33 104.83 1023.94 104.27 1024.54 103.55L1024.5 106.055C1023.81 106.855 1023.06 107.495 1022.25 107.975C1021.45 108.445 1020.51 108.68 1019.43 108.68C1018.32 108.68 1017.32 108.41 1016.43 107.87C1015.54 107.32 1014.83 106.55 1014.31 105.56C1013.79 104.57 1013.53 103.395 1013.53 102.035C1013.53 100.545 1013.85 99.26 1014.49 98.18C1015.14 97.1 1016.01 96.27 1017.1 95.69C1018.2 95.1 1019.43 94.805 1020.79 94.805Z" fill="black"/>
<path d="M1075.24 116V95.255H1079.35V112.67H1088.5L1088.07 116H1075.24ZM1095.08 120.272C1095.56 120.272 1095.94 120.197 1096.23 120.047C1096.52 119.897 1096.67 119.672 1096.67 119.372C1096.67 119.168 1096.61 118.997 1096.5 118.859C1096.38 118.721 1096.16 118.589 1095.84 118.463C1095.51 118.337 1095.03 118.187 1094.4 118.013C1093.82 117.857 1093.3 117.659 1092.85 117.419C1092.41 117.179 1092.06 116.87 1091.81 116.492C1091.56 116.114 1091.44 115.643 1091.44 115.079C1091.44 114.509 1091.6 114.002 1091.91 113.558C1092.23 113.114 1092.7 112.766 1093.32 112.514C1093.94 112.256 1094.69 112.127 1095.59 112.127C1096.44 112.127 1097.18 112.238 1097.81 112.46C1098.45 112.676 1098.99 112.952 1099.46 113.288L1098.32 114.962C1097.93 114.716 1097.5 114.521 1097.04 114.377C1096.59 114.227 1096.13 114.152 1095.67 114.152C1095.21 114.152 1094.86 114.215 1094.63 114.341C1094.41 114.461 1094.3 114.644 1094.3 114.89C1094.3 115.052 1094.36 115.193 1094.47 115.313C1094.59 115.427 1094.81 115.547 1095.14 115.673C1095.46 115.793 1095.93 115.943 1096.56 116.123C1097.18 116.297 1097.71 116.498 1098.17 116.726C1098.63 116.954 1098.99 117.26 1099.24 117.644C1099.49 118.022 1099.62 118.523 1099.62 119.147C1099.62 119.843 1099.41 120.428 1099 120.902C1098.58 121.37 1098.03 121.721 1097.35 121.955C1096.67 122.189 1095.92 122.306 1095.1 122.306C1094.18 122.306 1093.36 122.174 1092.65 121.91C1091.94 121.646 1091.34 121.298 1090.84 120.866L1092.27 119.264C1092.65 119.552 1093.07 119.792 1093.53 119.984C1094.01 120.176 1094.52 120.272 1095.08 120.272Z" fill="black"/>
</svg>
