<svg width="594" height="529" viewBox="0 0 594 529" fill="none" xmlns="http://www.w3.org/2000/svg">
<rect width="594" height="529" fill="white"/>
<rect x="153" y="267" width="299" height="58" rx="4" fill="#BCC5FF" stroke="black" stroke-width="2"/>
<rect x="176" y="207" width="254" height="58" rx="4" fill="#C5CDFF" stroke="black" stroke-width="2"/>
<rect x="190" y="147" width="225" height="58" rx="4" fill="#CFD6FE" stroke="black" stroke-width="2"/>
<rect x="203" y="87" width="199" height="58" rx="4" fill="#DFE3FF" stroke="black" stroke-width="2"/>
<rect x="223" y="27" width="159" height="58" rx="4" fill="#EEF0FF" stroke="black" stroke-width="2"/>
<rect x="121" y="327" width="363" height="58" rx="4" fill="#A1ACFF" stroke="black" stroke-width="2"/>
<rect x="81" y="387" width="444" height="58" rx="4" fill="#808FFF" stroke="black" stroke-width="2"/>
<rect x="52" y="447" width="502" height="58" rx="4" fill="#6174FF" stroke="black" stroke-width="2"/>
<path d="M214.098 302.278L202.172 297.004V295.552L214.098 289.619V291.987L205.15 296.174L214.098 299.922V302.278ZM220.25 302.095L220.421 302.375C220.275 302.961 220.088 303.592 219.86 304.268C219.632 304.943 219.384 305.618 219.115 306.294C218.847 306.978 218.574 307.62 218.297 308.223H216.198C216.369 307.563 216.531 306.872 216.686 306.147C216.849 305.431 216.995 304.723 217.125 304.023C217.264 303.315 217.374 302.673 217.455 302.095H220.25ZM241.71 302.278L229.784 297.004V295.552L241.71 289.619V291.987L232.763 296.174L241.71 299.922V302.278ZM244.164 294.832V292.683H255.944V294.832H244.164ZM244.164 299.702V297.542H255.944V299.702H244.164ZM262.169 302.095L262.34 302.375C262.194 302.961 262.007 303.592 261.779 304.268C261.551 304.943 261.303 305.618 261.034 306.294C260.766 306.978 260.493 307.62 260.216 308.223H258.117C258.288 307.563 258.45 306.872 258.605 306.147C258.768 305.431 258.914 304.723 259.044 304.023C259.183 303.315 259.293 302.673 259.374 302.095H262.169ZM271.703 299.922L280.651 296.187L271.703 291.987V289.619L283.629 295.552V297.004L271.703 302.278V299.922ZM289.782 302.095L289.953 302.375C289.806 302.961 289.619 303.592 289.391 304.268C289.163 304.943 288.915 305.618 288.646 306.294C288.378 306.978 288.105 307.62 287.829 308.223H285.729C285.9 307.563 286.063 306.872 286.217 306.147C286.38 305.431 286.527 304.723 286.657 304.023C286.795 303.315 286.905 302.673 286.986 302.095H289.782ZM299.315 299.922L308.263 296.187L299.315 291.987V289.619L311.242 295.552V297.004L299.315 302.278V299.922ZM313.695 294.832V292.683H325.475V294.832H313.695ZM313.695 299.702V297.542H325.475V299.702H313.695ZM331.701 302.095L331.872 302.375C331.725 302.961 331.538 303.592 331.31 304.268C331.082 304.943 330.834 305.618 330.565 306.294C330.297 306.978 330.024 307.62 329.748 308.223H327.648C327.819 307.563 327.982 306.872 328.136 306.147C328.299 305.431 328.445 304.723 328.576 304.023C328.714 303.315 328.824 302.673 328.905 302.095H331.701ZM344.591 299.556H342.431L341.845 287.153H345.177L344.591 299.556ZM341.698 303.486C341.698 302.819 341.869 302.351 342.211 302.083C342.561 301.806 342.988 301.667 343.493 301.667C343.989 301.667 344.412 301.806 344.762 302.083C345.112 302.351 345.287 302.819 345.287 303.486C345.287 304.137 345.112 304.609 344.762 304.902C344.412 305.187 343.989 305.33 343.493 305.33C342.988 305.33 342.561 305.187 342.211 304.902C341.869 304.609 341.698 304.137 341.698 303.486ZM348.192 294.832V292.683H359.972V294.832H348.192ZM348.192 299.702V297.542H359.972V299.702H348.192ZM366.198 302.095L366.369 302.375C366.222 302.961 366.035 303.592 365.807 304.268C365.579 304.943 365.331 305.618 365.062 306.294C364.794 306.978 364.521 307.62 364.245 308.223H362.145C362.316 307.563 362.479 306.872 362.633 306.147C362.796 305.431 362.943 304.723 363.073 304.023C363.211 303.315 363.321 302.673 363.402 302.095H366.198ZM375.805 294.832V292.683H387.584V294.832H375.805ZM375.805 299.702V297.542H387.584V299.702H375.805ZM390.111 294.832V292.683H401.891V294.832H390.111ZM390.111 299.702V297.542H401.891V299.702H390.111Z" fill="black"/>
<path d="M296.001 56.1519C296.001 54.7847 296.131 53.45 296.392 52.1479C296.66 50.8459 297.067 49.6048 297.612 48.4248C298.158 47.2448 298.845 46.1543 299.675 45.1533H302.178C301.014 46.7077 300.135 48.4289 299.541 50.3169C298.955 52.2049 298.662 54.1418 298.662 56.1274C298.662 57.4214 298.792 58.7031 299.053 59.9727C299.313 61.2422 299.704 62.4629 300.225 63.6348C300.745 64.8148 301.388 65.9215 302.153 66.9551H299.675C298.845 65.9785 298.158 64.9124 297.612 63.7568C297.067 62.6012 296.66 61.3805 296.392 60.0947C296.131 58.8089 296.001 57.4946 296.001 56.1519ZM309.856 56.1396C309.856 57.4906 309.726 58.8089 309.465 60.0947C309.205 61.3805 308.802 62.6012 308.257 63.7568C307.72 64.9124 307.028 65.9785 306.182 66.9551H303.716C304.481 65.9215 305.124 64.8148 305.645 63.6348C306.165 62.4548 306.556 61.23 306.816 59.9604C307.077 58.6909 307.207 57.4092 307.207 56.1152C307.207 54.7969 307.073 53.4948 306.804 52.209C306.544 50.9232 306.153 49.6862 305.632 48.498C305.111 47.3018 304.465 46.1868 303.691 45.1533H306.182C307.028 46.1543 307.72 47.2448 308.257 48.4248C308.802 49.6048 309.205 50.8459 309.465 52.1479C309.726 53.4419 309.856 54.7725 309.856 56.1396Z" fill="black"/>
<path d="M297.179 106.006L296.69 110.669L301.378 109.338L301.744 111.938L297.362 112.329L300.206 116.125L297.838 117.407L295.775 113.318L293.932 117.395L291.466 116.125L294.286 112.329L289.928 111.926L290.343 109.338L294.945 110.669L294.457 106.006H297.179ZM310.875 106.006L310.387 110.669L315.074 109.338L315.44 111.938L311.058 112.329L313.902 116.125L311.534 117.407L309.471 113.318L307.628 117.395L305.162 116.125L307.982 112.329L303.624 111.926L304.039 109.338L308.641 110.669L308.153 106.006H310.875Z" fill="black"/>
<path d="M258.179 166.006L257.69 170.669L262.378 169.338L262.744 171.938L258.362 172.329L261.206 176.125L258.838 177.407L256.775 173.318L254.932 177.395L252.466 176.125L255.286 172.329L250.928 171.926L251.343 169.338L255.945 170.669L255.457 166.006H258.179ZM268.64 182.095L268.811 182.375C268.665 182.961 268.477 183.592 268.25 184.268C268.022 184.943 267.773 185.618 267.505 186.294C267.236 186.978 266.964 187.62 266.687 188.223H264.587C264.758 187.563 264.921 186.872 265.076 186.147C265.238 185.431 265.385 184.723 265.515 184.023C265.653 183.315 265.763 182.673 265.845 182.095H268.64ZM286.56 167.153L279.907 185H277.222L283.875 167.153H286.56ZM291.711 182.095L291.882 182.375C291.736 182.961 291.549 183.592 291.321 184.268C291.093 184.943 290.845 185.618 290.576 186.294C290.308 186.978 290.035 187.62 289.758 188.223H287.659C287.83 187.563 287.992 186.872 288.147 186.147C288.31 185.431 288.456 184.723 288.586 184.023C288.725 183.315 288.835 182.673 288.916 182.095H291.711ZM309.631 167.153L302.979 185H300.293L306.946 167.153H309.631ZM319.397 167.153L312.744 185H310.059L316.711 167.153H319.397ZM324.548 182.095L324.719 182.375C324.573 182.961 324.386 183.592 324.158 184.268C323.93 184.943 323.682 185.618 323.413 186.294C323.145 186.978 322.872 187.62 322.595 188.223H320.496C320.667 187.563 320.829 186.872 320.984 186.147C321.147 185.431 321.293 184.723 321.423 184.023C321.562 183.315 321.672 182.673 321.753 182.095H324.548ZM337.842 166.897C339.152 166.897 340.145 167.385 340.82 168.362C341.496 169.33 341.833 170.701 341.833 172.476C341.833 174.242 341.508 175.621 340.857 176.614C340.214 177.607 339.209 178.103 337.842 178.103C336.564 178.103 335.592 177.607 334.924 176.614C334.257 175.621 333.923 174.242 333.923 172.476C333.923 170.701 334.237 169.33 334.863 168.362C335.498 167.385 336.491 166.897 337.842 166.897ZM337.854 168.899C337.325 168.899 336.934 169.196 336.682 169.79C336.438 170.384 336.316 171.283 336.316 172.488C336.316 173.684 336.438 174.587 336.682 175.198C336.934 175.8 337.325 176.101 337.854 176.101C338.391 176.101 338.79 175.8 339.05 175.198C339.319 174.596 339.453 173.692 339.453 172.488C339.453 171.292 339.323 170.396 339.062 169.802C338.802 169.2 338.399 168.899 337.854 168.899ZM349.829 167.153L339.929 185H337.573L347.473 167.153H349.829ZM349.5 174.038C350.81 174.038 351.803 174.526 352.478 175.503C353.162 176.471 353.503 177.843 353.503 179.617C353.503 181.375 353.178 182.75 352.527 183.743C351.884 184.736 350.875 185.232 349.5 185.232C348.222 185.232 347.249 184.736 346.582 183.743C345.915 182.75 345.581 181.375 345.581 179.617C345.581 177.843 345.894 176.471 346.521 175.503C347.156 174.526 348.149 174.038 349.5 174.038ZM349.512 176.04C348.983 176.04 348.592 176.337 348.34 176.931C348.096 177.525 347.974 178.424 347.974 179.629C347.974 180.825 348.096 181.729 348.34 182.339C348.592 182.941 348.983 183.242 349.512 183.242C350.057 183.242 350.46 182.945 350.72 182.351C350.981 181.749 351.111 180.841 351.111 179.629C351.111 178.433 350.981 177.537 350.72 176.943C350.46 176.341 350.057 176.04 349.512 176.04Z" fill="black"/>
<path d="M293.215 235.1H298.098V237.273H293.215V242.205H291.042V237.273H286.172V235.1H291.042V230.12H293.215V235.1ZM304.25 242.095L304.421 242.375C304.275 242.961 304.088 243.592 303.86 244.268C303.632 244.943 303.384 245.618 303.115 246.294C302.847 246.978 302.574 247.62 302.297 248.223H300.198C300.369 247.563 300.531 246.872 300.686 246.147C300.849 245.431 300.995 244.723 301.125 244.023C301.264 243.315 301.374 242.673 301.455 242.095H304.25ZM313.491 239.507V237.078H319.79V239.507H313.491Z" fill="black"/>
<path d="M293.236 365H289.635L280.895 350.754H280.785C280.818 351.235 280.846 351.743 280.871 352.28C280.903 352.817 280.928 353.371 280.944 353.94C280.968 354.51 280.989 355.088 281.005 355.674V365H278.344V347.153H281.92L290.648 361.301H290.734C290.718 360.886 290.697 360.41 290.673 359.873C290.648 359.336 290.624 358.783 290.6 358.213C290.583 357.635 290.571 357.078 290.563 356.541V347.153H293.236V365ZM313.769 356.052C313.769 357.428 313.594 358.681 313.244 359.812C312.902 360.935 312.385 361.903 311.693 362.717C311.002 363.523 310.135 364.146 309.093 364.585C308.052 365.024 306.831 365.244 305.431 365.244C304.007 365.244 302.77 365.024 301.72 364.585C300.679 364.146 299.812 363.519 299.12 362.705C298.437 361.891 297.924 360.919 297.582 359.788C297.24 358.656 297.069 357.403 297.069 356.028C297.069 354.189 297.37 352.585 297.973 351.218C298.583 349.843 299.507 348.777 300.744 348.02C301.989 347.255 303.559 346.873 305.456 346.873C307.311 346.873 308.853 347.251 310.082 348.008C311.311 348.765 312.23 349.831 312.841 351.206C313.459 352.573 313.769 354.189 313.769 356.052ZM300.146 356.052C300.146 357.428 300.333 358.62 300.707 359.629C301.081 360.63 301.655 361.403 302.428 361.948C303.209 362.485 304.21 362.754 305.431 362.754C306.66 362.754 307.661 362.485 308.434 361.948C309.207 361.403 309.777 360.63 310.143 359.629C310.509 358.62 310.692 357.428 310.692 356.052C310.692 353.961 310.273 352.325 309.435 351.145C308.605 349.957 307.278 349.363 305.456 349.363C304.235 349.363 303.23 349.631 302.44 350.168C301.659 350.706 301.081 351.475 300.707 352.476C300.333 353.468 300.146 354.661 300.146 356.052ZM323.791 365H320.849V349.644H315.624V347.153H329.003V349.644H323.791V365Z" fill="black"/>
<path d="M288.403 424L286.658 419.044H279.834L278.088 424H275L281.641 406.08H284.888L291.516 424H288.403ZM285.901 416.529L284.204 411.646C284.139 411.435 284.045 411.138 283.923 410.755C283.801 410.365 283.679 409.97 283.557 409.571C283.435 409.164 283.333 408.823 283.252 408.546C283.171 408.88 283.069 409.254 282.947 409.669C282.833 410.076 282.719 410.458 282.605 410.816C282.499 411.174 282.418 411.451 282.361 411.646L280.652 416.529H285.901ZM308.765 424H305.164L296.423 409.754H296.313C296.346 410.235 296.375 410.743 296.399 411.28C296.431 411.817 296.456 412.371 296.472 412.94C296.497 413.51 296.517 414.088 296.533 414.674V424H293.872V406.153H297.449L306.177 420.301H306.262C306.246 419.886 306.226 419.41 306.201 418.873C306.177 418.336 306.152 417.783 306.128 417.213C306.112 416.635 306.099 416.078 306.091 415.541V406.153H308.765V424ZM327.942 414.906C327.942 416.916 327.568 418.596 326.819 419.947C326.07 421.29 324.984 422.303 323.56 422.987C322.135 423.662 320.418 424 318.408 424H313.452V406.153H318.945C320.793 406.153 322.388 406.487 323.73 407.154C325.073 407.813 326.111 408.794 326.843 410.096C327.576 411.39 327.942 412.993 327.942 414.906ZM324.89 414.991C324.89 413.526 324.658 412.322 324.194 411.378C323.739 410.434 323.063 409.734 322.168 409.278C321.281 408.814 320.186 408.583 318.884 408.583H316.382V421.546H318.457C320.614 421.546 322.225 420.997 323.291 419.898C324.357 418.8 324.89 417.164 324.89 414.991Z" fill="black"/>
<path d="M303.188 475.052C303.188 476.428 303.014 477.681 302.664 478.812C302.322 479.935 301.805 480.903 301.113 481.717C300.422 482.523 299.555 483.146 298.513 483.585C297.472 484.024 296.251 484.244 294.851 484.244C293.427 484.244 292.19 484.024 291.14 483.585C290.098 483.146 289.232 482.519 288.54 481.705C287.856 480.891 287.344 479.919 287.002 478.788C286.66 477.656 286.489 476.403 286.489 475.028C286.489 473.189 286.79 471.585 287.393 470.218C288.003 468.843 288.927 467.777 290.164 467.02C291.409 466.255 292.979 465.873 294.875 465.873C296.731 465.873 298.273 466.251 299.502 467.008C300.731 467.765 301.65 468.831 302.261 470.206C302.879 471.573 303.188 473.189 303.188 475.052ZM289.565 475.052C289.565 476.428 289.753 477.62 290.127 478.629C290.501 479.63 291.075 480.403 291.848 480.948C292.629 481.485 293.63 481.754 294.851 481.754C296.08 481.754 297.081 481.485 297.854 480.948C298.627 480.403 299.197 479.63 299.563 478.629C299.929 477.62 300.112 476.428 300.112 475.052C300.112 472.961 299.693 471.325 298.855 470.145C298.025 468.957 296.698 468.363 294.875 468.363C293.655 468.363 292.65 468.631 291.86 469.168C291.079 469.706 290.501 470.475 290.127 471.476C289.753 472.468 289.565 473.661 289.565 475.052ZM312.039 466.153C313.577 466.153 314.846 466.34 315.847 466.715C316.856 467.089 317.605 467.659 318.093 468.424C318.59 469.189 318.838 470.161 318.838 471.341C318.838 472.22 318.675 472.969 318.35 473.587C318.024 474.206 317.597 474.719 317.068 475.125C316.539 475.532 315.973 475.858 315.371 476.102L320.437 484H317.129L312.82 476.847H309.951V484H307.021V466.153H312.039ZM311.843 468.595H309.951V474.43H311.978C313.337 474.43 314.321 474.177 314.932 473.673C315.55 473.168 315.859 472.424 315.859 471.439C315.859 470.405 315.53 469.673 314.871 469.242C314.22 468.81 313.21 468.595 311.843 468.595Z" fill="black"/>
<rect x="51" y="26" width="40" height="40" rx="7.8125" fill="#0037AC"/>
<path d="M66.4946 36.4497C66.2293 35.8036 65.3143 35.8036 65.0491 36.4497L64.6321 37.4659C64.5543 37.6553 64.554 37.8677 64.6313 38.0574L70.2123 51.7513C70.4217 52.2651 70.0437 52.8274 69.4888 52.8274H63.9346H62.0591C61.5033 52.8274 61.1253 52.2635 61.3364 51.7494L62.2995 49.4035C62.3773 49.2141 62.3776 49.0016 62.3003 48.812L61.8623 47.7371C61.5984 47.0894 60.6818 47.0882 60.4161 47.7352L57.7927 54.1249C57.5816 54.639 57.9597 55.2029 58.5154 55.2029H73.0281C73.5838 55.2029 73.9619 54.639 73.7508 54.1249L66.4946 36.4497Z" fill="white"/>
<path d="M71.7877 40.2487C71.5783 39.7349 71.9563 39.1726 72.5112 39.1726H78.0654H79.9409C80.4967 39.1726 80.8747 39.7365 80.6636 40.2506L79.7005 42.5965C79.6227 42.7859 79.6224 42.9984 79.6997 43.188L80.1377 44.2629C80.4016 44.9106 81.3182 44.9118 81.5839 44.2648L84.2073 37.8751C84.4184 37.361 84.0403 36.7971 83.4846 36.7971H68.9719C68.4162 36.7971 68.0381 37.361 68.2492 37.8751L75.5054 55.5503C75.7707 56.1964 76.6857 56.1964 76.9509 55.5503L77.3679 54.5341C77.4457 54.3447 77.446 54.1323 77.3687 53.9426L71.7877 40.2487Z" fill="white"/>
</svg>
