<svg width="594" height="277" viewBox="0 0 594 277" fill="none" xmlns="http://www.w3.org/2000/svg">
<rect width="594" height="277" fill="white"/>
<rect x="147" y="20" width="299" height="58" rx="4" fill="#BCC5FF" stroke="black" stroke-width="2"/>
<rect x="115" y="80" width="363" height="58" rx="4" fill="#A1ACFF" stroke="black" stroke-width="2"/>
<rect x="75" y="139" width="444" height="58" rx="4" fill="#808FFF" stroke="black" stroke-width="2"/>
<rect x="46" y="199" width="502" height="58" rx="4" fill="#6174FF" stroke="black" stroke-width="2"/>
<path d="M240.532 41.1533C242.835 41.1533 244.515 41.6253 245.573 42.5693C246.631 43.5133 247.16 44.8358 247.16 46.5366C247.16 47.3097 247.038 48.0462 246.794 48.7461C246.558 49.4378 246.167 50.0522 245.622 50.5894C245.077 51.1183 244.357 51.5374 243.461 51.8467C242.574 52.1559 241.48 52.3105 240.178 52.3105H238.273V59H235.344V41.1533H240.532ZM240.336 43.5825H238.273V49.8691H239.873C240.792 49.8691 241.573 49.7633 242.216 49.5518C242.859 49.332 243.347 48.9862 243.681 48.5142C244.015 48.0422 244.182 47.4196 244.182 46.6465C244.182 45.613 243.868 44.8439 243.242 44.3394C242.623 43.8348 241.655 43.5825 240.336 43.5825ZM255.729 45.2305C257.438 45.2305 258.728 45.6089 259.599 46.3657C260.478 47.1226 260.917 48.3026 260.917 49.9058V59H258.879L258.33 57.0835H258.232C257.849 57.5718 257.455 57.9746 257.048 58.292C256.641 58.6094 256.169 58.8454 255.632 59C255.103 59.1628 254.456 59.2441 253.691 59.2441C252.885 59.2441 252.165 59.0977 251.53 58.8047C250.896 58.5036 250.395 58.0479 250.029 57.4375C249.663 56.8271 249.479 56.054 249.479 55.1182C249.479 53.7266 249.996 52.6808 251.03 51.981C252.071 51.2811 253.642 50.8945 255.742 50.8213L258.085 50.7358V50.0278C258.085 49.092 257.866 48.4246 257.426 48.0259C256.995 47.6271 256.385 47.4277 255.595 47.4277C254.92 47.4277 254.265 47.5254 253.63 47.7207C252.995 47.916 252.377 48.1561 251.774 48.4409L250.847 46.4146C251.506 46.0646 252.255 45.7798 253.093 45.5601C253.939 45.3403 254.818 45.2305 255.729 45.2305ZM258.073 52.5425L256.328 52.6035C254.895 52.6523 253.89 52.8965 253.312 53.3359C252.735 53.7754 252.446 54.3776 252.446 55.1426C252.446 55.8099 252.645 56.2982 253.044 56.6074C253.443 56.9085 253.968 57.0591 254.619 57.0591C255.611 57.0591 256.433 56.7783 257.084 56.2168C257.744 55.6471 258.073 54.813 258.073 53.7144V52.5425ZM271.782 45.2305C272.01 45.2305 272.258 45.2427 272.526 45.2671C272.795 45.2915 273.027 45.3241 273.222 45.3647L272.954 48.0503C272.783 48.0015 272.571 47.9648 272.319 47.9404C272.075 47.916 271.855 47.9038 271.66 47.9038C271.147 47.9038 270.659 47.9893 270.195 48.1602C269.731 48.3229 269.32 48.5752 268.962 48.917C268.604 49.2507 268.323 49.6698 268.12 50.1743C267.916 50.6789 267.814 51.2648 267.814 51.9321V59H264.934V45.4868H267.18L267.57 47.8672H267.705C267.973 47.387 268.307 46.9476 268.706 46.5488C269.104 46.1501 269.56 45.8327 270.073 45.5967C270.594 45.3525 271.163 45.2305 271.782 45.2305ZM281.108 45.2305C282.312 45.2305 283.346 45.4787 284.208 45.9751C285.071 46.4715 285.734 47.1755 286.198 48.0869C286.662 48.9984 286.894 50.0889 286.894 51.3584V52.8965H277.873C277.906 54.2067 278.256 55.2158 278.923 55.9238C279.598 56.6318 280.542 56.9858 281.755 56.9858C282.618 56.9858 283.391 56.9045 284.074 56.7417C284.766 56.5708 285.478 56.3226 286.21 55.9971V58.3286C285.535 58.646 284.847 58.8779 284.147 59.0244C283.448 59.1709 282.609 59.2441 281.633 59.2441C280.306 59.2441 279.139 58.9878 278.129 58.4751C277.128 57.9543 276.343 57.1812 275.773 56.1558C275.212 55.1304 274.931 53.8568 274.931 52.335C274.931 50.8213 275.188 49.5355 275.7 48.4775C276.213 47.4196 276.933 46.6139 277.861 46.0605C278.789 45.5072 279.871 45.2305 281.108 45.2305ZM281.108 47.3911C280.205 47.3911 279.472 47.6841 278.911 48.27C278.357 48.856 278.032 49.7145 277.934 50.8457H284.086C284.078 50.1702 283.964 49.5721 283.745 49.0513C283.533 48.5304 283.208 48.1235 282.768 47.8306C282.337 47.5376 281.783 47.3911 281.108 47.3911ZM285.1 39.8472V40.0913C284.904 40.3273 284.64 40.6121 284.306 40.9458C283.972 41.2713 283.61 41.6172 283.22 41.9834C282.829 42.3415 282.443 42.6873 282.06 43.021C281.678 43.3465 281.332 43.6232 281.022 43.8511H279.106V43.5337C279.375 43.2244 279.672 42.8542 279.997 42.4229C280.331 41.9915 280.656 41.548 280.974 41.0923C281.299 40.6366 281.572 40.2215 281.792 39.8472H285.1ZM297.172 45.2305C298.694 45.2305 299.878 45.6252 300.725 46.4146C301.579 47.1958 302.006 48.4531 302.006 50.1865V59H299.138V50.7236C299.138 49.6738 298.922 48.8885 298.491 48.3677C298.059 47.8387 297.392 47.5742 296.489 47.5742C295.179 47.5742 294.267 47.9771 293.754 48.7827C293.25 49.5884 292.998 50.7562 292.998 52.2861V59H290.129V45.4868H292.363L292.766 47.3179H292.924C293.217 46.8459 293.579 46.4593 294.011 46.1582C294.45 45.849 294.938 45.617 295.476 45.4624C296.021 45.3078 296.586 45.2305 297.172 45.2305ZM311.052 56.9248C311.426 56.9248 311.796 56.8923 312.163 56.8271C312.529 56.7539 312.862 56.6685 313.164 56.5708V58.7437C312.846 58.882 312.435 59 311.931 59.0977C311.426 59.1953 310.901 59.2441 310.356 59.2441C309.591 59.2441 308.903 59.118 308.293 58.8657C307.683 58.6053 307.198 58.1618 306.84 57.5352C306.482 56.9085 306.303 56.0418 306.303 54.9351V47.6719H304.46V46.3901L306.438 45.377L307.377 42.4839H309.184V45.4868H313.054V47.6719H309.184V54.8984C309.184 55.582 309.355 56.0907 309.697 56.4243C310.039 56.758 310.49 56.9248 311.052 56.9248ZM321.293 45.2305C322.498 45.2305 323.531 45.4787 324.394 45.9751C325.257 46.4715 325.92 47.1755 326.384 48.0869C326.848 48.9984 327.08 50.0889 327.08 51.3584V52.8965H318.059C318.091 54.2067 318.441 55.2158 319.108 55.9238C319.784 56.6318 320.728 56.9858 321.94 56.9858C322.803 56.9858 323.576 56.9045 324.26 56.7417C324.951 56.5708 325.664 56.3226 326.396 55.9971V58.3286C325.721 58.646 325.033 58.8779 324.333 59.0244C323.633 59.1709 322.795 59.2441 321.818 59.2441C320.492 59.2441 319.324 58.9878 318.315 58.4751C317.314 57.9543 316.529 57.1812 315.959 56.1558C315.397 55.1304 315.117 53.8568 315.117 52.335C315.117 50.8213 315.373 49.5355 315.886 48.4775C316.398 47.4196 317.119 46.6139 318.046 46.0605C318.974 45.5072 320.056 45.2305 321.293 45.2305ZM321.293 47.3911C320.39 47.3911 319.658 47.6841 319.096 48.27C318.543 48.856 318.217 49.7145 318.12 50.8457H324.272C324.264 50.1702 324.15 49.5721 323.93 49.0513C323.719 48.5304 323.393 48.1235 322.954 47.8306C322.522 47.5376 321.969 47.3911 321.293 47.3911ZM339.396 55.1426C339.396 56.0296 339.181 56.7783 338.75 57.3887C338.318 57.999 337.688 58.4629 336.857 58.7803C336.035 59.0895 335.026 59.2441 333.83 59.2441C332.886 59.2441 332.072 59.175 331.389 59.0366C330.713 58.9064 330.074 58.703 329.472 58.4263V55.9482C330.115 56.2493 330.835 56.5098 331.633 56.7295C332.438 56.9492 333.199 57.0591 333.916 57.0591C334.86 57.0591 335.539 56.9126 335.954 56.6196C336.369 56.3185 336.577 55.9198 336.577 55.4233C336.577 55.1304 336.491 54.87 336.32 54.6421C336.158 54.4061 335.848 54.166 335.393 53.9219C334.945 53.6696 334.286 53.3685 333.415 53.0186C332.561 52.6768 331.84 52.335 331.254 51.9932C330.668 51.6514 330.225 51.2404 329.924 50.7603C329.623 50.272 329.472 49.6494 329.472 48.8926C329.472 47.6963 329.944 46.7889 330.888 46.1704C331.84 45.5438 333.098 45.2305 334.66 45.2305C335.49 45.2305 336.271 45.3159 337.004 45.4868C337.744 45.6496 338.469 45.8896 339.177 46.207L338.273 48.3677C337.663 48.0991 337.049 47.8794 336.43 47.7085C335.82 47.5295 335.197 47.4399 334.562 47.4399C333.822 47.4399 333.256 47.5539 332.866 47.7817C332.483 48.0096 332.292 48.3351 332.292 48.7583C332.292 49.0757 332.386 49.3442 332.573 49.564C332.76 49.7837 333.081 50.0034 333.537 50.2231C334.001 50.4429 334.644 50.7155 335.466 51.041C336.271 51.3503 336.967 51.6758 337.553 52.0176C338.147 52.3512 338.603 52.7622 338.92 53.2505C339.238 53.7388 339.396 54.3695 339.396 55.1426ZM345.366 45.4868V59H342.497V45.4868H345.366ZM343.95 40.311C344.389 40.311 344.768 40.429 345.085 40.665C345.41 40.901 345.573 41.3079 345.573 41.8857C345.573 42.4554 345.41 42.8623 345.085 43.1064C344.768 43.3424 344.389 43.4604 343.95 43.4604C343.494 43.4604 343.107 43.3424 342.79 43.1064C342.481 42.8623 342.326 42.4554 342.326 41.8857C342.326 41.3079 342.481 40.901 342.79 40.665C343.107 40.429 343.494 40.311 343.95 40.311ZM358.562 55.1426C358.562 56.0296 358.346 56.7783 357.915 57.3887C357.483 57.999 356.853 58.4629 356.022 58.7803C355.201 59.0895 354.191 59.2441 352.995 59.2441C352.051 59.2441 351.237 59.175 350.554 59.0366C349.878 58.9064 349.239 58.703 348.637 58.4263V55.9482C349.28 56.2493 350 56.5098 350.798 56.7295C351.604 56.9492 352.364 57.0591 353.081 57.0591C354.025 57.0591 354.704 56.9126 355.119 56.6196C355.534 56.3185 355.742 55.9198 355.742 55.4233C355.742 55.1304 355.656 54.87 355.485 54.6421C355.323 54.4061 355.013 54.166 354.558 53.9219C354.11 53.6696 353.451 53.3685 352.58 53.0186C351.726 52.6768 351.005 52.335 350.419 51.9932C349.833 51.6514 349.39 51.2404 349.089 50.7603C348.788 50.272 348.637 49.6494 348.637 48.8926C348.637 47.6963 349.109 46.7889 350.053 46.1704C351.005 45.5438 352.263 45.2305 353.825 45.2305C354.655 45.2305 355.437 45.3159 356.169 45.4868C356.91 45.6496 357.634 45.8896 358.342 46.207L357.438 48.3677C356.828 48.0991 356.214 47.8794 355.595 47.7085C354.985 47.5295 354.362 47.4399 353.728 47.4399C352.987 47.4399 352.421 47.5539 352.031 47.7817C351.648 48.0096 351.457 48.3351 351.457 48.7583C351.457 49.0757 351.551 49.3442 351.738 49.564C351.925 49.7837 352.246 50.0034 352.702 50.2231C353.166 50.4429 353.809 50.7155 354.631 51.041C355.437 51.3503 356.132 51.6758 356.718 52.0176C357.312 52.3512 357.768 52.7622 358.085 53.2505C358.403 53.7388 358.562 54.3695 358.562 55.1426Z" fill="black"/>
<path d="M196.532 101.153C198.835 101.153 200.515 101.625 201.573 102.569C202.631 103.513 203.16 104.836 203.16 106.537C203.16 107.31 203.038 108.046 202.794 108.746C202.558 109.438 202.167 110.052 201.622 110.589C201.077 111.118 200.357 111.537 199.461 111.847C198.574 112.156 197.48 112.311 196.178 112.311H194.273V119H191.344V101.153H196.532ZM196.336 103.583H194.273V109.869H195.873C196.792 109.869 197.573 109.763 198.216 109.552C198.859 109.332 199.347 108.986 199.681 108.514C200.015 108.042 200.182 107.42 200.182 106.646C200.182 105.613 199.868 104.844 199.242 104.339C198.623 103.835 197.655 103.583 196.336 103.583ZM218.395 112.213C218.395 113.336 218.248 114.333 217.955 115.204C217.662 116.074 217.235 116.811 216.673 117.413C216.112 118.007 215.436 118.463 214.647 118.78C213.858 119.09 212.966 119.244 211.974 119.244C211.046 119.244 210.195 119.09 209.422 118.78C208.649 118.463 207.978 118.007 207.408 117.413C206.847 116.811 206.411 116.074 206.102 115.204C205.793 114.333 205.638 113.336 205.638 112.213C205.638 110.724 205.895 109.462 206.407 108.429C206.928 107.387 207.669 106.594 208.629 106.048C209.589 105.503 210.733 105.23 212.059 105.23C213.304 105.23 214.403 105.503 215.355 106.048C216.307 106.594 217.052 107.387 217.589 108.429C218.126 109.47 218.395 110.732 218.395 112.213ZM208.592 112.213C208.592 113.198 208.71 114.04 208.946 114.74C209.19 115.44 209.565 115.977 210.069 116.351C210.574 116.717 211.225 116.9 212.022 116.9C212.82 116.9 213.471 116.717 213.976 116.351C214.48 115.977 214.85 115.44 215.086 114.74C215.322 114.04 215.44 113.198 215.44 112.213C215.44 111.228 215.322 110.394 215.086 109.71C214.85 109.019 214.48 108.494 213.976 108.136C213.471 107.77 212.816 107.586 212.01 107.586C210.822 107.586 209.955 107.985 209.41 108.783C208.865 109.58 208.592 110.724 208.592 112.213ZM226.72 116.925C227.094 116.925 227.464 116.892 227.831 116.827C228.197 116.754 228.53 116.668 228.832 116.571V118.744C228.514 118.882 228.103 119 227.599 119.098C227.094 119.195 226.569 119.244 226.024 119.244C225.259 119.244 224.571 119.118 223.961 118.866C223.351 118.605 222.866 118.162 222.508 117.535C222.15 116.909 221.971 116.042 221.971 114.935V107.672H220.128V106.39L222.105 105.377L223.045 102.484H224.852V105.487H228.722V107.672H224.852V114.898C224.852 115.582 225.023 116.091 225.365 116.424C225.707 116.758 226.158 116.925 226.72 116.925ZM236.961 105.23C238.166 105.23 239.199 105.479 240.062 105.975C240.925 106.472 241.588 107.175 242.052 108.087C242.516 108.998 242.748 110.089 242.748 111.358V112.896H233.727C233.759 114.207 234.109 115.216 234.776 115.924C235.452 116.632 236.396 116.986 237.608 116.986C238.471 116.986 239.244 116.904 239.928 116.742C240.619 116.571 241.332 116.323 242.064 115.997V118.329C241.389 118.646 240.701 118.878 240.001 119.024C239.301 119.171 238.463 119.244 237.486 119.244C236.16 119.244 234.992 118.988 233.983 118.475C232.982 117.954 232.197 117.181 231.627 116.156C231.065 115.13 230.785 113.857 230.785 112.335C230.785 110.821 231.041 109.535 231.554 108.478C232.066 107.42 232.787 106.614 233.714 106.061C234.642 105.507 235.724 105.23 236.961 105.23ZM236.961 107.391C236.058 107.391 235.326 107.684 234.764 108.27C234.211 108.856 233.885 109.715 233.788 110.846H239.94C239.932 110.17 239.818 109.572 239.598 109.051C239.387 108.53 239.061 108.124 238.622 107.831C238.19 107.538 237.637 107.391 236.961 107.391ZM253.026 105.23C254.548 105.23 255.732 105.625 256.578 106.415C257.433 107.196 257.86 108.453 257.86 110.187V119H254.991V110.724C254.991 109.674 254.776 108.889 254.344 108.368C253.913 107.839 253.246 107.574 252.342 107.574C251.032 107.574 250.121 107.977 249.608 108.783C249.103 109.588 248.851 110.756 248.851 112.286V119H245.982V105.487H248.216L248.619 107.318H248.778C249.071 106.846 249.433 106.459 249.864 106.158C250.304 105.849 250.792 105.617 251.329 105.462C251.874 105.308 252.44 105.23 253.026 105.23ZM267.32 119.244C266.043 119.244 264.936 118.996 264 118.5C263.064 118.003 262.344 117.242 261.839 116.217C261.335 115.191 261.083 113.889 261.083 112.311C261.083 110.667 261.359 109.324 261.913 108.282C262.466 107.241 263.231 106.472 264.208 105.975C265.192 105.479 266.319 105.23 267.589 105.23C268.395 105.23 269.123 105.312 269.774 105.475C270.433 105.629 270.991 105.82 271.446 106.048L270.592 108.343C270.095 108.14 269.587 107.969 269.066 107.831C268.545 107.692 268.045 107.623 267.564 107.623C266.775 107.623 266.116 107.798 265.587 108.148C265.066 108.498 264.675 109.019 264.415 109.71C264.163 110.402 264.037 111.261 264.037 112.286C264.037 113.279 264.167 114.117 264.427 114.801C264.688 115.476 265.074 115.989 265.587 116.339C266.1 116.681 266.73 116.852 267.479 116.852C268.22 116.852 268.883 116.762 269.469 116.583C270.055 116.404 270.608 116.172 271.129 115.887V118.377C270.616 118.67 270.067 118.886 269.481 119.024C268.895 119.171 268.175 119.244 267.32 119.244ZM277.171 105.487V119H274.303V105.487H277.171ZM275.755 100.311C276.195 100.311 276.573 100.429 276.891 100.665C277.216 100.901 277.379 101.308 277.379 101.886C277.379 102.455 277.216 102.862 276.891 103.106C276.573 103.342 276.195 103.46 275.755 103.46C275.3 103.46 274.913 103.342 274.596 103.106C274.286 102.862 274.132 102.455 274.132 101.886C274.132 101.308 274.286 100.901 274.596 100.665C274.913 100.429 275.3 100.311 275.755 100.311ZM286.583 105.23C288.292 105.23 289.582 105.609 290.453 106.366C291.332 107.123 291.771 108.303 291.771 109.906V119H289.732L289.183 117.083H289.085C288.703 117.572 288.308 117.975 287.901 118.292C287.494 118.609 287.022 118.845 286.485 119C285.956 119.163 285.309 119.244 284.544 119.244C283.739 119.244 283.019 119.098 282.384 118.805C281.749 118.504 281.249 118.048 280.882 117.438C280.516 116.827 280.333 116.054 280.333 115.118C280.333 113.727 280.85 112.681 281.883 111.981C282.925 111.281 284.496 110.895 286.595 110.821L288.939 110.736V110.028C288.939 109.092 288.719 108.425 288.28 108.026C287.848 107.627 287.238 107.428 286.449 107.428C285.773 107.428 285.118 107.525 284.483 107.721C283.849 107.916 283.23 108.156 282.628 108.441L281.7 106.415C282.359 106.065 283.108 105.78 283.946 105.56C284.793 105.34 285.672 105.23 286.583 105.23ZM288.927 112.542L287.181 112.604C285.749 112.652 284.744 112.896 284.166 113.336C283.588 113.775 283.299 114.378 283.299 115.143C283.299 115.81 283.499 116.298 283.897 116.607C284.296 116.909 284.821 117.059 285.472 117.059C286.465 117.059 287.287 116.778 287.938 116.217C288.597 115.647 288.927 114.813 288.927 113.714V112.542ZM304.869 115.143C304.869 116.03 304.653 116.778 304.222 117.389C303.791 117.999 303.16 118.463 302.33 118.78C301.508 119.09 300.499 119.244 299.303 119.244C298.359 119.244 297.545 119.175 296.861 119.037C296.186 118.906 295.547 118.703 294.945 118.426V115.948C295.588 116.249 296.308 116.51 297.105 116.729C297.911 116.949 298.672 117.059 299.388 117.059C300.332 117.059 301.012 116.913 301.427 116.62C301.842 116.319 302.049 115.92 302.049 115.423C302.049 115.13 301.964 114.87 301.793 114.642C301.63 114.406 301.321 114.166 300.865 113.922C300.418 113.67 299.758 113.368 298.888 113.019C298.033 112.677 297.313 112.335 296.727 111.993C296.141 111.651 295.698 111.24 295.396 110.76C295.095 110.272 294.945 109.649 294.945 108.893C294.945 107.696 295.417 106.789 296.361 106.17C297.313 105.544 298.57 105.23 300.133 105.23C300.963 105.23 301.744 105.316 302.477 105.487C303.217 105.65 303.941 105.89 304.649 106.207L303.746 108.368C303.136 108.099 302.521 107.879 301.903 107.708C301.292 107.529 300.67 107.44 300.035 107.44C299.295 107.44 298.729 107.554 298.338 107.782C297.956 108.01 297.765 108.335 297.765 108.758C297.765 109.076 297.858 109.344 298.045 109.564C298.233 109.784 298.554 110.003 299.01 110.223C299.474 110.443 300.117 110.715 300.938 111.041C301.744 111.35 302.44 111.676 303.026 112.018C303.62 112.351 304.076 112.762 304.393 113.25C304.71 113.739 304.869 114.369 304.869 115.143ZM312.425 105.487H315.55L318.321 113.202C318.443 113.552 318.553 113.897 318.651 114.239C318.757 114.573 318.846 114.903 318.919 115.228C319.001 115.554 319.066 115.879 319.115 116.205H319.188C319.269 115.781 319.383 115.309 319.53 114.789C319.684 114.26 319.855 113.731 320.042 113.202L322.704 105.487H325.792L319.994 120.855C319.66 121.734 319.249 122.483 318.761 123.102C318.281 123.728 317.711 124.2 317.052 124.518C316.393 124.843 315.64 125.006 314.793 125.006C314.387 125.006 314.033 124.981 313.731 124.933C313.43 124.892 313.174 124.847 312.962 124.798V122.503C313.133 122.544 313.349 122.581 313.609 122.613C313.87 122.646 314.138 122.662 314.415 122.662C314.928 122.662 315.371 122.56 315.746 122.357C316.12 122.153 316.437 121.865 316.698 121.49C316.958 121.124 317.174 120.705 317.345 120.233L317.821 118.963L312.425 105.487ZM341.185 105.23C341.413 105.23 341.661 105.243 341.93 105.267C342.198 105.292 342.43 105.324 342.625 105.365L342.357 108.05C342.186 108.001 341.974 107.965 341.722 107.94C341.478 107.916 341.258 107.904 341.063 107.904C340.55 107.904 340.062 107.989 339.598 108.16C339.134 108.323 338.723 108.575 338.365 108.917C338.007 109.251 337.726 109.67 337.523 110.174C337.319 110.679 337.218 111.265 337.218 111.932V119H334.337V105.487H336.583L336.974 107.867H337.108C337.376 107.387 337.71 106.948 338.109 106.549C338.508 106.15 338.963 105.833 339.476 105.597C339.997 105.353 340.567 105.23 341.185 105.23ZM350.426 105.23C352.135 105.23 353.425 105.609 354.295 106.366C355.174 107.123 355.614 108.303 355.614 109.906V119H353.575L353.026 117.083H352.928C352.546 117.572 352.151 117.975 351.744 118.292C351.337 118.609 350.865 118.845 350.328 119C349.799 119.163 349.152 119.244 348.387 119.244C347.582 119.244 346.861 119.098 346.227 118.805C345.592 118.504 345.091 118.048 344.725 117.438C344.359 116.827 344.176 116.054 344.176 115.118C344.176 113.727 344.693 112.681 345.726 111.981C346.768 111.281 348.338 110.895 350.438 110.821L352.782 110.736V110.028C352.782 109.092 352.562 108.425 352.123 108.026C351.691 107.627 351.081 107.428 350.292 107.428C349.616 107.428 348.961 107.525 348.326 107.721C347.691 107.916 347.073 108.156 346.471 108.441L345.543 106.415C346.202 106.065 346.951 105.78 347.789 105.56C348.635 105.34 349.514 105.23 350.426 105.23ZM352.77 112.542L351.024 112.604C349.592 112.652 348.587 112.896 348.009 113.336C347.431 113.775 347.142 114.378 347.142 115.143C347.142 115.81 347.341 116.298 347.74 116.607C348.139 116.909 348.664 117.059 349.315 117.059C350.308 117.059 351.13 116.778 351.781 116.217C352.44 115.647 352.77 114.813 352.77 113.714V112.542ZM362.499 119H359.63V105.487H362.499V119ZM365.233 99.8472V100.091C365.038 100.327 364.773 100.612 364.439 100.946C364.106 101.271 363.744 101.617 363.353 101.983C362.962 102.341 362.576 102.687 362.193 103.021C361.811 103.347 361.465 103.623 361.156 103.851H359.239V103.534C359.508 103.224 359.805 102.854 360.13 102.423C360.464 101.992 360.79 101.548 361.107 101.092C361.432 100.637 361.705 100.222 361.925 99.8472H365.233ZM372.057 119.244C370.779 119.244 369.672 118.996 368.736 118.5C367.8 118.003 367.08 117.242 366.576 116.217C366.071 115.191 365.819 113.889 365.819 112.311C365.819 110.667 366.096 109.324 366.649 108.282C367.202 107.241 367.967 106.472 368.944 105.975C369.929 105.479 371.056 105.23 372.325 105.23C373.131 105.23 373.859 105.312 374.51 105.475C375.169 105.629 375.727 105.82 376.183 106.048L375.328 108.343C374.832 108.14 374.323 107.969 373.802 107.831C373.281 107.692 372.781 107.623 372.301 107.623C371.511 107.623 370.852 107.798 370.323 108.148C369.802 108.498 369.412 109.019 369.151 109.71C368.899 110.402 368.773 111.261 368.773 112.286C368.773 113.279 368.903 114.117 369.164 114.801C369.424 115.476 369.811 115.989 370.323 116.339C370.836 116.681 371.467 116.852 372.215 116.852C372.956 116.852 373.619 116.762 374.205 116.583C374.791 116.404 375.344 116.172 375.865 115.887V118.377C375.353 118.67 374.803 118.886 374.217 119.024C373.631 119.171 372.911 119.244 372.057 119.244ZM384.422 105.23C385.627 105.23 386.66 105.479 387.523 105.975C388.386 106.472 389.049 107.175 389.513 108.087C389.977 108.998 390.208 110.089 390.208 111.358V112.896H381.188C381.22 114.207 381.57 115.216 382.237 115.924C382.913 116.632 383.857 116.986 385.069 116.986C385.932 116.986 386.705 116.904 387.389 116.742C388.08 116.571 388.792 116.323 389.525 115.997V118.329C388.849 118.646 388.162 118.878 387.462 119.024C386.762 119.171 385.924 119.244 384.947 119.244C383.621 119.244 382.453 118.988 381.444 118.475C380.443 117.954 379.658 117.181 379.088 116.156C378.526 115.13 378.246 113.857 378.246 112.335C378.246 110.821 378.502 109.535 379.015 108.478C379.527 107.42 380.248 106.614 381.175 106.061C382.103 105.507 383.185 105.23 384.422 105.23ZM384.422 107.391C383.519 107.391 382.787 107.684 382.225 108.27C381.672 108.856 381.346 109.715 381.249 110.846H387.401C387.393 110.17 387.279 109.572 387.059 109.051C386.847 108.53 386.522 108.124 386.083 107.831C385.651 107.538 385.098 107.391 384.422 107.391ZM402.525 115.143C402.525 116.03 402.31 116.778 401.878 117.389C401.447 117.999 400.816 118.463 399.986 118.78C399.164 119.09 398.155 119.244 396.959 119.244C396.015 119.244 395.201 119.175 394.518 119.037C393.842 118.906 393.203 118.703 392.601 118.426V115.948C393.244 116.249 393.964 116.51 394.762 116.729C395.567 116.949 396.328 117.059 397.044 117.059C397.988 117.059 398.668 116.913 399.083 116.62C399.498 116.319 399.706 115.92 399.706 115.423C399.706 115.13 399.62 114.87 399.449 114.642C399.286 114.406 398.977 114.166 398.521 113.922C398.074 113.67 397.415 113.368 396.544 113.019C395.689 112.677 394.969 112.335 394.383 111.993C393.797 111.651 393.354 111.24 393.053 110.76C392.752 110.272 392.601 109.649 392.601 108.893C392.601 107.696 393.073 106.789 394.017 106.17C394.969 105.544 396.227 105.23 397.789 105.23C398.619 105.23 399.4 105.316 400.133 105.487C400.873 105.65 401.598 105.89 402.306 106.207L401.402 108.368C400.792 108.099 400.178 107.879 399.559 107.708C398.949 107.529 398.326 107.44 397.691 107.44C396.951 107.44 396.385 107.554 395.995 107.782C395.612 108.01 395.421 108.335 395.421 108.758C395.421 109.076 395.514 109.344 395.702 109.564C395.889 109.784 396.21 110.003 396.666 110.223C397.13 110.443 397.773 110.715 398.595 111.041C399.4 111.35 400.096 111.676 400.682 112.018C401.276 112.351 401.732 112.762 402.049 113.25C402.367 113.739 402.525 114.369 402.525 115.143Z" fill="black"/>
<path d="M135.046 178L129.907 163.095H129.797C129.822 163.429 129.85 163.885 129.883 164.462C129.915 165.04 129.944 165.659 129.968 166.318C129.993 166.977 130.005 167.608 130.005 168.21V178H127.344V160.153H131.458L136.401 174.399H136.475L141.589 160.153H145.691V178H142.896V168.063C142.896 167.518 142.904 166.928 142.92 166.293C142.944 165.659 142.969 165.056 142.993 164.487C143.026 163.917 143.05 163.461 143.066 163.12H142.969L137.634 178H135.046ZM161.877 164.487V178H159.619L159.229 176.181H159.07C158.785 176.645 158.423 177.032 157.983 177.341C157.544 177.642 157.056 177.866 156.519 178.012C155.981 178.167 155.416 178.244 154.822 178.244C153.805 178.244 152.934 178.073 152.209 177.731C151.493 177.382 150.944 176.844 150.562 176.12C150.179 175.396 149.988 174.46 149.988 173.312V164.487H152.869V172.775C152.869 173.825 153.08 174.611 153.503 175.131C153.935 175.652 154.602 175.913 155.505 175.913C156.376 175.913 157.068 175.734 157.581 175.375C158.093 175.017 158.455 174.488 158.667 173.789C158.887 173.089 158.997 172.23 158.997 171.213V164.487H161.877ZM168.872 178H165.991V159.006H168.872V178ZM178.003 175.925C178.377 175.925 178.748 175.892 179.114 175.827C179.48 175.754 179.814 175.668 180.115 175.571V177.744C179.797 177.882 179.386 178 178.882 178.098C178.377 178.195 177.852 178.244 177.307 178.244C176.542 178.244 175.854 178.118 175.244 177.866C174.634 177.605 174.15 177.162 173.792 176.535C173.433 175.909 173.254 175.042 173.254 173.935V166.672H171.411V165.39L173.389 164.377L174.329 161.484H176.135V164.487H180.005V166.672H176.135V173.898C176.135 174.582 176.306 175.091 176.648 175.424C176.99 175.758 177.441 175.925 178.003 175.925ZM185.73 164.487V178H182.861V164.487H185.73ZM184.314 159.311C184.753 159.311 185.132 159.429 185.449 159.665C185.775 159.901 185.938 160.308 185.938 160.886C185.938 161.455 185.775 161.862 185.449 162.106C185.132 162.342 184.753 162.46 184.314 162.46C183.858 162.46 183.472 162.342 183.154 162.106C182.845 161.862 182.69 161.455 182.69 160.886C182.69 160.308 182.845 159.901 183.154 159.665C183.472 159.429 183.858 159.311 184.314 159.311ZM196.777 164.23C198.381 164.23 199.666 164.816 200.635 165.988C201.611 167.16 202.1 168.902 202.1 171.213C202.1 172.743 201.872 174.033 201.416 175.083C200.968 176.124 200.338 176.914 199.524 177.451C198.718 177.98 197.778 178.244 196.704 178.244C196.021 178.244 195.426 178.155 194.922 177.976C194.417 177.797 193.986 177.565 193.628 177.28C193.27 176.987 192.969 176.669 192.725 176.328H192.554C192.594 176.653 192.631 177.015 192.664 177.414C192.704 177.805 192.725 178.163 192.725 178.488V183.994H189.844V164.487H192.188L192.59 166.354H192.725C192.977 165.972 193.282 165.618 193.64 165.292C194.006 164.967 194.446 164.711 194.958 164.523C195.479 164.328 196.086 164.23 196.777 164.23ZM196.008 166.574C195.219 166.574 194.584 166.733 194.104 167.05C193.632 167.36 193.286 167.827 193.066 168.454C192.855 169.081 192.741 169.866 192.725 170.81V171.213C192.725 172.214 192.826 173.064 193.03 173.764C193.241 174.456 193.587 174.985 194.067 175.351C194.556 175.709 195.215 175.888 196.045 175.888C196.745 175.888 197.323 175.697 197.778 175.314C198.242 174.932 198.588 174.387 198.816 173.679C199.044 172.971 199.158 172.137 199.158 171.176C199.158 169.72 198.897 168.588 198.376 167.783C197.864 166.977 197.074 166.574 196.008 166.574ZM208.301 178H205.42V159.006H208.301V178ZM215.271 164.487V178H212.402V164.487H215.271ZM213.855 159.311C214.294 159.311 214.673 159.429 214.99 159.665C215.316 159.901 215.479 160.308 215.479 160.886C215.479 161.455 215.316 161.862 214.99 162.106C214.673 162.342 214.294 162.46 213.855 162.46C213.399 162.46 213.013 162.342 212.695 162.106C212.386 161.862 212.231 161.455 212.231 160.886C212.231 160.308 212.386 159.901 212.695 159.665C213.013 159.429 213.399 159.311 213.855 159.311ZM224.829 178.244C223.551 178.244 222.445 177.996 221.509 177.5C220.573 177.003 219.853 176.242 219.348 175.217C218.844 174.191 218.591 172.889 218.591 171.311C218.591 169.667 218.868 168.324 219.421 167.282C219.975 166.241 220.74 165.472 221.716 164.975C222.701 164.479 223.828 164.23 225.098 164.23C225.903 164.23 226.632 164.312 227.283 164.475C227.942 164.629 228.499 164.82 228.955 165.048L228.101 167.343C227.604 167.14 227.096 166.969 226.575 166.831C226.054 166.692 225.553 166.623 225.073 166.623C224.284 166.623 223.625 166.798 223.096 167.148C222.575 167.498 222.184 168.019 221.924 168.71C221.672 169.402 221.545 170.261 221.545 171.286C221.545 172.279 221.676 173.117 221.936 173.801C222.196 174.476 222.583 174.989 223.096 175.339C223.608 175.681 224.239 175.852 224.988 175.852C225.728 175.852 226.392 175.762 226.978 175.583C227.563 175.404 228.117 175.172 228.638 174.887V177.377C228.125 177.67 227.576 177.886 226.99 178.024C226.404 178.171 225.684 178.244 224.829 178.244ZM237.109 164.23C238.818 164.23 240.108 164.609 240.979 165.366C241.858 166.123 242.297 167.303 242.297 168.906V178H240.259L239.709 176.083H239.612C239.229 176.572 238.835 176.975 238.428 177.292C238.021 177.609 237.549 177.845 237.012 178C236.483 178.163 235.836 178.244 235.071 178.244C234.265 178.244 233.545 178.098 232.91 177.805C232.275 177.504 231.775 177.048 231.409 176.438C231.042 175.827 230.859 175.054 230.859 174.118C230.859 172.727 231.376 171.681 232.41 170.981C233.451 170.281 235.022 169.895 237.122 169.821L239.465 169.736V169.028C239.465 168.092 239.246 167.425 238.806 167.026C238.375 166.627 237.764 166.428 236.975 166.428C236.3 166.428 235.645 166.525 235.01 166.721C234.375 166.916 233.757 167.156 233.154 167.441L232.227 165.415C232.886 165.065 233.634 164.78 234.473 164.56C235.319 164.34 236.198 164.23 237.109 164.23ZM239.453 171.542L237.708 171.604C236.275 171.652 235.27 171.896 234.692 172.336C234.115 172.775 233.826 173.378 233.826 174.143C233.826 174.81 234.025 175.298 234.424 175.607C234.823 175.909 235.347 176.059 235.999 176.059C236.991 176.059 237.813 175.778 238.464 175.217C239.124 174.647 239.453 173.813 239.453 172.714V171.542ZM251.758 178.244C250.48 178.244 249.373 177.996 248.438 177.5C247.502 177.003 246.781 176.242 246.277 175.217C245.772 174.191 245.52 172.889 245.52 171.311C245.52 169.667 245.797 168.324 246.35 167.282C246.903 166.241 247.668 165.472 248.645 164.975C249.63 164.479 250.757 164.23 252.026 164.23C252.832 164.23 253.56 164.312 254.211 164.475C254.871 164.629 255.428 164.82 255.884 165.048L255.029 167.343C254.533 167.14 254.024 166.969 253.503 166.831C252.983 166.692 252.482 166.623 252.002 166.623C251.213 166.623 250.553 166.798 250.024 167.148C249.504 167.498 249.113 168.019 248.853 168.71C248.6 169.402 248.474 170.261 248.474 171.286C248.474 172.279 248.604 173.117 248.865 173.801C249.125 174.476 249.512 174.989 250.024 175.339C250.537 175.681 251.168 175.852 251.917 175.852C252.657 175.852 253.32 175.762 253.906 175.583C254.492 175.404 255.046 175.172 255.566 174.887V177.377C255.054 177.67 254.504 177.886 253.918 178.024C253.333 178.171 252.612 178.244 251.758 178.244ZM261.609 164.487V178H258.74V164.487H261.609ZM260.193 159.311C260.632 159.311 261.011 159.429 261.328 159.665C261.654 159.901 261.816 160.308 261.816 160.886C261.816 161.455 261.654 161.862 261.328 162.106C261.011 162.342 260.632 162.46 260.193 162.46C259.737 162.46 259.351 162.342 259.033 162.106C258.724 161.862 258.569 161.455 258.569 160.886C258.569 160.308 258.724 159.901 259.033 159.665C259.351 159.429 259.737 159.311 260.193 159.311ZM277.686 171.213C277.686 172.336 277.539 173.333 277.246 174.204C276.953 175.074 276.526 175.811 275.964 176.413C275.403 177.007 274.727 177.463 273.938 177.78C273.149 178.09 272.257 178.244 271.265 178.244C270.337 178.244 269.486 178.09 268.713 177.78C267.94 177.463 267.269 177.007 266.699 176.413C266.138 175.811 265.702 175.074 265.393 174.204C265.084 173.333 264.929 172.336 264.929 171.213C264.929 169.724 265.186 168.462 265.698 167.429C266.219 166.387 266.96 165.594 267.92 165.048C268.88 164.503 270.024 164.23 271.35 164.23C272.595 164.23 273.694 164.503 274.646 165.048C275.598 165.594 276.343 166.387 276.88 167.429C277.417 168.47 277.686 169.732 277.686 171.213ZM267.883 171.213C267.883 172.198 268.001 173.04 268.237 173.74C268.481 174.44 268.856 174.977 269.36 175.351C269.865 175.717 270.516 175.9 271.313 175.9C272.111 175.9 272.762 175.717 273.267 175.351C273.771 174.977 274.141 174.44 274.377 173.74C274.613 173.04 274.731 172.198 274.731 171.213C274.731 170.228 274.613 169.394 274.377 168.71C274.141 168.019 273.771 167.494 273.267 167.136C272.762 166.77 272.107 166.586 271.301 166.586C270.113 166.586 269.246 166.985 268.701 167.783C268.156 168.58 267.883 169.724 267.883 171.213ZM288.025 164.23C289.547 164.23 290.731 164.625 291.577 165.415C292.432 166.196 292.859 167.453 292.859 169.187V178H289.99V169.724C289.99 168.674 289.775 167.889 289.343 167.368C288.912 166.839 288.245 166.574 287.341 166.574C286.031 166.574 285.12 166.977 284.607 167.783C284.102 168.588 283.85 169.756 283.85 171.286V178H280.981V164.487H283.215L283.618 166.318H283.777C284.07 165.846 284.432 165.459 284.863 165.158C285.303 164.849 285.791 164.617 286.328 164.462C286.873 164.308 287.439 164.23 288.025 164.23ZM302.258 164.23C303.463 164.23 304.496 164.479 305.359 164.975C306.222 165.472 306.885 166.175 307.349 167.087C307.812 167.998 308.044 169.089 308.044 170.358V171.896H299.023C299.056 173.207 299.406 174.216 300.073 174.924C300.749 175.632 301.693 175.986 302.905 175.986C303.768 175.986 304.541 175.904 305.225 175.742C305.916 175.571 306.628 175.323 307.361 174.997V177.329C306.685 177.646 305.998 177.878 305.298 178.024C304.598 178.171 303.76 178.244 302.783 178.244C301.457 178.244 300.289 177.988 299.28 177.475C298.279 176.954 297.493 176.181 296.924 175.156C296.362 174.13 296.082 172.857 296.082 171.335C296.082 169.821 296.338 168.535 296.851 167.478C297.363 166.42 298.083 165.614 299.011 165.061C299.939 164.507 301.021 164.23 302.258 164.23ZM302.258 166.391C301.355 166.391 300.623 166.684 300.061 167.27C299.508 167.856 299.182 168.715 299.084 169.846H305.237C305.229 169.17 305.115 168.572 304.895 168.051C304.683 167.53 304.358 167.124 303.918 166.831C303.487 166.538 302.934 166.391 302.258 166.391ZM320.361 174.143C320.361 175.03 320.146 175.778 319.714 176.389C319.283 176.999 318.652 177.463 317.822 177.78C317 178.09 315.991 178.244 314.795 178.244C313.851 178.244 313.037 178.175 312.354 178.037C311.678 177.906 311.039 177.703 310.437 177.426V174.948C311.08 175.249 311.8 175.51 312.598 175.729C313.403 175.949 314.164 176.059 314.88 176.059C315.824 176.059 316.504 175.913 316.919 175.62C317.334 175.319 317.542 174.92 317.542 174.423C317.542 174.13 317.456 173.87 317.285 173.642C317.122 173.406 316.813 173.166 316.357 172.922C315.91 172.67 315.251 172.368 314.38 172.019C313.525 171.677 312.805 171.335 312.219 170.993C311.633 170.651 311.19 170.24 310.889 169.76C310.588 169.272 310.437 168.649 310.437 167.893C310.437 166.696 310.909 165.789 311.853 165.17C312.805 164.544 314.062 164.23 315.625 164.23C316.455 164.23 317.236 164.316 317.969 164.487C318.709 164.65 319.434 164.89 320.142 165.207L319.238 167.368C318.628 167.099 318.014 166.879 317.395 166.708C316.785 166.529 316.162 166.44 315.527 166.44C314.787 166.44 314.221 166.554 313.831 166.782C313.448 167.01 313.257 167.335 313.257 167.758C313.257 168.076 313.35 168.344 313.538 168.564C313.725 168.784 314.046 169.003 314.502 169.223C314.966 169.443 315.609 169.715 316.431 170.041C317.236 170.35 317.932 170.676 318.518 171.018C319.112 171.351 319.568 171.762 319.885 172.25C320.203 172.739 320.361 173.369 320.361 174.143ZM327.917 164.487H331.042L333.813 172.202C333.936 172.552 334.045 172.897 334.143 173.239C334.249 173.573 334.338 173.903 334.412 174.228C334.493 174.554 334.558 174.879 334.607 175.205H334.68C334.762 174.781 334.875 174.309 335.022 173.789C335.177 173.26 335.347 172.731 335.535 172.202L338.196 164.487H341.284L335.486 179.855C335.152 180.734 334.741 181.483 334.253 182.102C333.773 182.728 333.203 183.2 332.544 183.518C331.885 183.843 331.132 184.006 330.286 184.006C329.879 184.006 329.525 183.981 329.224 183.933C328.923 183.892 328.666 183.847 328.455 183.798V181.503C328.625 181.544 328.841 181.581 329.102 181.613C329.362 181.646 329.631 181.662 329.907 181.662C330.42 181.662 330.863 181.56 331.238 181.357C331.612 181.153 331.93 180.865 332.19 180.49C332.45 180.124 332.666 179.705 332.837 179.233L333.313 177.963L327.917 164.487ZM354.37 178.244C352.759 178.244 351.465 177.658 350.488 176.486C349.52 175.306 349.036 173.569 349.036 171.274C349.036 168.955 349.528 167.201 350.513 166.013C351.506 164.825 352.812 164.23 354.431 164.23C355.115 164.23 355.713 164.324 356.226 164.511C356.738 164.69 357.178 164.934 357.544 165.244C357.918 165.553 358.236 165.899 358.496 166.281H358.63C358.59 166.029 358.541 165.667 358.484 165.195C358.435 164.715 358.411 164.271 358.411 163.864V159.006H361.292V178H359.045L358.533 176.157H358.411C358.167 176.547 357.857 176.901 357.483 177.219C357.117 177.528 356.677 177.776 356.165 177.963C355.66 178.151 355.062 178.244 354.37 178.244ZM355.176 175.913C356.405 175.913 357.271 175.559 357.776 174.851C358.28 174.143 358.541 173.081 358.557 171.665V171.286C358.557 169.772 358.313 168.613 357.825 167.807C357.336 166.993 356.445 166.586 355.151 166.586C354.118 166.586 353.328 167.006 352.783 167.844C352.246 168.674 351.978 169.833 351.978 171.323C351.978 172.812 352.246 173.951 352.783 174.741C353.328 175.522 354.126 175.913 355.176 175.913ZM368.274 164.487V178H365.405V164.487H368.274ZM366.858 159.311C367.297 159.311 367.676 159.429 367.993 159.665C368.319 159.901 368.481 160.308 368.481 160.886C368.481 161.455 368.319 161.862 367.993 162.106C367.676 162.342 367.297 162.46 366.858 162.46C366.402 162.46 366.016 162.342 365.698 162.106C365.389 161.862 365.234 161.455 365.234 160.886C365.234 160.308 365.389 159.901 365.698 159.665C366.016 159.429 366.402 159.311 366.858 159.311ZM375.476 178L370.337 164.487H373.376L376.16 172.421C376.339 172.926 376.501 173.471 376.648 174.057C376.794 174.643 376.896 175.135 376.953 175.534H377.051C377.108 175.119 377.218 174.623 377.38 174.045C377.543 173.459 377.71 172.918 377.881 172.421L380.664 164.487H383.691L378.552 178H375.476ZM388.611 164.487V178H385.742V164.487H388.611ZM387.195 159.311C387.634 159.311 388.013 159.429 388.33 159.665C388.656 159.901 388.818 160.308 388.818 160.886C388.818 161.455 388.656 161.862 388.33 162.106C388.013 162.342 387.634 162.46 387.195 162.46C386.739 162.46 386.353 162.342 386.035 162.106C385.726 161.862 385.571 161.455 385.571 160.886C385.571 160.308 385.726 159.901 386.035 159.665C386.353 159.429 386.739 159.311 387.195 159.311ZM401.807 174.143C401.807 175.03 401.591 175.778 401.16 176.389C400.728 176.999 400.098 177.463 399.268 177.78C398.446 178.09 397.437 178.244 396.24 178.244C395.296 178.244 394.482 178.175 393.799 178.037C393.123 177.906 392.485 177.703 391.882 177.426V174.948C392.525 175.249 393.245 175.51 394.043 175.729C394.849 175.949 395.61 176.059 396.326 176.059C397.27 176.059 397.949 175.913 398.364 175.62C398.779 175.319 398.987 174.92 398.987 174.423C398.987 174.13 398.901 173.87 398.73 173.642C398.568 173.406 398.258 173.166 397.803 172.922C397.355 172.67 396.696 172.368 395.825 172.019C394.971 171.677 394.25 171.335 393.665 170.993C393.079 170.651 392.635 170.24 392.334 169.76C392.033 169.272 391.882 168.649 391.882 167.893C391.882 166.696 392.354 165.789 393.298 165.17C394.25 164.544 395.508 164.23 397.07 164.23C397.9 164.23 398.682 164.316 399.414 164.487C400.155 164.65 400.879 164.89 401.587 165.207L400.684 167.368C400.073 167.099 399.459 166.879 398.84 166.708C398.23 166.529 397.607 166.44 396.973 166.44C396.232 166.44 395.667 166.554 395.276 166.782C394.893 167.01 394.702 167.335 394.702 167.758C394.702 168.076 394.796 168.344 394.983 168.564C395.17 168.784 395.492 169.003 395.947 169.223C396.411 169.443 397.054 169.715 397.876 170.041C398.682 170.35 399.377 170.676 399.963 171.018C400.557 171.351 401.013 171.762 401.331 172.25C401.648 172.739 401.807 173.369 401.807 174.143ZM407.776 164.487V178H404.907V164.487H407.776ZM406.36 159.311C406.799 159.311 407.178 159.429 407.495 159.665C407.821 159.901 407.983 160.308 407.983 160.886C407.983 161.455 407.821 161.862 407.495 162.106C407.178 162.342 406.799 162.46 406.36 162.46C405.904 162.46 405.518 162.342 405.2 162.106C404.891 161.862 404.736 161.455 404.736 160.886C404.736 160.308 404.891 159.901 405.2 159.665C405.518 159.429 405.904 159.311 406.36 159.311ZM423.853 171.213C423.853 172.336 423.706 173.333 423.413 174.204C423.12 175.074 422.693 175.811 422.131 176.413C421.57 177.007 420.894 177.463 420.105 177.78C419.316 178.09 418.424 178.244 417.432 178.244C416.504 178.244 415.653 178.09 414.88 177.78C414.107 177.463 413.436 177.007 412.866 176.413C412.305 175.811 411.869 175.074 411.56 174.204C411.251 173.333 411.096 172.336 411.096 171.213C411.096 169.724 411.353 168.462 411.865 167.429C412.386 166.387 413.127 165.594 414.087 165.048C415.047 164.503 416.191 164.23 417.517 164.23C418.762 164.23 419.861 164.503 420.813 165.048C421.765 165.594 422.51 166.387 423.047 167.429C423.584 168.47 423.853 169.732 423.853 171.213ZM414.05 171.213C414.05 172.198 414.168 173.04 414.404 173.74C414.648 174.44 415.023 174.977 415.527 175.351C416.032 175.717 416.683 175.9 417.48 175.9C418.278 175.9 418.929 175.717 419.434 175.351C419.938 174.977 420.308 174.44 420.544 173.74C420.78 173.04 420.898 172.198 420.898 171.213C420.898 170.228 420.78 169.394 420.544 168.71C420.308 168.019 419.938 167.494 419.434 167.136C418.929 166.77 418.274 166.586 417.468 166.586C416.28 166.586 415.413 166.985 414.868 167.783C414.323 168.58 414.05 169.724 414.05 171.213ZM434.192 164.23C435.714 164.23 436.898 164.625 437.744 165.415C438.599 166.196 439.026 167.453 439.026 169.187V178H436.157V169.724C436.157 168.674 435.942 167.889 435.51 167.368C435.079 166.839 434.412 166.574 433.508 166.574C432.198 166.574 431.287 166.977 430.774 167.783C430.269 168.588 430.017 169.756 430.017 171.286V178H427.148V164.487H429.382L429.785 166.318H429.944C430.237 165.846 430.599 165.459 431.03 165.158C431.47 164.849 431.958 164.617 432.495 164.462C433.04 164.308 433.606 164.23 434.192 164.23ZM448.425 164.23C449.63 164.23 450.663 164.479 451.526 164.975C452.389 165.472 453.052 166.175 453.516 167.087C453.979 167.998 454.211 169.089 454.211 170.358V171.896H445.19C445.223 173.207 445.573 174.216 446.24 174.924C446.916 175.632 447.86 175.986 449.072 175.986C449.935 175.986 450.708 175.904 451.392 175.742C452.083 175.571 452.795 175.323 453.528 174.997V177.329C452.852 177.646 452.165 177.878 451.465 178.024C450.765 178.171 449.927 178.244 448.95 178.244C447.624 178.244 446.456 177.988 445.447 177.475C444.446 176.954 443.66 176.181 443.091 175.156C442.529 174.13 442.249 172.857 442.249 171.335C442.249 169.821 442.505 168.535 443.018 167.478C443.53 166.42 444.25 165.614 445.178 165.061C446.106 164.507 447.188 164.23 448.425 164.23ZM448.425 166.391C447.522 166.391 446.79 166.684 446.228 167.27C445.675 167.856 445.349 168.715 445.251 169.846H451.404C451.396 169.17 451.282 168.572 451.062 168.051C450.85 167.53 450.525 167.124 450.085 166.831C449.654 166.538 449.101 166.391 448.425 166.391ZM466.528 174.143C466.528 175.03 466.313 175.778 465.881 176.389C465.45 176.999 464.819 177.463 463.989 177.78C463.167 178.09 462.158 178.244 460.962 178.244C460.018 178.244 459.204 178.175 458.521 178.037C457.845 177.906 457.206 177.703 456.604 177.426V174.948C457.247 175.249 457.967 175.51 458.765 175.729C459.57 175.949 460.331 176.059 461.047 176.059C461.991 176.059 462.671 175.913 463.086 175.62C463.501 175.319 463.708 174.92 463.708 174.423C463.708 174.13 463.623 173.87 463.452 173.642C463.289 173.406 462.98 173.166 462.524 172.922C462.077 172.67 461.418 172.368 460.547 172.019C459.692 171.677 458.972 171.335 458.386 170.993C457.8 170.651 457.357 170.24 457.056 169.76C456.755 169.272 456.604 168.649 456.604 167.893C456.604 166.696 457.076 165.789 458.02 165.17C458.972 164.544 460.229 164.23 461.792 164.23C462.622 164.23 463.403 164.316 464.136 164.487C464.876 164.65 465.601 164.89 466.309 165.207L465.405 167.368C464.795 167.099 464.181 166.879 463.562 166.708C462.952 166.529 462.329 166.44 461.694 166.44C460.954 166.44 460.388 166.554 459.998 166.782C459.615 167.01 459.424 167.335 459.424 167.758C459.424 168.076 459.517 168.344 459.705 168.564C459.892 168.784 460.213 169.003 460.669 169.223C461.133 169.443 461.776 169.715 462.598 170.041C463.403 170.35 464.099 170.676 464.685 171.018C465.279 171.351 465.735 171.762 466.052 172.25C466.37 172.739 466.528 173.369 466.528 174.143Z" fill="black"/>
<path d="M218.646 233.142C218.646 234.2 218.386 235.111 217.865 235.876C217.353 236.641 216.612 237.227 215.644 237.634C214.683 238.041 213.536 238.244 212.201 238.244C211.55 238.244 210.928 238.208 210.333 238.134C209.739 238.061 209.178 237.955 208.649 237.817C208.128 237.67 207.652 237.495 207.221 237.292V234.533C207.945 234.851 208.755 235.139 209.65 235.4C210.545 235.652 211.457 235.778 212.384 235.778C213.141 235.778 213.768 235.681 214.264 235.485C214.769 235.282 215.143 234.997 215.387 234.631C215.631 234.257 215.753 233.821 215.753 233.325C215.753 232.796 215.611 232.348 215.326 231.982C215.041 231.616 214.61 231.282 214.032 230.981C213.463 230.672 212.746 230.342 211.884 229.992C211.298 229.756 210.736 229.488 210.199 229.187C209.67 228.885 209.198 228.531 208.783 228.125C208.368 227.718 208.039 227.237 207.794 226.684C207.558 226.123 207.44 225.463 207.44 224.707C207.44 223.697 207.681 222.835 208.161 222.119C208.649 221.403 209.333 220.853 210.211 220.471C211.098 220.088 212.132 219.897 213.312 219.897C214.248 219.897 215.127 219.995 215.949 220.19C216.779 220.385 217.593 220.662 218.39 221.02L217.462 223.376C216.73 223.075 216.018 222.835 215.326 222.656C214.643 222.477 213.943 222.387 213.227 222.387C212.608 222.387 212.083 222.481 211.652 222.668C211.221 222.855 210.891 223.12 210.663 223.461C210.443 223.795 210.333 224.194 210.333 224.658C210.333 225.179 210.46 225.618 210.712 225.976C210.972 226.326 211.371 226.647 211.908 226.94C212.453 227.233 213.153 227.559 214.008 227.917C214.993 228.324 215.827 228.751 216.51 229.199C217.202 229.646 217.731 230.183 218.097 230.81C218.463 231.429 218.646 232.206 218.646 233.142ZM233.576 224.487V238H231.317L230.927 236.181H230.768C230.483 236.645 230.121 237.032 229.682 237.341C229.242 237.642 228.754 237.866 228.217 238.012C227.68 238.167 227.114 238.244 226.52 238.244C225.503 238.244 224.632 238.073 223.908 237.731C223.192 237.382 222.642 236.844 222.26 236.12C221.877 235.396 221.686 234.46 221.686 233.312V224.487H224.567V232.775C224.567 233.825 224.778 234.611 225.202 235.131C225.633 235.652 226.3 235.913 227.204 235.913C228.074 235.913 228.766 235.734 229.279 235.375C229.792 235.017 230.154 234.488 230.365 233.789C230.585 233.089 230.695 232.23 230.695 231.213V224.487H233.576ZM252.96 224.23C254.474 224.23 255.613 224.621 256.378 225.402C257.152 226.184 257.538 227.437 257.538 229.162V238H254.669V229.675C254.669 228.649 254.47 227.876 254.071 227.355C253.673 226.835 253.066 226.574 252.252 226.574C251.113 226.574 250.291 226.94 249.787 227.673C249.29 228.397 249.042 229.451 249.042 230.834V238H246.173V229.675C246.173 228.991 246.084 228.422 245.905 227.966C245.734 227.502 245.469 227.156 245.111 226.928C244.753 226.692 244.302 226.574 243.756 226.574C242.967 226.574 242.336 226.753 241.864 227.111C241.4 227.469 241.067 227.998 240.863 228.698C240.66 229.39 240.558 230.24 240.558 231.25V238H237.689V224.487H239.923L240.326 226.306H240.485C240.762 225.834 241.103 225.447 241.51 225.146C241.925 224.837 242.385 224.609 242.89 224.462C243.394 224.308 243.919 224.23 244.464 224.23C245.473 224.23 246.324 224.41 247.016 224.768C247.707 225.118 248.224 225.655 248.566 226.379H248.786C249.209 225.646 249.799 225.105 250.556 224.755C251.312 224.405 252.114 224.23 252.96 224.23ZM266.84 224.23C268.549 224.23 269.839 224.609 270.709 225.366C271.588 226.123 272.028 227.303 272.028 228.906V238H269.989L269.44 236.083H269.342C268.96 236.572 268.565 236.975 268.158 237.292C267.751 237.609 267.279 237.845 266.742 238C266.213 238.163 265.566 238.244 264.801 238.244C263.996 238.244 263.275 238.098 262.641 237.805C262.006 237.504 261.505 237.048 261.139 236.438C260.773 235.827 260.59 235.054 260.59 234.118C260.59 232.727 261.107 231.681 262.14 230.981C263.182 230.281 264.752 229.895 266.852 229.821L269.196 229.736V229.028C269.196 228.092 268.976 227.425 268.537 227.026C268.105 226.627 267.495 226.428 266.706 226.428C266.03 226.428 265.375 226.525 264.74 226.721C264.105 226.916 263.487 227.156 262.885 227.441L261.957 225.415C262.616 225.065 263.365 224.78 264.203 224.56C265.049 224.34 265.928 224.23 266.84 224.23ZM269.184 231.542L267.438 231.604C266.006 231.652 265.001 231.896 264.423 232.336C263.845 232.775 263.556 233.378 263.556 234.143C263.556 234.81 263.756 235.298 264.154 235.607C264.553 235.909 265.078 236.059 265.729 236.059C266.722 236.059 267.544 235.778 268.195 235.217C268.854 234.647 269.184 233.813 269.184 232.714V231.542ZM285.126 234.143C285.126 235.03 284.91 235.778 284.479 236.389C284.048 236.999 283.417 237.463 282.587 237.78C281.765 238.09 280.756 238.244 279.56 238.244C278.616 238.244 277.802 238.175 277.118 238.037C276.443 237.906 275.804 237.703 275.202 237.426V234.948C275.845 235.249 276.565 235.51 277.362 235.729C278.168 235.949 278.929 236.059 279.645 236.059C280.589 236.059 281.269 235.913 281.684 235.62C282.099 235.319 282.306 234.92 282.306 234.423C282.306 234.13 282.221 233.87 282.05 233.642C281.887 233.406 281.578 233.166 281.122 232.922C280.674 232.67 280.015 232.368 279.145 232.019C278.29 231.677 277.57 231.335 276.984 230.993C276.398 230.651 275.954 230.24 275.653 229.76C275.352 229.272 275.202 228.649 275.202 227.893C275.202 226.696 275.674 225.789 276.618 225.17C277.57 224.544 278.827 224.23 280.39 224.23C281.22 224.23 282.001 224.316 282.733 224.487C283.474 224.65 284.198 224.89 284.906 225.207L284.003 227.368C283.393 227.099 282.778 226.879 282.16 226.708C281.549 226.529 280.927 226.44 280.292 226.44C279.551 226.44 278.986 226.554 278.595 226.782C278.213 227.01 278.021 227.335 278.021 227.758C278.021 228.076 278.115 228.344 278.302 228.564C278.489 228.784 278.811 229.003 279.267 229.223C279.73 229.443 280.373 229.715 281.195 230.041C282.001 230.35 282.697 230.676 283.283 231.018C283.877 231.351 284.333 231.762 284.65 232.25C284.967 232.739 285.126 233.369 285.126 234.143ZM292.682 224.487H295.807L298.578 232.202C298.7 232.552 298.81 232.897 298.908 233.239C299.014 233.573 299.103 233.903 299.176 234.228C299.258 234.554 299.323 234.879 299.372 235.205H299.445C299.526 234.781 299.64 234.309 299.787 233.789C299.941 233.26 300.112 232.731 300.299 232.202L302.96 224.487H306.049L300.25 239.855C299.917 240.734 299.506 241.483 299.018 242.102C298.537 242.728 297.968 243.2 297.309 243.518C296.649 243.843 295.897 244.006 295.05 244.006C294.643 244.006 294.289 243.981 293.988 243.933C293.687 243.892 293.431 243.847 293.219 243.798V241.503C293.39 241.544 293.606 241.581 293.866 241.613C294.127 241.646 294.395 241.662 294.672 241.662C295.185 241.662 295.628 241.56 296.002 241.357C296.377 241.153 296.694 240.865 296.955 240.49C297.215 240.124 297.431 239.705 297.602 239.233L298.078 237.963L292.682 224.487ZM321.442 224.23C321.67 224.23 321.918 224.243 322.187 224.267C322.455 224.292 322.687 224.324 322.882 224.365L322.614 227.05C322.443 227.001 322.231 226.965 321.979 226.94C321.735 226.916 321.515 226.904 321.32 226.904C320.807 226.904 320.319 226.989 319.855 227.16C319.391 227.323 318.98 227.575 318.622 227.917C318.264 228.251 317.983 228.67 317.78 229.174C317.576 229.679 317.475 230.265 317.475 230.932V238H314.594V224.487H316.84L317.23 226.867H317.365C317.633 226.387 317.967 225.948 318.366 225.549C318.764 225.15 319.22 224.833 319.733 224.597C320.254 224.353 320.823 224.23 321.442 224.23ZM330.768 224.23C331.972 224.23 333.006 224.479 333.869 224.975C334.731 225.472 335.395 226.175 335.858 227.087C336.322 227.998 336.554 229.089 336.554 230.358V231.896H327.533C327.566 233.207 327.916 234.216 328.583 234.924C329.258 235.632 330.202 235.986 331.415 235.986C332.278 235.986 333.051 235.904 333.734 235.742C334.426 235.571 335.138 235.323 335.871 234.997V237.329C335.195 237.646 334.507 237.878 333.808 238.024C333.108 238.171 332.27 238.244 331.293 238.244C329.966 238.244 328.799 237.988 327.79 237.475C326.789 236.954 326.003 236.181 325.434 235.156C324.872 234.13 324.591 232.857 324.591 231.335C324.591 229.821 324.848 228.535 325.36 227.478C325.873 226.42 326.593 225.614 327.521 225.061C328.449 224.507 329.531 224.23 330.768 224.23ZM330.768 226.391C329.865 226.391 329.132 226.684 328.571 227.27C328.017 227.856 327.692 228.715 327.594 229.846H333.747C333.738 229.17 333.625 228.572 333.405 228.051C333.193 227.53 332.868 227.124 332.428 226.831C331.997 226.538 331.444 226.391 330.768 226.391ZM348.871 234.143C348.871 235.03 348.655 235.778 348.224 236.389C347.793 236.999 347.162 237.463 346.332 237.78C345.51 238.09 344.501 238.244 343.305 238.244C342.361 238.244 341.547 238.175 340.863 238.037C340.188 237.906 339.549 237.703 338.947 237.426V234.948C339.59 235.249 340.31 235.51 341.107 235.729C341.913 235.949 342.674 236.059 343.39 236.059C344.334 236.059 345.014 235.913 345.429 235.62C345.844 235.319 346.051 234.92 346.051 234.423C346.051 234.13 345.966 233.87 345.795 233.642C345.632 233.406 345.323 233.166 344.867 232.922C344.42 232.67 343.76 232.368 342.89 232.019C342.035 231.677 341.315 231.335 340.729 230.993C340.143 230.651 339.7 230.24 339.398 229.76C339.097 229.272 338.947 228.649 338.947 227.893C338.947 226.696 339.419 225.789 340.363 225.17C341.315 224.544 342.572 224.23 344.135 224.23C344.965 224.23 345.746 224.316 346.479 224.487C347.219 224.65 347.943 224.89 348.651 225.207L347.748 227.368C347.138 227.099 346.523 226.879 345.905 226.708C345.294 226.529 344.672 226.44 344.037 226.44C343.297 226.44 342.731 226.554 342.34 226.782C341.958 227.01 341.767 227.335 341.767 227.758C341.767 228.076 341.86 228.344 342.047 228.564C342.235 228.784 342.556 229.003 343.012 229.223C343.476 229.443 344.118 229.715 344.94 230.041C345.746 230.35 346.442 230.676 347.028 231.018C347.622 231.351 348.078 231.762 348.395 232.25C348.712 232.739 348.871 233.369 348.871 234.143ZM357.001 235.925C357.375 235.925 357.746 235.892 358.112 235.827C358.478 235.754 358.812 235.668 359.113 235.571V237.744C358.795 237.882 358.384 238 357.88 238.098C357.375 238.195 356.85 238.244 356.305 238.244C355.54 238.244 354.853 238.118 354.242 237.866C353.632 237.605 353.148 237.162 352.79 236.535C352.431 235.909 352.252 235.042 352.252 233.935V226.672H350.409V225.39L352.387 224.377L353.327 221.484H355.133V224.487H359.003V226.672H355.133V233.898C355.133 234.582 355.304 235.091 355.646 235.424C355.988 235.758 356.439 235.925 357.001 235.925ZM367.157 224.23C368.866 224.23 370.156 224.609 371.027 225.366C371.906 226.123 372.345 227.303 372.345 228.906V238H370.307L369.757 236.083H369.66C369.277 236.572 368.882 236.975 368.476 237.292C368.069 237.609 367.597 237.845 367.06 238C366.531 238.163 365.884 238.244 365.119 238.244C364.313 238.244 363.593 238.098 362.958 237.805C362.323 237.504 361.823 237.048 361.457 236.438C361.09 235.827 360.907 235.054 360.907 234.118C360.907 232.727 361.424 231.681 362.458 230.981C363.499 230.281 365.07 229.895 367.169 229.821L369.513 229.736V229.028C369.513 228.092 369.293 227.425 368.854 227.026C368.423 226.627 367.812 226.428 367.023 226.428C366.347 226.428 365.692 226.525 365.058 226.721C364.423 226.916 363.804 227.156 363.202 227.441L362.274 225.415C362.934 225.065 363.682 224.78 364.521 224.56C365.367 224.34 366.246 224.23 367.157 224.23ZM369.501 231.542L367.755 231.604C366.323 231.652 365.318 231.896 364.74 232.336C364.162 232.775 363.874 233.378 363.874 234.143C363.874 234.81 364.073 235.298 364.472 235.607C364.87 235.909 365.395 236.059 366.046 236.059C367.039 236.059 367.861 235.778 368.512 235.217C369.171 234.647 369.501 233.813 369.501 232.714V231.542ZM385.443 234.143C385.443 235.03 385.228 235.778 384.796 236.389C384.365 236.999 383.734 237.463 382.904 237.78C382.082 238.09 381.073 238.244 379.877 238.244C378.933 238.244 378.119 238.175 377.436 238.037C376.76 237.906 376.121 237.703 375.519 237.426V234.948C376.162 235.249 376.882 235.51 377.68 235.729C378.485 235.949 379.246 236.059 379.962 236.059C380.906 236.059 381.586 235.913 382.001 235.62C382.416 235.319 382.624 234.92 382.624 234.423C382.624 234.13 382.538 233.87 382.367 233.642C382.204 233.406 381.895 233.166 381.439 232.922C380.992 232.67 380.333 232.368 379.462 232.019C378.607 231.677 377.887 231.335 377.301 230.993C376.715 230.651 376.272 230.24 375.971 229.76C375.67 229.272 375.519 228.649 375.519 227.893C375.519 226.696 375.991 225.789 376.935 225.17C377.887 224.544 379.145 224.23 380.707 224.23C381.537 224.23 382.318 224.316 383.051 224.487C383.791 224.65 384.516 224.89 385.224 225.207L384.32 227.368C383.71 227.099 383.096 226.879 382.477 226.708C381.867 226.529 381.244 226.44 380.609 226.44C379.869 226.44 379.303 226.554 378.913 226.782C378.53 227.01 378.339 227.335 378.339 227.758C378.339 228.076 378.432 228.344 378.62 228.564C378.807 228.784 379.128 229.003 379.584 229.223C380.048 229.443 380.691 229.715 381.513 230.041C382.318 230.35 383.014 230.676 383.6 231.018C384.194 231.351 384.65 231.762 384.967 232.25C385.285 232.739 385.443 233.369 385.443 234.143Z" fill="black"/>
<rect x="45" y="19" width="40" height="40" rx="7.8125" fill="#0037AC"/>
<path d="M60.4946 29.4497C60.2293 28.8036 59.3143 28.8036 59.0491 29.4497L58.6321 30.4659C58.5543 30.6553 58.554 30.8677 58.6313 31.0574L64.2123 44.7513C64.4217 45.2651 64.0437 45.8274 63.4888 45.8274H57.9346H56.0591C55.5033 45.8274 55.1253 45.2635 55.3364 44.7494L56.2995 42.4035C56.3773 42.2141 56.3776 42.0016 56.3003 41.812L55.8623 40.7371C55.5984 40.0894 54.6818 40.0882 54.4161 40.7352L51.7927 47.1249C51.5816 47.639 51.9597 48.2029 52.5154 48.2029H67.0281C67.5838 48.2029 67.9619 47.639 67.7508 47.1249L60.4946 29.4497Z" fill="white"/>
<path d="M65.7877 33.2487C65.5783 32.7349 65.9563 32.1726 66.5112 32.1726H72.0654H73.9409C74.4967 32.1726 74.8747 32.7365 74.6636 33.2506L73.7005 35.5965C73.6227 35.7859 73.6224 35.9984 73.6997 36.188L74.1377 37.2629C74.4016 37.9106 75.3182 37.9118 75.5839 37.2648L78.2073 30.8751C78.4184 30.361 78.0403 29.7971 77.4846 29.7971H62.9719C62.4162 29.7971 62.0381 30.361 62.2492 30.8751L69.5054 48.5503C69.7707 49.1964 70.6857 49.1964 70.9509 48.5503L71.3679 47.5341C71.4457 47.3447 71.446 47.1323 71.3687 46.9426L65.7877 33.2487Z" fill="white"/>
</svg>
