<svg width="1208" height="351" viewBox="0 0 1208 351" fill="none" xmlns="http://www.w3.org/2000/svg">
<rect width="1208" height="350" fill="white"/>
<rect x="342.249" y="314.665" width="25.7725" height="25.7725" rx="5.03368" fill="#0037AC"/>
<path d="M352.232 321.398C352.061 320.981 351.471 320.981 351.301 321.398L351.032 322.052C350.982 322.174 350.982 322.311 351.031 322.433L354.627 331.257C354.762 331.588 354.519 331.95 354.161 331.95H350.582H349.374C349.016 331.95 348.772 331.587 348.908 331.255L349.529 329.744C349.579 329.622 349.579 329.485 349.529 329.363L349.247 328.67C349.077 328.253 348.487 328.252 348.315 328.669L346.625 332.786C346.489 333.117 346.733 333.48 347.091 333.48H356.441C356.8 333.48 357.043 333.117 356.907 332.786L352.232 321.398Z" fill="white"/>
<path d="M355.642 323.845C355.507 323.514 355.751 323.152 356.108 323.152H359.687H360.896C361.254 323.152 361.497 323.515 361.361 323.846L360.741 325.358C360.69 325.48 360.69 325.617 360.74 325.739L361.022 326.432C361.192 326.849 361.783 326.85 361.954 326.433L363.644 322.316C363.78 321.985 363.537 321.621 363.179 321.621H353.828C353.47 321.621 353.226 321.985 353.362 322.316L358.038 333.704C358.209 334.121 358.798 334.121 358.969 333.704L359.238 333.049C359.288 332.927 359.288 332.791 359.238 332.668L355.642 323.845Z" fill="white"/>
<path d="M383.916 329.027H380.268L379.558 331.484H377.811L381.06 321.273H383.191L386.446 331.484H384.626L383.916 329.027ZM380.623 327.703H383.553L382.095 322.605L380.623 327.703ZM389.533 323.67V329.131C389.533 329.594 389.624 329.925 389.807 330.122C389.994 330.319 390.275 330.418 390.65 330.418C391.005 330.418 391.348 330.312 391.679 330.1C392.009 329.888 392.271 329.629 392.463 329.323V323.67H394.12V331.484H392.692L392.589 330.485C392.298 330.874 391.93 331.173 391.486 331.38C391.042 331.582 390.589 331.683 390.125 331.683C389.37 331.683 388.806 331.476 388.431 331.062C388.061 330.643 387.876 330.068 387.876 329.338V323.67H389.533ZM403.275 331.069C402.989 331.252 402.646 331.4 402.246 331.513C401.847 331.627 401.43 331.683 400.996 331.683C400.088 331.683 399.398 331.449 398.924 330.98C398.455 330.507 398.221 329.885 398.221 329.116V324.876H396.482V323.67H398.221V321.924L399.878 321.724V323.67H402.513L402.328 324.876H399.878V329.101C399.878 329.52 399.982 329.834 400.189 330.041C400.401 330.243 400.747 330.344 401.225 330.344C401.511 330.344 401.775 330.31 402.017 330.24C402.258 330.171 402.478 330.083 402.675 329.974L403.275 331.069ZM408.751 323.463C409.516 323.463 410.16 323.633 410.683 323.974C411.205 324.314 411.6 324.79 411.866 325.402C412.138 326.013 412.273 326.733 412.273 327.562C412.273 328.386 412.135 329.108 411.859 329.73C411.588 330.347 411.188 330.827 410.66 331.173C410.138 331.513 409.499 331.683 408.744 331.683C407.989 331.683 407.348 331.518 406.82 331.188C406.297 330.852 405.898 330.376 405.622 329.76C405.35 329.143 405.215 328.415 405.215 327.577C405.215 326.763 405.35 326.048 405.622 325.431C405.898 324.815 406.3 324.334 406.828 323.988C407.356 323.638 407.997 323.463 408.751 323.463ZM408.751 324.75C408.155 324.75 407.706 324.98 407.405 325.439C407.104 325.892 406.954 326.605 406.954 327.577C406.954 328.544 407.102 329.256 407.397 329.715C407.698 330.174 408.147 330.403 408.744 330.403C409.341 330.403 409.787 330.174 410.083 329.715C410.384 329.256 410.535 328.539 410.535 327.562C410.535 326.6 410.387 325.892 410.091 325.439C409.795 324.98 409.348 324.75 408.751 324.75ZM414.569 331.484V330.3H415.716V324.847H414.569V323.67H416.981L417.284 325.483C417.575 324.827 417.935 324.329 418.364 323.988C418.798 323.643 419.356 323.47 420.037 323.47C420.268 323.47 420.476 323.49 420.658 323.53C420.846 323.564 421.031 323.611 421.213 323.67L420.717 325.091C420.559 325.046 420.411 325.014 420.273 324.995C420.135 324.97 419.982 324.958 419.815 324.958C419.247 324.958 418.757 325.17 418.342 325.594C417.933 326.018 417.61 326.62 417.373 327.399V330.3H418.949V331.484H414.569ZM419.748 326.548V324.625L419.955 323.67H421.213L420.932 326.548H419.748ZM425.151 330.344C425.151 329.984 425.279 329.676 425.536 329.419C425.792 329.158 426.108 329.027 426.483 329.027C426.863 329.027 427.178 329.158 427.43 329.419C427.686 329.676 427.815 329.984 427.815 330.344C427.815 330.714 427.686 331.03 427.43 331.291C427.178 331.553 426.863 331.683 426.483 331.683C426.108 331.683 425.792 331.553 425.536 331.291C425.279 331.03 425.151 330.714 425.151 330.344ZM425.151 325.091C425.151 324.849 425.21 324.627 425.328 324.425C425.447 324.223 425.607 324.062 425.809 323.944C426.012 323.826 426.236 323.766 426.483 323.766C426.863 323.766 427.178 323.897 427.43 324.159C427.686 324.415 427.815 324.726 427.815 325.091C427.815 325.456 427.686 325.771 427.43 326.038C427.178 326.299 426.863 326.43 426.483 326.43C426.108 326.43 425.792 326.299 425.536 326.038C425.279 325.771 425.151 325.456 425.151 325.091ZM447.595 321.229V327.791C447.595 328.388 447.504 328.928 447.322 329.412C447.139 329.895 446.87 330.307 446.515 330.647C446.165 330.988 445.733 331.249 445.22 331.432C444.712 331.614 444.13 331.705 443.474 331.705C442.813 331.705 442.241 331.622 441.757 331.454C441.279 331.281 440.818 331.045 440.374 330.744L441.299 329.249C441.649 329.491 441.977 329.661 442.283 329.76C442.589 329.853 442.936 329.9 443.326 329.9C443.854 329.9 444.293 329.732 444.643 329.397C444.998 329.057 445.176 328.531 445.176 327.821V323.004H442.024V321.229H447.595ZM453.109 323.367C453.918 323.367 454.606 323.539 455.173 323.885C455.741 324.23 456.175 324.716 456.476 325.342C456.777 325.964 456.927 326.694 456.927 327.532C456.927 328.406 456.774 329.158 456.468 329.789C456.167 330.416 455.733 330.897 455.166 331.232C454.599 331.567 453.913 331.735 453.109 331.735C452.31 331.735 451.624 331.57 451.052 331.239C450.485 330.909 450.048 330.43 449.743 329.804C449.442 329.178 449.291 328.425 449.291 327.547C449.291 326.714 449.442 325.984 449.743 325.357C450.048 324.731 450.485 324.242 451.052 323.892C451.624 323.542 452.31 323.367 453.109 323.367ZM453.109 325.091C452.631 325.091 452.276 325.288 452.044 325.683C451.817 326.072 451.703 326.694 451.703 327.547C451.703 328.415 451.817 329.044 452.044 329.434C452.276 329.824 452.631 330.019 453.109 330.019C453.588 330.019 453.94 329.824 454.167 329.434C454.399 329.044 454.515 328.41 454.515 327.532C454.515 326.684 454.399 326.065 454.167 325.675C453.94 325.286 453.588 325.091 453.109 325.091ZM461.731 330.063C462.12 330.063 462.433 330.001 462.67 329.878C462.912 329.755 463.033 329.57 463.033 329.323C463.033 329.155 462.986 329.015 462.892 328.901C462.799 328.788 462.618 328.679 462.352 328.576C462.086 328.472 461.691 328.349 461.168 328.206C460.69 328.078 460.266 327.915 459.896 327.717C459.531 327.52 459.245 327.266 459.037 326.955C458.835 326.645 458.734 326.257 458.734 325.794C458.734 325.325 458.865 324.908 459.126 324.543C459.388 324.178 459.772 323.892 460.28 323.685C460.788 323.473 461.41 323.367 462.145 323.367C462.845 323.367 463.455 323.458 463.972 323.641C464.495 323.818 464.947 324.045 465.326 324.321L464.394 325.698C464.069 325.495 463.718 325.335 463.344 325.217C462.969 325.093 462.591 325.032 462.212 325.032C461.832 325.032 461.548 325.083 461.361 325.187C461.178 325.286 461.087 325.436 461.087 325.638C461.087 325.771 461.134 325.887 461.227 325.986C461.326 326.08 461.509 326.178 461.775 326.282C462.041 326.381 462.431 326.504 462.944 326.652C463.452 326.795 463.894 326.96 464.268 327.148C464.648 327.335 464.942 327.587 465.149 327.902C465.356 328.213 465.46 328.625 465.46 329.138C465.46 329.71 465.29 330.191 464.949 330.581C464.609 330.966 464.157 331.254 463.595 331.447C463.033 331.639 462.416 331.735 461.745 331.735C460.986 331.735 460.315 331.627 459.733 331.41C459.151 331.192 458.655 330.906 458.246 330.551L459.422 329.234C459.728 329.471 460.073 329.668 460.458 329.826C460.848 329.984 461.272 330.063 461.731 330.063ZM469.479 328.235C469.533 328.665 469.644 329.012 469.812 329.279C469.985 329.54 470.204 329.732 470.47 329.856C470.737 329.974 471.035 330.033 471.366 330.033C471.726 330.033 472.074 329.974 472.409 329.856C472.744 329.737 473.067 329.58 473.378 329.382L474.318 330.655C473.948 330.971 473.499 331.229 472.971 331.432C472.448 331.634 471.852 331.735 471.181 331.735C470.283 331.735 469.531 331.558 468.924 331.202C468.317 330.842 467.861 330.349 467.555 329.723C467.249 329.096 467.096 328.376 467.096 327.562C467.096 326.788 467.244 326.085 467.54 325.453C467.836 324.817 468.268 324.311 468.835 323.937C469.407 323.557 470.105 323.367 470.929 323.367C471.679 323.367 472.328 323.527 472.875 323.848C473.428 324.168 473.854 324.63 474.155 325.231C474.461 325.833 474.614 326.556 474.614 327.399C474.614 327.532 474.609 327.676 474.599 327.828C474.594 327.981 474.584 328.117 474.569 328.235H469.479ZM470.929 324.935C470.51 324.935 470.172 325.086 469.915 325.387C469.659 325.688 469.504 326.169 469.449 326.83H472.335C472.33 326.257 472.219 325.799 472.002 325.453C471.785 325.108 471.427 324.935 470.929 324.935ZM480.675 323.367C481.361 323.367 481.913 323.537 482.333 323.877C482.752 324.218 483.058 324.699 483.25 325.32C483.447 325.942 483.546 326.679 483.546 327.532C483.546 328.341 483.428 329.064 483.191 329.7C482.954 330.332 482.611 330.83 482.162 331.195C481.714 331.555 481.169 331.735 480.527 331.735C479.763 331.735 479.141 331.461 478.663 330.914V334.517L476.325 334.761V323.626H478.396L478.5 324.506C478.821 324.097 479.171 323.806 479.551 323.633C479.93 323.456 480.305 323.367 480.675 323.367ZM479.95 325.091C479.679 325.091 479.44 325.172 479.232 325.335C479.025 325.498 478.835 325.72 478.663 326.001V329.316C478.825 329.557 478.996 329.735 479.173 329.848C479.356 329.962 479.57 330.019 479.817 330.019C480.231 330.019 480.554 329.831 480.786 329.456C481.018 329.076 481.134 328.445 481.134 327.562C481.134 326.911 481.087 326.408 480.993 326.053C480.9 325.693 480.764 325.443 480.586 325.305C480.409 325.162 480.197 325.091 479.95 325.091ZM487.536 320.274V324.403C487.866 324.052 488.224 323.794 488.609 323.626C488.998 323.453 489.41 323.367 489.844 323.367C490.545 323.367 491.08 323.572 491.45 323.981C491.82 324.39 492.005 324.967 492.005 325.712V331.484H489.667V326.363C489.667 325.89 489.612 325.559 489.504 325.372C489.4 325.185 489.203 325.091 488.912 325.091C488.749 325.091 488.589 325.13 488.431 325.209C488.278 325.283 488.128 325.392 487.98 325.535C487.832 325.678 487.684 325.848 487.536 326.045V331.484H485.198V320.503L487.536 320.274ZM510.313 328.487C510.313 329.123 510.145 329.686 509.81 330.174C509.479 330.662 509.003 331.045 508.382 331.321C507.76 331.597 507.013 331.735 506.14 331.735C505.173 331.735 504.362 331.595 503.706 331.313C503.055 331.027 502.515 330.675 502.085 330.255L503.314 328.894C503.693 329.224 504.113 329.481 504.571 329.663C505.03 329.841 505.533 329.93 506.081 329.93C506.421 329.93 506.72 329.88 506.976 329.782C507.233 329.683 507.432 329.54 507.575 329.353C507.718 329.165 507.79 328.938 507.79 328.672C507.79 328.42 507.733 328.208 507.62 328.036C507.506 327.863 507.314 327.708 507.043 327.569C506.776 327.431 506.404 327.291 505.925 327.148C505.126 326.901 504.483 326.63 503.994 326.334C503.511 326.038 503.158 325.695 502.936 325.305C502.719 324.916 502.611 324.462 502.611 323.944C502.611 323.317 502.783 322.782 503.129 322.338C503.479 321.894 503.947 321.557 504.534 321.325C505.121 321.088 505.768 320.97 506.473 320.97C507.267 320.97 507.968 321.085 508.574 321.317C509.181 321.544 509.706 321.87 510.15 322.294L509.003 323.611C508.658 323.32 508.286 323.105 507.886 322.967C507.487 322.824 507.08 322.753 506.665 322.753C506.36 322.753 506.091 322.792 505.859 322.871C505.627 322.945 505.447 323.056 505.319 323.204C505.19 323.352 505.126 323.537 505.126 323.759C505.126 323.976 505.188 324.159 505.311 324.306C505.435 324.454 505.649 324.595 505.955 324.728C506.261 324.856 506.685 325.007 507.228 325.18C507.874 325.377 508.426 325.614 508.885 325.89C509.349 326.161 509.701 326.504 509.943 326.918C510.19 327.333 510.313 327.856 510.313 328.487ZM518.431 329.219C518.431 329.515 518.471 329.73 518.55 329.863C518.634 329.996 518.767 330.097 518.949 330.166L518.468 331.705C518.005 331.661 517.613 331.56 517.292 331.402C516.976 331.239 516.727 330.995 516.545 330.67C516.244 331.03 515.859 331.299 515.39 331.476C514.922 331.649 514.443 331.735 513.955 331.735C513.146 331.735 512.5 331.506 512.016 331.047C511.538 330.583 511.299 329.989 511.299 329.264C511.299 328.41 511.632 327.752 512.298 327.288C512.968 326.825 513.911 326.593 515.124 326.593H516.182V326.297C516.182 325.887 516.049 325.584 515.783 325.387C515.521 325.189 515.136 325.091 514.628 325.091C514.377 325.091 514.054 325.128 513.659 325.202C513.264 325.271 512.87 325.372 512.475 325.505L511.935 323.951C512.443 323.759 512.971 323.613 513.518 323.515C514.071 323.416 514.564 323.367 514.998 323.367C516.167 323.367 517.03 323.606 517.588 324.085C518.15 324.558 518.431 325.244 518.431 326.141V329.219ZM514.761 330.063C515.013 330.063 515.277 329.989 515.553 329.841C515.829 329.688 516.039 329.473 516.182 329.197V327.925H515.605C514.954 327.925 514.475 328.026 514.17 328.228C513.864 328.425 513.711 328.716 513.711 329.101C513.711 329.402 513.802 329.639 513.985 329.811C514.172 329.979 514.431 330.063 514.761 330.063ZM520.69 331.484V323.626H522.732L522.895 324.536C523.245 324.141 523.615 323.848 524.004 323.655C524.394 323.463 524.838 323.367 525.336 323.367C526.007 323.367 526.535 323.572 526.92 323.981C527.304 324.39 527.497 324.967 527.497 325.712V331.484H525.159V326.386C525.159 326.065 525.136 325.811 525.092 325.624C525.048 325.431 524.969 325.295 524.855 325.217C524.747 325.133 524.596 325.091 524.404 325.091C524.241 325.091 524.081 325.128 523.923 325.202C523.77 325.271 523.62 325.372 523.472 325.505C523.324 325.638 523.176 325.799 523.028 325.986V331.484H520.69ZM536.636 331.025C536.33 331.222 535.96 331.39 535.526 331.528C535.092 331.666 534.604 331.735 534.061 331.735C533.035 331.735 532.273 331.474 531.775 330.951C531.277 330.423 531.028 329.708 531.028 328.805V325.239H529.378V323.626H531.028V321.924L533.366 321.643V323.626H535.896L535.667 325.239H533.366V328.805C533.366 329.195 533.455 329.473 533.632 329.641C533.81 329.809 534.093 329.893 534.483 329.893C534.759 329.893 535.011 329.861 535.238 329.797C535.47 329.727 535.677 329.641 535.859 329.538L536.636 331.025ZM543.238 323.626V329.885H545.235V331.484H538.672V329.885H540.9V325.224H538.746V323.626H543.238ZM541.824 319.512C542.229 319.512 542.559 319.638 542.816 319.889C543.072 320.141 543.201 320.454 543.201 320.829C543.201 321.204 543.072 321.52 542.816 321.776C542.559 322.028 542.229 322.153 541.824 322.153C541.415 322.153 541.08 322.028 540.818 321.776C540.562 321.52 540.433 321.204 540.433 320.829C540.433 320.454 540.562 320.141 540.818 319.889C541.08 319.638 541.415 319.512 541.824 319.512ZM553.923 329.219C553.923 329.515 553.963 329.73 554.042 329.863C554.126 329.996 554.259 330.097 554.441 330.166L553.96 331.705C553.497 331.661 553.105 331.56 552.784 331.402C552.468 331.239 552.219 330.995 552.037 330.67C551.736 331.03 551.351 331.299 550.882 331.476C550.414 331.649 549.935 331.735 549.447 331.735C548.638 331.735 547.992 331.506 547.508 331.047C547.03 330.583 546.791 329.989 546.791 329.264C546.791 328.41 547.124 327.752 547.79 327.288C548.46 326.825 549.403 326.593 550.616 326.593H551.674V326.297C551.674 325.887 551.541 325.584 551.275 325.387C551.013 325.189 550.628 325.091 550.12 325.091C549.869 325.091 549.546 325.128 549.151 325.202C548.756 325.271 548.362 325.372 547.967 325.505L547.427 323.951C547.935 323.759 548.463 323.613 549.01 323.515C549.563 323.416 550.056 323.367 550.49 323.367C551.659 323.367 552.523 323.606 553.08 324.085C553.642 324.558 553.923 325.244 553.923 326.141V329.219ZM550.254 330.063C550.505 330.063 550.769 329.989 551.045 329.841C551.321 329.688 551.531 329.473 551.674 329.197V327.925H551.097C550.446 327.925 549.967 328.026 549.662 328.228C549.356 328.425 549.203 328.716 549.203 329.101C549.203 329.402 549.294 329.639 549.477 329.811C549.664 329.979 549.923 330.063 550.254 330.063ZM563.159 322.368L563.706 324.085C563.43 324.193 563.107 324.272 562.737 324.321C562.367 324.371 561.936 324.395 561.442 324.395C561.936 324.607 562.311 324.871 562.567 325.187C562.828 325.498 562.959 325.907 562.959 326.415C562.959 326.923 562.824 327.377 562.552 327.777C562.281 328.171 561.896 328.482 561.398 328.709C560.9 328.936 560.31 329.049 559.63 329.049C559.462 329.049 559.304 329.042 559.156 329.027C559.008 329.012 558.863 328.99 558.72 328.96C558.636 329.005 558.572 329.069 558.527 329.153C558.483 329.237 558.461 329.323 558.461 329.412C558.461 329.535 558.51 329.646 558.609 329.745C558.712 329.843 558.951 329.893 559.326 329.893H560.614C561.225 329.893 561.753 329.991 562.197 330.189C562.646 330.386 562.994 330.655 563.24 330.995C563.487 331.336 563.61 331.725 563.61 332.164C563.61 332.968 563.258 333.602 562.552 334.066C561.847 334.529 560.799 334.761 559.408 334.761C558.401 334.761 557.622 334.658 557.07 334.451C556.522 334.248 556.14 333.957 555.923 333.577C555.711 333.203 555.605 332.756 555.605 332.238H557.676C557.676 332.465 557.721 332.65 557.809 332.793C557.903 332.941 558.078 333.05 558.335 333.119C558.596 333.188 558.974 333.222 559.467 333.222C559.965 333.222 560.345 333.183 560.606 333.104C560.868 333.025 561.045 332.916 561.139 332.778C561.238 332.645 561.287 332.495 561.287 332.327C561.287 332.095 561.196 331.908 561.013 331.765C560.831 331.622 560.542 331.55 560.148 331.55H558.897C558.049 331.55 557.432 331.395 557.047 331.084C556.663 330.768 556.47 330.401 556.47 329.982C556.47 329.69 556.547 329.414 556.7 329.153C556.857 328.891 557.077 328.672 557.358 328.494C556.855 328.228 556.495 327.915 556.278 327.555C556.061 327.19 555.952 326.753 555.952 326.245C555.952 325.653 556.103 325.145 556.404 324.721C556.705 324.292 557.119 323.961 557.647 323.729C558.179 323.498 558.786 323.382 559.467 323.382C560.054 323.391 560.564 323.352 560.998 323.263C561.433 323.17 561.822 323.044 562.168 322.886C562.513 322.723 562.843 322.55 563.159 322.368ZM559.526 324.898C559.156 324.898 558.863 325.017 558.646 325.254C558.429 325.485 558.32 325.806 558.32 326.215C558.32 326.65 558.431 326.982 558.653 327.214C558.875 327.446 559.166 327.562 559.526 327.562C559.916 327.562 560.212 327.446 560.414 327.214C560.621 326.982 560.725 326.64 560.725 326.186C560.725 325.747 560.624 325.424 560.421 325.217C560.219 325.004 559.921 324.898 559.526 324.898ZM568.458 323.367C569.267 323.367 569.955 323.539 570.523 323.885C571.09 324.23 571.524 324.716 571.825 325.342C572.126 325.964 572.276 326.694 572.276 327.532C572.276 328.406 572.123 329.158 571.817 329.789C571.517 330.416 571.082 330.897 570.515 331.232C569.948 331.567 569.262 331.735 568.458 331.735C567.659 331.735 566.974 331.57 566.401 331.239C565.834 330.909 565.398 330.43 565.092 329.804C564.791 329.178 564.64 328.425 564.64 327.547C564.64 326.714 564.791 325.984 565.092 325.357C565.398 324.731 565.834 324.242 566.401 323.892C566.974 323.542 567.659 323.367 568.458 323.367ZM568.458 325.091C567.98 325.091 567.625 325.288 567.393 325.683C567.166 326.072 567.052 326.694 567.052 327.547C567.052 328.415 567.166 329.044 567.393 329.434C567.625 329.824 567.98 330.019 568.458 330.019C568.937 330.019 569.289 329.824 569.516 329.434C569.748 329.044 569.864 328.41 569.864 327.532C569.864 326.684 569.748 326.065 569.516 325.675C569.289 325.286 568.937 325.091 568.458 325.091ZM587.795 324.573C587.795 324.208 587.726 323.907 587.588 323.67C587.455 323.428 587.25 323.251 586.974 323.137C586.702 323.019 586.36 322.96 585.945 322.96H585.117V326.312H586.071C586.431 326.312 586.739 326.25 586.996 326.127C587.252 326.003 587.45 325.813 587.588 325.557C587.726 325.3 587.795 324.972 587.795 324.573ZM590.296 324.565C590.296 325.36 590.126 326.016 589.785 326.534C589.445 327.052 588.969 327.439 588.357 327.695C587.746 327.947 587.035 328.073 586.226 328.073H585.117V331.484H582.69V321.229H585.916C587.307 321.229 588.385 321.505 589.149 322.057C589.914 322.61 590.296 323.446 590.296 324.565ZM595.077 323.367C595.886 323.367 596.574 323.539 597.142 323.885C597.709 324.23 598.143 324.716 598.444 325.342C598.745 325.964 598.895 326.694 598.895 327.532C598.895 328.406 598.742 329.158 598.436 329.789C598.136 330.416 597.701 330.897 597.134 331.232C596.567 331.567 595.881 331.735 595.077 331.735C594.278 331.735 593.593 331.57 593.02 331.239C592.453 330.909 592.017 330.43 591.711 329.804C591.41 329.178 591.259 328.425 591.259 327.547C591.259 326.714 591.41 325.984 591.711 325.357C592.017 324.731 592.453 324.242 593.02 323.892C593.593 323.542 594.278 323.367 595.077 323.367ZM595.077 325.091C594.599 325.091 594.244 325.288 594.012 325.683C593.785 326.072 593.671 326.694 593.671 327.547C593.671 328.415 593.785 329.044 594.012 329.434C594.244 329.824 594.599 330.019 595.077 330.019C595.556 330.019 595.908 329.824 596.135 329.434C596.367 329.044 596.483 328.41 596.483 327.532C596.483 326.684 596.367 326.065 596.135 325.675C595.908 325.286 595.556 325.091 595.077 325.091ZM600.621 331.484V329.915H601.657V325.18H600.621V323.626H603.44L603.869 325.394C604.15 324.718 604.508 324.215 604.942 323.885C605.381 323.554 605.916 323.389 606.547 323.389C606.814 323.389 607.05 323.411 607.258 323.456C607.465 323.495 607.66 323.552 607.842 323.626L607.132 325.557C606.989 325.517 606.846 325.488 606.703 325.468C606.56 325.448 606.402 325.439 606.229 325.439C605.716 325.439 605.265 325.648 604.875 326.067C604.49 326.487 604.197 327.019 603.995 327.666V329.915H605.548V331.484H600.621ZM605.941 326.911V324.617L606.288 323.626H607.842L607.406 326.911H605.941ZM616.493 331.025C616.187 331.222 615.817 331.39 615.383 331.528C614.949 331.666 614.461 331.735 613.918 331.735C612.892 331.735 612.13 331.474 611.632 330.951C611.134 330.423 610.885 329.708 610.885 328.805V325.239H609.235V323.626H610.885V321.924L613.223 321.643V323.626H615.753L615.524 325.239H613.223V328.805C613.223 329.195 613.312 329.473 613.489 329.641C613.667 329.809 613.95 329.893 614.34 329.893C614.616 329.893 614.868 329.861 615.095 329.797C615.327 329.727 615.534 329.641 615.716 329.538L616.493 331.025ZM623.095 323.626V329.885H625.092V331.484H618.53V329.885H620.757V325.224H618.604V323.626H623.095ZM621.682 319.512C622.086 319.512 622.416 319.638 622.673 319.889C622.929 320.141 623.058 320.454 623.058 320.829C623.058 321.204 622.929 321.52 622.673 321.776C622.416 322.028 622.086 322.153 621.682 322.153C621.272 322.153 620.937 322.028 620.675 321.776C620.419 321.52 620.291 321.204 620.291 320.829C620.291 320.454 620.419 320.141 620.675 319.889C620.937 319.638 621.272 319.512 621.682 319.512ZM631.265 320.503V329.012C631.265 329.328 631.354 329.555 631.531 329.693C631.714 329.826 631.963 329.893 632.279 329.893C632.481 329.893 632.676 329.871 632.863 329.826C633.05 329.777 633.226 329.72 633.388 329.656L633.951 331.217C633.684 331.355 633.364 331.476 632.989 331.58C632.614 331.683 632.177 331.735 631.679 331.735C630.732 331.735 630.037 331.464 629.593 330.921C629.149 330.374 628.927 329.641 628.927 328.724V322.102H626.611V320.503H631.265ZM640.138 320.503V329.012C640.138 329.328 640.227 329.555 640.404 329.693C640.587 329.826 640.836 329.893 641.152 329.893C641.354 329.893 641.549 329.871 641.736 329.826C641.923 329.777 642.099 329.72 642.261 329.656L642.824 331.217C642.557 331.355 642.237 331.476 641.862 331.58C641.487 331.683 641.05 331.735 640.552 331.735C639.605 331.735 638.91 331.464 638.466 330.921C638.022 330.374 637.8 329.641 637.8 328.724V322.102H635.484V320.503H640.138ZM651.527 329.219C651.527 329.515 651.566 329.73 651.645 329.863C651.729 329.996 651.862 330.097 652.044 330.166L651.563 331.705C651.1 331.661 650.708 331.56 650.387 331.402C650.071 331.239 649.822 330.995 649.64 330.67C649.339 331.03 648.954 331.299 648.486 331.476C648.017 331.649 647.538 331.735 647.05 331.735C646.241 331.735 645.595 331.506 645.112 331.047C644.633 330.583 644.394 329.989 644.394 329.264C644.394 328.41 644.727 327.752 645.393 327.288C646.064 326.825 647.006 326.593 648.219 326.593H649.277V326.297C649.277 325.887 649.144 325.584 648.878 325.387C648.616 325.189 648.231 325.091 647.723 325.091C647.472 325.091 647.149 325.128 646.754 325.202C646.36 325.271 645.965 325.372 645.57 325.505L645.03 323.951C645.538 323.759 646.066 323.613 646.614 323.515C647.166 323.416 647.659 323.367 648.093 323.367C649.262 323.367 650.126 323.606 650.683 324.085C651.245 324.558 651.527 325.244 651.527 326.141V329.219ZM647.857 330.063C648.108 330.063 648.372 329.989 648.648 329.841C648.925 329.688 649.134 329.473 649.277 329.197V327.925H648.7C648.049 327.925 647.571 328.026 647.265 328.228C646.959 328.425 646.806 328.716 646.806 329.101C646.806 329.402 646.897 329.639 647.08 329.811C647.267 329.979 647.526 330.063 647.857 330.063ZM653.985 327.762V325.942H660.392V327.762H653.985ZM669.665 321.229L670.242 331.484H668.126L668 327.096C667.99 326.687 667.985 326.321 667.985 326.001C667.99 325.68 667.997 325.379 668.007 325.098C668.017 324.812 668.032 324.526 668.052 324.24C668.076 323.949 668.101 323.633 668.126 323.293L666.971 329.737H665.137L663.893 323.293C663.923 323.618 663.948 323.927 663.967 324.218C663.992 324.504 664.009 324.792 664.019 325.083C664.029 325.374 664.037 325.688 664.041 326.023C664.046 326.354 664.044 326.724 664.034 327.133L663.96 331.484H661.881L662.458 321.229H664.952L666.091 327.858L667.171 321.229H669.665ZM678.146 329.219C678.146 329.515 678.185 329.73 678.264 329.863C678.348 329.996 678.481 330.097 678.663 330.166L678.183 331.705C677.719 331.661 677.327 331.56 677.006 331.402C676.69 331.239 676.441 330.995 676.259 330.67C675.958 331.03 675.573 331.299 675.105 331.476C674.636 331.649 674.157 331.735 673.669 331.735C672.86 331.735 672.214 331.506 671.731 331.047C671.252 330.583 671.013 329.989 671.013 329.264C671.013 328.41 671.346 327.752 672.012 327.288C672.683 326.825 673.625 326.593 674.838 326.593H675.896V326.297C675.896 325.887 675.763 325.584 675.497 325.387C675.235 325.189 674.851 325.091 674.342 325.091C674.091 325.091 673.768 325.128 673.373 325.202C672.979 325.271 672.584 325.372 672.189 325.505L671.649 323.951C672.157 323.759 672.685 323.613 673.233 323.515C673.785 323.416 674.278 323.367 674.712 323.367C675.881 323.367 676.745 323.606 677.302 324.085C677.864 324.558 678.146 325.244 678.146 326.141V329.219ZM674.476 330.063C674.727 330.063 674.991 329.989 675.267 329.841C675.544 329.688 675.753 329.473 675.896 329.197V327.925H675.319C674.668 327.925 674.19 328.026 673.884 328.228C673.578 328.425 673.425 328.716 673.425 329.101C673.425 329.402 673.516 329.639 673.699 329.811C673.886 329.979 674.145 330.063 674.476 330.063ZM680.478 331.484V329.915H681.514V325.18H680.478V323.626H683.297L683.726 325.394C684.007 324.718 684.365 324.215 684.799 323.885C685.238 323.554 685.773 323.389 686.404 323.389C686.671 323.389 686.908 323.411 687.115 323.456C687.322 323.495 687.517 323.552 687.699 323.626L686.989 325.557C686.846 325.517 686.703 325.488 686.56 325.468C686.417 325.448 686.259 325.439 686.086 325.439C685.573 325.439 685.122 325.648 684.732 326.067C684.348 326.487 684.054 327.019 683.852 327.666V329.915H685.406V331.484H680.478ZM685.798 326.911V324.617L686.145 323.626H687.699L687.263 326.911H685.798ZM696.35 331.025C696.044 331.222 695.675 331.39 695.24 331.528C694.806 331.666 694.318 331.735 693.775 331.735C692.749 331.735 691.987 331.474 691.489 330.951C690.991 330.423 690.742 329.708 690.742 328.805V325.239H689.092V323.626H690.742V321.924L693.08 321.643V323.626H695.61L695.381 325.239H693.08V328.805C693.08 329.195 693.169 329.473 693.346 329.641C693.524 329.809 693.808 329.893 694.197 329.893C694.473 329.893 694.725 329.861 694.952 329.797C695.184 329.727 695.391 329.641 695.573 329.538L696.35 331.025ZM702.952 323.626V329.885H704.95V331.484H698.387V329.885H700.614V325.224H698.461V323.626H702.952ZM702.663 319.127L703.573 320.888L700.081 322.272L699.437 321.088L702.663 319.127ZM707.023 331.484V323.626H709.065L709.228 324.536C709.578 324.141 709.948 323.848 710.338 323.655C710.727 323.463 711.171 323.367 711.669 323.367C712.34 323.367 712.868 323.572 713.253 323.981C713.638 324.39 713.83 324.967 713.83 325.712V331.484H711.492V326.386C711.492 326.065 711.47 325.811 711.425 325.624C711.381 325.431 711.302 325.295 711.189 325.217C711.08 325.133 710.93 325.091 710.737 325.091C710.574 325.091 710.414 325.128 710.256 325.202C710.103 325.271 709.953 325.372 709.805 325.505C709.657 325.638 709.509 325.799 709.361 325.986V331.484H707.023ZM717.923 328.235C717.977 328.665 718.088 329.012 718.256 329.279C718.429 329.54 718.648 329.732 718.915 329.856C719.181 329.974 719.479 330.033 719.81 330.033C720.17 330.033 720.518 329.974 720.853 329.856C721.189 329.737 721.512 329.58 721.822 329.382L722.762 330.655C722.392 330.971 721.943 331.229 721.416 331.432C720.893 331.634 720.296 331.735 719.625 331.735C718.727 331.735 717.975 331.558 717.368 331.202C716.762 330.842 716.305 330.349 715.999 329.723C715.694 329.096 715.541 328.376 715.541 327.562C715.541 326.788 715.689 326.085 715.985 325.453C716.281 324.817 716.712 324.311 717.28 323.937C717.852 323.557 718.55 323.367 719.373 323.367C720.123 323.367 720.772 323.527 721.319 323.848C721.872 324.168 722.299 324.63 722.599 325.231C722.905 325.833 723.058 326.556 723.058 327.399C723.058 327.532 723.053 327.676 723.043 327.828C723.038 327.981 723.029 328.117 723.014 328.235H717.923ZM719.373 324.935C718.954 324.935 718.616 325.086 718.36 325.387C718.103 325.688 717.948 326.169 717.894 326.83H720.779C720.774 326.257 720.663 325.799 720.446 325.453C720.229 325.108 719.872 324.935 719.373 324.935ZM727.558 329.715H731.495L731.273 331.484H724.798V329.834L728.698 325.387H725.124V323.626H731.421V325.268L727.558 329.715ZM746.673 318.165V335.923H745.164V318.165H746.673ZM763.443 321.066C764.182 321.066 764.814 321.174 765.337 321.391C765.86 321.603 766.291 321.902 766.631 322.287C766.977 322.666 767.246 323.115 767.438 323.633C767.63 324.151 767.766 324.713 767.845 325.32C767.924 325.927 767.963 326.556 767.963 327.207C767.963 328.45 767.904 329.491 767.786 330.329C767.667 331.163 767.445 331.789 767.12 332.209C766.799 332.633 766.336 332.845 765.729 332.845C765.433 332.845 765.174 332.778 764.952 332.645C764.735 332.512 764.555 332.339 764.412 332.127C764.274 331.92 764.168 331.696 764.094 331.454C764.025 331.207 763.985 330.975 763.975 330.758H763.916C763.817 330.995 763.682 331.222 763.509 331.439C763.336 331.656 763.117 331.834 762.851 331.972C762.584 332.11 762.259 332.179 761.874 332.179C761.321 332.179 760.878 332.031 760.542 331.735C760.207 331.444 759.963 331.042 759.81 330.529C759.657 330.016 759.58 329.436 759.58 328.79C759.58 327.532 759.837 326.573 760.35 325.912C760.863 325.246 761.605 324.913 762.577 324.913C762.942 324.913 763.302 324.958 763.657 325.046C764.017 325.13 764.404 325.283 764.819 325.505V329.9C764.819 330.369 764.856 330.731 764.93 330.988C765.004 331.244 765.105 331.422 765.233 331.521C765.366 331.619 765.517 331.668 765.684 331.668C765.882 331.668 766.035 331.567 766.143 331.365C766.257 331.163 766.338 330.872 766.387 330.492C766.437 330.107 766.466 329.644 766.476 329.101C766.486 328.558 766.491 327.947 766.491 327.266C766.491 326.536 766.449 325.868 766.365 325.261C766.286 324.649 766.136 324.122 765.914 323.678C765.697 323.234 765.386 322.891 764.982 322.649C764.577 322.407 764.052 322.287 763.406 322.287C762.907 322.287 762.382 322.38 761.83 322.568C761.282 322.755 760.705 323.115 760.098 323.648L759.299 322.723C759.97 322.141 760.648 321.719 761.334 321.458C762.024 321.196 762.727 321.066 763.443 321.066ZM762.599 326.038C762.032 326.038 761.645 326.26 761.437 326.704C761.23 327.143 761.127 327.838 761.127 328.79C761.127 329.264 761.156 329.668 761.215 330.004C761.275 330.339 761.378 330.596 761.526 330.773C761.674 330.951 761.874 331.04 762.126 331.04C762.426 331.04 762.661 330.971 762.828 330.832C762.996 330.694 763.122 330.532 763.206 330.344C763.29 330.152 763.354 329.984 763.398 329.841V326.23C763.265 326.161 763.137 326.112 763.013 326.082C762.89 326.053 762.752 326.038 762.599 326.038ZM775.897 321.229V327.791C775.897 328.388 775.805 328.928 775.623 329.412C775.44 329.895 775.172 330.307 774.816 330.647C774.466 330.988 774.035 331.249 773.522 331.432C773.013 331.614 772.431 331.705 771.775 331.705C771.114 331.705 770.542 331.622 770.059 331.454C769.58 331.281 769.119 331.045 768.675 330.744L769.6 329.249C769.95 329.491 770.278 329.661 770.584 329.76C770.89 329.853 771.238 329.9 771.627 329.9C772.155 329.9 772.594 329.732 772.944 329.397C773.3 329.057 773.477 328.531 773.477 327.821V323.004H770.325V321.229H775.897ZM781.41 323.367C782.219 323.367 782.908 323.539 783.475 323.885C784.042 324.23 784.476 324.716 784.777 325.342C785.078 325.964 785.228 326.694 785.228 327.532C785.228 328.406 785.075 329.158 784.77 329.789C784.469 330.416 784.035 330.897 783.467 331.232C782.9 331.567 782.215 331.735 781.41 331.735C780.611 331.735 779.926 331.57 779.354 331.239C778.786 330.909 778.35 330.43 778.044 329.804C777.743 329.178 777.593 328.425 777.593 327.547C777.593 326.714 777.743 325.984 778.044 325.357C778.35 324.731 778.786 324.242 779.354 323.892C779.926 323.542 780.611 323.367 781.41 323.367ZM781.41 325.091C780.932 325.091 780.577 325.288 780.345 325.683C780.118 326.072 780.005 326.694 780.005 327.547C780.005 328.415 780.118 329.044 780.345 329.434C780.577 329.824 780.932 330.019 781.41 330.019C781.889 330.019 782.242 329.824 782.469 329.434C782.7 329.044 782.816 328.41 782.816 327.532C782.816 326.684 782.7 326.065 782.469 325.675C782.242 325.286 781.889 325.091 781.41 325.091ZM788.907 328.235C788.962 328.665 789.073 329.012 789.24 329.279C789.413 329.54 789.632 329.732 789.899 329.856C790.165 329.974 790.464 330.033 790.794 330.033C791.154 330.033 791.502 329.974 791.837 329.856C792.173 329.737 792.496 329.58 792.807 329.382L793.746 330.655C793.376 330.971 792.927 331.229 792.4 331.432C791.877 331.634 791.28 331.735 790.609 331.735C789.711 331.735 788.959 331.558 788.352 331.202C787.746 330.842 787.289 330.349 786.984 329.723C786.678 329.096 786.525 328.376 786.525 327.562C786.525 326.788 786.673 326.085 786.969 325.453C787.265 324.817 787.696 324.311 788.264 323.937C788.836 323.557 789.534 323.367 790.358 323.367C791.107 323.367 791.756 323.527 792.303 323.848C792.856 324.168 793.283 324.63 793.583 325.231C793.889 325.833 794.042 326.556 794.042 327.399C794.042 327.532 794.037 327.676 794.027 327.828C794.022 327.981 794.013 328.117 793.998 328.235H788.907ZM790.358 324.935C789.938 324.935 789.6 325.086 789.344 325.387C789.087 325.688 788.932 326.169 788.878 326.83H791.763C791.758 326.257 791.647 325.799 791.43 325.453C791.213 325.108 790.856 324.935 790.358 324.935ZM800.747 324.573C800.747 324.208 800.678 323.907 800.54 323.67C800.407 323.428 800.202 323.251 799.926 323.137C799.655 323.019 799.312 322.96 798.898 322.96H798.069V326.312H799.023C799.383 326.312 799.692 326.25 799.948 326.127C800.205 326.003 800.402 325.813 800.54 325.557C800.678 325.3 800.747 324.972 800.747 324.573ZM803.248 324.565C803.248 325.36 803.078 326.016 802.738 326.534C802.397 327.052 801.921 327.439 801.31 327.695C800.698 327.947 799.988 328.073 799.179 328.073H798.069V331.484H795.642V321.229H798.868C800.259 321.229 801.337 321.505 802.101 322.057C802.866 322.61 803.248 323.446 803.248 324.565ZM808.03 323.367C808.839 323.367 809.527 323.539 810.094 323.885C810.661 324.23 811.095 324.716 811.396 325.342C811.697 325.964 811.847 326.694 811.847 327.532C811.847 328.406 811.695 329.158 811.389 329.789C811.088 330.416 810.654 330.897 810.086 331.232C809.519 331.567 808.834 331.735 808.03 331.735C807.23 331.735 806.545 331.57 805.973 331.239C805.405 330.909 804.969 330.43 804.663 329.804C804.362 329.178 804.212 328.425 804.212 327.547C804.212 326.714 804.362 325.984 804.663 325.357C804.969 324.731 805.405 324.242 805.973 323.892C806.545 323.542 807.23 323.367 808.03 323.367ZM808.03 325.091C807.551 325.091 807.196 325.288 806.964 325.683C806.737 326.072 806.624 326.694 806.624 327.547C806.624 328.415 806.737 329.044 806.964 329.434C807.196 329.824 807.551 330.019 808.03 330.019C808.508 330.019 808.861 329.824 809.088 329.434C809.319 329.044 809.435 328.41 809.435 327.532C809.435 326.684 809.319 326.065 809.088 325.675C808.861 325.286 808.508 325.091 808.03 325.091ZM813.573 331.484V329.915H814.609V325.18H813.573V323.626H816.392L816.821 325.394C817.102 324.718 817.46 324.215 817.894 323.885C818.333 323.554 818.868 323.389 819.5 323.389C819.766 323.389 820.003 323.411 820.21 323.456C820.417 323.495 820.612 323.552 820.794 323.626L820.084 325.557C819.941 325.517 819.798 325.488 819.655 325.468C819.512 325.448 819.354 325.439 819.181 325.439C818.668 325.439 818.217 325.648 817.827 326.067C817.443 326.487 817.149 327.019 816.947 327.666V329.915H818.501V331.484H813.573ZM818.893 326.911V324.617L819.241 323.626H820.794L820.358 326.911H818.893ZM829.445 331.025C829.14 331.222 828.77 331.39 828.336 331.528C827.902 331.666 827.413 331.735 826.871 331.735C825.845 331.735 825.083 331.474 824.584 330.951C824.086 330.423 823.837 329.708 823.837 328.805V325.239H822.187V323.626H823.837V321.924L826.175 321.643V323.626H828.706L828.476 325.239H826.175V328.805C826.175 329.195 826.264 329.473 826.441 329.641C826.619 329.809 826.903 329.893 827.292 329.893C827.569 329.893 827.82 329.861 828.047 329.797C828.279 329.727 828.486 329.641 828.669 329.538L829.445 331.025ZM836.047 323.626V329.885H838.045V331.484H831.482V329.885H833.709V325.224H831.556V323.626H836.047ZM834.634 319.512C835.038 319.512 835.369 319.638 835.625 319.889C835.882 320.141 836.01 320.454 836.01 320.829C836.01 321.204 835.882 321.52 835.625 321.776C835.369 322.028 835.038 322.153 834.634 322.153C834.224 322.153 833.889 322.028 833.628 321.776C833.371 321.52 833.243 321.204 833.243 320.829C833.243 320.454 833.371 320.141 833.628 319.889C833.889 319.638 834.224 319.512 834.634 319.512ZM844.217 320.503V329.012C844.217 329.328 844.306 329.555 844.483 329.693C844.666 329.826 844.915 329.893 845.231 329.893C845.433 329.893 845.628 329.871 845.815 329.826C846.003 329.777 846.178 329.72 846.341 329.656L846.903 331.217C846.637 331.355 846.316 331.476 845.941 331.58C845.566 331.683 845.13 331.735 844.631 331.735C843.684 331.735 842.989 331.464 842.545 330.921C842.101 330.374 841.879 329.641 841.879 328.724V322.102H839.563V320.503H844.217ZM853.09 320.503V329.012C853.09 329.328 853.179 329.555 853.356 329.693C853.539 329.826 853.788 329.893 854.104 329.893C854.306 329.893 854.501 329.871 854.688 329.826C854.876 329.777 855.051 329.72 855.214 329.656L855.776 331.217C855.51 331.355 855.189 331.476 854.814 331.58C854.439 331.683 854.003 331.735 853.504 331.735C852.557 331.735 851.862 331.464 851.418 330.921C850.974 330.374 850.752 329.641 850.752 328.724V322.102H848.436V320.503H853.09ZM864.479 329.219C864.479 329.515 864.518 329.73 864.597 329.863C864.681 329.996 864.814 330.097 864.997 330.166L864.516 331.705C864.052 331.661 863.66 331.56 863.339 331.402C863.024 331.239 862.775 330.995 862.592 330.67C862.291 331.03 861.906 331.299 861.438 331.476C860.969 331.649 860.491 331.735 860.002 331.735C859.193 331.735 858.547 331.506 858.064 331.047C857.585 330.583 857.346 329.989 857.346 329.264C857.346 328.41 857.679 327.752 858.345 327.288C859.016 326.825 859.958 326.593 861.171 326.593H862.229V326.297C862.229 325.887 862.096 325.584 861.83 325.387C861.568 325.189 861.184 325.091 860.676 325.091C860.424 325.091 860.101 325.128 859.706 325.202C859.312 325.271 858.917 325.372 858.523 325.505L857.982 323.951C858.49 323.759 859.018 323.613 859.566 323.515C860.118 323.416 860.612 323.367 861.046 323.367C862.215 323.367 863.078 323.606 863.635 324.085C864.198 324.558 864.479 325.244 864.479 326.141V329.219ZM860.809 330.063C861.06 330.063 861.324 329.989 861.601 329.841C861.877 329.688 862.086 329.473 862.229 329.197V327.925H861.652C861.001 327.925 860.523 328.026 860.217 328.228C859.911 328.425 859.758 328.716 859.758 329.101C859.758 329.402 859.849 329.639 860.032 329.811C860.219 329.979 860.478 330.063 860.809 330.063Z" fill="black"/>
<path d="M510.543 23.583L496.235 48.3657L524.852 48.3657L510.543 23.583ZM510.543 282.562L513.022 282.562L513.022 45.8874L510.543 45.8874L508.065 45.8874L508.065 282.562L510.543 282.562Z" fill="black"/>
<path d="M700.131 282.562L675.348 268.253L675.348 296.87L700.131 282.562ZM510.543 282.562L510.543 285.04L677.826 285.04L677.826 282.562L677.826 280.083L510.543 280.083L510.543 282.562Z" fill="black"/>
<rect x="616.489" y="252.203" width="30.9783" height="30.9783" stroke="black" stroke-width="1.23913"/>
<path d="M549.576 282.562C550.196 274.714 548.337 255.92 535.946 243.529" stroke="black" stroke-width="1.23913"/>
<path d="M712.678 276.721C713.332 276.625 713.996 276.721 714.67 277.01C715.189 277.241 715.584 277.568 715.853 277.991L715.969 278.136L716.084 277.963C716.566 277.385 717.153 276.991 717.845 276.779C718.692 276.548 719.462 276.702 720.155 277.241C720.29 277.337 720.405 277.443 720.502 277.558C720.733 277.828 720.886 278.145 720.963 278.511C721.156 279.146 721.108 279.772 720.819 280.388C720.511 281.042 719.992 281.408 719.26 281.485C718.644 281.542 718.221 281.321 717.99 280.821C717.932 280.724 717.894 280.57 717.874 280.359C717.874 280.032 717.942 279.733 718.076 279.464C718.23 279.117 718.51 278.838 718.914 278.627C719.087 278.55 719.174 278.492 719.174 278.453C719.097 278.338 718.962 278.232 718.769 278.136C718.673 278.097 718.529 278.078 718.336 278.078C718.144 278.078 717.999 278.097 717.903 278.136C717.422 278.405 717.047 278.915 716.777 279.666L715.103 286.335C714.968 286.932 714.939 287.374 715.016 287.663C715.17 288.183 715.584 288.433 716.258 288.414C716.489 288.394 716.71 288.346 716.922 288.269C717.692 287.981 718.327 287.316 718.827 286.277C718.962 286.008 719.068 285.738 719.145 285.469C719.222 285.219 719.308 285.084 719.404 285.065C719.462 285.045 719.664 285.036 720.011 285.036C720.434 285.036 720.665 285.055 720.704 285.093C720.8 285.17 720.809 285.334 720.733 285.584C720.579 286.219 720.309 286.806 719.924 287.345C718.923 288.808 717.701 289.616 716.258 289.77C716.219 289.77 716.181 289.77 716.142 289.77C715.026 289.828 714.131 289.463 713.457 288.673C713.419 288.654 713.39 288.625 713.371 288.587C713.255 288.452 713.188 288.375 713.169 288.356L712.995 288.558C712.726 288.866 712.456 289.097 712.187 289.251C711.61 289.616 711.042 289.79 710.484 289.77C710.118 289.751 709.752 289.655 709.387 289.482C708.771 289.193 708.366 288.673 708.174 287.923C707.962 286.96 708.135 286.162 708.694 285.527C709.233 285.007 709.82 284.843 710.455 285.036C710.686 285.113 710.869 285.228 711.003 285.382C711.369 285.786 711.388 286.325 711.061 286.999C710.888 287.365 710.618 287.644 710.253 287.836C710.079 287.932 709.983 287.981 709.964 287.981C709.964 288.057 710.108 288.173 710.397 288.327C710.474 288.365 710.609 288.385 710.801 288.385C710.994 288.385 711.138 288.365 711.234 288.327C711.715 288.077 712.081 287.576 712.331 286.826L714.064 280.012C714.102 279.82 714.121 279.55 714.121 279.204C714.121 278.935 714.102 278.752 714.064 278.655C713.833 278.155 713.342 277.972 712.591 278.107C711.879 278.242 711.244 278.723 710.686 279.55C710.358 280.07 710.118 280.609 709.964 281.167C709.906 281.283 709.868 281.35 709.848 281.369C709.81 281.408 709.579 281.427 709.156 281.427H708.52L708.434 281.34C708.376 281.283 708.347 281.206 708.347 281.109C708.424 280.609 708.694 280.003 709.156 279.291C709.175 279.252 709.194 279.214 709.213 279.175C710.06 277.847 711.148 277.039 712.476 276.75C712.553 276.75 712.62 276.74 712.678 276.721Z" fill="black"/>
<path d="M492.543 17.7715C492.678 17.733 492.89 17.7137 493.178 17.7137C493.621 17.733 494.006 17.8292 494.333 18.0024C494.583 18.1372 494.776 18.2815 494.91 18.4355C495.064 18.5702 495.209 18.7627 495.343 19.0129C495.517 19.3786 495.594 19.7635 495.574 20.1677C495.574 20.5526 495.449 21.0819 495.199 21.7556C495.18 21.8518 495.141 21.9673 495.084 22.102C494.141 24.7196 493.669 26.5095 493.669 27.4719C493.669 27.5489 493.669 27.6162 493.669 27.674C493.688 28.3283 493.842 28.8095 494.131 29.1175C494.343 29.3099 494.631 29.4062 494.997 29.4062C495.382 29.4062 495.719 29.3292 496.007 29.1752C496.508 28.925 496.941 28.5208 497.307 27.9627L497.48 27.674L498.548 23.4012C499.299 20.4179 499.732 18.8397 499.847 18.6665C499.866 18.628 499.915 18.5702 499.992 18.4932C500.415 18.0698 500.896 17.9255 501.435 18.0602C501.897 18.2142 502.147 18.5125 502.186 18.9552C502.186 19.0899 501.705 21.1012 500.742 24.989C499.799 28.7614 499.27 30.8208 499.154 31.1672C498.962 31.8024 498.664 32.399 498.259 32.9572C498.125 33.1882 497.971 33.4095 497.797 33.6212C497.413 34.1024 496.999 34.5162 496.556 34.8626C495.728 35.5555 494.843 36.0078 493.9 36.2195C493.554 36.3158 493.12 36.3639 492.601 36.3639C492.197 36.3639 491.898 36.3446 491.706 36.3061C490.416 36.0174 489.685 35.3246 489.512 34.2275C489.454 33.7463 489.521 33.2748 489.714 32.8128C490.022 32.1777 490.541 31.8216 491.273 31.7447C491.889 31.6869 492.312 31.9083 492.543 32.4087C492.601 32.5049 492.639 32.6589 492.659 32.8706C492.678 33.371 492.495 33.8329 492.11 34.2564C491.937 34.3911 491.802 34.4873 491.706 34.5451C491.629 34.5836 491.581 34.6124 491.561 34.6317L492.052 34.9204C492.841 35.1898 493.64 35.0359 494.449 34.4584C495.449 33.7078 496.21 32.4568 496.729 30.7053C496.768 30.4936 496.806 30.3493 496.845 30.2723V30.1568L496.614 30.2723C495.69 30.8112 494.67 30.9363 493.554 30.6476C492.283 30.3396 491.504 29.512 491.215 28.1648C491.138 27.6643 491.138 27.0677 491.215 26.3748C491.234 26.3171 491.244 26.2689 491.244 26.2304C491.398 25.2681 491.85 23.7957 492.601 21.8133C492.947 20.7932 493.14 20.1388 493.178 19.8501C493.274 19.4075 493.226 19.1573 493.034 19.0995C492.803 19.0225 492.533 19.0706 492.226 19.2439C491.821 19.4941 491.504 19.8886 491.273 20.4275C491.08 20.774 490.869 21.361 490.638 22.1886C490.58 22.3041 490.541 22.3715 490.522 22.3907C490.484 22.4292 490.253 22.4485 489.829 22.4485H489.194L489.108 22.3618C489.05 22.3041 489.021 22.2271 489.021 22.1309C489.059 21.8229 489.223 21.3418 489.512 20.6874C489.743 20.187 489.983 19.7732 490.233 19.446C490.484 19.0995 490.801 18.7531 491.186 18.4066C491.61 18.0794 492.062 17.8677 492.543 17.7715Z" fill="black"/>
<path d="M571.577 141.209C571.635 141.17 571.875 141.151 572.299 141.151C572.761 141.151 573.021 141.199 573.078 141.296C573.117 141.334 573.3 144.462 573.627 150.678C573.935 156.876 574.108 159.994 574.147 160.032C574.204 160.09 574.262 160.119 574.32 160.119C574.531 160.177 575.022 160.206 575.792 160.206C576.158 160.206 576.36 160.225 576.398 160.263C576.514 160.302 576.572 160.388 576.572 160.523L576.283 161.649C576.206 161.765 576.013 161.813 575.706 161.793C575.629 161.793 575.465 161.793 575.215 161.793C573.906 161.716 572.154 161.707 569.96 161.765C569.768 161.784 569.604 161.793 569.47 161.793C568.834 161.813 568.478 161.765 568.401 161.649C568.363 161.591 568.382 161.37 568.459 160.985C568.555 160.581 568.642 160.34 568.719 160.263C568.777 160.225 568.931 160.206 569.181 160.206C569.97 160.206 570.518 160.129 570.826 159.975L570.971 159.917V159.686L570.855 157.896C570.817 156.837 570.788 156.289 570.769 156.25V156.164H567.824H564.85L564.042 157.636C563.484 158.637 563.185 159.224 563.147 159.397C563.051 159.724 563.282 159.965 563.84 160.119C563.994 160.157 564.167 160.186 564.36 160.206C564.629 160.206 564.793 160.273 564.85 160.408C564.87 160.504 564.831 160.725 564.735 161.072C564.658 161.437 564.581 161.659 564.504 161.736L564.417 161.822H564.042C562.329 161.726 560.597 161.716 558.845 161.793C558.422 161.813 558.181 161.765 558.124 161.649C558.085 161.591 558.104 161.37 558.181 160.985C558.297 160.542 558.403 160.302 558.499 160.263C558.557 160.244 558.701 160.225 558.932 160.206C560.164 160.148 561.049 159.734 561.588 158.964C561.703 158.81 563.349 155.846 566.525 150.072L571.346 141.353C571.423 141.296 571.5 141.247 571.577 141.209ZM570.509 150.592C570.355 147.897 570.278 146.54 570.278 146.521V146.348L567.997 150.447L565.745 154.518L568.199 154.547C569.854 154.547 570.682 154.537 570.682 154.518L570.509 150.592Z" fill="black"/>
<path d="M668.302 178.569C668.346 178.54 668.529 178.525 668.851 178.525C669.202 178.525 669.399 178.562 669.443 178.635C669.472 178.664 669.611 181.041 669.86 185.766C670.094 190.476 670.226 192.846 670.255 192.875C670.299 192.919 670.343 192.941 670.387 192.941C670.548 192.985 670.921 193.007 671.506 193.007C671.784 193.007 671.937 193.021 671.966 193.051C672.054 193.08 672.098 193.146 672.098 193.248L671.879 194.104C671.82 194.191 671.674 194.228 671.44 194.213C671.381 194.213 671.257 194.213 671.067 194.213C670.072 194.155 668.741 194.148 667.074 194.191C666.927 194.206 666.803 194.213 666.701 194.213C666.218 194.228 665.947 194.191 665.889 194.104C665.859 194.06 665.874 193.892 665.933 193.599C666.006 193.292 666.072 193.109 666.13 193.051C666.174 193.021 666.291 193.007 666.481 193.007C667.081 193.007 667.498 192.948 667.732 192.831L667.841 192.787V192.612L667.754 191.251C667.724 190.447 667.703 190.03 667.688 190.001V189.935H665.45H663.19L662.576 191.054C662.151 191.814 661.925 192.261 661.895 192.392C661.822 192.641 661.998 192.824 662.422 192.941C662.539 192.97 662.671 192.992 662.817 193.007C663.022 193.007 663.146 193.058 663.19 193.16C663.205 193.233 663.175 193.402 663.102 193.665C663.044 193.943 662.985 194.111 662.927 194.17L662.861 194.235H662.576C661.274 194.162 659.957 194.155 658.626 194.213C658.304 194.228 658.121 194.191 658.078 194.104C658.048 194.06 658.063 193.892 658.121 193.599C658.209 193.263 658.29 193.08 658.363 193.051C658.407 193.036 658.516 193.021 658.692 193.007C659.628 192.963 660.301 192.648 660.711 192.063C660.798 191.946 662.049 189.693 664.463 185.305L668.127 178.679C668.185 178.635 668.244 178.598 668.302 178.569ZM667.49 185.7C667.373 183.652 667.315 182.621 667.315 182.606V182.475L665.582 185.59L663.87 188.684L665.735 188.706C666.993 188.706 667.622 188.699 667.622 188.684L667.49 185.7ZM675.595 193.443C675.656 193.425 675.753 193.417 675.884 193.417C676.086 193.425 676.262 193.469 676.411 193.548C676.525 193.61 676.613 193.675 676.674 193.746C676.744 193.807 676.81 193.895 676.872 194.009C676.951 194.176 676.986 194.351 676.977 194.536C676.977 194.711 676.92 194.952 676.806 195.26C676.797 195.303 676.78 195.356 676.753 195.418C676.323 196.611 676.108 197.427 676.108 197.866C676.108 197.901 676.108 197.932 676.108 197.958C676.117 198.257 676.187 198.476 676.319 198.617C676.415 198.704 676.547 198.748 676.714 198.748C676.889 198.748 677.043 198.713 677.175 198.643C677.403 198.529 677.6 198.345 677.767 198.09L677.846 197.958L678.333 196.01C678.675 194.65 678.873 193.93 678.925 193.851C678.934 193.833 678.956 193.807 678.991 193.772C679.184 193.579 679.404 193.513 679.65 193.574C679.86 193.645 679.974 193.781 679.992 193.983C679.992 194.044 679.772 194.961 679.334 196.734C678.904 198.454 678.662 199.393 678.61 199.551C678.522 199.841 678.386 200.113 678.201 200.368C678.14 200.473 678.07 200.574 677.991 200.67C677.815 200.89 677.627 201.078 677.425 201.236C677.047 201.552 676.644 201.759 676.214 201.855C676.056 201.899 675.858 201.921 675.621 201.921C675.437 201.921 675.301 201.912 675.213 201.895C674.625 201.763 674.291 201.447 674.212 200.947C674.186 200.727 674.217 200.512 674.305 200.302C674.445 200.012 674.682 199.85 675.016 199.815C675.296 199.788 675.489 199.889 675.595 200.117C675.621 200.161 675.639 200.231 675.647 200.328C675.656 200.556 675.573 200.767 675.397 200.96C675.318 201.021 675.257 201.065 675.213 201.092C675.178 201.109 675.156 201.122 675.147 201.131L675.371 201.263C675.731 201.386 676.095 201.315 676.464 201.052C676.92 200.71 677.267 200.139 677.504 199.341C677.521 199.244 677.539 199.178 677.556 199.143V199.091L677.451 199.143C677.03 199.389 676.565 199.446 676.056 199.314C675.476 199.174 675.121 198.797 674.989 198.182C674.954 197.954 674.954 197.682 674.989 197.366C674.998 197.34 675.002 197.318 675.002 197.3C675.073 196.861 675.279 196.19 675.621 195.286C675.779 194.821 675.867 194.522 675.884 194.391C675.928 194.189 675.906 194.075 675.819 194.048C675.713 194.013 675.59 194.035 675.45 194.114C675.266 194.228 675.121 194.408 675.016 194.654C674.928 194.812 674.831 195.08 674.726 195.457C674.7 195.51 674.682 195.54 674.673 195.549C674.656 195.567 674.55 195.576 674.357 195.576H674.068L674.028 195.536C674.002 195.51 673.989 195.475 673.989 195.431C674.006 195.29 674.081 195.071 674.212 194.772C674.318 194.544 674.427 194.356 674.542 194.206C674.656 194.048 674.8 193.89 674.976 193.732C675.169 193.583 675.375 193.487 675.595 193.443Z" fill="black"/>
<path d="M575.367 290.091C575.411 290.062 575.594 290.047 575.916 290.047C576.267 290.047 576.464 290.084 576.508 290.157C576.537 290.186 576.676 292.563 576.925 297.288C577.159 301.998 577.291 304.368 577.32 304.397C577.364 304.441 577.408 304.463 577.452 304.463C577.613 304.507 577.986 304.529 578.571 304.529C578.849 304.529 579.002 304.543 579.031 304.572C579.119 304.602 579.163 304.668 579.163 304.77L578.944 305.626C578.885 305.713 578.739 305.75 578.505 305.735C578.446 305.735 578.322 305.735 578.132 305.735C577.137 305.677 575.806 305.67 574.138 305.713C573.992 305.728 573.868 305.735 573.765 305.735C573.283 305.75 573.012 305.713 572.954 305.626C572.924 305.582 572.939 305.414 572.998 305.121C573.071 304.814 573.136 304.631 573.195 304.572C573.239 304.543 573.356 304.529 573.546 304.529C574.146 304.529 574.563 304.47 574.797 304.353L574.906 304.309V304.134L574.819 302.773C574.789 301.969 574.767 301.552 574.753 301.523V301.457H572.515H570.255L569.641 302.576C569.216 303.336 568.99 303.783 568.96 303.914C568.887 304.163 569.063 304.346 569.487 304.463C569.604 304.492 569.736 304.514 569.882 304.529C570.087 304.529 570.211 304.58 570.255 304.682C570.269 304.755 570.24 304.924 570.167 305.187C570.109 305.465 570.05 305.633 569.992 305.692L569.926 305.757H569.641C568.339 305.684 567.022 305.677 565.691 305.735C565.369 305.75 565.186 305.713 565.143 305.626C565.113 305.582 565.128 305.414 565.186 305.121C565.274 304.785 565.355 304.602 565.428 304.572C565.472 304.558 565.581 304.543 565.757 304.529C566.693 304.485 567.366 304.17 567.775 303.585C567.863 303.468 569.114 301.215 571.527 296.827L575.192 290.201C575.25 290.157 575.309 290.12 575.367 290.091ZM574.555 297.222C574.438 295.174 574.38 294.143 574.38 294.128V293.997L572.646 297.112L570.935 300.206L572.8 300.228C574.058 300.228 574.687 300.221 574.687 300.206L574.555 297.222ZM583.028 304.952C583.327 304.908 583.63 304.952 583.937 305.083C584.174 305.189 584.354 305.338 584.476 305.531L584.529 305.597L584.582 305.518C584.801 305.254 585.069 305.075 585.385 304.978C585.771 304.873 586.122 304.943 586.438 305.189C586.499 305.232 586.552 305.281 586.596 305.333C586.701 305.456 586.772 305.601 586.807 305.768C586.894 306.057 586.872 306.343 586.741 306.624C586.6 306.922 586.363 307.089 586.03 307.124C585.749 307.15 585.556 307.049 585.451 306.821C585.424 306.777 585.407 306.707 585.398 306.61C585.398 306.461 585.429 306.325 585.49 306.202C585.56 306.044 585.688 305.917 585.872 305.821C585.951 305.785 585.99 305.759 585.99 305.742C585.955 305.689 585.894 305.641 585.806 305.597C585.762 305.579 585.696 305.57 585.609 305.57C585.521 305.57 585.455 305.579 585.411 305.597C585.192 305.72 585.021 305.952 584.898 306.294L584.134 309.336C584.073 309.608 584.06 309.809 584.095 309.941C584.165 310.178 584.354 310.292 584.661 310.283C584.766 310.275 584.867 310.253 584.964 310.218C585.315 310.086 585.604 309.783 585.832 309.309C585.894 309.186 585.942 309.063 585.977 308.941C586.012 308.826 586.052 308.765 586.096 308.756C586.122 308.747 586.214 308.743 586.372 308.743C586.565 308.743 586.671 308.752 586.688 308.769C586.732 308.805 586.736 308.879 586.701 308.993C586.631 309.283 586.508 309.551 586.333 309.796C585.876 310.463 585.319 310.832 584.661 310.902C584.643 310.902 584.626 310.902 584.608 310.902C584.099 310.928 583.691 310.762 583.384 310.402C583.366 310.393 583.353 310.38 583.344 310.362C583.292 310.301 583.261 310.266 583.252 310.257L583.173 310.349C583.05 310.49 582.927 310.595 582.805 310.665C582.541 310.832 582.282 310.911 582.028 310.902C581.861 310.893 581.694 310.849 581.528 310.77C581.247 310.639 581.062 310.402 580.975 310.06C580.878 309.621 580.957 309.257 581.212 308.967C581.457 308.73 581.725 308.655 582.015 308.743C582.12 308.778 582.203 308.831 582.265 308.901C582.432 309.085 582.44 309.331 582.291 309.638C582.212 309.805 582.089 309.932 581.922 310.02C581.843 310.064 581.8 310.086 581.791 310.086C581.791 310.121 581.857 310.174 581.988 310.244C582.023 310.261 582.085 310.27 582.173 310.27C582.26 310.27 582.326 310.261 582.37 310.244C582.589 310.13 582.756 309.902 582.87 309.559L583.66 306.452C583.678 306.365 583.687 306.242 583.687 306.084C583.687 305.961 583.678 305.878 583.66 305.834C583.555 305.605 583.331 305.522 582.989 305.584C582.664 305.645 582.374 305.864 582.12 306.242C581.971 306.479 581.861 306.725 581.791 306.979C581.764 307.032 581.747 307.062 581.738 307.071C581.721 307.089 581.615 307.098 581.422 307.098H581.133L581.093 307.058C581.067 307.032 581.054 306.997 581.054 306.953C581.089 306.725 581.212 306.448 581.422 306.123C581.431 306.106 581.44 306.088 581.449 306.071C581.835 305.465 582.331 305.096 582.936 304.965C582.971 304.965 583.002 304.96 583.028 304.952Z" fill="black"/>
<path d="M648.087 282.562L635.696 275.407V289.716L648.087 282.562ZM514.217 283.801C514.901 283.801 515.456 283.246 515.456 282.562C515.456 281.877 514.901 281.322 514.217 281.322V283.801ZM519.085 281.322C518.4 281.322 517.845 281.877 517.845 282.562C517.845 283.246 518.4 283.801 519.085 283.801V281.322ZM523.953 283.801C524.637 283.801 525.192 283.246 525.192 282.562C525.192 281.877 524.637 281.322 523.953 281.322V283.801ZM528.821 281.322C528.136 281.322 527.582 281.877 527.582 282.562C527.582 283.246 528.136 283.801 528.821 283.801V281.322ZM533.689 283.801C534.373 283.801 534.928 283.246 534.928 282.562C534.928 281.877 534.373 281.322 533.689 281.322V283.801ZM538.557 281.322C537.872 281.322 537.318 281.877 537.318 282.562C537.318 283.246 537.872 283.801 538.557 283.801V281.322ZM543.425 283.801C544.109 283.801 544.664 283.246 544.664 282.562C544.664 281.877 544.109 281.322 543.425 281.322V283.801ZM548.293 281.322C547.608 281.322 547.054 281.877 547.054 282.562C547.054 283.246 547.608 283.801 548.293 283.801V281.322ZM553.161 283.801C553.845 283.801 554.4 283.246 554.4 282.562C554.4 281.877 553.845 281.322 553.161 281.322V283.801ZM558.029 281.322C557.344 281.322 556.79 281.877 556.79 282.562C556.79 283.246 557.344 283.801 558.029 283.801V281.322ZM562.897 283.801C563.581 283.801 564.136 283.246 564.136 282.562C564.136 281.877 563.581 281.322 562.897 281.322V283.801ZM567.765 281.322C567.08 281.322 566.526 281.877 566.526 282.562C566.526 283.246 567.08 283.801 567.765 283.801V281.322ZM572.633 283.801C573.317 283.801 573.872 283.246 573.872 282.562C573.872 281.877 573.317 281.322 572.633 281.322V283.801ZM577.501 281.322C576.816 281.322 576.262 281.877 576.262 282.562C576.262 283.246 576.816 283.801 577.501 283.801V281.322ZM582.369 283.801C583.053 283.801 583.608 283.246 583.608 282.562C583.608 281.877 583.053 281.322 582.369 281.322V283.801ZM587.237 281.322C586.552 281.322 585.998 281.877 585.998 282.562C585.998 283.246 586.552 283.801 587.237 283.801V281.322ZM592.105 283.801C592.789 283.801 593.344 283.246 593.344 282.562C593.344 281.877 592.789 281.322 592.105 281.322V283.801ZM596.973 281.322C596.289 281.322 595.734 281.877 595.734 282.562C595.734 283.246 596.289 283.801 596.973 283.801V281.322ZM601.841 283.801C602.525 283.801 603.08 283.246 603.08 282.562C603.08 281.877 602.525 281.322 601.841 281.322V283.801ZM606.709 281.322C606.025 281.322 605.47 281.877 605.47 282.562C605.47 283.246 606.025 283.801 606.709 283.801V281.322ZM611.577 283.801C612.261 283.801 612.816 283.246 612.816 282.562C612.816 281.877 612.261 281.322 611.577 281.322V283.801ZM616.445 281.322C615.761 281.322 615.206 281.877 615.206 282.562C615.206 283.246 615.761 283.801 616.445 283.801V281.322ZM621.313 283.801C621.997 283.801 622.552 283.246 622.552 282.562C622.552 281.877 621.997 281.322 621.313 281.322V283.801ZM626.181 281.322C625.497 281.322 624.942 281.877 624.942 282.562C624.942 283.246 625.497 283.801 626.181 283.801V281.322ZM631.049 283.801C631.733 283.801 632.288 283.246 632.288 282.562C632.288 281.877 631.733 281.322 631.049 281.322V283.801ZM635.917 281.322C635.233 281.322 634.678 281.877 634.678 282.562C634.678 283.246 635.233 283.801 635.917 283.801V281.322ZM640.785 283.801C641.469 283.801 642.024 283.246 642.024 282.562C642.024 281.877 641.469 281.322 640.785 281.322V283.801ZM645.653 281.322C644.969 281.322 644.414 281.877 644.414 282.562C644.414 283.246 644.969 283.801 645.653 283.801V281.322ZM511.783 282.562V283.801H514.217V282.562V281.322H511.783V282.562ZM519.085 282.562V283.801H523.953V282.562V281.322H519.085V282.562ZM528.821 282.562V283.801H533.689V282.562V281.322H528.821V282.562ZM538.557 282.562V283.801H543.425V282.562V281.322H538.557V282.562ZM548.293 282.562V283.801H553.161V282.562V281.322H548.293V282.562ZM558.029 282.562V283.801H562.897V282.562V281.322H558.029V282.562ZM567.765 282.562V283.801H572.633V282.562V281.322H567.765V282.562ZM577.501 282.562V283.801H582.369V282.562V281.322H577.501V282.562ZM587.237 282.562V283.801H592.105V282.562V281.322H587.237V282.562ZM596.973 282.562V283.801H601.841V282.562V281.322H596.973V282.562ZM606.709 282.562V283.801H611.577V282.562V281.322H606.709V282.562ZM616.445 282.562V283.801H621.313V282.562V281.322H616.445V282.562ZM626.181 282.562V283.801H631.049V282.562V281.322H626.181V282.562ZM635.917 282.562V283.801H640.785V282.562V281.322H635.917V282.562ZM648.087 282.562L635.696 275.407V289.716L648.087 282.562ZM514.217 283.801C514.901 283.801 515.456 283.246 515.456 282.562C515.456 281.877 514.901 281.322 514.217 281.322V283.801ZM519.085 281.322C518.4 281.322 517.845 281.877 517.845 282.562C517.845 283.246 518.4 283.801 519.085 283.801V281.322ZM523.953 283.801C524.637 283.801 525.192 283.246 525.192 282.562C525.192 281.877 524.637 281.322 523.953 281.322V283.801ZM528.821 281.322C528.136 281.322 527.582 281.877 527.582 282.562C527.582 283.246 528.136 283.801 528.821 283.801V281.322ZM533.689 283.801C534.373 283.801 534.928 283.246 534.928 282.562C534.928 281.877 534.373 281.322 533.689 281.322V283.801ZM538.557 281.322C537.872 281.322 537.318 281.877 537.318 282.562C537.318 283.246 537.872 283.801 538.557 283.801V281.322ZM543.425 283.801C544.109 283.801 544.664 283.246 544.664 282.562C544.664 281.877 544.109 281.322 543.425 281.322V283.801ZM548.293 281.322C547.608 281.322 547.054 281.877 547.054 282.562C547.054 283.246 547.608 283.801 548.293 283.801V281.322ZM553.161 283.801C553.845 283.801 554.4 283.246 554.4 282.562C554.4 281.877 553.845 281.322 553.161 281.322V283.801ZM558.029 281.322C557.344 281.322 556.79 281.877 556.79 282.562C556.79 283.246 557.344 283.801 558.029 283.801V281.322ZM562.897 283.801C563.581 283.801 564.136 283.246 564.136 282.562C564.136 281.877 563.581 281.322 562.897 281.322V283.801ZM567.765 281.322C567.08 281.322 566.526 281.877 566.526 282.562C566.526 283.246 567.08 283.801 567.765 283.801V281.322ZM572.633 283.801C573.317 283.801 573.872 283.246 573.872 282.562C573.872 281.877 573.317 281.322 572.633 281.322V283.801ZM577.501 281.322C576.816 281.322 576.262 281.877 576.262 282.562C576.262 283.246 576.816 283.801 577.501 283.801V281.322ZM582.369 283.801C583.053 283.801 583.608 283.246 583.608 282.562C583.608 281.877 583.053 281.322 582.369 281.322V283.801ZM587.237 281.322C586.552 281.322 585.998 281.877 585.998 282.562C585.998 283.246 586.552 283.801 587.237 283.801V281.322ZM592.105 283.801C592.789 283.801 593.344 283.246 593.344 282.562C593.344 281.877 592.789 281.322 592.105 281.322V283.801ZM596.973 281.322C596.289 281.322 595.734 281.877 595.734 282.562C595.734 283.246 596.289 283.801 596.973 283.801V281.322ZM601.841 283.801C602.525 283.801 603.08 283.246 603.08 282.562C603.08 281.877 602.525 281.322 601.841 281.322V283.801ZM606.709 281.322C606.025 281.322 605.47 281.877 605.47 282.562C605.47 283.246 606.025 283.801 606.709 283.801V281.322ZM611.577 283.801C612.261 283.801 612.816 283.246 612.816 282.562C612.816 281.877 612.261 281.322 611.577 281.322V283.801ZM616.445 281.322C615.761 281.322 615.206 281.877 615.206 282.562C615.206 283.246 615.761 283.801 616.445 283.801V281.322ZM621.313 283.801C621.997 283.801 622.552 283.246 622.552 282.562C622.552 281.877 621.997 281.322 621.313 281.322V283.801ZM626.181 281.322C625.497 281.322 624.942 281.877 624.942 282.562C624.942 283.246 625.497 283.801 626.181 283.801V281.322ZM631.049 283.801C631.733 283.801 632.288 283.246 632.288 282.562C632.288 281.877 631.733 281.322 631.049 281.322V283.801ZM635.917 281.322C635.233 281.322 634.678 281.877 634.678 282.562C634.678 283.246 635.233 283.801 635.917 283.801V281.322ZM640.785 283.801C641.469 283.801 642.024 283.246 642.024 282.562C642.024 281.877 641.469 281.322 640.785 281.322V283.801ZM645.653 281.322C644.969 281.322 644.414 281.877 644.414 282.562C644.414 283.246 644.969 283.801 645.653 283.801V281.322ZM511.783 282.562V283.801H514.217V282.562V281.322H511.783V282.562ZM519.085 282.562V283.801H523.953V282.562V281.322H519.085V282.562ZM528.821 282.562V283.801H533.689V282.562V281.322H528.821V282.562ZM538.557 282.562V283.801H543.425V282.562V281.322H538.557V282.562ZM548.293 282.562V283.801H553.161V282.562V281.322H548.293V282.562ZM558.029 282.562V283.801H562.897V282.562V281.322H558.029V282.562ZM567.765 282.562V283.801H572.633V282.562V281.322H567.765V282.562ZM577.501 282.562V283.801H582.369V282.562V281.322H577.501V282.562ZM587.237 282.562V283.801H592.105V282.562V281.322H587.237V282.562ZM596.973 282.562V283.801H601.841V282.562V281.322H596.973V282.562ZM606.709 282.562V283.801H611.577V282.562V281.322H606.709V282.562ZM616.445 282.562V283.801H621.313V282.562V281.322H616.445V282.562ZM626.181 282.562V283.801H631.049V282.562V281.322H626.181V282.562ZM635.917 282.562V283.801H640.785V282.562V281.322H635.917V282.562Z" fill="#8A0101"/>
<path d="M648.087 55.8005L640.933 68.1918L655.241 68.1918L648.087 55.8005ZM649.326 280.097C649.326 279.412 648.772 278.858 648.087 278.858C647.403 278.858 646.848 279.412 646.848 280.097L649.326 280.097ZM646.848 275.167C646.848 275.851 647.403 276.406 648.087 276.406C648.772 276.406 649.326 275.851 649.326 275.167L646.848 275.167ZM649.326 270.238C649.326 269.553 648.772 268.998 648.087 268.998C647.403 268.998 646.848 269.553 646.848 270.238L649.326 270.238ZM646.848 265.308C646.848 265.992 647.403 266.547 648.087 266.547C648.772 266.547 649.326 265.992 649.326 265.308L646.848 265.308ZM649.326 260.378C649.326 259.694 648.772 259.139 648.087 259.139C647.403 259.139 646.848 259.694 646.848 260.378L649.326 260.378ZM646.848 255.449C646.848 256.133 647.403 256.688 648.087 256.688C648.772 256.688 649.326 256.133 649.326 255.449L646.848 255.449ZM649.326 250.519C649.326 249.835 648.772 249.28 648.087 249.28C647.403 249.28 646.848 249.835 646.848 250.519L649.326 250.519ZM646.848 245.59C646.848 246.274 647.403 246.829 648.087 246.829C648.772 246.829 649.326 246.274 649.326 245.59L646.848 245.59ZM649.326 240.66C649.326 239.976 648.772 239.421 648.087 239.421C647.403 239.421 646.848 239.976 646.848 240.66L649.326 240.66ZM646.848 235.73C646.848 236.415 647.403 236.97 648.087 236.97C648.772 236.97 649.326 236.415 649.326 235.73L646.848 235.73ZM649.326 230.801C649.326 230.116 648.772 229.562 648.087 229.562C647.403 229.562 646.848 230.116 646.848 230.801L649.326 230.801ZM646.848 225.871C646.848 226.556 647.403 227.11 648.087 227.11C648.772 227.11 649.326 226.556 649.326 225.871L646.848 225.871ZM649.326 220.942C649.326 220.257 648.772 219.703 648.087 219.703C647.403 219.703 646.848 220.257 646.848 220.942L649.326 220.942ZM646.848 216.012C646.848 216.696 647.403 217.251 648.087 217.251C648.772 217.251 649.326 216.696 649.326 216.012L646.848 216.012ZM649.326 211.082C649.326 210.398 648.772 209.843 648.087 209.843C647.403 209.843 646.848 210.398 646.848 211.082L649.326 211.082ZM646.848 206.153C646.848 206.837 647.403 207.392 648.087 207.392C648.772 207.392 649.326 206.837 649.326 206.153L646.848 206.153ZM649.326 201.223C649.326 200.539 648.772 199.984 648.087 199.984C647.403 199.984 646.848 200.539 646.848 201.223L649.326 201.223ZM646.848 196.294C646.848 196.978 647.403 197.533 648.087 197.533C648.772 197.533 649.326 196.978 649.326 196.294L646.848 196.294ZM649.326 191.364C649.326 190.68 648.772 190.125 648.087 190.125C647.403 190.125 646.848 190.68 646.848 191.364L649.326 191.364ZM646.848 186.435C646.848 187.119 647.403 187.674 648.087 187.674C648.772 187.674 649.326 187.119 649.326 186.435L646.848 186.435ZM649.326 181.505C649.326 180.821 648.772 180.266 648.087 180.266C647.403 180.266 646.848 180.821 646.848 181.505L649.326 181.505ZM646.848 176.575C646.848 177.26 647.403 177.815 648.087 177.815C648.772 177.815 649.326 177.26 649.326 176.575L646.848 176.575ZM649.326 171.646C649.326 170.961 648.772 170.407 648.087 170.407C647.403 170.407 646.848 170.961 646.848 171.646L649.326 171.646ZM646.848 166.716C646.848 167.401 647.403 167.955 648.087 167.955C648.772 167.955 649.326 167.401 649.326 166.716L646.848 166.716ZM649.326 161.787C649.326 161.102 648.772 160.547 648.087 160.547C647.403 160.547 646.848 161.102 646.848 161.787L649.326 161.787ZM646.848 156.857C646.848 157.541 647.403 158.096 648.087 158.096C648.772 158.096 649.326 157.541 649.326 156.857L646.848 156.857ZM649.326 151.927C649.326 151.243 648.772 150.688 648.087 150.688C647.403 150.688 646.848 151.243 646.848 151.927L649.326 151.927ZM646.848 146.998C646.848 147.682 647.403 148.237 648.087 148.237C648.772 148.237 649.326 147.682 649.326 146.998L646.848 146.998ZM649.326 142.068C649.326 141.384 648.772 140.829 648.087 140.829C647.403 140.829 646.848 141.384 646.848 142.068L649.326 142.068ZM646.848 137.139C646.848 137.823 647.403 138.378 648.087 138.378C648.772 138.378 649.326 137.823 649.326 137.139L646.848 137.139ZM649.326 132.209C649.326 131.525 648.772 130.97 648.087 130.97C647.403 130.97 646.848 131.525 646.848 132.209L649.326 132.209ZM646.848 127.28C646.848 127.964 647.403 128.519 648.087 128.519C648.772 128.519 649.326 127.964 649.326 127.28L646.848 127.28ZM649.326 122.35C649.326 121.666 648.772 121.111 648.087 121.111C647.403 121.111 646.848 121.666 646.848 122.35L649.326 122.35ZM646.848 117.42C646.848 118.105 647.403 118.66 648.087 118.66C648.772 118.66 649.326 118.105 649.326 117.42L646.848 117.42ZM649.326 112.491C649.326 111.806 648.772 111.252 648.087 111.252C647.403 111.252 646.848 111.806 646.848 112.491L649.326 112.491ZM646.848 107.561C646.848 108.246 647.403 108.8 648.087 108.8C648.772 108.8 649.326 108.246 649.326 107.561L646.848 107.561ZM649.326 102.632C649.326 101.947 648.772 101.393 648.087 101.393C647.403 101.393 646.848 101.947 646.848 102.632L649.326 102.632ZM646.848 97.7021C646.848 98.3864 647.403 98.9412 648.087 98.9412C648.772 98.9412 649.326 98.3864 649.326 97.7021L646.848 97.7021ZM649.326 92.7725C649.326 92.0881 648.772 91.5333 648.087 91.5333C647.403 91.5333 646.848 92.0881 646.848 92.7725L649.326 92.7725ZM646.848 87.8429C646.848 88.5273 647.403 89.082 648.087 89.082C648.772 89.082 649.326 88.5273 649.326 87.8429L646.848 87.8429ZM649.326 82.9133C649.326 82.229 648.772 81.6742 648.087 81.6742C647.403 81.6742 646.848 82.229 646.848 82.9133L649.326 82.9133ZM646.848 77.9837C646.848 78.6681 647.403 79.2229 648.087 79.2229C648.772 79.2229 649.326 78.6681 649.326 77.9837L646.848 77.9837ZM649.326 73.0542C649.326 72.3698 648.772 71.815 648.087 71.815C647.403 71.815 646.848 72.3698 646.848 73.0542L649.326 73.0542ZM646.848 68.1246C646.848 68.8089 647.403 69.3637 648.087 69.3637C648.772 69.3637 649.326 68.8089 649.326 68.1246L646.848 68.1246ZM649.326 63.195C649.326 62.5106 648.772 61.9559 648.087 61.9559C647.403 61.9559 646.848 62.5106 646.848 63.195L649.326 63.195ZM646.848 58.2654C646.848 58.9498 647.403 59.5045 648.087 59.5045C648.772 59.5045 649.326 58.9498 649.326 58.2654L646.848 58.2654ZM648.087 282.562L649.326 282.562L649.326 280.097L648.087 280.097L646.848 280.097L646.848 282.562L648.087 282.562ZM648.087 275.167L649.326 275.167L649.326 270.238L648.087 270.238L646.848 270.238L646.848 275.167L648.087 275.167ZM648.087 265.308L649.326 265.308L649.326 260.378L648.087 260.378L646.848 260.378L646.848 265.308L648.087 265.308ZM648.087 255.449L649.326 255.449L649.326 250.519L648.087 250.519L646.848 250.519L646.848 255.449L648.087 255.449ZM648.087 245.59L649.326 245.59L649.326 240.66L648.087 240.66L646.848 240.66L646.848 245.59L648.087 245.59ZM648.087 235.73L649.326 235.73L649.326 230.801L648.087 230.801L646.848 230.801L646.848 235.73L648.087 235.73ZM648.087 225.871L649.326 225.871L649.326 220.942L648.087 220.942L646.848 220.942L646.848 225.871L648.087 225.871ZM648.087 216.012L649.326 216.012L649.326 211.082L648.087 211.082L646.848 211.082L646.848 216.012L648.087 216.012ZM648.087 206.153L649.326 206.153L649.326 201.223L648.087 201.223L646.848 201.223L646.848 206.153L648.087 206.153ZM648.087 196.294L649.326 196.294L649.326 191.364L648.087 191.364L646.848 191.364L646.848 196.294L648.087 196.294ZM648.087 186.435L649.326 186.435L649.326 181.505L648.087 181.505L646.848 181.505L646.848 186.435L648.087 186.435ZM648.087 176.575L649.326 176.575L649.326 171.646L648.087 171.646L646.848 171.646L646.848 176.575L648.087 176.575ZM648.087 166.716L649.326 166.716L649.326 161.787L648.087 161.787L646.848 161.787L646.848 166.716L648.087 166.716ZM648.087 156.857L649.326 156.857L649.326 151.927L648.087 151.927L646.848 151.927L646.848 156.857L648.087 156.857ZM648.087 146.998L649.326 146.998L649.326 142.068L648.087 142.068L646.848 142.068L646.848 146.998L648.087 146.998ZM648.087 137.139L649.326 137.139L649.326 132.209L648.087 132.209L646.848 132.209L646.848 137.139L648.087 137.139ZM648.087 127.28L649.326 127.28L649.326 122.35L648.087 122.35L646.848 122.35L646.848 127.28L648.087 127.28ZM648.087 117.42L649.326 117.42L649.326 112.491L648.087 112.491L646.848 112.491L646.848 117.42L648.087 117.42ZM648.087 107.561L649.326 107.561L649.326 102.632L648.087 102.632L646.848 102.632L646.848 107.561L648.087 107.561ZM648.087 97.7021L649.326 97.7021L649.326 92.7725L648.087 92.7725L646.848 92.7725L646.848 97.7021L648.087 97.7021ZM648.087 87.8429L649.326 87.8429L649.326 82.9133L648.087 82.9133L646.848 82.9133L646.848 87.8429L648.087 87.8429ZM648.087 77.9837L649.326 77.9837L649.326 73.0542L648.087 73.0542L646.848 73.0542L646.848 77.9837L648.087 77.9837ZM648.087 68.1246L649.326 68.1246L649.326 63.195L648.087 63.195L646.848 63.195L646.848 68.1246L648.087 68.1246ZM648.087 55.8005L640.933 68.1918L655.241 68.1918L648.087 55.8005ZM649.326 280.097C649.326 279.412 648.772 278.858 648.087 278.858C647.403 278.858 646.848 279.412 646.848 280.097L649.326 280.097ZM646.848 275.167C646.848 275.851 647.403 276.406 648.087 276.406C648.772 276.406 649.326 275.851 649.326 275.167L646.848 275.167ZM649.326 270.238C649.326 269.553 648.772 268.998 648.087 268.998C647.403 268.998 646.848 269.553 646.848 270.238L649.326 270.238ZM646.848 265.308C646.848 265.992 647.403 266.547 648.087 266.547C648.772 266.547 649.326 265.992 649.326 265.308L646.848 265.308ZM649.326 260.378C649.326 259.694 648.772 259.139 648.087 259.139C647.403 259.139 646.848 259.694 646.848 260.378L649.326 260.378ZM646.848 255.449C646.848 256.133 647.403 256.688 648.087 256.688C648.772 256.688 649.326 256.133 649.326 255.449L646.848 255.449ZM649.326 250.519C649.326 249.835 648.772 249.28 648.087 249.28C647.403 249.28 646.848 249.835 646.848 250.519L649.326 250.519ZM646.848 245.59C646.848 246.274 647.403 246.829 648.087 246.829C648.772 246.829 649.326 246.274 649.326 245.59L646.848 245.59ZM649.326 240.66C649.326 239.976 648.772 239.421 648.087 239.421C647.403 239.421 646.848 239.976 646.848 240.66L649.326 240.66ZM646.848 235.73C646.848 236.415 647.403 236.97 648.087 236.97C648.772 236.97 649.326 236.415 649.326 235.73L646.848 235.73ZM649.326 230.801C649.326 230.116 648.772 229.562 648.087 229.562C647.403 229.562 646.848 230.116 646.848 230.801L649.326 230.801ZM646.848 225.871C646.848 226.556 647.403 227.11 648.087 227.11C648.772 227.11 649.326 226.556 649.326 225.871L646.848 225.871ZM649.326 220.942C649.326 220.257 648.772 219.703 648.087 219.703C647.403 219.703 646.848 220.257 646.848 220.942L649.326 220.942ZM646.848 216.012C646.848 216.696 647.403 217.251 648.087 217.251C648.772 217.251 649.326 216.696 649.326 216.012L646.848 216.012ZM649.326 211.082C649.326 210.398 648.772 209.843 648.087 209.843C647.403 209.843 646.848 210.398 646.848 211.082L649.326 211.082ZM646.848 206.153C646.848 206.837 647.403 207.392 648.087 207.392C648.772 207.392 649.326 206.837 649.326 206.153L646.848 206.153ZM649.326 201.223C649.326 200.539 648.772 199.984 648.087 199.984C647.403 199.984 646.848 200.539 646.848 201.223L649.326 201.223ZM646.848 196.294C646.848 196.978 647.403 197.533 648.087 197.533C648.772 197.533 649.326 196.978 649.326 196.294L646.848 196.294ZM649.326 191.364C649.326 190.68 648.772 190.125 648.087 190.125C647.403 190.125 646.848 190.68 646.848 191.364L649.326 191.364ZM646.848 186.435C646.848 187.119 647.403 187.674 648.087 187.674C648.772 187.674 649.326 187.119 649.326 186.435L646.848 186.435ZM649.326 181.505C649.326 180.821 648.772 180.266 648.087 180.266C647.403 180.266 646.848 180.821 646.848 181.505L649.326 181.505ZM646.848 176.575C646.848 177.26 647.403 177.815 648.087 177.815C648.772 177.815 649.326 177.26 649.326 176.575L646.848 176.575ZM649.326 171.646C649.326 170.961 648.772 170.407 648.087 170.407C647.403 170.407 646.848 170.961 646.848 171.646L649.326 171.646ZM646.848 166.716C646.848 167.401 647.403 167.955 648.087 167.955C648.772 167.955 649.326 167.401 649.326 166.716L646.848 166.716ZM649.326 161.787C649.326 161.102 648.772 160.547 648.087 160.547C647.403 160.547 646.848 161.102 646.848 161.787L649.326 161.787ZM646.848 156.857C646.848 157.541 647.403 158.096 648.087 158.096C648.772 158.096 649.326 157.541 649.326 156.857L646.848 156.857ZM649.326 151.927C649.326 151.243 648.772 150.688 648.087 150.688C647.403 150.688 646.848 151.243 646.848 151.927L649.326 151.927ZM646.848 146.998C646.848 147.682 647.403 148.237 648.087 148.237C648.772 148.237 649.326 147.682 649.326 146.998L646.848 146.998ZM649.326 142.068C649.326 141.384 648.772 140.829 648.087 140.829C647.403 140.829 646.848 141.384 646.848 142.068L649.326 142.068ZM646.848 137.139C646.848 137.823 647.403 138.378 648.087 138.378C648.772 138.378 649.326 137.823 649.326 137.139L646.848 137.139ZM649.326 132.209C649.326 131.525 648.772 130.97 648.087 130.97C647.403 130.97 646.848 131.525 646.848 132.209L649.326 132.209ZM646.848 127.28C646.848 127.964 647.403 128.519 648.087 128.519C648.772 128.519 649.326 127.964 649.326 127.28L646.848 127.28ZM649.326 122.35C649.326 121.666 648.772 121.111 648.087 121.111C647.403 121.111 646.848 121.666 646.848 122.35L649.326 122.35ZM646.848 117.42C646.848 118.105 647.403 118.66 648.087 118.66C648.772 118.66 649.326 118.105 649.326 117.42L646.848 117.42ZM649.326 112.491C649.326 111.806 648.772 111.252 648.087 111.252C647.403 111.252 646.848 111.806 646.848 112.491L649.326 112.491ZM646.848 107.561C646.848 108.246 647.403 108.8 648.087 108.8C648.772 108.8 649.326 108.246 649.326 107.561L646.848 107.561ZM649.326 102.632C649.326 101.947 648.772 101.393 648.087 101.393C647.403 101.393 646.848 101.947 646.848 102.632L649.326 102.632ZM646.848 97.7021C646.848 98.3864 647.403 98.9412 648.087 98.9412C648.772 98.9412 649.326 98.3864 649.326 97.7021L646.848 97.7021ZM649.326 92.7725C649.326 92.0881 648.772 91.5333 648.087 91.5333C647.403 91.5333 646.848 92.0881 646.848 92.7725L649.326 92.7725ZM646.848 87.8429C646.848 88.5273 647.403 89.082 648.087 89.082C648.772 89.082 649.326 88.5273 649.326 87.8429L646.848 87.8429ZM649.326 82.9133C649.326 82.229 648.772 81.6742 648.087 81.6742C647.403 81.6742 646.848 82.229 646.848 82.9133L649.326 82.9133ZM646.848 77.9837C646.848 78.6681 647.403 79.2229 648.087 79.2229C648.772 79.2229 649.326 78.6681 649.326 77.9837L646.848 77.9837ZM649.326 73.0542C649.326 72.3698 648.772 71.815 648.087 71.815C647.403 71.815 646.848 72.3698 646.848 73.0542L649.326 73.0542ZM646.848 68.1246C646.848 68.8089 647.403 69.3637 648.087 69.3637C648.772 69.3637 649.326 68.8089 649.326 68.1246L646.848 68.1246ZM649.326 63.195C649.326 62.5106 648.772 61.9559 648.087 61.9559C647.403 61.9559 646.848 62.5106 646.848 63.195L649.326 63.195ZM646.848 58.2654C646.848 58.9498 647.403 59.5045 648.087 59.5045C648.772 59.5045 649.326 58.9498 649.326 58.2654L646.848 58.2654ZM648.087 282.562L649.326 282.562L649.326 280.097L648.087 280.097L646.848 280.097L646.848 282.562L648.087 282.562ZM648.087 275.167L649.326 275.167L649.326 270.238L648.087 270.238L646.848 270.238L646.848 275.167L648.087 275.167ZM648.087 265.308L649.326 265.308L649.326 260.378L648.087 260.378L646.848 260.378L646.848 265.308L648.087 265.308ZM648.087 255.449L649.326 255.449L649.326 250.519L648.087 250.519L646.848 250.519L646.848 255.449L648.087 255.449ZM648.087 245.59L649.326 245.59L649.326 240.66L648.087 240.66L646.848 240.66L646.848 245.59L648.087 245.59ZM648.087 235.73L649.326 235.73L649.326 230.801L648.087 230.801L646.848 230.801L646.848 235.73L648.087 235.73ZM648.087 225.871L649.326 225.871L649.326 220.942L648.087 220.942L646.848 220.942L646.848 225.871L648.087 225.871ZM648.087 216.012L649.326 216.012L649.326 211.082L648.087 211.082L646.848 211.082L646.848 216.012L648.087 216.012ZM648.087 206.153L649.326 206.153L649.326 201.223L648.087 201.223L646.848 201.223L646.848 206.153L648.087 206.153ZM648.087 196.294L649.326 196.294L649.326 191.364L648.087 191.364L646.848 191.364L646.848 196.294L648.087 196.294ZM648.087 186.435L649.326 186.435L649.326 181.505L648.087 181.505L646.848 181.505L646.848 186.435L648.087 186.435ZM648.087 176.575L649.326 176.575L649.326 171.646L648.087 171.646L646.848 171.646L646.848 176.575L648.087 176.575ZM648.087 166.716L649.326 166.716L649.326 161.787L648.087 161.787L646.848 161.787L646.848 166.716L648.087 166.716ZM648.087 156.857L649.326 156.857L649.326 151.927L648.087 151.927L646.848 151.927L646.848 156.857L648.087 156.857ZM648.087 146.998L649.326 146.998L649.326 142.068L648.087 142.068L646.848 142.068L646.848 146.998L648.087 146.998ZM648.087 137.139L649.326 137.139L649.326 132.209L648.087 132.209L646.848 132.209L646.848 137.139L648.087 137.139ZM648.087 127.28L649.326 127.28L649.326 122.35L648.087 122.35L646.848 122.35L646.848 127.28L648.087 127.28ZM648.087 117.42L649.326 117.42L649.326 112.491L648.087 112.491L646.848 112.491L646.848 117.42L648.087 117.42ZM648.087 107.561L649.326 107.561L649.326 102.632L648.087 102.632L646.848 102.632L646.848 107.561L648.087 107.561ZM648.087 97.7021L649.326 97.7021L649.326 92.7725L648.087 92.7725L646.848 92.7725L646.848 97.7021L648.087 97.7021ZM648.087 87.8429L649.326 87.8429L649.326 82.9133L648.087 82.9133L646.848 82.9133L646.848 87.8429L648.087 87.8429ZM648.087 77.9837L649.326 77.9837L649.326 73.0542L648.087 73.0542L646.848 73.0542L646.848 77.9837L648.087 77.9837ZM648.087 68.1246L649.326 68.1246L649.326 63.195L648.087 63.195L646.848 63.195L646.848 68.1246L648.087 68.1246Z" fill="#8A0101"/>
<path d="M646.848 55.8004L628.075 66.2024L646.47 77.2595L646.848 55.8004ZM510.543 282.562L512.137 283.519L639.823 71.0955L638.23 70.1379L636.637 69.1803L508.95 281.604L510.543 282.562Z" fill="#0037AC"/>
</svg>
