<svg width="1208" height="351" viewBox="0 0 1208 351" fill="none" xmlns="http://www.w3.org/2000/svg">
<rect width="1208" height="350" fill="white"/>
<rect x="342.249" y="314.665" width="25.7725" height="25.7725" rx="5.03368" fill="#0037AC"/>
<path d="M352.232 321.398C352.061 320.981 351.471 320.981 351.301 321.398L351.032 322.052C350.982 322.174 350.982 322.311 351.031 322.433L354.627 331.257C354.762 331.588 354.519 331.95 354.161 331.95H350.582H349.374C349.016 331.95 348.772 331.587 348.908 331.255L349.529 329.744C349.579 329.622 349.579 329.485 349.529 329.363L349.247 328.67C349.077 328.253 348.487 328.252 348.315 328.669L346.625 332.786C346.489 333.117 346.733 333.48 347.091 333.48H356.441C356.8 333.48 357.043 333.117 356.907 332.786L352.232 321.398Z" fill="white"/>
<path d="M355.642 323.845C355.507 323.514 355.751 323.152 356.108 323.152H359.687H360.896C361.254 323.152 361.497 323.515 361.361 323.847L360.741 325.358C360.69 325.48 360.69 325.617 360.74 325.739L361.022 326.432C361.192 326.849 361.783 326.85 361.954 326.433L363.644 322.316C363.78 321.985 363.537 321.621 363.179 321.621H353.828C353.47 321.621 353.226 321.985 353.362 322.316L358.038 333.704C358.209 334.121 358.798 334.121 358.969 333.704L359.238 333.05C359.288 332.927 359.288 332.791 359.238 332.668L355.642 323.845Z" fill="white"/>
<path d="M383.916 329.027H380.268L379.558 331.484H377.811L381.06 321.273H383.191L386.446 331.484H384.626L383.916 329.027ZM380.623 327.703H383.553L382.095 322.605L380.623 327.703ZM389.533 323.67V329.131C389.533 329.594 389.624 329.925 389.807 330.122C389.994 330.319 390.275 330.418 390.65 330.418C391.005 330.418 391.348 330.312 391.679 330.1C392.009 329.888 392.271 329.629 392.463 329.323V323.67H394.12V331.484H392.692L392.589 330.485C392.298 330.874 391.93 331.173 391.486 331.38C391.042 331.582 390.589 331.683 390.125 331.683C389.37 331.683 388.806 331.476 388.431 331.062C388.061 330.643 387.876 330.068 387.876 329.338V323.67H389.533ZM403.275 331.069C402.989 331.252 402.646 331.4 402.246 331.513C401.847 331.627 401.43 331.683 400.996 331.683C400.088 331.683 399.398 331.449 398.924 330.98C398.455 330.507 398.221 329.885 398.221 329.116V324.876H396.482V323.67H398.221V321.924L399.878 321.724V323.67H402.513L402.328 324.876H399.878V329.101C399.878 329.52 399.982 329.834 400.189 330.041C400.401 330.243 400.747 330.344 401.225 330.344C401.511 330.344 401.775 330.31 402.017 330.24C402.258 330.171 402.478 330.083 402.675 329.974L403.275 331.069ZM408.751 323.463C409.516 323.463 410.16 323.633 410.683 323.974C411.205 324.314 411.6 324.79 411.866 325.402C412.138 326.013 412.273 326.733 412.273 327.562C412.273 328.386 412.135 329.108 411.859 329.73C411.588 330.347 411.188 330.827 410.66 331.173C410.138 331.513 409.499 331.683 408.744 331.683C407.989 331.683 407.348 331.518 406.82 331.188C406.297 330.852 405.898 330.376 405.622 329.76C405.35 329.143 405.215 328.415 405.215 327.577C405.215 326.763 405.35 326.048 405.622 325.431C405.898 324.815 406.3 324.334 406.828 323.988C407.356 323.638 407.997 323.463 408.751 323.463ZM408.751 324.75C408.155 324.75 407.706 324.98 407.405 325.439C407.104 325.892 406.954 326.605 406.954 327.577C406.954 328.544 407.102 329.256 407.397 329.715C407.698 330.174 408.147 330.403 408.744 330.403C409.341 330.403 409.787 330.174 410.083 329.715C410.384 329.256 410.535 328.539 410.535 327.562C410.535 326.6 410.387 325.892 410.091 325.439C409.795 324.98 409.348 324.75 408.751 324.75ZM414.569 331.484V330.3H415.716V324.847H414.569V323.67H416.981L417.284 325.483C417.575 324.827 417.935 324.329 418.364 323.988C418.798 323.643 419.356 323.47 420.037 323.47C420.268 323.47 420.476 323.49 420.658 323.53C420.846 323.564 421.031 323.611 421.213 323.67L420.717 325.091C420.559 325.046 420.411 325.014 420.273 324.995C420.135 324.97 419.982 324.958 419.815 324.958C419.247 324.958 418.757 325.17 418.342 325.594C417.933 326.018 417.61 326.62 417.373 327.399V330.3H418.949V331.484H414.569ZM419.748 326.548V324.625L419.955 323.67H421.213L420.932 326.548H419.748ZM425.151 330.344C425.151 329.984 425.279 329.676 425.536 329.419C425.792 329.158 426.108 329.027 426.483 329.027C426.863 329.027 427.178 329.158 427.43 329.419C427.686 329.676 427.815 329.984 427.815 330.344C427.815 330.714 427.686 331.03 427.43 331.291C427.178 331.553 426.863 331.683 426.483 331.683C426.108 331.683 425.792 331.553 425.536 331.291C425.279 331.03 425.151 330.714 425.151 330.344ZM425.151 325.091C425.151 324.849 425.21 324.627 425.328 324.425C425.447 324.223 425.607 324.062 425.809 323.944C426.012 323.826 426.236 323.766 426.483 323.766C426.863 323.766 427.178 323.897 427.43 324.159C427.686 324.415 427.815 324.726 427.815 325.091C427.815 325.456 427.686 325.771 427.43 326.038C427.178 326.299 426.863 326.43 426.483 326.43C426.108 326.43 425.792 326.299 425.536 326.038C425.279 325.771 425.151 325.456 425.151 325.091ZM447.595 321.229V327.791C447.595 328.388 447.504 328.928 447.322 329.412C447.139 329.895 446.87 330.307 446.515 330.647C446.165 330.988 445.733 331.249 445.22 331.432C444.712 331.614 444.13 331.705 443.474 331.705C442.813 331.705 442.241 331.622 441.757 331.454C441.279 331.281 440.818 331.045 440.374 330.744L441.299 329.249C441.649 329.491 441.977 329.661 442.283 329.76C442.589 329.853 442.936 329.9 443.326 329.9C443.854 329.9 444.293 329.732 444.643 329.397C444.998 329.057 445.176 328.531 445.176 327.821V323.004H442.024V321.229H447.595ZM453.109 323.367C453.918 323.367 454.606 323.539 455.173 323.885C455.741 324.23 456.175 324.716 456.476 325.342C456.777 325.964 456.927 326.694 456.927 327.532C456.927 328.406 456.774 329.158 456.468 329.789C456.167 330.416 455.733 330.897 455.166 331.232C454.599 331.567 453.913 331.735 453.109 331.735C452.31 331.735 451.624 331.57 451.052 331.239C450.485 330.909 450.048 330.43 449.743 329.804C449.442 329.178 449.291 328.425 449.291 327.547C449.291 326.714 449.442 325.984 449.743 325.357C450.048 324.731 450.485 324.242 451.052 323.892C451.624 323.542 452.31 323.367 453.109 323.367ZM453.109 325.091C452.631 325.091 452.276 325.288 452.044 325.683C451.817 326.072 451.703 326.694 451.703 327.547C451.703 328.415 451.817 329.044 452.044 329.434C452.276 329.824 452.631 330.019 453.109 330.019C453.588 330.019 453.94 329.824 454.167 329.434C454.399 329.044 454.515 328.41 454.515 327.532C454.515 326.684 454.399 326.065 454.167 325.675C453.94 325.286 453.588 325.091 453.109 325.091ZM461.731 330.063C462.12 330.063 462.433 330.001 462.67 329.878C462.912 329.755 463.033 329.57 463.033 329.323C463.033 329.155 462.986 329.015 462.892 328.901C462.799 328.788 462.618 328.679 462.352 328.576C462.086 328.472 461.691 328.349 461.168 328.206C460.69 328.078 460.266 327.915 459.896 327.717C459.531 327.52 459.245 327.266 459.037 326.955C458.835 326.645 458.734 326.257 458.734 325.794C458.734 325.325 458.865 324.908 459.126 324.543C459.388 324.178 459.772 323.892 460.28 323.685C460.788 323.473 461.41 323.367 462.145 323.367C462.845 323.367 463.455 323.458 463.972 323.641C464.495 323.818 464.947 324.045 465.326 324.321L464.394 325.698C464.069 325.495 463.718 325.335 463.344 325.217C462.969 325.093 462.591 325.032 462.212 325.032C461.832 325.032 461.548 325.083 461.361 325.187C461.178 325.286 461.087 325.436 461.087 325.638C461.087 325.771 461.134 325.887 461.227 325.986C461.326 326.08 461.509 326.178 461.775 326.282C462.041 326.381 462.431 326.504 462.944 326.652C463.452 326.795 463.894 326.96 464.268 327.148C464.648 327.335 464.942 327.587 465.149 327.902C465.356 328.213 465.46 328.625 465.46 329.138C465.46 329.71 465.29 330.191 464.949 330.581C464.609 330.966 464.157 331.254 463.595 331.447C463.033 331.639 462.416 331.735 461.745 331.735C460.986 331.735 460.315 331.627 459.733 331.41C459.151 331.192 458.655 330.906 458.246 330.551L459.422 329.234C459.728 329.471 460.073 329.668 460.458 329.826C460.848 329.984 461.272 330.063 461.731 330.063ZM469.479 328.235C469.533 328.665 469.644 329.012 469.812 329.279C469.985 329.54 470.204 329.732 470.47 329.856C470.737 329.974 471.035 330.033 471.366 330.033C471.726 330.033 472.074 329.974 472.409 329.856C472.744 329.737 473.067 329.58 473.378 329.382L474.318 330.655C473.948 330.971 473.499 331.229 472.971 331.432C472.448 331.634 471.852 331.735 471.181 331.735C470.283 331.735 469.531 331.558 468.924 331.202C468.317 330.842 467.861 330.349 467.555 329.723C467.249 329.096 467.096 328.376 467.096 327.562C467.096 326.788 467.244 326.085 467.54 325.453C467.836 324.817 468.268 324.311 468.835 323.937C469.407 323.557 470.105 323.367 470.929 323.367C471.679 323.367 472.328 323.527 472.875 323.848C473.428 324.168 473.854 324.63 474.155 325.231C474.461 325.833 474.614 326.556 474.614 327.399C474.614 327.532 474.609 327.676 474.599 327.828C474.594 327.981 474.584 328.117 474.569 328.235H469.479ZM470.929 324.935C470.51 324.935 470.172 325.086 469.915 325.387C469.659 325.688 469.504 326.169 469.449 326.83H472.335C472.33 326.257 472.219 325.799 472.002 325.453C471.785 325.108 471.427 324.935 470.929 324.935ZM480.675 323.367C481.361 323.367 481.913 323.537 482.333 323.877C482.752 324.218 483.058 324.699 483.25 325.32C483.447 325.942 483.546 326.679 483.546 327.532C483.546 328.341 483.428 329.064 483.191 329.7C482.954 330.332 482.611 330.83 482.162 331.195C481.714 331.555 481.169 331.735 480.527 331.735C479.763 331.735 479.141 331.461 478.663 330.914V334.517L476.325 334.761V323.626H478.396L478.5 324.506C478.821 324.097 479.171 323.806 479.551 323.633C479.93 323.456 480.305 323.367 480.675 323.367ZM479.95 325.091C479.679 325.091 479.44 325.172 479.232 325.335C479.025 325.498 478.835 325.72 478.663 326.001V329.316C478.825 329.557 478.996 329.735 479.173 329.848C479.356 329.962 479.57 330.019 479.817 330.019C480.231 330.019 480.554 329.831 480.786 329.456C481.018 329.076 481.134 328.445 481.134 327.562C481.134 326.911 481.087 326.408 480.993 326.053C480.9 325.693 480.764 325.443 480.586 325.305C480.409 325.162 480.197 325.091 479.95 325.091ZM487.536 320.274V324.403C487.866 324.052 488.224 323.794 488.609 323.626C488.998 323.453 489.41 323.367 489.844 323.367C490.545 323.367 491.08 323.572 491.45 323.981C491.82 324.39 492.005 324.967 492.005 325.712V331.484H489.667V326.363C489.667 325.89 489.612 325.559 489.504 325.372C489.4 325.185 489.203 325.091 488.912 325.091C488.749 325.091 488.589 325.13 488.431 325.209C488.278 325.283 488.128 325.392 487.98 325.535C487.832 325.678 487.684 325.848 487.536 326.045V331.484H485.198V320.503L487.536 320.274ZM510.313 328.487C510.313 329.123 510.145 329.686 509.81 330.174C509.479 330.662 509.003 331.045 508.382 331.321C507.76 331.597 507.013 331.735 506.14 331.735C505.173 331.735 504.362 331.595 503.706 331.313C503.055 331.027 502.515 330.675 502.085 330.255L503.314 328.894C503.693 329.224 504.113 329.481 504.571 329.663C505.03 329.841 505.533 329.93 506.081 329.93C506.421 329.93 506.72 329.88 506.976 329.782C507.233 329.683 507.432 329.54 507.575 329.353C507.718 329.165 507.79 328.938 507.79 328.672C507.79 328.42 507.733 328.208 507.62 328.036C507.506 327.863 507.314 327.708 507.043 327.569C506.776 327.431 506.404 327.291 505.925 327.148C505.126 326.901 504.483 326.63 503.994 326.334C503.511 326.038 503.158 325.695 502.936 325.305C502.719 324.916 502.611 324.462 502.611 323.944C502.611 323.317 502.783 322.782 503.129 322.338C503.479 321.894 503.947 321.557 504.534 321.325C505.121 321.088 505.768 320.97 506.473 320.97C507.267 320.97 507.968 321.085 508.574 321.317C509.181 321.544 509.706 321.87 510.15 322.294L509.003 323.611C508.658 323.32 508.286 323.105 507.886 322.967C507.487 322.824 507.08 322.753 506.665 322.753C506.36 322.753 506.091 322.792 505.859 322.871C505.627 322.945 505.447 323.056 505.319 323.204C505.19 323.352 505.126 323.537 505.126 323.759C505.126 323.976 505.188 324.159 505.311 324.306C505.435 324.454 505.649 324.595 505.955 324.728C506.261 324.856 506.685 325.007 507.228 325.18C507.874 325.377 508.426 325.614 508.885 325.89C509.349 326.161 509.701 326.504 509.943 326.918C510.19 327.333 510.313 327.856 510.313 328.487ZM518.431 329.219C518.431 329.515 518.471 329.73 518.55 329.863C518.634 329.996 518.767 330.097 518.949 330.166L518.468 331.705C518.005 331.661 517.613 331.56 517.292 331.402C516.976 331.239 516.727 330.995 516.545 330.67C516.244 331.03 515.859 331.299 515.39 331.476C514.922 331.649 514.443 331.735 513.955 331.735C513.146 331.735 512.5 331.506 512.016 331.047C511.538 330.583 511.299 329.989 511.299 329.264C511.299 328.41 511.632 327.752 512.298 327.288C512.968 326.825 513.911 326.593 515.124 326.593H516.182V326.297C516.182 325.887 516.049 325.584 515.783 325.387C515.521 325.189 515.136 325.091 514.628 325.091C514.377 325.091 514.054 325.128 513.659 325.202C513.264 325.271 512.87 325.372 512.475 325.505L511.935 323.951C512.443 323.759 512.971 323.613 513.518 323.515C514.071 323.416 514.564 323.367 514.998 323.367C516.167 323.367 517.03 323.606 517.588 324.085C518.15 324.558 518.431 325.244 518.431 326.141V329.219ZM514.761 330.063C515.013 330.063 515.277 329.989 515.553 329.841C515.829 329.688 516.039 329.473 516.182 329.197V327.925H515.605C514.954 327.925 514.475 328.026 514.17 328.228C513.864 328.425 513.711 328.716 513.711 329.101C513.711 329.402 513.802 329.639 513.985 329.811C514.172 329.979 514.431 330.063 514.761 330.063ZM520.69 331.484V323.626H522.732L522.895 324.536C523.245 324.141 523.615 323.848 524.004 323.655C524.394 323.463 524.838 323.367 525.336 323.367C526.007 323.367 526.535 323.572 526.92 323.981C527.304 324.39 527.497 324.967 527.497 325.712V331.484H525.159V326.386C525.159 326.065 525.136 325.811 525.092 325.624C525.048 325.431 524.969 325.295 524.855 325.217C524.747 325.133 524.596 325.091 524.404 325.091C524.241 325.091 524.081 325.128 523.923 325.202C523.77 325.271 523.62 325.372 523.472 325.505C523.324 325.638 523.176 325.799 523.028 325.986V331.484H520.69ZM536.636 331.025C536.33 331.222 535.96 331.39 535.526 331.528C535.092 331.666 534.604 331.735 534.061 331.735C533.035 331.735 532.273 331.474 531.775 330.951C531.277 330.423 531.028 329.708 531.028 328.805V325.239H529.378V323.626H531.028V321.924L533.366 321.643V323.626H535.896L535.667 325.239H533.366V328.805C533.366 329.195 533.455 329.473 533.632 329.641C533.81 329.809 534.093 329.893 534.483 329.893C534.759 329.893 535.011 329.861 535.238 329.797C535.47 329.727 535.677 329.641 535.859 329.538L536.636 331.025ZM543.238 323.626V329.885H545.235V331.484H538.672V329.885H540.9V325.224H538.746V323.626H543.238ZM541.824 319.512C542.229 319.512 542.559 319.638 542.816 319.889C543.072 320.141 543.201 320.454 543.201 320.829C543.201 321.204 543.072 321.52 542.816 321.776C542.559 322.028 542.229 322.153 541.824 322.153C541.415 322.153 541.08 322.028 540.818 321.776C540.562 321.52 540.433 321.204 540.433 320.829C540.433 320.454 540.562 320.141 540.818 319.889C541.08 319.638 541.415 319.512 541.824 319.512ZM553.923 329.219C553.923 329.515 553.963 329.73 554.042 329.863C554.126 329.996 554.259 330.097 554.441 330.166L553.96 331.705C553.497 331.661 553.105 331.56 552.784 331.402C552.468 331.239 552.219 330.995 552.037 330.67C551.736 331.03 551.351 331.299 550.882 331.476C550.414 331.649 549.935 331.735 549.447 331.735C548.638 331.735 547.992 331.506 547.508 331.047C547.03 330.583 546.791 329.989 546.791 329.264C546.791 328.41 547.124 327.752 547.79 327.288C548.46 326.825 549.403 326.593 550.616 326.593H551.674V326.297C551.674 325.887 551.541 325.584 551.275 325.387C551.013 325.189 550.628 325.091 550.12 325.091C549.869 325.091 549.546 325.128 549.151 325.202C548.756 325.271 548.362 325.372 547.967 325.505L547.427 323.951C547.935 323.759 548.463 323.613 549.01 323.515C549.563 323.416 550.056 323.367 550.49 323.367C551.659 323.367 552.523 323.606 553.08 324.085C553.642 324.558 553.923 325.244 553.923 326.141V329.219ZM550.254 330.063C550.505 330.063 550.769 329.989 551.045 329.841C551.321 329.688 551.531 329.473 551.674 329.197V327.925H551.097C550.446 327.925 549.967 328.026 549.662 328.228C549.356 328.425 549.203 328.716 549.203 329.101C549.203 329.402 549.294 329.639 549.477 329.811C549.664 329.979 549.923 330.063 550.254 330.063ZM563.159 322.368L563.706 324.085C563.43 324.193 563.107 324.272 562.737 324.321C562.367 324.371 561.936 324.395 561.442 324.395C561.936 324.607 562.311 324.871 562.567 325.187C562.828 325.498 562.959 325.907 562.959 326.415C562.959 326.923 562.824 327.377 562.552 327.777C562.281 328.171 561.896 328.482 561.398 328.709C560.9 328.936 560.31 329.049 559.63 329.049C559.462 329.049 559.304 329.042 559.156 329.027C559.008 329.012 558.863 328.99 558.72 328.96C558.636 329.005 558.572 329.069 558.527 329.153C558.483 329.237 558.461 329.323 558.461 329.412C558.461 329.535 558.51 329.646 558.609 329.745C558.712 329.843 558.951 329.893 559.326 329.893H560.614C561.225 329.893 561.753 329.991 562.197 330.189C562.646 330.386 562.994 330.655 563.24 330.995C563.487 331.336 563.61 331.725 563.61 332.164C563.61 332.968 563.258 333.602 562.552 334.066C561.847 334.529 560.799 334.761 559.408 334.761C558.401 334.761 557.622 334.658 557.07 334.451C556.522 334.248 556.14 333.957 555.923 333.577C555.711 333.203 555.605 332.756 555.605 332.238H557.676C557.676 332.465 557.721 332.65 557.809 332.793C557.903 332.941 558.078 333.05 558.335 333.119C558.596 333.188 558.974 333.222 559.467 333.222C559.965 333.222 560.345 333.183 560.606 333.104C560.868 333.025 561.045 332.916 561.139 332.778C561.238 332.645 561.287 332.495 561.287 332.327C561.287 332.095 561.196 331.908 561.013 331.765C560.831 331.622 560.542 331.55 560.148 331.55H558.897C558.049 331.55 557.432 331.395 557.047 331.084C556.663 330.768 556.47 330.401 556.47 329.982C556.47 329.69 556.547 329.414 556.7 329.153C556.857 328.891 557.077 328.672 557.358 328.494C556.855 328.228 556.495 327.915 556.278 327.555C556.061 327.19 555.952 326.753 555.952 326.245C555.952 325.653 556.103 325.145 556.404 324.721C556.705 324.292 557.119 323.961 557.647 323.729C558.179 323.498 558.786 323.382 559.467 323.382C560.054 323.391 560.564 323.352 560.998 323.263C561.433 323.17 561.822 323.044 562.168 322.886C562.513 322.723 562.843 322.55 563.159 322.368ZM559.526 324.898C559.156 324.898 558.863 325.017 558.646 325.254C558.429 325.485 558.32 325.806 558.32 326.215C558.32 326.65 558.431 326.982 558.653 327.214C558.875 327.446 559.166 327.562 559.526 327.562C559.916 327.562 560.212 327.446 560.414 327.214C560.621 326.982 560.725 326.64 560.725 326.186C560.725 325.747 560.624 325.424 560.421 325.217C560.219 325.004 559.921 324.898 559.526 324.898ZM568.458 323.367C569.267 323.367 569.955 323.539 570.523 323.885C571.09 324.23 571.524 324.716 571.825 325.342C572.126 325.964 572.276 326.694 572.276 327.532C572.276 328.406 572.123 329.158 571.817 329.789C571.517 330.416 571.082 330.897 570.515 331.232C569.948 331.567 569.262 331.735 568.458 331.735C567.659 331.735 566.974 331.57 566.401 331.239C565.834 330.909 565.398 330.43 565.092 329.804C564.791 329.178 564.64 328.425 564.64 327.547C564.64 326.714 564.791 325.984 565.092 325.357C565.398 324.731 565.834 324.242 566.401 323.892C566.974 323.542 567.659 323.367 568.458 323.367ZM568.458 325.091C567.98 325.091 567.625 325.288 567.393 325.683C567.166 326.072 567.052 326.694 567.052 327.547C567.052 328.415 567.166 329.044 567.393 329.434C567.625 329.824 567.98 330.019 568.458 330.019C568.937 330.019 569.289 329.824 569.516 329.434C569.748 329.044 569.864 328.41 569.864 327.532C569.864 326.684 569.748 326.065 569.516 325.675C569.289 325.286 568.937 325.091 568.458 325.091ZM587.795 324.573C587.795 324.208 587.726 323.907 587.588 323.67C587.455 323.428 587.25 323.251 586.974 323.137C586.702 323.019 586.36 322.96 585.945 322.96H585.117V326.312H586.071C586.431 326.312 586.739 326.25 586.996 326.127C587.252 326.003 587.45 325.813 587.588 325.557C587.726 325.3 587.795 324.972 587.795 324.573ZM590.296 324.565C590.296 325.36 590.126 326.016 589.785 326.534C589.445 327.052 588.969 327.439 588.357 327.695C587.746 327.947 587.035 328.073 586.226 328.073H585.117V331.484H582.69V321.229H585.916C587.307 321.229 588.385 321.505 589.149 322.057C589.914 322.61 590.296 323.446 590.296 324.565ZM595.077 323.367C595.886 323.367 596.574 323.539 597.142 323.885C597.709 324.23 598.143 324.716 598.444 325.342C598.745 325.964 598.895 326.694 598.895 327.532C598.895 328.406 598.742 329.158 598.436 329.789C598.136 330.416 597.701 330.897 597.134 331.232C596.567 331.567 595.881 331.735 595.077 331.735C594.278 331.735 593.593 331.57 593.02 331.239C592.453 330.909 592.017 330.43 591.711 329.804C591.41 329.178 591.259 328.425 591.259 327.547C591.259 326.714 591.41 325.984 591.711 325.357C592.017 324.731 592.453 324.242 593.02 323.892C593.593 323.542 594.278 323.367 595.077 323.367ZM595.077 325.091C594.599 325.091 594.244 325.288 594.012 325.683C593.785 326.072 593.671 326.694 593.671 327.547C593.671 328.415 593.785 329.044 594.012 329.434C594.244 329.824 594.599 330.019 595.077 330.019C595.556 330.019 595.908 329.824 596.135 329.434C596.367 329.044 596.483 328.41 596.483 327.532C596.483 326.684 596.367 326.065 596.135 325.675C595.908 325.286 595.556 325.091 595.077 325.091ZM600.621 331.484V329.915H601.657V325.18H600.621V323.626H603.44L603.869 325.394C604.15 324.718 604.508 324.215 604.942 323.885C605.381 323.554 605.916 323.389 606.547 323.389C606.814 323.389 607.05 323.411 607.258 323.456C607.465 323.495 607.66 323.552 607.842 323.626L607.132 325.557C606.989 325.517 606.846 325.488 606.703 325.468C606.56 325.448 606.402 325.439 606.229 325.439C605.716 325.439 605.265 325.648 604.875 326.067C604.49 326.487 604.197 327.019 603.995 327.666V329.915H605.548V331.484H600.621ZM605.941 326.911V324.617L606.288 323.626H607.842L607.406 326.911H605.941ZM616.493 331.025C616.187 331.222 615.817 331.39 615.383 331.528C614.949 331.666 614.461 331.735 613.918 331.735C612.892 331.735 612.13 331.474 611.632 330.951C611.134 330.423 610.885 329.708 610.885 328.805V325.239H609.235V323.626H610.885V321.924L613.223 321.643V323.626H615.753L615.524 325.239H613.223V328.805C613.223 329.195 613.312 329.473 613.489 329.641C613.667 329.809 613.95 329.893 614.34 329.893C614.616 329.893 614.868 329.861 615.095 329.797C615.327 329.727 615.534 329.641 615.716 329.538L616.493 331.025ZM623.095 323.626V329.885H625.092V331.484H618.53V329.885H620.757V325.224H618.604V323.626H623.095ZM621.682 319.512C622.086 319.512 622.416 319.638 622.673 319.889C622.929 320.141 623.058 320.454 623.058 320.829C623.058 321.204 622.929 321.52 622.673 321.776C622.416 322.028 622.086 322.153 621.682 322.153C621.272 322.153 620.937 322.028 620.675 321.776C620.419 321.52 620.291 321.204 620.291 320.829C620.291 320.454 620.419 320.141 620.675 319.889C620.937 319.638 621.272 319.512 621.682 319.512ZM631.265 320.503V329.012C631.265 329.328 631.354 329.555 631.531 329.693C631.714 329.826 631.963 329.893 632.279 329.893C632.481 329.893 632.676 329.871 632.863 329.826C633.05 329.777 633.226 329.72 633.388 329.656L633.951 331.217C633.684 331.355 633.364 331.476 632.989 331.58C632.614 331.683 632.177 331.735 631.679 331.735C630.732 331.735 630.037 331.464 629.593 330.921C629.149 330.374 628.927 329.641 628.927 328.724V322.102H626.611V320.503H631.265ZM640.138 320.503V329.012C640.138 329.328 640.227 329.555 640.404 329.693C640.587 329.826 640.836 329.893 641.152 329.893C641.354 329.893 641.549 329.871 641.736 329.826C641.923 329.777 642.099 329.72 642.261 329.656L642.824 331.217C642.557 331.355 642.237 331.476 641.862 331.58C641.487 331.683 641.05 331.735 640.552 331.735C639.605 331.735 638.91 331.464 638.466 330.921C638.022 330.374 637.8 329.641 637.8 328.724V322.102H635.484V320.503H640.138ZM651.527 329.219C651.527 329.515 651.566 329.73 651.645 329.863C651.729 329.996 651.862 330.097 652.044 330.166L651.563 331.705C651.1 331.661 650.708 331.56 650.387 331.402C650.071 331.239 649.822 330.995 649.64 330.67C649.339 331.03 648.954 331.299 648.486 331.476C648.017 331.649 647.538 331.735 647.05 331.735C646.241 331.735 645.595 331.506 645.112 331.047C644.633 330.583 644.394 329.989 644.394 329.264C644.394 328.41 644.727 327.752 645.393 327.288C646.064 326.825 647.006 326.593 648.219 326.593H649.277V326.297C649.277 325.887 649.144 325.584 648.878 325.387C648.616 325.189 648.231 325.091 647.723 325.091C647.472 325.091 647.149 325.128 646.754 325.202C646.36 325.271 645.965 325.372 645.57 325.505L645.03 323.951C645.538 323.759 646.066 323.613 646.614 323.515C647.166 323.416 647.659 323.367 648.093 323.367C649.262 323.367 650.126 323.606 650.683 324.085C651.245 324.558 651.527 325.244 651.527 326.141V329.219ZM647.857 330.063C648.108 330.063 648.372 329.989 648.648 329.841C648.925 329.688 649.134 329.473 649.277 329.197V327.925H648.7C648.049 327.925 647.571 328.026 647.265 328.228C646.959 328.425 646.806 328.716 646.806 329.101C646.806 329.402 646.897 329.639 647.08 329.811C647.267 329.979 647.526 330.063 647.857 330.063ZM653.985 327.762V325.942H660.392V327.762H653.985ZM669.665 321.229L670.242 331.484H668.126L668 327.096C667.99 326.687 667.985 326.321 667.985 326.001C667.99 325.68 667.997 325.379 668.007 325.098C668.017 324.812 668.032 324.526 668.052 324.24C668.076 323.949 668.101 323.633 668.126 323.293L666.971 329.737H665.137L663.893 323.293C663.923 323.618 663.948 323.927 663.967 324.218C663.992 324.504 664.009 324.792 664.019 325.083C664.029 325.374 664.037 325.688 664.041 326.023C664.046 326.354 664.044 326.724 664.034 327.133L663.96 331.484H661.881L662.458 321.229H664.952L666.091 327.858L667.171 321.229H669.665ZM678.146 329.219C678.146 329.515 678.185 329.73 678.264 329.863C678.348 329.996 678.481 330.097 678.663 330.166L678.183 331.705C677.719 331.661 677.327 331.56 677.006 331.402C676.69 331.239 676.441 330.995 676.259 330.67C675.958 331.03 675.573 331.299 675.105 331.476C674.636 331.649 674.157 331.735 673.669 331.735C672.86 331.735 672.214 331.506 671.731 331.047C671.252 330.583 671.013 329.989 671.013 329.264C671.013 328.41 671.346 327.752 672.012 327.288C672.683 326.825 673.625 326.593 674.838 326.593H675.896V326.297C675.896 325.887 675.763 325.584 675.497 325.387C675.235 325.189 674.851 325.091 674.342 325.091C674.091 325.091 673.768 325.128 673.373 325.202C672.979 325.271 672.584 325.372 672.189 325.505L671.649 323.951C672.157 323.759 672.685 323.613 673.233 323.515C673.785 323.416 674.278 323.367 674.712 323.367C675.881 323.367 676.745 323.606 677.302 324.085C677.864 324.558 678.146 325.244 678.146 326.141V329.219ZM674.476 330.063C674.727 330.063 674.991 329.989 675.267 329.841C675.544 329.688 675.753 329.473 675.896 329.197V327.925H675.319C674.668 327.925 674.19 328.026 673.884 328.228C673.578 328.425 673.425 328.716 673.425 329.101C673.425 329.402 673.516 329.639 673.699 329.811C673.886 329.979 674.145 330.063 674.476 330.063ZM680.478 331.484V329.915H681.514V325.18H680.478V323.626H683.297L683.726 325.394C684.007 324.718 684.365 324.215 684.799 323.885C685.238 323.554 685.773 323.389 686.404 323.389C686.671 323.389 686.908 323.411 687.115 323.456C687.322 323.495 687.517 323.552 687.699 323.626L686.989 325.557C686.846 325.517 686.703 325.488 686.56 325.468C686.417 325.448 686.259 325.439 686.086 325.439C685.573 325.439 685.122 325.648 684.732 326.067C684.348 326.487 684.054 327.019 683.852 327.666V329.915H685.406V331.484H680.478ZM685.798 326.911V324.617L686.145 323.626H687.699L687.263 326.911H685.798ZM696.35 331.025C696.044 331.222 695.675 331.39 695.24 331.528C694.806 331.666 694.318 331.735 693.775 331.735C692.749 331.735 691.987 331.474 691.489 330.951C690.991 330.423 690.742 329.708 690.742 328.805V325.239H689.092V323.626H690.742V321.924L693.08 321.643V323.626H695.61L695.381 325.239H693.08V328.805C693.08 329.195 693.169 329.473 693.346 329.641C693.524 329.809 693.808 329.893 694.197 329.893C694.473 329.893 694.725 329.861 694.952 329.797C695.184 329.727 695.391 329.641 695.573 329.538L696.35 331.025ZM702.952 323.626V329.885H704.95V331.484H698.387V329.885H700.614V325.224H698.461V323.626H702.952ZM702.663 319.127L703.573 320.888L700.081 322.272L699.437 321.088L702.663 319.127ZM707.023 331.484V323.626H709.065L709.228 324.536C709.578 324.141 709.948 323.848 710.338 323.655C710.727 323.463 711.171 323.367 711.669 323.367C712.34 323.367 712.868 323.572 713.253 323.981C713.638 324.39 713.83 324.967 713.83 325.712V331.484H711.492V326.386C711.492 326.065 711.47 325.811 711.425 325.624C711.381 325.431 711.302 325.295 711.189 325.217C711.08 325.133 710.93 325.091 710.737 325.091C710.574 325.091 710.414 325.128 710.256 325.202C710.103 325.271 709.953 325.372 709.805 325.505C709.657 325.638 709.509 325.799 709.361 325.986V331.484H707.023ZM717.923 328.235C717.977 328.665 718.088 329.012 718.256 329.279C718.429 329.54 718.648 329.732 718.915 329.856C719.181 329.974 719.479 330.033 719.81 330.033C720.17 330.033 720.518 329.974 720.853 329.856C721.189 329.737 721.512 329.58 721.822 329.382L722.762 330.655C722.392 330.971 721.943 331.229 721.416 331.432C720.893 331.634 720.296 331.735 719.625 331.735C718.727 331.735 717.975 331.558 717.368 331.202C716.762 330.842 716.305 330.349 715.999 329.723C715.694 329.096 715.541 328.376 715.541 327.562C715.541 326.788 715.689 326.085 715.985 325.453C716.281 324.817 716.712 324.311 717.28 323.937C717.852 323.557 718.55 323.367 719.373 323.367C720.123 323.367 720.772 323.527 721.319 323.848C721.872 324.168 722.299 324.63 722.599 325.231C722.905 325.833 723.058 326.556 723.058 327.399C723.058 327.532 723.053 327.676 723.043 327.828C723.038 327.981 723.029 328.117 723.014 328.235H717.923ZM719.373 324.935C718.954 324.935 718.616 325.086 718.36 325.387C718.103 325.688 717.948 326.169 717.894 326.83H720.779C720.774 326.257 720.663 325.799 720.446 325.453C720.229 325.108 719.872 324.935 719.373 324.935ZM727.558 329.715H731.495L731.273 331.484H724.798V329.834L728.698 325.387H725.124V323.626H731.421V325.268L727.558 329.715ZM746.673 318.165V335.923H745.164V318.165H746.673ZM763.443 321.066C764.182 321.066 764.814 321.174 765.337 321.391C765.86 321.603 766.291 321.902 766.631 322.287C766.977 322.666 767.246 323.115 767.438 323.633C767.63 324.151 767.766 324.713 767.845 325.32C767.924 325.927 767.963 326.556 767.963 327.207C767.963 328.45 767.904 329.491 767.786 330.329C767.667 331.163 767.445 331.789 767.12 332.209C766.799 332.633 766.336 332.845 765.729 332.845C765.433 332.845 765.174 332.778 764.952 332.645C764.735 332.512 764.555 332.339 764.412 332.127C764.274 331.92 764.168 331.696 764.094 331.454C764.025 331.207 763.985 330.975 763.975 330.758H763.916C763.817 330.995 763.682 331.222 763.509 331.439C763.336 331.656 763.117 331.834 762.851 331.972C762.584 332.11 762.259 332.179 761.874 332.179C761.321 332.179 760.878 332.031 760.542 331.735C760.207 331.444 759.963 331.042 759.81 330.529C759.657 330.016 759.58 329.436 759.58 328.79C759.58 327.532 759.837 326.573 760.35 325.912C760.863 325.246 761.605 324.913 762.577 324.913C762.942 324.913 763.302 324.958 763.657 325.046C764.017 325.13 764.404 325.283 764.819 325.505V329.9C764.819 330.369 764.856 330.731 764.93 330.988C765.004 331.244 765.105 331.422 765.233 331.521C765.366 331.619 765.517 331.668 765.684 331.668C765.882 331.668 766.035 331.567 766.143 331.365C766.257 331.163 766.338 330.872 766.387 330.492C766.437 330.107 766.466 329.644 766.476 329.101C766.486 328.558 766.491 327.947 766.491 327.266C766.491 326.536 766.449 325.868 766.365 325.261C766.286 324.649 766.136 324.122 765.914 323.678C765.697 323.234 765.386 322.891 764.982 322.649C764.577 322.407 764.052 322.287 763.406 322.287C762.907 322.287 762.382 322.38 761.83 322.568C761.282 322.755 760.705 323.115 760.098 323.648L759.299 322.723C759.97 322.141 760.648 321.719 761.334 321.458C762.024 321.196 762.727 321.066 763.443 321.066ZM762.599 326.038C762.032 326.038 761.645 326.26 761.437 326.704C761.23 327.143 761.127 327.838 761.127 328.79C761.127 329.264 761.156 329.668 761.215 330.004C761.275 330.339 761.378 330.596 761.526 330.773C761.674 330.951 761.874 331.04 762.126 331.04C762.426 331.04 762.661 330.971 762.828 330.832C762.996 330.694 763.122 330.532 763.206 330.344C763.29 330.152 763.354 329.984 763.398 329.841V326.23C763.265 326.161 763.137 326.112 763.013 326.082C762.89 326.053 762.752 326.038 762.599 326.038ZM775.897 321.229V327.791C775.897 328.388 775.805 328.928 775.623 329.412C775.44 329.895 775.172 330.307 774.816 330.647C774.466 330.988 774.035 331.249 773.522 331.432C773.013 331.614 772.431 331.705 771.775 331.705C771.114 331.705 770.542 331.622 770.059 331.454C769.58 331.281 769.119 331.045 768.675 330.744L769.6 329.249C769.95 329.491 770.278 329.661 770.584 329.76C770.89 329.853 771.238 329.9 771.627 329.9C772.155 329.9 772.594 329.732 772.944 329.397C773.3 329.057 773.477 328.531 773.477 327.821V323.004H770.325V321.229H775.897ZM781.41 323.367C782.219 323.367 782.908 323.539 783.475 323.885C784.042 324.23 784.476 324.716 784.777 325.342C785.078 325.964 785.228 326.694 785.228 327.532C785.228 328.406 785.075 329.158 784.77 329.789C784.469 330.416 784.035 330.897 783.467 331.232C782.9 331.567 782.215 331.735 781.41 331.735C780.611 331.735 779.926 331.57 779.354 331.239C778.786 330.909 778.35 330.43 778.044 329.804C777.743 329.178 777.593 328.425 777.593 327.547C777.593 326.714 777.743 325.984 778.044 325.357C778.35 324.731 778.786 324.242 779.354 323.892C779.926 323.542 780.611 323.367 781.41 323.367ZM781.41 325.091C780.932 325.091 780.577 325.288 780.345 325.683C780.118 326.072 780.005 326.694 780.005 327.547C780.005 328.415 780.118 329.044 780.345 329.434C780.577 329.824 780.932 330.019 781.41 330.019C781.889 330.019 782.242 329.824 782.469 329.434C782.7 329.044 782.816 328.41 782.816 327.532C782.816 326.684 782.7 326.065 782.469 325.675C782.242 325.286 781.889 325.091 781.41 325.091ZM788.907 328.235C788.962 328.665 789.073 329.012 789.24 329.279C789.413 329.54 789.632 329.732 789.899 329.856C790.165 329.974 790.464 330.033 790.794 330.033C791.154 330.033 791.502 329.974 791.837 329.856C792.173 329.737 792.496 329.58 792.807 329.382L793.746 330.655C793.376 330.971 792.927 331.229 792.4 331.432C791.877 331.634 791.28 331.735 790.609 331.735C789.711 331.735 788.959 331.558 788.352 331.202C787.746 330.842 787.289 330.349 786.984 329.723C786.678 329.096 786.525 328.376 786.525 327.562C786.525 326.788 786.673 326.085 786.969 325.453C787.265 324.817 787.696 324.311 788.264 323.937C788.836 323.557 789.534 323.367 790.358 323.367C791.107 323.367 791.756 323.527 792.303 323.848C792.856 324.168 793.283 324.63 793.583 325.231C793.889 325.833 794.042 326.556 794.042 327.399C794.042 327.532 794.037 327.676 794.027 327.828C794.022 327.981 794.013 328.117 793.998 328.235H788.907ZM790.358 324.935C789.938 324.935 789.6 325.086 789.344 325.387C789.087 325.688 788.932 326.169 788.878 326.83H791.763C791.758 326.257 791.647 325.799 791.43 325.453C791.213 325.108 790.856 324.935 790.358 324.935ZM800.747 324.573C800.747 324.208 800.678 323.907 800.54 323.67C800.407 323.428 800.202 323.251 799.926 323.137C799.655 323.019 799.312 322.96 798.898 322.96H798.069V326.312H799.023C799.383 326.312 799.692 326.25 799.948 326.127C800.205 326.003 800.402 325.813 800.54 325.557C800.678 325.3 800.747 324.972 800.747 324.573ZM803.248 324.565C803.248 325.36 803.078 326.016 802.738 326.534C802.397 327.052 801.921 327.439 801.31 327.695C800.698 327.947 799.988 328.073 799.179 328.073H798.069V331.484H795.642V321.229H798.868C800.259 321.229 801.337 321.505 802.101 322.057C802.866 322.61 803.248 323.446 803.248 324.565ZM808.03 323.367C808.839 323.367 809.527 323.539 810.094 323.885C810.661 324.23 811.095 324.716 811.396 325.342C811.697 325.964 811.847 326.694 811.847 327.532C811.847 328.406 811.695 329.158 811.389 329.789C811.088 330.416 810.654 330.897 810.086 331.232C809.519 331.567 808.834 331.735 808.03 331.735C807.23 331.735 806.545 331.57 805.973 331.239C805.405 330.909 804.969 330.43 804.663 329.804C804.362 329.178 804.212 328.425 804.212 327.547C804.212 326.714 804.362 325.984 804.663 325.357C804.969 324.731 805.405 324.242 805.973 323.892C806.545 323.542 807.23 323.367 808.03 323.367ZM808.03 325.091C807.551 325.091 807.196 325.288 806.964 325.683C806.737 326.072 806.624 326.694 806.624 327.547C806.624 328.415 806.737 329.044 806.964 329.434C807.196 329.824 807.551 330.019 808.03 330.019C808.508 330.019 808.861 329.824 809.088 329.434C809.319 329.044 809.435 328.41 809.435 327.532C809.435 326.684 809.319 326.065 809.088 325.675C808.861 325.286 808.508 325.091 808.03 325.091ZM813.573 331.484V329.915H814.609V325.18H813.573V323.626H816.392L816.821 325.394C817.102 324.718 817.46 324.215 817.894 323.885C818.333 323.554 818.868 323.389 819.5 323.389C819.766 323.389 820.003 323.411 820.21 323.456C820.417 323.495 820.612 323.552 820.794 323.626L820.084 325.557C819.941 325.517 819.798 325.488 819.655 325.468C819.512 325.448 819.354 325.439 819.181 325.439C818.668 325.439 818.217 325.648 817.827 326.067C817.443 326.487 817.149 327.019 816.947 327.666V329.915H818.501V331.484H813.573ZM818.893 326.911V324.617L819.241 323.626H820.794L820.358 326.911H818.893ZM829.445 331.025C829.14 331.222 828.77 331.39 828.336 331.528C827.902 331.666 827.413 331.735 826.871 331.735C825.845 331.735 825.083 331.474 824.584 330.951C824.086 330.423 823.837 329.708 823.837 328.805V325.239H822.187V323.626H823.837V321.924L826.175 321.643V323.626H828.706L828.476 325.239H826.175V328.805C826.175 329.195 826.264 329.473 826.441 329.641C826.619 329.809 826.903 329.893 827.292 329.893C827.569 329.893 827.82 329.861 828.047 329.797C828.279 329.727 828.486 329.641 828.669 329.538L829.445 331.025ZM836.047 323.626V329.885H838.045V331.484H831.482V329.885H833.709V325.224H831.556V323.626H836.047ZM834.634 319.512C835.038 319.512 835.369 319.638 835.625 319.889C835.882 320.141 836.01 320.454 836.01 320.829C836.01 321.204 835.882 321.52 835.625 321.776C835.369 322.028 835.038 322.153 834.634 322.153C834.224 322.153 833.889 322.028 833.628 321.776C833.371 321.52 833.243 321.204 833.243 320.829C833.243 320.454 833.371 320.141 833.628 319.889C833.889 319.638 834.224 319.512 834.634 319.512ZM844.217 320.503V329.012C844.217 329.328 844.306 329.555 844.483 329.693C844.666 329.826 844.915 329.893 845.231 329.893C845.433 329.893 845.628 329.871 845.815 329.826C846.003 329.777 846.178 329.72 846.341 329.656L846.903 331.217C846.637 331.355 846.316 331.476 845.941 331.58C845.566 331.683 845.13 331.735 844.631 331.735C843.684 331.735 842.989 331.464 842.545 330.921C842.101 330.374 841.879 329.641 841.879 328.724V322.102H839.563V320.503H844.217ZM853.09 320.503V329.012C853.09 329.328 853.179 329.555 853.356 329.693C853.539 329.826 853.788 329.893 854.104 329.893C854.306 329.893 854.501 329.871 854.688 329.826C854.876 329.777 855.051 329.72 855.214 329.656L855.776 331.217C855.51 331.355 855.189 331.476 854.814 331.58C854.439 331.683 854.003 331.735 853.504 331.735C852.557 331.735 851.862 331.464 851.418 330.921C850.974 330.374 850.752 329.641 850.752 328.724V322.102H848.436V320.503H853.09ZM864.479 329.219C864.479 329.515 864.518 329.73 864.597 329.863C864.681 329.996 864.814 330.097 864.997 330.166L864.516 331.705C864.052 331.661 863.66 331.56 863.339 331.402C863.024 331.239 862.775 330.995 862.592 330.67C862.291 331.03 861.906 331.299 861.438 331.476C860.969 331.649 860.491 331.735 860.002 331.735C859.193 331.735 858.547 331.506 858.064 331.047C857.585 330.583 857.346 329.989 857.346 329.264C857.346 328.41 857.679 327.752 858.345 327.288C859.016 326.825 859.958 326.593 861.171 326.593H862.229V326.297C862.229 325.887 862.096 325.584 861.83 325.387C861.568 325.189 861.184 325.091 860.676 325.091C860.424 325.091 860.101 325.128 859.706 325.202C859.312 325.271 858.917 325.372 858.523 325.505L857.982 323.951C858.49 323.759 859.018 323.613 859.566 323.515C860.118 323.416 860.612 323.367 861.046 323.367C862.215 323.367 863.078 323.606 863.635 324.085C864.198 324.558 864.479 325.244 864.479 326.141V329.219ZM860.809 330.063C861.06 330.063 861.324 329.989 861.601 329.841C861.877 329.688 862.086 329.473 862.229 329.197V327.925H861.652C861.001 327.925 860.523 328.026 860.217 328.228C859.911 328.425 859.758 328.716 859.758 329.101C859.758 329.402 859.849 329.639 860.032 329.811C860.219 329.979 860.478 330.063 860.809 330.063Z" fill="black"/>
<path d="M481.617 39.9362L488.25 51.4255L474.984 51.4255L481.617 39.9362ZM481.617 250.574L480.468 250.574L480.468 50.2766L481.617 50.2766L482.766 50.2766L482.766 250.574L481.617 250.574Z" fill="black"/>
<path d="M481.617 251.723C480.983 251.723 480.468 251.209 480.468 250.574C480.468 249.94 480.983 249.426 481.617 249.426V251.723ZM692.255 250.574L680.766 257.208V243.941L692.255 250.574ZM481.617 250.574V249.426L681.915 249.426V250.574V251.723L481.617 251.723V250.574Z" fill="black"/>
<path d="M481.617 245.979L481.617 254.404" stroke="black" stroke-width="1.53191" stroke-linecap="round"/>
<path d="M477.787 250.574H486.213" stroke="black" stroke-width="1.53191" stroke-linecap="round"/>
<path d="M477.787 173.979H486.213" stroke="black" stroke-width="1.53191" stroke-linecap="round"/>
<path d="M477.787 97.383H486.213" stroke="black" stroke-width="1.53191" stroke-linecap="round"/>
<path d="M558.213 245.979L558.213 254.404" stroke="black" stroke-width="1.53191" stroke-linecap="round"/>
<path d="M634.808 245.979L634.808 254.404" stroke="black" stroke-width="1.53191" stroke-linecap="round"/>
<path d="M475.489 250.574C475.489 253.959 478.233 256.702 481.617 256.702C485.001 256.702 487.745 253.959 487.745 250.574C487.745 247.19 485.001 244.447 481.617 244.447C478.233 244.447 475.489 247.19 475.489 250.574ZM634.809 251.723C635.443 251.723 635.957 251.209 635.957 250.574C635.957 249.94 635.443 249.426 634.809 249.426V251.723ZM481.617 250.574V251.723H634.809V250.574V249.426H481.617V250.574Z" fill="#0037AC"/>
<path d="M634.808 250.574L634.808 173.979" stroke="#0037AC" stroke-width="2.29787" stroke-linecap="round"/>
<path d="M487.047 286.615C487.047 287.72 486.841 288.645 486.429 289.388C486.017 290.126 485.42 290.684 484.636 291.06C483.853 291.431 482.908 291.617 481.803 291.617H479.076V281.8H482.098C483.114 281.8 483.992 281.984 484.73 282.351C485.469 282.713 486.04 283.253 486.443 283.969C486.845 284.681 487.047 285.563 487.047 286.615ZM485.368 286.662C485.368 285.856 485.241 285.193 484.985 284.674C484.735 284.155 484.363 283.77 483.871 283.519C483.383 283.264 482.781 283.136 482.065 283.136H480.688V290.267H481.83C483.016 290.267 483.902 289.965 484.489 289.361C485.075 288.757 485.368 287.857 485.368 286.662ZM490.579 284.184V291.617H489.001V284.184H490.579ZM489.8 281.337C490.042 281.337 490.25 281.402 490.424 281.532C490.603 281.661 490.693 281.885 490.693 282.203C490.693 282.516 490.603 282.74 490.424 282.874C490.25 283.004 490.042 283.069 489.8 283.069C489.549 283.069 489.337 283.004 489.162 282.874C488.992 282.74 488.907 282.516 488.907 282.203C488.907 281.885 488.992 281.661 489.162 281.532C489.337 281.402 489.549 281.337 489.8 281.337ZM497.837 289.495C497.837 289.983 497.719 290.395 497.482 290.731C497.244 291.066 496.897 291.322 496.441 291.496C495.989 291.666 495.434 291.751 494.776 291.751C494.256 291.751 493.809 291.713 493.433 291.637C493.061 291.566 492.71 291.454 492.378 291.301V289.938C492.732 290.104 493.128 290.247 493.567 290.368C494.01 290.489 494.429 290.549 494.823 290.549C495.342 290.549 495.716 290.469 495.944 290.308C496.172 290.142 496.286 289.923 496.286 289.65C496.286 289.488 496.239 289.345 496.145 289.22C496.056 289.09 495.886 288.958 495.635 288.824C495.389 288.685 495.026 288.519 494.547 288.327C494.077 288.139 493.681 287.951 493.359 287.763C493.036 287.575 492.792 287.349 492.627 287.085C492.461 286.816 492.378 286.474 492.378 286.057C492.378 285.399 492.638 284.9 493.157 284.56C493.681 284.215 494.373 284.043 495.232 284.043C495.689 284.043 496.118 284.09 496.521 284.184C496.929 284.273 497.327 284.405 497.717 284.58L497.22 285.769C496.884 285.621 496.546 285.5 496.206 285.406C495.87 285.307 495.528 285.258 495.178 285.258C494.771 285.258 494.46 285.321 494.245 285.446C494.035 285.572 493.929 285.751 493.929 285.983C493.929 286.158 493.981 286.306 494.084 286.427C494.187 286.547 494.364 286.668 494.614 286.789C494.87 286.91 495.223 287.06 495.675 287.239C496.118 287.409 496.501 287.588 496.824 287.776C497.15 287.96 497.401 288.186 497.576 288.454C497.75 288.723 497.837 289.07 497.837 289.495ZM502.309 290.476C502.515 290.476 502.719 290.458 502.921 290.422C503.122 290.382 503.305 290.335 503.471 290.281V291.476C503.297 291.552 503.07 291.617 502.793 291.671C502.515 291.725 502.227 291.751 501.927 291.751C501.506 291.751 501.128 291.682 500.792 291.543C500.456 291.4 500.19 291.156 499.993 290.811C499.796 290.467 499.697 289.99 499.697 289.381V285.386H498.684V284.681L499.771 284.123L500.288 282.532H501.282V284.184H503.411V285.386H501.282V289.361C501.282 289.737 501.376 290.017 501.564 290.2C501.752 290.384 502.001 290.476 502.309 290.476ZM507.896 284.043C508.836 284.043 509.546 284.251 510.025 284.667C510.508 285.084 510.75 285.733 510.75 286.615V291.617H509.629L509.326 290.563H509.273C509.062 290.831 508.845 291.053 508.621 291.228C508.398 291.402 508.138 291.532 507.842 291.617C507.551 291.707 507.196 291.751 506.775 291.751C506.332 291.751 505.935 291.671 505.586 291.51C505.237 291.344 504.962 291.093 504.76 290.758C504.559 290.422 504.458 289.997 504.458 289.482C504.458 288.716 504.742 288.141 505.311 287.756C505.884 287.371 506.748 287.158 507.903 287.118L509.192 287.071V286.682C509.192 286.167 509.071 285.8 508.829 285.581C508.592 285.361 508.256 285.251 507.822 285.251C507.451 285.251 507.09 285.305 506.741 285.413C506.392 285.52 506.052 285.652 505.721 285.809L505.21 284.694C505.573 284.502 505.985 284.345 506.446 284.224C506.911 284.103 507.395 284.043 507.896 284.043ZM509.185 288.065L508.225 288.099C507.437 288.125 506.884 288.26 506.567 288.501C506.249 288.743 506.09 289.074 506.09 289.495C506.09 289.862 506.2 290.131 506.419 290.301C506.638 290.467 506.927 290.549 507.285 290.549C507.831 290.549 508.283 290.395 508.641 290.086C509.004 289.773 509.185 289.314 509.185 288.71V288.065ZM516.833 284.043C517.671 284.043 518.322 284.26 518.787 284.694C519.257 285.124 519.492 285.816 519.492 286.769V291.617H517.915V287.064C517.915 286.487 517.796 286.055 517.559 285.769C517.321 285.478 516.954 285.332 516.457 285.332C515.737 285.332 515.235 285.554 514.953 285.997C514.676 286.44 514.537 287.082 514.537 287.924V291.617H512.959V284.184H514.188L514.409 285.191H514.497C514.658 284.931 514.857 284.719 515.094 284.553C515.336 284.383 515.605 284.255 515.9 284.17C516.2 284.085 516.511 284.043 516.833 284.043ZM524.696 291.751C523.994 291.751 523.385 291.615 522.87 291.342C522.355 291.069 521.959 290.65 521.681 290.086C521.404 289.522 521.265 288.806 521.265 287.937C521.265 287.033 521.417 286.295 521.722 285.722C522.026 285.149 522.447 284.726 522.984 284.452C523.526 284.179 524.146 284.043 524.844 284.043C525.287 284.043 525.688 284.088 526.046 284.177C526.409 284.262 526.715 284.367 526.966 284.493L526.496 285.755C526.223 285.643 525.943 285.549 525.657 285.473C525.37 285.397 525.095 285.359 524.831 285.359C524.396 285.359 524.034 285.455 523.743 285.648C523.456 285.84 523.242 286.127 523.098 286.507C522.96 286.888 522.89 287.36 522.89 287.924C522.89 288.47 522.962 288.931 523.105 289.307C523.248 289.679 523.461 289.961 523.743 290.153C524.025 290.341 524.372 290.435 524.784 290.435C525.191 290.435 525.556 290.386 525.878 290.288C526.201 290.189 526.505 290.061 526.791 289.905V291.275C526.509 291.436 526.207 291.554 525.885 291.63C525.563 291.711 525.166 291.751 524.696 291.751ZM530.115 284.184V291.617H528.537V284.184H530.115ZM529.336 281.337C529.578 281.337 529.786 281.402 529.961 281.532C530.14 281.661 530.229 281.885 530.229 282.203C530.229 282.516 530.14 282.74 529.961 282.874C529.786 283.004 529.578 283.069 529.336 283.069C529.086 283.069 528.873 283.004 528.698 282.874C528.528 282.74 528.443 282.516 528.443 282.203C528.443 281.885 528.528 281.661 528.698 281.532C528.873 281.402 529.086 281.337 529.336 281.337ZM535.292 284.043C536.232 284.043 536.942 284.251 537.421 284.667C537.904 285.084 538.146 285.733 538.146 286.615V291.617H537.025L536.723 290.563H536.669C536.458 290.831 536.241 291.053 536.017 291.228C535.794 291.402 535.534 291.532 535.239 291.617C534.948 291.707 534.592 291.751 534.171 291.751C533.728 291.751 533.332 291.671 532.982 291.51C532.633 291.344 532.358 291.093 532.156 290.758C531.955 290.422 531.854 289.997 531.854 289.482C531.854 288.716 532.139 288.141 532.707 287.756C533.28 287.371 534.144 287.158 535.299 287.118L536.588 287.071V286.682C536.588 286.167 536.467 285.8 536.226 285.581C535.988 285.361 535.653 285.251 535.218 285.251C534.847 285.251 534.487 285.305 534.137 285.413C533.788 285.52 533.448 285.652 533.117 285.809L532.606 284.694C532.969 284.502 533.381 284.345 533.842 284.224C534.307 284.103 534.791 284.043 535.292 284.043ZM536.582 288.065L535.621 288.099C534.833 288.125 534.281 288.26 533.963 288.501C533.645 288.743 533.486 289.074 533.486 289.495C533.486 289.862 533.596 290.131 533.815 290.301C534.034 290.467 534.323 290.549 534.681 290.549C535.227 290.549 535.679 290.395 536.038 290.086C536.4 289.773 536.582 289.314 536.582 288.71V288.065ZM546.842 284.043C547.782 284.043 548.491 284.251 548.97 284.667C549.454 285.084 549.695 285.733 549.695 286.615V291.617H548.574L548.272 290.563H548.218C548.008 290.831 547.791 291.053 547.567 291.228C547.343 291.402 547.083 291.532 546.788 291.617C546.497 291.707 546.141 291.751 545.72 291.751C545.277 291.751 544.881 291.671 544.532 291.51C544.183 291.344 543.907 291.093 543.706 290.758C543.504 290.422 543.404 289.997 543.404 289.482C543.404 288.716 543.688 288.141 544.256 287.756C544.829 287.371 545.693 287.158 546.848 287.118L548.138 287.071V286.682C548.138 286.167 548.017 285.8 547.775 285.581C547.538 285.361 547.202 285.251 546.768 285.251C546.396 285.251 546.036 285.305 545.687 285.413C545.338 285.52 544.997 285.652 544.666 285.809L544.156 284.694C544.518 284.502 544.93 284.345 545.391 284.224C545.857 284.103 546.34 284.043 546.842 284.043ZM548.131 288.065L547.171 288.099C546.383 288.125 545.83 288.26 545.512 288.501C545.194 288.743 545.035 289.074 545.035 289.495C545.035 289.862 545.145 290.131 545.364 290.301C545.584 290.467 545.872 290.549 546.231 290.549C546.777 290.549 547.229 290.395 547.587 290.086C547.95 289.773 548.131 289.314 548.131 288.71V288.065ZM553.483 281.169V283.687C553.483 283.978 553.474 284.264 553.456 284.546C553.442 284.824 553.429 285.041 553.415 285.198H553.483C553.684 284.875 553.964 284.605 554.322 284.385C554.684 284.161 555.148 284.05 555.712 284.05C556.594 284.05 557.303 284.374 557.84 285.023C558.378 285.668 558.646 286.624 558.646 287.89C558.646 288.732 558.523 289.439 558.277 290.012C558.031 290.585 557.684 291.019 557.236 291.315C556.793 291.606 556.271 291.751 555.672 291.751C555.107 291.751 554.651 291.648 554.302 291.442C553.957 291.232 553.686 290.988 553.489 290.711H553.375L553.086 291.617H551.905V281.169H553.483ZM555.295 285.332C554.848 285.332 554.492 285.422 554.228 285.601C553.968 285.78 553.78 286.048 553.664 286.406C553.547 286.76 553.487 287.21 553.483 287.756V287.897C553.483 288.725 553.612 289.359 553.872 289.797C554.136 290.236 554.615 290.455 555.309 290.455C555.86 290.455 556.283 290.234 556.578 289.791C556.873 289.343 557.021 288.703 557.021 287.87C557.021 287.029 556.873 286.395 556.578 285.97C556.287 285.545 555.86 285.332 555.295 285.332ZM565.468 289.495C565.468 289.983 565.35 290.395 565.112 290.731C564.875 291.066 564.528 291.322 564.072 291.496C563.62 291.666 563.064 291.751 562.406 291.751C561.887 291.751 561.439 291.713 561.063 291.637C560.692 291.566 560.341 291.454 560.009 291.301V289.938C560.363 290.104 560.759 290.247 561.198 290.368C561.641 290.489 562.059 290.549 562.453 290.549C562.973 290.549 563.346 290.469 563.575 290.308C563.803 290.142 563.917 289.923 563.917 289.65C563.917 289.488 563.87 289.345 563.776 289.22C563.687 289.09 563.517 288.958 563.266 288.824C563.02 288.685 562.657 288.519 562.178 288.327C561.708 288.139 561.312 287.951 560.99 287.763C560.667 287.575 560.423 287.349 560.258 287.085C560.092 286.816 560.009 286.474 560.009 286.057C560.009 285.399 560.269 284.9 560.788 284.56C561.312 284.215 562.004 284.043 562.863 284.043C563.32 284.043 563.749 284.09 564.152 284.184C564.56 284.273 564.958 284.405 565.347 284.58L564.851 285.769C564.515 285.621 564.177 285.5 563.837 285.406C563.501 285.307 563.158 285.258 562.809 285.258C562.402 285.258 562.091 285.321 561.876 285.446C561.666 285.572 561.56 285.751 561.56 285.983C561.56 286.158 561.612 286.306 561.715 286.427C561.818 286.547 561.995 286.668 562.245 286.789C562.5 286.91 562.854 287.06 563.306 287.239C563.749 287.409 564.132 287.588 564.454 287.776C564.781 287.96 565.032 288.186 565.206 288.454C565.381 288.723 565.468 289.07 565.468 289.495ZM573.754 287.884C573.754 288.501 573.674 289.05 573.513 289.529C573.351 290.008 573.116 290.413 572.808 290.744C572.499 291.071 572.127 291.322 571.693 291.496C571.259 291.666 570.769 291.751 570.222 291.751C569.712 291.751 569.244 291.666 568.819 291.496C568.394 291.322 568.024 291.071 567.711 290.744C567.402 290.413 567.163 290.008 566.993 289.529C566.822 289.05 566.737 288.501 566.737 287.884C566.737 287.064 566.878 286.371 567.16 285.802C567.447 285.229 567.854 284.793 568.383 284.493C568.911 284.193 569.54 284.043 570.269 284.043C570.954 284.043 571.559 284.193 572.082 284.493C572.606 284.793 573.016 285.229 573.311 285.802C573.607 286.375 573.754 287.069 573.754 287.884ZM568.362 287.884C568.362 288.425 568.427 288.889 568.557 289.274C568.691 289.659 568.897 289.954 569.175 290.16C569.452 290.361 569.811 290.462 570.249 290.462C570.688 290.462 571.046 290.361 571.324 290.16C571.601 289.954 571.805 289.659 571.935 289.274C572.064 288.889 572.129 288.425 572.129 287.884C572.129 287.342 572.064 286.883 571.935 286.507C571.805 286.127 571.601 285.838 571.324 285.641C571.046 285.44 570.686 285.339 570.243 285.339C569.589 285.339 569.112 285.558 568.812 285.997C568.512 286.436 568.362 287.064 568.362 287.884ZM577.152 291.617H575.567V281.169H577.152V291.617ZM585.888 284.184V291.617H584.646L584.431 290.617H584.343C584.187 290.872 583.988 291.084 583.746 291.254C583.504 291.42 583.236 291.543 582.94 291.624C582.645 291.709 582.334 291.751 582.007 291.751C581.447 291.751 580.968 291.657 580.57 291.469C580.176 291.277 579.874 290.981 579.663 290.583C579.453 290.185 579.348 289.67 579.348 289.039V284.184H580.932V288.743C580.932 289.321 581.049 289.753 581.282 290.039C581.519 290.326 581.886 290.469 582.383 290.469C582.862 290.469 583.242 290.37 583.524 290.173C583.806 289.976 584.005 289.685 584.122 289.3C584.243 288.916 584.303 288.443 584.303 287.884V284.184H585.888ZM590.917 290.476C591.123 290.476 591.327 290.458 591.528 290.422C591.73 290.382 591.913 290.335 592.079 290.281V291.476C591.904 291.552 591.678 291.617 591.401 291.671C591.123 291.725 590.834 291.751 590.534 291.751C590.114 291.751 589.735 291.682 589.4 291.543C589.064 291.4 588.798 291.156 588.601 290.811C588.404 290.467 588.305 289.99 588.305 289.381V285.386H587.291V284.681L588.379 284.123L588.896 282.532H589.89V284.184H592.018V285.386H589.89V289.361C589.89 289.737 589.984 290.017 590.172 290.2C590.36 290.384 590.608 290.476 590.917 290.476ZM596.504 284.043C597.444 284.043 598.153 284.251 598.632 284.667C599.116 285.084 599.358 285.733 599.358 286.615V291.617H598.236L597.934 290.563H597.88C597.67 290.831 597.453 291.053 597.229 291.228C597.005 291.402 596.746 291.532 596.45 291.617C596.159 291.707 595.803 291.751 595.383 291.751C594.939 291.751 594.543 291.671 594.194 291.51C593.845 291.344 593.57 291.093 593.368 290.758C593.167 290.422 593.066 289.997 593.066 289.482C593.066 288.716 593.35 288.141 593.919 287.756C594.492 287.371 595.356 287.158 596.511 287.118L597.8 287.071V286.682C597.8 286.167 597.679 285.8 597.437 285.581C597.2 285.361 596.864 285.251 596.43 285.251C596.058 285.251 595.698 285.305 595.349 285.413C595 285.52 594.66 285.652 594.328 285.809L593.818 284.694C594.181 284.502 594.592 284.345 595.053 284.224C595.519 284.103 596.003 284.043 596.504 284.043ZM597.793 288.065L596.833 288.099C596.045 288.125 595.492 288.26 595.174 288.501C594.857 288.743 594.698 289.074 594.698 289.495C594.698 289.862 594.807 290.131 595.027 290.301C595.246 290.467 595.535 290.549 595.893 290.549C596.439 290.549 596.891 290.395 597.249 290.086C597.612 289.773 597.793 289.314 597.793 288.71V288.065ZM608.1 284.043C608.763 284.043 609.331 284.179 609.806 284.452C610.28 284.726 610.645 285.113 610.9 285.614C611.155 286.115 611.283 286.715 611.283 287.414V288.26H606.321C606.339 288.98 606.531 289.535 606.898 289.925C607.27 290.314 607.789 290.509 608.456 290.509C608.931 290.509 609.356 290.464 609.732 290.375C610.112 290.281 610.504 290.144 610.907 289.965V291.248C610.535 291.422 610.157 291.55 609.772 291.63C609.387 291.711 608.926 291.751 608.389 291.751C607.659 291.751 607.017 291.61 606.462 291.328C605.911 291.042 605.479 290.617 605.166 290.053C604.857 289.488 604.703 288.788 604.703 287.951C604.703 287.118 604.844 286.411 605.126 285.829C605.408 285.247 605.804 284.804 606.314 284.499C606.824 284.195 607.42 284.043 608.1 284.043ZM608.1 285.231C607.603 285.231 607.2 285.392 606.892 285.715C606.587 286.037 606.408 286.509 606.354 287.132H609.739C609.734 286.76 609.671 286.431 609.551 286.145C609.434 285.858 609.255 285.634 609.013 285.473C608.776 285.312 608.472 285.231 608.1 285.231ZM616.937 284.043C617.774 284.043 618.425 284.26 618.891 284.694C619.361 285.124 619.596 285.816 619.596 286.769V291.617H618.018V287.064C618.018 286.487 617.899 286.055 617.662 285.769C617.425 285.478 617.058 285.332 616.561 285.332C615.84 285.332 615.339 285.554 615.057 285.997C614.779 286.44 614.64 287.082 614.64 287.924V291.617H613.062V284.184H614.291L614.513 285.191H614.6C614.761 284.931 614.96 284.719 615.198 284.553C615.439 284.383 615.708 284.255 616.003 284.17C616.303 284.085 616.615 284.043 616.937 284.043ZM623.746 291.617L626.949 287.83L625.35 284.258H626.478L627.66 287.038L629.903 284.258H631.199L628.124 287.877L629.829 291.617H628.688L627.398 288.689L625.042 291.617H623.746ZM632.938 285.829C632.732 285.829 632.569 285.771 632.448 285.654C632.331 285.538 632.273 285.377 632.273 285.171C632.273 284.974 632.307 284.795 632.374 284.634C632.446 284.468 632.553 284.336 632.696 284.238C632.844 284.135 633.03 284.083 633.254 284.083C633.446 284.083 633.601 284.139 633.717 284.251C633.833 284.363 633.892 284.533 633.892 284.761C633.892 285.034 633.813 285.281 633.657 285.5C633.5 285.719 633.26 285.829 632.938 285.829ZM631.817 291.805C631.606 291.805 631.443 291.745 631.327 291.624C631.21 291.507 631.152 291.342 631.152 291.127C631.152 290.845 631.23 290.596 631.387 290.382C631.548 290.162 631.799 290.053 632.139 290.053C632.327 290.053 632.479 290.111 632.596 290.227C632.712 290.344 632.77 290.514 632.77 290.737C632.77 291.002 632.692 291.246 632.535 291.469C632.378 291.693 632.139 291.805 631.817 291.805ZM637.934 291.617L638.135 290.664L641.311 287.796C641.75 287.398 642.133 287.042 642.46 286.729C642.791 286.415 643.066 286.12 643.285 285.842C643.505 285.56 643.668 285.276 643.776 284.99C643.888 284.703 643.944 284.39 643.944 284.05C643.944 283.624 643.814 283.28 643.554 283.015C643.294 282.751 642.927 282.619 642.453 282.619C642.184 282.619 641.929 282.657 641.687 282.733C641.446 282.805 641.211 282.906 640.982 283.036C640.758 283.161 640.535 283.306 640.311 283.472L639.78 282.707C640.17 282.402 640.591 282.152 641.043 281.955C641.495 281.758 642.005 281.659 642.574 281.659C643.115 281.659 643.574 281.753 643.95 281.941C644.326 282.129 644.613 282.389 644.81 282.72C645.007 283.051 645.105 283.436 645.105 283.875C645.105 284.412 645 284.907 644.79 285.359C644.579 285.807 644.248 286.27 643.796 286.749C643.344 287.228 642.753 287.787 642.023 288.428L639.599 290.549V290.596H644.152L643.957 291.617H637.934Z" fill="#0037AC"/>
<path d="M663.983 213.083C663.983 214.188 663.777 215.113 663.365 215.856C662.953 216.594 662.356 217.152 661.572 217.528C660.789 217.899 659.844 218.085 658.739 218.085H656.013V208.268H659.034C660.05 208.268 660.928 208.452 661.666 208.819C662.405 209.181 662.976 209.721 663.379 210.437C663.782 211.149 663.983 212.031 663.983 213.083ZM662.304 213.13C662.304 212.324 662.177 211.661 661.922 211.142C661.671 210.623 661.299 210.238 660.807 209.987C660.319 209.732 659.717 209.604 659.001 209.604H657.624V216.735H658.766C659.952 216.735 660.838 216.433 661.425 215.829C662.011 215.225 662.304 214.325 662.304 213.13ZM667.515 210.652V218.085H665.937V210.652H667.515ZM666.736 207.805C666.978 207.805 667.186 207.87 667.361 208C667.54 208.129 667.629 208.353 667.629 208.671C667.629 208.984 667.54 209.208 667.361 209.343C667.186 209.472 666.978 209.537 666.736 209.537C666.485 209.537 666.273 209.472 666.098 209.343C665.928 209.208 665.843 208.984 665.843 208.671C665.843 208.353 665.928 208.129 666.098 208C666.273 207.87 666.485 207.805 666.736 207.805ZM674.774 215.963C674.774 216.451 674.655 216.863 674.418 217.199C674.18 217.535 673.834 217.79 673.377 217.964C672.925 218.134 672.37 218.219 671.712 218.219C671.192 218.219 670.745 218.181 670.369 218.105C669.997 218.034 669.646 217.922 669.315 217.77V216.406C669.668 216.572 670.064 216.715 670.503 216.836C670.946 216.957 671.365 217.017 671.759 217.017C672.278 217.017 672.652 216.937 672.88 216.776C673.108 216.61 673.223 216.391 673.223 216.118C673.223 215.957 673.175 215.813 673.081 215.688C672.992 215.558 672.822 215.426 672.571 215.292C672.325 215.153 671.962 214.987 671.483 214.795C671.013 214.607 670.617 214.419 670.295 214.231C669.973 214.043 669.729 213.817 669.563 213.553C669.397 213.284 669.315 212.942 669.315 212.525C669.315 211.867 669.574 211.368 670.093 211.028C670.617 210.683 671.309 210.511 672.168 210.511C672.625 210.511 673.055 210.558 673.458 210.652C673.865 210.741 674.263 210.873 674.653 211.048L674.156 212.237C673.82 212.089 673.482 211.968 673.142 211.874C672.806 211.775 672.464 211.726 672.115 211.726C671.707 211.726 671.396 211.789 671.181 211.914C670.971 212.04 670.866 212.219 670.866 212.451C670.866 212.626 670.917 212.774 671.02 212.895C671.123 213.015 671.3 213.136 671.551 213.257C671.806 213.378 672.159 213.528 672.611 213.707C673.055 213.877 673.437 214.056 673.76 214.244C674.086 214.428 674.337 214.654 674.512 214.922C674.686 215.191 674.774 215.538 674.774 215.963ZM679.246 216.944C679.452 216.944 679.655 216.926 679.857 216.89C680.058 216.85 680.242 216.803 680.407 216.749V217.944C680.233 218.02 680.007 218.085 679.729 218.139C679.452 218.193 679.163 218.219 678.863 218.219C678.442 218.219 678.064 218.15 677.728 218.011C677.392 217.868 677.126 217.624 676.929 217.279C676.732 216.935 676.634 216.458 676.634 215.849V211.854H675.62V211.149L676.707 210.591L677.224 209H678.218V210.652H680.347V211.854H678.218V215.829C678.218 216.205 678.312 216.485 678.5 216.668C678.688 216.852 678.937 216.944 679.246 216.944ZM684.832 210.511C685.772 210.511 686.482 210.719 686.961 211.135C687.444 211.552 687.686 212.201 687.686 213.083V218.085H686.565L686.263 217.031H686.209C685.998 217.299 685.781 217.521 685.557 217.696C685.334 217.87 685.074 218 684.779 218.085C684.488 218.175 684.132 218.219 683.711 218.219C683.268 218.219 682.872 218.139 682.522 217.978C682.173 217.812 681.898 217.561 681.697 217.226C681.495 216.89 681.394 216.465 681.394 215.95C681.394 215.184 681.679 214.609 682.247 214.224C682.82 213.839 683.684 213.627 684.839 213.586L686.128 213.539V213.15C686.128 212.635 686.007 212.268 685.766 212.049C685.528 211.829 685.193 211.72 684.758 211.72C684.387 211.72 684.027 211.773 683.677 211.881C683.328 211.988 682.988 212.12 682.657 212.277L682.146 211.162C682.509 210.97 682.921 210.813 683.382 210.692C683.847 210.571 684.331 210.511 684.832 210.511ZM686.122 214.533L685.161 214.567C684.373 214.593 683.821 214.728 683.503 214.969C683.185 215.211 683.026 215.542 683.026 215.963C683.026 216.33 683.136 216.599 683.355 216.769C683.574 216.935 683.863 217.017 684.221 217.017C684.767 217.017 685.22 216.863 685.578 216.554C685.94 216.241 686.122 215.782 686.122 215.178V214.533ZM693.77 210.511C694.607 210.511 695.258 210.728 695.724 211.162C696.194 211.592 696.429 212.284 696.429 213.237V218.085H694.851V213.533C694.851 212.955 694.732 212.523 694.495 212.237C694.258 211.946 693.89 211.8 693.394 211.8C692.673 211.8 692.172 212.022 691.889 212.465C691.612 212.908 691.473 213.55 691.473 214.392V218.085H689.895V210.652H691.124L691.346 211.659H691.433C691.594 211.399 691.793 211.187 692.03 211.021C692.272 210.851 692.541 210.724 692.836 210.638C693.136 210.553 693.447 210.511 693.77 210.511ZM701.633 218.219C700.93 218.219 700.321 218.083 699.806 217.81C699.291 217.537 698.895 217.118 698.618 216.554C698.34 215.99 698.201 215.274 698.201 214.405C698.201 213.501 698.354 212.763 698.658 212.19C698.962 211.617 699.383 211.194 699.92 210.92C700.462 210.647 701.082 210.511 701.78 210.511C702.223 210.511 702.624 210.556 702.982 210.645C703.345 210.73 703.651 210.835 703.902 210.961L703.432 212.223C703.159 212.111 702.879 212.017 702.593 211.941C702.306 211.865 702.031 211.827 701.767 211.827C701.333 211.827 700.97 211.923 700.679 212.116C700.393 212.308 700.178 212.595 700.034 212.975C699.896 213.356 699.826 213.828 699.826 214.392C699.826 214.938 699.898 215.399 700.041 215.775C700.184 216.147 700.397 216.429 700.679 216.621C700.961 216.809 701.308 216.903 701.72 216.903C702.127 216.903 702.492 216.854 702.814 216.756C703.137 216.657 703.441 216.53 703.728 216.373V217.743C703.446 217.904 703.143 218.022 702.821 218.099C702.499 218.179 702.103 218.219 701.633 218.219ZM707.051 210.652V218.085H705.473V210.652H707.051ZM706.272 207.805C706.514 207.805 706.722 207.87 706.897 208C707.076 208.129 707.166 208.353 707.166 208.671C707.166 208.984 707.076 209.208 706.897 209.343C706.722 209.472 706.514 209.537 706.272 209.537C706.022 209.537 705.809 209.472 705.635 209.343C705.464 209.208 705.379 208.984 705.379 208.671C705.379 208.353 705.464 208.129 705.635 208C705.809 207.87 706.022 207.805 706.272 207.805ZM712.228 210.511C713.168 210.511 713.878 210.719 714.357 211.135C714.84 211.552 715.082 212.201 715.082 213.083V218.085H713.961L713.659 217.031H713.605C713.395 217.299 713.177 217.521 712.954 217.696C712.73 217.87 712.47 218 712.175 218.085C711.884 218.175 711.528 218.219 711.107 218.219C710.664 218.219 710.268 218.139 709.919 217.978C709.569 217.812 709.294 217.561 709.093 217.226C708.891 216.89 708.79 216.465 708.79 215.95C708.79 215.184 709.075 214.609 709.643 214.224C710.216 213.839 711.08 213.627 712.235 213.586L713.524 213.539V213.15C713.524 212.635 713.404 212.268 713.162 212.049C712.925 211.829 712.589 211.72 712.155 211.72C711.783 211.72 711.423 211.773 711.073 211.881C710.724 211.988 710.384 212.12 710.053 212.277L709.543 211.162C709.905 210.97 710.317 210.813 710.778 210.692C711.244 210.571 711.727 210.511 712.228 210.511ZM713.518 214.533L712.557 214.567C711.77 214.593 711.217 214.728 710.899 214.969C710.581 215.211 710.422 215.542 710.422 215.963C710.422 216.33 710.532 216.599 710.751 216.769C710.971 216.935 711.259 217.017 711.617 217.017C712.164 217.017 712.616 216.863 712.974 216.554C713.336 216.241 713.518 215.782 713.518 215.178V214.533ZM723.778 210.511C724.718 210.511 725.427 210.719 725.906 211.135C726.39 211.552 726.632 212.201 726.632 213.083V218.085H725.51L725.208 217.031H725.154C724.944 217.299 724.727 217.521 724.503 217.696C724.279 217.87 724.02 218 723.724 218.085C723.433 218.175 723.077 218.219 722.656 218.219C722.213 218.219 721.817 218.139 721.468 217.978C721.119 217.812 720.843 217.561 720.642 217.226C720.441 216.89 720.34 216.465 720.34 215.95C720.34 215.184 720.624 214.609 721.193 214.224C721.766 213.839 722.63 213.627 723.785 213.586L725.074 213.539V213.15C725.074 212.635 724.953 212.268 724.711 212.049C724.474 211.829 724.138 211.72 723.704 211.72C723.332 211.72 722.972 211.773 722.623 211.881C722.274 211.988 721.933 212.12 721.602 212.277L721.092 211.162C721.454 210.97 721.866 210.813 722.327 210.692C722.793 210.571 723.276 210.511 723.778 210.511ZM725.067 214.533L724.107 214.567C723.319 214.593 722.766 214.728 722.448 214.969C722.13 215.211 721.972 215.542 721.972 215.963C721.972 216.33 722.081 216.599 722.301 216.769C722.52 216.935 722.809 217.017 723.167 217.017C723.713 217.017 724.165 216.863 724.523 216.554C724.886 216.241 725.067 215.782 725.067 215.178V214.533ZM730.419 207.637V210.155C730.419 210.446 730.41 210.732 730.392 211.014C730.378 211.292 730.365 211.509 730.352 211.666H730.419C730.62 211.344 730.9 211.073 731.258 210.853C731.621 210.63 732.084 210.518 732.648 210.518C733.53 210.518 734.239 210.842 734.777 211.491C735.314 212.136 735.582 213.092 735.582 214.358C735.582 215.2 735.459 215.907 735.213 216.48C734.967 217.053 734.62 217.488 734.172 217.783C733.729 218.074 733.208 218.219 732.608 218.219C732.044 218.219 731.587 218.116 731.238 217.911C730.893 217.7 730.622 217.456 730.425 217.179H730.311L730.023 218.085H728.841V207.637H730.419ZM732.232 211.8C731.784 211.8 731.428 211.89 731.164 212.069C730.904 212.248 730.716 212.516 730.6 212.874C730.484 213.228 730.423 213.678 730.419 214.224V214.365C730.419 215.193 730.548 215.827 730.808 216.265C731.072 216.704 731.551 216.923 732.245 216.923C732.796 216.923 733.219 216.702 733.514 216.259C733.81 215.811 733.957 215.171 733.957 214.338C733.957 213.497 733.81 212.863 733.514 212.438C733.223 212.013 732.796 211.8 732.232 211.8ZM742.404 215.963C742.404 216.451 742.286 216.863 742.049 217.199C741.811 217.535 741.464 217.79 741.008 217.964C740.556 218.134 740.001 218.219 739.343 218.219C738.823 218.219 738.376 218.181 738 218.105C737.628 218.034 737.277 217.922 736.945 217.77V216.406C737.299 216.572 737.695 216.715 738.134 216.836C738.577 216.957 738.996 217.017 739.39 217.017C739.909 217.017 740.283 216.937 740.511 216.776C740.739 216.61 740.853 216.391 740.853 216.118C740.853 215.957 740.806 215.813 740.712 215.688C740.623 215.558 740.453 215.426 740.202 215.292C739.956 215.153 739.593 214.987 739.114 214.795C738.644 214.607 738.248 214.419 737.926 214.231C737.603 214.043 737.359 213.817 737.194 213.553C737.028 213.284 736.945 212.942 736.945 212.525C736.945 211.867 737.205 211.368 737.724 211.028C738.248 210.683 738.94 210.511 739.799 210.511C740.256 210.511 740.686 210.558 741.088 210.652C741.496 210.741 741.894 210.873 742.284 211.048L741.787 212.237C741.451 212.089 741.113 211.968 740.773 211.874C740.437 211.775 740.095 211.726 739.745 211.726C739.338 211.726 739.027 211.789 738.812 211.914C738.602 212.04 738.497 212.219 738.497 212.451C738.497 212.626 738.548 212.774 738.651 212.895C738.754 213.015 738.931 213.136 739.181 213.257C739.437 213.378 739.79 213.528 740.242 213.707C740.686 213.877 741.068 214.056 741.391 214.244C741.717 214.428 741.968 214.654 742.143 214.922C742.317 215.191 742.404 215.538 742.404 215.963ZM750.69 214.352C750.69 214.969 750.61 215.518 750.449 215.997C750.288 216.476 750.053 216.881 749.744 217.212C749.435 217.539 749.063 217.79 748.629 217.964C748.195 218.134 747.705 218.219 747.159 218.219C746.648 218.219 746.18 218.134 745.755 217.964C745.33 217.79 744.961 217.539 744.647 217.212C744.338 216.881 744.099 216.476 743.929 215.997C743.759 215.518 743.674 214.969 743.674 214.352C743.674 213.533 743.815 212.839 744.097 212.27C744.383 211.697 744.79 211.261 745.319 210.961C745.847 210.661 746.476 210.511 747.206 210.511C747.89 210.511 748.495 210.661 749.019 210.961C749.542 211.261 749.952 211.697 750.247 212.27C750.543 212.843 750.69 213.537 750.69 214.352ZM745.299 214.352C745.299 214.893 745.363 215.357 745.493 215.742C745.628 216.127 745.833 216.422 746.111 216.628C746.389 216.829 746.747 216.93 747.185 216.93C747.624 216.93 747.982 216.829 748.26 216.628C748.537 216.422 748.741 216.127 748.871 215.742C749.001 215.357 749.066 214.893 749.066 214.352C749.066 213.81 749.001 213.351 748.871 212.975C748.741 212.595 748.537 212.306 748.26 212.109C747.982 211.908 747.622 211.807 747.179 211.807C746.525 211.807 746.048 212.026 745.748 212.465C745.449 212.904 745.299 213.533 745.299 214.352ZM754.088 218.085H752.503V207.637H754.088V218.085ZM762.824 210.652V218.085H761.582L761.367 217.085H761.28C761.123 217.34 760.924 217.552 760.682 217.723C760.44 217.888 760.172 218.011 759.876 218.092C759.581 218.177 759.27 218.219 758.943 218.219C758.383 218.219 757.904 218.125 757.506 217.937C757.112 217.745 756.81 217.449 756.599 217.051C756.389 216.653 756.284 216.138 756.284 215.507V210.652H757.869V215.211C757.869 215.789 757.985 216.221 758.218 216.507C758.455 216.794 758.822 216.937 759.319 216.937C759.798 216.937 760.178 216.838 760.46 216.641C760.742 216.444 760.942 216.154 761.058 215.769C761.179 215.384 761.239 214.911 761.239 214.352V210.652H762.824ZM767.853 216.944C768.059 216.944 768.263 216.926 768.464 216.89C768.666 216.85 768.849 216.803 769.015 216.749V217.944C768.84 218.02 768.614 218.085 768.337 218.139C768.059 218.193 767.771 218.219 767.471 218.219C767.05 218.219 766.672 218.15 766.336 218.011C766 217.868 765.734 217.624 765.537 217.279C765.34 216.935 765.241 216.458 765.241 215.849V211.854H764.227V211.149L765.315 210.591L765.832 209H766.826V210.652H768.955V211.854H766.826V215.829C766.826 216.205 766.92 216.485 767.108 216.668C767.296 216.852 767.544 216.944 767.853 216.944ZM773.44 210.511C774.38 210.511 775.09 210.719 775.569 211.135C776.052 211.552 776.294 212.201 776.294 213.083V218.085H775.172L774.87 217.031H774.817C774.606 217.299 774.389 217.521 774.165 217.696C773.941 217.87 773.682 218 773.386 218.085C773.095 218.175 772.739 218.219 772.319 218.219C771.875 218.219 771.479 218.139 771.13 217.978C770.781 217.812 770.506 217.561 770.304 217.226C770.103 216.89 770.002 216.465 770.002 215.95C770.002 215.184 770.286 214.609 770.855 214.224C771.428 213.839 772.292 213.627 773.447 213.586L774.736 213.539V213.15C774.736 212.635 774.615 212.268 774.373 212.049C774.136 211.829 773.8 211.72 773.366 211.72C772.995 211.72 772.634 211.773 772.285 211.881C771.936 211.988 771.596 212.12 771.264 212.277L770.754 211.162C771.117 210.97 771.529 210.813 771.99 210.692C772.455 210.571 772.939 210.511 773.44 210.511ZM774.729 214.533L773.769 214.567C772.981 214.593 772.428 214.728 772.111 214.969C771.793 215.211 771.634 215.542 771.634 215.963C771.634 216.33 771.743 216.599 771.963 216.769C772.182 216.935 772.471 217.017 772.829 217.017C773.375 217.017 773.827 216.863 774.185 216.554C774.548 216.241 774.729 215.782 774.729 215.178V214.533ZM785.036 210.511C785.699 210.511 786.267 210.647 786.742 210.92C787.216 211.194 787.581 211.581 787.836 212.082C788.092 212.584 788.219 213.183 788.219 213.882V214.728H783.257C783.275 215.448 783.467 216.004 783.834 216.393C784.206 216.782 784.725 216.977 785.392 216.977C785.867 216.977 786.292 216.932 786.668 216.843C787.049 216.749 787.44 216.612 787.843 216.433V217.716C787.472 217.89 787.093 218.018 786.708 218.099C786.323 218.179 785.862 218.219 785.325 218.219C784.595 218.219 783.953 218.078 783.398 217.796C782.847 217.51 782.415 217.085 782.102 216.521C781.793 215.957 781.639 215.256 781.639 214.419C781.639 213.586 781.78 212.879 782.062 212.297C782.344 211.715 782.74 211.272 783.25 210.967C783.761 210.663 784.356 210.511 785.036 210.511ZM785.036 211.699C784.539 211.699 784.137 211.861 783.828 212.183C783.523 212.505 783.344 212.977 783.291 213.6H786.675C786.67 213.228 786.608 212.899 786.487 212.613C786.37 212.326 786.191 212.102 785.95 211.941C785.712 211.78 785.408 211.699 785.036 211.699ZM793.873 210.511C794.71 210.511 795.361 210.728 795.827 211.162C796.297 211.592 796.532 212.284 796.532 213.237V218.085H794.954V213.533C794.954 212.955 794.835 212.523 794.598 212.237C794.361 211.946 793.994 211.8 793.497 211.8C792.776 211.8 792.275 212.022 791.993 212.465C791.715 212.908 791.577 213.55 791.577 214.392V218.085H789.999V210.652H791.227L791.449 211.659H791.536C791.697 211.399 791.897 211.187 792.134 211.021C792.376 210.851 792.644 210.724 792.94 210.638C793.24 210.553 793.551 210.511 793.873 210.511ZM800.796 221.395C800.577 221.395 800.4 221.382 800.265 221.355C800.127 221.328 799.992 221.295 799.863 221.254V220.348C799.983 220.379 800.118 220.406 800.265 220.429C800.413 220.455 800.57 220.469 800.735 220.469C801.103 220.469 801.418 220.352 801.682 220.12C801.946 219.887 802.204 219.544 802.454 219.092L802.971 218.172L801.843 210.726H802.971L803.482 214.506C803.527 214.802 803.562 215.119 803.589 215.46C803.616 215.795 803.636 216.115 803.65 216.42C803.663 216.72 803.67 216.964 803.67 217.152H803.71C803.773 217.004 803.867 216.791 803.992 216.514C804.117 216.232 804.252 215.939 804.395 215.634C804.538 215.33 804.666 215.075 804.778 214.869L806.987 210.726H808.182L803.468 219.361C803.227 219.809 802.978 220.182 802.723 220.482C802.472 220.787 802.193 221.015 801.884 221.167C801.575 221.319 801.212 221.395 800.796 221.395ZM809.606 212.297C809.4 212.297 809.236 212.239 809.115 212.122C808.999 212.006 808.941 211.845 808.941 211.639C808.941 211.442 808.974 211.263 809.042 211.102C809.113 210.936 809.221 210.804 809.364 210.706C809.512 210.603 809.697 210.551 809.921 210.551C810.114 210.551 810.268 210.607 810.385 210.719C810.501 210.831 810.559 211.001 810.559 211.229C810.559 211.502 810.481 211.749 810.324 211.968C810.167 212.187 809.928 212.297 809.606 212.297ZM808.484 218.273C808.274 218.273 808.11 218.213 807.994 218.092C807.878 217.975 807.819 217.81 807.819 217.595C807.819 217.313 807.898 217.064 808.055 216.85C808.216 216.63 808.466 216.521 808.807 216.521C808.995 216.521 809.147 216.579 809.263 216.695C809.38 216.812 809.438 216.982 809.438 217.205C809.438 217.47 809.359 217.714 809.203 217.937C809.046 218.161 808.807 218.273 808.484 218.273ZM817.368 218.085L818.704 211.827C818.767 211.545 818.829 211.261 818.892 210.974C818.959 210.688 819.024 210.419 819.087 210.168C819.154 209.918 819.212 209.707 819.261 209.537C819.127 209.676 818.988 209.801 818.845 209.913C818.702 210.021 818.538 210.133 818.355 210.249L817.072 211.061L816.549 210.222L819.617 208.268H820.598L818.496 218.085H817.368Z" fill="#0037AC"/>
<path d="M641.583 161.8C641.583 162.627 641.65 163.384 641.785 164.07C641.92 164.75 642.131 165.397 642.419 166.01C642.707 166.616 643.081 167.22 643.54 167.82C644.006 168.421 644.57 169.058 645.232 169.732L643.853 171.019C642.873 170.192 642.027 169.328 641.316 168.427C640.611 167.526 640.066 166.537 639.68 165.458C639.3 164.38 639.11 163.16 639.11 161.8C639.11 160.44 639.3 159.22 639.68 158.142C640.066 157.057 640.611 156.068 641.316 155.173C642.027 154.272 642.873 153.408 643.853 152.581L645.232 153.868C644.601 154.511 644.055 155.133 643.596 155.734C643.136 156.334 642.756 156.944 642.456 157.563C642.162 158.175 641.941 158.828 641.794 159.521C641.653 160.207 641.583 160.967 641.583 161.8ZM653.157 155.246C654.07 155.246 654.836 155.409 655.455 155.734C656.08 156.058 656.552 156.497 656.87 157.048C657.189 157.593 657.348 158.194 657.348 158.85C657.348 159.389 657.256 159.916 657.072 160.43C656.889 160.945 656.588 161.487 656.172 162.057C655.761 162.627 655.216 163.261 654.536 163.96C653.855 164.652 653.016 165.443 652.017 166.331H657.642L657.376 168.234H649.241V166.46C650.117 165.614 650.874 164.87 651.512 164.227C652.149 163.577 652.682 163.004 653.111 162.508C653.546 162.011 653.889 161.567 654.14 161.175C654.398 160.777 654.581 160.406 654.692 160.063C654.802 159.72 654.857 159.377 654.857 159.033C654.857 158.451 654.689 157.992 654.352 157.655C654.021 157.318 653.555 157.149 652.955 157.149C652.421 157.149 651.968 157.253 651.594 157.462C651.227 157.664 650.865 157.995 650.51 158.454L648.984 157.296C649.468 156.647 650.044 156.144 650.712 155.789C651.38 155.427 652.195 155.246 653.157 155.246ZM664.667 164.714C665.187 164.714 665.619 164.888 665.963 165.238C666.312 165.587 666.486 166.016 666.486 166.524C666.486 166.837 666.434 167.153 666.33 167.471C666.226 167.784 666.067 168.185 665.852 168.675L664.464 171.819H662.718L663.637 168.013C663.392 167.848 663.202 167.634 663.067 167.37C662.932 167.107 662.865 166.822 662.865 166.515C662.865 166.007 663.037 165.581 663.38 165.238C663.723 164.888 664.152 164.714 664.667 164.714ZM688.633 155.522V167.866H686.252V157.967L683.541 159.649L682.502 157.967L686.491 155.522H688.633ZM691.105 166.368V168.234H683.173V166.368H691.105ZM698.773 161.8C698.773 160.967 698.699 160.207 698.552 159.521C698.411 158.828 698.191 158.175 697.891 157.563C697.596 156.944 697.22 156.334 696.76 155.734C696.3 155.133 695.755 154.511 695.124 153.868L696.503 152.581C697.483 153.408 698.326 154.272 699.03 155.173C699.741 156.068 700.287 157.057 700.666 158.142C701.052 159.22 701.246 160.44 701.246 161.8C701.246 163.16 701.052 164.38 700.666 165.458C700.287 166.537 699.741 167.526 699.03 168.427C698.326 169.328 697.483 170.192 696.503 171.019L695.124 169.732C695.786 169.058 696.346 168.421 696.806 167.82C697.272 167.22 697.649 166.616 697.937 166.01C698.225 165.397 698.436 164.75 698.571 164.07C698.706 163.384 698.773 162.627 698.773 161.8Z" fill="black"/>
<path d="M634.808 173.979L621.569 173.131L627.455 185.021L634.808 173.979ZM480.085 250.574L480.595 251.604L626.051 179.596L625.541 178.566L625.032 177.537L479.575 249.545L480.085 250.574Z" fill="#C90000"/>
<path d="M702.876 246.012C703.418 245.932 703.967 246.012 704.525 246.251C704.955 246.442 705.282 246.713 705.505 247.064L705.601 247.183L705.696 247.04C706.095 246.562 706.581 246.235 707.155 246.06C707.856 245.868 708.493 245.996 709.067 246.442C709.178 246.522 709.274 246.609 709.354 246.705C709.545 246.928 709.672 247.191 709.736 247.494C709.895 248.02 709.856 248.538 709.617 249.048C709.362 249.589 708.931 249.892 708.326 249.956C707.816 250.004 707.465 249.82 707.274 249.406C707.226 249.326 707.194 249.199 707.178 249.024C707.178 248.753 707.234 248.506 707.346 248.283C707.473 247.996 707.704 247.765 708.039 247.589C708.182 247.526 708.254 247.478 708.254 247.446C708.19 247.35 708.079 247.263 707.919 247.183C707.84 247.151 707.72 247.135 707.561 247.135C707.402 247.135 707.282 247.151 707.202 247.183C706.804 247.406 706.493 247.828 706.27 248.45L704.884 253.972C704.772 254.466 704.748 254.832 704.812 255.071C704.939 255.501 705.282 255.709 705.84 255.693C706.031 255.677 706.214 255.637 706.39 255.573C707.027 255.334 707.553 254.784 707.967 253.924C708.079 253.701 708.166 253.478 708.23 253.255C708.294 253.047 708.366 252.936 708.445 252.92C708.493 252.904 708.66 252.896 708.947 252.896C709.298 252.896 709.489 252.912 709.521 252.944C709.601 253.008 709.609 253.143 709.545 253.35C709.417 253.876 709.194 254.362 708.876 254.808C708.047 256.019 707.035 256.689 705.84 256.816C705.808 256.816 705.776 256.816 705.744 256.816C704.82 256.864 704.079 256.561 703.521 255.908C703.489 255.892 703.465 255.868 703.45 255.836C703.354 255.725 703.298 255.661 703.282 255.645L703.139 255.812C702.916 256.067 702.693 256.258 702.469 256.386C701.991 256.689 701.521 256.832 701.059 256.816C700.756 256.8 700.454 256.721 700.151 256.577C699.641 256.338 699.306 255.908 699.147 255.286C698.972 254.49 699.115 253.828 699.577 253.302C700.023 252.872 700.509 252.737 701.035 252.896C701.226 252.96 701.378 253.055 701.489 253.183C701.792 253.517 701.808 253.964 701.537 254.521C701.394 254.824 701.171 255.055 700.868 255.215C700.725 255.294 700.645 255.334 700.629 255.334C700.629 255.398 700.748 255.493 700.987 255.621C701.051 255.653 701.163 255.669 701.322 255.669C701.481 255.669 701.601 255.653 701.681 255.621C702.079 255.414 702.382 254.999 702.589 254.378L704.023 248.737C704.055 248.577 704.071 248.354 704.071 248.067C704.071 247.844 704.055 247.693 704.023 247.613C703.832 247.199 703.426 247.048 702.804 247.159C702.215 247.271 701.689 247.669 701.226 248.354C700.956 248.785 700.756 249.231 700.629 249.693C700.581 249.789 700.549 249.844 700.533 249.86C700.501 249.892 700.31 249.908 699.96 249.908H699.434L699.362 249.836C699.314 249.789 699.29 249.725 699.29 249.645C699.354 249.231 699.577 248.729 699.96 248.139C699.976 248.107 699.991 248.075 700.007 248.044C700.709 246.944 701.609 246.275 702.709 246.036C702.772 246.036 702.828 246.028 702.876 246.012Z" fill="black"/>
<path d="M559.93 257.586L560.057 257.572H560.071C560.174 257.572 560.24 257.604 560.268 257.67C560.277 257.708 559.94 259.109 559.255 261.874C558.552 264.649 558.201 266.041 558.201 266.05C558.192 266.078 558.257 266.102 558.398 266.121C558.538 266.13 558.768 266.139 559.087 266.149C559.452 266.149 559.649 266.182 559.677 266.247C559.696 266.275 559.682 266.383 559.635 266.571C559.579 266.767 559.541 266.875 559.523 266.894L559.48 266.936H559.255C558.224 266.889 557.02 266.885 555.642 266.922C555.323 266.931 555.145 266.903 555.108 266.838C555.098 266.81 555.112 266.702 555.15 266.514C555.206 266.327 555.243 266.219 555.262 266.191L555.318 266.149H555.853C556.425 266.139 556.757 266.102 556.851 266.036C556.889 266.018 557.165 264.958 557.681 262.859L558.468 259.709L558.285 259.807C557.873 260.014 557.465 260.131 557.062 260.159C556.884 260.178 556.771 260.149 556.725 260.074L556.71 260.032L556.767 259.779C556.823 259.554 556.874 259.428 556.921 259.4C556.931 259.4 557.01 259.39 557.16 259.371C557.507 259.343 557.868 259.24 558.243 259.062C558.852 258.753 559.377 258.303 559.818 257.712C559.846 257.675 559.884 257.633 559.93 257.586Z" fill="black"/>
<path d="M470.313 167.969L470.44 167.955H470.454C470.557 167.955 470.623 167.987 470.651 168.053C470.66 168.091 470.323 169.492 469.638 172.257C468.935 175.032 468.584 176.424 468.584 176.433C468.574 176.461 468.64 176.485 468.781 176.504C468.921 176.513 469.151 176.522 469.47 176.532C469.835 176.532 470.032 176.565 470.06 176.63C470.079 176.658 470.065 176.766 470.018 176.954C469.962 177.15 469.924 177.258 469.906 177.277L469.863 177.319H469.638C468.607 177.272 467.403 177.268 466.025 177.305C465.706 177.314 465.528 177.286 465.49 177.221C465.481 177.193 465.495 177.085 465.533 176.897C465.589 176.71 465.626 176.602 465.645 176.574L465.701 176.532H466.236C466.807 176.522 467.14 176.485 467.234 176.419C467.271 176.401 467.548 175.341 468.064 173.242L468.851 170.092L468.668 170.19C468.256 170.397 467.848 170.514 467.445 170.542C467.267 170.561 467.154 170.532 467.107 170.457L467.093 170.415L467.15 170.162C467.206 169.937 467.257 169.811 467.304 169.783C467.314 169.783 467.393 169.773 467.543 169.754C467.89 169.726 468.251 169.623 468.626 169.445C469.235 169.136 469.76 168.686 470.201 168.095C470.229 168.058 470.266 168.016 470.313 167.969Z" fill="black"/>
<path d="M636.209 257.586L636.575 257.572H636.589C636.908 257.581 637.208 257.651 637.489 257.783C637.901 257.989 638.215 258.303 638.431 258.725C638.618 259.09 638.712 259.507 638.712 259.976C638.712 260.22 638.689 260.454 638.642 260.679C638.548 261.148 638.337 261.588 638.009 262.001C637.906 262.141 637.686 262.366 637.348 262.676C636.936 263.004 636.392 263.374 635.717 263.787C635.492 263.908 635.291 264.03 635.113 264.152C634.569 264.471 634.077 264.897 633.636 265.432C633.646 265.507 633.664 265.549 633.693 265.558C633.871 265.558 634.255 265.614 634.845 265.727C635.633 265.877 636.148 265.933 636.392 265.896C636.814 265.83 637.161 265.558 637.433 265.08C637.498 264.958 637.555 264.836 637.601 264.715C637.639 264.593 637.681 264.527 637.728 264.518C637.756 264.508 637.855 264.504 638.023 264.504H638.333L638.375 264.546C638.403 264.574 638.417 264.607 638.417 264.644C638.398 264.747 638.333 264.944 638.22 265.235C637.826 266.228 637.273 266.861 636.561 267.133C636.477 267.161 636.397 267.185 636.322 267.203C636.247 267.222 636.125 267.231 635.956 267.231C635.788 267.231 635.661 267.222 635.577 267.203C635.314 267.138 635 266.983 634.635 266.739C634.157 266.43 633.777 266.257 633.496 266.219C633.308 266.191 633.158 266.252 633.046 266.402C632.98 266.496 632.9 266.692 632.807 266.992C632.76 267.142 632.713 267.222 632.666 267.231C632.629 267.241 632.525 267.245 632.357 267.245H632.061L632.019 267.203C631.982 267.156 631.986 267.058 632.033 266.908C632.371 265.727 633.083 264.729 634.171 263.913C634.367 263.763 634.569 263.627 634.775 263.505C635.844 262.868 636.57 262.155 636.955 261.368C637.067 261.134 637.18 260.754 637.292 260.229C637.358 259.91 637.391 259.625 637.391 259.371C637.391 259.109 637.353 258.898 637.278 258.739C637.156 258.495 636.959 258.336 636.687 258.261C636.547 258.223 636.364 258.223 636.139 258.261C635.942 258.307 635.792 258.359 635.689 258.415C635.277 258.612 634.916 258.954 634.606 259.442C634.475 259.629 634.33 259.906 634.171 260.271C633.88 260.984 633.828 261.406 634.016 261.537C634.072 261.574 634.171 261.565 634.311 261.509C634.621 261.406 634.874 261.101 635.07 260.595C635.08 260.567 635.089 260.543 635.099 260.524C635.239 260.159 635.253 259.868 635.141 259.653C635.085 259.559 635.07 259.489 635.099 259.442C635.202 259.339 635.338 259.231 635.506 259.118C635.563 259.081 635.614 259.095 635.661 259.16C635.717 259.226 635.769 259.334 635.816 259.484C635.928 259.803 635.9 260.192 635.731 260.651C635.441 261.41 635.019 261.898 634.466 262.113C634.419 262.132 634.367 262.151 634.311 262.17C634.133 262.216 633.964 262.226 633.805 262.198C633.439 262.113 633.224 261.865 633.158 261.452C633.13 261.265 633.139 261.073 633.186 260.876C633.289 260.388 633.491 259.901 633.791 259.414C634.325 258.495 635.014 257.914 635.858 257.67C635.98 257.633 636.097 257.604 636.209 257.586Z" fill="black"/>
<path d="M469.231 91.3729L469.596 91.3589H469.61C469.929 91.3682 470.229 91.4385 470.51 91.5698C470.923 91.776 471.237 92.09 471.452 92.5118C471.64 92.8774 471.733 93.2946 471.733 93.7633C471.733 94.007 471.71 94.2413 471.663 94.4663C471.569 94.935 471.359 95.3756 471.03 95.788C470.927 95.9286 470.707 96.1536 470.37 96.4629C469.957 96.791 469.413 97.1613 468.739 97.5738C468.514 97.6956 468.312 97.8175 468.134 97.9393C467.59 98.258 467.098 98.6846 466.658 99.2189C466.667 99.2939 466.686 99.336 466.714 99.3454C466.892 99.3454 467.276 99.4017 467.867 99.5142C468.654 99.6641 469.17 99.7204 469.413 99.6829C469.835 99.6173 470.182 99.3454 470.454 98.8674C470.52 98.7455 470.576 98.6236 470.623 98.5018C470.66 98.3799 470.702 98.3143 470.749 98.3049C470.777 98.2955 470.876 98.2909 471.044 98.2909H471.354L471.396 98.333C471.424 98.3612 471.438 98.394 471.438 98.4315C471.419 98.5346 471.354 98.7314 471.241 99.022C470.848 100.016 470.295 100.648 469.582 100.92C469.498 100.948 469.418 100.972 469.343 100.991C469.268 101.009 469.146 101.019 468.978 101.019C468.809 101.019 468.682 101.009 468.598 100.991C468.335 100.925 468.021 100.77 467.656 100.527C467.178 100.217 466.798 100.044 466.517 100.006C466.329 99.9782 466.179 100.039 466.067 100.189C466.001 100.283 465.922 100.48 465.828 100.78C465.781 100.93 465.734 101.009 465.687 101.019C465.65 101.028 465.547 101.033 465.378 101.033H465.083L465.041 100.991C465.003 100.944 465.008 100.845 465.055 100.695C465.392 99.5142 466.104 98.5158 467.192 97.7003C467.389 97.5503 467.59 97.4144 467.796 97.2925C468.865 96.6551 469.592 95.9427 469.976 95.1553C470.088 94.9209 470.201 94.5413 470.313 94.0164C470.379 93.6976 470.412 93.4117 470.412 93.1586C470.412 92.8962 470.374 92.6853 470.299 92.5259C470.177 92.2822 469.981 92.1228 469.709 92.0478C469.568 92.0103 469.385 92.0103 469.16 92.0478C468.963 92.0947 468.814 92.1463 468.71 92.2025C468.298 92.3994 467.937 92.7415 467.628 93.2289C467.496 93.4164 467.351 93.693 467.192 94.0585C466.901 94.771 466.85 95.1928 467.037 95.324C467.093 95.3615 467.192 95.3521 467.332 95.2959C467.642 95.1928 467.895 94.8881 468.092 94.3819C468.101 94.3538 468.11 94.3304 468.12 94.3116C468.26 93.9461 468.275 93.6555 468.162 93.4399C468.106 93.3461 468.092 93.2758 468.12 93.2289C468.223 93.1258 468.359 93.018 468.528 92.9055C468.584 92.8681 468.635 92.8821 468.682 92.9477C468.739 93.0133 468.79 93.1211 468.837 93.2711C468.949 93.5898 468.921 93.9789 468.753 94.4382C468.462 95.1975 468.04 95.6849 467.487 95.9005C467.44 95.9193 467.389 95.938 467.332 95.9568C467.154 96.0036 466.986 96.013 466.826 95.9849C466.461 95.9005 466.245 95.6521 466.179 95.2397C466.151 95.0522 466.161 94.86 466.208 94.6632C466.311 94.1757 466.512 93.6883 466.812 93.2008C467.346 92.2822 468.035 91.701 468.879 91.4573C469.001 91.4198 469.118 91.3917 469.231 91.3729Z" fill="black"/>
<path d="M479.313 15.4825C479.424 15.4506 479.6 15.4347 479.839 15.4347C480.205 15.4506 480.524 15.5303 480.795 15.6737C481.002 15.7852 481.161 15.9048 481.273 16.0323C481.4 16.1438 481.52 16.3032 481.631 16.5103C481.775 16.8131 481.839 17.1318 481.823 17.4665C481.823 17.7852 481.719 18.2234 481.512 18.7812C481.496 18.8608 481.464 18.9564 481.416 19.068C480.636 21.2352 480.245 22.7173 480.245 23.514C480.245 23.5778 480.245 23.6336 480.245 23.6814C480.261 24.2232 480.389 24.6216 480.628 24.8765C480.803 25.0359 481.042 25.1156 481.345 25.1156C481.663 25.1156 481.942 25.0518 482.181 24.9243C482.596 24.7172 482.954 24.3825 483.257 23.9204L483.4 23.6814L484.285 20.1436C484.906 17.6736 485.265 16.3669 485.36 16.2235C485.376 16.1916 485.416 16.1438 485.48 16.0801C485.831 15.7295 486.229 15.61 486.675 15.7215C487.058 15.849 487.265 16.096 487.297 16.4625C487.297 16.5741 486.898 18.2393 486.101 21.4583C485.321 24.5817 484.882 26.2868 484.787 26.5737C484.627 27.0996 484.38 27.5936 484.046 28.0557C483.934 28.2469 483.807 28.4302 483.663 28.6055C483.345 29.0039 483.002 29.3465 482.635 29.6333C481.95 30.207 481.217 30.5815 480.436 30.7568C480.149 30.8365 479.791 30.8763 479.361 30.8763C479.026 30.8763 478.779 30.8604 478.62 30.8285C477.552 30.5895 476.946 30.0158 476.803 29.1075C476.755 28.7091 476.811 28.3186 476.97 27.9362C477.225 27.4103 477.656 27.1155 478.261 27.0518C478.771 27.0039 479.122 27.1872 479.313 27.6015C479.361 27.6812 479.393 27.8087 479.408 27.984C479.424 28.3983 479.273 28.7808 478.954 29.1314C478.811 29.2429 478.699 29.3226 478.62 29.3704C478.556 29.4023 478.516 29.4262 478.5 29.4421L478.906 29.6811C479.56 29.9042 480.221 29.7767 480.89 29.2987C481.719 28.6772 482.349 27.6414 482.779 26.1912C482.811 26.0159 482.843 25.8964 482.874 25.8327V25.7371L482.683 25.8327C481.918 26.2789 481.074 26.3825 480.149 26.1434C479.098 25.8885 478.452 25.2032 478.213 24.0877C478.15 23.6734 478.15 23.1794 478.213 22.6057C478.229 22.5579 478.237 22.5181 478.237 22.4862C478.365 21.6894 478.739 20.4703 479.361 18.829C479.648 17.9844 479.807 17.4426 479.839 17.2035C479.918 16.837 479.879 16.6298 479.719 16.582C479.528 16.5183 479.305 16.5581 479.05 16.7015C478.715 16.9087 478.452 17.2354 478.261 17.6816C478.102 17.9684 477.926 18.4545 477.735 19.1397C477.687 19.2353 477.656 19.2911 477.64 19.307C477.608 19.3389 477.417 19.3548 477.066 19.3548H476.54L476.468 19.2831C476.421 19.2353 476.397 19.1716 476.397 19.0919C476.429 18.8369 476.564 18.4385 476.803 17.8967C476.994 17.4824 477.193 17.1398 477.401 16.8689C477.608 16.582 477.871 16.2952 478.189 16.0083C478.54 15.7374 478.914 15.5621 479.313 15.4825Z" fill="black"/>
</svg>
