<svg width="1208" height="351" viewBox="0 0 1208 351" fill="none" xmlns="http://www.w3.org/2000/svg">
<rect width="1208" height="350" fill="white"/>
<rect x="342.249" y="314.665" width="25.7725" height="25.7725" rx="5.03368" fill="#0037AC"/>
<path d="M352.232 321.398C352.061 320.981 351.471 320.981 351.301 321.398L351.032 322.052C350.982 322.174 350.982 322.311 351.031 322.433L354.627 331.257C354.762 331.588 354.519 331.95 354.161 331.95H350.582H349.374C349.016 331.95 348.772 331.587 348.908 331.255L349.529 329.744C349.579 329.622 349.579 329.485 349.529 329.363L349.247 328.67C349.077 328.253 348.487 328.252 348.315 328.669L346.625 332.786C346.489 333.117 346.733 333.48 347.091 333.48H356.441C356.8 333.48 357.043 333.117 356.907 332.786L352.232 321.398Z" fill="white"/>
<path d="M355.642 323.845C355.507 323.514 355.751 323.152 356.108 323.152H359.687H360.896C361.254 323.152 361.497 323.515 361.361 323.847L360.741 325.358C360.69 325.48 360.69 325.617 360.74 325.739L361.022 326.432C361.192 326.849 361.783 326.85 361.954 326.433L363.644 322.316C363.78 321.985 363.537 321.621 363.179 321.621H353.828C353.47 321.621 353.226 321.985 353.362 322.316L358.038 333.704C358.209 334.121 358.798 334.121 358.969 333.704L359.238 333.05C359.288 332.927 359.288 332.791 359.238 332.668L355.642 323.845Z" fill="white"/>
<path d="M383.916 329.027H380.268L379.558 331.484H377.811L381.06 321.273H383.191L386.446 331.484H384.626L383.916 329.027ZM380.623 327.703H383.553L382.095 322.605L380.623 327.703ZM389.533 323.67V329.131C389.533 329.594 389.624 329.925 389.807 330.122C389.994 330.319 390.275 330.418 390.65 330.418C391.005 330.418 391.348 330.312 391.679 330.1C392.009 329.888 392.271 329.629 392.463 329.323V323.67H394.12V331.484H392.692L392.589 330.485C392.298 330.874 391.93 331.173 391.486 331.38C391.042 331.582 390.589 331.683 390.125 331.683C389.37 331.683 388.806 331.476 388.431 331.062C388.061 330.643 387.876 330.068 387.876 329.338V323.67H389.533ZM403.275 331.069C402.989 331.252 402.646 331.4 402.246 331.513C401.847 331.627 401.43 331.683 400.996 331.683C400.088 331.683 399.398 331.449 398.924 330.98C398.455 330.507 398.221 329.885 398.221 329.116V324.876H396.482V323.67H398.221V321.924L399.878 321.724V323.67H402.513L402.328 324.876H399.878V329.101C399.878 329.52 399.982 329.834 400.189 330.041C400.401 330.243 400.747 330.344 401.225 330.344C401.511 330.344 401.775 330.31 402.017 330.24C402.258 330.171 402.478 330.083 402.675 329.974L403.275 331.069ZM408.751 323.463C409.516 323.463 410.16 323.633 410.683 323.974C411.205 324.314 411.6 324.79 411.866 325.402C412.138 326.013 412.273 326.733 412.273 327.562C412.273 328.386 412.135 329.108 411.859 329.73C411.588 330.347 411.188 330.827 410.66 331.173C410.138 331.513 409.499 331.683 408.744 331.683C407.989 331.683 407.348 331.518 406.82 331.188C406.297 330.852 405.898 330.376 405.622 329.76C405.35 329.143 405.215 328.415 405.215 327.577C405.215 326.763 405.35 326.048 405.622 325.431C405.898 324.815 406.3 324.334 406.828 323.988C407.356 323.638 407.997 323.463 408.751 323.463ZM408.751 324.75C408.155 324.75 407.706 324.98 407.405 325.439C407.104 325.892 406.954 326.605 406.954 327.577C406.954 328.544 407.102 329.256 407.397 329.715C407.698 330.174 408.147 330.403 408.744 330.403C409.341 330.403 409.787 330.174 410.083 329.715C410.384 329.256 410.535 328.539 410.535 327.562C410.535 326.6 410.387 325.892 410.091 325.439C409.795 324.98 409.348 324.75 408.751 324.75ZM414.569 331.484V330.3H415.716V324.847H414.569V323.67H416.981L417.284 325.483C417.575 324.827 417.935 324.329 418.364 323.988C418.798 323.643 419.356 323.47 420.037 323.47C420.268 323.47 420.476 323.49 420.658 323.53C420.846 323.564 421.031 323.611 421.213 323.67L420.717 325.091C420.559 325.046 420.411 325.014 420.273 324.995C420.135 324.97 419.982 324.958 419.815 324.958C419.247 324.958 418.757 325.17 418.342 325.594C417.933 326.018 417.61 326.62 417.373 327.399V330.3H418.949V331.484H414.569ZM419.748 326.548V324.625L419.955 323.67H421.213L420.932 326.548H419.748ZM425.151 330.344C425.151 329.984 425.279 329.676 425.536 329.419C425.792 329.158 426.108 329.027 426.483 329.027C426.863 329.027 427.178 329.158 427.43 329.419C427.686 329.676 427.815 329.984 427.815 330.344C427.815 330.714 427.686 331.03 427.43 331.291C427.178 331.553 426.863 331.683 426.483 331.683C426.108 331.683 425.792 331.553 425.536 331.291C425.279 331.03 425.151 330.714 425.151 330.344ZM425.151 325.091C425.151 324.849 425.21 324.627 425.328 324.425C425.447 324.223 425.607 324.062 425.809 323.944C426.012 323.826 426.236 323.766 426.483 323.766C426.863 323.766 427.178 323.897 427.43 324.159C427.686 324.415 427.815 324.726 427.815 325.091C427.815 325.456 427.686 325.771 427.43 326.038C427.178 326.299 426.863 326.43 426.483 326.43C426.108 326.43 425.792 326.299 425.536 326.038C425.279 325.771 425.151 325.456 425.151 325.091ZM447.595 321.229V327.791C447.595 328.388 447.504 328.928 447.322 329.412C447.139 329.895 446.87 330.307 446.515 330.647C446.165 330.988 445.733 331.249 445.22 331.432C444.712 331.614 444.13 331.705 443.474 331.705C442.813 331.705 442.241 331.622 441.757 331.454C441.279 331.281 440.818 331.045 440.374 330.744L441.299 329.249C441.649 329.491 441.977 329.661 442.283 329.76C442.589 329.853 442.936 329.9 443.326 329.9C443.854 329.9 444.293 329.732 444.643 329.397C444.998 329.057 445.176 328.531 445.176 327.821V323.004H442.024V321.229H447.595ZM453.109 323.367C453.918 323.367 454.606 323.539 455.173 323.885C455.741 324.23 456.175 324.716 456.476 325.342C456.777 325.964 456.927 326.694 456.927 327.532C456.927 328.406 456.774 329.158 456.468 329.789C456.167 330.416 455.733 330.897 455.166 331.232C454.599 331.567 453.913 331.735 453.109 331.735C452.31 331.735 451.624 331.57 451.052 331.239C450.485 330.909 450.048 330.43 449.743 329.804C449.442 329.178 449.291 328.425 449.291 327.547C449.291 326.714 449.442 325.984 449.743 325.357C450.048 324.731 450.485 324.242 451.052 323.892C451.624 323.542 452.31 323.367 453.109 323.367ZM453.109 325.091C452.631 325.091 452.276 325.288 452.044 325.683C451.817 326.072 451.703 326.694 451.703 327.547C451.703 328.415 451.817 329.044 452.044 329.434C452.276 329.824 452.631 330.019 453.109 330.019C453.588 330.019 453.94 329.824 454.167 329.434C454.399 329.044 454.515 328.41 454.515 327.532C454.515 326.684 454.399 326.065 454.167 325.675C453.94 325.286 453.588 325.091 453.109 325.091ZM461.731 330.063C462.12 330.063 462.433 330.001 462.67 329.878C462.912 329.755 463.033 329.57 463.033 329.323C463.033 329.155 462.986 329.015 462.892 328.901C462.799 328.788 462.618 328.679 462.352 328.576C462.086 328.472 461.691 328.349 461.168 328.206C460.69 328.078 460.266 327.915 459.896 327.717C459.531 327.52 459.245 327.266 459.037 326.955C458.835 326.645 458.734 326.257 458.734 325.794C458.734 325.325 458.865 324.908 459.126 324.543C459.388 324.178 459.772 323.892 460.28 323.685C460.788 323.473 461.41 323.367 462.145 323.367C462.845 323.367 463.455 323.458 463.972 323.641C464.495 323.818 464.947 324.045 465.326 324.321L464.394 325.698C464.069 325.495 463.718 325.335 463.344 325.217C462.969 325.093 462.591 325.032 462.212 325.032C461.832 325.032 461.548 325.083 461.361 325.187C461.178 325.286 461.087 325.436 461.087 325.638C461.087 325.771 461.134 325.887 461.227 325.986C461.326 326.08 461.509 326.178 461.775 326.282C462.041 326.381 462.431 326.504 462.944 326.652C463.452 326.795 463.894 326.96 464.268 327.148C464.648 327.335 464.942 327.587 465.149 327.902C465.356 328.213 465.46 328.625 465.46 329.138C465.46 329.71 465.29 330.191 464.949 330.581C464.609 330.966 464.157 331.254 463.595 331.447C463.033 331.639 462.416 331.735 461.745 331.735C460.986 331.735 460.315 331.627 459.733 331.41C459.151 331.192 458.655 330.906 458.246 330.551L459.422 329.234C459.728 329.471 460.073 329.668 460.458 329.826C460.848 329.984 461.272 330.063 461.731 330.063ZM469.479 328.235C469.533 328.665 469.644 329.012 469.812 329.279C469.985 329.54 470.204 329.732 470.47 329.856C470.737 329.974 471.035 330.033 471.366 330.033C471.726 330.033 472.074 329.974 472.409 329.856C472.744 329.737 473.067 329.58 473.378 329.382L474.318 330.655C473.948 330.971 473.499 331.229 472.971 331.432C472.448 331.634 471.852 331.735 471.181 331.735C470.283 331.735 469.531 331.558 468.924 331.202C468.317 330.842 467.861 330.349 467.555 329.723C467.249 329.096 467.096 328.376 467.096 327.562C467.096 326.788 467.244 326.085 467.54 325.453C467.836 324.817 468.268 324.311 468.835 323.937C469.407 323.557 470.105 323.367 470.929 323.367C471.679 323.367 472.328 323.527 472.875 323.848C473.428 324.168 473.854 324.63 474.155 325.231C474.461 325.833 474.614 326.556 474.614 327.399C474.614 327.532 474.609 327.676 474.599 327.828C474.594 327.981 474.584 328.117 474.569 328.235H469.479ZM470.929 324.935C470.51 324.935 470.172 325.086 469.915 325.387C469.659 325.688 469.504 326.169 469.449 326.83H472.335C472.33 326.257 472.219 325.799 472.002 325.453C471.785 325.108 471.427 324.935 470.929 324.935ZM480.675 323.367C481.361 323.367 481.913 323.537 482.333 323.877C482.752 324.218 483.058 324.699 483.25 325.32C483.447 325.942 483.546 326.679 483.546 327.532C483.546 328.341 483.428 329.064 483.191 329.7C482.954 330.332 482.611 330.83 482.162 331.195C481.714 331.555 481.169 331.735 480.527 331.735C479.763 331.735 479.141 331.461 478.663 330.914V334.517L476.325 334.761V323.626H478.396L478.5 324.506C478.821 324.097 479.171 323.806 479.551 323.633C479.93 323.456 480.305 323.367 480.675 323.367ZM479.95 325.091C479.679 325.091 479.44 325.172 479.232 325.335C479.025 325.498 478.835 325.72 478.663 326.001V329.316C478.825 329.557 478.996 329.735 479.173 329.848C479.356 329.962 479.57 330.019 479.817 330.019C480.231 330.019 480.554 329.831 480.786 329.456C481.018 329.076 481.134 328.445 481.134 327.562C481.134 326.911 481.087 326.408 480.993 326.053C480.9 325.693 480.764 325.443 480.586 325.305C480.409 325.162 480.197 325.091 479.95 325.091ZM487.536 320.274V324.403C487.866 324.052 488.224 323.794 488.609 323.626C488.998 323.453 489.41 323.367 489.844 323.367C490.545 323.367 491.08 323.572 491.45 323.981C491.82 324.39 492.005 324.967 492.005 325.712V331.484H489.667V326.363C489.667 325.89 489.612 325.559 489.504 325.372C489.4 325.185 489.203 325.091 488.912 325.091C488.749 325.091 488.589 325.13 488.431 325.209C488.278 325.283 488.128 325.392 487.98 325.535C487.832 325.678 487.684 325.848 487.536 326.045V331.484H485.198V320.503L487.536 320.274ZM510.313 328.487C510.313 329.123 510.145 329.686 509.81 330.174C509.479 330.662 509.003 331.045 508.382 331.321C507.76 331.597 507.013 331.735 506.14 331.735C505.173 331.735 504.362 331.595 503.706 331.313C503.055 331.027 502.515 330.675 502.085 330.255L503.314 328.894C503.693 329.224 504.113 329.481 504.571 329.663C505.03 329.841 505.533 329.93 506.081 329.93C506.421 329.93 506.72 329.88 506.976 329.782C507.233 329.683 507.432 329.54 507.575 329.353C507.718 329.165 507.79 328.938 507.79 328.672C507.79 328.42 507.733 328.208 507.62 328.036C507.506 327.863 507.314 327.708 507.043 327.569C506.776 327.431 506.404 327.291 505.925 327.148C505.126 326.901 504.483 326.63 503.994 326.334C503.511 326.038 503.158 325.695 502.936 325.305C502.719 324.916 502.611 324.462 502.611 323.944C502.611 323.317 502.783 322.782 503.129 322.338C503.479 321.894 503.947 321.557 504.534 321.325C505.121 321.088 505.768 320.97 506.473 320.97C507.267 320.97 507.968 321.085 508.574 321.317C509.181 321.544 509.706 321.87 510.15 322.294L509.003 323.611C508.658 323.32 508.286 323.105 507.886 322.967C507.487 322.824 507.08 322.753 506.665 322.753C506.36 322.753 506.091 322.792 505.859 322.871C505.627 322.945 505.447 323.056 505.319 323.204C505.19 323.352 505.126 323.537 505.126 323.759C505.126 323.976 505.188 324.159 505.311 324.306C505.435 324.454 505.649 324.595 505.955 324.728C506.261 324.856 506.685 325.007 507.228 325.18C507.874 325.377 508.426 325.614 508.885 325.89C509.349 326.161 509.701 326.504 509.943 326.918C510.19 327.333 510.313 327.856 510.313 328.487ZM518.431 329.219C518.431 329.515 518.471 329.73 518.55 329.863C518.634 329.996 518.767 330.097 518.949 330.166L518.468 331.705C518.005 331.661 517.613 331.56 517.292 331.402C516.976 331.239 516.727 330.995 516.545 330.67C516.244 331.03 515.859 331.299 515.39 331.476C514.922 331.649 514.443 331.735 513.955 331.735C513.146 331.735 512.5 331.506 512.016 331.047C511.538 330.583 511.299 329.989 511.299 329.264C511.299 328.41 511.632 327.752 512.298 327.288C512.968 326.825 513.911 326.593 515.124 326.593H516.182V326.297C516.182 325.887 516.049 325.584 515.783 325.387C515.521 325.189 515.136 325.091 514.628 325.091C514.377 325.091 514.054 325.128 513.659 325.202C513.264 325.271 512.87 325.372 512.475 325.505L511.935 323.951C512.443 323.759 512.971 323.613 513.518 323.515C514.071 323.416 514.564 323.367 514.998 323.367C516.167 323.367 517.03 323.606 517.588 324.085C518.15 324.558 518.431 325.244 518.431 326.141V329.219ZM514.761 330.063C515.013 330.063 515.277 329.989 515.553 329.841C515.829 329.688 516.039 329.473 516.182 329.197V327.925H515.605C514.954 327.925 514.475 328.026 514.17 328.228C513.864 328.425 513.711 328.716 513.711 329.101C513.711 329.402 513.802 329.639 513.985 329.811C514.172 329.979 514.431 330.063 514.761 330.063ZM520.69 331.484V323.626H522.732L522.895 324.536C523.245 324.141 523.615 323.848 524.004 323.655C524.394 323.463 524.838 323.367 525.336 323.367C526.007 323.367 526.535 323.572 526.92 323.981C527.304 324.39 527.497 324.967 527.497 325.712V331.484H525.159V326.386C525.159 326.065 525.136 325.811 525.092 325.624C525.048 325.431 524.969 325.295 524.855 325.217C524.747 325.133 524.596 325.091 524.404 325.091C524.241 325.091 524.081 325.128 523.923 325.202C523.77 325.271 523.62 325.372 523.472 325.505C523.324 325.638 523.176 325.799 523.028 325.986V331.484H520.69ZM536.636 331.025C536.33 331.222 535.96 331.39 535.526 331.528C535.092 331.666 534.604 331.735 534.061 331.735C533.035 331.735 532.273 331.474 531.775 330.951C531.277 330.423 531.028 329.708 531.028 328.805V325.239H529.378V323.626H531.028V321.924L533.366 321.643V323.626H535.896L535.667 325.239H533.366V328.805C533.366 329.195 533.455 329.473 533.632 329.641C533.81 329.809 534.093 329.893 534.483 329.893C534.759 329.893 535.011 329.861 535.238 329.797C535.47 329.727 535.677 329.641 535.859 329.538L536.636 331.025ZM543.238 323.626V329.885H545.235V331.484H538.672V329.885H540.9V325.224H538.746V323.626H543.238ZM541.824 319.512C542.229 319.512 542.559 319.638 542.816 319.889C543.072 320.141 543.201 320.454 543.201 320.829C543.201 321.204 543.072 321.52 542.816 321.776C542.559 322.028 542.229 322.153 541.824 322.153C541.415 322.153 541.08 322.028 540.818 321.776C540.562 321.52 540.433 321.204 540.433 320.829C540.433 320.454 540.562 320.141 540.818 319.889C541.08 319.638 541.415 319.512 541.824 319.512ZM553.923 329.219C553.923 329.515 553.963 329.73 554.042 329.863C554.126 329.996 554.259 330.097 554.441 330.166L553.96 331.705C553.497 331.661 553.105 331.56 552.784 331.402C552.468 331.239 552.219 330.995 552.037 330.67C551.736 331.03 551.351 331.299 550.882 331.476C550.414 331.649 549.935 331.735 549.447 331.735C548.638 331.735 547.992 331.506 547.508 331.047C547.03 330.583 546.791 329.989 546.791 329.264C546.791 328.41 547.124 327.752 547.79 327.288C548.46 326.825 549.403 326.593 550.616 326.593H551.674V326.297C551.674 325.887 551.541 325.584 551.275 325.387C551.013 325.189 550.628 325.091 550.12 325.091C549.869 325.091 549.546 325.128 549.151 325.202C548.756 325.271 548.362 325.372 547.967 325.505L547.427 323.951C547.935 323.759 548.463 323.613 549.01 323.515C549.563 323.416 550.056 323.367 550.49 323.367C551.659 323.367 552.523 323.606 553.08 324.085C553.642 324.558 553.923 325.244 553.923 326.141V329.219ZM550.254 330.063C550.505 330.063 550.769 329.989 551.045 329.841C551.321 329.688 551.531 329.473 551.674 329.197V327.925H551.097C550.446 327.925 549.967 328.026 549.662 328.228C549.356 328.425 549.203 328.716 549.203 329.101C549.203 329.402 549.294 329.639 549.477 329.811C549.664 329.979 549.923 330.063 550.254 330.063ZM563.159 322.368L563.706 324.085C563.43 324.193 563.107 324.272 562.737 324.321C562.367 324.371 561.936 324.395 561.442 324.395C561.936 324.607 562.311 324.871 562.567 325.187C562.828 325.498 562.959 325.907 562.959 326.415C562.959 326.923 562.824 327.377 562.552 327.777C562.281 328.171 561.896 328.482 561.398 328.709C560.9 328.936 560.31 329.049 559.63 329.049C559.462 329.049 559.304 329.042 559.156 329.027C559.008 329.012 558.863 328.99 558.72 328.96C558.636 329.005 558.572 329.069 558.527 329.153C558.483 329.237 558.461 329.323 558.461 329.412C558.461 329.535 558.51 329.646 558.609 329.745C558.712 329.843 558.951 329.893 559.326 329.893H560.614C561.225 329.893 561.753 329.991 562.197 330.189C562.646 330.386 562.994 330.655 563.24 330.995C563.487 331.336 563.61 331.725 563.61 332.164C563.61 332.968 563.258 333.602 562.552 334.066C561.847 334.529 560.799 334.761 559.408 334.761C558.401 334.761 557.622 334.658 557.07 334.451C556.522 334.248 556.14 333.957 555.923 333.577C555.711 333.203 555.605 332.756 555.605 332.238H557.676C557.676 332.465 557.721 332.65 557.809 332.793C557.903 332.941 558.078 333.05 558.335 333.119C558.596 333.188 558.974 333.222 559.467 333.222C559.965 333.222 560.345 333.183 560.606 333.104C560.868 333.025 561.045 332.916 561.139 332.778C561.238 332.645 561.287 332.495 561.287 332.327C561.287 332.095 561.196 331.908 561.013 331.765C560.831 331.622 560.542 331.55 560.148 331.55H558.897C558.049 331.55 557.432 331.395 557.047 331.084C556.663 330.768 556.47 330.401 556.47 329.982C556.47 329.69 556.547 329.414 556.7 329.153C556.857 328.891 557.077 328.672 557.358 328.494C556.855 328.228 556.495 327.915 556.278 327.555C556.061 327.19 555.952 326.753 555.952 326.245C555.952 325.653 556.103 325.145 556.404 324.721C556.705 324.292 557.119 323.961 557.647 323.729C558.179 323.498 558.786 323.382 559.467 323.382C560.054 323.391 560.564 323.352 560.998 323.263C561.433 323.17 561.822 323.044 562.168 322.886C562.513 322.723 562.843 322.55 563.159 322.368ZM559.526 324.898C559.156 324.898 558.863 325.017 558.646 325.254C558.429 325.485 558.32 325.806 558.32 326.215C558.32 326.65 558.431 326.982 558.653 327.214C558.875 327.446 559.166 327.562 559.526 327.562C559.916 327.562 560.212 327.446 560.414 327.214C560.621 326.982 560.725 326.64 560.725 326.186C560.725 325.747 560.624 325.424 560.421 325.217C560.219 325.004 559.921 324.898 559.526 324.898ZM568.458 323.367C569.267 323.367 569.955 323.539 570.523 323.885C571.09 324.23 571.524 324.716 571.825 325.342C572.126 325.964 572.276 326.694 572.276 327.532C572.276 328.406 572.123 329.158 571.817 329.789C571.517 330.416 571.082 330.897 570.515 331.232C569.948 331.567 569.262 331.735 568.458 331.735C567.659 331.735 566.974 331.57 566.401 331.239C565.834 330.909 565.398 330.43 565.092 329.804C564.791 329.178 564.64 328.425 564.64 327.547C564.64 326.714 564.791 325.984 565.092 325.357C565.398 324.731 565.834 324.242 566.401 323.892C566.974 323.542 567.659 323.367 568.458 323.367ZM568.458 325.091C567.98 325.091 567.625 325.288 567.393 325.683C567.166 326.072 567.052 326.694 567.052 327.547C567.052 328.415 567.166 329.044 567.393 329.434C567.625 329.824 567.98 330.019 568.458 330.019C568.937 330.019 569.289 329.824 569.516 329.434C569.748 329.044 569.864 328.41 569.864 327.532C569.864 326.684 569.748 326.065 569.516 325.675C569.289 325.286 568.937 325.091 568.458 325.091ZM587.795 324.573C587.795 324.208 587.726 323.907 587.588 323.67C587.455 323.428 587.25 323.251 586.974 323.137C586.702 323.019 586.36 322.96 585.945 322.96H585.117V326.312H586.071C586.431 326.312 586.739 326.25 586.996 326.127C587.252 326.003 587.45 325.813 587.588 325.557C587.726 325.3 587.795 324.972 587.795 324.573ZM590.296 324.565C590.296 325.36 590.126 326.016 589.785 326.534C589.445 327.052 588.969 327.439 588.357 327.695C587.746 327.947 587.035 328.073 586.226 328.073H585.117V331.484H582.69V321.229H585.916C587.307 321.229 588.385 321.505 589.149 322.057C589.914 322.61 590.296 323.446 590.296 324.565ZM595.077 323.367C595.886 323.367 596.574 323.539 597.142 323.885C597.709 324.23 598.143 324.716 598.444 325.342C598.745 325.964 598.895 326.694 598.895 327.532C598.895 328.406 598.742 329.158 598.436 329.789C598.136 330.416 597.701 330.897 597.134 331.232C596.567 331.567 595.881 331.735 595.077 331.735C594.278 331.735 593.593 331.57 593.02 331.239C592.453 330.909 592.017 330.43 591.711 329.804C591.41 329.178 591.259 328.425 591.259 327.547C591.259 326.714 591.41 325.984 591.711 325.357C592.017 324.731 592.453 324.242 593.02 323.892C593.593 323.542 594.278 323.367 595.077 323.367ZM595.077 325.091C594.599 325.091 594.244 325.288 594.012 325.683C593.785 326.072 593.671 326.694 593.671 327.547C593.671 328.415 593.785 329.044 594.012 329.434C594.244 329.824 594.599 330.019 595.077 330.019C595.556 330.019 595.908 329.824 596.135 329.434C596.367 329.044 596.483 328.41 596.483 327.532C596.483 326.684 596.367 326.065 596.135 325.675C595.908 325.286 595.556 325.091 595.077 325.091ZM600.621 331.484V329.915H601.657V325.18H600.621V323.626H603.44L603.869 325.394C604.15 324.718 604.508 324.215 604.942 323.885C605.381 323.554 605.916 323.389 606.547 323.389C606.814 323.389 607.05 323.411 607.258 323.456C607.465 323.495 607.66 323.552 607.842 323.626L607.132 325.557C606.989 325.517 606.846 325.488 606.703 325.468C606.56 325.448 606.402 325.439 606.229 325.439C605.716 325.439 605.265 325.648 604.875 326.067C604.49 326.487 604.197 327.019 603.995 327.666V329.915H605.548V331.484H600.621ZM605.941 326.911V324.617L606.288 323.626H607.842L607.406 326.911H605.941ZM616.493 331.025C616.187 331.222 615.817 331.39 615.383 331.528C614.949 331.666 614.461 331.735 613.918 331.735C612.892 331.735 612.13 331.474 611.632 330.951C611.134 330.423 610.885 329.708 610.885 328.805V325.239H609.235V323.626H610.885V321.924L613.223 321.643V323.626H615.753L615.524 325.239H613.223V328.805C613.223 329.195 613.312 329.473 613.489 329.641C613.667 329.809 613.95 329.893 614.34 329.893C614.616 329.893 614.868 329.861 615.095 329.797C615.327 329.727 615.534 329.641 615.716 329.538L616.493 331.025ZM623.095 323.626V329.885H625.092V331.484H618.53V329.885H620.757V325.224H618.604V323.626H623.095ZM621.682 319.512C622.086 319.512 622.416 319.638 622.673 319.889C622.929 320.141 623.058 320.454 623.058 320.829C623.058 321.204 622.929 321.52 622.673 321.776C622.416 322.028 622.086 322.153 621.682 322.153C621.272 322.153 620.937 322.028 620.675 321.776C620.419 321.52 620.291 321.204 620.291 320.829C620.291 320.454 620.419 320.141 620.675 319.889C620.937 319.638 621.272 319.512 621.682 319.512ZM631.265 320.503V329.012C631.265 329.328 631.354 329.555 631.531 329.693C631.714 329.826 631.963 329.893 632.279 329.893C632.481 329.893 632.676 329.871 632.863 329.826C633.05 329.777 633.226 329.72 633.388 329.656L633.951 331.217C633.684 331.355 633.364 331.476 632.989 331.58C632.614 331.683 632.177 331.735 631.679 331.735C630.732 331.735 630.037 331.464 629.593 330.921C629.149 330.374 628.927 329.641 628.927 328.724V322.102H626.611V320.503H631.265ZM640.138 320.503V329.012C640.138 329.328 640.227 329.555 640.404 329.693C640.587 329.826 640.836 329.893 641.152 329.893C641.354 329.893 641.549 329.871 641.736 329.826C641.923 329.777 642.099 329.72 642.261 329.656L642.824 331.217C642.557 331.355 642.237 331.476 641.862 331.58C641.487 331.683 641.05 331.735 640.552 331.735C639.605 331.735 638.91 331.464 638.466 330.921C638.022 330.374 637.8 329.641 637.8 328.724V322.102H635.484V320.503H640.138ZM651.527 329.219C651.527 329.515 651.566 329.73 651.645 329.863C651.729 329.996 651.862 330.097 652.044 330.166L651.563 331.705C651.1 331.661 650.708 331.56 650.387 331.402C650.071 331.239 649.822 330.995 649.64 330.67C649.339 331.03 648.954 331.299 648.486 331.476C648.017 331.649 647.538 331.735 647.05 331.735C646.241 331.735 645.595 331.506 645.112 331.047C644.633 330.583 644.394 329.989 644.394 329.264C644.394 328.41 644.727 327.752 645.393 327.288C646.064 326.825 647.006 326.593 648.219 326.593H649.277V326.297C649.277 325.887 649.144 325.584 648.878 325.387C648.616 325.189 648.231 325.091 647.723 325.091C647.472 325.091 647.149 325.128 646.754 325.202C646.36 325.271 645.965 325.372 645.57 325.505L645.03 323.951C645.538 323.759 646.066 323.613 646.614 323.515C647.166 323.416 647.659 323.367 648.093 323.367C649.262 323.367 650.126 323.606 650.683 324.085C651.245 324.558 651.527 325.244 651.527 326.141V329.219ZM647.857 330.063C648.108 330.063 648.372 329.989 648.648 329.841C648.925 329.688 649.134 329.473 649.277 329.197V327.925H648.7C648.049 327.925 647.571 328.026 647.265 328.228C646.959 328.425 646.806 328.716 646.806 329.101C646.806 329.402 646.897 329.639 647.08 329.811C647.267 329.979 647.526 330.063 647.857 330.063ZM653.985 327.762V325.942H660.392V327.762H653.985ZM669.665 321.229L670.242 331.484H668.126L668 327.096C667.99 326.687 667.985 326.321 667.985 326.001C667.99 325.68 667.997 325.379 668.007 325.098C668.017 324.812 668.032 324.526 668.052 324.24C668.076 323.949 668.101 323.633 668.126 323.293L666.971 329.737H665.137L663.893 323.293C663.923 323.618 663.948 323.927 663.967 324.218C663.992 324.504 664.009 324.792 664.019 325.083C664.029 325.374 664.037 325.688 664.041 326.023C664.046 326.354 664.044 326.724 664.034 327.133L663.96 331.484H661.881L662.458 321.229H664.952L666.091 327.858L667.171 321.229H669.665ZM678.146 329.219C678.146 329.515 678.185 329.73 678.264 329.863C678.348 329.996 678.481 330.097 678.663 330.166L678.183 331.705C677.719 331.661 677.327 331.56 677.006 331.402C676.69 331.239 676.441 330.995 676.259 330.67C675.958 331.03 675.573 331.299 675.105 331.476C674.636 331.649 674.157 331.735 673.669 331.735C672.86 331.735 672.214 331.506 671.731 331.047C671.252 330.583 671.013 329.989 671.013 329.264C671.013 328.41 671.346 327.752 672.012 327.288C672.683 326.825 673.625 326.593 674.838 326.593H675.896V326.297C675.896 325.887 675.763 325.584 675.497 325.387C675.235 325.189 674.851 325.091 674.342 325.091C674.091 325.091 673.768 325.128 673.373 325.202C672.979 325.271 672.584 325.372 672.189 325.505L671.649 323.951C672.157 323.759 672.685 323.613 673.233 323.515C673.785 323.416 674.278 323.367 674.712 323.367C675.881 323.367 676.745 323.606 677.302 324.085C677.864 324.558 678.146 325.244 678.146 326.141V329.219ZM674.476 330.063C674.727 330.063 674.991 329.989 675.267 329.841C675.544 329.688 675.753 329.473 675.896 329.197V327.925H675.319C674.668 327.925 674.19 328.026 673.884 328.228C673.578 328.425 673.425 328.716 673.425 329.101C673.425 329.402 673.516 329.639 673.699 329.811C673.886 329.979 674.145 330.063 674.476 330.063ZM680.478 331.484V329.915H681.514V325.18H680.478V323.626H683.297L683.726 325.394C684.007 324.718 684.365 324.215 684.799 323.885C685.238 323.554 685.773 323.389 686.404 323.389C686.671 323.389 686.908 323.411 687.115 323.456C687.322 323.495 687.517 323.552 687.699 323.626L686.989 325.557C686.846 325.517 686.703 325.488 686.56 325.468C686.417 325.448 686.259 325.439 686.086 325.439C685.573 325.439 685.122 325.648 684.732 326.067C684.348 326.487 684.054 327.019 683.852 327.666V329.915H685.406V331.484H680.478ZM685.798 326.911V324.617L686.145 323.626H687.699L687.263 326.911H685.798ZM696.35 331.025C696.044 331.222 695.675 331.39 695.24 331.528C694.806 331.666 694.318 331.735 693.775 331.735C692.749 331.735 691.987 331.474 691.489 330.951C690.991 330.423 690.742 329.708 690.742 328.805V325.239H689.092V323.626H690.742V321.924L693.08 321.643V323.626H695.61L695.381 325.239H693.08V328.805C693.08 329.195 693.169 329.473 693.346 329.641C693.524 329.809 693.808 329.893 694.197 329.893C694.473 329.893 694.725 329.861 694.952 329.797C695.184 329.727 695.391 329.641 695.573 329.538L696.35 331.025ZM702.952 323.626V329.885H704.95V331.484H698.387V329.885H700.614V325.224H698.461V323.626H702.952ZM702.663 319.127L703.573 320.888L700.081 322.272L699.437 321.088L702.663 319.127ZM707.023 331.484V323.626H709.065L709.228 324.536C709.578 324.141 709.948 323.848 710.338 323.655C710.727 323.463 711.171 323.367 711.669 323.367C712.34 323.367 712.868 323.572 713.253 323.981C713.638 324.39 713.83 324.967 713.83 325.712V331.484H711.492V326.386C711.492 326.065 711.47 325.811 711.425 325.624C711.381 325.431 711.302 325.295 711.189 325.217C711.08 325.133 710.93 325.091 710.737 325.091C710.574 325.091 710.414 325.128 710.256 325.202C710.103 325.271 709.953 325.372 709.805 325.505C709.657 325.638 709.509 325.799 709.361 325.986V331.484H707.023ZM717.923 328.235C717.977 328.665 718.088 329.012 718.256 329.279C718.429 329.54 718.648 329.732 718.915 329.856C719.181 329.974 719.479 330.033 719.81 330.033C720.17 330.033 720.518 329.974 720.853 329.856C721.189 329.737 721.512 329.58 721.822 329.382L722.762 330.655C722.392 330.971 721.943 331.229 721.416 331.432C720.893 331.634 720.296 331.735 719.625 331.735C718.727 331.735 717.975 331.558 717.368 331.202C716.762 330.842 716.305 330.349 715.999 329.723C715.694 329.096 715.541 328.376 715.541 327.562C715.541 326.788 715.689 326.085 715.985 325.453C716.281 324.817 716.712 324.311 717.28 323.937C717.852 323.557 718.55 323.367 719.373 323.367C720.123 323.367 720.772 323.527 721.319 323.848C721.872 324.168 722.299 324.63 722.599 325.231C722.905 325.833 723.058 326.556 723.058 327.399C723.058 327.532 723.053 327.676 723.043 327.828C723.038 327.981 723.029 328.117 723.014 328.235H717.923ZM719.373 324.935C718.954 324.935 718.616 325.086 718.36 325.387C718.103 325.688 717.948 326.169 717.894 326.83H720.779C720.774 326.257 720.663 325.799 720.446 325.453C720.229 325.108 719.872 324.935 719.373 324.935ZM727.558 329.715H731.495L731.273 331.484H724.798V329.834L728.698 325.387H725.124V323.626H731.421V325.268L727.558 329.715ZM746.673 318.165V335.923H745.164V318.165H746.673ZM763.443 321.066C764.182 321.066 764.814 321.174 765.337 321.391C765.86 321.603 766.291 321.902 766.631 322.287C766.977 322.666 767.246 323.115 767.438 323.633C767.63 324.151 767.766 324.713 767.845 325.32C767.924 325.927 767.963 326.556 767.963 327.207C767.963 328.45 767.904 329.491 767.786 330.329C767.667 331.163 767.445 331.789 767.12 332.209C766.799 332.633 766.336 332.845 765.729 332.845C765.433 332.845 765.174 332.778 764.952 332.645C764.735 332.512 764.555 332.339 764.412 332.127C764.274 331.92 764.168 331.696 764.094 331.454C764.025 331.207 763.985 330.975 763.975 330.758H763.916C763.817 330.995 763.682 331.222 763.509 331.439C763.336 331.656 763.117 331.834 762.851 331.972C762.584 332.11 762.259 332.179 761.874 332.179C761.321 332.179 760.878 332.031 760.542 331.735C760.207 331.444 759.963 331.042 759.81 330.529C759.657 330.016 759.58 329.436 759.58 328.79C759.58 327.532 759.837 326.573 760.35 325.912C760.863 325.246 761.605 324.913 762.577 324.913C762.942 324.913 763.302 324.958 763.657 325.046C764.017 325.13 764.404 325.283 764.819 325.505V329.9C764.819 330.369 764.856 330.731 764.93 330.988C765.004 331.244 765.105 331.422 765.233 331.521C765.366 331.619 765.517 331.668 765.684 331.668C765.882 331.668 766.035 331.567 766.143 331.365C766.257 331.163 766.338 330.872 766.387 330.492C766.437 330.107 766.466 329.644 766.476 329.101C766.486 328.558 766.491 327.947 766.491 327.266C766.491 326.536 766.449 325.868 766.365 325.261C766.286 324.649 766.136 324.122 765.914 323.678C765.697 323.234 765.386 322.891 764.982 322.649C764.577 322.407 764.052 322.287 763.406 322.287C762.907 322.287 762.382 322.38 761.83 322.568C761.282 322.755 760.705 323.115 760.098 323.648L759.299 322.723C759.97 322.141 760.648 321.719 761.334 321.458C762.024 321.196 762.727 321.066 763.443 321.066ZM762.599 326.038C762.032 326.038 761.645 326.26 761.437 326.704C761.23 327.143 761.127 327.838 761.127 328.79C761.127 329.264 761.156 329.668 761.215 330.004C761.275 330.339 761.378 330.596 761.526 330.773C761.674 330.951 761.874 331.04 762.126 331.04C762.426 331.04 762.661 330.971 762.828 330.832C762.996 330.694 763.122 330.532 763.206 330.344C763.29 330.152 763.354 329.984 763.398 329.841V326.23C763.265 326.161 763.137 326.112 763.013 326.082C762.89 326.053 762.752 326.038 762.599 326.038ZM775.897 321.229V327.791C775.897 328.388 775.805 328.928 775.623 329.412C775.44 329.895 775.172 330.307 774.816 330.647C774.466 330.988 774.035 331.249 773.522 331.432C773.013 331.614 772.431 331.705 771.775 331.705C771.114 331.705 770.542 331.622 770.059 331.454C769.58 331.281 769.119 331.045 768.675 330.744L769.6 329.249C769.95 329.491 770.278 329.661 770.584 329.76C770.89 329.853 771.238 329.9 771.627 329.9C772.155 329.9 772.594 329.732 772.944 329.397C773.3 329.057 773.477 328.531 773.477 327.821V323.004H770.325V321.229H775.897ZM781.41 323.367C782.219 323.367 782.908 323.539 783.475 323.885C784.042 324.23 784.476 324.716 784.777 325.342C785.078 325.964 785.228 326.694 785.228 327.532C785.228 328.406 785.075 329.158 784.77 329.789C784.469 330.416 784.035 330.897 783.467 331.232C782.9 331.567 782.215 331.735 781.41 331.735C780.611 331.735 779.926 331.57 779.354 331.239C778.786 330.909 778.35 330.43 778.044 329.804C777.743 329.178 777.593 328.425 777.593 327.547C777.593 326.714 777.743 325.984 778.044 325.357C778.35 324.731 778.786 324.242 779.354 323.892C779.926 323.542 780.611 323.367 781.41 323.367ZM781.41 325.091C780.932 325.091 780.577 325.288 780.345 325.683C780.118 326.072 780.005 326.694 780.005 327.547C780.005 328.415 780.118 329.044 780.345 329.434C780.577 329.824 780.932 330.019 781.41 330.019C781.889 330.019 782.242 329.824 782.469 329.434C782.7 329.044 782.816 328.41 782.816 327.532C782.816 326.684 782.7 326.065 782.469 325.675C782.242 325.286 781.889 325.091 781.41 325.091ZM788.907 328.235C788.962 328.665 789.073 329.012 789.24 329.279C789.413 329.54 789.632 329.732 789.899 329.856C790.165 329.974 790.464 330.033 790.794 330.033C791.154 330.033 791.502 329.974 791.837 329.856C792.173 329.737 792.496 329.58 792.807 329.382L793.746 330.655C793.376 330.971 792.927 331.229 792.4 331.432C791.877 331.634 791.28 331.735 790.609 331.735C789.711 331.735 788.959 331.558 788.352 331.202C787.746 330.842 787.289 330.349 786.984 329.723C786.678 329.096 786.525 328.376 786.525 327.562C786.525 326.788 786.673 326.085 786.969 325.453C787.265 324.817 787.696 324.311 788.264 323.937C788.836 323.557 789.534 323.367 790.358 323.367C791.107 323.367 791.756 323.527 792.303 323.848C792.856 324.168 793.283 324.63 793.583 325.231C793.889 325.833 794.042 326.556 794.042 327.399C794.042 327.532 794.037 327.676 794.027 327.828C794.022 327.981 794.013 328.117 793.998 328.235H788.907ZM790.358 324.935C789.938 324.935 789.6 325.086 789.344 325.387C789.087 325.688 788.932 326.169 788.878 326.83H791.763C791.758 326.257 791.647 325.799 791.43 325.453C791.213 325.108 790.856 324.935 790.358 324.935ZM800.747 324.573C800.747 324.208 800.678 323.907 800.54 323.67C800.407 323.428 800.202 323.251 799.926 323.137C799.655 323.019 799.312 322.96 798.898 322.96H798.069V326.312H799.023C799.383 326.312 799.692 326.25 799.948 326.127C800.205 326.003 800.402 325.813 800.54 325.557C800.678 325.3 800.747 324.972 800.747 324.573ZM803.248 324.565C803.248 325.36 803.078 326.016 802.738 326.534C802.397 327.052 801.921 327.439 801.31 327.695C800.698 327.947 799.988 328.073 799.179 328.073H798.069V331.484H795.642V321.229H798.868C800.259 321.229 801.337 321.505 802.101 322.057C802.866 322.61 803.248 323.446 803.248 324.565ZM808.03 323.367C808.839 323.367 809.527 323.539 810.094 323.885C810.661 324.23 811.095 324.716 811.396 325.342C811.697 325.964 811.847 326.694 811.847 327.532C811.847 328.406 811.695 329.158 811.389 329.789C811.088 330.416 810.654 330.897 810.086 331.232C809.519 331.567 808.834 331.735 808.03 331.735C807.23 331.735 806.545 331.57 805.973 331.239C805.405 330.909 804.969 330.43 804.663 329.804C804.362 329.178 804.212 328.425 804.212 327.547C804.212 326.714 804.362 325.984 804.663 325.357C804.969 324.731 805.405 324.242 805.973 323.892C806.545 323.542 807.23 323.367 808.03 323.367ZM808.03 325.091C807.551 325.091 807.196 325.288 806.964 325.683C806.737 326.072 806.624 326.694 806.624 327.547C806.624 328.415 806.737 329.044 806.964 329.434C807.196 329.824 807.551 330.019 808.03 330.019C808.508 330.019 808.861 329.824 809.088 329.434C809.319 329.044 809.435 328.41 809.435 327.532C809.435 326.684 809.319 326.065 809.088 325.675C808.861 325.286 808.508 325.091 808.03 325.091ZM813.573 331.484V329.915H814.609V325.18H813.573V323.626H816.392L816.821 325.394C817.102 324.718 817.46 324.215 817.894 323.885C818.333 323.554 818.868 323.389 819.5 323.389C819.766 323.389 820.003 323.411 820.21 323.456C820.417 323.495 820.612 323.552 820.794 323.626L820.084 325.557C819.941 325.517 819.798 325.488 819.655 325.468C819.512 325.448 819.354 325.439 819.181 325.439C818.668 325.439 818.217 325.648 817.827 326.067C817.443 326.487 817.149 327.019 816.947 327.666V329.915H818.501V331.484H813.573ZM818.893 326.911V324.617L819.241 323.626H820.794L820.358 326.911H818.893ZM829.445 331.025C829.14 331.222 828.77 331.39 828.336 331.528C827.902 331.666 827.413 331.735 826.871 331.735C825.845 331.735 825.083 331.474 824.584 330.951C824.086 330.423 823.837 329.708 823.837 328.805V325.239H822.187V323.626H823.837V321.924L826.175 321.643V323.626H828.706L828.476 325.239H826.175V328.805C826.175 329.195 826.264 329.473 826.441 329.641C826.619 329.809 826.903 329.893 827.292 329.893C827.569 329.893 827.82 329.861 828.047 329.797C828.279 329.727 828.486 329.641 828.669 329.538L829.445 331.025ZM836.047 323.626V329.885H838.045V331.484H831.482V329.885H833.709V325.224H831.556V323.626H836.047ZM834.634 319.512C835.038 319.512 835.369 319.638 835.625 319.889C835.882 320.141 836.01 320.454 836.01 320.829C836.01 321.204 835.882 321.52 835.625 321.776C835.369 322.028 835.038 322.153 834.634 322.153C834.224 322.153 833.889 322.028 833.628 321.776C833.371 321.52 833.243 321.204 833.243 320.829C833.243 320.454 833.371 320.141 833.628 319.889C833.889 319.638 834.224 319.512 834.634 319.512ZM844.217 320.503V329.012C844.217 329.328 844.306 329.555 844.483 329.693C844.666 329.826 844.915 329.893 845.231 329.893C845.433 329.893 845.628 329.871 845.815 329.826C846.003 329.777 846.178 329.72 846.341 329.656L846.903 331.217C846.637 331.355 846.316 331.476 845.941 331.58C845.566 331.683 845.13 331.735 844.631 331.735C843.684 331.735 842.989 331.464 842.545 330.921C842.101 330.374 841.879 329.641 841.879 328.724V322.102H839.563V320.503H844.217ZM853.09 320.503V329.012C853.09 329.328 853.179 329.555 853.356 329.693C853.539 329.826 853.788 329.893 854.104 329.893C854.306 329.893 854.501 329.871 854.688 329.826C854.876 329.777 855.051 329.72 855.214 329.656L855.776 331.217C855.51 331.355 855.189 331.476 854.814 331.58C854.439 331.683 854.003 331.735 853.504 331.735C852.557 331.735 851.862 331.464 851.418 330.921C850.974 330.374 850.752 329.641 850.752 328.724V322.102H848.436V320.503H853.09ZM864.479 329.219C864.479 329.515 864.518 329.73 864.597 329.863C864.681 329.996 864.814 330.097 864.997 330.166L864.516 331.705C864.052 331.661 863.66 331.56 863.339 331.402C863.024 331.239 862.775 330.995 862.592 330.67C862.291 331.03 861.906 331.299 861.438 331.476C860.969 331.649 860.491 331.735 860.002 331.735C859.193 331.735 858.547 331.506 858.064 331.047C857.585 330.583 857.346 329.989 857.346 329.264C857.346 328.41 857.679 327.752 858.345 327.288C859.016 326.825 859.958 326.593 861.171 326.593H862.229V326.297C862.229 325.887 862.096 325.584 861.83 325.387C861.568 325.189 861.184 325.091 860.676 325.091C860.424 325.091 860.101 325.128 859.706 325.202C859.312 325.271 858.917 325.372 858.523 325.505L857.982 323.951C858.49 323.759 859.018 323.613 859.566 323.515C860.118 323.416 860.612 323.367 861.046 323.367C862.215 323.367 863.078 323.606 863.635 324.085C864.198 324.558 864.479 325.244 864.479 326.141V329.219ZM860.809 330.063C861.06 330.063 861.324 329.989 861.601 329.841C861.877 329.688 862.086 329.473 862.229 329.197V327.925H861.652C861.001 327.925 860.523 328.026 860.217 328.228C859.911 328.425 859.758 328.716 859.758 329.101C859.758 329.402 859.849 329.639 860.032 329.811C860.219 329.979 860.478 330.063 860.809 330.063Z" fill="black"/>
<path d="M227.729 54.1028L234.195 65.3015L221.264 65.3015L227.729 54.1028ZM227.729 259.412L226.609 259.412L226.609 64.1816L227.729 64.1816L228.849 64.1816L228.849 259.412L227.729 259.412Z" fill="black"/>
<path d="M227.729 260.532C227.111 260.532 226.609 260.03 226.609 259.412C226.609 258.794 227.111 258.292 227.729 258.292V260.532ZM433.038 259.412L421.84 265.878V252.946L433.038 259.412ZM227.729 259.412V258.292L422.96 258.292V259.412V260.532L227.729 260.532V259.412Z" fill="black"/>
<path d="M227.729 254.933L227.729 263.145" stroke="black" stroke-width="1.49316" stroke-linecap="round"/>
<path d="M223.996 259.412H232.209" stroke="black" stroke-width="1.49316" stroke-linecap="round"/>
<path d="M223.996 184.754H232.209" stroke="black" stroke-width="1.49316" stroke-linecap="round"/>
<path d="M223.996 110.096H232.209" stroke="black" stroke-width="1.49316" stroke-linecap="round"/>
<path d="M302.387 254.933L302.387 263.145" stroke="black" stroke-width="1.49316" stroke-linecap="round"/>
<path d="M377.045 254.933L377.045 263.145" stroke="black" stroke-width="1.49316" stroke-linecap="round"/>
<path d="M385.141 178.565C385.141 179.371 385.207 180.109 385.338 180.778C385.469 181.441 385.675 182.071 385.956 182.668C386.237 183.259 386.601 183.848 387.049 184.433C387.503 185.018 388.052 185.64 388.698 186.297L387.354 187.551C386.398 186.744 385.574 185.902 384.881 185.024C384.194 184.146 383.663 183.182 383.286 182.131C382.916 181.079 382.731 179.891 382.731 178.565C382.731 177.239 382.916 176.051 383.286 174.999C383.663 173.942 384.194 172.978 384.881 172.106C385.574 171.228 386.398 170.385 387.354 169.579L388.698 170.833C388.082 171.461 387.551 172.067 387.103 172.652C386.655 173.237 386.285 173.832 385.992 174.435C385.705 175.032 385.49 175.668 385.347 176.343C385.21 177.012 385.141 177.753 385.141 178.565ZM396.422 172.177C397.312 172.177 398.059 172.336 398.662 172.652C399.271 172.969 399.731 173.396 400.042 173.933C400.352 174.465 400.507 175.05 400.507 175.689C400.507 176.215 400.418 176.728 400.239 177.23C400.059 177.732 399.767 178.26 399.361 178.816C398.96 179.371 398.429 179.989 397.766 180.67C397.103 181.345 396.285 182.116 395.311 182.982H400.794L400.534 184.836H392.606V183.107C393.46 182.283 394.197 181.557 394.818 180.93C395.44 180.297 395.959 179.739 396.377 179.255C396.801 178.771 397.136 178.338 397.381 177.956C397.632 177.568 397.811 177.206 397.918 176.872C398.026 176.537 398.08 176.203 398.08 175.868C398.08 175.301 397.915 174.853 397.587 174.524C397.264 174.196 396.81 174.032 396.225 174.032C395.705 174.032 395.263 174.133 394.899 174.336C394.541 174.533 394.188 174.856 393.842 175.304L392.355 174.175C392.827 173.542 393.388 173.052 394.039 172.706C394.69 172.353 395.484 172.177 396.422 172.177ZM407.641 181.405C408.148 181.405 408.569 181.575 408.904 181.916C409.244 182.256 409.415 182.674 409.415 183.17C409.415 183.474 409.364 183.782 409.262 184.093C409.161 184.397 409.005 184.788 408.796 185.266L407.444 188.33H405.741L406.637 184.621C406.398 184.46 406.213 184.251 406.082 183.994C405.95 183.737 405.885 183.46 405.885 183.161C405.885 182.665 406.052 182.25 406.386 181.916C406.721 181.575 407.139 181.405 407.641 181.405ZM431.001 172.446V184.478H428.68V174.829L426.037 176.469L425.025 174.829L428.913 172.446H431.001ZM433.411 183.018V184.836H425.679V183.018H433.411ZM440.884 178.565C440.884 177.753 440.813 177.012 440.669 176.343C440.532 175.668 440.317 175.032 440.024 174.435C439.737 173.832 439.37 173.237 438.922 172.652C438.474 172.067 437.943 171.461 437.328 170.833L438.671 169.579C439.627 170.385 440.448 171.228 441.135 172.106C441.828 172.978 442.359 173.942 442.73 174.999C443.106 176.051 443.294 177.239 443.294 178.565C443.294 179.891 443.106 181.079 442.73 182.131C442.359 183.182 441.828 184.146 441.135 185.024C440.448 185.902 439.627 186.744 438.671 187.551L437.328 186.297C437.973 185.64 438.519 185.018 438.967 184.433C439.421 183.848 439.788 183.259 440.069 182.668C440.35 182.071 440.556 181.441 440.687 180.778C440.819 180.109 440.884 179.371 440.884 178.565Z" fill="black"/>
<path d="M377.045 184.754L364.14 183.928L369.877 195.517L377.045 184.754ZM226.236 259.412L226.733 260.416L368.509 190.229L368.012 189.226L367.516 188.222L225.739 258.408L226.236 259.412Z" fill="#C90000"/>
<path d="M443.39 254.445C443.918 254.368 444.454 254.445 444.998 254.678C445.417 254.865 445.736 255.129 445.953 255.471L446.046 255.587L446.139 255.447C446.528 254.981 447.001 254.663 447.561 254.492C448.244 254.306 448.865 254.43 449.424 254.865C449.533 254.943 449.626 255.028 449.704 255.121C449.89 255.339 450.015 255.595 450.077 255.89C450.232 256.403 450.193 256.907 449.96 257.404C449.712 257.933 449.292 258.228 448.702 258.29C448.205 258.336 447.863 258.158 447.677 257.754C447.63 257.676 447.599 257.552 447.584 257.381C447.584 257.117 447.638 256.876 447.747 256.659C447.871 256.379 448.096 256.154 448.423 255.983C448.562 255.921 448.632 255.874 448.632 255.843C448.57 255.75 448.461 255.665 448.306 255.587C448.228 255.556 448.112 255.541 447.957 255.541C447.801 255.541 447.685 255.556 447.607 255.587C447.219 255.805 446.916 256.216 446.699 256.822L445.347 262.204C445.238 262.685 445.215 263.043 445.277 263.276C445.402 263.695 445.736 263.897 446.279 263.881C446.466 263.866 446.644 263.827 446.815 263.765C447.436 263.532 447.949 262.996 448.353 262.157C448.461 261.94 448.547 261.722 448.609 261.505C448.671 261.303 448.741 261.194 448.819 261.179C448.865 261.163 449.028 261.156 449.308 261.156C449.65 261.156 449.836 261.171 449.867 261.202C449.945 261.264 449.953 261.396 449.89 261.598C449.766 262.111 449.549 262.584 449.238 263.019C448.43 264.2 447.444 264.852 446.279 264.977C446.248 264.977 446.217 264.977 446.186 264.977C445.285 265.023 444.563 264.728 444.019 264.091C443.988 264.076 443.965 264.052 443.949 264.021C443.856 263.913 443.802 263.85 443.786 263.835L443.646 263.998C443.429 264.246 443.211 264.433 442.994 264.557C442.528 264.852 442.07 264.992 441.619 264.977C441.324 264.961 441.029 264.883 440.734 264.744C440.237 264.511 439.911 264.091 439.756 263.485C439.585 262.709 439.724 262.064 440.175 261.552C440.61 261.132 441.084 261 441.596 261.156C441.783 261.218 441.93 261.311 442.039 261.435C442.334 261.761 442.349 262.196 442.085 262.74C441.946 263.035 441.728 263.26 441.433 263.415C441.293 263.493 441.216 263.532 441.2 263.532C441.2 263.594 441.317 263.687 441.55 263.812C441.612 263.843 441.72 263.858 441.876 263.858C442.031 263.858 442.148 263.843 442.225 263.812C442.613 263.61 442.909 263.206 443.111 262.6L444.508 257.102C444.54 256.946 444.555 256.729 444.555 256.449C444.555 256.232 444.54 256.084 444.508 256.006C444.322 255.603 443.926 255.455 443.32 255.564C442.746 255.673 442.233 256.061 441.783 256.729C441.518 257.148 441.324 257.583 441.2 258.033C441.153 258.127 441.122 258.181 441.107 258.197C441.076 258.228 440.889 258.243 440.548 258.243H440.035L439.965 258.173C439.919 258.127 439.895 258.065 439.895 257.987C439.957 257.583 440.175 257.094 440.548 256.519C440.563 256.488 440.579 256.457 440.594 256.426C441.278 255.354 442.155 254.702 443.227 254.469C443.289 254.469 443.344 254.461 443.39 254.445Z" fill="black"/>
<path d="M304.061 266.524L304.184 266.51H304.198C304.299 266.51 304.363 266.542 304.39 266.606C304.399 266.643 304.07 268.009 303.403 270.704C302.718 273.409 302.375 274.766 302.375 274.775C302.366 274.802 302.43 274.825 302.567 274.843C302.704 274.852 302.928 274.861 303.239 274.871C303.595 274.871 303.787 274.903 303.814 274.967C303.833 274.994 303.819 275.099 303.773 275.282C303.718 275.474 303.682 275.579 303.664 275.597L303.623 275.638H303.403C302.398 275.592 301.224 275.588 299.881 275.624C299.57 275.633 299.397 275.606 299.36 275.542C299.351 275.515 299.365 275.41 299.401 275.227C299.456 275.044 299.493 274.939 299.511 274.912L299.566 274.871H300.087C300.644 274.861 300.968 274.825 301.06 274.761C301.096 274.743 301.366 273.71 301.868 271.664L302.636 268.594L302.458 268.69C302.056 268.891 301.658 269.005 301.265 269.032C301.092 269.05 300.982 269.023 300.936 268.95L300.923 268.909L300.977 268.662C301.032 268.443 301.082 268.32 301.128 268.292C301.137 268.292 301.215 268.283 301.361 268.265C301.699 268.237 302.051 268.137 302.416 267.963C303.01 267.662 303.522 267.223 303.951 266.647C303.979 266.611 304.015 266.57 304.061 266.524Z" fill="black"/>
<path d="M216.711 179.174L216.835 179.161H216.849C216.949 179.161 217.013 179.193 217.04 179.257C217.05 179.293 216.721 180.659 216.054 183.354C215.368 186.059 215.026 187.416 215.026 187.425C215.017 187.452 215.081 187.475 215.218 187.493C215.355 187.503 215.579 187.512 215.889 187.521C216.245 187.521 216.437 187.553 216.465 187.617C216.483 187.644 216.469 187.749 216.424 187.932C216.369 188.124 216.332 188.229 216.314 188.247L216.273 188.288H216.054C215.049 188.243 213.875 188.238 212.531 188.275C212.221 188.284 212.047 188.256 212.011 188.192C212.001 188.165 212.015 188.06 212.052 187.877C212.107 187.694 212.143 187.589 212.161 187.562L212.216 187.521H212.737C213.294 187.512 213.619 187.475 213.71 187.411C213.747 187.393 214.016 186.36 214.519 184.314L215.286 181.244L215.108 181.34C214.706 181.541 214.308 181.655 213.916 181.682C213.742 181.701 213.632 181.673 213.587 181.6L213.573 181.559L213.628 181.312C213.683 181.093 213.733 180.97 213.779 180.942C213.788 180.942 213.865 180.933 214.012 180.915C214.35 180.888 214.701 180.787 215.067 180.613C215.661 180.312 216.172 179.873 216.602 179.298C216.629 179.261 216.666 179.22 216.711 179.174Z" fill="black"/>
<path d="M378.41 266.524L378.767 266.51H378.78C379.091 266.52 379.383 266.588 379.657 266.716C380.06 266.917 380.366 267.223 380.576 267.634C380.758 267.991 380.85 268.397 380.85 268.854C380.85 269.092 380.827 269.32 380.781 269.539C380.69 269.996 380.484 270.426 380.165 270.828C380.064 270.965 379.849 271.184 379.52 271.485C379.118 271.805 378.588 272.166 377.931 272.568C377.711 272.687 377.515 272.806 377.341 272.924C376.811 273.235 376.332 273.651 375.902 274.172C375.911 274.245 375.93 274.286 375.957 274.295C376.131 274.295 376.505 274.35 377.081 274.459C377.848 274.606 378.351 274.66 378.588 274.624C379 274.56 379.338 274.295 379.603 273.829C379.667 273.71 379.721 273.591 379.767 273.473C379.804 273.354 379.845 273.29 379.89 273.281C379.918 273.272 380.014 273.267 380.178 273.267H380.48L380.521 273.308C380.548 273.336 380.562 273.368 380.562 273.404C380.544 273.505 380.48 273.697 380.37 273.98C379.986 274.948 379.447 275.565 378.753 275.83C378.671 275.857 378.593 275.88 378.52 275.898C378.447 275.917 378.328 275.926 378.164 275.926C377.999 275.926 377.876 275.917 377.794 275.898C377.538 275.835 377.232 275.684 376.875 275.446C376.409 275.145 376.039 274.976 375.765 274.939C375.582 274.912 375.436 274.971 375.327 275.117C375.263 275.209 375.185 275.401 375.094 275.693C375.048 275.839 375.002 275.917 374.957 275.926C374.92 275.935 374.82 275.94 374.655 275.94H374.367L374.326 275.898C374.29 275.853 374.294 275.757 374.34 275.611C374.669 274.459 375.363 273.486 376.423 272.691C376.615 272.545 376.811 272.413 377.012 272.294C378.054 271.673 378.762 270.978 379.137 270.211C379.246 269.982 379.356 269.612 379.466 269.101C379.53 268.79 379.562 268.511 379.562 268.265C379.562 268.009 379.525 267.803 379.452 267.648C379.333 267.41 379.141 267.255 378.876 267.182C378.739 267.145 378.561 267.145 378.342 267.182C378.15 267.228 378.004 267.278 377.903 267.333C377.501 267.525 377.149 267.858 376.848 268.333C376.72 268.516 376.578 268.785 376.423 269.142C376.14 269.836 376.09 270.247 376.272 270.375C376.327 270.412 376.423 270.403 376.56 270.348C376.862 270.247 377.108 269.95 377.3 269.457C377.309 269.43 377.318 269.407 377.328 269.389C377.465 269.032 377.478 268.749 377.369 268.539C377.314 268.447 377.3 268.379 377.328 268.333C377.428 268.233 377.561 268.128 377.725 268.018C377.78 267.981 377.83 267.995 377.876 268.059C377.931 268.123 377.981 268.228 378.027 268.374C378.136 268.685 378.109 269.064 377.944 269.512C377.661 270.252 377.25 270.727 376.711 270.937C376.665 270.955 376.615 270.974 376.56 270.992C376.387 271.038 376.222 271.047 376.067 271.019C375.71 270.937 375.5 270.695 375.436 270.293C375.409 270.11 375.418 269.923 375.464 269.731C375.564 269.256 375.761 268.781 376.053 268.306C376.574 267.41 377.245 266.844 378.068 266.606C378.186 266.57 378.301 266.542 378.41 266.524Z" fill="black"/>
<path d="M215.656 104.517L216.013 104.503H216.026C216.337 104.512 216.629 104.581 216.903 104.708C217.305 104.909 217.611 105.216 217.822 105.627C218.004 105.983 218.096 106.39 218.096 106.846C218.096 107.084 218.073 107.312 218.027 107.532C217.936 107.989 217.73 108.418 217.41 108.82C217.31 108.957 217.095 109.176 216.766 109.478C216.364 109.798 215.834 110.159 215.176 110.561C214.957 110.679 214.761 110.798 214.587 110.917C214.057 111.228 213.578 111.643 213.148 112.164C213.157 112.237 213.176 112.278 213.203 112.287C213.377 112.287 213.751 112.342 214.327 112.452C215.094 112.598 215.597 112.653 215.834 112.616C216.245 112.552 216.584 112.287 216.849 111.821C216.912 111.703 216.967 111.584 217.013 111.465C217.05 111.346 217.091 111.282 217.136 111.273C217.164 111.264 217.26 111.26 217.424 111.26H217.726L217.767 111.301C217.794 111.328 217.808 111.36 217.808 111.397C217.79 111.497 217.726 111.689 217.616 111.972C217.232 112.941 216.693 113.557 215.999 113.822C215.917 113.85 215.839 113.873 215.766 113.891C215.693 113.909 215.574 113.918 215.409 113.918C215.245 113.918 215.122 113.909 215.039 113.891C214.784 113.827 214.478 113.676 214.121 113.439C213.655 113.137 213.285 112.968 213.011 112.932C212.828 112.904 212.682 112.964 212.573 113.11C212.509 113.201 212.431 113.393 212.34 113.685C212.294 113.832 212.248 113.909 212.202 113.918C212.166 113.927 212.065 113.932 211.901 113.932H211.613L211.572 113.891C211.535 113.845 211.54 113.749 211.586 113.603C211.915 112.452 212.609 111.479 213.669 110.684C213.861 110.538 214.057 110.405 214.258 110.286C215.3 109.665 216.008 108.971 216.383 108.203C216.492 107.975 216.602 107.605 216.711 107.093C216.775 106.782 216.807 106.504 216.807 106.257C216.807 106.001 216.771 105.796 216.698 105.64C216.579 105.403 216.387 105.248 216.122 105.174C215.985 105.138 215.807 105.138 215.588 105.174C215.396 105.22 215.25 105.27 215.149 105.325C214.747 105.517 214.395 105.851 214.094 106.326C213.966 106.508 213.824 106.778 213.669 107.134C213.386 107.829 213.335 108.24 213.518 108.368C213.573 108.404 213.669 108.395 213.806 108.34C214.107 108.24 214.354 107.943 214.546 107.449C214.555 107.422 214.564 107.399 214.573 107.381C214.711 107.025 214.724 106.741 214.615 106.531C214.56 106.44 214.546 106.371 214.573 106.326C214.674 106.225 214.806 106.12 214.971 106.01C215.026 105.974 215.076 105.988 215.122 106.052C215.176 106.116 215.227 106.221 215.272 106.367C215.382 106.677 215.355 107.057 215.19 107.504C214.907 108.244 214.496 108.719 213.957 108.93C213.911 108.948 213.861 108.966 213.806 108.984C213.632 109.03 213.468 109.039 213.313 109.012C212.956 108.93 212.746 108.688 212.682 108.285C212.655 108.103 212.664 107.915 212.71 107.724C212.81 107.248 213.007 106.773 213.299 106.298C213.82 105.403 214.491 104.836 215.314 104.599C215.432 104.562 215.547 104.535 215.656 104.517Z" fill="black"/>
<path d="M225.483 29.7486C225.592 29.7175 225.763 29.702 225.996 29.702C226.353 29.7175 226.664 29.7952 226.928 29.935C227.13 30.0437 227.285 30.1602 227.394 30.2844C227.518 30.3932 227.635 30.5485 227.743 30.7504C227.883 31.0455 227.945 31.3562 227.93 31.6824C227.93 31.993 227.829 32.4202 227.627 32.9638C227.611 33.0414 227.58 33.1346 227.534 33.2434C226.773 35.3558 226.392 36.8003 226.392 37.5769C226.392 37.6391 226.392 37.6934 226.392 37.74C226.408 38.2681 226.532 38.6564 226.765 38.905C226.936 39.0603 227.169 39.1379 227.464 39.1379C227.774 39.1379 228.046 39.0758 228.279 38.9516C228.683 38.7496 229.033 38.4235 229.328 37.973L229.467 37.74L230.329 34.2918C230.935 31.8843 231.285 30.6106 231.378 30.4708C231.393 30.4398 231.432 30.3932 231.494 30.331C231.836 29.9893 232.224 29.8728 232.659 29.9816C233.032 30.1058 233.234 30.3466 233.265 30.7038C233.265 30.8125 232.877 32.4357 232.1 35.5732C231.339 38.6176 230.912 40.2796 230.819 40.5592C230.663 41.0717 230.423 41.5532 230.097 42.0037C229.988 42.1901 229.864 42.3687 229.724 42.5396C229.413 42.9279 229.079 43.2618 228.722 43.5414C228.054 44.1006 227.339 44.4656 226.578 44.6364C226.299 44.7141 225.949 44.7529 225.53 44.7529C225.204 44.7529 224.963 44.7374 224.808 44.7063C223.767 44.4734 223.177 43.9142 223.037 43.0288C222.99 42.6405 223.045 42.26 223.2 41.8872C223.449 41.3746 223.868 41.0873 224.458 41.0251C224.955 40.9785 225.297 41.1572 225.483 41.561C225.53 41.6387 225.561 41.7629 225.577 41.9338C225.592 42.3376 225.445 42.7104 225.134 43.0521C224.994 43.1609 224.885 43.2385 224.808 43.2851C224.746 43.3162 224.707 43.3395 224.691 43.355L225.087 43.588C225.724 43.8055 226.369 43.6812 227.021 43.2152C227.829 42.6095 228.442 41.5998 228.862 40.1864C228.893 40.0155 228.924 39.899 228.955 39.8369V39.7437L228.768 39.8369C228.023 40.2718 227.2 40.3728 226.299 40.1398C225.274 39.8913 224.645 39.2234 224.412 38.1361C224.349 37.7323 224.349 37.2508 224.412 36.6916C224.427 36.645 224.435 36.6062 224.435 36.5751C224.559 35.7985 224.924 34.6102 225.53 33.0104C225.81 32.1872 225.965 31.6591 225.996 31.4261C226.074 31.0688 226.035 30.8669 225.879 30.8203C225.693 30.7582 225.476 30.797 225.227 30.9368C224.901 31.1387 224.645 31.4571 224.458 31.892C224.303 32.1716 224.132 32.6454 223.946 33.3133C223.899 33.4065 223.868 33.4608 223.852 33.4764C223.821 33.5074 223.635 33.523 223.293 33.523H222.781L222.711 33.4531C222.664 33.4065 222.641 33.3443 222.641 33.2667C222.672 33.0182 222.804 32.6298 223.037 32.1017C223.223 31.6979 223.418 31.3639 223.619 31.0999C223.821 30.8203 224.078 30.5407 224.388 30.2611C224.73 29.9971 225.095 29.8262 225.483 29.7486Z" fill="black"/>
<path d="M222.301 247.303C219.563 241.815 218.803 236.989 220.019 232.823C221.289 228.763 224.667 225.364 230.155 222.626L278.277 198.618C281.232 197.144 283.027 195.458 283.661 193.56C284.454 191.714 284.271 189.631 283.113 187.309L280.349 181.769L283.356 180.268L286.12 185.809C287.279 188.13 288.781 189.556 290.626 190.085C292.524 190.719 294.951 190.3 297.906 188.825L346.028 164.817C351.621 162.027 356.368 161.372 360.27 162.852C364.33 164.385 367.728 167.896 370.466 173.383L372.44 177.341L369.433 178.841L366.906 173.776C364.8 169.554 362.086 167.02 358.764 166.174C355.547 165.274 351.828 165.877 347.607 167.983L299.485 191.991C297.375 193.044 295.528 193.702 293.945 193.964C292.468 194.174 291.15 194.041 289.99 193.565C288.83 193.09 287.644 192.297 286.432 191.189L287.065 190.873C287.328 192.455 287.247 193.879 286.824 195.145C286.507 196.358 285.767 197.517 284.606 198.624C283.55 199.678 281.967 200.731 279.856 201.784L231.734 225.792C227.513 227.898 224.795 230.507 223.579 233.617C222.258 236.781 222.65 240.473 224.756 244.694L227.283 249.76L224.275 251.26L222.301 247.303Z" fill="#0037AC"/>
<path d="M959.111 85.4551C959.111 86.2614 959.176 86.999 959.308 87.6679C959.439 88.3309 959.645 88.961 959.926 89.5583C960.207 90.1495 960.571 90.7378 961.019 91.3232C961.473 91.9085 962.022 92.5296 962.667 93.1866L961.323 94.4409C960.368 93.6346 959.544 92.7924 958.851 91.9145C958.164 91.0365 957.632 90.0719 957.256 89.0207C956.886 87.9695 956.701 86.781 956.701 85.4551C956.701 84.1291 956.886 82.9406 957.256 81.8894C957.632 80.8322 958.164 79.8677 958.851 78.9957C959.544 78.1177 960.368 77.2755 961.323 76.4692L962.667 77.7235C962.052 78.3506 961.521 78.9568 961.073 79.5422C960.625 80.1275 960.254 80.7217 959.962 81.325C959.675 81.9222 959.46 82.5583 959.317 83.2332C959.179 83.9022 959.111 84.6428 959.111 85.4551ZM970.392 79.0673C971.282 79.0673 972.028 79.2256 972.632 79.5422C973.241 79.8587 973.701 80.2857 974.011 80.8233C974.322 81.3548 974.477 81.9402 974.477 82.5792C974.477 83.1048 974.388 83.6185 974.208 84.1202C974.029 84.6219 973.737 85.1505 973.33 85.7059C972.93 86.2614 972.399 86.8795 971.736 87.5604C971.073 88.2353 970.254 89.0058 969.281 89.8718H974.764L974.504 91.7263H966.575V89.9972C967.429 89.173 968.167 88.4473 968.788 87.8202C969.409 87.1871 969.929 86.6287 970.347 86.1449C970.771 85.6611 971.106 85.2281 971.35 84.8458C971.601 84.4576 971.78 84.0963 971.888 83.7618C971.995 83.4273 972.049 83.0929 972.049 82.7584C972.049 82.191 971.885 81.7431 971.556 81.4146C971.234 81.0861 970.78 80.9218 970.195 80.9218C969.675 80.9218 969.233 81.0234 968.869 81.2264C968.51 81.4235 968.158 81.7461 967.812 82.194L966.324 81.0652C966.796 80.4321 967.358 79.9423 968.009 79.5959C968.66 79.2435 969.454 79.0673 970.392 79.0673ZM981.61 88.295C982.118 88.295 982.539 88.4653 982.874 88.8057C983.214 89.1461 983.384 89.5642 983.384 90.06C983.384 90.3646 983.333 90.6721 983.232 90.9827C983.13 91.2873 982.975 91.6785 982.766 92.1563L981.413 95.2203H979.711L980.607 91.5113C980.368 91.35 980.183 91.141 980.052 90.8842C979.92 90.6274 979.854 90.3496 979.854 90.051C979.854 89.5553 980.022 89.1402 980.356 88.8057C980.691 88.4653 981.109 88.295 981.61 88.295ZM1002.58 79.0673C1003.43 79.0673 1004.16 79.2107 1004.76 79.4974C1005.37 79.7781 1005.84 80.1573 1006.16 80.6351C1006.48 81.113 1006.65 81.6385 1006.65 82.2119C1006.65 82.7256 1006.54 83.1825 1006.32 83.5826C1006.11 83.9768 1005.82 84.3053 1005.45 84.5681C1005.07 84.8309 1004.64 85.025 1004.16 85.1505C1004.7 85.2162 1005.19 85.3655 1005.62 85.5984C1006.05 85.8254 1006.4 86.1539 1006.65 86.5839C1006.91 87.0079 1007.04 87.5515 1007.04 88.2144C1007.04 88.9132 1006.85 89.5493 1006.48 90.1227C1006.1 90.696 1005.56 91.1529 1004.87 91.4934C1004.18 91.8279 1003.37 91.9951 1002.43 91.9951C1001.58 91.9951 1000.8 91.8458 1000.09 91.5471C999.371 91.2425 998.762 90.7976 998.26 90.2123L999.649 88.958C1000 89.3701 1000.4 89.6717 1000.86 89.8629C1001.32 90.054 1001.8 90.1495 1002.29 90.1495C1002.99 90.1495 1003.55 89.9704 1003.97 89.612C1004.39 89.2477 1004.6 88.737 1004.6 88.08C1004.6 87.5903 1004.51 87.1991 1004.33 86.9064C1004.14 86.6078 1003.88 86.3928 1003.54 86.2614C1003.2 86.124 1002.81 86.0553 1002.35 86.0553H1001.24L1001.52 84.371H1002.3C1002.68 84.371 1003.02 84.3053 1003.32 84.1739C1003.63 84.0425 1003.88 83.8424 1004.06 83.5737C1004.24 83.3049 1004.33 82.9675 1004.33 82.5613C1004.33 82.0238 1004.15 81.6057 1003.77 81.3071C1003.39 81.0025 1002.92 80.8502 1002.35 80.8502C1001.84 80.8502 1001.38 80.9457 1000.98 81.1368C1000.58 81.328 1000.2 81.5997 999.819 81.9521L998.592 80.6531C999.141 80.1215 999.747 79.7243 1000.41 79.4615C1001.08 79.1987 1001.8 79.0673 1002.58 79.0673ZM1013.84 88.295C1014.35 88.295 1014.77 88.4653 1015.1 88.8057C1015.45 89.1461 1015.62 89.5642 1015.62 90.06C1015.62 90.3646 1015.56 90.6721 1015.46 90.9827C1015.36 91.2873 1015.21 91.6785 1015 92.1563L1013.64 95.2203H1011.94L1012.84 91.5113C1012.6 91.35 1012.41 91.141 1012.28 90.8842C1012.15 90.6274 1012.09 90.3496 1012.09 90.051C1012.09 89.5553 1012.25 89.1402 1012.59 88.8057C1012.92 88.4653 1013.34 88.295 1013.84 88.295ZM1034.43 79.0673L1036.44 79.8288L1033.38 87.1841H1039.71V88.9849H1030.92V87.3723L1034.43 79.0673ZM1038.35 84.0127V91.7263H1036.07L1036.05 87.4708L1036.35 84.0127H1038.35ZM1047.09 85.4551C1047.09 84.6428 1047.01 83.9022 1046.87 83.2332C1046.73 82.5583 1046.52 81.9222 1046.23 81.325C1045.94 80.7217 1045.57 80.1275 1045.12 79.5422C1044.68 78.9568 1044.14 78.3506 1043.53 77.7235L1044.87 76.4692C1045.83 77.2755 1046.65 78.1177 1047.34 78.9957C1048.03 79.8677 1048.56 80.8322 1048.93 81.8894C1049.31 82.9406 1049.5 84.1291 1049.5 85.4551C1049.5 86.781 1049.31 87.9695 1048.93 89.0207C1048.56 90.0719 1048.03 91.0365 1047.34 91.9145C1046.65 92.7924 1045.83 93.6346 1044.87 94.4409L1043.53 93.1866C1044.17 92.5296 1044.72 91.9085 1045.17 91.3232C1045.62 90.7378 1045.99 90.1495 1046.27 89.5583C1046.55 88.961 1046.76 88.3309 1046.89 87.6679C1047.02 86.999 1047.09 86.2614 1047.09 85.4551Z" fill="black"/>
<path d="M942.056 91.6442L929.553 94.9449L938.663 104.122L942.056 91.6442ZM840.521 192.432L841.31 193.227L935.692 99.5394L934.903 98.7446L934.114 97.9499L839.732 191.638L840.521 192.432Z" fill="#C90000"/>
<path d="M741.126 270.336C741.654 270.258 742.19 270.336 742.733 270.569C743.153 270.755 743.471 271.019 743.689 271.361L743.782 271.478L743.875 271.338C744.263 270.872 744.737 270.553 745.296 270.383C745.98 270.196 746.601 270.32 747.16 270.755C747.269 270.833 747.362 270.918 747.44 271.012C747.626 271.229 747.75 271.485 747.812 271.781C747.968 272.293 747.929 272.798 747.696 273.295C747.447 273.823 747.028 274.118 746.438 274.18C745.941 274.227 745.599 274.048 745.413 273.644C745.366 273.567 745.335 273.442 745.319 273.272C745.319 273.008 745.374 272.767 745.483 272.549C745.607 272.27 745.832 272.045 746.158 271.874C746.298 271.812 746.368 271.765 746.368 271.734C746.306 271.641 746.197 271.555 746.042 271.478C745.964 271.447 745.848 271.431 745.692 271.431C745.537 271.431 745.42 271.447 745.343 271.478C744.954 271.695 744.652 272.107 744.434 272.712L743.083 278.094C742.974 278.576 742.951 278.933 743.013 279.166C743.137 279.586 743.471 279.787 744.015 279.772C744.201 279.756 744.38 279.718 744.551 279.655C745.172 279.422 745.685 278.887 746.088 278.048C746.197 277.83 746.283 277.613 746.345 277.395C746.407 277.194 746.477 277.085 746.554 277.069C746.601 277.054 746.764 277.046 747.044 277.046C747.385 277.046 747.572 277.062 747.603 277.093C747.68 277.155 747.688 277.287 747.626 277.489C747.502 278.001 747.284 278.475 746.974 278.91C746.166 280.09 745.18 280.743 744.015 280.867C743.984 280.867 743.953 280.867 743.922 280.867C743.021 280.914 742.298 280.618 741.755 279.982C741.724 279.966 741.7 279.943 741.685 279.912C741.592 279.803 741.537 279.741 741.522 279.725L741.382 279.888C741.165 280.137 740.947 280.323 740.73 280.448C740.264 280.743 739.805 280.883 739.355 280.867C739.06 280.851 738.765 280.774 738.47 280.634C737.973 280.401 737.646 279.982 737.491 279.376C737.32 278.599 737.46 277.955 737.91 277.442C738.345 277.023 738.819 276.891 739.332 277.046C739.518 277.108 739.666 277.201 739.774 277.326C740.07 277.652 740.085 278.087 739.821 278.63C739.681 278.925 739.464 279.151 739.169 279.306C739.029 279.384 738.951 279.422 738.936 279.422C738.936 279.485 739.052 279.578 739.285 279.702C739.347 279.733 739.456 279.749 739.611 279.749C739.767 279.749 739.883 279.733 739.961 279.702C740.349 279.5 740.644 279.096 740.846 278.491L742.244 272.992C742.275 272.837 742.291 272.619 742.291 272.34C742.291 272.122 742.275 271.975 742.244 271.897C742.058 271.493 741.662 271.346 741.056 271.454C740.481 271.563 739.969 271.951 739.518 272.619C739.254 273.039 739.06 273.474 738.936 273.924C738.889 274.017 738.858 274.072 738.842 274.087C738.811 274.118 738.625 274.134 738.283 274.134H737.771L737.701 274.064C737.654 274.017 737.631 273.955 737.631 273.877C737.693 273.474 737.91 272.984 738.283 272.41C738.299 272.379 738.314 272.347 738.33 272.316C739.013 271.245 739.891 270.592 740.963 270.359C741.025 270.359 741.079 270.352 741.126 270.336Z" fill="black"/>
<path d="M1036.12 187.489C1036.23 187.458 1036.4 187.442 1036.63 187.442C1036.99 187.458 1037.3 187.536 1037.56 187.675C1037.76 187.784 1037.92 187.901 1038.03 188.025C1038.15 188.134 1038.27 188.289 1038.38 188.491C1038.52 188.786 1038.58 189.097 1038.56 189.423C1038.56 189.733 1038.46 190.161 1038.26 190.704C1038.25 190.782 1038.22 190.875 1038.17 190.984C1037.41 193.096 1037.03 194.541 1037.03 195.317C1037.03 195.38 1037.03 195.434 1037.03 195.481C1037.04 196.009 1037.17 196.397 1037.4 196.645C1037.57 196.801 1037.8 196.878 1038.1 196.878C1038.41 196.878 1038.68 196.816 1038.91 196.692C1039.32 196.49 1039.67 196.164 1039.96 195.713L1040.1 195.481L1040.96 192.032C1041.57 189.625 1041.92 188.351 1042.01 188.211C1042.03 188.18 1042.07 188.134 1042.13 188.072C1042.47 187.73 1042.86 187.613 1043.29 187.722C1043.67 187.846 1043.87 188.087 1043.9 188.444C1043.9 188.553 1043.51 190.176 1042.74 193.314C1041.97 196.358 1041.55 198.02 1041.45 198.3C1041.3 198.812 1041.06 199.294 1040.73 199.744C1040.62 199.931 1040.5 200.109 1040.36 200.28C1040.05 200.668 1039.71 201.002 1039.36 201.282C1038.69 201.841 1037.97 202.206 1037.21 202.377C1036.93 202.455 1036.58 202.493 1036.17 202.493C1035.84 202.493 1035.6 202.478 1035.44 202.447C1034.4 202.214 1033.81 201.655 1033.67 200.769C1033.63 200.381 1033.68 200 1033.84 199.628C1034.08 199.115 1034.5 198.828 1035.09 198.766C1035.59 198.719 1035.93 198.898 1036.12 199.301C1036.17 199.379 1036.2 199.503 1036.21 199.674C1036.23 200.078 1036.08 200.451 1035.77 200.793C1035.63 200.901 1035.52 200.979 1035.44 201.026C1035.38 201.057 1035.34 201.08 1035.33 201.095L1035.72 201.328C1036.36 201.546 1037 201.422 1037.66 200.956C1038.46 200.35 1039.08 199.34 1039.5 197.927C1039.53 197.756 1039.56 197.64 1039.59 197.577V197.484L1039.4 197.577C1038.66 198.012 1037.83 198.113 1036.93 197.88C1035.91 197.632 1035.28 196.964 1035.05 195.877C1034.98 195.473 1034.98 194.991 1035.05 194.432C1035.06 194.385 1035.07 194.347 1035.07 194.316C1035.19 193.539 1035.56 192.351 1036.17 190.751C1036.44 189.928 1036.6 189.4 1036.63 189.167C1036.71 188.809 1036.67 188.607 1036.51 188.561C1036.33 188.499 1036.11 188.537 1035.86 188.677C1035.54 188.879 1035.28 189.198 1035.09 189.633C1034.94 189.912 1034.77 190.386 1034.58 191.054C1034.53 191.147 1034.5 191.201 1034.49 191.217C1034.46 191.248 1034.27 191.263 1033.93 191.263H1033.42L1033.35 191.194C1033.3 191.147 1033.28 191.085 1033.28 191.007C1033.31 190.759 1033.44 190.37 1033.67 189.842C1033.86 189.438 1034.05 189.104 1034.25 188.84C1034.46 188.561 1034.71 188.281 1035.02 188.002C1035.37 187.738 1035.73 187.567 1036.12 187.489Z" fill="black"/>
<path d="M839.487 21.7253L839.906 21.702H839.929C840.38 21.7175 840.83 21.9583 841.281 22.4242C841.343 22.4864 841.413 22.5563 841.49 22.6339C841.817 22.9446 842.088 23.1154 842.306 23.1465C842.399 23.1776 842.461 23.1776 842.492 23.1465C842.601 23.1154 842.888 22.696 843.354 21.8884C843.416 21.7641 843.533 21.702 843.704 21.702C843.766 21.702 843.875 21.702 844.03 21.702H844.519L844.589 21.7719C844.667 21.8495 844.643 21.9971 844.519 22.2145C844.504 22.2611 844.473 22.3233 844.426 22.4009C844.162 22.8669 843.82 23.3562 843.401 23.8687C842.733 24.7075 841.809 25.7171 840.628 26.8976C839.479 28.0159 838.671 28.8469 838.205 29.3905L837.949 29.6701L838.019 29.6934C838.361 29.709 838.772 29.7866 839.254 29.9264C839.922 30.0817 840.411 30.1594 840.721 30.1594C840.986 30.1594 841.164 30.1439 841.257 30.1128C842.018 29.9109 842.539 29.4993 842.818 28.878C842.834 28.8314 842.849 28.7848 842.865 28.7382C842.927 28.5673 843.013 28.4741 843.121 28.4586C843.183 28.4431 843.331 28.4353 843.564 28.4353C843.875 28.4353 844.053 28.4508 844.1 28.4819C844.177 28.544 844.209 28.6372 844.193 28.7615C844.084 29.2585 843.859 29.7633 843.517 30.2759C843.145 30.8351 842.733 31.27 842.282 31.5806C841.925 31.8291 841.591 32 841.281 32.0932C840.644 32.3106 840.116 32.3106 839.696 32.0932C839.494 32 839.23 31.7981 838.904 31.4874C838.578 31.1612 838.306 30.9438 838.089 30.8351C837.887 30.7729 837.669 30.7729 837.436 30.8351C837.048 30.9749 836.675 31.3476 836.318 31.9534C836.256 32.0777 836.194 32.1709 836.132 32.233C836.101 32.2485 835.914 32.2563 835.572 32.2563H835.083L835.013 32.1864C834.936 32.1087 834.967 31.9379 835.106 31.6738C835.122 31.6428 835.138 31.6117 835.153 31.5806C835.805 30.4933 836.846 29.2119 838.275 27.7363C838.632 27.3791 839.052 26.9597 839.533 26.4782C840.558 25.4531 841.211 24.7774 841.49 24.4512L841.7 24.2182L841.56 24.1716L840.861 24.0085C840.287 23.8687 839.875 23.7911 839.626 23.7756C838.865 23.7445 838.376 23.9464 838.159 24.3813C838.112 24.49 838.081 24.5444 838.065 24.5444C838.019 24.591 837.84 24.6143 837.53 24.6143C837.188 24.6143 836.994 24.5988 836.947 24.5677C836.838 24.49 836.854 24.2726 836.994 23.9153C837.196 23.4028 837.491 22.9679 837.879 22.6106C838.361 22.1291 838.896 21.834 839.487 21.7253Z" fill="black"/>
<path d="M840.521 46.1029L834.055 57.3016L846.987 57.3016L840.521 46.1029ZM840.521 191.686L841.641 191.686L841.641 56.1817L840.521 56.1817L839.401 56.1817L839.401 191.686L840.521 191.686Z" fill="black"/>
<path d="M841.268 191.312C840.649 191.312 840.148 191.814 840.148 192.432C840.148 193.051 840.649 193.552 841.268 193.552V191.312ZM1021.19 192.432L1009.99 185.967V198.898L1021.19 192.432ZM841.268 192.432V193.552H1011.11V192.432V191.312H841.268V192.432Z" fill="black"/>
<path d="M754.664 267.09L767.345 264.558L758.812 254.842L754.664 267.09ZM840.521 191.686L839.782 190.844L761.498 259.598L762.237 260.439L762.976 261.281L841.26 192.527L840.521 191.686Z" fill="black"/>
<path d="M791.993 234.614H942.056" stroke="#202020" stroke-width="1.49316" stroke-linecap="round" stroke-dasharray="4.48 4.48"/>
<line x1="981.614" y1="194.981" x2="943.112" y2="232.758" stroke="#202020" stroke-width="1.49316" stroke-linecap="round" stroke-dasharray="4.48 4.48"/>
<line x1="939.081" y1="233.483" x2="941.297" y2="92.379" stroke="#202020" stroke-width="1.49316" stroke-linecap="round" stroke-dasharray="4.48 4.48"/>
<path d="M830.142 182.543C826.434 178.728 824.534 174.939 824.442 171.175C824.422 167.485 826.32 163.786 830.134 160.078L863.587 127.56C865.641 125.563 866.68 123.697 866.705 121.961C866.874 120.227 866.174 118.553 864.605 116.939L860.862 113.087L862.952 111.055L866.696 114.906C868.265 116.52 869.882 117.303 871.547 117.254C873.283 117.279 875.178 116.293 877.232 114.296L910.684 81.778C914.572 77.9985 918.324 76.2067 921.938 76.4026C925.698 76.6006 929.432 78.6069 933.14 82.4216L935.814 85.1727L933.723 87.205L930.3 83.6837C927.448 80.7493 924.537 79.3696 921.568 79.5446C918.673 79.6483 915.758 81.1264 912.823 83.9788L879.371 116.497C877.904 117.923 876.551 118.953 875.312 119.587C874.146 120.149 873.022 120.386 871.938 120.298C870.854 120.211 869.665 119.868 868.371 119.271L868.811 118.843C869.445 120.082 869.753 121.28 869.737 122.438C869.794 123.524 869.488 124.677 868.82 125.898C868.224 127.047 867.193 128.334 865.726 129.761L832.274 162.279C829.339 165.131 827.779 168.003 827.594 170.894C827.335 173.857 828.631 176.806 831.484 179.74L834.907 183.261L832.816 185.294L830.142 182.543Z" fill="#0037AC"/>
</svg>
