<svg width="1208" height="435" viewBox="0 0 1208 435" fill="none" xmlns="http://www.w3.org/2000/svg">
<rect width="1208" height="434" fill="white"/>
<rect x="342.249" y="398.665" width="25.7725" height="25.7725" rx="5.03368" fill="#0037AC"/>
<path d="M352.232 405.398C352.061 404.981 351.471 404.981 351.301 405.398L351.032 406.052C350.982 406.174 350.982 406.311 351.031 406.433L354.627 415.257C354.762 415.588 354.519 415.95 354.161 415.95H350.582H349.374C349.016 415.95 348.772 415.587 348.908 415.255L349.529 413.744C349.579 413.622 349.579 413.485 349.529 413.363L349.247 412.67C349.077 412.253 348.487 412.252 348.315 412.669L346.625 416.786C346.489 417.117 346.733 417.48 347.091 417.48H356.441C356.8 417.48 357.043 417.117 356.907 416.786L352.232 405.398Z" fill="white"/>
<path d="M355.642 407.845C355.507 407.514 355.751 407.152 356.108 407.152H359.687H360.896C361.254 407.152 361.497 407.515 361.361 407.846L360.741 409.358C360.69 409.48 360.69 409.617 360.74 409.739L361.022 410.432C361.192 410.849 361.783 410.85 361.954 410.433L363.644 406.316C363.78 405.985 363.537 405.621 363.179 405.621H353.828C353.47 405.621 353.226 405.985 353.362 406.316L358.038 417.704C358.209 418.121 358.798 418.121 358.969 417.704L359.238 417.049C359.288 416.927 359.288 416.791 359.238 416.668L355.642 407.845Z" fill="white"/>
<path d="M383.916 413.027H380.268L379.558 415.484H377.811L381.06 405.273H383.191L386.446 415.484H384.626L383.916 413.027ZM380.623 411.703H383.553L382.095 406.605L380.623 411.703ZM389.533 407.67V413.131C389.533 413.594 389.624 413.925 389.807 414.122C389.994 414.319 390.275 414.418 390.65 414.418C391.005 414.418 391.348 414.312 391.679 414.1C392.009 413.888 392.271 413.629 392.463 413.323V407.67H394.12V415.484H392.692L392.589 414.485C392.298 414.874 391.93 415.173 391.486 415.38C391.042 415.582 390.589 415.683 390.125 415.683C389.37 415.683 388.806 415.476 388.431 415.062C388.061 414.643 387.876 414.068 387.876 413.338V407.67H389.533ZM403.275 415.069C402.989 415.252 402.646 415.4 402.246 415.513C401.847 415.627 401.43 415.683 400.996 415.683C400.088 415.683 399.398 415.449 398.924 414.98C398.455 414.507 398.221 413.885 398.221 413.116V408.876H396.482V407.67H398.221V405.924L399.878 405.724V407.67H402.513L402.328 408.876H399.878V413.101C399.878 413.52 399.982 413.834 400.189 414.041C400.401 414.243 400.747 414.344 401.225 414.344C401.511 414.344 401.775 414.31 402.017 414.24C402.258 414.171 402.478 414.083 402.675 413.974L403.275 415.069ZM408.751 407.463C409.516 407.463 410.16 407.633 410.683 407.974C411.205 408.314 411.6 408.79 411.866 409.402C412.138 410.013 412.273 410.733 412.273 411.562C412.273 412.386 412.135 413.108 411.859 413.73C411.588 414.347 411.188 414.827 410.66 415.173C410.138 415.513 409.499 415.683 408.744 415.683C407.989 415.683 407.348 415.518 406.82 415.188C406.297 414.852 405.898 414.376 405.622 413.76C405.35 413.143 405.215 412.415 405.215 411.577C405.215 410.763 405.35 410.048 405.622 409.431C405.898 408.815 406.3 408.334 406.828 407.988C407.356 407.638 407.997 407.463 408.751 407.463ZM408.751 408.75C408.155 408.75 407.706 408.98 407.405 409.439C407.104 409.892 406.954 410.605 406.954 411.577C406.954 412.544 407.102 413.256 407.397 413.715C407.698 414.174 408.147 414.403 408.744 414.403C409.341 414.403 409.787 414.174 410.083 413.715C410.384 413.256 410.535 412.539 410.535 411.562C410.535 410.6 410.387 409.892 410.091 409.439C409.795 408.98 409.348 408.75 408.751 408.75ZM414.569 415.484V414.3H415.716V408.847H414.569V407.67H416.981L417.284 409.483C417.575 408.827 417.935 408.329 418.364 407.988C418.798 407.643 419.356 407.47 420.037 407.47C420.268 407.47 420.476 407.49 420.658 407.53C420.846 407.564 421.031 407.611 421.213 407.67L420.717 409.091C420.559 409.046 420.411 409.014 420.273 408.995C420.135 408.97 419.982 408.958 419.815 408.958C419.247 408.958 418.757 409.17 418.342 409.594C417.933 410.018 417.61 410.62 417.373 411.399V414.3H418.949V415.484H414.569ZM419.748 410.548V408.625L419.955 407.67H421.213L420.932 410.548H419.748ZM425.151 414.344C425.151 413.984 425.279 413.676 425.536 413.419C425.792 413.158 426.108 413.027 426.483 413.027C426.863 413.027 427.178 413.158 427.43 413.419C427.686 413.676 427.815 413.984 427.815 414.344C427.815 414.714 427.686 415.03 427.43 415.291C427.178 415.553 426.863 415.683 426.483 415.683C426.108 415.683 425.792 415.553 425.536 415.291C425.279 415.03 425.151 414.714 425.151 414.344ZM425.151 409.091C425.151 408.849 425.21 408.627 425.328 408.425C425.447 408.223 425.607 408.062 425.809 407.944C426.012 407.826 426.236 407.766 426.483 407.766C426.863 407.766 427.178 407.897 427.43 408.159C427.686 408.415 427.815 408.726 427.815 409.091C427.815 409.456 427.686 409.771 427.43 410.038C427.178 410.299 426.863 410.43 426.483 410.43C426.108 410.43 425.792 410.299 425.536 410.038C425.279 409.771 425.151 409.456 425.151 409.091ZM447.595 405.229V411.791C447.595 412.388 447.504 412.928 447.322 413.412C447.139 413.895 446.87 414.307 446.515 414.647C446.165 414.988 445.733 415.249 445.22 415.432C444.712 415.614 444.13 415.705 443.474 415.705C442.813 415.705 442.241 415.622 441.757 415.454C441.279 415.281 440.818 415.045 440.374 414.744L441.299 413.249C441.649 413.491 441.977 413.661 442.283 413.76C442.589 413.853 442.936 413.9 443.326 413.9C443.854 413.9 444.293 413.732 444.643 413.397C444.998 413.057 445.176 412.531 445.176 411.821V407.004H442.024V405.229H447.595ZM453.109 407.367C453.918 407.367 454.606 407.539 455.173 407.885C455.741 408.23 456.175 408.716 456.476 409.342C456.777 409.964 456.927 410.694 456.927 411.532C456.927 412.406 456.774 413.158 456.468 413.789C456.167 414.416 455.733 414.897 455.166 415.232C454.599 415.567 453.913 415.735 453.109 415.735C452.31 415.735 451.624 415.57 451.052 415.239C450.485 414.909 450.048 414.43 449.743 413.804C449.442 413.178 449.291 412.425 449.291 411.547C449.291 410.714 449.442 409.984 449.743 409.357C450.048 408.731 450.485 408.242 451.052 407.892C451.624 407.542 452.31 407.367 453.109 407.367ZM453.109 409.091C452.631 409.091 452.276 409.288 452.044 409.683C451.817 410.072 451.703 410.694 451.703 411.547C451.703 412.415 451.817 413.044 452.044 413.434C452.276 413.824 452.631 414.019 453.109 414.019C453.588 414.019 453.94 413.824 454.167 413.434C454.399 413.044 454.515 412.41 454.515 411.532C454.515 410.684 454.399 410.065 454.167 409.675C453.94 409.286 453.588 409.091 453.109 409.091ZM461.731 414.063C462.12 414.063 462.433 414.001 462.67 413.878C462.912 413.755 463.033 413.57 463.033 413.323C463.033 413.155 462.986 413.015 462.892 412.901C462.799 412.788 462.618 412.679 462.352 412.576C462.086 412.472 461.691 412.349 461.168 412.206C460.69 412.078 460.266 411.915 459.896 411.717C459.531 411.52 459.245 411.266 459.037 410.955C458.835 410.645 458.734 410.257 458.734 409.794C458.734 409.325 458.865 408.908 459.126 408.543C459.388 408.178 459.772 407.892 460.28 407.685C460.788 407.473 461.41 407.367 462.145 407.367C462.845 407.367 463.455 407.458 463.972 407.641C464.495 407.818 464.947 408.045 465.326 408.321L464.394 409.698C464.069 409.495 463.718 409.335 463.344 409.217C462.969 409.093 462.591 409.032 462.212 409.032C461.832 409.032 461.548 409.083 461.361 409.187C461.178 409.286 461.087 409.436 461.087 409.638C461.087 409.771 461.134 409.887 461.227 409.986C461.326 410.08 461.509 410.178 461.775 410.282C462.041 410.381 462.431 410.504 462.944 410.652C463.452 410.795 463.894 410.96 464.268 411.148C464.648 411.335 464.942 411.587 465.149 411.902C465.356 412.213 465.46 412.625 465.46 413.138C465.46 413.71 465.29 414.191 464.949 414.581C464.609 414.966 464.157 415.254 463.595 415.447C463.033 415.639 462.416 415.735 461.745 415.735C460.986 415.735 460.315 415.627 459.733 415.41C459.151 415.192 458.655 414.906 458.246 414.551L459.422 413.234C459.728 413.471 460.073 413.668 460.458 413.826C460.848 413.984 461.272 414.063 461.731 414.063ZM469.479 412.235C469.533 412.665 469.644 413.012 469.812 413.279C469.985 413.54 470.204 413.732 470.47 413.856C470.737 413.974 471.035 414.033 471.366 414.033C471.726 414.033 472.074 413.974 472.409 413.856C472.744 413.737 473.067 413.58 473.378 413.382L474.318 414.655C473.948 414.971 473.499 415.229 472.971 415.432C472.448 415.634 471.852 415.735 471.181 415.735C470.283 415.735 469.531 415.558 468.924 415.202C468.317 414.842 467.861 414.349 467.555 413.723C467.249 413.096 467.096 412.376 467.096 411.562C467.096 410.788 467.244 410.085 467.54 409.453C467.836 408.817 468.268 408.311 468.835 407.937C469.407 407.557 470.105 407.367 470.929 407.367C471.679 407.367 472.328 407.527 472.875 407.848C473.428 408.168 473.854 408.63 474.155 409.231C474.461 409.833 474.614 410.556 474.614 411.399C474.614 411.532 474.609 411.676 474.599 411.828C474.594 411.981 474.584 412.117 474.569 412.235H469.479ZM470.929 408.935C470.51 408.935 470.172 409.086 469.915 409.387C469.659 409.688 469.504 410.169 469.449 410.83H472.335C472.33 410.257 472.219 409.799 472.002 409.453C471.785 409.108 471.427 408.935 470.929 408.935ZM480.675 407.367C481.361 407.367 481.913 407.537 482.333 407.877C482.752 408.218 483.058 408.699 483.25 409.32C483.447 409.942 483.546 410.679 483.546 411.532C483.546 412.341 483.428 413.064 483.191 413.7C482.954 414.332 482.611 414.83 482.162 415.195C481.714 415.555 481.169 415.735 480.527 415.735C479.763 415.735 479.141 415.461 478.663 414.914V418.517L476.325 418.761V407.626H478.396L478.5 408.506C478.821 408.097 479.171 407.806 479.551 407.633C479.93 407.456 480.305 407.367 480.675 407.367ZM479.95 409.091C479.679 409.091 479.44 409.172 479.232 409.335C479.025 409.498 478.835 409.72 478.663 410.001V413.316C478.825 413.557 478.996 413.735 479.173 413.848C479.356 413.962 479.57 414.019 479.817 414.019C480.231 414.019 480.554 413.831 480.786 413.456C481.018 413.076 481.134 412.445 481.134 411.562C481.134 410.911 481.087 410.408 480.993 410.053C480.9 409.693 480.764 409.443 480.586 409.305C480.409 409.162 480.197 409.091 479.95 409.091ZM487.536 404.274V408.403C487.866 408.052 488.224 407.794 488.609 407.626C488.998 407.453 489.41 407.367 489.844 407.367C490.545 407.367 491.08 407.572 491.45 407.981C491.82 408.39 492.005 408.967 492.005 409.712V415.484H489.667V410.363C489.667 409.89 489.612 409.559 489.504 409.372C489.4 409.185 489.203 409.091 488.912 409.091C488.749 409.091 488.589 409.13 488.431 409.209C488.278 409.283 488.128 409.392 487.98 409.535C487.832 409.678 487.684 409.848 487.536 410.045V415.484H485.198V404.503L487.536 404.274ZM510.313 412.487C510.313 413.123 510.145 413.686 509.81 414.174C509.479 414.662 509.003 415.045 508.382 415.321C507.76 415.597 507.013 415.735 506.14 415.735C505.173 415.735 504.362 415.595 503.706 415.313C503.055 415.027 502.515 414.675 502.085 414.255L503.314 412.894C503.693 413.224 504.113 413.481 504.571 413.663C505.03 413.841 505.533 413.93 506.081 413.93C506.421 413.93 506.72 413.88 506.976 413.782C507.233 413.683 507.432 413.54 507.575 413.353C507.718 413.165 507.79 412.938 507.79 412.672C507.79 412.42 507.733 412.208 507.62 412.036C507.506 411.863 507.314 411.708 507.043 411.569C506.776 411.431 506.404 411.291 505.925 411.148C505.126 410.901 504.483 410.63 503.994 410.334C503.511 410.038 503.158 409.695 502.936 409.305C502.719 408.916 502.611 408.462 502.611 407.944C502.611 407.317 502.783 406.782 503.129 406.338C503.479 405.894 503.947 405.557 504.534 405.325C505.121 405.088 505.768 404.97 506.473 404.97C507.267 404.97 507.968 405.085 508.574 405.317C509.181 405.544 509.706 405.87 510.15 406.294L509.003 407.611C508.658 407.32 508.286 407.105 507.886 406.967C507.487 406.824 507.08 406.753 506.665 406.753C506.36 406.753 506.091 406.792 505.859 406.871C505.627 406.945 505.447 407.056 505.319 407.204C505.19 407.352 505.126 407.537 505.126 407.759C505.126 407.976 505.188 408.159 505.311 408.306C505.435 408.454 505.649 408.595 505.955 408.728C506.261 408.856 506.685 409.007 507.228 409.18C507.874 409.377 508.426 409.614 508.885 409.89C509.349 410.161 509.701 410.504 509.943 410.918C510.19 411.333 510.313 411.856 510.313 412.487ZM518.431 413.219C518.431 413.515 518.471 413.73 518.55 413.863C518.634 413.996 518.767 414.097 518.949 414.166L518.468 415.705C518.005 415.661 517.613 415.56 517.292 415.402C516.976 415.239 516.727 414.995 516.545 414.67C516.244 415.03 515.859 415.299 515.39 415.476C514.922 415.649 514.443 415.735 513.955 415.735C513.146 415.735 512.5 415.506 512.016 415.047C511.538 414.583 511.299 413.989 511.299 413.264C511.299 412.41 511.632 411.752 512.298 411.288C512.968 410.825 513.911 410.593 515.124 410.593H516.182V410.297C516.182 409.887 516.049 409.584 515.783 409.387C515.521 409.189 515.136 409.091 514.628 409.091C514.377 409.091 514.054 409.128 513.659 409.202C513.264 409.271 512.87 409.372 512.475 409.505L511.935 407.951C512.443 407.759 512.971 407.613 513.518 407.515C514.071 407.416 514.564 407.367 514.998 407.367C516.167 407.367 517.03 407.606 517.588 408.085C518.15 408.558 518.431 409.244 518.431 410.141V413.219ZM514.761 414.063C515.013 414.063 515.277 413.989 515.553 413.841C515.829 413.688 516.039 413.473 516.182 413.197V411.925H515.605C514.954 411.925 514.475 412.026 514.17 412.228C513.864 412.425 513.711 412.716 513.711 413.101C513.711 413.402 513.802 413.639 513.985 413.811C514.172 413.979 514.431 414.063 514.761 414.063ZM520.69 415.484V407.626H522.732L522.895 408.536C523.245 408.141 523.615 407.848 524.004 407.655C524.394 407.463 524.838 407.367 525.336 407.367C526.007 407.367 526.535 407.572 526.92 407.981C527.304 408.39 527.497 408.967 527.497 409.712V415.484H525.159V410.386C525.159 410.065 525.136 409.811 525.092 409.624C525.048 409.431 524.969 409.295 524.855 409.217C524.747 409.133 524.596 409.091 524.404 409.091C524.241 409.091 524.081 409.128 523.923 409.202C523.77 409.271 523.62 409.372 523.472 409.505C523.324 409.638 523.176 409.799 523.028 409.986V415.484H520.69ZM536.636 415.025C536.33 415.222 535.96 415.39 535.526 415.528C535.092 415.666 534.604 415.735 534.061 415.735C533.035 415.735 532.273 415.474 531.775 414.951C531.277 414.423 531.028 413.708 531.028 412.805V409.239H529.378V407.626H531.028V405.924L533.366 405.643V407.626H535.896L535.667 409.239H533.366V412.805C533.366 413.195 533.455 413.473 533.632 413.641C533.81 413.809 534.093 413.893 534.483 413.893C534.759 413.893 535.011 413.861 535.238 413.797C535.47 413.727 535.677 413.641 535.859 413.538L536.636 415.025ZM543.238 407.626V413.885H545.235V415.484H538.672V413.885H540.9V409.224H538.746V407.626H543.238ZM541.824 403.512C542.229 403.512 542.559 403.638 542.816 403.889C543.072 404.141 543.201 404.454 543.201 404.829C543.201 405.204 543.072 405.52 542.816 405.776C542.559 406.028 542.229 406.153 541.824 406.153C541.415 406.153 541.08 406.028 540.818 405.776C540.562 405.52 540.433 405.204 540.433 404.829C540.433 404.454 540.562 404.141 540.818 403.889C541.08 403.638 541.415 403.512 541.824 403.512ZM553.923 413.219C553.923 413.515 553.963 413.73 554.042 413.863C554.126 413.996 554.259 414.097 554.441 414.166L553.96 415.705C553.497 415.661 553.105 415.56 552.784 415.402C552.468 415.239 552.219 414.995 552.037 414.67C551.736 415.03 551.351 415.299 550.882 415.476C550.414 415.649 549.935 415.735 549.447 415.735C548.638 415.735 547.992 415.506 547.508 415.047C547.03 414.583 546.791 413.989 546.791 413.264C546.791 412.41 547.124 411.752 547.79 411.288C548.46 410.825 549.403 410.593 550.616 410.593H551.674V410.297C551.674 409.887 551.541 409.584 551.275 409.387C551.013 409.189 550.628 409.091 550.12 409.091C549.869 409.091 549.546 409.128 549.151 409.202C548.756 409.271 548.362 409.372 547.967 409.505L547.427 407.951C547.935 407.759 548.463 407.613 549.01 407.515C549.563 407.416 550.056 407.367 550.49 407.367C551.659 407.367 552.523 407.606 553.08 408.085C553.642 408.558 553.923 409.244 553.923 410.141V413.219ZM550.254 414.063C550.505 414.063 550.769 413.989 551.045 413.841C551.321 413.688 551.531 413.473 551.674 413.197V411.925H551.097C550.446 411.925 549.967 412.026 549.662 412.228C549.356 412.425 549.203 412.716 549.203 413.101C549.203 413.402 549.294 413.639 549.477 413.811C549.664 413.979 549.923 414.063 550.254 414.063ZM563.159 406.368L563.706 408.085C563.43 408.193 563.107 408.272 562.737 408.321C562.367 408.371 561.936 408.395 561.442 408.395C561.936 408.607 562.311 408.871 562.567 409.187C562.828 409.498 562.959 409.907 562.959 410.415C562.959 410.923 562.824 411.377 562.552 411.777C562.281 412.171 561.896 412.482 561.398 412.709C560.9 412.936 560.31 413.049 559.63 413.049C559.462 413.049 559.304 413.042 559.156 413.027C559.008 413.012 558.863 412.99 558.72 412.96C558.636 413.005 558.572 413.069 558.527 413.153C558.483 413.237 558.461 413.323 558.461 413.412C558.461 413.535 558.51 413.646 558.609 413.745C558.712 413.843 558.951 413.893 559.326 413.893H560.614C561.225 413.893 561.753 413.991 562.197 414.189C562.646 414.386 562.994 414.655 563.24 414.995C563.487 415.336 563.61 415.725 563.61 416.164C563.61 416.968 563.258 417.602 562.552 418.066C561.847 418.529 560.799 418.761 559.408 418.761C558.401 418.761 557.622 418.658 557.07 418.451C556.522 418.248 556.14 417.957 555.923 417.577C555.711 417.203 555.605 416.756 555.605 416.238H557.676C557.676 416.465 557.721 416.65 557.809 416.793C557.903 416.941 558.078 417.05 558.335 417.119C558.596 417.188 558.974 417.222 559.467 417.222C559.965 417.222 560.345 417.183 560.606 417.104C560.868 417.025 561.045 416.916 561.139 416.778C561.238 416.645 561.287 416.495 561.287 416.327C561.287 416.095 561.196 415.908 561.013 415.765C560.831 415.622 560.542 415.55 560.148 415.55H558.897C558.049 415.55 557.432 415.395 557.047 415.084C556.663 414.768 556.47 414.401 556.47 413.982C556.47 413.69 556.547 413.414 556.7 413.153C556.857 412.891 557.077 412.672 557.358 412.494C556.855 412.228 556.495 411.915 556.278 411.555C556.061 411.19 555.952 410.753 555.952 410.245C555.952 409.653 556.103 409.145 556.404 408.721C556.705 408.292 557.119 407.961 557.647 407.729C558.179 407.498 558.786 407.382 559.467 407.382C560.054 407.391 560.564 407.352 560.998 407.263C561.433 407.17 561.822 407.044 562.168 406.886C562.513 406.723 562.843 406.55 563.159 406.368ZM559.526 408.898C559.156 408.898 558.863 409.017 558.646 409.254C558.429 409.485 558.32 409.806 558.32 410.215C558.32 410.65 558.431 410.982 558.653 411.214C558.875 411.446 559.166 411.562 559.526 411.562C559.916 411.562 560.212 411.446 560.414 411.214C560.621 410.982 560.725 410.64 560.725 410.186C560.725 409.747 560.624 409.424 560.421 409.217C560.219 409.004 559.921 408.898 559.526 408.898ZM568.458 407.367C569.267 407.367 569.955 407.539 570.523 407.885C571.09 408.23 571.524 408.716 571.825 409.342C572.126 409.964 572.276 410.694 572.276 411.532C572.276 412.406 572.123 413.158 571.817 413.789C571.517 414.416 571.082 414.897 570.515 415.232C569.948 415.567 569.262 415.735 568.458 415.735C567.659 415.735 566.974 415.57 566.401 415.239C565.834 414.909 565.398 414.43 565.092 413.804C564.791 413.178 564.64 412.425 564.64 411.547C564.64 410.714 564.791 409.984 565.092 409.357C565.398 408.731 565.834 408.242 566.401 407.892C566.974 407.542 567.659 407.367 568.458 407.367ZM568.458 409.091C567.98 409.091 567.625 409.288 567.393 409.683C567.166 410.072 567.052 410.694 567.052 411.547C567.052 412.415 567.166 413.044 567.393 413.434C567.625 413.824 567.98 414.019 568.458 414.019C568.937 414.019 569.289 413.824 569.516 413.434C569.748 413.044 569.864 412.41 569.864 411.532C569.864 410.684 569.748 410.065 569.516 409.675C569.289 409.286 568.937 409.091 568.458 409.091ZM587.795 408.573C587.795 408.208 587.726 407.907 587.588 407.67C587.455 407.428 587.25 407.251 586.974 407.137C586.702 407.019 586.36 406.96 585.945 406.96H585.117V410.312H586.071C586.431 410.312 586.739 410.25 586.996 410.127C587.252 410.003 587.45 409.813 587.588 409.557C587.726 409.3 587.795 408.972 587.795 408.573ZM590.296 408.565C590.296 409.36 590.126 410.016 589.785 410.534C589.445 411.052 588.969 411.439 588.357 411.695C587.746 411.947 587.035 412.073 586.226 412.073H585.117V415.484H582.69V405.229H585.916C587.307 405.229 588.385 405.505 589.149 406.057C589.914 406.61 590.296 407.446 590.296 408.565ZM595.077 407.367C595.886 407.367 596.574 407.539 597.142 407.885C597.709 408.23 598.143 408.716 598.444 409.342C598.745 409.964 598.895 410.694 598.895 411.532C598.895 412.406 598.742 413.158 598.436 413.789C598.136 414.416 597.701 414.897 597.134 415.232C596.567 415.567 595.881 415.735 595.077 415.735C594.278 415.735 593.593 415.57 593.02 415.239C592.453 414.909 592.017 414.43 591.711 413.804C591.41 413.178 591.259 412.425 591.259 411.547C591.259 410.714 591.41 409.984 591.711 409.357C592.017 408.731 592.453 408.242 593.02 407.892C593.593 407.542 594.278 407.367 595.077 407.367ZM595.077 409.091C594.599 409.091 594.244 409.288 594.012 409.683C593.785 410.072 593.671 410.694 593.671 411.547C593.671 412.415 593.785 413.044 594.012 413.434C594.244 413.824 594.599 414.019 595.077 414.019C595.556 414.019 595.908 413.824 596.135 413.434C596.367 413.044 596.483 412.41 596.483 411.532C596.483 410.684 596.367 410.065 596.135 409.675C595.908 409.286 595.556 409.091 595.077 409.091ZM600.621 415.484V413.915H601.657V409.18H600.621V407.626H603.44L603.869 409.394C604.15 408.718 604.508 408.215 604.942 407.885C605.381 407.554 605.916 407.389 606.547 407.389C606.814 407.389 607.05 407.411 607.258 407.456C607.465 407.495 607.66 407.552 607.842 407.626L607.132 409.557C606.989 409.517 606.846 409.488 606.703 409.468C606.56 409.448 606.402 409.439 606.229 409.439C605.716 409.439 605.265 409.648 604.875 410.067C604.49 410.487 604.197 411.019 603.995 411.666V413.915H605.548V415.484H600.621ZM605.941 410.911V408.617L606.288 407.626H607.842L607.406 410.911H605.941ZM616.493 415.025C616.187 415.222 615.817 415.39 615.383 415.528C614.949 415.666 614.461 415.735 613.918 415.735C612.892 415.735 612.13 415.474 611.632 414.951C611.134 414.423 610.885 413.708 610.885 412.805V409.239H609.235V407.626H610.885V405.924L613.223 405.643V407.626H615.753L615.524 409.239H613.223V412.805C613.223 413.195 613.312 413.473 613.489 413.641C613.667 413.809 613.95 413.893 614.34 413.893C614.616 413.893 614.868 413.861 615.095 413.797C615.327 413.727 615.534 413.641 615.716 413.538L616.493 415.025ZM623.095 407.626V413.885H625.092V415.484H618.53V413.885H620.757V409.224H618.604V407.626H623.095ZM621.682 403.512C622.086 403.512 622.416 403.638 622.673 403.889C622.929 404.141 623.058 404.454 623.058 404.829C623.058 405.204 622.929 405.52 622.673 405.776C622.416 406.028 622.086 406.153 621.682 406.153C621.272 406.153 620.937 406.028 620.675 405.776C620.419 405.52 620.291 405.204 620.291 404.829C620.291 404.454 620.419 404.141 620.675 403.889C620.937 403.638 621.272 403.512 621.682 403.512ZM631.265 404.503V413.012C631.265 413.328 631.354 413.555 631.531 413.693C631.714 413.826 631.963 413.893 632.279 413.893C632.481 413.893 632.676 413.871 632.863 413.826C633.05 413.777 633.226 413.72 633.388 413.656L633.951 415.217C633.684 415.355 633.364 415.476 632.989 415.58C632.614 415.683 632.177 415.735 631.679 415.735C630.732 415.735 630.037 415.464 629.593 414.921C629.149 414.374 628.927 413.641 628.927 412.724V406.102H626.611V404.503H631.265ZM640.138 404.503V413.012C640.138 413.328 640.227 413.555 640.404 413.693C640.587 413.826 640.836 413.893 641.152 413.893C641.354 413.893 641.549 413.871 641.736 413.826C641.923 413.777 642.099 413.72 642.261 413.656L642.824 415.217C642.557 415.355 642.237 415.476 641.862 415.58C641.487 415.683 641.05 415.735 640.552 415.735C639.605 415.735 638.91 415.464 638.466 414.921C638.022 414.374 637.8 413.641 637.8 412.724V406.102H635.484V404.503H640.138ZM651.527 413.219C651.527 413.515 651.566 413.73 651.645 413.863C651.729 413.996 651.862 414.097 652.044 414.166L651.563 415.705C651.1 415.661 650.708 415.56 650.387 415.402C650.071 415.239 649.822 414.995 649.64 414.67C649.339 415.03 648.954 415.299 648.486 415.476C648.017 415.649 647.538 415.735 647.05 415.735C646.241 415.735 645.595 415.506 645.112 415.047C644.633 414.583 644.394 413.989 644.394 413.264C644.394 412.41 644.727 411.752 645.393 411.288C646.064 410.825 647.006 410.593 648.219 410.593H649.277V410.297C649.277 409.887 649.144 409.584 648.878 409.387C648.616 409.189 648.231 409.091 647.723 409.091C647.472 409.091 647.149 409.128 646.754 409.202C646.36 409.271 645.965 409.372 645.57 409.505L645.03 407.951C645.538 407.759 646.066 407.613 646.614 407.515C647.166 407.416 647.659 407.367 648.093 407.367C649.262 407.367 650.126 407.606 650.683 408.085C651.245 408.558 651.527 409.244 651.527 410.141V413.219ZM647.857 414.063C648.108 414.063 648.372 413.989 648.648 413.841C648.925 413.688 649.134 413.473 649.277 413.197V411.925H648.7C648.049 411.925 647.571 412.026 647.265 412.228C646.959 412.425 646.806 412.716 646.806 413.101C646.806 413.402 646.897 413.639 647.08 413.811C647.267 413.979 647.526 414.063 647.857 414.063ZM653.985 411.762V409.942H660.392V411.762H653.985ZM669.665 405.229L670.242 415.484H668.126L668 411.096C667.99 410.687 667.985 410.321 667.985 410.001C667.99 409.68 667.997 409.379 668.007 409.098C668.017 408.812 668.032 408.526 668.052 408.24C668.076 407.949 668.101 407.633 668.126 407.293L666.971 413.737H665.137L663.893 407.293C663.923 407.618 663.948 407.927 663.967 408.218C663.992 408.504 664.009 408.792 664.019 409.083C664.029 409.374 664.037 409.688 664.041 410.023C664.046 410.354 664.044 410.724 664.034 411.133L663.96 415.484H661.881L662.458 405.229H664.952L666.091 411.858L667.171 405.229H669.665ZM678.146 413.219C678.146 413.515 678.185 413.73 678.264 413.863C678.348 413.996 678.481 414.097 678.663 414.166L678.183 415.705C677.719 415.661 677.327 415.56 677.006 415.402C676.69 415.239 676.441 414.995 676.259 414.67C675.958 415.03 675.573 415.299 675.105 415.476C674.636 415.649 674.157 415.735 673.669 415.735C672.86 415.735 672.214 415.506 671.731 415.047C671.252 414.583 671.013 413.989 671.013 413.264C671.013 412.41 671.346 411.752 672.012 411.288C672.683 410.825 673.625 410.593 674.838 410.593H675.896V410.297C675.896 409.887 675.763 409.584 675.497 409.387C675.235 409.189 674.851 409.091 674.342 409.091C674.091 409.091 673.768 409.128 673.373 409.202C672.979 409.271 672.584 409.372 672.189 409.505L671.649 407.951C672.157 407.759 672.685 407.613 673.233 407.515C673.785 407.416 674.278 407.367 674.712 407.367C675.881 407.367 676.745 407.606 677.302 408.085C677.864 408.558 678.146 409.244 678.146 410.141V413.219ZM674.476 414.063C674.727 414.063 674.991 413.989 675.267 413.841C675.544 413.688 675.753 413.473 675.896 413.197V411.925H675.319C674.668 411.925 674.19 412.026 673.884 412.228C673.578 412.425 673.425 412.716 673.425 413.101C673.425 413.402 673.516 413.639 673.699 413.811C673.886 413.979 674.145 414.063 674.476 414.063ZM680.478 415.484V413.915H681.514V409.18H680.478V407.626H683.297L683.726 409.394C684.007 408.718 684.365 408.215 684.799 407.885C685.238 407.554 685.773 407.389 686.404 407.389C686.671 407.389 686.908 407.411 687.115 407.456C687.322 407.495 687.517 407.552 687.699 407.626L686.989 409.557C686.846 409.517 686.703 409.488 686.56 409.468C686.417 409.448 686.259 409.439 686.086 409.439C685.573 409.439 685.122 409.648 684.732 410.067C684.348 410.487 684.054 411.019 683.852 411.666V413.915H685.406V415.484H680.478ZM685.798 410.911V408.617L686.145 407.626H687.699L687.263 410.911H685.798ZM696.35 415.025C696.044 415.222 695.675 415.39 695.24 415.528C694.806 415.666 694.318 415.735 693.775 415.735C692.749 415.735 691.987 415.474 691.489 414.951C690.991 414.423 690.742 413.708 690.742 412.805V409.239H689.092V407.626H690.742V405.924L693.08 405.643V407.626H695.61L695.381 409.239H693.08V412.805C693.08 413.195 693.169 413.473 693.346 413.641C693.524 413.809 693.808 413.893 694.197 413.893C694.473 413.893 694.725 413.861 694.952 413.797C695.184 413.727 695.391 413.641 695.573 413.538L696.35 415.025ZM702.952 407.626V413.885H704.95V415.484H698.387V413.885H700.614V409.224H698.461V407.626H702.952ZM702.663 403.127L703.573 404.888L700.081 406.272L699.437 405.088L702.663 403.127ZM707.023 415.484V407.626H709.065L709.228 408.536C709.578 408.141 709.948 407.848 710.338 407.655C710.727 407.463 711.171 407.367 711.669 407.367C712.34 407.367 712.868 407.572 713.253 407.981C713.638 408.39 713.83 408.967 713.83 409.712V415.484H711.492V410.386C711.492 410.065 711.47 409.811 711.425 409.624C711.381 409.431 711.302 409.295 711.189 409.217C711.08 409.133 710.93 409.091 710.737 409.091C710.574 409.091 710.414 409.128 710.256 409.202C710.103 409.271 709.953 409.372 709.805 409.505C709.657 409.638 709.509 409.799 709.361 409.986V415.484H707.023ZM717.923 412.235C717.977 412.665 718.088 413.012 718.256 413.279C718.429 413.54 718.648 413.732 718.915 413.856C719.181 413.974 719.479 414.033 719.81 414.033C720.17 414.033 720.518 413.974 720.853 413.856C721.189 413.737 721.512 413.58 721.822 413.382L722.762 414.655C722.392 414.971 721.943 415.229 721.416 415.432C720.893 415.634 720.296 415.735 719.625 415.735C718.727 415.735 717.975 415.558 717.368 415.202C716.762 414.842 716.305 414.349 715.999 413.723C715.694 413.096 715.541 412.376 715.541 411.562C715.541 410.788 715.689 410.085 715.985 409.453C716.281 408.817 716.712 408.311 717.28 407.937C717.852 407.557 718.55 407.367 719.373 407.367C720.123 407.367 720.772 407.527 721.319 407.848C721.872 408.168 722.299 408.63 722.599 409.231C722.905 409.833 723.058 410.556 723.058 411.399C723.058 411.532 723.053 411.676 723.043 411.828C723.038 411.981 723.029 412.117 723.014 412.235H717.923ZM719.373 408.935C718.954 408.935 718.616 409.086 718.36 409.387C718.103 409.688 717.948 410.169 717.894 410.83H720.779C720.774 410.257 720.663 409.799 720.446 409.453C720.229 409.108 719.872 408.935 719.373 408.935ZM727.558 413.715H731.495L731.273 415.484H724.798V413.834L728.698 409.387H725.124V407.626H731.421V409.268L727.558 413.715ZM746.673 402.165V419.923H745.164V402.165H746.673ZM763.443 405.066C764.182 405.066 764.814 405.174 765.337 405.391C765.86 405.603 766.291 405.902 766.631 406.287C766.977 406.666 767.246 407.115 767.438 407.633C767.63 408.151 767.766 408.713 767.845 409.32C767.924 409.927 767.963 410.556 767.963 411.207C767.963 412.45 767.904 413.491 767.786 414.329C767.667 415.163 767.445 415.789 767.12 416.209C766.799 416.633 766.336 416.845 765.729 416.845C765.433 416.845 765.174 416.778 764.952 416.645C764.735 416.512 764.555 416.339 764.412 416.127C764.274 415.92 764.168 415.696 764.094 415.454C764.025 415.207 763.985 414.975 763.975 414.758H763.916C763.817 414.995 763.682 415.222 763.509 415.439C763.336 415.656 763.117 415.834 762.851 415.972C762.584 416.11 762.259 416.179 761.874 416.179C761.321 416.179 760.878 416.031 760.542 415.735C760.207 415.444 759.963 415.042 759.81 414.529C759.657 414.016 759.58 413.436 759.58 412.79C759.58 411.532 759.837 410.573 760.35 409.912C760.863 409.246 761.605 408.913 762.577 408.913C762.942 408.913 763.302 408.958 763.657 409.046C764.017 409.13 764.404 409.283 764.819 409.505V413.9C764.819 414.369 764.856 414.731 764.93 414.988C765.004 415.244 765.105 415.422 765.233 415.521C765.366 415.619 765.517 415.668 765.684 415.668C765.882 415.668 766.035 415.567 766.143 415.365C766.257 415.163 766.338 414.872 766.387 414.492C766.437 414.107 766.466 413.644 766.476 413.101C766.486 412.558 766.491 411.947 766.491 411.266C766.491 410.536 766.449 409.868 766.365 409.261C766.286 408.649 766.136 408.122 765.914 407.678C765.697 407.234 765.386 406.891 764.982 406.649C764.577 406.407 764.052 406.287 763.406 406.287C762.907 406.287 762.382 406.38 761.83 406.568C761.282 406.755 760.705 407.115 760.098 407.648L759.299 406.723C759.97 406.141 760.648 405.719 761.334 405.458C762.024 405.196 762.727 405.066 763.443 405.066ZM762.599 410.038C762.032 410.038 761.645 410.26 761.437 410.704C761.23 411.143 761.127 411.838 761.127 412.79C761.127 413.264 761.156 413.668 761.215 414.004C761.275 414.339 761.378 414.596 761.526 414.773C761.674 414.951 761.874 415.04 762.126 415.04C762.426 415.04 762.661 414.971 762.828 414.832C762.996 414.694 763.122 414.532 763.206 414.344C763.29 414.152 763.354 413.984 763.398 413.841V410.23C763.265 410.161 763.137 410.112 763.013 410.082C762.89 410.053 762.752 410.038 762.599 410.038ZM775.897 405.229V411.791C775.897 412.388 775.805 412.928 775.623 413.412C775.44 413.895 775.172 414.307 774.816 414.647C774.466 414.988 774.035 415.249 773.522 415.432C773.013 415.614 772.431 415.705 771.775 415.705C771.114 415.705 770.542 415.622 770.059 415.454C769.58 415.281 769.119 415.045 768.675 414.744L769.6 413.249C769.95 413.491 770.278 413.661 770.584 413.76C770.89 413.853 771.238 413.9 771.627 413.9C772.155 413.9 772.594 413.732 772.944 413.397C773.3 413.057 773.477 412.531 773.477 411.821V407.004H770.325V405.229H775.897ZM781.41 407.367C782.219 407.367 782.908 407.539 783.475 407.885C784.042 408.23 784.476 408.716 784.777 409.342C785.078 409.964 785.228 410.694 785.228 411.532C785.228 412.406 785.075 413.158 784.77 413.789C784.469 414.416 784.035 414.897 783.467 415.232C782.9 415.567 782.215 415.735 781.41 415.735C780.611 415.735 779.926 415.57 779.354 415.239C778.786 414.909 778.35 414.43 778.044 413.804C777.743 413.178 777.593 412.425 777.593 411.547C777.593 410.714 777.743 409.984 778.044 409.357C778.35 408.731 778.786 408.242 779.354 407.892C779.926 407.542 780.611 407.367 781.41 407.367ZM781.41 409.091C780.932 409.091 780.577 409.288 780.345 409.683C780.118 410.072 780.005 410.694 780.005 411.547C780.005 412.415 780.118 413.044 780.345 413.434C780.577 413.824 780.932 414.019 781.41 414.019C781.889 414.019 782.242 413.824 782.469 413.434C782.7 413.044 782.816 412.41 782.816 411.532C782.816 410.684 782.7 410.065 782.469 409.675C782.242 409.286 781.889 409.091 781.41 409.091ZM788.907 412.235C788.962 412.665 789.073 413.012 789.24 413.279C789.413 413.54 789.632 413.732 789.899 413.856C790.165 413.974 790.464 414.033 790.794 414.033C791.154 414.033 791.502 413.974 791.837 413.856C792.173 413.737 792.496 413.58 792.807 413.382L793.746 414.655C793.376 414.971 792.927 415.229 792.4 415.432C791.877 415.634 791.28 415.735 790.609 415.735C789.711 415.735 788.959 415.558 788.352 415.202C787.746 414.842 787.289 414.349 786.984 413.723C786.678 413.096 786.525 412.376 786.525 411.562C786.525 410.788 786.673 410.085 786.969 409.453C787.265 408.817 787.696 408.311 788.264 407.937C788.836 407.557 789.534 407.367 790.358 407.367C791.107 407.367 791.756 407.527 792.303 407.848C792.856 408.168 793.283 408.63 793.583 409.231C793.889 409.833 794.042 410.556 794.042 411.399C794.042 411.532 794.037 411.676 794.027 411.828C794.022 411.981 794.013 412.117 793.998 412.235H788.907ZM790.358 408.935C789.938 408.935 789.6 409.086 789.344 409.387C789.087 409.688 788.932 410.169 788.878 410.83H791.763C791.758 410.257 791.647 409.799 791.43 409.453C791.213 409.108 790.856 408.935 790.358 408.935ZM800.747 408.573C800.747 408.208 800.678 407.907 800.54 407.67C800.407 407.428 800.202 407.251 799.926 407.137C799.655 407.019 799.312 406.96 798.898 406.96H798.069V410.312H799.023C799.383 410.312 799.692 410.25 799.948 410.127C800.205 410.003 800.402 409.813 800.54 409.557C800.678 409.3 800.747 408.972 800.747 408.573ZM803.248 408.565C803.248 409.36 803.078 410.016 802.738 410.534C802.397 411.052 801.921 411.439 801.31 411.695C800.698 411.947 799.988 412.073 799.179 412.073H798.069V415.484H795.642V405.229H798.868C800.259 405.229 801.337 405.505 802.101 406.057C802.866 406.61 803.248 407.446 803.248 408.565ZM808.03 407.367C808.839 407.367 809.527 407.539 810.094 407.885C810.661 408.23 811.095 408.716 811.396 409.342C811.697 409.964 811.847 410.694 811.847 411.532C811.847 412.406 811.695 413.158 811.389 413.789C811.088 414.416 810.654 414.897 810.086 415.232C809.519 415.567 808.834 415.735 808.03 415.735C807.23 415.735 806.545 415.57 805.973 415.239C805.405 414.909 804.969 414.43 804.663 413.804C804.362 413.178 804.212 412.425 804.212 411.547C804.212 410.714 804.362 409.984 804.663 409.357C804.969 408.731 805.405 408.242 805.973 407.892C806.545 407.542 807.23 407.367 808.03 407.367ZM808.03 409.091C807.551 409.091 807.196 409.288 806.964 409.683C806.737 410.072 806.624 410.694 806.624 411.547C806.624 412.415 806.737 413.044 806.964 413.434C807.196 413.824 807.551 414.019 808.03 414.019C808.508 414.019 808.861 413.824 809.088 413.434C809.319 413.044 809.435 412.41 809.435 411.532C809.435 410.684 809.319 410.065 809.088 409.675C808.861 409.286 808.508 409.091 808.03 409.091ZM813.573 415.484V413.915H814.609V409.18H813.573V407.626H816.392L816.821 409.394C817.102 408.718 817.46 408.215 817.894 407.885C818.333 407.554 818.868 407.389 819.5 407.389C819.766 407.389 820.003 407.411 820.21 407.456C820.417 407.495 820.612 407.552 820.794 407.626L820.084 409.557C819.941 409.517 819.798 409.488 819.655 409.468C819.512 409.448 819.354 409.439 819.181 409.439C818.668 409.439 818.217 409.648 817.827 410.067C817.443 410.487 817.149 411.019 816.947 411.666V413.915H818.501V415.484H813.573ZM818.893 410.911V408.617L819.241 407.626H820.794L820.358 410.911H818.893ZM829.445 415.025C829.14 415.222 828.77 415.39 828.336 415.528C827.902 415.666 827.413 415.735 826.871 415.735C825.845 415.735 825.083 415.474 824.584 414.951C824.086 414.423 823.837 413.708 823.837 412.805V409.239H822.187V407.626H823.837V405.924L826.175 405.643V407.626H828.706L828.476 409.239H826.175V412.805C826.175 413.195 826.264 413.473 826.441 413.641C826.619 413.809 826.903 413.893 827.292 413.893C827.569 413.893 827.82 413.861 828.047 413.797C828.279 413.727 828.486 413.641 828.669 413.538L829.445 415.025ZM836.047 407.626V413.885H838.045V415.484H831.482V413.885H833.709V409.224H831.556V407.626H836.047ZM834.634 403.512C835.038 403.512 835.369 403.638 835.625 403.889C835.882 404.141 836.01 404.454 836.01 404.829C836.01 405.204 835.882 405.52 835.625 405.776C835.369 406.028 835.038 406.153 834.634 406.153C834.224 406.153 833.889 406.028 833.628 405.776C833.371 405.52 833.243 405.204 833.243 404.829C833.243 404.454 833.371 404.141 833.628 403.889C833.889 403.638 834.224 403.512 834.634 403.512ZM844.217 404.503V413.012C844.217 413.328 844.306 413.555 844.483 413.693C844.666 413.826 844.915 413.893 845.231 413.893C845.433 413.893 845.628 413.871 845.815 413.826C846.003 413.777 846.178 413.72 846.341 413.656L846.903 415.217C846.637 415.355 846.316 415.476 845.941 415.58C845.566 415.683 845.13 415.735 844.631 415.735C843.684 415.735 842.989 415.464 842.545 414.921C842.101 414.374 841.879 413.641 841.879 412.724V406.102H839.563V404.503H844.217ZM853.09 404.503V413.012C853.09 413.328 853.179 413.555 853.356 413.693C853.539 413.826 853.788 413.893 854.104 413.893C854.306 413.893 854.501 413.871 854.688 413.826C854.876 413.777 855.051 413.72 855.214 413.656L855.776 415.217C855.51 415.355 855.189 415.476 854.814 415.58C854.439 415.683 854.003 415.735 853.504 415.735C852.557 415.735 851.862 415.464 851.418 414.921C850.974 414.374 850.752 413.641 850.752 412.724V406.102H848.436V404.503H853.09ZM864.479 413.219C864.479 413.515 864.518 413.73 864.597 413.863C864.681 413.996 864.814 414.097 864.997 414.166L864.516 415.705C864.052 415.661 863.66 415.56 863.339 415.402C863.024 415.239 862.775 414.995 862.592 414.67C862.291 415.03 861.906 415.299 861.438 415.476C860.969 415.649 860.491 415.735 860.002 415.735C859.193 415.735 858.547 415.506 858.064 415.047C857.585 414.583 857.346 413.989 857.346 413.264C857.346 412.41 857.679 411.752 858.345 411.288C859.016 410.825 859.958 410.593 861.171 410.593H862.229V410.297C862.229 409.887 862.096 409.584 861.83 409.387C861.568 409.189 861.184 409.091 860.676 409.091C860.424 409.091 860.101 409.128 859.706 409.202C859.312 409.271 858.917 409.372 858.523 409.505L857.982 407.951C858.49 407.759 859.018 407.613 859.566 407.515C860.118 407.416 860.612 407.367 861.046 407.367C862.215 407.367 863.078 407.606 863.635 408.085C864.198 408.558 864.479 409.244 864.479 410.141V413.219ZM860.809 414.063C861.06 414.063 861.324 413.989 861.601 413.841C861.877 413.688 862.086 413.473 862.229 413.197V411.925H861.652C861.001 411.925 860.523 412.026 860.217 412.228C859.911 412.425 859.758 412.716 859.758 413.101C859.758 413.402 859.849 413.639 860.032 413.811C860.219 413.979 860.478 414.063 860.809 414.063Z" fill="black"/>
<path d="M376 43L384.66 58L367.34 58L376 43ZM376 318L374.5 318L374.5 56.5L376 56.5L377.5 56.5L377.5 318L376 318Z" fill="black"/>
<path d="M376 319.5C375.172 319.5 374.5 318.828 374.5 318C374.5 317.172 375.172 316.5 376 316.5V319.5ZM651 318L636 326.66V309.34L651 318ZM376 318V316.5L637.5 316.5V318V319.5L376 319.5V318Z" fill="black"/>
<path d="M376 312L376 323" stroke="black" stroke-width="2" stroke-linecap="round"/>
<path d="M371 318H382" stroke="black" stroke-width="2" stroke-linecap="round"/>
<path d="M371 218H382" stroke="black" stroke-width="2" stroke-linecap="round"/>
<path d="M371 118H382" stroke="black" stroke-width="2" stroke-linecap="round"/>
<path d="M476 312L476 323" stroke="black" stroke-width="2" stroke-linecap="round"/>
<path d="M576 312L576 323" stroke="black" stroke-width="2" stroke-linecap="round"/>
<path d="M368 318C368 322.418 371.582 326 376 326C380.418 326 384 322.418 384 318C384 313.582 380.418 310 376 310C371.582 310 368 313.582 368 318ZM576 319.5C576.828 319.5 577.5 318.828 577.5 318C577.5 317.172 576.828 316.5 576 316.5V319.5ZM376 318V319.5H576V318V316.5H376V318Z" fill="#0037AC"/>
<path d="M576 318L576 218" stroke="#0037AC" stroke-width="3" stroke-linecap="round"/>
<path d="M383.089 364.469C383.089 365.913 382.82 367.119 382.282 368.09C381.745 369.054 380.965 369.781 379.942 370.272C378.919 370.757 377.686 371 376.242 371H372.683V358.183H376.628C377.955 358.183 379.1 358.423 380.065 358.902C381.029 359.376 381.774 360.08 382.3 361.015C382.826 361.944 383.089 363.096 383.089 364.469ZM380.897 364.53C380.897 363.478 380.731 362.613 380.398 361.935C380.07 361.258 379.585 360.755 378.942 360.428C378.305 360.095 377.519 359.928 376.584 359.928H374.787V369.238H376.277C377.826 369.238 378.983 368.843 379.749 368.054C380.515 367.265 380.897 366.091 380.897 364.53ZM387.7 361.296V371H385.64V361.296H387.7ZM386.683 357.579C386.999 357.579 387.271 357.663 387.498 357.833C387.732 358.002 387.849 358.294 387.849 358.709C387.849 359.119 387.732 359.411 387.498 359.586C387.271 359.756 386.999 359.84 386.683 359.84C386.356 359.84 386.078 359.756 385.85 359.586C385.628 359.411 385.517 359.119 385.517 358.709C385.517 358.294 385.628 358.002 385.85 357.833C386.078 357.663 386.356 357.579 386.683 357.579ZM397.177 368.23C397.177 368.867 397.022 369.405 396.712 369.843C396.402 370.281 395.949 370.614 395.353 370.842C394.763 371.064 394.038 371.175 393.179 371.175C392.501 371.175 391.917 371.126 391.426 371.026C390.941 370.933 390.482 370.787 390.05 370.588V368.808C390.511 369.025 391.028 369.212 391.601 369.369C392.18 369.527 392.726 369.606 393.241 369.606C393.918 369.606 394.406 369.501 394.705 369.291C395.003 369.074 395.152 368.788 395.152 368.431C395.152 368.221 395.09 368.034 394.968 367.87C394.851 367.701 394.629 367.528 394.301 367.353C393.98 367.172 393.506 366.956 392.881 366.704C392.267 366.459 391.75 366.214 391.329 365.968C390.909 365.723 390.59 365.427 390.374 365.083C390.158 364.732 390.05 364.285 390.05 363.741C390.05 362.882 390.389 362.231 391.066 361.786C391.75 361.336 392.653 361.111 393.775 361.111C394.371 361.111 394.932 361.173 395.458 361.296C395.99 361.412 396.51 361.585 397.019 361.813L396.37 363.364C395.932 363.172 395.491 363.014 395.046 362.891C394.608 362.762 394.161 362.698 393.705 362.698C393.173 362.698 392.767 362.78 392.487 362.944C392.212 363.107 392.075 363.341 392.075 363.645C392.075 363.873 392.142 364.066 392.276 364.224C392.411 364.381 392.641 364.539 392.969 364.697C393.302 364.855 393.764 365.05 394.354 365.284C394.932 365.506 395.432 365.74 395.853 365.986C396.28 366.225 396.607 366.52 396.835 366.871C397.063 367.222 397.177 367.675 397.177 368.23ZM403.015 369.51C403.284 369.51 403.55 369.486 403.813 369.44C404.076 369.387 404.316 369.326 404.532 369.255V370.816C404.304 370.915 404.009 371 403.646 371.07C403.284 371.14 402.907 371.175 402.515 371.175C401.966 371.175 401.472 371.085 401.034 370.904C400.596 370.717 400.248 370.398 399.991 369.948C399.734 369.498 399.605 368.876 399.605 368.081V362.865H398.281V361.944L399.701 361.217L400.376 359.139H401.674V361.296H404.453V362.865H401.674V368.054C401.674 368.545 401.797 368.911 402.042 369.15C402.288 369.39 402.612 369.51 403.015 369.51ZM410.309 361.111C411.536 361.111 412.462 361.383 413.088 361.927C413.719 362.47 414.035 363.318 414.035 364.469V371H412.571L412.176 369.624H412.106C411.831 369.974 411.548 370.264 411.256 370.492C410.963 370.719 410.624 370.889 410.239 371C409.859 371.117 409.394 371.175 408.845 371.175C408.266 371.175 407.749 371.07 407.293 370.86C406.837 370.643 406.478 370.316 406.215 369.878C405.952 369.44 405.82 368.884 405.82 368.212C405.82 367.213 406.192 366.462 406.934 365.959C407.682 365.457 408.81 365.179 410.318 365.126L412.001 365.065V364.557C412.001 363.885 411.843 363.405 411.527 363.119C411.218 362.833 410.779 362.689 410.212 362.689C409.727 362.689 409.257 362.76 408.801 362.9C408.345 363.04 407.901 363.212 407.469 363.417L406.802 361.962C407.276 361.71 407.813 361.506 408.415 361.348C409.023 361.19 409.654 361.111 410.309 361.111ZM411.992 366.363L410.738 366.406C409.71 366.441 408.988 366.617 408.573 366.932C408.158 367.248 407.951 367.68 407.951 368.23C407.951 368.709 408.094 369.06 408.38 369.282C408.667 369.498 409.044 369.606 409.511 369.606C410.224 369.606 410.814 369.405 411.282 369.001C411.755 368.592 411.992 367.993 411.992 367.204V366.363ZM421.977 361.111C423.07 361.111 423.92 361.395 424.528 361.962C425.142 362.523 425.449 363.426 425.449 364.671V371H423.388V365.056C423.388 364.302 423.234 363.738 422.924 363.364C422.614 362.985 422.135 362.795 421.486 362.795C420.545 362.795 419.891 363.084 419.522 363.662C419.16 364.241 418.979 365.08 418.979 366.178V371H416.919V361.296H418.523L418.812 362.61H418.926C419.137 362.272 419.397 361.994 419.706 361.778C420.022 361.556 420.373 361.389 420.758 361.278C421.15 361.167 421.556 361.111 421.977 361.111ZM432.243 371.175C431.325 371.175 430.53 370.997 429.858 370.641C429.186 370.284 428.669 369.738 428.306 369.001C427.944 368.265 427.763 367.33 427.763 366.196C427.763 365.015 427.962 364.051 428.359 363.303C428.756 362.555 429.306 362.003 430.007 361.646C430.714 361.29 431.524 361.111 432.435 361.111C433.014 361.111 433.537 361.17 434.005 361.287C434.478 361.398 434.878 361.535 435.206 361.699L434.592 363.347C434.235 363.201 433.87 363.078 433.496 362.979C433.122 362.879 432.763 362.83 432.418 362.83C431.851 362.83 431.378 362.955 430.998 363.207C430.624 363.458 430.343 363.832 430.156 364.329C429.975 364.825 429.884 365.442 429.884 366.178C429.884 366.891 429.978 367.493 430.165 367.984C430.352 368.469 430.63 368.838 430.998 369.089C431.366 369.334 431.819 369.457 432.357 369.457C432.888 369.457 433.365 369.393 433.785 369.264C434.206 369.136 434.604 368.969 434.978 368.765V370.553C434.609 370.763 434.215 370.918 433.794 371.018C433.373 371.123 432.856 371.175 432.243 371.175ZM439.317 361.296V371H437.257V361.296H439.317ZM438.3 357.579C438.616 357.579 438.888 357.663 439.115 357.833C439.349 358.002 439.466 358.294 439.466 358.709C439.466 359.119 439.349 359.411 439.115 359.586C438.888 359.756 438.616 359.84 438.3 359.84C437.973 359.84 437.695 359.756 437.467 359.586C437.245 359.411 437.134 359.119 437.134 358.709C437.134 358.294 437.245 358.002 437.467 357.833C437.695 357.663 437.973 357.579 438.3 357.579ZM446.076 361.111C447.303 361.111 448.23 361.383 448.855 361.927C449.486 362.47 449.802 363.318 449.802 364.469V371H448.338L447.943 369.624H447.873C447.598 369.974 447.315 370.264 447.023 370.492C446.731 370.719 446.392 370.889 446.006 371C445.626 371.117 445.161 371.175 444.612 371.175C444.033 371.175 443.516 371.07 443.06 370.86C442.605 370.643 442.245 370.316 441.982 369.878C441.719 369.44 441.588 368.884 441.588 368.212C441.588 367.213 441.959 366.462 442.701 365.959C443.449 365.457 444.577 365.179 446.085 365.126L447.768 365.065V364.557C447.768 363.885 447.61 363.405 447.295 363.119C446.985 362.833 446.547 362.689 445.98 362.689C445.495 362.689 445.024 362.76 444.568 362.9C444.112 363.04 443.668 363.212 443.236 363.417L442.569 361.962C443.043 361.71 443.581 361.506 444.182 361.348C444.79 361.19 445.421 361.111 446.076 361.111ZM447.759 366.363L446.506 366.406C445.477 366.441 444.755 366.617 444.34 366.932C443.925 367.248 443.718 367.68 443.718 368.23C443.718 368.709 443.861 369.06 444.147 369.282C444.434 369.498 444.811 369.606 445.278 369.606C445.991 369.606 446.582 369.405 447.049 369.001C447.523 368.592 447.759 367.993 447.759 367.204V366.363ZM461.154 361.111C462.382 361.111 463.308 361.383 463.933 361.927C464.565 362.47 464.88 363.318 464.88 364.469V371H463.416L463.022 369.624H462.951C462.677 369.974 462.393 370.264 462.101 370.492C461.809 370.719 461.47 370.889 461.084 371C460.704 371.117 460.24 371.175 459.69 371.175C459.112 371.175 458.595 371.07 458.139 370.86C457.683 370.643 457.323 370.316 457.06 369.878C456.797 369.44 456.666 368.884 456.666 368.212C456.666 367.213 457.037 366.462 457.779 365.959C458.527 365.457 459.655 365.179 461.163 365.126L462.846 365.065V364.557C462.846 363.885 462.688 363.405 462.373 363.119C462.063 362.833 461.625 362.689 461.058 362.689C460.573 362.689 460.102 362.76 459.647 362.9C459.191 363.04 458.747 363.212 458.314 363.417L457.648 361.962C458.121 361.71 458.659 361.506 459.261 361.348C459.869 361.19 460.5 361.111 461.154 361.111ZM462.838 366.363L461.584 366.406C460.555 366.441 459.834 366.617 459.419 366.932C459.004 367.248 458.796 367.68 458.796 368.23C458.796 368.709 458.939 369.06 459.226 369.282C459.512 369.498 459.889 369.606 460.357 369.606C461.07 369.606 461.66 369.405 462.127 369.001C462.601 368.592 462.838 367.993 462.838 367.204V366.363ZM469.824 357.359V360.647C469.824 361.027 469.813 361.401 469.789 361.769C469.772 362.131 469.754 362.415 469.737 362.619H469.824C470.087 362.198 470.453 361.845 470.92 361.559C471.394 361.266 471.998 361.12 472.735 361.12C473.886 361.12 474.813 361.544 475.514 362.391C476.215 363.233 476.566 364.481 476.566 366.135C476.566 367.233 476.405 368.157 476.084 368.905C475.762 369.653 475.309 370.22 474.725 370.606C474.146 370.985 473.465 371.175 472.682 371.175C471.946 371.175 471.35 371.041 470.894 370.772C470.444 370.497 470.09 370.179 469.833 369.817H469.684L469.307 371H467.764V357.359H469.824ZM472.191 362.795C471.607 362.795 471.142 362.911 470.797 363.145C470.459 363.379 470.213 363.73 470.061 364.197C469.909 364.659 469.83 365.246 469.824 365.959V366.143C469.824 367.225 469.994 368.052 470.333 368.624C470.678 369.197 471.303 369.483 472.209 369.483C472.928 369.483 473.48 369.194 473.866 368.616C474.251 368.031 474.444 367.195 474.444 366.108C474.444 365.01 474.251 364.183 473.866 363.627C473.486 363.072 472.928 362.795 472.191 362.795ZM485.473 368.23C485.473 368.867 485.318 369.405 485.008 369.843C484.698 370.281 484.245 370.614 483.649 370.842C483.059 371.064 482.334 371.175 481.475 371.175C480.797 371.175 480.213 371.126 479.722 371.026C479.237 370.933 478.778 370.787 478.345 370.588V368.808C478.807 369.025 479.324 369.212 479.897 369.369C480.476 369.527 481.022 369.606 481.536 369.606C482.214 369.606 482.702 369.501 483 369.291C483.298 369.074 483.447 368.788 483.447 368.431C483.447 368.221 483.386 368.034 483.263 367.87C483.147 367.701 482.924 367.528 482.597 367.353C482.276 367.172 481.802 366.956 481.177 366.704C480.563 366.459 480.046 366.214 479.625 365.968C479.205 365.723 478.886 365.427 478.67 365.083C478.454 364.732 478.345 364.285 478.345 363.741C478.345 362.882 478.684 362.231 479.362 361.786C480.046 361.336 480.949 361.111 482.071 361.111C482.667 361.111 483.228 361.173 483.754 361.296C484.286 361.412 484.806 361.585 485.315 361.813L484.666 363.364C484.228 363.172 483.786 363.014 483.342 362.891C482.904 362.762 482.457 362.698 482.001 362.698C481.469 362.698 481.063 362.78 480.782 362.944C480.508 363.107 480.37 363.341 480.37 363.645C480.37 363.873 480.438 364.066 480.572 364.224C480.707 364.381 480.937 364.539 481.265 364.697C481.598 364.855 482.059 365.05 482.65 365.284C483.228 365.506 483.728 365.74 484.149 365.986C484.575 366.225 484.903 366.52 485.131 366.871C485.359 367.222 485.473 367.675 485.473 368.23ZM496.29 366.126C496.29 366.932 496.185 367.648 495.975 368.274C495.764 368.899 495.458 369.428 495.054 369.86C494.651 370.287 494.166 370.614 493.599 370.842C493.032 371.064 492.392 371.175 491.679 371.175C491.013 371.175 490.402 371.064 489.847 370.842C489.292 370.614 488.81 370.287 488.401 369.86C487.997 369.428 487.685 368.899 487.463 368.274C487.24 367.648 487.129 366.932 487.129 366.126C487.129 365.056 487.314 364.15 487.682 363.408C488.056 362.66 488.588 362.09 489.277 361.699C489.967 361.307 490.788 361.111 491.741 361.111C492.635 361.111 493.424 361.307 494.108 361.699C494.791 362.09 495.326 362.66 495.712 363.408C496.098 364.156 496.29 365.062 496.29 366.126ZM489.251 366.126C489.251 366.833 489.336 367.438 489.505 367.941C489.68 368.443 489.949 368.829 490.312 369.098C490.674 369.361 491.142 369.492 491.714 369.492C492.287 369.492 492.755 369.361 493.117 369.098C493.479 368.829 493.745 368.443 493.915 367.941C494.084 367.438 494.169 366.833 494.169 366.126C494.169 365.419 494.084 364.82 493.915 364.329C493.745 363.832 493.479 363.455 493.117 363.198C492.755 362.935 492.284 362.803 491.706 362.803C490.852 362.803 490.23 363.09 489.838 363.662C489.447 364.235 489.251 365.056 489.251 366.126ZM500.726 371H498.657V357.359H500.726V371ZM512.131 361.296V371H510.51L510.229 369.694H510.115C509.911 370.027 509.65 370.305 509.335 370.527C509.019 370.743 508.669 370.904 508.283 371.009C507.897 371.12 507.491 371.175 507.064 371.175C506.334 371.175 505.708 371.053 505.188 370.807C504.674 370.556 504.28 370.17 504.005 369.65C503.73 369.13 503.593 368.458 503.593 367.634V361.296H505.662V367.248C505.662 368.002 505.814 368.566 506.118 368.94C506.427 369.314 506.907 369.501 507.555 369.501C508.181 369.501 508.677 369.372 509.046 369.115C509.414 368.858 509.674 368.478 509.826 367.976C509.984 367.473 510.062 366.856 510.062 366.126V361.296H512.131ZM518.697 369.51C518.966 369.51 519.232 369.486 519.495 369.44C519.758 369.387 519.998 369.326 520.214 369.255V370.816C519.986 370.915 519.691 371 519.329 371.07C518.966 371.14 518.589 371.175 518.198 371.175C517.648 371.175 517.155 371.085 516.716 370.904C516.278 370.717 515.93 370.398 515.673 369.948C515.416 369.498 515.287 368.876 515.287 368.081V362.865H513.964V361.944L515.384 361.217L516.059 359.139H517.356V361.296H520.135V362.865H517.356V368.054C517.356 368.545 517.479 368.911 517.724 369.15C517.97 369.39 518.294 369.51 518.697 369.51ZM525.991 361.111C527.218 361.111 528.145 361.383 528.77 361.927C529.401 362.47 529.717 363.318 529.717 364.469V371H528.253L527.858 369.624H527.788C527.514 369.974 527.23 370.264 526.938 370.492C526.646 370.719 526.307 370.889 525.921 371C525.541 371.117 525.077 371.175 524.527 371.175C523.949 371.175 523.431 371.07 522.976 370.86C522.52 370.643 522.16 370.316 521.897 369.878C521.634 369.44 521.503 368.884 521.503 368.212C521.503 367.213 521.874 366.462 522.616 365.959C523.364 365.457 524.492 365.179 526 365.126L527.683 365.065V364.557C527.683 363.885 527.525 363.405 527.21 363.119C526.9 362.833 526.462 362.689 525.895 362.689C525.41 362.689 524.939 362.76 524.483 362.9C524.027 363.04 523.583 363.212 523.151 363.417L522.485 361.962C522.958 361.71 523.496 361.506 524.098 361.348C524.705 361.19 525.337 361.111 525.991 361.111ZM527.674 366.363L526.421 366.406C525.392 366.441 524.67 366.617 524.255 366.932C523.84 367.248 523.633 367.68 523.633 368.23C523.633 368.709 523.776 369.06 524.063 369.282C524.349 369.498 524.726 369.606 525.193 369.606C525.906 369.606 526.497 369.405 526.964 369.001C527.438 368.592 527.674 367.993 527.674 367.204V366.363ZM541.131 361.111C541.996 361.111 542.738 361.29 543.358 361.646C543.977 362.003 544.453 362.508 544.786 363.163C545.12 363.817 545.286 364.6 545.286 365.512V366.617H538.808C538.831 367.558 539.082 368.282 539.562 368.791C540.047 369.299 540.725 369.554 541.595 369.554C542.215 369.554 542.77 369.495 543.261 369.378C543.758 369.255 544.269 369.077 544.795 368.843V370.518C544.31 370.746 543.816 370.912 543.314 371.018C542.811 371.123 542.209 371.175 541.508 371.175C540.555 371.175 539.717 370.991 538.992 370.623C538.273 370.249 537.709 369.694 537.3 368.957C536.897 368.221 536.695 367.306 536.695 366.214C536.695 365.126 536.879 364.203 537.247 363.443C537.616 362.684 538.133 362.105 538.799 361.708C539.465 361.31 540.243 361.111 541.131 361.111ZM541.131 362.663C540.482 362.663 539.956 362.873 539.553 363.294C539.155 363.715 538.922 364.332 538.852 365.144H543.27C543.264 364.659 543.182 364.229 543.024 363.855C542.872 363.481 542.639 363.189 542.323 362.979C542.013 362.768 541.616 362.663 541.131 362.663ZM552.668 361.111C553.76 361.111 554.611 361.395 555.219 361.962C555.832 362.523 556.139 363.426 556.139 364.671V371H554.079V365.056C554.079 364.302 553.924 363.738 553.614 363.364C553.305 362.985 552.825 362.795 552.177 362.795C551.236 362.795 550.581 363.084 550.213 363.662C549.851 364.241 549.669 365.08 549.669 366.178V371H547.609V361.296H549.214L549.503 362.61H549.617C549.827 362.272 550.087 361.994 550.397 361.778C550.713 361.556 551.063 361.389 551.449 361.278C551.841 361.167 552.247 361.111 552.668 361.111ZM561.557 371L565.738 366.056L563.652 361.392H565.125L566.668 365.021L569.596 361.392H571.288L567.272 366.117L569.499 371H568.009L566.326 367.178L563.249 371H561.557ZM573.558 363.443C573.289 363.443 573.076 363.367 572.918 363.215C572.766 363.063 572.69 362.853 572.69 362.584C572.69 362.327 572.734 362.093 572.822 361.883C572.915 361.667 573.055 361.494 573.242 361.366C573.435 361.231 573.678 361.164 573.97 361.164C574.221 361.164 574.423 361.237 574.575 361.383C574.727 361.529 574.803 361.751 574.803 362.049C574.803 362.406 574.701 362.727 574.496 363.014C574.291 363.3 573.979 363.443 573.558 363.443ZM572.094 371.245C571.819 371.245 571.606 371.167 571.454 371.009C571.302 370.857 571.226 370.641 571.226 370.36C571.226 369.992 571.328 369.667 571.533 369.387C571.743 369.101 572.071 368.957 572.515 368.957C572.76 368.957 572.959 369.033 573.111 369.185C573.263 369.337 573.339 369.559 573.339 369.852C573.339 370.196 573.237 370.515 573.032 370.807C572.827 371.099 572.515 371.245 572.094 371.245ZM580.08 371L580.343 369.755L584.49 366.012C585.063 365.492 585.562 365.027 585.989 364.618C586.421 364.209 586.781 363.823 587.067 363.461C587.354 363.093 587.567 362.722 587.707 362.347C587.853 361.973 587.926 361.564 587.926 361.12C587.926 360.565 587.757 360.115 587.418 359.77C587.079 359.425 586.6 359.253 585.98 359.253C585.629 359.253 585.296 359.303 584.981 359.402C584.665 359.495 584.358 359.627 584.06 359.796C583.768 359.96 583.476 360.15 583.184 360.366L582.491 359.367C583 358.969 583.549 358.642 584.139 358.385C584.729 358.128 585.396 357.999 586.138 357.999C586.845 357.999 587.444 358.122 587.935 358.368C588.426 358.613 588.8 358.952 589.057 359.384C589.314 359.817 589.443 360.32 589.443 360.892C589.443 361.594 589.306 362.239 589.031 362.83C588.756 363.414 588.324 364.019 587.733 364.644C587.143 365.27 586.372 366 585.419 366.836L582.254 369.606V369.667H588.198L587.944 371H580.08Z" fill="#0037AC"/>
<path d="M614.089 268.469C614.089 269.913 613.82 271.119 613.282 272.09C612.745 273.054 611.965 273.781 610.942 274.272C609.919 274.757 608.686 275 607.242 275H603.683V262.183H607.628C608.955 262.183 610.1 262.423 611.065 262.902C612.029 263.376 612.774 264.08 613.3 265.015C613.826 265.944 614.089 267.096 614.089 268.469ZM611.897 268.53C611.897 267.478 611.731 266.613 611.398 265.935C611.07 265.258 610.585 264.755 609.942 264.428C609.305 264.095 608.519 263.928 607.584 263.928H605.787V273.238H607.277C608.826 273.238 609.983 272.843 610.749 272.054C611.515 271.265 611.897 270.091 611.897 268.53ZM618.7 265.296V275H616.64V265.296H618.7ZM617.683 261.579C617.999 261.579 618.271 261.663 618.498 261.833C618.732 262.002 618.849 262.294 618.849 262.709C618.849 263.119 618.732 263.411 618.498 263.586C618.271 263.756 617.999 263.84 617.683 263.84C617.356 263.84 617.078 263.756 616.85 263.586C616.628 263.411 616.517 263.119 616.517 262.709C616.517 262.294 616.628 262.002 616.85 261.833C617.078 261.663 617.356 261.579 617.683 261.579ZM628.177 272.23C628.177 272.867 628.022 273.405 627.712 273.843C627.402 274.281 626.949 274.614 626.353 274.842C625.763 275.064 625.038 275.175 624.179 275.175C623.501 275.175 622.917 275.126 622.426 275.026C621.941 274.933 621.482 274.787 621.05 274.588V272.808C621.511 273.025 622.028 273.212 622.601 273.369C623.18 273.527 623.726 273.606 624.241 273.606C624.918 273.606 625.406 273.501 625.705 273.291C626.003 273.074 626.152 272.788 626.152 272.431C626.152 272.221 626.09 272.034 625.968 271.87C625.851 271.701 625.629 271.528 625.301 271.353C624.98 271.172 624.506 270.956 623.881 270.704C623.267 270.459 622.75 270.214 622.329 269.968C621.909 269.723 621.59 269.427 621.374 269.083C621.158 268.732 621.05 268.285 621.05 267.741C621.05 266.882 621.389 266.231 622.066 265.786C622.75 265.336 623.653 265.111 624.775 265.111C625.371 265.111 625.932 265.173 626.458 265.296C626.99 265.412 627.51 265.585 628.019 265.813L627.37 267.364C626.932 267.172 626.491 267.014 626.046 266.891C625.608 266.762 625.161 266.698 624.705 266.698C624.173 266.698 623.767 266.78 623.487 266.944C623.212 267.107 623.075 267.341 623.075 267.645C623.075 267.873 623.142 268.066 623.276 268.224C623.411 268.381 623.641 268.539 623.969 268.697C624.302 268.855 624.764 269.05 625.354 269.284C625.932 269.506 626.432 269.74 626.853 269.986C627.28 270.225 627.607 270.52 627.835 270.871C628.063 271.222 628.177 271.675 628.177 272.23ZM634.015 273.51C634.284 273.51 634.55 273.486 634.813 273.44C635.076 273.387 635.316 273.326 635.532 273.255V274.816C635.304 274.915 635.009 275 634.646 275.07C634.284 275.14 633.907 275.175 633.515 275.175C632.966 275.175 632.472 275.085 632.034 274.904C631.596 274.717 631.248 274.398 630.991 273.948C630.734 273.498 630.605 272.876 630.605 272.081V266.865H629.281V265.944L630.701 265.217L631.376 263.139H632.674V265.296H635.453V266.865H632.674V272.054C632.674 272.545 632.797 272.911 633.042 273.15C633.288 273.39 633.612 273.51 634.015 273.51ZM641.309 265.111C642.536 265.111 643.462 265.383 644.088 265.927C644.719 266.47 645.035 267.318 645.035 268.469V275H643.571L643.176 273.624H643.106C642.831 273.974 642.548 274.264 642.256 274.492C641.963 274.719 641.624 274.889 641.239 275C640.859 275.117 640.394 275.175 639.845 275.175C639.266 275.175 638.749 275.07 638.293 274.86C637.837 274.643 637.478 274.316 637.215 273.878C636.952 273.44 636.82 272.884 636.82 272.212C636.82 271.213 637.192 270.462 637.934 269.959C638.682 269.457 639.81 269.179 641.318 269.126L643.001 269.065V268.557C643.001 267.885 642.843 267.405 642.527 267.119C642.218 266.833 641.779 266.689 641.212 266.689C640.727 266.689 640.257 266.76 639.801 266.9C639.345 267.04 638.901 267.212 638.469 267.417L637.802 265.962C638.276 265.71 638.813 265.506 639.415 265.348C640.023 265.19 640.654 265.111 641.309 265.111ZM642.992 270.363L641.738 270.406C640.71 270.441 639.988 270.617 639.573 270.932C639.158 271.248 638.951 271.68 638.951 272.23C638.951 272.709 639.094 273.06 639.38 273.282C639.667 273.498 640.044 273.606 640.511 273.606C641.224 273.606 641.814 273.405 642.282 273.001C642.755 272.592 642.992 271.993 642.992 271.204V270.363ZM652.977 265.111C654.07 265.111 654.92 265.395 655.528 265.962C656.142 266.523 656.449 267.426 656.449 268.671V275H654.388V269.056C654.388 268.302 654.234 267.738 653.924 267.364C653.614 266.985 653.135 266.795 652.486 266.795C651.545 266.795 650.891 267.084 650.522 267.662C650.16 268.241 649.979 269.08 649.979 270.178V275H647.919V265.296H649.523L649.812 266.61H649.926C650.137 266.272 650.397 265.994 650.706 265.778C651.022 265.556 651.373 265.389 651.758 265.278C652.15 265.167 652.556 265.111 652.977 265.111ZM663.243 275.175C662.325 275.175 661.53 274.997 660.858 274.641C660.186 274.284 659.669 273.738 659.306 273.001C658.944 272.265 658.763 271.33 658.763 270.196C658.763 269.015 658.962 268.051 659.359 267.303C659.756 266.555 660.306 266.003 661.007 265.646C661.714 265.29 662.524 265.111 663.435 265.111C664.014 265.111 664.537 265.17 665.005 265.287C665.478 265.398 665.878 265.535 666.206 265.699L665.592 267.347C665.235 267.201 664.87 267.078 664.496 266.979C664.122 266.879 663.763 266.83 663.418 266.83C662.851 266.83 662.378 266.955 661.998 267.207C661.624 267.458 661.343 267.832 661.156 268.329C660.975 268.825 660.884 269.442 660.884 270.178C660.884 270.891 660.978 271.493 661.165 271.984C661.352 272.469 661.63 272.838 661.998 273.089C662.366 273.334 662.819 273.457 663.357 273.457C663.888 273.457 664.365 273.393 664.785 273.264C665.206 273.136 665.604 272.969 665.978 272.765V274.553C665.609 274.763 665.215 274.918 664.794 275.018C664.373 275.123 663.856 275.175 663.243 275.175ZM670.317 265.296V275H668.257V265.296H670.317ZM669.3 261.579C669.616 261.579 669.888 261.663 670.115 261.833C670.349 262.002 670.466 262.294 670.466 262.709C670.466 263.119 670.349 263.411 670.115 263.586C669.888 263.756 669.616 263.84 669.3 263.84C668.973 263.84 668.695 263.756 668.467 263.586C668.245 263.411 668.134 263.119 668.134 262.709C668.134 262.294 668.245 262.002 668.467 261.833C668.695 261.663 668.973 261.579 669.3 261.579ZM677.076 265.111C678.303 265.111 679.23 265.383 679.855 265.927C680.486 266.47 680.802 267.318 680.802 268.469V275H679.338L678.943 273.624H678.873C678.598 273.974 678.315 274.264 678.023 274.492C677.731 274.719 677.392 274.889 677.006 275C676.626 275.117 676.161 275.175 675.612 275.175C675.033 275.175 674.516 275.07 674.06 274.86C673.605 274.643 673.245 274.316 672.982 273.878C672.719 273.44 672.588 272.884 672.588 272.212C672.588 271.213 672.959 270.462 673.701 269.959C674.449 269.457 675.577 269.179 677.085 269.126L678.768 269.065V268.557C678.768 267.885 678.61 267.405 678.295 267.119C677.985 266.833 677.547 266.689 676.98 266.689C676.495 266.689 676.024 266.76 675.568 266.9C675.112 267.04 674.668 267.212 674.236 267.417L673.569 265.962C674.043 265.71 674.581 265.506 675.182 265.348C675.79 265.19 676.421 265.111 677.076 265.111ZM678.759 270.363L677.506 270.406C676.477 270.441 675.755 270.617 675.34 270.932C674.925 271.248 674.718 271.68 674.718 272.23C674.718 272.709 674.861 273.06 675.147 273.282C675.434 273.498 675.811 273.606 676.278 273.606C676.991 273.606 677.582 273.405 678.049 273.001C678.523 272.592 678.759 271.993 678.759 271.204V270.363ZM692.154 265.111C693.382 265.111 694.308 265.383 694.933 265.927C695.565 266.47 695.88 267.318 695.88 268.469V275H694.416L694.022 273.624H693.951C693.677 273.974 693.393 274.264 693.101 274.492C692.809 274.719 692.47 274.889 692.084 275C691.704 275.117 691.24 275.175 690.69 275.175C690.112 275.175 689.595 275.07 689.139 274.86C688.683 274.643 688.323 274.316 688.06 273.878C687.797 273.44 687.666 272.884 687.666 272.212C687.666 271.213 688.037 270.462 688.779 269.959C689.527 269.457 690.655 269.179 692.163 269.126L693.846 269.065V268.557C693.846 267.885 693.688 267.405 693.373 267.119C693.063 266.833 692.625 266.689 692.058 266.689C691.573 266.689 691.102 266.76 690.647 266.9C690.191 267.04 689.747 267.212 689.314 267.417L688.648 265.962C689.121 265.71 689.659 265.506 690.261 265.348C690.869 265.19 691.5 265.111 692.154 265.111ZM693.838 270.363L692.584 270.406C691.555 270.441 690.834 270.617 690.419 270.932C690.004 271.248 689.796 271.68 689.796 272.23C689.796 272.709 689.939 273.06 690.226 273.282C690.512 273.498 690.889 273.606 691.357 273.606C692.07 273.606 692.66 273.405 693.127 273.001C693.601 272.592 693.838 271.993 693.838 271.204V270.363ZM700.824 261.359V264.647C700.824 265.027 700.813 265.401 700.789 265.769C700.772 266.131 700.754 266.415 700.737 266.619H700.824C701.087 266.198 701.453 265.845 701.92 265.559C702.394 265.266 702.998 265.12 703.735 265.12C704.886 265.12 705.813 265.544 706.514 266.391C707.215 267.233 707.566 268.481 707.566 270.135C707.566 271.233 707.405 272.157 707.084 272.905C706.762 273.653 706.309 274.22 705.725 274.606C705.146 274.985 704.465 275.175 703.682 275.175C702.946 275.175 702.35 275.041 701.894 274.772C701.444 274.497 701.09 274.179 700.833 273.817H700.684L700.307 275H698.764V261.359H700.824ZM703.191 266.795C702.607 266.795 702.142 266.911 701.797 267.145C701.459 267.379 701.213 267.73 701.061 268.197C700.909 268.659 700.83 269.246 700.824 269.959V270.143C700.824 271.225 700.994 272.052 701.333 272.624C701.678 273.197 702.303 273.483 703.209 273.483C703.928 273.483 704.48 273.194 704.866 272.616C705.251 272.031 705.444 271.195 705.444 270.108C705.444 269.01 705.251 268.183 704.866 267.627C704.486 267.072 703.928 266.795 703.191 266.795ZM716.473 272.23C716.473 272.867 716.318 273.405 716.008 273.843C715.698 274.281 715.245 274.614 714.649 274.842C714.059 275.064 713.334 275.175 712.475 275.175C711.797 275.175 711.213 275.126 710.722 275.026C710.237 274.933 709.778 274.787 709.345 274.588V272.808C709.807 273.025 710.324 273.212 710.897 273.369C711.476 273.527 712.022 273.606 712.536 273.606C713.214 273.606 713.702 273.501 714 273.291C714.298 273.074 714.447 272.788 714.447 272.431C714.447 272.221 714.386 272.034 714.263 271.87C714.147 271.701 713.924 271.528 713.597 271.353C713.276 271.172 712.802 270.956 712.177 270.704C711.563 270.459 711.046 270.214 710.625 269.968C710.205 269.723 709.886 269.427 709.67 269.083C709.454 268.732 709.345 268.285 709.345 267.741C709.345 266.882 709.684 266.231 710.362 265.786C711.046 265.336 711.949 265.111 713.071 265.111C713.667 265.111 714.228 265.173 714.754 265.296C715.286 265.412 715.806 265.585 716.315 265.813L715.666 267.364C715.228 267.172 714.786 267.014 714.342 266.891C713.904 266.762 713.457 266.698 713.001 266.698C712.469 266.698 712.063 266.78 711.782 266.944C711.508 267.107 711.37 267.341 711.37 267.645C711.37 267.873 711.438 268.066 711.572 268.224C711.707 268.381 711.937 268.539 712.265 268.697C712.598 268.855 713.059 269.05 713.65 269.284C714.228 269.506 714.728 269.74 715.149 269.986C715.575 270.225 715.903 270.52 716.131 270.871C716.359 271.222 716.473 271.675 716.473 272.23ZM727.29 270.126C727.29 270.932 727.185 271.648 726.975 272.274C726.764 272.899 726.458 273.428 726.054 273.86C725.651 274.287 725.166 274.614 724.599 274.842C724.032 275.064 723.392 275.175 722.679 275.175C722.013 275.175 721.402 275.064 720.847 274.842C720.292 274.614 719.81 274.287 719.401 273.86C718.997 273.428 718.685 272.899 718.463 272.274C718.24 271.648 718.129 270.932 718.129 270.126C718.129 269.056 718.314 268.15 718.682 267.408C719.056 266.66 719.588 266.09 720.277 265.699C720.967 265.307 721.788 265.111 722.741 265.111C723.635 265.111 724.424 265.307 725.108 265.699C725.791 266.09 726.326 266.66 726.712 267.408C727.098 268.156 727.29 269.062 727.29 270.126ZM720.251 270.126C720.251 270.833 720.336 271.438 720.505 271.941C720.68 272.443 720.949 272.829 721.312 273.098C721.674 273.361 722.142 273.492 722.714 273.492C723.287 273.492 723.755 273.361 724.117 273.098C724.479 272.829 724.745 272.443 724.915 271.941C725.084 271.438 725.169 270.833 725.169 270.126C725.169 269.419 725.084 268.82 724.915 268.329C724.745 267.832 724.479 267.455 724.117 267.198C723.755 266.935 723.284 266.803 722.706 266.803C721.852 266.803 721.23 267.09 720.838 267.662C720.447 268.235 720.251 269.056 720.251 270.126ZM731.726 275H729.657V261.359H731.726V275ZM743.131 265.296V275H741.51L741.229 273.694H741.115C740.911 274.027 740.65 274.305 740.335 274.527C740.019 274.743 739.669 274.904 739.283 275.009C738.897 275.12 738.491 275.175 738.064 275.175C737.334 275.175 736.708 275.053 736.188 274.807C735.674 274.556 735.28 274.17 735.005 273.65C734.73 273.13 734.593 272.458 734.593 271.634V265.296H736.662V271.248C736.662 272.002 736.814 272.566 737.118 272.94C737.427 273.314 737.907 273.501 738.555 273.501C739.181 273.501 739.677 273.372 740.046 273.115C740.414 272.858 740.674 272.478 740.826 271.976C740.984 271.473 741.062 270.856 741.062 270.126V265.296H743.131ZM749.697 273.51C749.966 273.51 750.232 273.486 750.495 273.44C750.758 273.387 750.998 273.326 751.214 273.255V274.816C750.986 274.915 750.691 275 750.329 275.07C749.966 275.14 749.589 275.175 749.198 275.175C748.648 275.175 748.155 275.085 747.716 274.904C747.278 274.717 746.93 274.398 746.673 273.948C746.416 273.498 746.287 272.876 746.287 272.081V266.865H744.964V265.944L746.384 265.217L747.059 263.139H748.356V265.296H751.135V266.865H748.356V272.054C748.356 272.545 748.479 272.911 748.724 273.15C748.97 273.39 749.294 273.51 749.697 273.51ZM756.991 265.111C758.218 265.111 759.145 265.383 759.77 265.927C760.401 266.47 760.717 267.318 760.717 268.469V275H759.253L758.858 273.624H758.788C758.514 273.974 758.23 274.264 757.938 274.492C757.646 274.719 757.307 274.889 756.921 275C756.541 275.117 756.077 275.175 755.527 275.175C754.949 275.175 754.431 275.07 753.976 274.86C753.52 274.643 753.16 274.316 752.897 273.878C752.634 273.44 752.503 272.884 752.503 272.212C752.503 271.213 752.874 270.462 753.616 269.959C754.364 269.457 755.492 269.179 757 269.126L758.683 269.065V268.557C758.683 267.885 758.525 267.405 758.21 267.119C757.9 266.833 757.462 266.689 756.895 266.689C756.41 266.689 755.939 266.76 755.483 266.9C755.027 267.04 754.583 267.212 754.151 267.417L753.485 265.962C753.958 265.71 754.496 265.506 755.098 265.348C755.705 265.19 756.337 265.111 756.991 265.111ZM758.674 270.363L757.421 270.406C756.392 270.441 755.67 270.617 755.255 270.932C754.84 271.248 754.633 271.68 754.633 272.23C754.633 272.709 754.776 273.06 755.063 273.282C755.349 273.498 755.726 273.606 756.193 273.606C756.906 273.606 757.497 273.405 757.964 273.001C758.438 272.592 758.674 271.993 758.674 271.204V270.363ZM772.131 265.111C772.996 265.111 773.738 265.29 774.358 265.646C774.977 266.003 775.453 266.508 775.786 267.163C776.12 267.817 776.286 268.6 776.286 269.512V270.617H769.808C769.831 271.558 770.082 272.282 770.562 272.791C771.047 273.299 771.725 273.554 772.595 273.554C773.215 273.554 773.77 273.495 774.261 273.378C774.758 273.255 775.269 273.077 775.795 272.843V274.518C775.31 274.746 774.816 274.912 774.314 275.018C773.811 275.123 773.209 275.175 772.508 275.175C771.555 275.175 770.717 274.991 769.992 274.623C769.273 274.249 768.709 273.694 768.3 272.957C767.897 272.221 767.695 271.306 767.695 270.214C767.695 269.126 767.879 268.203 768.247 267.443C768.616 266.684 769.133 266.105 769.799 265.708C770.465 265.31 771.243 265.111 772.131 265.111ZM772.131 266.663C771.482 266.663 770.956 266.873 770.553 267.294C770.155 267.715 769.922 268.332 769.852 269.144H774.27C774.264 268.659 774.182 268.229 774.024 267.855C773.872 267.481 773.639 267.189 773.323 266.979C773.013 266.768 772.616 266.663 772.131 266.663ZM783.668 265.111C784.76 265.111 785.611 265.395 786.219 265.962C786.832 266.523 787.139 267.426 787.139 268.671V275H785.079V269.056C785.079 268.302 784.924 267.738 784.614 267.364C784.305 266.985 783.825 266.795 783.177 266.795C782.236 266.795 781.581 267.084 781.213 267.662C780.851 268.241 780.669 269.08 780.669 270.178V275H778.609V265.296H780.214L780.503 266.61H780.617C780.827 266.272 781.087 265.994 781.397 265.778C781.713 265.556 782.063 265.389 782.449 265.278C782.841 265.167 783.247 265.111 783.668 265.111ZM792.706 279.322C792.419 279.322 792.189 279.304 792.013 279.269C791.832 279.234 791.657 279.19 791.487 279.138V277.954C791.645 277.995 791.82 278.03 792.013 278.059C792.206 278.095 792.411 278.112 792.627 278.112C793.106 278.112 793.518 277.96 793.863 277.656C794.208 277.352 794.544 276.905 794.871 276.315L795.546 275.114L794.073 265.392H795.546L796.212 270.327C796.271 270.713 796.318 271.128 796.353 271.572C796.388 272.011 796.414 272.429 796.432 272.826C796.449 273.217 796.458 273.536 796.458 273.781H796.51C796.592 273.589 796.715 273.311 796.879 272.949C797.042 272.58 797.218 272.198 797.405 271.8C797.592 271.403 797.758 271.07 797.904 270.801L800.788 265.392H802.349L796.195 276.666C795.879 277.25 795.555 277.738 795.222 278.13C794.894 278.527 794.529 278.825 794.126 279.024C793.723 279.223 793.249 279.322 792.706 279.322ZM804.207 267.443C803.939 267.443 803.725 267.367 803.567 267.215C803.415 267.063 803.339 266.853 803.339 266.584C803.339 266.327 803.383 266.093 803.471 265.883C803.564 265.667 803.705 265.494 803.892 265.366C804.085 265.231 804.327 265.164 804.619 265.164C804.871 265.164 805.072 265.237 805.224 265.383C805.376 265.529 805.452 265.751 805.452 266.049C805.452 266.406 805.35 266.727 805.145 267.014C804.941 267.3 804.628 267.443 804.207 267.443ZM802.743 275.245C802.469 275.245 802.255 275.167 802.103 275.009C801.951 274.857 801.875 274.641 801.875 274.36C801.875 273.992 801.978 273.667 802.182 273.387C802.393 273.101 802.72 272.957 803.164 272.957C803.41 272.957 803.608 273.033 803.76 273.185C803.912 273.337 803.988 273.559 803.988 273.852C803.988 274.196 803.886 274.515 803.681 274.807C803.477 275.099 803.164 275.245 802.743 275.245ZM814.341 275L816.086 266.83C816.168 266.461 816.25 266.09 816.331 265.716C816.419 265.342 816.504 264.992 816.586 264.664C816.673 264.337 816.749 264.062 816.814 263.84C816.638 264.021 816.457 264.185 816.27 264.331C816.083 264.471 815.87 264.618 815.63 264.77L813.956 265.83L813.272 264.734L817.278 262.183H818.558L815.814 275H814.341Z" fill="#0037AC"/>
<path d="M584.844 202.6C584.844 203.68 584.932 204.668 585.108 205.564C585.284 206.452 585.56 207.296 585.936 208.096C586.312 208.888 586.8 209.676 587.4 210.46C588.008 211.244 588.744 212.076 589.608 212.956L587.808 214.636C586.528 213.556 585.424 212.428 584.496 211.252C583.576 210.076 582.864 208.784 582.36 207.376C581.864 205.968 581.616 204.376 581.616 202.6C581.616 200.824 581.864 199.232 582.36 197.824C582.864 196.408 583.576 195.116 584.496 193.948C585.424 192.772 586.528 191.644 587.808 190.564L589.608 192.244C588.784 193.084 588.072 193.896 587.472 194.68C586.872 195.464 586.376 196.26 585.984 197.068C585.6 197.868 585.312 198.72 585.12 199.624C584.936 200.52 584.844 201.512 584.844 202.6ZM599.955 194.044C601.147 194.044 602.147 194.256 602.955 194.68C603.771 195.104 604.387 195.676 604.803 196.396C605.219 197.108 605.427 197.892 605.427 198.748C605.427 199.452 605.307 200.14 605.067 200.812C604.827 201.484 604.435 202.192 603.891 202.936C603.355 203.68 602.643 204.508 601.755 205.42C600.867 206.324 599.771 207.356 598.467 208.516H605.811L605.463 211H594.843V208.684C595.987 207.58 596.975 206.608 597.807 205.768C598.639 204.92 599.335 204.172 599.895 203.524C600.463 202.876 600.911 202.296 601.239 201.784C601.575 201.264 601.815 200.78 601.959 200.332C602.103 199.884 602.175 199.436 602.175 198.988C602.175 198.228 601.955 197.628 601.515 197.188C601.083 196.748 600.475 196.528 599.691 196.528C598.995 196.528 598.403 196.664 597.915 196.936C597.435 197.2 596.963 197.632 596.499 198.232L594.507 196.72C595.139 195.872 595.891 195.216 596.763 194.752C597.635 194.28 598.699 194.044 599.955 194.044ZM614.981 206.404C615.661 206.404 616.225 206.632 616.673 207.088C617.129 207.544 617.357 208.104 617.357 208.768C617.357 209.176 617.289 209.588 617.153 210.004C617.017 210.412 616.809 210.936 616.529 211.576L614.717 215.68H612.437L613.637 210.712C613.317 210.496 613.069 210.216 612.893 209.872C612.717 209.528 612.629 209.156 612.629 208.756C612.629 208.092 612.853 207.536 613.301 207.088C613.749 206.632 614.309 206.404 614.981 206.404ZM646.271 194.404V210.52H643.163V197.596L639.623 199.792L638.267 197.596L643.475 194.404H646.271ZM649.499 208.564V211H639.143V208.564H649.499ZM659.509 202.6C659.509 201.512 659.413 200.52 659.221 199.624C659.037 198.72 658.749 197.868 658.357 197.068C657.973 196.26 657.481 195.464 656.881 194.68C656.281 193.896 655.569 193.084 654.745 192.244L656.545 190.564C657.825 191.644 658.925 192.772 659.845 193.948C660.773 195.116 661.485 196.408 661.981 197.824C662.485 199.232 662.737 200.824 662.737 202.6C662.737 204.376 662.485 205.968 661.981 207.376C661.485 208.784 660.773 210.076 659.845 211.252C658.925 212.428 657.825 213.556 656.545 214.636L654.745 212.956C655.609 212.076 656.341 211.244 656.941 210.46C657.549 209.676 658.041 208.888 658.417 208.096C658.793 207.296 659.069 206.452 659.245 205.564C659.421 204.668 659.509 203.68 659.509 202.6Z" fill="black"/>
<path d="M576 218L558.715 216.894L566.399 232.416L576 218ZM374 318L374.665 319.344L564.567 225.334L563.901 223.989L563.236 222.645L373.335 316.656L374 318Z" fill="#C90000"/>
<path d="M664.866 312.238C665.573 312.134 666.291 312.238 667.019 312.55C667.581 312.799 668.007 313.153 668.298 313.611L668.423 313.767L668.548 313.579C669.068 312.955 669.703 312.529 670.452 312.3C671.367 312.05 672.199 312.217 672.948 312.799C673.094 312.903 673.219 313.018 673.323 313.143C673.572 313.434 673.739 313.777 673.822 314.172C674.03 314.859 673.978 315.535 673.666 316.201C673.333 316.908 672.771 317.304 671.981 317.387C671.315 317.449 670.857 317.21 670.608 316.669C670.545 316.565 670.504 316.399 670.483 316.17C670.483 315.816 670.556 315.494 670.701 315.202C670.868 314.828 671.169 314.526 671.606 314.297C671.794 314.214 671.887 314.152 671.887 314.11C671.804 313.985 671.658 313.871 671.45 313.767C671.346 313.725 671.19 313.704 670.982 313.704C670.774 313.704 670.618 313.725 670.514 313.767C669.994 314.058 669.588 314.609 669.297 315.421L667.487 322.63C667.341 323.275 667.31 323.753 667.393 324.065C667.56 324.627 668.007 324.897 668.735 324.877C668.985 324.856 669.224 324.804 669.453 324.721C670.285 324.408 670.972 323.691 671.513 322.567C671.658 322.276 671.773 321.985 671.856 321.693C671.939 321.423 672.033 321.277 672.137 321.256C672.199 321.236 672.418 321.225 672.792 321.225C673.25 321.225 673.5 321.246 673.541 321.288C673.645 321.371 673.656 321.548 673.572 321.818C673.406 322.505 673.115 323.139 672.699 323.722C671.617 325.303 670.296 326.177 668.735 326.343C668.694 326.343 668.652 326.343 668.61 326.343C667.404 326.406 666.436 326.01 665.708 325.157C665.667 325.137 665.635 325.105 665.615 325.064C665.49 324.918 665.417 324.835 665.396 324.814L665.209 325.033C664.918 325.365 664.626 325.615 664.335 325.782C663.711 326.177 663.097 326.364 662.494 326.343C662.099 326.322 661.703 326.218 661.308 326.031C660.642 325.719 660.205 325.157 659.997 324.346C659.768 323.306 659.956 322.442 660.559 321.756C661.142 321.194 661.776 321.017 662.463 321.225C662.712 321.309 662.91 321.433 663.056 321.6C663.451 322.037 663.472 322.619 663.118 323.347C662.931 323.743 662.639 324.044 662.244 324.252C662.057 324.356 661.953 324.408 661.932 324.408C661.932 324.492 662.088 324.616 662.4 324.783C662.483 324.825 662.629 324.845 662.837 324.845C663.045 324.845 663.201 324.825 663.305 324.783C663.825 324.512 664.221 323.972 664.491 323.16L666.364 315.795C666.405 315.587 666.426 315.296 666.426 314.921C666.426 314.63 666.405 314.432 666.364 314.328C666.114 313.788 665.583 313.59 664.772 313.736C664.002 313.881 663.316 314.401 662.712 315.296C662.359 315.858 662.099 316.44 661.932 317.044C661.87 317.168 661.828 317.241 661.807 317.262C661.766 317.304 661.516 317.324 661.058 317.324H660.372L660.278 317.231C660.216 317.168 660.185 317.085 660.185 316.981C660.268 316.44 660.559 315.785 661.058 315.015C661.079 314.973 661.1 314.932 661.121 314.89C662.036 313.455 663.212 312.581 664.647 312.269C664.73 312.269 664.803 312.258 664.866 312.238Z" fill="black"/>
<path d="M478.242 327.792L478.408 327.774H478.426C478.561 327.774 478.646 327.817 478.683 327.903C478.695 327.952 478.255 329.781 477.361 333.391C476.443 337.014 475.984 338.831 475.984 338.843C475.972 338.88 476.058 338.911 476.241 338.935C476.425 338.948 476.725 338.96 477.141 338.972C477.618 338.972 477.875 339.015 477.912 339.1C477.936 339.137 477.918 339.278 477.857 339.523C477.783 339.78 477.735 339.92 477.71 339.945L477.655 340H477.361C476.015 339.939 474.442 339.933 472.643 339.982C472.227 339.994 471.995 339.957 471.946 339.871C471.934 339.835 471.952 339.694 472.001 339.449C472.074 339.205 472.123 339.064 472.148 339.027L472.221 338.972H472.919C473.665 338.96 474.1 338.911 474.222 338.825C474.271 338.801 474.632 337.418 475.305 334.676L476.333 330.564L476.095 330.693C475.556 330.962 475.024 331.115 474.498 331.152C474.265 331.176 474.118 331.14 474.057 331.042L474.039 330.987L474.112 330.656C474.185 330.362 474.253 330.197 474.314 330.161C474.326 330.161 474.43 330.148 474.626 330.124C475.079 330.087 475.55 329.952 476.04 329.72C476.835 329.316 477.52 328.729 478.096 327.958C478.132 327.909 478.181 327.854 478.242 327.792Z" fill="black"/>
<path d="M361.242 210.792L361.408 210.774H361.426C361.561 210.774 361.646 210.817 361.683 210.903C361.695 210.952 361.255 212.781 360.361 216.391C359.443 220.014 358.984 221.831 358.984 221.843C358.972 221.88 359.058 221.911 359.241 221.935C359.425 221.948 359.725 221.96 360.141 221.972C360.618 221.972 360.875 222.015 360.912 222.1C360.936 222.137 360.918 222.278 360.857 222.523C360.783 222.78 360.735 222.92 360.71 222.945L360.655 223H360.361C359.015 222.939 357.442 222.933 355.643 222.982C355.227 222.994 354.995 222.957 354.946 222.871C354.934 222.835 354.952 222.694 355.001 222.449C355.074 222.205 355.123 222.064 355.148 222.027L355.221 221.972H355.919C356.665 221.96 357.1 221.911 357.222 221.825C357.271 221.801 357.632 220.418 358.305 217.676L359.333 213.564L359.095 213.693C358.556 213.962 358.024 214.115 357.498 214.152C357.265 214.176 357.118 214.14 357.057 214.042L357.039 213.987L357.112 213.656C357.185 213.362 357.253 213.197 357.314 213.161C357.326 213.161 357.43 213.148 357.626 213.124C358.079 213.087 358.55 212.952 359.04 212.72C359.835 212.316 360.52 211.729 361.096 210.958C361.132 210.909 361.181 210.854 361.242 210.792Z" fill="black"/>
<path d="M577.829 327.792L578.306 327.774H578.325C578.741 327.786 579.132 327.878 579.499 328.049C580.038 328.319 580.448 328.729 580.729 329.279C580.974 329.757 581.096 330.301 581.096 330.913C581.096 331.231 581.066 331.537 581.005 331.831C580.882 332.443 580.607 333.018 580.179 333.557C580.044 333.74 579.756 334.034 579.316 334.438C578.777 334.866 578.068 335.349 577.186 335.888C576.893 336.047 576.63 336.206 576.397 336.365C575.687 336.781 575.045 337.338 574.47 338.036C574.482 338.134 574.506 338.189 574.543 338.201C574.775 338.201 575.277 338.274 576.048 338.421C577.076 338.617 577.749 338.691 578.068 338.642C578.618 338.556 579.071 338.201 579.426 337.577C579.512 337.418 579.585 337.259 579.646 337.1C579.695 336.94 579.75 336.855 579.811 336.843C579.848 336.83 579.977 336.824 580.197 336.824H580.601L580.656 336.879C580.693 336.916 580.711 336.959 580.711 337.008C580.687 337.142 580.601 337.399 580.454 337.779C579.94 339.076 579.218 339.902 578.288 340.257C578.178 340.294 578.074 340.324 577.976 340.349C577.878 340.373 577.719 340.386 577.498 340.386C577.278 340.386 577.113 340.373 577.003 340.349C576.66 340.263 576.25 340.061 575.773 339.743C575.149 339.339 574.653 339.113 574.286 339.064C574.041 339.027 573.845 339.107 573.699 339.302C573.613 339.425 573.509 339.682 573.386 340.073C573.325 340.269 573.264 340.373 573.203 340.386C573.154 340.398 573.019 340.404 572.799 340.404H572.414L572.358 340.349C572.309 340.288 572.316 340.159 572.377 339.963C572.817 338.421 573.747 337.118 575.167 336.053C575.424 335.857 575.687 335.68 575.956 335.521C577.352 334.689 578.3 333.759 578.802 332.731C578.949 332.425 579.096 331.929 579.242 331.244C579.328 330.827 579.371 330.454 579.371 330.124C579.371 329.781 579.322 329.506 579.224 329.298C579.065 328.98 578.808 328.771 578.453 328.674C578.269 328.625 578.031 328.625 577.737 328.674C577.48 328.735 577.284 328.802 577.15 328.876C576.611 329.133 576.14 329.579 575.736 330.216C575.565 330.46 575.375 330.821 575.167 331.299C574.788 332.229 574.72 332.779 574.965 332.951C575.039 333 575.167 332.988 575.351 332.914C575.755 332.779 576.085 332.382 576.342 331.721C576.354 331.684 576.366 331.654 576.379 331.629C576.562 331.152 576.581 330.772 576.434 330.491C576.36 330.369 576.342 330.277 576.379 330.216C576.513 330.081 576.691 329.94 576.911 329.793C576.984 329.744 577.052 329.763 577.113 329.848C577.186 329.934 577.254 330.075 577.315 330.271C577.462 330.687 577.425 331.195 577.205 331.794C576.825 332.786 576.275 333.422 575.553 333.703C575.491 333.728 575.424 333.752 575.351 333.777C575.118 333.838 574.898 333.85 574.69 333.814C574.213 333.703 573.931 333.379 573.845 332.841C573.809 332.596 573.821 332.345 573.882 332.088C574.017 331.452 574.28 330.815 574.671 330.179C575.369 328.98 576.269 328.221 577.37 327.903C577.529 327.854 577.682 327.817 577.829 327.792Z" fill="black"/>
<path d="M359.829 110.792L360.306 110.774H360.325C360.741 110.786 361.132 110.878 361.499 111.049C362.038 111.319 362.448 111.729 362.729 112.279C362.974 112.757 363.096 113.301 363.096 113.913C363.096 114.231 363.066 114.537 363.005 114.831C362.882 115.443 362.607 116.018 362.179 116.557C362.044 116.74 361.756 117.034 361.316 117.438C360.777 117.866 360.068 118.349 359.186 118.888C358.893 119.047 358.63 119.206 358.397 119.365C357.687 119.781 357.045 120.338 356.47 121.036C356.482 121.134 356.506 121.189 356.543 121.201C356.775 121.201 357.277 121.274 358.048 121.421C359.076 121.617 359.749 121.691 360.068 121.642C360.618 121.556 361.071 121.201 361.426 120.577C361.512 120.418 361.585 120.259 361.646 120.1C361.695 119.94 361.75 119.855 361.811 119.843C361.848 119.83 361.977 119.824 362.197 119.824H362.601L362.656 119.879C362.693 119.916 362.711 119.959 362.711 120.008C362.687 120.142 362.601 120.399 362.454 120.779C361.94 122.076 361.218 122.902 360.288 123.257C360.178 123.294 360.074 123.324 359.976 123.349C359.878 123.373 359.719 123.386 359.498 123.386C359.278 123.386 359.113 123.373 359.003 123.349C358.66 123.263 358.25 123.061 357.773 122.743C357.149 122.339 356.653 122.113 356.286 122.064C356.041 122.027 355.845 122.107 355.699 122.302C355.613 122.425 355.509 122.682 355.386 123.073C355.325 123.269 355.264 123.373 355.203 123.386C355.154 123.398 355.019 123.404 354.799 123.404H354.414L354.358 123.349C354.309 123.288 354.316 123.159 354.377 122.963C354.817 121.421 355.747 120.118 357.167 119.053C357.424 118.857 357.687 118.68 357.956 118.521C359.352 117.689 360.3 116.759 360.802 115.731C360.949 115.425 361.096 114.929 361.242 114.244C361.328 113.827 361.371 113.454 361.371 113.124C361.371 112.781 361.322 112.506 361.224 112.298C361.065 111.98 360.808 111.771 360.453 111.674C360.269 111.625 360.031 111.625 359.737 111.674C359.48 111.735 359.284 111.802 359.15 111.876C358.611 112.133 358.14 112.579 357.736 113.216C357.565 113.46 357.375 113.821 357.167 114.299C356.788 115.229 356.72 115.779 356.965 115.951C357.039 116 357.167 115.988 357.351 115.914C357.755 115.779 358.085 115.382 358.342 114.721C358.354 114.684 358.366 114.654 358.379 114.629C358.562 114.152 358.581 113.772 358.434 113.491C358.36 113.369 358.342 113.277 358.379 113.216C358.513 113.081 358.691 112.94 358.911 112.793C358.984 112.744 359.052 112.763 359.113 112.848C359.186 112.934 359.254 113.075 359.315 113.271C359.462 113.687 359.425 114.195 359.205 114.794C358.825 115.786 358.275 116.422 357.553 116.703C357.491 116.728 357.424 116.752 357.351 116.777C357.118 116.838 356.898 116.85 356.69 116.814C356.213 116.703 355.931 116.379 355.845 115.841C355.809 115.596 355.821 115.345 355.882 115.088C356.017 114.452 356.28 113.815 356.671 113.179C357.369 111.98 358.269 111.221 359.37 110.903C359.529 110.854 359.682 110.817 359.829 110.792Z" fill="black"/>
<path d="M372.992 11.2688C373.137 11.2272 373.366 11.2064 373.678 11.2064C374.157 11.2272 374.573 11.3312 374.927 11.5184C375.197 11.6641 375.405 11.8201 375.551 11.9865C375.717 12.1322 375.873 12.3402 376.019 12.6107C376.206 13.006 376.289 13.4221 376.269 13.859C376.269 14.2751 376.133 14.8472 375.863 15.5754C375.842 15.6794 375.8 15.8042 375.738 15.9499C374.719 18.7793 374.209 20.7142 374.209 21.7544C374.209 21.8377 374.209 21.9105 374.209 21.9729C374.23 22.6803 374.396 23.2004 374.708 23.5333C374.937 23.7413 375.249 23.8453 375.644 23.8453C376.061 23.8453 376.425 23.7621 376.737 23.5957C377.278 23.3252 377.746 22.8883 378.141 22.285L378.328 21.9729L379.483 17.3542C380.294 14.1295 380.762 12.4235 380.887 12.2362C380.908 12.1946 380.96 12.1322 381.043 12.049C381.501 11.5913 382.021 11.4352 382.604 11.5809C383.103 11.7473 383.373 12.0698 383.415 12.5483C383.415 12.6939 382.895 14.868 381.855 19.0706C380.835 23.1484 380.263 25.3745 380.138 25.749C379.93 26.4355 379.608 27.0805 379.171 27.6838C379.025 27.9335 378.859 28.1727 378.672 28.4016C378.255 28.9217 377.808 29.369 377.33 29.7435C376.435 30.4925 375.478 30.9814 374.459 31.2103C374.084 31.3143 373.616 31.3663 373.054 31.3663C372.617 31.3663 372.295 31.3455 372.087 31.3039C370.693 30.9918 369.902 30.2428 369.715 29.057C369.653 28.5368 369.725 28.0271 369.933 27.5278C370.266 26.8412 370.828 26.4563 371.619 26.3731C372.284 26.3107 372.742 26.55 372.992 27.0909C373.054 27.1949 373.096 27.3614 373.117 27.5902C373.137 28.1311 372.94 28.6305 372.524 29.0882C372.336 29.2338 372.191 29.3378 372.087 29.4002C372.004 29.4418 371.952 29.473 371.931 29.4939L372.461 29.8059C373.314 30.0972 374.178 29.9308 375.051 29.3066C376.133 28.4952 376.955 27.1429 377.517 25.2497C377.558 25.0208 377.6 24.8648 377.642 24.7815V24.6567L377.392 24.7815C376.393 25.3641 375.291 25.4993 374.084 25.1872C372.711 24.8544 371.868 23.9598 371.556 22.5034C371.473 21.9625 371.473 21.3175 371.556 20.5686C371.577 20.5061 371.587 20.4541 371.587 20.4125C371.754 19.3723 372.243 17.7807 373.054 15.6378C373.429 14.5351 373.637 13.8278 373.678 13.5157C373.782 13.0372 373.73 12.7667 373.522 12.7043C373.273 12.6211 372.981 12.6731 372.649 12.8604C372.212 13.1308 371.868 13.5573 371.619 14.1399C371.411 14.5143 371.182 15.1489 370.932 16.0435C370.87 16.1683 370.828 16.2411 370.807 16.262C370.766 16.3036 370.516 16.3244 370.058 16.3244H369.372L369.278 16.2307C369.216 16.1683 369.185 16.0851 369.185 15.9811C369.226 15.6482 369.403 15.1281 369.715 14.4207C369.965 13.8798 370.225 13.4325 370.495 13.0788C370.766 12.7043 371.109 12.3298 371.525 11.9553C371.983 11.6017 372.472 11.3728 372.992 11.2688Z" fill="black"/>
</svg>
