<svg width="1208" height="435" viewBox="0 0 1208 435" fill="none" xmlns="http://www.w3.org/2000/svg">
<rect width="1208" height="434" fill="white"/>
<rect x="342.249" y="398.665" width="25.7725" height="25.7725" rx="5.03368" fill="#0037AC"/>
<path d="M352.232 405.398C352.061 404.981 351.471 404.981 351.301 405.398L351.032 406.052C350.982 406.174 350.982 406.311 351.031 406.433L354.627 415.257C354.762 415.588 354.519 415.95 354.161 415.95H350.582H349.374C349.016 415.95 348.772 415.587 348.908 415.255L349.529 413.744C349.579 413.622 349.579 413.485 349.529 413.363L349.247 412.67C349.077 412.253 348.487 412.252 348.315 412.669L346.625 416.786C346.489 417.117 346.733 417.48 347.091 417.48H356.441C356.8 417.48 357.043 417.117 356.907 416.786L352.232 405.398Z" fill="white"/>
<path d="M355.642 407.845C355.507 407.514 355.751 407.152 356.108 407.152H359.687H360.896C361.254 407.152 361.497 407.515 361.361 407.846L360.741 409.358C360.69 409.48 360.69 409.617 360.74 409.739L361.022 410.432C361.192 410.849 361.783 410.85 361.954 410.433L363.644 406.316C363.78 405.985 363.537 405.621 363.179 405.621H353.828C353.47 405.621 353.226 405.985 353.362 406.316L358.038 417.704C358.209 418.121 358.798 418.121 358.969 417.704L359.238 417.049C359.288 416.927 359.288 416.791 359.238 416.668L355.642 407.845Z" fill="white"/>
<path d="M383.916 413.027H380.268L379.558 415.484H377.811L381.06 405.273H383.191L386.446 415.484H384.626L383.916 413.027ZM380.623 411.703H383.553L382.095 406.605L380.623 411.703ZM389.533 407.67V413.131C389.533 413.594 389.624 413.925 389.807 414.122C389.994 414.319 390.275 414.418 390.65 414.418C391.005 414.418 391.348 414.312 391.679 414.1C392.009 413.888 392.271 413.629 392.463 413.323V407.67H394.12V415.484H392.692L392.589 414.485C392.298 414.874 391.93 415.173 391.486 415.38C391.042 415.582 390.589 415.683 390.125 415.683C389.37 415.683 388.806 415.476 388.431 415.062C388.061 414.643 387.876 414.068 387.876 413.338V407.67H389.533ZM403.275 415.069C402.989 415.252 402.646 415.4 402.246 415.513C401.847 415.627 401.43 415.683 400.996 415.683C400.088 415.683 399.398 415.449 398.924 414.98C398.455 414.507 398.221 413.885 398.221 413.116V408.876H396.482V407.67H398.221V405.924L399.878 405.724V407.67H402.513L402.328 408.876H399.878V413.101C399.878 413.52 399.982 413.834 400.189 414.041C400.401 414.243 400.747 414.344 401.225 414.344C401.511 414.344 401.775 414.31 402.017 414.24C402.258 414.171 402.478 414.083 402.675 413.974L403.275 415.069ZM408.751 407.463C409.516 407.463 410.16 407.633 410.683 407.974C411.205 408.314 411.6 408.79 411.866 409.402C412.138 410.013 412.273 410.733 412.273 411.562C412.273 412.386 412.135 413.108 411.859 413.73C411.588 414.347 411.188 414.827 410.66 415.173C410.138 415.513 409.499 415.683 408.744 415.683C407.989 415.683 407.348 415.518 406.82 415.188C406.297 414.852 405.898 414.376 405.622 413.76C405.35 413.143 405.215 412.415 405.215 411.577C405.215 410.763 405.35 410.048 405.622 409.431C405.898 408.815 406.3 408.334 406.828 407.988C407.356 407.638 407.997 407.463 408.751 407.463ZM408.751 408.75C408.155 408.75 407.706 408.98 407.405 409.439C407.104 409.892 406.954 410.605 406.954 411.577C406.954 412.544 407.102 413.256 407.397 413.715C407.698 414.174 408.147 414.403 408.744 414.403C409.341 414.403 409.787 414.174 410.083 413.715C410.384 413.256 410.535 412.539 410.535 411.562C410.535 410.6 410.387 409.892 410.091 409.439C409.795 408.98 409.348 408.75 408.751 408.75ZM414.569 415.484V414.3H415.716V408.847H414.569V407.67H416.981L417.284 409.483C417.575 408.827 417.935 408.329 418.364 407.988C418.798 407.643 419.356 407.47 420.037 407.47C420.268 407.47 420.476 407.49 420.658 407.53C420.846 407.564 421.031 407.611 421.213 407.67L420.717 409.091C420.559 409.046 420.411 409.014 420.273 408.995C420.135 408.97 419.982 408.958 419.815 408.958C419.247 408.958 418.757 409.17 418.342 409.594C417.933 410.018 417.61 410.62 417.373 411.399V414.3H418.949V415.484H414.569ZM419.748 410.548V408.625L419.955 407.67H421.213L420.932 410.548H419.748ZM425.151 414.344C425.151 413.984 425.279 413.676 425.536 413.419C425.792 413.158 426.108 413.027 426.483 413.027C426.863 413.027 427.178 413.158 427.43 413.419C427.686 413.676 427.815 413.984 427.815 414.344C427.815 414.714 427.686 415.03 427.43 415.291C427.178 415.553 426.863 415.683 426.483 415.683C426.108 415.683 425.792 415.553 425.536 415.291C425.279 415.03 425.151 414.714 425.151 414.344ZM425.151 409.091C425.151 408.849 425.21 408.627 425.328 408.425C425.447 408.223 425.607 408.062 425.809 407.944C426.012 407.826 426.236 407.766 426.483 407.766C426.863 407.766 427.178 407.897 427.43 408.159C427.686 408.415 427.815 408.726 427.815 409.091C427.815 409.456 427.686 409.771 427.43 410.038C427.178 410.299 426.863 410.43 426.483 410.43C426.108 410.43 425.792 410.299 425.536 410.038C425.279 409.771 425.151 409.456 425.151 409.091ZM447.595 405.229V411.791C447.595 412.388 447.504 412.928 447.322 413.412C447.139 413.895 446.87 414.307 446.515 414.647C446.165 414.988 445.733 415.249 445.22 415.432C444.712 415.614 444.13 415.705 443.474 415.705C442.813 415.705 442.241 415.622 441.757 415.454C441.279 415.281 440.818 415.045 440.374 414.744L441.299 413.249C441.649 413.491 441.977 413.661 442.283 413.76C442.589 413.853 442.936 413.9 443.326 413.9C443.854 413.9 444.293 413.732 444.643 413.397C444.998 413.057 445.176 412.531 445.176 411.821V407.004H442.024V405.229H447.595ZM453.109 407.367C453.918 407.367 454.606 407.539 455.173 407.885C455.741 408.23 456.175 408.716 456.476 409.342C456.777 409.964 456.927 410.694 456.927 411.532C456.927 412.406 456.774 413.158 456.468 413.789C456.167 414.416 455.733 414.897 455.166 415.232C454.599 415.567 453.913 415.735 453.109 415.735C452.31 415.735 451.624 415.57 451.052 415.239C450.485 414.909 450.048 414.43 449.743 413.804C449.442 413.178 449.291 412.425 449.291 411.547C449.291 410.714 449.442 409.984 449.743 409.357C450.048 408.731 450.485 408.242 451.052 407.892C451.624 407.542 452.31 407.367 453.109 407.367ZM453.109 409.091C452.631 409.091 452.276 409.288 452.044 409.683C451.817 410.072 451.703 410.694 451.703 411.547C451.703 412.415 451.817 413.044 452.044 413.434C452.276 413.824 452.631 414.019 453.109 414.019C453.588 414.019 453.94 413.824 454.167 413.434C454.399 413.044 454.515 412.41 454.515 411.532C454.515 410.684 454.399 410.065 454.167 409.675C453.94 409.286 453.588 409.091 453.109 409.091ZM461.731 414.063C462.12 414.063 462.433 414.001 462.67 413.878C462.912 413.755 463.033 413.57 463.033 413.323C463.033 413.155 462.986 413.015 462.892 412.901C462.799 412.788 462.618 412.679 462.352 412.576C462.086 412.472 461.691 412.349 461.168 412.206C460.69 412.078 460.266 411.915 459.896 411.717C459.531 411.52 459.245 411.266 459.037 410.955C458.835 410.645 458.734 410.257 458.734 409.794C458.734 409.325 458.865 408.908 459.126 408.543C459.388 408.178 459.772 407.892 460.28 407.685C460.788 407.473 461.41 407.367 462.145 407.367C462.845 407.367 463.455 407.458 463.972 407.641C464.495 407.818 464.947 408.045 465.326 408.321L464.394 409.698C464.069 409.495 463.718 409.335 463.344 409.217C462.969 409.093 462.591 409.032 462.212 409.032C461.832 409.032 461.548 409.083 461.361 409.187C461.178 409.286 461.087 409.436 461.087 409.638C461.087 409.771 461.134 409.887 461.227 409.986C461.326 410.08 461.509 410.178 461.775 410.282C462.041 410.381 462.431 410.504 462.944 410.652C463.452 410.795 463.894 410.96 464.268 411.148C464.648 411.335 464.942 411.587 465.149 411.902C465.356 412.213 465.46 412.625 465.46 413.138C465.46 413.71 465.29 414.191 464.949 414.581C464.609 414.966 464.157 415.254 463.595 415.447C463.033 415.639 462.416 415.735 461.745 415.735C460.986 415.735 460.315 415.627 459.733 415.41C459.151 415.192 458.655 414.906 458.246 414.551L459.422 413.234C459.728 413.471 460.073 413.668 460.458 413.826C460.848 413.984 461.272 414.063 461.731 414.063ZM469.479 412.235C469.533 412.665 469.644 413.012 469.812 413.279C469.985 413.54 470.204 413.732 470.47 413.856C470.737 413.974 471.035 414.033 471.366 414.033C471.726 414.033 472.074 413.974 472.409 413.856C472.744 413.737 473.067 413.58 473.378 413.382L474.318 414.655C473.948 414.971 473.499 415.229 472.971 415.432C472.448 415.634 471.852 415.735 471.181 415.735C470.283 415.735 469.531 415.558 468.924 415.202C468.317 414.842 467.861 414.349 467.555 413.723C467.249 413.096 467.096 412.376 467.096 411.562C467.096 410.788 467.244 410.085 467.54 409.453C467.836 408.817 468.268 408.311 468.835 407.937C469.407 407.557 470.105 407.367 470.929 407.367C471.679 407.367 472.328 407.527 472.875 407.848C473.428 408.168 473.854 408.63 474.155 409.231C474.461 409.833 474.614 410.556 474.614 411.399C474.614 411.532 474.609 411.676 474.599 411.828C474.594 411.981 474.584 412.117 474.569 412.235H469.479ZM470.929 408.935C470.51 408.935 470.172 409.086 469.915 409.387C469.659 409.688 469.504 410.169 469.449 410.83H472.335C472.33 410.257 472.219 409.799 472.002 409.453C471.785 409.108 471.427 408.935 470.929 408.935ZM480.675 407.367C481.361 407.367 481.913 407.537 482.333 407.877C482.752 408.218 483.058 408.699 483.25 409.32C483.447 409.942 483.546 410.679 483.546 411.532C483.546 412.341 483.428 413.064 483.191 413.7C482.954 414.332 482.611 414.83 482.162 415.195C481.714 415.555 481.169 415.735 480.527 415.735C479.763 415.735 479.141 415.461 478.663 414.914V418.517L476.325 418.761V407.626H478.396L478.5 408.506C478.821 408.097 479.171 407.806 479.551 407.633C479.93 407.456 480.305 407.367 480.675 407.367ZM479.95 409.091C479.679 409.091 479.44 409.172 479.232 409.335C479.025 409.498 478.835 409.72 478.663 410.001V413.316C478.825 413.557 478.996 413.735 479.173 413.848C479.356 413.962 479.57 414.019 479.817 414.019C480.231 414.019 480.554 413.831 480.786 413.456C481.018 413.076 481.134 412.445 481.134 411.562C481.134 410.911 481.087 410.408 480.993 410.053C480.9 409.693 480.764 409.443 480.586 409.305C480.409 409.162 480.197 409.091 479.95 409.091ZM487.536 404.274V408.403C487.866 408.052 488.224 407.794 488.609 407.626C488.998 407.453 489.41 407.367 489.844 407.367C490.545 407.367 491.08 407.572 491.45 407.981C491.82 408.39 492.005 408.967 492.005 409.712V415.484H489.667V410.363C489.667 409.89 489.612 409.559 489.504 409.372C489.4 409.185 489.203 409.091 488.912 409.091C488.749 409.091 488.589 409.13 488.431 409.209C488.278 409.283 488.128 409.392 487.98 409.535C487.832 409.678 487.684 409.848 487.536 410.045V415.484H485.198V404.503L487.536 404.274ZM510.313 412.487C510.313 413.123 510.145 413.686 509.81 414.174C509.479 414.662 509.003 415.045 508.382 415.321C507.76 415.597 507.013 415.735 506.14 415.735C505.173 415.735 504.362 415.595 503.706 415.313C503.055 415.027 502.515 414.675 502.085 414.255L503.314 412.894C503.693 413.224 504.113 413.481 504.571 413.663C505.03 413.841 505.533 413.93 506.081 413.93C506.421 413.93 506.72 413.88 506.976 413.782C507.233 413.683 507.432 413.54 507.575 413.353C507.718 413.165 507.79 412.938 507.79 412.672C507.79 412.42 507.733 412.208 507.62 412.036C507.506 411.863 507.314 411.708 507.043 411.569C506.776 411.431 506.404 411.291 505.925 411.148C505.126 410.901 504.483 410.63 503.994 410.334C503.511 410.038 503.158 409.695 502.936 409.305C502.719 408.916 502.611 408.462 502.611 407.944C502.611 407.317 502.783 406.782 503.129 406.338C503.479 405.894 503.947 405.557 504.534 405.325C505.121 405.088 505.768 404.97 506.473 404.97C507.267 404.97 507.968 405.085 508.574 405.317C509.181 405.544 509.706 405.87 510.15 406.294L509.003 407.611C508.658 407.32 508.286 407.105 507.886 406.967C507.487 406.824 507.08 406.753 506.665 406.753C506.36 406.753 506.091 406.792 505.859 406.871C505.627 406.945 505.447 407.056 505.319 407.204C505.19 407.352 505.126 407.537 505.126 407.759C505.126 407.976 505.188 408.159 505.311 408.306C505.435 408.454 505.649 408.595 505.955 408.728C506.261 408.856 506.685 409.007 507.228 409.18C507.874 409.377 508.426 409.614 508.885 409.89C509.349 410.161 509.701 410.504 509.943 410.918C510.19 411.333 510.313 411.856 510.313 412.487ZM518.431 413.219C518.431 413.515 518.471 413.73 518.55 413.863C518.634 413.996 518.767 414.097 518.949 414.166L518.468 415.705C518.005 415.661 517.613 415.56 517.292 415.402C516.976 415.239 516.727 414.995 516.545 414.67C516.244 415.03 515.859 415.299 515.39 415.476C514.922 415.649 514.443 415.735 513.955 415.735C513.146 415.735 512.5 415.506 512.016 415.047C511.538 414.583 511.299 413.989 511.299 413.264C511.299 412.41 511.632 411.752 512.298 411.288C512.968 410.825 513.911 410.593 515.124 410.593H516.182V410.297C516.182 409.887 516.049 409.584 515.783 409.387C515.521 409.189 515.136 409.091 514.628 409.091C514.377 409.091 514.054 409.128 513.659 409.202C513.264 409.271 512.87 409.372 512.475 409.505L511.935 407.951C512.443 407.759 512.971 407.613 513.518 407.515C514.071 407.416 514.564 407.367 514.998 407.367C516.167 407.367 517.03 407.606 517.588 408.085C518.15 408.558 518.431 409.244 518.431 410.141V413.219ZM514.761 414.063C515.013 414.063 515.277 413.989 515.553 413.841C515.829 413.688 516.039 413.473 516.182 413.197V411.925H515.605C514.954 411.925 514.475 412.026 514.17 412.228C513.864 412.425 513.711 412.716 513.711 413.101C513.711 413.402 513.802 413.639 513.985 413.811C514.172 413.979 514.431 414.063 514.761 414.063ZM520.69 415.484V407.626H522.732L522.895 408.536C523.245 408.141 523.615 407.848 524.004 407.655C524.394 407.463 524.838 407.367 525.336 407.367C526.007 407.367 526.535 407.572 526.92 407.981C527.304 408.39 527.497 408.967 527.497 409.712V415.484H525.159V410.386C525.159 410.065 525.136 409.811 525.092 409.624C525.048 409.431 524.969 409.295 524.855 409.217C524.747 409.133 524.596 409.091 524.404 409.091C524.241 409.091 524.081 409.128 523.923 409.202C523.77 409.271 523.62 409.372 523.472 409.505C523.324 409.638 523.176 409.799 523.028 409.986V415.484H520.69ZM536.636 415.025C536.33 415.222 535.96 415.39 535.526 415.528C535.092 415.666 534.604 415.735 534.061 415.735C533.035 415.735 532.273 415.474 531.775 414.951C531.277 414.423 531.028 413.708 531.028 412.805V409.239H529.378V407.626H531.028V405.924L533.366 405.643V407.626H535.896L535.667 409.239H533.366V412.805C533.366 413.195 533.455 413.473 533.632 413.641C533.81 413.809 534.093 413.893 534.483 413.893C534.759 413.893 535.011 413.861 535.238 413.797C535.47 413.727 535.677 413.641 535.859 413.538L536.636 415.025ZM543.238 407.626V413.885H545.235V415.484H538.672V413.885H540.9V409.224H538.746V407.626H543.238ZM541.824 403.512C542.229 403.512 542.559 403.638 542.816 403.889C543.072 404.141 543.201 404.454 543.201 404.829C543.201 405.204 543.072 405.52 542.816 405.776C542.559 406.028 542.229 406.153 541.824 406.153C541.415 406.153 541.08 406.028 540.818 405.776C540.562 405.52 540.433 405.204 540.433 404.829C540.433 404.454 540.562 404.141 540.818 403.889C541.08 403.638 541.415 403.512 541.824 403.512ZM553.923 413.219C553.923 413.515 553.963 413.73 554.042 413.863C554.126 413.996 554.259 414.097 554.441 414.166L553.96 415.705C553.497 415.661 553.105 415.56 552.784 415.402C552.468 415.239 552.219 414.995 552.037 414.67C551.736 415.03 551.351 415.299 550.882 415.476C550.414 415.649 549.935 415.735 549.447 415.735C548.638 415.735 547.992 415.506 547.508 415.047C547.03 414.583 546.791 413.989 546.791 413.264C546.791 412.41 547.124 411.752 547.79 411.288C548.46 410.825 549.403 410.593 550.616 410.593H551.674V410.297C551.674 409.887 551.541 409.584 551.275 409.387C551.013 409.189 550.628 409.091 550.12 409.091C549.869 409.091 549.546 409.128 549.151 409.202C548.756 409.271 548.362 409.372 547.967 409.505L547.427 407.951C547.935 407.759 548.463 407.613 549.01 407.515C549.563 407.416 550.056 407.367 550.49 407.367C551.659 407.367 552.523 407.606 553.08 408.085C553.642 408.558 553.923 409.244 553.923 410.141V413.219ZM550.254 414.063C550.505 414.063 550.769 413.989 551.045 413.841C551.321 413.688 551.531 413.473 551.674 413.197V411.925H551.097C550.446 411.925 549.967 412.026 549.662 412.228C549.356 412.425 549.203 412.716 549.203 413.101C549.203 413.402 549.294 413.639 549.477 413.811C549.664 413.979 549.923 414.063 550.254 414.063ZM563.159 406.368L563.706 408.085C563.43 408.193 563.107 408.272 562.737 408.321C562.367 408.371 561.936 408.395 561.442 408.395C561.936 408.607 562.311 408.871 562.567 409.187C562.828 409.498 562.959 409.907 562.959 410.415C562.959 410.923 562.824 411.377 562.552 411.777C562.281 412.171 561.896 412.482 561.398 412.709C560.9 412.936 560.31 413.049 559.63 413.049C559.462 413.049 559.304 413.042 559.156 413.027C559.008 413.012 558.863 412.99 558.72 412.96C558.636 413.005 558.572 413.069 558.527 413.153C558.483 413.237 558.461 413.323 558.461 413.412C558.461 413.535 558.51 413.646 558.609 413.745C558.712 413.843 558.951 413.893 559.326 413.893H560.614C561.225 413.893 561.753 413.991 562.197 414.189C562.646 414.386 562.994 414.655 563.24 414.995C563.487 415.336 563.61 415.725 563.61 416.164C563.61 416.968 563.258 417.602 562.552 418.066C561.847 418.529 560.799 418.761 559.408 418.761C558.401 418.761 557.622 418.658 557.07 418.451C556.522 418.248 556.14 417.957 555.923 417.577C555.711 417.203 555.605 416.756 555.605 416.238H557.676C557.676 416.465 557.721 416.65 557.809 416.793C557.903 416.941 558.078 417.05 558.335 417.119C558.596 417.188 558.974 417.222 559.467 417.222C559.965 417.222 560.345 417.183 560.606 417.104C560.868 417.025 561.045 416.916 561.139 416.778C561.238 416.645 561.287 416.495 561.287 416.327C561.287 416.095 561.196 415.908 561.013 415.765C560.831 415.622 560.542 415.55 560.148 415.55H558.897C558.049 415.55 557.432 415.395 557.047 415.084C556.663 414.768 556.47 414.401 556.47 413.982C556.47 413.69 556.547 413.414 556.7 413.153C556.857 412.891 557.077 412.672 557.358 412.494C556.855 412.228 556.495 411.915 556.278 411.555C556.061 411.19 555.952 410.753 555.952 410.245C555.952 409.653 556.103 409.145 556.404 408.721C556.705 408.292 557.119 407.961 557.647 407.729C558.179 407.498 558.786 407.382 559.467 407.382C560.054 407.391 560.564 407.352 560.998 407.263C561.433 407.17 561.822 407.044 562.168 406.886C562.513 406.723 562.843 406.55 563.159 406.368ZM559.526 408.898C559.156 408.898 558.863 409.017 558.646 409.254C558.429 409.485 558.32 409.806 558.32 410.215C558.32 410.65 558.431 410.982 558.653 411.214C558.875 411.446 559.166 411.562 559.526 411.562C559.916 411.562 560.212 411.446 560.414 411.214C560.621 410.982 560.725 410.64 560.725 410.186C560.725 409.747 560.624 409.424 560.421 409.217C560.219 409.004 559.921 408.898 559.526 408.898ZM568.458 407.367C569.267 407.367 569.955 407.539 570.523 407.885C571.09 408.23 571.524 408.716 571.825 409.342C572.126 409.964 572.276 410.694 572.276 411.532C572.276 412.406 572.123 413.158 571.817 413.789C571.517 414.416 571.082 414.897 570.515 415.232C569.948 415.567 569.262 415.735 568.458 415.735C567.659 415.735 566.974 415.57 566.401 415.239C565.834 414.909 565.398 414.43 565.092 413.804C564.791 413.178 564.64 412.425 564.64 411.547C564.64 410.714 564.791 409.984 565.092 409.357C565.398 408.731 565.834 408.242 566.401 407.892C566.974 407.542 567.659 407.367 568.458 407.367ZM568.458 409.091C567.98 409.091 567.625 409.288 567.393 409.683C567.166 410.072 567.052 410.694 567.052 411.547C567.052 412.415 567.166 413.044 567.393 413.434C567.625 413.824 567.98 414.019 568.458 414.019C568.937 414.019 569.289 413.824 569.516 413.434C569.748 413.044 569.864 412.41 569.864 411.532C569.864 410.684 569.748 410.065 569.516 409.675C569.289 409.286 568.937 409.091 568.458 409.091ZM587.795 408.573C587.795 408.208 587.726 407.907 587.588 407.67C587.455 407.428 587.25 407.251 586.974 407.137C586.702 407.019 586.36 406.96 585.945 406.96H585.117V410.312H586.071C586.431 410.312 586.739 410.25 586.996 410.127C587.252 410.003 587.45 409.813 587.588 409.557C587.726 409.3 587.795 408.972 587.795 408.573ZM590.296 408.565C590.296 409.36 590.126 410.016 589.785 410.534C589.445 411.052 588.969 411.439 588.357 411.695C587.746 411.947 587.035 412.073 586.226 412.073H585.117V415.484H582.69V405.229H585.916C587.307 405.229 588.385 405.505 589.149 406.057C589.914 406.61 590.296 407.446 590.296 408.565ZM595.077 407.367C595.886 407.367 596.574 407.539 597.142 407.885C597.709 408.23 598.143 408.716 598.444 409.342C598.745 409.964 598.895 410.694 598.895 411.532C598.895 412.406 598.742 413.158 598.436 413.789C598.136 414.416 597.701 414.897 597.134 415.232C596.567 415.567 595.881 415.735 595.077 415.735C594.278 415.735 593.593 415.57 593.02 415.239C592.453 414.909 592.017 414.43 591.711 413.804C591.41 413.178 591.259 412.425 591.259 411.547C591.259 410.714 591.41 409.984 591.711 409.357C592.017 408.731 592.453 408.242 593.02 407.892C593.593 407.542 594.278 407.367 595.077 407.367ZM595.077 409.091C594.599 409.091 594.244 409.288 594.012 409.683C593.785 410.072 593.671 410.694 593.671 411.547C593.671 412.415 593.785 413.044 594.012 413.434C594.244 413.824 594.599 414.019 595.077 414.019C595.556 414.019 595.908 413.824 596.135 413.434C596.367 413.044 596.483 412.41 596.483 411.532C596.483 410.684 596.367 410.065 596.135 409.675C595.908 409.286 595.556 409.091 595.077 409.091ZM600.621 415.484V413.915H601.657V409.18H600.621V407.626H603.44L603.869 409.394C604.15 408.718 604.508 408.215 604.942 407.885C605.381 407.554 605.916 407.389 606.547 407.389C606.814 407.389 607.05 407.411 607.258 407.456C607.465 407.495 607.66 407.552 607.842 407.626L607.132 409.557C606.989 409.517 606.846 409.488 606.703 409.468C606.56 409.448 606.402 409.439 606.229 409.439C605.716 409.439 605.265 409.648 604.875 410.067C604.49 410.487 604.197 411.019 603.995 411.666V413.915H605.548V415.484H600.621ZM605.941 410.911V408.617L606.288 407.626H607.842L607.406 410.911H605.941ZM616.493 415.025C616.187 415.222 615.817 415.39 615.383 415.528C614.949 415.666 614.461 415.735 613.918 415.735C612.892 415.735 612.13 415.474 611.632 414.951C611.134 414.423 610.885 413.708 610.885 412.805V409.239H609.235V407.626H610.885V405.924L613.223 405.643V407.626H615.753L615.524 409.239H613.223V412.805C613.223 413.195 613.312 413.473 613.489 413.641C613.667 413.809 613.95 413.893 614.34 413.893C614.616 413.893 614.868 413.861 615.095 413.797C615.327 413.727 615.534 413.641 615.716 413.538L616.493 415.025ZM623.095 407.626V413.885H625.092V415.484H618.53V413.885H620.757V409.224H618.604V407.626H623.095ZM621.682 403.512C622.086 403.512 622.416 403.638 622.673 403.889C622.929 404.141 623.058 404.454 623.058 404.829C623.058 405.204 622.929 405.52 622.673 405.776C622.416 406.028 622.086 406.153 621.682 406.153C621.272 406.153 620.937 406.028 620.675 405.776C620.419 405.52 620.291 405.204 620.291 404.829C620.291 404.454 620.419 404.141 620.675 403.889C620.937 403.638 621.272 403.512 621.682 403.512ZM631.265 404.503V413.012C631.265 413.328 631.354 413.555 631.531 413.693C631.714 413.826 631.963 413.893 632.279 413.893C632.481 413.893 632.676 413.871 632.863 413.826C633.05 413.777 633.226 413.72 633.388 413.656L633.951 415.217C633.684 415.355 633.364 415.476 632.989 415.58C632.614 415.683 632.177 415.735 631.679 415.735C630.732 415.735 630.037 415.464 629.593 414.921C629.149 414.374 628.927 413.641 628.927 412.724V406.102H626.611V404.503H631.265ZM640.138 404.503V413.012C640.138 413.328 640.227 413.555 640.404 413.693C640.587 413.826 640.836 413.893 641.152 413.893C641.354 413.893 641.549 413.871 641.736 413.826C641.923 413.777 642.099 413.72 642.261 413.656L642.824 415.217C642.557 415.355 642.237 415.476 641.862 415.58C641.487 415.683 641.05 415.735 640.552 415.735C639.605 415.735 638.91 415.464 638.466 414.921C638.022 414.374 637.8 413.641 637.8 412.724V406.102H635.484V404.503H640.138ZM651.527 413.219C651.527 413.515 651.566 413.73 651.645 413.863C651.729 413.996 651.862 414.097 652.044 414.166L651.563 415.705C651.1 415.661 650.708 415.56 650.387 415.402C650.071 415.239 649.822 414.995 649.64 414.67C649.339 415.03 648.954 415.299 648.486 415.476C648.017 415.649 647.538 415.735 647.05 415.735C646.241 415.735 645.595 415.506 645.112 415.047C644.633 414.583 644.394 413.989 644.394 413.264C644.394 412.41 644.727 411.752 645.393 411.288C646.064 410.825 647.006 410.593 648.219 410.593H649.277V410.297C649.277 409.887 649.144 409.584 648.878 409.387C648.616 409.189 648.231 409.091 647.723 409.091C647.472 409.091 647.149 409.128 646.754 409.202C646.36 409.271 645.965 409.372 645.57 409.505L645.03 407.951C645.538 407.759 646.066 407.613 646.614 407.515C647.166 407.416 647.659 407.367 648.093 407.367C649.262 407.367 650.126 407.606 650.683 408.085C651.245 408.558 651.527 409.244 651.527 410.141V413.219ZM647.857 414.063C648.108 414.063 648.372 413.989 648.648 413.841C648.925 413.688 649.134 413.473 649.277 413.197V411.925H648.7C648.049 411.925 647.571 412.026 647.265 412.228C646.959 412.425 646.806 412.716 646.806 413.101C646.806 413.402 646.897 413.639 647.08 413.811C647.267 413.979 647.526 414.063 647.857 414.063ZM653.985 411.762V409.942H660.392V411.762H653.985ZM669.665 405.229L670.242 415.484H668.126L668 411.096C667.99 410.687 667.985 410.321 667.985 410.001C667.99 409.68 667.997 409.379 668.007 409.098C668.017 408.812 668.032 408.526 668.052 408.24C668.076 407.949 668.101 407.633 668.126 407.293L666.971 413.737H665.137L663.893 407.293C663.923 407.618 663.948 407.927 663.967 408.218C663.992 408.504 664.009 408.792 664.019 409.083C664.029 409.374 664.037 409.688 664.041 410.023C664.046 410.354 664.044 410.724 664.034 411.133L663.96 415.484H661.881L662.458 405.229H664.952L666.091 411.858L667.171 405.229H669.665ZM678.146 413.219C678.146 413.515 678.185 413.73 678.264 413.863C678.348 413.996 678.481 414.097 678.663 414.166L678.183 415.705C677.719 415.661 677.327 415.56 677.006 415.402C676.69 415.239 676.441 414.995 676.259 414.67C675.958 415.03 675.573 415.299 675.105 415.476C674.636 415.649 674.157 415.735 673.669 415.735C672.86 415.735 672.214 415.506 671.731 415.047C671.252 414.583 671.013 413.989 671.013 413.264C671.013 412.41 671.346 411.752 672.012 411.288C672.683 410.825 673.625 410.593 674.838 410.593H675.896V410.297C675.896 409.887 675.763 409.584 675.497 409.387C675.235 409.189 674.851 409.091 674.342 409.091C674.091 409.091 673.768 409.128 673.373 409.202C672.979 409.271 672.584 409.372 672.189 409.505L671.649 407.951C672.157 407.759 672.685 407.613 673.233 407.515C673.785 407.416 674.278 407.367 674.712 407.367C675.881 407.367 676.745 407.606 677.302 408.085C677.864 408.558 678.146 409.244 678.146 410.141V413.219ZM674.476 414.063C674.727 414.063 674.991 413.989 675.267 413.841C675.544 413.688 675.753 413.473 675.896 413.197V411.925H675.319C674.668 411.925 674.19 412.026 673.884 412.228C673.578 412.425 673.425 412.716 673.425 413.101C673.425 413.402 673.516 413.639 673.699 413.811C673.886 413.979 674.145 414.063 674.476 414.063ZM680.478 415.484V413.915H681.514V409.18H680.478V407.626H683.297L683.726 409.394C684.007 408.718 684.365 408.215 684.799 407.885C685.238 407.554 685.773 407.389 686.404 407.389C686.671 407.389 686.908 407.411 687.115 407.456C687.322 407.495 687.517 407.552 687.699 407.626L686.989 409.557C686.846 409.517 686.703 409.488 686.56 409.468C686.417 409.448 686.259 409.439 686.086 409.439C685.573 409.439 685.122 409.648 684.732 410.067C684.348 410.487 684.054 411.019 683.852 411.666V413.915H685.406V415.484H680.478ZM685.798 410.911V408.617L686.145 407.626H687.699L687.263 410.911H685.798ZM696.35 415.025C696.044 415.222 695.675 415.39 695.24 415.528C694.806 415.666 694.318 415.735 693.775 415.735C692.749 415.735 691.987 415.474 691.489 414.951C690.991 414.423 690.742 413.708 690.742 412.805V409.239H689.092V407.626H690.742V405.924L693.08 405.643V407.626H695.61L695.381 409.239H693.08V412.805C693.08 413.195 693.169 413.473 693.346 413.641C693.524 413.809 693.808 413.893 694.197 413.893C694.473 413.893 694.725 413.861 694.952 413.797C695.184 413.727 695.391 413.641 695.573 413.538L696.35 415.025ZM702.952 407.626V413.885H704.95V415.484H698.387V413.885H700.614V409.224H698.461V407.626H702.952ZM702.663 403.127L703.573 404.888L700.081 406.272L699.437 405.088L702.663 403.127ZM707.023 415.484V407.626H709.065L709.228 408.536C709.578 408.141 709.948 407.848 710.338 407.655C710.727 407.463 711.171 407.367 711.669 407.367C712.34 407.367 712.868 407.572 713.253 407.981C713.638 408.39 713.83 408.967 713.83 409.712V415.484H711.492V410.386C711.492 410.065 711.47 409.811 711.425 409.624C711.381 409.431 711.302 409.295 711.189 409.217C711.08 409.133 710.93 409.091 710.737 409.091C710.574 409.091 710.414 409.128 710.256 409.202C710.103 409.271 709.953 409.372 709.805 409.505C709.657 409.638 709.509 409.799 709.361 409.986V415.484H707.023ZM717.923 412.235C717.977 412.665 718.088 413.012 718.256 413.279C718.429 413.54 718.648 413.732 718.915 413.856C719.181 413.974 719.479 414.033 719.81 414.033C720.17 414.033 720.518 413.974 720.853 413.856C721.189 413.737 721.512 413.58 721.822 413.382L722.762 414.655C722.392 414.971 721.943 415.229 721.416 415.432C720.893 415.634 720.296 415.735 719.625 415.735C718.727 415.735 717.975 415.558 717.368 415.202C716.762 414.842 716.305 414.349 715.999 413.723C715.694 413.096 715.541 412.376 715.541 411.562C715.541 410.788 715.689 410.085 715.985 409.453C716.281 408.817 716.712 408.311 717.28 407.937C717.852 407.557 718.55 407.367 719.373 407.367C720.123 407.367 720.772 407.527 721.319 407.848C721.872 408.168 722.299 408.63 722.599 409.231C722.905 409.833 723.058 410.556 723.058 411.399C723.058 411.532 723.053 411.676 723.043 411.828C723.038 411.981 723.029 412.117 723.014 412.235H717.923ZM719.373 408.935C718.954 408.935 718.616 409.086 718.36 409.387C718.103 409.688 717.948 410.169 717.894 410.83H720.779C720.774 410.257 720.663 409.799 720.446 409.453C720.229 409.108 719.872 408.935 719.373 408.935ZM727.558 413.715H731.495L731.273 415.484H724.798V413.834L728.698 409.387H725.124V407.626H731.421V409.268L727.558 413.715ZM746.673 402.165V419.923H745.164V402.165H746.673ZM763.443 405.066C764.182 405.066 764.814 405.174 765.337 405.391C765.86 405.603 766.291 405.902 766.631 406.287C766.977 406.666 767.246 407.115 767.438 407.633C767.63 408.151 767.766 408.713 767.845 409.32C767.924 409.927 767.963 410.556 767.963 411.207C767.963 412.45 767.904 413.491 767.786 414.329C767.667 415.163 767.445 415.789 767.12 416.209C766.799 416.633 766.336 416.845 765.729 416.845C765.433 416.845 765.174 416.778 764.952 416.645C764.735 416.512 764.555 416.339 764.412 416.127C764.274 415.92 764.168 415.696 764.094 415.454C764.025 415.207 763.985 414.975 763.975 414.758H763.916C763.817 414.995 763.682 415.222 763.509 415.439C763.336 415.656 763.117 415.834 762.851 415.972C762.584 416.11 762.259 416.179 761.874 416.179C761.321 416.179 760.878 416.031 760.542 415.735C760.207 415.444 759.963 415.042 759.81 414.529C759.657 414.016 759.58 413.436 759.58 412.79C759.58 411.532 759.837 410.573 760.35 409.912C760.863 409.246 761.605 408.913 762.577 408.913C762.942 408.913 763.302 408.958 763.657 409.046C764.017 409.13 764.404 409.283 764.819 409.505V413.9C764.819 414.369 764.856 414.731 764.93 414.988C765.004 415.244 765.105 415.422 765.233 415.521C765.366 415.619 765.517 415.668 765.684 415.668C765.882 415.668 766.035 415.567 766.143 415.365C766.257 415.163 766.338 414.872 766.387 414.492C766.437 414.107 766.466 413.644 766.476 413.101C766.486 412.558 766.491 411.947 766.491 411.266C766.491 410.536 766.449 409.868 766.365 409.261C766.286 408.649 766.136 408.122 765.914 407.678C765.697 407.234 765.386 406.891 764.982 406.649C764.577 406.407 764.052 406.287 763.406 406.287C762.907 406.287 762.382 406.38 761.83 406.568C761.282 406.755 760.705 407.115 760.098 407.648L759.299 406.723C759.97 406.141 760.648 405.719 761.334 405.458C762.024 405.196 762.727 405.066 763.443 405.066ZM762.599 410.038C762.032 410.038 761.645 410.26 761.437 410.704C761.23 411.143 761.127 411.838 761.127 412.79C761.127 413.264 761.156 413.668 761.215 414.004C761.275 414.339 761.378 414.596 761.526 414.773C761.674 414.951 761.874 415.04 762.126 415.04C762.426 415.04 762.661 414.971 762.828 414.832C762.996 414.694 763.122 414.532 763.206 414.344C763.29 414.152 763.354 413.984 763.398 413.841V410.23C763.265 410.161 763.137 410.112 763.013 410.082C762.89 410.053 762.752 410.038 762.599 410.038ZM775.897 405.229V411.791C775.897 412.388 775.805 412.928 775.623 413.412C775.44 413.895 775.172 414.307 774.816 414.647C774.466 414.988 774.035 415.249 773.522 415.432C773.013 415.614 772.431 415.705 771.775 415.705C771.114 415.705 770.542 415.622 770.059 415.454C769.58 415.281 769.119 415.045 768.675 414.744L769.6 413.249C769.95 413.491 770.278 413.661 770.584 413.76C770.89 413.853 771.238 413.9 771.627 413.9C772.155 413.9 772.594 413.732 772.944 413.397C773.3 413.057 773.477 412.531 773.477 411.821V407.004H770.325V405.229H775.897ZM781.41 407.367C782.219 407.367 782.908 407.539 783.475 407.885C784.042 408.23 784.476 408.716 784.777 409.342C785.078 409.964 785.228 410.694 785.228 411.532C785.228 412.406 785.075 413.158 784.77 413.789C784.469 414.416 784.035 414.897 783.467 415.232C782.9 415.567 782.215 415.735 781.41 415.735C780.611 415.735 779.926 415.57 779.354 415.239C778.786 414.909 778.35 414.43 778.044 413.804C777.743 413.178 777.593 412.425 777.593 411.547C777.593 410.714 777.743 409.984 778.044 409.357C778.35 408.731 778.786 408.242 779.354 407.892C779.926 407.542 780.611 407.367 781.41 407.367ZM781.41 409.091C780.932 409.091 780.577 409.288 780.345 409.683C780.118 410.072 780.005 410.694 780.005 411.547C780.005 412.415 780.118 413.044 780.345 413.434C780.577 413.824 780.932 414.019 781.41 414.019C781.889 414.019 782.242 413.824 782.469 413.434C782.7 413.044 782.816 412.41 782.816 411.532C782.816 410.684 782.7 410.065 782.469 409.675C782.242 409.286 781.889 409.091 781.41 409.091ZM788.907 412.235C788.962 412.665 789.073 413.012 789.24 413.279C789.413 413.54 789.632 413.732 789.899 413.856C790.165 413.974 790.464 414.033 790.794 414.033C791.154 414.033 791.502 413.974 791.837 413.856C792.173 413.737 792.496 413.58 792.807 413.382L793.746 414.655C793.376 414.971 792.927 415.229 792.4 415.432C791.877 415.634 791.28 415.735 790.609 415.735C789.711 415.735 788.959 415.558 788.352 415.202C787.746 414.842 787.289 414.349 786.984 413.723C786.678 413.096 786.525 412.376 786.525 411.562C786.525 410.788 786.673 410.085 786.969 409.453C787.265 408.817 787.696 408.311 788.264 407.937C788.836 407.557 789.534 407.367 790.358 407.367C791.107 407.367 791.756 407.527 792.303 407.848C792.856 408.168 793.283 408.63 793.583 409.231C793.889 409.833 794.042 410.556 794.042 411.399C794.042 411.532 794.037 411.676 794.027 411.828C794.022 411.981 794.013 412.117 793.998 412.235H788.907ZM790.358 408.935C789.938 408.935 789.6 409.086 789.344 409.387C789.087 409.688 788.932 410.169 788.878 410.83H791.763C791.758 410.257 791.647 409.799 791.43 409.453C791.213 409.108 790.856 408.935 790.358 408.935ZM800.747 408.573C800.747 408.208 800.678 407.907 800.54 407.67C800.407 407.428 800.202 407.251 799.926 407.137C799.655 407.019 799.312 406.96 798.898 406.96H798.069V410.312H799.023C799.383 410.312 799.692 410.25 799.948 410.127C800.205 410.003 800.402 409.813 800.54 409.557C800.678 409.3 800.747 408.972 800.747 408.573ZM803.248 408.565C803.248 409.36 803.078 410.016 802.738 410.534C802.397 411.052 801.921 411.439 801.31 411.695C800.698 411.947 799.988 412.073 799.179 412.073H798.069V415.484H795.642V405.229H798.868C800.259 405.229 801.337 405.505 802.101 406.057C802.866 406.61 803.248 407.446 803.248 408.565ZM808.03 407.367C808.839 407.367 809.527 407.539 810.094 407.885C810.661 408.23 811.095 408.716 811.396 409.342C811.697 409.964 811.847 410.694 811.847 411.532C811.847 412.406 811.695 413.158 811.389 413.789C811.088 414.416 810.654 414.897 810.086 415.232C809.519 415.567 808.834 415.735 808.03 415.735C807.23 415.735 806.545 415.57 805.973 415.239C805.405 414.909 804.969 414.43 804.663 413.804C804.362 413.178 804.212 412.425 804.212 411.547C804.212 410.714 804.362 409.984 804.663 409.357C804.969 408.731 805.405 408.242 805.973 407.892C806.545 407.542 807.23 407.367 808.03 407.367ZM808.03 409.091C807.551 409.091 807.196 409.288 806.964 409.683C806.737 410.072 806.624 410.694 806.624 411.547C806.624 412.415 806.737 413.044 806.964 413.434C807.196 413.824 807.551 414.019 808.03 414.019C808.508 414.019 808.861 413.824 809.088 413.434C809.319 413.044 809.435 412.41 809.435 411.532C809.435 410.684 809.319 410.065 809.088 409.675C808.861 409.286 808.508 409.091 808.03 409.091ZM813.573 415.484V413.915H814.609V409.18H813.573V407.626H816.392L816.821 409.394C817.102 408.718 817.46 408.215 817.894 407.885C818.333 407.554 818.868 407.389 819.5 407.389C819.766 407.389 820.003 407.411 820.21 407.456C820.417 407.495 820.612 407.552 820.794 407.626L820.084 409.557C819.941 409.517 819.798 409.488 819.655 409.468C819.512 409.448 819.354 409.439 819.181 409.439C818.668 409.439 818.217 409.648 817.827 410.067C817.443 410.487 817.149 411.019 816.947 411.666V413.915H818.501V415.484H813.573ZM818.893 410.911V408.617L819.241 407.626H820.794L820.358 410.911H818.893ZM829.445 415.025C829.14 415.222 828.77 415.39 828.336 415.528C827.902 415.666 827.413 415.735 826.871 415.735C825.845 415.735 825.083 415.474 824.584 414.951C824.086 414.423 823.837 413.708 823.837 412.805V409.239H822.187V407.626H823.837V405.924L826.175 405.643V407.626H828.706L828.476 409.239H826.175V412.805C826.175 413.195 826.264 413.473 826.441 413.641C826.619 413.809 826.903 413.893 827.292 413.893C827.569 413.893 827.82 413.861 828.047 413.797C828.279 413.727 828.486 413.641 828.669 413.538L829.445 415.025ZM836.047 407.626V413.885H838.045V415.484H831.482V413.885H833.709V409.224H831.556V407.626H836.047ZM834.634 403.512C835.038 403.512 835.369 403.638 835.625 403.889C835.882 404.141 836.01 404.454 836.01 404.829C836.01 405.204 835.882 405.52 835.625 405.776C835.369 406.028 835.038 406.153 834.634 406.153C834.224 406.153 833.889 406.028 833.628 405.776C833.371 405.52 833.243 405.204 833.243 404.829C833.243 404.454 833.371 404.141 833.628 403.889C833.889 403.638 834.224 403.512 834.634 403.512ZM844.217 404.503V413.012C844.217 413.328 844.306 413.555 844.483 413.693C844.666 413.826 844.915 413.893 845.231 413.893C845.433 413.893 845.628 413.871 845.815 413.826C846.003 413.777 846.178 413.72 846.341 413.656L846.903 415.217C846.637 415.355 846.316 415.476 845.941 415.58C845.566 415.683 845.13 415.735 844.631 415.735C843.684 415.735 842.989 415.464 842.545 414.921C842.101 414.374 841.879 413.641 841.879 412.724V406.102H839.563V404.503H844.217ZM853.09 404.503V413.012C853.09 413.328 853.179 413.555 853.356 413.693C853.539 413.826 853.788 413.893 854.104 413.893C854.306 413.893 854.501 413.871 854.688 413.826C854.876 413.777 855.051 413.72 855.214 413.656L855.776 415.217C855.51 415.355 855.189 415.476 854.814 415.58C854.439 415.683 854.003 415.735 853.504 415.735C852.557 415.735 851.862 415.464 851.418 414.921C850.974 414.374 850.752 413.641 850.752 412.724V406.102H848.436V404.503H853.09ZM864.479 413.219C864.479 413.515 864.518 413.73 864.597 413.863C864.681 413.996 864.814 414.097 864.997 414.166L864.516 415.705C864.052 415.661 863.66 415.56 863.339 415.402C863.024 415.239 862.775 414.995 862.592 414.67C862.291 415.03 861.906 415.299 861.438 415.476C860.969 415.649 860.491 415.735 860.002 415.735C859.193 415.735 858.547 415.506 858.064 415.047C857.585 414.583 857.346 413.989 857.346 413.264C857.346 412.41 857.679 411.752 858.345 411.288C859.016 410.825 859.958 410.593 861.171 410.593H862.229V410.297C862.229 409.887 862.096 409.584 861.83 409.387C861.568 409.189 861.184 409.091 860.676 409.091C860.424 409.091 860.101 409.128 859.706 409.202C859.312 409.271 858.917 409.372 858.523 409.505L857.982 407.951C858.49 407.759 859.018 407.613 859.566 407.515C860.118 407.416 860.612 407.367 861.046 407.367C862.215 407.367 863.078 407.606 863.635 408.085C864.198 408.558 864.479 409.244 864.479 410.141V413.219ZM860.809 414.063C861.06 414.063 861.324 413.989 861.601 413.841C861.877 413.688 862.086 413.473 862.229 413.197V411.925H861.652C861.001 411.925 860.523 412.026 860.217 412.228C859.911 412.425 859.758 412.716 859.758 413.101C859.758 413.402 859.849 413.639 860.032 413.811C860.219 413.979 860.478 414.063 860.809 414.063Z" fill="black"/>
<path d="M171.232 60L179.892 75L162.571 75L171.232 60ZM171.232 335L169.732 335L169.732 73.5L171.232 73.5L172.732 73.5L172.732 335L171.232 335Z" fill="black"/>
<path d="M171.232 336.5C170.403 336.5 169.732 335.828 169.732 335C169.732 334.172 170.403 333.5 171.232 333.5V336.5ZM446.232 335L431.232 343.66V326.34L446.232 335ZM171.232 335V333.5L432.732 333.5V335V336.5L171.232 336.5V335Z" fill="black"/>
<path d="M171.232 329L171.232 340" stroke="black" stroke-width="2" stroke-linecap="round"/>
<path d="M166.232 335H177.232" stroke="black" stroke-width="2" stroke-linecap="round"/>
<path d="M166.232 235H177.232" stroke="black" stroke-width="2" stroke-linecap="round"/>
<path d="M166.232 135H177.232" stroke="black" stroke-width="2" stroke-linecap="round"/>
<path d="M271.232 329L271.232 340" stroke="black" stroke-width="2" stroke-linecap="round"/>
<path d="M371.232 329L371.232 340" stroke="black" stroke-width="2" stroke-linecap="round"/>
<path d="M382.076 226.6C382.076 227.68 382.164 228.668 382.34 229.564C382.516 230.452 382.792 231.296 383.168 232.096C383.544 232.888 384.032 233.676 384.632 234.46C385.24 235.244 385.976 236.076 386.84 236.956L385.04 238.636C383.76 237.556 382.656 236.428 381.728 235.252C380.808 234.076 380.096 232.784 379.592 231.376C379.096 229.968 378.848 228.376 378.848 226.6C378.848 224.824 379.096 223.232 379.592 221.824C380.096 220.408 380.808 219.116 381.728 217.948C382.656 216.772 383.76 215.644 385.04 214.564L386.84 216.244C386.016 217.084 385.304 217.896 384.704 218.68C384.104 219.464 383.608 220.26 383.216 221.068C382.832 221.868 382.544 222.72 382.352 223.624C382.168 224.52 382.076 225.512 382.076 226.6ZM397.186 218.044C398.378 218.044 399.378 218.256 400.186 218.68C401.002 219.104 401.618 219.676 402.034 220.396C402.45 221.108 402.658 221.892 402.658 222.748C402.658 223.452 402.538 224.14 402.298 224.812C402.058 225.484 401.666 226.192 401.122 226.936C400.586 227.68 399.874 228.508 398.986 229.42C398.098 230.324 397.002 231.356 395.698 232.516H403.042L402.694 235H392.074V232.684C393.218 231.58 394.206 230.608 395.038 229.768C395.87 228.92 396.566 228.172 397.126 227.524C397.694 226.876 398.142 226.296 398.47 225.784C398.806 225.264 399.046 224.78 399.19 224.332C399.334 223.884 399.406 223.436 399.406 222.988C399.406 222.228 399.186 221.628 398.746 221.188C398.314 220.748 397.706 220.528 396.922 220.528C396.226 220.528 395.634 220.664 395.146 220.936C394.666 221.2 394.194 221.632 393.73 222.232L391.738 220.72C392.37 219.872 393.122 219.216 393.994 218.752C394.866 218.28 395.93 218.044 397.186 218.044ZM412.213 230.404C412.893 230.404 413.457 230.632 413.905 231.088C414.361 231.544 414.589 232.104 414.589 232.768C414.589 233.176 414.521 233.588 414.385 234.004C414.249 234.412 414.041 234.936 413.761 235.576L411.949 239.68H409.669L410.869 234.712C410.549 234.496 410.301 234.216 410.125 233.872C409.949 233.528 409.861 233.156 409.861 232.756C409.861 232.092 410.085 231.536 410.533 231.088C410.981 230.632 411.541 230.404 412.213 230.404ZM443.502 218.404V234.52H440.394V221.596L436.854 223.792L435.498 221.596L440.706 218.404H443.502ZM446.73 232.564V235H436.374V232.564H446.73ZM456.741 226.6C456.741 225.512 456.645 224.52 456.453 223.624C456.269 222.72 455.981 221.868 455.589 221.068C455.205 220.26 454.713 219.464 454.113 218.68C453.513 217.896 452.801 217.084 451.977 216.244L453.777 214.564C455.057 215.644 456.157 216.772 457.077 217.948C458.005 219.116 458.717 220.408 459.213 221.824C459.717 223.232 459.969 224.824 459.969 226.6C459.969 228.376 459.717 229.968 459.213 231.376C458.717 232.784 458.005 234.076 457.077 235.252C456.157 236.428 455.057 237.556 453.777 238.636L451.977 236.956C452.841 236.076 453.573 235.244 454.173 234.46C454.781 233.676 455.273 232.888 455.649 232.096C456.025 231.296 456.301 230.452 456.477 229.564C456.653 228.668 456.741 227.68 456.741 226.6Z" fill="black"/>
<path d="M959.844 105.6C959.844 106.68 959.932 107.668 960.108 108.564C960.284 109.452 960.56 110.296 960.936 111.096C961.312 111.888 961.8 112.676 962.4 113.46C963.008 114.244 963.744 115.076 964.608 115.956L962.808 117.636C961.528 116.556 960.424 115.428 959.496 114.252C958.576 113.076 957.864 111.784 957.36 110.376C956.864 108.968 956.616 107.376 956.616 105.6C956.616 103.824 956.864 102.232 957.36 100.824C957.864 99.408 958.576 98.116 959.496 96.948C960.424 95.772 961.528 94.644 962.808 93.564L964.608 95.244C963.784 96.084 963.072 96.896 962.472 97.68C961.872 98.464 961.376 99.26 960.984 100.068C960.6 100.868 960.312 101.72 960.12 102.624C959.936 103.52 959.844 104.512 959.844 105.6ZM974.955 97.044C976.147 97.044 977.147 97.256 977.955 97.68C978.771 98.104 979.387 98.676 979.803 99.396C980.219 100.108 980.427 100.892 980.427 101.748C980.427 102.452 980.307 103.14 980.067 103.812C979.827 104.484 979.435 105.192 978.891 105.936C978.355 106.68 977.643 107.508 976.755 108.42C975.867 109.324 974.771 110.356 973.467 111.516H980.811L980.463 114H969.843V111.684C970.987 110.58 971.975 109.608 972.807 108.768C973.639 107.92 974.335 107.172 974.895 106.524C975.463 105.876 975.911 105.296 976.239 104.784C976.575 104.264 976.815 103.78 976.959 103.332C977.103 102.884 977.175 102.436 977.175 101.988C977.175 101.228 976.955 100.628 976.515 100.188C976.083 99.748 975.475 99.528 974.691 99.528C973.995 99.528 973.403 99.664 972.915 99.936C972.435 100.2 971.963 100.632 971.499 101.232L969.507 99.72C970.139 98.872 970.891 98.216 971.763 97.752C972.635 97.28 973.699 97.044 974.955 97.044ZM989.981 109.404C990.661 109.404 991.225 109.632 991.673 110.088C992.129 110.544 992.357 111.104 992.357 111.768C992.357 112.176 992.289 112.588 992.153 113.004C992.017 113.412 991.809 113.936 991.529 114.576L989.717 118.68H987.437L988.637 113.712C988.317 113.496 988.069 113.216 987.893 112.872C987.717 112.528 987.629 112.156 987.629 111.756C987.629 111.092 987.853 110.536 988.301 110.088C988.749 109.632 989.309 109.404 989.981 109.404ZM1018.07 97.044C1019.21 97.044 1020.19 97.236 1020.99 97.62C1021.81 97.996 1022.43 98.504 1022.87 99.144C1023.3 99.784 1023.51 100.488 1023.51 101.256C1023.51 101.944 1023.37 102.556 1023.08 103.092C1022.8 103.62 1022.41 104.06 1021.91 104.412C1021.41 104.764 1020.83 105.024 1020.18 105.192C1020.91 105.28 1021.56 105.48 1022.13 105.792C1022.72 106.096 1023.18 106.536 1023.53 107.112C1023.87 107.68 1024.04 108.408 1024.04 109.296C1024.04 110.232 1023.79 111.084 1023.29 111.852C1022.78 112.62 1022.07 113.232 1021.14 113.688C1020.22 114.136 1019.13 114.36 1017.86 114.36C1016.73 114.36 1015.69 114.16 1014.73 113.76C1013.77 113.352 1012.95 112.756 1012.28 111.972L1014.14 110.292C1014.61 110.844 1015.15 111.248 1015.76 111.504C1016.38 111.76 1017.02 111.888 1017.68 111.888C1018.62 111.888 1019.37 111.648 1019.93 111.168C1020.49 110.68 1020.78 109.996 1020.78 109.116C1020.78 108.46 1020.65 107.936 1020.41 107.544C1020.16 107.144 1019.81 106.856 1019.35 106.68C1018.9 106.496 1018.37 106.404 1017.75 106.404H1016.28L1016.65 104.148H1017.69C1018.2 104.148 1018.65 104.06 1019.06 103.884C1019.48 103.708 1019.81 103.44 1020.05 103.08C1020.29 102.72 1020.42 102.268 1020.42 101.724C1020.42 101.004 1020.17 100.444 1019.66 100.044C1019.16 99.636 1018.53 99.432 1017.77 99.432C1017.08 99.432 1016.47 99.56 1015.93 99.816C1015.39 100.072 1014.87 100.436 1014.37 100.908L1012.73 99.168C1013.46 98.456 1014.27 97.924 1015.16 97.572C1016.06 97.22 1017.03 97.044 1018.07 97.044ZM1033.15 109.404C1033.83 109.404 1034.4 109.632 1034.85 110.088C1035.3 110.544 1035.53 111.104 1035.53 111.768C1035.53 112.176 1035.46 112.588 1035.33 113.004C1035.19 113.412 1034.98 113.936 1034.7 114.576L1032.89 118.68H1030.61L1031.81 113.712C1031.49 113.496 1031.24 113.216 1031.07 112.872C1030.89 112.528 1030.8 112.156 1030.8 111.756C1030.8 111.092 1031.03 110.536 1031.47 110.088C1031.92 109.632 1032.48 109.404 1033.15 109.404ZM1060.73 97.044L1063.42 98.064L1059.32 107.916H1067.8V110.328H1056.03V108.168L1060.73 97.044ZM1065.98 103.668V114H1062.93L1062.89 108.3L1063.3 103.668H1065.98ZM1077.68 105.6C1077.68 104.512 1077.59 103.52 1077.39 102.624C1077.21 101.72 1076.92 100.868 1076.53 100.068C1076.15 99.26 1075.65 98.464 1075.05 97.68C1074.45 96.896 1073.74 96.084 1072.92 95.244L1074.72 93.564C1076 94.644 1077.1 95.772 1078.02 96.948C1078.95 98.116 1079.66 99.408 1080.15 100.824C1080.66 102.232 1080.91 103.824 1080.91 105.6C1080.91 107.376 1080.66 108.968 1080.15 110.376C1079.66 111.784 1078.95 113.076 1078.02 114.252C1077.1 115.428 1076 116.556 1074.72 117.636L1072.92 115.956C1073.78 115.076 1074.51 114.244 1075.11 113.46C1075.72 112.676 1076.21 111.888 1076.59 111.096C1076.97 110.296 1077.24 109.452 1077.42 108.564C1077.59 107.668 1077.68 106.68 1077.68 105.6Z" fill="black"/>
<path d="M371.232 235L353.946 233.894L361.631 249.416L371.232 235ZM169.232 335L169.897 336.344L359.798 242.334L359.133 240.989L358.467 239.645L168.566 333.656L169.232 335Z" fill="#C90000"/>
<path d="M460.097 329.238C460.805 329.134 461.522 329.238 462.25 329.55C462.812 329.799 463.239 330.153 463.53 330.611L463.655 330.767L463.78 330.579C464.3 329.955 464.934 329.529 465.683 329.3C466.599 329.05 467.431 329.217 468.18 329.799C468.326 329.903 468.45 330.018 468.554 330.143C468.804 330.434 468.97 330.777 469.054 331.172C469.262 331.859 469.21 332.535 468.898 333.201C468.565 333.908 468.003 334.304 467.212 334.387C466.547 334.449 466.089 334.21 465.839 333.669C465.777 333.565 465.735 333.399 465.714 333.17C465.714 332.816 465.787 332.494 465.933 332.202C466.099 331.828 466.401 331.526 466.838 331.297C467.025 331.214 467.119 331.152 467.119 331.11C467.036 330.985 466.89 330.871 466.682 330.767C466.578 330.725 466.422 330.704 466.214 330.704C466.006 330.704 465.85 330.725 465.746 330.767C465.226 331.058 464.82 331.609 464.529 332.421L462.719 339.63C462.573 340.275 462.542 340.753 462.625 341.065C462.791 341.627 463.239 341.897 463.967 341.877C464.217 341.856 464.456 341.804 464.685 341.721C465.517 341.408 466.203 340.691 466.744 339.567C466.89 339.276 467.004 338.985 467.088 338.693C467.171 338.423 467.264 338.277 467.368 338.256C467.431 338.236 467.649 338.225 468.024 338.225C468.482 338.225 468.731 338.246 468.773 338.288C468.877 338.371 468.887 338.548 468.804 338.818C468.638 339.505 468.346 340.139 467.93 340.722C466.848 342.303 465.527 343.177 463.967 343.343C463.925 343.343 463.884 343.343 463.842 343.343C462.635 343.406 461.668 343.01 460.94 342.157C460.898 342.137 460.867 342.105 460.846 342.064C460.721 341.918 460.649 341.835 460.628 341.814L460.44 342.033C460.149 342.365 459.858 342.615 459.567 342.782C458.943 343.177 458.329 343.364 457.725 343.343C457.33 343.322 456.935 343.218 456.54 343.031C455.874 342.719 455.437 342.157 455.229 341.346C455 340.306 455.187 339.442 455.791 338.756C456.373 338.194 457.008 338.017 457.694 338.225C457.944 338.309 458.142 338.433 458.287 338.6C458.682 339.037 458.703 339.619 458.35 340.347C458.162 340.743 457.871 341.044 457.476 341.252C457.289 341.356 457.184 341.408 457.164 341.408C457.164 341.492 457.32 341.616 457.632 341.783C457.715 341.825 457.861 341.845 458.069 341.845C458.277 341.845 458.433 341.825 458.537 341.783C459.057 341.512 459.452 340.972 459.723 340.16L461.595 332.795C461.637 332.587 461.658 332.296 461.658 331.921C461.658 331.63 461.637 331.432 461.595 331.328C461.345 330.788 460.815 330.59 460.004 330.736C459.234 330.881 458.547 331.401 457.944 332.296C457.59 332.858 457.33 333.44 457.164 334.044C457.101 334.168 457.06 334.241 457.039 334.262C456.997 334.304 456.748 334.324 456.29 334.324H455.603L455.51 334.231C455.447 334.168 455.416 334.085 455.416 333.981C455.499 333.44 455.791 332.785 456.29 332.015C456.311 331.973 456.331 331.932 456.352 331.89C457.268 330.455 458.443 329.581 459.879 329.269C459.962 329.269 460.035 329.258 460.097 329.238Z" fill="black"/>
<path d="M273.474 344.792L273.639 344.774H273.658C273.792 344.774 273.878 344.817 273.915 344.903C273.927 344.952 273.486 346.781 272.593 350.391C271.675 354.014 271.216 355.831 271.216 355.843C271.204 355.88 271.289 355.911 271.473 355.935C271.657 355.948 271.956 355.96 272.373 355.972C272.85 355.972 273.107 356.015 273.144 356.1C273.168 356.137 273.15 356.278 273.088 356.523C273.015 356.78 272.966 356.92 272.942 356.945L272.887 357H272.593C271.247 356.939 269.674 356.933 267.875 356.982C267.459 356.994 267.226 356.957 267.177 356.871C267.165 356.835 267.184 356.694 267.233 356.449C267.306 356.205 267.355 356.064 267.379 356.027L267.453 355.972H268.15C268.897 355.96 269.331 355.911 269.454 355.825C269.503 355.801 269.864 354.418 270.537 351.676L271.565 347.564L271.326 347.693C270.788 347.962 270.255 348.115 269.729 348.152C269.497 348.176 269.35 348.14 269.289 348.042L269.27 347.987L269.344 347.656C269.417 347.362 269.484 347.197 269.546 347.161C269.558 347.161 269.662 347.148 269.858 347.124C270.31 347.087 270.782 346.952 271.271 346.72C272.067 346.316 272.752 345.729 273.327 344.958C273.364 344.909 273.413 344.854 273.474 344.792Z" fill="black"/>
<path d="M156.474 227.792L156.639 227.774H156.658C156.792 227.774 156.878 227.817 156.915 227.903C156.927 227.952 156.486 229.781 155.593 233.391C154.675 237.014 154.216 238.831 154.216 238.843C154.204 238.88 154.289 238.911 154.473 238.935C154.657 238.948 154.956 238.96 155.373 238.972C155.85 238.972 156.107 239.015 156.144 239.1C156.168 239.137 156.15 239.278 156.088 239.523C156.015 239.78 155.966 239.92 155.942 239.945L155.887 240H155.593C154.247 239.939 152.674 239.933 150.875 239.982C150.459 239.994 150.226 239.957 150.177 239.871C150.165 239.835 150.184 239.694 150.233 239.449C150.306 239.205 150.355 239.064 150.379 239.027L150.453 238.972H151.15C151.897 238.96 152.331 238.911 152.454 238.825C152.503 238.801 152.864 237.418 153.537 234.676L154.565 230.564L154.326 230.693C153.788 230.962 153.255 231.115 152.729 231.152C152.497 231.176 152.35 231.14 152.289 231.042L152.27 230.987L152.344 230.656C152.417 230.362 152.484 230.197 152.546 230.161C152.558 230.161 152.662 230.148 152.858 230.124C153.31 230.087 153.782 229.952 154.271 229.72C155.067 229.316 155.752 228.729 156.327 227.958C156.364 227.909 156.413 227.854 156.474 227.792Z" fill="black"/>
<path d="M373.06 344.792L373.538 344.774H373.556C373.972 344.786 374.364 344.878 374.731 345.049C375.269 345.319 375.679 345.729 375.961 346.279C376.206 346.757 376.328 347.301 376.328 347.913C376.328 348.231 376.297 348.537 376.236 348.831C376.114 349.443 375.839 350.018 375.41 350.557C375.276 350.74 374.988 351.034 374.547 351.438C374.009 351.866 373.299 352.349 372.418 352.888C372.124 353.047 371.861 353.206 371.629 353.365C370.919 353.781 370.276 354.338 369.701 355.036C369.713 355.134 369.738 355.189 369.775 355.201C370.007 355.201 370.509 355.274 371.28 355.421C372.308 355.617 372.981 355.691 373.299 355.642C373.85 355.556 374.303 355.201 374.658 354.577C374.743 354.418 374.817 354.259 374.878 354.1C374.927 353.94 374.982 353.855 375.043 353.843C375.08 353.83 375.208 353.824 375.429 353.824H375.832L375.887 353.879C375.924 353.916 375.943 353.959 375.943 354.008C375.918 354.142 375.832 354.399 375.686 354.779C375.172 356.076 374.449 356.902 373.519 357.257C373.409 357.294 373.305 357.324 373.207 357.349C373.109 357.373 372.95 357.386 372.73 357.386C372.51 357.386 372.345 357.373 372.234 357.349C371.892 357.263 371.482 357.061 371.004 356.743C370.38 356.339 369.885 356.113 369.518 356.064C369.273 356.027 369.077 356.107 368.93 356.302C368.844 356.425 368.74 356.682 368.618 357.073C368.557 357.269 368.496 357.373 368.434 357.386C368.385 357.398 368.251 357.404 368.031 357.404H367.645L367.59 357.349C367.541 357.288 367.547 357.159 367.608 356.963C368.049 355.421 368.979 354.118 370.399 353.053C370.656 352.857 370.919 352.68 371.188 352.521C372.583 351.689 373.532 350.759 374.033 349.731C374.18 349.425 374.327 348.929 374.474 348.244C374.56 347.827 374.602 347.454 374.602 347.124C374.602 346.781 374.554 346.506 374.456 346.298C374.297 345.98 374.04 345.771 373.685 345.674C373.501 345.625 373.262 345.625 372.969 345.674C372.712 345.735 372.516 345.802 372.381 345.876C371.843 346.133 371.372 346.579 370.968 347.216C370.796 347.46 370.607 347.821 370.399 348.299C370.019 349.229 369.952 349.779 370.197 349.951C370.27 350 370.399 349.988 370.582 349.914C370.986 349.779 371.317 349.382 371.574 348.721C371.586 348.684 371.598 348.654 371.61 348.629C371.794 348.152 371.812 347.772 371.665 347.491C371.592 347.369 371.574 347.277 371.61 347.216C371.745 347.081 371.922 346.94 372.143 346.793C372.216 346.744 372.283 346.763 372.345 346.848C372.418 346.934 372.485 347.075 372.546 347.271C372.693 347.687 372.657 348.195 372.436 348.794C372.057 349.786 371.506 350.422 370.784 350.703C370.723 350.728 370.656 350.752 370.582 350.777C370.35 350.838 370.129 350.85 369.921 350.814C369.444 350.703 369.163 350.379 369.077 349.841C369.04 349.596 369.052 349.345 369.114 349.088C369.248 348.452 369.511 347.815 369.903 347.179C370.601 345.98 371.5 345.221 372.602 344.903C372.761 344.854 372.914 344.817 373.06 344.792Z" fill="black"/>
<path d="M155.06 127.792L155.538 127.774H155.556C155.972 127.786 156.364 127.878 156.731 128.049C157.269 128.319 157.679 128.729 157.961 129.279C158.206 129.757 158.328 130.301 158.328 130.913C158.328 131.231 158.297 131.537 158.236 131.831C158.114 132.443 157.839 133.018 157.41 133.557C157.276 133.74 156.988 134.034 156.547 134.438C156.009 134.866 155.299 135.349 154.418 135.888C154.124 136.047 153.861 136.206 153.629 136.365C152.919 136.781 152.276 137.338 151.701 138.036C151.713 138.134 151.738 138.189 151.775 138.201C152.007 138.201 152.509 138.274 153.28 138.421C154.308 138.617 154.981 138.691 155.299 138.642C155.85 138.556 156.303 138.201 156.658 137.577C156.743 137.418 156.817 137.259 156.878 137.1C156.927 136.94 156.982 136.855 157.043 136.843C157.08 136.83 157.208 136.824 157.429 136.824H157.832L157.887 136.879C157.924 136.916 157.943 136.959 157.943 137.008C157.918 137.142 157.832 137.399 157.686 137.779C157.172 139.076 156.449 139.902 155.519 140.257C155.409 140.294 155.305 140.324 155.207 140.349C155.109 140.373 154.95 140.386 154.73 140.386C154.51 140.386 154.345 140.373 154.234 140.349C153.892 140.263 153.482 140.061 153.004 139.743C152.38 139.339 151.885 139.113 151.518 139.064C151.273 139.027 151.077 139.107 150.93 139.302C150.844 139.425 150.74 139.682 150.618 140.073C150.557 140.269 150.496 140.373 150.434 140.386C150.385 140.398 150.251 140.404 150.031 140.404H149.645L149.59 140.349C149.541 140.288 149.547 140.159 149.608 139.963C150.049 138.421 150.979 137.118 152.399 136.053C152.656 135.857 152.919 135.68 153.188 135.521C154.583 134.689 155.532 133.759 156.033 132.731C156.18 132.425 156.327 131.929 156.474 131.244C156.56 130.827 156.602 130.454 156.602 130.124C156.602 129.781 156.554 129.506 156.456 129.298C156.297 128.98 156.04 128.771 155.685 128.674C155.501 128.625 155.262 128.625 154.969 128.674C154.712 128.735 154.516 128.802 154.381 128.876C153.843 129.133 153.372 129.579 152.968 130.216C152.796 130.46 152.607 130.821 152.399 131.299C152.019 132.229 151.952 132.779 152.197 132.951C152.27 133 152.399 132.988 152.582 132.914C152.986 132.779 153.317 132.382 153.574 131.721C153.586 131.684 153.598 131.654 153.61 131.629C153.794 131.152 153.812 130.772 153.665 130.491C153.592 130.369 153.574 130.277 153.61 130.216C153.745 130.081 153.922 129.94 154.143 129.793C154.216 129.744 154.283 129.763 154.345 129.848C154.418 129.934 154.485 130.075 154.546 130.271C154.693 130.687 154.657 131.195 154.436 131.794C154.057 132.786 153.506 133.422 152.784 133.703C152.723 133.728 152.656 133.752 152.582 133.777C152.35 133.838 152.129 133.85 151.921 133.814C151.444 133.703 151.163 133.379 151.077 132.841C151.04 132.596 151.052 132.345 151.114 132.088C151.248 131.452 151.511 130.815 151.903 130.179C152.601 128.98 153.5 128.221 154.602 127.903C154.761 127.854 154.914 127.817 155.06 127.792Z" fill="black"/>
<path d="M168.223 28.2688C168.369 28.2272 168.598 28.2064 168.91 28.2064C169.388 28.2272 169.805 28.3312 170.158 28.5184C170.429 28.6641 170.637 28.8201 170.782 28.9865C170.949 29.1322 171.105 29.3402 171.25 29.6107C171.438 30.006 171.521 30.4221 171.5 30.859C171.5 31.2751 171.365 31.8472 171.094 32.5754C171.074 32.6794 171.032 32.8042 170.97 32.9499C169.95 35.7793 169.44 37.7142 169.44 38.7544C169.44 38.8377 169.44 38.9105 169.44 38.9729C169.461 39.6803 169.628 40.2004 169.94 40.5333C170.169 40.7413 170.481 40.8453 170.876 40.8453C171.292 40.8453 171.656 40.7621 171.968 40.5957C172.509 40.3252 172.977 39.8883 173.373 39.285L173.56 38.9729L174.714 34.3542C175.526 31.1295 175.994 29.4235 176.119 29.2362C176.14 29.1946 176.192 29.1322 176.275 29.049C176.733 28.5913 177.253 28.4352 177.835 28.5809C178.335 28.7473 178.605 29.0698 178.647 29.5483C178.647 29.6939 178.126 31.868 177.086 36.0706C176.067 40.1484 175.495 42.3745 175.37 42.749C175.162 43.4355 174.839 44.0805 174.402 44.6838C174.257 44.9335 174.09 45.1727 173.903 45.4016C173.487 45.9217 173.04 46.369 172.561 46.7435C171.667 47.4925 170.71 47.9814 169.69 48.2103C169.316 48.3143 168.848 48.3663 168.286 48.3663C167.849 48.3663 167.526 48.3455 167.318 48.3039C165.924 47.9918 165.134 47.2428 164.947 46.057C164.884 45.5368 164.957 45.0271 165.165 44.5278C165.498 43.8412 166.06 43.4563 166.85 43.3731C167.516 43.3107 167.974 43.55 168.223 44.0909C168.286 44.1949 168.327 44.3614 168.348 44.5902C168.369 45.1311 168.171 45.6305 167.755 46.0882C167.568 46.2338 167.422 46.3378 167.318 46.4002C167.235 46.4418 167.183 46.473 167.162 46.4939L167.693 46.8059C168.546 47.0972 169.409 46.9308 170.283 46.3066C171.365 45.4952 172.187 44.1429 172.748 42.2497C172.79 42.0208 172.832 41.8648 172.873 41.7815V41.6567L172.624 41.7815C171.625 42.3641 170.522 42.4993 169.316 42.1872C167.943 41.8544 167.1 40.9598 166.788 39.5034C166.705 38.9625 166.705 38.3175 166.788 37.5686C166.809 37.5061 166.819 37.4541 166.819 37.4125C166.985 36.3723 167.474 34.7807 168.286 32.6378C168.66 31.5351 168.868 30.8278 168.91 30.5157C169.014 30.0372 168.962 29.7667 168.754 29.7043C168.504 29.6211 168.213 29.6731 167.88 29.8604C167.443 30.1308 167.1 30.5573 166.85 31.1399C166.642 31.5143 166.413 32.1489 166.164 33.0435C166.101 33.1683 166.06 33.2411 166.039 33.262C165.997 33.3036 165.748 33.3244 165.29 33.3244H164.603L164.51 33.2307C164.447 33.1683 164.416 33.0851 164.416 32.9811C164.458 32.6482 164.635 32.1281 164.947 31.4207C165.196 30.8798 165.456 30.4325 165.727 30.0788C165.997 29.7043 166.341 29.3298 166.757 28.9553C167.214 28.6017 167.703 28.3728 168.223 28.2688Z" fill="black"/>
<path d="M164.001 318.76C160.334 311.41 159.315 304.945 160.945 299.366C162.645 293.927 167.17 289.375 174.521 285.708L238.977 253.55C242.935 251.576 245.339 249.317 246.189 246.775C247.251 244.303 247.006 241.512 245.455 238.402L241.753 230.981L245.781 228.972L249.483 236.393C251.035 239.502 253.047 241.412 255.519 242.12C258.061 242.97 261.311 242.408 265.269 240.433L329.726 208.276C337.217 204.538 343.576 203.661 348.802 205.643C354.24 207.697 358.793 212.399 362.46 219.749L365.104 225.05L361.076 227.06L357.691 220.275C354.87 214.621 351.235 211.227 346.785 210.092C342.477 208.888 337.495 209.696 331.841 212.516L267.385 244.674C264.558 246.084 262.084 246.965 259.965 247.317C257.986 247.597 256.22 247.419 254.667 246.782C253.113 246.145 251.524 245.084 249.901 243.599L250.749 243.176C251.1 245.295 250.993 247.203 250.426 248.898C250.001 250.522 249.01 252.075 247.455 253.558C246.041 254.969 243.92 256.38 241.093 257.791L176.636 289.948C170.982 292.769 167.341 296.263 165.713 300.429C163.943 304.667 164.468 309.612 167.289 315.266L170.674 322.051L166.645 324.061L164.001 318.76Z" fill="#0037AC"/>
<path d="M937 114L920.253 118.421L932.455 130.714L937 114ZM801 249L802.057 250.065L928.476 124.575L927.419 123.511L926.362 122.446L799.943 247.935L801 249Z" fill="#C90000"/>
<path d="M667.866 354.238C668.573 354.134 669.291 354.238 670.019 354.55C670.581 354.799 671.007 355.153 671.298 355.611L671.423 355.767L671.548 355.579C672.068 354.955 672.703 354.529 673.452 354.3C674.367 354.05 675.199 354.217 675.948 354.799C676.094 354.903 676.219 355.018 676.323 355.143C676.572 355.434 676.739 355.777 676.822 356.172C677.03 356.859 676.978 357.535 676.666 358.201C676.333 358.908 675.771 359.304 674.981 359.387C674.315 359.449 673.857 359.21 673.608 358.669C673.545 358.565 673.504 358.399 673.483 358.17C673.483 357.816 673.556 357.494 673.701 357.202C673.868 356.828 674.169 356.526 674.606 356.297C674.794 356.214 674.887 356.152 674.887 356.11C674.804 355.985 674.658 355.871 674.45 355.767C674.346 355.725 674.19 355.704 673.982 355.704C673.774 355.704 673.618 355.725 673.514 355.767C672.994 356.058 672.588 356.609 672.297 357.421L670.487 364.63C670.341 365.275 670.31 365.753 670.393 366.065C670.56 366.627 671.007 366.897 671.735 366.877C671.985 366.856 672.224 366.804 672.453 366.721C673.285 366.408 673.972 365.691 674.513 364.567C674.658 364.276 674.773 363.985 674.856 363.693C674.939 363.423 675.033 363.277 675.137 363.256C675.199 363.236 675.418 363.225 675.792 363.225C676.25 363.225 676.5 363.246 676.541 363.288C676.645 363.371 676.656 363.548 676.572 363.818C676.406 364.505 676.115 365.139 675.699 365.722C674.617 367.303 673.296 368.177 671.735 368.343C671.694 368.343 671.652 368.343 671.61 368.343C670.404 368.406 669.436 368.01 668.708 367.157C668.667 367.137 668.635 367.105 668.615 367.064C668.49 366.918 668.417 366.835 668.396 366.814L668.209 367.033C667.918 367.365 667.626 367.615 667.335 367.782C666.711 368.177 666.097 368.364 665.494 368.343C665.099 368.322 664.703 368.218 664.308 368.031C663.642 367.719 663.205 367.157 662.997 366.346C662.768 365.306 662.956 364.442 663.559 363.756C664.142 363.194 664.776 363.017 665.463 363.225C665.712 363.309 665.91 363.433 666.056 363.6C666.451 364.037 666.472 364.619 666.118 365.347C665.931 365.743 665.639 366.044 665.244 366.252C665.057 366.356 664.953 366.408 664.932 366.408C664.932 366.492 665.088 366.616 665.4 366.783C665.483 366.825 665.629 366.845 665.837 366.845C666.045 366.845 666.201 366.825 666.305 366.783C666.825 366.512 667.221 365.972 667.491 365.16L669.364 357.795C669.405 357.587 669.426 357.296 669.426 356.921C669.426 356.63 669.405 356.432 669.364 356.328C669.114 355.788 668.583 355.59 667.772 355.736C667.002 355.881 666.316 356.401 665.712 357.296C665.359 357.858 665.099 358.44 664.932 359.044C664.87 359.168 664.828 359.241 664.807 359.262C664.766 359.304 664.516 359.324 664.058 359.324H663.372L663.278 359.231C663.216 359.168 663.185 359.085 663.185 358.981C663.268 358.44 663.559 357.785 664.058 357.015C664.079 356.973 664.1 356.932 664.121 356.89C665.036 355.455 666.212 354.581 667.647 354.269C667.73 354.269 667.803 354.258 667.866 354.238Z" fill="black"/>
<path d="M1062.99 243.269C1063.14 243.227 1063.37 243.206 1063.68 243.206C1064.16 243.227 1064.57 243.331 1064.93 243.518C1065.2 243.664 1065.41 243.82 1065.55 243.987C1065.72 244.132 1065.87 244.34 1066.02 244.611C1066.21 245.006 1066.29 245.422 1066.27 245.859C1066.27 246.275 1066.13 246.847 1065.86 247.575C1065.84 247.679 1065.8 247.804 1065.74 247.95C1064.72 250.779 1064.21 252.714 1064.21 253.754C1064.21 253.838 1064.21 253.91 1064.21 253.973C1064.23 254.68 1064.4 255.2 1064.71 255.533C1064.94 255.741 1065.25 255.845 1065.64 255.845C1066.06 255.845 1066.42 255.762 1066.74 255.596C1067.28 255.325 1067.75 254.888 1068.14 254.285L1068.33 253.973L1069.48 249.354C1070.29 246.129 1070.76 244.423 1070.89 244.236C1070.91 244.195 1070.96 244.132 1071.04 244.049C1071.5 243.591 1072.02 243.435 1072.6 243.581C1073.1 243.747 1073.37 244.07 1073.42 244.548C1073.42 244.694 1072.89 246.868 1071.85 251.071C1070.84 255.148 1070.26 257.374 1070.14 257.749C1069.93 258.436 1069.61 259.08 1069.17 259.684C1069.03 259.933 1068.86 260.173 1068.67 260.402C1068.26 260.922 1067.81 261.369 1067.33 261.744C1066.44 262.492 1065.48 262.981 1064.46 263.21C1064.08 263.314 1063.62 263.366 1063.05 263.366C1062.62 263.366 1062.29 263.345 1062.09 263.304C1060.69 262.992 1059.9 262.243 1059.72 261.057C1059.65 260.537 1059.73 260.027 1059.93 259.528C1060.27 258.841 1060.83 258.456 1061.62 258.373C1062.28 258.311 1062.74 258.55 1062.99 259.091C1063.05 259.195 1063.1 259.361 1063.12 259.59C1063.14 260.131 1062.94 260.63 1062.52 261.088C1062.34 261.234 1062.19 261.338 1062.09 261.4C1062 261.442 1061.95 261.473 1061.93 261.494L1062.46 261.806C1063.31 262.097 1064.18 261.931 1065.05 261.307C1066.13 260.495 1066.96 259.143 1067.52 257.25C1067.56 257.021 1067.6 256.865 1067.64 256.782V256.657L1067.39 256.782C1066.39 257.364 1065.29 257.499 1064.08 257.187C1062.71 256.854 1061.87 255.96 1061.56 254.503C1061.47 253.962 1061.47 253.318 1061.56 252.569C1061.58 252.506 1061.59 252.454 1061.59 252.413C1061.75 251.372 1062.24 249.781 1063.05 247.638C1063.43 246.535 1063.64 245.828 1063.68 245.516C1063.78 245.037 1063.73 244.767 1063.52 244.704C1063.27 244.621 1062.98 244.673 1062.65 244.86C1062.21 245.131 1061.87 245.557 1061.62 246.14C1061.41 246.514 1061.18 247.149 1060.93 248.044C1060.87 248.168 1060.83 248.241 1060.81 248.262C1060.77 248.304 1060.52 248.324 1060.06 248.324H1059.37L1059.28 248.231C1059.22 248.168 1059.18 248.085 1059.18 247.981C1059.23 247.648 1059.4 247.128 1059.72 246.421C1059.96 245.88 1060.22 245.432 1060.5 245.079C1060.77 244.704 1061.11 244.33 1061.53 243.955C1061.98 243.602 1062.47 243.373 1062.99 243.269Z" fill="black"/>
<path d="M799.615 21.2376L800.176 21.2064H800.208C800.811 21.2272 801.414 21.5496 802.018 22.1738C802.101 22.257 802.194 22.3506 802.298 22.4547C802.735 22.8708 803.099 23.0996 803.391 23.1412C803.515 23.1828 803.599 23.1828 803.64 23.1412C803.786 23.0996 804.171 22.5379 804.795 21.456C804.878 21.2896 805.034 21.2064 805.263 21.2064C805.346 21.2064 805.492 21.2064 805.7 21.2064H806.355L806.449 21.3C806.553 21.404 806.522 21.6017 806.355 21.8929C806.335 21.9553 806.293 22.0386 806.231 22.1426C805.877 22.7667 805.419 23.4221 804.857 24.1086C803.963 25.2321 802.725 26.5844 801.144 28.1656C799.604 29.6635 798.522 30.7766 797.898 31.5048L797.555 31.8793L797.649 31.9105C798.106 31.9313 798.658 32.0353 799.303 32.2225C800.197 32.4306 800.852 32.5346 801.269 32.5346C801.622 32.5346 801.862 32.5138 801.986 32.4722C803.006 32.2017 803.703 31.6504 804.077 30.8182C804.098 30.7558 804.119 30.6934 804.14 30.631C804.223 30.4021 804.337 30.2773 804.483 30.2565C804.566 30.2357 804.764 30.2253 805.076 30.2253C805.492 30.2253 805.731 30.2461 805.794 30.2877C805.898 30.3709 805.939 30.4957 805.918 30.6622C805.773 31.3279 805.471 32.0041 805.013 32.6907C804.514 33.4396 803.963 34.0222 803.359 34.4383C802.881 34.7711 802.434 35 802.018 35.1248C801.165 35.4161 800.457 35.4161 799.895 35.1248C799.625 35 799.271 34.7295 798.834 34.3134C798.398 33.8765 798.033 33.5853 797.742 33.4396C797.472 33.3564 797.18 33.3564 796.868 33.4396C796.348 33.6269 795.849 34.1262 795.37 34.9376C795.287 35.104 795.204 35.2289 795.121 35.3121C795.079 35.3329 794.829 35.3433 794.372 35.3433H793.716L793.623 35.2497C793.519 35.1456 793.56 34.9168 793.748 34.5631C793.768 34.5215 793.789 34.4799 793.81 34.4383C794.684 32.9819 796.078 31.2655 797.992 29.2891C798.47 28.8105 799.032 28.2488 799.677 27.6039C801.05 26.2307 801.924 25.3257 802.298 24.8888L802.579 24.5768L802.392 24.5143L801.456 24.2959C800.686 24.1086 800.135 24.0046 799.802 23.9838C798.782 23.9422 798.127 24.2127 797.836 24.7952C797.773 24.9408 797.732 25.0137 797.711 25.0137C797.649 25.0761 797.409 25.1073 796.993 25.1073C796.535 25.1073 796.275 25.0865 796.213 25.0449C796.067 24.9408 796.088 24.6496 796.275 24.1711C796.546 23.4845 796.941 22.902 797.461 22.4235C798.106 21.7785 798.824 21.3832 799.615 21.2376Z" fill="black"/>
<path d="M801 53L792.34 68L809.66 68L801 53ZM801 248L802.5 248L802.5 66.5L801 66.5L799.5 66.5L799.5 248L801 248Z" fill="black"/>
<path d="M802 247.5C801.172 247.5 800.5 248.172 800.5 249C800.5 249.828 801.172 250.5 802 250.5V247.5ZM1043 249L1028 240.34V257.66L1043 249ZM802 249V250.5H1029.5V249V247.5H802V249Z" fill="black"/>
<path d="M686 349L702.985 345.609L691.556 332.595L686 349ZM801 248L800.01 246.873L695.154 338.964L696.143 340.091L697.133 341.219L801.99 249.127L801 248Z" fill="black"/>
<path d="M736 305.5H937" stroke="#202020" stroke-width="2" stroke-linecap="round" stroke-dasharray="6 6"/>
<line x1="989.987" y1="252.414" x2="938.414" y2="303.013" stroke="#202020" stroke-width="2" stroke-linecap="round" stroke-dasharray="6 6"/>
<line x1="933.016" y1="303.984" x2="935.984" y2="114.984" stroke="#202020" stroke-width="2" stroke-linecap="round" stroke-dasharray="6 6"/>
<path d="M787.511 235.351C782.544 230.242 780 225.166 779.877 220.125C779.85 215.183 782.392 210.228 787.501 205.261L832.309 161.705C835.06 159.03 836.452 156.53 836.485 154.205C836.712 151.882 835.775 149.64 833.673 147.478L828.659 142.32L831.459 139.597L836.474 144.756C838.575 146.918 840.741 147.966 842.971 147.901C845.296 147.934 847.834 146.613 850.586 143.939L895.393 100.383C900.601 95.3201 905.626 92.9201 910.468 93.1825C915.503 93.4477 920.504 96.135 925.471 101.245L929.053 104.929L926.253 107.652L921.668 102.935C917.847 99.0047 913.949 97.1566 909.972 97.391C906.094 97.5299 902.189 99.5097 898.259 103.33L853.451 146.886C851.486 148.797 849.674 150.176 848.014 151.025C846.453 151.778 844.946 152.096 843.494 151.978C842.042 151.861 840.45 151.402 838.717 150.603L839.306 150.029C840.155 151.689 840.568 153.294 840.547 154.844C840.623 156.299 840.213 157.843 839.318 159.478C838.521 161.018 837.14 162.742 835.174 164.653L790.367 208.209C786.437 212.029 784.347 215.876 784.098 219.749C783.751 223.717 785.488 227.667 789.309 231.597L793.894 236.314L791.093 239.036L787.511 235.351Z" fill="#0037AC"/>
</svg>
