<svg width="1208" height="259" viewBox="0 0 1208 259" fill="none" xmlns="http://www.w3.org/2000/svg">
<g clip-path="url(#clip0_120_781)">
<rect width="1208" height="259" fill="white"/>
<rect x="342.248" y="223.665" width="25.7725" height="25.7725" rx="5.03368" fill="#0037AC"/>
<path d="M352.232 230.397C352.061 229.981 351.471 229.981 351.3 230.397L351.032 231.052C350.982 231.174 350.981 231.311 351.031 231.433L354.627 240.256C354.762 240.587 354.518 240.949 354.161 240.949H350.582H349.374C349.016 240.949 348.772 240.586 348.908 240.255L349.529 238.743C349.579 238.621 349.579 238.485 349.529 238.362L349.247 237.67C349.077 237.252 348.486 237.252 348.315 237.669L346.625 241.785C346.489 242.117 346.733 242.48 347.091 242.48H356.441C356.799 242.48 357.043 242.117 356.907 241.786L352.232 230.397Z" fill="white"/>
<path d="M355.642 232.845C355.507 232.514 355.751 232.152 356.108 232.152H359.687H360.895C361.253 232.152 361.497 232.515 361.361 232.846L360.74 234.358C360.69 234.48 360.69 234.617 360.74 234.739L361.022 235.431C361.192 235.849 361.783 235.849 361.954 235.433L363.644 231.316C363.78 230.984 363.537 230.621 363.179 230.621H353.828C353.47 230.621 353.226 230.984 353.362 231.316L358.038 242.704C358.208 243.12 358.798 243.12 358.969 242.704L359.238 242.049C359.288 241.927 359.288 241.79 359.238 241.668L355.642 232.845Z" fill="white"/>
<path d="M383.915 238.027H380.268L379.557 240.483H377.811L381.059 230.273H383.19L386.446 240.483H384.626L383.915 238.027ZM380.623 236.703H383.553L382.095 231.605L380.623 236.703ZM389.533 232.67V238.131C389.533 238.594 389.624 238.925 389.807 239.122C389.994 239.319 390.275 239.418 390.65 239.418C391.005 239.418 391.348 239.312 391.679 239.1C392.009 238.888 392.271 238.629 392.463 238.323V232.67H394.12V240.483H392.692L392.589 239.485C392.298 239.874 391.93 240.173 391.486 240.38C391.042 240.582 390.589 240.683 390.125 240.683C389.37 240.683 388.805 240.476 388.431 240.062C388.061 239.642 387.876 239.068 387.876 238.338V232.67H389.533ZM403.274 240.069C402.988 240.252 402.646 240.4 402.246 240.513C401.846 240.626 401.43 240.683 400.996 240.683C400.088 240.683 399.397 240.449 398.924 239.98C398.455 239.507 398.221 238.885 398.221 238.116V233.876H396.482V232.67H398.221V230.924L399.878 230.724V232.67H402.512L402.327 233.876H399.878V238.101C399.878 238.52 399.982 238.833 400.189 239.041C400.401 239.243 400.747 239.344 401.225 239.344C401.511 239.344 401.775 239.309 402.017 239.24C402.258 239.171 402.478 239.083 402.675 238.974L403.274 240.069ZM408.751 232.463C409.516 232.463 410.16 232.633 410.683 232.973C411.205 233.314 411.6 233.79 411.866 234.401C412.138 235.013 412.273 235.733 412.273 236.562C412.273 237.386 412.135 238.108 411.859 238.73C411.588 239.346 411.188 239.827 410.66 240.173C410.137 240.513 409.499 240.683 408.744 240.683C407.989 240.683 407.348 240.518 406.82 240.187C406.297 239.852 405.898 239.376 405.622 238.759C405.35 238.143 405.215 237.415 405.215 236.577C405.215 235.763 405.35 235.048 405.622 234.431C405.898 233.814 406.3 233.334 406.828 232.988C407.355 232.638 407.997 232.463 408.751 232.463ZM408.751 233.75C408.155 233.75 407.706 233.98 407.405 234.438C407.104 234.892 406.953 235.605 406.953 236.577C406.953 237.544 407.101 238.256 407.397 238.715C407.698 239.174 408.147 239.403 408.744 239.403C409.341 239.403 409.787 239.174 410.083 238.715C410.384 238.256 410.535 237.539 410.535 236.562C410.535 235.6 410.387 234.892 410.091 234.438C409.795 233.98 409.348 233.75 408.751 233.75ZM414.569 240.483V239.3H415.715V233.847H414.569V232.67H416.981L417.284 234.483C417.575 233.827 417.935 233.329 418.364 232.988C418.798 232.643 419.356 232.47 420.036 232.47C420.268 232.47 420.475 232.49 420.658 232.529C420.845 232.564 421.03 232.611 421.213 232.67L420.717 234.091C420.559 234.046 420.411 234.014 420.273 233.994C420.135 233.97 419.982 233.957 419.814 233.957C419.247 233.957 418.756 234.17 418.342 234.594C417.933 235.018 417.61 235.62 417.373 236.399V239.3H418.949V240.483H414.569ZM419.748 235.548V233.625L419.955 232.67H421.213L420.932 235.548H419.748ZM425.151 239.344C425.151 238.984 425.279 238.676 425.536 238.419C425.792 238.158 426.108 238.027 426.483 238.027C426.862 238.027 427.178 238.158 427.43 238.419C427.686 238.676 427.814 238.984 427.814 239.344C427.814 239.714 427.686 240.03 427.43 240.291C427.178 240.552 426.862 240.683 426.483 240.683C426.108 240.683 425.792 240.552 425.536 240.291C425.279 240.03 425.151 239.714 425.151 239.344ZM425.151 234.091C425.151 233.849 425.21 233.627 425.328 233.425C425.447 233.223 425.607 233.062 425.809 232.944C426.012 232.825 426.236 232.766 426.483 232.766C426.862 232.766 427.178 232.897 427.43 233.158C427.686 233.415 427.814 233.726 427.814 234.091C427.814 234.456 427.686 234.771 427.43 235.038C427.178 235.299 426.862 235.43 426.483 235.43C426.108 235.43 425.792 235.299 425.536 235.038C425.279 234.771 425.151 234.456 425.151 234.091ZM447.595 230.228V236.791C447.595 237.388 447.504 237.928 447.321 238.412C447.139 238.895 446.87 239.307 446.515 239.647C446.165 239.988 445.733 240.249 445.22 240.432C444.712 240.614 444.13 240.705 443.474 240.705C442.813 240.705 442.241 240.622 441.757 240.454C441.279 240.281 440.818 240.044 440.374 239.743L441.299 238.249C441.649 238.491 441.977 238.661 442.283 238.759C442.589 238.853 442.936 238.9 443.326 238.9C443.854 238.9 444.293 238.732 444.643 238.397C444.998 238.057 445.176 237.531 445.176 236.821V232.004H442.024V230.228H447.595ZM453.109 232.367C453.918 232.367 454.606 232.539 455.173 232.885C455.741 233.23 456.175 233.716 456.476 234.342C456.776 234.964 456.927 235.694 456.927 236.532C456.927 237.405 456.774 238.158 456.468 238.789C456.167 239.415 455.733 239.896 455.166 240.232C454.599 240.567 453.913 240.735 453.109 240.735C452.31 240.735 451.624 240.57 451.052 240.239C450.485 239.909 450.048 239.43 449.742 238.804C449.442 238.177 449.291 237.425 449.291 236.547C449.291 235.714 449.442 234.983 449.742 234.357C450.048 233.731 450.485 233.242 451.052 232.892C451.624 232.542 452.31 232.367 453.109 232.367ZM453.109 234.091C452.631 234.091 452.275 234.288 452.044 234.683C451.817 235.072 451.703 235.694 451.703 236.547C451.703 237.415 451.817 238.044 452.044 238.434C452.275 238.824 452.631 239.018 453.109 239.018C453.587 239.018 453.94 238.824 454.167 238.434C454.399 238.044 454.515 237.41 454.515 236.532C454.515 235.684 454.399 235.065 454.167 234.675C453.94 234.286 453.587 234.091 453.109 234.091ZM461.73 239.063C462.12 239.063 462.433 239.001 462.67 238.878C462.912 238.755 463.033 238.57 463.033 238.323C463.033 238.155 462.986 238.015 462.892 237.901C462.798 237.788 462.618 237.679 462.352 237.576C462.086 237.472 461.691 237.349 461.168 237.206C460.69 237.077 460.265 236.915 459.896 236.717C459.53 236.52 459.244 236.266 459.037 235.955C458.835 235.644 458.734 235.257 458.734 234.794C458.734 234.325 458.865 233.908 459.126 233.543C459.387 233.178 459.772 232.892 460.28 232.685C460.788 232.473 461.41 232.367 462.145 232.367C462.845 232.367 463.454 232.458 463.972 232.64C464.495 232.818 464.947 233.045 465.326 233.321L464.394 234.697C464.069 234.495 463.718 234.335 463.343 234.216C462.969 234.093 462.591 234.031 462.211 234.031C461.832 234.031 461.548 234.083 461.361 234.187C461.178 234.286 461.087 234.436 461.087 234.638C461.087 234.771 461.134 234.887 461.227 234.986C461.326 235.08 461.508 235.178 461.775 235.282C462.041 235.381 462.431 235.504 462.944 235.652C463.452 235.795 463.893 235.96 464.268 236.148C464.648 236.335 464.942 236.587 465.149 236.902C465.356 237.213 465.46 237.625 465.46 238.138C465.46 238.71 465.289 239.191 464.949 239.581C464.609 239.965 464.157 240.254 463.595 240.446C463.033 240.639 462.416 240.735 461.745 240.735C460.986 240.735 460.315 240.626 459.733 240.409C459.151 240.192 458.655 239.906 458.246 239.551L459.422 238.234C459.728 238.471 460.073 238.668 460.458 238.826C460.848 238.984 461.272 239.063 461.73 239.063ZM469.479 237.235C469.533 237.664 469.644 238.012 469.812 238.278C469.984 238.54 470.204 238.732 470.47 238.856C470.737 238.974 471.035 239.033 471.366 239.033C471.726 239.033 472.073 238.974 472.409 238.856C472.744 238.737 473.067 238.579 473.378 238.382L474.318 239.655C473.948 239.97 473.499 240.229 472.971 240.432C472.448 240.634 471.851 240.735 471.181 240.735C470.283 240.735 469.531 240.557 468.924 240.202C468.317 239.842 467.861 239.349 467.555 238.722C467.249 238.096 467.096 237.376 467.096 236.562C467.096 235.788 467.244 235.085 467.54 234.453C467.836 233.817 468.268 233.311 468.835 232.936C469.407 232.557 470.105 232.367 470.929 232.367C471.679 232.367 472.327 232.527 472.875 232.848C473.427 233.168 473.854 233.629 474.155 234.231C474.461 234.833 474.614 235.556 474.614 236.399C474.614 236.532 474.609 236.675 474.599 236.828C474.594 236.981 474.584 237.117 474.569 237.235H469.479ZM470.929 233.935C470.51 233.935 470.172 234.086 469.915 234.387C469.659 234.688 469.503 235.168 469.449 235.829H472.335C472.33 235.257 472.219 234.799 472.002 234.453C471.785 234.108 471.427 233.935 470.929 233.935ZM480.675 232.367C481.361 232.367 481.913 232.537 482.332 232.877C482.752 233.218 483.058 233.699 483.25 234.32C483.447 234.942 483.546 235.679 483.546 236.532C483.546 237.341 483.428 238.064 483.191 238.7C482.954 239.332 482.611 239.83 482.162 240.195C481.713 240.555 481.168 240.735 480.527 240.735C479.763 240.735 479.141 240.461 478.663 239.914V243.517L476.325 243.761V232.626H478.396L478.5 233.506C478.82 233.097 479.171 232.806 479.55 232.633C479.93 232.455 480.305 232.367 480.675 232.367ZM479.95 234.091C479.679 234.091 479.439 234.172 479.232 234.335C479.025 234.498 478.835 234.72 478.663 235.001V238.315C478.825 238.557 478.996 238.735 479.173 238.848C479.356 238.962 479.57 239.018 479.817 239.018C480.231 239.018 480.554 238.831 480.786 238.456C481.018 238.076 481.134 237.445 481.134 236.562C481.134 235.911 481.087 235.408 480.993 235.053C480.9 234.692 480.764 234.443 480.586 234.305C480.409 234.162 480.197 234.091 479.95 234.091ZM487.536 229.274V233.403C487.866 233.052 488.224 232.793 488.608 232.626C488.998 232.453 489.41 232.367 489.844 232.367C490.545 232.367 491.08 232.571 491.45 232.981C491.82 233.39 492.005 233.967 492.005 234.712V240.483H489.667V235.363C489.667 234.89 489.612 234.559 489.504 234.372C489.4 234.184 489.203 234.091 488.912 234.091C488.749 234.091 488.589 234.13 488.431 234.209C488.278 234.283 488.128 234.392 487.98 234.535C487.832 234.678 487.684 234.848 487.536 235.045V240.483H485.198V229.503L487.536 229.274ZM510.313 237.487C510.313 238.123 510.145 238.685 509.81 239.174C509.479 239.662 509.003 240.044 508.382 240.321C507.76 240.597 507.013 240.735 506.14 240.735C505.173 240.735 504.362 240.594 503.706 240.313C503.055 240.027 502.514 239.674 502.085 239.255L503.313 237.894C503.693 238.224 504.113 238.481 504.571 238.663C505.03 238.841 505.533 238.93 506.081 238.93C506.421 238.93 506.719 238.88 506.976 238.782C507.232 238.683 507.432 238.54 507.575 238.352C507.718 238.165 507.79 237.938 507.79 237.672C507.79 237.42 507.733 237.208 507.62 237.035C507.506 236.863 507.314 236.707 507.043 236.569C506.776 236.431 506.404 236.291 505.925 236.148C505.126 235.901 504.483 235.63 503.994 235.334C503.511 235.038 503.158 234.695 502.936 234.305C502.719 233.916 502.611 233.462 502.611 232.944C502.611 232.317 502.783 231.782 503.129 231.338C503.479 230.894 503.947 230.556 504.534 230.325C505.121 230.088 505.767 229.969 506.473 229.969C507.267 229.969 507.967 230.085 508.574 230.317C509.181 230.544 509.706 230.87 510.15 231.294L509.003 232.611C508.658 232.32 508.286 232.105 507.886 231.967C507.487 231.824 507.08 231.753 506.665 231.753C506.359 231.753 506.091 231.792 505.859 231.871C505.627 231.945 505.447 232.056 505.319 232.204C505.19 232.352 505.126 232.537 505.126 232.759C505.126 232.976 505.188 233.158 505.311 233.306C505.435 233.454 505.649 233.595 505.955 233.728C506.261 233.856 506.685 234.007 507.228 234.179C507.874 234.377 508.426 234.614 508.885 234.89C509.349 235.161 509.701 235.504 509.943 235.918C510.19 236.333 510.313 236.855 510.313 237.487ZM518.431 238.219C518.431 238.515 518.471 238.73 518.55 238.863C518.633 238.996 518.767 239.097 518.949 239.166L518.468 240.705C518.005 240.661 517.612 240.56 517.292 240.402C516.976 240.239 516.727 239.995 516.545 239.67C516.244 240.03 515.859 240.298 515.39 240.476C514.922 240.649 514.443 240.735 513.955 240.735C513.146 240.735 512.5 240.506 512.016 240.047C511.538 239.583 511.299 238.989 511.299 238.264C511.299 237.41 511.632 236.752 512.297 236.288C512.968 235.824 513.91 235.593 515.124 235.593H516.182V235.297C516.182 234.887 516.049 234.584 515.782 234.387C515.521 234.189 515.136 234.091 514.628 234.091C514.377 234.091 514.054 234.128 513.659 234.202C513.264 234.271 512.87 234.372 512.475 234.505L511.935 232.951C512.443 232.759 512.971 232.613 513.518 232.515C514.071 232.416 514.564 232.367 514.998 232.367C516.167 232.367 517.03 232.606 517.588 233.084C518.15 233.558 518.431 234.244 518.431 235.141V238.219ZM514.761 239.063C515.013 239.063 515.277 238.989 515.553 238.841C515.829 238.688 516.039 238.473 516.182 238.197V236.924H515.605C514.954 236.924 514.475 237.026 514.169 237.228C513.864 237.425 513.711 237.716 513.711 238.101C513.711 238.402 513.802 238.639 513.984 238.811C514.172 238.979 514.431 239.063 514.761 239.063ZM520.69 240.483V232.626H522.732L522.894 233.536C523.245 233.141 523.615 232.848 524.004 232.655C524.394 232.463 524.838 232.367 525.336 232.367C526.007 232.367 526.535 232.571 526.92 232.981C527.304 233.39 527.497 233.967 527.497 234.712V240.483H525.159V235.385C525.159 235.065 525.136 234.811 525.092 234.623C525.048 234.431 524.969 234.295 524.855 234.216C524.747 234.133 524.596 234.091 524.404 234.091C524.241 234.091 524.081 234.128 523.923 234.202C523.77 234.271 523.62 234.372 523.472 234.505C523.324 234.638 523.176 234.799 523.028 234.986V240.483H520.69ZM536.636 240.025C536.33 240.222 535.96 240.39 535.526 240.528C535.092 240.666 534.604 240.735 534.061 240.735C533.035 240.735 532.273 240.474 531.775 239.951C531.277 239.423 531.028 238.708 531.028 237.805V234.239H529.378V232.626H531.028V230.924L533.366 230.643V232.626H535.896L535.667 234.239H533.366V237.805C533.366 238.195 533.454 238.473 533.632 238.641C533.81 238.809 534.093 238.893 534.483 238.893C534.759 238.893 535.011 238.861 535.238 238.796C535.469 238.727 535.677 238.641 535.859 238.537L536.636 240.025ZM543.238 232.626V238.885H545.235V240.483H538.672V238.885H540.899V234.224H538.746V232.626H543.238ZM541.824 228.512C542.229 228.512 542.559 228.638 542.816 228.889C543.072 229.141 543.201 229.454 543.201 229.829C543.201 230.204 543.072 230.519 542.816 230.776C542.559 231.027 542.229 231.153 541.824 231.153C541.415 231.153 541.079 231.027 540.818 230.776C540.562 230.519 540.433 230.204 540.433 229.829C540.433 229.454 540.562 229.141 540.818 228.889C541.079 228.638 541.415 228.512 541.824 228.512ZM553.923 238.219C553.923 238.515 553.963 238.73 554.042 238.863C554.126 238.996 554.259 239.097 554.441 239.166L553.96 240.705C553.497 240.661 553.104 240.56 552.784 240.402C552.468 240.239 552.219 239.995 552.037 239.67C551.736 240.03 551.351 240.298 550.882 240.476C550.414 240.649 549.935 240.735 549.447 240.735C548.638 240.735 547.992 240.506 547.508 240.047C547.03 239.583 546.791 238.989 546.791 238.264C546.791 237.41 547.124 236.752 547.79 236.288C548.46 235.824 549.403 235.593 550.616 235.593H551.674V235.297C551.674 234.887 551.541 234.584 551.274 234.387C551.013 234.189 550.628 234.091 550.12 234.091C549.869 234.091 549.546 234.128 549.151 234.202C548.756 234.271 548.362 234.372 547.967 234.505L547.427 232.951C547.935 232.759 548.463 232.613 549.01 232.515C549.563 232.416 550.056 232.367 550.49 232.367C551.659 232.367 552.522 232.606 553.08 233.084C553.642 233.558 553.923 234.244 553.923 235.141V238.219ZM550.253 239.063C550.505 239.063 550.769 238.989 551.045 238.841C551.321 238.688 551.531 238.473 551.674 238.197V236.924H551.097C550.446 236.924 549.967 237.026 549.661 237.228C549.356 237.425 549.203 237.716 549.203 238.101C549.203 238.402 549.294 238.639 549.476 238.811C549.664 238.979 549.923 239.063 550.253 239.063ZM563.159 231.368L563.706 233.084C563.43 233.193 563.107 233.272 562.737 233.321C562.367 233.371 561.936 233.395 561.442 233.395C561.936 233.607 562.31 233.871 562.567 234.187C562.828 234.498 562.959 234.907 562.959 235.415C562.959 235.923 562.823 236.377 562.552 236.777C562.281 237.171 561.896 237.482 561.398 237.709C560.9 237.936 560.31 238.049 559.63 238.049C559.462 238.049 559.304 238.042 559.156 238.027C559.008 238.012 558.862 237.99 558.719 237.96C558.636 238.005 558.571 238.069 558.527 238.153C558.483 238.237 558.46 238.323 558.46 238.412C558.46 238.535 558.51 238.646 558.608 238.745C558.712 238.843 558.951 238.893 559.326 238.893H560.614C561.225 238.893 561.753 238.991 562.197 239.189C562.646 239.386 562.994 239.655 563.24 239.995C563.487 240.335 563.61 240.725 563.61 241.164C563.61 241.968 563.257 242.602 562.552 243.066C561.847 243.529 560.799 243.761 559.408 243.761C558.401 243.761 557.622 243.658 557.069 243.45C556.522 243.248 556.14 242.957 555.923 242.577C555.711 242.202 555.604 241.756 555.604 241.238H557.676C557.676 241.465 557.721 241.65 557.809 241.793C557.903 241.941 558.078 242.05 558.335 242.119C558.596 242.188 558.973 242.222 559.467 242.222C559.965 242.222 560.345 242.183 560.606 242.104C560.868 242.025 561.045 241.916 561.139 241.778C561.238 241.645 561.287 241.495 561.287 241.327C561.287 241.095 561.196 240.908 561.013 240.765C560.831 240.622 560.542 240.55 560.147 240.55H558.897C558.049 240.55 557.432 240.395 557.047 240.084C556.663 239.768 556.47 239.401 556.47 238.981C556.47 238.69 556.547 238.414 556.7 238.153C556.857 237.891 557.077 237.672 557.358 237.494C556.855 237.228 556.495 236.915 556.278 236.555C556.061 236.19 555.952 235.753 555.952 235.245C555.952 234.653 556.103 234.145 556.404 233.721C556.704 233.292 557.119 232.961 557.647 232.729C558.179 232.497 558.786 232.382 559.467 232.382C560.054 232.391 560.564 232.352 560.998 232.263C561.432 232.169 561.822 232.044 562.167 231.886C562.513 231.723 562.843 231.55 563.159 231.368ZM559.526 233.898C559.156 233.898 558.862 234.017 558.645 234.253C558.428 234.485 558.32 234.806 558.32 235.215C558.32 235.649 558.431 235.982 558.653 236.214C558.875 236.446 559.166 236.562 559.526 236.562C559.916 236.562 560.212 236.446 560.414 236.214C560.621 235.982 560.725 235.64 560.725 235.186C560.725 234.747 560.623 234.424 560.421 234.216C560.219 234.004 559.921 233.898 559.526 233.898ZM568.458 232.367C569.267 232.367 569.955 232.539 570.522 232.885C571.09 233.23 571.524 233.716 571.825 234.342C572.126 234.964 572.276 235.694 572.276 236.532C572.276 237.405 572.123 238.158 571.817 238.789C571.516 239.415 571.082 239.896 570.515 240.232C569.948 240.567 569.262 240.735 568.458 240.735C567.659 240.735 566.973 240.57 566.401 240.239C565.834 239.909 565.397 239.43 565.092 238.804C564.791 238.177 564.64 237.425 564.64 236.547C564.64 235.714 564.791 234.983 565.092 234.357C565.397 233.731 565.834 233.242 566.401 232.892C566.973 232.542 567.659 232.367 568.458 232.367ZM568.458 234.091C567.98 234.091 567.625 234.288 567.393 234.683C567.166 235.072 567.052 235.694 567.052 236.547C567.052 237.415 567.166 238.044 567.393 238.434C567.625 238.824 567.98 239.018 568.458 239.018C568.937 239.018 569.289 238.824 569.516 238.434C569.748 238.044 569.864 237.41 569.864 236.532C569.864 235.684 569.748 235.065 569.516 234.675C569.289 234.286 568.937 234.091 568.458 234.091ZM587.795 233.573C587.795 233.208 587.726 232.907 587.588 232.67C587.455 232.428 587.25 232.251 586.974 232.137C586.702 232.019 586.36 231.96 585.945 231.96H585.117V235.312H586.071C586.431 235.312 586.739 235.25 586.996 235.127C587.252 235.003 587.45 234.813 587.588 234.557C587.726 234.3 587.795 233.972 587.795 233.573ZM590.296 233.565C590.296 234.359 590.126 235.016 589.785 235.533C589.445 236.051 588.969 236.439 588.357 236.695C587.746 236.947 587.035 237.072 586.226 237.072H585.117V240.483H582.69V230.228H585.916C587.307 230.228 588.384 230.505 589.149 231.057C589.914 231.61 590.296 232.446 590.296 233.565ZM595.077 232.367C595.886 232.367 596.574 232.539 597.142 232.885C597.709 233.23 598.143 233.716 598.444 234.342C598.745 234.964 598.895 235.694 598.895 236.532C598.895 237.405 598.742 238.158 598.436 238.789C598.135 239.415 597.701 239.896 597.134 240.232C596.567 240.567 595.881 240.735 595.077 240.735C594.278 240.735 593.592 240.57 593.02 240.239C592.453 239.909 592.016 239.43 591.711 238.804C591.41 238.177 591.259 237.425 591.259 236.547C591.259 235.714 591.41 234.983 591.711 234.357C592.016 233.731 592.453 233.242 593.02 232.892C593.592 232.542 594.278 232.367 595.077 232.367ZM595.077 234.091C594.599 234.091 594.244 234.288 594.012 234.683C593.785 235.072 593.671 235.694 593.671 236.547C593.671 237.415 593.785 238.044 594.012 238.434C594.244 238.824 594.599 239.018 595.077 239.018C595.556 239.018 595.908 238.824 596.135 238.434C596.367 238.044 596.483 237.41 596.483 236.532C596.483 235.684 596.367 235.065 596.135 234.675C595.908 234.286 595.556 234.091 595.077 234.091ZM600.621 240.483V238.915H601.656V234.179H600.621V232.626H603.44L603.869 234.394C604.15 233.718 604.508 233.215 604.942 232.885C605.381 232.554 605.916 232.389 606.547 232.389C606.814 232.389 607.05 232.411 607.258 232.455C607.465 232.495 607.66 232.552 607.842 232.626L607.132 234.557C606.989 234.517 606.846 234.488 606.703 234.468C606.56 234.448 606.402 234.438 606.229 234.438C605.716 234.438 605.265 234.648 604.875 235.067C604.49 235.487 604.197 236.019 603.995 236.666V238.915H605.548V240.483H600.621ZM605.941 235.911V233.617L606.288 232.626H607.842L607.406 235.911H605.941ZM616.493 240.025C616.187 240.222 615.817 240.39 615.383 240.528C614.949 240.666 614.461 240.735 613.918 240.735C612.892 240.735 612.13 240.474 611.632 239.951C611.134 239.423 610.885 238.708 610.885 237.805V234.239H609.235V232.626H610.885V230.924L613.223 230.643V232.626H615.753L615.524 234.239H613.223V237.805C613.223 238.195 613.312 238.473 613.489 238.641C613.667 238.809 613.95 238.893 614.34 238.893C614.616 238.893 614.868 238.861 615.095 238.796C615.327 238.727 615.534 238.641 615.716 238.537L616.493 240.025ZM623.095 232.626V238.885H625.092V240.483H618.529V238.885H620.757V234.224H618.603V232.626H623.095ZM621.681 228.512C622.086 228.512 622.416 228.638 622.673 228.889C622.929 229.141 623.058 229.454 623.058 229.829C623.058 230.204 622.929 230.519 622.673 230.776C622.416 231.027 622.086 231.153 621.681 231.153C621.272 231.153 620.937 231.027 620.675 230.776C620.419 230.519 620.29 230.204 620.29 229.829C620.29 229.454 620.419 229.141 620.675 228.889C620.937 228.638 621.272 228.512 621.681 228.512ZM631.265 229.503V238.012C631.265 238.328 631.354 238.555 631.531 238.693C631.714 238.826 631.963 238.893 632.278 238.893C632.481 238.893 632.675 238.87 632.863 238.826C633.05 238.777 633.225 238.72 633.388 238.656L633.951 240.217C633.684 240.355 633.364 240.476 632.989 240.58C632.614 240.683 632.177 240.735 631.679 240.735C630.732 240.735 630.036 240.464 629.593 239.921C629.149 239.374 628.927 238.641 628.927 237.724V231.101H626.611V229.503H631.265ZM640.138 229.503V238.012C640.138 238.328 640.227 238.555 640.404 238.693C640.587 238.826 640.836 238.893 641.151 238.893C641.354 238.893 641.548 238.87 641.736 238.826C641.923 238.777 642.098 238.72 642.261 238.656L642.824 240.217C642.557 240.355 642.237 240.476 641.862 240.58C641.487 240.683 641.05 240.735 640.552 240.735C639.605 240.735 638.91 240.464 638.466 239.921C638.022 239.374 637.8 238.641 637.8 237.724V231.101H635.484V229.503H640.138ZM651.526 238.219C651.526 238.515 651.566 238.73 651.645 238.863C651.729 238.996 651.862 239.097 652.044 239.166L651.563 240.705C651.1 240.661 650.708 240.56 650.387 240.402C650.071 240.239 649.822 239.995 649.64 239.67C649.339 240.03 648.954 240.298 648.485 240.476C648.017 240.649 647.538 240.735 647.05 240.735C646.241 240.735 645.595 240.506 645.111 240.047C644.633 239.583 644.394 238.989 644.394 238.264C644.394 237.41 644.727 236.752 645.393 236.288C646.063 235.824 647.006 235.593 648.219 235.593H649.277V235.297C649.277 234.887 649.144 234.584 648.878 234.387C648.616 234.189 648.231 234.091 647.723 234.091C647.472 234.091 647.149 234.128 646.754 234.202C646.359 234.271 645.965 234.372 645.57 234.505L645.03 232.951C645.538 232.759 646.066 232.613 646.613 232.515C647.166 232.416 647.659 232.367 648.093 232.367C649.262 232.367 650.126 232.606 650.683 233.084C651.245 233.558 651.526 234.244 651.526 235.141V238.219ZM647.856 239.063C648.108 239.063 648.372 238.989 648.648 238.841C648.924 238.688 649.134 238.473 649.277 238.197V236.924H648.7C648.049 236.924 647.57 237.026 647.265 237.228C646.959 237.425 646.806 237.716 646.806 238.101C646.806 238.402 646.897 238.639 647.08 238.811C647.267 238.979 647.526 239.063 647.856 239.063ZM653.984 236.762V234.942H660.392V236.762H653.984ZM669.665 230.228L670.242 240.483H668.126L668 236.096C667.99 235.686 667.985 235.321 667.985 235.001C667.99 234.68 667.997 234.379 668.007 234.098C668.017 233.812 668.032 233.526 668.052 233.24C668.076 232.949 668.101 232.633 668.126 232.293L666.971 238.737H665.136L663.893 232.293C663.923 232.618 663.948 232.927 663.967 233.218C663.992 233.504 664.009 233.792 664.019 234.083C664.029 234.374 664.036 234.688 664.041 235.023C664.046 235.353 664.044 235.723 664.034 236.133L663.96 240.483H661.881L662.458 230.228H664.951L666.091 236.858L667.171 230.228H669.665ZM678.145 238.219C678.145 238.515 678.185 238.73 678.264 238.863C678.348 238.996 678.481 239.097 678.663 239.166L678.182 240.705C677.719 240.661 677.327 240.56 677.006 240.402C676.69 240.239 676.441 239.995 676.259 239.67C675.958 240.03 675.573 240.298 675.104 240.476C674.636 240.649 674.157 240.735 673.669 240.735C672.86 240.735 672.214 240.506 671.731 240.047C671.252 239.583 671.013 238.989 671.013 238.264C671.013 237.41 671.346 236.752 672.012 236.288C672.683 235.824 673.625 235.593 674.838 235.593H675.896V235.297C675.896 234.887 675.763 234.584 675.497 234.387C675.235 234.189 674.85 234.091 674.342 234.091C674.091 234.091 673.768 234.128 673.373 234.202C672.978 234.271 672.584 234.372 672.189 234.505L671.649 232.951C672.157 232.759 672.685 232.613 673.233 232.515C673.785 232.416 674.278 232.367 674.712 232.367C675.881 232.367 676.745 232.606 677.302 233.084C677.864 233.558 678.145 234.244 678.145 235.141V238.219ZM674.476 239.063C674.727 239.063 674.991 238.989 675.267 238.841C675.543 238.688 675.753 238.473 675.896 238.197V236.924H675.319C674.668 236.924 674.189 237.026 673.884 237.228C673.578 237.425 673.425 237.716 673.425 238.101C673.425 238.402 673.516 238.639 673.699 238.811C673.886 238.979 674.145 239.063 674.476 239.063ZM680.478 240.483V238.915H681.514V234.179H680.478V232.626H683.297L683.726 234.394C684.007 233.718 684.365 233.215 684.799 232.885C685.238 232.554 685.773 232.389 686.404 232.389C686.671 232.389 686.907 232.411 687.115 232.455C687.322 232.495 687.517 232.552 687.699 232.626L686.989 234.557C686.846 234.517 686.703 234.488 686.56 234.468C686.417 234.448 686.259 234.438 686.086 234.438C685.573 234.438 685.122 234.648 684.732 235.067C684.347 235.487 684.054 236.019 683.852 236.666V238.915H685.405V240.483H680.478ZM685.798 235.911V233.617L686.145 232.626H687.699L687.263 235.911H685.798ZM696.35 240.025C696.044 240.222 695.674 240.39 695.24 240.528C694.806 240.666 694.318 240.735 693.775 240.735C692.749 240.735 691.987 240.474 691.489 239.951C690.991 239.423 690.742 238.708 690.742 237.805V234.239H689.092V232.626H690.742V230.924L693.08 230.643V232.626H695.61L695.381 234.239H693.08V237.805C693.08 238.195 693.169 238.473 693.346 238.641C693.524 238.809 693.807 238.893 694.197 238.893C694.473 238.893 694.725 238.861 694.952 238.796C695.184 238.727 695.391 238.641 695.573 238.537L696.35 240.025ZM702.952 232.626V238.885H704.949V240.483H698.387V238.885H700.614V234.224H698.461V232.626H702.952ZM702.663 228.127L703.573 229.888L700.081 231.272L699.437 230.088L702.663 228.127ZM707.023 240.483V232.626H709.065L709.228 233.536C709.578 233.141 709.948 232.848 710.338 232.655C710.727 232.463 711.171 232.367 711.669 232.367C712.34 232.367 712.868 232.571 713.253 232.981C713.637 233.39 713.83 233.967 713.83 234.712V240.483H711.492V235.385C711.492 235.065 711.47 234.811 711.425 234.623C711.381 234.431 711.302 234.295 711.188 234.216C711.08 234.133 710.929 234.091 710.737 234.091C710.574 234.091 710.414 234.128 710.256 234.202C710.103 234.271 709.953 234.372 709.805 234.505C709.657 234.638 709.509 234.799 709.361 234.986V240.483H707.023ZM717.923 237.235C717.977 237.664 718.088 238.012 718.256 238.278C718.429 238.54 718.648 238.732 718.915 238.856C719.181 238.974 719.479 239.033 719.81 239.033C720.17 239.033 720.518 238.974 720.853 238.856C721.189 238.737 721.512 238.579 721.822 238.382L722.762 239.655C722.392 239.97 721.943 240.229 721.415 240.432C720.893 240.634 720.296 240.735 719.625 240.735C718.727 240.735 717.975 240.557 717.368 240.202C716.761 239.842 716.305 239.349 715.999 238.722C715.694 238.096 715.541 237.376 715.541 236.562C715.541 235.788 715.689 235.085 715.985 234.453C716.281 233.817 716.712 233.311 717.279 232.936C717.852 232.557 718.55 232.367 719.373 232.367C720.123 232.367 720.772 232.527 721.319 232.848C721.872 233.168 722.298 233.629 722.599 234.231C722.905 234.833 723.058 235.556 723.058 236.399C723.058 236.532 723.053 236.675 723.043 236.828C723.038 236.981 723.028 237.117 723.014 237.235H717.923ZM719.373 233.935C718.954 233.935 718.616 234.086 718.36 234.387C718.103 234.688 717.948 235.168 717.894 235.829H720.779C720.774 235.257 720.663 234.799 720.446 234.453C720.229 234.108 719.872 233.935 719.373 233.935ZM727.558 238.715H731.494L731.272 240.483H724.798V238.833L728.698 234.387H725.124V232.626H731.42V234.268L727.558 238.715ZM746.673 227.165V244.923H745.164V227.165H746.673ZM763.442 230.066C764.182 230.066 764.814 230.174 765.337 230.391C765.859 230.603 766.291 230.902 766.631 231.286C766.977 231.666 767.245 232.115 767.438 232.633C767.63 233.151 767.766 233.713 767.845 234.32C767.924 234.927 767.963 235.556 767.963 236.207C767.963 237.45 767.904 238.491 767.786 239.329C767.667 240.163 767.445 240.789 767.12 241.208C766.799 241.633 766.335 241.845 765.729 241.845C765.433 241.845 765.174 241.778 764.952 241.645C764.735 241.512 764.555 241.339 764.412 241.127C764.274 240.92 764.168 240.696 764.094 240.454C764.024 240.207 763.985 239.975 763.975 239.758H763.916C763.817 239.995 763.682 240.222 763.509 240.439C763.336 240.656 763.117 240.834 762.85 240.972C762.584 241.11 762.259 241.179 761.874 241.179C761.321 241.179 760.877 241.031 760.542 240.735C760.207 240.444 759.962 240.042 759.809 239.529C759.657 239.016 759.58 238.436 759.58 237.79C759.58 236.532 759.837 235.573 760.35 234.912C760.863 234.246 761.605 233.913 762.577 233.913C762.942 233.913 763.302 233.957 763.657 234.046C764.017 234.13 764.404 234.283 764.819 234.505V238.9C764.819 239.369 764.856 239.731 764.93 239.988C765.004 240.244 765.105 240.422 765.233 240.52C765.366 240.619 765.517 240.668 765.684 240.668C765.882 240.668 766.035 240.567 766.143 240.365C766.256 240.163 766.338 239.872 766.387 239.492C766.437 239.107 766.466 238.644 766.476 238.101C766.486 237.558 766.491 236.947 766.491 236.266C766.491 235.536 766.449 234.868 766.365 234.261C766.286 233.649 766.136 233.121 765.914 232.677C765.697 232.234 765.386 231.891 764.981 231.649C764.577 231.407 764.052 231.286 763.405 231.286C762.907 231.286 762.382 231.38 761.829 231.568C761.282 231.755 760.705 232.115 760.098 232.648L759.299 231.723C759.97 231.141 760.648 230.719 761.334 230.458C762.024 230.196 762.727 230.066 763.442 230.066ZM762.599 235.038C762.032 235.038 761.644 235.26 761.437 235.704C761.23 236.143 761.127 236.838 761.127 237.79C761.127 238.264 761.156 238.668 761.215 239.004C761.274 239.339 761.378 239.596 761.526 239.773C761.674 239.951 761.874 240.039 762.125 240.039C762.426 240.039 762.661 239.97 762.828 239.832C762.996 239.694 763.122 239.531 763.206 239.344C763.289 239.152 763.354 238.984 763.398 238.841V235.23C763.265 235.161 763.137 235.112 763.013 235.082C762.89 235.053 762.752 235.038 762.599 235.038ZM775.896 230.228V236.791C775.896 237.388 775.805 237.928 775.623 238.412C775.44 238.895 775.171 239.307 774.816 239.647C774.466 239.988 774.034 240.249 773.521 240.432C773.013 240.614 772.431 240.705 771.775 240.705C771.114 240.705 770.542 240.622 770.059 240.454C769.58 240.281 769.119 240.044 768.675 239.743L769.6 238.249C769.95 238.491 770.278 238.661 770.584 238.759C770.89 238.853 771.238 238.9 771.627 238.9C772.155 238.9 772.594 238.732 772.944 238.397C773.299 238.057 773.477 237.531 773.477 236.821V232.004H770.325V230.228H775.896ZM781.41 232.367C782.219 232.367 782.907 232.539 783.475 232.885C784.042 233.23 784.476 233.716 784.777 234.342C785.078 234.964 785.228 235.694 785.228 236.532C785.228 237.405 785.075 238.158 784.77 238.789C784.469 239.415 784.035 239.896 783.467 240.232C782.9 240.567 782.214 240.735 781.41 240.735C780.611 240.735 779.926 240.57 779.353 240.239C778.786 239.909 778.35 239.43 778.044 238.804C777.743 238.177 777.592 237.425 777.592 236.547C777.592 235.714 777.743 234.983 778.044 234.357C778.35 233.731 778.786 233.242 779.353 232.892C779.926 232.542 780.611 232.367 781.41 232.367ZM781.41 234.091C780.932 234.091 780.577 234.288 780.345 234.683C780.118 235.072 780.005 235.694 780.005 236.547C780.005 237.415 780.118 238.044 780.345 238.434C780.577 238.824 780.932 239.018 781.41 239.018C781.889 239.018 782.242 238.824 782.468 238.434C782.7 238.044 782.816 237.41 782.816 236.532C782.816 235.684 782.7 235.065 782.468 234.675C782.242 234.286 781.889 234.091 781.41 234.091ZM788.907 237.235C788.961 237.664 789.072 238.012 789.24 238.278C789.413 238.54 789.632 238.732 789.899 238.856C790.165 238.974 790.463 239.033 790.794 239.033C791.154 239.033 791.502 238.974 791.837 238.856C792.173 238.737 792.496 238.579 792.806 238.382L793.746 239.655C793.376 239.97 792.927 240.229 792.4 240.432C791.877 240.634 791.28 240.735 790.609 240.735C789.711 240.735 788.959 240.557 788.352 240.202C787.746 239.842 787.289 239.349 786.983 238.722C786.678 238.096 786.525 237.376 786.525 236.562C786.525 235.788 786.673 235.085 786.969 234.453C787.265 233.817 787.696 233.311 788.263 232.936C788.836 232.557 789.534 232.367 790.357 232.367C791.107 232.367 791.756 232.527 792.303 232.848C792.856 233.168 793.282 233.629 793.583 234.231C793.889 234.833 794.042 235.556 794.042 236.399C794.042 236.532 794.037 236.675 794.027 236.828C794.022 236.981 794.012 237.117 793.998 237.235H788.907ZM790.357 233.935C789.938 233.935 789.6 234.086 789.344 234.387C789.087 234.688 788.932 235.168 788.878 235.829H791.763C791.758 235.257 791.647 234.799 791.43 234.453C791.213 234.108 790.856 233.935 790.357 233.935ZM800.747 233.573C800.747 233.208 800.678 232.907 800.54 232.67C800.407 232.428 800.202 232.251 799.926 232.137C799.655 232.019 799.312 231.96 798.897 231.96H798.069V235.312H799.023C799.383 235.312 799.692 235.25 799.948 235.127C800.205 235.003 800.402 234.813 800.54 234.557C800.678 234.3 800.747 233.972 800.747 233.573ZM803.248 233.565C803.248 234.359 803.078 235.016 802.738 235.533C802.397 236.051 801.921 236.439 801.31 236.695C800.698 236.947 799.988 237.072 799.179 237.072H798.069V240.483H795.642V230.228H798.868C800.259 230.228 801.337 230.505 802.101 231.057C802.866 231.61 803.248 232.446 803.248 233.565ZM808.029 232.367C808.838 232.367 809.526 232.539 810.094 232.885C810.661 233.23 811.095 233.716 811.396 234.342C811.697 234.964 811.847 235.694 811.847 236.532C811.847 237.405 811.694 238.158 811.389 238.789C811.088 239.415 810.654 239.896 810.086 240.232C809.519 240.567 808.833 240.735 808.029 240.735C807.23 240.735 806.545 240.57 805.973 240.239C805.405 239.909 804.969 239.43 804.663 238.804C804.362 238.177 804.212 237.425 804.212 236.547C804.212 235.714 804.362 234.983 804.663 234.357C804.969 233.731 805.405 233.242 805.973 232.892C806.545 232.542 807.23 232.367 808.029 232.367ZM808.029 234.091C807.551 234.091 807.196 234.288 806.964 234.683C806.737 235.072 806.624 235.694 806.624 236.547C806.624 237.415 806.737 238.044 806.964 238.434C807.196 238.824 807.551 239.018 808.029 239.018C808.508 239.018 808.861 238.824 809.087 238.434C809.319 238.044 809.435 237.41 809.435 236.532C809.435 235.684 809.319 235.065 809.087 234.675C808.861 234.286 808.508 234.091 808.029 234.091ZM813.573 240.483V238.915H814.609V234.179H813.573V232.626H816.392L816.821 234.394C817.102 233.718 817.46 233.215 817.894 232.885C818.333 232.554 818.868 232.389 819.499 232.389C819.766 232.389 820.003 232.411 820.21 232.455C820.417 232.495 820.612 232.552 820.794 232.626L820.084 234.557C819.941 234.517 819.798 234.488 819.655 234.468C819.512 234.448 819.354 234.438 819.181 234.438C818.668 234.438 818.217 234.648 817.827 235.067C817.443 235.487 817.149 236.019 816.947 236.666V238.915H818.501V240.483H813.573ZM818.893 235.911V233.617L819.24 232.626H820.794L820.358 235.911H818.893ZM829.445 240.025C829.139 240.222 828.77 240.39 828.335 240.528C827.901 240.666 827.413 240.735 826.87 240.735C825.844 240.735 825.082 240.474 824.584 239.951C824.086 239.423 823.837 238.708 823.837 237.805V234.239H822.187V232.626H823.837V230.924L826.175 230.643V232.626H828.705L828.476 234.239H826.175V237.805C826.175 238.195 826.264 238.473 826.441 238.641C826.619 238.809 826.903 238.893 827.292 238.893C827.568 238.893 827.82 238.861 828.047 238.796C828.279 238.727 828.486 238.641 828.668 238.537L829.445 240.025ZM836.047 232.626V238.885H838.045V240.483H831.482V238.885H833.709V234.224H831.556V232.626H836.047ZM834.634 228.512C835.038 228.512 835.369 228.638 835.625 228.889C835.882 229.141 836.01 229.454 836.01 229.829C836.01 230.204 835.882 230.519 835.625 230.776C835.369 231.027 835.038 231.153 834.634 231.153C834.224 231.153 833.889 231.027 833.627 230.776C833.371 230.519 833.243 230.204 833.243 229.829C833.243 229.454 833.371 229.141 833.627 228.889C833.889 228.638 834.224 228.512 834.634 228.512ZM844.217 229.503V238.012C844.217 238.328 844.306 238.555 844.483 238.693C844.666 238.826 844.915 238.893 845.231 238.893C845.433 238.893 845.628 238.87 845.815 238.826C846.003 238.777 846.178 238.72 846.34 238.656L846.903 240.217C846.636 240.355 846.316 240.476 845.941 240.58C845.566 240.683 845.13 240.735 844.631 240.735C843.684 240.735 842.989 240.464 842.545 239.921C842.101 239.374 841.879 238.641 841.879 237.724V231.101H839.563V229.503H844.217ZM853.09 229.503V238.012C853.09 238.328 853.179 238.555 853.356 238.693C853.539 238.826 853.788 238.893 854.104 238.893C854.306 238.893 854.501 238.87 854.688 238.826C854.876 238.777 855.051 238.72 855.213 238.656L855.776 240.217C855.509 240.355 855.189 240.476 854.814 240.58C854.439 240.683 854.002 240.735 853.504 240.735C852.557 240.735 851.862 240.464 851.418 239.921C850.974 239.374 850.752 238.641 850.752 237.724V231.101H848.436V229.503H853.09ZM864.479 238.219C864.479 238.515 864.518 238.73 864.597 238.863C864.681 238.996 864.814 239.097 864.997 239.166L864.516 240.705C864.052 240.661 863.66 240.56 863.339 240.402C863.023 240.239 862.774 239.995 862.592 239.67C862.291 240.03 861.906 240.298 861.438 240.476C860.969 240.649 860.491 240.735 860.002 240.735C859.193 240.735 858.547 240.506 858.064 240.047C857.585 239.583 857.346 238.989 857.346 238.264C857.346 237.41 857.679 236.752 858.345 236.288C859.016 235.824 859.958 235.593 861.171 235.593H862.229V235.297C862.229 234.887 862.096 234.584 861.83 234.387C861.568 234.189 861.184 234.091 860.676 234.091C860.424 234.091 860.101 234.128 859.706 234.202C859.312 234.271 858.917 234.372 858.522 234.505L857.982 232.951C858.49 232.759 859.018 232.613 859.566 232.515C860.118 232.416 860.611 232.367 861.045 232.367C862.215 232.367 863.078 232.606 863.635 233.084C864.197 233.558 864.479 234.244 864.479 235.141V238.219ZM860.809 239.063C861.06 239.063 861.324 238.989 861.6 238.841C861.877 238.688 862.086 238.473 862.229 238.197V236.924H861.652C861.001 236.924 860.523 237.026 860.217 237.228C859.911 237.425 859.758 237.716 859.758 238.101C859.758 238.402 859.849 238.639 860.032 238.811C860.219 238.979 860.478 239.063 860.809 239.063Z" fill="black"/>
<rect x="31" y="95" width="70" height="70" rx="15" fill="#0B3DA6"/>
<rect x="726" y="95" width="70" height="70" rx="15" fill="#0B3CA5"/>
<rect x="126" y="95" width="70" height="70" rx="15" fill="#BA3737"/>
<rect x="821" y="95" width="70" height="70" rx="15" fill="#0B3CA5"/>
<rect x="221" y="95" width="70" height="70" rx="15" fill="#00B798"/>
<rect x="916" y="95" width="70" height="70" rx="15" fill="#353535"/>
<rect x="316" y="95" width="70" height="70" rx="15" fill="#0B3DA6"/>
<rect x="411" y="95" width="70" height="70" rx="15" fill="#353535"/>
<rect x="1011" y="95" width="70" height="70" rx="15" fill="#BA3737"/>
<rect x="1106" y="95" width="70" height="70" rx="15" fill="#00B798"/>
<path d="M538 126.5C536.067 126.5 534.5 128.067 534.5 130C534.5 131.933 536.067 133.5 538 133.5V126.5ZM670 130L635 109.793V150.207L670 130ZM538 130V133.5H638.5V130V126.5H538V130Z" fill="black"/>
<path d="M529.655 51.5522C529.655 50.825 529.831 50.1562 530.181 49.5459C530.545 48.9355 531.032 48.4486 531.642 48.085C532.252 47.7214 532.928 47.5396 533.668 47.5396C534.421 47.5396 535.103 47.7214 535.713 48.085C536.324 48.4486 536.804 48.9355 537.155 49.5459C537.518 50.1562 537.7 50.825 537.7 51.5522C537.7 52.2794 537.518 52.9547 537.155 53.578C536.804 54.1884 536.324 54.6754 535.713 55.039C535.103 55.4026 534.421 55.5844 533.668 55.5844C532.928 55.5844 532.252 55.4026 531.642 55.039C531.032 54.6754 530.545 54.1884 530.181 53.578C529.831 52.9547 529.655 52.2794 529.655 51.5522ZM556.346 51.786C557.553 51.786 558.521 51.5782 559.248 51.1626C559.988 50.7341 560.358 50.1367 560.358 49.3706C560.358 48.8641 560.235 48.4356 559.988 48.085C559.755 47.7343 559.287 47.4097 558.586 47.111C557.885 46.7993 556.833 46.4552 555.43 46.0786C554.106 45.741 552.943 45.3254 551.943 44.832C550.957 44.3255 550.184 43.6762 549.625 42.8841C549.08 42.0919 548.807 41.092 548.807 39.8843C548.807 38.6766 549.145 37.6183 549.82 36.7092C550.496 35.7872 551.469 35.073 552.742 34.5666C554.028 34.0471 555.573 33.7874 557.378 33.7874C559.144 33.7874 560.69 34.0211 562.014 34.4886C563.339 34.9431 564.475 35.5145 565.423 36.2028L563.319 39.3389C562.488 38.8065 561.586 38.3779 560.612 38.0533C559.651 37.7157 558.612 37.5468 557.495 37.5468C556.287 37.5468 555.404 37.7221 554.846 38.0728C554.3 38.4234 554.028 38.9104 554.028 39.5337C554.028 39.9752 554.164 40.3518 554.437 40.6635C554.722 40.9621 555.229 41.2543 555.956 41.54C556.696 41.8127 557.748 42.1439 559.112 42.5335C560.449 42.8971 561.612 43.3256 562.598 43.8191C563.598 44.3125 564.371 44.9683 564.916 45.7864C565.462 46.6046 565.735 47.6759 565.735 49.0005C565.735 50.4939 565.3 51.7275 564.429 52.7015C563.559 53.6754 562.41 54.4026 560.982 54.8831C559.566 55.3506 558.027 55.5844 556.365 55.5844C554.417 55.5844 552.716 55.3052 551.262 54.7468C549.807 54.1884 548.574 53.4677 547.561 52.5846L550.229 49.5848C551.034 50.2212 551.95 50.7471 552.976 51.1626C554.015 51.5782 555.138 51.786 556.346 51.786ZM580.426 33.7874C582.478 33.7874 584.218 34.2354 585.646 35.1314C587.075 36.0275 588.159 37.2936 588.899 38.9298C589.653 40.5531 590.029 42.4555 590.029 44.6372C590.029 46.8708 589.653 48.8057 588.899 50.4419C588.146 52.0782 587.055 53.3443 585.627 54.2403C584.198 55.1364 582.458 55.5844 580.407 55.5844C578.368 55.5844 576.628 55.1493 575.186 54.2793C573.758 53.3962 572.667 52.1431 571.914 50.5198C571.16 48.8836 570.784 46.9357 570.784 44.6761C570.784 42.5205 571.16 40.6245 571.914 38.9883C572.667 37.352 573.764 36.0794 575.206 35.1704C576.647 34.2484 578.387 33.7874 580.426 33.7874ZM580.426 37.6637C578.985 37.6637 577.907 38.2286 577.192 39.3584C576.491 40.4882 576.141 42.2607 576.141 44.6761C576.141 47.1175 576.491 48.9031 577.192 50.0329C577.894 51.1497 578.965 51.7081 580.407 51.7081C581.848 51.7081 582.919 51.1497 583.621 50.0329C584.322 48.9031 584.672 47.1045 584.672 44.6372C584.672 42.2348 584.322 40.4752 583.621 39.3584C582.919 38.2286 581.854 37.6637 580.426 37.6637ZM595.41 55V51.4353H598.312V37.9169H595.41V34.3718H602.227L603.182 39.1052C603.935 37.352 604.883 36.034 606.026 35.1509C607.168 34.2549 608.603 33.8069 610.33 33.8069C610.993 33.8069 611.577 33.8588 612.084 33.9627C612.603 34.0666 613.096 34.2029 613.564 34.3718L612.025 38.6961C611.623 38.5922 611.239 38.5143 610.876 38.4623C610.512 38.3974 610.103 38.365 609.649 38.365C608.22 38.365 606.974 38.9233 605.909 40.0401C604.857 41.144 604.039 42.6438 603.454 44.5398V51.4353H607.564V55H595.41ZM609.22 42.4166V36.943L609.921 34.3718H613.564L612.648 42.4166H609.22ZM636.378 53.8507C635.612 54.3572 634.683 54.7727 633.593 55.0974C632.502 55.422 631.32 55.5844 630.047 55.5844C627.528 55.5844 625.632 54.9351 624.36 53.6365C623.087 52.3249 622.451 50.5848 622.451 48.4161V38.0143H617.97V34.3718H622.451V29.8332L627.593 29.2098V34.3718H634.411L633.885 38.0143H627.593V48.3966C627.593 49.4615 627.853 50.2406 628.372 50.7341C628.892 51.2276 629.729 51.4743 630.885 51.4743C631.625 51.4743 632.301 51.3899 632.911 51.2211C633.534 51.0393 634.099 50.812 634.606 50.5393L636.378 53.8507ZM648.284 41.3647C648.284 43.1178 648.427 44.7216 648.713 46.176C648.998 47.6175 649.446 48.9875 650.057 50.2861C650.667 51.5717 651.459 52.8508 652.433 54.1234C653.42 55.3961 654.615 56.7466 656.017 58.1751L653.095 60.9021C651.018 59.149 649.226 57.318 647.719 55.4091C646.226 53.5001 645.07 51.4029 644.252 49.1173C643.447 46.8318 643.044 44.2476 643.044 41.3647C643.044 38.4818 643.447 35.8976 644.252 33.6121C645.07 31.3136 646.226 29.2163 647.719 27.3204C649.226 25.4114 651.018 23.5804 653.095 21.8273L656.017 24.5544C654.68 25.9179 653.524 27.236 652.55 28.5086C651.576 29.7812 650.771 31.0733 650.135 32.3849C649.511 33.6835 649.044 35.0665 648.732 36.5339C648.433 37.9884 648.284 39.5986 648.284 41.3647ZM676.046 41.3647C676.046 39.5986 675.89 37.9884 675.578 36.5339C675.28 35.0665 674.812 33.6835 674.176 32.3849C673.553 31.0733 672.754 29.7812 671.78 28.5086C670.806 27.236 669.65 25.9179 668.313 24.5544L671.235 21.8273C673.312 23.5804 675.098 25.4114 676.591 27.3204C678.098 29.2163 679.253 31.3136 680.059 33.6121C680.877 35.8976 681.286 38.4818 681.286 41.3647C681.286 44.2476 680.877 46.8318 680.059 49.1173C679.253 51.4029 678.098 53.5001 676.591 55.4091C675.098 57.318 673.312 59.149 671.235 60.9021L668.313 58.1751C669.715 56.7466 670.903 55.3961 671.877 54.1234C672.864 52.8508 673.663 51.5717 674.273 50.2861C674.884 48.9875 675.332 47.6175 675.617 46.176C675.903 44.7216 676.046 43.1178 676.046 41.3647Z" fill="black"/>
</g>
<defs>
<clipPath id="clip0_120_781">
<rect width="1208" height="259" fill="white"/>
</clipPath>
</defs>
</svg>
