<svg width="1208" height="259" viewBox="0 0 1208 259" fill="none" xmlns="http://www.w3.org/2000/svg">
<g clip-path="url(#clip0_118_467)">
<rect width="1208" height="259" fill="white"/>
<rect x="342.249" y="223.665" width="25.7725" height="25.7725" rx="5.03368" fill="#0037AC"/>
<path d="M352.232 230.397C352.061 229.981 351.471 229.981 351.3 230.397L351.032 231.052C350.982 231.174 350.981 231.311 351.031 231.433L354.627 240.256C354.762 240.587 354.518 240.949 354.161 240.949H350.582H349.374C349.016 240.949 348.772 240.586 348.908 240.255L349.529 238.743C349.579 238.621 349.579 238.485 349.529 238.362L349.247 237.67C349.077 237.252 348.486 237.252 348.315 237.669L346.625 241.785C346.489 242.117 346.733 242.48 347.091 242.48H356.441C356.799 242.48 357.043 242.117 356.907 241.786L352.232 230.397Z" fill="white"/>
<path d="M355.642 232.845C355.507 232.514 355.751 232.152 356.108 232.152H359.687H360.895C361.253 232.152 361.497 232.515 361.361 232.846L360.74 234.358C360.69 234.48 360.69 234.617 360.74 234.739L361.022 235.431C361.192 235.849 361.783 235.849 361.954 235.433L363.644 231.316C363.78 230.984 363.537 230.621 363.179 230.621H353.828C353.47 230.621 353.226 230.984 353.362 231.316L358.038 242.704C358.208 243.12 358.798 243.12 358.969 242.704L359.238 242.049C359.288 241.927 359.288 241.79 359.238 241.668L355.642 232.845Z" fill="white"/>
<path d="M383.915 238.027H380.268L379.557 240.483H377.811L381.059 230.273H383.19L386.446 240.483H384.626L383.915 238.027ZM380.623 236.703H383.553L382.095 231.605L380.623 236.703ZM389.533 232.67V238.131C389.533 238.594 389.624 238.925 389.807 239.122C389.994 239.319 390.275 239.418 390.65 239.418C391.005 239.418 391.348 239.312 391.679 239.1C392.009 238.888 392.271 238.629 392.463 238.323V232.67H394.12V240.483H392.692L392.589 239.485C392.298 239.874 391.93 240.173 391.486 240.38C391.042 240.582 390.589 240.683 390.125 240.683C389.37 240.683 388.805 240.476 388.431 240.062C388.061 239.642 387.876 239.068 387.876 238.338V232.67H389.533ZM403.274 240.069C402.988 240.252 402.646 240.4 402.246 240.513C401.846 240.626 401.43 240.683 400.996 240.683C400.088 240.683 399.397 240.449 398.924 239.98C398.455 239.507 398.221 238.885 398.221 238.116V233.876H396.482V232.67H398.221V230.924L399.878 230.724V232.67H402.512L402.327 233.876H399.878V238.101C399.878 238.52 399.982 238.833 400.189 239.041C400.401 239.243 400.747 239.344 401.225 239.344C401.511 239.344 401.775 239.309 402.017 239.24C402.258 239.171 402.478 239.083 402.675 238.974L403.274 240.069ZM408.751 232.463C409.516 232.463 410.16 232.633 410.683 232.973C411.205 233.314 411.6 233.79 411.866 234.401C412.138 235.013 412.273 235.733 412.273 236.562C412.273 237.386 412.135 238.108 411.859 238.73C411.588 239.346 411.188 239.827 410.66 240.173C410.137 240.513 409.499 240.683 408.744 240.683C407.989 240.683 407.348 240.518 406.82 240.187C406.297 239.852 405.898 239.376 405.622 238.759C405.35 238.143 405.215 237.415 405.215 236.577C405.215 235.763 405.35 235.048 405.622 234.431C405.898 233.814 406.3 233.334 406.828 232.988C407.355 232.638 407.997 232.463 408.751 232.463ZM408.751 233.75C408.155 233.75 407.706 233.98 407.405 234.438C407.104 234.892 406.953 235.605 406.953 236.577C406.953 237.544 407.101 238.256 407.397 238.715C407.698 239.174 408.147 239.403 408.744 239.403C409.341 239.403 409.787 239.174 410.083 238.715C410.384 238.256 410.535 237.539 410.535 236.562C410.535 235.6 410.387 234.892 410.091 234.438C409.795 233.98 409.348 233.75 408.751 233.75ZM414.569 240.483V239.3H415.715V233.847H414.569V232.67H416.981L417.284 234.483C417.575 233.827 417.935 233.329 418.364 232.988C418.798 232.643 419.356 232.47 420.036 232.47C420.268 232.47 420.475 232.49 420.658 232.529C420.845 232.564 421.03 232.611 421.213 232.67L420.717 234.091C420.559 234.046 420.411 234.014 420.273 233.994C420.135 233.97 419.982 233.957 419.814 233.957C419.247 233.957 418.756 234.17 418.342 234.594C417.933 235.018 417.61 235.62 417.373 236.399V239.3H418.949V240.483H414.569ZM419.748 235.548V233.625L419.955 232.67H421.213L420.932 235.548H419.748ZM425.151 239.344C425.151 238.984 425.279 238.676 425.536 238.419C425.792 238.158 426.108 238.027 426.483 238.027C426.862 238.027 427.178 238.158 427.43 238.419C427.686 238.676 427.814 238.984 427.814 239.344C427.814 239.714 427.686 240.03 427.43 240.291C427.178 240.552 426.862 240.683 426.483 240.683C426.108 240.683 425.792 240.552 425.536 240.291C425.279 240.03 425.151 239.714 425.151 239.344ZM425.151 234.091C425.151 233.849 425.21 233.627 425.328 233.425C425.447 233.223 425.607 233.062 425.809 232.944C426.012 232.825 426.236 232.766 426.483 232.766C426.862 232.766 427.178 232.897 427.43 233.158C427.686 233.415 427.814 233.726 427.814 234.091C427.814 234.456 427.686 234.771 427.43 235.038C427.178 235.299 426.862 235.43 426.483 235.43C426.108 235.43 425.792 235.299 425.536 235.038C425.279 234.771 425.151 234.456 425.151 234.091ZM447.595 230.228V236.791C447.595 237.388 447.504 237.928 447.321 238.412C447.139 238.895 446.87 239.307 446.515 239.647C446.165 239.988 445.733 240.249 445.22 240.432C444.712 240.614 444.13 240.705 443.474 240.705C442.813 240.705 442.241 240.622 441.757 240.454C441.279 240.281 440.818 240.044 440.374 239.743L441.299 238.249C441.649 238.491 441.977 238.661 442.283 238.759C442.589 238.853 442.936 238.9 443.326 238.9C443.854 238.9 444.293 238.732 444.643 238.397C444.998 238.057 445.176 237.531 445.176 236.821V232.004H442.024V230.228H447.595ZM453.109 232.367C453.918 232.367 454.606 232.539 455.173 232.885C455.741 233.23 456.175 233.716 456.476 234.342C456.776 234.964 456.927 235.694 456.927 236.532C456.927 237.405 456.774 238.158 456.468 238.789C456.167 239.415 455.733 239.896 455.166 240.232C454.599 240.567 453.913 240.735 453.109 240.735C452.31 240.735 451.624 240.57 451.052 240.239C450.485 239.909 450.048 239.43 449.742 238.804C449.442 238.177 449.291 237.425 449.291 236.547C449.291 235.714 449.442 234.983 449.742 234.357C450.048 233.731 450.485 233.242 451.052 232.892C451.624 232.542 452.31 232.367 453.109 232.367ZM453.109 234.091C452.631 234.091 452.275 234.288 452.044 234.683C451.817 235.072 451.703 235.694 451.703 236.547C451.703 237.415 451.817 238.044 452.044 238.434C452.275 238.824 452.631 239.018 453.109 239.018C453.587 239.018 453.94 238.824 454.167 238.434C454.399 238.044 454.515 237.41 454.515 236.532C454.515 235.684 454.399 235.065 454.167 234.675C453.94 234.286 453.587 234.091 453.109 234.091ZM461.73 239.063C462.12 239.063 462.433 239.001 462.67 238.878C462.912 238.755 463.033 238.57 463.033 238.323C463.033 238.155 462.986 238.015 462.892 237.901C462.798 237.788 462.618 237.679 462.352 237.576C462.086 237.472 461.691 237.349 461.168 237.206C460.69 237.077 460.265 236.915 459.896 236.717C459.53 236.52 459.244 236.266 459.037 235.955C458.835 235.644 458.734 235.257 458.734 234.794C458.734 234.325 458.865 233.908 459.126 233.543C459.387 233.178 459.772 232.892 460.28 232.685C460.788 232.473 461.41 232.367 462.145 232.367C462.845 232.367 463.454 232.458 463.972 232.64C464.495 232.818 464.947 233.045 465.326 233.321L464.394 234.697C464.069 234.495 463.718 234.335 463.343 234.216C462.969 234.093 462.591 234.031 462.211 234.031C461.832 234.031 461.548 234.083 461.361 234.187C461.178 234.286 461.087 234.436 461.087 234.638C461.087 234.771 461.134 234.887 461.227 234.986C461.326 235.08 461.508 235.178 461.775 235.282C462.041 235.381 462.431 235.504 462.944 235.652C463.452 235.795 463.893 235.96 464.268 236.148C464.648 236.335 464.942 236.587 465.149 236.902C465.356 237.213 465.46 237.625 465.46 238.138C465.46 238.71 465.289 239.191 464.949 239.581C464.609 239.965 464.157 240.254 463.595 240.446C463.033 240.639 462.416 240.735 461.745 240.735C460.986 240.735 460.315 240.626 459.733 240.409C459.151 240.192 458.655 239.906 458.246 239.551L459.422 238.234C459.728 238.471 460.073 238.668 460.458 238.826C460.848 238.984 461.272 239.063 461.73 239.063ZM469.479 237.235C469.533 237.664 469.644 238.012 469.812 238.278C469.984 238.54 470.204 238.732 470.47 238.856C470.737 238.974 471.035 239.033 471.366 239.033C471.726 239.033 472.073 238.974 472.409 238.856C472.744 238.737 473.067 238.579 473.378 238.382L474.318 239.655C473.948 239.97 473.499 240.229 472.971 240.432C472.448 240.634 471.851 240.735 471.181 240.735C470.283 240.735 469.531 240.557 468.924 240.202C468.317 239.842 467.861 239.349 467.555 238.722C467.249 238.096 467.096 237.376 467.096 236.562C467.096 235.788 467.244 235.085 467.54 234.453C467.836 233.817 468.268 233.311 468.835 232.936C469.407 232.557 470.105 232.367 470.929 232.367C471.679 232.367 472.327 232.527 472.875 232.848C473.427 233.168 473.854 233.629 474.155 234.231C474.461 234.833 474.614 235.556 474.614 236.399C474.614 236.532 474.609 236.675 474.599 236.828C474.594 236.981 474.584 237.117 474.569 237.235H469.479ZM470.929 233.935C470.51 233.935 470.172 234.086 469.915 234.387C469.659 234.688 469.503 235.168 469.449 235.829H472.335C472.33 235.257 472.219 234.799 472.002 234.453C471.785 234.108 471.427 233.935 470.929 233.935ZM480.675 232.367C481.361 232.367 481.913 232.537 482.332 232.877C482.752 233.218 483.058 233.699 483.25 234.32C483.447 234.942 483.546 235.679 483.546 236.532C483.546 237.341 483.428 238.064 483.191 238.7C482.954 239.332 482.611 239.83 482.162 240.195C481.713 240.555 481.168 240.735 480.527 240.735C479.763 240.735 479.141 240.461 478.663 239.914V243.517L476.325 243.761V232.626H478.396L478.5 233.506C478.82 233.097 479.171 232.806 479.55 232.633C479.93 232.455 480.305 232.367 480.675 232.367ZM479.95 234.091C479.679 234.091 479.439 234.172 479.232 234.335C479.025 234.498 478.835 234.72 478.663 235.001V238.315C478.825 238.557 478.996 238.735 479.173 238.848C479.356 238.962 479.57 239.018 479.817 239.018C480.231 239.018 480.554 238.831 480.786 238.456C481.018 238.076 481.134 237.445 481.134 236.562C481.134 235.911 481.087 235.408 480.993 235.053C480.9 234.692 480.764 234.443 480.586 234.305C480.409 234.162 480.197 234.091 479.95 234.091ZM487.536 229.274V233.403C487.866 233.052 488.224 232.793 488.608 232.626C488.998 232.453 489.41 232.367 489.844 232.367C490.545 232.367 491.08 232.571 491.45 232.981C491.82 233.39 492.005 233.967 492.005 234.712V240.483H489.667V235.363C489.667 234.89 489.612 234.559 489.504 234.372C489.4 234.184 489.203 234.091 488.912 234.091C488.749 234.091 488.589 234.13 488.431 234.209C488.278 234.283 488.128 234.392 487.98 234.535C487.832 234.678 487.684 234.848 487.536 235.045V240.483H485.198V229.503L487.536 229.274ZM510.313 237.487C510.313 238.123 510.145 238.685 509.81 239.174C509.479 239.662 509.003 240.044 508.382 240.321C507.76 240.597 507.013 240.735 506.14 240.735C505.173 240.735 504.362 240.594 503.706 240.313C503.055 240.027 502.514 239.674 502.085 239.255L503.313 237.894C503.693 238.224 504.113 238.481 504.571 238.663C505.03 238.841 505.533 238.93 506.081 238.93C506.421 238.93 506.719 238.88 506.976 238.782C507.232 238.683 507.432 238.54 507.575 238.352C507.718 238.165 507.79 237.938 507.79 237.672C507.79 237.42 507.733 237.208 507.62 237.035C507.506 236.863 507.314 236.707 507.043 236.569C506.776 236.431 506.404 236.291 505.925 236.148C505.126 235.901 504.483 235.63 503.994 235.334C503.511 235.038 503.158 234.695 502.936 234.305C502.719 233.916 502.611 233.462 502.611 232.944C502.611 232.317 502.783 231.782 503.129 231.338C503.479 230.894 503.947 230.556 504.534 230.325C505.121 230.088 505.767 229.969 506.473 229.969C507.267 229.969 507.967 230.085 508.574 230.317C509.181 230.544 509.706 230.87 510.15 231.294L509.003 232.611C508.658 232.32 508.286 232.105 507.886 231.967C507.487 231.824 507.08 231.753 506.665 231.753C506.359 231.753 506.091 231.792 505.859 231.871C505.627 231.945 505.447 232.056 505.319 232.204C505.19 232.352 505.126 232.537 505.126 232.759C505.126 232.976 505.188 233.158 505.311 233.306C505.435 233.454 505.649 233.595 505.955 233.728C506.261 233.856 506.685 234.007 507.228 234.179C507.874 234.377 508.426 234.614 508.885 234.89C509.349 235.161 509.701 235.504 509.943 235.918C510.19 236.333 510.313 236.855 510.313 237.487ZM518.431 238.219C518.431 238.515 518.471 238.73 518.55 238.863C518.633 238.996 518.767 239.097 518.949 239.166L518.468 240.705C518.005 240.661 517.612 240.56 517.292 240.402C516.976 240.239 516.727 239.995 516.545 239.67C516.244 240.03 515.859 240.298 515.39 240.476C514.922 240.649 514.443 240.735 513.955 240.735C513.146 240.735 512.5 240.506 512.016 240.047C511.538 239.583 511.299 238.989 511.299 238.264C511.299 237.41 511.632 236.752 512.297 236.288C512.968 235.824 513.91 235.593 515.124 235.593H516.182V235.297C516.182 234.887 516.049 234.584 515.782 234.387C515.521 234.189 515.136 234.091 514.628 234.091C514.377 234.091 514.054 234.128 513.659 234.202C513.264 234.271 512.87 234.372 512.475 234.505L511.935 232.951C512.443 232.759 512.971 232.613 513.518 232.515C514.071 232.416 514.564 232.367 514.998 232.367C516.167 232.367 517.03 232.606 517.588 233.084C518.15 233.558 518.431 234.244 518.431 235.141V238.219ZM514.761 239.063C515.013 239.063 515.277 238.989 515.553 238.841C515.829 238.688 516.039 238.473 516.182 238.197V236.924H515.605C514.954 236.924 514.475 237.026 514.169 237.228C513.864 237.425 513.711 237.716 513.711 238.101C513.711 238.402 513.802 238.639 513.984 238.811C514.172 238.979 514.431 239.063 514.761 239.063ZM520.69 240.483V232.626H522.732L522.894 233.536C523.245 233.141 523.615 232.848 524.004 232.655C524.394 232.463 524.838 232.367 525.336 232.367C526.007 232.367 526.535 232.571 526.92 232.981C527.304 233.39 527.497 233.967 527.497 234.712V240.483H525.159V235.385C525.159 235.065 525.136 234.811 525.092 234.623C525.048 234.431 524.969 234.295 524.855 234.216C524.747 234.133 524.596 234.091 524.404 234.091C524.241 234.091 524.081 234.128 523.923 234.202C523.77 234.271 523.62 234.372 523.472 234.505C523.324 234.638 523.176 234.799 523.028 234.986V240.483H520.69ZM536.636 240.025C536.33 240.222 535.96 240.39 535.526 240.528C535.092 240.666 534.604 240.735 534.061 240.735C533.035 240.735 532.273 240.474 531.775 239.951C531.277 239.423 531.028 238.708 531.028 237.805V234.239H529.378V232.626H531.028V230.924L533.366 230.643V232.626H535.896L535.667 234.239H533.366V237.805C533.366 238.195 533.454 238.473 533.632 238.641C533.81 238.809 534.093 238.893 534.483 238.893C534.759 238.893 535.011 238.861 535.238 238.796C535.469 238.727 535.677 238.641 535.859 238.537L536.636 240.025ZM543.238 232.626V238.885H545.235V240.483H538.672V238.885H540.899V234.224H538.746V232.626H543.238ZM541.824 228.512C542.229 228.512 542.559 228.638 542.816 228.889C543.072 229.141 543.201 229.454 543.201 229.829C543.201 230.204 543.072 230.519 542.816 230.776C542.559 231.027 542.229 231.153 541.824 231.153C541.415 231.153 541.079 231.027 540.818 230.776C540.562 230.519 540.433 230.204 540.433 229.829C540.433 229.454 540.562 229.141 540.818 228.889C541.079 228.638 541.415 228.512 541.824 228.512ZM553.923 238.219C553.923 238.515 553.963 238.73 554.042 238.863C554.126 238.996 554.259 239.097 554.441 239.166L553.96 240.705C553.497 240.661 553.104 240.56 552.784 240.402C552.468 240.239 552.219 239.995 552.037 239.67C551.736 240.03 551.351 240.298 550.882 240.476C550.414 240.649 549.935 240.735 549.447 240.735C548.638 240.735 547.992 240.506 547.508 240.047C547.03 239.583 546.791 238.989 546.791 238.264C546.791 237.41 547.124 236.752 547.79 236.288C548.46 235.824 549.403 235.593 550.616 235.593H551.674V235.297C551.674 234.887 551.541 234.584 551.274 234.387C551.013 234.189 550.628 234.091 550.12 234.091C549.869 234.091 549.546 234.128 549.151 234.202C548.756 234.271 548.362 234.372 547.967 234.505L547.427 232.951C547.935 232.759 548.463 232.613 549.01 232.515C549.563 232.416 550.056 232.367 550.49 232.367C551.659 232.367 552.522 232.606 553.08 233.084C553.642 233.558 553.923 234.244 553.923 235.141V238.219ZM550.253 239.063C550.505 239.063 550.769 238.989 551.045 238.841C551.321 238.688 551.531 238.473 551.674 238.197V236.924H551.097C550.446 236.924 549.967 237.026 549.661 237.228C549.356 237.425 549.203 237.716 549.203 238.101C549.203 238.402 549.294 238.639 549.476 238.811C549.664 238.979 549.923 239.063 550.253 239.063ZM563.159 231.368L563.706 233.084C563.43 233.193 563.107 233.272 562.737 233.321C562.367 233.371 561.936 233.395 561.442 233.395C561.936 233.607 562.31 233.871 562.567 234.187C562.828 234.498 562.959 234.907 562.959 235.415C562.959 235.923 562.823 236.377 562.552 236.777C562.281 237.171 561.896 237.482 561.398 237.709C560.9 237.936 560.31 238.049 559.63 238.049C559.462 238.049 559.304 238.042 559.156 238.027C559.008 238.012 558.862 237.99 558.719 237.96C558.636 238.005 558.571 238.069 558.527 238.153C558.483 238.237 558.46 238.323 558.46 238.412C558.46 238.535 558.51 238.646 558.608 238.745C558.712 238.843 558.951 238.893 559.326 238.893H560.614C561.225 238.893 561.753 238.991 562.197 239.189C562.646 239.386 562.994 239.655 563.24 239.995C563.487 240.335 563.61 240.725 563.61 241.164C563.61 241.968 563.257 242.602 562.552 243.066C561.847 243.529 560.799 243.761 559.408 243.761C558.401 243.761 557.622 243.658 557.069 243.45C556.522 243.248 556.14 242.957 555.923 242.577C555.711 242.202 555.604 241.756 555.604 241.238H557.676C557.676 241.465 557.721 241.65 557.809 241.793C557.903 241.941 558.078 242.05 558.335 242.119C558.596 242.188 558.973 242.222 559.467 242.222C559.965 242.222 560.345 242.183 560.606 242.104C560.868 242.025 561.045 241.916 561.139 241.778C561.238 241.645 561.287 241.495 561.287 241.327C561.287 241.095 561.196 240.908 561.013 240.765C560.831 240.622 560.542 240.55 560.147 240.55H558.897C558.049 240.55 557.432 240.395 557.047 240.084C556.663 239.768 556.47 239.401 556.47 238.981C556.47 238.69 556.547 238.414 556.7 238.153C556.857 237.891 557.077 237.672 557.358 237.494C556.855 237.228 556.495 236.915 556.278 236.555C556.061 236.19 555.952 235.753 555.952 235.245C555.952 234.653 556.103 234.145 556.404 233.721C556.704 233.292 557.119 232.961 557.647 232.729C558.179 232.497 558.786 232.382 559.467 232.382C560.054 232.391 560.564 232.352 560.998 232.263C561.432 232.169 561.822 232.044 562.167 231.886C562.513 231.723 562.843 231.55 563.159 231.368ZM559.526 233.898C559.156 233.898 558.862 234.017 558.645 234.253C558.428 234.485 558.32 234.806 558.32 235.215C558.32 235.649 558.431 235.982 558.653 236.214C558.875 236.446 559.166 236.562 559.526 236.562C559.916 236.562 560.212 236.446 560.414 236.214C560.621 235.982 560.725 235.64 560.725 235.186C560.725 234.747 560.623 234.424 560.421 234.216C560.219 234.004 559.921 233.898 559.526 233.898ZM568.458 232.367C569.267 232.367 569.955 232.539 570.522 232.885C571.09 233.23 571.524 233.716 571.825 234.342C572.126 234.964 572.276 235.694 572.276 236.532C572.276 237.405 572.123 238.158 571.817 238.789C571.516 239.415 571.082 239.896 570.515 240.232C569.948 240.567 569.262 240.735 568.458 240.735C567.659 240.735 566.973 240.57 566.401 240.239C565.834 239.909 565.397 239.43 565.092 238.804C564.791 238.177 564.64 237.425 564.64 236.547C564.64 235.714 564.791 234.983 565.092 234.357C565.397 233.731 565.834 233.242 566.401 232.892C566.973 232.542 567.659 232.367 568.458 232.367ZM568.458 234.091C567.98 234.091 567.625 234.288 567.393 234.683C567.166 235.072 567.052 235.694 567.052 236.547C567.052 237.415 567.166 238.044 567.393 238.434C567.625 238.824 567.98 239.018 568.458 239.018C568.937 239.018 569.289 238.824 569.516 238.434C569.748 238.044 569.864 237.41 569.864 236.532C569.864 235.684 569.748 235.065 569.516 234.675C569.289 234.286 568.937 234.091 568.458 234.091ZM587.795 233.573C587.795 233.208 587.726 232.907 587.588 232.67C587.455 232.428 587.25 232.251 586.974 232.137C586.702 232.019 586.36 231.96 585.945 231.96H585.117V235.312H586.071C586.431 235.312 586.739 235.25 586.996 235.127C587.252 235.003 587.45 234.813 587.588 234.557C587.726 234.3 587.795 233.972 587.795 233.573ZM590.296 233.565C590.296 234.359 590.126 235.016 589.785 235.533C589.445 236.051 588.969 236.439 588.357 236.695C587.746 236.947 587.035 237.072 586.226 237.072H585.117V240.483H582.69V230.228H585.916C587.307 230.228 588.384 230.505 589.149 231.057C589.914 231.61 590.296 232.446 590.296 233.565ZM595.077 232.367C595.886 232.367 596.574 232.539 597.142 232.885C597.709 233.23 598.143 233.716 598.444 234.342C598.745 234.964 598.895 235.694 598.895 236.532C598.895 237.405 598.742 238.158 598.436 238.789C598.135 239.415 597.701 239.896 597.134 240.232C596.567 240.567 595.881 240.735 595.077 240.735C594.278 240.735 593.592 240.57 593.02 240.239C592.453 239.909 592.016 239.43 591.711 238.804C591.41 238.177 591.259 237.425 591.259 236.547C591.259 235.714 591.41 234.983 591.711 234.357C592.016 233.731 592.453 233.242 593.02 232.892C593.592 232.542 594.278 232.367 595.077 232.367ZM595.077 234.091C594.599 234.091 594.244 234.288 594.012 234.683C593.785 235.072 593.671 235.694 593.671 236.547C593.671 237.415 593.785 238.044 594.012 238.434C594.244 238.824 594.599 239.018 595.077 239.018C595.556 239.018 595.908 238.824 596.135 238.434C596.367 238.044 596.483 237.41 596.483 236.532C596.483 235.684 596.367 235.065 596.135 234.675C595.908 234.286 595.556 234.091 595.077 234.091ZM600.621 240.483V238.915H601.656V234.179H600.621V232.626H603.44L603.869 234.394C604.15 233.718 604.508 233.215 604.942 232.885C605.381 232.554 605.916 232.389 606.547 232.389C606.814 232.389 607.05 232.411 607.258 232.455C607.465 232.495 607.66 232.552 607.842 232.626L607.132 234.557C606.989 234.517 606.846 234.488 606.703 234.468C606.56 234.448 606.402 234.438 606.229 234.438C605.716 234.438 605.265 234.648 604.875 235.067C604.49 235.487 604.197 236.019 603.995 236.666V238.915H605.548V240.483H600.621ZM605.941 235.911V233.617L606.288 232.626H607.842L607.406 235.911H605.941ZM616.493 240.025C616.187 240.222 615.817 240.39 615.383 240.528C614.949 240.666 614.461 240.735 613.918 240.735C612.892 240.735 612.13 240.474 611.632 239.951C611.134 239.423 610.885 238.708 610.885 237.805V234.239H609.235V232.626H610.885V230.924L613.223 230.643V232.626H615.753L615.524 234.239H613.223V237.805C613.223 238.195 613.312 238.473 613.489 238.641C613.667 238.809 613.95 238.893 614.34 238.893C614.616 238.893 614.868 238.861 615.095 238.796C615.327 238.727 615.534 238.641 615.716 238.537L616.493 240.025ZM623.095 232.626V238.885H625.092V240.483H618.529V238.885H620.757V234.224H618.603V232.626H623.095ZM621.681 228.512C622.086 228.512 622.416 228.638 622.673 228.889C622.929 229.141 623.058 229.454 623.058 229.829C623.058 230.204 622.929 230.519 622.673 230.776C622.416 231.027 622.086 231.153 621.681 231.153C621.272 231.153 620.937 231.027 620.675 230.776C620.419 230.519 620.29 230.204 620.29 229.829C620.29 229.454 620.419 229.141 620.675 228.889C620.937 228.638 621.272 228.512 621.681 228.512ZM631.265 229.503V238.012C631.265 238.328 631.354 238.555 631.531 238.693C631.714 238.826 631.963 238.893 632.278 238.893C632.481 238.893 632.675 238.87 632.863 238.826C633.05 238.777 633.225 238.72 633.388 238.656L633.951 240.217C633.684 240.355 633.364 240.476 632.989 240.58C632.614 240.683 632.177 240.735 631.679 240.735C630.732 240.735 630.036 240.464 629.593 239.921C629.149 239.374 628.927 238.641 628.927 237.724V231.101H626.611V229.503H631.265ZM640.138 229.503V238.012C640.138 238.328 640.227 238.555 640.404 238.693C640.587 238.826 640.836 238.893 641.151 238.893C641.354 238.893 641.548 238.87 641.736 238.826C641.923 238.777 642.098 238.72 642.261 238.656L642.824 240.217C642.557 240.355 642.237 240.476 641.862 240.58C641.487 240.683 641.05 240.735 640.552 240.735C639.605 240.735 638.91 240.464 638.466 239.921C638.022 239.374 637.8 238.641 637.8 237.724V231.101H635.484V229.503H640.138ZM651.526 238.219C651.526 238.515 651.566 238.73 651.645 238.863C651.729 238.996 651.862 239.097 652.044 239.166L651.563 240.705C651.1 240.661 650.708 240.56 650.387 240.402C650.071 240.239 649.822 239.995 649.64 239.67C649.339 240.03 648.954 240.298 648.485 240.476C648.017 240.649 647.538 240.735 647.05 240.735C646.241 240.735 645.595 240.506 645.111 240.047C644.633 239.583 644.394 238.989 644.394 238.264C644.394 237.41 644.727 236.752 645.393 236.288C646.063 235.824 647.006 235.593 648.219 235.593H649.277V235.297C649.277 234.887 649.144 234.584 648.878 234.387C648.616 234.189 648.231 234.091 647.723 234.091C647.472 234.091 647.149 234.128 646.754 234.202C646.359 234.271 645.965 234.372 645.57 234.505L645.03 232.951C645.538 232.759 646.066 232.613 646.613 232.515C647.166 232.416 647.659 232.367 648.093 232.367C649.262 232.367 650.126 232.606 650.683 233.084C651.245 233.558 651.526 234.244 651.526 235.141V238.219ZM647.856 239.063C648.108 239.063 648.372 238.989 648.648 238.841C648.924 238.688 649.134 238.473 649.277 238.197V236.924H648.7C648.049 236.924 647.57 237.026 647.265 237.228C646.959 237.425 646.806 237.716 646.806 238.101C646.806 238.402 646.897 238.639 647.08 238.811C647.267 238.979 647.526 239.063 647.856 239.063ZM653.984 236.762V234.942H660.392V236.762H653.984ZM669.665 230.228L670.242 240.483H668.126L668 236.096C667.99 235.686 667.985 235.321 667.985 235.001C667.99 234.68 667.997 234.379 668.007 234.098C668.017 233.812 668.032 233.526 668.052 233.24C668.076 232.949 668.101 232.633 668.126 232.293L666.971 238.737H665.136L663.893 232.293C663.923 232.618 663.948 232.927 663.967 233.218C663.992 233.504 664.009 233.792 664.019 234.083C664.029 234.374 664.036 234.688 664.041 235.023C664.046 235.353 664.044 235.723 664.034 236.133L663.96 240.483H661.881L662.458 230.228H664.951L666.091 236.858L667.171 230.228H669.665ZM678.145 238.219C678.145 238.515 678.185 238.73 678.264 238.863C678.348 238.996 678.481 239.097 678.663 239.166L678.182 240.705C677.719 240.661 677.327 240.56 677.006 240.402C676.69 240.239 676.441 239.995 676.259 239.67C675.958 240.03 675.573 240.298 675.104 240.476C674.636 240.649 674.157 240.735 673.669 240.735C672.86 240.735 672.214 240.506 671.731 240.047C671.252 239.583 671.013 238.989 671.013 238.264C671.013 237.41 671.346 236.752 672.012 236.288C672.683 235.824 673.625 235.593 674.838 235.593H675.896V235.297C675.896 234.887 675.763 234.584 675.497 234.387C675.235 234.189 674.85 234.091 674.342 234.091C674.091 234.091 673.768 234.128 673.373 234.202C672.978 234.271 672.584 234.372 672.189 234.505L671.649 232.951C672.157 232.759 672.685 232.613 673.233 232.515C673.785 232.416 674.278 232.367 674.712 232.367C675.881 232.367 676.745 232.606 677.302 233.084C677.864 233.558 678.145 234.244 678.145 235.141V238.219ZM674.476 239.063C674.727 239.063 674.991 238.989 675.267 238.841C675.543 238.688 675.753 238.473 675.896 238.197V236.924H675.319C674.668 236.924 674.189 237.026 673.884 237.228C673.578 237.425 673.425 237.716 673.425 238.101C673.425 238.402 673.516 238.639 673.699 238.811C673.886 238.979 674.145 239.063 674.476 239.063ZM680.478 240.483V238.915H681.514V234.179H680.478V232.626H683.297L683.726 234.394C684.007 233.718 684.365 233.215 684.799 232.885C685.238 232.554 685.773 232.389 686.404 232.389C686.671 232.389 686.907 232.411 687.115 232.455C687.322 232.495 687.517 232.552 687.699 232.626L686.989 234.557C686.846 234.517 686.703 234.488 686.56 234.468C686.417 234.448 686.259 234.438 686.086 234.438C685.573 234.438 685.122 234.648 684.732 235.067C684.347 235.487 684.054 236.019 683.852 236.666V238.915H685.405V240.483H680.478ZM685.798 235.911V233.617L686.145 232.626H687.699L687.263 235.911H685.798ZM696.35 240.025C696.044 240.222 695.674 240.39 695.24 240.528C694.806 240.666 694.318 240.735 693.775 240.735C692.749 240.735 691.987 240.474 691.489 239.951C690.991 239.423 690.742 238.708 690.742 237.805V234.239H689.092V232.626H690.742V230.924L693.08 230.643V232.626H695.61L695.381 234.239H693.08V237.805C693.08 238.195 693.169 238.473 693.346 238.641C693.524 238.809 693.807 238.893 694.197 238.893C694.473 238.893 694.725 238.861 694.952 238.796C695.184 238.727 695.391 238.641 695.573 238.537L696.35 240.025ZM702.952 232.626V238.885H704.949V240.483H698.387V238.885H700.614V234.224H698.461V232.626H702.952ZM702.663 228.127L703.573 229.888L700.081 231.272L699.437 230.088L702.663 228.127ZM707.023 240.483V232.626H709.065L709.228 233.536C709.578 233.141 709.948 232.848 710.338 232.655C710.727 232.463 711.171 232.367 711.669 232.367C712.34 232.367 712.868 232.571 713.253 232.981C713.637 233.39 713.83 233.967 713.83 234.712V240.483H711.492V235.385C711.492 235.065 711.47 234.811 711.425 234.623C711.381 234.431 711.302 234.295 711.188 234.216C711.08 234.133 710.929 234.091 710.737 234.091C710.574 234.091 710.414 234.128 710.256 234.202C710.103 234.271 709.953 234.372 709.805 234.505C709.657 234.638 709.509 234.799 709.361 234.986V240.483H707.023ZM717.923 237.235C717.977 237.664 718.088 238.012 718.256 238.278C718.429 238.54 718.648 238.732 718.915 238.856C719.181 238.974 719.479 239.033 719.81 239.033C720.17 239.033 720.518 238.974 720.853 238.856C721.189 238.737 721.512 238.579 721.822 238.382L722.762 239.655C722.392 239.97 721.943 240.229 721.415 240.432C720.893 240.634 720.296 240.735 719.625 240.735C718.727 240.735 717.975 240.557 717.368 240.202C716.761 239.842 716.305 239.349 715.999 238.722C715.694 238.096 715.541 237.376 715.541 236.562C715.541 235.788 715.689 235.085 715.985 234.453C716.281 233.817 716.712 233.311 717.279 232.936C717.852 232.557 718.55 232.367 719.373 232.367C720.123 232.367 720.772 232.527 721.319 232.848C721.872 233.168 722.298 233.629 722.599 234.231C722.905 234.833 723.058 235.556 723.058 236.399C723.058 236.532 723.053 236.675 723.043 236.828C723.038 236.981 723.028 237.117 723.014 237.235H717.923ZM719.373 233.935C718.954 233.935 718.616 234.086 718.36 234.387C718.103 234.688 717.948 235.168 717.894 235.829H720.779C720.774 235.257 720.663 234.799 720.446 234.453C720.229 234.108 719.872 233.935 719.373 233.935ZM727.558 238.715H731.494L731.272 240.483H724.798V238.833L728.698 234.387H725.124V232.626H731.42V234.268L727.558 238.715ZM746.673 227.165V244.923H745.164V227.165H746.673ZM763.442 230.066C764.182 230.066 764.814 230.174 765.337 230.391C765.859 230.603 766.291 230.902 766.631 231.286C766.977 231.666 767.245 232.115 767.438 232.633C767.63 233.151 767.766 233.713 767.845 234.32C767.924 234.927 767.963 235.556 767.963 236.207C767.963 237.45 767.904 238.491 767.786 239.329C767.667 240.163 767.445 240.789 767.12 241.208C766.799 241.633 766.335 241.845 765.729 241.845C765.433 241.845 765.174 241.778 764.952 241.645C764.735 241.512 764.555 241.339 764.412 241.127C764.274 240.92 764.168 240.696 764.094 240.454C764.024 240.207 763.985 239.975 763.975 239.758H763.916C763.817 239.995 763.682 240.222 763.509 240.439C763.336 240.656 763.117 240.834 762.85 240.972C762.584 241.11 762.259 241.179 761.874 241.179C761.321 241.179 760.877 241.031 760.542 240.735C760.207 240.444 759.962 240.042 759.809 239.529C759.657 239.016 759.58 238.436 759.58 237.79C759.58 236.532 759.837 235.573 760.35 234.912C760.863 234.246 761.605 233.913 762.577 233.913C762.942 233.913 763.302 233.957 763.657 234.046C764.017 234.13 764.404 234.283 764.819 234.505V238.9C764.819 239.369 764.856 239.731 764.93 239.988C765.004 240.244 765.105 240.422 765.233 240.52C765.366 240.619 765.517 240.668 765.684 240.668C765.882 240.668 766.035 240.567 766.143 240.365C766.256 240.163 766.338 239.872 766.387 239.492C766.437 239.107 766.466 238.644 766.476 238.101C766.486 237.558 766.491 236.947 766.491 236.266C766.491 235.536 766.449 234.868 766.365 234.261C766.286 233.649 766.136 233.121 765.914 232.677C765.697 232.234 765.386 231.891 764.981 231.649C764.577 231.407 764.052 231.286 763.405 231.286C762.907 231.286 762.382 231.38 761.829 231.568C761.282 231.755 760.705 232.115 760.098 232.648L759.299 231.723C759.97 231.141 760.648 230.719 761.334 230.458C762.024 230.196 762.727 230.066 763.442 230.066ZM762.599 235.038C762.032 235.038 761.644 235.26 761.437 235.704C761.23 236.143 761.127 236.838 761.127 237.79C761.127 238.264 761.156 238.668 761.215 239.004C761.274 239.339 761.378 239.596 761.526 239.773C761.674 239.951 761.874 240.039 762.125 240.039C762.426 240.039 762.661 239.97 762.828 239.832C762.996 239.694 763.122 239.531 763.206 239.344C763.289 239.152 763.354 238.984 763.398 238.841V235.23C763.265 235.161 763.137 235.112 763.013 235.082C762.89 235.053 762.752 235.038 762.599 235.038ZM775.896 230.228V236.791C775.896 237.388 775.805 237.928 775.623 238.412C775.44 238.895 775.171 239.307 774.816 239.647C774.466 239.988 774.034 240.249 773.521 240.432C773.013 240.614 772.431 240.705 771.775 240.705C771.114 240.705 770.542 240.622 770.059 240.454C769.58 240.281 769.119 240.044 768.675 239.743L769.6 238.249C769.95 238.491 770.278 238.661 770.584 238.759C770.89 238.853 771.238 238.9 771.627 238.9C772.155 238.9 772.594 238.732 772.944 238.397C773.299 238.057 773.477 237.531 773.477 236.821V232.004H770.325V230.228H775.896ZM781.41 232.367C782.219 232.367 782.907 232.539 783.475 232.885C784.042 233.23 784.476 233.716 784.777 234.342C785.078 234.964 785.228 235.694 785.228 236.532C785.228 237.405 785.075 238.158 784.77 238.789C784.469 239.415 784.035 239.896 783.467 240.232C782.9 240.567 782.214 240.735 781.41 240.735C780.611 240.735 779.926 240.57 779.353 240.239C778.786 239.909 778.35 239.43 778.044 238.804C777.743 238.177 777.592 237.425 777.592 236.547C777.592 235.714 777.743 234.983 778.044 234.357C778.35 233.731 778.786 233.242 779.353 232.892C779.926 232.542 780.611 232.367 781.41 232.367ZM781.41 234.091C780.932 234.091 780.577 234.288 780.345 234.683C780.118 235.072 780.005 235.694 780.005 236.547C780.005 237.415 780.118 238.044 780.345 238.434C780.577 238.824 780.932 239.018 781.41 239.018C781.889 239.018 782.242 238.824 782.468 238.434C782.7 238.044 782.816 237.41 782.816 236.532C782.816 235.684 782.7 235.065 782.468 234.675C782.242 234.286 781.889 234.091 781.41 234.091ZM788.907 237.235C788.961 237.664 789.072 238.012 789.24 238.278C789.413 238.54 789.632 238.732 789.899 238.856C790.165 238.974 790.463 239.033 790.794 239.033C791.154 239.033 791.502 238.974 791.837 238.856C792.173 238.737 792.496 238.579 792.806 238.382L793.746 239.655C793.376 239.97 792.927 240.229 792.4 240.432C791.877 240.634 791.28 240.735 790.609 240.735C789.711 240.735 788.959 240.557 788.352 240.202C787.746 239.842 787.289 239.349 786.983 238.722C786.678 238.096 786.525 237.376 786.525 236.562C786.525 235.788 786.673 235.085 786.969 234.453C787.265 233.817 787.696 233.311 788.263 232.936C788.836 232.557 789.534 232.367 790.357 232.367C791.107 232.367 791.756 232.527 792.303 232.848C792.856 233.168 793.282 233.629 793.583 234.231C793.889 234.833 794.042 235.556 794.042 236.399C794.042 236.532 794.037 236.675 794.027 236.828C794.022 236.981 794.012 237.117 793.998 237.235H788.907ZM790.357 233.935C789.938 233.935 789.6 234.086 789.344 234.387C789.087 234.688 788.932 235.168 788.878 235.829H791.763C791.758 235.257 791.647 234.799 791.43 234.453C791.213 234.108 790.856 233.935 790.357 233.935ZM800.747 233.573C800.747 233.208 800.678 232.907 800.54 232.67C800.407 232.428 800.202 232.251 799.926 232.137C799.655 232.019 799.312 231.96 798.897 231.96H798.069V235.312H799.023C799.383 235.312 799.692 235.25 799.948 235.127C800.205 235.003 800.402 234.813 800.54 234.557C800.678 234.3 800.747 233.972 800.747 233.573ZM803.248 233.565C803.248 234.359 803.078 235.016 802.738 235.533C802.397 236.051 801.921 236.439 801.31 236.695C800.698 236.947 799.988 237.072 799.179 237.072H798.069V240.483H795.642V230.228H798.868C800.259 230.228 801.337 230.505 802.101 231.057C802.866 231.61 803.248 232.446 803.248 233.565ZM808.029 232.367C808.838 232.367 809.526 232.539 810.094 232.885C810.661 233.23 811.095 233.716 811.396 234.342C811.697 234.964 811.847 235.694 811.847 236.532C811.847 237.405 811.694 238.158 811.389 238.789C811.088 239.415 810.654 239.896 810.086 240.232C809.519 240.567 808.833 240.735 808.029 240.735C807.23 240.735 806.545 240.57 805.973 240.239C805.405 239.909 804.969 239.43 804.663 238.804C804.362 238.177 804.212 237.425 804.212 236.547C804.212 235.714 804.362 234.983 804.663 234.357C804.969 233.731 805.405 233.242 805.973 232.892C806.545 232.542 807.23 232.367 808.029 232.367ZM808.029 234.091C807.551 234.091 807.196 234.288 806.964 234.683C806.737 235.072 806.624 235.694 806.624 236.547C806.624 237.415 806.737 238.044 806.964 238.434C807.196 238.824 807.551 239.018 808.029 239.018C808.508 239.018 808.861 238.824 809.087 238.434C809.319 238.044 809.435 237.41 809.435 236.532C809.435 235.684 809.319 235.065 809.087 234.675C808.861 234.286 808.508 234.091 808.029 234.091ZM813.573 240.483V238.915H814.609V234.179H813.573V232.626H816.392L816.821 234.394C817.102 233.718 817.46 233.215 817.894 232.885C818.333 232.554 818.868 232.389 819.499 232.389C819.766 232.389 820.003 232.411 820.21 232.455C820.417 232.495 820.612 232.552 820.794 232.626L820.084 234.557C819.941 234.517 819.798 234.488 819.655 234.468C819.512 234.448 819.354 234.438 819.181 234.438C818.668 234.438 818.217 234.648 817.827 235.067C817.443 235.487 817.149 236.019 816.947 236.666V238.915H818.501V240.483H813.573ZM818.893 235.911V233.617L819.24 232.626H820.794L820.358 235.911H818.893ZM829.445 240.025C829.139 240.222 828.77 240.39 828.335 240.528C827.901 240.666 827.413 240.735 826.87 240.735C825.844 240.735 825.082 240.474 824.584 239.951C824.086 239.423 823.837 238.708 823.837 237.805V234.239H822.187V232.626H823.837V230.924L826.175 230.643V232.626H828.705L828.476 234.239H826.175V237.805C826.175 238.195 826.264 238.473 826.441 238.641C826.619 238.809 826.903 238.893 827.292 238.893C827.568 238.893 827.82 238.861 828.047 238.796C828.279 238.727 828.486 238.641 828.668 238.537L829.445 240.025ZM836.047 232.626V238.885H838.045V240.483H831.482V238.885H833.709V234.224H831.556V232.626H836.047ZM834.634 228.512C835.038 228.512 835.369 228.638 835.625 228.889C835.882 229.141 836.01 229.454 836.01 229.829C836.01 230.204 835.882 230.519 835.625 230.776C835.369 231.027 835.038 231.153 834.634 231.153C834.224 231.153 833.889 231.027 833.627 230.776C833.371 230.519 833.243 230.204 833.243 229.829C833.243 229.454 833.371 229.141 833.627 228.889C833.889 228.638 834.224 228.512 834.634 228.512ZM844.217 229.503V238.012C844.217 238.328 844.306 238.555 844.483 238.693C844.666 238.826 844.915 238.893 845.231 238.893C845.433 238.893 845.628 238.87 845.815 238.826C846.003 238.777 846.178 238.72 846.34 238.656L846.903 240.217C846.636 240.355 846.316 240.476 845.941 240.58C845.566 240.683 845.13 240.735 844.631 240.735C843.684 240.735 842.989 240.464 842.545 239.921C842.101 239.374 841.879 238.641 841.879 237.724V231.101H839.563V229.503H844.217ZM853.09 229.503V238.012C853.09 238.328 853.179 238.555 853.356 238.693C853.539 238.826 853.788 238.893 854.104 238.893C854.306 238.893 854.501 238.87 854.688 238.826C854.876 238.777 855.051 238.72 855.213 238.656L855.776 240.217C855.509 240.355 855.189 240.476 854.814 240.58C854.439 240.683 854.002 240.735 853.504 240.735C852.557 240.735 851.862 240.464 851.418 239.921C850.974 239.374 850.752 238.641 850.752 237.724V231.101H848.436V229.503H853.09ZM864.479 238.219C864.479 238.515 864.518 238.73 864.597 238.863C864.681 238.996 864.814 239.097 864.997 239.166L864.516 240.705C864.052 240.661 863.66 240.56 863.339 240.402C863.023 240.239 862.774 239.995 862.592 239.67C862.291 240.03 861.906 240.298 861.438 240.476C860.969 240.649 860.491 240.735 860.002 240.735C859.193 240.735 858.547 240.506 858.064 240.047C857.585 239.583 857.346 238.989 857.346 238.264C857.346 237.41 857.679 236.752 858.345 236.288C859.016 235.824 859.958 235.593 861.171 235.593H862.229V235.297C862.229 234.887 862.096 234.584 861.83 234.387C861.568 234.189 861.184 234.091 860.676 234.091C860.424 234.091 860.101 234.128 859.706 234.202C859.312 234.271 858.917 234.372 858.522 234.505L857.982 232.951C858.49 232.759 859.018 232.613 859.566 232.515C860.118 232.416 860.611 232.367 861.045 232.367C862.215 232.367 863.078 232.606 863.635 233.084C864.197 233.558 864.479 234.244 864.479 235.141V238.219ZM860.809 239.063C861.06 239.063 861.324 238.989 861.6 238.841C861.877 238.688 862.086 238.473 862.229 238.197V236.924H861.652C861.001 236.924 860.523 237.026 860.217 237.228C859.911 237.425 859.758 237.716 859.758 238.101C859.758 238.402 859.849 238.639 860.032 238.811C860.219 238.979 860.478 239.063 860.809 239.063Z" fill="black"/>
<rect x="96" y="66" width="128" height="128" rx="20" fill="#0037AC" fill-opacity="0.2"/>
<rect x="688" y="66" width="128" height="128" rx="20" fill="#0037AC" fill-opacity="0.2"/>
<rect x="392" y="66" width="128" height="128" rx="20" fill="#0037AC" fill-opacity="0.2"/>
<rect x="984" y="66" width="128" height="128" rx="20" fill="#0037AC" fill-opacity="0.2"/>
<rect x="244" y="66" width="128" height="128" rx="20" fill="#0037AC" fill-opacity="0.2"/>
<rect x="836" y="66" width="128" height="128" rx="20" fill="#0037AC" fill-opacity="0.2"/>
<rect x="540" y="66" width="128" height="128" rx="20" fill="#0037AC" fill-opacity="0.2"/>
<path d="M58.9586 169.018V88.2702H80.685V94.5583H65.8538V162.816H80.685V169.018H58.9586Z" fill="#363636"/>
<path d="M1147.08 88.2702V169.018H1125.35V162.86H1140.19V94.5583H1125.35V88.2702H1147.08Z" fill="#363636"/>
<path d="M234 141.485C235.61 141.485 236.952 142.033 238.025 143.13C239.122 144.227 239.67 145.545 239.67 147.085C239.67 147.925 239.565 148.777 239.355 149.64C239.168 150.503 238.818 151.483 238.305 152.58L232.635 165.565H227.315L230.675 151.74C229.975 151.227 229.415 150.562 228.995 149.745C228.598 148.905 228.4 148.018 228.4 147.085C228.4 145.522 228.937 144.203 230.01 143.13C231.083 142.033 232.413 141.485 234 141.485Z" fill="#363636"/>
<path d="M382 141.485C383.61 141.485 384.952 142.033 386.025 143.13C387.122 144.227 387.67 145.545 387.67 147.085C387.67 147.925 387.565 148.777 387.355 149.64C387.168 150.503 386.818 151.483 386.305 152.58L380.635 165.565H375.315L378.675 151.74C377.975 151.227 377.415 150.562 376.995 149.745C376.598 148.905 376.4 148.018 376.4 147.085C376.4 145.522 376.937 144.203 378.01 143.13C379.083 142.033 380.413 141.485 382 141.485Z" fill="#363636"/>
<path d="M530 141.485C531.61 141.485 532.952 142.033 534.025 143.13C535.122 144.227 535.67 145.545 535.67 147.085C535.67 147.925 535.565 148.777 535.355 149.64C535.168 150.503 534.818 151.483 534.305 152.58L528.635 165.565H523.315L526.675 151.74C525.975 151.227 525.415 150.562 524.995 149.745C524.598 148.905 524.4 148.018 524.4 147.085C524.4 145.522 524.937 144.203 526.01 143.13C527.083 142.033 528.413 141.485 530 141.485Z" fill="#363636"/>
<path d="M678 141.485C679.61 141.485 680.952 142.033 682.025 143.13C683.122 144.227 683.67 145.545 683.67 147.085C683.67 147.925 683.565 148.777 683.355 149.64C683.168 150.503 682.818 151.483 682.305 152.58L676.635 165.565H671.315L674.675 151.74C673.975 151.227 673.415 150.562 672.995 149.745C672.598 148.905 672.4 148.018 672.4 147.085C672.4 145.522 672.937 144.203 674.01 143.13C675.083 142.033 676.413 141.485 678 141.485Z" fill="#363636"/>
<path d="M826 141.485C827.61 141.485 828.952 142.033 830.025 143.13C831.122 144.227 831.67 145.545 831.67 147.085C831.67 147.925 831.565 148.777 831.355 149.64C831.168 150.503 830.818 151.483 830.305 152.58L824.635 165.565H819.315L822.675 151.74C821.975 151.227 821.415 150.562 820.995 149.745C820.598 148.905 820.4 148.018 820.4 147.085C820.4 145.522 820.937 144.203 822.01 143.13C823.083 142.033 824.413 141.485 826 141.485Z" fill="#363636"/>
<path d="M974 141.485C975.61 141.485 976.952 142.033 978.025 143.13C979.122 144.227 979.67 145.545 979.67 147.085C979.67 147.925 979.565 148.777 979.355 149.64C979.168 150.503 978.818 151.483 978.305 152.58L972.635 165.565H967.315L970.675 151.74C969.975 151.227 969.415 150.562 968.995 149.745C968.598 148.905 968.4 148.018 968.4 147.085C968.4 145.522 968.937 144.203 970.01 143.13C971.083 142.033 972.413 141.485 974 141.485Z" fill="#363636"/>
<path d="M126.667 133.962C126.667 113.712 143.083 97.2939 163.332 97.2939C183.584 97.2939 200 113.71 200 133.962C200 154.213 183.584 170.629 163.332 170.629C143.083 170.629 126.667 154.213 126.667 133.962Z" fill="#F4900C"/>
<path d="M145.365 107.483C144.771 106.89 143.594 107.045 142.354 107.75C135.02 101.679 123.124 99.6341 122.586 99.5452C121.373 99.3475 120.233 100.161 120.031 101.37C119.829 102.579 120.644 103.725 121.855 103.928C121.973 103.948 132.82 105.825 139.236 110.95C138.625 112.117 138.516 113.206 139.08 113.768C139.947 114.637 142.058 113.932 143.794 112.197C145.529 110.463 146.231 108.352 145.365 107.483Z" fill="#662113"/>
<path d="M166.668 92.8493C166.668 92.8493 159.766 102.445 151.066 104.567C144.445 106.183 135.647 106.339 134.77 104.294C133.894 102.252 138.263 95.5449 145.812 92.3093C153.361 89.0759 166.668 92.8493 166.668 92.8493Z" fill="#5C913B"/>
<path d="M318.144 165.839C325.936 163.242 331.911 159.011 331.918 144.745C331.922 135.718 341.519 125.678 341.516 116.498C341.514 107.674 331.13 93.1287 307.533 95.5998C283.279 98.1407 274.002 105.423 274 121.342C274 132.43 285.937 140.203 292.29 151.764C296.508 159.437 309 173.361 318.144 165.839Z" fill="#BE1931"/>
<path d="M326.332 95.4586C323.456 93.109 318.95 91.9702 314.292 91.6844C314.906 91.6011 315.511 91.5134 316.137 91.4729C318.327 91.3311 324.27 88.7002 319.288 89.0265C317.107 89.1683 315.009 89.6094 312.903 89.9785C313.436 89.6319 313.981 89.2898 314.568 88.9838C314.512 87.4196 305.51 87.4196 300.966 91.2186C299.814 90.9665 298.758 89.6702 292.007 89.6702C287.506 89.6702 281.463 91.7542 285.255 91.9207C287.319 92.013 289.756 91.9207 289.437 92.7422C287.962 92.8772 280.754 94.1713 280.754 96.4218C280.754 97.2163 286.965 96.0325 287.506 96.4218C283.63 97.8712 280.754 100.923 280.754 103.173C280.754 104.125 285.73 101.317 287.506 100.923C285.255 103.173 284.355 104.751 284.485 106.385C284.571 107.454 289.86 106.182 290.409 106.005C292.259 105.397 298.758 103.173 300.761 99.8742C301.025 100.516 307.43 102.892 310.011 103.173C311.202 103.304 315.907 103.79 314.829 101.573C314.512 100.923 312.262 98.6724 311.575 96.4781C312.579 96.4353 330.266 98.6724 326.332 95.4586Z" fill="#77B255"/>
<path d="M288.269 126.368C287.963 123.082 282.552 119.049 283.023 124.117C283.329 127.403 288.739 131.436 288.269 126.368ZM305.053 127.612C304.898 126.212 304.419 124.932 303.507 123.851C302.458 122.614 301.088 123.037 300.73 124.563C300.309 126.361 300.914 128.506 302.094 129.901L302.186 130.009C301.707 128.827 301.225 127.646 300.741 126.467L300.755 126.572C300.914 128.013 301.648 130.466 303.311 130.862C305.008 131.272 305.17 128.638 305.053 127.612ZM317.998 116.717C319.07 114.568 318.381 107.801 316.128 112.32C315.057 114.467 315.743 121.236 317.998 116.717ZM334.227 113.438C334.16 112.635 334.063 111.683 333.347 111.165C330.671 109.234 327.989 116.474 330.23 118.097C330.275 118.124 330.311 118.153 330.354 118.185L329.609 116.116C329.609 116.157 329.611 116.195 329.616 116.233C329.726 117.503 330.462 119.332 332.055 118.367C333.556 117.453 334.369 115.117 334.227 113.438ZM331.2 132.719C333.487 129.188 329.974 124.952 327.194 129.248C324.908 132.777 328.423 137.013 331.2 132.719ZM318.264 139.232C318.653 134.87 313.067 133.038 312.615 138.115C312.226 142.477 317.812 144.309 318.264 139.232ZM295.993 136.504L295.882 136.513L298.947 138.122C298.934 138.113 298.923 138.097 298.907 138.084C298.218 137.454 295.862 135.647 294.883 136.752C293.893 137.87 296.004 139.95 296.692 140.584C297.462 141.291 298.781 142.301 299.908 142.227C303.142 142.018 298.146 136.364 295.993 136.504ZM325.76 149.798C327.941 147.399 327.392 140.683 323.965 144.451C321.784 146.85 322.335 153.565 325.76 149.798ZM295.605 118.371C295.815 118.36 296.026 118.344 296.236 118.329C297.818 118.225 298.495 115.056 298.581 113.936C298.68 112.65 298.484 110.659 296.814 110.769L296.182 110.812C294.602 110.918 293.922 114.084 293.836 115.205C293.737 116.49 293.936 118.484 295.605 118.371ZM313.263 152.708C314.152 154.427 313.83 156.361 312.543 157.027C311.256 157.693 309.489 156.844 308.598 155.127C307.709 153.408 308.031 151.475 309.318 150.809C310.608 150.142 312.372 150.991 313.263 152.708Z" fill="#F4ABBA"/>
<path d="M469.666 103.557C463 103.557 463 105.779 456.333 105.779C449.666 105.779 449.666 103.557 443 103.557C434.111 103.557 423 108.001 423 123.556C423 148.001 436.333 168.001 445.222 168.001C451.889 168.001 451.889 165.778 456.333 165.778C460.777 165.778 460.777 168.001 467.444 168.001C476.333 168.001 489.666 148.001 489.666 123.556C489.666 107.999 478.555 103.557 469.666 103.557Z" fill="#DD2E44"/>
<path d="M458.555 103.556C458.555 103.556 465.222 94.667 476.333 94.667C485.222 94.667 489.666 99.1114 489.666 99.1114C489.666 99.1114 480.777 105.778 474.111 105.778C467.444 105.778 458.555 103.556 458.555 103.556Z" fill="#77B255"/>
<path d="M456.333 110.223C455.106 110.223 454.111 109.227 454.111 108C454.111 100.354 456.777 93.3005 461.429 88.6517C462.297 87.7828 463.702 87.7828 464.571 88.6517C465.44 89.5205 465.44 90.9272 464.571 91.7939C460.746 95.616 458.555 101.523 458.555 108C458.555 109.227 457.56 110.223 456.333 110.223Z" fill="#662113"/>
<path d="M621.109 143.334C620.669 143.334 620.227 143.203 619.838 142.932C605.298 132.754 592.802 115.452 585.622 104.179C589.398 127.574 587.838 140.752 587.76 141.388C587.609 142.605 586.511 143.454 585.282 143.316C584.064 143.165 583.2 142.056 583.351 140.839C583.371 140.663 585.431 122.988 578.938 92.6875C578.704 91.6053 579.307 90.5142 580.347 90.1364C581.382 89.7542 582.549 90.1986 583.071 91.1764C583.247 91.5053 600.864 124.228 622.384 139.292C623.391 139.994 623.633 141.381 622.931 142.385C622.5 143.005 621.811 143.334 621.109 143.334Z" fill="#77B255"/>
<path d="M622.326 109.595C614.602 111.728 611.102 115.253 598.44 111.077C587.951 107.617 582.802 101.728 584.34 97.0662C585.877 92.404 591.406 90.0374 601.895 93.4974C612.448 96.9796 611.057 101.2 622.326 109.595Z" fill="#5C913B"/>
<path d="M621.111 170C630.929 170 638.889 162.041 638.889 152.222C638.889 142.404 630.929 134.444 621.111 134.444C611.292 134.444 603.333 142.404 603.333 152.222C603.333 162.041 611.292 170 621.111 170Z" fill="#BE1931"/>
<path d="M587.778 170C597.596 170 605.556 162.041 605.556 152.222C605.556 142.404 597.596 134.444 587.778 134.444C577.959 134.444 570 142.404 570 152.222C570 162.041 577.959 170 587.778 170Z" fill="#BE1931"/>
<path d="M876.272 103.326C879.861 96.2006 893.68 98.9934 903.313 108.235C909.412 114.083 921.53 111.623 929.313 119.099C937.212 126.683 936.683 140.267 922.41 154.753C910.913 166.424 895.084 166.424 885.665 158.247C875.743 149.629 880.066 138.777 875.689 127.527C871.311 116.274 865.913 103.955 876.272 103.326Z" fill="#A6D388"/>
<path d="M877.395 104.315C876.423 105.328 874.876 105.42 873.942 104.525C866.688 97.5624 865.082 87.4656 865.019 86.941C864.852 85.6158 865.806 84.3246 867.142 84.051C868.481 83.7774 869.7 84.6322 869.867 85.955C869.881 86.0681 871.353 94.9935 877.463 100.857C878.397 101.755 878.368 103.302 877.395 104.315Z" fill="#662113"/>
<path d="M746.25 95.7483C737.25 91.6233 731 104.373 731 104.373C731 104.373 733.625 110.248 737.625 111.498C752.125 115.873 764.625 96.4983 764.625 96.4983C764.625 96.4983 755.125 99.8733 746.25 95.7483Z" fill="#77A836"/>
<path d="M722.249 99.873C721.749 99.873 721.624 101.748 722.124 101.748C730.124 103.498 733.374 109.373 733.624 110.498C733.999 111.998 736.249 110.373 735.499 108.498C735.249 108.248 730.624 100.873 722.249 99.873Z" fill="#947151"/>
<path d="M783.25 162.248C783.625 162.623 785.125 162.998 785.875 162.248C786.625 161.498 786.25 159.873 785.875 159.498C785.5 159.123 784.625 159.498 784 160.248C783.25 161.123 783 161.998 783.25 162.248Z" fill="#64892F"/>
<path d="M732.626 113.875C732.001 113 732.751 111 734.501 109.125C736.251 107.375 738.251 106.5 739.126 107.125C749.626 100.375 765.626 103.5 777.126 115.375C787.376 126 791.001 140.375 786.876 151.125C788.876 153.75 788.251 158.25 785.126 161.5C782.001 164.75 777.626 165.5 775.126 163.375C764.751 167.5 750.876 163.875 740.626 153.25C729.126 141.25 726.001 124.75 732.626 113.875Z" fill="#89FF3A"/>
<path d="M734.376 110.125C732.501 104.875 724.751 101.875 724.751 101.875C724.751 101.875 709.001 110.75 714.751 122.25C720.376 133.625 716.751 146.25 716.751 146.25C716.751 146.25 740.751 128.75 734.376 110.125Z" fill="#8CC63E"/>
<path d="M724.75 101.875C723.625 103.375 722.625 105 721.875 106.75C721.125 108.5 720.625 110.5 720.375 112.5C719.875 116.5 720.375 120.375 720.625 124.25C721 128 721 131.875 720.375 135.625C719.75 139.375 718.375 143 716.75 146.375C717.75 144.875 718.625 143.125 719.5 141.375C720.25 139.625 720.875 137.75 721.375 135.875C722.25 131.875 722.25 127.875 721.875 124C721.5 120.125 721 116.25 721.375 112.5C721.625 108.75 723 105.125 724.75 101.875Z" fill="#7FB539"/>
<path d="M1024.68 97.1875H1027.59C1027.59 96.6813 1027.75 96.1886 1028.06 95.7831C1028.36 95.3776 1028.79 95.0811 1029.27 94.9381C1029.76 94.7952 1030.28 94.8133 1030.75 94.99C1031.22 95.1666 1031.63 95.4921 1031.9 95.9178L1040.4 109.103C1040.73 109.626 1040.85 110.258 1040.71 110.864C1040.58 111.469 1040.21 111.997 1039.69 112.332C1039.17 112.668 1038.54 112.784 1037.93 112.654C1037.33 112.525 1036.8 112.161 1036.46 111.643L1029.93 101.515V102.062C1029.93 106.195 1028.29 110.159 1025.37 113.081C1022.45 116.004 1018.48 117.646 1014.35 117.646H1013.97C1013.33 117.646 1012.69 117.52 1012.1 117.275C1011.51 117.03 1010.97 116.671 1010.52 116.218C1010.07 115.765 1009.71 115.228 1009.46 114.637C1009.22 114.045 1009.09 113.412 1009.09 112.772C1009.09 110.725 1009.5 108.699 1010.28 106.808C1011.06 104.917 1012.21 103.199 1013.66 101.752C1015.11 100.305 1016.82 99.157 1018.71 98.3738C1020.6 97.5906 1022.63 97.1875 1024.68 97.1875Z" fill="#00CE8E"/>
<path d="M1031.05 110.072C1031.4 109.736 1031.74 109.411 1032.1 109.095C1043.27 99.1113 1060.44 99.2926 1071.39 109.593C1071.61 109.793 1071.82 109.996 1072.03 110.202C1074.89 113.059 1077.13 116.483 1078.6 120.256C1080.06 124.029 1080.72 128.067 1080.53 132.11C1080.33 136.407 1081.63 140.641 1084.21 144.086C1089.57 151.227 1086.05 161.544 1077.43 163.842C1073.27 164.949 1068.98 165.495 1064.67 165.467C1052 165.403 1039.86 160.331 1030.91 151.355C1029.59 150.036 1028.4 148.592 1027.35 147.045C1019.67 135.677 1020.9 120.081 1031.05 110.073L1031.05 110.072Z" fill="#FFCE71"/>
<path d="M1063.9 151.43C1061.32 147.985 1060.02 143.751 1060.22 139.453C1060.95 123.392 1048.48 109.617 1032.1 109.095C1043.27 99.1113 1060.44 99.2926 1071.39 109.593C1071.61 109.793 1071.82 109.996 1072.03 110.202C1074.89 113.059 1077.13 116.483 1078.6 120.256C1080.06 124.029 1080.72 128.067 1080.53 132.11C1080.33 136.407 1081.63 140.641 1084.21 144.086C1089.57 151.227 1086.05 161.544 1077.43 163.842C1073.27 164.949 1068.98 165.495 1064.67 165.467C1065.95 163.314 1066.56 160.83 1066.42 158.331C1066.28 155.831 1065.4 153.429 1063.9 151.43Z" fill="#FFB357"/>
<path d="M1031.05 110.072C1031.4 109.736 1031.74 109.411 1032.1 109.095C1043.27 99.1113 1060.44 99.2926 1071.39 109.593C1063.48 109.223 1055.62 111.071 1048.7 114.929C1042.85 118.209 1037.86 122.831 1034.15 128.414C1030.44 133.998 1028.11 140.384 1027.35 147.045C1019.67 135.676 1020.9 120.081 1031.05 110.072H1031.05Z" fill="#FFCE71"/>
<path d="M1071.39 109.593C1063.48 109.223 1055.62 111.071 1048.7 114.928C1043.91 111.307 1038.1 109.269 1032.1 109.095C1043.27 99.1114 1060.44 99.2925 1071.39 109.593Z" fill="#FFB357"/>
<path d="M1011.81 113.307C1015.45 107.538 1020.41 102.722 1026.28 99.2585C1026.55 99.1028 1026.87 99.0594 1027.17 99.1378C1027.47 99.2162 1027.72 99.4101 1027.88 99.677C1028.04 99.9438 1028.08 100.262 1028.01 100.562C1027.93 100.862 1027.74 101.12 1027.47 101.278C1021.92 104.55 1017.23 109.099 1013.8 114.547C1013.63 114.811 1013.37 114.998 1013.07 115.069C1012.77 115.139 1012.45 115.086 1012.18 114.922C1011.92 114.757 1011.73 114.495 1011.66 114.192C1011.59 113.889 1011.65 113.571 1011.81 113.307H1011.81Z" fill="#009D6B"/>
</g>
<defs>
<clipPath id="clip0_118_467">
<rect width="1208" height="259" fill="white"/>
</clipPath>
</defs>
</svg>
