<svg width="1208" height="259" viewBox="0 0 1208 259" fill="none" xmlns="http://www.w3.org/2000/svg">
<g clip-path="url(#clip0_119_815)">
<rect width="1208" height="259" fill="white"/>
<rect x="342.248" y="223.665" width="25.7725" height="25.7725" rx="5.03368" fill="#0037AC"/>
<path d="M352.232 230.397C352.061 229.981 351.471 229.981 351.3 230.397L351.032 231.052C350.982 231.174 350.981 231.311 351.031 231.433L354.627 240.256C354.762 240.587 354.518 240.949 354.161 240.949H350.582H349.374C349.016 240.949 348.772 240.586 348.908 240.255L349.529 238.743C349.579 238.621 349.579 238.485 349.529 238.362L349.247 237.67C349.077 237.252 348.486 237.252 348.315 237.669L346.625 241.785C346.489 242.117 346.733 242.48 347.091 242.48H356.441C356.799 242.48 357.043 242.117 356.907 241.786L352.232 230.397Z" fill="white"/>
<path d="M355.642 232.845C355.507 232.514 355.751 232.152 356.108 232.152H359.687H360.895C361.253 232.152 361.497 232.515 361.361 232.846L360.74 234.358C360.69 234.48 360.69 234.617 360.74 234.739L361.022 235.431C361.192 235.849 361.783 235.849 361.954 235.433L363.644 231.316C363.78 230.984 363.537 230.621 363.179 230.621H353.828C353.47 230.621 353.226 230.984 353.362 231.316L358.038 242.704C358.208 243.12 358.798 243.12 358.969 242.704L359.238 242.049C359.288 241.927 359.288 241.79 359.238 241.668L355.642 232.845Z" fill="white"/>
<path d="M383.915 238.027H380.268L379.557 240.483H377.811L381.059 230.273H383.19L386.446 240.483H384.626L383.915 238.027ZM380.623 236.703H383.553L382.095 231.605L380.623 236.703ZM389.533 232.67V238.131C389.533 238.594 389.624 238.925 389.807 239.122C389.994 239.319 390.275 239.418 390.65 239.418C391.005 239.418 391.348 239.312 391.679 239.1C392.009 238.888 392.271 238.629 392.463 238.323V232.67H394.12V240.483H392.692L392.589 239.485C392.298 239.874 391.93 240.173 391.486 240.38C391.042 240.582 390.589 240.683 390.125 240.683C389.37 240.683 388.805 240.476 388.431 240.062C388.061 239.642 387.876 239.068 387.876 238.338V232.67H389.533ZM403.274 240.069C402.988 240.252 402.646 240.4 402.246 240.513C401.846 240.626 401.43 240.683 400.996 240.683C400.088 240.683 399.397 240.449 398.924 239.98C398.455 239.507 398.221 238.885 398.221 238.116V233.876H396.482V232.67H398.221V230.924L399.878 230.724V232.67H402.512L402.327 233.876H399.878V238.101C399.878 238.52 399.982 238.833 400.189 239.041C400.401 239.243 400.747 239.344 401.225 239.344C401.511 239.344 401.775 239.309 402.017 239.24C402.258 239.171 402.478 239.083 402.675 238.974L403.274 240.069ZM408.751 232.463C409.516 232.463 410.16 232.633 410.683 232.973C411.205 233.314 411.6 233.79 411.866 234.401C412.138 235.013 412.273 235.733 412.273 236.562C412.273 237.386 412.135 238.108 411.859 238.73C411.588 239.346 411.188 239.827 410.66 240.173C410.137 240.513 409.499 240.683 408.744 240.683C407.989 240.683 407.348 240.518 406.82 240.187C406.297 239.852 405.898 239.376 405.622 238.759C405.35 238.143 405.215 237.415 405.215 236.577C405.215 235.763 405.35 235.048 405.622 234.431C405.898 233.814 406.3 233.334 406.828 232.988C407.355 232.638 407.997 232.463 408.751 232.463ZM408.751 233.75C408.155 233.75 407.706 233.98 407.405 234.438C407.104 234.892 406.953 235.605 406.953 236.577C406.953 237.544 407.101 238.256 407.397 238.715C407.698 239.174 408.147 239.403 408.744 239.403C409.341 239.403 409.787 239.174 410.083 238.715C410.384 238.256 410.535 237.539 410.535 236.562C410.535 235.6 410.387 234.892 410.091 234.438C409.795 233.98 409.348 233.75 408.751 233.75ZM414.569 240.483V239.3H415.715V233.847H414.569V232.67H416.981L417.284 234.483C417.575 233.827 417.935 233.329 418.364 232.988C418.798 232.643 419.356 232.47 420.036 232.47C420.268 232.47 420.475 232.49 420.658 232.529C420.845 232.564 421.03 232.611 421.213 232.67L420.717 234.091C420.559 234.046 420.411 234.014 420.273 233.994C420.135 233.97 419.982 233.957 419.814 233.957C419.247 233.957 418.756 234.17 418.342 234.594C417.933 235.018 417.61 235.62 417.373 236.399V239.3H418.949V240.483H414.569ZM419.748 235.548V233.625L419.955 232.67H421.213L420.932 235.548H419.748ZM425.151 239.344C425.151 238.984 425.279 238.676 425.536 238.419C425.792 238.158 426.108 238.027 426.483 238.027C426.862 238.027 427.178 238.158 427.43 238.419C427.686 238.676 427.814 238.984 427.814 239.344C427.814 239.714 427.686 240.03 427.43 240.291C427.178 240.552 426.862 240.683 426.483 240.683C426.108 240.683 425.792 240.552 425.536 240.291C425.279 240.03 425.151 239.714 425.151 239.344ZM425.151 234.091C425.151 233.849 425.21 233.627 425.328 233.425C425.447 233.223 425.607 233.062 425.809 232.944C426.012 232.825 426.236 232.766 426.483 232.766C426.862 232.766 427.178 232.897 427.43 233.158C427.686 233.415 427.814 233.726 427.814 234.091C427.814 234.456 427.686 234.771 427.43 235.038C427.178 235.299 426.862 235.43 426.483 235.43C426.108 235.43 425.792 235.299 425.536 235.038C425.279 234.771 425.151 234.456 425.151 234.091ZM447.595 230.228V236.791C447.595 237.388 447.504 237.928 447.321 238.412C447.139 238.895 446.87 239.307 446.515 239.647C446.165 239.988 445.733 240.249 445.22 240.432C444.712 240.614 444.13 240.705 443.474 240.705C442.813 240.705 442.241 240.622 441.757 240.454C441.279 240.281 440.818 240.044 440.374 239.743L441.299 238.249C441.649 238.491 441.977 238.661 442.283 238.759C442.589 238.853 442.936 238.9 443.326 238.9C443.854 238.9 444.293 238.732 444.643 238.397C444.998 238.057 445.176 237.531 445.176 236.821V232.004H442.024V230.228H447.595ZM453.109 232.367C453.918 232.367 454.606 232.539 455.173 232.885C455.741 233.23 456.175 233.716 456.476 234.342C456.776 234.964 456.927 235.694 456.927 236.532C456.927 237.405 456.774 238.158 456.468 238.789C456.167 239.415 455.733 239.896 455.166 240.232C454.599 240.567 453.913 240.735 453.109 240.735C452.31 240.735 451.624 240.57 451.052 240.239C450.485 239.909 450.048 239.43 449.742 238.804C449.442 238.177 449.291 237.425 449.291 236.547C449.291 235.714 449.442 234.983 449.742 234.357C450.048 233.731 450.485 233.242 451.052 232.892C451.624 232.542 452.31 232.367 453.109 232.367ZM453.109 234.091C452.631 234.091 452.275 234.288 452.044 234.683C451.817 235.072 451.703 235.694 451.703 236.547C451.703 237.415 451.817 238.044 452.044 238.434C452.275 238.824 452.631 239.018 453.109 239.018C453.587 239.018 453.94 238.824 454.167 238.434C454.399 238.044 454.515 237.41 454.515 236.532C454.515 235.684 454.399 235.065 454.167 234.675C453.94 234.286 453.587 234.091 453.109 234.091ZM461.73 239.063C462.12 239.063 462.433 239.001 462.67 238.878C462.912 238.755 463.033 238.57 463.033 238.323C463.033 238.155 462.986 238.015 462.892 237.901C462.798 237.788 462.618 237.679 462.352 237.576C462.086 237.472 461.691 237.349 461.168 237.206C460.69 237.077 460.265 236.915 459.896 236.717C459.53 236.52 459.244 236.266 459.037 235.955C458.835 235.644 458.734 235.257 458.734 234.794C458.734 234.325 458.865 233.908 459.126 233.543C459.387 233.178 459.772 232.892 460.28 232.685C460.788 232.473 461.41 232.367 462.145 232.367C462.845 232.367 463.454 232.458 463.972 232.64C464.495 232.818 464.947 233.045 465.326 233.321L464.394 234.697C464.069 234.495 463.718 234.335 463.343 234.216C462.969 234.093 462.591 234.031 462.211 234.031C461.832 234.031 461.548 234.083 461.361 234.187C461.178 234.286 461.087 234.436 461.087 234.638C461.087 234.771 461.134 234.887 461.227 234.986C461.326 235.08 461.508 235.178 461.775 235.282C462.041 235.381 462.431 235.504 462.944 235.652C463.452 235.795 463.893 235.96 464.268 236.148C464.648 236.335 464.942 236.587 465.149 236.902C465.356 237.213 465.46 237.625 465.46 238.138C465.46 238.71 465.289 239.191 464.949 239.581C464.609 239.965 464.157 240.254 463.595 240.446C463.033 240.639 462.416 240.735 461.745 240.735C460.986 240.735 460.315 240.626 459.733 240.409C459.151 240.192 458.655 239.906 458.246 239.551L459.422 238.234C459.728 238.471 460.073 238.668 460.458 238.826C460.848 238.984 461.272 239.063 461.73 239.063ZM469.479 237.235C469.533 237.664 469.644 238.012 469.812 238.278C469.984 238.54 470.204 238.732 470.47 238.856C470.737 238.974 471.035 239.033 471.366 239.033C471.726 239.033 472.073 238.974 472.409 238.856C472.744 238.737 473.067 238.579 473.378 238.382L474.318 239.655C473.948 239.97 473.499 240.229 472.971 240.432C472.448 240.634 471.851 240.735 471.181 240.735C470.283 240.735 469.531 240.557 468.924 240.202C468.317 239.842 467.861 239.349 467.555 238.722C467.249 238.096 467.096 237.376 467.096 236.562C467.096 235.788 467.244 235.085 467.54 234.453C467.836 233.817 468.268 233.311 468.835 232.936C469.407 232.557 470.105 232.367 470.929 232.367C471.679 232.367 472.327 232.527 472.875 232.848C473.427 233.168 473.854 233.629 474.155 234.231C474.461 234.833 474.614 235.556 474.614 236.399C474.614 236.532 474.609 236.675 474.599 236.828C474.594 236.981 474.584 237.117 474.569 237.235H469.479ZM470.929 233.935C470.51 233.935 470.172 234.086 469.915 234.387C469.659 234.688 469.503 235.168 469.449 235.829H472.335C472.33 235.257 472.219 234.799 472.002 234.453C471.785 234.108 471.427 233.935 470.929 233.935ZM480.675 232.367C481.361 232.367 481.913 232.537 482.332 232.877C482.752 233.218 483.058 233.699 483.25 234.32C483.447 234.942 483.546 235.679 483.546 236.532C483.546 237.341 483.428 238.064 483.191 238.7C482.954 239.332 482.611 239.83 482.162 240.195C481.713 240.555 481.168 240.735 480.527 240.735C479.763 240.735 479.141 240.461 478.663 239.914V243.517L476.325 243.761V232.626H478.396L478.5 233.506C478.82 233.097 479.171 232.806 479.55 232.633C479.93 232.455 480.305 232.367 480.675 232.367ZM479.95 234.091C479.679 234.091 479.439 234.172 479.232 234.335C479.025 234.498 478.835 234.72 478.663 235.001V238.315C478.825 238.557 478.996 238.735 479.173 238.848C479.356 238.962 479.57 239.018 479.817 239.018C480.231 239.018 480.554 238.831 480.786 238.456C481.018 238.076 481.134 237.445 481.134 236.562C481.134 235.911 481.087 235.408 480.993 235.053C480.9 234.692 480.764 234.443 480.586 234.305C480.409 234.162 480.197 234.091 479.95 234.091ZM487.536 229.274V233.403C487.866 233.052 488.224 232.793 488.608 232.626C488.998 232.453 489.41 232.367 489.844 232.367C490.545 232.367 491.08 232.571 491.45 232.981C491.82 233.39 492.005 233.967 492.005 234.712V240.483H489.667V235.363C489.667 234.89 489.612 234.559 489.504 234.372C489.4 234.184 489.203 234.091 488.912 234.091C488.749 234.091 488.589 234.13 488.431 234.209C488.278 234.283 488.128 234.392 487.98 234.535C487.832 234.678 487.684 234.848 487.536 235.045V240.483H485.198V229.503L487.536 229.274ZM510.313 237.487C510.313 238.123 510.145 238.685 509.81 239.174C509.479 239.662 509.003 240.044 508.382 240.321C507.76 240.597 507.013 240.735 506.14 240.735C505.173 240.735 504.362 240.594 503.706 240.313C503.055 240.027 502.514 239.674 502.085 239.255L503.313 237.894C503.693 238.224 504.113 238.481 504.571 238.663C505.03 238.841 505.533 238.93 506.081 238.93C506.421 238.93 506.719 238.88 506.976 238.782C507.232 238.683 507.432 238.54 507.575 238.352C507.718 238.165 507.79 237.938 507.79 237.672C507.79 237.42 507.733 237.208 507.62 237.035C507.506 236.863 507.314 236.707 507.043 236.569C506.776 236.431 506.404 236.291 505.925 236.148C505.126 235.901 504.483 235.63 503.994 235.334C503.511 235.038 503.158 234.695 502.936 234.305C502.719 233.916 502.611 233.462 502.611 232.944C502.611 232.317 502.783 231.782 503.129 231.338C503.479 230.894 503.947 230.556 504.534 230.325C505.121 230.088 505.767 229.969 506.473 229.969C507.267 229.969 507.967 230.085 508.574 230.317C509.181 230.544 509.706 230.87 510.15 231.294L509.003 232.611C508.658 232.32 508.286 232.105 507.886 231.967C507.487 231.824 507.08 231.753 506.665 231.753C506.359 231.753 506.091 231.792 505.859 231.871C505.627 231.945 505.447 232.056 505.319 232.204C505.19 232.352 505.126 232.537 505.126 232.759C505.126 232.976 505.188 233.158 505.311 233.306C505.435 233.454 505.649 233.595 505.955 233.728C506.261 233.856 506.685 234.007 507.228 234.179C507.874 234.377 508.426 234.614 508.885 234.89C509.349 235.161 509.701 235.504 509.943 235.918C510.19 236.333 510.313 236.855 510.313 237.487ZM518.431 238.219C518.431 238.515 518.471 238.73 518.55 238.863C518.633 238.996 518.767 239.097 518.949 239.166L518.468 240.705C518.005 240.661 517.612 240.56 517.292 240.402C516.976 240.239 516.727 239.995 516.545 239.67C516.244 240.03 515.859 240.298 515.39 240.476C514.922 240.649 514.443 240.735 513.955 240.735C513.146 240.735 512.5 240.506 512.016 240.047C511.538 239.583 511.299 238.989 511.299 238.264C511.299 237.41 511.632 236.752 512.297 236.288C512.968 235.824 513.91 235.593 515.124 235.593H516.182V235.297C516.182 234.887 516.049 234.584 515.782 234.387C515.521 234.189 515.136 234.091 514.628 234.091C514.377 234.091 514.054 234.128 513.659 234.202C513.264 234.271 512.87 234.372 512.475 234.505L511.935 232.951C512.443 232.759 512.971 232.613 513.518 232.515C514.071 232.416 514.564 232.367 514.998 232.367C516.167 232.367 517.03 232.606 517.588 233.084C518.15 233.558 518.431 234.244 518.431 235.141V238.219ZM514.761 239.063C515.013 239.063 515.277 238.989 515.553 238.841C515.829 238.688 516.039 238.473 516.182 238.197V236.924H515.605C514.954 236.924 514.475 237.026 514.169 237.228C513.864 237.425 513.711 237.716 513.711 238.101C513.711 238.402 513.802 238.639 513.984 238.811C514.172 238.979 514.431 239.063 514.761 239.063ZM520.69 240.483V232.626H522.732L522.894 233.536C523.245 233.141 523.615 232.848 524.004 232.655C524.394 232.463 524.838 232.367 525.336 232.367C526.007 232.367 526.535 232.571 526.92 232.981C527.304 233.39 527.497 233.967 527.497 234.712V240.483H525.159V235.385C525.159 235.065 525.136 234.811 525.092 234.623C525.048 234.431 524.969 234.295 524.855 234.216C524.747 234.133 524.596 234.091 524.404 234.091C524.241 234.091 524.081 234.128 523.923 234.202C523.77 234.271 523.62 234.372 523.472 234.505C523.324 234.638 523.176 234.799 523.028 234.986V240.483H520.69ZM536.636 240.025C536.33 240.222 535.96 240.39 535.526 240.528C535.092 240.666 534.604 240.735 534.061 240.735C533.035 240.735 532.273 240.474 531.775 239.951C531.277 239.423 531.028 238.708 531.028 237.805V234.239H529.378V232.626H531.028V230.924L533.366 230.643V232.626H535.896L535.667 234.239H533.366V237.805C533.366 238.195 533.454 238.473 533.632 238.641C533.81 238.809 534.093 238.893 534.483 238.893C534.759 238.893 535.011 238.861 535.238 238.796C535.469 238.727 535.677 238.641 535.859 238.537L536.636 240.025ZM543.238 232.626V238.885H545.235V240.483H538.672V238.885H540.899V234.224H538.746V232.626H543.238ZM541.824 228.512C542.229 228.512 542.559 228.638 542.816 228.889C543.072 229.141 543.201 229.454 543.201 229.829C543.201 230.204 543.072 230.519 542.816 230.776C542.559 231.027 542.229 231.153 541.824 231.153C541.415 231.153 541.079 231.027 540.818 230.776C540.562 230.519 540.433 230.204 540.433 229.829C540.433 229.454 540.562 229.141 540.818 228.889C541.079 228.638 541.415 228.512 541.824 228.512ZM553.923 238.219C553.923 238.515 553.963 238.73 554.042 238.863C554.126 238.996 554.259 239.097 554.441 239.166L553.96 240.705C553.497 240.661 553.104 240.56 552.784 240.402C552.468 240.239 552.219 239.995 552.037 239.67C551.736 240.03 551.351 240.298 550.882 240.476C550.414 240.649 549.935 240.735 549.447 240.735C548.638 240.735 547.992 240.506 547.508 240.047C547.03 239.583 546.791 238.989 546.791 238.264C546.791 237.41 547.124 236.752 547.79 236.288C548.46 235.824 549.403 235.593 550.616 235.593H551.674V235.297C551.674 234.887 551.541 234.584 551.274 234.387C551.013 234.189 550.628 234.091 550.12 234.091C549.869 234.091 549.546 234.128 549.151 234.202C548.756 234.271 548.362 234.372 547.967 234.505L547.427 232.951C547.935 232.759 548.463 232.613 549.01 232.515C549.563 232.416 550.056 232.367 550.49 232.367C551.659 232.367 552.522 232.606 553.08 233.084C553.642 233.558 553.923 234.244 553.923 235.141V238.219ZM550.253 239.063C550.505 239.063 550.769 238.989 551.045 238.841C551.321 238.688 551.531 238.473 551.674 238.197V236.924H551.097C550.446 236.924 549.967 237.026 549.661 237.228C549.356 237.425 549.203 237.716 549.203 238.101C549.203 238.402 549.294 238.639 549.476 238.811C549.664 238.979 549.923 239.063 550.253 239.063ZM563.159 231.368L563.706 233.084C563.43 233.193 563.107 233.272 562.737 233.321C562.367 233.371 561.936 233.395 561.442 233.395C561.936 233.607 562.31 233.871 562.567 234.187C562.828 234.498 562.959 234.907 562.959 235.415C562.959 235.923 562.823 236.377 562.552 236.777C562.281 237.171 561.896 237.482 561.398 237.709C560.9 237.936 560.31 238.049 559.63 238.049C559.462 238.049 559.304 238.042 559.156 238.027C559.008 238.012 558.862 237.99 558.719 237.96C558.636 238.005 558.571 238.069 558.527 238.153C558.483 238.237 558.46 238.323 558.46 238.412C558.46 238.535 558.51 238.646 558.608 238.745C558.712 238.843 558.951 238.893 559.326 238.893H560.614C561.225 238.893 561.753 238.991 562.197 239.189C562.646 239.386 562.994 239.655 563.24 239.995C563.487 240.335 563.61 240.725 563.61 241.164C563.61 241.968 563.257 242.602 562.552 243.066C561.847 243.529 560.799 243.761 559.408 243.761C558.401 243.761 557.622 243.658 557.069 243.45C556.522 243.248 556.14 242.957 555.923 242.577C555.711 242.202 555.604 241.756 555.604 241.238H557.676C557.676 241.465 557.721 241.65 557.809 241.793C557.903 241.941 558.078 242.05 558.335 242.119C558.596 242.188 558.973 242.222 559.467 242.222C559.965 242.222 560.345 242.183 560.606 242.104C560.868 242.025 561.045 241.916 561.139 241.778C561.238 241.645 561.287 241.495 561.287 241.327C561.287 241.095 561.196 240.908 561.013 240.765C560.831 240.622 560.542 240.55 560.147 240.55H558.897C558.049 240.55 557.432 240.395 557.047 240.084C556.663 239.768 556.47 239.401 556.47 238.981C556.47 238.69 556.547 238.414 556.7 238.153C556.857 237.891 557.077 237.672 557.358 237.494C556.855 237.228 556.495 236.915 556.278 236.555C556.061 236.19 555.952 235.753 555.952 235.245C555.952 234.653 556.103 234.145 556.404 233.721C556.704 233.292 557.119 232.961 557.647 232.729C558.179 232.497 558.786 232.382 559.467 232.382C560.054 232.391 560.564 232.352 560.998 232.263C561.432 232.169 561.822 232.044 562.167 231.886C562.513 231.723 562.843 231.55 563.159 231.368ZM559.526 233.898C559.156 233.898 558.862 234.017 558.645 234.253C558.428 234.485 558.32 234.806 558.32 235.215C558.32 235.649 558.431 235.982 558.653 236.214C558.875 236.446 559.166 236.562 559.526 236.562C559.916 236.562 560.212 236.446 560.414 236.214C560.621 235.982 560.725 235.64 560.725 235.186C560.725 234.747 560.623 234.424 560.421 234.216C560.219 234.004 559.921 233.898 559.526 233.898ZM568.458 232.367C569.267 232.367 569.955 232.539 570.522 232.885C571.09 233.23 571.524 233.716 571.825 234.342C572.126 234.964 572.276 235.694 572.276 236.532C572.276 237.405 572.123 238.158 571.817 238.789C571.516 239.415 571.082 239.896 570.515 240.232C569.948 240.567 569.262 240.735 568.458 240.735C567.659 240.735 566.973 240.57 566.401 240.239C565.834 239.909 565.397 239.43 565.092 238.804C564.791 238.177 564.64 237.425 564.64 236.547C564.64 235.714 564.791 234.983 565.092 234.357C565.397 233.731 565.834 233.242 566.401 232.892C566.973 232.542 567.659 232.367 568.458 232.367ZM568.458 234.091C567.98 234.091 567.625 234.288 567.393 234.683C567.166 235.072 567.052 235.694 567.052 236.547C567.052 237.415 567.166 238.044 567.393 238.434C567.625 238.824 567.98 239.018 568.458 239.018C568.937 239.018 569.289 238.824 569.516 238.434C569.748 238.044 569.864 237.41 569.864 236.532C569.864 235.684 569.748 235.065 569.516 234.675C569.289 234.286 568.937 234.091 568.458 234.091ZM587.795 233.573C587.795 233.208 587.726 232.907 587.588 232.67C587.455 232.428 587.25 232.251 586.974 232.137C586.702 232.019 586.36 231.96 585.945 231.96H585.117V235.312H586.071C586.431 235.312 586.739 235.25 586.996 235.127C587.252 235.003 587.45 234.813 587.588 234.557C587.726 234.3 587.795 233.972 587.795 233.573ZM590.296 233.565C590.296 234.359 590.126 235.016 589.785 235.533C589.445 236.051 588.969 236.439 588.357 236.695C587.746 236.947 587.035 237.072 586.226 237.072H585.117V240.483H582.69V230.228H585.916C587.307 230.228 588.384 230.505 589.149 231.057C589.914 231.61 590.296 232.446 590.296 233.565ZM595.077 232.367C595.886 232.367 596.574 232.539 597.142 232.885C597.709 233.23 598.143 233.716 598.444 234.342C598.745 234.964 598.895 235.694 598.895 236.532C598.895 237.405 598.742 238.158 598.436 238.789C598.135 239.415 597.701 239.896 597.134 240.232C596.567 240.567 595.881 240.735 595.077 240.735C594.278 240.735 593.592 240.57 593.02 240.239C592.453 239.909 592.016 239.43 591.711 238.804C591.41 238.177 591.259 237.425 591.259 236.547C591.259 235.714 591.41 234.983 591.711 234.357C592.016 233.731 592.453 233.242 593.02 232.892C593.592 232.542 594.278 232.367 595.077 232.367ZM595.077 234.091C594.599 234.091 594.244 234.288 594.012 234.683C593.785 235.072 593.671 235.694 593.671 236.547C593.671 237.415 593.785 238.044 594.012 238.434C594.244 238.824 594.599 239.018 595.077 239.018C595.556 239.018 595.908 238.824 596.135 238.434C596.367 238.044 596.483 237.41 596.483 236.532C596.483 235.684 596.367 235.065 596.135 234.675C595.908 234.286 595.556 234.091 595.077 234.091ZM600.621 240.483V238.915H601.656V234.179H600.621V232.626H603.44L603.869 234.394C604.15 233.718 604.508 233.215 604.942 232.885C605.381 232.554 605.916 232.389 606.547 232.389C606.814 232.389 607.05 232.411 607.258 232.455C607.465 232.495 607.66 232.552 607.842 232.626L607.132 234.557C606.989 234.517 606.846 234.488 606.703 234.468C606.56 234.448 606.402 234.438 606.229 234.438C605.716 234.438 605.265 234.648 604.875 235.067C604.49 235.487 604.197 236.019 603.995 236.666V238.915H605.548V240.483H600.621ZM605.941 235.911V233.617L606.288 232.626H607.842L607.406 235.911H605.941ZM616.493 240.025C616.187 240.222 615.817 240.39 615.383 240.528C614.949 240.666 614.461 240.735 613.918 240.735C612.892 240.735 612.13 240.474 611.632 239.951C611.134 239.423 610.885 238.708 610.885 237.805V234.239H609.235V232.626H610.885V230.924L613.223 230.643V232.626H615.753L615.524 234.239H613.223V237.805C613.223 238.195 613.312 238.473 613.489 238.641C613.667 238.809 613.95 238.893 614.34 238.893C614.616 238.893 614.868 238.861 615.095 238.796C615.327 238.727 615.534 238.641 615.716 238.537L616.493 240.025ZM623.095 232.626V238.885H625.092V240.483H618.529V238.885H620.757V234.224H618.603V232.626H623.095ZM621.681 228.512C622.086 228.512 622.416 228.638 622.673 228.889C622.929 229.141 623.058 229.454 623.058 229.829C623.058 230.204 622.929 230.519 622.673 230.776C622.416 231.027 622.086 231.153 621.681 231.153C621.272 231.153 620.937 231.027 620.675 230.776C620.419 230.519 620.29 230.204 620.29 229.829C620.29 229.454 620.419 229.141 620.675 228.889C620.937 228.638 621.272 228.512 621.681 228.512ZM631.265 229.503V238.012C631.265 238.328 631.354 238.555 631.531 238.693C631.714 238.826 631.963 238.893 632.278 238.893C632.481 238.893 632.675 238.87 632.863 238.826C633.05 238.777 633.225 238.72 633.388 238.656L633.951 240.217C633.684 240.355 633.364 240.476 632.989 240.58C632.614 240.683 632.177 240.735 631.679 240.735C630.732 240.735 630.036 240.464 629.593 239.921C629.149 239.374 628.927 238.641 628.927 237.724V231.101H626.611V229.503H631.265ZM640.138 229.503V238.012C640.138 238.328 640.227 238.555 640.404 238.693C640.587 238.826 640.836 238.893 641.151 238.893C641.354 238.893 641.548 238.87 641.736 238.826C641.923 238.777 642.098 238.72 642.261 238.656L642.824 240.217C642.557 240.355 642.237 240.476 641.862 240.58C641.487 240.683 641.05 240.735 640.552 240.735C639.605 240.735 638.91 240.464 638.466 239.921C638.022 239.374 637.8 238.641 637.8 237.724V231.101H635.484V229.503H640.138ZM651.526 238.219C651.526 238.515 651.566 238.73 651.645 238.863C651.729 238.996 651.862 239.097 652.044 239.166L651.563 240.705C651.1 240.661 650.708 240.56 650.387 240.402C650.071 240.239 649.822 239.995 649.64 239.67C649.339 240.03 648.954 240.298 648.485 240.476C648.017 240.649 647.538 240.735 647.05 240.735C646.241 240.735 645.595 240.506 645.111 240.047C644.633 239.583 644.394 238.989 644.394 238.264C644.394 237.41 644.727 236.752 645.393 236.288C646.063 235.824 647.006 235.593 648.219 235.593H649.277V235.297C649.277 234.887 649.144 234.584 648.878 234.387C648.616 234.189 648.231 234.091 647.723 234.091C647.472 234.091 647.149 234.128 646.754 234.202C646.359 234.271 645.965 234.372 645.57 234.505L645.03 232.951C645.538 232.759 646.066 232.613 646.613 232.515C647.166 232.416 647.659 232.367 648.093 232.367C649.262 232.367 650.126 232.606 650.683 233.084C651.245 233.558 651.526 234.244 651.526 235.141V238.219ZM647.856 239.063C648.108 239.063 648.372 238.989 648.648 238.841C648.924 238.688 649.134 238.473 649.277 238.197V236.924H648.7C648.049 236.924 647.57 237.026 647.265 237.228C646.959 237.425 646.806 237.716 646.806 238.101C646.806 238.402 646.897 238.639 647.08 238.811C647.267 238.979 647.526 239.063 647.856 239.063ZM653.984 236.762V234.942H660.392V236.762H653.984ZM669.665 230.228L670.242 240.483H668.126L668 236.096C667.99 235.686 667.985 235.321 667.985 235.001C667.99 234.68 667.997 234.379 668.007 234.098C668.017 233.812 668.032 233.526 668.052 233.24C668.076 232.949 668.101 232.633 668.126 232.293L666.971 238.737H665.136L663.893 232.293C663.923 232.618 663.948 232.927 663.967 233.218C663.992 233.504 664.009 233.792 664.019 234.083C664.029 234.374 664.036 234.688 664.041 235.023C664.046 235.353 664.044 235.723 664.034 236.133L663.96 240.483H661.881L662.458 230.228H664.951L666.091 236.858L667.171 230.228H669.665ZM678.145 238.219C678.145 238.515 678.185 238.73 678.264 238.863C678.348 238.996 678.481 239.097 678.663 239.166L678.182 240.705C677.719 240.661 677.327 240.56 677.006 240.402C676.69 240.239 676.441 239.995 676.259 239.67C675.958 240.03 675.573 240.298 675.104 240.476C674.636 240.649 674.157 240.735 673.669 240.735C672.86 240.735 672.214 240.506 671.731 240.047C671.252 239.583 671.013 238.989 671.013 238.264C671.013 237.41 671.346 236.752 672.012 236.288C672.683 235.824 673.625 235.593 674.838 235.593H675.896V235.297C675.896 234.887 675.763 234.584 675.497 234.387C675.235 234.189 674.85 234.091 674.342 234.091C674.091 234.091 673.768 234.128 673.373 234.202C672.978 234.271 672.584 234.372 672.189 234.505L671.649 232.951C672.157 232.759 672.685 232.613 673.233 232.515C673.785 232.416 674.278 232.367 674.712 232.367C675.881 232.367 676.745 232.606 677.302 233.084C677.864 233.558 678.145 234.244 678.145 235.141V238.219ZM674.476 239.063C674.727 239.063 674.991 238.989 675.267 238.841C675.543 238.688 675.753 238.473 675.896 238.197V236.924H675.319C674.668 236.924 674.189 237.026 673.884 237.228C673.578 237.425 673.425 237.716 673.425 238.101C673.425 238.402 673.516 238.639 673.699 238.811C673.886 238.979 674.145 239.063 674.476 239.063ZM680.478 240.483V238.915H681.514V234.179H680.478V232.626H683.297L683.726 234.394C684.007 233.718 684.365 233.215 684.799 232.885C685.238 232.554 685.773 232.389 686.404 232.389C686.671 232.389 686.907 232.411 687.115 232.455C687.322 232.495 687.517 232.552 687.699 232.626L686.989 234.557C686.846 234.517 686.703 234.488 686.56 234.468C686.417 234.448 686.259 234.438 686.086 234.438C685.573 234.438 685.122 234.648 684.732 235.067C684.347 235.487 684.054 236.019 683.852 236.666V238.915H685.405V240.483H680.478ZM685.798 235.911V233.617L686.145 232.626H687.699L687.263 235.911H685.798ZM696.35 240.025C696.044 240.222 695.674 240.39 695.24 240.528C694.806 240.666 694.318 240.735 693.775 240.735C692.749 240.735 691.987 240.474 691.489 239.951C690.991 239.423 690.742 238.708 690.742 237.805V234.239H689.092V232.626H690.742V230.924L693.08 230.643V232.626H695.61L695.381 234.239H693.08V237.805C693.08 238.195 693.169 238.473 693.346 238.641C693.524 238.809 693.807 238.893 694.197 238.893C694.473 238.893 694.725 238.861 694.952 238.796C695.184 238.727 695.391 238.641 695.573 238.537L696.35 240.025ZM702.952 232.626V238.885H704.949V240.483H698.387V238.885H700.614V234.224H698.461V232.626H702.952ZM702.663 228.127L703.573 229.888L700.081 231.272L699.437 230.088L702.663 228.127ZM707.023 240.483V232.626H709.065L709.228 233.536C709.578 233.141 709.948 232.848 710.338 232.655C710.727 232.463 711.171 232.367 711.669 232.367C712.34 232.367 712.868 232.571 713.253 232.981C713.637 233.39 713.83 233.967 713.83 234.712V240.483H711.492V235.385C711.492 235.065 711.47 234.811 711.425 234.623C711.381 234.431 711.302 234.295 711.188 234.216C711.08 234.133 710.929 234.091 710.737 234.091C710.574 234.091 710.414 234.128 710.256 234.202C710.103 234.271 709.953 234.372 709.805 234.505C709.657 234.638 709.509 234.799 709.361 234.986V240.483H707.023ZM717.923 237.235C717.977 237.664 718.088 238.012 718.256 238.278C718.429 238.54 718.648 238.732 718.915 238.856C719.181 238.974 719.479 239.033 719.81 239.033C720.17 239.033 720.518 238.974 720.853 238.856C721.189 238.737 721.512 238.579 721.822 238.382L722.762 239.655C722.392 239.97 721.943 240.229 721.415 240.432C720.893 240.634 720.296 240.735 719.625 240.735C718.727 240.735 717.975 240.557 717.368 240.202C716.761 239.842 716.305 239.349 715.999 238.722C715.694 238.096 715.541 237.376 715.541 236.562C715.541 235.788 715.689 235.085 715.985 234.453C716.281 233.817 716.712 233.311 717.279 232.936C717.852 232.557 718.55 232.367 719.373 232.367C720.123 232.367 720.772 232.527 721.319 232.848C721.872 233.168 722.298 233.629 722.599 234.231C722.905 234.833 723.058 235.556 723.058 236.399C723.058 236.532 723.053 236.675 723.043 236.828C723.038 236.981 723.028 237.117 723.014 237.235H717.923ZM719.373 233.935C718.954 233.935 718.616 234.086 718.36 234.387C718.103 234.688 717.948 235.168 717.894 235.829H720.779C720.774 235.257 720.663 234.799 720.446 234.453C720.229 234.108 719.872 233.935 719.373 233.935ZM727.558 238.715H731.494L731.272 240.483H724.798V238.833L728.698 234.387H725.124V232.626H731.42V234.268L727.558 238.715ZM746.673 227.165V244.923H745.164V227.165H746.673ZM763.442 230.066C764.182 230.066 764.814 230.174 765.337 230.391C765.859 230.603 766.291 230.902 766.631 231.286C766.977 231.666 767.245 232.115 767.438 232.633C767.63 233.151 767.766 233.713 767.845 234.32C767.924 234.927 767.963 235.556 767.963 236.207C767.963 237.45 767.904 238.491 767.786 239.329C767.667 240.163 767.445 240.789 767.12 241.208C766.799 241.633 766.335 241.845 765.729 241.845C765.433 241.845 765.174 241.778 764.952 241.645C764.735 241.512 764.555 241.339 764.412 241.127C764.274 240.92 764.168 240.696 764.094 240.454C764.024 240.207 763.985 239.975 763.975 239.758H763.916C763.817 239.995 763.682 240.222 763.509 240.439C763.336 240.656 763.117 240.834 762.85 240.972C762.584 241.11 762.259 241.179 761.874 241.179C761.321 241.179 760.877 241.031 760.542 240.735C760.207 240.444 759.962 240.042 759.809 239.529C759.657 239.016 759.58 238.436 759.58 237.79C759.58 236.532 759.837 235.573 760.35 234.912C760.863 234.246 761.605 233.913 762.577 233.913C762.942 233.913 763.302 233.957 763.657 234.046C764.017 234.13 764.404 234.283 764.819 234.505V238.9C764.819 239.369 764.856 239.731 764.93 239.988C765.004 240.244 765.105 240.422 765.233 240.52C765.366 240.619 765.517 240.668 765.684 240.668C765.882 240.668 766.035 240.567 766.143 240.365C766.256 240.163 766.338 239.872 766.387 239.492C766.437 239.107 766.466 238.644 766.476 238.101C766.486 237.558 766.491 236.947 766.491 236.266C766.491 235.536 766.449 234.868 766.365 234.261C766.286 233.649 766.136 233.121 765.914 232.677C765.697 232.234 765.386 231.891 764.981 231.649C764.577 231.407 764.052 231.286 763.405 231.286C762.907 231.286 762.382 231.38 761.829 231.568C761.282 231.755 760.705 232.115 760.098 232.648L759.299 231.723C759.97 231.141 760.648 230.719 761.334 230.458C762.024 230.196 762.727 230.066 763.442 230.066ZM762.599 235.038C762.032 235.038 761.644 235.26 761.437 235.704C761.23 236.143 761.127 236.838 761.127 237.79C761.127 238.264 761.156 238.668 761.215 239.004C761.274 239.339 761.378 239.596 761.526 239.773C761.674 239.951 761.874 240.039 762.125 240.039C762.426 240.039 762.661 239.97 762.828 239.832C762.996 239.694 763.122 239.531 763.206 239.344C763.289 239.152 763.354 238.984 763.398 238.841V235.23C763.265 235.161 763.137 235.112 763.013 235.082C762.89 235.053 762.752 235.038 762.599 235.038ZM775.896 230.228V236.791C775.896 237.388 775.805 237.928 775.623 238.412C775.44 238.895 775.171 239.307 774.816 239.647C774.466 239.988 774.034 240.249 773.521 240.432C773.013 240.614 772.431 240.705 771.775 240.705C771.114 240.705 770.542 240.622 770.059 240.454C769.58 240.281 769.119 240.044 768.675 239.743L769.6 238.249C769.95 238.491 770.278 238.661 770.584 238.759C770.89 238.853 771.238 238.9 771.627 238.9C772.155 238.9 772.594 238.732 772.944 238.397C773.299 238.057 773.477 237.531 773.477 236.821V232.004H770.325V230.228H775.896ZM781.41 232.367C782.219 232.367 782.907 232.539 783.475 232.885C784.042 233.23 784.476 233.716 784.777 234.342C785.078 234.964 785.228 235.694 785.228 236.532C785.228 237.405 785.075 238.158 784.77 238.789C784.469 239.415 784.035 239.896 783.467 240.232C782.9 240.567 782.214 240.735 781.41 240.735C780.611 240.735 779.926 240.57 779.353 240.239C778.786 239.909 778.35 239.43 778.044 238.804C777.743 238.177 777.592 237.425 777.592 236.547C777.592 235.714 777.743 234.983 778.044 234.357C778.35 233.731 778.786 233.242 779.353 232.892C779.926 232.542 780.611 232.367 781.41 232.367ZM781.41 234.091C780.932 234.091 780.577 234.288 780.345 234.683C780.118 235.072 780.005 235.694 780.005 236.547C780.005 237.415 780.118 238.044 780.345 238.434C780.577 238.824 780.932 239.018 781.41 239.018C781.889 239.018 782.242 238.824 782.468 238.434C782.7 238.044 782.816 237.41 782.816 236.532C782.816 235.684 782.7 235.065 782.468 234.675C782.242 234.286 781.889 234.091 781.41 234.091ZM788.907 237.235C788.961 237.664 789.072 238.012 789.24 238.278C789.413 238.54 789.632 238.732 789.899 238.856C790.165 238.974 790.463 239.033 790.794 239.033C791.154 239.033 791.502 238.974 791.837 238.856C792.173 238.737 792.496 238.579 792.806 238.382L793.746 239.655C793.376 239.97 792.927 240.229 792.4 240.432C791.877 240.634 791.28 240.735 790.609 240.735C789.711 240.735 788.959 240.557 788.352 240.202C787.746 239.842 787.289 239.349 786.983 238.722C786.678 238.096 786.525 237.376 786.525 236.562C786.525 235.788 786.673 235.085 786.969 234.453C787.265 233.817 787.696 233.311 788.263 232.936C788.836 232.557 789.534 232.367 790.357 232.367C791.107 232.367 791.756 232.527 792.303 232.848C792.856 233.168 793.282 233.629 793.583 234.231C793.889 234.833 794.042 235.556 794.042 236.399C794.042 236.532 794.037 236.675 794.027 236.828C794.022 236.981 794.012 237.117 793.998 237.235H788.907ZM790.357 233.935C789.938 233.935 789.6 234.086 789.344 234.387C789.087 234.688 788.932 235.168 788.878 235.829H791.763C791.758 235.257 791.647 234.799 791.43 234.453C791.213 234.108 790.856 233.935 790.357 233.935ZM800.747 233.573C800.747 233.208 800.678 232.907 800.54 232.67C800.407 232.428 800.202 232.251 799.926 232.137C799.655 232.019 799.312 231.96 798.897 231.96H798.069V235.312H799.023C799.383 235.312 799.692 235.25 799.948 235.127C800.205 235.003 800.402 234.813 800.54 234.557C800.678 234.3 800.747 233.972 800.747 233.573ZM803.248 233.565C803.248 234.359 803.078 235.016 802.738 235.533C802.397 236.051 801.921 236.439 801.31 236.695C800.698 236.947 799.988 237.072 799.179 237.072H798.069V240.483H795.642V230.228H798.868C800.259 230.228 801.337 230.505 802.101 231.057C802.866 231.61 803.248 232.446 803.248 233.565ZM808.029 232.367C808.838 232.367 809.526 232.539 810.094 232.885C810.661 233.23 811.095 233.716 811.396 234.342C811.697 234.964 811.847 235.694 811.847 236.532C811.847 237.405 811.694 238.158 811.389 238.789C811.088 239.415 810.654 239.896 810.086 240.232C809.519 240.567 808.833 240.735 808.029 240.735C807.23 240.735 806.545 240.57 805.973 240.239C805.405 239.909 804.969 239.43 804.663 238.804C804.362 238.177 804.212 237.425 804.212 236.547C804.212 235.714 804.362 234.983 804.663 234.357C804.969 233.731 805.405 233.242 805.973 232.892C806.545 232.542 807.23 232.367 808.029 232.367ZM808.029 234.091C807.551 234.091 807.196 234.288 806.964 234.683C806.737 235.072 806.624 235.694 806.624 236.547C806.624 237.415 806.737 238.044 806.964 238.434C807.196 238.824 807.551 239.018 808.029 239.018C808.508 239.018 808.861 238.824 809.087 238.434C809.319 238.044 809.435 237.41 809.435 236.532C809.435 235.684 809.319 235.065 809.087 234.675C808.861 234.286 808.508 234.091 808.029 234.091ZM813.573 240.483V238.915H814.609V234.179H813.573V232.626H816.392L816.821 234.394C817.102 233.718 817.46 233.215 817.894 232.885C818.333 232.554 818.868 232.389 819.499 232.389C819.766 232.389 820.003 232.411 820.21 232.455C820.417 232.495 820.612 232.552 820.794 232.626L820.084 234.557C819.941 234.517 819.798 234.488 819.655 234.468C819.512 234.448 819.354 234.438 819.181 234.438C818.668 234.438 818.217 234.648 817.827 235.067C817.443 235.487 817.149 236.019 816.947 236.666V238.915H818.501V240.483H813.573ZM818.893 235.911V233.617L819.24 232.626H820.794L820.358 235.911H818.893ZM829.445 240.025C829.139 240.222 828.77 240.39 828.335 240.528C827.901 240.666 827.413 240.735 826.87 240.735C825.844 240.735 825.082 240.474 824.584 239.951C824.086 239.423 823.837 238.708 823.837 237.805V234.239H822.187V232.626H823.837V230.924L826.175 230.643V232.626H828.705L828.476 234.239H826.175V237.805C826.175 238.195 826.264 238.473 826.441 238.641C826.619 238.809 826.903 238.893 827.292 238.893C827.568 238.893 827.82 238.861 828.047 238.796C828.279 238.727 828.486 238.641 828.668 238.537L829.445 240.025ZM836.047 232.626V238.885H838.045V240.483H831.482V238.885H833.709V234.224H831.556V232.626H836.047ZM834.634 228.512C835.038 228.512 835.369 228.638 835.625 228.889C835.882 229.141 836.01 229.454 836.01 229.829C836.01 230.204 835.882 230.519 835.625 230.776C835.369 231.027 835.038 231.153 834.634 231.153C834.224 231.153 833.889 231.027 833.627 230.776C833.371 230.519 833.243 230.204 833.243 229.829C833.243 229.454 833.371 229.141 833.627 228.889C833.889 228.638 834.224 228.512 834.634 228.512ZM844.217 229.503V238.012C844.217 238.328 844.306 238.555 844.483 238.693C844.666 238.826 844.915 238.893 845.231 238.893C845.433 238.893 845.628 238.87 845.815 238.826C846.003 238.777 846.178 238.72 846.34 238.656L846.903 240.217C846.636 240.355 846.316 240.476 845.941 240.58C845.566 240.683 845.13 240.735 844.631 240.735C843.684 240.735 842.989 240.464 842.545 239.921C842.101 239.374 841.879 238.641 841.879 237.724V231.101H839.563V229.503H844.217ZM853.09 229.503V238.012C853.09 238.328 853.179 238.555 853.356 238.693C853.539 238.826 853.788 238.893 854.104 238.893C854.306 238.893 854.501 238.87 854.688 238.826C854.876 238.777 855.051 238.72 855.213 238.656L855.776 240.217C855.509 240.355 855.189 240.476 854.814 240.58C854.439 240.683 854.002 240.735 853.504 240.735C852.557 240.735 851.862 240.464 851.418 239.921C850.974 239.374 850.752 238.641 850.752 237.724V231.101H848.436V229.503H853.09ZM864.479 238.219C864.479 238.515 864.518 238.73 864.597 238.863C864.681 238.996 864.814 239.097 864.997 239.166L864.516 240.705C864.052 240.661 863.66 240.56 863.339 240.402C863.023 240.239 862.774 239.995 862.592 239.67C862.291 240.03 861.906 240.298 861.438 240.476C860.969 240.649 860.491 240.735 860.002 240.735C859.193 240.735 858.547 240.506 858.064 240.047C857.585 239.583 857.346 238.989 857.346 238.264C857.346 237.41 857.679 236.752 858.345 236.288C859.016 235.824 859.958 235.593 861.171 235.593H862.229V235.297C862.229 234.887 862.096 234.584 861.83 234.387C861.568 234.189 861.184 234.091 860.676 234.091C860.424 234.091 860.101 234.128 859.706 234.202C859.312 234.271 858.917 234.372 858.522 234.505L857.982 232.951C858.49 232.759 859.018 232.613 859.566 232.515C860.118 232.416 860.611 232.367 861.045 232.367C862.215 232.367 863.078 232.606 863.635 233.084C864.197 233.558 864.479 234.244 864.479 235.141V238.219ZM860.809 239.063C861.06 239.063 861.324 238.989 861.6 238.841C861.877 238.688 862.086 238.473 862.229 238.197V236.924H861.652C861.001 236.924 860.523 237.026 860.217 237.228C859.911 237.425 859.758 237.716 859.758 238.101C859.758 238.402 859.849 238.639 860.032 238.811C860.219 238.979 860.478 239.063 860.809 239.063Z" fill="black"/>
<rect x="31" y="95" width="70" height="70" rx="15" fill="#0B3DA6"/>
<rect x="726" y="95" width="70" height="70" rx="15" fill="#0B3DA6"/>
<rect x="126" y="95" width="70" height="70" rx="15" fill="#BA3737"/>
<rect x="821" y="95" width="70" height="70" rx="15" fill="#BA3737"/>
<rect x="221" y="95" width="70" height="70" rx="15" fill="#00B798"/>
<rect x="916" y="95" width="70" height="70" rx="15" fill="#00B798"/>
<rect x="316" y="95" width="70" height="70" rx="15" fill="#0B3DA6"/>
<rect x="1011" y="95" width="70" height="70" rx="15" fill="#0B3DA6"/>
<rect x="1106" y="95" width="70" height="70" rx="15" fill="#353535"/>
<path d="M538 126.5C536.067 126.5 534.5 128.067 534.5 130C534.5 131.933 536.067 133.5 538 133.5V126.5ZM670 130L635 109.793V150.207L670 130ZM538 130V133.5H638.5V130V126.5H538V130Z" fill="black"/>
<rect x="665" y="21" width="41" height="41" rx="8.78571" fill="#353535"/>
<path d="M483.655 51.5522C483.655 50.825 483.831 50.1562 484.181 49.5459C484.545 48.9355 485.032 48.4486 485.642 48.085C486.252 47.7214 486.928 47.5396 487.668 47.5396C488.421 47.5396 489.103 47.7214 489.713 48.085C490.324 48.4486 490.804 48.9355 491.155 49.5459C491.518 50.1562 491.7 50.825 491.7 51.5522C491.7 52.2794 491.518 52.9547 491.155 53.578C490.804 54.1884 490.324 54.6754 489.713 55.039C489.103 55.4026 488.421 55.5844 487.668 55.5844C486.928 55.5844 486.252 55.4026 485.642 55.039C485.032 54.6754 484.545 54.1884 484.181 53.578C483.831 52.9547 483.655 52.2794 483.655 51.5522ZM518.955 49.5654C518.955 50.3575 519.072 50.9354 519.306 51.299C519.54 51.6496 519.916 51.9158 520.436 52.0976L519.326 55.5454C518.222 55.4285 517.28 55.1558 516.501 54.7273C515.735 54.2858 515.144 53.63 514.728 52.7599C513.949 53.7079 512.962 54.4156 511.768 54.8831C510.586 55.3506 509.346 55.5844 508.047 55.5844C505.943 55.5844 504.275 54.987 503.041 53.7923C501.807 52.5976 501.191 51.0458 501.191 49.1368C501.191 46.9422 502.048 45.254 503.762 44.0723C505.489 42.8776 507.93 42.2802 511.086 42.2802H513.969V41.1699C513.969 39.9492 513.592 39.0662 512.839 38.5208C512.086 37.9624 511.001 37.6832 509.586 37.6832C508.924 37.6832 508.093 37.7741 507.093 37.9559C506.106 38.1247 505.086 38.3909 504.035 38.7545L502.807 35.2288C504.119 34.7354 505.437 34.3718 506.762 34.138C508.099 33.9043 509.313 33.7874 510.404 33.7874C513.3 33.7874 515.449 34.4042 516.852 35.6379C518.254 36.8586 518.955 38.5922 518.955 40.8388V49.5654ZM509.722 51.8639C510.502 51.8639 511.287 51.6431 512.079 51.2016C512.884 50.7601 513.514 50.1432 513.969 49.3511V45.3384H511.943C510.034 45.3384 508.651 45.6436 507.794 46.2539C506.95 46.8643 506.528 47.7278 506.528 48.8446C506.528 49.8056 506.801 50.5523 507.346 51.0847C507.891 51.6042 508.683 51.8639 509.722 51.8639ZM536.51 33.7874C538.328 33.7874 539.783 34.2354 540.874 35.1314C541.977 36.0145 542.776 37.2676 543.269 38.8909C543.776 40.5141 544.029 42.4296 544.029 44.6372C544.029 46.7539 543.724 48.6369 543.114 50.2861C542.503 51.9353 541.607 53.2339 540.426 54.1819C539.257 55.1169 537.815 55.5844 536.101 55.5844C533.997 55.5844 532.296 54.8377 530.998 53.3443V62.9474L525.855 63.4928V34.3718H530.374L530.647 36.8845C531.465 35.8197 532.381 35.0405 533.394 34.5471C534.407 34.0406 535.445 33.7874 536.51 33.7874ZM535.01 37.6442C534.14 37.6442 533.374 37.9039 532.712 38.4234C532.063 38.9428 531.491 39.5856 530.998 40.3518V49.5848C531.465 50.2861 531.998 50.812 532.595 51.1626C533.192 51.5133 533.868 51.6886 534.621 51.6886C535.932 51.6886 536.932 51.1432 537.621 50.0523C538.322 48.9485 538.672 47.163 538.672 44.6956C538.672 42.9555 538.53 41.5725 538.244 40.5466C537.971 39.5077 537.562 38.7675 537.017 38.326C536.471 37.8715 535.802 37.6442 535.01 37.6442ZM559.87 33.7874C561.688 33.7874 563.142 34.2354 564.233 35.1314C565.337 36.0145 566.136 37.2676 566.629 38.8909C567.135 40.5141 567.389 42.4296 567.389 44.6372C567.389 46.7539 567.084 48.6369 566.473 50.2861C565.863 51.9353 564.967 53.2339 563.785 54.1819C562.616 55.1169 561.175 55.5844 559.461 55.5844C557.357 55.5844 555.656 54.8377 554.357 53.3443V62.9474L549.215 63.4928V34.3718H553.734L554.007 36.8845C554.825 35.8197 555.74 35.0405 556.753 34.5471C557.766 34.0406 558.805 33.7874 559.87 33.7874ZM558.37 37.6442C557.5 37.6442 556.734 37.9039 556.071 38.4234C555.422 38.9428 554.851 39.5856 554.357 40.3518V49.5848C554.825 50.2861 555.357 50.812 555.955 51.1626C556.552 51.5133 557.227 51.6886 557.98 51.6886C559.292 51.6886 560.292 51.1432 560.98 50.0523C561.681 48.9485 562.032 47.163 562.032 44.6956C562.032 42.9555 561.889 41.5725 561.603 40.5466C561.331 39.5077 560.922 38.7675 560.376 38.326C559.831 37.8715 559.162 37.6442 558.37 37.6442ZM576.957 46.2539C577.061 47.5396 577.353 48.5849 577.834 49.3901C578.327 50.1952 578.957 50.786 579.723 51.1626C580.489 51.5392 581.34 51.7275 582.275 51.7275C583.262 51.7275 584.19 51.5717 585.06 51.26C585.93 50.9484 586.788 50.5133 587.632 49.9549L589.774 52.8963C588.813 53.7014 587.664 54.3507 586.327 54.8442C585.002 55.3376 583.541 55.5844 581.944 55.5844C579.71 55.5844 577.827 55.1234 576.295 54.2014C574.775 53.2794 573.626 52.0002 572.847 50.364C572.068 48.7278 571.678 46.8448 571.678 44.7151C571.678 42.6633 572.061 40.8128 572.828 39.1636C573.594 37.5144 574.698 36.2093 576.139 35.2483C577.58 34.2744 579.321 33.7874 581.359 33.7874C583.255 33.7874 584.892 34.2029 586.268 35.034C587.645 35.8651 588.709 37.0599 589.463 38.6182C590.216 40.1635 590.592 42.027 590.592 44.2086C590.592 44.5593 590.579 44.9164 590.553 45.28C590.54 45.6436 590.521 45.9682 590.495 46.2539H576.957ZM581.379 37.4105C580.132 37.4105 579.106 37.8585 578.301 38.7545C577.509 39.6376 577.042 41.0401 576.899 42.962H585.586C585.56 41.2219 585.197 39.8648 584.495 38.8909C583.807 37.9039 582.768 37.4105 581.379 37.4105ZM595.934 55V34.3718H600.414L600.784 36.9235C601.667 35.8846 602.661 35.1055 603.764 34.586C604.868 34.0536 606.056 33.7874 607.329 33.7874C609.186 33.7874 610.602 34.3263 611.576 35.4041C612.549 36.469 613.036 37.9689 613.036 39.9038V55H607.894V41.9101C607.894 40.8712 607.829 40.0401 607.699 39.4168C607.569 38.7805 607.323 38.326 606.959 38.0533C606.595 37.7676 606.069 37.6248 605.381 37.6248C604.823 37.6248 604.284 37.7481 603.764 37.9949C603.258 38.2416 602.778 38.5727 602.323 38.9883C601.881 39.4038 601.466 39.8648 601.076 40.3713V55H595.934ZM631.254 25.5867L636.396 26.1322V55H631.838L631.526 52.5651C630.89 53.4741 630.091 54.2079 629.13 54.7663C628.169 55.3117 627.053 55.5844 625.78 55.5844C624.04 55.5844 622.598 55.1299 621.456 54.2208C620.326 53.3118 619.482 52.0392 618.923 50.403C618.378 48.7537 618.105 46.8383 618.105 44.6567C618.105 42.5529 618.43 40.6829 619.079 39.0467C619.728 37.4105 620.663 36.1249 621.884 35.1899C623.118 34.2549 624.579 33.7874 626.267 33.7874C627.28 33.7874 628.202 33.9627 629.033 34.3133C629.864 34.6639 630.604 35.1834 631.254 35.8716V25.5867ZM627.65 37.6248C626.351 37.6248 625.325 38.1896 624.572 39.3194C623.832 40.4362 623.462 42.2218 623.462 44.6761C623.462 46.4033 623.618 47.7863 623.929 48.8252C624.241 49.8511 624.683 50.5913 625.254 51.0458C625.825 51.5003 626.501 51.7275 627.28 51.7275C628.137 51.7275 628.89 51.4743 629.539 50.9679C630.202 50.4484 630.773 49.8056 631.254 49.0394V39.6506C630.773 39.0143 630.234 38.5208 629.637 38.1702C629.052 37.8066 628.39 37.6248 627.65 37.6248ZM649.003 41.3647C649.003 43.1178 649.146 44.7216 649.432 46.176C649.717 47.6175 650.165 48.9875 650.776 50.2861C651.386 51.5717 652.178 52.8508 653.152 54.1234C654.139 55.3961 655.334 56.7466 656.736 58.1751L653.814 60.9021C651.737 59.149 649.945 57.318 648.438 55.4091C646.945 53.5001 645.789 51.4029 644.971 49.1173C644.166 46.8318 643.763 44.2476 643.763 41.3647C643.763 38.4818 644.166 35.8976 644.971 33.6121C645.789 31.3136 646.945 29.2163 648.438 27.3204C649.945 25.4114 651.737 23.5804 653.814 21.8273L656.736 24.5544C655.399 25.9179 654.243 27.236 653.269 28.5086C652.295 29.7812 651.49 31.0733 650.854 32.3849C650.23 33.6835 649.763 35.0665 649.451 36.5339C649.152 37.9884 649.003 39.5986 649.003 41.3647ZM723.484 41.3647C723.484 39.5986 723.328 37.9884 723.017 36.5339C722.718 35.0665 722.25 33.6835 721.614 32.3849C720.991 31.0733 720.192 29.7812 719.218 28.5086C718.244 27.236 717.088 25.9179 715.751 24.5544L718.673 21.8273C720.751 23.5804 722.536 25.4114 724.029 27.3204C725.536 29.2163 726.692 31.3136 727.497 33.6121C728.315 35.8976 728.724 38.4818 728.724 41.3647C728.724 44.2476 728.315 46.8318 727.497 49.1173C726.692 51.4029 725.536 53.5001 724.029 55.4091C722.536 57.318 720.751 59.149 718.673 60.9021L715.751 58.1751C717.153 56.7466 718.342 55.3961 719.316 54.1234C720.303 52.8508 721.101 51.5717 721.711 50.2861C722.322 48.9875 722.77 47.6175 723.056 46.176C723.341 44.7216 723.484 43.1178 723.484 41.3647Z" fill="black"/>
<path d="M1063.12 34.503C1061.74 34.4352 1060.57 35.4982 1060.5 36.8772C1060.44 38.2562 1061.5 39.4292 1062.88 39.497L1063.12 34.503ZM1136.5 77.5L1134.44 48.7059L1110.53 64.8845L1136.5 77.5ZM1063 37L1062.88 39.497C1070.34 39.8641 1081.03 41.4138 1091.97 44.7791C1102.92 48.1499 1113.94 53.2879 1122.22 60.7239L1123.89 58.864L1125.56 57.0042C1116.55 48.9072 1104.78 43.4899 1093.44 40.0003C1082.08 36.5051 1070.98 34.8893 1063.12 34.503L1063 37Z" fill="#E42600"/>
<path d="M866.24 31.66C866.213 31.4333 866.26 31.22 866.38 31.02C866.513 30.8067 866.68 30.6867 866.88 30.66C867.346 30.5667 867.753 30.68 868.1 31C868.153 31.0267 868.293 31.16 868.52 31.4C869.093 31.76 869.806 31.9733 870.66 32.04C871.166 32.04 871.633 32.0467 872.06 32.06C872.5 32.0733 872.966 32.0467 873.46 31.98C873.966 31.9133 874.426 31.8067 874.84 31.66C875.4 31.22 875.613 30.84 875.48 30.52C875.4 30.2533 875.126 29.9533 874.66 29.62C874.193 29.2867 873.92 29.08 873.84 29C872.373 28.4667 870.813 27.7933 869.16 26.98C868.72 26.7667 868.4 26.58 868.2 26.42C868 26.26 867.726 25.98 867.38 25.58C867.22 25.3533 867.193 24.9067 867.3 24.24C867.38 24.0133 867.66 23.7867 868.14 23.56C868.153 23.56 868.293 23.52 868.56 23.44C868.826 23.36 868.98 23.32 869.02 23.32C869.18 23.2 869.36 23.0867 869.56 22.98C869.773 22.86 869.96 22.76 870.12 22.68C870.293 22.6 870.513 22.5067 870.78 22.4C871.06 22.28 871.266 22.1933 871.4 22.14C871.546 22.0867 871.78 22.0067 872.1 21.9C872.433 21.78 872.653 21.7 872.76 21.66C872.893 21.62 873.173 21.5133 873.6 21.34C874.026 21.1533 874.413 21 874.76 20.88C875.12 20.7467 875.386 20.6667 875.56 20.64L876.72 20.52L877.5 20.9C877.62 20.9933 877.693 21.1 877.72 21.22C877.76 21.3267 877.773 21.4733 877.76 21.66C877.76 21.8467 877.76 21.9733 877.76 22.04C877.413 22.48 877.073 22.6533 876.74 22.56C876.713 22.56 876.626 22.52 876.48 22.44C876.333 22.3467 876.253 22.3 876.24 22.3C876.16 22.2867 876.06 22.2933 875.94 22.32C875.82 22.3467 875.68 22.3933 875.52 22.46C875.373 22.5133 875.273 22.5467 875.22 22.56C874.86 22.76 874.26 23.04 873.42 23.4C872.593 23.7467 872.1 23.96 871.94 24.04C870.9 24.4267 870.266 24.6933 870.04 24.84V24.96C870.213 25.2 870.44 25.4133 870.72 25.6C871 25.7867 871.393 25.9867 871.9 26.2C872.406 26.4133 872.713 26.5467 872.82 26.6C874.753 27.32 876.146 28.2067 877 29.26C877.333 29.98 877.46 30.6533 877.38 31.28C877.166 31.7867 876.84 32.2467 876.4 32.66C875.96 33.06 875.48 33.3533 874.96 33.54C874.226 33.8333 873.126 33.9667 871.66 33.94C870.113 33.98 868.813 33.7667 867.76 33.3C867.4 33.1933 867.146 33.0667 867 32.92C866.493 32.5467 866.24 32.1267 866.24 31.66ZM880.248 28.3C881.208 27.0733 882.261 26.2733 883.408 25.9C884.141 25.8067 884.528 25.76 884.568 25.76C885.394 25.7867 886.114 26.04 886.728 26.52C887.341 26.9867 887.668 27.6267 887.708 28.44C887.721 29.1467 887.434 29.7933 886.848 30.38C886.274 30.9667 885.634 31.2867 884.928 31.34C884.661 31.4333 884.374 31.48 884.067 31.48C883.374 31.48 882.608 31.2267 881.768 30.72C881.514 30.4667 881.348 30.34 881.268 30.34C881.214 30.3133 881.168 30.3133 881.127 30.34C880.688 31.0067 880.474 31.5133 880.488 31.86C880.634 32.7267 881.101 33.46 881.888 34.06C882.674 34.6733 883.508 34.9533 884.388 34.9C884.521 34.9533 884.754 34.9533 885.088 34.9C885.421 34.86 885.641 34.8267 885.748 34.8C885.868 34.7733 886.094 34.7067 886.428 34.6C886.774 34.5067 887.014 34.44 887.148 34.4C887.614 34.2133 888.234 34.0933 889.008 34.04H889.148C889.241 34.0133 889.328 34.0333 889.408 34.1C889.488 34.1667 889.534 34.2667 889.548 34.4V35.14C889.068 35.6867 888.474 35.98 887.768 36.02C887.621 36.06 887.354 36.1333 886.968 36.24C886.594 36.3467 886.308 36.42 886.108 36.46C885.921 36.5133 885.668 36.56 885.348 36.6C885.041 36.6533 884.761 36.6733 884.508 36.66C883.334 36.7133 882.208 36.4133 881.127 35.76C880.141 35.2533 879.381 34.3733 878.847 33.12C878.648 32.3333 878.681 31.5667 878.948 30.82C879.214 30.0733 879.648 29.2333 880.248 28.3ZM881.808 29.26C882.088 29.26 882.328 29.28 882.528 29.32C882.648 29.3867 882.761 29.44 882.868 29.48C882.988 29.5067 883.128 29.5333 883.288 29.56C883.461 29.5733 883.574 29.58 883.628 29.58C883.681 29.58 883.821 29.58 884.048 29.58C884.288 29.58 884.414 29.58 884.428 29.58C885.121 29.3667 885.581 29.0667 885.808 28.68C885.848 28.5333 885.848 28.4067 885.808 28.3C885.781 28.18 885.708 28.08 885.588 28C885.468 27.92 885.354 27.86 885.248 27.82C885.141 27.78 884.994 27.7333 884.808 27.68C884.634 27.6133 884.508 27.5667 884.428 27.54C884.108 27.54 883.781 27.6333 883.448 27.82C883.114 27.9933 882.848 28.1667 882.648 28.34C882.448 28.5133 882.194 28.7533 881.888 29.06C881.888 29.0733 881.874 29.1067 881.848 29.16C881.821 29.2 881.808 29.2333 881.808 29.26ZM907.285 31.12C907.178 31.2 907.052 31.3667 906.905 31.62C906.198 32.3933 905.505 33.0133 904.825 33.48C904.158 33.9333 903.432 34.1533 902.645 34.14C902.232 34.1933 901.805 34.14 901.365 33.98C900.925 33.8067 900.578 33.5667 900.325 33.26C900.205 33.0733 900.118 32.9467 900.065 32.88C900.025 32.8 899.958 32.68 899.865 32.52C899.772 32.3467 899.705 32.2067 899.665 32.1C899.638 31.9933 899.605 31.8667 899.565 31.72C899.525 31.5733 899.505 31.4333 899.505 31.3C899.505 31.1533 899.525 31.0067 899.565 30.86C899.578 30.4067 899.725 29.9467 900.005 29.48C900.298 29.0133 900.592 28.64 900.885 28.36C901.178 28.08 901.558 27.7467 902.025 27.36C902.118 27.2933 902.185 27.24 902.225 27.2C902.785 26.7467 903.545 26.52 904.505 26.52C904.705 26.52 905.338 26.5733 906.405 26.68C906.432 26.7067 906.518 26.7533 906.665 26.82C906.825 26.8867 906.938 26.96 907.005 27.04C907.072 27.1067 907.078 27.2 907.025 27.32L907.285 27.58C907.685 27.7533 907.938 27.92 908.045 28.08C908.712 29.44 909.298 30.5333 909.805 31.36C909.858 31.4267 910.025 31.58 910.305 31.82C910.598 32.0467 910.772 32.1933 910.825 32.26C910.932 32.34 911.058 32.4533 911.205 32.6C911.365 32.7333 911.498 32.8333 911.605 32.9C911.712 32.9667 911.832 33.0067 911.965 33.02C911.978 33.0333 912.065 33.1133 912.225 33.26C912.238 33.3 912.232 33.3533 912.205 33.42C912.192 33.4733 912.172 33.54 912.145 33.62C912.118 33.7 912.098 33.7533 912.085 33.78C911.952 33.98 911.658 34.14 911.205 34.26C911.045 34.26 910.932 34.2667 910.865 34.28C910.812 34.3067 910.718 34.2933 910.585 34.24C910.465 34.2 910.378 34.1667 910.325 34.14C910.285 34.1267 910.198 34.08 910.065 34C909.932 33.92 909.832 33.86 909.765 33.82L909.685 33.78C909.352 33.5 908.892 33.02 908.305 32.34C907.732 31.6467 907.392 31.24 907.285 31.12ZM901.465 31.74C901.705 32.1 902.065 32.28 902.545 32.28C902.772 32.28 903.085 32.2267 903.485 32.12C904.138 31.88 904.732 31.46 905.265 30.86C905.785 30.14 906.078 29.5067 906.145 28.96C906.145 28.92 906.172 28.7667 906.225 28.5C906.278 28.22 906.298 28.0267 906.285 27.92C906.018 27.9867 905.632 28.04 905.125 28.08C904.632 28.1067 904.252 28.1467 903.985 28.2C903.638 28.2533 903.285 28.42 902.925 28.7C902.565 28.9667 902.292 29.22 902.105 29.46C901.918 29.7 901.665 30.04 901.345 30.48C901.118 30.76 901.158 31.18 901.465 31.74ZM914.005 38.42C914.312 38.18 914.618 38.06 914.925 38.06C915.165 38.06 915.365 38.14 915.525 38.3C915.592 38.3667 915.765 38.5667 916.045 38.9C916.325 39.2467 916.572 39.5 916.785 39.66C916.998 39.82 917.232 39.92 917.485 39.96C917.525 39.96 917.552 39.9533 917.565 39.94C917.845 39.8067 918.045 39.5733 918.165 39.24C918.285 38.9067 918.365 38.4867 918.405 37.98C918.458 37.4733 918.512 37.12 918.565 36.92C918.618 36.5733 918.692 36.0067 918.785 35.22C918.892 34.4333 918.978 33.8667 919.045 33.52H918.825C918.132 33.68 917.452 33.76 916.785 33.76C916.145 33.76 915.472 33.68 914.765 33.52C914.218 33.2 913.745 32.8 913.345 32.32C912.958 31.8267 912.758 31.2933 912.745 30.72C912.798 30.1333 913.105 29.5533 913.665 28.98C914.225 28.3933 914.805 27.9667 915.405 27.7C915.898 27.2867 916.512 27.08 917.245 27.08C918.192 27.08 918.885 27.4067 919.325 28.06C919.325 28.14 919.325 28.2667 919.325 28.44C919.338 28.6 919.338 28.7267 919.325 28.82C919.325 28.9 919.285 28.98 919.205 29.06C919.125 29.14 918.998 29.1867 918.825 29.2C918.665 29.1067 918.232 29.02 917.525 28.94C916.685 28.8867 915.852 29.3533 915.025 30.34C914.958 30.4067 914.912 30.48 914.885 30.56C914.858 30.64 914.858 30.72 914.885 30.8C914.912 30.88 914.938 30.9533 914.965 31.02C915.005 31.0867 915.058 31.16 915.125 31.24C915.205 31.3067 915.265 31.3667 915.305 31.42C915.358 31.46 915.425 31.52 915.505 31.6C915.585 31.6667 915.638 31.7133 915.665 31.74C916.065 31.9 916.505 31.98 916.985 31.98C917.412 31.98 917.845 31.9133 918.285 31.78C918.738 31.6333 919.145 31.4 919.505 31.08C919.865 30.76 920.058 30.3867 920.085 29.96C920.205 29.3733 920.545 28.9933 921.105 28.82H921.165C921.192 28.8333 921.252 28.8533 921.345 28.88C921.452 28.9067 921.518 28.9267 921.545 28.94C921.572 28.94 921.625 28.9533 921.705 28.98C921.785 29.0067 921.838 29.0267 921.865 29.04C921.905 29.0533 921.952 29.08 922.005 29.12C922.072 29.1467 922.112 29.18 922.125 29.22C922.152 29.2467 922.178 29.2867 922.205 29.34C922.245 29.38 922.265 29.4267 922.265 29.48C922.265 29.52 922.265 29.5733 922.265 29.64C922.265 29.7067 922.258 29.7733 922.245 29.84C922.272 30.24 922.092 30.7933 921.705 31.5C921.332 32.1933 921.112 32.6867 921.045 32.98C920.458 34.8733 920.052 36.7333 919.825 38.56C919.732 39.7067 919.525 40.5467 919.205 41.08C918.805 41.68 918.478 42.0667 918.225 42.24C918.025 42.36 917.805 42.44 917.565 42.48C916.898 42.2133 916.092 41.7067 915.145 40.96C914.852 40.8133 914.625 40.6933 914.465 40.6C914.318 40.5067 914.158 40.3667 913.985 40.18C913.812 39.9933 913.692 39.7867 913.625 39.56C913.598 39 913.725 38.62 914.005 38.42ZM923.204 28.64C923.298 28.0533 923.498 27.5467 923.804 27.12C924.111 26.6933 924.544 26.2267 925.104 25.72C925.584 25.48 926.204 25.36 926.964 25.36C927.898 25.36 928.664 25.52 929.264 25.84C930.398 26.5467 931.204 27.14 931.684 27.62C931.684 27.66 931.691 27.76 931.704 27.92C931.718 28.08 931.711 28.2133 931.684 28.32C931.671 28.4267 931.624 28.4867 931.544 28.5C931.118 28.5667 930.684 28.5 930.244 28.3C930.138 28.2333 929.964 28.1333 929.724 28C929.484 27.8533 929.304 27.7467 929.184 27.68C929.064 27.6133 928.904 27.5467 928.704 27.48C928.504 27.4133 928.311 27.3733 928.124 27.36C928.018 27.36 927.844 27.36 927.604 27.36C927.364 27.3467 927.171 27.3467 927.024 27.36C926.891 27.36 926.724 27.38 926.524 27.42C926.324 27.46 926.144 27.5267 925.984 27.62L925.864 27.74C925.384 28.38 925.084 28.8733 924.964 29.22C924.991 29.62 924.991 29.98 924.964 30.3C924.938 30.6067 924.931 30.96 924.944 31.36C924.971 31.76 925.024 32.1133 925.104 32.42C925.198 32.58 925.251 32.74 925.264 32.9C925.278 33.0467 925.244 33.22 925.164 33.42C925.084 33.62 925.024 33.76 924.984 33.84C924.958 33.9067 924.871 34.06 924.724 34.3C924.604 34.46 924.458 34.54 924.284 34.54C924.098 34.54 923.904 34.46 923.704 34.3C923.384 34.1 923.131 33.7267 922.944 33.18C922.944 31.0733 923.031 29.56 923.204 28.64ZM933.138 28.3C934.098 27.0733 935.151 26.2733 936.298 25.9C937.031 25.8067 937.418 25.76 937.458 25.76C938.285 25.7867 939.005 26.04 939.618 26.52C940.231 26.9867 940.558 27.6267 940.598 28.44C940.611 29.1467 940.325 29.7933 939.738 30.38C939.165 30.9667 938.525 31.2867 937.818 31.34C937.551 31.4333 937.265 31.48 936.958 31.48C936.265 31.48 935.498 31.2267 934.658 30.72C934.405 30.4667 934.238 30.34 934.158 30.34C934.105 30.3133 934.058 30.3133 934.018 30.34C933.578 31.0067 933.365 31.5133 933.378 31.86C933.525 32.7267 933.991 33.46 934.778 34.06C935.565 34.6733 936.398 34.9533 937.278 34.9C937.411 34.9533 937.645 34.9533 937.978 34.9C938.311 34.86 938.531 34.8267 938.638 34.8C938.758 34.7733 938.985 34.7067 939.318 34.6C939.665 34.5067 939.905 34.44 940.038 34.4C940.505 34.2133 941.125 34.0933 941.898 34.04H942.038C942.131 34.0133 942.218 34.0333 942.298 34.1C942.378 34.1667 942.425 34.2667 942.438 34.4V35.14C941.958 35.6867 941.365 35.98 940.658 36.02C940.511 36.06 940.245 36.1333 939.858 36.24C939.485 36.3467 939.198 36.42 938.998 36.46C938.811 36.5133 938.558 36.56 938.238 36.6C937.931 36.6533 937.651 36.6733 937.398 36.66C936.225 36.7133 935.098 36.4133 934.018 35.76C933.031 35.2533 932.271 34.3733 931.738 33.12C931.538 32.3333 931.571 31.5667 931.838 30.82C932.105 30.0733 932.538 29.2333 933.138 28.3ZM934.698 29.26C934.978 29.26 935.218 29.28 935.418 29.32C935.538 29.3867 935.651 29.44 935.758 29.48C935.878 29.5067 936.018 29.5333 936.178 29.56C936.351 29.5733 936.465 29.58 936.518 29.58C936.571 29.58 936.711 29.58 936.938 29.58C937.178 29.58 937.305 29.58 937.318 29.58C938.011 29.3667 938.471 29.0667 938.698 28.68C938.738 28.5333 938.738 28.4067 938.698 28.3C938.671 28.18 938.598 28.08 938.478 28C938.358 27.92 938.245 27.86 938.138 27.82C938.031 27.78 937.885 27.7333 937.698 27.68C937.525 27.6133 937.398 27.5667 937.318 27.54C936.998 27.54 936.671 27.6333 936.338 27.82C936.005 27.9933 935.738 28.1667 935.538 28.34C935.338 28.5133 935.085 28.7533 934.778 29.06C934.778 29.0733 934.765 29.1067 934.738 29.16C934.711 29.2 934.698 29.2333 934.698 29.26ZM943.556 38.42C943.862 38.18 944.169 38.06 944.476 38.06C944.716 38.06 944.916 38.14 945.076 38.3C945.142 38.3667 945.316 38.5667 945.596 38.9C945.876 39.2467 946.122 39.5 946.336 39.66C946.549 39.82 946.782 39.92 947.036 39.96C947.076 39.96 947.102 39.9533 947.116 39.94C947.396 39.8067 947.596 39.5733 947.716 39.24C947.836 38.9067 947.916 38.4867 947.956 37.98C948.009 37.4733 948.062 37.12 948.116 36.92C948.169 36.5733 948.242 36.0067 948.336 35.22C948.442 34.4333 948.529 33.8667 948.596 33.52H948.376C947.682 33.68 947.002 33.76 946.336 33.76C945.696 33.76 945.022 33.68 944.316 33.52C943.769 33.2 943.296 32.8 942.896 32.32C942.509 31.8267 942.309 31.2933 942.296 30.72C942.349 30.1333 942.656 29.5533 943.216 28.98C943.776 28.3933 944.356 27.9667 944.956 27.7C945.449 27.2867 946.062 27.08 946.796 27.08C947.742 27.08 948.436 27.4067 948.876 28.06C948.876 28.14 948.876 28.2667 948.876 28.44C948.889 28.6 948.889 28.7267 948.876 28.82C948.876 28.9 948.836 28.98 948.756 29.06C948.676 29.14 948.549 29.1867 948.376 29.2C948.216 29.1067 947.782 29.02 947.076 28.94C946.236 28.8867 945.402 29.3533 944.576 30.34C944.509 30.4067 944.462 30.48 944.436 30.56C944.409 30.64 944.409 30.72 944.436 30.8C944.462 30.88 944.489 30.9533 944.516 31.02C944.556 31.0867 944.609 31.16 944.676 31.24C944.756 31.3067 944.816 31.3667 944.856 31.42C944.909 31.46 944.976 31.52 945.056 31.6C945.136 31.6667 945.189 31.7133 945.216 31.74C945.616 31.9 946.056 31.98 946.536 31.98C946.962 31.98 947.396 31.9133 947.836 31.78C948.289 31.6333 948.696 31.4 949.056 31.08C949.416 30.76 949.609 30.3867 949.636 29.96C949.756 29.3733 950.096 28.9933 950.656 28.82H950.716C950.742 28.8333 950.802 28.8533 950.896 28.88C951.002 28.9067 951.069 28.9267 951.096 28.94C951.122 28.94 951.176 28.9533 951.256 28.98C951.336 29.0067 951.389 29.0267 951.416 29.04C951.456 29.0533 951.502 29.08 951.556 29.12C951.622 29.1467 951.662 29.18 951.676 29.22C951.702 29.2467 951.729 29.2867 951.756 29.34C951.796 29.38 951.816 29.4267 951.816 29.48C951.816 29.52 951.816 29.5733 951.816 29.64C951.816 29.7067 951.809 29.7733 951.796 29.84C951.822 30.24 951.642 30.7933 951.256 31.5C950.882 32.1933 950.662 32.6867 950.596 32.98C950.009 34.8733 949.602 36.7333 949.376 38.56C949.282 39.7067 949.076 40.5467 948.756 41.08C948.356 41.68 948.029 42.0667 947.776 42.24C947.576 42.36 947.356 42.44 947.116 42.48C946.449 42.2133 945.642 41.7067 944.696 40.96C944.402 40.8133 944.176 40.6933 944.016 40.6C943.869 40.5067 943.709 40.3667 943.536 40.18C943.362 39.9933 943.242 39.7867 943.176 39.56C943.149 39 943.276 38.62 943.556 38.42ZM960.195 31.12C960.088 31.2 959.962 31.3667 959.815 31.62C959.108 32.3933 958.415 33.0133 957.735 33.48C957.068 33.9333 956.342 34.1533 955.555 34.14C955.142 34.1933 954.715 34.14 954.275 33.98C953.835 33.8067 953.488 33.5667 953.235 33.26C953.115 33.0733 953.028 32.9467 952.975 32.88C952.935 32.8 952.868 32.68 952.775 32.52C952.682 32.3467 952.615 32.2067 952.575 32.1C952.548 31.9933 952.515 31.8667 952.475 31.72C952.435 31.5733 952.415 31.4333 952.415 31.3C952.415 31.1533 952.435 31.0067 952.475 30.86C952.488 30.4067 952.635 29.9467 952.915 29.48C953.208 29.0133 953.502 28.64 953.795 28.36C954.088 28.08 954.468 27.7467 954.935 27.36C955.028 27.2933 955.095 27.24 955.135 27.2C955.695 26.7467 956.455 26.52 957.415 26.52C957.615 26.52 958.248 26.5733 959.315 26.68C959.342 26.7067 959.428 26.7533 959.575 26.82C959.735 26.8867 959.848 26.96 959.915 27.04C959.982 27.1067 959.988 27.2 959.935 27.32L960.195 27.58C960.595 27.7533 960.848 27.92 960.955 28.08C961.622 29.44 962.208 30.5333 962.715 31.36C962.768 31.4267 962.935 31.58 963.215 31.82C963.508 32.0467 963.682 32.1933 963.735 32.26C963.842 32.34 963.968 32.4533 964.115 32.6C964.275 32.7333 964.408 32.8333 964.515 32.9C964.622 32.9667 964.742 33.0067 964.875 33.02C964.888 33.0333 964.975 33.1133 965.135 33.26C965.148 33.3 965.142 33.3533 965.115 33.42C965.102 33.4733 965.082 33.54 965.055 33.62C965.028 33.7 965.008 33.7533 964.995 33.78C964.862 33.98 964.568 34.14 964.115 34.26C963.955 34.26 963.842 34.2667 963.775 34.28C963.722 34.3067 963.628 34.2933 963.495 34.24C963.375 34.2 963.288 34.1667 963.235 34.14C963.195 34.1267 963.108 34.08 962.975 34C962.842 33.92 962.742 33.86 962.675 33.82L962.595 33.78C962.262 33.5 961.802 33.02 961.215 32.34C960.642 31.6467 960.302 31.24 960.195 31.12ZM954.375 31.74C954.615 32.1 954.975 32.28 955.455 32.28C955.682 32.28 955.995 32.2267 956.395 32.12C957.048 31.88 957.642 31.46 958.175 30.86C958.695 30.14 958.988 29.5067 959.055 28.96C959.055 28.92 959.082 28.7667 959.135 28.5C959.188 28.22 959.208 28.0267 959.195 27.92C958.928 27.9867 958.542 28.04 958.035 28.08C957.542 28.1067 957.162 28.1467 956.895 28.2C956.548 28.2533 956.195 28.42 955.835 28.7C955.475 28.9667 955.202 29.22 955.015 29.46C954.828 29.7 954.575 30.04 954.255 30.48C954.028 30.76 954.068 31.18 954.375 31.74ZM983.535 31.12C983.428 31.2 983.302 31.3667 983.155 31.62C982.448 32.3933 981.755 33.0133 981.075 33.48C980.408 33.9333 979.682 34.1533 978.895 34.14C978.482 34.1933 978.055 34.14 977.615 33.98C977.175 33.8067 976.828 33.5667 976.575 33.26C976.455 33.0733 976.368 32.9467 976.315 32.88C976.275 32.8 976.208 32.68 976.115 32.52C976.022 32.3467 975.955 32.2067 975.915 32.1C975.888 31.9933 975.855 31.8667 975.815 31.72C975.775 31.5733 975.755 31.4333 975.755 31.3C975.755 31.1533 975.775 31.0067 975.815 30.86C975.828 30.4067 975.975 29.9467 976.255 29.48C976.548 29.0133 976.842 28.64 977.135 28.36C977.428 28.08 977.808 27.7467 978.275 27.36C978.368 27.2933 978.435 27.24 978.475 27.2C979.035 26.7467 979.795 26.52 980.755 26.52C980.955 26.52 981.588 26.5733 982.655 26.68C982.682 26.7067 982.768 26.7533 982.915 26.82C983.075 26.8867 983.188 26.96 983.255 27.04C983.322 27.1067 983.328 27.2 983.275 27.32L983.535 27.58C983.935 27.7533 984.188 27.92 984.295 28.08C984.962 29.44 985.548 30.5333 986.055 31.36C986.108 31.4267 986.275 31.58 986.555 31.82C986.848 32.0467 987.022 32.1933 987.075 32.26C987.182 32.34 987.308 32.4533 987.455 32.6C987.615 32.7333 987.748 32.8333 987.855 32.9C987.962 32.9667 988.082 33.0067 988.215 33.02C988.228 33.0333 988.315 33.1133 988.475 33.26C988.488 33.3 988.482 33.3533 988.455 33.42C988.442 33.4733 988.422 33.54 988.395 33.62C988.368 33.7 988.348 33.7533 988.335 33.78C988.202 33.98 987.908 34.14 987.455 34.26C987.295 34.26 987.182 34.2667 987.115 34.28C987.062 34.3067 986.968 34.2933 986.835 34.24C986.715 34.2 986.628 34.1667 986.575 34.14C986.535 34.1267 986.448 34.08 986.315 34C986.182 33.92 986.082 33.86 986.015 33.82L985.935 33.78C985.602 33.5 985.142 33.02 984.555 32.34C983.982 31.6467 983.642 31.24 983.535 31.12ZM977.715 31.74C977.955 32.1 978.315 32.28 978.795 32.28C979.022 32.28 979.335 32.2267 979.735 32.12C980.388 31.88 980.982 31.46 981.515 30.86C982.035 30.14 982.328 29.5067 982.395 28.96C982.395 28.92 982.422 28.7667 982.475 28.5C982.528 28.22 982.548 28.0267 982.535 27.92C982.268 27.9867 981.882 28.04 981.375 28.08C980.882 28.1067 980.502 28.1467 980.235 28.2C979.888 28.2533 979.535 28.42 979.175 28.7C978.815 28.9667 978.542 29.22 978.355 29.46C978.168 29.7 977.915 30.04 977.595 30.48C977.368 30.76 977.408 31.18 977.715 31.74ZM990.235 30.46C990.248 29.66 990.295 28.5867 990.375 27.24C990.455 25.88 990.502 24.9333 990.515 24.4C990.502 23.7467 990.528 22.5267 990.595 20.74C990.662 18.9533 990.675 17.6467 990.635 16.82C990.742 16.4733 990.942 16.3 991.235 16.3C991.608 16.3 991.915 16.5133 992.155 16.94C992.155 17.1133 992.162 17.2733 992.175 17.42L992.255 18.86C992.268 19.0067 992.275 19.1667 992.275 19.34C992.248 20.5933 992.162 22.4267 992.015 24.84C991.882 27.2533 991.802 28.96 991.775 29.96C991.788 30.1467 991.808 30.4333 991.835 30.82C991.862 31.2067 991.882 31.4933 991.895 31.68C991.922 31.8533 991.955 32.08 991.995 32.36C992.048 32.6267 992.115 32.8733 992.195 33.1C992.288 33.3133 992.402 33.5267 992.535 33.74C992.548 33.9267 992.502 34.0933 992.395 34.24C992.222 34.3467 992.002 34.4 991.735 34.4C991.428 34.4 991.188 34.3467 991.015 34.24C990.788 34 990.615 33.7 990.495 33.34C990.375 32.98 990.302 32.7 990.275 32.5C990.248 32.3 990.235 31.9333 990.235 31.4C990.235 30.8533 990.235 30.54 990.235 30.46ZM1005.55 28.68C1005.44 28.5333 1005.32 28.4067 1005.17 28.3C1003.97 28.0067 1003.42 27.54 1003.53 26.9C1003.49 26.6333 1003.53 26.3933 1003.65 26.18C1003.77 25.9667 1003.95 25.8667 1004.19 25.88C1004.32 25.8667 1004.51 25.9 1004.75 25.98C1004.99 26.0467 1005.19 26.0533 1005.35 26C1005.35 25.92 1005.34 25.56 1005.33 24.92C1005.32 24.28 1005.31 23.8067 1005.31 23.5C1005.3 23.1933 1005.33 22.7333 1005.41 22.12C1005.49 21.5067 1005.54 21.12 1005.55 20.96C1005.52 20.6933 1005.55 20.4467 1005.63 20.22C1005.71 19.98 1005.86 19.7 1006.07 19.38C1006.28 19.06 1006.4 18.8733 1006.43 18.82C1006.72 18.46 1007.14 18.28 1007.69 18.28C1007.94 18.28 1008.28 18.3333 1008.71 18.44C1009.23 18.6533 1009.74 18.98 1010.25 19.42C1010.77 19.8467 1011.32 20.38 1011.91 21.02C1012.51 21.6467 1012.96 22.0933 1013.27 22.36C1013.64 22.8533 1013.85 23.1467 1013.89 23.24C1013.96 23.3467 1014 23.46 1014.01 23.58C1014.04 23.7 1014.04 23.8467 1014.03 24.02C1014.03 24.1933 1014.03 24.3133 1014.03 24.38C1013.99 24.4333 1013.93 24.5533 1013.85 24.74C1013.78 24.9133 1013.7 25.0467 1013.61 25.14C1013.53 25.22 1013.42 25.2267 1013.27 25.16C1012.96 25.24 1012.71 25.0667 1012.51 24.64C1012.43 24.36 1012.39 24.06 1012.39 23.74C1012.32 23.6733 1012.09 23.4267 1011.69 23C1011.3 22.56 1011.07 22.3 1010.99 22.22C1010.9 22.1533 1010.56 21.86 1009.97 21.34C1009.38 20.82 1008.96 20.5267 1008.71 20.46C1008.3 20.34 1007.94 20.4133 1007.63 20.68C1007.34 20.9333 1007.15 21.28 1007.07 21.72C1006.87 23.5067 1006.87 25.1067 1007.07 26.52L1007.33 26.66C1007.93 26.7933 1008.73 26.9267 1009.73 27.06C1010.74 27.1933 1011.5 27.3133 1012.01 27.42C1012.84 27.6867 1013.42 27.98 1013.77 28.3C1013.82 28.5 1013.78 28.6933 1013.65 28.88C1013.53 29.0667 1013.36 29.1667 1013.13 29.18C1012.92 29.2333 1012.67 29.26 1012.39 29.26C1012.03 29.26 1011.48 29.1867 1010.75 29.04C1010.03 28.8933 1009.6 28.8133 1009.47 28.8C1009 28.7067 1008.62 28.66 1008.31 28.66C1007.98 28.66 1007.65 28.7067 1007.33 28.8V28.96L1007.31 29.4V29.56C1007.26 30.1067 1007.32 30.8067 1007.51 31.66C1007.71 32.5133 1007.82 33.1267 1007.83 33.5C1007.83 33.5933 1007.78 33.6867 1007.69 33.78C1007.6 33.86 1007.48 33.9467 1007.33 34.04C1007.2 34.1333 1007.11 34.1933 1007.07 34.22C1006.94 34.1933 1006.82 34.1467 1006.71 34.08C1006.6 34.0267 1006.52 33.9733 1006.45 33.92C1006.4 33.8667 1006.34 33.78 1006.27 33.66C1006.22 33.5267 1006.18 33.4267 1006.15 33.36C1006.14 33.2933 1006.1 33.1733 1006.05 33C1006 32.8133 1005.96 32.68 1005.93 32.6C1005.68 31.6933 1005.55 30.3867 1005.55 28.68ZM1013.98 22.86C1014.06 22.66 1014.2 22.5 1014.4 22.38C1014.61 22.2467 1014.83 22.1933 1015.06 22.22C1015.14 22.2067 1015.21 22.2067 1015.28 22.22C1015.34 22.2333 1015.41 22.26 1015.48 22.3C1015.56 22.34 1015.62 22.3733 1015.66 22.4C1015.7 22.4267 1015.75 22.4867 1015.82 22.58C1015.9 22.6733 1015.95 22.7333 1015.98 22.76C1016 22.7733 1016.06 22.84 1016.14 22.96L1016.26 23.12C1016.31 23.2533 1016.56 23.5467 1017.02 24C1017.11 24.1333 1017.16 24.2933 1017.16 24.48C1017.17 24.6533 1017.12 24.7933 1017.02 24.9H1016.58C1016.35 24.94 1016.12 24.9267 1015.88 24.86C1015.65 24.7933 1015.34 24.66 1014.96 24.46C1014.58 24.26 1014.38 24.1533 1014.36 24.14C1014.13 24.0067 1013.98 23.82 1013.9 23.58C1013.83 23.3267 1013.86 23.0867 1013.98 22.86ZM1015.26 33C1015.23 32.84 1015.19 32.4933 1015.14 31.96C1015.08 31.4133 1015.03 30.8467 1014.98 30.26C1014.92 29.66 1014.89 29.3067 1014.88 29.2C1014.85 28.84 1014.85 28.46 1014.88 28.06C1015.08 27.7133 1015.41 27.5867 1015.88 27.68C1016.05 27.76 1016.22 28.0133 1016.4 28.44C1016.4 28.72 1016.42 29.0133 1016.46 29.32C1016.51 29.6267 1016.56 29.8867 1016.6 30.1C1016.65 30.3133 1016.72 30.5933 1016.82 30.94C1016.91 31.2867 1016.98 31.5533 1017.02 31.74C1017.02 31.8467 1017 32.02 1016.98 32.26C1016.96 32.4867 1016.94 32.7067 1016.92 32.92C1016.9 33.1333 1016.9 33.2467 1016.9 33.26C1016.88 33.3 1016.86 33.3733 1016.84 33.48C1016.82 33.5867 1016.8 33.6733 1016.78 33.74C1016.76 33.8067 1016.73 33.88 1016.68 33.96C1016.64 34.0267 1016.58 34.08 1016.52 34.12C1016.16 34.1867 1015.86 34.1067 1015.64 33.88C1015.41 33.48 1015.28 33.1867 1015.26 33ZM1023.59 28.56C1022.71 29.3067 1021.91 30.2333 1021.19 31.34C1021.16 31.3933 1020.99 31.6867 1020.67 32.22C1020.36 32.74 1020.16 33.12 1020.05 33.36C1019.9 33.6 1019.69 33.6867 1019.41 33.62L1018.53 32.72V32.1C1018.6 31.7533 1018.67 31.08 1018.75 30.08C1018.83 29.08 1018.88 28.4867 1018.91 28.3C1018.91 28.2333 1018.9 28.1733 1018.89 28.12L1018.81 27.6C1018.8 27.5467 1018.79 27.4867 1018.79 27.42V27.34C1018.79 27.1267 1018.86 26.9533 1018.99 26.82C1019.14 26.6867 1019.32 26.6267 1019.53 26.64C1019.96 26.64 1020.26 26.7733 1020.43 27.04C1020.52 27.4 1020.57 27.8667 1020.57 28.44C1020.57 28.56 1020.56 28.7133 1020.55 28.9C1020.55 29.0733 1020.55 29.1667 1020.55 29.18C1020.66 29.1 1020.87 28.9 1021.19 28.58C1021.52 28.2467 1021.73 28.0267 1021.81 27.92C1021.9 27.8 1022.02 27.64 1022.15 27.44C1022.3 27.2267 1022.44 27.0467 1022.57 26.9C1022.7 26.74 1022.86 26.5867 1023.05 26.44C1023.12 26.3467 1023.2 26.28 1023.29 26.24C1023.38 26.1867 1023.47 26.16 1023.55 26.16C1023.64 26.1467 1023.74 26.14 1023.85 26.14C1023.96 26.14 1024.06 26.14 1024.17 26.14C1024.32 26.0867 1024.46 26.1 1024.61 26.18C1024.77 26.2467 1024.94 26.3933 1025.11 26.62C1025.28 26.8333 1025.39 26.98 1025.43 27.06C1025.48 27.14 1025.59 27.3067 1025.75 27.56C1026.16 28.52 1026.37 29.5667 1026.37 30.7L1026.75 32.34C1026.75 32.38 1026.79 32.5133 1026.87 32.74C1026.96 32.9667 1027.01 33.0867 1027.01 33.1C1027.04 33.46 1026.95 33.7133 1026.75 33.86C1026.71 33.8733 1026.61 33.9133 1026.45 33.98C1026.3 34.0333 1026.19 34.06 1026.11 34.06C1025.98 34.06 1025.9 33.9933 1025.87 33.86C1025.84 33.82 1025.75 33.6733 1025.59 33.42C1025.44 33.1533 1025.32 32.9667 1025.23 32.86C1024.98 31.98 1024.81 31.1333 1024.73 30.32C1024.69 30.2267 1024.63 30.0267 1024.55 29.72C1024.48 29.4 1024.42 29.18 1024.35 29.06C1024.07 28.74 1023.88 28.5667 1023.79 28.54C1023.68 28.54 1023.62 28.5467 1023.59 28.56ZM1035.57 31.12C1035.46 31.2 1035.33 31.3667 1035.19 31.62C1034.48 32.3933 1033.79 33.0133 1033.11 33.48C1032.44 33.9333 1031.71 34.1533 1030.93 34.14C1030.51 34.1933 1030.09 34.14 1029.65 33.98C1029.21 33.8067 1028.86 33.5667 1028.61 33.26C1028.49 33.0733 1028.4 32.9467 1028.35 32.88C1028.31 32.8 1028.24 32.68 1028.15 32.52C1028.05 32.3467 1027.99 32.2067 1027.95 32.1C1027.92 31.9933 1027.89 31.8667 1027.85 31.72C1027.81 31.5733 1027.79 31.4333 1027.79 31.3C1027.79 31.1533 1027.81 31.0067 1027.85 30.86C1027.86 30.4067 1028.01 29.9467 1028.29 29.48C1028.58 29.0133 1028.87 28.64 1029.17 28.36C1029.46 28.08 1029.84 27.7467 1030.31 27.36C1030.4 27.2933 1030.47 27.24 1030.51 27.2C1031.07 26.7467 1031.83 26.52 1032.79 26.52C1032.99 26.52 1033.62 26.5733 1034.69 26.68C1034.71 26.7067 1034.8 26.7533 1034.95 26.82C1035.11 26.8867 1035.22 26.96 1035.29 27.04C1035.35 27.1067 1035.36 27.2 1035.31 27.32L1035.57 27.58C1035.97 27.7533 1036.22 27.92 1036.33 28.08C1036.99 29.44 1037.58 30.5333 1038.09 31.36C1038.14 31.4267 1038.31 31.58 1038.59 31.82C1038.88 32.0467 1039.05 32.1933 1039.11 32.26C1039.21 32.34 1039.34 32.4533 1039.49 32.6C1039.65 32.7333 1039.78 32.8333 1039.89 32.9C1039.99 32.9667 1040.11 33.0067 1040.25 33.02C1040.26 33.0333 1040.35 33.1133 1040.51 33.26C1040.52 33.3 1040.51 33.3533 1040.49 33.42C1040.47 33.4733 1040.45 33.54 1040.43 33.62C1040.4 33.7 1040.38 33.7533 1040.37 33.78C1040.23 33.98 1039.94 34.14 1039.49 34.26C1039.33 34.26 1039.21 34.2667 1039.15 34.28C1039.09 34.3067 1039 34.2933 1038.87 34.24C1038.75 34.2 1038.66 34.1667 1038.61 34.14C1038.57 34.1267 1038.48 34.08 1038.35 34C1038.21 33.92 1038.11 33.86 1038.05 33.82L1037.97 33.78C1037.63 33.5 1037.17 33.02 1036.59 32.34C1036.01 31.6467 1035.67 31.24 1035.57 31.12ZM1029.75 31.74C1029.99 32.1 1030.35 32.28 1030.83 32.28C1031.05 32.28 1031.37 32.2267 1031.77 32.12C1032.42 31.88 1033.01 31.46 1033.55 30.86C1034.07 30.14 1034.36 29.5067 1034.43 28.96C1034.43 28.92 1034.45 28.7667 1034.51 28.5C1034.56 28.22 1034.58 28.0267 1034.57 27.92C1034.3 27.9867 1033.91 28.04 1033.41 28.08C1032.91 28.1067 1032.53 28.1467 1032.27 28.2C1031.92 28.2533 1031.57 28.42 1031.21 28.7C1030.85 28.9667 1030.57 29.22 1030.39 29.46C1030.2 29.7 1029.95 30.04 1029.63 30.48C1029.4 30.76 1029.44 31.18 1029.75 31.74ZM1042.27 30.46C1042.28 29.66 1042.33 28.5867 1042.41 27.24C1042.49 25.88 1042.53 24.9333 1042.55 24.4C1042.53 23.7467 1042.56 22.5267 1042.63 20.74C1042.69 18.9533 1042.71 17.6467 1042.67 16.82C1042.77 16.4733 1042.97 16.3 1043.27 16.3C1043.64 16.3 1043.95 16.5133 1044.19 16.94C1044.19 17.1133 1044.19 17.2733 1044.21 17.42L1044.29 18.86C1044.3 19.0067 1044.31 19.1667 1044.31 19.34C1044.28 20.5933 1044.19 22.4267 1044.05 24.84C1043.91 27.2533 1043.83 28.96 1043.81 29.96C1043.82 30.1467 1043.84 30.4333 1043.87 30.82C1043.89 31.2067 1043.91 31.4933 1043.93 31.68C1043.95 31.8533 1043.99 32.08 1044.03 32.36C1044.08 32.6267 1044.15 32.8733 1044.23 33.1C1044.32 33.3133 1044.43 33.5267 1044.57 33.74C1044.58 33.9267 1044.53 34.0933 1044.43 34.24C1044.25 34.3467 1044.03 34.4 1043.77 34.4C1043.46 34.4 1043.22 34.3467 1043.05 34.24C1042.82 34 1042.65 33.7 1042.53 33.34C1042.41 32.98 1042.33 32.7 1042.31 32.5C1042.28 32.3 1042.27 31.9333 1042.27 31.4C1042.27 30.8533 1042.27 30.54 1042.27 30.46ZM940.065 55.58V55.44C940.199 54.3733 940.705 53.4333 941.585 52.62C942.465 51.7933 943.432 51.4667 944.485 51.64C944.979 51.6667 945.419 51.8533 945.805 52.2C946.205 52.5467 946.399 52.9533 946.385 53.42C946.385 53.5533 946.345 53.64 946.265 53.68C946.185 53.7067 946.072 53.7133 945.925 53.7C945.779 53.6733 945.679 53.6667 945.625 53.68C944.945 53.44 944.312 53.3533 943.725 53.42C942.365 54.1133 941.692 55 941.705 56.08C941.599 56.52 941.692 56.8667 941.985 57.12C942.279 57.3733 942.645 57.5 943.085 57.5C943.392 57.5 943.652 57.4467 943.865 57.34C945.292 56.5933 946.472 55.16 947.405 53.04C947.405 52.7467 947.412 52.48 947.425 52.24L947.505 49.8C947.519 49.56 947.525 49.2933 947.525 49C947.645 47.7067 947.772 46.86 947.905 46.46C947.919 46.2733 947.952 46.0267 948.005 45.72C948.059 45.4 948.112 45.0733 948.165 44.74C948.232 44.3933 948.272 44.1667 948.285 44.06C948.339 43.6733 948.552 43.42 948.925 43.3C949.139 43.3133 949.372 43.3867 949.625 43.52C949.879 43.64 950.019 43.78 950.045 43.94C950.112 44.1 950.152 44.28 950.165 44.48C950.192 44.68 950.199 44.86 950.185 45.02C950.172 45.18 950.172 45.3667 950.185 45.58C950.172 45.6733 950.185 45.9333 950.225 46.36C950.279 46.7733 950.305 47.02 950.305 47.1C950.305 47.5933 950.219 48.56 950.045 50C950.005 50.28 949.879 50.68 949.665 51.2C949.452 51.72 949.325 52.12 949.285 52.4V53.68C949.299 53.6933 949.305 53.7133 949.305 53.74L949.405 53.98L949.425 54.04L949.805 55.32C949.885 55.64 949.985 55.9533 950.105 56.26C950.225 56.5533 950.379 56.92 950.565 57.36C950.752 57.7867 950.879 58.0733 950.945 58.22C950.972 58.6333 950.885 58.92 950.685 59.08C950.632 59.16 950.559 59.2 950.465 59.2C950.399 59.2 950.179 59.0867 949.805 58.86C949.672 58.7267 949.539 58.5733 949.405 58.4C949.285 58.2133 949.185 58.0467 949.105 57.9C949.025 57.7533 948.925 57.5533 948.805 57.3C948.699 57.0333 948.625 56.8467 948.585 56.74C948.545 56.62 948.472 56.4133 948.365 56.12C948.259 55.8133 948.192 55.6267 948.165 55.56C947.992 55.6667 947.705 55.98 947.305 56.5C946.919 57.0067 946.699 57.2867 946.645 57.34C945.685 58.3267 944.799 58.9533 943.985 59.22C943.172 59.3267 942.679 59.38 942.505 59.38C941.852 59.38 941.332 59.2067 940.945 58.86C940.759 58.7133 940.592 58.54 940.445 58.34C940.232 57.9933 940.099 57.5467 940.045 57C940.005 56.4533 940.012 55.98 940.065 55.58ZM953.392 53.3C954.352 52.0733 955.405 51.2733 956.552 50.9C957.285 50.8067 957.672 50.76 957.712 50.76C958.539 50.7867 959.259 51.04 959.872 51.52C960.485 51.9867 960.812 52.6267 960.852 53.44C960.865 54.1467 960.579 54.7933 959.992 55.38C959.419 55.9667 958.779 56.2867 958.072 56.34C957.805 56.4333 957.519 56.48 957.212 56.48C956.519 56.48 955.752 56.2267 954.912 55.72C954.659 55.4667 954.492 55.34 954.412 55.34C954.359 55.3133 954.312 55.3133 954.272 55.34C953.832 56.0067 953.619 56.5133 953.632 56.86C953.779 57.7267 954.245 58.46 955.032 59.06C955.819 59.6733 956.652 59.9533 957.532 59.9C957.665 59.9533 957.899 59.9533 958.232 59.9C958.565 59.86 958.785 59.8267 958.892 59.8C959.012 59.7733 959.239 59.7067 959.572 59.6C959.919 59.5067 960.159 59.44 960.292 59.4C960.759 59.2133 961.379 59.0933 962.152 59.04H962.292C962.385 59.0133 962.472 59.0333 962.552 59.1C962.632 59.1667 962.679 59.2667 962.692 59.4V60.14C962.212 60.6867 961.619 60.98 960.912 61.02C960.765 61.06 960.499 61.1333 960.112 61.24C959.739 61.3467 959.452 61.42 959.252 61.46C959.065 61.5133 958.812 61.56 958.492 61.6C958.185 61.6533 957.905 61.6733 957.652 61.66C956.479 61.7133 955.352 61.4133 954.272 60.76C953.285 60.2533 952.525 59.3733 951.992 58.12C951.792 57.3333 951.825 56.5667 952.092 55.82C952.359 55.0733 952.792 54.2333 953.392 53.3ZM954.952 54.26C955.232 54.26 955.472 54.28 955.672 54.32C955.792 54.3867 955.905 54.44 956.012 54.48C956.132 54.5067 956.272 54.5333 956.432 54.56C956.605 54.5733 956.719 54.58 956.772 54.58C956.825 54.58 956.965 54.58 957.192 54.58C957.432 54.58 957.559 54.58 957.572 54.58C958.265 54.3667 958.725 54.0667 958.952 53.68C958.992 53.5333 958.992 53.4067 958.952 53.3C958.925 53.18 958.852 53.08 958.732 53C958.612 52.92 958.499 52.86 958.392 52.82C958.285 52.78 958.139 52.7333 957.952 52.68C957.779 52.6133 957.652 52.5667 957.572 52.54C957.252 52.54 956.925 52.6333 956.592 52.82C956.259 52.9933 955.992 53.1667 955.792 53.34C955.592 53.5133 955.339 53.7533 955.032 54.06C955.032 54.0733 955.019 54.1067 954.992 54.16C954.965 54.2 954.952 54.2333 954.952 54.26ZM973.79 55.46C973.803 54.66 973.85 53.5867 973.93 52.24C974.01 50.88 974.056 49.9333 974.07 49.4C974.056 48.7467 974.083 47.5267 974.15 45.74C974.216 43.9533 974.23 42.6467 974.19 41.82C974.296 41.4733 974.496 41.3 974.79 41.3C975.163 41.3 975.47 41.5133 975.71 41.94C975.71 42.1133 975.716 42.2733 975.73 42.42L975.81 43.86C975.823 44.0067 975.83 44.1667 975.83 44.34C975.803 45.5933 975.716 47.4267 975.57 49.84C975.436 52.2533 975.356 53.96 975.33 54.96C975.343 55.1467 975.363 55.4333 975.39 55.82C975.416 56.2067 975.436 56.4933 975.45 56.68C975.476 56.8533 975.51 57.08 975.55 57.36C975.603 57.6267 975.67 57.8733 975.75 58.1C975.843 58.3133 975.956 58.5267 976.09 58.74C976.103 58.9267 976.056 59.0933 975.95 59.24C975.776 59.3467 975.556 59.4 975.29 59.4C974.983 59.4 974.743 59.3467 974.57 59.24C974.343 59 974.17 58.7 974.05 58.34C973.93 57.98 973.856 57.7 973.83 57.5C973.803 57.3 973.79 56.9333 973.79 56.4C973.79 55.8533 973.79 55.54 973.79 55.46ZM985.683 56.12C985.577 56.2 985.45 56.3667 985.303 56.62C984.597 57.3933 983.903 58.0133 983.223 58.48C982.557 58.9333 981.83 59.1533 981.043 59.14C980.63 59.1933 980.203 59.14 979.763 58.98C979.323 58.8067 978.977 58.5667 978.723 58.26C978.603 58.0733 978.517 57.9467 978.463 57.88C978.423 57.8 978.357 57.68 978.263 57.52C978.17 57.3467 978.103 57.2067 978.063 57.1C978.037 56.9933 978.003 56.8667 977.963 56.72C977.923 56.5733 977.903 56.4333 977.903 56.3C977.903 56.1533 977.923 56.0067 977.963 55.86C977.977 55.4067 978.123 54.9467 978.403 54.48C978.697 54.0133 978.99 53.64 979.283 53.36C979.577 53.08 979.957 52.7467 980.423 52.36C980.517 52.2933 980.583 52.24 980.623 52.2C981.183 51.7467 981.943 51.52 982.903 51.52C983.103 51.52 983.737 51.5733 984.803 51.68C984.83 51.7067 984.917 51.7533 985.063 51.82C985.223 51.8867 985.337 51.96 985.403 52.04C985.47 52.1067 985.477 52.2 985.423 52.32L985.683 52.58C986.083 52.7533 986.337 52.92 986.443 53.08C987.11 54.44 987.697 55.5333 988.203 56.36C988.257 56.4267 988.423 56.58 988.703 56.82C988.997 57.0467 989.17 57.1933 989.223 57.26C989.33 57.34 989.457 57.4533 989.603 57.6C989.763 57.7333 989.897 57.8333 990.003 57.9C990.11 57.9667 990.23 58.0067 990.363 58.02C990.377 58.0333 990.463 58.1133 990.623 58.26C990.637 58.3 990.63 58.3533 990.603 58.42C990.59 58.4733 990.57 58.54 990.543 58.62C990.517 58.7 990.497 58.7533 990.483 58.78C990.35 58.98 990.057 59.14 989.603 59.26C989.443 59.26 989.33 59.2667 989.263 59.28C989.21 59.3067 989.117 59.2933 988.983 59.24C988.863 59.2 988.777 59.1667 988.723 59.14C988.683 59.1267 988.597 59.08 988.463 59C988.33 58.92 988.23 58.86 988.163 58.82L988.083 58.78C987.75 58.5 987.29 58.02 986.703 57.34C986.13 56.6467 985.79 56.24 985.683 56.12ZM979.863 56.74C980.103 57.1 980.463 57.28 980.943 57.28C981.17 57.28 981.483 57.2267 981.883 57.12C982.537 56.88 983.13 56.46 983.663 55.86C984.183 55.14 984.477 54.5067 984.543 53.96C984.543 53.92 984.57 53.7667 984.623 53.5C984.677 53.22 984.697 53.0267 984.683 52.92C984.417 52.9867 984.03 53.04 983.523 53.08C983.03 53.1067 982.65 53.1467 982.383 53.2C982.037 53.2533 981.683 53.42 981.323 53.7C980.963 53.9667 980.69 54.22 980.503 54.46C980.317 54.7 980.063 55.04 979.743 55.48C979.517 55.76 979.557 56.18 979.863 56.74ZM1002.38 55.46C1002.4 54.66 1002.44 53.5867 1002.52 52.24C1002.6 50.88 1002.65 49.9333 1002.66 49.4C1002.65 48.7467 1002.68 47.5267 1002.74 45.74C1002.81 43.9533 1002.82 42.6467 1002.78 41.82C1002.89 41.4733 1003.09 41.3 1003.38 41.3C1003.76 41.3 1004.06 41.5133 1004.3 41.94C1004.3 42.1133 1004.31 42.2733 1004.32 42.42L1004.4 43.86C1004.42 44.0067 1004.42 44.1667 1004.42 44.34C1004.4 45.5933 1004.31 47.4267 1004.16 49.84C1004.03 52.2533 1003.95 53.96 1003.92 54.96C1003.94 55.1467 1003.96 55.4333 1003.98 55.82C1004.01 56.2067 1004.03 56.4933 1004.04 56.68C1004.07 56.8533 1004.1 57.08 1004.14 57.36C1004.2 57.6267 1004.26 57.8733 1004.34 58.1C1004.44 58.3133 1004.55 58.5267 1004.68 58.74C1004.7 58.9267 1004.65 59.0933 1004.54 59.24C1004.37 59.3467 1004.15 59.4 1003.88 59.4C1003.58 59.4 1003.34 59.3467 1003.16 59.24C1002.94 59 1002.76 58.7 1002.64 58.34C1002.52 57.98 1002.45 57.7 1002.42 57.5C1002.4 57.3 1002.38 56.9333 1002.38 56.4C1002.38 55.8533 1002.38 55.54 1002.38 55.46ZM1006.4 47.86C1006.48 47.66 1006.62 47.5 1006.82 47.38C1007.03 47.2467 1007.25 47.1933 1007.48 47.22C1007.56 47.2067 1007.63 47.2067 1007.7 47.22C1007.76 47.2333 1007.83 47.26 1007.9 47.3C1007.98 47.34 1008.04 47.3733 1008.08 47.4C1008.12 47.4267 1008.17 47.4867 1008.24 47.58C1008.32 47.6733 1008.37 47.7333 1008.4 47.76C1008.42 47.7733 1008.48 47.84 1008.56 47.96L1008.68 48.12C1008.73 48.2533 1008.98 48.5467 1009.44 49C1009.53 49.1333 1009.58 49.2933 1009.58 49.48C1009.59 49.6533 1009.54 49.7933 1009.44 49.9H1009C1008.77 49.94 1008.54 49.9267 1008.3 49.86C1008.07 49.7933 1007.76 49.66 1007.38 49.46C1007 49.26 1006.8 49.1533 1006.78 49.14C1006.55 49.0067 1006.4 48.82 1006.32 48.58C1006.25 48.3267 1006.28 48.0867 1006.4 47.86ZM1007.68 58C1007.65 57.84 1007.61 57.4933 1007.56 56.96C1007.5 56.4133 1007.45 55.8467 1007.4 55.26C1007.34 54.66 1007.31 54.3067 1007.3 54.2C1007.27 53.84 1007.27 53.46 1007.3 53.06C1007.5 52.7133 1007.83 52.5867 1008.3 52.68C1008.47 52.76 1008.64 53.0133 1008.82 53.44C1008.82 53.72 1008.84 54.0133 1008.88 54.32C1008.93 54.6267 1008.98 54.8867 1009.02 55.1C1009.07 55.3133 1009.14 55.5933 1009.24 55.94C1009.33 56.2867 1009.4 56.5533 1009.44 56.74C1009.44 56.8467 1009.42 57.02 1009.4 57.26C1009.38 57.4867 1009.36 57.7067 1009.34 57.92C1009.32 58.1333 1009.32 58.2467 1009.32 58.26C1009.3 58.3 1009.28 58.3733 1009.26 58.48C1009.24 58.5867 1009.22 58.6733 1009.2 58.74C1009.18 58.8067 1009.15 58.88 1009.1 58.96C1009.06 59.0267 1009 59.08 1008.94 59.12C1008.58 59.1867 1008.28 59.1067 1008.06 58.88C1007.83 58.48 1007.7 58.1867 1007.68 58ZM1011.81 57.6C1011.84 57.5467 1011.9 57.4467 1011.99 57.3C1012.09 57.1533 1012.15 57.04 1012.19 56.96C1012.89 57.08 1013.47 57.3733 1013.95 57.84C1014.21 58.0267 1014.51 58.1733 1014.85 58.28C1015.21 58.3867 1015.48 58.4533 1015.65 58.48C1015.84 58.4933 1016.2 58.5 1016.73 58.5C1017.27 58.4867 1017.57 58.48 1017.63 58.48C1017.93 58.48 1018.31 58.3933 1018.77 58.22C1018.91 58.1667 1018.99 58.0733 1019.01 57.94C1019.04 57.8067 1019 57.6933 1018.89 57.6C1018.64 57.4133 1017.98 57.06 1016.91 56.54C1015.86 56.02 1015.3 55.74 1015.23 55.7C1013.87 55.2867 1012.69 54.6933 1011.67 53.92C1011.61 53.8267 1011.49 53.72 1011.33 53.6C1011.19 53.4667 1011.07 53.34 1010.97 53.22C1010.88 53.0867 1010.82 52.94 1010.79 52.78C1010.78 52.26 1011.03 51.8 1011.55 51.4C1011.62 51.3733 1011.88 51.2933 1012.33 51.16C1012.79 51.0267 1013.12 50.8933 1013.33 50.76C1014.57 50.2667 1015.75 49.98 1016.87 49.9C1016.9 49.9 1016.97 49.9067 1017.09 49.92C1017.23 49.9333 1017.3 49.94 1017.31 49.94C1017.34 49.94 1017.41 49.9467 1017.51 49.96C1017.62 49.9733 1017.69 49.9867 1017.71 50C1017.74 50.0133 1017.79 50.0333 1017.87 50.06C1017.95 50.0867 1018.01 50.12 1018.03 50.16C1018.07 50.1867 1018.12 50.2267 1018.17 50.28C1018.23 50.32 1018.27 50.3733 1018.29 50.44C1018.33 50.4933 1018.37 50.56 1018.39 50.64C1018.47 51.1067 1018.35 51.4867 1018.01 51.78C1017.95 51.78 1017.73 51.7867 1017.37 51.8C1017.01 51.8133 1016.78 51.8267 1016.67 51.84C1016.57 51.84 1016.37 51.86 1016.07 51.9C1015.78 51.9267 1015.55 51.96 1015.39 52C1015.23 52.04 1015.05 52.1 1014.83 52.18C1014.62 52.26 1014.42 52.3533 1014.23 52.46C1014.05 52.5267 1013.92 52.6333 1013.85 52.78C1013.8 52.9267 1013.88 53.0533 1014.09 53.16C1014.71 53.5867 1015.61 54.0733 1016.81 54.62C1018.01 55.1667 1018.83 55.5667 1019.27 55.82C1019.71 56.1 1020.09 56.44 1020.41 56.84C1020.75 57.2267 1020.95 57.6667 1021.03 58.16C1021.13 58.6533 1020.92 59.0933 1020.41 59.48C1020.09 59.7333 1019.67 59.9267 1019.15 60.06C1018.65 60.1933 1018.24 60.2733 1017.93 60.3C1017.63 60.3267 1017.15 60.3467 1016.51 60.36C1015.85 60.3867 1015.13 60.2867 1014.37 60.06C1013.61 59.8333 1012.97 59.5133 1012.43 59.1C1011.9 58.9 1011.69 58.4 1011.81 57.6ZM1024.71 55.24L1024.75 53.6C1024.75 53.2133 1024.72 52.62 1024.65 51.82C1024.57 51.5133 1024.5 51.3333 1024.43 51.28C1023.55 51.3467 1022.88 51.4933 1022.41 51.72C1022.29 51.72 1022.12 51.7667 1021.89 51.86C1021.66 51.9533 1021.47 51.9867 1021.31 51.96C1021.22 51.92 1021.12 51.86 1021.03 51.78C1020.94 51.7 1020.84 51.6067 1020.75 51.5C1020.64 51.38 1020.56 51.2933 1020.49 51.24C1020.44 51.1067 1020.42 50.92 1020.43 50.68C1020.44 50.44 1020.49 50.26 1020.57 50.14L1021.23 49.56C1021.92 49.5467 1022.96 49.4133 1024.33 49.16L1024.47 49L1024.51 45.86C1024.82 45.5267 1025.2 45.4067 1025.65 45.5C1026.01 45.78 1026.21 46.1267 1026.25 46.54C1026.29 46.62 1026.32 46.9533 1026.33 47.54C1026.34 48.1267 1026.4 48.4667 1026.49 48.56C1026.5 48.56 1026.56 48.58 1026.67 48.62C1026.79 48.6467 1026.86 48.6667 1026.87 48.68C1027.14 48.6533 1027.48 48.6067 1027.89 48.54C1028.3 48.46 1028.6 48.4133 1028.79 48.4C1028.98 48.3867 1029.32 48.3933 1029.81 48.42L1030.73 48.46C1031.3 48.54 1031.52 48.8733 1031.37 49.46C1031.14 49.6867 1030.97 49.8133 1030.85 49.84C1030.54 49.8667 1030.23 49.9067 1029.91 49.96C1029.59 50.0133 1029.19 50.1 1028.71 50.22C1028.24 50.3267 1027.93 50.3933 1027.77 50.42L1027.73 50.44C1027.38 50.4533 1026.99 50.54 1026.55 50.7L1026.45 50.84C1026.45 51 1026.44 51.2667 1026.41 51.64C1026.4 52 1026.4 52.3133 1026.41 52.58C1026.42 52.8333 1026.46 53.0933 1026.53 53.36C1026.53 55.6933 1026.65 57.1467 1026.89 57.72C1027.16 57.96 1027.4 58.0867 1027.61 58.1C1027.73 58.1 1027.88 58.08 1028.07 58.04C1028.12 58.0267 1028.2 58.0067 1028.31 57.98C1028.42 57.9533 1028.49 57.94 1028.53 57.94C1028.57 57.9267 1028.63 57.9067 1028.71 57.88C1028.79 57.8533 1028.84 57.8333 1028.87 57.82C1028.91 57.8067 1028.96 57.7867 1029.01 57.76C1029.08 57.72 1029.12 57.68 1029.15 57.64C1029.19 57.6 1029.24 57.5533 1029.29 57.5C1029.34 57.4467 1029.39 57.3867 1029.43 57.32C1029.48 57.2533 1029.54 57.18 1029.59 57.1C1029.64 57.0067 1029.7 56.9067 1029.77 56.8C1029.76 56.7333 1029.78 56.5733 1029.83 56.32C1029.88 56.0667 1029.92 55.9067 1029.95 55.84C1030.1 55.4267 1030.36 55.2267 1030.75 55.24C1030.94 55.2133 1031.08 55.2467 1031.17 55.34C1031.26 55.4333 1031.35 55.6 1031.43 55.84L1031.53 56.18C1031.44 56.8333 1031.34 57.24 1031.23 57.4C1030.96 57.9333 1030.76 58.3 1030.61 58.5C1030.48 58.7 1030.23 58.9067 1029.87 59.12C1029.51 59.3467 1028.96 59.58 1028.21 59.82C1028.17 59.8333 1028.02 59.8867 1027.75 59.98C1027.48 60.0867 1027.28 60.14 1027.13 60.14C1026.52 60.1133 1026.06 59.9133 1025.77 59.54C1025.73 59.46 1025.61 59.2533 1025.41 58.92C1025.21 58.5733 1025.07 58.2733 1024.99 58.02C1024.91 57.7533 1024.89 57.4733 1024.93 57.18C1024.92 56.94 1024.88 56.5933 1024.83 56.14C1024.78 55.6867 1024.74 55.4 1024.73 55.28C1024.72 55.2667 1024.71 55.2533 1024.71 55.24ZM1040.82 56.12C1040.71 56.2 1040.59 56.3667 1040.44 56.62C1039.73 57.3933 1039.04 58.0133 1038.36 58.48C1037.69 58.9333 1036.97 59.1533 1036.18 59.14C1035.77 59.1933 1035.34 59.14 1034.9 58.98C1034.46 58.8067 1034.11 58.5667 1033.86 58.26C1033.74 58.0733 1033.65 57.9467 1033.6 57.88C1033.56 57.8 1033.49 57.68 1033.4 57.52C1033.31 57.3467 1033.24 57.2067 1033.2 57.1C1033.17 56.9933 1033.14 56.8667 1033.1 56.72C1033.06 56.5733 1033.04 56.4333 1033.04 56.3C1033.04 56.1533 1033.06 56.0067 1033.1 55.86C1033.11 55.4067 1033.26 54.9467 1033.54 54.48C1033.83 54.0133 1034.13 53.64 1034.42 53.36C1034.71 53.08 1035.09 52.7467 1035.56 52.36C1035.65 52.2933 1035.72 52.24 1035.76 52.2C1036.32 51.7467 1037.08 51.52 1038.04 51.52C1038.24 51.52 1038.87 51.5733 1039.94 51.68C1039.97 51.7067 1040.05 51.7533 1040.2 51.82C1040.36 51.8867 1040.47 51.96 1040.54 52.04C1040.61 52.1067 1040.61 52.2 1040.56 52.32L1040.82 52.58C1041.22 52.7533 1041.47 52.92 1041.58 53.08C1042.25 54.44 1042.83 55.5333 1043.34 56.36C1043.39 56.4267 1043.56 56.58 1043.84 56.82C1044.13 57.0467 1044.31 57.1933 1044.36 57.26C1044.47 57.34 1044.59 57.4533 1044.74 57.6C1044.9 57.7333 1045.03 57.8333 1045.14 57.9C1045.25 57.9667 1045.37 58.0067 1045.5 58.02C1045.51 58.0333 1045.6 58.1133 1045.76 58.26C1045.77 58.3 1045.77 58.3533 1045.74 58.42C1045.73 58.4733 1045.71 58.54 1045.68 58.62C1045.65 58.7 1045.63 58.7533 1045.62 58.78C1045.49 58.98 1045.19 59.14 1044.74 59.26C1044.58 59.26 1044.47 59.2667 1044.4 59.28C1044.35 59.3067 1044.25 59.2933 1044.12 59.24C1044 59.2 1043.91 59.1667 1043.86 59.14C1043.82 59.1267 1043.73 59.08 1043.6 59C1043.47 58.92 1043.37 58.86 1043.3 58.82L1043.22 58.78C1042.89 58.5 1042.43 58.02 1041.84 57.34C1041.27 56.6467 1040.93 56.24 1040.82 56.12ZM1035 56.74C1035.24 57.1 1035.6 57.28 1036.08 57.28C1036.31 57.28 1036.62 57.2267 1037.02 57.12C1037.67 56.88 1038.27 56.46 1038.8 55.86C1039.32 55.14 1039.61 54.5067 1039.68 53.96C1039.68 53.92 1039.71 53.7667 1039.76 53.5C1039.81 53.22 1039.83 53.0267 1039.82 52.92C1039.55 52.9867 1039.17 53.04 1038.66 53.08C1038.17 53.1067 1037.79 53.1467 1037.52 53.2C1037.17 53.2533 1036.82 53.42 1036.46 53.7C1036.1 53.9667 1035.83 54.22 1035.64 54.46C1035.45 54.7 1035.2 55.04 1034.88 55.48C1034.65 55.76 1034.69 56.18 1035 56.74Z" fill="#3A3A3A"/>
</g>
<defs>
<clipPath id="clip0_119_815">
<rect width="1208" height="259" fill="white"/>
</clipPath>
</defs>
</svg>
