<svg width="1429" height="351" viewBox="0 0 1429 351" fill="none" xmlns="http://www.w3.org/2000/svg">
<rect width="1429" height="350" fill="white"/>
<rect x="453.249" y="314.665" width="25.7725" height="25.7725" rx="5.03368" fill="#0037AC"/>
<path d="M463.232 321.398C463.061 320.981 462.471 320.981 462.3 321.398L462.032 322.052C461.982 322.174 461.981 322.311 462.031 322.433L465.627 331.257C465.762 331.588 465.518 331.95 465.161 331.95H461.582H460.374C460.016 331.95 459.772 331.587 459.908 331.255L460.529 329.744C460.579 329.622 460.579 329.485 460.529 329.363L460.247 328.67C460.077 328.253 459.486 328.252 459.315 328.669L457.625 332.786C457.489 333.117 457.733 333.481 458.091 333.481H467.441C467.799 333.481 468.043 333.117 467.907 332.786L463.232 321.398Z" fill="white"/>
<path d="M466.642 323.845C466.507 323.514 466.751 323.152 467.108 323.152H470.687H471.895C472.253 323.152 472.497 323.515 472.361 323.847L471.74 325.358C471.69 325.48 471.69 325.617 471.74 325.739L472.022 326.432C472.192 326.849 472.783 326.85 472.954 326.433L474.644 322.316C474.78 321.985 474.537 321.622 474.179 321.622H464.828C464.47 321.622 464.226 321.985 464.362 322.316L469.038 333.704C469.208 334.121 469.798 334.121 469.969 333.704L470.238 333.05C470.288 332.928 470.288 332.791 470.238 332.669L466.642 323.845Z" fill="white"/>
<path d="M494.915 329.027H491.268L490.557 331.483H488.811L492.059 321.273H494.19L497.446 331.483H495.626L494.915 329.027ZM491.623 327.703H494.553L493.095 322.605L491.623 327.703ZM500.533 323.67V329.131C500.533 329.594 500.624 329.925 500.807 330.122C500.994 330.319 501.275 330.418 501.65 330.418C502.005 330.418 502.348 330.312 502.679 330.1C503.009 329.888 503.271 329.629 503.463 329.323V323.67H505.12V331.483H503.692L503.589 330.485C503.298 330.874 502.93 331.173 502.486 331.38C502.042 331.582 501.589 331.683 501.125 331.683C500.37 331.683 499.805 331.476 499.431 331.062C499.061 330.642 498.876 330.068 498.876 329.338V323.67H500.533ZM514.274 331.069C513.988 331.252 513.646 331.4 513.246 331.513C512.846 331.626 512.43 331.683 511.996 331.683C511.088 331.683 510.397 331.449 509.924 330.98C509.455 330.507 509.221 329.885 509.221 329.116V324.876H507.482V323.67H509.221V321.924L510.878 321.724V323.67H513.512L513.327 324.876H510.878V329.101C510.878 329.52 510.982 329.833 511.189 330.041C511.401 330.243 511.747 330.344 512.225 330.344C512.511 330.344 512.775 330.309 513.017 330.24C513.258 330.171 513.478 330.083 513.675 329.974L514.274 331.069ZM519.751 323.463C520.516 323.463 521.16 323.633 521.683 323.973C522.205 324.314 522.6 324.79 522.866 325.401C523.138 326.013 523.273 326.733 523.273 327.562C523.273 328.386 523.135 329.108 522.859 329.73C522.588 330.346 522.188 330.827 521.66 331.173C521.137 331.513 520.499 331.683 519.744 331.683C518.989 331.683 518.348 331.518 517.82 331.187C517.297 330.852 516.898 330.376 516.622 329.759C516.35 329.143 516.215 328.415 516.215 327.577C516.215 326.763 516.35 326.048 516.622 325.431C516.898 324.814 517.3 324.334 517.828 323.988C518.355 323.638 518.997 323.463 519.751 323.463ZM519.751 324.75C519.155 324.75 518.706 324.98 518.405 325.438C518.104 325.892 517.953 326.605 517.953 327.577C517.953 328.544 518.101 329.256 518.397 329.715C518.698 330.174 519.147 330.403 519.744 330.403C520.341 330.403 520.787 330.174 521.083 329.715C521.384 329.256 521.535 328.539 521.535 327.562C521.535 326.6 521.387 325.892 521.091 325.438C520.795 324.98 520.348 324.75 519.751 324.75ZM525.569 331.483V330.3H526.715V324.847H525.569V323.67H527.981L528.284 325.483C528.575 324.827 528.935 324.329 529.364 323.988C529.798 323.643 530.356 323.47 531.036 323.47C531.268 323.47 531.475 323.49 531.658 323.529C531.845 323.564 532.03 323.611 532.213 323.67L531.717 325.091C531.559 325.046 531.411 325.014 531.273 324.994C531.135 324.97 530.982 324.957 530.814 324.957C530.247 324.957 529.756 325.17 529.342 325.594C528.933 326.018 528.61 326.62 528.373 327.399V330.3H529.949V331.483H525.569ZM530.748 326.548V324.625L530.955 323.67H532.213L531.932 326.548H530.748ZM536.151 330.344C536.151 329.984 536.279 329.676 536.536 329.419C536.792 329.158 537.108 329.027 537.483 329.027C537.862 329.027 538.178 329.158 538.43 329.419C538.686 329.676 538.814 329.984 538.814 330.344C538.814 330.714 538.686 331.03 538.43 331.291C538.178 331.552 537.862 331.683 537.483 331.683C537.108 331.683 536.792 331.552 536.536 331.291C536.279 331.03 536.151 330.714 536.151 330.344ZM536.151 325.091C536.151 324.849 536.21 324.627 536.328 324.425C536.447 324.223 536.607 324.062 536.809 323.944C537.012 323.825 537.236 323.766 537.483 323.766C537.862 323.766 538.178 323.897 538.43 324.158C538.686 324.415 538.814 324.726 538.814 325.091C538.814 325.456 538.686 325.771 538.43 326.038C538.178 326.299 537.862 326.43 537.483 326.43C537.108 326.43 536.792 326.299 536.536 326.038C536.279 325.771 536.151 325.456 536.151 325.091ZM558.595 321.228V327.791C558.595 328.388 558.504 328.928 558.321 329.412C558.139 329.895 557.87 330.307 557.515 330.647C557.165 330.988 556.733 331.249 556.22 331.432C555.712 331.614 555.13 331.705 554.474 331.705C553.813 331.705 553.241 331.622 552.757 331.454C552.279 331.281 551.818 331.044 551.374 330.743L552.299 329.249C552.649 329.491 552.977 329.661 553.283 329.759C553.589 329.853 553.936 329.9 554.326 329.9C554.854 329.9 555.293 329.732 555.643 329.397C555.998 329.057 556.176 328.531 556.176 327.821V323.004H553.024V321.228H558.595ZM564.109 323.367C564.918 323.367 565.606 323.539 566.173 323.885C566.741 324.23 567.175 324.716 567.476 325.342C567.776 325.964 567.927 326.694 567.927 327.532C567.927 328.405 567.774 329.158 567.468 329.789C567.167 330.415 566.733 330.896 566.166 331.232C565.599 331.567 564.913 331.735 564.109 331.735C563.31 331.735 562.624 331.57 562.052 331.239C561.485 330.909 561.048 330.43 560.742 329.804C560.442 329.177 560.291 328.425 560.291 327.547C560.291 326.714 560.442 325.983 560.742 325.357C561.048 324.731 561.485 324.242 562.052 323.892C562.624 323.542 563.31 323.367 564.109 323.367ZM564.109 325.091C563.631 325.091 563.275 325.288 563.044 325.683C562.817 326.072 562.703 326.694 562.703 327.547C562.703 328.415 562.817 329.044 563.044 329.434C563.275 329.824 563.631 330.018 564.109 330.018C564.587 330.018 564.94 329.824 565.167 329.434C565.399 329.044 565.515 328.41 565.515 327.532C565.515 326.684 565.399 326.065 565.167 325.675C564.94 325.286 564.587 325.091 564.109 325.091ZM572.73 330.063C573.12 330.063 573.433 330.001 573.67 329.878C573.912 329.755 574.033 329.57 574.033 329.323C574.033 329.155 573.986 329.015 573.892 328.901C573.798 328.788 573.618 328.679 573.352 328.576C573.086 328.472 572.691 328.349 572.168 328.206C571.69 328.077 571.265 327.915 570.896 327.717C570.53 327.52 570.244 327.266 570.037 326.955C569.835 326.644 569.734 326.257 569.734 325.794C569.734 325.325 569.865 324.908 570.126 324.543C570.387 324.178 570.772 323.892 571.28 323.685C571.788 323.473 572.41 323.367 573.145 323.367C573.845 323.367 574.454 323.458 574.972 323.64C575.495 323.818 575.947 324.045 576.326 324.321L575.394 325.697C575.069 325.495 574.718 325.335 574.343 325.216C573.969 325.093 573.591 325.031 573.211 325.031C572.832 325.031 572.548 325.083 572.361 325.187C572.178 325.286 572.087 325.436 572.087 325.638C572.087 325.771 572.134 325.887 572.227 325.986C572.326 326.08 572.508 326.178 572.775 326.282C573.041 326.381 573.431 326.504 573.944 326.652C574.452 326.795 574.893 326.96 575.268 327.148C575.648 327.335 575.942 327.587 576.149 327.902C576.356 328.213 576.46 328.625 576.46 329.138C576.46 329.71 576.289 330.191 575.949 330.581C575.609 330.965 575.157 331.254 574.595 331.446C574.033 331.639 573.416 331.735 572.745 331.735C571.986 331.735 571.315 331.626 570.733 331.409C570.151 331.192 569.655 330.906 569.246 330.551L570.422 329.234C570.728 329.471 571.073 329.668 571.458 329.826C571.848 329.984 572.272 330.063 572.73 330.063ZM580.479 328.235C580.533 328.664 580.644 329.012 580.812 329.278C580.984 329.54 581.204 329.732 581.47 329.856C581.737 329.974 582.035 330.033 582.366 330.033C582.726 330.033 583.073 329.974 583.409 329.856C583.744 329.737 584.067 329.579 584.378 329.382L585.318 330.655C584.948 330.97 584.499 331.229 583.971 331.432C583.448 331.634 582.851 331.735 582.181 331.735C581.283 331.735 580.531 331.557 579.924 331.202C579.317 330.842 578.861 330.349 578.555 329.722C578.249 329.096 578.096 328.376 578.096 327.562C578.096 326.788 578.244 326.085 578.54 325.453C578.836 324.817 579.268 324.311 579.835 323.936C580.407 323.557 581.105 323.367 581.929 323.367C582.679 323.367 583.327 323.527 583.875 323.848C584.427 324.168 584.854 324.629 585.155 325.231C585.461 325.833 585.614 326.556 585.614 327.399C585.614 327.532 585.609 327.675 585.599 327.828C585.594 327.981 585.584 328.117 585.569 328.235H580.479ZM581.929 324.935C581.51 324.935 581.172 325.086 580.915 325.387C580.659 325.688 580.503 326.168 580.449 326.829H583.335C583.33 326.257 583.219 325.799 583.002 325.453C582.785 325.108 582.427 324.935 581.929 324.935ZM591.675 323.367C592.361 323.367 592.913 323.537 593.332 323.877C593.752 324.218 594.058 324.699 594.25 325.32C594.447 325.942 594.546 326.679 594.546 327.532C594.546 328.341 594.428 329.064 594.191 329.7C593.954 330.332 593.611 330.83 593.162 331.195C592.713 331.555 592.168 331.735 591.527 331.735C590.763 331.735 590.141 331.461 589.663 330.914V334.517L587.325 334.761V323.626H589.396L589.5 324.506C589.82 324.097 590.171 323.806 590.55 323.633C590.93 323.455 591.305 323.367 591.675 323.367ZM590.95 325.091C590.679 325.091 590.439 325.172 590.232 325.335C590.025 325.498 589.835 325.72 589.663 326.001V329.315C589.825 329.557 589.996 329.735 590.173 329.848C590.356 329.962 590.57 330.018 590.817 330.018C591.231 330.018 591.554 329.831 591.786 329.456C592.018 329.076 592.134 328.445 592.134 327.562C592.134 326.911 592.087 326.408 591.993 326.053C591.9 325.692 591.764 325.443 591.586 325.305C591.409 325.162 591.197 325.091 590.95 325.091ZM598.536 320.274V324.403C598.866 324.052 599.224 323.793 599.608 323.626C599.998 323.453 600.41 323.367 600.844 323.367C601.545 323.367 602.08 323.571 602.45 323.981C602.82 324.39 603.005 324.967 603.005 325.712V331.483H600.667V326.363C600.667 325.89 600.612 325.559 600.504 325.372C600.4 325.184 600.203 325.091 599.912 325.091C599.749 325.091 599.589 325.13 599.431 325.209C599.278 325.283 599.128 325.392 598.98 325.535C598.832 325.678 598.684 325.848 598.536 326.045V331.483H596.198V320.503L598.536 320.274ZM621.313 328.487C621.313 329.123 621.145 329.685 620.81 330.174C620.479 330.662 620.003 331.044 619.382 331.321C618.76 331.597 618.013 331.735 617.14 331.735C616.173 331.735 615.362 331.594 614.706 331.313C614.055 331.027 613.514 330.674 613.085 330.255L614.313 328.894C614.693 329.224 615.113 329.481 615.571 329.663C616.03 329.841 616.533 329.93 617.081 329.93C617.421 329.93 617.719 329.88 617.976 329.782C618.232 329.683 618.432 329.54 618.575 329.352C618.718 329.165 618.79 328.938 618.79 328.672C618.79 328.42 618.733 328.208 618.62 328.035C618.506 327.863 618.314 327.707 618.043 327.569C617.776 327.431 617.404 327.291 616.925 327.148C616.126 326.901 615.483 326.63 614.994 326.334C614.511 326.038 614.158 325.695 613.936 325.305C613.719 324.916 613.611 324.462 613.611 323.944C613.611 323.317 613.783 322.782 614.129 322.338C614.479 321.894 614.947 321.556 615.534 321.325C616.121 321.088 616.767 320.969 617.473 320.969C618.267 320.969 618.967 321.085 619.574 321.317C620.181 321.544 620.706 321.87 621.15 322.294L620.003 323.611C619.658 323.32 619.286 323.105 618.886 322.967C618.487 322.824 618.08 322.753 617.665 322.753C617.359 322.753 617.091 322.792 616.859 322.871C616.627 322.945 616.447 323.056 616.319 323.204C616.19 323.352 616.126 323.537 616.126 323.759C616.126 323.976 616.188 324.158 616.311 324.306C616.435 324.454 616.649 324.595 616.955 324.728C617.261 324.856 617.685 325.007 618.228 325.179C618.874 325.377 619.426 325.614 619.885 325.89C620.349 326.161 620.701 326.504 620.943 326.918C621.19 327.333 621.313 327.855 621.313 328.487ZM629.431 329.219C629.431 329.515 629.471 329.73 629.55 329.863C629.633 329.996 629.767 330.097 629.949 330.166L629.468 331.705C629.005 331.661 628.612 331.56 628.292 331.402C627.976 331.239 627.727 330.995 627.545 330.67C627.244 331.03 626.859 331.298 626.39 331.476C625.922 331.649 625.443 331.735 624.955 331.735C624.146 331.735 623.5 331.506 623.016 331.047C622.538 330.583 622.299 329.989 622.299 329.264C622.299 328.41 622.632 327.752 623.297 327.288C623.968 326.824 624.91 326.593 626.124 326.593H627.182V326.297C627.182 325.887 627.049 325.584 626.782 325.387C626.521 325.189 626.136 325.091 625.628 325.091C625.377 325.091 625.054 325.128 624.659 325.202C624.264 325.271 623.87 325.372 623.475 325.505L622.935 323.951C623.443 323.759 623.971 323.613 624.518 323.515C625.071 323.416 625.564 323.367 625.998 323.367C627.167 323.367 628.03 323.606 628.588 324.084C629.15 324.558 629.431 325.244 629.431 326.141V329.219ZM625.761 330.063C626.013 330.063 626.277 329.989 626.553 329.841C626.829 329.688 627.039 329.473 627.182 329.197V327.924H626.605C625.954 327.924 625.475 328.026 625.169 328.228C624.864 328.425 624.711 328.716 624.711 329.101C624.711 329.402 624.802 329.639 624.984 329.811C625.172 329.979 625.431 330.063 625.761 330.063ZM631.69 331.483V323.626H633.732L633.894 324.536C634.245 324.141 634.615 323.848 635.004 323.655C635.394 323.463 635.838 323.367 636.336 323.367C637.007 323.367 637.535 323.571 637.92 323.981C638.304 324.39 638.497 324.967 638.497 325.712V331.483H636.159V326.385C636.159 326.065 636.136 325.811 636.092 325.623C636.048 325.431 635.969 325.295 635.855 325.216C635.747 325.133 635.596 325.091 635.404 325.091C635.241 325.091 635.081 325.128 634.923 325.202C634.77 325.271 634.62 325.372 634.472 325.505C634.324 325.638 634.176 325.799 634.028 325.986V331.483H631.69ZM647.636 331.025C647.33 331.222 646.96 331.39 646.526 331.528C646.092 331.666 645.604 331.735 645.061 331.735C644.035 331.735 643.273 331.474 642.775 330.951C642.277 330.423 642.028 329.708 642.028 328.805V325.239H640.378V323.626H642.028V321.924L644.366 321.643V323.626H646.896L646.667 325.239H644.366V328.805C644.366 329.195 644.454 329.473 644.632 329.641C644.81 329.809 645.093 329.893 645.483 329.893C645.759 329.893 646.011 329.861 646.238 329.796C646.469 329.727 646.677 329.641 646.859 329.537L647.636 331.025ZM654.238 323.626V329.885H656.235V331.483H649.672V329.885H651.899V325.224H649.746V323.626H654.238ZM652.824 319.512C653.229 319.512 653.559 319.638 653.816 319.889C654.072 320.141 654.201 320.454 654.201 320.829C654.201 321.204 654.072 321.519 653.816 321.776C653.559 322.027 653.229 322.153 652.824 322.153C652.415 322.153 652.079 322.027 651.818 321.776C651.562 321.519 651.433 321.204 651.433 320.829C651.433 320.454 651.562 320.141 651.818 319.889C652.079 319.638 652.415 319.512 652.824 319.512ZM664.923 329.219C664.923 329.515 664.963 329.73 665.042 329.863C665.126 329.996 665.259 330.097 665.441 330.166L664.96 331.705C664.497 331.661 664.104 331.56 663.784 331.402C663.468 331.239 663.219 330.995 663.037 330.67C662.736 331.03 662.351 331.298 661.882 331.476C661.414 331.649 660.935 331.735 660.447 331.735C659.638 331.735 658.992 331.506 658.508 331.047C658.03 330.583 657.791 329.989 657.791 329.264C657.791 328.41 658.124 327.752 658.79 327.288C659.46 326.824 660.403 326.593 661.616 326.593H662.674V326.297C662.674 325.887 662.541 325.584 662.274 325.387C662.013 325.189 661.628 325.091 661.12 325.091C660.869 325.091 660.546 325.128 660.151 325.202C659.756 325.271 659.362 325.372 658.967 325.505L658.427 323.951C658.935 323.759 659.463 323.613 660.01 323.515C660.563 323.416 661.056 323.367 661.49 323.367C662.659 323.367 663.522 323.606 664.08 324.084C664.642 324.558 664.923 325.244 664.923 326.141V329.219ZM661.253 330.063C661.505 330.063 661.769 329.989 662.045 329.841C662.321 329.688 662.531 329.473 662.674 329.197V327.924H662.097C661.446 327.924 660.967 328.026 660.661 328.228C660.356 328.425 660.203 328.716 660.203 329.101C660.203 329.402 660.294 329.639 660.476 329.811C660.664 329.979 660.923 330.063 661.253 330.063ZM674.159 322.368L674.706 324.084C674.43 324.193 674.107 324.272 673.737 324.321C673.367 324.371 672.936 324.395 672.442 324.395C672.936 324.607 673.31 324.871 673.567 325.187C673.828 325.498 673.959 325.907 673.959 326.415C673.959 326.923 673.823 327.377 673.552 327.777C673.281 328.171 672.896 328.482 672.398 328.709C671.9 328.936 671.31 329.049 670.63 329.049C670.462 329.049 670.304 329.042 670.156 329.027C670.008 329.012 669.862 328.99 669.719 328.96C669.636 329.005 669.571 329.069 669.527 329.153C669.483 329.237 669.46 329.323 669.46 329.412C669.46 329.535 669.51 329.646 669.608 329.745C669.712 329.843 669.951 329.893 670.326 329.893H671.614C672.225 329.893 672.753 329.991 673.197 330.189C673.646 330.386 673.994 330.655 674.24 330.995C674.487 331.335 674.61 331.725 674.61 332.164C674.61 332.968 674.257 333.602 673.552 334.066C672.847 334.529 671.799 334.761 670.408 334.761C669.401 334.761 668.622 334.658 668.069 334.45C667.522 334.248 667.14 333.957 666.923 333.577C666.711 333.202 666.604 332.756 666.604 332.238H668.676C668.676 332.465 668.721 332.65 668.809 332.793C668.903 332.941 669.078 333.05 669.335 333.119C669.596 333.188 669.973 333.222 670.467 333.222C670.965 333.222 671.345 333.183 671.606 333.104C671.868 333.025 672.045 332.916 672.139 332.778C672.238 332.645 672.287 332.495 672.287 332.327C672.287 332.095 672.196 331.908 672.013 331.765C671.831 331.622 671.542 331.55 671.147 331.55H669.897C669.049 331.55 668.432 331.395 668.047 331.084C667.663 330.768 667.47 330.401 667.47 329.981C667.47 329.69 667.547 329.414 667.7 329.153C667.857 328.891 668.077 328.672 668.358 328.494C667.855 328.228 667.495 327.915 667.278 327.555C667.061 327.19 666.952 326.753 666.952 326.245C666.952 325.653 667.103 325.145 667.404 324.721C667.704 324.292 668.119 323.961 668.647 323.729C669.179 323.497 669.786 323.382 670.467 323.382C671.054 323.391 671.564 323.352 671.998 323.263C672.432 323.169 672.822 323.044 673.167 322.886C673.513 322.723 673.843 322.55 674.159 322.368ZM670.526 324.898C670.156 324.898 669.862 325.017 669.645 325.253C669.428 325.485 669.32 325.806 669.32 326.215C669.32 326.649 669.431 326.982 669.653 327.214C669.875 327.446 670.166 327.562 670.526 327.562C670.916 327.562 671.212 327.446 671.414 327.214C671.621 326.982 671.725 326.64 671.725 326.186C671.725 325.747 671.623 325.424 671.421 325.216C671.219 325.004 670.921 324.898 670.526 324.898ZM679.458 323.367C680.267 323.367 680.955 323.539 681.522 323.885C682.09 324.23 682.524 324.716 682.825 325.342C683.126 325.964 683.276 326.694 683.276 327.532C683.276 328.405 683.123 329.158 682.817 329.789C682.516 330.415 682.082 330.896 681.515 331.232C680.948 331.567 680.262 331.735 679.458 331.735C678.659 331.735 677.973 331.57 677.401 331.239C676.834 330.909 676.397 330.43 676.092 329.804C675.791 329.177 675.64 328.425 675.64 327.547C675.64 326.714 675.791 325.983 676.092 325.357C676.397 324.731 676.834 324.242 677.401 323.892C677.973 323.542 678.659 323.367 679.458 323.367ZM679.458 325.091C678.98 325.091 678.625 325.288 678.393 325.683C678.166 326.072 678.052 326.694 678.052 327.547C678.052 328.415 678.166 329.044 678.393 329.434C678.625 329.824 678.98 330.018 679.458 330.018C679.937 330.018 680.289 329.824 680.516 329.434C680.748 329.044 680.864 328.41 680.864 327.532C680.864 326.684 680.748 326.065 680.516 325.675C680.289 325.286 679.937 325.091 679.458 325.091ZM698.795 324.573C698.795 324.208 698.726 323.907 698.588 323.67C698.455 323.428 698.25 323.251 697.974 323.137C697.702 323.019 697.36 322.96 696.945 322.96H696.117V326.312H697.071C697.431 326.312 697.739 326.25 697.996 326.127C698.252 326.003 698.45 325.813 698.588 325.557C698.726 325.3 698.795 324.972 698.795 324.573ZM701.296 324.565C701.296 325.359 701.126 326.016 700.785 326.533C700.445 327.051 699.969 327.439 699.357 327.695C698.746 327.947 698.035 328.072 697.226 328.072H696.117V331.483H693.69V321.228H696.916C698.307 321.228 699.384 321.505 700.149 322.057C700.914 322.61 701.296 323.446 701.296 324.565ZM706.077 323.367C706.886 323.367 707.574 323.539 708.142 323.885C708.709 324.23 709.143 324.716 709.444 325.342C709.745 325.964 709.895 326.694 709.895 327.532C709.895 328.405 709.742 329.158 709.436 329.789C709.135 330.415 708.701 330.896 708.134 331.232C707.567 331.567 706.881 331.735 706.077 331.735C705.278 331.735 704.592 331.57 704.02 331.239C703.453 330.909 703.016 330.43 702.711 329.804C702.41 329.177 702.259 328.425 702.259 327.547C702.259 326.714 702.41 325.983 702.711 325.357C703.016 324.731 703.453 324.242 704.02 323.892C704.592 323.542 705.278 323.367 706.077 323.367ZM706.077 325.091C705.599 325.091 705.244 325.288 705.012 325.683C704.785 326.072 704.671 326.694 704.671 327.547C704.671 328.415 704.785 329.044 705.012 329.434C705.244 329.824 705.599 330.018 706.077 330.018C706.556 330.018 706.908 329.824 707.135 329.434C707.367 329.044 707.483 328.41 707.483 327.532C707.483 326.684 707.367 326.065 707.135 325.675C706.908 325.286 706.556 325.091 706.077 325.091ZM711.621 331.483V329.915H712.656V325.179H711.621V323.626H714.44L714.869 325.394C715.15 324.718 715.508 324.215 715.942 323.885C716.381 323.554 716.916 323.389 717.547 323.389C717.814 323.389 718.05 323.411 718.258 323.455C718.465 323.495 718.66 323.552 718.842 323.626L718.132 325.557C717.989 325.517 717.846 325.488 717.703 325.468C717.56 325.448 717.402 325.438 717.229 325.438C716.716 325.438 716.265 325.648 715.875 326.067C715.49 326.487 715.197 327.019 714.995 327.666V329.915H716.548V331.483H711.621ZM716.941 326.911V324.617L717.288 323.626H718.842L718.406 326.911H716.941ZM727.493 331.025C727.187 331.222 726.817 331.39 726.383 331.528C725.949 331.666 725.461 331.735 724.918 331.735C723.892 331.735 723.13 331.474 722.632 330.951C722.134 330.423 721.885 329.708 721.885 328.805V325.239H720.235V323.626H721.885V321.924L724.223 321.643V323.626H726.753L726.524 325.239H724.223V328.805C724.223 329.195 724.312 329.473 724.489 329.641C724.667 329.809 724.95 329.893 725.34 329.893C725.616 329.893 725.868 329.861 726.095 329.796C726.327 329.727 726.534 329.641 726.716 329.537L727.493 331.025ZM734.095 323.626V329.885H736.092V331.483H729.529V329.885H731.757V325.224H729.603V323.626H734.095ZM732.681 319.512C733.086 319.512 733.416 319.638 733.673 319.889C733.929 320.141 734.058 320.454 734.058 320.829C734.058 321.204 733.929 321.519 733.673 321.776C733.416 322.027 733.086 322.153 732.681 322.153C732.272 322.153 731.937 322.027 731.675 321.776C731.419 321.519 731.29 321.204 731.29 320.829C731.29 320.454 731.419 320.141 731.675 319.889C731.937 319.638 732.272 319.512 732.681 319.512ZM742.265 320.503V329.012C742.265 329.328 742.354 329.555 742.531 329.693C742.714 329.826 742.963 329.893 743.278 329.893C743.481 329.893 743.675 329.87 743.863 329.826C744.05 329.777 744.225 329.72 744.388 329.656L744.951 331.217C744.684 331.355 744.364 331.476 743.989 331.58C743.614 331.683 743.177 331.735 742.679 331.735C741.732 331.735 741.036 331.464 740.593 330.921C740.149 330.374 739.927 329.641 739.927 328.724V322.101H737.611V320.503H742.265ZM751.138 320.503V329.012C751.138 329.328 751.227 329.555 751.404 329.693C751.587 329.826 751.836 329.893 752.151 329.893C752.354 329.893 752.548 329.87 752.736 329.826C752.923 329.777 753.098 329.72 753.261 329.656L753.824 331.217C753.557 331.355 753.237 331.476 752.862 331.58C752.487 331.683 752.05 331.735 751.552 331.735C750.605 331.735 749.91 331.464 749.466 330.921C749.022 330.374 748.8 329.641 748.8 328.724V322.101H746.484V320.503H751.138ZM762.526 329.219C762.526 329.515 762.566 329.73 762.645 329.863C762.729 329.996 762.862 330.097 763.044 330.166L762.563 331.705C762.1 331.661 761.708 331.56 761.387 331.402C761.071 331.239 760.822 330.995 760.64 330.67C760.339 331.03 759.954 331.298 759.485 331.476C759.017 331.649 758.538 331.735 758.05 331.735C757.241 331.735 756.595 331.506 756.111 331.047C755.633 330.583 755.394 329.989 755.394 329.264C755.394 328.41 755.727 327.752 756.393 327.288C757.063 326.824 758.006 326.593 759.219 326.593H760.277V326.297C760.277 325.887 760.144 325.584 759.878 325.387C759.616 325.189 759.231 325.091 758.723 325.091C758.472 325.091 758.149 325.128 757.754 325.202C757.359 325.271 756.965 325.372 756.57 325.505L756.03 323.951C756.538 323.759 757.066 323.613 757.613 323.515C758.166 323.416 758.659 323.367 759.093 323.367C760.262 323.367 761.126 323.606 761.683 324.084C762.245 324.558 762.526 325.244 762.526 326.141V329.219ZM758.856 330.063C759.108 330.063 759.372 329.989 759.648 329.841C759.924 329.688 760.134 329.473 760.277 329.197V327.924H759.7C759.049 327.924 758.57 328.026 758.265 328.228C757.959 328.425 757.806 328.716 757.806 329.101C757.806 329.402 757.897 329.639 758.08 329.811C758.267 329.979 758.526 330.063 758.856 330.063ZM764.984 327.762V325.942H771.392V327.762H764.984ZM780.665 321.228L781.242 331.483H779.126L779 327.096C778.99 326.686 778.985 326.321 778.985 326.001C778.99 325.68 778.997 325.379 779.007 325.098C779.017 324.812 779.032 324.526 779.052 324.24C779.076 323.949 779.101 323.633 779.126 323.293L777.971 329.737H776.136L774.893 323.293C774.923 323.618 774.948 323.927 774.967 324.218C774.992 324.504 775.009 324.792 775.019 325.083C775.029 325.374 775.036 325.688 775.041 326.023C775.046 326.353 775.044 326.723 775.034 327.133L774.96 331.483H772.881L773.458 321.228H775.951L777.091 327.858L778.171 321.228H780.665ZM789.145 329.219C789.145 329.515 789.185 329.73 789.264 329.863C789.348 329.996 789.481 330.097 789.663 330.166L789.182 331.705C788.719 331.661 788.327 331.56 788.006 331.402C787.69 331.239 787.441 330.995 787.259 330.67C786.958 331.03 786.573 331.298 786.104 331.476C785.636 331.649 785.157 331.735 784.669 331.735C783.86 331.735 783.214 331.506 782.731 331.047C782.252 330.583 782.013 329.989 782.013 329.264C782.013 328.41 782.346 327.752 783.012 327.288C783.683 326.824 784.625 326.593 785.838 326.593H786.896V326.297C786.896 325.887 786.763 325.584 786.497 325.387C786.235 325.189 785.85 325.091 785.342 325.091C785.091 325.091 784.768 325.128 784.373 325.202C783.978 325.271 783.584 325.372 783.189 325.505L782.649 323.951C783.157 323.759 783.685 323.613 784.233 323.515C784.785 323.416 785.278 323.367 785.712 323.367C786.881 323.367 787.745 323.606 788.302 324.084C788.864 324.558 789.145 325.244 789.145 326.141V329.219ZM785.476 330.063C785.727 330.063 785.991 329.989 786.267 329.841C786.543 329.688 786.753 329.473 786.896 329.197V327.924H786.319C785.668 327.924 785.189 328.026 784.884 328.228C784.578 328.425 784.425 328.716 784.425 329.101C784.425 329.402 784.516 329.639 784.699 329.811C784.886 329.979 785.145 330.063 785.476 330.063ZM791.478 331.483V329.915H792.514V325.179H791.478V323.626H794.297L794.726 325.394C795.007 324.718 795.365 324.215 795.799 323.885C796.238 323.554 796.773 323.389 797.404 323.389C797.671 323.389 797.907 323.411 798.115 323.455C798.322 323.495 798.517 323.552 798.699 323.626L797.989 325.557C797.846 325.517 797.703 325.488 797.56 325.468C797.417 325.448 797.259 325.438 797.086 325.438C796.573 325.438 796.122 325.648 795.732 326.067C795.347 326.487 795.054 327.019 794.852 327.666V329.915H796.405V331.483H791.478ZM796.798 326.911V324.617L797.145 323.626H798.699L798.263 326.911H796.798ZM807.35 331.025C807.044 331.222 806.674 331.39 806.24 331.528C805.806 331.666 805.318 331.735 804.775 331.735C803.749 331.735 802.987 331.474 802.489 330.951C801.991 330.423 801.742 329.708 801.742 328.805V325.239H800.092V323.626H801.742V321.924L804.08 321.643V323.626H806.61L806.381 325.239H804.08V328.805C804.08 329.195 804.169 329.473 804.346 329.641C804.524 329.809 804.807 329.893 805.197 329.893C805.473 329.893 805.725 329.861 805.952 329.796C806.184 329.727 806.391 329.641 806.573 329.537L807.35 331.025ZM813.952 323.626V329.885H815.949V331.483H809.387V329.885H811.614V325.224H809.461V323.626H813.952ZM813.663 319.127L814.573 320.888L811.081 322.272L810.437 321.088L813.663 319.127ZM818.023 331.483V323.626H820.065L820.228 324.536C820.578 324.141 820.948 323.848 821.338 323.655C821.727 323.463 822.171 323.367 822.669 323.367C823.34 323.367 823.868 323.571 824.253 323.981C824.637 324.39 824.83 324.967 824.83 325.712V331.483H822.492V326.385C822.492 326.065 822.47 325.811 822.425 325.623C822.381 325.431 822.302 325.295 822.188 325.216C822.08 325.133 821.929 325.091 821.737 325.091C821.574 325.091 821.414 325.128 821.256 325.202C821.103 325.271 820.953 325.372 820.805 325.505C820.657 325.638 820.509 325.799 820.361 325.986V331.483H818.023ZM828.923 328.235C828.977 328.664 829.088 329.012 829.256 329.278C829.429 329.54 829.648 329.732 829.915 329.856C830.181 329.974 830.479 330.033 830.81 330.033C831.17 330.033 831.518 329.974 831.853 329.856C832.189 329.737 832.512 329.579 832.822 329.382L833.762 330.655C833.392 330.97 832.943 331.229 832.415 331.432C831.893 331.634 831.296 331.735 830.625 331.735C829.727 331.735 828.975 331.557 828.368 331.202C827.761 330.842 827.305 330.349 826.999 329.722C826.694 329.096 826.541 328.376 826.541 327.562C826.541 326.788 826.689 326.085 826.985 325.453C827.281 324.817 827.712 324.311 828.279 323.936C828.852 323.557 829.55 323.367 830.373 323.367C831.123 323.367 831.772 323.527 832.319 323.848C832.872 324.168 833.298 324.629 833.599 325.231C833.905 325.833 834.058 326.556 834.058 327.399C834.058 327.532 834.053 327.675 834.043 327.828C834.038 327.981 834.028 328.117 834.014 328.235H828.923ZM830.373 324.935C829.954 324.935 829.616 325.086 829.36 325.387C829.103 325.688 828.948 326.168 828.894 326.829H831.779C831.774 326.257 831.663 325.799 831.446 325.453C831.229 325.108 830.872 324.935 830.373 324.935ZM838.558 329.715H842.494L842.272 331.483H835.798V329.833L839.698 325.387H836.124V323.626H842.42V325.268L838.558 329.715ZM857.673 318.165V335.923H856.164V318.165H857.673ZM874.442 321.066C875.182 321.066 875.814 321.174 876.337 321.391C876.859 321.603 877.291 321.902 877.631 322.286C877.977 322.666 878.245 323.115 878.438 323.633C878.63 324.151 878.766 324.713 878.845 325.32C878.924 325.927 878.963 326.556 878.963 327.207C878.963 328.45 878.904 329.491 878.786 330.329C878.667 331.163 878.445 331.789 878.12 332.208C877.799 332.633 877.335 332.845 876.729 332.845C876.433 332.845 876.174 332.778 875.952 332.645C875.735 332.512 875.555 332.339 875.412 332.127C875.274 331.92 875.168 331.696 875.094 331.454C875.024 331.207 874.985 330.975 874.975 330.758H874.916C874.817 330.995 874.682 331.222 874.509 331.439C874.336 331.656 874.117 331.834 873.85 331.972C873.584 332.11 873.259 332.179 872.874 332.179C872.321 332.179 871.877 332.031 871.542 331.735C871.207 331.444 870.962 331.042 870.809 330.529C870.657 330.016 870.58 329.436 870.58 328.79C870.58 327.532 870.837 326.573 871.35 325.912C871.863 325.246 872.605 324.913 873.577 324.913C873.942 324.913 874.302 324.957 874.657 325.046C875.017 325.13 875.404 325.283 875.819 325.505V329.9C875.819 330.369 875.856 330.731 875.93 330.988C876.004 331.244 876.105 331.422 876.233 331.52C876.366 331.619 876.517 331.668 876.684 331.668C876.882 331.668 877.035 331.567 877.143 331.365C877.256 331.163 877.338 330.872 877.387 330.492C877.437 330.107 877.466 329.644 877.476 329.101C877.486 328.558 877.491 327.947 877.491 327.266C877.491 326.536 877.449 325.868 877.365 325.261C877.286 324.649 877.136 324.121 876.914 323.677C876.697 323.234 876.386 322.891 875.981 322.649C875.577 322.407 875.052 322.286 874.405 322.286C873.907 322.286 873.382 322.38 872.829 322.568C872.282 322.755 871.705 323.115 871.098 323.648L870.299 322.723C870.97 322.141 871.648 321.719 872.334 321.458C873.024 321.196 873.727 321.066 874.442 321.066ZM873.599 326.038C873.032 326.038 872.644 326.26 872.437 326.704C872.23 327.143 872.127 327.838 872.127 328.79C872.127 329.264 872.156 329.668 872.215 330.004C872.274 330.339 872.378 330.596 872.526 330.773C872.674 330.951 872.874 331.039 873.125 331.039C873.426 331.039 873.661 330.97 873.828 330.832C873.996 330.694 874.122 330.531 874.206 330.344C874.289 330.152 874.354 329.984 874.398 329.841V326.23C874.265 326.161 874.137 326.112 874.013 326.082C873.89 326.053 873.752 326.038 873.599 326.038ZM886.896 321.228V327.791C886.896 328.388 886.805 328.928 886.623 329.412C886.44 329.895 886.171 330.307 885.816 330.647C885.466 330.988 885.034 331.249 884.521 331.432C884.013 331.614 883.431 331.705 882.775 331.705C882.114 331.705 881.542 331.622 881.059 331.454C880.58 331.281 880.119 331.044 879.675 330.743L880.6 329.249C880.95 329.491 881.278 329.661 881.584 329.759C881.89 329.853 882.238 329.9 882.627 329.9C883.155 329.9 883.594 329.732 883.944 329.397C884.299 329.057 884.477 328.531 884.477 327.821V323.004H881.325V321.228H886.896ZM892.41 323.367C893.219 323.367 893.907 323.539 894.475 323.885C895.042 324.23 895.476 324.716 895.777 325.342C896.078 325.964 896.228 326.694 896.228 327.532C896.228 328.405 896.075 329.158 895.77 329.789C895.469 330.415 895.035 330.896 894.467 331.232C893.9 331.567 893.214 331.735 892.41 331.735C891.611 331.735 890.926 331.57 890.353 331.239C889.786 330.909 889.35 330.43 889.044 329.804C888.743 329.177 888.592 328.425 888.592 327.547C888.592 326.714 888.743 325.983 889.044 325.357C889.35 324.731 889.786 324.242 890.353 323.892C890.926 323.542 891.611 323.367 892.41 323.367ZM892.41 325.091C891.932 325.091 891.577 325.288 891.345 325.683C891.118 326.072 891.005 326.694 891.005 327.547C891.005 328.415 891.118 329.044 891.345 329.434C891.577 329.824 891.932 330.018 892.41 330.018C892.889 330.018 893.242 329.824 893.468 329.434C893.7 329.044 893.816 328.41 893.816 327.532C893.816 326.684 893.7 326.065 893.468 325.675C893.242 325.286 892.889 325.091 892.41 325.091ZM899.907 328.235C899.961 328.664 900.072 329.012 900.24 329.278C900.413 329.54 900.632 329.732 900.899 329.856C901.165 329.974 901.463 330.033 901.794 330.033C902.154 330.033 902.502 329.974 902.837 329.856C903.173 329.737 903.496 329.579 903.806 329.382L904.746 330.655C904.376 330.97 903.927 331.229 903.4 331.432C902.877 331.634 902.28 331.735 901.609 331.735C900.711 331.735 899.959 331.557 899.352 331.202C898.746 330.842 898.289 330.349 897.983 329.722C897.678 329.096 897.525 328.376 897.525 327.562C897.525 326.788 897.673 326.085 897.969 325.453C898.265 324.817 898.696 324.311 899.263 323.936C899.836 323.557 900.534 323.367 901.357 323.367C902.107 323.367 902.756 323.527 903.303 323.848C903.856 324.168 904.282 324.629 904.583 325.231C904.889 325.833 905.042 326.556 905.042 327.399C905.042 327.532 905.037 327.675 905.027 327.828C905.022 327.981 905.012 328.117 904.998 328.235H899.907ZM901.357 324.935C900.938 324.935 900.6 325.086 900.344 325.387C900.087 325.688 899.932 326.168 899.878 326.829H902.763C902.758 326.257 902.647 325.799 902.43 325.453C902.213 325.108 901.856 324.935 901.357 324.935ZM911.747 324.573C911.747 324.208 911.678 323.907 911.54 323.67C911.407 323.428 911.202 323.251 910.926 323.137C910.655 323.019 910.312 322.96 909.897 322.96H909.069V326.312H910.023C910.383 326.312 910.692 326.25 910.948 326.127C911.205 326.003 911.402 325.813 911.54 325.557C911.678 325.3 911.747 324.972 911.747 324.573ZM914.248 324.565C914.248 325.359 914.078 326.016 913.738 326.533C913.397 327.051 912.921 327.439 912.31 327.695C911.698 327.947 910.988 328.072 910.179 328.072H909.069V331.483H906.642V321.228H909.868C911.259 321.228 912.337 321.505 913.101 322.057C913.866 322.61 914.248 323.446 914.248 324.565ZM919.029 323.367C919.838 323.367 920.526 323.539 921.094 323.885C921.661 324.23 922.095 324.716 922.396 325.342C922.697 325.964 922.847 326.694 922.847 327.532C922.847 328.405 922.694 329.158 922.389 329.789C922.088 330.415 921.654 330.896 921.086 331.232C920.519 331.567 919.833 331.735 919.029 331.735C918.23 331.735 917.545 331.57 916.973 331.239C916.405 330.909 915.969 330.43 915.663 329.804C915.362 329.177 915.212 328.425 915.212 327.547C915.212 326.714 915.362 325.983 915.663 325.357C915.969 324.731 916.405 324.242 916.973 323.892C917.545 323.542 918.23 323.367 919.029 323.367ZM919.029 325.091C918.551 325.091 918.196 325.288 917.964 325.683C917.737 326.072 917.624 326.694 917.624 327.547C917.624 328.415 917.737 329.044 917.964 329.434C918.196 329.824 918.551 330.018 919.029 330.018C919.508 330.018 919.861 329.824 920.087 329.434C920.319 329.044 920.435 328.41 920.435 327.532C920.435 326.684 920.319 326.065 920.087 325.675C919.861 325.286 919.508 325.091 919.029 325.091ZM924.573 331.483V329.915H925.609V325.179H924.573V323.626H927.392L927.821 325.394C928.102 324.718 928.46 324.215 928.894 323.885C929.333 323.554 929.868 323.389 930.499 323.389C930.766 323.389 931.003 323.411 931.21 323.455C931.417 323.495 931.612 323.552 931.794 323.626L931.084 325.557C930.941 325.517 930.798 325.488 930.655 325.468C930.512 325.448 930.354 325.438 930.181 325.438C929.668 325.438 929.217 325.648 928.827 326.067C928.443 326.487 928.149 327.019 927.947 327.666V329.915H929.501V331.483H924.573ZM929.893 326.911V324.617L930.24 323.626H931.794L931.358 326.911H929.893ZM940.445 331.025C940.139 331.222 939.77 331.39 939.335 331.528C938.901 331.666 938.413 331.735 937.87 331.735C936.844 331.735 936.082 331.474 935.584 330.951C935.086 330.423 934.837 329.708 934.837 328.805V325.239H933.187V323.626H934.837V321.924L937.175 321.643V323.626H939.705L939.476 325.239H937.175V328.805C937.175 329.195 937.264 329.473 937.441 329.641C937.619 329.809 937.903 329.893 938.292 329.893C938.568 329.893 938.82 329.861 939.047 329.796C939.279 329.727 939.486 329.641 939.668 329.537L940.445 331.025ZM947.047 323.626V329.885H949.045V331.483H942.482V329.885H944.709V325.224H942.556V323.626H947.047ZM945.634 319.512C946.038 319.512 946.369 319.638 946.625 319.889C946.882 320.141 947.01 320.454 947.01 320.829C947.01 321.204 946.882 321.519 946.625 321.776C946.369 322.027 946.038 322.153 945.634 322.153C945.224 322.153 944.889 322.027 944.627 321.776C944.371 321.519 944.243 321.204 944.243 320.829C944.243 320.454 944.371 320.141 944.627 319.889C944.889 319.638 945.224 319.512 945.634 319.512ZM955.217 320.503V329.012C955.217 329.328 955.306 329.555 955.483 329.693C955.666 329.826 955.915 329.893 956.231 329.893C956.433 329.893 956.628 329.87 956.815 329.826C957.003 329.777 957.178 329.72 957.34 329.656L957.903 331.217C957.636 331.355 957.316 331.476 956.941 331.58C956.566 331.683 956.13 331.735 955.631 331.735C954.684 331.735 953.989 331.464 953.545 330.921C953.101 330.374 952.879 329.641 952.879 328.724V322.101H950.563V320.503H955.217ZM964.09 320.503V329.012C964.09 329.328 964.179 329.555 964.356 329.693C964.539 329.826 964.788 329.893 965.104 329.893C965.306 329.893 965.501 329.87 965.688 329.826C965.876 329.777 966.051 329.72 966.213 329.656L966.776 331.217C966.509 331.355 966.189 331.476 965.814 331.58C965.439 331.683 965.002 331.735 964.504 331.735C963.557 331.735 962.862 331.464 962.418 330.921C961.974 330.374 961.752 329.641 961.752 328.724V322.101H959.436V320.503H964.09ZM975.479 329.219C975.479 329.515 975.518 329.73 975.597 329.863C975.681 329.996 975.814 330.097 975.997 330.166L975.516 331.705C975.052 331.661 974.66 331.56 974.339 331.402C974.023 331.239 973.774 330.995 973.592 330.67C973.291 331.03 972.906 331.298 972.438 331.476C971.969 331.649 971.491 331.735 971.002 331.735C970.193 331.735 969.547 331.506 969.064 331.047C968.585 330.583 968.346 329.989 968.346 329.264C968.346 328.41 968.679 327.752 969.345 327.288C970.016 326.824 970.958 326.593 972.171 326.593H973.229V326.297C973.229 325.887 973.096 325.584 972.83 325.387C972.568 325.189 972.184 325.091 971.676 325.091C971.424 325.091 971.101 325.128 970.706 325.202C970.312 325.271 969.917 325.372 969.522 325.505L968.982 323.951C969.49 323.759 970.018 323.613 970.566 323.515C971.118 323.416 971.611 323.367 972.045 323.367C973.215 323.367 974.078 323.606 974.635 324.084C975.197 324.558 975.479 325.244 975.479 326.141V329.219ZM971.809 330.063C972.06 330.063 972.324 329.989 972.6 329.841C972.877 329.688 973.086 329.473 973.229 329.197V327.924H972.652C972.001 327.924 971.523 328.026 971.217 328.228C970.911 328.425 970.758 328.716 970.758 329.101C970.758 329.402 970.849 329.639 971.032 329.811C971.219 329.979 971.478 330.063 971.809 330.063Z" fill="black"/>
<rect x="374" y="77" width="60.2766" height="60.2766" rx="1.56199" fill="#0037AC"/>
<path d="M398.306 121.029H393.137V106.875C393.137 106.485 393.143 106.006 393.154 105.437C393.165 104.857 393.182 104.266 393.204 103.663C393.226 103.05 393.248 102.498 393.271 102.007C393.148 102.152 392.897 102.403 392.518 102.76C392.15 103.106 391.804 103.418 391.481 103.697L388.67 105.955L386.177 102.844L394.057 96.57H398.306V121.029ZM422.096 108.799C422.096 110.773 421.94 112.536 421.628 114.086C421.327 115.636 420.836 116.952 420.155 118.034C419.486 119.116 418.605 119.941 417.512 120.51C416.419 121.079 415.092 121.363 413.53 121.363C411.568 121.363 409.956 120.867 408.696 119.874C407.435 118.871 406.504 117.432 405.902 115.558C405.299 113.673 404.998 111.42 404.998 108.799C404.998 106.156 405.272 103.898 405.818 102.024C406.376 100.139 407.279 98.6946 408.528 97.6908C409.777 96.6871 411.445 96.1852 413.53 96.1852C415.482 96.1852 417.088 96.6871 418.349 97.6908C419.62 98.6835 420.563 100.122 421.176 102.007C421.789 103.881 422.096 106.145 422.096 108.799ZM410.134 108.799C410.134 110.662 410.235 112.218 410.435 113.467C410.647 114.705 410.999 115.636 411.489 116.261C411.98 116.885 412.661 117.198 413.53 117.198C414.389 117.198 415.064 116.891 415.555 116.278C416.057 115.653 416.414 114.722 416.625 113.484C416.837 112.235 416.943 110.673 416.943 108.799C416.943 106.937 416.837 105.381 416.625 104.132C416.414 102.883 416.057 101.946 415.555 101.321C415.064 100.685 414.389 100.368 413.53 100.368C412.661 100.368 411.98 100.685 411.489 101.321C410.999 101.946 410.647 102.883 410.435 104.132C410.235 105.381 410.134 106.937 410.134 108.799Z" fill="white"/>
<rect x="435.838" y="77" width="60.2766" height="60.2766" rx="1.56199" fill="#0037AC"/>
<path d="M464.461 121.029H447.363V117.432L453.503 111.225C454.741 109.954 455.734 108.894 456.481 108.047C457.239 107.188 457.786 106.407 458.121 105.704C458.466 105.002 458.639 104.249 458.639 103.446C458.639 102.476 458.366 101.751 457.819 101.271C457.284 100.78 456.565 100.535 455.661 100.535C454.713 100.535 453.793 100.752 452.901 101.187C452.009 101.622 451.077 102.241 450.107 103.044L447.296 99.7151C447.999 99.1129 448.741 98.5441 449.521 98.0087C450.313 97.4734 451.228 97.044 452.265 96.7205C453.313 96.3859 454.568 96.2186 456.029 96.2186C457.635 96.2186 459.013 96.5086 460.162 97.0886C461.321 97.6685 462.214 98.4604 462.838 99.4642C463.463 100.457 463.775 101.583 463.775 102.844C463.775 104.193 463.507 105.426 462.972 106.541C462.437 107.656 461.656 108.76 460.63 109.853C459.615 110.946 458.388 112.156 456.949 113.484L453.804 116.445V116.679H464.461V121.029ZM483.934 108.799C483.934 110.773 483.778 112.536 483.466 114.086C483.165 115.636 482.674 116.952 481.994 118.034C481.325 119.116 480.444 119.941 479.351 120.51C478.258 121.079 476.93 121.363 475.369 121.363C473.406 121.363 471.794 120.867 470.534 119.874C469.274 118.871 468.342 117.432 467.74 115.558C467.138 113.673 466.837 111.42 466.837 108.799C466.837 106.156 467.11 103.898 467.656 102.024C468.214 100.139 469.118 98.6946 470.367 97.6908C471.616 96.6871 473.283 96.1852 475.369 96.1852C477.321 96.1852 478.927 96.6871 480.187 97.6908C481.458 98.6835 482.401 100.122 483.014 102.007C483.628 103.881 483.934 106.145 483.934 108.799ZM471.973 108.799C471.973 110.662 472.073 112.218 472.274 113.467C472.486 114.705 472.837 115.636 473.328 116.261C473.819 116.885 474.499 117.198 475.369 117.198C476.228 117.198 476.902 116.891 477.393 116.278C477.895 115.653 478.252 114.722 478.464 113.484C478.676 112.235 478.782 110.673 478.782 108.799C478.782 106.937 478.676 105.381 478.464 104.132C478.252 102.883 477.895 101.946 477.393 101.321C476.902 100.685 476.228 100.368 475.369 100.368C474.499 100.368 473.819 100.685 473.328 101.321C472.837 101.946 472.486 102.883 472.274 104.132C472.073 105.381 471.973 106.937 471.973 108.799Z" fill="white"/>
<rect x="497.677" y="77" width="60.2766" height="60.2766" rx="1.56199" fill="#0037AC"/>
<path d="M525.346 102.041C525.346 103.167 525.112 104.143 524.643 104.968C524.175 105.794 523.539 106.468 522.736 106.993C521.944 107.517 521.052 107.902 520.06 108.147V108.247C522.022 108.493 523.511 109.095 524.526 110.054C525.552 111.013 526.065 112.296 526.065 113.902C526.065 115.33 525.714 116.607 525.012 117.733C524.32 118.86 523.249 119.746 521.799 120.393C520.349 121.04 518.481 121.363 516.195 121.363C514.845 121.363 513.585 121.252 512.414 121.029C511.254 120.817 510.161 120.488 509.135 120.042V115.642C510.183 116.177 511.282 116.584 512.431 116.863C513.58 117.131 514.65 117.265 515.643 117.265C517.494 117.265 518.788 116.947 519.524 116.311C520.271 115.664 520.645 114.761 520.645 113.601C520.645 112.92 520.472 112.346 520.126 111.878C519.781 111.409 519.178 111.052 518.32 110.807C517.472 110.562 516.284 110.439 514.756 110.439H512.899V106.474H514.79C516.295 106.474 517.439 106.335 518.219 106.056C519.011 105.766 519.546 105.375 519.825 104.885C520.115 104.383 520.26 103.814 520.26 103.178C520.26 102.308 519.993 101.628 519.457 101.137C518.922 100.646 518.03 100.401 516.78 100.401C516 100.401 515.286 100.501 514.639 100.702C514.003 100.892 513.429 101.126 512.916 101.405C512.403 101.673 511.951 101.935 511.561 102.191L509.168 98.6277C510.128 97.9362 511.249 97.3618 512.531 96.9045C513.825 96.4473 515.364 96.2186 517.149 96.2186C519.669 96.2186 521.666 96.7261 523.138 97.741C524.61 98.756 525.346 100.189 525.346 102.041ZM545.773 108.799C545.773 110.773 545.617 112.536 545.305 114.086C545.004 115.636 544.513 116.952 543.832 118.034C543.163 119.116 542.282 119.941 541.189 120.51C540.096 121.079 538.769 121.363 537.207 121.363C535.245 121.363 533.633 120.867 532.373 119.874C531.112 118.871 530.181 117.432 529.579 115.558C528.976 113.673 528.675 111.42 528.675 108.799C528.675 106.156 528.949 103.898 529.495 102.024C530.053 100.139 530.956 98.6946 532.205 97.6908C533.454 96.6871 535.122 96.1852 537.207 96.1852C539.159 96.1852 540.765 96.6871 542.026 97.6908C543.297 98.6835 544.24 100.122 544.853 102.007C545.466 103.881 545.773 106.145 545.773 108.799ZM533.811 108.799C533.811 110.662 533.912 112.218 534.112 113.467C534.324 114.705 534.676 115.636 535.166 116.261C535.657 116.885 536.338 117.198 537.207 117.198C538.066 117.198 538.741 116.891 539.232 116.278C539.734 115.653 540.091 114.722 540.302 113.484C540.514 112.235 540.62 110.673 540.62 108.799C540.62 106.937 540.514 105.381 540.302 104.132C540.091 102.883 539.734 101.946 539.232 101.321C538.741 100.685 538.066 100.368 537.207 100.368C536.338 100.368 535.657 100.685 535.166 101.321C534.676 101.946 534.324 102.883 534.112 104.132C533.912 105.381 533.811 106.937 533.811 108.799Z" fill="white"/>
<rect x="374" y="138.838" width="60.2766" height="60.2766" rx="1.56199" fill="#0037AC"/>
<path d="M403.175 177.799H400.23V182.868H395.178V177.799H384.739V174.202L395.462 158.409H400.23V173.783H403.175V177.799ZM395.178 173.783V169.634C395.178 169.244 395.184 168.781 395.195 168.246C395.217 167.711 395.239 167.175 395.262 166.64C395.284 166.104 395.306 165.63 395.329 165.218C395.362 164.794 395.384 164.498 395.395 164.331H395.262C395.05 164.788 394.827 165.235 394.592 165.67C394.358 166.093 394.085 166.539 393.773 167.008L389.289 173.783H395.178ZM422.096 170.638C422.096 172.612 421.94 174.375 421.628 175.925C421.327 177.475 420.836 178.791 420.155 179.873C419.486 180.955 418.605 181.78 417.512 182.349C416.419 182.918 415.092 183.202 413.53 183.202C411.568 183.202 409.956 182.706 408.696 181.713C407.435 180.71 406.504 179.271 405.902 177.397C405.299 175.512 404.998 173.259 404.998 170.638C404.998 167.995 405.272 165.736 405.818 163.863C406.376 161.978 407.279 160.533 408.528 159.53C409.777 158.526 411.445 158.024 413.53 158.024C415.482 158.024 417.088 158.526 418.349 159.53C419.62 160.522 420.563 161.961 421.176 163.846C421.789 165.72 422.096 167.984 422.096 170.638ZM410.134 170.638C410.134 172.501 410.235 174.057 410.435 175.306C410.647 176.544 410.999 177.475 411.489 178.1C411.98 178.724 412.661 179.037 413.53 179.037C414.389 179.037 415.064 178.73 415.555 178.116C416.057 177.492 416.414 176.561 416.625 175.323C416.837 174.073 416.943 172.512 416.943 170.638C416.943 168.776 416.837 167.22 416.625 165.971C416.414 164.722 416.057 163.785 415.555 163.16C415.064 162.524 414.389 162.206 413.53 162.206C412.661 162.206 411.98 162.524 411.489 163.16C410.999 163.785 410.647 164.722 410.435 165.971C410.235 167.22 410.134 168.776 410.134 170.638Z" fill="white"/>
<rect x="435.838" y="138.838" width="60.2766" height="60.2766" rx="1.56199" fill="#0037AC"/>
<path d="M456.264 167.242C457.758 167.242 459.085 167.527 460.245 168.095C461.416 168.664 462.336 169.501 463.006 170.605C463.675 171.709 464.009 173.07 464.009 174.687C464.009 176.449 463.641 177.971 462.905 179.254C462.18 180.526 461.093 181.501 459.643 182.182C458.204 182.862 456.408 183.202 454.256 183.202C452.973 183.202 451.763 183.091 450.626 182.868C449.499 182.656 448.512 182.327 447.664 181.881V177.414C448.512 177.86 449.527 178.239 450.709 178.551C451.903 178.853 453.024 179.003 454.072 179.003C455.098 179.003 455.962 178.869 456.665 178.602C457.368 178.323 457.897 177.899 458.254 177.33C458.622 176.75 458.806 176.014 458.806 175.122C458.806 173.928 458.405 173.014 457.602 172.378C456.799 171.742 455.566 171.425 453.905 171.425C453.269 171.425 452.605 171.486 451.914 171.609C451.233 171.731 450.665 171.854 450.207 171.977L448.15 170.872L449.07 158.409H462.336V162.792H453.603L453.152 167.593C453.531 167.515 453.944 167.437 454.39 167.359C454.836 167.281 455.46 167.242 456.264 167.242ZM483.934 170.638C483.934 172.612 483.778 174.375 483.466 175.925C483.165 177.475 482.674 178.791 481.994 179.873C481.325 180.955 480.444 181.78 479.351 182.349C478.258 182.918 476.93 183.202 475.369 183.202C473.406 183.202 471.794 182.706 470.534 181.713C469.274 180.71 468.342 179.271 467.74 177.397C467.138 175.512 466.837 173.259 466.837 170.638C466.837 167.995 467.11 165.736 467.656 163.863C468.214 161.978 469.118 160.533 470.367 159.53C471.616 158.526 473.283 158.024 475.369 158.024C477.321 158.024 478.927 158.526 480.187 159.53C481.458 160.522 482.401 161.961 483.014 163.846C483.628 165.72 483.934 167.984 483.934 170.638ZM471.973 170.638C471.973 172.501 472.073 174.057 472.274 175.306C472.486 176.544 472.837 177.475 473.328 178.1C473.819 178.724 474.499 179.037 475.369 179.037C476.228 179.037 476.902 178.73 477.393 178.116C477.895 177.492 478.252 176.561 478.464 175.323C478.676 174.073 478.782 172.512 478.782 170.638C478.782 168.776 478.676 167.22 478.464 165.971C478.252 164.722 477.895 163.785 477.393 163.16C476.902 162.524 476.228 162.206 475.369 162.206C474.499 162.206 473.819 162.524 473.328 163.16C472.837 163.785 472.486 164.722 472.274 165.971C472.073 167.22 471.973 168.776 471.973 170.638Z" fill="white"/>
<rect x="497.677" y="138.838" width="60.2766" height="60.2766" rx="1.56199" fill="#0037AC"/>
<path d="M509.035 172.479C509.035 171.073 509.135 169.685 509.336 168.313C509.548 166.93 509.91 165.63 510.423 164.415C510.936 163.188 511.656 162.106 512.581 161.169C513.507 160.221 514.684 159.48 516.111 158.944C517.539 158.398 519.268 158.124 521.298 158.124C521.777 158.124 522.335 158.147 522.97 158.191C523.617 158.225 524.153 158.286 524.577 158.375V162.508C524.13 162.407 523.651 162.329 523.138 162.273C522.636 162.206 522.134 162.173 521.632 162.173C519.602 162.173 518.03 162.496 516.914 163.143C515.81 163.79 515.029 164.688 514.572 165.837C514.126 166.974 513.864 168.302 513.786 169.818H514.003C514.316 169.272 514.706 168.787 515.174 168.363C515.654 167.939 516.234 167.605 516.914 167.359C517.595 167.103 518.392 166.974 519.307 166.974C520.734 166.974 521.972 167.281 523.021 167.895C524.069 168.497 524.878 169.372 525.446 170.521C526.015 171.67 526.3 173.07 526.3 174.72C526.3 176.482 525.96 177.999 525.279 179.271C524.599 180.542 523.634 181.518 522.385 182.198C521.147 182.868 519.675 183.202 517.968 183.202C516.719 183.202 515.554 182.99 514.472 182.567C513.39 182.132 512.442 181.474 511.628 180.592C510.814 179.711 510.178 178.602 509.721 177.263C509.263 175.914 509.035 174.319 509.035 172.479ZM517.868 179.07C518.883 179.07 519.708 178.724 520.344 178.033C520.98 177.341 521.298 176.259 521.298 174.787C521.298 173.594 521.019 172.657 520.461 171.977C519.915 171.285 519.084 170.939 517.968 170.939C517.21 170.939 516.541 171.112 515.961 171.458C515.392 171.793 514.951 172.222 514.639 172.746C514.327 173.259 514.171 173.789 514.171 174.336C514.171 174.904 514.249 175.468 514.405 176.025C514.561 176.583 514.795 177.09 515.108 177.548C515.42 178.005 515.805 178.373 516.262 178.652C516.73 178.931 517.266 179.07 517.868 179.07ZM545.773 170.638C545.773 172.612 545.617 174.375 545.305 175.925C545.004 177.475 544.513 178.791 543.832 179.873C543.163 180.955 542.282 181.78 541.189 182.349C540.096 182.918 538.769 183.202 537.207 183.202C535.245 183.202 533.633 182.706 532.373 181.713C531.112 180.71 530.181 179.271 529.579 177.397C528.976 175.512 528.675 173.259 528.675 170.638C528.675 167.995 528.949 165.736 529.495 163.863C530.053 161.978 530.956 160.533 532.205 159.53C533.454 158.526 535.122 158.024 537.207 158.024C539.159 158.024 540.765 158.526 542.026 159.53C543.297 160.522 544.24 161.961 544.853 163.846C545.466 165.72 545.773 167.984 545.773 170.638ZM533.811 170.638C533.811 172.501 533.912 174.057 534.112 175.306C534.324 176.544 534.676 177.475 535.166 178.1C535.657 178.724 536.338 179.037 537.207 179.037C538.066 179.037 538.741 178.73 539.232 178.116C539.734 177.492 540.091 176.561 540.302 175.323C540.514 174.073 540.62 172.512 540.62 170.638C540.62 168.776 540.514 167.22 540.302 165.971C540.091 164.722 539.734 163.785 539.232 163.16C538.741 162.524 538.066 162.206 537.207 162.206C536.338 162.206 535.657 162.524 535.166 163.16C534.676 163.785 534.324 164.722 534.112 165.971C533.912 167.22 533.811 168.776 533.811 170.638Z" fill="white"/>
<rect x="374" y="200.677" width="60.2766" height="60.2766" rx="1.56199" fill="#0037AC"/>
<path d="M387.951 243.925L397.135 223.816H385.073V219.466H402.623V222.712L393.371 243.925H387.951ZM422.096 231.696C422.096 233.67 421.94 235.432 421.628 236.982C421.327 238.533 420.836 239.849 420.155 240.931C419.486 242.013 418.605 242.838 417.512 243.407C416.419 243.975 415.092 244.26 413.53 244.26C411.568 244.26 409.956 243.764 408.696 242.771C407.435 241.767 406.504 240.328 405.902 238.455C405.299 236.57 404.998 234.317 404.998 231.696C404.998 229.053 405.272 226.794 405.818 224.92C406.376 223.035 407.279 221.591 408.528 220.587C409.777 219.584 411.445 219.082 413.53 219.082C415.482 219.082 417.088 219.584 418.349 220.587C419.62 221.58 420.563 223.019 421.176 224.904C421.789 226.777 422.096 229.041 422.096 231.696ZM410.134 231.696C410.134 233.558 410.235 235.114 410.435 236.363C410.647 237.601 410.999 238.533 411.489 239.157C411.98 239.782 412.661 240.094 413.53 240.094C414.389 240.094 415.064 239.787 415.555 239.174C416.057 238.549 416.414 237.618 416.625 236.38C416.837 235.131 416.943 233.57 416.943 231.696C416.943 229.833 416.837 228.277 416.625 227.028C416.414 225.779 416.057 224.842 415.555 224.218C415.064 223.582 414.389 223.264 413.53 223.264C412.661 223.264 411.98 223.582 411.489 224.218C410.999 224.842 410.647 225.779 410.435 227.028C410.235 228.277 410.134 229.833 410.134 231.696Z" fill="white"/>
<rect x="435.838" y="200.677" width="60.2766" height="60.2766" rx="1.56199" fill="#0037AC"/>
<path d="M455.795 219.149C457.2 219.149 458.494 219.366 459.676 219.801C460.87 220.236 461.823 220.894 462.537 221.775C463.251 222.645 463.608 223.738 463.608 225.054C463.608 226.036 463.413 226.894 463.022 227.631C462.643 228.367 462.124 229.014 461.466 229.571C460.808 230.118 460.061 230.597 459.225 231.01C460.095 231.467 460.92 232.003 461.701 232.616C462.481 233.218 463.117 233.926 463.608 234.741C464.11 235.555 464.361 236.503 464.361 237.585C464.361 238.945 463.998 240.128 463.273 241.131C462.548 242.124 461.545 242.894 460.262 243.44C458.979 243.987 457.49 244.26 455.795 244.26C453.966 244.26 452.41 243.998 451.127 243.474C449.845 242.949 448.869 242.202 448.2 241.232C447.531 240.25 447.196 239.079 447.196 237.719C447.196 236.603 447.402 235.633 447.815 234.808C448.239 233.982 448.808 233.274 449.521 232.683C450.235 232.081 451.022 231.568 451.88 231.144C451.155 230.687 450.492 230.168 449.889 229.588C449.298 229.008 448.824 228.344 448.467 227.597C448.122 226.85 447.949 225.991 447.949 225.021C447.949 223.727 448.311 222.645 449.036 221.775C449.772 220.905 450.737 220.253 451.931 219.818C453.124 219.372 454.412 219.149 455.795 219.149ZM451.981 237.417C451.981 238.299 452.293 239.029 452.918 239.609C453.553 240.178 454.49 240.462 455.728 240.462C457.011 240.462 457.97 240.189 458.606 239.642C459.241 239.085 459.559 238.354 459.559 237.451C459.559 236.826 459.375 236.28 459.007 235.811C458.65 235.343 458.199 234.925 457.652 234.557C457.106 234.177 456.553 233.826 455.996 233.503L455.544 233.268C454.83 233.592 454.206 233.954 453.67 234.356C453.146 234.757 452.734 235.209 452.432 235.711C452.131 236.213 451.981 236.782 451.981 237.417ZM455.762 222.929C454.914 222.929 454.211 223.147 453.654 223.582C453.096 224.017 452.817 224.63 452.817 225.422C452.817 225.98 452.951 226.471 453.219 226.894C453.498 227.307 453.86 227.67 454.306 227.982C454.763 228.294 455.26 228.584 455.795 228.852C456.308 228.606 456.788 228.333 457.234 228.032C457.68 227.731 458.042 227.368 458.321 226.945C458.6 226.521 458.74 226.013 458.74 225.422C458.74 224.63 458.455 224.017 457.886 223.582C457.329 223.147 456.62 222.929 455.762 222.929ZM483.934 231.696C483.934 233.67 483.778 235.432 483.466 236.982C483.165 238.533 482.674 239.849 481.994 240.931C481.325 242.013 480.444 242.838 479.351 243.407C478.258 243.975 476.93 244.26 475.369 244.26C473.406 244.26 471.794 243.764 470.534 242.771C469.274 241.767 468.342 240.328 467.74 238.455C467.138 236.57 466.837 234.317 466.837 231.696C466.837 229.053 467.11 226.794 467.656 224.92C468.214 223.035 469.118 221.591 470.367 220.587C471.616 219.584 473.283 219.082 475.369 219.082C477.321 219.082 478.927 219.584 480.187 220.587C481.458 221.58 482.401 223.019 483.014 224.904C483.628 226.777 483.934 229.041 483.934 231.696ZM471.973 231.696C471.973 233.558 472.073 235.114 472.274 236.363C472.486 237.601 472.837 238.533 473.328 239.157C473.819 239.782 474.499 240.094 475.369 240.094C476.228 240.094 476.902 239.787 477.393 239.174C477.895 238.549 478.252 237.618 478.464 236.38C478.676 235.131 478.782 233.57 478.782 231.696C478.782 229.833 478.676 228.277 478.464 227.028C478.252 225.779 477.895 224.842 477.393 224.218C476.902 223.582 476.228 223.264 475.369 223.264C474.499 223.264 473.819 223.582 473.328 224.218C472.837 224.842 472.486 225.779 472.274 227.028C472.073 228.277 471.973 229.833 471.973 231.696Z" fill="white"/>
<rect x="497.677" y="200.677" width="60.2766" height="60.2766" rx="1.56199" fill="#0037AC"/>
<path d="M526.199 229.906C526.199 231.311 526.093 232.705 525.881 234.088C525.681 235.471 525.324 236.776 524.811 238.003C524.298 239.219 523.578 240.301 522.653 241.249C521.727 242.185 520.55 242.922 519.123 243.457C517.695 243.992 515.966 244.26 513.936 244.26C513.457 244.26 512.894 244.238 512.247 244.193C511.6 244.16 511.064 244.104 510.641 244.026V239.877C511.087 239.988 511.561 240.077 512.063 240.144C512.565 240.2 513.072 240.228 513.585 240.228C515.626 240.228 517.199 239.905 518.303 239.258C519.418 238.611 520.199 237.713 520.645 236.564C521.102 235.415 521.364 234.088 521.431 232.583H521.231C520.907 233.118 520.522 233.603 520.076 234.038C519.641 234.462 519.084 234.802 518.403 235.059C517.723 235.304 516.859 235.427 515.81 235.427C514.416 235.427 513.2 235.125 512.163 234.523C511.137 233.91 510.34 233.029 509.771 231.88C509.213 230.72 508.934 229.32 508.934 227.681C508.934 225.907 509.269 224.391 509.938 223.13C510.618 221.859 511.583 220.883 512.832 220.203C514.081 219.522 515.554 219.182 517.249 219.182C518.498 219.182 519.664 219.4 520.745 219.834C521.827 220.258 522.775 220.911 523.589 221.792C524.415 222.673 525.056 223.788 525.513 225.138C525.971 226.487 526.199 228.077 526.199 229.906ZM517.349 223.331C516.346 223.331 515.526 223.677 514.89 224.368C514.254 225.06 513.936 226.142 513.936 227.614C513.936 228.796 514.21 229.733 514.756 230.424C515.303 231.116 516.134 231.462 517.249 231.462C518.018 231.462 518.688 231.294 519.256 230.96C519.825 230.614 520.266 230.185 520.578 229.672C520.902 229.147 521.063 228.612 521.063 228.066C521.063 227.497 520.985 226.933 520.829 226.376C520.673 225.818 520.439 225.311 520.126 224.853C519.814 224.396 519.424 224.028 518.955 223.749C518.498 223.47 517.963 223.331 517.349 223.331ZM545.773 231.696C545.773 233.67 545.617 235.432 545.305 236.982C545.004 238.533 544.513 239.849 543.832 240.931C543.163 242.013 542.282 242.838 541.189 243.407C540.096 243.975 538.769 244.26 537.207 244.26C535.245 244.26 533.633 243.764 532.373 242.771C531.112 241.767 530.181 240.328 529.579 238.455C528.976 236.57 528.675 234.317 528.675 231.696C528.675 229.053 528.949 226.794 529.495 224.92C530.053 223.035 530.956 221.591 532.205 220.587C533.454 219.584 535.122 219.082 537.207 219.082C539.159 219.082 540.765 219.584 542.026 220.587C543.297 221.58 544.24 223.019 544.853 224.904C545.466 226.777 545.773 229.041 545.773 231.696ZM533.811 231.696C533.811 233.558 533.912 235.114 534.112 236.363C534.324 237.601 534.676 238.533 535.166 239.157C535.657 239.782 536.338 240.094 537.207 240.094C538.066 240.094 538.741 239.787 539.232 239.174C539.734 238.549 540.091 237.618 540.302 236.38C540.514 235.131 540.62 233.57 540.62 231.696C540.62 229.833 540.514 228.277 540.302 227.028C540.091 225.779 539.734 224.842 539.232 224.218C538.741 223.582 538.066 223.264 537.207 223.264C536.338 223.264 535.657 223.582 535.166 224.218C534.676 224.842 534.324 225.779 534.112 227.028C533.912 228.277 533.811 229.833 533.811 231.696Z" fill="white"/>
<rect x="777" y="106" width="61.3657" height="61.3657" rx="1.59021" fill="#00194E"/>
<path d="M812.082 151.156H806.819V136.747C806.819 136.349 806.825 135.861 806.836 135.282C806.847 134.691 806.864 134.09 806.887 133.477C806.91 132.852 806.933 132.29 806.955 131.79C806.83 131.938 806.575 132.193 806.189 132.557C805.814 132.909 805.462 133.227 805.133 133.511L802.271 135.81L799.734 132.642L807.756 126.255H812.082V151.156Z" fill="white"/>
<rect x="839.813" y="106" width="61.3657" height="61.3657" rx="1.59021" fill="#00194E"/>
<path d="M879.29 151.156H861.883V147.494L868.134 141.175C869.394 139.881 870.405 138.802 871.165 137.939C871.938 137.065 872.494 136.27 872.835 135.554C873.187 134.839 873.363 134.073 873.363 133.255C873.363 132.267 873.084 131.529 872.528 131.041C871.983 130.541 871.251 130.292 870.331 130.292C869.366 130.292 868.429 130.513 867.521 130.956C866.612 131.399 865.664 132.029 864.676 132.846L861.815 129.457C862.53 128.844 863.285 128.265 864.08 127.72C864.886 127.175 865.817 126.738 866.873 126.408C867.941 126.068 869.218 125.897 870.706 125.897C872.341 125.897 873.743 126.193 874.912 126.783C876.093 127.373 877.002 128.18 877.638 129.202C878.273 130.212 878.591 131.359 878.591 132.642C878.591 134.016 878.319 135.271 877.774 136.406C877.229 137.542 876.434 138.666 875.389 139.778C874.356 140.891 873.107 142.123 871.642 143.474L868.44 146.489V146.727H879.29V151.156Z" fill="white"/>
<rect x="902.627" y="106" width="61.3657" height="61.3657" rx="1.59021" fill="#00194E"/>
<path d="M941.132 131.824C941.132 132.971 940.894 133.965 940.417 134.805C939.94 135.645 939.293 136.332 938.475 136.866C937.669 137.4 936.761 137.791 935.75 138.041V138.143C937.749 138.393 939.264 139.006 940.298 139.983C941.342 140.959 941.865 142.265 941.865 143.9C941.865 145.354 941.507 146.654 940.792 147.8C940.088 148.947 938.998 149.85 937.522 150.509C936.045 151.167 934.144 151.496 931.816 151.496C930.442 151.496 929.159 151.383 927.967 151.156C926.786 150.94 925.673 150.605 924.628 150.151V145.671C925.696 146.216 926.814 146.631 927.984 146.915C929.153 147.187 930.243 147.324 931.254 147.324C933.139 147.324 934.456 147 935.205 146.353C935.966 145.694 936.346 144.774 936.346 143.594C936.346 142.901 936.17 142.316 935.818 141.839C935.466 141.362 934.853 140.999 933.979 140.749C933.116 140.499 931.907 140.375 930.351 140.375H928.461V136.338H930.385C931.918 136.338 933.082 136.196 933.877 135.912C934.683 135.617 935.228 135.219 935.512 134.72C935.807 134.209 935.955 133.63 935.955 132.983C935.955 132.097 935.682 131.404 935.137 130.905C934.592 130.405 933.684 130.155 932.412 130.155C931.617 130.155 930.89 130.257 930.232 130.462C929.585 130.655 929 130.893 928.478 131.177C927.955 131.45 927.495 131.717 927.098 131.978L924.662 128.35C925.639 127.646 926.78 127.061 928.086 126.596C929.403 126.13 930.97 125.897 932.787 125.897C935.353 125.897 937.385 126.414 938.884 127.447C940.383 128.48 941.132 129.94 941.132 131.824Z" fill="white"/>
<rect x="777" y="168.813" width="61.3657" height="61.3657" rx="1.59021" fill="#00194E"/>
<path d="M817.038 208.809H814.041V213.969H808.897V208.809H798.269V205.147L809.186 189.068H814.041V204.721H817.038V208.809ZM808.897 204.721V200.497C808.897 200.1 808.903 199.628 808.914 199.083C808.937 198.538 808.959 197.993 808.982 197.448C809.005 196.903 809.028 196.421 809.05 196C809.084 195.569 809.107 195.268 809.118 195.098H808.982C808.766 195.563 808.539 196.018 808.301 196.46C808.062 196.892 807.784 197.346 807.466 197.823L802.902 204.721H808.897Z" fill="white"/>
<rect x="839.813" y="168.813" width="61.3657" height="61.3657" rx="1.59021" fill="#00194E"/>
<path d="M870.944 198.061C872.466 198.061 873.817 198.351 874.998 198.93C876.19 199.509 877.127 200.361 877.808 201.485C878.489 202.609 878.83 203.994 878.83 205.641C878.83 207.435 878.455 208.985 877.706 210.29C876.968 211.585 875.861 212.578 874.384 213.271C872.92 213.964 871.092 214.31 868.9 214.31C867.594 214.31 866.362 214.196 865.204 213.969C864.057 213.753 863.052 213.419 862.19 212.964V208.417C863.052 208.871 864.086 209.257 865.289 209.575C866.504 209.882 867.645 210.035 868.713 210.035C869.757 210.035 870.637 209.899 871.353 209.626C872.068 209.342 872.607 208.911 872.971 208.332C873.345 207.741 873.533 206.992 873.533 206.083C873.533 204.868 873.124 203.937 872.307 203.29C871.489 202.643 870.234 202.319 868.542 202.319C867.895 202.319 867.22 202.382 866.516 202.507C865.823 202.632 865.244 202.757 864.778 202.881L862.683 201.757L863.62 189.068H877.127V193.531H868.236L867.776 198.419C868.162 198.34 868.582 198.26 869.036 198.181C869.491 198.101 870.126 198.061 870.944 198.061Z" fill="white"/>
<rect x="902.627" y="168.813" width="61.3657" height="61.3657" rx="1.59021" fill="#00194E"/>
<path d="M924.526 203.392C924.526 201.962 924.628 200.548 924.833 199.151C925.048 197.743 925.417 196.421 925.94 195.183C926.462 193.934 927.194 192.833 928.137 191.879C929.079 190.914 930.277 190.158 931.731 189.613C933.184 189.057 934.944 188.779 937.011 188.779C937.499 188.779 938.067 188.802 938.714 188.847C939.372 188.881 939.917 188.944 940.349 189.034V193.241C939.895 193.139 939.406 193.06 938.884 193.003C938.373 192.935 937.862 192.901 937.351 192.901C935.285 192.901 933.684 193.23 932.548 193.889C931.424 194.547 930.629 195.461 930.164 196.631C929.71 197.789 929.443 199.14 929.363 200.684H929.585C929.903 200.128 930.3 199.634 930.777 199.202C931.265 198.771 931.856 198.43 932.548 198.181C933.241 197.919 934.053 197.789 934.984 197.789C936.437 197.789 937.698 198.101 938.765 198.726C939.832 199.339 940.655 200.23 941.235 201.4C941.814 202.569 942.103 203.994 942.103 205.675C942.103 207.469 941.757 209.013 941.064 210.307C940.372 211.602 939.389 212.595 938.118 213.288C936.857 213.969 935.358 214.31 933.621 214.31C932.349 214.31 931.163 214.094 930.062 213.663C928.96 213.22 927.995 212.55 927.166 211.653C926.337 210.756 925.69 209.626 925.224 208.264C924.759 206.89 924.526 205.266 924.526 203.392ZM933.519 210.103C934.552 210.103 935.393 209.751 936.04 209.047C936.687 208.343 937.011 207.242 937.011 205.743C937.011 204.528 936.727 203.574 936.159 202.881C935.603 202.177 934.757 201.825 933.621 201.825C932.849 201.825 932.168 202.001 931.577 202.353C930.998 202.694 930.55 203.131 930.232 203.665C929.914 204.187 929.755 204.727 929.755 205.283C929.755 205.862 929.834 206.435 929.993 207.003C930.152 207.571 930.391 208.088 930.709 208.553C931.027 209.019 931.418 209.393 931.884 209.677C932.361 209.961 932.906 210.103 933.519 210.103Z" fill="white"/>
<rect x="965.44" y="106" width="61.3657" height="61.3657" rx="1.59021" fill="#00194E"/>
<path d="M989.98 151.156L999.33 130.683H987.05V126.255H1004.92V129.559L995.498 151.156H989.98Z" fill="white"/>
<rect x="1028.25" y="106" width="61.3657" height="61.3657" rx="1.59021" fill="#00194E"/>
<path d="M1058.91 125.931C1060.34 125.931 1061.66 126.153 1062.86 126.596C1064.07 127.038 1065.04 127.708 1065.77 128.605C1066.5 129.491 1066.86 130.604 1066.86 131.944C1066.86 132.943 1066.66 133.817 1066.27 134.567C1065.88 135.316 1065.35 135.975 1064.68 136.542C1064.01 137.099 1063.25 137.587 1062.4 138.007C1063.28 138.473 1064.12 139.018 1064.92 139.642C1065.71 140.255 1066.36 140.976 1066.86 141.805C1067.37 142.634 1067.63 143.599 1067.63 144.701C1067.63 146.086 1067.26 147.289 1066.52 148.311C1065.78 149.322 1064.76 150.105 1063.46 150.662C1062.15 151.218 1060.63 151.496 1058.91 151.496C1057.05 151.496 1055.46 151.23 1054.16 150.696C1052.85 150.162 1051.86 149.401 1051.17 148.414C1050.49 147.414 1050.15 146.222 1050.15 144.837C1050.15 143.701 1050.36 142.714 1050.78 141.873C1051.21 141.033 1051.79 140.312 1052.52 139.71C1053.25 139.097 1054.05 138.575 1054.92 138.143C1054.18 137.678 1053.51 137.15 1052.9 136.559C1052.29 135.969 1051.81 135.293 1051.45 134.533C1051.1 133.772 1050.92 132.897 1050.92 131.91C1050.92 130.592 1051.29 129.491 1052.03 128.605C1052.78 127.72 1053.76 127.055 1054.97 126.613C1056.19 126.158 1057.5 125.931 1058.91 125.931ZM1055.02 144.53C1055.02 145.427 1055.34 146.171 1055.98 146.762C1056.63 147.341 1057.58 147.63 1058.84 147.63C1060.15 147.63 1061.12 147.352 1061.77 146.796C1062.42 146.228 1062.74 145.484 1062.74 144.564C1062.74 143.929 1062.55 143.372 1062.18 142.895C1061.81 142.418 1061.35 141.993 1060.8 141.618C1060.24 141.232 1059.68 140.874 1059.11 140.545L1058.65 140.306C1057.93 140.636 1057.29 141.005 1056.74 141.413C1056.21 141.822 1055.79 142.282 1055.48 142.793C1055.18 143.304 1055.02 143.883 1055.02 144.53ZM1058.87 129.781C1058.01 129.781 1057.3 130.002 1056.73 130.445C1056.16 130.888 1055.88 131.512 1055.88 132.318C1055.88 132.886 1056.01 133.386 1056.28 133.817C1056.57 134.237 1056.94 134.606 1057.39 134.924C1057.86 135.242 1058.36 135.537 1058.91 135.81C1059.43 135.56 1059.92 135.282 1060.37 134.975C1060.83 134.669 1061.2 134.3 1061.48 133.868C1061.76 133.437 1061.91 132.92 1061.91 132.318C1061.91 131.512 1061.62 130.888 1061.04 130.445C1060.47 130.002 1059.75 129.781 1058.87 129.781Z" fill="white"/>
<rect x="1091.07" y="106" width="61.3657" height="61.3657" rx="1.59021" fill="#00194E"/>
<path d="M1130.44 136.883C1130.44 138.314 1130.33 139.733 1130.12 141.141C1129.91 142.549 1129.55 143.877 1129.03 145.126C1128.51 146.364 1127.77 147.465 1126.83 148.431C1125.89 149.384 1124.69 150.134 1123.24 150.679C1121.78 151.224 1120.02 151.496 1117.96 151.496C1117.47 151.496 1116.9 151.474 1116.24 151.428C1115.58 151.394 1115.03 151.337 1114.6 151.258V147.034C1115.06 147.148 1115.54 147.238 1116.05 147.307C1116.56 147.363 1117.08 147.392 1117.6 147.392C1119.68 147.392 1121.28 147.062 1122.4 146.404C1123.54 145.745 1124.33 144.831 1124.79 143.662C1125.25 142.492 1125.52 141.141 1125.59 139.608H1125.38C1125.05 140.153 1124.66 140.647 1124.21 141.09C1123.76 141.521 1123.2 141.868 1122.5 142.129C1121.81 142.379 1120.93 142.504 1119.86 142.504C1118.45 142.504 1117.21 142.197 1116.15 141.584C1115.11 140.959 1114.3 140.062 1113.72 138.893C1113.15 137.712 1112.86 136.287 1112.86 134.618C1112.86 132.812 1113.2 131.268 1113.89 129.985C1114.58 128.691 1115.56 127.697 1116.83 127.004C1118.1 126.312 1119.6 125.965 1121.33 125.965C1122.6 125.965 1123.79 126.187 1124.89 126.63C1125.99 127.061 1126.96 127.725 1127.78 128.622C1128.62 129.519 1129.28 130.655 1129.74 132.029C1130.21 133.403 1130.44 135.021 1130.44 136.883ZM1121.43 130.189C1120.41 130.189 1119.57 130.541 1118.93 131.245C1118.28 131.949 1117.96 133.051 1117.96 134.55C1117.96 135.753 1118.24 136.707 1118.79 137.411C1119.35 138.115 1120.19 138.467 1121.33 138.467C1122.11 138.467 1122.79 138.297 1123.37 137.956C1123.95 137.604 1124.4 137.167 1124.72 136.644C1125.05 136.111 1125.21 135.566 1125.21 135.009C1125.21 134.43 1125.13 133.857 1124.97 133.289C1124.82 132.721 1124.58 132.205 1124.26 131.739C1123.94 131.274 1123.54 130.899 1123.07 130.615C1122.6 130.331 1122.06 130.189 1121.43 130.189Z" fill="white"/>
<rect x="965.44" y="168.813" width="61.3657" height="61.3657" rx="1.59021" fill="#00194E"/>
<path d="M990.186 213.969H984.923V199.56C984.923 199.163 984.929 198.674 984.94 198.095C984.951 197.505 984.968 196.903 984.991 196.29C985.014 195.666 985.037 195.103 985.059 194.604C984.934 194.751 984.679 195.007 984.293 195.37C983.918 195.722 983.566 196.04 983.237 196.324L980.375 198.623L977.838 195.455L985.86 189.068H990.186V213.969ZM1014.41 201.519C1014.41 203.529 1014.25 205.323 1013.93 206.901C1013.62 208.479 1013.12 209.819 1012.43 210.921C1011.75 212.022 1010.85 212.862 1009.74 213.441C1008.63 214.02 1007.27 214.31 1005.69 214.31C1003.69 214.31 1002.05 213.805 1000.76 212.794C999.48 211.772 998.532 210.307 997.918 208.4C997.305 206.481 996.999 204.187 996.999 201.519C996.999 198.828 997.277 196.528 997.833 194.621C998.401 192.702 999.321 191.232 1000.59 190.21C1001.86 189.188 1003.56 188.677 1005.69 188.677C1007.67 188.677 1009.31 189.188 1010.59 190.21C1011.88 191.22 1012.84 192.685 1013.47 194.604C1014.09 196.511 1014.41 198.816 1014.41 201.519ZM1002.23 201.519C1002.23 203.415 1002.33 204.999 1002.53 206.271C1002.75 207.531 1003.11 208.479 1003.61 209.115C1004.11 209.751 1004.8 210.069 1005.69 210.069C1006.56 210.069 1007.25 209.757 1007.75 209.132C1008.26 208.496 1008.62 207.548 1008.84 206.288C1009.05 205.016 1009.16 203.426 1009.16 201.519C1009.16 199.623 1009.05 198.039 1008.84 196.767C1008.62 195.495 1008.26 194.541 1007.75 193.906C1007.25 193.258 1006.56 192.935 1005.69 192.935C1004.8 192.935 1004.11 193.258 1003.61 193.906C1003.11 194.541 1002.75 195.495 1002.53 196.767C1002.33 198.039 1002.23 199.623 1002.23 201.519Z" fill="white"/>
<rect x="1028.25" y="168.813" width="61.3657" height="61.3657" rx="1.59021" fill="#00194E"/>
<path d="M1053 213.969H1047.74V199.56C1047.74 199.163 1047.74 198.674 1047.75 198.095C1047.76 197.505 1047.78 196.903 1047.8 196.29C1047.83 195.666 1047.85 195.103 1047.87 194.604C1047.75 194.751 1047.49 195.007 1047.11 195.37C1046.73 195.722 1046.38 196.04 1046.05 196.324L1043.19 198.623L1040.65 195.455L1048.67 189.068H1053V213.969ZM1072.96 213.969H1067.7V199.56C1067.7 199.163 1067.7 198.674 1067.72 198.095C1067.73 197.505 1067.74 196.903 1067.77 196.29C1067.79 195.666 1067.81 195.103 1067.83 194.604C1067.71 194.751 1067.45 195.007 1067.07 195.37C1066.69 195.722 1066.34 196.04 1066.01 196.324L1063.15 198.623L1060.61 195.455L1068.63 189.068H1072.96V213.969Z" fill="white"/>
<rect x="1091.07" y="168.813" width="61.3657" height="61.3657" rx="1.59021" fill="#00194E"/>
<path d="M1115.81 213.969H1110.55V199.56C1110.55 199.163 1110.56 198.674 1110.57 198.095C1110.58 197.505 1110.6 196.903 1110.62 196.29C1110.64 195.666 1110.66 195.103 1110.69 194.604C1110.56 194.751 1110.31 195.007 1109.92 195.37C1109.55 195.722 1109.19 196.04 1108.86 196.324L1106 198.623L1103.46 195.455L1111.49 189.068H1115.81V213.969ZM1140.17 213.969H1122.76V210.307L1129.01 203.988C1130.27 202.694 1131.28 201.615 1132.04 200.752C1132.82 199.878 1133.37 199.083 1133.71 198.368C1134.07 197.653 1134.24 196.886 1134.24 196.069C1134.24 195.081 1133.96 194.343 1133.41 193.854C1132.86 193.355 1132.13 193.105 1131.21 193.105C1130.24 193.105 1129.31 193.326 1128.4 193.769C1127.49 194.212 1126.54 194.842 1125.56 195.66L1122.69 192.27C1123.41 191.657 1124.16 191.078 1124.96 190.533C1125.77 189.988 1126.7 189.551 1127.75 189.222C1128.82 188.881 1130.1 188.711 1131.58 188.711C1133.22 188.711 1134.62 189.006 1135.79 189.596C1136.97 190.187 1137.88 190.993 1138.52 192.015C1139.15 193.026 1139.47 194.172 1139.47 195.455C1139.47 196.829 1139.2 198.084 1138.65 199.22C1138.11 200.355 1137.31 201.479 1136.27 202.592C1135.24 203.705 1133.99 204.937 1132.52 206.288L1129.32 209.302V209.541H1140.17V213.969Z" fill="white"/>
<path d="M387.467 31.5061C386.475 31.5061 385.594 31.7013 384.824 32.0916C384.066 32.4708 383.424 33.0229 382.9 33.7479C382.387 34.4728 381.997 35.3483 381.729 36.3744C381.461 37.4005 381.328 38.5549 381.328 39.8375C381.328 41.5662 381.54 43.044 381.963 44.2709C382.398 45.4866 383.068 46.4178 383.971 47.0647C384.874 47.7005 386.04 48.0183 387.467 48.0183C388.46 48.0183 389.453 47.9068 390.445 47.6837C391.449 47.4607 392.537 47.1428 393.708 46.7301V51.0799C392.626 51.526 391.561 51.8439 390.512 52.0335C389.464 52.2342 388.287 52.3346 386.982 52.3346C384.462 52.3346 382.387 51.816 380.759 50.7787C379.142 49.7303 377.943 48.2693 377.162 46.3955C376.381 44.5107 375.991 42.3135 375.991 39.804C375.991 37.9526 376.242 36.2573 376.744 34.7182C377.246 33.1791 377.982 31.8463 378.952 30.7198C379.922 29.5933 381.121 28.7234 382.549 28.11C383.976 27.4965 385.616 27.1898 387.467 27.1898C388.683 27.1898 389.899 27.346 391.115 27.6583C392.341 27.9594 393.512 28.3776 394.628 28.913L392.955 33.1289C392.04 32.6939 391.12 32.3147 390.194 31.9913C389.269 31.6678 388.36 31.5061 387.467 31.5061ZM415.69 33.2962V52H411.776L411.09 49.6076H410.822C410.421 50.2434 409.919 50.762 409.316 51.1635C408.714 51.565 408.051 51.8606 407.326 52.0502C406.601 52.2398 405.848 52.3346 405.067 52.3346C403.729 52.3346 402.563 52.1004 401.571 51.6319C400.578 51.1524 399.803 50.4107 399.245 49.4069C398.699 48.4031 398.425 47.0982 398.425 45.4921V33.2962H403.528V44.2207C403.528 45.5591 403.768 46.5684 404.247 47.2488C404.727 47.9291 405.491 48.2693 406.539 48.2693C407.577 48.2693 408.391 48.0351 408.982 47.5666C409.573 47.087 409.986 46.39 410.22 45.4754C410.465 44.5497 410.588 43.4232 410.588 42.096V33.2962H415.69ZM428.706 32.9114C431.216 32.9114 433.14 33.4579 434.478 34.5509C435.816 35.6439 436.486 37.3057 436.486 39.5364V52H432.922L431.935 49.4571H431.801C431.266 50.1263 430.719 50.6728 430.162 51.0966C429.604 51.5204 428.963 51.8327 428.238 52.0335C427.513 52.2342 426.632 52.3346 425.594 52.3346C424.49 52.3346 423.498 52.1227 422.617 51.6989C421.747 51.275 421.061 50.6282 420.559 49.7582C420.057 48.8771 419.806 47.7618 419.806 46.4123C419.806 44.427 420.503 42.9659 421.897 42.0291C423.291 41.0811 425.383 40.5569 428.171 40.4565L431.416 40.3561V39.5364C431.416 38.5549 431.16 37.8355 430.647 37.3782C430.134 36.9209 429.42 36.6923 428.505 36.6923C427.602 36.6923 426.715 36.8206 425.845 37.0771C424.975 37.3336 424.106 37.6571 423.236 38.0474L421.546 34.6011C422.539 34.0769 423.648 33.6642 424.875 33.3631C426.113 33.062 427.39 32.9114 428.706 32.9114ZM431.416 43.334L429.442 43.4009C427.792 43.4455 426.643 43.7411 425.996 44.2876C425.36 44.8341 425.042 45.5535 425.042 46.4457C425.042 47.2265 425.271 47.7841 425.728 48.1187C426.186 48.4421 426.782 48.6039 427.518 48.6039C428.611 48.6039 429.532 48.2804 430.279 47.6335C431.037 46.9867 431.416 46.0665 431.416 44.8731V43.334ZM447.678 52.3346C445.592 52.3346 443.891 51.5204 442.575 49.8921C441.27 48.2525 440.618 45.849 440.618 42.6815C440.618 39.4806 441.281 37.0604 442.609 35.4208C443.936 33.7702 445.67 32.9448 447.812 32.9448C448.704 32.9448 449.49 33.0675 450.17 33.3129C450.851 33.5583 451.436 33.8873 451.927 34.3C452.429 34.7126 452.853 35.1755 453.199 35.6885H453.366C453.299 35.3316 453.215 34.8074 453.115 34.1159C453.026 33.4133 452.981 32.6939 452.981 31.9578V25.9685H458.1V52H454.186L453.199 49.5742H452.981C452.658 50.0872 452.25 50.5557 451.76 50.9795C451.28 51.3922 450.706 51.7212 450.037 51.9665C449.367 52.2119 448.581 52.3346 447.678 52.3346ZM449.468 48.2693C450.862 48.2693 451.843 47.8566 452.412 47.0313C452.992 46.1948 453.299 44.9401 453.332 43.2671V42.715C453.332 40.897 453.054 39.5085 452.496 38.5493C451.938 37.579 450.901 37.0938 449.384 37.0938C448.258 37.0938 447.377 37.579 446.741 38.5493C446.105 39.5196 445.787 40.9193 445.787 42.7485C445.787 44.5776 446.105 45.955 446.741 46.8807C447.388 47.8064 448.297 48.2693 449.468 48.2693ZM473.876 32.9448C474.133 32.9448 474.429 32.9616 474.763 32.995C475.109 33.0173 475.388 33.0508 475.6 33.0954L475.215 37.8801C475.048 37.8243 474.808 37.7853 474.495 37.763C474.194 37.7295 473.932 37.7128 473.709 37.7128C473.051 37.7128 472.41 37.7965 471.785 37.9638C471.172 38.1311 470.62 38.4043 470.129 38.7835C469.638 39.1516 469.248 39.6423 468.958 40.2557C468.679 40.858 468.54 41.5997 468.54 42.4808V52H463.437V33.2962H467.302L468.055 36.4414H468.305C468.674 35.8056 469.131 35.2257 469.677 34.7015C470.235 34.1661 470.865 33.7423 471.568 33.43C472.282 33.1066 473.051 32.9448 473.876 32.9448ZM486.658 32.9114C489.167 32.9114 491.091 33.4579 492.43 34.5509C493.768 35.6439 494.437 37.3057 494.437 39.5364V52H490.874L489.887 49.4571H489.753C489.218 50.1263 488.671 50.6728 488.113 51.0966C487.556 51.5204 486.914 51.8327 486.19 52.0335C485.465 52.2342 484.583 52.3346 483.546 52.3346C482.442 52.3346 481.449 52.1227 480.568 51.6989C479.698 51.275 479.012 50.6282 478.511 49.7582C478.009 48.8771 477.758 47.7618 477.758 46.4123C477.758 44.427 478.455 42.9659 479.849 42.0291C481.243 41.0811 483.334 40.5569 486.123 40.4565L489.368 40.3561V39.5364C489.368 38.5549 489.112 37.8355 488.599 37.3782C488.086 36.9209 487.372 36.6923 486.457 36.6923C485.554 36.6923 484.667 36.8206 483.797 37.0771C482.927 37.3336 482.057 37.6571 481.187 38.0474L479.498 34.6011C480.49 34.0769 481.6 33.6642 482.827 33.3631C484.065 33.062 485.342 32.9114 486.658 32.9114ZM489.368 43.334L487.394 43.4009C485.743 43.4455 484.595 43.7411 483.948 44.2876C483.312 44.8341 482.994 45.5535 482.994 46.4457C482.994 47.2265 483.223 47.7841 483.68 48.1187C484.137 48.4421 484.734 48.6039 485.47 48.6039C486.563 48.6039 487.483 48.2804 488.231 47.6335C488.989 46.9867 489.368 46.0665 489.368 44.8731V43.334ZM505.629 52.3346C503.544 52.3346 501.843 51.5204 500.527 49.8921C499.222 48.2525 498.57 45.849 498.57 42.6815C498.57 39.4806 499.233 37.0604 500.56 35.4208C501.888 33.7702 503.622 32.9448 505.763 32.9448C506.656 32.9448 507.442 33.0675 508.122 33.3129C508.803 33.5583 509.388 33.8873 509.879 34.3C510.381 34.7126 510.805 35.1755 511.15 35.6885H511.318C511.251 35.3316 511.167 34.8074 511.067 34.1159C510.977 33.4133 510.933 32.6939 510.933 31.9578V25.9685H516.052V52H512.137L511.15 49.5742H510.933C510.609 50.0872 510.202 50.5557 509.712 50.9795C509.232 51.3922 508.658 51.7212 507.988 51.9665C507.319 52.2119 506.533 52.3346 505.629 52.3346ZM507.42 48.2693C508.814 48.2693 509.795 47.8566 510.364 47.0313C510.944 46.1948 511.251 44.9401 511.284 43.2671V42.715C511.284 40.897 511.005 39.5085 510.448 38.5493C509.89 37.579 508.853 37.0938 507.336 37.0938C506.209 37.0938 505.328 37.579 504.693 38.5493C504.057 39.5196 503.739 40.9193 503.739 42.7485C503.739 44.5776 504.057 45.955 504.693 46.8807C505.339 47.8064 506.248 48.2693 507.42 48.2693ZM529.051 32.9114C531.561 32.9114 533.484 33.4579 534.823 34.5509C536.161 35.6439 536.83 37.3057 536.83 39.5364V52H533.267L532.28 49.4571H532.146C531.611 50.1263 531.064 50.6728 530.507 51.0966C529.949 51.5204 529.308 51.8327 528.583 52.0335C527.858 52.2342 526.977 52.3346 525.939 52.3346C524.835 52.3346 523.843 52.1227 522.961 51.6989C522.092 51.275 521.406 50.6282 520.904 49.7582C520.402 48.8771 520.151 47.7618 520.151 46.4123C520.151 44.427 520.848 42.9659 522.242 42.0291C523.636 41.0811 525.727 40.5569 528.516 40.4565L531.761 40.3561V39.5364C531.761 38.5549 531.505 37.8355 530.992 37.3782C530.479 36.9209 529.765 36.6923 528.85 36.6923C527.947 36.6923 527.06 36.8206 526.19 37.0771C525.32 37.3336 524.45 37.6571 523.58 38.0474L521.891 34.6011C522.883 34.0769 523.993 33.6642 525.22 33.3631C526.458 33.062 527.735 32.9114 529.051 32.9114ZM531.761 43.334L529.787 43.4009C528.137 43.4455 526.988 43.7411 526.341 44.2876C525.705 44.8341 525.387 45.5535 525.387 46.4457C525.387 47.2265 525.616 47.7841 526.073 48.1187C526.53 48.4421 527.127 48.6039 527.863 48.6039C528.956 48.6039 529.876 48.2804 530.624 47.6335C531.382 46.9867 531.761 46.0665 531.761 44.8731V43.334ZM555.149 46.4457C555.149 47.7172 554.848 48.7935 554.246 49.6746C553.655 50.5445 552.768 51.2081 551.586 51.6654C550.404 52.1115 548.932 52.3346 547.169 52.3346C545.864 52.3346 544.744 52.2509 543.807 52.0836C542.881 51.9164 541.944 51.6375 540.996 51.2472V47.0313C542.011 47.4886 543.098 47.8678 544.258 48.1689C545.429 48.4589 546.456 48.6039 547.337 48.6039C548.329 48.6039 549.038 48.4589 549.461 48.1689C549.896 47.8678 550.114 47.4774 550.114 46.9978C550.114 46.6855 550.025 46.4067 549.846 46.1613C549.679 45.9048 549.311 45.6204 548.742 45.3081C548.173 44.9847 547.281 44.5664 546.065 44.0534C544.894 43.5626 543.929 43.0663 543.171 42.5644C542.424 42.0625 541.866 41.4714 541.498 40.7911C541.141 40.0996 540.963 39.2241 540.963 38.1645C540.963 36.4358 541.632 35.1364 542.97 34.2665C544.32 33.3854 546.121 32.9448 548.374 32.9448C549.534 32.9448 550.638 33.062 551.686 33.2962C552.746 33.5304 553.833 33.904 554.949 34.4171L553.41 38.0976C552.484 37.6961 551.608 37.3671 550.783 37.1105C549.969 36.854 549.138 36.7258 548.29 36.7258C547.543 36.7258 546.98 36.8261 546.601 37.0269C546.221 37.2277 546.032 37.5344 546.032 37.947C546.032 38.2482 546.127 38.5158 546.316 38.7501C546.517 38.9843 546.896 39.2464 547.454 39.5364C548.023 39.8152 548.853 40.1777 549.947 40.6238C551.006 41.0588 551.926 41.516 552.707 41.9956C553.488 42.4641 554.09 43.0496 554.514 43.7522C554.938 44.4437 555.149 45.3416 555.149 46.4457Z" fill="black"/>
<path d="M852.205 27.5411C854.425 27.5411 856.254 27.8088 857.692 28.3442C859.142 28.8795 860.219 29.6881 860.921 30.77C861.624 31.8518 861.975 33.2181 861.975 34.8688C861.975 35.9841 861.763 36.96 861.34 37.7965C860.916 38.633 860.358 39.3412 859.667 39.9211C858.975 40.5011 858.228 40.9751 857.425 41.3432L864.619 52H858.864L853.025 42.6146H850.264V52H845.078V27.5411H852.205ZM851.837 31.7905H850.264V38.3987H851.937C853.655 38.3987 854.882 38.1143 855.618 37.5455C856.365 36.9656 856.739 36.1179 856.739 35.0026C856.739 33.8427 856.337 33.0173 855.534 32.5266C854.742 32.0359 853.51 31.7905 851.837 31.7905ZM875.008 32.9448C876.736 32.9448 878.225 33.2794 879.475 33.9486C880.724 34.6067 881.688 35.5658 882.369 36.8261C883.049 38.0864 883.389 39.6256 883.389 41.4435V43.9195H871.327C871.383 45.3583 871.812 46.4903 872.615 47.3157C873.43 48.1299 874.556 48.5369 875.995 48.5369C877.188 48.5369 878.281 48.4143 879.274 48.1689C880.266 47.9235 881.287 47.5555 882.335 47.0647V51.0129C881.41 51.4702 880.439 51.8048 879.424 52.0167C878.421 52.2286 877.199 52.3346 875.761 52.3346C873.887 52.3346 872.225 51.9888 870.775 51.2974C869.336 50.6059 868.204 49.5519 867.379 48.1354C866.565 46.719 866.158 44.9345 866.158 42.7819C866.158 40.5959 866.526 38.7779 867.262 37.328C868.009 35.867 869.046 34.774 870.374 34.049C871.701 33.3129 873.246 32.9448 875.008 32.9448ZM875.041 36.5752C874.049 36.5752 873.223 36.8931 872.565 37.5288C871.918 38.1645 871.545 39.1627 871.444 40.5234H878.605C878.593 39.765 878.454 39.0902 878.186 38.4991C877.93 37.908 877.54 37.4396 877.015 37.0938C876.502 36.7481 875.844 36.5752 875.041 36.5752ZM895.134 52.3346C893.282 52.3346 891.704 52 890.399 51.3308C889.094 50.6505 888.102 49.6021 887.421 48.1856C886.741 46.7692 886.401 44.9568 886.401 42.7485C886.401 40.4621 886.785 38.5995 887.555 37.1607C888.336 35.7108 889.412 34.6457 890.784 33.9654C892.167 33.285 893.767 32.9448 895.585 32.9448C896.879 32.9448 897.994 33.0731 898.931 33.3296C899.879 33.575 900.705 33.8706 901.407 34.2163L899.902 38.1645C899.099 37.8411 898.351 37.579 897.66 37.3782C896.968 37.1663 896.277 37.0604 895.585 37.0604C894.693 37.0604 893.951 37.2723 893.36 37.6961C892.769 38.1088 892.329 38.7333 892.039 39.5698C891.749 40.4063 891.604 41.4547 891.604 42.715C891.604 43.953 891.76 44.9791 892.072 45.7933C892.384 46.6075 892.836 47.2153 893.427 47.6168C894.018 48.0072 894.738 48.2024 895.585 48.2024C896.645 48.2024 897.587 48.0629 898.413 47.7841C899.238 47.4941 900.041 47.0926 900.822 46.5796V50.946C900.041 51.4368 899.221 51.7881 898.362 52C897.515 52.2231 896.439 52.3346 895.134 52.3346ZM913.051 48.2693C913.609 48.2693 914.15 48.2135 914.674 48.102C915.209 47.9904 915.739 47.851 916.263 47.6837V51.4814C915.717 51.7267 915.036 51.9275 914.222 52.0836C913.419 52.2509 912.538 52.3346 911.579 52.3346C910.464 52.3346 909.46 52.1561 908.568 51.7992C907.686 51.4312 906.989 50.801 906.476 49.9088C905.974 49.0054 905.724 47.7507 905.724 46.1446V37.1273H903.281V34.9691L906.092 33.2627L907.564 29.3145H910.826V33.2962H916.062V37.1273H910.826V46.1446C910.826 46.8584 911.027 47.3937 911.428 47.7507C911.841 48.0964 912.382 48.2693 913.051 48.2693ZM927.723 32.9114C930.233 32.9114 932.156 33.4579 933.495 34.5509C934.833 35.6439 935.502 37.3057 935.502 39.5364V52H931.939L930.952 49.4571H930.818C930.283 50.1263 929.736 50.6728 929.179 51.0966C928.621 51.5204 927.98 51.8327 927.255 52.0335C926.53 52.2342 925.649 52.3346 924.611 52.3346C923.507 52.3346 922.515 52.1227 921.633 51.6989C920.764 51.275 920.078 50.6282 919.576 49.7582C919.074 48.8771 918.823 47.7618 918.823 46.4123C918.823 44.427 919.52 42.9659 920.914 42.0291C922.308 41.0811 924.399 40.5569 927.188 40.4565L930.433 40.3561V39.5364C930.433 38.5549 930.177 37.8355 929.664 37.3782C929.151 36.9209 928.437 36.6923 927.522 36.6923C926.619 36.6923 925.732 36.8206 924.862 37.0771C923.992 37.3336 923.122 37.6571 922.252 38.0474L920.563 34.6011C921.555 34.0769 922.665 33.6642 923.892 33.3631C925.13 33.062 926.407 32.9114 927.723 32.9114ZM930.433 43.334L928.459 43.4009C926.809 43.4455 925.66 43.7411 925.013 44.2876C924.377 44.8341 924.059 45.5535 924.059 46.4457C924.059 47.2265 924.288 47.7841 924.745 48.1187C925.202 48.4421 925.799 48.6039 926.535 48.6039C927.628 48.6039 928.548 48.2804 929.296 47.6335C930.054 46.9867 930.433 46.0665 930.433 44.8731V43.334ZM951.396 32.9448C953.392 32.9448 954.998 33.4913 956.214 34.5844C957.43 35.6662 958.037 37.4061 958.037 39.804V52H952.935V41.0755C952.935 39.7371 952.689 38.7278 952.199 38.0474C951.719 37.3671 950.961 37.0269 949.923 37.0269C948.362 37.0269 947.297 37.5567 946.728 38.6162C946.159 39.6758 945.875 41.2038 945.875 43.2002V52H940.772V33.2962H944.67L945.356 35.6885H945.641C946.042 35.0416 946.538 34.5174 947.13 34.1159C947.732 33.7144 948.395 33.4189 949.12 33.2293C949.857 33.0396 950.615 32.9448 951.396 32.9448ZM968.761 60.231C966.151 60.231 964.155 59.7737 962.772 58.8592C961.4 57.9558 960.714 56.6843 960.714 55.0448C960.714 53.9183 961.065 52.9759 961.768 52.2175C962.471 51.4591 963.502 50.9181 964.863 50.5947C964.339 50.3716 963.882 50.0092 963.491 49.5073C963.101 48.9942 962.906 48.4533 962.906 47.8845C962.906 47.1707 963.112 46.5796 963.525 46.1111C963.937 45.6316 964.534 45.1631 965.315 44.7058C964.333 44.282 963.553 43.6017 962.973 42.6648C962.404 41.7279 962.119 40.6238 962.119 39.3523C962.119 37.9916 962.415 36.8373 963.006 35.8893C963.608 34.9301 964.478 34.1996 965.616 33.6977C966.765 33.1958 968.159 32.9448 969.798 32.9448C970.144 32.9448 970.546 32.9672 971.003 33.0118C971.46 33.0564 971.878 33.1066 972.258 33.1623C972.648 33.2181 972.91 33.2627 973.044 33.2962H979.569V35.8893L976.641 36.6421C976.908 37.0548 977.109 37.4953 977.243 37.9638C977.377 38.4322 977.444 38.9285 977.444 39.4527C977.444 41.4603 976.741 43.0273 975.336 44.1538C973.942 45.2691 972.001 45.8267 969.514 45.8267C968.923 45.7933 968.365 45.7487 967.841 45.6929C967.584 45.8937 967.389 46.1056 967.255 46.3286C967.122 46.5517 967.055 46.7859 967.055 47.0313C967.055 47.2766 967.155 47.483 967.356 47.6503C967.568 47.8064 967.88 47.9291 968.293 48.0183C968.717 48.0964 969.241 48.1354 969.865 48.1354H973.044C975.096 48.1354 976.658 48.576 977.728 49.4571C978.81 50.3382 979.351 51.6319 979.351 53.3384C979.351 55.5244 978.436 57.2197 976.607 58.4242C974.789 59.6288 972.174 60.231 968.761 60.231ZM968.979 56.9018C970.194 56.9018 971.237 56.7847 972.107 56.5505C972.988 56.3274 973.663 56.004 974.131 55.5802C974.6 55.1675 974.834 54.6712 974.834 54.0912C974.834 53.6228 974.695 53.2492 974.416 52.9703C974.148 52.7026 973.735 52.513 973.178 52.4015C972.631 52.29 971.929 52.2342 971.07 52.2342H968.427C967.802 52.2342 967.239 52.3346 966.737 52.5354C966.246 52.7361 965.856 53.0149 965.566 53.3718C965.276 53.7399 965.131 54.1637 965.131 54.6433C965.131 55.3459 965.465 55.898 966.135 56.2995C966.815 56.7011 967.763 56.9018 968.979 56.9018ZM969.798 42.715C970.758 42.715 971.46 42.4194 971.906 41.8283C972.352 41.2372 972.575 40.4342 972.575 39.4192C972.575 38.2928 972.341 37.4507 971.873 36.8931C971.416 36.3242 970.724 36.0398 969.798 36.0398C968.861 36.0398 968.159 36.3242 967.69 36.8931C967.222 37.4507 966.988 38.2928 966.988 39.4192C966.988 40.4342 967.216 41.2372 967.674 41.8283C968.142 42.4194 968.85 42.715 969.798 42.715ZM999.828 33.2962V52H995.913L995.228 49.6076H994.96C994.558 50.2434 994.056 50.762 993.454 51.1635C992.852 51.565 992.188 51.8606 991.463 52.0502C990.738 52.2398 989.986 52.3346 989.205 52.3346C987.866 52.3346 986.701 52.1004 985.708 51.6319C984.716 51.1524 983.941 50.4107 983.383 49.4069C982.836 48.4031 982.563 47.0982 982.563 45.4921V33.2962H987.666V44.2207C987.666 45.5591 987.905 46.5684 988.385 47.2488C988.865 47.9291 989.629 48.2693 990.677 48.2693C991.714 48.2693 992.528 48.0351 993.12 47.5666C993.711 47.087 994.123 46.39 994.358 45.4754C994.603 44.5497 994.726 43.4232 994.726 42.096V33.2962H999.828ZM1010.28 52H1005.18V25.9685H1010.28V52ZM1023.32 32.9114C1025.83 32.9114 1027.75 33.4579 1029.09 34.5509C1030.43 35.6439 1031.1 37.3057 1031.1 39.5364V52H1027.53L1026.55 49.4571H1026.41C1025.88 50.1263 1025.33 50.6728 1024.77 51.0966C1024.21 51.5204 1023.57 51.8327 1022.85 52.0335C1022.12 52.2342 1021.24 52.3346 1020.21 52.3346C1019.1 52.3346 1018.11 52.1227 1017.23 51.6989C1016.36 51.275 1015.67 50.6282 1015.17 49.7582C1014.67 48.8771 1014.42 47.7618 1014.42 46.4123C1014.42 44.427 1015.11 42.9659 1016.51 42.0291C1017.9 41.0811 1019.99 40.5569 1022.78 40.4565L1026.03 40.3561V39.5364C1026.03 38.5549 1025.77 37.8355 1025.26 37.3782C1024.74 36.9209 1024.03 36.6923 1023.12 36.6923C1022.21 36.6923 1021.33 36.8206 1020.46 37.0771C1019.59 37.3336 1018.72 37.6571 1017.85 38.0474L1016.16 34.6011C1017.15 34.0769 1018.26 33.6642 1019.49 33.3631C1020.72 33.062 1022 32.9114 1023.32 32.9114ZM1026.03 43.334L1024.05 43.4009C1022.4 43.4455 1021.25 43.7411 1020.61 44.2876C1019.97 44.8341 1019.65 45.5535 1019.65 46.4457C1019.65 47.2265 1019.88 47.7841 1020.34 48.1187C1020.8 48.4421 1021.39 48.6039 1022.13 48.6039C1023.22 48.6039 1024.14 48.2804 1024.89 47.6335C1025.65 46.9867 1026.03 46.0665 1026.03 44.8731V43.334ZM1046.81 32.9448C1047.06 32.9448 1047.36 32.9616 1047.69 32.995C1048.04 33.0173 1048.32 33.0508 1048.53 33.0954L1048.14 37.8801C1047.98 37.8243 1047.74 37.7853 1047.42 37.763C1047.12 37.7295 1046.86 37.7128 1046.64 37.7128C1045.98 37.7128 1045.34 37.7965 1044.71 37.9638C1044.1 38.1311 1043.55 38.4043 1043.06 38.7835C1042.57 39.1516 1042.18 39.6423 1041.89 40.2557C1041.61 40.858 1041.47 41.5997 1041.47 42.4808V52H1036.37V33.2962H1040.23L1040.98 36.4414H1041.23C1041.6 35.8056 1042.06 35.2257 1042.61 34.7015C1043.16 34.1661 1043.79 33.7423 1044.5 33.43C1045.21 33.1066 1045.98 32.9448 1046.81 32.9448ZM1059.64 32.9448C1061.37 32.9448 1062.85 33.2794 1064.1 33.9486C1065.35 34.6067 1066.32 35.5658 1067 36.8261C1067.68 38.0864 1068.02 39.6256 1068.02 41.4435V43.9195H1055.96C1056.01 45.3583 1056.44 46.4903 1057.24 47.3157C1058.06 48.1299 1059.19 48.5369 1060.62 48.5369C1061.82 48.5369 1062.91 48.4143 1063.9 48.1689C1064.9 47.9235 1065.92 47.5555 1066.96 47.0647V51.0129C1066.04 51.4702 1065.07 51.8048 1064.05 52.0167C1063.05 52.2286 1061.83 52.3346 1060.39 52.3346C1058.52 52.3346 1056.85 51.9888 1055.4 51.2974C1053.97 50.6059 1052.83 49.5519 1052.01 48.1354C1051.19 46.719 1050.79 44.9345 1050.79 42.7819C1050.79 40.5959 1051.16 38.7779 1051.89 37.328C1052.64 35.867 1053.68 34.774 1055 34.049C1056.33 33.3129 1057.87 32.9448 1059.64 32.9448ZM1059.67 36.5752C1058.68 36.5752 1057.85 36.8931 1057.19 37.5288C1056.55 38.1645 1056.17 39.1627 1056.07 40.5234H1063.23C1063.22 39.765 1063.08 39.0902 1062.82 38.4991C1062.56 37.908 1062.17 37.4396 1061.64 37.0938C1061.13 36.7481 1060.47 36.5752 1059.67 36.5752ZM1085.22 46.4457C1085.22 47.7172 1084.92 48.7935 1084.31 49.6746C1083.72 50.5445 1082.84 51.2081 1081.65 51.6654C1080.47 52.1115 1079 52.3346 1077.24 52.3346C1075.93 52.3346 1074.81 52.2509 1073.87 52.0836C1072.95 51.9164 1072.01 51.6375 1071.06 51.2472V47.0313C1072.08 47.4886 1073.17 47.8678 1074.33 48.1689C1075.5 48.4589 1076.52 48.6039 1077.4 48.6039C1078.4 48.6039 1079.1 48.4589 1079.53 48.1689C1079.96 47.8678 1080.18 47.4774 1080.18 46.9978C1080.18 46.6855 1080.09 46.4067 1079.91 46.1613C1079.75 45.9048 1079.38 45.6204 1078.81 45.3081C1078.24 44.9847 1077.35 44.5664 1076.13 44.0534C1074.96 43.5626 1074 43.0663 1073.24 42.5644C1072.49 42.0625 1071.93 41.4714 1071.57 40.7911C1071.21 40.0996 1071.03 39.2241 1071.03 38.1645C1071.03 36.4358 1071.7 35.1364 1073.04 34.2665C1074.39 33.3854 1076.19 32.9448 1078.44 32.9448C1079.6 32.9448 1080.71 33.062 1081.75 33.2962C1082.81 33.5304 1083.9 33.904 1085.02 34.4171L1083.48 38.0976C1082.55 37.6961 1081.68 37.3671 1080.85 37.1105C1080.04 36.854 1079.21 36.7258 1078.36 36.7258C1077.61 36.7258 1077.05 36.8261 1076.67 37.0269C1076.29 37.2277 1076.1 37.5344 1076.1 37.947C1076.1 38.2482 1076.19 38.5158 1076.38 38.7501C1076.58 38.9843 1076.96 39.2464 1077.52 39.5364C1078.09 39.8152 1078.92 40.1777 1080.01 40.6238C1081.07 41.0588 1081.99 41.516 1082.77 41.9956C1083.55 42.4641 1084.16 43.0496 1084.58 43.7522C1085 44.4437 1085.22 45.3416 1085.22 46.4457Z" fill="black"/>
</svg>
