<svg width="1400" height="350" viewBox="0 0 1400 350" fill="none" xmlns="http://www.w3.org/2000/svg">
<rect width="1400" height="350" fill="white"/>
<rect x="505.39" y="323.186" width="19.1617" height="19.1617" rx="3.74252" fill="#0037AC"/>
<path d="M512.812 328.192C512.685 327.882 512.247 327.882 512.12 328.192L511.92 328.678C511.883 328.769 511.883 328.871 511.92 328.962L514.593 335.522C514.693 335.768 514.512 336.037 514.247 336.037H511.586H510.687C510.421 336.037 510.24 335.767 510.341 335.521L510.803 334.397C510.84 334.306 510.84 334.205 510.803 334.114L510.593 333.599C510.467 333.288 510.028 333.288 509.9 333.598L508.644 336.659C508.543 336.905 508.724 337.175 508.99 337.175H515.942C516.208 337.175 516.389 336.905 516.288 336.659L512.812 328.192Z" fill="white"/>
<path d="M515.348 330.011C515.247 329.765 515.428 329.496 515.694 329.496H518.355H519.253C519.519 329.496 519.701 329.766 519.599 330.012L519.138 331.136C519.101 331.227 519.101 331.329 519.138 331.419L519.348 331.934C519.474 332.245 519.913 332.245 520.04 331.935L521.297 328.874C521.398 328.628 521.217 328.358 520.951 328.358H513.999C513.732 328.358 513.551 328.628 513.652 328.874L517.128 337.341C517.256 337.651 517.694 337.651 517.821 337.341L518.021 336.855C518.058 336.764 518.058 336.662 518.021 336.571L515.348 330.011Z" fill="white"/>
<path d="M536.368 334.455H533.656L533.128 336.281H531.83L534.245 328.69H535.829L538.25 336.281H536.896L536.368 334.455ZM533.92 333.47H536.099L535.015 329.68L533.92 333.47ZM540.545 330.472V334.532C540.545 334.877 540.613 335.122 540.748 335.269C540.888 335.416 541.097 335.489 541.375 335.489C541.64 335.489 541.894 335.41 542.14 335.253C542.386 335.095 542.58 334.902 542.723 334.675V330.472H543.955V336.281H542.894L542.817 335.539C542.6 335.828 542.327 336.05 541.997 336.204C541.667 336.355 541.33 336.43 540.985 336.43C540.424 336.43 540.004 336.276 539.725 335.968C539.45 335.656 539.313 335.229 539.313 334.686V330.472H540.545ZM550.762 335.973C550.549 336.109 550.294 336.219 549.997 336.303C549.7 336.388 549.39 336.43 549.067 336.43C548.392 336.43 547.879 336.256 547.527 335.907C547.179 335.555 547.004 335.093 547.004 334.521V331.369H545.712V330.472H547.004V329.174L548.237 329.025V330.472H550.195L550.057 331.369H548.237V334.51C548.237 334.822 548.314 335.055 548.468 335.209C548.625 335.359 548.882 335.434 549.238 335.434C549.45 335.434 549.647 335.408 549.826 335.357C550.006 335.306 550.169 335.24 550.316 335.159L550.762 335.973ZM554.834 330.318C555.402 330.318 555.881 330.445 556.269 330.698C556.658 330.951 556.952 331.305 557.15 331.759C557.351 332.214 557.452 332.75 557.452 333.366C557.452 333.978 557.349 334.515 557.144 334.977C556.942 335.436 556.645 335.793 556.253 336.05C555.864 336.303 555.389 336.43 554.828 336.43C554.267 336.43 553.79 336.307 553.398 336.061C553.009 335.812 552.712 335.458 552.507 334.999C552.305 334.541 552.204 334 552.204 333.377C552.204 332.772 552.305 332.24 552.507 331.781C552.712 331.323 553.011 330.965 553.403 330.709C553.796 330.448 554.272 330.318 554.834 330.318ZM554.834 331.275C554.39 331.275 554.056 331.446 553.832 331.787C553.609 332.124 553.497 332.654 553.497 333.377C553.497 334.095 553.607 334.625 553.827 334.966C554.051 335.308 554.384 335.478 554.828 335.478C555.272 335.478 555.604 335.308 555.824 334.966C556.048 334.625 556.159 334.092 556.159 333.366C556.159 332.651 556.049 332.124 555.829 331.787C555.609 331.446 555.277 331.275 554.834 331.275ZM559.159 336.281V335.401H560.011V331.347H559.159V330.472H560.952L561.178 331.82C561.394 331.332 561.662 330.962 561.981 330.709C562.303 330.452 562.718 330.324 563.224 330.324C563.396 330.324 563.55 330.338 563.686 330.368C563.825 330.393 563.963 330.428 564.099 330.472L563.73 331.528C563.613 331.495 563.503 331.471 563.4 331.457C563.297 331.438 563.184 331.429 563.059 331.429C562.637 331.429 562.272 331.587 561.964 331.902C561.66 332.218 561.42 332.665 561.244 333.245V335.401H562.415V336.281H559.159ZM563.009 332.612V331.182L563.163 330.472H564.099L563.89 332.612H563.009ZM567.026 335.434C567.026 335.166 567.122 334.937 567.313 334.746C567.503 334.552 567.738 334.455 568.017 334.455C568.299 334.455 568.534 334.552 568.721 334.746C568.912 334.937 569.007 335.166 569.007 335.434C569.007 335.709 568.912 335.944 568.721 336.138C568.534 336.333 568.299 336.43 568.017 336.43C567.738 336.43 567.503 336.333 567.313 336.138C567.122 335.944 567.026 335.709 567.026 335.434ZM567.026 331.528C567.026 331.349 567.07 331.184 567.158 331.033C567.247 330.883 567.366 330.764 567.516 330.676C567.666 330.588 567.833 330.544 568.017 330.544C568.299 330.544 568.534 330.641 568.721 330.835C568.912 331.026 569.007 331.257 569.007 331.528C569.007 331.8 568.912 332.034 568.721 332.232C568.534 332.427 568.299 332.524 568.017 332.524C567.738 332.524 567.503 332.427 567.313 332.232C567.122 332.034 567.026 331.8 567.026 331.528ZM583.714 328.657V333.536C583.714 333.98 583.646 334.382 583.51 334.741C583.375 335.1 583.175 335.407 582.911 335.66C582.65 335.913 582.329 336.107 581.948 336.243C581.57 336.378 581.137 336.446 580.65 336.446C580.158 336.446 579.733 336.384 579.373 336.259C579.018 336.131 578.675 335.955 578.345 335.731L579.032 334.62C579.293 334.8 579.537 334.926 579.764 334.999C579.991 335.069 580.25 335.104 580.54 335.104C580.932 335.104 581.258 334.979 581.519 334.73C581.783 334.477 581.915 334.086 581.915 333.558V329.977H579.571V328.657H583.714ZM587.813 330.247C588.415 330.247 588.926 330.375 589.348 330.632C589.77 330.888 590.093 331.25 590.316 331.715C590.54 332.177 590.652 332.72 590.652 333.344C590.652 333.993 590.538 334.552 590.311 335.021C590.087 335.487 589.764 335.845 589.343 336.094C588.921 336.344 588.411 336.468 587.813 336.468C587.219 336.468 586.709 336.345 586.284 336.1C585.862 335.854 585.538 335.498 585.31 335.032C585.087 334.567 584.975 334.007 584.975 333.355C584.975 332.735 585.087 332.192 585.31 331.726C585.538 331.261 585.862 330.897 586.284 330.637C586.709 330.377 587.219 330.247 587.813 330.247ZM587.813 331.528C587.458 331.528 587.193 331.675 587.021 331.968C586.852 332.258 586.768 332.72 586.768 333.355C586.768 334 586.852 334.468 587.021 334.757C587.193 335.047 587.458 335.192 587.813 335.192C588.169 335.192 588.431 335.047 588.6 334.757C588.772 334.468 588.858 333.996 588.858 333.344C588.858 332.713 588.772 332.253 588.6 331.963C588.431 331.673 588.169 331.528 587.813 331.528ZM594.223 335.225C594.513 335.225 594.746 335.179 594.922 335.088C595.102 334.996 595.191 334.858 595.191 334.675C595.191 334.55 595.157 334.446 595.087 334.361C595.017 334.277 594.883 334.196 594.685 334.119C594.487 334.042 594.194 333.951 593.805 333.844C593.449 333.749 593.134 333.628 592.859 333.481C592.588 333.334 592.375 333.146 592.221 332.915C592.07 332.684 591.995 332.396 591.995 332.051C591.995 331.702 592.092 331.393 592.287 331.121C592.481 330.85 592.767 330.637 593.145 330.483C593.523 330.325 593.985 330.247 594.531 330.247C595.052 330.247 595.505 330.314 595.89 330.45C596.279 330.582 596.614 330.751 596.897 330.956L596.204 331.979C595.962 331.829 595.701 331.71 595.423 331.622C595.144 331.53 594.863 331.484 594.581 331.484C594.298 331.484 594.088 331.523 593.948 331.6C593.813 331.673 593.745 331.785 593.745 331.935C593.745 332.034 593.78 332.121 593.849 332.194C593.923 332.264 594.058 332.337 594.256 332.414C594.454 332.487 594.744 332.579 595.125 332.689C595.503 332.795 595.831 332.918 596.11 333.058C596.393 333.197 596.611 333.384 596.765 333.619C596.919 333.85 596.996 334.156 596.996 334.537C596.996 334.963 596.869 335.32 596.616 335.61C596.363 335.896 596.028 336.111 595.61 336.254C595.191 336.397 594.733 336.468 594.234 336.468C593.669 336.468 593.171 336.388 592.738 336.226C592.305 336.065 591.937 335.852 591.632 335.588L592.507 334.609C592.734 334.785 592.991 334.932 593.277 335.049C593.567 335.166 593.882 335.225 594.223 335.225ZM599.984 333.866C600.024 334.185 600.107 334.444 600.232 334.642C600.36 334.836 600.523 334.979 600.721 335.071C600.919 335.159 601.141 335.203 601.387 335.203C601.655 335.203 601.913 335.159 602.163 335.071C602.412 334.983 602.652 334.866 602.883 334.719L603.582 335.665C603.307 335.9 602.973 336.092 602.581 336.243C602.192 336.393 601.748 336.468 601.249 336.468C600.582 336.468 600.023 336.336 599.572 336.072C599.12 335.804 598.781 335.438 598.554 334.972C598.326 334.506 598.213 333.971 598.213 333.366C598.213 332.79 598.323 332.267 598.543 331.798C598.763 331.325 599.084 330.949 599.506 330.67C599.931 330.388 600.45 330.247 601.062 330.247C601.62 330.247 602.102 330.366 602.509 330.604C602.92 330.842 603.237 331.185 603.461 331.633C603.688 332.08 603.802 332.618 603.802 333.245C603.802 333.344 603.798 333.45 603.791 333.564C603.787 333.677 603.78 333.778 603.769 333.866H599.984ZM601.062 331.413C600.751 331.413 600.499 331.525 600.309 331.748C600.118 331.972 600.002 332.33 599.962 332.821H602.108C602.104 332.396 602.021 332.055 601.86 331.798C601.699 331.541 601.433 331.413 601.062 331.413ZM608.309 330.247C608.818 330.247 609.229 330.373 609.541 330.626C609.852 330.879 610.08 331.237 610.223 331.699C610.37 332.161 610.443 332.709 610.443 333.344C610.443 333.945 610.355 334.482 610.179 334.955C610.003 335.425 609.748 335.795 609.414 336.067C609.081 336.334 608.675 336.468 608.198 336.468C607.63 336.468 607.168 336.265 606.812 335.858V338.537L605.074 338.718V330.439H606.614L606.691 331.094C606.93 330.789 607.19 330.573 607.472 330.445C607.755 330.313 608.033 330.247 608.309 330.247ZM607.769 331.528C607.568 331.528 607.39 331.589 607.236 331.71C607.082 331.831 606.941 331.996 606.812 332.205V334.669C606.933 334.849 607.06 334.981 607.192 335.066C607.327 335.15 607.487 335.192 607.67 335.192C607.978 335.192 608.219 335.053 608.391 334.774C608.563 334.492 608.65 334.022 608.65 333.366C608.65 332.882 608.615 332.507 608.545 332.243C608.475 331.976 608.375 331.791 608.242 331.688C608.11 331.581 607.953 331.528 607.769 331.528ZM613.409 327.947V331.017C613.655 330.756 613.921 330.564 614.207 330.439C614.497 330.311 614.803 330.247 615.126 330.247C615.646 330.247 616.044 330.399 616.319 330.703C616.594 331.008 616.732 331.437 616.732 331.99V336.281H614.994V332.474C614.994 332.122 614.953 331.877 614.873 331.737C614.796 331.598 614.649 331.528 614.432 331.528C614.311 331.528 614.192 331.558 614.075 331.616C613.961 331.671 613.849 331.752 613.739 331.858C613.629 331.965 613.519 332.091 613.409 332.238V336.281H611.671V328.118L613.409 327.947ZM630.344 334.053C630.344 334.526 630.219 334.944 629.97 335.308C629.724 335.671 629.37 335.955 628.908 336.16C628.446 336.366 627.891 336.468 627.241 336.468C626.523 336.468 625.919 336.364 625.432 336.155C624.947 335.942 624.546 335.68 624.227 335.368L625.14 334.356C625.422 334.602 625.734 334.792 626.075 334.928C626.416 335.06 626.79 335.126 627.197 335.126C627.45 335.126 627.672 335.089 627.863 335.016C628.054 334.943 628.202 334.836 628.309 334.697C628.415 334.558 628.468 334.389 628.468 334.191C628.468 334.004 628.426 333.846 628.342 333.718C628.257 333.589 628.114 333.474 627.913 333.371C627.715 333.268 627.438 333.164 627.082 333.058C626.488 332.874 626.009 332.673 625.646 332.452C625.287 332.232 625.024 331.978 624.859 331.688C624.698 331.398 624.617 331.061 624.617 330.676C624.617 330.21 624.746 329.812 625.002 329.482C625.263 329.152 625.611 328.901 626.048 328.728C626.484 328.552 626.965 328.464 627.489 328.464C628.079 328.464 628.6 328.55 629.051 328.723C629.502 328.891 629.893 329.133 630.223 329.449L629.37 330.428C629.114 330.212 628.837 330.052 628.54 329.949C628.243 329.843 627.94 329.79 627.632 329.79C627.405 329.79 627.205 329.819 627.032 329.878C626.86 329.933 626.726 330.015 626.631 330.126C626.535 330.236 626.488 330.373 626.488 330.538C626.488 330.699 626.534 330.835 626.625 330.945C626.717 331.055 626.877 331.16 627.104 331.259C627.331 331.354 627.647 331.466 628.05 331.594C628.531 331.741 628.941 331.917 629.282 332.122C629.627 332.324 629.889 332.579 630.069 332.887C630.252 333.195 630.344 333.584 630.344 334.053ZM636.38 334.598C636.38 334.818 636.409 334.977 636.468 335.077C636.53 335.176 636.629 335.251 636.765 335.302L636.407 336.446C636.063 336.413 635.771 336.338 635.533 336.221C635.298 336.1 635.113 335.918 634.977 335.676C634.753 335.944 634.467 336.144 634.119 336.276C633.771 336.404 633.415 336.468 633.052 336.468C632.45 336.468 631.97 336.298 631.611 335.957C631.255 335.612 631.077 335.17 631.077 334.631C631.077 333.996 631.324 333.507 631.82 333.162C632.318 332.817 633.019 332.645 633.921 332.645H634.708V332.425C634.708 332.121 634.609 331.895 634.411 331.748C634.216 331.602 633.93 331.528 633.552 331.528C633.365 331.528 633.125 331.556 632.832 331.611C632.538 331.662 632.245 331.737 631.952 331.836L631.55 330.681C631.928 330.538 632.32 330.43 632.727 330.357C633.138 330.283 633.505 330.247 633.827 330.247C634.697 330.247 635.338 330.424 635.753 330.78C636.171 331.132 636.38 331.642 636.38 332.309V334.598ZM633.651 335.225C633.838 335.225 634.035 335.17 634.24 335.06C634.445 334.946 634.601 334.787 634.708 334.581V333.635H634.279C633.794 333.635 633.439 333.71 633.211 333.861C632.984 334.007 632.87 334.224 632.87 334.51C632.87 334.734 632.938 334.91 633.074 335.038C633.213 335.163 633.406 335.225 633.651 335.225ZM638.059 336.281V330.439H639.577L639.698 331.116C639.959 330.822 640.234 330.604 640.524 330.461C640.813 330.318 641.143 330.247 641.514 330.247C642.012 330.247 642.405 330.399 642.691 330.703C642.977 331.008 643.12 331.437 643.12 331.99V336.281H641.382V332.491C641.382 332.253 641.365 332.064 641.332 331.924C641.299 331.781 641.241 331.68 641.156 331.622C641.075 331.559 640.964 331.528 640.821 331.528C640.7 331.528 640.58 331.556 640.463 331.611C640.349 331.662 640.237 331.737 640.127 331.836C640.017 331.935 639.907 332.055 639.797 332.194V336.281H638.059ZM649.915 335.94C649.688 336.087 649.413 336.212 649.09 336.314C648.767 336.417 648.404 336.468 648.001 336.468C647.238 336.468 646.671 336.274 646.301 335.885C645.93 335.493 645.745 334.961 645.745 334.29V331.638H644.519V330.439H645.745V329.174L647.484 328.965V330.439H649.365L649.194 331.638H647.484V334.29C647.484 334.58 647.55 334.787 647.682 334.911C647.814 335.036 648.025 335.099 648.314 335.099C648.52 335.099 648.707 335.075 648.875 335.027C649.048 334.976 649.202 334.911 649.338 334.834L649.915 335.94ZM654.823 330.439V335.093H656.309V336.281H651.429V335.093H653.085V331.627H651.484V330.439H654.823ZM653.773 327.38C654.073 327.38 654.319 327.474 654.51 327.661C654.7 327.848 654.796 328.081 654.796 328.36C654.796 328.638 654.7 328.873 654.51 329.064C654.319 329.251 654.073 329.344 653.773 329.344C653.468 329.344 653.219 329.251 653.024 329.064C652.834 328.873 652.738 328.638 652.738 328.36C652.738 328.081 652.834 327.848 653.024 327.661C653.219 327.474 653.468 327.38 653.773 327.38ZM662.768 334.598C662.768 334.818 662.797 334.977 662.856 335.077C662.918 335.176 663.018 335.251 663.153 335.302L662.796 336.446C662.451 336.413 662.159 336.338 661.921 336.221C661.686 336.1 661.501 335.918 661.365 335.676C661.142 335.944 660.856 336.144 660.507 336.276C660.159 336.404 659.803 336.468 659.44 336.468C658.838 336.468 658.358 336.298 657.999 335.957C657.643 335.612 657.465 335.17 657.465 334.631C657.465 333.996 657.713 333.507 658.208 333.162C658.706 332.817 659.407 332.645 660.309 332.645H661.096V332.425C661.096 332.121 660.997 331.895 660.799 331.748C660.604 331.602 660.318 331.528 659.941 331.528C659.754 331.528 659.513 331.556 659.22 331.611C658.927 331.662 658.633 331.737 658.34 331.836L657.938 330.681C658.316 330.538 658.708 330.43 659.115 330.357C659.526 330.283 659.893 330.247 660.216 330.247C661.085 330.247 661.727 330.424 662.141 330.78C662.559 331.132 662.768 331.642 662.768 332.309V334.598ZM660.04 335.225C660.227 335.225 660.423 335.17 660.628 335.06C660.834 334.946 660.989 334.787 661.096 334.581V333.635H660.667C660.183 333.635 659.827 333.71 659.599 333.861C659.372 334.007 659.258 334.224 659.258 334.51C659.258 334.734 659.326 334.91 659.462 335.038C659.601 335.163 659.794 335.225 660.04 335.225ZM669.635 329.504L670.042 330.78C669.836 330.861 669.596 330.92 669.321 330.956C669.046 330.993 668.725 331.011 668.358 331.011C668.725 331.169 669.004 331.365 669.195 331.6C669.389 331.831 669.486 332.135 669.486 332.513C669.486 332.891 669.385 333.228 669.184 333.525C668.982 333.819 668.696 334.05 668.325 334.218C667.955 334.387 667.517 334.471 667.011 334.471C666.886 334.471 666.769 334.466 666.659 334.455C666.549 334.444 666.44 334.427 666.334 334.405C666.272 334.438 666.224 334.486 666.191 334.548C666.158 334.611 666.141 334.675 666.141 334.741C666.141 334.833 666.178 334.915 666.252 334.988C666.329 335.062 666.506 335.099 666.785 335.099H667.742C668.197 335.099 668.589 335.172 668.92 335.319C669.253 335.465 669.512 335.665 669.695 335.918C669.879 336.171 669.97 336.461 669.97 336.787C669.97 337.385 669.708 337.856 669.184 338.201C668.659 338.546 667.88 338.718 666.846 338.718C666.097 338.718 665.518 338.641 665.107 338.487C664.7 338.337 664.416 338.12 664.255 337.838C664.097 337.559 664.018 337.227 664.018 336.842H665.558C665.558 337.011 665.591 337.149 665.657 337.255C665.727 337.365 665.857 337.446 666.048 337.497C666.242 337.548 666.523 337.574 666.89 337.574C667.26 337.574 667.542 337.545 667.737 337.486C667.931 337.427 668.063 337.347 668.133 337.244C668.206 337.145 668.243 337.033 668.243 336.908C668.243 336.736 668.175 336.597 668.039 336.49C667.904 336.384 667.689 336.331 667.396 336.331H666.466C665.835 336.331 665.377 336.215 665.091 335.984C664.805 335.749 664.662 335.476 664.662 335.165C664.662 334.948 664.719 334.743 664.832 334.548C664.95 334.354 665.113 334.191 665.322 334.059C664.948 333.861 664.68 333.628 664.519 333.36C664.357 333.089 664.277 332.764 664.277 332.386C664.277 331.946 664.388 331.569 664.612 331.253C664.836 330.934 665.144 330.688 665.536 330.516C665.932 330.344 666.384 330.258 666.89 330.258C667.326 330.265 667.706 330.236 668.028 330.17C668.351 330.1 668.641 330.006 668.898 329.889C669.154 329.768 669.4 329.64 669.635 329.504ZM666.934 331.385C666.659 331.385 666.44 331.473 666.279 331.649C666.118 331.822 666.037 332.06 666.037 332.364C666.037 332.687 666.119 332.935 666.285 333.107C666.45 333.279 666.666 333.366 666.934 333.366C667.223 333.366 667.443 333.279 667.594 333.107C667.748 332.935 667.825 332.68 667.825 332.342C667.825 332.016 667.75 331.776 667.599 331.622C667.449 331.464 667.227 331.385 666.934 331.385ZM673.575 330.247C674.176 330.247 674.688 330.375 675.11 330.632C675.531 330.888 675.854 331.25 676.078 331.715C676.301 332.177 676.413 332.72 676.413 333.344C676.413 333.993 676.3 334.552 676.072 335.021C675.849 335.487 675.526 335.845 675.104 336.094C674.682 336.344 674.173 336.468 673.575 336.468C672.981 336.468 672.471 336.345 672.045 336.1C671.624 335.854 671.299 335.498 671.072 335.032C670.848 334.567 670.736 334.007 670.736 333.355C670.736 332.735 670.848 332.192 671.072 331.726C671.299 331.261 671.624 330.897 672.045 330.637C672.471 330.377 672.981 330.247 673.575 330.247ZM673.575 331.528C673.219 331.528 672.955 331.675 672.783 331.968C672.614 332.258 672.53 332.72 672.53 333.355C672.53 334 672.614 334.468 672.783 334.757C672.955 335.047 673.219 335.192 673.575 335.192C673.93 335.192 674.193 335.047 674.361 334.757C674.534 334.468 674.62 333.996 674.62 333.344C674.62 332.713 674.534 332.253 674.361 331.963C674.193 331.673 673.93 331.528 673.575 331.528ZM687.952 331.143C687.952 330.872 687.9 330.648 687.797 330.472C687.698 330.292 687.546 330.16 687.341 330.076C687.139 329.988 686.884 329.944 686.576 329.944H685.96V332.436H686.67C686.937 332.436 687.167 332.39 687.357 332.298C687.548 332.207 687.695 332.066 687.797 331.875C687.9 331.684 687.952 331.44 687.952 331.143ZM689.811 331.138C689.811 331.728 689.684 332.216 689.431 332.601C689.178 332.986 688.824 333.274 688.37 333.465C687.915 333.652 687.387 333.745 686.785 333.745H685.96V336.281H684.156V328.657H686.554C687.588 328.657 688.39 328.862 688.958 329.273C689.527 329.684 689.811 330.305 689.811 331.138ZM693.366 330.247C693.967 330.247 694.479 330.375 694.901 330.632C695.322 330.888 695.645 331.25 695.869 331.715C696.093 332.177 696.204 332.72 696.204 333.344C696.204 333.993 696.091 334.552 695.863 335.021C695.64 335.487 695.317 335.845 694.895 336.094C694.473 336.344 693.964 336.468 693.366 336.468C692.772 336.468 692.262 336.345 691.836 336.1C691.415 335.854 691.09 335.498 690.863 335.032C690.639 334.567 690.527 334.007 690.527 333.355C690.527 332.735 690.639 332.192 690.863 331.726C691.09 331.261 691.415 330.897 691.836 330.637C692.262 330.377 692.772 330.247 693.366 330.247ZM693.366 331.528C693.01 331.528 692.746 331.675 692.574 331.968C692.405 332.258 692.321 332.72 692.321 333.355C692.321 334 692.405 334.468 692.574 334.757C692.746 335.047 693.01 335.192 693.366 335.192C693.722 335.192 693.984 335.047 694.152 334.757C694.325 334.468 694.411 333.996 694.411 333.344C694.411 332.713 694.325 332.253 694.152 331.963C693.984 331.673 693.722 331.528 693.366 331.528ZM697.487 336.281V335.115H698.257V331.594H697.487V330.439H699.583L699.902 331.754C700.111 331.251 700.377 330.877 700.7 330.632C701.026 330.386 701.424 330.263 701.894 330.263C702.092 330.263 702.268 330.28 702.422 330.313C702.576 330.342 702.721 330.384 702.856 330.439L702.328 331.875C702.222 331.846 702.116 331.824 702.009 331.809C701.903 331.794 701.786 331.787 701.657 331.787C701.276 331.787 700.94 331.943 700.65 332.254C700.364 332.566 700.146 332.962 699.996 333.443V335.115H701.151V336.281H697.487ZM701.443 332.882V331.176L701.701 330.439H702.856L702.532 332.882H701.443ZM709.288 335.94C709.061 336.087 708.786 336.212 708.463 336.314C708.141 336.417 707.777 336.468 707.374 336.468C706.611 336.468 706.045 336.274 705.674 335.885C705.304 335.493 705.119 334.961 705.119 334.29V331.638H703.892V330.439H705.119V329.174L706.857 328.965V330.439H708.738L708.568 331.638H706.857V334.29C706.857 334.58 706.923 334.787 707.055 334.911C707.187 335.036 707.398 335.099 707.688 335.099C707.893 335.099 708.08 335.075 708.249 335.027C708.421 334.976 708.575 334.911 708.711 334.834L709.288 335.94ZM714.197 330.439V335.093H715.682V336.281H710.802V335.093H712.458V331.627H710.857V330.439H714.197ZM713.146 327.38C713.447 327.38 713.692 327.474 713.883 327.661C714.074 327.848 714.169 328.081 714.169 328.36C714.169 328.638 714.074 328.873 713.883 329.064C713.692 329.251 713.447 329.344 713.146 329.344C712.842 329.344 712.592 329.251 712.398 329.064C712.207 328.873 712.112 328.638 712.112 328.36C712.112 328.081 712.207 327.848 712.398 327.661C712.592 327.474 712.842 327.38 713.146 327.38ZM720.271 328.118V334.444C720.271 334.679 720.337 334.847 720.469 334.95C720.605 335.049 720.79 335.099 721.025 335.099C721.175 335.099 721.32 335.082 721.459 335.049C721.599 335.012 721.729 334.97 721.85 334.922L722.268 336.083C722.07 336.186 721.832 336.276 721.553 336.353C721.274 336.43 720.95 336.468 720.579 336.468C719.875 336.468 719.358 336.267 719.028 335.863C718.698 335.456 718.533 334.911 718.533 334.229V329.306H716.811V328.118H720.271ZM726.868 328.118V334.444C726.868 334.679 726.934 334.847 727.066 334.95C727.202 335.049 727.387 335.099 727.622 335.099C727.772 335.099 727.917 335.082 728.056 335.049C728.196 335.012 728.326 334.97 728.447 334.922L728.865 336.083C728.667 336.186 728.429 336.276 728.15 336.353C727.871 336.43 727.547 336.468 727.176 336.468C726.472 336.468 725.955 336.267 725.625 335.863C725.295 335.456 725.13 334.911 725.13 334.229V329.306H723.408V328.118H726.868ZM735.336 334.598C735.336 334.818 735.365 334.977 735.424 335.077C735.486 335.176 735.585 335.251 735.721 335.302L735.363 336.446C735.018 336.413 734.727 336.338 734.488 336.221C734.254 336.1 734.068 335.918 733.933 335.676C733.709 335.944 733.423 336.144 733.075 336.276C732.726 336.404 732.37 336.468 732.007 336.468C731.406 336.468 730.925 336.298 730.566 335.957C730.21 335.612 730.032 335.17 730.032 334.631C730.032 333.996 730.28 333.507 730.775 333.162C731.274 332.817 731.974 332.645 732.877 332.645H733.663V332.425C733.663 332.121 733.564 331.895 733.366 331.748C733.172 331.602 732.886 331.528 732.508 331.528C732.321 331.528 732.081 331.556 731.787 331.611C731.494 331.662 731.201 331.737 730.907 331.836L730.506 330.681C730.883 330.538 731.276 330.43 731.683 330.357C732.094 330.283 732.46 330.247 732.783 330.247C733.652 330.247 734.294 330.424 734.708 330.78C735.126 331.132 735.336 331.642 735.336 332.309V334.598ZM732.607 335.225C732.794 335.225 732.99 335.17 733.196 335.06C733.401 334.946 733.557 334.787 733.663 334.581V333.635H733.234C732.75 333.635 732.394 333.71 732.167 333.861C731.939 334.007 731.826 334.224 731.826 334.51C731.826 334.734 731.894 334.91 732.029 335.038C732.169 335.163 732.361 335.225 732.607 335.225ZM737.163 333.514V332.161H741.927V333.514H737.163ZM748.821 328.657L749.25 336.281H747.677L747.583 333.019C747.576 332.715 747.572 332.443 747.572 332.205C747.576 331.967 747.582 331.743 747.589 331.534C747.596 331.321 747.607 331.108 747.622 330.896C747.64 330.679 747.659 330.445 747.677 330.192L746.819 334.983H745.454L744.53 330.192C744.552 330.434 744.571 330.663 744.585 330.879C744.604 331.092 744.616 331.306 744.624 331.523C744.631 331.739 744.637 331.972 744.64 332.221C744.644 332.467 744.642 332.742 744.635 333.047L744.58 336.281H743.034L743.463 328.657H745.317L746.164 333.586L746.967 328.657H748.821ZM755.127 334.598C755.127 334.818 755.156 334.977 755.215 335.077C755.277 335.176 755.376 335.251 755.512 335.302L755.154 336.446C754.809 336.413 754.518 336.338 754.279 336.221C754.045 336.1 753.86 335.918 753.724 335.676C753.5 335.944 753.214 336.144 752.866 336.276C752.517 336.404 752.161 336.468 751.798 336.468C751.197 336.468 750.717 336.298 750.357 335.957C750.001 335.612 749.824 335.17 749.824 334.631C749.824 333.996 750.071 333.507 750.566 333.162C751.065 332.817 751.765 332.645 752.668 332.645H753.454V332.425C753.454 332.121 753.355 331.895 753.157 331.748C752.963 331.602 752.677 331.528 752.299 331.528C752.112 331.528 751.872 331.556 751.578 331.611C751.285 331.662 750.992 331.737 750.698 331.836L750.297 330.681C750.674 330.538 751.067 330.43 751.474 330.357C751.885 330.283 752.251 330.247 752.574 330.247C753.443 330.247 754.085 330.424 754.499 330.78C754.918 331.132 755.127 331.642 755.127 332.309V334.598ZM752.398 335.225C752.585 335.225 752.781 335.17 752.987 335.06C753.192 334.946 753.348 334.787 753.454 334.581V333.635H753.025C752.541 333.635 752.185 333.71 751.958 333.861C751.731 334.007 751.617 334.224 751.617 334.51C751.617 334.734 751.685 334.91 751.82 335.038C751.96 335.163 752.152 335.225 752.398 335.225ZM756.861 336.281V335.115H757.631V331.594H756.861V330.439H758.957L759.276 331.754C759.485 331.251 759.751 330.877 760.073 330.632C760.4 330.386 760.798 330.263 761.267 330.263C761.465 330.263 761.641 330.28 761.795 330.313C761.949 330.342 762.094 330.384 762.23 330.439L761.702 331.875C761.595 331.846 761.489 331.824 761.383 331.809C761.276 331.794 761.159 331.787 761.03 331.787C760.649 331.787 760.314 331.943 760.024 332.254C759.738 332.566 759.52 332.962 759.369 333.443V335.115H760.524V336.281H756.861ZM760.816 332.882V331.176L761.074 330.439H762.23L761.905 332.882H760.816ZM768.662 335.94C768.434 336.087 768.159 336.212 767.837 336.314C767.514 336.417 767.151 336.468 766.747 336.468C765.985 336.468 765.418 336.274 765.048 335.885C764.677 335.493 764.492 334.961 764.492 334.29V331.638H763.265V330.439H764.492V329.174L766.23 328.965V330.439H768.112L767.941 331.638H766.23V334.29C766.23 334.58 766.296 334.787 766.428 334.911C766.56 335.036 766.771 335.099 767.061 335.099C767.266 335.099 767.453 335.075 767.622 335.027C767.794 334.976 767.948 334.911 768.084 334.834L768.662 335.94ZM773.57 330.439V335.093H775.055V336.281H770.176V335.093H771.832V331.627H770.231V330.439H773.57ZM773.355 327.094L774.032 328.404L771.435 329.432L770.957 328.552L773.355 327.094ZM776.597 336.281V330.439H778.115L778.236 331.116C778.496 330.822 778.772 330.604 779.061 330.461C779.351 330.318 779.681 330.247 780.051 330.247C780.55 330.247 780.943 330.399 781.229 330.703C781.515 331.008 781.658 331.437 781.658 331.99V336.281H779.919V332.491C779.919 332.253 779.903 332.064 779.87 331.924C779.837 331.781 779.778 331.68 779.694 331.622C779.613 331.559 779.501 331.528 779.358 331.528C779.237 331.528 779.118 331.556 779.001 331.611C778.887 331.662 778.775 331.737 778.665 331.836C778.555 331.935 778.445 332.055 778.335 332.194V336.281H776.597ZM784.701 333.866C784.741 334.185 784.824 334.444 784.949 334.642C785.077 334.836 785.24 334.979 785.438 335.071C785.636 335.159 785.858 335.203 786.104 335.203C786.372 335.203 786.63 335.159 786.88 335.071C787.129 334.983 787.369 334.866 787.6 334.719L788.299 335.665C788.024 335.9 787.69 336.092 787.298 336.243C786.909 336.393 786.465 336.468 785.966 336.468C785.299 336.468 784.74 336.336 784.288 336.072C783.837 335.804 783.498 335.438 783.271 334.972C783.043 334.506 782.93 333.971 782.93 333.366C782.93 332.79 783.04 332.267 783.26 331.798C783.48 331.325 783.801 330.949 784.222 330.67C784.648 330.388 785.167 330.247 785.779 330.247C786.337 330.247 786.819 330.366 787.226 330.604C787.637 330.842 787.954 331.185 788.178 331.633C788.405 332.08 788.519 332.618 788.519 333.245C788.519 333.344 788.515 333.45 788.508 333.564C788.504 333.677 788.497 333.778 788.486 333.866H784.701ZM785.779 331.413C785.468 331.413 785.216 331.525 785.026 331.748C784.835 331.972 784.719 332.33 784.679 332.821H786.825C786.821 332.396 786.738 332.055 786.577 331.798C786.416 331.541 786.15 331.413 785.779 331.413ZM791.865 334.966H794.791L794.626 336.281H789.813V335.055L792.712 331.748H790.055V330.439H794.736V331.66L791.865 334.966ZM806.077 326.379V339.582H804.954V326.379H806.077ZM818.544 328.536C819.095 328.536 819.564 328.616 819.953 328.778C820.341 328.935 820.662 329.157 820.915 329.443C821.172 329.726 821.372 330.059 821.515 330.445C821.658 330.83 821.759 331.248 821.818 331.699C821.876 332.15 821.906 332.618 821.906 333.102C821.906 334.026 821.862 334.8 821.774 335.423C821.686 336.043 821.521 336.509 821.278 336.82C821.04 337.136 820.695 337.293 820.244 337.293C820.024 337.293 819.832 337.244 819.667 337.145C819.505 337.046 819.371 336.918 819.265 336.76C819.162 336.606 819.084 336.439 819.029 336.259C818.977 336.076 818.948 335.904 818.94 335.742H818.896C818.823 335.918 818.722 336.087 818.594 336.248C818.466 336.41 818.302 336.542 818.104 336.644C817.906 336.747 817.664 336.798 817.378 336.798C816.967 336.798 816.637 336.688 816.388 336.468C816.139 336.252 815.957 335.953 815.843 335.572C815.73 335.19 815.673 334.759 815.673 334.279C815.673 333.344 815.864 332.63 816.245 332.139C816.626 331.644 817.178 331.396 817.901 331.396C818.172 331.396 818.44 331.429 818.704 331.495C818.972 331.558 819.26 331.671 819.568 331.836V335.104C819.568 335.452 819.595 335.722 819.65 335.913C819.705 336.103 819.78 336.235 819.876 336.309C819.975 336.382 820.087 336.419 820.211 336.419C820.358 336.419 820.472 336.344 820.552 336.193C820.637 336.043 820.697 335.826 820.734 335.544C820.771 335.258 820.793 334.913 820.8 334.51C820.807 334.106 820.811 333.652 820.811 333.146C820.811 332.603 820.78 332.106 820.717 331.655C820.659 331.2 820.547 330.808 820.382 330.478C820.22 330.148 819.989 329.893 819.689 329.713C819.388 329.533 818.997 329.443 818.517 329.443C818.147 329.443 817.756 329.513 817.345 329.652C816.938 329.792 816.509 330.059 816.058 330.456L815.464 329.768C815.963 329.335 816.467 329.022 816.977 328.827C817.49 328.633 818.013 328.536 818.544 328.536ZM817.917 332.232C817.496 332.232 817.208 332.397 817.054 332.728C816.9 333.054 816.823 333.571 816.823 334.279C816.823 334.631 816.845 334.932 816.889 335.181C816.933 335.43 817.01 335.621 817.12 335.753C817.23 335.885 817.378 335.951 817.565 335.951C817.789 335.951 817.963 335.9 818.088 335.797C818.213 335.694 818.306 335.573 818.368 335.434C818.431 335.291 818.478 335.166 818.511 335.06V332.375C818.412 332.324 818.317 332.287 818.225 332.265C818.134 332.243 818.031 332.232 817.917 332.232ZM827.804 328.657V333.536C827.804 333.98 827.736 334.382 827.6 334.741C827.465 335.1 827.265 335.407 827.001 335.66C826.74 335.913 826.42 336.107 826.038 336.243C825.66 336.378 825.228 336.446 824.74 336.446C824.248 336.446 823.823 336.384 823.464 336.259C823.108 336.131 822.765 335.955 822.435 335.731L823.123 334.62C823.383 334.8 823.627 334.926 823.854 334.999C824.082 335.069 824.34 335.104 824.63 335.104C825.022 335.104 825.349 334.979 825.609 334.73C825.873 334.477 826.005 334.086 826.005 333.558V329.977H823.662V328.657H827.804ZM831.904 330.247C832.505 330.247 833.017 330.375 833.438 330.632C833.86 330.888 834.183 331.25 834.407 331.715C834.63 332.177 834.742 332.72 834.742 333.344C834.742 333.993 834.628 334.552 834.401 335.021C834.177 335.487 833.855 335.845 833.433 336.094C833.011 336.344 832.501 336.468 831.904 336.468C831.309 336.468 830.8 336.345 830.374 336.1C829.952 335.854 829.628 335.498 829.401 335.032C829.177 334.567 829.065 334.007 829.065 333.355C829.065 332.735 829.177 332.192 829.401 331.726C829.628 331.261 829.952 330.897 830.374 330.637C830.8 330.377 831.309 330.247 831.904 330.247ZM831.904 331.528C831.548 331.528 831.284 331.675 831.111 331.968C830.943 332.258 830.858 332.72 830.858 333.355C830.858 334 830.943 334.468 831.111 334.757C831.284 335.047 831.548 335.192 831.904 335.192C832.259 335.192 832.521 335.047 832.69 334.757C832.863 334.468 832.949 333.996 832.949 333.344C832.949 332.713 832.863 332.253 832.69 331.963C832.521 331.673 832.259 331.528 831.904 331.528ZM837.477 333.866C837.518 334.185 837.6 334.444 837.725 334.642C837.853 334.836 838.016 334.979 838.214 335.071C838.413 335.159 838.634 335.203 838.88 335.203C839.148 335.203 839.406 335.159 839.656 335.071C839.905 334.983 840.145 334.866 840.376 334.719L841.075 335.665C840.8 335.9 840.466 336.092 840.074 336.243C839.685 336.393 839.241 336.468 838.743 336.468C838.075 336.468 837.516 336.336 837.065 336.072C836.614 335.804 836.274 335.438 836.047 334.972C835.82 334.506 835.706 333.971 835.706 333.366C835.706 332.79 835.816 332.267 836.036 331.798C836.256 331.325 836.577 330.949 836.999 330.67C837.424 330.388 837.943 330.247 838.556 330.247C839.113 330.247 839.595 330.366 840.002 330.604C840.413 330.842 840.73 331.185 840.954 331.633C841.181 332.08 841.295 332.618 841.295 333.245C841.295 333.344 841.291 333.45 841.284 333.564C841.28 333.677 841.273 333.778 841.262 333.866H837.477ZM838.556 331.413C838.244 331.413 837.993 331.525 837.802 331.748C837.611 331.972 837.496 332.33 837.455 332.821H839.601C839.597 332.396 839.515 332.055 839.353 331.798C839.192 331.541 838.926 331.413 838.556 331.413ZM846.28 331.143C846.28 330.872 846.229 330.648 846.126 330.472C846.027 330.292 845.875 330.16 845.67 330.076C845.468 329.988 845.213 329.944 844.905 329.944H844.289V332.436H844.999C845.266 332.436 845.496 332.39 845.686 332.298C845.877 332.207 846.024 332.066 846.126 331.875C846.229 331.684 846.28 331.44 846.28 331.143ZM848.14 331.138C848.14 331.728 848.013 332.216 847.76 332.601C847.507 332.986 847.153 333.274 846.698 333.465C846.244 333.652 845.716 333.745 845.114 333.745H844.289V336.281H842.485V328.657H844.883C845.917 328.657 846.719 328.862 847.287 329.273C847.855 329.684 848.14 330.305 848.14 331.138ZM851.695 330.247C852.296 330.247 852.808 330.375 853.229 330.632C853.651 330.888 853.974 331.25 854.198 331.715C854.421 332.177 854.533 332.72 854.533 333.344C854.533 333.993 854.42 334.552 854.192 335.021C853.968 335.487 853.646 335.845 853.224 336.094C852.802 336.344 852.292 336.468 851.695 336.468C851.1 336.468 850.591 336.345 850.165 336.1C849.744 335.854 849.419 335.498 849.192 335.032C848.968 334.567 848.856 334.007 848.856 333.355C848.856 332.735 848.968 332.192 849.192 331.726C849.419 331.261 849.744 330.897 850.165 330.637C850.591 330.377 851.1 330.247 851.695 330.247ZM851.695 331.528C851.339 331.528 851.075 331.675 850.902 331.968C850.734 332.258 850.649 332.72 850.649 333.355C850.649 334 850.734 334.468 850.902 334.757C851.075 335.047 851.339 335.192 851.695 335.192C852.05 335.192 852.313 335.047 852.481 334.757C852.654 334.468 852.74 333.996 852.74 333.344C852.74 332.713 852.654 332.253 852.481 331.963C852.313 331.673 852.05 331.528 851.695 331.528ZM855.816 336.281V335.115H856.586V331.594H855.816V330.439H857.912L858.231 331.754C858.44 331.251 858.706 330.877 859.029 330.632C859.355 330.386 859.753 330.263 860.223 330.263C860.421 330.263 860.597 330.28 860.751 330.313C860.905 330.342 861.05 330.384 861.185 330.439L860.657 331.875C860.551 331.846 860.444 331.824 860.338 331.809C860.232 331.794 860.114 331.787 859.986 331.787C859.605 331.787 859.269 331.943 858.979 332.254C858.693 332.566 858.475 332.962 858.325 333.443V335.115H859.48V336.281H855.816ZM859.771 332.882V331.176L860.03 330.439H861.185L860.861 332.882H859.771ZM867.617 335.94C867.39 336.087 867.115 336.212 866.792 336.314C866.469 336.417 866.106 336.468 865.703 336.468C864.94 336.468 864.373 336.274 864.003 335.885C863.633 335.493 863.447 334.961 863.447 334.29V331.638H862.221V330.439H863.447V329.174L865.186 328.965V330.439H867.067L866.897 331.638H865.186V334.29C865.186 334.58 865.252 334.787 865.384 334.911C865.516 335.036 865.727 335.099 866.016 335.099C866.222 335.099 866.409 335.075 866.578 335.027C866.75 334.976 866.904 334.911 867.04 334.834L867.617 335.94ZM872.525 330.439V335.093H874.011V336.281H869.131V335.093H870.787V331.627H869.186V330.439H872.525ZM871.475 327.38C871.775 327.38 872.021 327.474 872.212 327.661C872.403 327.848 872.498 328.081 872.498 328.36C872.498 328.638 872.403 328.873 872.212 329.064C872.021 329.251 871.775 329.344 871.475 329.344C871.17 329.344 870.921 329.251 870.727 329.064C870.536 328.873 870.441 328.638 870.441 328.36C870.441 328.081 870.536 327.848 870.727 327.661C870.921 327.474 871.17 327.38 871.475 327.38ZM878.6 328.118V334.444C878.6 334.679 878.666 334.847 878.798 334.95C878.934 335.049 879.119 335.099 879.354 335.099C879.504 335.099 879.649 335.082 879.788 335.049C879.927 335.012 880.058 334.97 880.179 334.922L880.597 336.083C880.399 336.186 880.16 336.276 879.882 336.353C879.603 336.43 879.278 336.468 878.908 336.468C878.204 336.468 877.687 336.267 877.357 335.863C877.027 335.456 876.862 334.911 876.862 334.229V329.306H875.14V328.118H878.6ZM885.197 328.118V334.444C885.197 334.679 885.263 334.847 885.395 334.95C885.531 335.049 885.716 335.099 885.951 335.099C886.101 335.099 886.246 335.082 886.385 335.049C886.524 335.012 886.655 334.97 886.776 334.922L887.194 336.083C886.996 336.186 886.757 336.276 886.479 336.353C886.2 336.43 885.875 336.468 885.505 336.468C884.801 336.468 884.284 336.267 883.954 335.863C883.624 335.456 883.459 334.911 883.459 334.229V329.306H881.737V328.118H885.197ZM893.664 334.598C893.664 334.818 893.694 334.977 893.752 335.077C893.815 335.176 893.914 335.251 894.049 335.302L893.692 336.446C893.347 336.413 893.056 336.338 892.817 336.221C892.582 336.1 892.397 335.918 892.262 335.676C892.038 335.944 891.752 336.144 891.403 336.276C891.055 336.404 890.699 336.468 890.336 336.468C889.735 336.468 889.254 336.298 888.895 335.957C888.539 335.612 888.361 335.17 888.361 334.631C888.361 333.996 888.609 333.507 889.104 333.162C889.603 332.817 890.303 332.645 891.205 332.645H891.992V332.425C891.992 332.121 891.893 331.895 891.695 331.748C891.501 331.602 891.214 331.528 890.837 331.528C890.65 331.528 890.409 331.556 890.116 331.611C889.823 331.662 889.529 331.737 889.236 331.836L888.834 330.681C889.212 330.538 889.604 330.43 890.012 330.357C890.422 330.283 890.789 330.247 891.112 330.247C891.981 330.247 892.623 330.424 893.037 330.78C893.455 331.132 893.664 331.642 893.664 332.309V334.598ZM890.936 335.225C891.123 335.225 891.319 335.17 891.524 335.06C891.73 334.946 891.886 334.787 891.992 334.581V333.635H891.563C891.079 333.635 890.723 333.71 890.496 333.861C890.268 334.007 890.155 334.224 890.155 334.51C890.155 334.734 890.222 334.91 890.358 335.038C890.498 335.163 890.69 335.225 890.936 335.225Z" fill="black"/>
<rect x="330.079" y="188.879" width="35.1806" height="35.1806" rx="0.911659" transform="rotate(180 330.079 188.879)" fill="#02517E"/>
<rect x="330.079" y="116.858" width="35.1806" height="35.1806" rx="0.911659" transform="rotate(180 330.079 116.858)" fill="#BCBCBC"/>
<rect x="294.067" y="188.879" width="35.1806" height="35.1806" rx="0.911659" transform="rotate(180 294.067 188.879)" fill="#99CCC5"/>
<rect x="294.067" y="116.858" width="35.1806" height="35.1806" rx="0.911659" transform="rotate(180 294.067 116.858)" fill="#293D5E"/>
<rect x="258.058" y="188.879" width="35.1806" height="35.1806" rx="0.911659" transform="rotate(180 258.058 188.879)" fill="#6798EB"/>
<rect x="222.047" y="188.879" width="35.1806" height="35.1806" rx="0.911659" transform="rotate(180 222.047 188.879)" fill="#345E77"/>
<rect x="258.058" y="116.858" width="35.1806" height="35.1806" rx="0.911659" transform="rotate(180 258.058 116.858)" fill="#5D617C"/>
<rect x="222.047" y="116.858" width="35.1806" height="35.1806" rx="0.911659" transform="rotate(180 222.047 116.858)" fill="#7EAFCD"/>
<rect x="330.079" y="152.869" width="35.1806" height="35.1806" rx="0.911659" transform="rotate(180 330.079 152.869)" fill="#7EAFCD"/>
<rect x="330.079" y="80.8472" width="35.1806" height="35.1806" rx="0.911659" transform="rotate(180 330.079 80.8472)" fill="#333B57"/>
<rect x="294.067" y="152.869" width="35.1806" height="35.1806" rx="0.911659" transform="rotate(180 294.067 152.869)" fill="#5C87E1"/>
<rect x="294.067" y="80.8472" width="35.1806" height="35.1806" rx="0.911659" transform="rotate(180 294.067 80.8472)" fill="#7EAFCD"/>
<rect x="258.058" y="152.869" width="35.1806" height="35.1806" rx="0.911659" transform="rotate(180 258.058 152.869)" fill="#333B57"/>
<rect x="222.047" y="152.869" width="35.1806" height="35.1806" rx="0.911659" transform="rotate(180 222.047 152.869)" fill="#3D5C8B"/>
<rect x="258.058" y="80.8472" width="35.1806" height="35.1806" rx="0.911659" transform="rotate(180 258.058 80.8472)" fill="#BCBCBC"/>
<rect x="222.047" y="80.8472" width="35.1806" height="35.1806" rx="0.911659" transform="rotate(180 222.047 80.8472)" fill="#293D5E"/>
<path d="M181.921 203.25H139.319V25.4765H181.921V34.1362H149.074V194.491H181.921V203.25Z" fill="black"/>
<path d="M335.997 194.491H368.845V34.1362H335.997V25.4765H378.699V203.25H335.997V194.491Z" fill="black"/>
<rect x="964.079" y="187.879" width="35.1806" height="35.1806" rx="0.911659" transform="rotate(180 964.079 187.879)" fill="#02517E"/>
<rect x="964.079" y="115.858" width="35.1806" height="35.1806" rx="0.911659" transform="rotate(180 964.079 115.858)" fill="#BCBCBC"/>
<rect x="928.067" y="187.879" width="35.1806" height="35.1806" rx="0.911659" transform="rotate(180 928.067 187.879)" fill="#99CCC5"/>
<rect x="928.067" y="115.858" width="35.1806" height="35.1806" rx="0.911659" transform="rotate(180 928.067 115.858)" fill="#293D5E"/>
<rect x="892.058" y="187.879" width="35.1806" height="35.1806" rx="0.911659" transform="rotate(180 892.058 187.879)" fill="#6798EB"/>
<rect x="856.047" y="187.879" width="35.1806" height="35.1806" rx="0.911659" transform="rotate(180 856.047 187.879)" fill="#345E77"/>
<rect x="892.058" y="115.858" width="35.1806" height="35.1806" rx="0.911659" transform="rotate(180 892.058 115.858)" fill="#5D617C"/>
<rect x="856.047" y="115.858" width="35.1806" height="35.1806" rx="0.911659" transform="rotate(180 856.047 115.858)" fill="#7EAFCD"/>
<rect x="964.079" y="151.869" width="35.1806" height="35.1806" rx="0.911659" transform="rotate(180 964.079 151.869)" fill="#7EAFCD"/>
<rect x="964.079" y="79.8472" width="35.1806" height="35.1806" rx="0.911659" transform="rotate(180 964.079 79.8472)" fill="#333B57"/>
<rect x="928.067" y="151.869" width="35.1806" height="35.1806" rx="0.911659" transform="rotate(180 928.067 151.869)" fill="#5C87E1"/>
<rect x="928.067" y="79.8472" width="35.1806" height="35.1806" rx="0.911659" transform="rotate(180 928.067 79.8472)" fill="#7EAFCD"/>
<rect x="892.058" y="151.869" width="35.1806" height="35.1806" rx="0.911659" transform="rotate(180 892.058 151.869)" fill="#333B57"/>
<rect x="856.047" y="151.869" width="35.1806" height="35.1806" rx="0.911659" transform="rotate(180 856.047 151.869)" fill="#3D5C8B"/>
<rect x="892.058" y="79.8472" width="35.1806" height="35.1806" rx="0.911659" transform="rotate(180 892.058 79.8472)" fill="#BCBCBC"/>
<rect x="856.047" y="79.8472" width="35.1806" height="35.1806" rx="0.911659" transform="rotate(180 856.047 79.8472)" fill="#293D5E"/>
<path d="M815.921 202.25H773.319V24.4765H815.921V33.1362H783.074V193.491H815.921V202.25Z" fill="black"/>
<path d="M969.997 193.491H1002.84V33.1362H969.997V24.4765H1012.7V202.25H969.997V193.491Z" fill="black"/>
<rect x="592.379" y="188.879" width="35.1806" height="35.1806" rx="0.911659" transform="rotate(180 592.379 188.879)" fill="#6798EB"/>
<rect x="556.368" y="188.879" width="35.1806" height="35.1806" rx="0.911659" transform="rotate(180 556.368 188.879)" fill="#345E77"/>
<rect x="592.379" y="116.858" width="35.1806" height="35.1806" rx="0.911659" transform="rotate(180 592.379 116.858)" fill="#5D617C"/>
<rect x="556.368" y="116.858" width="35.1806" height="35.1806" rx="0.911659" transform="rotate(180 556.368 116.858)" fill="#7EAFCD"/>
<rect x="592.379" y="152.869" width="35.1806" height="35.1806" rx="0.911659" transform="rotate(180 592.379 152.869)" fill="#333B57"/>
<rect x="556.368" y="152.869" width="35.1806" height="35.1806" rx="0.911659" transform="rotate(180 556.368 152.869)" fill="#3D5C8B"/>
<rect x="592.379" y="80.8472" width="35.1806" height="35.1806" rx="0.911659" transform="rotate(180 592.379 80.8472)" fill="#BCBCBC"/>
<rect x="556.368" y="80.8472" width="35.1806" height="35.1806" rx="0.911659" transform="rotate(180 556.368 80.8472)" fill="#293D5E"/>
<path d="M515.4 203.25H472.798V25.4765H515.4V34.1362H482.553V194.491H515.4V203.25Z" fill="black"/>
<path d="M595.343 194.491H628.19V34.1362H595.343V25.4765H638.045V203.25H595.343V194.491Z" fill="black"/>
<rect x="1226.19" y="169.202" width="35.1806" height="35.1806" rx="0.911659" transform="rotate(180 1226.19 169.202)" fill="#6798EB"/>
<rect x="1190.18" y="169.202" width="35.1806" height="35.1806" rx="0.911659" transform="rotate(180 1190.18 169.202)" fill="#345E77"/>
<rect x="1226.19" y="97.1807" width="35.1806" height="35.1806" rx="0.911659" transform="rotate(180 1226.19 97.1807)" fill="#5D617C"/>
<rect x="1190.18" y="97.1807" width="35.1806" height="35.1806" rx="0.911659" transform="rotate(180 1190.18 97.1807)" fill="#7EAFCD"/>
<rect x="1226.19" y="133.191" width="35.1806" height="35.1806" rx="0.911659" transform="rotate(180 1226.19 133.191)" fill="#333B57"/>
<rect x="1190.18" y="133.191" width="35.1806" height="35.1806" rx="0.911659" transform="rotate(180 1190.18 133.191)" fill="#3D5C8B"/>
<path d="M1149.4 202.25H1106.8V24.4765H1149.4V33.1362H1116.55V193.491H1149.4V202.25Z" fill="black"/>
<path d="M1229.34 193.491H1262.19V33.1362H1229.34V24.4765H1272.04V202.25H1229.34V193.491Z" fill="black"/>
<path d="M215.882 233.281C216.582 233.203 217.379 233.222 218.273 233.339C220.489 233.844 221.928 235.05 222.589 236.955L222.705 237.305L223.347 236.722C224.086 235.983 224.766 235.419 225.388 235.03C227.332 233.786 229.471 233.183 231.803 233.222C234.02 233.339 235.711 233.961 236.877 235.089C237.499 235.672 237.985 236.469 238.335 237.48L238.394 237.83L239.152 237.071C239.929 236.216 240.726 235.536 241.543 235.03C243.487 233.786 245.625 233.183 247.958 233.222C250.174 233.339 251.866 233.961 253.032 235.089C254.548 236.566 255.073 238.724 254.607 241.562C254.218 243.817 253.149 247.239 251.399 251.827C250.738 253.654 250.408 254.937 250.408 255.676C250.408 256.453 250.66 256.862 251.166 256.9C251.244 256.9 251.341 256.9 251.457 256.9C252.274 256.823 253.032 256.414 253.732 255.676C254.859 254.548 255.676 253.012 256.181 251.068C256.376 250.485 256.57 250.174 256.765 250.135C256.881 250.096 257.231 250.077 257.814 250.077C258.553 250.077 258.981 250.116 259.097 250.194C259.175 250.271 259.214 250.427 259.214 250.66C259.214 251.516 258.67 252.915 257.581 254.859C257.464 255.054 257.348 255.248 257.231 255.442C255.948 257.425 254.412 258.728 252.624 259.35C251.03 259.855 249.474 259.719 247.958 258.942C247.414 258.67 247.006 258.378 246.733 258.067C246.383 257.717 246.111 257.348 245.917 256.959C245.528 256.22 245.353 255.442 245.392 254.626C245.392 253.809 245.625 252.76 246.092 251.477C248.58 244.867 249.708 240.59 249.474 238.646C249.358 237.519 248.988 236.76 248.366 236.372C247.939 236.022 247.181 235.905 246.092 236.022C243.215 236.372 240.746 238.238 238.685 241.62L238.335 242.262L236.411 249.844C235.205 254.82 234.506 257.484 234.311 257.834C233.767 259 232.853 259.603 231.57 259.642C230.948 259.642 230.404 259.467 229.937 259.117C229.743 259.039 229.568 258.825 229.412 258.475C229.218 258.047 229.218 257.406 229.412 256.551C229.568 255.773 230.131 253.421 231.103 249.494C232.425 244.284 233.106 241.562 233.145 241.329C233.456 239.735 233.436 238.491 233.086 237.596C232.775 236.508 232.017 235.963 230.812 235.963C227.546 235.963 224.785 237.849 222.53 241.62L222.18 242.262L220.256 249.844C219.051 254.82 218.351 257.484 218.156 257.834C217.612 259 216.698 259.603 215.415 259.642C214.793 259.642 214.249 259.467 213.782 259.117C213.588 259.039 213.413 258.825 213.257 258.475C213.063 258.086 213.044 257.503 213.199 256.725C213.393 255.831 214.074 253.032 215.24 248.327C216.757 242.301 217.534 239.171 217.573 238.938C217.845 237.033 217.476 236.041 216.465 235.963C216.348 235.963 216.232 235.963 216.115 235.963C214.988 236.197 213.977 238.005 213.082 241.387L212.791 242.437C212.363 242.67 211.897 242.787 211.391 242.787H210.283L210.108 242.612C209.953 242.456 209.953 242.048 210.108 241.387C210.886 238.704 211.799 236.683 212.849 235.322C213.666 234.272 214.677 233.592 215.882 233.281Z" fill="#FFC331"/>
<path d="M268.067 259L273.68 252.363L270.879 246.102H272.856L274.928 250.974L278.858 246.102H281.129L275.74 252.445L278.729 259H276.728L274.469 253.869L270.338 259H268.067Z" fill="black"/>
<path d="M291.026 233.339C291.609 233.183 292.406 233.183 293.417 233.339C295.634 233.883 297.072 235.089 297.733 236.955L297.85 237.305L298.491 236.722C299.23 235.983 299.91 235.419 300.532 235.03C302.476 233.786 304.615 233.183 306.948 233.222C309.164 233.339 310.855 233.961 312.022 235.089C313.538 236.566 314.063 238.724 313.596 241.562C313.207 243.817 312.138 247.239 310.389 251.827C309.728 253.654 309.397 254.937 309.397 255.676C309.397 256.298 309.533 256.687 309.805 256.842C310.116 256.998 310.602 256.959 311.263 256.725C312.78 256.142 314.005 254.529 314.938 251.885C315.015 251.613 315.093 251.341 315.171 251.068C315.365 250.485 315.56 250.174 315.754 250.135C315.871 250.096 316.221 250.077 316.804 250.077C317.543 250.077 317.97 250.116 318.087 250.194C318.165 250.271 318.204 250.427 318.204 250.66C318.204 251.321 317.815 252.429 317.037 253.984C316.337 255.423 315.482 256.609 314.471 257.542C312.955 258.981 311.302 259.68 309.514 259.642C307.298 259.525 305.742 258.611 304.848 256.9C304.498 256.201 304.323 255.404 304.323 254.509C304.362 253.732 304.595 252.818 305.023 251.768C306.501 247.725 307.453 244.789 307.881 242.962C308.503 240.629 308.62 238.841 308.231 237.596C307.92 236.508 307.162 235.963 305.956 235.963C302.69 235.963 299.93 237.849 297.675 241.62L297.325 242.262L295.4 249.844C294.195 254.82 293.495 257.484 293.301 257.834C292.756 259 291.843 259.603 290.56 259.642C289.938 259.642 289.393 259.467 288.927 259.117C288.732 259.039 288.557 258.825 288.402 258.475C288.207 258.086 288.188 257.503 288.343 256.725C288.538 255.831 289.218 253.032 290.385 248.327C291.901 242.301 292.679 239.171 292.718 238.938C292.951 237.149 292.64 236.158 291.784 235.963C290.696 235.847 289.782 236.741 289.043 238.646C288.771 239.346 288.499 240.26 288.227 241.387L287.935 242.437C287.508 242.67 287.041 242.787 286.536 242.787H285.427L285.252 242.612C285.097 242.456 285.097 242.048 285.252 241.387C286.652 236.527 288.577 233.844 291.026 233.339Z" fill="#0037AC"/>
<path d="M849.882 232.281C850.582 232.203 851.379 232.222 852.273 232.339C854.489 232.844 855.928 234.05 856.589 235.955L856.705 236.305L857.347 235.722C858.086 234.983 858.766 234.419 859.388 234.03C861.332 232.786 863.471 232.183 865.803 232.222C868.02 232.339 869.711 232.961 870.877 234.089C871.499 234.672 871.985 235.469 872.335 236.48L872.394 236.83L873.152 236.071C873.929 235.216 874.726 234.536 875.543 234.03C877.487 232.786 879.625 232.183 881.958 232.222C884.174 232.339 885.866 232.961 887.032 234.089C888.548 235.566 889.073 237.724 888.607 240.562C888.218 242.817 887.149 246.239 885.399 250.827C884.738 252.654 884.408 253.937 884.408 254.676C884.408 255.453 884.66 255.862 885.166 255.9C885.244 255.9 885.341 255.9 885.457 255.9C886.274 255.823 887.032 255.414 887.732 254.676C888.859 253.548 889.676 252.012 890.181 250.068C890.376 249.485 890.57 249.174 890.765 249.135C890.881 249.096 891.231 249.077 891.814 249.077C892.553 249.077 892.981 249.116 893.097 249.194C893.175 249.271 893.214 249.427 893.214 249.66C893.214 250.516 892.67 251.915 891.581 253.859C891.464 254.054 891.348 254.248 891.231 254.442C889.948 256.425 888.412 257.728 886.624 258.35C885.03 258.855 883.474 258.719 881.958 257.942C881.414 257.67 881.006 257.378 880.733 257.067C880.383 256.717 880.111 256.348 879.917 255.959C879.528 255.22 879.353 254.442 879.392 253.626C879.392 252.809 879.625 251.76 880.092 250.477C882.58 243.867 883.708 239.59 883.474 237.646C883.358 236.519 882.988 235.76 882.366 235.372C881.939 235.022 881.181 234.905 880.092 235.022C877.215 235.372 874.746 237.238 872.685 240.62L872.335 241.262L870.411 248.844C869.205 253.82 868.506 256.484 868.311 256.834C867.767 258 866.853 258.603 865.57 258.642C864.948 258.642 864.404 258.467 863.937 258.117C863.743 258.039 863.568 257.825 863.412 257.475C863.218 257.047 863.218 256.406 863.412 255.551C863.568 254.773 864.131 252.421 865.103 248.494C866.425 243.284 867.106 240.562 867.145 240.329C867.456 238.735 867.436 237.491 867.086 236.596C866.775 235.508 866.017 234.963 864.812 234.963C861.546 234.963 858.785 236.849 856.53 240.62L856.18 241.262L854.256 248.844C853.051 253.82 852.351 256.484 852.156 256.834C851.612 258 850.698 258.603 849.415 258.642C848.793 258.642 848.249 258.467 847.782 258.117C847.588 258.039 847.413 257.825 847.257 257.475C847.063 257.086 847.044 256.503 847.199 255.725C847.393 254.831 848.074 252.032 849.24 247.327C850.757 241.301 851.534 238.171 851.573 237.938C851.845 236.033 851.476 235.041 850.465 234.963C850.348 234.963 850.232 234.963 850.115 234.963C848.988 235.197 847.977 237.005 847.082 240.387L846.791 241.437C846.363 241.67 845.897 241.787 845.391 241.787H844.283L844.108 241.612C843.953 241.456 843.953 241.048 844.108 240.387C844.886 237.704 845.799 235.683 846.849 234.322C847.666 233.272 848.677 232.592 849.882 232.281Z" fill="#FFC331"/>
<path d="M902.067 258L907.68 251.363L904.879 245.102H906.856L908.928 249.974L912.858 245.102H915.129L909.74 251.445L912.729 258H910.728L908.469 252.869L904.338 258H902.067Z" fill="black"/>
<path d="M925.026 232.339C925.609 232.183 926.406 232.183 927.417 232.339C929.634 232.883 931.072 234.089 931.733 235.955L931.85 236.305L932.491 235.722C933.23 234.983 933.91 234.419 934.532 234.03C936.476 232.786 938.615 232.183 940.948 232.222C943.164 232.339 944.855 232.961 946.022 234.089C947.538 235.566 948.063 237.724 947.596 240.562C947.207 242.817 946.138 246.239 944.389 250.827C943.728 252.654 943.397 253.937 943.397 254.676C943.397 255.298 943.533 255.687 943.805 255.842C944.116 255.998 944.602 255.959 945.263 255.725C946.78 255.142 948.005 253.529 948.938 250.885C949.015 250.613 949.093 250.341 949.171 250.068C949.365 249.485 949.56 249.174 949.754 249.135C949.871 249.096 950.221 249.077 950.804 249.077C951.543 249.077 951.97 249.116 952.087 249.194C952.165 249.271 952.204 249.427 952.204 249.66C952.204 250.321 951.815 251.429 951.037 252.984C950.337 254.423 949.482 255.609 948.471 256.542C946.955 257.981 945.302 258.68 943.514 258.642C941.298 258.525 939.742 257.611 938.848 255.9C938.498 255.201 938.323 254.404 938.323 253.509C938.362 252.732 938.595 251.818 939.023 250.768C940.501 246.725 941.453 243.789 941.881 241.962C942.503 239.629 942.62 237.841 942.231 236.596C941.92 235.508 941.162 234.963 939.956 234.963C936.69 234.963 933.93 236.849 931.675 240.62L931.325 241.262L929.4 248.844C928.195 253.82 927.495 256.484 927.301 256.834C926.756 258 925.843 258.603 924.56 258.642C923.938 258.642 923.393 258.467 922.927 258.117C922.732 258.039 922.557 257.825 922.402 257.475C922.207 257.086 922.188 256.503 922.343 255.725C922.538 254.831 923.218 252.032 924.385 247.327C925.901 241.301 926.679 238.171 926.718 237.938C926.951 236.149 926.64 235.158 925.784 234.963C924.696 234.847 923.782 235.741 923.043 237.646C922.771 238.346 922.499 239.26 922.227 240.387L921.935 241.437C921.508 241.67 921.041 241.787 920.536 241.787H919.427L919.252 241.612C919.097 241.456 919.097 241.048 919.252 240.387C920.652 235.527 922.577 232.844 925.026 232.339Z" fill="#0037AC"/>
<path d="M526.882 233.339C527.465 233.183 528.262 233.183 529.273 233.339C531.489 233.883 532.928 235.089 533.589 236.955L533.705 237.305L534.347 236.722C535.086 235.983 535.766 235.419 536.388 235.03C538.332 233.786 540.471 233.183 542.803 233.222C545.02 233.339 546.711 233.961 547.877 235.089C549.394 236.566 549.918 238.724 549.452 241.562C549.063 243.817 547.994 247.239 546.244 251.827C545.583 253.654 545.253 254.937 545.253 255.676C545.253 256.298 545.389 256.687 545.661 256.842C545.972 256.998 546.458 256.959 547.119 256.725C548.635 256.142 549.86 254.529 550.793 251.885C550.871 251.613 550.949 251.341 551.027 251.068C551.221 250.485 551.415 250.174 551.61 250.135C551.726 250.096 552.076 250.077 552.66 250.077C553.398 250.077 553.826 250.116 553.943 250.194C554.02 250.271 554.059 250.427 554.059 250.66C554.059 251.321 553.67 252.429 552.893 253.984C552.193 255.423 551.338 256.609 550.327 257.542C548.81 258.981 547.158 259.68 545.369 259.642C543.153 259.525 541.598 258.611 540.704 256.9C540.354 256.201 540.179 255.404 540.179 254.509C540.218 253.732 540.451 252.818 540.879 251.768C542.356 247.725 543.309 244.789 543.736 242.962C544.359 240.629 544.475 238.841 544.086 237.596C543.775 236.508 543.017 235.963 541.812 235.963C538.546 235.963 535.785 237.849 533.53 241.62L533.18 242.262L531.256 249.844C530.051 254.82 529.351 257.484 529.156 257.834C528.612 259 527.698 259.603 526.415 259.642C525.793 259.642 525.249 259.467 524.782 259.117C524.588 259.039 524.413 258.825 524.257 258.475C524.063 258.086 524.044 257.503 524.199 256.725C524.393 255.831 525.074 253.032 526.24 248.327C527.757 242.301 528.534 239.171 528.573 238.938C528.806 237.149 528.495 236.158 527.64 235.963C526.551 235.847 525.638 236.741 524.899 238.646C524.627 239.346 524.355 240.26 524.082 241.387L523.791 242.437C523.363 242.67 522.897 242.787 522.391 242.787H521.283L521.108 242.612C520.953 242.456 520.953 242.048 521.108 241.387C522.508 236.527 524.432 233.844 526.882 233.339Z" fill="#0037AC"/>
<path d="M562.835 259L568.448 252.363L565.648 246.102H567.625L569.696 250.974L573.626 246.102H575.898L570.508 252.445L573.497 259H571.496L569.237 253.869L565.106 259H562.835Z" fill="black"/>
<path d="M591.102 218.875C594.212 218.642 595.728 218.526 595.651 218.526C596.001 218.526 596.234 218.662 596.35 218.934C596.389 219.089 595.437 223.094 593.493 230.948L590.518 242.729L590.81 242.554C591.899 241.893 593.473 240.59 595.534 238.646C596.817 237.402 597.847 236.449 598.625 235.788C600.763 234 602.805 233.145 604.749 233.222C605.371 233.261 605.876 233.397 606.265 233.631C607.081 234.058 607.645 234.836 607.956 235.963C608.19 236.897 608.228 237.966 608.073 239.171C607.723 241.037 606.887 242.301 605.565 242.962C604.476 243.467 603.446 243.506 602.474 243.078C601.347 242.534 600.919 241.543 601.191 240.104C601.347 239.327 601.716 238.607 602.299 237.946C603.077 237.246 603.913 236.838 604.807 236.722C605.04 236.722 605.157 236.702 605.157 236.663C605.157 236.547 605.021 236.352 604.749 236.08C604.321 235.769 603.466 235.847 602.183 236.313C601.599 236.508 600.919 236.877 600.141 237.421C599.169 238.043 597.731 239.288 595.826 241.154C594.62 242.32 593.707 243.176 593.085 243.72C592.89 243.876 592.851 243.973 592.968 244.012C593.085 244.012 593.337 244.05 593.726 244.128C595.087 244.478 596.098 244.828 596.759 245.178C598.353 245.917 599.461 246.928 600.083 248.211C600.355 248.755 600.491 249.474 600.491 250.369C600.491 250.991 600.433 251.574 600.316 252.118C600.083 253.09 599.966 253.984 599.966 254.801C599.966 255.695 600.102 256.278 600.375 256.551C600.686 256.862 601.191 256.939 601.891 256.784C602.319 256.667 602.707 256.414 603.057 256.026C603.874 255.209 604.651 253.382 605.39 250.544C605.468 250.271 605.76 250.116 606.265 250.077C606.382 250.077 606.576 250.077 606.848 250.077C607.587 250.077 607.995 250.116 608.073 250.194C608.306 250.349 608.306 250.816 608.073 251.593C607.49 253.693 606.654 255.462 605.565 256.9C604.593 258.261 603.446 259.117 602.124 259.467C601.852 259.544 601.385 259.583 600.724 259.583C600.025 259.583 599.519 259.544 599.208 259.467C598.392 259.233 597.731 258.942 597.225 258.592C595.826 257.659 595.009 256.239 594.776 254.334C594.698 253.557 594.756 252.799 594.951 252.06C595.145 251.049 595.145 250.252 594.951 249.669C594.406 248.152 592.871 247.122 590.343 246.578L589.644 246.461L588.244 251.943C587.272 255.715 586.747 257.678 586.669 257.834C586.28 258.65 585.619 259.214 584.686 259.525C584.064 259.68 583.442 259.661 582.82 259.467C582.354 259.272 581.984 258.922 581.712 258.417C581.518 258.106 581.479 257.698 581.595 257.192C581.712 256.414 583.053 250.874 585.619 240.571C588.497 229.14 589.857 223.25 589.702 222.9C589.43 222.627 588.594 222.472 587.194 222.433C586.261 222.433 585.736 222.297 585.619 222.025C585.542 221.908 585.6 221.461 585.794 220.683C585.989 219.867 586.144 219.42 586.261 219.342C586.378 219.225 586.494 219.167 586.611 219.167L591.102 218.875Z" fill="#FF3C00"/>
<path d="M1161 232.281C1161.7 232.203 1162.5 232.222 1163.39 232.339C1165.26 232.767 1166.58 233.7 1167.36 235.138L1167.59 235.605L1168.11 235.138C1169.71 233.7 1171.46 232.767 1173.36 232.339C1174.49 232.183 1175.54 232.203 1176.51 232.397C1178.14 232.747 1179.51 233.466 1180.59 234.555C1181.57 235.527 1182.27 236.713 1182.69 238.113C1183.35 240.057 1183.45 242.176 1182.99 244.47C1182.21 248.708 1180.21 252.226 1176.98 255.026C1176.4 255.531 1175.81 255.978 1175.23 256.367C1174.02 257.145 1172.9 257.708 1171.85 258.058C1170.76 258.408 1169.69 258.583 1168.64 258.583C1167.86 258.583 1167.39 258.564 1167.24 258.525C1165.84 258.214 1164.73 257.592 1163.91 256.659C1163.68 256.425 1163.56 256.328 1163.56 256.367L1161.23 265.698C1161.23 265.815 1161.29 265.873 1161.41 265.873C1161.76 265.99 1162.69 266.048 1164.21 266.048C1164.94 266.048 1165.35 266.087 1165.43 266.165C1165.66 266.243 1165.78 266.418 1165.78 266.69L1165.2 268.964C1165.04 269.198 1164.67 269.295 1164.09 269.256C1163.93 269.256 1163.64 269.256 1163.21 269.256C1158.28 269.1 1154.64 269.12 1152.31 269.314H1151.84L1151.67 269.139C1151.51 268.984 1151.43 268.848 1151.43 268.731L1152.02 266.456V266.398C1152.29 266.165 1152.83 266.048 1153.65 266.048C1154.78 266.009 1155.44 265.893 1155.63 265.698C1155.75 265.582 1156.94 261.033 1159.19 252.051C1161.45 243.031 1162.61 238.307 1162.69 237.879C1162.96 236.013 1162.59 235.041 1161.58 234.963C1161.47 234.963 1161.35 234.963 1161.23 234.963C1160.07 235.197 1159.04 237.102 1158.14 240.679C1157.99 241.145 1157.91 241.398 1157.91 241.437C1157.48 241.67 1157.01 241.787 1156.51 241.787H1155.4L1155.22 241.612C1155.07 241.456 1155.07 241.048 1155.22 240.387C1155.96 237.666 1156.88 235.624 1157.97 234.264C1158.82 233.214 1159.83 232.553 1161 232.281ZM1175.46 235.138C1174.92 234.944 1174.28 234.925 1173.54 235.08C1171.75 235.391 1170 236.616 1168.29 238.754L1167.76 239.396L1166.25 245.519C1165.24 249.602 1164.73 251.663 1164.73 251.701C1164.73 252.09 1164.98 252.79 1165.49 253.801C1165.92 254.54 1166.5 255.103 1167.24 255.492C1168.99 256.386 1170.82 255.939 1172.72 254.151C1174 252.984 1175.07 250.963 1175.93 248.086C1176.59 245.597 1177.06 243.634 1177.33 242.195C1177.83 239.862 1177.87 238.152 1177.44 237.063C1177.06 236.091 1176.4 235.449 1175.46 235.138Z" fill="#0037AC"/>
<path d="M1191.2 258L1196.81 251.363L1194.01 245.102H1195.99L1198.06 249.974L1201.99 245.102H1204.26L1198.87 251.445L1201.86 258H1199.86L1197.6 252.869L1193.47 258H1191.2Z" fill="black"/>
<path d="M1219.46 217.875C1222.57 217.642 1224.09 217.526 1224.01 217.526C1224.36 217.526 1224.6 217.662 1224.71 217.934C1224.75 218.089 1223.8 222.094 1221.85 229.948L1218.88 241.729L1219.17 241.554C1220.26 240.893 1221.83 239.59 1223.9 237.646C1225.18 236.402 1226.21 235.449 1226.99 234.788C1229.12 233 1231.17 232.145 1233.11 232.222C1233.73 232.261 1234.24 232.397 1234.63 232.631C1235.44 233.058 1236.01 233.836 1236.32 234.963C1236.55 235.897 1236.59 236.966 1236.43 238.171C1236.08 240.037 1235.25 241.301 1233.93 241.962C1232.84 242.467 1231.81 242.506 1230.84 242.078C1229.71 241.534 1229.28 240.543 1229.55 239.104C1229.71 238.327 1230.08 237.607 1230.66 236.946C1231.44 236.246 1232.27 235.838 1233.17 235.722C1233.4 235.722 1233.52 235.702 1233.52 235.663C1233.52 235.547 1233.38 235.352 1233.11 235.08C1232.68 234.769 1231.83 234.847 1230.54 235.313C1229.96 235.508 1229.28 235.877 1228.5 236.421C1227.53 237.043 1226.09 238.288 1224.19 240.154C1222.98 241.32 1222.07 242.176 1221.45 242.72C1221.25 242.876 1221.21 242.973 1221.33 243.012C1221.45 243.012 1221.7 243.05 1222.09 243.128C1223.45 243.478 1224.46 243.828 1225.12 244.178C1226.71 244.917 1227.82 245.928 1228.44 247.211C1228.72 247.755 1228.85 248.474 1228.85 249.369C1228.85 249.991 1228.79 250.574 1228.68 251.118C1228.44 252.09 1228.33 252.984 1228.33 253.801C1228.33 254.695 1228.46 255.278 1228.74 255.551C1229.05 255.862 1229.55 255.939 1230.25 255.784C1230.68 255.667 1231.07 255.414 1231.42 255.026C1232.24 254.209 1233.01 252.382 1233.75 249.544C1233.83 249.271 1234.12 249.116 1234.63 249.077C1234.74 249.077 1234.94 249.077 1235.21 249.077C1235.95 249.077 1236.36 249.116 1236.43 249.194C1236.67 249.349 1236.67 249.816 1236.43 250.593C1235.85 252.693 1235.02 254.462 1233.93 255.9C1232.95 257.261 1231.81 258.117 1230.49 258.467C1230.21 258.544 1229.75 258.583 1229.09 258.583C1228.39 258.583 1227.88 258.544 1227.57 258.467C1226.75 258.233 1226.09 257.942 1225.59 257.592C1224.19 256.659 1223.37 255.239 1223.14 253.334C1223.06 252.557 1223.12 251.799 1223.31 251.06C1223.51 250.049 1223.51 249.252 1223.31 248.669C1222.77 247.152 1221.23 246.122 1218.71 245.578L1218.01 245.461L1216.61 250.943C1215.63 254.715 1215.11 256.678 1215.03 256.834C1214.64 257.65 1213.98 258.214 1213.05 258.525C1212.43 258.68 1211.8 258.661 1211.18 258.467C1210.72 258.272 1210.35 257.922 1210.07 257.417C1209.88 257.106 1209.84 256.698 1209.96 256.192C1210.07 255.414 1211.41 249.874 1213.98 239.571C1216.86 228.14 1218.22 222.25 1218.06 221.9C1217.79 221.627 1216.96 221.472 1215.56 221.433C1214.62 221.433 1214.1 221.297 1213.98 221.025C1213.9 220.908 1213.96 220.461 1214.16 219.683C1214.35 218.867 1214.51 218.42 1214.62 218.342C1214.74 218.225 1214.86 218.167 1214.97 218.167L1219.46 217.875Z" fill="#FF3C00"/>
<rect x="283" y="224" width="37" height="45" rx="4" stroke="#558F02" stroke-width="2" stroke-dasharray="3 3"/>
<rect x="917" y="223" width="37" height="45" rx="4" stroke="#C90000" stroke-width="2" stroke-dasharray="3 3"/>
<rect x="519" y="224" width="36" height="45" rx="4" stroke="#558F02" stroke-width="2" stroke-dasharray="3 3"/>
<rect x="1150" y="223" width="39" height="51" rx="4" stroke="#C90000" stroke-width="2" stroke-dasharray="3 3"/>
<path d="M322 244L332 249.774L332 238.226L322 244ZM518 244L508 238.227L508 249.774L518 244ZM331 244L331 245L509 245L509 244L509 243L331 243L331 244Z" fill="#558F02"/>
<path d="M956 243L966 248.774L966 237.226L956 243ZM1147 243L1137 237.227L1137 248.774L1147 243ZM965 243L965 244L1138 244L1138 243L1138 242L965 242L965 243Z" fill="#C90000"/>
<path d="M437 284C437 286.209 435.209 288 433 288H405C402.791 288 401 286.209 401 284V256C401 253.791 402.791 252 405 252H433C435.209 252 437 253.791 437 256V284Z" fill="#77B255"/>
<path d="M430.28 258.362C429.124 257.611 427.576 257.94 426.822 259.098L415.936 275.877L410.907 271.227C409.893 270.289 408.311 270.352 407.374 271.365C406.437 272.379 406.499 273.961 407.513 274.898L414.722 281.564C415.202 282.009 415.812 282.229 416.418 282.229C417.091 282.229 417.952 281.947 418.517 281.09C418.849 280.584 431.017 261.82 431.017 261.82C431.768 260.661 431.438 259.113 430.28 258.362Z" fill="white"/>
<path d="M417.324 121.933C417.324 119.013 417.988 116.79 419.315 115.264C420.642 113.671 422.6 112.875 425.188 112.875C428.041 112.875 430.131 113.671 431.458 115.264C432.786 116.79 433.449 119.013 433.449 121.933C433.449 124.853 432.786 127.109 431.458 128.701C430.131 130.294 428.041 131.09 425.188 131.09C422.6 131.09 420.642 130.294 419.315 128.701C417.988 127.109 417.324 124.853 417.324 121.933Z" fill="black"/>
<path d="M1051.32 120.933C1051.32 118.013 1051.99 115.79 1053.31 114.264C1054.64 112.671 1056.6 111.875 1059.19 111.875C1062.04 111.875 1064.13 112.671 1065.46 114.264C1066.79 115.79 1067.45 118.013 1067.45 120.933C1067.45 123.853 1066.79 126.109 1065.46 127.701C1064.13 129.294 1062.04 130.09 1059.19 130.09C1056.6 130.09 1054.64 129.294 1053.31 127.701C1051.99 126.109 1051.32 123.853 1051.32 120.933Z" fill="black"/>
<path d="M1073 283C1073 285.209 1071.21 287 1069 287H1041C1038.79 287 1037 285.209 1037 283V255C1037 252.791 1038.79 251 1041 251H1069C1071.21 251 1073 252.791 1073 255V283Z" fill="#C90000"/>
<path d="M1058.53 269.006L1066.77 260.768C1067.74 259.792 1067.74 258.209 1066.77 257.233C1065.79 256.256 1064.21 256.256 1063.23 257.233L1054.99 265.471L1046.76 257.233C1045.78 256.256 1044.2 256.256 1043.22 257.233C1042.24 258.209 1042.24 259.792 1043.22 260.768L1051.46 269.006L1043.2 277.264C1042.22 278.241 1042.22 279.823 1043.2 280.799C1043.69 281.287 1044.33 281.531 1044.97 281.531C1045.61 281.531 1046.25 281.287 1046.74 280.799L1054.99 272.54L1063.23 280.778C1063.72 281.266 1064.36 281.51 1065 281.51C1065.64 281.51 1066.28 281.266 1066.77 280.778C1067.75 279.801 1067.75 278.219 1066.77 277.243L1058.53 269.006Z" fill="white"/>
<line x1="701.5" y1="10.5" x2="701.5" y2="294.5" stroke="#C90000" stroke-width="3" stroke-linecap="round"/>
</svg>
