<svg width="1400" height="350" viewBox="0 0 1400 350" fill="none" xmlns="http://www.w3.org/2000/svg">
<rect width="1400" height="350" fill="white"/>
<rect x="505.39" y="323.186" width="19.1617" height="19.1617" rx="3.74252" fill="#0037AC"/>
<path d="M512.812 328.192C512.685 327.882 512.247 327.882 512.12 328.192L511.92 328.678C511.883 328.769 511.883 328.871 511.92 328.962L514.593 335.522C514.693 335.768 514.512 336.037 514.247 336.037H511.586H510.687C510.421 336.037 510.24 335.767 510.341 335.521L510.803 334.397C510.84 334.306 510.84 334.205 510.803 334.114L510.593 333.599C510.467 333.288 510.028 333.288 509.9 333.598L508.644 336.659C508.543 336.905 508.724 337.175 508.99 337.175H515.942C516.208 337.175 516.389 336.905 516.288 336.659L512.812 328.192Z" fill="white"/>
<path d="M515.348 330.011C515.247 329.765 515.428 329.496 515.694 329.496H518.355H519.253C519.519 329.496 519.701 329.766 519.599 330.012L519.138 331.136C519.101 331.227 519.101 331.329 519.138 331.419L519.348 331.934C519.474 332.245 519.913 332.245 520.04 331.935L521.297 328.874C521.398 328.628 521.217 328.358 520.951 328.358H513.999C513.732 328.358 513.551 328.628 513.652 328.874L517.128 337.341C517.256 337.651 517.694 337.651 517.821 337.341L518.021 336.855C518.058 336.764 518.058 336.662 518.021 336.571L515.348 330.011Z" fill="white"/>
<path d="M536.368 334.455H533.656L533.128 336.281H531.83L534.245 328.69H535.829L538.25 336.281H536.896L536.368 334.455ZM533.92 333.47H536.099L535.015 329.68L533.92 333.47ZM540.545 330.472V334.532C540.545 334.877 540.613 335.122 540.748 335.269C540.888 335.416 541.097 335.489 541.375 335.489C541.64 335.489 541.894 335.41 542.14 335.253C542.386 335.095 542.58 334.902 542.723 334.675V330.472H543.955V336.281H542.894L542.817 335.539C542.6 335.828 542.327 336.05 541.997 336.204C541.667 336.355 541.33 336.43 540.985 336.43C540.424 336.43 540.004 336.276 539.725 335.968C539.45 335.656 539.313 335.229 539.313 334.686V330.472H540.545ZM550.762 335.973C550.549 336.109 550.294 336.219 549.997 336.303C549.7 336.388 549.39 336.43 549.067 336.43C548.392 336.43 547.879 336.256 547.527 335.907C547.179 335.555 547.004 335.093 547.004 334.521V331.369H545.712V330.472H547.004V329.174L548.237 329.025V330.472H550.195L550.057 331.369H548.237V334.51C548.237 334.822 548.314 335.055 548.468 335.209C548.625 335.359 548.882 335.434 549.238 335.434C549.45 335.434 549.647 335.408 549.826 335.357C550.006 335.306 550.169 335.24 550.316 335.159L550.762 335.973ZM554.834 330.318C555.402 330.318 555.881 330.445 556.269 330.698C556.658 330.951 556.952 331.305 557.15 331.759C557.351 332.214 557.452 332.75 557.452 333.366C557.452 333.978 557.349 334.515 557.144 334.977C556.942 335.436 556.645 335.793 556.253 336.05C555.864 336.303 555.389 336.43 554.828 336.43C554.267 336.43 553.79 336.307 553.398 336.061C553.009 335.812 552.712 335.458 552.507 334.999C552.305 334.541 552.204 334 552.204 333.377C552.204 332.772 552.305 332.24 552.507 331.781C552.712 331.323 553.011 330.965 553.403 330.709C553.796 330.448 554.272 330.318 554.834 330.318ZM554.834 331.275C554.39 331.275 554.056 331.446 553.832 331.787C553.609 332.124 553.497 332.654 553.497 333.377C553.497 334.095 553.607 334.625 553.827 334.966C554.051 335.308 554.384 335.478 554.828 335.478C555.272 335.478 555.604 335.308 555.824 334.966C556.048 334.625 556.159 334.092 556.159 333.366C556.159 332.651 556.049 332.124 555.829 331.787C555.609 331.446 555.277 331.275 554.834 331.275ZM559.159 336.281V335.401H560.011V331.347H559.159V330.472H560.952L561.178 331.82C561.394 331.332 561.662 330.962 561.981 330.709C562.303 330.452 562.718 330.324 563.224 330.324C563.396 330.324 563.55 330.338 563.686 330.368C563.825 330.393 563.963 330.428 564.099 330.472L563.73 331.528C563.613 331.495 563.503 331.471 563.4 331.457C563.297 331.438 563.184 331.429 563.059 331.429C562.637 331.429 562.272 331.587 561.964 331.902C561.66 332.218 561.42 332.665 561.244 333.245V335.401H562.415V336.281H559.159ZM563.009 332.612V331.182L563.163 330.472H564.099L563.89 332.612H563.009ZM567.026 335.434C567.026 335.166 567.122 334.937 567.313 334.746C567.503 334.552 567.738 334.455 568.017 334.455C568.299 334.455 568.534 334.552 568.721 334.746C568.912 334.937 569.007 335.166 569.007 335.434C569.007 335.709 568.912 335.944 568.721 336.138C568.534 336.333 568.299 336.43 568.017 336.43C567.738 336.43 567.503 336.333 567.313 336.138C567.122 335.944 567.026 335.709 567.026 335.434ZM567.026 331.528C567.026 331.349 567.07 331.184 567.158 331.033C567.247 330.883 567.366 330.764 567.516 330.676C567.666 330.588 567.833 330.544 568.017 330.544C568.299 330.544 568.534 330.641 568.721 330.835C568.912 331.026 569.007 331.257 569.007 331.528C569.007 331.8 568.912 332.034 568.721 332.232C568.534 332.427 568.299 332.524 568.017 332.524C567.738 332.524 567.503 332.427 567.313 332.232C567.122 332.034 567.026 331.8 567.026 331.528ZM583.714 328.657V333.536C583.714 333.98 583.646 334.382 583.51 334.741C583.375 335.1 583.175 335.407 582.911 335.66C582.65 335.913 582.329 336.107 581.948 336.243C581.57 336.378 581.137 336.446 580.65 336.446C580.158 336.446 579.733 336.384 579.373 336.259C579.018 336.131 578.675 335.955 578.345 335.731L579.032 334.62C579.293 334.8 579.537 334.926 579.764 334.999C579.991 335.069 580.25 335.104 580.54 335.104C580.932 335.104 581.258 334.979 581.519 334.73C581.783 334.477 581.915 334.086 581.915 333.558V329.977H579.571V328.657H583.714ZM587.813 330.247C588.415 330.247 588.926 330.375 589.348 330.632C589.77 330.888 590.093 331.25 590.316 331.715C590.54 332.177 590.652 332.72 590.652 333.344C590.652 333.993 590.538 334.552 590.311 335.021C590.087 335.487 589.764 335.845 589.343 336.094C588.921 336.344 588.411 336.468 587.813 336.468C587.219 336.468 586.709 336.345 586.284 336.1C585.862 335.854 585.538 335.498 585.31 335.032C585.087 334.567 584.975 334.007 584.975 333.355C584.975 332.735 585.087 332.192 585.31 331.726C585.538 331.261 585.862 330.897 586.284 330.637C586.709 330.377 587.219 330.247 587.813 330.247ZM587.813 331.528C587.458 331.528 587.193 331.675 587.021 331.968C586.852 332.258 586.768 332.72 586.768 333.355C586.768 334 586.852 334.468 587.021 334.757C587.193 335.047 587.458 335.192 587.813 335.192C588.169 335.192 588.431 335.047 588.6 334.757C588.772 334.468 588.858 333.996 588.858 333.344C588.858 332.713 588.772 332.253 588.6 331.963C588.431 331.673 588.169 331.528 587.813 331.528ZM594.223 335.225C594.513 335.225 594.746 335.179 594.922 335.088C595.102 334.996 595.191 334.858 595.191 334.675C595.191 334.55 595.157 334.446 595.087 334.361C595.017 334.277 594.883 334.196 594.685 334.119C594.487 334.042 594.194 333.951 593.805 333.844C593.449 333.749 593.134 333.628 592.859 333.481C592.588 333.334 592.375 333.146 592.221 332.915C592.07 332.684 591.995 332.396 591.995 332.051C591.995 331.702 592.092 331.393 592.287 331.121C592.481 330.85 592.767 330.637 593.145 330.483C593.523 330.325 593.985 330.247 594.531 330.247C595.052 330.247 595.505 330.314 595.89 330.45C596.279 330.582 596.614 330.751 596.897 330.956L596.204 331.979C595.962 331.829 595.701 331.71 595.423 331.622C595.144 331.53 594.863 331.484 594.581 331.484C594.298 331.484 594.088 331.523 593.948 331.6C593.813 331.673 593.745 331.785 593.745 331.935C593.745 332.034 593.78 332.121 593.849 332.194C593.923 332.264 594.058 332.337 594.256 332.414C594.454 332.487 594.744 332.579 595.125 332.689C595.503 332.795 595.831 332.918 596.11 333.058C596.393 333.197 596.611 333.384 596.765 333.619C596.919 333.85 596.996 334.156 596.996 334.537C596.996 334.963 596.869 335.32 596.616 335.61C596.363 335.896 596.028 336.111 595.61 336.254C595.191 336.397 594.733 336.468 594.234 336.468C593.669 336.468 593.171 336.388 592.738 336.226C592.305 336.065 591.937 335.852 591.632 335.588L592.507 334.609C592.734 334.785 592.991 334.932 593.277 335.049C593.567 335.166 593.882 335.225 594.223 335.225ZM599.984 333.866C600.024 334.185 600.107 334.444 600.232 334.642C600.36 334.836 600.523 334.979 600.721 335.071C600.919 335.159 601.141 335.203 601.387 335.203C601.655 335.203 601.913 335.159 602.163 335.071C602.412 334.983 602.652 334.866 602.883 334.719L603.582 335.665C603.307 335.9 602.973 336.092 602.581 336.243C602.192 336.393 601.748 336.468 601.249 336.468C600.582 336.468 600.023 336.336 599.572 336.072C599.12 335.804 598.781 335.438 598.554 334.972C598.326 334.506 598.213 333.971 598.213 333.366C598.213 332.79 598.323 332.267 598.543 331.798C598.763 331.325 599.084 330.949 599.506 330.67C599.931 330.388 600.45 330.247 601.062 330.247C601.62 330.247 602.102 330.366 602.509 330.604C602.92 330.842 603.237 331.185 603.461 331.633C603.688 332.08 603.802 332.618 603.802 333.245C603.802 333.344 603.798 333.45 603.791 333.564C603.787 333.677 603.78 333.778 603.769 333.866H599.984ZM601.062 331.413C600.751 331.413 600.499 331.525 600.309 331.748C600.118 331.972 600.002 332.33 599.962 332.821H602.108C602.104 332.396 602.021 332.055 601.86 331.798C601.699 331.541 601.433 331.413 601.062 331.413ZM608.309 330.247C608.818 330.247 609.229 330.373 609.541 330.626C609.852 330.879 610.08 331.237 610.223 331.699C610.37 332.161 610.443 332.709 610.443 333.344C610.443 333.945 610.355 334.482 610.179 334.955C610.003 335.425 609.748 335.795 609.414 336.067C609.081 336.334 608.675 336.468 608.198 336.468C607.63 336.468 607.168 336.265 606.812 335.858V338.537L605.074 338.718V330.439H606.614L606.691 331.094C606.93 330.789 607.19 330.573 607.472 330.445C607.755 330.313 608.033 330.247 608.309 330.247ZM607.769 331.528C607.568 331.528 607.39 331.589 607.236 331.71C607.082 331.831 606.941 331.996 606.812 332.205V334.669C606.933 334.849 607.06 334.981 607.192 335.066C607.327 335.15 607.487 335.192 607.67 335.192C607.978 335.192 608.219 335.053 608.391 334.774C608.563 334.492 608.65 334.022 608.65 333.366C608.65 332.882 608.615 332.507 608.545 332.243C608.475 331.976 608.375 331.791 608.242 331.688C608.11 331.581 607.953 331.528 607.769 331.528ZM613.409 327.947V331.017C613.655 330.756 613.921 330.564 614.207 330.439C614.497 330.311 614.803 330.247 615.126 330.247C615.646 330.247 616.044 330.399 616.319 330.703C616.594 331.008 616.732 331.437 616.732 331.99V336.281H614.994V332.474C614.994 332.122 614.953 331.877 614.873 331.737C614.796 331.598 614.649 331.528 614.432 331.528C614.311 331.528 614.192 331.558 614.075 331.616C613.961 331.671 613.849 331.752 613.739 331.858C613.629 331.965 613.519 332.091 613.409 332.238V336.281H611.671V328.118L613.409 327.947ZM630.344 334.053C630.344 334.526 630.219 334.944 629.97 335.308C629.724 335.671 629.37 335.955 628.908 336.16C628.446 336.366 627.891 336.468 627.241 336.468C626.523 336.468 625.919 336.364 625.432 336.155C624.947 335.942 624.546 335.68 624.227 335.368L625.14 334.356C625.422 334.602 625.734 334.792 626.075 334.928C626.416 335.06 626.79 335.126 627.197 335.126C627.45 335.126 627.672 335.089 627.863 335.016C628.054 334.943 628.202 334.836 628.309 334.697C628.415 334.558 628.468 334.389 628.468 334.191C628.468 334.004 628.426 333.846 628.342 333.718C628.257 333.589 628.114 333.474 627.913 333.371C627.715 333.268 627.438 333.164 627.082 333.058C626.488 332.874 626.009 332.673 625.646 332.452C625.287 332.232 625.024 331.978 624.859 331.688C624.698 331.398 624.617 331.061 624.617 330.676C624.617 330.21 624.746 329.812 625.002 329.482C625.263 329.152 625.611 328.901 626.048 328.728C626.484 328.552 626.965 328.464 627.489 328.464C628.079 328.464 628.6 328.55 629.051 328.723C629.502 328.891 629.893 329.133 630.223 329.449L629.37 330.428C629.114 330.212 628.837 330.052 628.54 329.949C628.243 329.843 627.94 329.79 627.632 329.79C627.405 329.79 627.205 329.819 627.032 329.878C626.86 329.933 626.726 330.015 626.631 330.126C626.535 330.236 626.488 330.373 626.488 330.538C626.488 330.699 626.534 330.835 626.625 330.945C626.717 331.055 626.877 331.16 627.104 331.259C627.331 331.354 627.647 331.466 628.05 331.594C628.531 331.741 628.941 331.917 629.282 332.122C629.627 332.324 629.889 332.579 630.069 332.887C630.252 333.195 630.344 333.584 630.344 334.053ZM636.38 334.598C636.38 334.818 636.409 334.977 636.468 335.077C636.53 335.176 636.629 335.251 636.765 335.302L636.407 336.446C636.063 336.413 635.771 336.338 635.533 336.221C635.298 336.1 635.113 335.918 634.977 335.676C634.753 335.944 634.467 336.144 634.119 336.276C633.771 336.404 633.415 336.468 633.052 336.468C632.45 336.468 631.97 336.298 631.611 335.957C631.255 335.612 631.077 335.17 631.077 334.631C631.077 333.996 631.324 333.507 631.82 333.162C632.318 332.817 633.019 332.645 633.921 332.645H634.708V332.425C634.708 332.121 634.609 331.895 634.411 331.748C634.216 331.602 633.93 331.528 633.552 331.528C633.365 331.528 633.125 331.556 632.832 331.611C632.538 331.662 632.245 331.737 631.952 331.836L631.55 330.681C631.928 330.538 632.32 330.43 632.727 330.357C633.138 330.283 633.505 330.247 633.827 330.247C634.697 330.247 635.338 330.424 635.753 330.78C636.171 331.132 636.38 331.642 636.38 332.309V334.598ZM633.651 335.225C633.838 335.225 634.035 335.17 634.24 335.06C634.445 334.946 634.601 334.787 634.708 334.581V333.635H634.279C633.794 333.635 633.439 333.71 633.211 333.861C632.984 334.007 632.87 334.224 632.87 334.51C632.87 334.734 632.938 334.91 633.074 335.038C633.213 335.163 633.406 335.225 633.651 335.225ZM638.059 336.281V330.439H639.577L639.698 331.116C639.959 330.822 640.234 330.604 640.524 330.461C640.813 330.318 641.143 330.247 641.514 330.247C642.012 330.247 642.405 330.399 642.691 330.703C642.977 331.008 643.12 331.437 643.12 331.99V336.281H641.382V332.491C641.382 332.253 641.365 332.064 641.332 331.924C641.299 331.781 641.241 331.68 641.156 331.622C641.075 331.559 640.964 331.528 640.821 331.528C640.7 331.528 640.58 331.556 640.463 331.611C640.349 331.662 640.237 331.737 640.127 331.836C640.017 331.935 639.907 332.055 639.797 332.194V336.281H638.059ZM649.915 335.94C649.688 336.087 649.413 336.212 649.09 336.314C648.767 336.417 648.404 336.468 648.001 336.468C647.238 336.468 646.671 336.274 646.301 335.885C645.93 335.493 645.745 334.961 645.745 334.29V331.638H644.519V330.439H645.745V329.174L647.484 328.965V330.439H649.365L649.194 331.638H647.484V334.29C647.484 334.58 647.55 334.787 647.682 334.911C647.814 335.036 648.025 335.099 648.314 335.099C648.52 335.099 648.707 335.075 648.875 335.027C649.048 334.976 649.202 334.911 649.338 334.834L649.915 335.94ZM654.823 330.439V335.093H656.309V336.281H651.429V335.093H653.085V331.627H651.484V330.439H654.823ZM653.773 327.38C654.073 327.38 654.319 327.474 654.51 327.661C654.7 327.848 654.796 328.081 654.796 328.36C654.796 328.638 654.7 328.873 654.51 329.064C654.319 329.251 654.073 329.344 653.773 329.344C653.468 329.344 653.219 329.251 653.024 329.064C652.834 328.873 652.738 328.638 652.738 328.36C652.738 328.081 652.834 327.848 653.024 327.661C653.219 327.474 653.468 327.38 653.773 327.38ZM662.768 334.598C662.768 334.818 662.797 334.977 662.856 335.077C662.918 335.176 663.018 335.251 663.153 335.302L662.796 336.446C662.451 336.413 662.159 336.338 661.921 336.221C661.686 336.1 661.501 335.918 661.365 335.676C661.142 335.944 660.856 336.144 660.507 336.276C660.159 336.404 659.803 336.468 659.44 336.468C658.838 336.468 658.358 336.298 657.999 335.957C657.643 335.612 657.465 335.17 657.465 334.631C657.465 333.996 657.713 333.507 658.208 333.162C658.706 332.817 659.407 332.645 660.309 332.645H661.096V332.425C661.096 332.121 660.997 331.895 660.799 331.748C660.604 331.602 660.318 331.528 659.941 331.528C659.754 331.528 659.513 331.556 659.22 331.611C658.927 331.662 658.633 331.737 658.34 331.836L657.938 330.681C658.316 330.538 658.708 330.43 659.115 330.357C659.526 330.283 659.893 330.247 660.216 330.247C661.085 330.247 661.727 330.424 662.141 330.78C662.559 331.132 662.768 331.642 662.768 332.309V334.598ZM660.04 335.225C660.227 335.225 660.423 335.17 660.628 335.06C660.834 334.946 660.989 334.787 661.096 334.581V333.635H660.667C660.183 333.635 659.827 333.71 659.599 333.861C659.372 334.007 659.258 334.224 659.258 334.51C659.258 334.734 659.326 334.91 659.462 335.038C659.601 335.163 659.794 335.225 660.04 335.225ZM669.635 329.504L670.042 330.78C669.836 330.861 669.596 330.92 669.321 330.956C669.046 330.993 668.725 331.011 668.358 331.011C668.725 331.169 669.004 331.365 669.195 331.6C669.389 331.831 669.486 332.135 669.486 332.513C669.486 332.891 669.385 333.228 669.184 333.525C668.982 333.819 668.696 334.05 668.325 334.218C667.955 334.387 667.517 334.471 667.011 334.471C666.886 334.471 666.769 334.466 666.659 334.455C666.549 334.444 666.44 334.427 666.334 334.405C666.272 334.438 666.224 334.486 666.191 334.548C666.158 334.611 666.141 334.675 666.141 334.741C666.141 334.833 666.178 334.915 666.252 334.988C666.329 335.062 666.506 335.099 666.785 335.099H667.742C668.197 335.099 668.589 335.172 668.92 335.319C669.253 335.465 669.512 335.665 669.695 335.918C669.879 336.171 669.97 336.461 669.97 336.787C669.97 337.385 669.708 337.856 669.184 338.201C668.659 338.546 667.88 338.718 666.846 338.718C666.097 338.718 665.518 338.641 665.107 338.487C664.7 338.337 664.416 338.12 664.255 337.838C664.097 337.559 664.018 337.227 664.018 336.842H665.558C665.558 337.011 665.591 337.149 665.657 337.255C665.727 337.365 665.857 337.446 666.048 337.497C666.242 337.548 666.523 337.574 666.89 337.574C667.26 337.574 667.542 337.545 667.737 337.486C667.931 337.427 668.063 337.347 668.133 337.244C668.206 337.145 668.243 337.033 668.243 336.908C668.243 336.736 668.175 336.597 668.039 336.49C667.904 336.384 667.689 336.331 667.396 336.331H666.466C665.835 336.331 665.377 336.215 665.091 335.984C664.805 335.749 664.662 335.476 664.662 335.165C664.662 334.948 664.719 334.743 664.832 334.548C664.95 334.354 665.113 334.191 665.322 334.059C664.948 333.861 664.68 333.628 664.519 333.36C664.357 333.089 664.277 332.764 664.277 332.386C664.277 331.946 664.388 331.569 664.612 331.253C664.836 330.934 665.144 330.688 665.536 330.516C665.932 330.344 666.384 330.258 666.89 330.258C667.326 330.265 667.706 330.236 668.028 330.17C668.351 330.1 668.641 330.006 668.898 329.889C669.154 329.768 669.4 329.64 669.635 329.504ZM666.934 331.385C666.659 331.385 666.44 331.473 666.279 331.649C666.118 331.822 666.037 332.06 666.037 332.364C666.037 332.687 666.119 332.935 666.285 333.107C666.45 333.279 666.666 333.366 666.934 333.366C667.223 333.366 667.443 333.279 667.594 333.107C667.748 332.935 667.825 332.68 667.825 332.342C667.825 332.016 667.75 331.776 667.599 331.622C667.449 331.464 667.227 331.385 666.934 331.385ZM673.575 330.247C674.176 330.247 674.688 330.375 675.11 330.632C675.531 330.888 675.854 331.25 676.078 331.715C676.301 332.177 676.413 332.72 676.413 333.344C676.413 333.993 676.3 334.552 676.072 335.021C675.849 335.487 675.526 335.845 675.104 336.094C674.682 336.344 674.173 336.468 673.575 336.468C672.981 336.468 672.471 336.345 672.045 336.1C671.624 335.854 671.299 335.498 671.072 335.032C670.848 334.567 670.736 334.007 670.736 333.355C670.736 332.735 670.848 332.192 671.072 331.726C671.299 331.261 671.624 330.897 672.045 330.637C672.471 330.377 672.981 330.247 673.575 330.247ZM673.575 331.528C673.219 331.528 672.955 331.675 672.783 331.968C672.614 332.258 672.53 332.72 672.53 333.355C672.53 334 672.614 334.468 672.783 334.757C672.955 335.047 673.219 335.192 673.575 335.192C673.93 335.192 674.193 335.047 674.361 334.757C674.534 334.468 674.62 333.996 674.62 333.344C674.62 332.713 674.534 332.253 674.361 331.963C674.193 331.673 673.93 331.528 673.575 331.528ZM687.952 331.143C687.952 330.872 687.9 330.648 687.797 330.472C687.698 330.292 687.546 330.16 687.341 330.076C687.139 329.988 686.884 329.944 686.576 329.944H685.96V332.436H686.67C686.937 332.436 687.167 332.39 687.357 332.298C687.548 332.207 687.695 332.066 687.797 331.875C687.9 331.684 687.952 331.44 687.952 331.143ZM689.811 331.138C689.811 331.728 689.684 332.216 689.431 332.601C689.178 332.986 688.824 333.274 688.37 333.465C687.915 333.652 687.387 333.745 686.785 333.745H685.96V336.281H684.156V328.657H686.554C687.588 328.657 688.39 328.862 688.958 329.273C689.527 329.684 689.811 330.305 689.811 331.138ZM693.366 330.247C693.967 330.247 694.479 330.375 694.901 330.632C695.322 330.888 695.645 331.25 695.869 331.715C696.093 332.177 696.204 332.72 696.204 333.344C696.204 333.993 696.091 334.552 695.863 335.021C695.64 335.487 695.317 335.845 694.895 336.094C694.473 336.344 693.964 336.468 693.366 336.468C692.772 336.468 692.262 336.345 691.836 336.1C691.415 335.854 691.09 335.498 690.863 335.032C690.639 334.567 690.527 334.007 690.527 333.355C690.527 332.735 690.639 332.192 690.863 331.726C691.09 331.261 691.415 330.897 691.836 330.637C692.262 330.377 692.772 330.247 693.366 330.247ZM693.366 331.528C693.01 331.528 692.746 331.675 692.574 331.968C692.405 332.258 692.321 332.72 692.321 333.355C692.321 334 692.405 334.468 692.574 334.757C692.746 335.047 693.01 335.192 693.366 335.192C693.722 335.192 693.984 335.047 694.152 334.757C694.325 334.468 694.411 333.996 694.411 333.344C694.411 332.713 694.325 332.253 694.152 331.963C693.984 331.673 693.722 331.528 693.366 331.528ZM697.487 336.281V335.115H698.257V331.594H697.487V330.439H699.583L699.902 331.754C700.111 331.251 700.377 330.877 700.7 330.632C701.026 330.386 701.424 330.263 701.894 330.263C702.092 330.263 702.268 330.28 702.422 330.313C702.576 330.342 702.721 330.384 702.856 330.439L702.328 331.875C702.222 331.846 702.116 331.824 702.009 331.809C701.903 331.794 701.786 331.787 701.657 331.787C701.276 331.787 700.94 331.943 700.65 332.254C700.364 332.566 700.146 332.962 699.996 333.443V335.115H701.151V336.281H697.487ZM701.443 332.882V331.176L701.701 330.439H702.856L702.532 332.882H701.443ZM709.288 335.94C709.061 336.087 708.786 336.212 708.463 336.314C708.141 336.417 707.777 336.468 707.374 336.468C706.611 336.468 706.045 336.274 705.674 335.885C705.304 335.493 705.119 334.961 705.119 334.29V331.638H703.892V330.439H705.119V329.174L706.857 328.965V330.439H708.738L708.568 331.638H706.857V334.29C706.857 334.58 706.923 334.787 707.055 334.911C707.187 335.036 707.398 335.099 707.688 335.099C707.893 335.099 708.08 335.075 708.249 335.027C708.421 334.976 708.575 334.911 708.711 334.834L709.288 335.94ZM714.197 330.439V335.093H715.682V336.281H710.802V335.093H712.458V331.627H710.857V330.439H714.197ZM713.146 327.38C713.447 327.38 713.692 327.474 713.883 327.661C714.074 327.848 714.169 328.081 714.169 328.36C714.169 328.638 714.074 328.873 713.883 329.064C713.692 329.251 713.447 329.344 713.146 329.344C712.842 329.344 712.592 329.251 712.398 329.064C712.207 328.873 712.112 328.638 712.112 328.36C712.112 328.081 712.207 327.848 712.398 327.661C712.592 327.474 712.842 327.38 713.146 327.38ZM720.271 328.118V334.444C720.271 334.679 720.337 334.847 720.469 334.95C720.605 335.049 720.79 335.099 721.025 335.099C721.175 335.099 721.32 335.082 721.459 335.049C721.599 335.012 721.729 334.97 721.85 334.922L722.268 336.083C722.07 336.186 721.832 336.276 721.553 336.353C721.274 336.43 720.95 336.468 720.579 336.468C719.875 336.468 719.358 336.267 719.028 335.863C718.698 335.456 718.533 334.911 718.533 334.229V329.306H716.811V328.118H720.271ZM726.868 328.118V334.444C726.868 334.679 726.934 334.847 727.066 334.95C727.202 335.049 727.387 335.099 727.622 335.099C727.772 335.099 727.917 335.082 728.056 335.049C728.196 335.012 728.326 334.97 728.447 334.922L728.865 336.083C728.667 336.186 728.429 336.276 728.15 336.353C727.871 336.43 727.547 336.468 727.176 336.468C726.472 336.468 725.955 336.267 725.625 335.863C725.295 335.456 725.13 334.911 725.13 334.229V329.306H723.408V328.118H726.868ZM735.336 334.598C735.336 334.818 735.365 334.977 735.424 335.077C735.486 335.176 735.585 335.251 735.721 335.302L735.363 336.446C735.018 336.413 734.727 336.338 734.488 336.221C734.254 336.1 734.068 335.918 733.933 335.676C733.709 335.944 733.423 336.144 733.075 336.276C732.726 336.404 732.37 336.468 732.007 336.468C731.406 336.468 730.925 336.298 730.566 335.957C730.21 335.612 730.032 335.17 730.032 334.631C730.032 333.996 730.28 333.507 730.775 333.162C731.274 332.817 731.974 332.645 732.877 332.645H733.663V332.425C733.663 332.121 733.564 331.895 733.366 331.748C733.172 331.602 732.886 331.528 732.508 331.528C732.321 331.528 732.081 331.556 731.787 331.611C731.494 331.662 731.201 331.737 730.907 331.836L730.506 330.681C730.883 330.538 731.276 330.43 731.683 330.357C732.094 330.283 732.46 330.247 732.783 330.247C733.652 330.247 734.294 330.424 734.708 330.78C735.126 331.132 735.336 331.642 735.336 332.309V334.598ZM732.607 335.225C732.794 335.225 732.99 335.17 733.196 335.06C733.401 334.946 733.557 334.787 733.663 334.581V333.635H733.234C732.75 333.635 732.394 333.71 732.167 333.861C731.939 334.007 731.826 334.224 731.826 334.51C731.826 334.734 731.894 334.91 732.029 335.038C732.169 335.163 732.361 335.225 732.607 335.225ZM737.163 333.514V332.161H741.927V333.514H737.163ZM748.821 328.657L749.25 336.281H747.677L747.583 333.019C747.576 332.715 747.572 332.443 747.572 332.205C747.576 331.967 747.582 331.743 747.589 331.534C747.596 331.321 747.607 331.108 747.622 330.896C747.64 330.679 747.659 330.445 747.677 330.192L746.819 334.983H745.454L744.53 330.192C744.552 330.434 744.571 330.663 744.585 330.879C744.604 331.092 744.616 331.306 744.624 331.523C744.631 331.739 744.637 331.972 744.64 332.221C744.644 332.467 744.642 332.742 744.635 333.047L744.58 336.281H743.034L743.463 328.657H745.317L746.164 333.586L746.967 328.657H748.821ZM755.127 334.598C755.127 334.818 755.156 334.977 755.215 335.077C755.277 335.176 755.376 335.251 755.512 335.302L755.154 336.446C754.809 336.413 754.518 336.338 754.279 336.221C754.045 336.1 753.86 335.918 753.724 335.676C753.5 335.944 753.214 336.144 752.866 336.276C752.517 336.404 752.161 336.468 751.798 336.468C751.197 336.468 750.717 336.298 750.357 335.957C750.001 335.612 749.824 335.17 749.824 334.631C749.824 333.996 750.071 333.507 750.566 333.162C751.065 332.817 751.765 332.645 752.668 332.645H753.454V332.425C753.454 332.121 753.355 331.895 753.157 331.748C752.963 331.602 752.677 331.528 752.299 331.528C752.112 331.528 751.872 331.556 751.578 331.611C751.285 331.662 750.992 331.737 750.698 331.836L750.297 330.681C750.674 330.538 751.067 330.43 751.474 330.357C751.885 330.283 752.251 330.247 752.574 330.247C753.443 330.247 754.085 330.424 754.499 330.78C754.918 331.132 755.127 331.642 755.127 332.309V334.598ZM752.398 335.225C752.585 335.225 752.781 335.17 752.987 335.06C753.192 334.946 753.348 334.787 753.454 334.581V333.635H753.025C752.541 333.635 752.185 333.71 751.958 333.861C751.731 334.007 751.617 334.224 751.617 334.51C751.617 334.734 751.685 334.91 751.82 335.038C751.96 335.163 752.152 335.225 752.398 335.225ZM756.861 336.281V335.115H757.631V331.594H756.861V330.439H758.957L759.276 331.754C759.485 331.251 759.751 330.877 760.073 330.632C760.4 330.386 760.798 330.263 761.267 330.263C761.465 330.263 761.641 330.28 761.795 330.313C761.949 330.342 762.094 330.384 762.23 330.439L761.702 331.875C761.595 331.846 761.489 331.824 761.383 331.809C761.276 331.794 761.159 331.787 761.03 331.787C760.649 331.787 760.314 331.943 760.024 332.254C759.738 332.566 759.52 332.962 759.369 333.443V335.115H760.524V336.281H756.861ZM760.816 332.882V331.176L761.074 330.439H762.23L761.905 332.882H760.816ZM768.662 335.94C768.434 336.087 768.159 336.212 767.837 336.314C767.514 336.417 767.151 336.468 766.747 336.468C765.985 336.468 765.418 336.274 765.048 335.885C764.677 335.493 764.492 334.961 764.492 334.29V331.638H763.265V330.439H764.492V329.174L766.23 328.965V330.439H768.112L767.941 331.638H766.23V334.29C766.23 334.58 766.296 334.787 766.428 334.911C766.56 335.036 766.771 335.099 767.061 335.099C767.266 335.099 767.453 335.075 767.622 335.027C767.794 334.976 767.948 334.911 768.084 334.834L768.662 335.94ZM773.57 330.439V335.093H775.055V336.281H770.176V335.093H771.832V331.627H770.231V330.439H773.57ZM773.355 327.094L774.032 328.404L771.435 329.432L770.957 328.552L773.355 327.094ZM776.597 336.281V330.439H778.115L778.236 331.116C778.496 330.822 778.772 330.604 779.061 330.461C779.351 330.318 779.681 330.247 780.051 330.247C780.55 330.247 780.943 330.399 781.229 330.703C781.515 331.008 781.658 331.437 781.658 331.99V336.281H779.919V332.491C779.919 332.253 779.903 332.064 779.87 331.924C779.837 331.781 779.778 331.68 779.694 331.622C779.613 331.559 779.501 331.528 779.358 331.528C779.237 331.528 779.118 331.556 779.001 331.611C778.887 331.662 778.775 331.737 778.665 331.836C778.555 331.935 778.445 332.055 778.335 332.194V336.281H776.597ZM784.701 333.866C784.741 334.185 784.824 334.444 784.949 334.642C785.077 334.836 785.24 334.979 785.438 335.071C785.636 335.159 785.858 335.203 786.104 335.203C786.372 335.203 786.63 335.159 786.88 335.071C787.129 334.983 787.369 334.866 787.6 334.719L788.299 335.665C788.024 335.9 787.69 336.092 787.298 336.243C786.909 336.393 786.465 336.468 785.966 336.468C785.299 336.468 784.74 336.336 784.288 336.072C783.837 335.804 783.498 335.438 783.271 334.972C783.043 334.506 782.93 333.971 782.93 333.366C782.93 332.79 783.04 332.267 783.26 331.798C783.48 331.325 783.801 330.949 784.222 330.67C784.648 330.388 785.167 330.247 785.779 330.247C786.337 330.247 786.819 330.366 787.226 330.604C787.637 330.842 787.954 331.185 788.178 331.633C788.405 332.08 788.519 332.618 788.519 333.245C788.519 333.344 788.515 333.45 788.508 333.564C788.504 333.677 788.497 333.778 788.486 333.866H784.701ZM785.779 331.413C785.468 331.413 785.216 331.525 785.026 331.748C784.835 331.972 784.719 332.33 784.679 332.821H786.825C786.821 332.396 786.738 332.055 786.577 331.798C786.416 331.541 786.15 331.413 785.779 331.413ZM791.865 334.966H794.791L794.626 336.281H789.813V335.055L792.712 331.748H790.055V330.439H794.736V331.66L791.865 334.966ZM806.077 326.379V339.582H804.954V326.379H806.077ZM818.544 328.536C819.095 328.536 819.564 328.616 819.953 328.778C820.341 328.935 820.662 329.157 820.915 329.443C821.172 329.726 821.372 330.059 821.515 330.445C821.658 330.83 821.759 331.248 821.818 331.699C821.876 332.15 821.906 332.618 821.906 333.102C821.906 334.026 821.862 334.8 821.774 335.423C821.686 336.043 821.521 336.509 821.278 336.82C821.04 337.136 820.695 337.293 820.244 337.293C820.024 337.293 819.832 337.244 819.667 337.145C819.505 337.046 819.371 336.918 819.265 336.76C819.162 336.606 819.084 336.439 819.029 336.259C818.977 336.076 818.948 335.904 818.94 335.742H818.896C818.823 335.918 818.722 336.087 818.594 336.248C818.466 336.41 818.302 336.542 818.104 336.644C817.906 336.747 817.664 336.798 817.378 336.798C816.967 336.798 816.637 336.688 816.388 336.468C816.139 336.252 815.957 335.953 815.843 335.572C815.73 335.19 815.673 334.759 815.673 334.279C815.673 333.344 815.864 332.63 816.245 332.139C816.626 331.644 817.178 331.396 817.901 331.396C818.172 331.396 818.44 331.429 818.704 331.495C818.972 331.558 819.26 331.671 819.568 331.836V335.104C819.568 335.452 819.595 335.722 819.65 335.913C819.705 336.103 819.78 336.235 819.876 336.309C819.975 336.382 820.087 336.419 820.211 336.419C820.358 336.419 820.472 336.344 820.552 336.193C820.637 336.043 820.697 335.826 820.734 335.544C820.771 335.258 820.793 334.913 820.8 334.51C820.807 334.106 820.811 333.652 820.811 333.146C820.811 332.603 820.78 332.106 820.717 331.655C820.659 331.2 820.547 330.808 820.382 330.478C820.22 330.148 819.989 329.893 819.689 329.713C819.388 329.533 818.997 329.443 818.517 329.443C818.147 329.443 817.756 329.513 817.345 329.652C816.938 329.792 816.509 330.059 816.058 330.456L815.464 329.768C815.963 329.335 816.467 329.022 816.977 328.827C817.49 328.633 818.013 328.536 818.544 328.536ZM817.917 332.232C817.496 332.232 817.208 332.397 817.054 332.728C816.9 333.054 816.823 333.571 816.823 334.279C816.823 334.631 816.845 334.932 816.889 335.181C816.933 335.43 817.01 335.621 817.12 335.753C817.23 335.885 817.378 335.951 817.565 335.951C817.789 335.951 817.963 335.9 818.088 335.797C818.213 335.694 818.306 335.573 818.368 335.434C818.431 335.291 818.478 335.166 818.511 335.06V332.375C818.412 332.324 818.317 332.287 818.225 332.265C818.134 332.243 818.031 332.232 817.917 332.232ZM827.804 328.657V333.536C827.804 333.98 827.736 334.382 827.6 334.741C827.465 335.1 827.265 335.407 827.001 335.66C826.74 335.913 826.42 336.107 826.038 336.243C825.66 336.378 825.228 336.446 824.74 336.446C824.248 336.446 823.823 336.384 823.464 336.259C823.108 336.131 822.765 335.955 822.435 335.731L823.123 334.62C823.383 334.8 823.627 334.926 823.854 334.999C824.082 335.069 824.34 335.104 824.63 335.104C825.022 335.104 825.349 334.979 825.609 334.73C825.873 334.477 826.005 334.086 826.005 333.558V329.977H823.662V328.657H827.804ZM831.904 330.247C832.505 330.247 833.017 330.375 833.438 330.632C833.86 330.888 834.183 331.25 834.407 331.715C834.63 332.177 834.742 332.72 834.742 333.344C834.742 333.993 834.628 334.552 834.401 335.021C834.177 335.487 833.855 335.845 833.433 336.094C833.011 336.344 832.501 336.468 831.904 336.468C831.309 336.468 830.8 336.345 830.374 336.1C829.952 335.854 829.628 335.498 829.401 335.032C829.177 334.567 829.065 334.007 829.065 333.355C829.065 332.735 829.177 332.192 829.401 331.726C829.628 331.261 829.952 330.897 830.374 330.637C830.8 330.377 831.309 330.247 831.904 330.247ZM831.904 331.528C831.548 331.528 831.284 331.675 831.111 331.968C830.943 332.258 830.858 332.72 830.858 333.355C830.858 334 830.943 334.468 831.111 334.757C831.284 335.047 831.548 335.192 831.904 335.192C832.259 335.192 832.521 335.047 832.69 334.757C832.863 334.468 832.949 333.996 832.949 333.344C832.949 332.713 832.863 332.253 832.69 331.963C832.521 331.673 832.259 331.528 831.904 331.528ZM837.477 333.866C837.518 334.185 837.6 334.444 837.725 334.642C837.853 334.836 838.016 334.979 838.214 335.071C838.413 335.159 838.634 335.203 838.88 335.203C839.148 335.203 839.406 335.159 839.656 335.071C839.905 334.983 840.145 334.866 840.376 334.719L841.075 335.665C840.8 335.9 840.466 336.092 840.074 336.243C839.685 336.393 839.241 336.468 838.743 336.468C838.075 336.468 837.516 336.336 837.065 336.072C836.614 335.804 836.274 335.438 836.047 334.972C835.82 334.506 835.706 333.971 835.706 333.366C835.706 332.79 835.816 332.267 836.036 331.798C836.256 331.325 836.577 330.949 836.999 330.67C837.424 330.388 837.943 330.247 838.556 330.247C839.113 330.247 839.595 330.366 840.002 330.604C840.413 330.842 840.73 331.185 840.954 331.633C841.181 332.08 841.295 332.618 841.295 333.245C841.295 333.344 841.291 333.45 841.284 333.564C841.28 333.677 841.273 333.778 841.262 333.866H837.477ZM838.556 331.413C838.244 331.413 837.993 331.525 837.802 331.748C837.611 331.972 837.496 332.33 837.455 332.821H839.601C839.597 332.396 839.515 332.055 839.353 331.798C839.192 331.541 838.926 331.413 838.556 331.413ZM846.28 331.143C846.28 330.872 846.229 330.648 846.126 330.472C846.027 330.292 845.875 330.16 845.67 330.076C845.468 329.988 845.213 329.944 844.905 329.944H844.289V332.436H844.999C845.266 332.436 845.496 332.39 845.686 332.298C845.877 332.207 846.024 332.066 846.126 331.875C846.229 331.684 846.28 331.44 846.28 331.143ZM848.14 331.138C848.14 331.728 848.013 332.216 847.76 332.601C847.507 332.986 847.153 333.274 846.698 333.465C846.244 333.652 845.716 333.745 845.114 333.745H844.289V336.281H842.485V328.657H844.883C845.917 328.657 846.719 328.862 847.287 329.273C847.855 329.684 848.14 330.305 848.14 331.138ZM851.695 330.247C852.296 330.247 852.808 330.375 853.229 330.632C853.651 330.888 853.974 331.25 854.198 331.715C854.421 332.177 854.533 332.72 854.533 333.344C854.533 333.993 854.42 334.552 854.192 335.021C853.968 335.487 853.646 335.845 853.224 336.094C852.802 336.344 852.292 336.468 851.695 336.468C851.1 336.468 850.591 336.345 850.165 336.1C849.744 335.854 849.419 335.498 849.192 335.032C848.968 334.567 848.856 334.007 848.856 333.355C848.856 332.735 848.968 332.192 849.192 331.726C849.419 331.261 849.744 330.897 850.165 330.637C850.591 330.377 851.1 330.247 851.695 330.247ZM851.695 331.528C851.339 331.528 851.075 331.675 850.902 331.968C850.734 332.258 850.649 332.72 850.649 333.355C850.649 334 850.734 334.468 850.902 334.757C851.075 335.047 851.339 335.192 851.695 335.192C852.05 335.192 852.313 335.047 852.481 334.757C852.654 334.468 852.74 333.996 852.74 333.344C852.74 332.713 852.654 332.253 852.481 331.963C852.313 331.673 852.05 331.528 851.695 331.528ZM855.816 336.281V335.115H856.586V331.594H855.816V330.439H857.912L858.231 331.754C858.44 331.251 858.706 330.877 859.029 330.632C859.355 330.386 859.753 330.263 860.223 330.263C860.421 330.263 860.597 330.28 860.751 330.313C860.905 330.342 861.05 330.384 861.185 330.439L860.657 331.875C860.551 331.846 860.444 331.824 860.338 331.809C860.232 331.794 860.114 331.787 859.986 331.787C859.605 331.787 859.269 331.943 858.979 332.254C858.693 332.566 858.475 332.962 858.325 333.443V335.115H859.48V336.281H855.816ZM859.771 332.882V331.176L860.03 330.439H861.185L860.861 332.882H859.771ZM867.617 335.94C867.39 336.087 867.115 336.212 866.792 336.314C866.469 336.417 866.106 336.468 865.703 336.468C864.94 336.468 864.373 336.274 864.003 335.885C863.633 335.493 863.447 334.961 863.447 334.29V331.638H862.221V330.439H863.447V329.174L865.186 328.965V330.439H867.067L866.897 331.638H865.186V334.29C865.186 334.58 865.252 334.787 865.384 334.911C865.516 335.036 865.727 335.099 866.016 335.099C866.222 335.099 866.409 335.075 866.578 335.027C866.75 334.976 866.904 334.911 867.04 334.834L867.617 335.94ZM872.525 330.439V335.093H874.011V336.281H869.131V335.093H870.787V331.627H869.186V330.439H872.525ZM871.475 327.38C871.775 327.38 872.021 327.474 872.212 327.661C872.403 327.848 872.498 328.081 872.498 328.36C872.498 328.638 872.403 328.873 872.212 329.064C872.021 329.251 871.775 329.344 871.475 329.344C871.17 329.344 870.921 329.251 870.727 329.064C870.536 328.873 870.441 328.638 870.441 328.36C870.441 328.081 870.536 327.848 870.727 327.661C870.921 327.474 871.17 327.38 871.475 327.38ZM878.6 328.118V334.444C878.6 334.679 878.666 334.847 878.798 334.95C878.934 335.049 879.119 335.099 879.354 335.099C879.504 335.099 879.649 335.082 879.788 335.049C879.927 335.012 880.058 334.97 880.179 334.922L880.597 336.083C880.399 336.186 880.16 336.276 879.882 336.353C879.603 336.43 879.278 336.468 878.908 336.468C878.204 336.468 877.687 336.267 877.357 335.863C877.027 335.456 876.862 334.911 876.862 334.229V329.306H875.14V328.118H878.6ZM885.197 328.118V334.444C885.197 334.679 885.263 334.847 885.395 334.95C885.531 335.049 885.716 335.099 885.951 335.099C886.101 335.099 886.246 335.082 886.385 335.049C886.524 335.012 886.655 334.97 886.776 334.922L887.194 336.083C886.996 336.186 886.757 336.276 886.479 336.353C886.2 336.43 885.875 336.468 885.505 336.468C884.801 336.468 884.284 336.267 883.954 335.863C883.624 335.456 883.459 334.911 883.459 334.229V329.306H881.737V328.118H885.197ZM893.664 334.598C893.664 334.818 893.694 334.977 893.752 335.077C893.815 335.176 893.914 335.251 894.049 335.302L893.692 336.446C893.347 336.413 893.056 336.338 892.817 336.221C892.582 336.1 892.397 335.918 892.262 335.676C892.038 335.944 891.752 336.144 891.403 336.276C891.055 336.404 890.699 336.468 890.336 336.468C889.735 336.468 889.254 336.298 888.895 335.957C888.539 335.612 888.361 335.17 888.361 334.631C888.361 333.996 888.609 333.507 889.104 333.162C889.603 332.817 890.303 332.645 891.205 332.645H891.992V332.425C891.992 332.121 891.893 331.895 891.695 331.748C891.501 331.602 891.214 331.528 890.837 331.528C890.65 331.528 890.409 331.556 890.116 331.611C889.823 331.662 889.529 331.737 889.236 331.836L888.834 330.681C889.212 330.538 889.604 330.43 890.012 330.357C890.422 330.283 890.789 330.247 891.112 330.247C891.981 330.247 892.623 330.424 893.037 330.78C893.455 331.132 893.664 331.642 893.664 332.309V334.598ZM890.936 335.225C891.123 335.225 891.319 335.17 891.524 335.06C891.73 334.946 891.886 334.787 891.992 334.581V333.635H891.563C891.079 333.635 890.723 333.71 890.496 333.861C890.268 334.007 890.155 334.224 890.155 334.51C890.155 334.734 890.222 334.91 890.358 335.038C890.498 335.163 890.69 335.225 890.936 335.225Z" fill="black"/>
<rect x="491.079" y="200.879" width="35.1806" height="35.1806" rx="0.911659" transform="rotate(180 491.079 200.879)" fill="#02517E"/>
<rect x="491.079" y="128.858" width="35.1806" height="35.1806" rx="0.911659" transform="rotate(180 491.079 128.858)" fill="#BCBCBC"/>
<rect x="455.067" y="200.879" width="35.1806" height="35.1806" rx="0.911659" transform="rotate(180 455.067 200.879)" fill="#99CCC5"/>
<rect x="455.067" y="128.858" width="35.1806" height="35.1806" rx="0.911659" transform="rotate(180 455.067 128.858)" fill="#293D5E"/>
<rect x="419.058" y="200.879" width="35.1806" height="35.1806" rx="0.911659" transform="rotate(180 419.058 200.879)" fill="#6798EB"/>
<rect x="383.047" y="200.879" width="35.1806" height="35.1806" rx="0.911659" transform="rotate(180 383.047 200.879)" fill="#345E77"/>
<rect x="419.058" y="128.858" width="35.1806" height="35.1806" rx="0.911659" transform="rotate(180 419.058 128.858)" fill="#5D617C"/>
<rect x="383.047" y="128.858" width="35.1806" height="35.1806" rx="0.911659" transform="rotate(180 383.047 128.858)" fill="#7EAFCD"/>
<rect x="491.079" y="164.869" width="35.1806" height="35.1806" rx="0.911659" transform="rotate(180 491.079 164.869)" fill="#7EAFCD"/>
<rect x="491.079" y="92.8472" width="35.1806" height="35.1806" rx="0.911659" transform="rotate(180 491.079 92.8472)" fill="#333B57"/>
<rect x="455.067" y="164.869" width="35.1806" height="35.1806" rx="0.911659" transform="rotate(180 455.067 164.869)" fill="#5C87E1"/>
<rect x="455.067" y="92.8472" width="35.1806" height="35.1806" rx="0.911659" transform="rotate(180 455.067 92.8472)" fill="#7EAFCD"/>
<rect x="419.058" y="164.869" width="35.1806" height="35.1806" rx="0.911659" transform="rotate(180 419.058 164.869)" fill="#333B57"/>
<rect x="383.047" y="164.869" width="35.1806" height="35.1806" rx="0.911659" transform="rotate(180 383.047 164.869)" fill="#3D5C8B"/>
<rect x="419.058" y="92.8472" width="35.1806" height="35.1806" rx="0.911659" transform="rotate(180 419.058 92.8472)" fill="#BCBCBC"/>
<rect x="383.047" y="92.8472" width="35.1806" height="35.1806" rx="0.911659" transform="rotate(180 383.047 92.8472)" fill="#293D5E"/>
<path d="M342.921 215.25H300.319V37.4765H342.921V46.1362H310.074V206.491H342.921V215.25Z" fill="black"/>
<path d="M496.997 206.491H529.845V46.1362H496.997V37.4765H539.699V215.25H496.997V206.491Z" fill="black"/>
<rect x="753.379" y="200.879" width="35.1806" height="35.1806" rx="0.911659" transform="rotate(180 753.379 200.879)" fill="#6798EB"/>
<rect x="717.368" y="200.879" width="35.1806" height="35.1806" rx="0.911659" transform="rotate(180 717.368 200.879)" fill="#345E77"/>
<rect x="753.379" y="128.858" width="35.1806" height="35.1806" rx="0.911659" transform="rotate(180 753.379 128.858)" fill="#5D617C"/>
<rect x="717.368" y="128.858" width="35.1806" height="35.1806" rx="0.911659" transform="rotate(180 717.368 128.858)" fill="#7EAFCD"/>
<rect x="753.379" y="164.869" width="35.1806" height="35.1806" rx="0.911659" transform="rotate(180 753.379 164.869)" fill="#333B57"/>
<rect x="717.368" y="164.869" width="35.1806" height="35.1806" rx="0.911659" transform="rotate(180 717.368 164.869)" fill="#3D5C8B"/>
<rect x="753.379" y="92.8472" width="35.1806" height="35.1806" rx="0.911659" transform="rotate(180 753.379 92.8472)" fill="#BCBCBC"/>
<rect x="717.368" y="92.8472" width="35.1806" height="35.1806" rx="0.911659" transform="rotate(180 717.368 92.8472)" fill="#293D5E"/>
<path d="M676.4 215.25H633.798V37.4765H676.4V46.1362H643.553V206.491H676.4V215.25Z" fill="black"/>
<path d="M756.343 206.491H789.19V46.1362H756.343V37.4765H799.045V215.25H756.343V206.491Z" fill="black"/>
<rect x="992.709" y="57.6665" width="35.1806" height="35.1806" rx="0.911659" fill="#6798EB"/>
<rect x="1028.72" y="57.6665" width="35.1806" height="35.1806" rx="0.911659" fill="#02517E"/>
<rect x="992.709" y="129.688" width="35.1806" height="35.1806" rx="0.911659" fill="#5D617C"/>
<rect x="1028.72" y="129.688" width="35.1806" height="35.1806" rx="0.911659" fill="#333B57"/>
<rect x="992.709" y="93.6772" width="35.1806" height="35.1806" rx="0.911659" fill="#333B57"/>
<rect x="1028.72" y="93.6772" width="35.1806" height="35.1806" rx="0.911659" fill="#3D5C8B"/>
<rect x="992.709" y="165.699" width="35.1806" height="35.1806" rx="0.911659" fill="#7EAFCD"/>
<rect x="1028.72" y="165.699" width="35.1806" height="35.1806" rx="0.911659" fill="#293D5E"/>
<path d="M986.921 215.25H944.319V37.4765H986.921V46.1362H954.074V206.491H986.921V215.25Z" fill="black"/>
<path d="M1066.86 206.491H1099.71V46.1362H1066.86V37.4765H1109.57V215.25H1066.86V206.491Z" fill="black"/>
<path d="M376.882 245.281C377.582 245.203 378.379 245.222 379.273 245.339C381.489 245.844 382.928 247.05 383.589 248.955L383.705 249.305L384.347 248.722C385.086 247.983 385.766 247.419 386.388 247.03C388.332 245.786 390.471 245.183 392.803 245.222C395.02 245.339 396.711 245.961 397.877 247.089C398.499 247.672 398.985 248.469 399.335 249.48L399.394 249.83L400.152 249.071C400.929 248.216 401.726 247.536 402.543 247.03C404.487 245.786 406.625 245.183 408.958 245.222C411.174 245.339 412.866 245.961 414.032 247.089C415.548 248.566 416.073 250.724 415.607 253.562C415.218 255.817 414.149 259.239 412.399 263.827C411.738 265.654 411.408 266.937 411.408 267.676C411.408 268.453 411.66 268.862 412.166 268.9C412.244 268.9 412.341 268.9 412.457 268.9C413.274 268.823 414.032 268.414 414.732 267.676C415.859 266.548 416.676 265.012 417.181 263.068C417.376 262.485 417.57 262.174 417.765 262.135C417.881 262.096 418.231 262.077 418.814 262.077C419.553 262.077 419.981 262.116 420.097 262.194C420.175 262.271 420.214 262.427 420.214 262.66C420.214 263.516 419.67 264.915 418.581 266.859C418.464 267.054 418.348 267.248 418.231 267.442C416.948 269.425 415.412 270.728 413.624 271.35C412.03 271.855 410.474 271.719 408.958 270.942C408.414 270.67 408.006 270.378 407.733 270.067C407.383 269.717 407.111 269.348 406.917 268.959C406.528 268.22 406.353 267.442 406.392 266.626C406.392 265.809 406.625 264.76 407.092 263.477C409.58 256.867 410.708 252.59 410.474 250.646C410.358 249.519 409.988 248.76 409.366 248.372C408.939 248.022 408.181 247.905 407.092 248.022C404.215 248.372 401.746 250.238 399.685 253.62L399.335 254.262L397.411 261.844C396.205 266.82 395.506 269.484 395.311 269.834C394.767 271 393.853 271.603 392.57 271.642C391.948 271.642 391.404 271.467 390.937 271.117C390.743 271.039 390.568 270.825 390.412 270.475C390.218 270.047 390.218 269.406 390.412 268.551C390.568 267.773 391.131 265.421 392.103 261.494C393.425 256.284 394.106 253.562 394.145 253.329C394.456 251.735 394.436 250.491 394.086 249.596C393.775 248.508 393.017 247.963 391.812 247.963C388.546 247.963 385.785 249.849 383.53 253.62L383.18 254.262L381.256 261.844C380.051 266.82 379.351 269.484 379.156 269.834C378.612 271 377.698 271.603 376.415 271.642C375.793 271.642 375.249 271.467 374.782 271.117C374.588 271.039 374.413 270.825 374.257 270.475C374.063 270.086 374.044 269.503 374.199 268.725C374.393 267.831 375.074 265.032 376.24 260.327C377.757 254.301 378.534 251.171 378.573 250.938C378.845 249.033 378.476 248.041 377.465 247.963C377.348 247.963 377.232 247.963 377.115 247.963C375.988 248.197 374.977 250.005 374.082 253.387L373.791 254.437C373.363 254.67 372.897 254.787 372.391 254.787H371.283L371.108 254.612C370.953 254.456 370.953 254.048 371.108 253.387C371.886 250.704 372.799 248.683 373.849 247.322C374.666 246.272 375.677 245.592 376.882 245.281Z" fill="#FFC331"/>
<path d="M429.067 271L434.68 264.363L431.879 258.102H433.856L435.928 262.974L439.858 258.102H442.129L436.74 264.445L439.729 271H437.728L435.469 265.869L431.338 271H429.067Z" fill="black"/>
<path d="M452.026 245.339C452.609 245.183 453.406 245.183 454.417 245.339C456.634 245.883 458.072 247.089 458.733 248.955L458.85 249.305L459.491 248.722C460.23 247.983 460.91 247.419 461.532 247.03C463.476 245.786 465.615 245.183 467.948 245.222C470.164 245.339 471.855 245.961 473.022 247.089C474.538 248.566 475.063 250.724 474.596 253.562C474.207 255.817 473.138 259.239 471.389 263.827C470.728 265.654 470.397 266.937 470.397 267.676C470.397 268.298 470.533 268.687 470.805 268.842C471.116 268.998 471.602 268.959 472.263 268.725C473.78 268.142 475.005 266.529 475.938 263.885C476.015 263.613 476.093 263.341 476.171 263.068C476.365 262.485 476.56 262.174 476.754 262.135C476.871 262.096 477.221 262.077 477.804 262.077C478.543 262.077 478.97 262.116 479.087 262.194C479.165 262.271 479.204 262.427 479.204 262.66C479.204 263.321 478.815 264.429 478.037 265.984C477.337 267.423 476.482 268.609 475.471 269.542C473.955 270.981 472.302 271.68 470.514 271.642C468.298 271.525 466.742 270.611 465.848 268.9C465.498 268.201 465.323 267.404 465.323 266.509C465.362 265.732 465.595 264.818 466.023 263.768C467.501 259.725 468.453 256.789 468.881 254.962C469.503 252.629 469.62 250.841 469.231 249.596C468.92 248.508 468.162 247.963 466.956 247.963C463.69 247.963 460.93 249.849 458.675 253.62L458.325 254.262L456.4 261.844C455.195 266.82 454.495 269.484 454.301 269.834C453.756 271 452.843 271.603 451.56 271.642C450.938 271.642 450.393 271.467 449.927 271.117C449.732 271.039 449.557 270.825 449.402 270.475C449.207 270.086 449.188 269.503 449.343 268.725C449.538 267.831 450.218 265.032 451.385 260.327C452.901 254.301 453.679 251.171 453.718 250.938C453.951 249.149 453.64 248.158 452.784 247.963C451.696 247.847 450.782 248.741 450.043 250.646C449.771 251.346 449.499 252.26 449.227 253.387L448.935 254.437C448.508 254.67 448.041 254.787 447.536 254.787H446.427L446.252 254.612C446.097 254.456 446.097 254.048 446.252 253.387C447.652 248.527 449.577 245.844 452.026 245.339Z" fill="#0037AC"/>
<path d="M687.882 245.339C688.465 245.183 689.262 245.183 690.273 245.339C692.489 245.883 693.928 247.089 694.589 248.955L694.705 249.305L695.347 248.722C696.086 247.983 696.766 247.419 697.388 247.03C699.332 245.786 701.471 245.183 703.803 245.222C706.02 245.339 707.711 245.961 708.877 247.089C710.394 248.566 710.918 250.724 710.452 253.562C710.063 255.817 708.994 259.239 707.244 263.827C706.583 265.654 706.253 266.937 706.253 267.676C706.253 268.298 706.389 268.687 706.661 268.842C706.972 268.998 707.458 268.959 708.119 268.725C709.635 268.142 710.86 266.529 711.793 263.885C711.871 263.613 711.949 263.341 712.027 263.068C712.221 262.485 712.415 262.174 712.61 262.135C712.726 262.096 713.076 262.077 713.66 262.077C714.398 262.077 714.826 262.116 714.943 262.194C715.02 262.271 715.059 262.427 715.059 262.66C715.059 263.321 714.67 264.429 713.893 265.984C713.193 267.423 712.338 268.609 711.327 269.542C709.81 270.981 708.158 271.68 706.369 271.642C704.153 271.525 702.598 270.611 701.704 268.9C701.354 268.201 701.179 267.404 701.179 266.509C701.218 265.732 701.451 264.818 701.879 263.768C703.356 259.725 704.309 256.789 704.736 254.962C705.359 252.629 705.475 250.841 705.086 249.596C704.775 248.508 704.017 247.963 702.812 247.963C699.546 247.963 696.785 249.849 694.53 253.62L694.18 254.262L692.256 261.844C691.051 266.82 690.351 269.484 690.156 269.834C689.612 271 688.698 271.603 687.415 271.642C686.793 271.642 686.249 271.467 685.782 271.117C685.588 271.039 685.413 270.825 685.257 270.475C685.063 270.086 685.044 269.503 685.199 268.725C685.393 267.831 686.074 265.032 687.24 260.327C688.757 254.301 689.534 251.171 689.573 250.938C689.806 249.149 689.495 248.158 688.64 247.963C687.551 247.847 686.638 248.741 685.899 250.646C685.627 251.346 685.355 252.26 685.082 253.387L684.791 254.437C684.363 254.67 683.897 254.787 683.391 254.787H682.283L682.108 254.612C681.953 254.456 681.953 254.048 682.108 253.387C683.508 248.527 685.432 245.844 687.882 245.339Z" fill="#0037AC"/>
<path d="M723.835 271L729.448 264.363L726.648 258.102H728.625L730.696 262.974L734.626 258.102H736.898L731.508 264.445L734.497 271H732.496L730.237 265.869L726.106 271H723.835Z" fill="black"/>
<path d="M752.102 230.875C755.212 230.642 756.728 230.526 756.651 230.526C757.001 230.526 757.234 230.662 757.35 230.934C757.389 231.089 756.437 235.094 754.493 242.948L751.518 254.729L751.81 254.554C752.899 253.893 754.473 252.59 756.534 250.646C757.817 249.402 758.847 248.449 759.625 247.788C761.763 246 763.805 245.145 765.749 245.222C766.371 245.261 766.876 245.397 767.265 245.631C768.081 246.058 768.645 246.836 768.956 247.963C769.19 248.897 769.228 249.966 769.073 251.171C768.723 253.037 767.887 254.301 766.565 254.962C765.476 255.467 764.446 255.506 763.474 255.078C762.347 254.534 761.919 253.543 762.191 252.104C762.347 251.327 762.716 250.607 763.299 249.946C764.077 249.246 764.913 248.838 765.807 248.722C766.04 248.722 766.157 248.702 766.157 248.663C766.157 248.547 766.021 248.352 765.749 248.08C765.321 247.769 764.466 247.847 763.183 248.313C762.599 248.508 761.919 248.877 761.141 249.421C760.169 250.043 758.731 251.288 756.826 253.154C755.62 254.32 754.707 255.176 754.085 255.72C753.89 255.876 753.851 255.973 753.968 256.012C754.085 256.012 754.337 256.05 754.726 256.128C756.087 256.478 757.098 256.828 757.759 257.178C759.353 257.917 760.461 258.928 761.083 260.211C761.355 260.755 761.491 261.474 761.491 262.369C761.491 262.991 761.433 263.574 761.316 264.118C761.083 265.09 760.966 265.984 760.966 266.801C760.966 267.695 761.102 268.278 761.375 268.551C761.686 268.862 762.191 268.939 762.891 268.784C763.319 268.667 763.707 268.414 764.057 268.026C764.874 267.209 765.651 265.382 766.39 262.544C766.468 262.271 766.76 262.116 767.265 262.077C767.382 262.077 767.576 262.077 767.848 262.077C768.587 262.077 768.995 262.116 769.073 262.194C769.306 262.349 769.306 262.816 769.073 263.593C768.49 265.693 767.654 267.462 766.565 268.9C765.593 270.261 764.446 271.117 763.124 271.467C762.852 271.544 762.385 271.583 761.724 271.583C761.025 271.583 760.519 271.544 760.208 271.467C759.392 271.233 758.731 270.942 758.225 270.592C756.826 269.659 756.009 268.239 755.776 266.334C755.698 265.557 755.756 264.799 755.951 264.06C756.145 263.049 756.145 262.252 755.951 261.669C755.406 260.152 753.871 259.122 751.343 258.578L750.644 258.461L749.244 263.943C748.272 267.715 747.747 269.678 747.669 269.834C747.28 270.65 746.619 271.214 745.686 271.525C745.064 271.68 744.442 271.661 743.82 271.467C743.354 271.272 742.984 270.922 742.712 270.417C742.518 270.106 742.479 269.698 742.595 269.192C742.712 268.414 744.053 262.874 746.619 252.571C749.497 241.14 750.857 235.25 750.702 234.9C750.43 234.627 749.594 234.472 748.194 234.433C747.261 234.433 746.736 234.297 746.619 234.025C746.542 233.908 746.6 233.461 746.794 232.683C746.989 231.867 747.144 231.42 747.261 231.342C747.378 231.225 747.494 231.167 747.611 231.167L752.102 230.875Z" fill="#FF3C00"/>
<path d="M992.882 241.281C993.582 241.203 994.379 241.222 995.273 241.339C997.489 241.844 998.928 243.05 999.589 244.955L999.705 245.305L1000.35 244.722C1001.09 243.983 1001.77 243.419 1002.39 243.03C1004.33 241.786 1006.47 241.183 1008.8 241.222C1011.02 241.339 1012.71 241.961 1013.88 243.089C1014.5 243.672 1014.99 244.469 1015.34 245.48L1015.39 245.83L1016.15 245.071C1016.93 244.216 1017.73 243.536 1018.54 243.03C1020.49 241.786 1022.63 241.183 1024.96 241.222C1027.17 241.339 1028.87 241.961 1030.03 243.089C1031.55 244.566 1032.07 246.724 1031.61 249.562C1031.22 251.817 1030.15 255.239 1028.4 259.827C1027.74 261.654 1027.41 262.937 1027.41 263.676C1027.41 264.453 1027.66 264.862 1028.17 264.9C1028.24 264.9 1028.34 264.9 1028.46 264.9C1029.27 264.823 1030.03 264.414 1030.73 263.676C1031.86 262.548 1032.68 261.012 1033.18 259.068C1033.38 258.485 1033.57 258.174 1033.76 258.135C1033.88 258.096 1034.23 258.077 1034.81 258.077C1035.55 258.077 1035.98 258.116 1036.1 258.194C1036.18 258.271 1036.21 258.427 1036.21 258.66C1036.21 259.516 1035.67 260.915 1034.58 262.859C1034.46 263.054 1034.35 263.248 1034.23 263.442C1032.95 265.425 1031.41 266.728 1029.62 267.35C1028.03 267.855 1026.47 267.719 1024.96 266.942C1024.41 266.67 1024.01 266.378 1023.73 266.067C1023.38 265.717 1023.11 265.348 1022.92 264.959C1022.53 264.22 1022.35 263.442 1022.39 262.626C1022.39 261.809 1022.63 260.76 1023.09 259.477C1025.58 252.867 1026.71 248.59 1026.47 246.646C1026.36 245.519 1025.99 244.76 1025.37 244.372C1024.94 244.022 1024.18 243.905 1023.09 244.022C1020.21 244.372 1017.75 246.238 1015.69 249.62L1015.34 250.262L1013.41 257.844C1012.21 262.82 1011.51 265.484 1011.31 265.834C1010.77 267 1009.85 267.603 1008.57 267.642C1007.95 267.642 1007.4 267.467 1006.94 267.117C1006.74 267.039 1006.57 266.825 1006.41 266.475C1006.22 266.047 1006.22 265.406 1006.41 264.551C1006.57 263.773 1007.13 261.421 1008.1 257.494C1009.43 252.284 1010.11 249.562 1010.14 249.329C1010.46 247.735 1010.44 246.491 1010.09 245.596C1009.78 244.508 1009.02 243.963 1007.81 243.963C1004.55 243.963 1001.79 245.849 999.53 249.62L999.18 250.262L997.256 257.844C996.051 262.82 995.351 265.484 995.156 265.834C994.612 267 993.698 267.603 992.415 267.642C991.793 267.642 991.249 267.467 990.782 267.117C990.588 267.039 990.413 266.825 990.257 266.475C990.063 266.086 990.044 265.503 990.199 264.725C990.393 263.831 991.074 261.032 992.24 256.327C993.757 250.301 994.534 247.171 994.573 246.938C994.845 245.033 994.476 244.041 993.465 243.963C993.348 243.963 993.232 243.963 993.115 243.963C991.988 244.197 990.977 246.005 990.082 249.387L989.791 250.437C989.363 250.67 988.897 250.787 988.391 250.787H987.283L987.108 250.612C986.953 250.456 986.953 250.048 987.108 249.387C987.886 246.704 988.799 244.683 989.849 243.322C990.666 242.272 991.677 241.592 992.882 241.281Z" fill="#FFC331"/>
<path d="M1036.32 267L1041.93 260.363L1039.13 254.102H1041.11L1043.18 258.974L1047.11 254.102H1049.38L1043.99 260.445L1046.98 267H1044.98L1042.72 261.869L1038.59 267H1036.32Z" fill="black"/>
<path d="M1060.97 226.875C1064.08 226.642 1065.6 226.526 1065.52 226.526C1065.87 226.526 1066.1 226.662 1066.22 226.934C1066.26 227.089 1065.31 231.094 1063.36 238.948L1060.39 250.729L1060.68 250.554C1061.77 249.893 1063.34 248.59 1065.4 246.646C1066.69 245.402 1067.72 244.449 1068.49 243.788C1070.63 242 1072.67 241.145 1074.62 241.222C1075.24 241.261 1075.74 241.397 1076.13 241.631C1076.95 242.058 1077.51 242.836 1077.82 243.963C1078.06 244.897 1078.1 245.966 1077.94 247.171C1077.59 249.037 1076.76 250.301 1075.43 250.962C1074.34 251.467 1073.31 251.506 1072.34 251.078C1071.22 250.534 1070.79 249.543 1071.06 248.104C1071.22 247.327 1071.58 246.607 1072.17 245.946C1072.95 245.246 1073.78 244.838 1074.68 244.722C1074.91 244.722 1075.03 244.702 1075.03 244.663C1075.03 244.547 1074.89 244.352 1074.62 244.08C1074.19 243.769 1073.33 243.847 1072.05 244.313C1071.47 244.508 1070.79 244.877 1070.01 245.421C1069.04 246.043 1067.6 247.288 1065.69 249.154C1064.49 250.32 1063.58 251.176 1062.95 251.72C1062.76 251.876 1062.72 251.973 1062.84 252.012C1062.95 252.012 1063.21 252.05 1063.59 252.128C1064.96 252.478 1065.97 252.828 1066.63 253.178C1068.22 253.917 1069.33 254.928 1069.95 256.211C1070.22 256.755 1070.36 257.474 1070.36 258.369C1070.36 258.991 1070.3 259.574 1070.18 260.118C1069.95 261.09 1069.83 261.984 1069.83 262.801C1069.83 263.695 1069.97 264.278 1070.24 264.551C1070.55 264.862 1071.06 264.939 1071.76 264.784C1072.19 264.667 1072.58 264.414 1072.93 264.026C1073.74 263.209 1074.52 261.382 1075.26 258.544C1075.34 258.271 1075.63 258.116 1076.13 258.077C1076.25 258.077 1076.44 258.077 1076.72 258.077C1077.46 258.077 1077.86 258.116 1077.94 258.194C1078.17 258.349 1078.17 258.816 1077.94 259.593C1077.36 261.693 1076.52 263.462 1075.43 264.9C1074.46 266.261 1073.31 267.117 1071.99 267.467C1071.72 267.544 1071.25 267.583 1070.59 267.583C1069.89 267.583 1069.39 267.544 1069.08 267.467C1068.26 267.233 1067.6 266.942 1067.09 266.592C1065.69 265.659 1064.88 264.239 1064.64 262.334C1064.57 261.557 1064.62 260.799 1064.82 260.06C1065.01 259.049 1065.01 258.252 1064.82 257.669C1064.27 256.152 1062.74 255.122 1060.21 254.578L1059.51 254.461L1058.11 259.943C1057.14 263.715 1056.62 265.678 1056.54 265.834C1056.15 266.65 1055.49 267.214 1054.55 267.525C1053.93 267.68 1053.31 267.661 1052.69 267.467C1052.22 267.272 1051.85 266.922 1051.58 266.417C1051.39 266.106 1051.35 265.698 1051.46 265.192C1051.58 264.414 1052.92 258.874 1055.49 248.571C1058.37 237.14 1059.73 231.25 1059.57 230.9C1059.3 230.627 1058.46 230.472 1057.06 230.433C1056.13 230.433 1055.6 230.297 1055.49 230.025C1055.41 229.908 1055.47 229.461 1055.66 228.683C1055.86 227.867 1056.01 227.42 1056.13 227.342C1056.25 227.225 1056.36 227.167 1056.48 227.167L1060.97 226.875Z" fill="#FF3C00"/>
<path d="M578.324 115.933C578.324 113.013 578.988 110.79 580.315 109.264C581.642 107.671 583.6 106.875 586.188 106.875C589.041 106.875 591.131 107.671 592.458 109.264C593.786 110.79 594.449 113.013 594.449 115.933C594.449 118.853 593.786 121.109 592.458 122.701C591.131 124.294 589.041 125.09 586.188 125.09C583.6 125.09 581.642 124.294 580.315 122.701C578.988 121.109 578.324 118.853 578.324 115.933Z" fill="black"/>
<path d="M821.347 107.81V99.2497H914.912V107.81H821.347ZM821.347 149.018V140.458H914.912V149.018H821.347Z" fill="black"/>
<rect x="366" y="233" width="59" height="45" rx="4" stroke="#558F02" stroke-width="2" stroke-dasharray="3 3"/>
<rect x="738" y="228" width="38" height="50" rx="4" stroke="#558F02" stroke-width="2" stroke-dasharray="3 3"/>
<path d="M394.5 284V306H761.5M761.5 306V284M761.5 306H1045.5V284" stroke="#548F02" stroke-width="3" stroke-linecap="round"/>
</svg>
