<svg width="1400" height="202" viewBox="0 0 1400 202" fill="none" xmlns="http://www.w3.org/2000/svg">
<rect width="1400" height="202" fill="white"/>
<path d="M42.0992 94V80.1927H45.0979L45.3457 81.9007C45.9367 81.2053 46.6017 80.6838 47.3405 80.3361C48.0793 79.9797 48.8746 79.8016 49.7265 79.8016C50.9694 79.8016 51.9168 80.1623 52.5688 80.8837C53.2207 81.5965 53.5466 82.6004 53.5466 83.8955V94H50.1046V85.2384C50.1046 84.5431 50.0611 83.9868 49.9742 83.5696C49.8873 83.1437 49.7221 82.8394 49.4787 82.6569C49.2353 82.4657 48.8833 82.3701 48.4226 82.3701C48.0489 82.3701 47.6882 82.4526 47.3405 82.6178C47.0015 82.7829 46.6799 83.0046 46.3757 83.2827C46.0801 83.5609 45.802 83.8694 45.5412 84.2084V94H42.0992ZM64.8665 79.8016C66.0834 79.8016 67.0569 80.1014 67.787 80.7012C68.5259 81.2922 69.0604 82.131 69.3907 83.2175C69.7297 84.304 69.8992 85.5861 69.8992 87.0638C69.8992 88.4806 69.695 89.7409 69.2864 90.8448C68.8779 91.9487 68.2781 92.8179 67.4872 93.4524C66.7049 94.0783 65.7401 94.3912 64.5927 94.3912C63.1846 94.3912 62.0459 93.8914 61.1767 92.8918V99.3196L57.7347 99.6846V80.1927H60.7595L60.9421 81.8746C61.4897 81.1619 62.1024 80.6403 62.7804 80.31C63.4584 79.9711 64.1538 79.8016 64.8665 79.8016ZM63.8626 82.3831C63.2802 82.3831 62.7674 82.5569 62.3241 82.9046C61.8895 83.2523 61.507 83.6826 61.1767 84.1954V90.3754C61.4897 90.8448 61.846 91.1968 62.2459 91.4315C62.6457 91.6662 63.0977 91.7836 63.6018 91.7836C64.4797 91.7836 65.149 91.4185 65.6097 90.6884C66.0791 89.9495 66.3137 88.7544 66.3137 87.1029C66.3137 85.9382 66.2181 85.0124 66.0269 84.3258C65.8444 83.6304 65.5706 83.135 65.2055 82.8394C64.8404 82.5352 64.3928 82.3831 63.8626 82.3831ZM76.395 91.6923C76.395 91.2055 76.5124 90.7579 76.7471 90.3494C76.9904 89.9408 77.3164 89.6149 77.7249 89.3715C78.1334 89.1281 78.5854 89.0064 79.0809 89.0064C79.585 89.0064 80.0413 89.1281 80.4499 89.3715C80.8584 89.6149 81.18 89.9408 81.4147 90.3494C81.6581 90.7579 81.7798 91.2055 81.7798 91.6923C81.7798 92.179 81.6581 92.631 81.4147 93.0483C81.18 93.4568 80.8584 93.7827 80.4499 94.0261C80.0413 94.2695 79.585 94.3912 79.0809 94.3912C78.5854 94.3912 78.1334 94.2695 77.7249 94.0261C77.3164 93.7827 76.9904 93.4568 76.7471 93.0483C76.5124 92.631 76.395 92.179 76.395 91.6923ZM100.023 90.3624C100.023 90.8926 100.101 91.2794 100.258 91.5228C100.414 91.7575 100.666 91.9357 101.014 92.0574L100.271 94.3651C99.5318 94.2869 98.9016 94.1043 98.3801 93.8175C97.8673 93.522 97.4718 93.083 97.1936 92.5007C96.6721 93.1352 96.0115 93.6089 95.2118 93.9218C94.4209 94.2347 93.5908 94.3912 92.7216 94.3912C91.3134 94.3912 90.1965 93.9913 89.3708 93.1917C88.545 92.392 88.1322 91.3533 88.1322 90.0756C88.1322 88.6066 88.7058 87.4766 89.8532 86.6857C91.0092 85.886 92.6433 85.4862 94.7555 85.4862H96.6851V84.743C96.6851 83.9259 96.4331 83.3349 95.9289 82.9698C95.4248 82.5961 94.699 82.4092 93.7516 82.4092C93.3083 82.4092 92.752 82.47 92.0827 82.5917C91.4221 82.7047 90.7398 82.8829 90.0357 83.1263L89.2143 80.7664C90.0922 80.4361 90.9745 80.1927 91.861 80.0362C92.7563 79.8798 93.569 79.8016 94.2992 79.8016C96.2375 79.8016 97.676 80.2144 98.6148 81.0402C99.5535 81.8572 100.023 83.0176 100.023 84.5213V90.3624ZM93.8428 91.9009C94.3644 91.9009 94.8902 91.7531 95.4204 91.4576C95.9593 91.1621 96.3809 90.7492 96.6851 90.219V87.5331H95.3292C94.0514 87.5331 93.1257 87.7374 92.5521 88.1459C91.9871 88.5545 91.7046 89.1325 91.7046 89.88C91.7046 90.5232 91.8871 91.023 92.2522 91.3794C92.6173 91.7271 93.1475 91.9009 93.8428 91.9009ZM104.772 94V91.6141H106.714V82.5656H104.772V80.1927H109.335L109.974 83.361C110.478 82.1875 111.112 81.3053 111.877 80.7142C112.642 80.1145 113.603 79.8146 114.759 79.8146C115.202 79.8146 115.593 79.8494 115.932 79.9189C116.28 79.9884 116.61 80.0797 116.923 80.1927L115.893 83.0872C115.624 83.0176 115.367 82.9655 115.124 82.9307C114.88 82.8872 114.607 82.8655 114.302 82.8655C113.346 82.8655 112.512 83.2393 111.799 83.9868C111.095 84.7256 110.547 85.7295 110.156 86.9986V91.6141H112.907V94H104.772ZM114.016 85.5774V81.9137L114.485 80.1927H116.923L116.31 85.5774H114.016ZM131.294 90.3624C131.294 90.8926 131.372 91.2794 131.529 91.5228C131.685 91.7575 131.937 91.9357 132.285 92.0574L131.542 94.3651C130.803 94.2869 130.173 94.1043 129.651 93.8175C129.138 93.522 128.743 93.083 128.465 92.5007C127.943 93.1352 127.283 93.6089 126.483 93.9218C125.692 94.2347 124.862 94.3912 123.993 94.3912C122.584 94.3912 121.468 93.9913 120.642 93.1917C119.816 92.392 119.403 91.3533 119.403 90.0756C119.403 88.6066 119.977 87.4766 121.124 86.6857C122.28 85.886 123.914 85.4862 126.027 85.4862H127.956V84.743C127.956 83.9259 127.704 83.3349 127.2 82.9698C126.696 82.5961 125.97 82.4092 125.023 82.4092C124.579 82.4092 124.023 82.47 123.354 82.5917C122.693 82.7047 122.011 82.8829 121.307 83.1263L120.485 80.7664C121.363 80.4361 122.245 80.1927 123.132 80.0362C124.027 79.8798 124.84 79.8016 125.57 79.8016C127.509 79.8016 128.947 80.2144 129.886 81.0402C130.825 81.8572 131.294 83.0176 131.294 84.5213V90.3624ZM125.114 91.9009C125.635 91.9009 126.161 91.7531 126.691 91.4576C127.23 91.1621 127.652 90.7492 127.956 90.219V87.5331H126.6C125.322 87.5331 124.397 87.7374 123.823 88.1459C123.258 88.5545 122.976 89.1325 122.976 89.88C122.976 90.5232 123.158 91.023 123.523 91.3794C123.888 91.7271 124.418 91.9009 125.114 91.9009ZM135.912 94V80.1927H138.911L139.159 81.9007C139.75 81.2053 140.415 80.6838 141.154 80.3361C141.892 79.9797 142.688 79.8016 143.54 79.8016C144.782 79.8016 145.73 80.1623 146.382 80.8837C147.034 81.5965 147.36 82.6004 147.36 83.8955V94H143.918V85.2384C143.918 84.5431 143.874 83.9868 143.787 83.5696C143.7 83.1437 143.535 82.8394 143.292 82.6569C143.048 82.4657 142.696 82.3701 142.236 82.3701C141.862 82.3701 141.501 82.4526 141.154 82.6178C140.815 82.7829 140.493 83.0046 140.189 83.2827C139.893 83.5609 139.615 83.8694 139.354 84.2084V94H135.912ZM163.452 78.25L164.312 80.9359C163.791 81.1184 163.204 81.2488 162.552 81.327C161.9 81.3966 161.152 81.4313 160.309 81.4313C161.152 81.7964 161.791 82.2614 162.226 82.8264C162.669 83.3827 162.891 84.0911 162.891 84.9516C162.891 85.8469 162.661 86.6466 162.2 87.3506C161.748 88.0547 161.1 88.6066 160.257 89.0064C159.423 89.4063 158.428 89.6062 157.271 89.6062C156.915 89.6062 156.598 89.5888 156.32 89.554C156.042 89.5193 155.772 89.4715 155.511 89.4106C155.337 89.5062 155.203 89.6453 155.107 89.8278C155.012 90.0104 154.964 90.1973 154.964 90.3885C154.964 90.6492 155.064 90.8752 155.264 91.0665C155.472 91.249 155.916 91.3403 156.593 91.3403H158.94C159.957 91.3403 160.848 91.5141 161.613 91.8618C162.387 92.2008 162.986 92.6615 163.412 93.2438C163.847 93.8262 164.064 94.4955 164.064 95.2517C164.064 96.6424 163.46 97.7289 162.252 98.5112C161.044 99.2935 159.279 99.6846 156.959 99.6846C155.298 99.6846 154.003 99.5151 153.073 99.1761C152.152 98.8372 151.504 98.3417 151.131 97.6898C150.757 97.0466 150.57 96.2687 150.57 95.356H153.634C153.634 95.7993 153.721 96.1644 153.895 96.4512C154.077 96.738 154.412 96.951 154.899 97.0901C155.394 97.2291 156.102 97.2987 157.024 97.2987C157.945 97.2987 158.667 97.2248 159.188 97.077C159.718 96.9293 160.092 96.7163 160.309 96.4382C160.527 96.1687 160.635 95.8514 160.635 95.4864C160.635 94.9909 160.427 94.6041 160.009 94.326C159.592 94.0478 159.001 93.9088 158.236 93.9088H155.955C154.564 93.9088 153.551 93.6393 152.917 93.1004C152.282 92.5528 151.965 91.9226 151.965 91.2099C151.965 90.7231 152.095 90.2581 152.356 89.8148C152.626 89.3628 153.008 88.9804 153.503 88.6675C152.652 88.2155 152.034 87.6766 151.652 87.0507C151.278 86.4162 151.091 85.6513 151.091 84.756C151.091 83.7564 151.343 82.8872 151.848 82.1484C152.352 81.4096 153.051 80.8359 153.947 80.4274C154.842 80.0189 155.872 79.8146 157.037 79.8146C158.106 79.8233 159.014 79.7581 159.762 79.619C160.518 79.48 161.183 79.2887 161.757 79.0454C162.339 78.802 162.904 78.5369 163.452 78.25ZM157.102 82.1093C156.285 82.1093 155.659 82.3483 155.224 82.8264C154.799 83.3045 154.586 83.939 154.586 84.73C154.586 85.547 154.807 86.1946 155.251 86.6726C155.694 87.1507 156.315 87.3897 157.115 87.3897C157.906 87.3897 158.506 87.1594 158.914 86.6987C159.331 86.2293 159.54 85.56 159.54 84.6908C159.54 83.8216 159.331 83.1741 158.914 82.7482C158.506 82.3223 157.902 82.1093 157.102 82.1093ZM170.117 88.1459C170.186 89.0064 170.382 89.7062 170.704 90.2451C171.034 90.784 171.455 91.1795 171.968 91.4315C172.481 91.6836 173.05 91.8096 173.676 91.8096C174.337 91.8096 174.958 91.7053 175.541 91.4967C176.123 91.2881 176.697 90.9969 177.262 90.6232L178.696 92.5919C178.053 93.1308 177.283 93.5654 176.388 93.8957C175.502 94.226 174.524 94.3912 173.455 94.3912C171.96 94.3912 170.699 94.0826 169.674 93.4655C168.657 92.8483 167.887 91.9922 167.366 90.897C166.844 89.8018 166.584 88.5414 166.584 87.1159C166.584 85.7426 166.84 84.504 167.353 83.4001C167.866 82.2962 168.604 81.4226 169.569 80.7794C170.534 80.1275 171.699 79.8016 173.063 79.8016C174.332 79.8016 175.428 80.0797 176.349 80.636C177.27 81.1923 177.983 81.992 178.487 83.035C178.991 84.0694 179.243 85.3167 179.243 86.7769C179.243 87.0116 179.235 87.2507 179.217 87.494C179.209 87.7374 179.196 87.9547 179.178 88.1459H170.117ZM173.076 82.2266C172.242 82.2266 171.555 82.5265 171.016 83.1263C170.486 83.7173 170.173 84.6561 170.078 85.9425H175.893C175.875 84.7778 175.632 83.8694 175.163 83.2175C174.702 82.5569 174.007 82.2266 173.076 82.2266ZM187.069 84.8734C187.069 86.0468 187.165 87.1203 187.356 88.0938C187.547 89.0586 187.847 89.9756 188.256 90.8448C188.664 91.7053 189.194 92.5615 189.846 93.4133C190.507 94.2651 191.307 95.1691 192.245 96.1252L190.29 97.9506C188.899 96.7771 187.699 95.5516 186.691 94.2738C185.691 92.9961 184.918 91.5923 184.37 90.0625C183.831 88.5327 183.562 86.803 183.562 84.8734C183.562 82.9437 183.831 81.214 184.37 79.6842C184.918 78.1457 185.691 76.742 186.691 75.4729C187.699 74.1952 188.899 72.9696 190.29 71.7962L192.245 73.6215C191.35 74.5342 190.576 75.4164 189.925 76.2682C189.273 77.1201 188.734 77.9849 188.308 78.8628C187.891 79.732 187.578 80.6577 187.369 81.6399C187.169 82.6134 187.069 83.6913 187.069 84.8734ZM219.814 89.0064C220.552 89.0064 221.165 89.2542 221.652 89.7496C222.147 90.2451 222.395 90.8535 222.395 91.5749C222.395 92.0182 222.321 92.4659 222.173 92.9179C222.026 93.3612 221.8 93.9305 221.495 94.6259L219.527 99.0849H217.049L218.353 93.6871C218.006 93.4524 217.736 93.1482 217.545 92.7745C217.354 92.4007 217.258 91.9965 217.258 91.5619C217.258 90.8405 217.501 90.2364 217.988 89.7496C218.475 89.2542 219.083 89.0064 219.814 89.0064ZM266.72 89.0064C267.459 89.0064 268.072 89.2542 268.558 89.7496C269.054 90.2451 269.302 90.8535 269.302 91.5749C269.302 92.0182 269.228 92.4659 269.08 92.9179C268.932 93.3612 268.706 93.9305 268.402 94.6259L266.433 99.0849H263.956L265.26 93.6871C264.912 93.4524 264.643 93.1482 264.451 92.7745C264.26 92.4007 264.165 91.9965 264.165 91.5619C264.165 90.8405 264.408 90.2364 264.895 89.7496C265.381 89.2542 265.99 89.0064 266.72 89.0064ZM315.1 84.8734C315.1 83.6913 314.996 82.6134 314.787 81.6399C314.587 80.6577 314.274 79.732 313.848 78.8628C313.431 77.9849 312.896 77.1201 312.245 76.2682C311.593 75.4164 310.819 74.5342 309.924 73.6215L311.879 71.7962C313.27 72.9696 314.465 74.1952 315.465 75.4729C316.473 76.742 317.247 78.1457 317.786 79.6842C318.333 81.214 318.607 82.9437 318.607 84.8734C318.607 86.803 318.333 88.5327 317.786 90.0625C317.247 91.5923 316.473 92.9961 315.465 94.2738C314.465 95.5516 313.27 96.7771 311.879 97.9506L309.924 96.1252C310.862 95.1691 311.658 94.2651 312.31 93.4133C312.97 92.5615 313.505 91.7053 313.913 90.8448C314.322 89.9756 314.622 89.0586 314.813 88.0938C315.004 87.1203 315.1 86.0468 315.1 84.8734Z" fill="black"/>
<path d="M203.487 75.5772C204.782 75.5772 205.869 75.8076 206.746 76.2682C207.633 76.7289 208.302 77.3504 208.754 78.1327C209.206 78.9063 209.432 79.7581 209.432 80.6882C209.432 81.4531 209.302 82.2006 209.041 82.9307C208.78 83.6608 208.355 84.4301 207.763 85.2384C207.181 86.0468 206.408 86.9464 205.443 87.9373C204.478 88.9195 203.287 90.0408 201.87 91.3011H209.85L209.471 94H197.933V91.4837C199.176 90.2842 200.249 89.2281 201.153 88.3154C202.057 87.3941 202.813 86.5814 203.422 85.8773C204.039 85.1732 204.526 84.5431 204.882 83.9868C205.247 83.4218 205.508 82.8959 205.664 82.4092C205.821 81.9224 205.899 81.4357 205.899 80.9489C205.899 80.1232 205.66 79.4713 205.182 78.9932C204.713 78.5151 204.052 78.2761 203.2 78.2761C202.444 78.2761 201.801 78.4239 201.271 78.7194C200.749 79.0062 200.236 79.4756 199.732 80.1275L197.568 78.4847C198.254 77.5634 199.071 76.8506 200.019 76.3465C200.966 75.8336 202.122 75.5772 203.487 75.5772Z" fill="#027D47"/>
<path d="M256.873 80.284C256.873 81.1358 256.63 81.8703 256.143 82.4874C255.665 83.1045 254.939 83.6869 253.966 84.2345C255.165 84.7995 256.069 85.4949 256.678 86.3206C257.286 87.1463 257.591 88.0807 257.591 89.1238C257.591 90.0712 257.334 90.9448 256.821 91.7444C256.317 92.5441 255.578 93.1873 254.605 93.6741C253.631 94.1521 252.436 94.3912 251.019 94.3912C249.611 94.3912 248.429 94.1565 247.473 93.6871C246.517 93.2091 245.795 92.5789 245.309 91.7966C244.822 91.0143 244.579 90.1538 244.579 89.2151C244.579 88.1546 244.887 87.242 245.504 86.4771C246.13 85.7122 246.964 85.0994 248.008 84.6387C247.069 84.0998 246.382 83.5174 245.948 82.8916C245.513 82.2658 245.296 81.4531 245.296 80.4535C245.296 79.6625 245.452 78.9671 245.765 78.3674C246.078 77.7589 246.504 77.2504 247.043 76.8419C247.59 76.4247 248.212 76.1118 248.907 75.9032C249.603 75.6859 250.333 75.5772 251.098 75.5772C251.897 75.5772 252.645 75.6815 253.34 75.8901C254.044 76.0901 254.661 76.3899 255.192 76.7898C255.722 77.1896 256.135 77.6807 256.43 78.2631C256.726 78.8454 256.873 79.5191 256.873 80.284ZM254.109 89.1238C254.109 88.4458 253.957 87.9069 253.653 87.5071C253.358 87.0985 252.919 86.7509 252.336 86.464C251.754 86.1772 251.032 85.8817 250.172 85.5774C249.772 85.8034 249.411 86.0772 249.09 86.3988C248.777 86.7204 248.525 87.0985 248.333 87.5331C248.151 87.9677 248.06 88.4762 248.06 89.0586C248.06 89.9017 248.312 90.5797 248.816 91.0925C249.329 91.6054 250.085 91.8618 251.085 91.8618C252.102 91.8618 252.858 91.5967 253.353 91.0665C253.857 90.5276 254.109 89.88 254.109 89.1238ZM248.594 80.4665C248.594 80.988 248.712 81.4226 248.946 81.7703C249.181 82.1093 249.529 82.4048 249.989 82.6569C250.45 82.909 251.019 83.1567 251.697 83.4001C252.367 82.9481 252.845 82.5004 253.132 82.0571C253.427 81.6052 253.575 81.0749 253.575 80.4665C253.575 79.7277 253.362 79.1323 252.936 78.6803C252.519 78.2196 251.906 77.9893 251.098 77.9893C250.307 77.9893 249.689 78.2022 249.246 78.6281C248.812 79.054 248.594 79.6668 248.594 80.4665Z" fill="#8B0101"/>
<path d="M300.716 75.9684V93.4785H297.339V79.4365L293.493 81.8225L292.02 79.4365L297.678 75.9684H300.716ZM304.223 91.3533V94H292.971V91.3533H304.223Z" fill="#0037AC"/>
<rect x="505.389" y="175.186" width="19.1617" height="19.1617" rx="3.74252" fill="#0037AC"/>
<path d="M512.812 180.191C512.685 179.882 512.246 179.882 512.119 180.192L511.92 180.678C511.882 180.769 511.882 180.871 511.919 180.962L514.593 187.522C514.693 187.768 514.512 188.037 514.246 188.037H511.585H510.687C510.421 188.037 510.24 187.767 510.341 187.521L510.802 186.397C510.839 186.306 510.84 186.204 510.803 186.114L510.593 185.599C510.466 185.288 510.027 185.288 509.9 185.598L508.643 188.659C508.542 188.905 508.723 189.175 508.989 189.175H515.942C516.208 189.175 516.389 188.905 516.288 188.659L512.812 180.191Z" fill="white"/>
<path d="M515.347 182.011C515.247 181.765 515.428 181.496 515.694 181.496H518.355H519.253C519.519 181.496 519.7 181.766 519.599 182.012L519.138 183.136C519.101 183.227 519.101 183.329 519.138 183.419L519.347 183.934C519.474 184.245 519.913 184.245 520.04 183.935L521.297 180.874C521.398 180.628 521.217 180.358 520.951 180.358H513.999C513.732 180.358 513.551 180.628 513.652 180.874L517.128 189.341C517.255 189.651 517.694 189.651 517.821 189.341L518.021 188.855C518.058 188.764 518.058 188.662 518.021 188.571L515.347 182.011Z" fill="white"/>
<path d="M536.368 186.455H533.656L533.128 188.281H531.83L534.245 180.69H535.829L538.25 188.281H536.897L536.368 186.455ZM533.92 185.47H536.099L535.015 181.68L533.92 185.47ZM540.545 182.472V186.532C540.545 186.877 540.613 187.123 540.749 187.269C540.888 187.416 541.097 187.489 541.376 187.489C541.64 187.489 541.895 187.41 542.14 187.253C542.386 187.095 542.58 186.902 542.723 186.675V182.472H543.956V188.281H542.894L542.817 187.539C542.601 187.829 542.327 188.05 541.997 188.204C541.667 188.355 541.33 188.43 540.985 188.43C540.424 188.43 540.004 188.276 539.725 187.968C539.45 187.656 539.313 187.229 539.313 186.686V182.472H540.545ZM550.762 187.973C550.549 188.109 550.294 188.219 549.997 188.303C549.7 188.388 549.39 188.43 549.067 188.43C548.393 188.43 547.879 188.256 547.527 187.907C547.179 187.555 547.004 187.093 547.004 186.521V183.369H545.712V182.472H547.004V181.174L548.237 181.025V182.472H550.195L550.058 183.369H548.237V186.51C548.237 186.822 548.314 187.055 548.468 187.209C548.625 187.359 548.882 187.434 549.238 187.434C549.451 187.434 549.647 187.409 549.827 187.357C550.006 187.306 550.169 187.24 550.316 187.159L550.762 187.973ZM554.834 182.318C555.402 182.318 555.881 182.445 556.27 182.698C556.658 182.951 556.952 183.305 557.15 183.76C557.351 184.214 557.452 184.75 557.452 185.366C557.452 185.978 557.35 186.516 557.144 186.978C556.943 187.436 556.645 187.794 556.253 188.05C555.864 188.303 555.389 188.43 554.828 188.43C554.267 188.43 553.79 188.307 553.398 188.061C553.009 187.812 552.712 187.458 552.507 187C552.305 186.541 552.204 186 552.204 185.377C552.204 184.772 552.305 184.24 552.507 183.782C552.712 183.323 553.011 182.966 553.403 182.709C553.796 182.448 554.273 182.318 554.834 182.318ZM554.834 183.275C554.39 183.275 554.056 183.446 553.833 183.787C553.609 184.124 553.497 184.654 553.497 185.377C553.497 186.096 553.607 186.626 553.827 186.967C554.051 187.308 554.385 187.478 554.828 187.478C555.272 187.478 555.604 187.308 555.824 186.967C556.048 186.626 556.16 186.092 556.16 185.366C556.16 184.651 556.05 184.124 555.829 183.787C555.609 183.446 555.278 183.275 554.834 183.275ZM559.159 188.281V187.401H560.012V183.347H559.159V182.472H560.952L561.178 183.82C561.394 183.332 561.662 182.962 561.981 182.709C562.304 182.452 562.718 182.324 563.224 182.324C563.397 182.324 563.551 182.338 563.686 182.368C563.826 182.393 563.963 182.428 564.099 182.472L563.73 183.528C563.613 183.495 563.503 183.472 563.4 183.457C563.298 183.439 563.184 183.429 563.059 183.429C562.637 183.429 562.272 183.587 561.964 183.903C561.66 184.218 561.42 184.665 561.244 185.245V187.401H562.416V188.281H559.159ZM563.01 184.612V183.182L563.164 182.472H564.099L563.89 184.612H563.01ZM567.027 187.434C567.027 187.167 567.122 186.937 567.313 186.747C567.503 186.552 567.738 186.455 568.017 186.455C568.299 186.455 568.534 186.552 568.721 186.747C568.912 186.937 569.007 187.167 569.007 187.434C569.007 187.709 568.912 187.944 568.721 188.138C568.534 188.333 568.299 188.43 568.017 188.43C567.738 188.43 567.503 188.333 567.313 188.138C567.122 187.944 567.027 187.709 567.027 187.434ZM567.027 183.528C567.027 183.349 567.071 183.184 567.159 183.033C567.247 182.883 567.366 182.764 567.516 182.676C567.667 182.588 567.833 182.544 568.017 182.544C568.299 182.544 568.534 182.641 568.721 182.835C568.912 183.026 569.007 183.257 569.007 183.528C569.007 183.8 568.912 184.035 568.721 184.233C568.534 184.427 568.299 184.524 568.017 184.524C567.738 184.524 567.503 184.427 567.313 184.233C567.122 184.035 567.027 183.8 567.027 183.528ZM583.714 180.657V185.536C583.714 185.98 583.646 186.382 583.51 186.741C583.375 187.101 583.175 187.407 582.911 187.66C582.65 187.913 582.329 188.107 581.948 188.243C581.57 188.379 581.138 188.446 580.65 188.446C580.158 188.446 579.733 188.384 579.374 188.259C579.018 188.131 578.675 187.955 578.345 187.731L579.032 186.62C579.293 186.8 579.537 186.926 579.764 187C579.992 187.069 580.25 187.104 580.54 187.104C580.932 187.104 581.259 186.98 581.519 186.73C581.783 186.477 581.915 186.086 581.915 185.558V181.977H579.572V180.657H583.714ZM587.813 182.247C588.415 182.247 588.927 182.375 589.348 182.632C589.77 182.889 590.093 183.25 590.316 183.716C590.54 184.178 590.652 184.72 590.652 185.344C590.652 185.993 590.538 186.552 590.311 187.022C590.087 187.487 589.765 187.845 589.343 188.094C588.921 188.344 588.411 188.468 587.813 188.468C587.219 188.468 586.71 188.346 586.284 188.1C585.862 187.854 585.538 187.498 585.31 187.033C585.087 186.567 584.975 186.008 584.975 185.355C584.975 184.735 585.087 184.192 585.31 183.727C585.538 183.261 585.862 182.898 586.284 182.637C586.71 182.377 587.219 182.247 587.813 182.247ZM587.813 183.528C587.458 183.528 587.194 183.675 587.021 183.969C586.853 184.258 586.768 184.72 586.768 185.355C586.768 186 586.853 186.468 587.021 186.758C587.194 187.047 587.458 187.192 587.813 187.192C588.169 187.192 588.431 187.047 588.6 186.758C588.772 186.468 588.859 185.997 588.859 185.344C588.859 184.713 588.772 184.253 588.6 183.963C588.431 183.673 588.169 183.528 587.813 183.528ZM594.223 187.225C594.513 187.225 594.746 187.179 594.922 187.088C595.102 186.996 595.192 186.858 595.192 186.675C595.192 186.55 595.157 186.446 595.087 186.362C595.017 186.277 594.884 186.197 594.686 186.119C594.487 186.042 594.194 185.951 593.805 185.844C593.45 185.749 593.134 185.628 592.859 185.481C592.588 185.335 592.375 185.146 592.221 184.915C592.071 184.684 591.995 184.396 591.995 184.051C591.995 183.703 592.093 183.393 592.287 183.121C592.481 182.85 592.767 182.637 593.145 182.483C593.523 182.326 593.985 182.247 594.532 182.247C595.052 182.247 595.505 182.315 595.89 182.45C596.279 182.582 596.615 182.751 596.897 182.956L596.204 183.98C595.962 183.829 595.701 183.71 595.423 183.622C595.144 183.53 594.863 183.484 594.581 183.484C594.299 183.484 594.088 183.523 593.948 183.6C593.813 183.673 593.745 183.785 593.745 183.936C593.745 184.035 593.78 184.121 593.849 184.194C593.923 184.264 594.058 184.337 594.256 184.414C594.454 184.488 594.744 184.579 595.126 184.689C595.503 184.796 595.832 184.918 596.11 185.058C596.393 185.197 596.611 185.384 596.765 185.619C596.919 185.85 596.996 186.156 596.996 186.538C596.996 186.963 596.869 187.321 596.616 187.61C596.363 187.896 596.028 188.111 595.61 188.254C595.192 188.397 594.733 188.468 594.234 188.468C593.67 188.468 593.171 188.388 592.738 188.226C592.305 188.065 591.937 187.852 591.632 187.588L592.507 186.609C592.734 186.785 592.991 186.932 593.277 187.049C593.567 187.167 593.882 187.225 594.223 187.225ZM599.984 185.866C600.025 186.186 600.107 186.444 600.232 186.642C600.36 186.836 600.523 186.98 600.721 187.071C600.919 187.159 601.141 187.203 601.387 187.203C601.655 187.203 601.913 187.159 602.163 187.071C602.412 186.983 602.652 186.866 602.883 186.719L603.582 187.665C603.307 187.9 602.973 188.093 602.581 188.243C602.192 188.393 601.748 188.468 601.25 188.468C600.582 188.468 600.023 188.336 599.572 188.072C599.121 187.805 598.781 187.438 598.554 186.972C598.327 186.506 598.213 185.971 598.213 185.366C598.213 184.79 598.323 184.267 598.543 183.798C598.763 183.325 599.084 182.949 599.506 182.67C599.931 182.388 600.45 182.247 601.063 182.247C601.62 182.247 602.102 182.366 602.509 182.604C602.92 182.843 603.237 183.186 603.461 183.633C603.688 184.08 603.802 184.618 603.802 185.245C603.802 185.344 603.798 185.45 603.791 185.564C603.787 185.678 603.78 185.778 603.769 185.866H599.984ZM601.063 183.413C600.751 183.413 600.5 183.525 600.309 183.749C600.118 183.972 600.003 184.33 599.962 184.821H602.108C602.104 184.396 602.022 184.055 601.86 183.798C601.699 183.541 601.433 183.413 601.063 183.413ZM608.309 182.247C608.818 182.247 609.229 182.373 609.541 182.626C609.853 182.879 610.08 183.237 610.223 183.699C610.37 184.161 610.443 184.709 610.443 185.344C610.443 185.945 610.355 186.483 610.179 186.956C610.003 187.425 609.748 187.796 609.414 188.067C609.081 188.335 608.675 188.468 608.199 188.468C607.63 188.468 607.168 188.265 606.812 187.858V190.537L605.074 190.718V182.439H606.614L606.691 183.094C606.93 182.789 607.19 182.573 607.473 182.445C607.755 182.313 608.034 182.247 608.309 182.247ZM607.77 183.528C607.568 183.528 607.39 183.589 607.236 183.71C607.082 183.831 606.941 183.996 606.812 184.205V186.67C606.933 186.849 607.06 186.981 607.192 187.066C607.328 187.15 607.487 187.192 607.671 187.192C607.979 187.192 608.219 187.053 608.391 186.774C608.564 186.492 608.65 186.022 608.65 185.366C608.65 184.882 608.615 184.508 608.545 184.244C608.476 183.976 608.375 183.791 608.243 183.688C608.111 183.582 607.953 183.528 607.77 183.528ZM613.409 179.947V183.017C613.655 182.756 613.921 182.564 614.207 182.439C614.497 182.311 614.803 182.247 615.126 182.247C615.647 182.247 616.044 182.399 616.32 182.703C616.595 183.008 616.732 183.437 616.732 183.991V188.281H614.994V184.475C614.994 184.123 614.953 183.877 614.873 183.738C614.796 183.598 614.649 183.528 614.433 183.528C614.312 183.528 614.192 183.558 614.075 183.616C613.961 183.672 613.85 183.752 613.739 183.859C613.629 183.965 613.519 184.091 613.409 184.238V188.281H611.671V180.118L613.409 179.947ZM630.344 186.053C630.344 186.527 630.22 186.945 629.97 187.308C629.724 187.671 629.371 187.955 628.908 188.16C628.446 188.366 627.891 188.468 627.242 188.468C626.523 188.468 625.92 188.364 625.432 188.155C624.948 187.942 624.546 187.68 624.227 187.368L625.14 186.356C625.423 186.602 625.734 186.792 626.075 186.928C626.416 187.06 626.791 187.126 627.198 187.126C627.451 187.126 627.673 187.09 627.863 187.016C628.054 186.943 628.202 186.836 628.309 186.697C628.415 186.558 628.468 186.389 628.468 186.191C628.468 186.004 628.426 185.846 628.342 185.718C628.257 185.59 628.114 185.474 627.913 185.371C627.715 185.269 627.438 185.164 627.082 185.058C626.488 184.874 626.009 184.673 625.646 184.453C625.287 184.233 625.025 183.978 624.86 183.688C624.698 183.398 624.618 183.061 624.618 182.676C624.618 182.21 624.746 181.812 625.003 181.482C625.263 181.152 625.611 180.901 626.048 180.728C626.484 180.552 626.965 180.464 627.489 180.464C628.08 180.464 628.6 180.551 629.051 180.723C629.503 180.892 629.893 181.134 630.223 181.449L629.371 182.428C629.114 182.212 628.837 182.052 628.54 181.95C628.243 181.843 627.94 181.79 627.632 181.79C627.405 181.79 627.205 181.819 627.033 181.878C626.86 181.933 626.726 182.016 626.631 182.126C626.536 182.236 626.488 182.373 626.488 182.538C626.488 182.7 626.534 182.835 626.625 182.945C626.717 183.055 626.877 183.16 627.104 183.259C627.331 183.354 627.647 183.466 628.05 183.594C628.531 183.741 628.941 183.917 629.283 184.123C629.627 184.324 629.889 184.579 630.069 184.887C630.253 185.195 630.344 185.584 630.344 186.053ZM636.38 186.598C636.38 186.818 636.41 186.978 636.468 187.077C636.531 187.176 636.63 187.251 636.765 187.302L636.408 188.446C636.063 188.413 635.771 188.338 635.533 188.221C635.298 188.1 635.113 187.918 634.977 187.676C634.754 187.944 634.468 188.144 634.119 188.276C633.771 188.404 633.415 188.468 633.052 188.468C632.451 188.468 631.97 188.298 631.611 187.957C631.255 187.612 631.077 187.17 631.077 186.631C631.077 185.997 631.325 185.507 631.82 185.162C632.319 184.818 633.019 184.645 633.921 184.645H634.708V184.425C634.708 184.121 634.609 183.895 634.411 183.749C634.216 183.602 633.93 183.528 633.553 183.528C633.366 183.528 633.125 183.556 632.832 183.611C632.539 183.662 632.245 183.738 631.952 183.837L631.55 182.681C631.928 182.538 632.32 182.43 632.727 182.357C633.138 182.283 633.505 182.247 633.828 182.247C634.697 182.247 635.339 182.425 635.753 182.78C636.171 183.132 636.38 183.642 636.38 184.31V186.598ZM633.652 187.225C633.839 187.225 634.035 187.17 634.24 187.06C634.446 186.946 634.601 186.787 634.708 186.582V185.635H634.279C633.795 185.635 633.439 185.711 633.212 185.861C632.984 186.008 632.87 186.224 632.87 186.51C632.87 186.734 632.938 186.91 633.074 187.038C633.213 187.163 633.406 187.225 633.652 187.225ZM638.059 188.281V182.439H639.578L639.699 183.116C639.959 182.822 640.234 182.604 640.524 182.461C640.813 182.318 641.143 182.247 641.514 182.247C642.013 182.247 642.405 182.399 642.691 182.703C642.977 183.008 643.12 183.437 643.12 183.991V188.281H641.382V184.491C641.382 184.253 641.365 184.064 641.332 183.925C641.299 183.782 641.241 183.681 641.156 183.622C641.076 183.56 640.964 183.528 640.821 183.528C640.7 183.528 640.581 183.556 640.463 183.611C640.35 183.662 640.238 183.738 640.128 183.837C640.018 183.936 639.908 184.055 639.798 184.194V188.281H638.059ZM649.915 187.94C649.688 188.087 649.413 188.212 649.09 188.314C648.767 188.417 648.404 188.468 648.001 188.468C647.238 188.468 646.671 188.274 646.301 187.885C645.931 187.493 645.745 186.961 645.745 186.29V183.638H644.519V182.439H645.745V181.174L647.484 180.965V182.439H649.365L649.195 183.638H647.484V186.29C647.484 186.58 647.55 186.787 647.682 186.912C647.814 187.036 648.025 187.099 648.314 187.099C648.52 187.099 648.707 187.075 648.876 187.027C649.048 186.976 649.202 186.912 649.338 186.835L649.915 187.94ZM654.823 182.439V187.093H656.309V188.281H651.429V187.093H653.085V183.627H651.484V182.439H654.823ZM653.773 179.381C654.074 179.381 654.319 179.474 654.51 179.661C654.701 179.848 654.796 180.081 654.796 180.36C654.796 180.639 654.701 180.873 654.51 181.064C654.319 181.251 654.074 181.345 653.773 181.345C653.468 181.345 653.219 181.251 653.025 181.064C652.834 180.873 652.739 180.639 652.739 180.36C652.739 180.081 652.834 179.848 653.025 179.661C653.219 179.474 653.468 179.381 653.773 179.381ZM662.768 186.598C662.768 186.818 662.798 186.978 662.856 187.077C662.919 187.176 663.018 187.251 663.153 187.302L662.796 188.446C662.451 188.413 662.16 188.338 661.921 188.221C661.686 188.1 661.501 187.918 661.366 187.676C661.142 187.944 660.856 188.144 660.507 188.276C660.159 188.404 659.803 188.468 659.44 188.468C658.839 188.468 658.358 188.298 657.999 187.957C657.643 187.612 657.465 187.17 657.465 186.631C657.465 185.997 657.713 185.507 658.208 185.162C658.707 184.818 659.407 184.645 660.309 184.645H661.096V184.425C661.096 184.121 660.997 183.895 660.799 183.749C660.605 183.602 660.318 183.528 659.941 183.528C659.754 183.528 659.513 183.556 659.22 183.611C658.927 183.662 658.633 183.738 658.34 183.837L657.938 182.681C658.316 182.538 658.708 182.43 659.116 182.357C659.526 182.283 659.893 182.247 660.216 182.247C661.085 182.247 661.727 182.425 662.141 182.78C662.559 183.132 662.768 183.642 662.768 184.31V186.598ZM660.04 187.225C660.227 187.225 660.423 187.17 660.628 187.06C660.834 186.946 660.99 186.787 661.096 186.582V185.635H660.667C660.183 185.635 659.827 185.711 659.6 185.861C659.372 186.008 659.259 186.224 659.259 186.51C659.259 186.734 659.326 186.91 659.462 187.038C659.601 187.163 659.794 187.225 660.04 187.225ZM669.635 181.504L670.042 182.78C669.837 182.861 669.596 182.92 669.321 182.956C669.046 182.993 668.725 183.011 668.359 183.011C668.725 183.169 669.004 183.365 669.195 183.6C669.389 183.831 669.486 184.135 669.486 184.513C669.486 184.891 669.386 185.228 669.184 185.525C668.982 185.819 668.696 186.05 668.326 186.219C667.955 186.387 667.517 186.472 667.011 186.472C666.886 186.472 666.769 186.466 666.659 186.455C666.549 186.444 666.441 186.428 666.334 186.406C666.272 186.439 666.224 186.486 666.191 186.549C666.158 186.611 666.142 186.675 666.142 186.741C666.142 186.833 666.178 186.915 666.252 186.989C666.329 187.062 666.507 187.099 666.785 187.099H667.743C668.197 187.099 668.59 187.172 668.92 187.319C669.253 187.465 669.512 187.665 669.695 187.918C669.879 188.171 669.97 188.461 669.97 188.788C669.97 189.385 669.708 189.857 669.184 190.201C668.659 190.546 667.88 190.718 666.846 190.718C666.098 190.718 665.518 190.641 665.107 190.487C664.7 190.337 664.416 190.121 664.255 189.838C664.097 189.56 664.018 189.228 664.018 188.843H665.559C665.559 189.011 665.592 189.149 665.658 189.255C665.727 189.365 665.857 189.446 666.048 189.497C666.243 189.549 666.523 189.574 666.89 189.574C667.26 189.574 667.543 189.545 667.737 189.486C667.931 189.427 668.063 189.347 668.133 189.244C668.206 189.145 668.243 189.033 668.243 188.909C668.243 188.736 668.175 188.597 668.04 188.49C667.904 188.384 667.689 188.331 667.396 188.331H666.466C665.835 188.331 665.377 188.215 665.091 187.984C664.805 187.75 664.662 187.476 664.662 187.165C664.662 186.948 664.719 186.743 664.832 186.549C664.95 186.354 665.113 186.191 665.322 186.059C664.948 185.861 664.68 185.628 664.519 185.36C664.357 185.089 664.277 184.764 664.277 184.387C664.277 183.947 664.389 183.569 664.612 183.253C664.836 182.934 665.144 182.689 665.537 182.516C665.933 182.344 666.384 182.258 666.89 182.258C667.326 182.265 667.706 182.236 668.029 182.17C668.351 182.1 668.641 182.007 668.898 181.889C669.154 181.768 669.4 181.64 669.635 181.504ZM666.934 183.385C666.659 183.385 666.441 183.473 666.279 183.649C666.118 183.822 666.037 184.06 666.037 184.365C666.037 184.687 666.12 184.935 666.285 185.107C666.45 185.28 666.666 185.366 666.934 185.366C667.224 185.366 667.444 185.28 667.594 185.107C667.748 184.935 667.825 184.68 667.825 184.343C667.825 184.016 667.75 183.776 667.599 183.622C667.449 183.464 667.227 183.385 666.934 183.385ZM673.575 182.247C674.176 182.247 674.688 182.375 675.11 182.632C675.531 182.889 675.854 183.25 676.078 183.716C676.302 184.178 676.413 184.72 676.413 185.344C676.413 185.993 676.3 186.552 676.072 187.022C675.849 187.487 675.526 187.845 675.104 188.094C674.682 188.344 674.173 188.468 673.575 188.468C672.981 188.468 672.471 188.346 672.046 188.1C671.624 187.854 671.299 187.498 671.072 187.033C670.848 186.567 670.736 186.008 670.736 185.355C670.736 184.735 670.848 184.192 671.072 183.727C671.299 183.261 671.624 182.898 672.046 182.637C672.471 182.377 672.981 182.247 673.575 182.247ZM673.575 183.528C673.219 183.528 672.955 183.675 672.783 183.969C672.614 184.258 672.53 184.72 672.53 185.355C672.53 186 672.614 186.468 672.783 186.758C672.955 187.047 673.219 187.192 673.575 187.192C673.931 187.192 674.193 187.047 674.362 186.758C674.534 186.468 674.62 185.997 674.62 185.344C674.62 184.713 674.534 184.253 674.362 183.963C674.193 183.673 673.931 183.528 673.575 183.528ZM687.952 183.143C687.952 182.872 687.9 182.648 687.798 182.472C687.699 182.293 687.546 182.161 687.341 182.076C687.139 181.988 686.884 181.944 686.576 181.944H685.96V184.436H686.67C686.938 184.436 687.167 184.39 687.358 184.299C687.548 184.207 687.695 184.066 687.798 183.875C687.9 183.684 687.952 183.44 687.952 183.143ZM689.811 183.138C689.811 183.728 689.685 184.216 689.431 184.601C689.178 184.986 688.825 185.274 688.37 185.465C687.915 185.652 687.387 185.745 686.785 185.745H685.96V188.281H684.156V180.657H686.554C687.589 180.657 688.39 180.862 688.958 181.273C689.527 181.684 689.811 182.305 689.811 183.138ZM693.366 182.247C693.967 182.247 694.479 182.375 694.901 182.632C695.323 182.889 695.645 183.25 695.869 183.716C696.093 184.178 696.205 184.72 696.205 185.344C696.205 185.993 696.091 186.552 695.863 187.022C695.64 187.487 695.317 187.845 694.895 188.094C694.474 188.344 693.964 188.468 693.366 188.468C692.772 188.468 692.262 188.346 691.837 188.1C691.415 187.854 691.09 187.498 690.863 187.033C690.639 186.567 690.527 186.008 690.527 185.355C690.527 184.735 690.639 184.192 690.863 183.727C691.09 183.261 691.415 182.898 691.837 182.637C692.262 182.377 692.772 182.247 693.366 182.247ZM693.366 183.528C693.01 183.528 692.746 183.675 692.574 183.969C692.405 184.258 692.321 184.72 692.321 185.355C692.321 186 692.405 186.468 692.574 186.758C692.746 187.047 693.01 187.192 693.366 187.192C693.722 187.192 693.984 187.047 694.153 186.758C694.325 186.468 694.411 185.997 694.411 185.344C694.411 184.713 694.325 184.253 694.153 183.963C693.984 183.673 693.722 183.528 693.366 183.528ZM697.488 188.281V187.115H698.258V183.594H697.488V182.439H699.583L699.903 183.754C700.112 183.252 700.377 182.878 700.7 182.632C701.027 182.386 701.424 182.263 701.894 182.263C702.092 182.263 702.268 182.28 702.422 182.313C702.576 182.342 702.721 182.384 702.857 182.439L702.328 183.875C702.222 183.846 702.116 183.824 702.009 183.809C701.903 183.794 701.786 183.787 701.657 183.787C701.276 183.787 700.94 183.943 700.651 184.255C700.365 184.566 700.146 184.962 699.996 185.443V187.115H701.151V188.281H697.488ZM701.443 184.882V183.176L701.701 182.439H702.857L702.532 184.882H701.443ZM709.289 187.94C709.061 188.087 708.786 188.212 708.463 188.314C708.141 188.417 707.778 188.468 707.374 188.468C706.611 188.468 706.045 188.274 705.674 187.885C705.304 187.493 705.119 186.961 705.119 186.29V183.638H703.892V182.439H705.119V181.174L706.857 180.965V182.439H708.739L708.568 183.638H706.857V186.29C706.857 186.58 706.923 186.787 707.055 186.912C707.187 187.036 707.398 187.099 707.688 187.099C707.893 187.099 708.08 187.075 708.249 187.027C708.421 186.976 708.575 186.912 708.711 186.835L709.289 187.94ZM714.197 182.439V187.093H715.682V188.281H710.803V187.093H712.458V183.627H710.858V182.439H714.197ZM713.146 179.381C713.447 179.381 713.693 179.474 713.883 179.661C714.074 179.848 714.169 180.081 714.169 180.36C714.169 180.639 714.074 180.873 713.883 181.064C713.693 181.251 713.447 181.345 713.146 181.345C712.842 181.345 712.592 181.251 712.398 181.064C712.207 180.873 712.112 180.639 712.112 180.36C712.112 180.081 712.207 179.848 712.398 179.661C712.592 179.474 712.842 179.381 713.146 179.381ZM720.271 180.118V186.444C720.271 186.679 720.337 186.847 720.469 186.95C720.605 187.049 720.79 187.099 721.025 187.099C721.175 187.099 721.32 187.082 721.459 187.049C721.599 187.013 721.729 186.97 721.85 186.923L722.268 188.083C722.07 188.186 721.832 188.276 721.553 188.353C721.274 188.43 720.95 188.468 720.579 188.468C719.875 188.468 719.358 188.267 719.028 187.863C718.698 187.456 718.533 186.912 718.533 186.23V181.306H716.811V180.118H720.271ZM726.868 180.118V186.444C726.868 186.679 726.934 186.847 727.066 186.95C727.202 187.049 727.387 187.099 727.622 187.099C727.772 187.099 727.917 187.082 728.057 187.049C728.196 187.013 728.326 186.97 728.447 186.923L728.865 188.083C728.667 188.186 728.429 188.276 728.15 188.353C727.871 188.43 727.547 188.468 727.176 188.468C726.472 188.468 725.955 188.267 725.625 187.863C725.295 187.456 725.13 186.912 725.13 186.23V181.306H723.408V180.118H726.868ZM735.336 186.598C735.336 186.818 735.365 186.978 735.424 187.077C735.486 187.176 735.585 187.251 735.721 187.302L735.363 188.446C735.018 188.413 734.727 188.338 734.489 188.221C734.254 188.1 734.069 187.918 733.933 187.676C733.709 187.944 733.423 188.144 733.075 188.276C732.726 188.404 732.371 188.468 732.008 188.468C731.406 188.468 730.926 188.298 730.566 187.957C730.21 187.612 730.033 187.17 730.033 186.631C730.033 185.997 730.28 185.507 730.775 185.162C731.274 184.818 731.975 184.645 732.877 184.645H733.663V184.425C733.663 184.121 733.564 183.895 733.366 183.749C733.172 183.602 732.886 183.528 732.508 183.528C732.321 183.528 732.081 183.556 731.787 183.611C731.494 183.662 731.201 183.738 730.907 183.837L730.506 182.681C730.883 182.538 731.276 182.43 731.683 182.357C732.094 182.283 732.46 182.247 732.783 182.247C733.652 182.247 734.294 182.425 734.709 182.78C735.127 183.132 735.336 183.642 735.336 184.31V186.598ZM732.607 187.225C732.794 187.225 732.99 187.17 733.196 187.06C733.401 186.946 733.557 186.787 733.663 186.582V185.635H733.234C732.75 185.635 732.394 185.711 732.167 185.861C731.94 186.008 731.826 186.224 731.826 186.51C731.826 186.734 731.894 186.91 732.03 187.038C732.169 187.163 732.361 187.225 732.607 187.225ZM737.163 185.514V184.161H741.927V185.514H737.163ZM748.821 180.657L749.25 188.281H747.677L747.584 185.019C747.576 184.715 747.573 184.443 747.573 184.205C747.576 183.967 747.582 183.743 747.589 183.534C747.596 183.321 747.607 183.109 747.622 182.896C747.64 182.679 747.659 182.445 747.677 182.192L746.819 186.983H745.455L744.53 182.192C744.552 182.434 744.571 182.663 744.585 182.879C744.604 183.092 744.617 183.307 744.624 183.523C744.631 183.739 744.637 183.972 744.64 184.222C744.644 184.467 744.642 184.742 744.635 185.047L744.58 188.281H743.034L743.463 180.657H745.317L746.164 185.586L746.967 180.657H748.821ZM755.127 186.598C755.127 186.818 755.156 186.978 755.215 187.077C755.277 187.176 755.376 187.251 755.512 187.302L755.154 188.446C754.81 188.413 754.518 188.338 754.28 188.221C754.045 188.1 753.86 187.918 753.724 187.676C753.5 187.944 753.214 188.144 752.866 188.276C752.517 188.404 752.162 188.468 751.799 188.468C751.197 188.468 750.717 188.298 750.357 187.957C750.002 187.612 749.824 187.17 749.824 186.631C749.824 185.997 750.071 185.507 750.566 185.162C751.065 184.818 751.766 184.645 752.668 184.645H753.454V184.425C753.454 184.121 753.355 183.895 753.157 183.749C752.963 183.602 752.677 183.528 752.299 183.528C752.112 183.528 751.872 183.556 751.579 183.611C751.285 183.662 750.992 183.738 750.698 183.837L750.297 182.681C750.675 182.538 751.067 182.43 751.474 182.357C751.885 182.283 752.252 182.247 752.574 182.247C753.443 182.247 754.085 182.425 754.5 182.78C754.918 183.132 755.127 183.642 755.127 184.31V186.598ZM752.398 187.225C752.585 187.225 752.781 187.17 752.987 187.06C753.192 186.946 753.348 186.787 753.454 186.582V185.635H753.025C752.541 185.635 752.186 185.711 751.958 185.861C751.731 186.008 751.617 186.224 751.617 186.51C751.617 186.734 751.685 186.91 751.821 187.038C751.96 187.163 752.153 187.225 752.398 187.225ZM756.861 188.281V187.115H757.631V183.594H756.861V182.439H758.957L759.276 183.754C759.485 183.252 759.751 182.878 760.073 182.632C760.4 182.386 760.798 182.263 761.267 182.263C761.465 182.263 761.641 182.28 761.795 182.313C761.949 182.342 762.094 182.384 762.23 182.439L761.702 183.875C761.595 183.846 761.489 183.824 761.383 183.809C761.276 183.794 761.159 183.787 761.031 183.787C760.649 183.787 760.314 183.943 760.024 184.255C759.738 184.566 759.52 184.962 759.369 185.443V187.115H760.525V188.281H756.861ZM760.816 184.882V183.176L761.075 182.439H762.23L761.905 184.882H760.816ZM768.662 187.94C768.435 188.087 768.159 188.212 767.837 188.314C767.514 188.417 767.151 188.468 766.748 188.468C765.985 188.468 765.418 188.274 765.048 187.885C764.677 187.493 764.492 186.961 764.492 186.29V183.638H763.265V182.439H764.492V181.174L766.23 180.965V182.439H768.112L767.941 183.638H766.23V186.29C766.23 186.58 766.296 186.787 766.428 186.912C766.56 187.036 766.771 187.099 767.061 187.099C767.266 187.099 767.454 187.075 767.622 187.027C767.795 186.976 767.949 186.912 768.084 186.835L768.662 187.94ZM773.57 182.439V187.093H775.055V188.281H770.176V187.093H771.832V183.627H770.231V182.439H773.57ZM773.356 179.095L774.032 180.404L771.436 181.433L770.957 180.552L773.356 179.095ZM776.597 188.281V182.439H778.115L778.236 183.116C778.497 182.822 778.772 182.604 779.061 182.461C779.351 182.318 779.681 182.247 780.052 182.247C780.55 182.247 780.943 182.399 781.229 182.703C781.515 183.008 781.658 183.437 781.658 183.991V188.281H779.92V184.491C779.92 184.253 779.903 184.064 779.87 183.925C779.837 183.782 779.778 183.681 779.694 183.622C779.613 183.56 779.502 183.528 779.358 183.528C779.237 183.528 779.118 183.556 779.001 183.611C778.887 183.662 778.775 183.738 778.665 183.837C778.555 183.936 778.445 184.055 778.335 184.194V188.281H776.597ZM784.701 185.866C784.742 186.186 784.824 186.444 784.949 186.642C785.077 186.836 785.24 186.98 785.438 187.071C785.636 187.159 785.858 187.203 786.104 187.203C786.372 187.203 786.63 187.159 786.88 187.071C787.129 186.983 787.369 186.866 787.6 186.719L788.299 187.665C788.024 187.9 787.69 188.093 787.298 188.243C786.909 188.393 786.465 188.468 785.967 188.468C785.299 188.468 784.74 188.336 784.289 188.072C783.838 187.805 783.498 187.438 783.271 186.972C783.044 186.506 782.93 185.971 782.93 185.366C782.93 184.79 783.04 184.267 783.26 183.798C783.48 183.325 783.801 182.949 784.223 182.67C784.648 182.388 785.167 182.247 785.779 182.247C786.337 182.247 786.819 182.366 787.226 182.604C787.637 182.843 787.954 183.186 788.178 183.633C788.405 184.08 788.519 184.618 788.519 185.245C788.519 185.344 788.515 185.45 788.508 185.564C788.504 185.678 788.497 185.778 788.486 185.866H784.701ZM785.779 183.413C785.468 183.413 785.217 183.525 785.026 183.749C784.835 183.972 784.72 184.33 784.679 184.821H786.825C786.821 184.396 786.739 184.055 786.577 183.798C786.416 183.541 786.15 183.413 785.779 183.413ZM791.865 186.967H794.792L794.626 188.281H789.813V187.055L792.712 183.749H790.055V182.439H794.736V183.661L791.865 186.967ZM806.077 178.379V191.582H804.954V178.379H806.077ZM818.545 180.536C819.095 180.536 819.564 180.617 819.953 180.778C820.342 180.936 820.663 181.157 820.916 181.444C821.172 181.726 821.372 182.06 821.515 182.445C821.658 182.83 821.759 183.248 821.818 183.699C821.876 184.15 821.906 184.618 821.906 185.102C821.906 186.026 821.862 186.8 821.774 187.423C821.686 188.043 821.521 188.509 821.279 188.821C821.04 189.136 820.696 189.294 820.244 189.294C820.024 189.294 819.832 189.244 819.667 189.145C819.505 189.046 819.372 188.918 819.265 188.76C819.163 188.606 819.084 188.439 819.029 188.259C818.977 188.076 818.948 187.904 818.941 187.742H818.897C818.823 187.918 818.722 188.087 818.594 188.248C818.466 188.41 818.303 188.542 818.105 188.645C817.906 188.747 817.664 188.799 817.378 188.799C816.968 188.799 816.638 188.689 816.388 188.468C816.139 188.252 815.957 187.953 815.844 187.572C815.73 187.19 815.673 186.759 815.673 186.279C815.673 185.344 815.864 184.631 816.245 184.139C816.627 183.644 817.178 183.396 817.901 183.396C818.172 183.396 818.44 183.429 818.704 183.495C818.972 183.558 819.26 183.672 819.568 183.837V187.104C819.568 187.453 819.595 187.722 819.65 187.913C819.705 188.104 819.781 188.236 819.876 188.309C819.975 188.382 820.087 188.419 820.211 188.419C820.358 188.419 820.472 188.344 820.553 188.193C820.637 188.043 820.697 187.827 820.734 187.544C820.771 187.258 820.793 186.913 820.8 186.51C820.807 186.107 820.811 185.652 820.811 185.146C820.811 184.603 820.78 184.106 820.718 183.655C820.659 183.2 820.547 182.808 820.382 182.478C820.221 182.148 819.99 181.893 819.689 181.713C819.388 181.533 818.998 181.444 818.517 181.444C818.147 181.444 817.756 181.513 817.345 181.653C816.938 181.792 816.509 182.06 816.058 182.456L815.464 181.768C815.963 181.335 816.467 181.022 816.977 180.827C817.49 180.633 818.013 180.536 818.545 180.536ZM817.917 184.233C817.496 184.233 817.208 184.398 817.054 184.728C816.9 185.054 816.823 185.571 816.823 186.279C816.823 186.631 816.845 186.932 816.889 187.181C816.933 187.431 817.01 187.621 817.12 187.753C817.23 187.885 817.378 187.951 817.565 187.951C817.789 187.951 817.963 187.9 818.088 187.797C818.213 187.695 818.306 187.574 818.369 187.434C818.431 187.291 818.479 187.167 818.512 187.06V184.376C818.413 184.324 818.317 184.288 818.226 184.266C818.134 184.244 818.031 184.233 817.917 184.233ZM827.804 180.657V185.536C827.804 185.98 827.736 186.382 827.601 186.741C827.465 187.101 827.265 187.407 827.001 187.66C826.741 187.913 826.42 188.107 826.038 188.243C825.661 188.379 825.228 188.446 824.74 188.446C824.249 188.446 823.823 188.384 823.464 188.259C823.108 188.131 822.765 187.955 822.435 187.731L823.123 186.62C823.383 186.8 823.627 186.926 823.854 187C824.082 187.069 824.34 187.104 824.63 187.104C825.022 187.104 825.349 186.98 825.609 186.73C825.873 186.477 826.005 186.086 826.005 185.558V181.977H823.662V180.657H827.804ZM831.904 182.247C832.505 182.247 833.017 182.375 833.439 182.632C833.86 182.889 834.183 183.25 834.407 183.716C834.63 184.178 834.742 184.72 834.742 185.344C834.742 185.993 834.629 186.552 834.401 187.022C834.177 187.487 833.855 187.845 833.433 188.094C833.011 188.344 832.501 188.468 831.904 188.468C831.31 188.468 830.8 188.346 830.374 188.1C829.953 187.854 829.628 187.498 829.401 187.033C829.177 186.567 829.065 186.008 829.065 185.355C829.065 184.735 829.177 184.192 829.401 183.727C829.628 183.261 829.953 182.898 830.374 182.637C830.8 182.377 831.31 182.247 831.904 182.247ZM831.904 183.528C831.548 183.528 831.284 183.675 831.112 183.969C830.943 184.258 830.858 184.72 830.858 185.355C830.858 186 830.943 186.468 831.112 186.758C831.284 187.047 831.548 187.192 831.904 187.192C832.259 187.192 832.522 187.047 832.69 186.758C832.863 186.468 832.949 185.997 832.949 185.344C832.949 184.713 832.863 184.253 832.69 183.963C832.522 183.673 832.259 183.528 831.904 183.528ZM837.478 185.866C837.518 186.186 837.6 186.444 837.725 186.642C837.853 186.836 838.017 186.98 838.215 187.071C838.413 187.159 838.635 187.203 838.88 187.203C839.148 187.203 839.407 187.159 839.656 187.071C839.905 186.983 840.146 186.866 840.377 186.719L841.075 187.665C840.8 187.9 840.466 188.093 840.074 188.243C839.685 188.393 839.242 188.468 838.743 188.468C838.075 188.468 837.516 188.336 837.065 188.072C836.614 187.805 836.275 187.438 836.047 186.972C835.82 186.506 835.706 185.971 835.706 185.366C835.706 184.79 835.816 184.267 836.036 183.798C836.256 183.325 836.577 182.949 836.999 182.67C837.424 182.388 837.943 182.247 838.556 182.247C839.113 182.247 839.595 182.366 840.003 182.604C840.413 182.843 840.731 183.186 840.954 183.633C841.182 184.08 841.295 184.618 841.295 185.245C841.295 185.344 841.292 185.45 841.284 185.564C841.281 185.678 841.273 185.778 841.262 185.866H837.478ZM838.556 183.413C838.244 183.413 837.993 183.525 837.802 183.749C837.611 183.972 837.496 184.33 837.456 184.821H839.601C839.597 184.396 839.515 184.055 839.353 183.798C839.192 183.541 838.926 183.413 838.556 183.413ZM846.281 183.143C846.281 182.872 846.229 182.648 846.126 182.472C846.027 182.293 845.875 182.161 845.67 182.076C845.468 181.988 845.213 181.944 844.905 181.944H844.289V184.436H844.999C845.266 184.436 845.496 184.39 845.686 184.299C845.877 184.207 846.024 184.066 846.126 183.875C846.229 183.684 846.281 183.44 846.281 183.143ZM848.14 183.138C848.14 183.728 848.013 184.216 847.76 184.601C847.507 184.986 847.153 185.274 846.699 185.465C846.244 185.652 845.716 185.745 845.114 185.745H844.289V188.281H842.485V180.657H844.883C845.917 180.657 846.719 180.862 847.287 181.273C847.856 181.684 848.14 182.305 848.14 183.138ZM851.695 182.247C852.296 182.247 852.808 182.375 853.23 182.632C853.651 182.889 853.974 183.25 854.198 183.716C854.422 184.178 854.533 184.72 854.533 185.344C854.533 185.993 854.42 186.552 854.192 187.022C853.969 187.487 853.646 187.845 853.224 188.094C852.802 188.344 852.293 188.468 851.695 188.468C851.101 188.468 850.591 188.346 850.165 188.1C849.744 187.854 849.419 187.498 849.192 187.033C848.968 186.567 848.856 186.008 848.856 185.355C848.856 184.735 848.968 184.192 849.192 183.727C849.419 183.261 849.744 182.898 850.165 182.637C850.591 182.377 851.101 182.247 851.695 182.247ZM851.695 183.528C851.339 183.528 851.075 183.675 850.903 183.969C850.734 184.258 850.65 184.72 850.65 185.355C850.65 186 850.734 186.468 850.903 186.758C851.075 187.047 851.339 187.192 851.695 187.192C852.051 187.192 852.313 187.047 852.481 186.758C852.654 186.468 852.74 185.997 852.74 185.344C852.74 184.713 852.654 184.253 852.481 183.963C852.313 183.673 852.051 183.528 851.695 183.528ZM855.816 188.281V187.115H856.587V183.594H855.816V182.439H857.912L858.231 183.754C858.44 183.252 858.706 182.878 859.029 182.632C859.355 182.386 859.753 182.263 860.223 182.263C860.421 182.263 860.597 182.28 860.751 182.313C860.905 182.342 861.05 182.384 861.185 182.439L860.657 183.875C860.551 183.846 860.445 183.824 860.338 183.809C860.232 183.794 860.115 183.787 859.986 183.787C859.605 183.787 859.269 183.943 858.979 184.255C858.693 184.566 858.475 184.962 858.325 185.443V187.115H859.48V188.281H855.816ZM859.772 184.882V183.176L860.03 182.439H861.185L860.861 184.882H859.772ZM867.617 187.94C867.39 188.087 867.115 188.212 866.792 188.314C866.47 188.417 866.106 188.468 865.703 188.468C864.94 188.468 864.374 188.274 864.003 187.885C863.633 187.493 863.448 186.961 863.448 186.29V183.638H862.221V182.439H863.448V181.174L865.186 180.965V182.439H867.067L866.897 183.638H865.186V186.29C865.186 186.58 865.252 186.787 865.384 186.912C865.516 187.036 865.727 187.099 866.017 187.099C866.222 187.099 866.409 187.075 866.578 187.027C866.75 186.976 866.904 186.912 867.04 186.835L867.617 187.94ZM872.526 182.439V187.093H874.011V188.281H869.131V187.093H870.787V183.627H869.186V182.439H872.526ZM871.475 179.381C871.776 179.381 872.021 179.474 872.212 179.661C872.403 179.848 872.498 180.081 872.498 180.36C872.498 180.639 872.403 180.873 872.212 181.064C872.021 181.251 871.776 181.345 871.475 181.345C871.171 181.345 870.921 181.251 870.727 181.064C870.536 180.873 870.441 180.639 870.441 180.36C870.441 180.081 870.536 179.848 870.727 179.661C870.921 179.474 871.171 179.381 871.475 179.381ZM878.6 180.118V186.444C878.6 186.679 878.666 186.847 878.798 186.95C878.934 187.049 879.119 187.099 879.354 187.099C879.504 187.099 879.649 187.082 879.788 187.049C879.928 187.013 880.058 186.97 880.179 186.923L880.597 188.083C880.399 188.186 880.161 188.276 879.882 188.353C879.603 188.43 879.279 188.468 878.908 188.468C878.204 188.468 877.687 188.267 877.357 187.863C877.027 187.456 876.862 186.912 876.862 186.23V181.306H875.14V180.118H878.6ZM885.197 180.118V186.444C885.197 186.679 885.263 186.847 885.395 186.95C885.531 187.049 885.716 187.099 885.951 187.099C886.101 187.099 886.246 187.082 886.385 187.049C886.525 187.013 886.655 186.97 886.776 186.923L887.194 188.083C886.996 188.186 886.758 188.276 886.479 188.353C886.2 188.43 885.876 188.468 885.505 188.468C884.801 188.468 884.284 188.267 883.954 187.863C883.624 187.456 883.459 186.912 883.459 186.23V181.306H881.737V180.118H885.197ZM893.664 186.598C893.664 186.818 893.694 186.978 893.753 187.077C893.815 187.176 893.914 187.251 894.05 187.302L893.692 188.446C893.347 188.413 893.056 188.338 892.817 188.221C892.583 188.1 892.397 187.918 892.262 187.676C892.038 187.944 891.752 188.144 891.404 188.276C891.055 188.404 890.699 188.468 890.336 188.468C889.735 188.468 889.254 188.298 888.895 187.957C888.539 187.612 888.361 187.17 888.361 186.631C888.361 185.997 888.609 185.507 889.104 185.162C889.603 184.818 890.303 184.645 891.206 184.645H891.992V184.425C891.992 184.121 891.893 183.895 891.695 183.749C891.501 183.602 891.215 183.528 890.837 183.528C890.65 183.528 890.41 183.556 890.116 183.611C889.823 183.662 889.529 183.738 889.236 183.837L888.835 182.681C889.212 182.538 889.605 182.43 890.012 182.357C890.423 182.283 890.789 182.247 891.112 182.247C891.981 182.247 892.623 182.425 893.037 182.78C893.455 183.132 893.664 183.642 893.664 184.31V186.598ZM890.936 187.225C891.123 187.225 891.319 187.17 891.525 187.06C891.73 186.946 891.886 186.787 891.992 186.582V185.635H891.563C891.079 185.635 890.723 185.711 890.496 185.861C890.268 186.008 890.155 186.224 890.155 186.51C890.155 186.734 890.223 186.91 890.358 187.038C890.498 187.163 890.69 187.225 890.936 187.225Z" fill="black"/>
<path d="M447 88.75L454.5 93.0801L454.5 84.4199L447 88.75ZM1279.5 88.7501L1272 84.4199L1272 93.0802L1279.5 88.7501ZM453.75 88.75L453.75 89.5L1272.75 89.5001L1272.75 88.7501L1272.75 88.0001L453.75 88L453.75 88.75Z" fill="black"/>
<line x1="473.25" y1="79" x2="473.25" y2="98.5" stroke="black" stroke-width="1.5"/>
<line x1="698.25" y1="79" x2="698.25" y2="98.5" stroke="black" stroke-width="1.5"/>
<line x1="923.25" y1="79" x2="923.25" y2="98.5" stroke="black" stroke-width="1.5"/>
<line x1="548.25" y1="79" x2="548.25" y2="98.5" stroke="black" stroke-width="1.5"/>
<line x1="773.25" y1="79" x2="773.25" y2="98.5" stroke="black" stroke-width="1.5"/>
<line x1="998.25" y1="79" x2="998.25" y2="98.5" stroke="black" stroke-width="1.5"/>
<line x1="623.25" y1="79" x2="623.25" y2="98.5" stroke="black" stroke-width="1.5"/>
<line x1="848.25" y1="79" x2="848.25" y2="98.5" stroke="black" stroke-width="1.5"/>
<line x1="1073.25" y1="79" x2="1073.25" y2="98.5" stroke="black" stroke-width="1.5"/>
<line x1="1148.25" y1="79" x2="1148.25" y2="98.5" stroke="black" stroke-width="1.5"/>
<line x1="1223.25" y1="79" x2="1223.25" y2="98.5" stroke="black" stroke-width="1.5"/>
<path d="M473.25 104.104C475.043 104.104 476.396 104.812 477.311 106.23C478.226 107.64 478.684 109.627 478.684 112.192C478.684 114.765 478.226 116.767 477.311 118.2C476.396 119.625 475.043 120.338 473.25 120.338C471.45 120.338 470.093 119.625 469.178 118.2C468.27 116.767 467.816 114.765 467.816 112.192C467.816 109.627 468.27 107.64 469.178 106.23C470.093 104.812 471.45 104.104 473.25 104.104ZM473.25 106.309C472.403 106.309 471.761 106.762 471.326 107.67C470.899 108.57 470.685 110.077 470.685 112.192C470.685 113.362 470.726 114.334 470.809 115.106C470.899 115.871 471.045 116.475 471.248 116.917C471.45 117.36 471.713 117.675 472.035 117.862C472.365 118.042 472.77 118.132 473.25 118.132C473.82 118.132 474.293 117.941 474.668 117.559C475.05 117.169 475.335 116.539 475.523 115.669C475.71 114.791 475.804 113.632 475.804 112.192C475.804 110.662 475.721 109.47 475.556 108.615C475.399 107.76 475.133 107.164 474.758 106.826C474.39 106.481 473.888 106.309 473.25 106.309ZM475.196 106.815L475.961 108.66L471.529 117.75L470.618 116.242L475.196 106.815Z" fill="#4D4D4D"/>
<path d="M550.601 104.441V119.55H547.688V107.434L544.369 109.492L543.098 107.434L547.98 104.441H550.601ZM553.628 117.716V120H543.919V117.716H553.628Z" fill="#4D4D4D"/>
<path d="M622.654 104.104C623.771 104.104 624.709 104.302 625.466 104.7C626.231 105.097 626.809 105.634 627.199 106.309C627.589 106.976 627.784 107.711 627.784 108.514C627.784 109.174 627.671 109.819 627.446 110.449C627.221 111.079 626.854 111.742 626.344 112.44C625.841 113.137 625.174 113.914 624.341 114.769C623.509 115.616 622.481 116.584 621.259 117.671H628.144L627.818 120H617.861V117.829C618.934 116.794 619.86 115.882 620.64 115.095C621.42 114.3 622.073 113.599 622.598 112.991C623.13 112.384 623.55 111.84 623.858 111.36C624.173 110.872 624.398 110.419 624.533 109.999C624.668 109.579 624.735 109.159 624.735 108.739C624.735 108.026 624.529 107.464 624.116 107.051C623.711 106.639 623.141 106.432 622.406 106.432C621.754 106.432 621.199 106.56 620.741 106.815C620.291 107.062 619.849 107.467 619.414 108.03L617.546 106.612C618.139 105.817 618.844 105.202 619.661 104.767C620.479 104.325 621.476 104.104 622.654 104.104Z" fill="#4D4D4D"/>
<path d="M699.098 104.104C700.17 104.104 701.085 104.284 701.843 104.644C702.608 104.996 703.193 105.472 703.598 106.072C704.003 106.672 704.205 107.332 704.205 108.052C704.205 108.697 704.07 109.271 703.8 109.774C703.538 110.269 703.17 110.681 702.698 111.011C702.233 111.341 701.693 111.585 701.078 111.742C701.76 111.825 702.371 112.012 702.911 112.305C703.459 112.59 703.894 113.002 704.216 113.542C704.539 114.075 704.7 114.757 704.7 115.59C704.7 116.467 704.464 117.266 703.991 117.986C703.519 118.706 702.848 119.28 701.978 119.707C701.115 120.128 700.091 120.338 698.906 120.338C697.849 120.338 696.87 120.15 695.97 119.775C695.07 119.392 694.305 118.834 693.675 118.099L695.419 116.524C695.861 117.041 696.368 117.42 696.938 117.66C697.515 117.9 698.115 118.02 698.738 118.02C699.615 118.02 700.316 117.795 700.841 117.345C701.374 116.887 701.64 116.246 701.64 115.421C701.64 114.806 701.524 114.315 701.291 113.947C701.059 113.572 700.729 113.302 700.301 113.137C699.881 112.965 699.383 112.879 698.805 112.879H697.421L697.77 110.764H698.749C699.221 110.764 699.649 110.681 700.031 110.516C700.421 110.351 700.729 110.1 700.954 109.762C701.186 109.425 701.303 109.001 701.303 108.491C701.303 107.816 701.066 107.291 700.594 106.916C700.121 106.534 699.529 106.342 698.816 106.342C698.171 106.342 697.598 106.462 697.095 106.702C696.593 106.942 696.105 107.284 695.633 107.726L694.091 106.095C694.781 105.427 695.543 104.929 696.375 104.599C697.215 104.269 698.123 104.104 699.098 104.104Z" fill="#4D4D4D"/>
<path d="M772.125 104.104L774.645 105.06L770.798 114.296H778.751V116.557H767.715V114.532L772.125 104.104ZM777.041 110.314V120H774.184L774.15 114.656L774.533 110.314H777.041Z" fill="#4D4D4D"/>
<path d="M852.862 104.441L852.514 106.624H846.664V110.516C847.076 110.314 847.489 110.171 847.901 110.089C848.314 110.006 848.711 109.965 849.094 109.965C849.911 109.965 850.646 110.164 851.299 110.561C851.959 110.959 852.476 111.532 852.851 112.282C853.234 113.025 853.425 113.917 853.425 114.96C853.425 116.002 853.181 116.932 852.694 117.75C852.214 118.56 851.539 119.194 850.669 119.651C849.799 120.109 848.779 120.338 847.609 120.338C846.551 120.338 845.61 120.143 844.785 119.752C843.968 119.362 843.266 118.837 842.681 118.177L844.414 116.569C844.826 117.049 845.288 117.412 845.798 117.66C846.308 117.9 846.855 118.02 847.44 118.02C848.333 118.02 849.041 117.75 849.566 117.21C850.091 116.662 850.354 115.916 850.354 114.971C850.354 114.259 850.253 113.692 850.05 113.272C849.848 112.852 849.57 112.549 849.218 112.361C848.865 112.174 848.46 112.08 848.003 112.08C847.658 112.08 847.316 112.121 846.979 112.204C846.649 112.279 846.293 112.41 845.91 112.597H843.829V104.441H852.862Z" fill="#4D4D4D"/>
<path d="M925.763 104.104C926.423 104.104 927.023 104.19 927.563 104.362C928.11 104.527 928.601 104.764 929.036 105.071L927.9 106.916C927.585 106.699 927.248 106.537 926.888 106.432C926.528 106.327 926.164 106.275 925.796 106.275C925.121 106.275 924.529 106.496 924.019 106.939C923.516 107.381 923.123 108.019 922.838 108.851C922.56 109.676 922.418 110.674 922.41 111.844L922.433 112.8C922.425 114.615 922.605 115.961 922.973 116.839C923.348 117.716 924.008 118.155 924.953 118.155C925.733 118.155 926.31 117.847 926.685 117.232C927.06 116.617 927.248 115.837 927.248 114.892C927.248 114.127 927.161 113.524 926.989 113.081C926.816 112.631 926.576 112.309 926.269 112.114C925.961 111.911 925.59 111.81 925.155 111.81C924.57 111.81 924.019 111.982 923.501 112.327C922.991 112.665 922.556 113.119 922.196 113.689L922.174 111.641C922.669 110.959 923.235 110.46 923.873 110.145C924.51 109.83 925.174 109.672 925.864 109.672C926.666 109.672 927.398 109.867 928.058 110.257C928.718 110.64 929.243 111.206 929.633 111.956C930.03 112.706 930.229 113.632 930.229 114.735C930.229 115.815 930.008 116.779 929.565 117.626C929.123 118.466 928.5 119.13 927.698 119.617C926.903 120.098 925.98 120.338 924.93 120.338C923.925 120.338 923.07 120.15 922.365 119.775C921.66 119.392 921.086 118.864 920.644 118.189C920.201 117.506 919.875 116.711 919.665 115.804C919.463 114.889 919.361 113.906 919.361 112.856C919.361 111.116 919.616 109.59 920.126 108.277C920.636 106.957 921.368 105.934 922.32 105.206C923.28 104.471 924.428 104.104 925.763 104.104Z" fill="#4D4D4D"/>
<path d="M997.17 120.304L994.369 119.437L1000.26 106.736H993.266V104.441H1003.27V106.511L997.17 120.304Z" fill="#4D4D4D"/>
<path d="M1078.25 108.165C1078.25 108.9 1078.04 109.534 1077.62 110.066C1077.2 110.599 1076.58 111.101 1075.74 111.574C1076.77 112.061 1077.55 112.661 1078.08 113.374C1078.6 114.086 1078.86 114.892 1078.86 115.792C1078.86 116.61 1078.64 117.364 1078.2 118.054C1077.77 118.744 1077.13 119.299 1076.29 119.719C1075.45 120.131 1074.42 120.338 1073.19 120.338C1071.98 120.338 1070.96 120.135 1070.13 119.73C1069.31 119.317 1068.69 118.774 1068.27 118.099C1067.85 117.424 1067.64 116.681 1067.64 115.871C1067.64 114.956 1067.9 114.169 1068.44 113.509C1068.98 112.849 1069.7 112.32 1070.6 111.922C1069.79 111.457 1069.19 110.955 1068.82 110.415C1068.44 109.875 1068.26 109.174 1068.26 108.311C1068.26 107.629 1068.39 107.029 1068.66 106.511C1068.93 105.986 1069.3 105.547 1069.76 105.195C1070.24 104.835 1070.77 104.565 1071.37 104.385C1071.97 104.197 1072.6 104.104 1073.26 104.104C1073.95 104.104 1074.6 104.194 1075.2 104.374C1075.8 104.546 1076.34 104.805 1076.79 105.15C1077.25 105.495 1077.61 105.919 1077.86 106.421C1078.12 106.924 1078.25 107.505 1078.25 108.165ZM1075.86 115.792C1075.86 115.207 1075.73 114.742 1075.47 114.397C1075.21 114.045 1074.83 113.745 1074.33 113.497C1073.83 113.25 1073.21 112.995 1072.46 112.732C1072.12 112.927 1071.81 113.164 1071.53 113.441C1071.26 113.719 1071.04 114.045 1070.88 114.42C1070.72 114.795 1070.64 115.234 1070.64 115.736C1070.64 116.464 1070.86 117.049 1071.29 117.491C1071.74 117.934 1072.39 118.155 1073.25 118.155C1074.13 118.155 1074.78 117.926 1075.21 117.469C1075.64 117.004 1075.86 116.445 1075.86 115.792ZM1071.1 108.322C1071.1 108.772 1071.2 109.147 1071.41 109.447C1071.61 109.74 1071.91 109.995 1072.31 110.212C1072.7 110.43 1073.19 110.644 1073.78 110.854C1074.36 110.464 1074.77 110.077 1075.02 109.695C1075.27 109.305 1075.4 108.847 1075.4 108.322C1075.4 107.685 1075.22 107.171 1074.85 106.781C1074.49 106.384 1073.96 106.185 1073.26 106.185C1072.58 106.185 1072.05 106.369 1071.66 106.736C1071.29 107.104 1071.1 107.632 1071.1 108.322Z" fill="#4D4D4D"/>
<path d="M1148.1 104.104C1149.33 104.104 1150.34 104.366 1151.15 104.891C1151.97 105.416 1152.58 106.147 1152.99 107.085C1153.4 108.022 1153.61 109.117 1153.61 110.37C1153.61 111.885 1153.43 113.209 1153.06 114.341C1152.71 115.466 1152.17 116.43 1151.42 117.232C1150.69 118.027 1149.75 118.699 1148.6 119.246C1147.46 119.794 1146.11 120.248 1144.54 120.608L1143.91 118.481C1145.29 118.114 1146.45 117.671 1147.38 117.154C1148.32 116.636 1149.05 115.999 1149.57 115.241C1150.08 114.484 1150.4 113.565 1150.52 112.485L1150.53 111.326C1150.55 110.156 1150.49 109.2 1150.34 108.457C1150.21 107.715 1149.96 107.167 1149.6 106.815C1149.25 106.462 1148.75 106.286 1148.09 106.286C1147.33 106.286 1146.73 106.552 1146.3 107.085C1145.88 107.61 1145.67 108.412 1145.67 109.492C1145.67 110.527 1145.88 111.266 1146.3 111.709C1146.72 112.144 1147.26 112.361 1147.91 112.361C1148.52 112.361 1149.06 112.215 1149.53 111.922C1150.01 111.622 1150.47 111.202 1150.92 110.662L1150.88 112.541C1150.37 113.141 1149.8 113.621 1149.2 113.981C1148.6 114.334 1147.89 114.51 1147.08 114.51C1146.25 114.51 1145.5 114.307 1144.83 113.902C1144.16 113.49 1143.63 112.912 1143.24 112.17C1142.85 111.427 1142.66 110.546 1142.66 109.526C1142.66 108.409 1142.9 107.445 1143.38 106.635C1143.87 105.825 1144.52 105.202 1145.34 104.767C1146.16 104.325 1147.08 104.104 1148.1 104.104Z" fill="#4D4D4D"/>
<path d="M1225.6 104.441V119.55H1222.69V107.434L1219.37 109.492L1218.1 107.434L1222.98 104.441H1225.6ZM1228.63 117.716V120H1218.92V117.716H1228.63ZM1236.74 104.104C1238.53 104.104 1239.89 104.812 1240.8 106.23C1241.72 107.64 1242.17 109.627 1242.17 112.192C1242.17 114.765 1241.72 116.767 1240.8 118.2C1239.89 119.625 1238.53 120.338 1236.74 120.338C1234.94 120.338 1233.58 119.625 1232.67 118.2C1231.76 116.767 1231.31 114.765 1231.31 112.192C1231.31 109.627 1231.76 107.64 1232.67 106.23C1233.58 104.812 1234.94 104.104 1236.74 104.104ZM1236.74 106.309C1235.89 106.309 1235.25 106.762 1234.82 107.67C1234.39 108.57 1234.18 110.077 1234.18 112.192C1234.18 113.362 1234.22 114.334 1234.3 115.106C1234.39 115.871 1234.54 116.475 1234.74 116.917C1234.94 117.36 1235.2 117.675 1235.53 117.862C1235.86 118.042 1236.26 118.132 1236.74 118.132C1237.31 118.132 1237.78 117.941 1238.16 117.559C1238.54 117.169 1238.83 116.539 1239.01 115.669C1239.2 114.791 1239.29 113.632 1239.29 112.192C1239.29 110.662 1239.21 109.47 1239.05 108.615C1238.89 107.76 1238.62 107.164 1238.25 106.826C1237.88 106.481 1237.38 106.309 1236.74 106.309ZM1238.69 106.815L1239.45 108.66L1235.02 117.75L1234.11 116.242L1238.69 106.815Z" fill="#4D4D4D"/>
<path d="M624 72C623.448 72 623 72.4477 623 73C623 73.5523 623.448 74 624 74L624 73L624 72ZM698 73L688 67.2265L688 78.7735L698 73ZM624 73L624 74L689 74L689 73L689 72L624 72L624 73Z" fill="#0037AC"/>
<path d="M699 72C698.448 72 698 72.4477 698 73C698 73.5523 698.448 74 699 74L699 73L699 72ZM773 73L763 67.2265L763 78.7735L773 73ZM699 73L699 74L764 74L764 73L764 72L699 72L699 73Z" fill="#0037AC"/>
<path d="M775 72C774.448 72 774 72.4477 774 73C774 73.5523 774.448 74 775 74L775 73L775 72ZM849 73L839 67.2265L839 78.7735L849 73ZM775 73L775 74L840 74L840 73L840 72L775 72L775 73Z" fill="#0037AC"/>
<path d="M851 72C850.448 72 850 72.4477 850 73C850 73.5523 850.448 74 851 74L851 73L851 72ZM925 73L915 67.2265L915 78.7735L925 73ZM851 73L851 74L916 74L916 73L916 72L851 72L851 73Z" fill="#0037AC"/>
<path d="M925 72C924.448 72 924 72.4477 924 73C924 73.5523 924.448 74 925 74L925 73L925 72ZM999 73L989 67.2265L989 78.7735L999 73ZM925 73L925 74L990 74L990 73L990 72L925 72L925 73Z" fill="#0037AC"/>
<path d="M1000 72C999.448 72 999 72.4477 999 73C999 73.5523 999.448 74 1000 74L1000 73L1000 72ZM1074 73L1064 67.2265L1064 78.7735L1074 73ZM1000 73L1000 74L1065 74L1065 73L1065 72L1000 72L1000 73Z" fill="#0037AC"/>
<path d="M606.355 55.0225C606.355 55.6525 606.193 56.2075 605.868 56.6875C605.548 57.1675 605.085 57.545 604.48 57.82C603.875 58.09 603.143 58.225 602.283 58.225C601.383 58.225 600.61 58.0925 599.965 57.8275C599.32 57.5575 598.78 57.2125 598.345 56.7925L599.425 55.585C599.8 55.92 600.22 56.1825 600.685 56.3725C601.15 56.5625 601.673 56.6575 602.253 56.6575C602.623 56.6575 602.955 56.6 603.25 56.485C603.55 56.37 603.785 56.2025 603.955 55.9825C604.13 55.7575 604.218 55.4825 604.218 55.1575C604.218 54.8725 604.158 54.6325 604.038 54.4375C603.918 54.2425 603.71 54.0675 603.415 53.9125C603.125 53.7575 602.72 53.6025 602.2 53.4475C601.435 53.2125 600.805 52.955 600.31 52.675C599.815 52.39 599.448 52.055 599.208 51.67C598.968 51.28 598.848 50.82 598.848 50.29C598.848 49.695 599.013 49.1825 599.343 48.7525C599.673 48.3175 600.118 47.985 600.678 47.755C601.243 47.52 601.873 47.4025 602.568 47.4025C603.338 47.4025 604.015 47.515 604.6 47.74C605.185 47.96 605.7 48.275 606.145 48.685L605.118 49.8475C604.763 49.5425 604.378 49.3175 603.963 49.1725C603.553 49.0275 603.135 48.955 602.71 48.955C602.375 48.955 602.075 49 601.81 49.09C601.55 49.18 601.345 49.3125 601.195 49.4875C601.045 49.6625 600.97 49.885 600.97 50.155C600.97 50.4 601.038 50.61 601.173 50.785C601.313 50.955 601.55 51.115 601.885 51.265C602.22 51.41 602.68 51.575 603.265 51.76C603.88 51.945 604.418 52.1675 604.878 52.4275C605.343 52.6875 605.705 53.025 605.965 53.44C606.225 53.85 606.355 54.3775 606.355 55.0225ZM612.499 49.24V58H610.452V49.24H607.422V47.6275H615.619L615.409 49.24H612.499ZM622.168 55.6225H618.756L618.111 58H615.988L619.236 47.6275H621.756L624.996 58H622.813L622.168 55.6225ZM619.123 54.085H621.786L620.458 49.165L619.123 54.085ZM633.277 50.695C633.277 51.195 633.177 51.6325 632.977 52.0075C632.782 52.3825 632.515 52.6975 632.175 52.9525C631.84 53.2075 631.462 53.405 631.042 53.545L633.885 58H631.53L629.077 53.8675H628.132V58H626.085V47.6275H629.137C630.502 47.6275 631.532 47.88 632.227 48.385C632.927 48.89 633.277 49.66 633.277 50.695ZM631.147 50.695C631.147 50.135 630.985 49.7325 630.66 49.4875C630.335 49.2375 629.845 49.1125 629.19 49.1125H628.132V52.4125H629.257C629.862 52.4125 630.327 52.2775 630.652 52.0075C630.982 51.7375 631.147 51.3 631.147 50.695ZM639.482 49.24V58H637.434V49.24H634.404V47.6275H642.602L642.392 49.24H639.482Z" fill="#027D47"/>
<path d="M798.355 59.0225C798.355 59.6525 798.193 60.2075 797.868 60.6875C797.548 61.1675 797.085 61.545 796.48 61.82C795.875 62.09 795.143 62.225 794.283 62.225C793.383 62.225 792.61 62.0925 791.965 61.8275C791.32 61.5575 790.78 61.2125 790.345 60.7925L791.425 59.585C791.8 59.92 792.22 60.1825 792.685 60.3725C793.15 60.5625 793.673 60.6575 794.253 60.6575C794.623 60.6575 794.955 60.6 795.25 60.485C795.55 60.37 795.785 60.2025 795.955 59.9825C796.13 59.7575 796.218 59.4825 796.218 59.1575C796.218 58.8725 796.158 58.6325 796.038 58.4375C795.918 58.2425 795.71 58.0675 795.415 57.9125C795.125 57.7575 794.72 57.6025 794.2 57.4475C793.435 57.2125 792.805 56.955 792.31 56.675C791.815 56.39 791.448 56.055 791.208 55.67C790.968 55.28 790.848 54.82 790.848 54.29C790.848 53.695 791.013 53.1825 791.343 52.7525C791.673 52.3175 792.118 51.985 792.678 51.755C793.243 51.52 793.873 51.4025 794.568 51.4025C795.338 51.4025 796.015 51.515 796.6 51.74C797.185 51.96 797.7 52.275 798.145 52.685L797.118 53.8475C796.763 53.5425 796.378 53.3175 795.963 53.1725C795.553 53.0275 795.135 52.955 794.71 52.955C794.375 52.955 794.075 53 793.81 53.09C793.55 53.18 793.345 53.3125 793.195 53.4875C793.045 53.6625 792.97 53.885 792.97 54.155C792.97 54.4 793.038 54.61 793.173 54.785C793.313 54.955 793.55 55.115 793.885 55.265C794.22 55.41 794.68 55.575 795.265 55.76C795.88 55.945 796.418 56.1675 796.878 56.4275C797.343 56.6875 797.705 57.025 797.965 57.44C798.225 57.85 798.355 58.3775 798.355 59.0225ZM804.499 53.24V62H802.452V53.24H799.422V51.6275H807.619L807.409 53.24H804.499ZM811.611 53.1425V55.985H815.286V57.4775H811.611V60.4925H816.073V62H809.556V51.6275H816.021L815.811 53.1425H811.611ZM823.395 54.95C823.395 54.52 823.312 54.1725 823.147 53.9075C822.987 53.6375 822.752 53.44 822.442 53.315C822.132 53.19 821.76 53.1275 821.325 53.1275H820.252V56.885H821.385C821.795 56.885 822.147 56.8225 822.442 56.6975C822.742 56.5675 822.975 56.36 823.14 56.075C823.31 55.79 823.395 55.415 823.395 54.95ZM825.525 54.935C825.525 55.74 825.352 56.4 825.007 56.915C824.667 57.425 824.19 57.8025 823.575 58.0475C822.96 58.2875 822.25 58.4075 821.445 58.4075H820.252V62H818.197V51.6275H821.25C822.595 51.6275 823.642 51.9 824.392 52.445C825.147 52.99 825.525 53.82 825.525 54.935Z" fill="#0037AC"/>
<path d="M1063.36 60.0225C1063.36 60.6525 1063.19 61.2075 1062.87 61.6875C1062.55 62.1675 1062.09 62.545 1061.48 62.82C1060.88 63.09 1060.14 63.225 1059.28 63.225C1058.38 63.225 1057.61 63.0925 1056.97 62.8275C1056.32 62.5575 1055.78 62.2125 1055.35 61.7925L1056.43 60.585C1056.8 60.92 1057.22 61.1825 1057.69 61.3725C1058.15 61.5625 1058.67 61.6575 1059.25 61.6575C1059.62 61.6575 1059.96 61.6 1060.25 61.485C1060.55 61.37 1060.79 61.2025 1060.96 60.9825C1061.13 60.7575 1061.22 60.4825 1061.22 60.1575C1061.22 59.8725 1061.16 59.6325 1061.04 59.4375C1060.92 59.2425 1060.71 59.0675 1060.42 58.9125C1060.13 58.7575 1059.72 58.6025 1059.2 58.4475C1058.44 58.2125 1057.81 57.955 1057.31 57.675C1056.82 57.39 1056.45 57.055 1056.21 56.67C1055.97 56.28 1055.85 55.82 1055.85 55.29C1055.85 54.695 1056.01 54.1825 1056.34 53.7525C1056.67 53.3175 1057.12 52.985 1057.68 52.755C1058.24 52.52 1058.87 52.4025 1059.57 52.4025C1060.34 52.4025 1061.02 52.515 1061.6 52.74C1062.19 52.96 1062.7 53.275 1063.15 53.685L1062.12 54.8475C1061.76 54.5425 1061.38 54.3175 1060.96 54.1725C1060.55 54.0275 1060.14 53.955 1059.71 53.955C1059.38 53.955 1059.08 54 1058.81 54.09C1058.55 54.18 1058.35 54.3125 1058.2 54.4875C1058.05 54.6625 1057.97 54.885 1057.97 55.155C1057.97 55.4 1058.04 55.61 1058.17 55.785C1058.31 55.955 1058.55 56.115 1058.89 56.265C1059.22 56.41 1059.68 56.575 1060.27 56.76C1060.88 56.945 1061.42 57.1675 1061.88 57.4275C1062.34 57.6875 1062.71 58.025 1062.97 58.44C1063.23 58.85 1063.36 59.3775 1063.36 60.0225ZM1069.5 54.24V63H1067.45V54.24H1064.42V52.6275H1072.62L1072.41 54.24H1069.5ZM1081.52 57.81C1081.52 58.89 1081.37 59.8375 1081.07 60.6525C1080.77 61.4625 1080.32 62.095 1079.72 62.55C1079.12 63 1078.37 63.225 1077.49 63.225C1076.61 63.225 1075.87 63.005 1075.26 62.565C1074.66 62.12 1074.21 61.495 1073.9 60.69C1073.6 59.88 1073.45 58.9225 1073.45 57.8175C1073.45 56.7375 1073.6 55.7925 1073.9 54.9825C1074.21 54.1675 1074.66 53.535 1075.26 53.085C1075.87 52.63 1076.61 52.4025 1077.49 52.4025C1078.37 52.4025 1079.12 52.6225 1079.72 53.0625C1080.32 53.5025 1080.77 54.1275 1081.07 54.9375C1081.37 55.7475 1081.52 56.705 1081.52 57.81ZM1079.41 57.81C1079.41 56.5 1079.26 55.53 1078.96 54.9C1078.66 54.265 1078.17 53.9475 1077.49 53.9475C1076.8 53.9475 1076.31 54.265 1076.01 54.9C1075.72 55.535 1075.57 56.5075 1075.57 57.8175C1075.57 59.1325 1075.72 60.105 1076.03 60.735C1076.33 61.36 1076.82 61.6725 1077.49 61.6725C1078.18 61.6725 1078.68 61.355 1078.97 60.72C1079.26 60.085 1079.41 59.115 1079.41 57.81ZM1088.39 55.95C1088.39 55.52 1088.31 55.1725 1088.15 54.9075C1087.99 54.6375 1087.75 54.44 1087.44 54.315C1087.13 54.19 1086.76 54.1275 1086.32 54.1275H1085.25V57.885H1086.38C1086.79 57.885 1087.15 57.8225 1087.44 57.6975C1087.74 57.5675 1087.97 57.36 1088.14 57.075C1088.31 56.79 1088.39 56.415 1088.39 55.95ZM1090.52 55.935C1090.52 56.74 1090.35 57.4 1090.01 57.915C1089.67 58.425 1089.19 58.8025 1088.57 59.0475C1087.96 59.2875 1087.25 59.4075 1086.44 59.4075H1085.25V63H1083.2V52.6275H1086.25C1087.59 52.6275 1088.64 52.9 1089.39 53.445C1090.15 53.99 1090.52 54.82 1090.52 55.935Z" fill="#8A0101"/>
<circle cx="623" cy="89" r="11" fill="#027D47"/>
<circle cx="1073" cy="88" r="8.5" fill="white" stroke="#8A0101" stroke-width="5"/>
</svg>
