<svg width="1429" height="351" viewBox="0 0 1429 351" fill="none" xmlns="http://www.w3.org/2000/svg">
<rect width="1429" height="350" fill="white"/>
<rect x="453.249" y="314.665" width="25.7725" height="25.7725" rx="5.03368" fill="#0037AC"/>
<path d="M463.232 321.398C463.061 320.981 462.471 320.981 462.3 321.398L462.032 322.052C461.982 322.174 461.981 322.311 462.031 322.433L465.627 331.257C465.762 331.588 465.518 331.95 465.161 331.95H461.582H460.374C460.016 331.95 459.772 331.587 459.908 331.255L460.529 329.744C460.579 329.622 460.579 329.485 460.529 329.363L460.247 328.67C460.077 328.253 459.486 328.252 459.315 328.669L457.625 332.786C457.489 333.117 457.733 333.48 458.091 333.48H467.441C467.799 333.48 468.043 333.117 467.907 332.786L463.232 321.398Z" fill="white"/>
<path d="M466.642 323.845C466.507 323.514 466.751 323.152 467.108 323.152H470.687H471.895C472.253 323.152 472.497 323.515 472.361 323.846L471.74 325.358C471.69 325.48 471.69 325.617 471.74 325.739L472.022 326.432C472.192 326.849 472.783 326.85 472.954 326.433L474.644 322.316C474.78 321.985 474.537 321.621 474.179 321.621H464.828C464.47 321.621 464.226 321.985 464.362 322.316L469.038 333.704C469.208 334.121 469.798 334.121 469.969 333.704L470.238 333.049C470.288 332.927 470.288 332.791 470.238 332.668L466.642 323.845Z" fill="white"/>
<path d="M494.915 329.027H491.268L490.557 331.484H488.811L492.059 321.273H494.19L497.446 331.484H495.626L494.915 329.027ZM491.623 327.703H494.553L493.095 322.605L491.623 327.703ZM500.533 323.67V329.131C500.533 329.594 500.624 329.925 500.807 330.122C500.994 330.319 501.275 330.418 501.65 330.418C502.005 330.418 502.348 330.312 502.679 330.1C503.009 329.888 503.271 329.629 503.463 329.323V323.67H505.12V331.484H503.692L503.589 330.485C503.298 330.874 502.93 331.173 502.486 331.38C502.042 331.582 501.589 331.683 501.125 331.683C500.37 331.683 499.805 331.476 499.431 331.062C499.061 330.643 498.876 330.068 498.876 329.338V323.67H500.533ZM514.274 331.069C513.988 331.252 513.646 331.4 513.246 331.513C512.846 331.627 512.43 331.683 511.996 331.683C511.088 331.683 510.397 331.449 509.924 330.98C509.455 330.507 509.221 329.885 509.221 329.116V324.876H507.482V323.67H509.221V321.924L510.878 321.724V323.67H513.512L513.327 324.876H510.878V329.101C510.878 329.52 510.982 329.834 511.189 330.041C511.401 330.243 511.747 330.344 512.225 330.344C512.511 330.344 512.775 330.31 513.017 330.24C513.258 330.171 513.478 330.083 513.675 329.974L514.274 331.069ZM519.751 323.463C520.516 323.463 521.16 323.633 521.683 323.974C522.205 324.314 522.6 324.79 522.866 325.402C523.138 326.013 523.273 326.733 523.273 327.562C523.273 328.386 523.135 329.108 522.859 329.73C522.588 330.347 522.188 330.827 521.66 331.173C521.137 331.513 520.499 331.683 519.744 331.683C518.989 331.683 518.348 331.518 517.82 331.188C517.297 330.852 516.898 330.376 516.622 329.76C516.35 329.143 516.215 328.415 516.215 327.577C516.215 326.763 516.35 326.048 516.622 325.431C516.898 324.815 517.3 324.334 517.828 323.988C518.355 323.638 518.997 323.463 519.751 323.463ZM519.751 324.75C519.155 324.75 518.706 324.98 518.405 325.439C518.104 325.892 517.953 326.605 517.953 327.577C517.953 328.544 518.101 329.256 518.397 329.715C518.698 330.174 519.147 330.403 519.744 330.403C520.341 330.403 520.787 330.174 521.083 329.715C521.384 329.256 521.535 328.539 521.535 327.562C521.535 326.6 521.387 325.892 521.091 325.439C520.795 324.98 520.348 324.75 519.751 324.75ZM525.569 331.484V330.3H526.715V324.847H525.569V323.67H527.981L528.284 325.483C528.575 324.827 528.935 324.329 529.364 323.988C529.798 323.643 530.356 323.47 531.036 323.47C531.268 323.47 531.475 323.49 531.658 323.53C531.845 323.564 532.03 323.611 532.213 323.67L531.717 325.091C531.559 325.046 531.411 325.014 531.273 324.995C531.135 324.97 530.982 324.958 530.814 324.958C530.247 324.958 529.756 325.17 529.342 325.594C528.933 326.018 528.61 326.62 528.373 327.399V330.3H529.949V331.484H525.569ZM530.748 326.548V324.625L530.955 323.67H532.213L531.932 326.548H530.748ZM536.151 330.344C536.151 329.984 536.279 329.676 536.536 329.419C536.792 329.158 537.108 329.027 537.483 329.027C537.862 329.027 538.178 329.158 538.43 329.419C538.686 329.676 538.814 329.984 538.814 330.344C538.814 330.714 538.686 331.03 538.43 331.291C538.178 331.553 537.862 331.683 537.483 331.683C537.108 331.683 536.792 331.553 536.536 331.291C536.279 331.03 536.151 330.714 536.151 330.344ZM536.151 325.091C536.151 324.849 536.21 324.627 536.328 324.425C536.447 324.223 536.607 324.062 536.809 323.944C537.012 323.826 537.236 323.766 537.483 323.766C537.862 323.766 538.178 323.897 538.43 324.159C538.686 324.415 538.814 324.726 538.814 325.091C538.814 325.456 538.686 325.771 538.43 326.038C538.178 326.299 537.862 326.43 537.483 326.43C537.108 326.43 536.792 326.299 536.536 326.038C536.279 325.771 536.151 325.456 536.151 325.091ZM558.595 321.229V327.791C558.595 328.388 558.504 328.928 558.321 329.412C558.139 329.895 557.87 330.307 557.515 330.647C557.165 330.988 556.733 331.249 556.22 331.432C555.712 331.614 555.13 331.705 554.474 331.705C553.813 331.705 553.241 331.622 552.757 331.454C552.279 331.281 551.818 331.045 551.374 330.744L552.299 329.249C552.649 329.491 552.977 329.661 553.283 329.76C553.589 329.853 553.936 329.9 554.326 329.9C554.854 329.9 555.293 329.732 555.643 329.397C555.998 329.057 556.176 328.531 556.176 327.821V323.004H553.024V321.229H558.595ZM564.109 323.367C564.918 323.367 565.606 323.539 566.173 323.885C566.741 324.23 567.175 324.716 567.476 325.342C567.776 325.964 567.927 326.694 567.927 327.532C567.927 328.406 567.774 329.158 567.468 329.789C567.167 330.416 566.733 330.897 566.166 331.232C565.599 331.567 564.913 331.735 564.109 331.735C563.31 331.735 562.624 331.57 562.052 331.239C561.485 330.909 561.048 330.43 560.742 329.804C560.442 329.178 560.291 328.425 560.291 327.547C560.291 326.714 560.442 325.984 560.742 325.357C561.048 324.731 561.485 324.242 562.052 323.892C562.624 323.542 563.31 323.367 564.109 323.367ZM564.109 325.091C563.631 325.091 563.275 325.288 563.044 325.683C562.817 326.072 562.703 326.694 562.703 327.547C562.703 328.415 562.817 329.044 563.044 329.434C563.275 329.824 563.631 330.019 564.109 330.019C564.587 330.019 564.94 329.824 565.167 329.434C565.399 329.044 565.515 328.41 565.515 327.532C565.515 326.684 565.399 326.065 565.167 325.675C564.94 325.286 564.587 325.091 564.109 325.091ZM572.73 330.063C573.12 330.063 573.433 330.001 573.67 329.878C573.912 329.755 574.033 329.57 574.033 329.323C574.033 329.155 573.986 329.015 573.892 328.901C573.798 328.788 573.618 328.679 573.352 328.576C573.086 328.472 572.691 328.349 572.168 328.206C571.69 328.078 571.265 327.915 570.896 327.717C570.53 327.52 570.244 327.266 570.037 326.955C569.835 326.645 569.734 326.257 569.734 325.794C569.734 325.325 569.865 324.908 570.126 324.543C570.387 324.178 570.772 323.892 571.28 323.685C571.788 323.473 572.41 323.367 573.145 323.367C573.845 323.367 574.454 323.458 574.972 323.641C575.495 323.818 575.947 324.045 576.326 324.321L575.394 325.698C575.069 325.495 574.718 325.335 574.343 325.217C573.969 325.093 573.591 325.032 573.211 325.032C572.832 325.032 572.548 325.083 572.361 325.187C572.178 325.286 572.087 325.436 572.087 325.638C572.087 325.771 572.134 325.887 572.227 325.986C572.326 326.08 572.508 326.178 572.775 326.282C573.041 326.381 573.431 326.504 573.944 326.652C574.452 326.795 574.893 326.96 575.268 327.148C575.648 327.335 575.942 327.587 576.149 327.902C576.356 328.213 576.46 328.625 576.46 329.138C576.46 329.71 576.289 330.191 575.949 330.581C575.609 330.966 575.157 331.254 574.595 331.447C574.033 331.639 573.416 331.735 572.745 331.735C571.986 331.735 571.315 331.627 570.733 331.41C570.151 331.192 569.655 330.906 569.246 330.551L570.422 329.234C570.728 329.471 571.073 329.668 571.458 329.826C571.848 329.984 572.272 330.063 572.73 330.063ZM580.479 328.235C580.533 328.665 580.644 329.012 580.812 329.279C580.984 329.54 581.204 329.732 581.47 329.856C581.737 329.974 582.035 330.033 582.366 330.033C582.726 330.033 583.073 329.974 583.409 329.856C583.744 329.737 584.067 329.58 584.378 329.382L585.318 330.655C584.948 330.971 584.499 331.229 583.971 331.432C583.448 331.634 582.851 331.735 582.181 331.735C581.283 331.735 580.531 331.558 579.924 331.202C579.317 330.842 578.861 330.349 578.555 329.723C578.249 329.096 578.096 328.376 578.096 327.562C578.096 326.788 578.244 326.085 578.54 325.453C578.836 324.817 579.268 324.311 579.835 323.937C580.407 323.557 581.105 323.367 581.929 323.367C582.679 323.367 583.327 323.527 583.875 323.848C584.427 324.168 584.854 324.63 585.155 325.231C585.461 325.833 585.614 326.556 585.614 327.399C585.614 327.532 585.609 327.676 585.599 327.828C585.594 327.981 585.584 328.117 585.569 328.235H580.479ZM581.929 324.935C581.51 324.935 581.172 325.086 580.915 325.387C580.659 325.688 580.503 326.169 580.449 326.83H583.335C583.33 326.257 583.219 325.799 583.002 325.453C582.785 325.108 582.427 324.935 581.929 324.935ZM591.675 323.367C592.361 323.367 592.913 323.537 593.332 323.877C593.752 324.218 594.058 324.699 594.25 325.32C594.447 325.942 594.546 326.679 594.546 327.532C594.546 328.341 594.428 329.064 594.191 329.7C593.954 330.332 593.611 330.83 593.162 331.195C592.713 331.555 592.168 331.735 591.527 331.735C590.763 331.735 590.141 331.461 589.663 330.914V334.517L587.325 334.761V323.626H589.396L589.5 324.506C589.82 324.097 590.171 323.806 590.55 323.633C590.93 323.456 591.305 323.367 591.675 323.367ZM590.95 325.091C590.679 325.091 590.439 325.172 590.232 325.335C590.025 325.498 589.835 325.72 589.663 326.001V329.316C589.825 329.557 589.996 329.735 590.173 329.848C590.356 329.962 590.57 330.019 590.817 330.019C591.231 330.019 591.554 329.831 591.786 329.456C592.018 329.076 592.134 328.445 592.134 327.562C592.134 326.911 592.087 326.408 591.993 326.053C591.9 325.693 591.764 325.443 591.586 325.305C591.409 325.162 591.197 325.091 590.95 325.091ZM598.536 320.274V324.403C598.866 324.052 599.224 323.794 599.608 323.626C599.998 323.453 600.41 323.367 600.844 323.367C601.545 323.367 602.08 323.572 602.45 323.981C602.82 324.39 603.005 324.967 603.005 325.712V331.484H600.667V326.363C600.667 325.89 600.612 325.559 600.504 325.372C600.4 325.185 600.203 325.091 599.912 325.091C599.749 325.091 599.589 325.13 599.431 325.209C599.278 325.283 599.128 325.392 598.98 325.535C598.832 325.678 598.684 325.848 598.536 326.045V331.484H596.198V320.503L598.536 320.274ZM621.313 328.487C621.313 329.123 621.145 329.686 620.81 330.174C620.479 330.662 620.003 331.045 619.382 331.321C618.76 331.597 618.013 331.735 617.14 331.735C616.173 331.735 615.362 331.595 614.706 331.313C614.055 331.027 613.514 330.675 613.085 330.255L614.313 328.894C614.693 329.224 615.113 329.481 615.571 329.663C616.03 329.841 616.533 329.93 617.081 329.93C617.421 329.93 617.719 329.88 617.976 329.782C618.232 329.683 618.432 329.54 618.575 329.353C618.718 329.165 618.79 328.938 618.79 328.672C618.79 328.42 618.733 328.208 618.62 328.036C618.506 327.863 618.314 327.708 618.043 327.569C617.776 327.431 617.404 327.291 616.925 327.148C616.126 326.901 615.483 326.63 614.994 326.334C614.511 326.038 614.158 325.695 613.936 325.305C613.719 324.916 613.611 324.462 613.611 323.944C613.611 323.317 613.783 322.782 614.129 322.338C614.479 321.894 614.947 321.557 615.534 321.325C616.121 321.088 616.767 320.97 617.473 320.97C618.267 320.97 618.967 321.085 619.574 321.317C620.181 321.544 620.706 321.87 621.15 322.294L620.003 323.611C619.658 323.32 619.286 323.105 618.886 322.967C618.487 322.824 618.08 322.753 617.665 322.753C617.359 322.753 617.091 322.792 616.859 322.871C616.627 322.945 616.447 323.056 616.319 323.204C616.19 323.352 616.126 323.537 616.126 323.759C616.126 323.976 616.188 324.159 616.311 324.306C616.435 324.454 616.649 324.595 616.955 324.728C617.261 324.856 617.685 325.007 618.228 325.18C618.874 325.377 619.426 325.614 619.885 325.89C620.349 326.161 620.701 326.504 620.943 326.918C621.19 327.333 621.313 327.856 621.313 328.487ZM629.431 329.219C629.431 329.515 629.471 329.73 629.55 329.863C629.633 329.996 629.767 330.097 629.949 330.166L629.468 331.705C629.005 331.661 628.612 331.56 628.292 331.402C627.976 331.239 627.727 330.995 627.545 330.67C627.244 331.03 626.859 331.299 626.39 331.476C625.922 331.649 625.443 331.735 624.955 331.735C624.146 331.735 623.5 331.506 623.016 331.047C622.538 330.583 622.299 329.989 622.299 329.264C622.299 328.41 622.632 327.752 623.297 327.288C623.968 326.825 624.91 326.593 626.124 326.593H627.182V326.297C627.182 325.887 627.049 325.584 626.782 325.387C626.521 325.189 626.136 325.091 625.628 325.091C625.377 325.091 625.054 325.128 624.659 325.202C624.264 325.271 623.87 325.372 623.475 325.505L622.935 323.951C623.443 323.759 623.971 323.613 624.518 323.515C625.071 323.416 625.564 323.367 625.998 323.367C627.167 323.367 628.03 323.606 628.588 324.085C629.15 324.558 629.431 325.244 629.431 326.141V329.219ZM625.761 330.063C626.013 330.063 626.277 329.989 626.553 329.841C626.829 329.688 627.039 329.473 627.182 329.197V327.925H626.605C625.954 327.925 625.475 328.026 625.169 328.228C624.864 328.425 624.711 328.716 624.711 329.101C624.711 329.402 624.802 329.639 624.984 329.811C625.172 329.979 625.431 330.063 625.761 330.063ZM631.69 331.484V323.626H633.732L633.894 324.536C634.245 324.141 634.615 323.848 635.004 323.655C635.394 323.463 635.838 323.367 636.336 323.367C637.007 323.367 637.535 323.572 637.92 323.981C638.304 324.39 638.497 324.967 638.497 325.712V331.484H636.159V326.386C636.159 326.065 636.136 325.811 636.092 325.624C636.048 325.431 635.969 325.295 635.855 325.217C635.747 325.133 635.596 325.091 635.404 325.091C635.241 325.091 635.081 325.128 634.923 325.202C634.77 325.271 634.62 325.372 634.472 325.505C634.324 325.638 634.176 325.799 634.028 325.986V331.484H631.69ZM647.636 331.025C647.33 331.222 646.96 331.39 646.526 331.528C646.092 331.666 645.604 331.735 645.061 331.735C644.035 331.735 643.273 331.474 642.775 330.951C642.277 330.423 642.028 329.708 642.028 328.805V325.239H640.378V323.626H642.028V321.924L644.366 321.643V323.626H646.896L646.667 325.239H644.366V328.805C644.366 329.195 644.454 329.473 644.632 329.641C644.81 329.809 645.093 329.893 645.483 329.893C645.759 329.893 646.011 329.861 646.238 329.797C646.469 329.727 646.677 329.641 646.859 329.538L647.636 331.025ZM654.238 323.626V329.885H656.235V331.484H649.672V329.885H651.899V325.224H649.746V323.626H654.238ZM652.824 319.512C653.229 319.512 653.559 319.638 653.816 319.889C654.072 320.141 654.201 320.454 654.201 320.829C654.201 321.204 654.072 321.52 653.816 321.776C653.559 322.028 653.229 322.153 652.824 322.153C652.415 322.153 652.079 322.028 651.818 321.776C651.562 321.52 651.433 321.204 651.433 320.829C651.433 320.454 651.562 320.141 651.818 319.889C652.079 319.638 652.415 319.512 652.824 319.512ZM664.923 329.219C664.923 329.515 664.963 329.73 665.042 329.863C665.126 329.996 665.259 330.097 665.441 330.166L664.96 331.705C664.497 331.661 664.104 331.56 663.784 331.402C663.468 331.239 663.219 330.995 663.037 330.67C662.736 331.03 662.351 331.299 661.882 331.476C661.414 331.649 660.935 331.735 660.447 331.735C659.638 331.735 658.992 331.506 658.508 331.047C658.03 330.583 657.791 329.989 657.791 329.264C657.791 328.41 658.124 327.752 658.79 327.288C659.46 326.825 660.403 326.593 661.616 326.593H662.674V326.297C662.674 325.887 662.541 325.584 662.274 325.387C662.013 325.189 661.628 325.091 661.12 325.091C660.869 325.091 660.546 325.128 660.151 325.202C659.756 325.271 659.362 325.372 658.967 325.505L658.427 323.951C658.935 323.759 659.463 323.613 660.01 323.515C660.563 323.416 661.056 323.367 661.49 323.367C662.659 323.367 663.522 323.606 664.08 324.085C664.642 324.558 664.923 325.244 664.923 326.141V329.219ZM661.253 330.063C661.505 330.063 661.769 329.989 662.045 329.841C662.321 329.688 662.531 329.473 662.674 329.197V327.925H662.097C661.446 327.925 660.967 328.026 660.661 328.228C660.356 328.425 660.203 328.716 660.203 329.101C660.203 329.402 660.294 329.639 660.476 329.811C660.664 329.979 660.923 330.063 661.253 330.063ZM674.159 322.368L674.706 324.085C674.43 324.193 674.107 324.272 673.737 324.321C673.367 324.371 672.936 324.395 672.442 324.395C672.936 324.607 673.31 324.871 673.567 325.187C673.828 325.498 673.959 325.907 673.959 326.415C673.959 326.923 673.823 327.377 673.552 327.777C673.281 328.171 672.896 328.482 672.398 328.709C671.9 328.936 671.31 329.049 670.63 329.049C670.462 329.049 670.304 329.042 670.156 329.027C670.008 329.012 669.862 328.99 669.719 328.96C669.636 329.005 669.571 329.069 669.527 329.153C669.483 329.237 669.46 329.323 669.46 329.412C669.46 329.535 669.51 329.646 669.608 329.745C669.712 329.843 669.951 329.893 670.326 329.893H671.614C672.225 329.893 672.753 329.991 673.197 330.189C673.646 330.386 673.994 330.655 674.24 330.995C674.487 331.336 674.61 331.725 674.61 332.164C674.61 332.968 674.257 333.602 673.552 334.066C672.847 334.529 671.799 334.761 670.408 334.761C669.401 334.761 668.622 334.658 668.069 334.451C667.522 334.248 667.14 333.957 666.923 333.577C666.711 333.203 666.604 332.756 666.604 332.238H668.676C668.676 332.465 668.721 332.65 668.809 332.793C668.903 332.941 669.078 333.05 669.335 333.119C669.596 333.188 669.973 333.222 670.467 333.222C670.965 333.222 671.345 333.183 671.606 333.104C671.868 333.025 672.045 332.916 672.139 332.778C672.238 332.645 672.287 332.495 672.287 332.327C672.287 332.095 672.196 331.908 672.013 331.765C671.831 331.622 671.542 331.55 671.147 331.55H669.897C669.049 331.55 668.432 331.395 668.047 331.084C667.663 330.768 667.47 330.401 667.47 329.982C667.47 329.69 667.547 329.414 667.7 329.153C667.857 328.891 668.077 328.672 668.358 328.494C667.855 328.228 667.495 327.915 667.278 327.555C667.061 327.19 666.952 326.753 666.952 326.245C666.952 325.653 667.103 325.145 667.404 324.721C667.704 324.292 668.119 323.961 668.647 323.729C669.179 323.498 669.786 323.382 670.467 323.382C671.054 323.391 671.564 323.352 671.998 323.263C672.432 323.17 672.822 323.044 673.167 322.886C673.513 322.723 673.843 322.55 674.159 322.368ZM670.526 324.898C670.156 324.898 669.862 325.017 669.645 325.254C669.428 325.485 669.32 325.806 669.32 326.215C669.32 326.65 669.431 326.982 669.653 327.214C669.875 327.446 670.166 327.562 670.526 327.562C670.916 327.562 671.212 327.446 671.414 327.214C671.621 326.982 671.725 326.64 671.725 326.186C671.725 325.747 671.623 325.424 671.421 325.217C671.219 325.004 670.921 324.898 670.526 324.898ZM679.458 323.367C680.267 323.367 680.955 323.539 681.522 323.885C682.09 324.23 682.524 324.716 682.825 325.342C683.126 325.964 683.276 326.694 683.276 327.532C683.276 328.406 683.123 329.158 682.817 329.789C682.516 330.416 682.082 330.897 681.515 331.232C680.948 331.567 680.262 331.735 679.458 331.735C678.659 331.735 677.973 331.57 677.401 331.239C676.834 330.909 676.397 330.43 676.092 329.804C675.791 329.178 675.64 328.425 675.64 327.547C675.64 326.714 675.791 325.984 676.092 325.357C676.397 324.731 676.834 324.242 677.401 323.892C677.973 323.542 678.659 323.367 679.458 323.367ZM679.458 325.091C678.98 325.091 678.625 325.288 678.393 325.683C678.166 326.072 678.052 326.694 678.052 327.547C678.052 328.415 678.166 329.044 678.393 329.434C678.625 329.824 678.98 330.019 679.458 330.019C679.937 330.019 680.289 329.824 680.516 329.434C680.748 329.044 680.864 328.41 680.864 327.532C680.864 326.684 680.748 326.065 680.516 325.675C680.289 325.286 679.937 325.091 679.458 325.091ZM698.795 324.573C698.795 324.208 698.726 323.907 698.588 323.67C698.455 323.428 698.25 323.251 697.974 323.137C697.702 323.019 697.36 322.96 696.945 322.96H696.117V326.312H697.071C697.431 326.312 697.739 326.25 697.996 326.127C698.252 326.003 698.45 325.813 698.588 325.557C698.726 325.3 698.795 324.972 698.795 324.573ZM701.296 324.565C701.296 325.36 701.126 326.016 700.785 326.534C700.445 327.052 699.969 327.439 699.357 327.695C698.746 327.947 698.035 328.073 697.226 328.073H696.117V331.484H693.69V321.229H696.916C698.307 321.229 699.384 321.505 700.149 322.057C700.914 322.61 701.296 323.446 701.296 324.565ZM706.077 323.367C706.886 323.367 707.574 323.539 708.142 323.885C708.709 324.23 709.143 324.716 709.444 325.342C709.745 325.964 709.895 326.694 709.895 327.532C709.895 328.406 709.742 329.158 709.436 329.789C709.135 330.416 708.701 330.897 708.134 331.232C707.567 331.567 706.881 331.735 706.077 331.735C705.278 331.735 704.592 331.57 704.02 331.239C703.453 330.909 703.016 330.43 702.711 329.804C702.41 329.178 702.259 328.425 702.259 327.547C702.259 326.714 702.41 325.984 702.711 325.357C703.016 324.731 703.453 324.242 704.02 323.892C704.592 323.542 705.278 323.367 706.077 323.367ZM706.077 325.091C705.599 325.091 705.244 325.288 705.012 325.683C704.785 326.072 704.671 326.694 704.671 327.547C704.671 328.415 704.785 329.044 705.012 329.434C705.244 329.824 705.599 330.019 706.077 330.019C706.556 330.019 706.908 329.824 707.135 329.434C707.367 329.044 707.483 328.41 707.483 327.532C707.483 326.684 707.367 326.065 707.135 325.675C706.908 325.286 706.556 325.091 706.077 325.091ZM711.621 331.484V329.915H712.656V325.18H711.621V323.626H714.44L714.869 325.394C715.15 324.718 715.508 324.215 715.942 323.885C716.381 323.554 716.916 323.389 717.547 323.389C717.814 323.389 718.05 323.411 718.258 323.456C718.465 323.495 718.66 323.552 718.842 323.626L718.132 325.557C717.989 325.517 717.846 325.488 717.703 325.468C717.56 325.448 717.402 325.439 717.229 325.439C716.716 325.439 716.265 325.648 715.875 326.067C715.49 326.487 715.197 327.019 714.995 327.666V329.915H716.548V331.484H711.621ZM716.941 326.911V324.617L717.288 323.626H718.842L718.406 326.911H716.941ZM727.493 331.025C727.187 331.222 726.817 331.39 726.383 331.528C725.949 331.666 725.461 331.735 724.918 331.735C723.892 331.735 723.13 331.474 722.632 330.951C722.134 330.423 721.885 329.708 721.885 328.805V325.239H720.235V323.626H721.885V321.924L724.223 321.643V323.626H726.753L726.524 325.239H724.223V328.805C724.223 329.195 724.312 329.473 724.489 329.641C724.667 329.809 724.95 329.893 725.34 329.893C725.616 329.893 725.868 329.861 726.095 329.797C726.327 329.727 726.534 329.641 726.716 329.538L727.493 331.025ZM734.095 323.626V329.885H736.092V331.484H729.529V329.885H731.757V325.224H729.603V323.626H734.095ZM732.681 319.512C733.086 319.512 733.416 319.638 733.673 319.889C733.929 320.141 734.058 320.454 734.058 320.829C734.058 321.204 733.929 321.52 733.673 321.776C733.416 322.028 733.086 322.153 732.681 322.153C732.272 322.153 731.937 322.028 731.675 321.776C731.419 321.52 731.29 321.204 731.29 320.829C731.29 320.454 731.419 320.141 731.675 319.889C731.937 319.638 732.272 319.512 732.681 319.512ZM742.265 320.503V329.012C742.265 329.328 742.354 329.555 742.531 329.693C742.714 329.826 742.963 329.893 743.278 329.893C743.481 329.893 743.675 329.871 743.863 329.826C744.05 329.777 744.225 329.72 744.388 329.656L744.951 331.217C744.684 331.355 744.364 331.476 743.989 331.58C743.614 331.683 743.177 331.735 742.679 331.735C741.732 331.735 741.036 331.464 740.593 330.921C740.149 330.374 739.927 329.641 739.927 328.724V322.102H737.611V320.503H742.265ZM751.138 320.503V329.012C751.138 329.328 751.227 329.555 751.404 329.693C751.587 329.826 751.836 329.893 752.151 329.893C752.354 329.893 752.548 329.871 752.736 329.826C752.923 329.777 753.098 329.72 753.261 329.656L753.824 331.217C753.557 331.355 753.237 331.476 752.862 331.58C752.487 331.683 752.05 331.735 751.552 331.735C750.605 331.735 749.91 331.464 749.466 330.921C749.022 330.374 748.8 329.641 748.8 328.724V322.102H746.484V320.503H751.138ZM762.526 329.219C762.526 329.515 762.566 329.73 762.645 329.863C762.729 329.996 762.862 330.097 763.044 330.166L762.563 331.705C762.1 331.661 761.708 331.56 761.387 331.402C761.071 331.239 760.822 330.995 760.64 330.67C760.339 331.03 759.954 331.299 759.485 331.476C759.017 331.649 758.538 331.735 758.05 331.735C757.241 331.735 756.595 331.506 756.111 331.047C755.633 330.583 755.394 329.989 755.394 329.264C755.394 328.41 755.727 327.752 756.393 327.288C757.063 326.825 758.006 326.593 759.219 326.593H760.277V326.297C760.277 325.887 760.144 325.584 759.878 325.387C759.616 325.189 759.231 325.091 758.723 325.091C758.472 325.091 758.149 325.128 757.754 325.202C757.359 325.271 756.965 325.372 756.57 325.505L756.03 323.951C756.538 323.759 757.066 323.613 757.613 323.515C758.166 323.416 758.659 323.367 759.093 323.367C760.262 323.367 761.126 323.606 761.683 324.085C762.245 324.558 762.526 325.244 762.526 326.141V329.219ZM758.856 330.063C759.108 330.063 759.372 329.989 759.648 329.841C759.924 329.688 760.134 329.473 760.277 329.197V327.925H759.7C759.049 327.925 758.57 328.026 758.265 328.228C757.959 328.425 757.806 328.716 757.806 329.101C757.806 329.402 757.897 329.639 758.08 329.811C758.267 329.979 758.526 330.063 758.856 330.063ZM764.984 327.762V325.942H771.392V327.762H764.984ZM780.665 321.229L781.242 331.484H779.126L779 327.096C778.99 326.687 778.985 326.321 778.985 326.001C778.99 325.68 778.997 325.379 779.007 325.098C779.017 324.812 779.032 324.526 779.052 324.24C779.076 323.949 779.101 323.633 779.126 323.293L777.971 329.737H776.136L774.893 323.293C774.923 323.618 774.948 323.927 774.967 324.218C774.992 324.504 775.009 324.792 775.019 325.083C775.029 325.374 775.036 325.688 775.041 326.023C775.046 326.354 775.044 326.724 775.034 327.133L774.96 331.484H772.881L773.458 321.229H775.951L777.091 327.858L778.171 321.229H780.665ZM789.145 329.219C789.145 329.515 789.185 329.73 789.264 329.863C789.348 329.996 789.481 330.097 789.663 330.166L789.182 331.705C788.719 331.661 788.327 331.56 788.006 331.402C787.69 331.239 787.441 330.995 787.259 330.67C786.958 331.03 786.573 331.299 786.104 331.476C785.636 331.649 785.157 331.735 784.669 331.735C783.86 331.735 783.214 331.506 782.731 331.047C782.252 330.583 782.013 329.989 782.013 329.264C782.013 328.41 782.346 327.752 783.012 327.288C783.683 326.825 784.625 326.593 785.838 326.593H786.896V326.297C786.896 325.887 786.763 325.584 786.497 325.387C786.235 325.189 785.85 325.091 785.342 325.091C785.091 325.091 784.768 325.128 784.373 325.202C783.978 325.271 783.584 325.372 783.189 325.505L782.649 323.951C783.157 323.759 783.685 323.613 784.233 323.515C784.785 323.416 785.278 323.367 785.712 323.367C786.881 323.367 787.745 323.606 788.302 324.085C788.864 324.558 789.145 325.244 789.145 326.141V329.219ZM785.476 330.063C785.727 330.063 785.991 329.989 786.267 329.841C786.543 329.688 786.753 329.473 786.896 329.197V327.925H786.319C785.668 327.925 785.189 328.026 784.884 328.228C784.578 328.425 784.425 328.716 784.425 329.101C784.425 329.402 784.516 329.639 784.699 329.811C784.886 329.979 785.145 330.063 785.476 330.063ZM791.478 331.484V329.915H792.514V325.18H791.478V323.626H794.297L794.726 325.394C795.007 324.718 795.365 324.215 795.799 323.885C796.238 323.554 796.773 323.389 797.404 323.389C797.671 323.389 797.907 323.411 798.115 323.456C798.322 323.495 798.517 323.552 798.699 323.626L797.989 325.557C797.846 325.517 797.703 325.488 797.56 325.468C797.417 325.448 797.259 325.439 797.086 325.439C796.573 325.439 796.122 325.648 795.732 326.067C795.347 326.487 795.054 327.019 794.852 327.666V329.915H796.405V331.484H791.478ZM796.798 326.911V324.617L797.145 323.626H798.699L798.263 326.911H796.798ZM807.35 331.025C807.044 331.222 806.674 331.39 806.24 331.528C805.806 331.666 805.318 331.735 804.775 331.735C803.749 331.735 802.987 331.474 802.489 330.951C801.991 330.423 801.742 329.708 801.742 328.805V325.239H800.092V323.626H801.742V321.924L804.08 321.643V323.626H806.61L806.381 325.239H804.08V328.805C804.08 329.195 804.169 329.473 804.346 329.641C804.524 329.809 804.807 329.893 805.197 329.893C805.473 329.893 805.725 329.861 805.952 329.797C806.184 329.727 806.391 329.641 806.573 329.538L807.35 331.025ZM813.952 323.626V329.885H815.949V331.484H809.387V329.885H811.614V325.224H809.461V323.626H813.952ZM813.663 319.127L814.573 320.888L811.081 322.272L810.437 321.088L813.663 319.127ZM818.023 331.484V323.626H820.065L820.228 324.536C820.578 324.141 820.948 323.848 821.338 323.655C821.727 323.463 822.171 323.367 822.669 323.367C823.34 323.367 823.868 323.572 824.253 323.981C824.637 324.39 824.83 324.967 824.83 325.712V331.484H822.492V326.386C822.492 326.065 822.47 325.811 822.425 325.624C822.381 325.431 822.302 325.295 822.188 325.217C822.08 325.133 821.929 325.091 821.737 325.091C821.574 325.091 821.414 325.128 821.256 325.202C821.103 325.271 820.953 325.372 820.805 325.505C820.657 325.638 820.509 325.799 820.361 325.986V331.484H818.023ZM828.923 328.235C828.977 328.665 829.088 329.012 829.256 329.279C829.429 329.54 829.648 329.732 829.915 329.856C830.181 329.974 830.479 330.033 830.81 330.033C831.17 330.033 831.518 329.974 831.853 329.856C832.189 329.737 832.512 329.58 832.822 329.382L833.762 330.655C833.392 330.971 832.943 331.229 832.415 331.432C831.893 331.634 831.296 331.735 830.625 331.735C829.727 331.735 828.975 331.558 828.368 331.202C827.761 330.842 827.305 330.349 826.999 329.723C826.694 329.096 826.541 328.376 826.541 327.562C826.541 326.788 826.689 326.085 826.985 325.453C827.281 324.817 827.712 324.311 828.279 323.937C828.852 323.557 829.55 323.367 830.373 323.367C831.123 323.367 831.772 323.527 832.319 323.848C832.872 324.168 833.298 324.63 833.599 325.231C833.905 325.833 834.058 326.556 834.058 327.399C834.058 327.532 834.053 327.676 834.043 327.828C834.038 327.981 834.028 328.117 834.014 328.235H828.923ZM830.373 324.935C829.954 324.935 829.616 325.086 829.36 325.387C829.103 325.688 828.948 326.169 828.894 326.83H831.779C831.774 326.257 831.663 325.799 831.446 325.453C831.229 325.108 830.872 324.935 830.373 324.935ZM838.558 329.715H842.494L842.272 331.484H835.798V329.834L839.698 325.387H836.124V323.626H842.42V325.268L838.558 329.715ZM857.673 318.165V335.923H856.164V318.165H857.673ZM874.442 321.066C875.182 321.066 875.814 321.174 876.337 321.391C876.859 321.603 877.291 321.902 877.631 322.287C877.977 322.666 878.245 323.115 878.438 323.633C878.63 324.151 878.766 324.713 878.845 325.32C878.924 325.927 878.963 326.556 878.963 327.207C878.963 328.45 878.904 329.491 878.786 330.329C878.667 331.163 878.445 331.789 878.12 332.209C877.799 332.633 877.335 332.845 876.729 332.845C876.433 332.845 876.174 332.778 875.952 332.645C875.735 332.512 875.555 332.339 875.412 332.127C875.274 331.92 875.168 331.696 875.094 331.454C875.024 331.207 874.985 330.975 874.975 330.758H874.916C874.817 330.995 874.682 331.222 874.509 331.439C874.336 331.656 874.117 331.834 873.85 331.972C873.584 332.11 873.259 332.179 872.874 332.179C872.321 332.179 871.877 332.031 871.542 331.735C871.207 331.444 870.962 331.042 870.809 330.529C870.657 330.016 870.58 329.436 870.58 328.79C870.58 327.532 870.837 326.573 871.35 325.912C871.863 325.246 872.605 324.913 873.577 324.913C873.942 324.913 874.302 324.958 874.657 325.046C875.017 325.13 875.404 325.283 875.819 325.505V329.9C875.819 330.369 875.856 330.731 875.93 330.988C876.004 331.244 876.105 331.422 876.233 331.521C876.366 331.619 876.517 331.668 876.684 331.668C876.882 331.668 877.035 331.567 877.143 331.365C877.256 331.163 877.338 330.872 877.387 330.492C877.437 330.107 877.466 329.644 877.476 329.101C877.486 328.558 877.491 327.947 877.491 327.266C877.491 326.536 877.449 325.868 877.365 325.261C877.286 324.649 877.136 324.122 876.914 323.678C876.697 323.234 876.386 322.891 875.981 322.649C875.577 322.407 875.052 322.287 874.405 322.287C873.907 322.287 873.382 322.38 872.829 322.568C872.282 322.755 871.705 323.115 871.098 323.648L870.299 322.723C870.97 322.141 871.648 321.719 872.334 321.458C873.024 321.196 873.727 321.066 874.442 321.066ZM873.599 326.038C873.032 326.038 872.644 326.26 872.437 326.704C872.23 327.143 872.127 327.838 872.127 328.79C872.127 329.264 872.156 329.668 872.215 330.004C872.274 330.339 872.378 330.596 872.526 330.773C872.674 330.951 872.874 331.04 873.125 331.04C873.426 331.04 873.661 330.971 873.828 330.832C873.996 330.694 874.122 330.532 874.206 330.344C874.289 330.152 874.354 329.984 874.398 329.841V326.23C874.265 326.161 874.137 326.112 874.013 326.082C873.89 326.053 873.752 326.038 873.599 326.038ZM886.896 321.229V327.791C886.896 328.388 886.805 328.928 886.623 329.412C886.44 329.895 886.171 330.307 885.816 330.647C885.466 330.988 885.034 331.249 884.521 331.432C884.013 331.614 883.431 331.705 882.775 331.705C882.114 331.705 881.542 331.622 881.059 331.454C880.58 331.281 880.119 331.045 879.675 330.744L880.6 329.249C880.95 329.491 881.278 329.661 881.584 329.76C881.89 329.853 882.238 329.9 882.627 329.9C883.155 329.9 883.594 329.732 883.944 329.397C884.299 329.057 884.477 328.531 884.477 327.821V323.004H881.325V321.229H886.896ZM892.41 323.367C893.219 323.367 893.907 323.539 894.475 323.885C895.042 324.23 895.476 324.716 895.777 325.342C896.078 325.964 896.228 326.694 896.228 327.532C896.228 328.406 896.075 329.158 895.77 329.789C895.469 330.416 895.035 330.897 894.467 331.232C893.9 331.567 893.214 331.735 892.41 331.735C891.611 331.735 890.926 331.57 890.353 331.239C889.786 330.909 889.35 330.43 889.044 329.804C888.743 329.178 888.592 328.425 888.592 327.547C888.592 326.714 888.743 325.984 889.044 325.357C889.35 324.731 889.786 324.242 890.353 323.892C890.926 323.542 891.611 323.367 892.41 323.367ZM892.41 325.091C891.932 325.091 891.577 325.288 891.345 325.683C891.118 326.072 891.005 326.694 891.005 327.547C891.005 328.415 891.118 329.044 891.345 329.434C891.577 329.824 891.932 330.019 892.41 330.019C892.889 330.019 893.242 329.824 893.468 329.434C893.7 329.044 893.816 328.41 893.816 327.532C893.816 326.684 893.7 326.065 893.468 325.675C893.242 325.286 892.889 325.091 892.41 325.091ZM899.907 328.235C899.961 328.665 900.072 329.012 900.24 329.279C900.413 329.54 900.632 329.732 900.899 329.856C901.165 329.974 901.463 330.033 901.794 330.033C902.154 330.033 902.502 329.974 902.837 329.856C903.173 329.737 903.496 329.58 903.806 329.382L904.746 330.655C904.376 330.971 903.927 331.229 903.4 331.432C902.877 331.634 902.28 331.735 901.609 331.735C900.711 331.735 899.959 331.558 899.352 331.202C898.746 330.842 898.289 330.349 897.983 329.723C897.678 329.096 897.525 328.376 897.525 327.562C897.525 326.788 897.673 326.085 897.969 325.453C898.265 324.817 898.696 324.311 899.263 323.937C899.836 323.557 900.534 323.367 901.357 323.367C902.107 323.367 902.756 323.527 903.303 323.848C903.856 324.168 904.282 324.63 904.583 325.231C904.889 325.833 905.042 326.556 905.042 327.399C905.042 327.532 905.037 327.676 905.027 327.828C905.022 327.981 905.012 328.117 904.998 328.235H899.907ZM901.357 324.935C900.938 324.935 900.6 325.086 900.344 325.387C900.087 325.688 899.932 326.169 899.878 326.83H902.763C902.758 326.257 902.647 325.799 902.43 325.453C902.213 325.108 901.856 324.935 901.357 324.935ZM911.747 324.573C911.747 324.208 911.678 323.907 911.54 323.67C911.407 323.428 911.202 323.251 910.926 323.137C910.655 323.019 910.312 322.96 909.897 322.96H909.069V326.312H910.023C910.383 326.312 910.692 326.25 910.948 326.127C911.205 326.003 911.402 325.813 911.54 325.557C911.678 325.3 911.747 324.972 911.747 324.573ZM914.248 324.565C914.248 325.36 914.078 326.016 913.738 326.534C913.397 327.052 912.921 327.439 912.31 327.695C911.698 327.947 910.988 328.073 910.179 328.073H909.069V331.484H906.642V321.229H909.868C911.259 321.229 912.337 321.505 913.101 322.057C913.866 322.61 914.248 323.446 914.248 324.565ZM919.029 323.367C919.838 323.367 920.526 323.539 921.094 323.885C921.661 324.23 922.095 324.716 922.396 325.342C922.697 325.964 922.847 326.694 922.847 327.532C922.847 328.406 922.694 329.158 922.389 329.789C922.088 330.416 921.654 330.897 921.086 331.232C920.519 331.567 919.833 331.735 919.029 331.735C918.23 331.735 917.545 331.57 916.973 331.239C916.405 330.909 915.969 330.43 915.663 329.804C915.362 329.178 915.212 328.425 915.212 327.547C915.212 326.714 915.362 325.984 915.663 325.357C915.969 324.731 916.405 324.242 916.973 323.892C917.545 323.542 918.23 323.367 919.029 323.367ZM919.029 325.091C918.551 325.091 918.196 325.288 917.964 325.683C917.737 326.072 917.624 326.694 917.624 327.547C917.624 328.415 917.737 329.044 917.964 329.434C918.196 329.824 918.551 330.019 919.029 330.019C919.508 330.019 919.861 329.824 920.087 329.434C920.319 329.044 920.435 328.41 920.435 327.532C920.435 326.684 920.319 326.065 920.087 325.675C919.861 325.286 919.508 325.091 919.029 325.091ZM924.573 331.484V329.915H925.609V325.18H924.573V323.626H927.392L927.821 325.394C928.102 324.718 928.46 324.215 928.894 323.885C929.333 323.554 929.868 323.389 930.499 323.389C930.766 323.389 931.003 323.411 931.21 323.456C931.417 323.495 931.612 323.552 931.794 323.626L931.084 325.557C930.941 325.517 930.798 325.488 930.655 325.468C930.512 325.448 930.354 325.439 930.181 325.439C929.668 325.439 929.217 325.648 928.827 326.067C928.443 326.487 928.149 327.019 927.947 327.666V329.915H929.501V331.484H924.573ZM929.893 326.911V324.617L930.24 323.626H931.794L931.358 326.911H929.893ZM940.445 331.025C940.139 331.222 939.77 331.39 939.335 331.528C938.901 331.666 938.413 331.735 937.87 331.735C936.844 331.735 936.082 331.474 935.584 330.951C935.086 330.423 934.837 329.708 934.837 328.805V325.239H933.187V323.626H934.837V321.924L937.175 321.643V323.626H939.705L939.476 325.239H937.175V328.805C937.175 329.195 937.264 329.473 937.441 329.641C937.619 329.809 937.903 329.893 938.292 329.893C938.568 329.893 938.82 329.861 939.047 329.797C939.279 329.727 939.486 329.641 939.668 329.538L940.445 331.025ZM947.047 323.626V329.885H949.045V331.484H942.482V329.885H944.709V325.224H942.556V323.626H947.047ZM945.634 319.512C946.038 319.512 946.369 319.638 946.625 319.889C946.882 320.141 947.01 320.454 947.01 320.829C947.01 321.204 946.882 321.52 946.625 321.776C946.369 322.028 946.038 322.153 945.634 322.153C945.224 322.153 944.889 322.028 944.627 321.776C944.371 321.52 944.243 321.204 944.243 320.829C944.243 320.454 944.371 320.141 944.627 319.889C944.889 319.638 945.224 319.512 945.634 319.512ZM955.217 320.503V329.012C955.217 329.328 955.306 329.555 955.483 329.693C955.666 329.826 955.915 329.893 956.231 329.893C956.433 329.893 956.628 329.871 956.815 329.826C957.003 329.777 957.178 329.72 957.34 329.656L957.903 331.217C957.636 331.355 957.316 331.476 956.941 331.58C956.566 331.683 956.13 331.735 955.631 331.735C954.684 331.735 953.989 331.464 953.545 330.921C953.101 330.374 952.879 329.641 952.879 328.724V322.102H950.563V320.503H955.217ZM964.09 320.503V329.012C964.09 329.328 964.179 329.555 964.356 329.693C964.539 329.826 964.788 329.893 965.104 329.893C965.306 329.893 965.501 329.871 965.688 329.826C965.876 329.777 966.051 329.72 966.213 329.656L966.776 331.217C966.509 331.355 966.189 331.476 965.814 331.58C965.439 331.683 965.002 331.735 964.504 331.735C963.557 331.735 962.862 331.464 962.418 330.921C961.974 330.374 961.752 329.641 961.752 328.724V322.102H959.436V320.503H964.09ZM975.479 329.219C975.479 329.515 975.518 329.73 975.597 329.863C975.681 329.996 975.814 330.097 975.997 330.166L975.516 331.705C975.052 331.661 974.66 331.56 974.339 331.402C974.023 331.239 973.774 330.995 973.592 330.67C973.291 331.03 972.906 331.299 972.438 331.476C971.969 331.649 971.491 331.735 971.002 331.735C970.193 331.735 969.547 331.506 969.064 331.047C968.585 330.583 968.346 329.989 968.346 329.264C968.346 328.41 968.679 327.752 969.345 327.288C970.016 326.825 970.958 326.593 972.171 326.593H973.229V326.297C973.229 325.887 973.096 325.584 972.83 325.387C972.568 325.189 972.184 325.091 971.676 325.091C971.424 325.091 971.101 325.128 970.706 325.202C970.312 325.271 969.917 325.372 969.522 325.505L968.982 323.951C969.49 323.759 970.018 323.613 970.566 323.515C971.118 323.416 971.611 323.367 972.045 323.367C973.215 323.367 974.078 323.606 974.635 324.085C975.197 324.558 975.479 325.244 975.479 326.141V329.219ZM971.809 330.063C972.06 330.063 972.324 329.989 972.6 329.841C972.877 329.688 973.086 329.473 973.229 329.197V327.925H972.652C972.001 327.925 971.523 328.026 971.217 328.228C970.911 328.425 970.758 328.716 970.758 329.101C970.758 329.402 970.849 329.639 971.032 329.811C971.219 329.979 971.478 330.063 971.809 330.063Z" fill="black"/>
<rect x="597" y="33" width="77.1792" height="77.1792" rx="2" fill="#0037AC"/>
<path d="M628.122 89H621.503V70.8778C621.503 70.378 621.51 69.7639 621.525 69.0356C621.539 68.293 621.56 67.5361 621.589 66.765C621.617 65.9795 621.646 65.2726 621.674 64.6443C621.517 64.8299 621.196 65.1513 620.711 65.6082C620.239 66.0509 619.797 66.4508 619.382 66.8078L615.784 69.6997L612.592 65.7154L622.681 57.6825H628.122V89ZM658.583 73.3412C658.583 75.8689 658.383 78.1253 657.983 80.1103C657.598 82.0953 656.969 83.7804 656.098 85.1656C655.241 86.5509 654.113 87.6076 652.714 88.3359C651.314 89.0643 649.615 89.4284 647.615 89.4284C645.102 89.4284 643.038 88.7929 641.425 87.5219C639.811 86.2367 638.618 84.3945 637.847 81.9953C637.076 79.5819 636.691 76.6972 636.691 73.3412C636.691 69.9567 637.04 67.0649 637.74 64.6657C638.454 62.2523 639.611 60.4029 641.21 59.1177C642.81 57.8324 644.945 57.1898 647.615 57.1898C650.114 57.1898 652.171 57.8324 653.785 59.1177C655.413 60.3887 656.619 62.2309 657.405 64.6443C658.19 67.0435 658.583 69.9424 658.583 73.3412ZM643.267 73.3412C643.267 75.7261 643.395 77.7183 643.652 79.3177C643.924 80.9029 644.374 82.0953 645.002 82.895C645.63 83.6947 646.501 84.0946 647.615 84.0946C648.715 84.0946 649.579 83.7019 650.207 82.9164C650.85 82.1167 651.307 80.9243 651.578 79.3391C651.85 77.7397 651.985 75.7404 651.985 73.3412C651.985 70.9564 651.85 68.9642 651.578 67.3648C651.307 65.7653 650.85 64.5658 650.207 63.766C649.579 62.952 648.715 62.545 647.615 62.545C646.501 62.545 645.63 62.952 645.002 63.766C644.374 64.5658 643.924 65.7653 643.652 67.3648C643.395 68.9642 643.267 70.9564 643.267 73.3412Z" fill="white"/>
<rect x="676.179" y="33" width="77.1792" height="77.1792" rx="2" fill="#0037AC"/>
<path d="M712.828 89H690.936V84.3945L698.797 76.4473C700.382 74.8193 701.653 73.4626 702.61 72.3773C703.581 71.2777 704.281 70.278 704.709 69.3783C705.152 68.4787 705.373 67.5147 705.373 66.4865C705.373 65.2441 705.024 64.3158 704.324 63.7018C703.638 63.0734 702.717 62.7592 701.561 62.7592C700.347 62.7592 699.169 63.0377 698.026 63.5947C696.884 64.1516 695.691 64.9442 694.449 65.9724L690.85 61.7096C691.75 60.9385 692.699 60.2101 693.699 59.5247C694.713 58.8392 695.884 58.2894 697.212 57.8753C698.554 57.4468 700.161 57.2326 702.032 57.2326C704.088 57.2326 705.852 57.6039 707.323 58.3465C708.808 59.0891 709.95 60.103 710.75 61.3883C711.55 62.6593 711.95 64.1016 711.95 65.7154C711.95 67.4433 711.607 69.0213 710.922 70.4494C710.236 71.8775 709.236 73.2913 707.923 74.6908C706.623 76.0903 705.052 77.6397 703.21 79.3391L699.183 83.1306V83.4305H712.828V89ZM737.762 73.3412C737.762 75.8689 737.562 78.1253 737.162 80.1103C736.777 82.0953 736.148 83.7804 735.277 85.1656C734.42 86.5509 733.292 87.6076 731.893 88.3359C730.493 89.0643 728.794 89.4284 726.795 89.4284C724.281 89.4284 722.218 88.7929 720.604 87.5219C718.99 86.2367 717.798 84.3945 717.027 81.9953C716.255 79.5819 715.87 76.6972 715.87 73.3412C715.87 69.9567 716.22 67.0649 716.919 64.6657C717.633 62.2523 718.79 60.4029 720.39 59.1177C721.989 57.8324 724.124 57.1898 726.795 57.1898C729.294 57.1898 731.35 57.8324 732.964 59.1177C734.592 60.3887 735.798 62.2309 736.584 64.6443C737.369 67.0435 737.762 69.9424 737.762 73.3412ZM722.446 73.3412C722.446 75.7261 722.575 77.7183 722.832 79.3177C723.103 80.9029 723.553 82.0953 724.181 82.895C724.809 83.6947 725.681 84.0946 726.795 84.0946C727.894 84.0946 728.758 83.7019 729.386 82.9164C730.029 82.1167 730.486 80.9243 730.757 79.3391C731.029 77.7397 731.164 75.7404 731.164 73.3412C731.164 70.9564 731.029 68.9642 730.757 67.3648C730.486 65.7653 730.029 64.5658 729.386 63.766C728.758 62.952 727.894 62.545 726.795 62.545C725.681 62.545 724.809 62.952 724.181 63.766C723.553 64.5658 723.103 65.7653 722.832 67.3648C722.575 68.9642 722.446 70.9564 722.446 73.3412Z" fill="white"/>
<rect x="755.358" y="33" width="77.1792" height="77.1792" rx="2" fill="#0037AC"/>
<path d="M790.786 64.6871C790.786 66.1295 790.486 67.379 789.887 68.4358C789.287 69.4926 788.473 70.3566 787.445 71.0278C786.431 71.699 785.288 72.1916 784.017 72.5058V72.6343C786.531 72.9485 788.437 73.7197 789.737 74.9478C791.05 76.1759 791.707 77.8182 791.707 79.8746C791.707 81.7026 791.257 83.3377 790.358 84.7801C789.472 86.2224 788.101 87.3577 786.245 88.186C784.388 89.0143 781.996 89.4284 779.069 89.4284C777.341 89.4284 775.727 89.2856 774.228 89C772.743 88.7287 771.343 88.3074 770.029 87.7362V82.1024C771.372 82.7879 772.778 83.3091 774.249 83.6662C775.72 84.0089 777.091 84.1803 778.362 84.1803C780.733 84.1803 782.389 83.7733 783.332 82.9593C784.288 82.131 784.767 80.9743 784.767 79.4891C784.767 78.6179 784.546 77.8825 784.103 77.2827C783.66 76.6829 782.889 76.2259 781.789 75.9118C780.704 75.5976 779.183 75.4405 777.227 75.4405H774.849V70.3637H777.27C779.197 70.3637 780.661 70.1852 781.661 69.8282C782.675 69.4569 783.36 68.9571 783.717 68.3287C784.089 67.6861 784.274 66.9578 784.274 66.1438C784.274 65.0299 783.931 64.1588 783.246 63.5304C782.561 62.9021 781.418 62.5879 779.819 62.5879C778.819 62.5879 777.905 62.7164 777.077 62.9735C776.263 63.2162 775.527 63.5161 774.87 63.8731C774.213 64.2159 773.635 64.5515 773.135 64.8799L770.072 60.3173C771.3 59.4319 772.735 58.6964 774.378 58.1109C776.034 57.5254 778.005 57.2326 780.29 57.2326C783.517 57.2326 786.074 57.8824 787.959 59.1819C789.844 60.4815 790.786 62.3165 790.786 64.6871ZM816.941 73.3412C816.941 75.8689 816.741 78.1253 816.341 80.1103C815.956 82.0953 815.328 83.7804 814.456 85.1656C813.6 86.5509 812.471 87.6076 811.072 88.3359C809.672 89.0643 807.973 89.4284 805.974 89.4284C803.46 89.4284 801.397 88.7929 799.783 87.5219C798.169 86.2367 796.977 84.3945 796.206 81.9953C795.435 79.5819 795.049 76.6972 795.049 73.3412C795.049 69.9567 795.399 67.0649 796.099 64.6657C796.813 62.2523 797.969 60.4029 799.569 59.1177C801.168 57.8324 803.303 57.1898 805.974 57.1898C808.473 57.1898 810.529 57.8324 812.143 59.1177C813.771 60.3887 814.978 62.2309 815.763 64.6443C816.549 67.0435 816.941 69.9424 816.941 73.3412ZM801.625 73.3412C801.625 75.7261 801.754 77.7183 802.011 79.3177C802.282 80.9029 802.732 82.0953 803.36 82.895C803.989 83.6947 804.86 84.0946 805.974 84.0946C807.073 84.0946 807.937 83.7019 808.566 82.9164C809.208 82.1167 809.665 80.9243 809.937 79.3391C810.208 77.7397 810.344 75.7404 810.344 73.3412C810.344 70.9564 810.208 68.9642 809.937 67.3648C809.665 65.7653 809.208 64.5658 808.566 63.766C807.937 62.952 807.073 62.545 805.974 62.545C804.86 62.545 803.989 62.952 803.36 63.766C802.732 64.5658 802.282 65.7653 802.011 67.3648C801.754 68.9642 801.625 70.9564 801.625 73.3412Z" fill="white"/>
<rect x="597" y="112.179" width="77.1792" height="77.1792" rx="2" fill="#0037AC"/>
<path d="M634.356 161.689H630.586V168.179H624.116V161.689H610.75V157.083L624.481 136.862H630.586V156.548H634.356V161.689ZM624.116 156.548V151.235C624.116 150.735 624.124 150.143 624.138 149.457C624.166 148.772 624.195 148.086 624.224 147.401C624.252 146.715 624.281 146.108 624.309 145.58C624.352 145.037 624.381 144.659 624.395 144.445H624.224C623.952 145.03 623.667 145.601 623.367 146.158C623.067 146.701 622.717 147.272 622.317 147.872L616.576 156.548H624.116ZM658.583 152.52C658.583 155.048 658.383 157.304 657.983 159.289C657.598 161.274 656.969 162.96 656.098 164.345C655.241 165.73 654.113 166.787 652.714 167.515C651.314 168.243 649.615 168.608 647.615 168.608C645.102 168.608 643.038 167.972 641.425 166.701C639.811 165.416 638.618 163.574 637.847 161.175C637.076 158.761 636.691 155.876 636.691 152.52C636.691 149.136 637.04 146.244 637.74 143.845C638.454 141.431 639.611 139.582 641.21 138.297C642.81 137.012 644.945 136.369 647.615 136.369C650.114 136.369 652.171 137.012 653.785 138.297C655.413 139.568 656.619 141.41 657.405 143.823C658.19 146.223 658.583 149.122 658.583 152.52ZM643.267 152.52C643.267 154.905 643.395 156.897 643.652 158.497C643.924 160.082 644.374 161.274 645.002 162.074C645.63 162.874 646.501 163.274 647.615 163.274C648.715 163.274 649.579 162.881 650.207 162.096C650.85 161.296 651.307 160.103 651.578 158.518C651.85 156.919 651.985 154.92 651.985 152.52C651.985 150.136 651.85 148.143 651.578 146.544C651.307 144.945 650.85 143.745 650.207 142.945C649.579 142.131 648.715 141.724 647.615 141.724C646.501 141.724 645.63 142.131 645.002 142.945C644.374 143.745 643.924 144.945 643.652 146.544C643.395 148.143 643.267 150.136 643.267 152.52Z" fill="white"/>
<rect x="676.179" y="112.179" width="77.1792" height="77.1792" rx="2" fill="#0037AC"/>
<path d="M702.332 148.172C704.245 148.172 705.945 148.536 707.43 149.264C708.929 149.993 710.108 151.064 710.964 152.478C711.821 153.891 712.25 155.634 712.25 157.704C712.25 159.961 711.778 161.91 710.836 163.552C709.908 165.18 708.515 166.43 706.659 167.301C704.817 168.172 702.517 168.608 699.761 168.608C698.119 168.608 696.569 168.465 695.113 168.179C693.67 167.908 692.407 167.487 691.321 166.915V161.196C692.407 161.767 693.706 162.253 695.22 162.653C696.748 163.038 698.183 163.231 699.526 163.231C700.839 163.231 701.946 163.06 702.846 162.717C703.745 162.36 704.424 161.817 704.881 161.089C705.352 160.346 705.588 159.404 705.588 158.261C705.588 156.733 705.074 155.562 704.045 154.748C703.017 153.934 701.439 153.527 699.311 153.527C698.497 153.527 697.648 153.606 696.762 153.763C695.891 153.92 695.163 154.077 694.577 154.234L691.943 152.82L693.121 136.862H710.108V142.474H698.926L698.347 148.622C698.833 148.522 699.361 148.422 699.933 148.322C700.504 148.222 701.303 148.172 702.332 148.172ZM737.762 152.52C737.762 155.048 737.562 157.304 737.162 159.289C736.777 161.274 736.148 162.96 735.277 164.345C734.42 165.73 733.292 166.787 731.893 167.515C730.493 168.243 728.794 168.608 726.795 168.608C724.281 168.608 722.218 167.972 720.604 166.701C718.99 165.416 717.798 163.574 717.027 161.175C716.255 158.761 715.87 155.876 715.87 152.52C715.87 149.136 716.22 146.244 716.919 143.845C717.633 141.431 718.79 139.582 720.39 138.297C721.989 137.012 724.124 136.369 726.795 136.369C729.294 136.369 731.35 137.012 732.964 138.297C734.592 139.568 735.798 141.41 736.584 143.823C737.369 146.223 737.762 149.122 737.762 152.52ZM722.446 152.52C722.446 154.905 722.575 156.897 722.832 158.497C723.103 160.082 723.553 161.274 724.181 162.074C724.809 162.874 725.681 163.274 726.795 163.274C727.894 163.274 728.758 162.881 729.386 162.096C730.029 161.296 730.486 160.103 730.757 158.518C731.029 156.919 731.164 154.92 731.164 152.52C731.164 150.136 731.029 148.143 730.757 146.544C730.486 144.945 730.029 143.745 729.386 142.945C728.758 142.131 727.894 141.724 726.795 141.724C725.681 141.724 724.809 142.131 724.181 142.945C723.553 143.745 723.103 144.945 722.832 146.544C722.575 148.143 722.446 150.136 722.446 152.52Z" fill="white"/>
<rect x="755.358" y="112.179" width="77.1792" height="77.1792" rx="2" fill="#0037AC"/>
<path d="M769.901 154.877C769.901 153.077 770.029 151.299 770.286 149.543C770.558 147.772 771.022 146.108 771.679 144.552C772.336 142.981 773.257 141.596 774.442 140.396C775.627 139.182 777.134 138.233 778.962 137.547C780.79 136.847 783.003 136.498 785.602 136.498C786.216 136.498 786.93 136.526 787.744 136.583C788.573 136.626 789.258 136.705 789.801 136.819V142.11C789.23 141.981 788.616 141.881 787.959 141.81C787.316 141.724 786.673 141.681 786.031 141.681C783.432 141.681 781.418 142.096 779.99 142.924C778.576 143.752 777.577 144.902 776.991 146.373C776.42 147.829 776.084 149.529 775.984 151.471H776.263C776.663 150.771 777.162 150.15 777.762 149.607C778.376 149.065 779.119 148.636 779.99 148.322C780.861 147.993 781.882 147.829 783.053 147.829C784.881 147.829 786.466 148.222 787.809 149.007C789.151 149.779 790.186 150.9 790.915 152.37C791.643 153.841 792.007 155.634 792.007 157.747C792.007 160.004 791.572 161.946 790.701 163.574C789.829 165.202 788.594 166.451 786.995 167.322C785.41 168.179 783.524 168.608 781.34 168.608C779.74 168.608 778.248 168.336 776.863 167.794C775.477 167.237 774.263 166.394 773.221 165.266C772.178 164.138 771.364 162.717 770.779 161.003C770.193 159.275 769.901 157.233 769.901 154.877ZM781.211 163.317C782.511 163.317 783.567 162.874 784.381 161.989C785.195 161.103 785.602 159.718 785.602 157.833C785.602 156.305 785.245 155.105 784.531 154.234C783.832 153.349 782.768 152.906 781.34 152.906C780.368 152.906 779.512 153.127 778.769 153.57C778.041 153.998 777.477 154.548 777.077 155.219C776.677 155.876 776.477 156.555 776.477 157.254C776.477 157.983 776.577 158.704 776.777 159.418C776.977 160.132 777.277 160.782 777.677 161.367C778.076 161.953 778.569 162.424 779.155 162.781C779.754 163.138 780.44 163.317 781.211 163.317ZM816.941 152.52C816.941 155.048 816.741 157.304 816.341 159.289C815.956 161.274 815.328 162.96 814.456 164.345C813.6 165.73 812.471 166.787 811.072 167.515C809.672 168.243 807.973 168.608 805.974 168.608C803.46 168.608 801.397 167.972 799.783 166.701C798.169 165.416 796.977 163.574 796.206 161.175C795.435 158.761 795.049 155.876 795.049 152.52C795.049 149.136 795.399 146.244 796.099 143.845C796.813 141.431 797.969 139.582 799.569 138.297C801.168 137.012 803.303 136.369 805.974 136.369C808.473 136.369 810.529 137.012 812.143 138.297C813.771 139.568 814.978 141.41 815.763 143.823C816.549 146.223 816.941 149.122 816.941 152.52ZM801.625 152.52C801.625 154.905 801.754 156.897 802.011 158.497C802.282 160.082 802.732 161.274 803.36 162.074C803.989 162.874 804.86 163.274 805.974 163.274C807.073 163.274 807.937 162.881 808.566 162.096C809.208 161.296 809.665 160.103 809.937 158.518C810.208 156.919 810.344 154.92 810.344 152.52C810.344 150.136 810.208 148.143 809.937 146.544C809.665 144.945 809.208 143.745 808.566 142.945C807.937 142.131 807.073 141.724 805.974 141.724C804.86 141.724 803.989 142.131 803.36 142.945C802.732 143.745 802.282 144.945 802.011 146.544C801.754 148.143 801.625 150.136 801.625 152.52Z" fill="white"/>
<rect x="597" y="191.358" width="77.1792" height="77.1792" rx="2" fill="#0037AC"/>
<path d="M614.863 246.358L626.623 220.61H611.178V215.041H633.649V219.197L621.803 246.358H614.863ZM658.583 230.7C658.583 233.227 658.383 235.484 657.983 237.469C657.598 239.454 656.969 241.139 656.098 242.524C655.241 243.909 654.113 244.966 652.714 245.694C651.314 246.423 649.615 246.787 647.615 246.787C645.102 246.787 643.038 246.151 641.425 244.88C639.811 243.595 638.618 241.753 637.847 239.354C637.076 236.94 636.691 234.056 636.691 230.7C636.691 227.315 637.04 224.423 637.74 222.024C638.454 219.611 639.611 217.761 641.21 216.476C642.81 215.191 644.945 214.548 647.615 214.548C650.114 214.548 652.171 215.191 653.785 216.476C655.413 217.747 656.619 219.589 657.405 222.003C658.19 224.402 658.583 227.301 658.583 230.7ZM643.267 230.7C643.267 233.085 643.395 235.077 643.652 236.676C643.924 238.261 644.374 239.454 645.002 240.253C645.63 241.053 646.501 241.453 647.615 241.453C648.715 241.453 649.579 241.06 650.207 240.275C650.85 239.475 651.307 238.283 651.578 236.698C651.85 235.098 651.985 233.099 651.985 230.7C651.985 228.315 651.85 226.323 651.578 224.723C651.307 223.124 650.85 221.924 650.207 221.124C649.579 220.31 648.715 219.903 647.615 219.903C646.501 219.903 645.63 220.31 645.002 221.124C644.374 221.924 643.924 223.124 643.652 224.723C643.395 226.323 643.267 228.315 643.267 230.7Z" fill="white"/>
<rect x="676.179" y="191.358" width="77.1792" height="77.1792" rx="2" fill="#0037AC"/>
<path d="M701.732 214.634C703.531 214.634 705.188 214.912 706.702 215.469C708.23 216.026 709.451 216.869 710.365 217.997C711.279 219.111 711.736 220.51 711.736 222.195C711.736 223.452 711.486 224.552 710.986 225.494C710.5 226.437 709.836 227.265 708.994 227.979C708.151 228.679 707.194 229.293 706.123 229.821C707.237 230.407 708.294 231.092 709.294 231.878C710.293 232.649 711.107 233.556 711.736 234.598C712.378 235.641 712.699 236.855 712.699 238.24C712.699 239.982 712.235 241.496 711.307 242.781C710.379 244.052 709.094 245.037 707.451 245.737C705.809 246.437 703.903 246.787 701.732 246.787C699.39 246.787 697.398 246.451 695.755 245.78C694.113 245.109 692.864 244.152 692.007 242.91C691.15 241.653 690.722 240.153 690.722 238.411C690.722 236.983 690.986 235.741 691.514 234.684C692.057 233.627 692.785 232.72 693.699 231.963C694.613 231.192 695.62 230.535 696.719 229.993C695.791 229.407 694.941 228.743 694.17 228.001C693.413 227.258 692.806 226.408 692.35 225.451C691.907 224.495 691.685 223.395 691.685 222.153C691.685 220.496 692.15 219.111 693.078 217.997C694.02 216.883 695.256 216.048 696.784 215.491C698.312 214.919 699.961 214.634 701.732 214.634ZM696.848 238.026C696.848 239.154 697.248 240.089 698.048 240.832C698.862 241.56 700.061 241.924 701.646 241.924C703.289 241.924 704.517 241.574 705.331 240.875C706.145 240.161 706.552 239.225 706.552 238.068C706.552 237.269 706.316 236.569 705.845 235.969C705.388 235.369 704.809 234.834 704.11 234.363C703.41 233.877 702.703 233.427 701.989 233.013L701.411 232.713C700.497 233.127 699.697 233.591 699.011 234.106C698.34 234.62 697.812 235.198 697.426 235.841C697.041 236.483 696.848 237.212 696.848 238.026ZM701.689 219.475C700.604 219.475 699.704 219.753 698.99 220.31C698.276 220.867 697.919 221.653 697.919 222.667C697.919 223.381 698.09 224.009 698.433 224.552C698.79 225.08 699.254 225.544 699.825 225.944C700.411 226.344 701.046 226.715 701.732 227.058C702.389 226.744 703.003 226.394 703.574 226.008C704.145 225.623 704.609 225.159 704.966 224.616C705.324 224.073 705.502 223.424 705.502 222.667C705.502 221.653 705.138 220.867 704.41 220.31C703.696 219.753 702.789 219.475 701.689 219.475ZM737.762 230.7C737.762 233.227 737.562 235.484 737.162 237.469C736.777 239.454 736.148 241.139 735.277 242.524C734.42 243.909 733.292 244.966 731.893 245.694C730.493 246.423 728.794 246.787 726.795 246.787C724.281 246.787 722.218 246.151 720.604 244.88C718.99 243.595 717.798 241.753 717.027 239.354C716.255 236.94 715.87 234.056 715.87 230.7C715.87 227.315 716.22 224.423 716.919 222.024C717.633 219.611 718.79 217.761 720.39 216.476C721.989 215.191 724.124 214.548 726.795 214.548C729.294 214.548 731.35 215.191 732.964 216.476C734.592 217.747 735.798 219.589 736.584 222.003C737.369 224.402 737.762 227.301 737.762 230.7ZM722.446 230.7C722.446 233.085 722.575 235.077 722.832 236.676C723.103 238.261 723.553 239.454 724.181 240.253C724.809 241.053 725.681 241.453 726.795 241.453C727.894 241.453 728.758 241.06 729.386 240.275C730.029 239.475 730.486 238.283 730.757 236.698C731.029 235.098 731.164 233.099 731.164 230.7C731.164 228.315 731.029 226.323 730.757 224.723C730.486 223.124 730.029 221.924 729.386 221.124C728.758 220.31 727.894 219.903 726.795 219.903C725.681 219.903 724.809 220.31 724.181 221.124C723.553 221.924 723.103 223.124 722.832 224.723C722.575 226.323 722.446 228.315 722.446 230.7Z" fill="white"/>
<rect x="755.358" y="191.358" width="77.1792" height="77.1792" rx="2" fill="#0037AC"/>
<path d="M791.879 228.408C791.879 230.207 791.743 231.992 791.472 233.763C791.215 235.534 790.758 237.204 790.101 238.775C789.444 240.332 788.523 241.717 787.337 242.931C786.152 244.131 784.646 245.073 782.818 245.759C780.99 246.444 778.776 246.787 776.177 246.787C775.563 246.787 774.842 246.758 774.014 246.701C773.185 246.658 772.5 246.587 771.957 246.487V241.175C772.528 241.317 773.135 241.432 773.778 241.517C774.421 241.589 775.07 241.624 775.727 241.624C778.341 241.624 780.354 241.21 781.768 240.382C783.196 239.554 784.196 238.404 784.767 236.933C785.352 235.462 785.688 233.763 785.774 231.835H785.517C785.102 232.52 784.61 233.142 784.039 233.699C783.482 234.241 782.768 234.677 781.896 235.005C781.025 235.319 779.919 235.477 778.576 235.477C776.791 235.477 775.235 235.091 773.906 234.32C772.593 233.534 771.572 232.406 770.843 230.935C770.129 229.45 769.772 227.658 769.772 225.559C769.772 223.288 770.201 221.346 771.057 219.732C771.929 218.104 773.164 216.855 774.763 215.983C776.363 215.112 778.248 214.677 780.418 214.677C782.018 214.677 783.51 214.955 784.895 215.512C786.281 216.055 787.495 216.89 788.537 218.018C789.594 219.147 790.415 220.575 791 222.303C791.586 224.031 791.879 226.066 791.879 228.408ZM780.547 219.989C779.262 219.989 778.212 220.432 777.398 221.317C776.584 222.203 776.177 223.588 776.177 225.473C776.177 226.987 776.527 228.186 777.227 229.072C777.926 229.957 778.99 230.4 780.418 230.4C781.404 230.4 782.261 230.186 782.989 229.757C783.717 229.314 784.281 228.765 784.681 228.108C785.095 227.436 785.302 226.751 785.302 226.051C785.302 225.323 785.202 224.602 785.003 223.888C784.803 223.174 784.503 222.524 784.103 221.938C783.703 221.353 783.203 220.882 782.603 220.525C782.018 220.168 781.332 219.989 780.547 219.989ZM816.941 230.7C816.941 233.227 816.741 235.484 816.341 237.469C815.956 239.454 815.328 241.139 814.456 242.524C813.6 243.909 812.471 244.966 811.072 245.694C809.672 246.423 807.973 246.787 805.974 246.787C803.46 246.787 801.397 246.151 799.783 244.88C798.169 243.595 796.977 241.753 796.206 239.354C795.435 236.94 795.049 234.056 795.049 230.7C795.049 227.315 795.399 224.423 796.099 222.024C796.813 219.611 797.969 217.761 799.569 216.476C801.168 215.191 803.303 214.548 805.974 214.548C808.473 214.548 810.529 215.191 812.143 216.476C813.771 217.747 814.978 219.589 815.763 222.003C816.549 224.402 816.941 227.301 816.941 230.7ZM801.625 230.7C801.625 233.085 801.754 235.077 802.011 236.676C802.282 238.261 802.732 239.454 803.36 240.253C803.989 241.053 804.86 241.453 805.974 241.453C807.073 241.453 807.937 241.06 808.566 240.275C809.208 239.475 809.665 238.283 809.937 236.698C810.208 235.098 810.344 233.099 810.344 230.7C810.344 228.315 810.208 226.323 809.937 224.723C809.665 223.124 809.208 221.924 808.566 221.124C807.937 220.31 807.073 219.903 805.974 219.903C804.86 219.903 803.989 220.31 803.36 221.124C802.732 221.924 802.282 223.124 802.011 224.723C801.754 226.323 801.625 228.315 801.625 230.7Z" fill="white"/>
</svg>
