<svg width="1429" height="351" viewBox="0 0 1429 351" fill="none" xmlns="http://www.w3.org/2000/svg">
<rect width="1429" height="350" fill="white"/>
<rect x="453.249" y="314.665" width="25.7725" height="25.7725" rx="5.03368" fill="#0037AC"/>
<path d="M463.232 321.398C463.061 320.981 462.471 320.981 462.3 321.398L462.032 322.052C461.982 322.174 461.981 322.311 462.031 322.433L465.627 331.257C465.762 331.588 465.518 331.95 465.161 331.95H461.582H460.374C460.016 331.95 459.772 331.587 459.908 331.255L460.529 329.744C460.579 329.622 460.579 329.485 460.529 329.363L460.247 328.67C460.077 328.253 459.486 328.252 459.315 328.669L457.625 332.786C457.489 333.117 457.733 333.481 458.091 333.481H467.441C467.799 333.481 468.043 333.117 467.907 332.786L463.232 321.398Z" fill="white"/>
<path d="M466.642 323.845C466.507 323.514 466.751 323.152 467.108 323.152H470.687H471.895C472.253 323.152 472.497 323.515 472.361 323.846L471.74 325.358C471.69 325.48 471.69 325.617 471.74 325.739L472.022 326.432C472.192 326.849 472.783 326.85 472.954 326.433L474.644 322.316C474.78 321.985 474.537 321.621 474.179 321.621H464.828C464.47 321.621 464.226 321.985 464.362 322.316L469.038 333.704C469.208 334.121 469.798 334.121 469.969 333.704L470.238 333.049C470.288 332.927 470.288 332.791 470.238 332.668L466.642 323.845Z" fill="white"/>
<path d="M494.915 329.027H491.268L490.557 331.484H488.811L492.059 321.273H494.19L497.446 331.484H495.626L494.915 329.027ZM491.623 327.703H494.553L493.095 322.605L491.623 327.703ZM500.533 323.67V329.131C500.533 329.594 500.624 329.925 500.807 330.122C500.994 330.32 501.275 330.418 501.65 330.418C502.005 330.418 502.348 330.312 502.679 330.1C503.009 329.888 503.271 329.629 503.463 329.323V323.67H505.12V331.484H503.692L503.589 330.485C503.298 330.874 502.93 331.173 502.486 331.38C502.042 331.582 501.589 331.683 501.125 331.683C500.37 331.683 499.805 331.476 499.431 331.062C499.061 330.643 498.876 330.068 498.876 329.338V323.67H500.533ZM514.274 331.069C513.988 331.252 513.646 331.4 513.246 331.513C512.846 331.627 512.43 331.683 511.996 331.683C511.088 331.683 510.397 331.449 509.924 330.981C509.455 330.507 509.221 329.885 509.221 329.116V324.876H507.482V323.67H509.221V321.924L510.878 321.724V323.67H513.512L513.327 324.876H510.878V329.101C510.878 329.52 510.982 329.834 511.189 330.041C511.401 330.243 511.747 330.344 512.225 330.344C512.511 330.344 512.775 330.31 513.017 330.241C513.258 330.172 513.478 330.083 513.675 329.974L514.274 331.069ZM519.751 323.463C520.516 323.463 521.16 323.633 521.683 323.974C522.205 324.314 522.6 324.79 522.866 325.402C523.138 326.013 523.273 326.733 523.273 327.562C523.273 328.386 523.135 329.109 522.859 329.73C522.588 330.347 522.188 330.828 521.66 331.173C521.137 331.513 520.499 331.683 519.744 331.683C518.989 331.683 518.348 331.518 517.82 331.188C517.297 330.852 516.898 330.376 516.622 329.76C516.35 329.143 516.215 328.416 516.215 327.577C516.215 326.763 516.35 326.048 516.622 325.431C516.898 324.815 517.3 324.334 517.828 323.988C518.355 323.638 518.997 323.463 519.751 323.463ZM519.751 324.751C519.155 324.751 518.706 324.98 518.405 325.439C518.104 325.892 517.953 326.605 517.953 327.577C517.953 328.544 518.101 329.257 518.397 329.715C518.698 330.174 519.147 330.403 519.744 330.403C520.341 330.403 520.787 330.174 521.083 329.715C521.384 329.257 521.535 328.539 521.535 327.562C521.535 326.6 521.387 325.892 521.091 325.439C520.795 324.98 520.348 324.751 519.751 324.751ZM525.569 331.484V330.3H526.715V324.847H525.569V323.67H527.981L528.284 325.483C528.575 324.827 528.935 324.329 529.364 323.988C529.798 323.643 530.356 323.471 531.036 323.471C531.268 323.471 531.475 323.49 531.658 323.53C531.845 323.564 532.03 323.611 532.213 323.67L531.717 325.091C531.559 325.047 531.411 325.014 531.273 324.995C531.135 324.97 530.982 324.958 530.814 324.958C530.247 324.958 529.756 325.17 529.342 325.594C528.933 326.018 528.61 326.62 528.373 327.399V330.3H529.949V331.484H525.569ZM530.748 326.549V324.625L530.955 323.67H532.213L531.932 326.549H530.748ZM536.151 330.344C536.151 329.984 536.279 329.676 536.536 329.419C536.792 329.158 537.108 329.027 537.483 329.027C537.862 329.027 538.178 329.158 538.43 329.419C538.686 329.676 538.814 329.984 538.814 330.344C538.814 330.714 538.686 331.03 538.43 331.291C538.178 331.553 537.862 331.683 537.483 331.683C537.108 331.683 536.792 331.553 536.536 331.291C536.279 331.03 536.151 330.714 536.151 330.344ZM536.151 325.091C536.151 324.849 536.21 324.627 536.328 324.425C536.447 324.223 536.607 324.062 536.809 323.944C537.012 323.826 537.236 323.766 537.483 323.766C537.862 323.766 538.178 323.897 538.43 324.159C538.686 324.415 538.814 324.726 538.814 325.091C538.814 325.456 538.686 325.772 538.43 326.038C538.178 326.299 537.862 326.43 537.483 326.43C537.108 326.43 536.792 326.299 536.536 326.038C536.279 325.772 536.151 325.456 536.151 325.091ZM558.595 321.229V327.792C558.595 328.388 558.504 328.929 558.321 329.412C558.139 329.895 557.87 330.307 557.515 330.648C557.165 330.988 556.733 331.249 556.22 331.432C555.712 331.614 555.13 331.706 554.474 331.706C553.813 331.706 553.241 331.622 552.757 331.454C552.279 331.281 551.818 331.045 551.374 330.744L552.299 329.249C552.649 329.491 552.977 329.661 553.283 329.76C553.589 329.853 553.936 329.9 554.326 329.9C554.854 329.9 555.293 329.733 555.643 329.397C555.998 329.057 556.176 328.531 556.176 327.821V323.004H553.024V321.229H558.595ZM564.109 323.367C564.918 323.367 565.606 323.54 566.173 323.885C566.741 324.23 567.175 324.716 567.476 325.342C567.776 325.964 567.927 326.694 567.927 327.533C567.927 328.406 567.774 329.158 567.468 329.789C567.167 330.416 566.733 330.897 566.166 331.232C565.599 331.567 564.913 331.735 564.109 331.735C563.31 331.735 562.624 331.57 562.052 331.239C561.485 330.909 561.048 330.431 560.742 329.804C560.442 329.178 560.291 328.425 560.291 327.547C560.291 326.714 560.442 325.984 560.742 325.357C561.048 324.731 561.485 324.242 562.052 323.892C562.624 323.542 563.31 323.367 564.109 323.367ZM564.109 325.091C563.631 325.091 563.275 325.288 563.044 325.683C562.817 326.073 562.703 326.694 562.703 327.547C562.703 328.416 562.817 329.044 563.044 329.434C563.275 329.824 563.631 330.019 564.109 330.019C564.587 330.019 564.94 329.824 565.167 329.434C565.399 329.044 565.515 328.411 565.515 327.533C565.515 326.684 565.399 326.065 565.167 325.675C564.94 325.286 564.587 325.091 564.109 325.091ZM572.73 330.063C573.12 330.063 573.433 330.001 573.67 329.878C573.912 329.755 574.033 329.57 574.033 329.323C574.033 329.155 573.986 329.015 573.892 328.901C573.798 328.788 573.618 328.679 573.352 328.576C573.086 328.472 572.691 328.349 572.168 328.206C571.69 328.078 571.265 327.915 570.896 327.718C570.53 327.52 570.244 327.266 570.037 326.955C569.835 326.645 569.734 326.257 569.734 325.794C569.734 325.325 569.865 324.908 570.126 324.543C570.387 324.178 570.772 323.892 571.28 323.685C571.788 323.473 572.41 323.367 573.145 323.367C573.845 323.367 574.454 323.458 574.972 323.641C575.495 323.818 575.947 324.045 576.326 324.321L575.394 325.698C575.069 325.495 574.718 325.335 574.343 325.217C573.969 325.093 573.591 325.032 573.211 325.032C572.832 325.032 572.548 325.084 572.361 325.187C572.178 325.286 572.087 325.436 572.087 325.638C572.087 325.772 572.134 325.888 572.227 325.986C572.326 326.08 572.508 326.179 572.775 326.282C573.041 326.381 573.431 326.504 573.944 326.652C574.452 326.795 574.893 326.96 575.268 327.148C575.648 327.335 575.942 327.587 576.149 327.903C576.356 328.213 576.46 328.625 576.46 329.138C576.46 329.71 576.289 330.191 575.949 330.581C575.609 330.966 575.157 331.254 574.595 331.447C574.033 331.639 573.416 331.735 572.745 331.735C571.986 331.735 571.315 331.627 570.733 331.41C570.151 331.193 569.655 330.907 569.246 330.551L570.422 329.234C570.728 329.471 571.073 329.668 571.458 329.826C571.848 329.984 572.272 330.063 572.73 330.063ZM580.479 328.235C580.533 328.665 580.644 329.012 580.812 329.279C580.984 329.54 581.204 329.733 581.47 329.856C581.737 329.974 582.035 330.033 582.366 330.033C582.726 330.033 583.073 329.974 583.409 329.856C583.744 329.737 584.067 329.58 584.378 329.382L585.318 330.655C584.948 330.971 584.499 331.23 583.971 331.432C583.448 331.634 582.851 331.735 582.181 331.735C581.283 331.735 580.531 331.558 579.924 331.202C579.317 330.842 578.861 330.349 578.555 329.723C578.249 329.096 578.096 328.376 578.096 327.562C578.096 326.788 578.244 326.085 578.54 325.453C578.836 324.817 579.268 324.312 579.835 323.937C580.407 323.557 581.105 323.367 581.929 323.367C582.679 323.367 583.327 323.527 583.875 323.848C584.427 324.169 584.854 324.63 585.155 325.231C585.461 325.833 585.614 326.556 585.614 327.399C585.614 327.533 585.609 327.676 585.599 327.829C585.594 327.981 585.584 328.117 585.569 328.235H580.479ZM581.929 324.936C581.51 324.936 581.172 325.086 580.915 325.387C580.659 325.688 580.503 326.169 580.449 326.83H583.335C583.33 326.257 583.219 325.799 583.002 325.453C582.785 325.108 582.427 324.936 581.929 324.936ZM591.675 323.367C592.361 323.367 592.913 323.537 593.332 323.877C593.752 324.218 594.058 324.699 594.25 325.32C594.447 325.942 594.546 326.679 594.546 327.533C594.546 328.342 594.428 329.064 594.191 329.7C593.954 330.332 593.611 330.83 593.162 331.195C592.713 331.555 592.168 331.735 591.527 331.735C590.763 331.735 590.141 331.461 589.663 330.914V334.517L587.325 334.761V323.626H589.396L589.5 324.506C589.82 324.097 590.171 323.806 590.55 323.633C590.93 323.456 591.305 323.367 591.675 323.367ZM590.95 325.091C590.679 325.091 590.439 325.172 590.232 325.335C590.025 325.498 589.835 325.72 589.663 326.001V329.316C589.825 329.557 589.996 329.735 590.173 329.848C590.356 329.962 590.57 330.019 590.817 330.019C591.231 330.019 591.554 329.831 591.786 329.456C592.018 329.077 592.134 328.445 592.134 327.562C592.134 326.911 592.087 326.408 591.993 326.053C591.9 325.693 591.764 325.444 591.586 325.305C591.409 325.162 591.197 325.091 590.95 325.091ZM598.536 320.274V324.403C598.866 324.053 599.224 323.794 599.608 323.626C599.998 323.453 600.41 323.367 600.844 323.367C601.545 323.367 602.08 323.572 602.45 323.981C602.82 324.39 603.005 324.968 603.005 325.712V331.484H600.667V326.364C600.667 325.89 600.612 325.56 600.504 325.372C600.4 325.185 600.203 325.091 599.912 325.091C599.749 325.091 599.589 325.13 599.431 325.209C599.278 325.283 599.128 325.392 598.98 325.535C598.832 325.678 598.684 325.848 598.536 326.045V331.484H596.198V320.504L598.536 320.274ZM621.313 328.487C621.313 329.123 621.145 329.686 620.81 330.174C620.479 330.662 620.003 331.045 619.382 331.321C618.76 331.597 618.013 331.735 617.14 331.735C616.173 331.735 615.362 331.595 614.706 331.313C614.055 331.027 613.514 330.675 613.085 330.255L614.313 328.894C614.693 329.224 615.113 329.481 615.571 329.663C616.03 329.841 616.533 329.93 617.081 329.93C617.421 329.93 617.719 329.881 617.976 329.782C618.232 329.683 618.432 329.54 618.575 329.353C618.718 329.165 618.79 328.938 618.79 328.672C618.79 328.42 618.733 328.208 618.62 328.036C618.506 327.863 618.314 327.708 618.043 327.57C617.776 327.431 617.404 327.291 616.925 327.148C616.126 326.901 615.483 326.63 614.994 326.334C614.511 326.038 614.158 325.695 613.936 325.305C613.719 324.916 613.611 324.462 613.611 323.944C613.611 323.318 613.783 322.782 614.129 322.338C614.479 321.895 614.947 321.557 615.534 321.325C616.121 321.088 616.767 320.97 617.473 320.97C618.267 320.97 618.967 321.086 619.574 321.317C620.181 321.544 620.706 321.87 621.15 322.294L620.003 323.611C619.658 323.32 619.286 323.106 618.886 322.967C618.487 322.824 618.08 322.753 617.665 322.753C617.359 322.753 617.091 322.792 616.859 322.871C616.627 322.945 616.447 323.056 616.319 323.204C616.19 323.352 616.126 323.537 616.126 323.759C616.126 323.976 616.188 324.159 616.311 324.307C616.435 324.455 616.649 324.595 616.955 324.728C617.261 324.857 617.685 325.007 618.228 325.18C618.874 325.377 619.426 325.614 619.885 325.89C620.349 326.161 620.701 326.504 620.943 326.918C621.19 327.333 621.313 327.856 621.313 328.487ZM629.431 329.22C629.431 329.516 629.471 329.73 629.55 329.863C629.633 329.996 629.767 330.098 629.949 330.167L629.468 331.706C629.005 331.661 628.612 331.56 628.292 331.402C627.976 331.239 627.727 330.995 627.545 330.67C627.244 331.03 626.859 331.299 626.39 331.476C625.922 331.649 625.443 331.735 624.955 331.735C624.146 331.735 623.5 331.506 623.016 331.047C622.538 330.583 622.299 329.989 622.299 329.264C622.299 328.411 622.632 327.752 623.297 327.288C623.968 326.825 624.91 326.593 626.124 326.593H627.182V326.297C627.182 325.888 627.049 325.584 626.782 325.387C626.521 325.19 626.136 325.091 625.628 325.091C625.377 325.091 625.054 325.128 624.659 325.202C624.264 325.271 623.87 325.372 623.475 325.505L622.935 323.951C623.443 323.759 623.971 323.614 624.518 323.515C625.071 323.416 625.564 323.367 625.998 323.367C627.167 323.367 628.03 323.606 628.588 324.085C629.15 324.558 629.431 325.244 629.431 326.142V329.22ZM625.761 330.063C626.013 330.063 626.277 329.989 626.553 329.841C626.829 329.688 627.039 329.474 627.182 329.197V327.925H626.605C625.954 327.925 625.475 328.026 625.169 328.228C624.864 328.425 624.711 328.716 624.711 329.101C624.711 329.402 624.802 329.639 624.984 329.811C625.172 329.979 625.431 330.063 625.761 330.063ZM631.69 331.484V323.626H633.732L633.894 324.536C634.245 324.141 634.615 323.848 635.004 323.656C635.394 323.463 635.838 323.367 636.336 323.367C637.007 323.367 637.535 323.572 637.92 323.981C638.304 324.39 638.497 324.968 638.497 325.712V331.484H636.159V326.386C636.159 326.065 636.136 325.811 636.092 325.624C636.048 325.431 635.969 325.296 635.855 325.217C635.747 325.133 635.596 325.091 635.404 325.091C635.241 325.091 635.081 325.128 634.923 325.202C634.77 325.271 634.62 325.372 634.472 325.505C634.324 325.638 634.176 325.799 634.028 325.986V331.484H631.69ZM647.636 331.025C647.33 331.222 646.96 331.39 646.526 331.528C646.092 331.666 645.604 331.735 645.061 331.735C644.035 331.735 643.273 331.474 642.775 330.951C642.277 330.423 642.028 329.708 642.028 328.805V325.239H640.378V323.626H642.028V321.924L644.366 321.643V323.626H646.896L646.667 325.239H644.366V328.805C644.366 329.195 644.454 329.474 644.632 329.641C644.81 329.809 645.093 329.893 645.483 329.893C645.759 329.893 646.011 329.861 646.238 329.797C646.469 329.728 646.677 329.641 646.859 329.538L647.636 331.025ZM654.238 323.626V329.885H656.235V331.484H649.672V329.885H651.899V325.224H649.746V323.626H654.238ZM652.824 319.512C653.229 319.512 653.559 319.638 653.816 319.889C654.072 320.141 654.201 320.454 654.201 320.829C654.201 321.204 654.072 321.52 653.816 321.776C653.559 322.028 653.229 322.154 652.824 322.154C652.415 322.154 652.079 322.028 651.818 321.776C651.562 321.52 651.433 321.204 651.433 320.829C651.433 320.454 651.562 320.141 651.818 319.889C652.079 319.638 652.415 319.512 652.824 319.512ZM664.923 329.22C664.923 329.516 664.963 329.73 665.042 329.863C665.126 329.996 665.259 330.098 665.441 330.167L664.96 331.706C664.497 331.661 664.104 331.56 663.784 331.402C663.468 331.239 663.219 330.995 663.037 330.67C662.736 331.03 662.351 331.299 661.882 331.476C661.414 331.649 660.935 331.735 660.447 331.735C659.638 331.735 658.992 331.506 658.508 331.047C658.03 330.583 657.791 329.989 657.791 329.264C657.791 328.411 658.124 327.752 658.79 327.288C659.46 326.825 660.403 326.593 661.616 326.593H662.674V326.297C662.674 325.888 662.541 325.584 662.274 325.387C662.013 325.19 661.628 325.091 661.12 325.091C660.869 325.091 660.546 325.128 660.151 325.202C659.756 325.271 659.362 325.372 658.967 325.505L658.427 323.951C658.935 323.759 659.463 323.614 660.01 323.515C660.563 323.416 661.056 323.367 661.49 323.367C662.659 323.367 663.522 323.606 664.08 324.085C664.642 324.558 664.923 325.244 664.923 326.142V329.22ZM661.253 330.063C661.505 330.063 661.769 329.989 662.045 329.841C662.321 329.688 662.531 329.474 662.674 329.197V327.925H662.097C661.446 327.925 660.967 328.026 660.661 328.228C660.356 328.425 660.203 328.716 660.203 329.101C660.203 329.402 660.294 329.639 660.476 329.811C660.664 329.979 660.923 330.063 661.253 330.063ZM674.159 322.368L674.706 324.085C674.43 324.193 674.107 324.272 673.737 324.321C673.367 324.371 672.936 324.395 672.442 324.395C672.936 324.608 673.31 324.871 673.567 325.187C673.828 325.498 673.959 325.907 673.959 326.415C673.959 326.923 673.823 327.377 673.552 327.777C673.281 328.171 672.896 328.482 672.398 328.709C671.9 328.936 671.31 329.049 670.63 329.049C670.462 329.049 670.304 329.042 670.156 329.027C670.008 329.012 669.862 328.99 669.719 328.961C669.636 329.005 669.571 329.069 669.527 329.153C669.483 329.237 669.46 329.323 669.46 329.412C669.46 329.535 669.51 329.646 669.608 329.745C669.712 329.844 669.951 329.893 670.326 329.893H671.614C672.225 329.893 672.753 329.992 673.197 330.189C673.646 330.386 673.994 330.655 674.24 330.995C674.487 331.336 674.61 331.725 674.61 332.164C674.61 332.968 674.257 333.602 673.552 334.066C672.847 334.53 671.799 334.761 670.408 334.761C669.401 334.761 668.622 334.658 668.069 334.451C667.522 334.248 667.14 333.957 666.923 333.578C666.711 333.203 666.604 332.756 666.604 332.238H668.676C668.676 332.465 668.721 332.65 668.809 332.793C668.903 332.941 669.078 333.05 669.335 333.119C669.596 333.188 669.973 333.222 670.467 333.222C670.965 333.222 671.345 333.183 671.606 333.104C671.868 333.025 672.045 332.917 672.139 332.778C672.238 332.645 672.287 332.495 672.287 332.327C672.287 332.095 672.196 331.908 672.013 331.765C671.831 331.622 671.542 331.55 671.147 331.55H669.897C669.049 331.55 668.432 331.395 668.047 331.084C667.663 330.768 667.47 330.401 667.47 329.982C667.47 329.691 667.547 329.414 667.7 329.153C667.857 328.892 668.077 328.672 668.358 328.494C667.855 328.228 667.495 327.915 667.278 327.555C667.061 327.19 666.952 326.753 666.952 326.245C666.952 325.653 667.103 325.145 667.404 324.721C667.704 324.292 668.119 323.961 668.647 323.729C669.179 323.498 669.786 323.382 670.467 323.382C671.054 323.392 671.564 323.352 671.998 323.263C672.432 323.17 672.822 323.044 673.167 322.886C673.513 322.723 673.843 322.551 674.159 322.368ZM670.526 324.899C670.156 324.899 669.862 325.017 669.645 325.254C669.428 325.486 669.32 325.806 669.32 326.216C669.32 326.65 669.431 326.983 669.653 327.214C669.875 327.446 670.166 327.562 670.526 327.562C670.916 327.562 671.212 327.446 671.414 327.214C671.621 326.983 671.725 326.64 671.725 326.186C671.725 325.747 671.623 325.424 671.421 325.217C671.219 325.005 670.921 324.899 670.526 324.899ZM679.458 323.367C680.267 323.367 680.955 323.54 681.522 323.885C682.09 324.23 682.524 324.716 682.825 325.342C683.126 325.964 683.276 326.694 683.276 327.533C683.276 328.406 683.123 329.158 682.817 329.789C682.516 330.416 682.082 330.897 681.515 331.232C680.948 331.567 680.262 331.735 679.458 331.735C678.659 331.735 677.973 331.57 677.401 331.239C676.834 330.909 676.397 330.431 676.092 329.804C675.791 329.178 675.64 328.425 675.64 327.547C675.64 326.714 675.791 325.984 676.092 325.357C676.397 324.731 676.834 324.242 677.401 323.892C677.973 323.542 678.659 323.367 679.458 323.367ZM679.458 325.091C678.98 325.091 678.625 325.288 678.393 325.683C678.166 326.073 678.052 326.694 678.052 327.547C678.052 328.416 678.166 329.044 678.393 329.434C678.625 329.824 678.98 330.019 679.458 330.019C679.937 330.019 680.289 329.824 680.516 329.434C680.748 329.044 680.864 328.411 680.864 327.533C680.864 326.684 680.748 326.065 680.516 325.675C680.289 325.286 679.937 325.091 679.458 325.091ZM698.795 324.573C698.795 324.208 698.726 323.907 698.588 323.67C698.455 323.429 698.25 323.251 697.974 323.138C697.702 323.019 697.36 322.96 696.945 322.96H696.117V326.312H697.071C697.431 326.312 697.739 326.25 697.996 326.127C698.252 326.003 698.45 325.814 698.588 325.557C698.726 325.301 698.795 324.973 698.795 324.573ZM701.296 324.566C701.296 325.36 701.126 326.016 700.785 326.534C700.445 327.052 699.969 327.439 699.357 327.695C698.746 327.947 698.035 328.073 697.226 328.073H696.117V331.484H693.69V321.229H696.916C698.307 321.229 699.384 321.505 700.149 322.057C700.914 322.61 701.296 323.446 701.296 324.566ZM706.077 323.367C706.886 323.367 707.574 323.54 708.142 323.885C708.709 324.23 709.143 324.716 709.444 325.342C709.745 325.964 709.895 326.694 709.895 327.533C709.895 328.406 709.742 329.158 709.436 329.789C709.135 330.416 708.701 330.897 708.134 331.232C707.567 331.567 706.881 331.735 706.077 331.735C705.278 331.735 704.592 331.57 704.02 331.239C703.453 330.909 703.016 330.431 702.711 329.804C702.41 329.178 702.259 328.425 702.259 327.547C702.259 326.714 702.41 325.984 702.711 325.357C703.016 324.731 703.453 324.242 704.02 323.892C704.592 323.542 705.278 323.367 706.077 323.367ZM706.077 325.091C705.599 325.091 705.244 325.288 705.012 325.683C704.785 326.073 704.671 326.694 704.671 327.547C704.671 328.416 704.785 329.044 705.012 329.434C705.244 329.824 705.599 330.019 706.077 330.019C706.556 330.019 706.908 329.824 707.135 329.434C707.367 329.044 707.483 328.411 707.483 327.533C707.483 326.684 707.367 326.065 707.135 325.675C706.908 325.286 706.556 325.091 706.077 325.091ZM711.621 331.484V329.915H712.656V325.18H711.621V323.626H714.44L714.869 325.394C715.15 324.718 715.508 324.215 715.942 323.885C716.381 323.554 716.916 323.389 717.547 323.389C717.814 323.389 718.05 323.411 718.258 323.456C718.465 323.495 718.66 323.552 718.842 323.626L718.132 325.557C717.989 325.518 717.846 325.488 717.703 325.468C717.56 325.449 717.402 325.439 717.229 325.439C716.716 325.439 716.265 325.648 715.875 326.068C715.49 326.487 715.197 327.02 714.995 327.666V329.915H716.548V331.484H711.621ZM716.941 326.911V324.617L717.288 323.626H718.842L718.406 326.911H716.941ZM727.493 331.025C727.187 331.222 726.817 331.39 726.383 331.528C725.949 331.666 725.461 331.735 724.918 331.735C723.892 331.735 723.13 331.474 722.632 330.951C722.134 330.423 721.885 329.708 721.885 328.805V325.239H720.235V323.626H721.885V321.924L724.223 321.643V323.626H726.753L726.524 325.239H724.223V328.805C724.223 329.195 724.312 329.474 724.489 329.641C724.667 329.809 724.95 329.893 725.34 329.893C725.616 329.893 725.868 329.861 726.095 329.797C726.327 329.728 726.534 329.641 726.716 329.538L727.493 331.025ZM734.095 323.626V329.885H736.092V331.484H729.529V329.885H731.757V325.224H729.603V323.626H734.095ZM732.681 319.512C733.086 319.512 733.416 319.638 733.673 319.889C733.929 320.141 734.058 320.454 734.058 320.829C734.058 321.204 733.929 321.52 733.673 321.776C733.416 322.028 733.086 322.154 732.681 322.154C732.272 322.154 731.937 322.028 731.675 321.776C731.419 321.52 731.29 321.204 731.29 320.829C731.29 320.454 731.419 320.141 731.675 319.889C731.937 319.638 732.272 319.512 732.681 319.512ZM742.265 320.504V329.012C742.265 329.328 742.354 329.555 742.531 329.693C742.714 329.826 742.963 329.893 743.278 329.893C743.481 329.893 743.675 329.871 743.863 329.826C744.05 329.777 744.225 329.72 744.388 329.656L744.951 331.217C744.684 331.355 744.364 331.476 743.989 331.58C743.614 331.683 743.177 331.735 742.679 331.735C741.732 331.735 741.036 331.464 740.593 330.921C740.149 330.374 739.927 329.641 739.927 328.724V322.102H737.611V320.504H742.265ZM751.138 320.504V329.012C751.138 329.328 751.227 329.555 751.404 329.693C751.587 329.826 751.836 329.893 752.151 329.893C752.354 329.893 752.548 329.871 752.736 329.826C752.923 329.777 753.098 329.72 753.261 329.656L753.824 331.217C753.557 331.355 753.237 331.476 752.862 331.58C752.487 331.683 752.05 331.735 751.552 331.735C750.605 331.735 749.91 331.464 749.466 330.921C749.022 330.374 748.8 329.641 748.8 328.724V322.102H746.484V320.504H751.138ZM762.526 329.22C762.526 329.516 762.566 329.73 762.645 329.863C762.729 329.996 762.862 330.098 763.044 330.167L762.563 331.706C762.1 331.661 761.708 331.56 761.387 331.402C761.071 331.239 760.822 330.995 760.64 330.67C760.339 331.03 759.954 331.299 759.485 331.476C759.017 331.649 758.538 331.735 758.05 331.735C757.241 331.735 756.595 331.506 756.111 331.047C755.633 330.583 755.394 329.989 755.394 329.264C755.394 328.411 755.727 327.752 756.393 327.288C757.063 326.825 758.006 326.593 759.219 326.593H760.277V326.297C760.277 325.888 760.144 325.584 759.878 325.387C759.616 325.19 759.231 325.091 758.723 325.091C758.472 325.091 758.149 325.128 757.754 325.202C757.359 325.271 756.965 325.372 756.57 325.505L756.03 323.951C756.538 323.759 757.066 323.614 757.613 323.515C758.166 323.416 758.659 323.367 759.093 323.367C760.262 323.367 761.126 323.606 761.683 324.085C762.245 324.558 762.526 325.244 762.526 326.142V329.22ZM758.856 330.063C759.108 330.063 759.372 329.989 759.648 329.841C759.924 329.688 760.134 329.474 760.277 329.197V327.925H759.7C759.049 327.925 758.57 328.026 758.265 328.228C757.959 328.425 757.806 328.716 757.806 329.101C757.806 329.402 757.897 329.639 758.08 329.811C758.267 329.979 758.526 330.063 758.856 330.063ZM764.984 327.762V325.942H771.392V327.762H764.984ZM780.665 321.229L781.242 331.484H779.126L779 327.096C778.99 326.687 778.985 326.322 778.985 326.001C778.99 325.68 778.997 325.379 779.007 325.098C779.017 324.812 779.032 324.526 779.052 324.24C779.076 323.949 779.101 323.633 779.126 323.293L777.971 329.737H776.136L774.893 323.293C774.923 323.619 774.948 323.927 774.967 324.218C774.992 324.504 775.009 324.792 775.019 325.084C775.029 325.375 775.036 325.688 775.041 326.023C775.046 326.354 775.044 326.724 775.034 327.133L774.96 331.484H772.881L773.458 321.229H775.951L777.091 327.858L778.171 321.229H780.665ZM789.145 329.22C789.145 329.516 789.185 329.73 789.264 329.863C789.348 329.996 789.481 330.098 789.663 330.167L789.182 331.706C788.719 331.661 788.327 331.56 788.006 331.402C787.69 331.239 787.441 330.995 787.259 330.67C786.958 331.03 786.573 331.299 786.104 331.476C785.636 331.649 785.157 331.735 784.669 331.735C783.86 331.735 783.214 331.506 782.731 331.047C782.252 330.583 782.013 329.989 782.013 329.264C782.013 328.411 782.346 327.752 783.012 327.288C783.683 326.825 784.625 326.593 785.838 326.593H786.896V326.297C786.896 325.888 786.763 325.584 786.497 325.387C786.235 325.19 785.85 325.091 785.342 325.091C785.091 325.091 784.768 325.128 784.373 325.202C783.978 325.271 783.584 325.372 783.189 325.505L782.649 323.951C783.157 323.759 783.685 323.614 784.233 323.515C784.785 323.416 785.278 323.367 785.712 323.367C786.881 323.367 787.745 323.606 788.302 324.085C788.864 324.558 789.145 325.244 789.145 326.142V329.22ZM785.476 330.063C785.727 330.063 785.991 329.989 786.267 329.841C786.543 329.688 786.753 329.474 786.896 329.197V327.925H786.319C785.668 327.925 785.189 328.026 784.884 328.228C784.578 328.425 784.425 328.716 784.425 329.101C784.425 329.402 784.516 329.639 784.699 329.811C784.886 329.979 785.145 330.063 785.476 330.063ZM791.478 331.484V329.915H792.514V325.18H791.478V323.626H794.297L794.726 325.394C795.007 324.718 795.365 324.215 795.799 323.885C796.238 323.554 796.773 323.389 797.404 323.389C797.671 323.389 797.907 323.411 798.115 323.456C798.322 323.495 798.517 323.552 798.699 323.626L797.989 325.557C797.846 325.518 797.703 325.488 797.56 325.468C797.417 325.449 797.259 325.439 797.086 325.439C796.573 325.439 796.122 325.648 795.732 326.068C795.347 326.487 795.054 327.02 794.852 327.666V329.915H796.405V331.484H791.478ZM796.798 326.911V324.617L797.145 323.626H798.699L798.263 326.911H796.798ZM807.35 331.025C807.044 331.222 806.674 331.39 806.24 331.528C805.806 331.666 805.318 331.735 804.775 331.735C803.749 331.735 802.987 331.474 802.489 330.951C801.991 330.423 801.742 329.708 801.742 328.805V325.239H800.092V323.626H801.742V321.924L804.08 321.643V323.626H806.61L806.381 325.239H804.08V328.805C804.08 329.195 804.169 329.474 804.346 329.641C804.524 329.809 804.807 329.893 805.197 329.893C805.473 329.893 805.725 329.861 805.952 329.797C806.184 329.728 806.391 329.641 806.573 329.538L807.35 331.025ZM813.952 323.626V329.885H815.949V331.484H809.387V329.885H811.614V325.224H809.461V323.626H813.952ZM813.663 319.127L814.573 320.888L811.081 322.272L810.437 321.088L813.663 319.127ZM818.023 331.484V323.626H820.065L820.228 324.536C820.578 324.141 820.948 323.848 821.338 323.656C821.727 323.463 822.171 323.367 822.669 323.367C823.34 323.367 823.868 323.572 824.253 323.981C824.637 324.39 824.83 324.968 824.83 325.712V331.484H822.492V326.386C822.492 326.065 822.47 325.811 822.425 325.624C822.381 325.431 822.302 325.296 822.188 325.217C822.08 325.133 821.929 325.091 821.737 325.091C821.574 325.091 821.414 325.128 821.256 325.202C821.103 325.271 820.953 325.372 820.805 325.505C820.657 325.638 820.509 325.799 820.361 325.986V331.484H818.023ZM828.923 328.235C828.977 328.665 829.088 329.012 829.256 329.279C829.429 329.54 829.648 329.733 829.915 329.856C830.181 329.974 830.479 330.033 830.81 330.033C831.17 330.033 831.518 329.974 831.853 329.856C832.189 329.737 832.512 329.58 832.822 329.382L833.762 330.655C833.392 330.971 832.943 331.23 832.415 331.432C831.893 331.634 831.296 331.735 830.625 331.735C829.727 331.735 828.975 331.558 828.368 331.202C827.761 330.842 827.305 330.349 826.999 329.723C826.694 329.096 826.541 328.376 826.541 327.562C826.541 326.788 826.689 326.085 826.985 325.453C827.281 324.817 827.712 324.312 828.279 323.937C828.852 323.557 829.55 323.367 830.373 323.367C831.123 323.367 831.772 323.527 832.319 323.848C832.872 324.169 833.298 324.63 833.599 325.231C833.905 325.833 834.058 326.556 834.058 327.399C834.058 327.533 834.053 327.676 834.043 327.829C834.038 327.981 834.028 328.117 834.014 328.235H828.923ZM830.373 324.936C829.954 324.936 829.616 325.086 829.36 325.387C829.103 325.688 828.948 326.169 828.894 326.83H831.779C831.774 326.257 831.663 325.799 831.446 325.453C831.229 325.108 830.872 324.936 830.373 324.936ZM838.558 329.715H842.494L842.272 331.484H835.798V329.834L839.698 325.387H836.124V323.626H842.42V325.268L838.558 329.715ZM857.673 318.165V335.923H856.164V318.165H857.673ZM874.442 321.066C875.182 321.066 875.814 321.174 876.337 321.391C876.859 321.604 877.291 321.902 877.631 322.287C877.977 322.667 878.245 323.115 878.438 323.633C878.63 324.151 878.766 324.714 878.845 325.32C878.924 325.927 878.963 326.556 878.963 327.207C878.963 328.45 878.904 329.491 878.786 330.329C878.667 331.163 878.445 331.789 878.12 332.209C877.799 332.633 877.335 332.845 876.729 332.845C876.433 332.845 876.174 332.778 875.952 332.645C875.735 332.512 875.555 332.339 875.412 332.127C875.274 331.92 875.168 331.696 875.094 331.454C875.024 331.207 874.985 330.976 874.975 330.759H874.916C874.817 330.995 874.682 331.222 874.509 331.439C874.336 331.656 874.117 331.834 873.85 331.972C873.584 332.11 873.259 332.179 872.874 332.179C872.321 332.179 871.877 332.031 871.542 331.735C871.207 331.444 870.962 331.042 870.809 330.529C870.657 330.016 870.58 329.437 870.58 328.79C870.58 327.533 870.837 326.573 871.35 325.912C871.863 325.246 872.605 324.913 873.577 324.913C873.942 324.913 874.302 324.958 874.657 325.047C875.017 325.13 875.404 325.283 875.819 325.505V329.9C875.819 330.369 875.856 330.731 875.93 330.988C876.004 331.244 876.105 331.422 876.233 331.521C876.366 331.619 876.517 331.669 876.684 331.669C876.882 331.669 877.035 331.567 877.143 331.365C877.256 331.163 877.338 330.872 877.387 330.492C877.437 330.107 877.466 329.644 877.476 329.101C877.486 328.559 877.491 327.947 877.491 327.266C877.491 326.536 877.449 325.868 877.365 325.261C877.286 324.649 877.136 324.122 876.914 323.678C876.697 323.234 876.386 322.891 875.981 322.649C875.577 322.408 875.052 322.287 874.405 322.287C873.907 322.287 873.382 322.38 872.829 322.568C872.282 322.755 871.705 323.115 871.098 323.648L870.299 322.723C870.97 322.141 871.648 321.719 872.334 321.458C873.024 321.197 873.727 321.066 874.442 321.066ZM873.599 326.038C873.032 326.038 872.644 326.26 872.437 326.704C872.23 327.143 872.127 327.838 872.127 328.79C872.127 329.264 872.156 329.668 872.215 330.004C872.274 330.339 872.378 330.596 872.526 330.773C872.674 330.951 872.874 331.04 873.125 331.04C873.426 331.04 873.661 330.971 873.828 330.833C873.996 330.694 874.122 330.532 874.206 330.344C874.289 330.152 874.354 329.984 874.398 329.841V326.23C874.265 326.161 874.137 326.112 874.013 326.082C873.89 326.053 873.752 326.038 873.599 326.038ZM886.896 321.229V327.792C886.896 328.388 886.805 328.929 886.623 329.412C886.44 329.895 886.171 330.307 885.816 330.648C885.466 330.988 885.034 331.249 884.521 331.432C884.013 331.614 883.431 331.706 882.775 331.706C882.114 331.706 881.542 331.622 881.059 331.454C880.58 331.281 880.119 331.045 879.675 330.744L880.6 329.249C880.95 329.491 881.278 329.661 881.584 329.76C881.89 329.853 882.238 329.9 882.627 329.9C883.155 329.9 883.594 329.733 883.944 329.397C884.299 329.057 884.477 328.531 884.477 327.821V323.004H881.325V321.229H886.896ZM892.41 323.367C893.219 323.367 893.907 323.54 894.475 323.885C895.042 324.23 895.476 324.716 895.777 325.342C896.078 325.964 896.228 326.694 896.228 327.533C896.228 328.406 896.075 329.158 895.77 329.789C895.469 330.416 895.035 330.897 894.467 331.232C893.9 331.567 893.214 331.735 892.41 331.735C891.611 331.735 890.926 331.57 890.353 331.239C889.786 330.909 889.35 330.431 889.044 329.804C888.743 329.178 888.592 328.425 888.592 327.547C888.592 326.714 888.743 325.984 889.044 325.357C889.35 324.731 889.786 324.242 890.353 323.892C890.926 323.542 891.611 323.367 892.41 323.367ZM892.41 325.091C891.932 325.091 891.577 325.288 891.345 325.683C891.118 326.073 891.005 326.694 891.005 327.547C891.005 328.416 891.118 329.044 891.345 329.434C891.577 329.824 891.932 330.019 892.41 330.019C892.889 330.019 893.242 329.824 893.468 329.434C893.7 329.044 893.816 328.411 893.816 327.533C893.816 326.684 893.7 326.065 893.468 325.675C893.242 325.286 892.889 325.091 892.41 325.091ZM899.907 328.235C899.961 328.665 900.072 329.012 900.24 329.279C900.413 329.54 900.632 329.733 900.899 329.856C901.165 329.974 901.463 330.033 901.794 330.033C902.154 330.033 902.502 329.974 902.837 329.856C903.173 329.737 903.496 329.58 903.806 329.382L904.746 330.655C904.376 330.971 903.927 331.23 903.4 331.432C902.877 331.634 902.28 331.735 901.609 331.735C900.711 331.735 899.959 331.558 899.352 331.202C898.746 330.842 898.289 330.349 897.983 329.723C897.678 329.096 897.525 328.376 897.525 327.562C897.525 326.788 897.673 326.085 897.969 325.453C898.265 324.817 898.696 324.312 899.263 323.937C899.836 323.557 900.534 323.367 901.357 323.367C902.107 323.367 902.756 323.527 903.303 323.848C903.856 324.169 904.282 324.63 904.583 325.231C904.889 325.833 905.042 326.556 905.042 327.399C905.042 327.533 905.037 327.676 905.027 327.829C905.022 327.981 905.012 328.117 904.998 328.235H899.907ZM901.357 324.936C900.938 324.936 900.6 325.086 900.344 325.387C900.087 325.688 899.932 326.169 899.878 326.83H902.763C902.758 326.257 902.647 325.799 902.43 325.453C902.213 325.108 901.856 324.936 901.357 324.936ZM911.747 324.573C911.747 324.208 911.678 323.907 911.54 323.67C911.407 323.429 911.202 323.251 910.926 323.138C910.655 323.019 910.312 322.96 909.897 322.96H909.069V326.312H910.023C910.383 326.312 910.692 326.25 910.948 326.127C911.205 326.003 911.402 325.814 911.54 325.557C911.678 325.301 911.747 324.973 911.747 324.573ZM914.248 324.566C914.248 325.36 914.078 326.016 913.738 326.534C913.397 327.052 912.921 327.439 912.31 327.695C911.698 327.947 910.988 328.073 910.179 328.073H909.069V331.484H906.642V321.229H909.868C911.259 321.229 912.337 321.505 913.101 322.057C913.866 322.61 914.248 323.446 914.248 324.566ZM919.029 323.367C919.838 323.367 920.526 323.54 921.094 323.885C921.661 324.23 922.095 324.716 922.396 325.342C922.697 325.964 922.847 326.694 922.847 327.533C922.847 328.406 922.694 329.158 922.389 329.789C922.088 330.416 921.654 330.897 921.086 331.232C920.519 331.567 919.833 331.735 919.029 331.735C918.23 331.735 917.545 331.57 916.973 331.239C916.405 330.909 915.969 330.431 915.663 329.804C915.362 329.178 915.212 328.425 915.212 327.547C915.212 326.714 915.362 325.984 915.663 325.357C915.969 324.731 916.405 324.242 916.973 323.892C917.545 323.542 918.23 323.367 919.029 323.367ZM919.029 325.091C918.551 325.091 918.196 325.288 917.964 325.683C917.737 326.073 917.624 326.694 917.624 327.547C917.624 328.416 917.737 329.044 917.964 329.434C918.196 329.824 918.551 330.019 919.029 330.019C919.508 330.019 919.861 329.824 920.087 329.434C920.319 329.044 920.435 328.411 920.435 327.533C920.435 326.684 920.319 326.065 920.087 325.675C919.861 325.286 919.508 325.091 919.029 325.091ZM924.573 331.484V329.915H925.609V325.18H924.573V323.626H927.392L927.821 325.394C928.102 324.718 928.46 324.215 928.894 323.885C929.333 323.554 929.868 323.389 930.499 323.389C930.766 323.389 931.003 323.411 931.21 323.456C931.417 323.495 931.612 323.552 931.794 323.626L931.084 325.557C930.941 325.518 930.798 325.488 930.655 325.468C930.512 325.449 930.354 325.439 930.181 325.439C929.668 325.439 929.217 325.648 928.827 326.068C928.443 326.487 928.149 327.02 927.947 327.666V329.915H929.501V331.484H924.573ZM929.893 326.911V324.617L930.24 323.626H931.794L931.358 326.911H929.893ZM940.445 331.025C940.139 331.222 939.77 331.39 939.335 331.528C938.901 331.666 938.413 331.735 937.87 331.735C936.844 331.735 936.082 331.474 935.584 330.951C935.086 330.423 934.837 329.708 934.837 328.805V325.239H933.187V323.626H934.837V321.924L937.175 321.643V323.626H939.705L939.476 325.239H937.175V328.805C937.175 329.195 937.264 329.474 937.441 329.641C937.619 329.809 937.903 329.893 938.292 329.893C938.568 329.893 938.82 329.861 939.047 329.797C939.279 329.728 939.486 329.641 939.668 329.538L940.445 331.025ZM947.047 323.626V329.885H949.045V331.484H942.482V329.885H944.709V325.224H942.556V323.626H947.047ZM945.634 319.512C946.038 319.512 946.369 319.638 946.625 319.889C946.882 320.141 947.01 320.454 947.01 320.829C947.01 321.204 946.882 321.52 946.625 321.776C946.369 322.028 946.038 322.154 945.634 322.154C945.224 322.154 944.889 322.028 944.627 321.776C944.371 321.52 944.243 321.204 944.243 320.829C944.243 320.454 944.371 320.141 944.627 319.889C944.889 319.638 945.224 319.512 945.634 319.512ZM955.217 320.504V329.012C955.217 329.328 955.306 329.555 955.483 329.693C955.666 329.826 955.915 329.893 956.231 329.893C956.433 329.893 956.628 329.871 956.815 329.826C957.003 329.777 957.178 329.72 957.34 329.656L957.903 331.217C957.636 331.355 957.316 331.476 956.941 331.58C956.566 331.683 956.13 331.735 955.631 331.735C954.684 331.735 953.989 331.464 953.545 330.921C953.101 330.374 952.879 329.641 952.879 328.724V322.102H950.563V320.504H955.217ZM964.09 320.504V329.012C964.09 329.328 964.179 329.555 964.356 329.693C964.539 329.826 964.788 329.893 965.104 329.893C965.306 329.893 965.501 329.871 965.688 329.826C965.876 329.777 966.051 329.72 966.213 329.656L966.776 331.217C966.509 331.355 966.189 331.476 965.814 331.58C965.439 331.683 965.002 331.735 964.504 331.735C963.557 331.735 962.862 331.464 962.418 330.921C961.974 330.374 961.752 329.641 961.752 328.724V322.102H959.436V320.504H964.09ZM975.479 329.22C975.479 329.516 975.518 329.73 975.597 329.863C975.681 329.996 975.814 330.098 975.997 330.167L975.516 331.706C975.052 331.661 974.66 331.56 974.339 331.402C974.023 331.239 973.774 330.995 973.592 330.67C973.291 331.03 972.906 331.299 972.438 331.476C971.969 331.649 971.491 331.735 971.002 331.735C970.193 331.735 969.547 331.506 969.064 331.047C968.585 330.583 968.346 329.989 968.346 329.264C968.346 328.411 968.679 327.752 969.345 327.288C970.016 326.825 970.958 326.593 972.171 326.593H973.229V326.297C973.229 325.888 973.096 325.584 972.83 325.387C972.568 325.19 972.184 325.091 971.676 325.091C971.424 325.091 971.101 325.128 970.706 325.202C970.312 325.271 969.917 325.372 969.522 325.505L968.982 323.951C969.49 323.759 970.018 323.614 970.566 323.515C971.118 323.416 971.611 323.367 972.045 323.367C973.215 323.367 974.078 323.606 974.635 324.085C975.197 324.558 975.479 325.244 975.479 326.142V329.22ZM971.809 330.063C972.06 330.063 972.324 329.989 972.6 329.841C972.877 329.688 973.086 329.474 973.229 329.197V327.925H972.652C972.001 327.925 971.523 328.026 971.217 328.228C970.911 328.425 970.758 328.716 970.758 329.101C970.758 329.402 970.849 329.639 971.032 329.811C971.219 329.979 971.478 330.063 971.809 330.063Z" fill="black"/>
<rect x="597" y="48" width="77.1792" height="77.1792" rx="2" fill="#00194E"/>
<path d="M628.122 104H621.503V85.8778C621.503 85.378 621.51 84.7639 621.525 84.0356C621.539 83.293 621.56 82.5361 621.589 81.765C621.617 80.9795 621.646 80.2726 621.674 79.6443C621.517 79.8299 621.196 80.1513 620.711 80.6082C620.239 81.0509 619.797 81.4508 619.382 81.8078L615.784 84.6997L612.592 80.7154L622.681 72.6825H628.122V104ZM658.583 88.3412C658.583 90.8689 658.383 93.1253 657.983 95.1103C657.598 97.0953 656.969 98.7804 656.098 100.166C655.241 101.551 654.113 102.608 652.714 103.336C651.314 104.064 649.615 104.428 647.615 104.428C645.102 104.428 643.038 103.793 641.425 102.522C639.811 101.237 638.618 99.3945 637.847 96.9953C637.076 94.5819 636.691 91.6972 636.691 88.3412C636.691 84.9567 637.04 82.0649 637.74 79.6657C638.454 77.2523 639.611 75.4029 641.21 74.1177C642.81 72.8324 644.945 72.1898 647.615 72.1898C650.114 72.1898 652.171 72.8324 653.785 74.1177C655.413 75.3887 656.619 77.2309 657.405 79.6443C658.19 82.0435 658.583 84.9424 658.583 88.3412ZM643.267 88.3412C643.267 90.7261 643.395 92.7183 643.652 94.3177C643.924 95.9029 644.374 97.0953 645.002 97.895C645.63 98.6947 646.501 99.0946 647.615 99.0946C648.715 99.0946 649.579 98.7019 650.207 97.9164C650.85 97.1167 651.307 95.9243 651.578 94.3391C651.85 92.7397 651.985 90.7404 651.985 88.3412C651.985 85.9564 651.85 83.9642 651.578 82.3648C651.307 80.7653 650.85 79.5658 650.207 78.766C649.579 77.952 648.715 77.545 647.615 77.545C646.501 77.545 645.63 77.952 645.002 78.766C644.374 79.5658 643.924 80.7653 643.652 82.3648C643.395 83.9642 643.267 85.9564 643.267 88.3412Z" fill="white"/>
<rect x="676.179" y="48" width="77.1792" height="77.1792" rx="2" fill="#00194E"/>
<path d="M712.828 104H690.936V99.3945L698.797 91.4473C700.382 89.8193 701.653 88.4626 702.61 87.3773C703.581 86.2777 704.281 85.278 704.709 84.3783C705.152 83.4787 705.373 82.5147 705.373 81.4865C705.373 80.2441 705.024 79.3158 704.324 78.7018C703.638 78.0734 702.717 77.7592 701.561 77.7592C700.347 77.7592 699.169 78.0377 698.026 78.5947C696.884 79.1516 695.691 79.9442 694.449 80.9724L690.85 76.7096C691.75 75.9385 692.699 75.2101 693.699 74.5247C694.713 73.8392 695.884 73.2894 697.212 72.8753C698.554 72.4468 700.161 72.2326 702.032 72.2326C704.088 72.2326 705.852 72.6039 707.323 73.3465C708.808 74.0891 709.95 75.103 710.75 76.3883C711.55 77.6593 711.95 79.1016 711.95 80.7154C711.95 82.4433 711.607 84.0213 710.922 85.4494C710.236 86.8775 709.236 88.2913 707.923 89.6908C706.623 91.0903 705.052 92.6397 703.21 94.3391L699.183 98.1306V98.4305H712.828V104ZM737.762 88.3412C737.762 90.8689 737.562 93.1253 737.162 95.1103C736.777 97.0953 736.148 98.7804 735.277 100.166C734.42 101.551 733.292 102.608 731.893 103.336C730.493 104.064 728.794 104.428 726.795 104.428C724.281 104.428 722.218 103.793 720.604 102.522C718.99 101.237 717.798 99.3945 717.027 96.9953C716.255 94.5819 715.87 91.6972 715.87 88.3412C715.87 84.9567 716.22 82.0649 716.919 79.6657C717.633 77.2523 718.79 75.4029 720.39 74.1177C721.989 72.8324 724.124 72.1898 726.795 72.1898C729.294 72.1898 731.35 72.8324 732.964 74.1177C734.592 75.3887 735.798 77.2309 736.584 79.6443C737.369 82.0435 737.762 84.9424 737.762 88.3412ZM722.446 88.3412C722.446 90.7261 722.575 92.7183 722.832 94.3177C723.103 95.9029 723.553 97.0953 724.181 97.895C724.809 98.6947 725.681 99.0946 726.795 99.0946C727.894 99.0946 728.758 98.7019 729.386 97.9164C730.029 97.1167 730.486 95.9243 730.757 94.3391C731.029 92.7397 731.164 90.7404 731.164 88.3412C731.164 85.9564 731.029 83.9642 730.757 82.3648C730.486 80.7653 730.029 79.5658 729.386 78.766C728.758 77.952 727.894 77.545 726.795 77.545C725.681 77.545 724.809 77.952 724.181 78.766C723.553 79.5658 723.103 80.7653 722.832 82.3648C722.575 83.9642 722.446 85.9564 722.446 88.3412Z" fill="white"/>
<rect x="755.358" y="48" width="77.1792" height="77.1792" rx="2" fill="#00194E"/>
<path d="M790.786 79.6871C790.786 81.1295 790.486 82.379 789.887 83.4358C789.287 84.4926 788.473 85.3566 787.445 86.0278C786.431 86.699 785.288 87.1916 784.017 87.5058V87.6343C786.531 87.9485 788.437 88.7197 789.737 89.9478C791.05 91.1759 791.707 92.8182 791.707 94.8746C791.707 96.7026 791.257 98.3377 790.358 99.7801C789.472 101.222 788.101 102.358 786.245 103.186C784.388 104.014 781.996 104.428 779.069 104.428C777.341 104.428 775.727 104.286 774.228 104C772.743 103.729 771.343 103.307 770.029 102.736V97.1024C771.372 97.7879 772.778 98.3091 774.249 98.6662C775.72 99.0089 777.091 99.1803 778.362 99.1803C780.733 99.1803 782.389 98.7733 783.332 97.9593C784.288 97.131 784.767 95.9743 784.767 94.4891C784.767 93.6179 784.546 92.8825 784.103 92.2827C783.66 91.6829 782.889 91.2259 781.789 90.9118C780.704 90.5976 779.183 90.4405 777.227 90.4405H774.849V85.3637H777.27C779.197 85.3637 780.661 85.1852 781.661 84.8282C782.675 84.4569 783.36 83.9571 783.717 83.3287C784.089 82.6861 784.274 81.9578 784.274 81.1438C784.274 80.0299 783.931 79.1588 783.246 78.5304C782.561 77.9021 781.418 77.5879 779.819 77.5879C778.819 77.5879 777.905 77.7164 777.077 77.9735C776.263 78.2162 775.527 78.5161 774.87 78.8731C774.213 79.2159 773.635 79.5515 773.135 79.8799L770.072 75.3173C771.3 74.4319 772.735 73.6964 774.378 73.1109C776.034 72.5254 778.005 72.2326 780.29 72.2326C783.517 72.2326 786.074 72.8824 787.959 74.1819C789.844 75.4815 790.786 77.3165 790.786 79.6871ZM816.941 88.3412C816.941 90.8689 816.741 93.1253 816.341 95.1103C815.956 97.0953 815.328 98.7804 814.456 100.166C813.6 101.551 812.471 102.608 811.072 103.336C809.672 104.064 807.973 104.428 805.974 104.428C803.46 104.428 801.397 103.793 799.783 102.522C798.169 101.237 796.977 99.3945 796.206 96.9953C795.435 94.5819 795.049 91.6972 795.049 88.3412C795.049 84.9567 795.399 82.0649 796.099 79.6657C796.813 77.2523 797.969 75.4029 799.569 74.1177C801.168 72.8324 803.303 72.1898 805.974 72.1898C808.473 72.1898 810.529 72.8324 812.143 74.1177C813.771 75.3887 814.978 77.2309 815.763 79.6443C816.549 82.0435 816.941 84.9424 816.941 88.3412ZM801.625 88.3412C801.625 90.7261 801.754 92.7183 802.011 94.3177C802.282 95.9029 802.732 97.0953 803.36 97.895C803.989 98.6947 804.86 99.0946 805.974 99.0946C807.073 99.0946 807.937 98.7019 808.566 97.9164C809.208 97.1167 809.665 95.9243 809.937 94.3391C810.208 92.7397 810.344 90.7404 810.344 88.3412C810.344 85.9564 810.208 83.9642 809.937 82.3648C809.665 80.7653 809.208 79.5658 808.566 78.766C807.937 77.952 807.073 77.545 805.974 77.545C804.86 77.545 803.989 77.952 803.36 78.766C802.732 79.5658 802.282 80.7653 802.011 82.3648C801.754 83.9642 801.625 85.9564 801.625 88.3412Z" fill="white"/>
<rect x="597" y="127.179" width="77.1792" height="77.1792" rx="2" fill="#6C88C3"/>
<path d="M634.356 176.689H630.586V183.179H624.116V176.689H610.75V172.083L624.481 151.862H630.586V171.548H634.356V176.689ZM624.116 171.548V166.235C624.116 165.735 624.124 165.143 624.138 164.457C624.166 163.772 624.195 163.086 624.224 162.401C624.252 161.715 624.281 161.108 624.309 160.58C624.352 160.037 624.381 159.659 624.395 159.445H624.224C623.952 160.03 623.667 160.601 623.367 161.158C623.067 161.701 622.717 162.272 622.317 162.872L616.576 171.548H624.116ZM658.583 167.52C658.583 170.048 658.383 172.304 657.983 174.289C657.598 176.274 656.969 177.96 656.098 179.345C655.241 180.73 654.113 181.787 652.714 182.515C651.314 183.243 649.615 183.608 647.615 183.608C645.102 183.608 643.038 182.972 641.425 181.701C639.811 180.416 638.618 178.574 637.847 176.175C637.076 173.761 636.691 170.876 636.691 167.52C636.691 164.136 637.04 161.244 637.74 158.845C638.454 156.431 639.611 154.582 641.21 153.297C642.81 152.012 644.945 151.369 647.615 151.369C650.114 151.369 652.171 152.012 653.785 153.297C655.413 154.568 656.619 156.41 657.405 158.823C658.19 161.223 658.583 164.122 658.583 167.52ZM643.267 167.52C643.267 169.905 643.395 171.897 643.652 173.497C643.924 175.082 644.374 176.274 645.002 177.074C645.63 177.874 646.501 178.274 647.615 178.274C648.715 178.274 649.579 177.881 650.207 177.096C650.85 176.296 651.307 175.103 651.578 173.518C651.85 171.919 651.985 169.92 651.985 167.52C651.985 165.136 651.85 163.143 651.578 161.544C651.307 159.945 650.85 158.745 650.207 157.945C649.579 157.131 648.715 156.724 647.615 156.724C646.501 156.724 645.63 157.131 645.002 157.945C644.374 158.745 643.924 159.945 643.652 161.544C643.395 163.143 643.267 165.136 643.267 167.52Z" fill="white"/>
<rect x="676.179" y="127.179" width="77.1792" height="77.1792" rx="2" fill="#6C88C3"/>
<path d="M702.332 163.172C704.245 163.172 705.945 163.536 707.43 164.264C708.929 164.993 710.108 166.064 710.964 167.478C711.821 168.891 712.25 170.634 712.25 172.704C712.25 174.961 711.778 176.91 710.836 178.552C709.908 180.18 708.515 181.43 706.659 182.301C704.817 183.172 702.517 183.608 699.761 183.608C698.119 183.608 696.569 183.465 695.113 183.179C693.67 182.908 692.407 182.487 691.321 181.915V176.196C692.407 176.767 693.706 177.253 695.22 177.653C696.748 178.038 698.183 178.231 699.526 178.231C700.839 178.231 701.946 178.06 702.846 177.717C703.745 177.36 704.424 176.817 704.881 176.089C705.352 175.346 705.588 174.404 705.588 173.261C705.588 171.733 705.074 170.562 704.045 169.748C703.017 168.934 701.439 168.527 699.311 168.527C698.497 168.527 697.648 168.606 696.762 168.763C695.891 168.92 695.163 169.077 694.577 169.234L691.943 167.82L693.121 151.862H710.108V157.474H698.926L698.347 163.622C698.833 163.522 699.361 163.422 699.933 163.322C700.504 163.222 701.303 163.172 702.332 163.172ZM737.762 167.52C737.762 170.048 737.562 172.304 737.162 174.289C736.777 176.274 736.148 177.96 735.277 179.345C734.42 180.73 733.292 181.787 731.893 182.515C730.493 183.243 728.794 183.608 726.795 183.608C724.281 183.608 722.218 182.972 720.604 181.701C718.99 180.416 717.798 178.574 717.027 176.175C716.255 173.761 715.87 170.876 715.87 167.52C715.87 164.136 716.22 161.244 716.919 158.845C717.633 156.431 718.79 154.582 720.39 153.297C721.989 152.012 724.124 151.369 726.795 151.369C729.294 151.369 731.35 152.012 732.964 153.297C734.592 154.568 735.798 156.41 736.584 158.823C737.369 161.223 737.762 164.122 737.762 167.52ZM722.446 167.52C722.446 169.905 722.575 171.897 722.832 173.497C723.103 175.082 723.553 176.274 724.181 177.074C724.809 177.874 725.681 178.274 726.795 178.274C727.894 178.274 728.758 177.881 729.386 177.096C730.029 176.296 730.486 175.103 730.757 173.518C731.029 171.919 731.164 169.92 731.164 167.52C731.164 165.136 731.029 163.143 730.757 161.544C730.486 159.945 730.029 158.745 729.386 157.945C728.758 157.131 727.894 156.724 726.795 156.724C725.681 156.724 724.809 157.131 724.181 157.945C723.553 158.745 723.103 159.945 722.832 161.544C722.575 163.143 722.446 165.136 722.446 167.52Z" fill="white"/>
<rect x="755.358" y="127.179" width="77.1792" height="77.1792" rx="2" fill="#6C88C3"/>
<path d="M769.901 169.877C769.901 168.077 770.029 166.299 770.286 164.543C770.558 162.772 771.022 161.108 771.679 159.552C772.336 157.981 773.257 156.596 774.442 155.396C775.627 154.182 777.134 153.233 778.962 152.547C780.79 151.847 783.003 151.498 785.602 151.498C786.216 151.498 786.93 151.526 787.744 151.583C788.573 151.626 789.258 151.705 789.801 151.819V157.11C789.23 156.981 788.616 156.881 787.959 156.81C787.316 156.724 786.673 156.681 786.031 156.681C783.432 156.681 781.418 157.096 779.99 157.924C778.576 158.752 777.577 159.902 776.991 161.373C776.42 162.829 776.084 164.529 775.984 166.471H776.263C776.663 165.771 777.162 165.15 777.762 164.607C778.376 164.065 779.119 163.636 779.99 163.322C780.861 162.993 781.882 162.829 783.053 162.829C784.881 162.829 786.466 163.222 787.809 164.007C789.151 164.779 790.186 165.9 790.915 167.37C791.643 168.841 792.007 170.634 792.007 172.747C792.007 175.004 791.572 176.946 790.701 178.574C789.829 180.202 788.594 181.451 786.995 182.322C785.41 183.179 783.524 183.608 781.34 183.608C779.74 183.608 778.248 183.336 776.863 182.794C775.477 182.237 774.263 181.394 773.221 180.266C772.178 179.138 771.364 177.717 770.779 176.003C770.193 174.275 769.901 172.233 769.901 169.877ZM781.211 178.317C782.511 178.317 783.567 177.874 784.381 176.989C785.195 176.103 785.602 174.718 785.602 172.833C785.602 171.305 785.245 170.105 784.531 169.234C783.832 168.349 782.768 167.906 781.34 167.906C780.368 167.906 779.512 168.127 778.769 168.57C778.041 168.998 777.477 169.548 777.077 170.219C776.677 170.876 776.477 171.555 776.477 172.254C776.477 172.983 776.577 173.704 776.777 174.418C776.977 175.132 777.277 175.782 777.677 176.367C778.076 176.953 778.569 177.424 779.155 177.781C779.754 178.138 780.44 178.317 781.211 178.317ZM816.941 167.52C816.941 170.048 816.741 172.304 816.341 174.289C815.956 176.274 815.328 177.96 814.456 179.345C813.6 180.73 812.471 181.787 811.072 182.515C809.672 183.243 807.973 183.608 805.974 183.608C803.46 183.608 801.397 182.972 799.783 181.701C798.169 180.416 796.977 178.574 796.206 176.175C795.435 173.761 795.049 170.876 795.049 167.52C795.049 164.136 795.399 161.244 796.099 158.845C796.813 156.431 797.969 154.582 799.569 153.297C801.168 152.012 803.303 151.369 805.974 151.369C808.473 151.369 810.529 152.012 812.143 153.297C813.771 154.568 814.978 156.41 815.763 158.823C816.549 161.223 816.941 164.122 816.941 167.52ZM801.625 167.52C801.625 169.905 801.754 171.897 802.011 173.497C802.282 175.082 802.732 176.274 803.36 177.074C803.989 177.874 804.86 178.274 805.974 178.274C807.073 178.274 807.937 177.881 808.566 177.096C809.208 176.296 809.665 175.103 809.937 173.518C810.208 171.919 810.344 169.92 810.344 167.52C810.344 165.136 810.208 163.143 809.937 161.544C809.665 159.945 809.208 158.745 808.566 157.945C807.937 157.131 807.073 156.724 805.974 156.724C804.86 156.724 803.989 157.131 803.36 157.945C802.732 158.745 802.282 159.945 802.011 161.544C801.754 163.143 801.625 165.136 801.625 167.52Z" fill="white"/>
<rect x="597" y="206.358" width="77.1792" height="77.1792" rx="2" fill="#6C88C3"/>
<path d="M614.863 261.358L626.623 235.61H611.178V230.041H633.649V234.197L621.803 261.358H614.863ZM658.583 245.7C658.583 248.227 658.383 250.484 657.983 252.469C657.598 254.454 656.969 256.139 656.098 257.524C655.241 258.909 654.113 259.966 652.714 260.694C651.314 261.423 649.615 261.787 647.615 261.787C645.102 261.787 643.038 261.151 641.425 259.88C639.811 258.595 638.618 256.753 637.847 254.354C637.076 251.94 636.691 249.056 636.691 245.7C636.691 242.315 637.04 239.423 637.74 237.024C638.454 234.611 639.611 232.761 641.21 231.476C642.81 230.191 644.945 229.548 647.615 229.548C650.114 229.548 652.171 230.191 653.785 231.476C655.413 232.747 656.619 234.589 657.405 237.003C658.19 239.402 658.583 242.301 658.583 245.7ZM643.267 245.7C643.267 248.085 643.395 250.077 643.652 251.676C643.924 253.261 644.374 254.454 645.002 255.253C645.63 256.053 646.501 256.453 647.615 256.453C648.715 256.453 649.579 256.06 650.207 255.275C650.85 254.475 651.307 253.283 651.578 251.698C651.85 250.098 651.985 248.099 651.985 245.7C651.985 243.315 651.85 241.323 651.578 239.723C651.307 238.124 650.85 236.924 650.207 236.124C649.579 235.31 648.715 234.903 647.615 234.903C646.501 234.903 645.63 235.31 645.002 236.124C644.374 236.924 643.924 238.124 643.652 239.723C643.395 241.323 643.267 243.315 643.267 245.7Z" fill="white"/>
<rect x="676.179" y="206.358" width="77.1792" height="77.1792" rx="2" fill="#6C88C3"/>
<path d="M701.732 229.634C703.531 229.634 705.188 229.912 706.702 230.469C708.23 231.026 709.451 231.869 710.365 232.997C711.279 234.111 711.736 235.51 711.736 237.195C711.736 238.452 711.486 239.552 710.986 240.494C710.5 241.437 709.836 242.265 708.994 242.979C708.151 243.679 707.194 244.293 706.123 244.821C707.237 245.407 708.294 246.092 709.294 246.878C710.293 247.649 711.107 248.556 711.736 249.598C712.378 250.641 712.699 251.855 712.699 253.24C712.699 254.982 712.235 256.496 711.307 257.781C710.379 259.052 709.094 260.037 707.451 260.737C705.809 261.437 703.903 261.787 701.732 261.787C699.39 261.787 697.398 261.451 695.755 260.78C694.113 260.109 692.864 259.152 692.007 257.91C691.15 256.653 690.722 255.153 690.722 253.411C690.722 251.983 690.986 250.741 691.514 249.684C692.057 248.627 692.785 247.72 693.699 246.963C694.613 246.192 695.62 245.535 696.719 244.993C695.791 244.407 694.941 243.743 694.17 243.001C693.413 242.258 692.806 241.408 692.35 240.451C691.907 239.495 691.685 238.395 691.685 237.153C691.685 235.496 692.15 234.111 693.078 232.997C694.02 231.883 695.256 231.048 696.784 230.491C698.312 229.919 699.961 229.634 701.732 229.634ZM696.848 253.026C696.848 254.154 697.248 255.089 698.048 255.832C698.862 256.56 700.061 256.924 701.646 256.924C703.289 256.924 704.517 256.574 705.331 255.875C706.145 255.161 706.552 254.225 706.552 253.068C706.552 252.269 706.316 251.569 705.845 250.969C705.388 250.369 704.809 249.834 704.11 249.363C703.41 248.877 702.703 248.427 701.989 248.013L701.411 247.713C700.497 248.127 699.697 248.591 699.011 249.106C698.34 249.62 697.812 250.198 697.426 250.841C697.041 251.483 696.848 252.212 696.848 253.026ZM701.689 234.475C700.604 234.475 699.704 234.753 698.99 235.31C698.276 235.867 697.919 236.653 697.919 237.667C697.919 238.381 698.09 239.009 698.433 239.552C698.79 240.08 699.254 240.544 699.825 240.944C700.411 241.344 701.046 241.715 701.732 242.058C702.389 241.744 703.003 241.394 703.574 241.008C704.145 240.623 704.609 240.159 704.966 239.616C705.324 239.073 705.502 238.424 705.502 237.667C705.502 236.653 705.138 235.867 704.41 235.31C703.696 234.753 702.789 234.475 701.689 234.475ZM737.762 245.7C737.762 248.227 737.562 250.484 737.162 252.469C736.777 254.454 736.148 256.139 735.277 257.524C734.42 258.909 733.292 259.966 731.893 260.694C730.493 261.423 728.794 261.787 726.795 261.787C724.281 261.787 722.218 261.151 720.604 259.88C718.99 258.595 717.798 256.753 717.027 254.354C716.255 251.94 715.87 249.056 715.87 245.7C715.87 242.315 716.22 239.423 716.919 237.024C717.633 234.611 718.79 232.761 720.39 231.476C721.989 230.191 724.124 229.548 726.795 229.548C729.294 229.548 731.35 230.191 732.964 231.476C734.592 232.747 735.798 234.589 736.584 237.003C737.369 239.402 737.762 242.301 737.762 245.7ZM722.446 245.7C722.446 248.085 722.575 250.077 722.832 251.676C723.103 253.261 723.553 254.454 724.181 255.253C724.809 256.053 725.681 256.453 726.795 256.453C727.894 256.453 728.758 256.06 729.386 255.275C730.029 254.475 730.486 253.283 730.757 251.698C731.029 250.098 731.164 248.099 731.164 245.7C731.164 243.315 731.029 241.323 730.757 239.723C730.486 238.124 730.029 236.924 729.386 236.124C728.758 235.31 727.894 234.903 726.795 234.903C725.681 234.903 724.809 235.31 724.181 236.124C723.553 236.924 723.103 238.124 722.832 239.723C722.575 241.323 722.446 243.315 722.446 245.7Z" fill="white"/>
<rect x="755.358" y="206.358" width="77.1792" height="77.1792" rx="2" fill="#6C88C3"/>
<path d="M791.879 243.408C791.879 245.207 791.743 246.992 791.472 248.763C791.215 250.534 790.758 252.204 790.101 253.775C789.444 255.332 788.523 256.717 787.337 257.931C786.152 259.131 784.646 260.073 782.818 260.759C780.99 261.444 778.776 261.787 776.177 261.787C775.563 261.787 774.842 261.758 774.014 261.701C773.185 261.658 772.5 261.587 771.957 261.487V256.175C772.528 256.317 773.135 256.432 773.778 256.517C774.421 256.589 775.07 256.624 775.727 256.624C778.341 256.624 780.354 256.21 781.768 255.382C783.196 254.554 784.196 253.404 784.767 251.933C785.352 250.462 785.688 248.763 785.774 246.835H785.517C785.102 247.52 784.61 248.142 784.039 248.699C783.482 249.241 782.768 249.677 781.896 250.005C781.025 250.319 779.919 250.477 778.576 250.477C776.791 250.477 775.235 250.091 773.906 249.32C772.593 248.534 771.572 247.406 770.843 245.935C770.129 244.45 769.772 242.658 769.772 240.559C769.772 238.288 770.201 236.346 771.057 234.732C771.929 233.104 773.164 231.855 774.763 230.983C776.363 230.112 778.248 229.677 780.418 229.677C782.018 229.677 783.51 229.955 784.895 230.512C786.281 231.055 787.495 231.89 788.537 233.018C789.594 234.147 790.415 235.575 791 237.303C791.586 239.031 791.879 241.066 791.879 243.408ZM780.547 234.989C779.262 234.989 778.212 235.432 777.398 236.317C776.584 237.203 776.177 238.588 776.177 240.473C776.177 241.987 776.527 243.186 777.227 244.072C777.926 244.957 778.99 245.4 780.418 245.4C781.404 245.4 782.261 245.186 782.989 244.757C783.717 244.314 784.281 243.765 784.681 243.108C785.095 242.436 785.302 241.751 785.302 241.051C785.302 240.323 785.202 239.602 785.003 238.888C784.803 238.174 784.503 237.524 784.103 236.938C783.703 236.353 783.203 235.882 782.603 235.525C782.018 235.168 781.332 234.989 780.547 234.989ZM816.941 245.7C816.941 248.227 816.741 250.484 816.341 252.469C815.956 254.454 815.328 256.139 814.456 257.524C813.6 258.909 812.471 259.966 811.072 260.694C809.672 261.423 807.973 261.787 805.974 261.787C803.46 261.787 801.397 261.151 799.783 259.88C798.169 258.595 796.977 256.753 796.206 254.354C795.435 251.94 795.049 249.056 795.049 245.7C795.049 242.315 795.399 239.423 796.099 237.024C796.813 234.611 797.969 232.761 799.569 231.476C801.168 230.191 803.303 229.548 805.974 229.548C808.473 229.548 810.529 230.191 812.143 231.476C813.771 232.747 814.978 234.589 815.763 237.003C816.549 239.402 816.941 242.301 816.941 245.7ZM801.625 245.7C801.625 248.085 801.754 250.077 802.011 251.676C802.282 253.261 802.732 254.454 803.36 255.253C803.989 256.053 804.86 256.453 805.974 256.453C807.073 256.453 807.937 256.06 808.566 255.275C809.208 254.475 809.665 253.283 809.937 251.698C810.208 250.098 810.344 248.099 810.344 245.7C810.344 243.315 810.208 241.323 809.937 239.723C809.665 238.124 809.208 236.924 808.566 236.124C807.937 235.31 807.073 234.903 805.974 234.903C804.86 234.903 803.989 235.31 803.36 236.124C802.732 236.924 802.282 238.124 802.011 239.723C801.754 241.323 801.625 243.315 801.625 245.7Z" fill="white"/>
<path d="M583.095 102.445H585.13V99.92H586.14V102.445H589V103.815H582.085V99.435L583.095 99.58V102.445ZM583.705 95.1539H588.065V93.7589H589V98.0239H588.065V96.4739H584.64V97.9739H583.705V95.1539ZM581.035 96.0089C581.035 95.7656 581.11 95.5689 581.26 95.4189C581.41 95.2656 581.597 95.1889 581.82 95.1889C582.043 95.1889 582.232 95.2656 582.385 95.4189C582.535 95.5689 582.61 95.7656 582.61 96.0089C582.61 96.2522 582.535 96.4506 582.385 96.6039C582.232 96.7572 582.043 96.8339 581.82 96.8339C581.597 96.8339 581.41 96.7572 581.26 96.6039C581.11 96.4506 581.035 96.2522 581.035 96.0089ZM581.59 89.6828H587.46C587.69 89.6828 587.853 89.6161 587.95 89.4828C588.047 89.3461 588.095 89.1628 588.095 88.9328C588.095 88.7895 588.08 88.6511 588.05 88.5178C588.017 88.3845 587.977 88.2578 587.93 88.1378L588.83 87.8128C588.913 87.9795 588.987 88.1828 589.05 88.4228C589.117 88.6595 589.15 88.9345 589.15 89.2478C589.15 89.8245 588.985 90.2611 588.655 90.5578C588.325 90.8545 587.88 91.0028 587.32 91.0028H582.525V92.5878H581.59V89.6828ZM587.605 81.9817C587.808 81.9817 587.957 81.9517 588.05 81.8917C588.14 81.8317 588.208 81.7351 588.255 81.6017L589.14 81.8867C589.11 82.1701 589.04 82.4117 588.93 82.6117C588.817 82.8084 588.648 82.9601 588.425 83.0667C588.668 83.2667 588.85 83.5201 588.97 83.8267C589.09 84.1301 589.15 84.4484 589.15 84.7817C589.15 85.3217 588.997 85.7501 588.69 86.0667C588.383 86.3834 587.985 86.5417 587.495 86.5417C586.932 86.5417 586.498 86.3217 586.195 85.8817C585.888 85.4384 585.735 84.8117 585.735 84.0017V83.2617H585.45C585.137 83.2617 584.91 83.3584 584.77 83.5517C584.627 83.7451 584.555 84.0234 584.555 84.3867C584.555 84.5567 584.578 84.7701 584.625 85.0267C584.668 85.2801 584.737 85.5417 584.83 85.8117L583.925 86.1267C583.798 85.7901 583.705 85.4517 583.645 85.1117C583.585 84.7684 583.555 84.4567 583.555 84.1767C583.555 83.4334 583.713 82.8817 584.03 82.5217C584.343 82.1617 584.788 81.9817 585.365 81.9817H587.605ZM588.195 84.3517C588.195 84.1517 588.138 83.9501 588.025 83.7467C587.912 83.5401 587.753 83.3784 587.55 83.2617H586.52V83.7817C586.52 84.2717 586.598 84.6267 586.755 84.8467C586.912 85.0634 587.133 85.1717 587.42 85.1717C587.667 85.1717 587.858 85.1017 587.995 84.9617C588.128 84.8217 588.195 84.6184 588.195 84.3517ZM581.935 72.0195C581.935 71.2229 582.25 70.6212 582.88 70.2145C583.507 69.8079 584.39 69.6045 585.53 69.6045C586.673 69.6045 587.563 69.8079 588.2 70.2145C588.833 70.6212 589.15 71.2229 589.15 72.0195C589.15 72.8195 588.833 73.4229 588.2 73.8295C587.563 74.2329 586.673 74.4345 585.53 74.4345C584.39 74.4345 583.507 74.2329 582.88 73.8295C582.25 73.4229 581.935 72.8195 581.935 72.0195ZM582.915 72.0195C582.915 72.3962 583.117 72.6812 583.52 72.8745C583.92 73.0645 584.59 73.1595 585.53 73.1595C586.05 73.1595 586.482 73.1412 586.825 73.1045C587.165 73.0645 587.433 72.9995 587.63 72.9095C587.827 72.8195 587.967 72.7029 588.05 72.5595C588.13 72.4129 588.17 72.2329 588.17 72.0195C588.17 71.7662 588.085 71.5562 587.915 71.3895C587.742 71.2195 587.462 71.0929 587.075 71.0095C586.685 70.9262 586.17 70.8845 585.53 70.8845C584.85 70.8845 584.32 70.9212 583.94 70.9945C583.56 71.0645 583.295 71.1829 583.145 71.3495C582.992 71.5129 582.915 71.7362 582.915 72.0195ZM583.14 71.1545L583.96 70.8145L588 72.7845L587.33 73.1895L583.14 71.1545Z" fill="#00194E"/>
<path d="M583.095 181.445H585.13V178.92H586.14V181.445H589V182.815H582.085V178.435L583.095 178.58V181.445ZM583.705 174.154H588.065V172.759H589V177.024H588.065V175.474H584.64V176.974H583.705V174.154ZM581.035 175.009C581.035 174.766 581.11 174.569 581.26 174.419C581.41 174.266 581.597 174.189 581.82 174.189C582.043 174.189 582.232 174.266 582.385 174.419C582.535 174.569 582.61 174.766 582.61 175.009C582.61 175.252 582.535 175.451 582.385 175.604C582.232 175.757 582.043 175.834 581.82 175.834C581.597 175.834 581.41 175.757 581.26 175.604C581.11 175.451 581.035 175.252 581.035 175.009ZM581.59 168.683H587.46C587.69 168.683 587.853 168.616 587.95 168.483C588.047 168.346 588.095 168.163 588.095 167.933C588.095 167.789 588.08 167.651 588.05 167.518C588.017 167.384 587.977 167.258 587.93 167.138L588.83 166.813C588.913 166.979 588.987 167.183 589.05 167.423C589.117 167.659 589.15 167.934 589.15 168.248C589.15 168.824 588.985 169.261 588.655 169.558C588.325 169.854 587.88 170.003 587.32 170.003H582.525V171.588H581.59V168.683ZM587.605 160.982C587.808 160.982 587.957 160.952 588.05 160.892C588.14 160.832 588.208 160.735 588.255 160.602L589.14 160.887C589.11 161.17 589.04 161.412 588.93 161.612C588.817 161.808 588.648 161.96 588.425 162.067C588.668 162.267 588.85 162.52 588.97 162.827C589.09 163.13 589.15 163.448 589.15 163.782C589.15 164.322 588.997 164.75 588.69 165.067C588.383 165.383 587.985 165.542 587.495 165.542C586.932 165.542 586.498 165.322 586.195 164.882C585.888 164.438 585.735 163.812 585.735 163.002V162.262H585.45C585.137 162.262 584.91 162.358 584.77 162.552C584.627 162.745 584.555 163.023 584.555 163.387C584.555 163.557 584.578 163.77 584.625 164.027C584.668 164.28 584.737 164.542 584.83 164.812L583.925 165.127C583.798 164.79 583.705 164.452 583.645 164.112C583.585 163.768 583.555 163.457 583.555 163.177C583.555 162.433 583.713 161.882 584.03 161.522C584.343 161.162 584.788 160.982 585.365 160.982H587.605ZM588.195 163.352C588.195 163.152 588.138 162.95 588.025 162.747C587.912 162.54 587.753 162.378 587.55 162.262H586.52V162.782C586.52 163.272 586.598 163.627 586.755 163.847C586.912 164.063 587.133 164.172 587.42 164.172C587.667 164.172 587.858 164.102 587.995 163.962C588.128 163.822 588.195 163.618 588.195 163.352ZM582.085 149.975H588.8V151.27H583.415L584.33 152.745L583.415 153.31L582.085 151.14V149.975ZM587.985 148.63H589V152.945H587.985V148.63Z" fill="#6C88C3"/>
<path d="M583.095 260.445H585.13V257.92H586.14V260.445H589V261.815H582.085V257.435L583.095 257.58V260.445ZM583.705 253.154H588.065V251.759H589V256.024H588.065V254.474H584.64V255.974H583.705V253.154ZM581.035 254.009C581.035 253.766 581.11 253.569 581.26 253.419C581.41 253.266 581.597 253.189 581.82 253.189C582.043 253.189 582.232 253.266 582.385 253.419C582.535 253.569 582.61 253.766 582.61 254.009C582.61 254.252 582.535 254.451 582.385 254.604C582.232 254.757 582.043 254.834 581.82 254.834C581.597 254.834 581.41 254.757 581.26 254.604C581.11 254.451 581.035 254.252 581.035 254.009ZM581.59 247.683H587.46C587.69 247.683 587.853 247.616 587.95 247.483C588.047 247.346 588.095 247.163 588.095 246.933C588.095 246.789 588.08 246.651 588.05 246.518C588.017 246.384 587.977 246.258 587.93 246.138L588.83 245.813C588.913 245.979 588.987 246.183 589.05 246.423C589.117 246.659 589.15 246.934 589.15 247.248C589.15 247.824 588.985 248.261 588.655 248.558C588.325 248.854 587.88 249.003 587.32 249.003H582.525V250.588H581.59V247.683ZM587.605 239.982C587.808 239.982 587.957 239.952 588.05 239.892C588.14 239.832 588.208 239.735 588.255 239.602L589.14 239.887C589.11 240.17 589.04 240.412 588.93 240.612C588.817 240.808 588.648 240.96 588.425 241.067C588.668 241.267 588.85 241.52 588.97 241.827C589.09 242.13 589.15 242.448 589.15 242.782C589.15 243.322 588.997 243.75 588.69 244.067C588.383 244.383 587.985 244.542 587.495 244.542C586.932 244.542 586.498 244.322 586.195 243.882C585.888 243.438 585.735 242.812 585.735 242.002V241.262H585.45C585.137 241.262 584.91 241.358 584.77 241.552C584.627 241.745 584.555 242.023 584.555 242.387C584.555 242.557 584.578 242.77 584.625 243.027C584.668 243.28 584.737 243.542 584.83 243.812L583.925 244.127C583.798 243.79 583.705 243.452 583.645 243.112C583.585 242.768 583.555 242.457 583.555 242.177C583.555 241.433 583.713 240.882 584.03 240.522C584.343 240.162 584.788 239.982 585.365 239.982H587.605ZM588.195 242.352C588.195 242.152 588.138 241.95 588.025 241.747C587.912 241.54 587.753 241.378 587.55 241.262H586.52V241.782C586.52 242.272 586.598 242.627 586.755 242.847C586.912 243.063 587.133 243.172 587.42 243.172C587.667 243.172 587.858 243.102 587.995 242.962C588.128 242.822 588.195 242.618 588.195 242.352ZM581.935 230.285C581.935 229.788 582.023 229.371 582.2 229.035C582.377 228.695 582.615 228.438 582.915 228.265C583.212 228.091 583.538 228.005 583.895 228.005C584.188 228.005 584.475 228.055 584.755 228.155C585.035 228.255 585.33 228.418 585.64 228.645C585.95 228.868 586.295 229.165 586.675 229.535C587.052 229.905 587.482 230.361 587.965 230.905V227.845L589 227.99V232.415H588.035C587.575 231.938 587.17 231.526 586.82 231.18C586.467 230.833 586.155 230.543 585.885 230.31C585.615 230.073 585.373 229.886 585.16 229.75C584.943 229.61 584.742 229.51 584.555 229.45C584.368 229.39 584.182 229.36 583.995 229.36C583.678 229.36 583.428 229.451 583.245 229.635C583.062 229.815 582.97 230.068 582.97 230.395C582.97 230.685 583.027 230.931 583.14 231.135C583.25 231.335 583.43 231.531 583.68 231.725L583.05 232.555C582.697 232.291 582.423 231.978 582.23 231.615C582.033 231.251 581.935 230.808 581.935 230.285Z" fill="#6C88C3"/>
<path d="M610.58 33.935C611.06 33.935 611.467 33.9983 611.8 34.125C612.133 34.2483 612.442 34.4267 612.725 34.66L612.03 35.485C611.833 35.3183 611.617 35.1917 611.38 35.105C611.147 35.0183 610.897 34.975 610.63 34.975C610.31 34.975 610.015 35.06 609.745 35.23C609.478 35.4 609.263 35.6733 609.1 36.05C608.94 36.4233 608.86 36.9167 608.86 37.53C608.86 38.1333 608.937 38.6217 609.09 38.995C609.247 39.3683 609.458 39.6417 609.725 39.815C609.995 39.985 610.3 40.07 610.64 40.07C611 40.07 611.298 40.0067 611.535 39.88C611.772 39.7533 611.985 39.615 612.175 39.465L612.82 40.28C612.577 40.52 612.272 40.725 611.905 40.895C611.542 41.065 611.1 41.15 610.58 41.15C609.977 41.15 609.438 41.0117 608.965 40.735C608.492 40.4583 608.12 40.0517 607.85 39.515C607.58 38.9783 607.445 38.3167 607.445 37.53C607.445 36.7567 607.583 36.1033 607.86 35.57C608.14 35.0333 608.517 34.6267 608.99 34.35C609.467 34.0733 609.997 33.935 610.58 33.935ZM616.001 35.555C616.528 35.555 616.974 35.67 617.341 35.9C617.708 36.13 617.986 36.455 618.176 36.875C618.369 37.2917 618.466 37.78 618.466 38.34C618.466 38.9133 618.369 39.41 618.176 39.83C617.983 40.25 617.703 40.575 617.336 40.805C616.969 41.035 616.523 41.15 615.996 41.15C615.473 41.15 615.026 41.0383 614.656 40.815C614.289 40.5883 614.009 40.2667 613.816 39.85C613.623 39.43 613.526 38.93 613.526 38.35C613.526 37.7967 613.623 37.31 613.816 36.89C614.009 36.47 614.291 36.1433 614.661 35.91C615.031 35.6733 615.478 35.555 616.001 35.555ZM616.001 36.55C615.631 36.55 615.354 36.695 615.171 36.985C614.991 37.275 614.901 37.73 614.901 38.35C614.901 38.9767 614.991 39.435 615.171 39.725C615.351 40.0117 615.626 40.155 615.996 40.155C616.366 40.155 616.641 40.0117 616.821 39.725C617.001 39.435 617.091 38.9733 617.091 38.34C617.091 37.7233 617.001 37.2717 616.821 36.985C616.641 36.695 616.368 36.55 616.001 36.55ZM622.317 33.59V39.46C622.317 39.69 622.384 39.8533 622.517 39.95C622.654 40.0467 622.837 40.095 623.067 40.095C623.211 40.095 623.349 40.08 623.482 40.05C623.616 40.0167 623.742 39.9767 623.862 39.93L624.187 40.83C624.021 40.9133 623.817 40.9867 623.577 41.05C623.341 41.1167 623.066 41.15 622.752 41.15C622.176 41.15 621.739 40.985 621.442 40.655C621.146 40.325 620.997 39.88 620.997 39.32V34.525H619.412V33.59H622.317ZM627.113 35.705V39.375C627.113 39.6617 627.17 39.8633 627.283 39.98C627.397 40.0967 627.562 40.155 627.778 40.155C627.985 40.155 628.187 40.0933 628.383 39.97C628.58 39.8433 628.74 39.6833 628.863 39.49V35.705H630.183V41H629.033L628.963 40.35C628.773 40.61 628.53 40.8083 628.233 40.945C627.937 41.0817 627.63 41.15 627.313 41.15C626.803 41.15 626.422 41.0067 626.168 40.72C625.918 40.43 625.793 40.035 625.793 39.535V35.705H627.113ZM635.554 35.555C635.781 35.555 635.974 35.6033 636.134 35.7C636.294 35.7933 636.418 35.9517 636.504 36.175C636.591 36.395 636.634 36.695 636.634 37.075V41H635.484V37.24C635.484 37 635.464 36.83 635.424 36.73C635.388 36.63 635.303 36.58 635.169 36.58C635.059 36.58 634.948 36.6133 634.834 36.68C634.724 36.7433 634.609 36.8583 634.489 37.025V41H633.494V37.24C633.494 37 633.474 36.83 633.434 36.73C633.398 36.63 633.313 36.58 633.179 36.58C633.066 36.58 632.954 36.6133 632.844 36.68C632.734 36.7433 632.619 36.8583 632.499 37.025V41H631.334V35.705H632.319L632.404 36.255C632.561 36.035 632.726 35.8633 632.899 35.74C633.073 35.6167 633.281 35.555 633.524 35.555C633.724 35.555 633.901 35.605 634.054 35.705C634.211 35.8017 634.323 35.9683 634.389 36.205C634.543 36.0117 634.714 35.855 634.904 35.735C635.094 35.615 635.311 35.555 635.554 35.555ZM637.785 41V35.705H638.935L639.03 36.36C639.257 36.0933 639.512 35.8933 639.795 35.76C640.079 35.6233 640.384 35.555 640.71 35.555C641.187 35.555 641.55 35.6933 641.8 35.97C642.05 36.2433 642.175 36.6283 642.175 37.125V41H640.855V37.64C640.855 37.3733 640.839 37.16 640.805 37C640.772 36.8367 640.709 36.72 640.615 36.65C640.522 36.5767 640.387 36.54 640.21 36.54C640.067 36.54 639.929 36.5717 639.795 36.635C639.665 36.6983 639.542 36.7833 639.425 36.89C639.312 36.9967 639.205 37.115 639.105 37.245V41H637.785ZM648.007 39.605C648.007 39.8083 648.037 39.9567 648.097 40.05C648.157 40.14 648.253 40.2083 648.387 40.255L648.102 41.14C647.818 41.11 647.577 41.04 647.377 40.93C647.18 40.8167 647.028 40.6483 646.922 40.425C646.722 40.6683 646.468 40.85 646.162 40.97C645.858 41.09 645.54 41.15 645.207 41.15C644.667 41.15 644.238 40.9967 643.922 40.69C643.605 40.3833 643.447 39.985 643.447 39.495C643.447 38.9317 643.667 38.4983 644.107 38.195C644.55 37.8883 645.177 37.735 645.987 37.735H646.727V37.45C646.727 37.1367 646.63 36.91 646.437 36.77C646.243 36.6267 645.965 36.555 645.602 36.555C645.432 36.555 645.218 36.5783 644.962 36.625C644.708 36.6683 644.447 36.7367 644.177 36.83L643.862 35.925C644.198 35.7983 644.537 35.705 644.877 35.645C645.22 35.585 645.532 35.555 645.812 35.555C646.555 35.555 647.107 35.7133 647.467 36.03C647.827 36.3433 648.007 36.7883 648.007 37.365V39.605ZM645.637 40.195C645.837 40.195 646.038 40.1383 646.242 40.025C646.448 39.9117 646.61 39.7533 646.727 39.55V38.52H646.207C645.717 38.52 645.362 38.5983 645.142 38.755C644.925 38.9117 644.817 39.1333 644.817 39.42C644.817 39.6667 644.887 39.8583 645.027 39.995C645.167 40.1283 645.37 40.195 645.637 40.195ZM657.969 33.935C658.765 33.935 659.367 34.25 659.774 34.88C660.18 35.5067 660.384 36.39 660.384 37.53C660.384 38.6733 660.18 39.5633 659.774 40.2C659.367 40.8333 658.765 41.15 657.969 41.15C657.169 41.15 656.565 40.8333 656.159 40.2C655.755 39.5633 655.554 38.6733 655.554 37.53C655.554 36.39 655.755 35.5067 656.159 34.88C656.565 34.25 657.169 33.935 657.969 33.935ZM657.969 34.915C657.592 34.915 657.307 35.1167 657.114 35.52C656.924 35.92 656.829 36.59 656.829 37.53C656.829 38.05 656.847 38.4817 656.884 38.825C656.924 39.165 656.989 39.4333 657.079 39.63C657.169 39.8267 657.285 39.9667 657.429 40.05C657.575 40.13 657.755 40.17 657.969 40.17C658.222 40.17 658.432 40.085 658.599 39.915C658.769 39.7417 658.895 39.4617 658.979 39.075C659.062 38.685 659.104 38.17 659.104 37.53C659.104 36.85 659.067 36.32 658.994 35.94C658.924 35.56 658.805 35.295 658.639 35.145C658.475 34.9917 658.252 34.915 657.969 34.915ZM658.834 35.14L659.174 35.96L657.204 40L656.799 39.33L658.834 35.14Z" fill="#00194E"/>
<path d="M691.58 33.935C692.06 33.935 692.467 33.9983 692.8 34.125C693.133 34.2483 693.442 34.4267 693.725 34.66L693.03 35.485C692.833 35.3183 692.617 35.1917 692.38 35.105C692.147 35.0183 691.897 34.975 691.63 34.975C691.31 34.975 691.015 35.06 690.745 35.23C690.478 35.4 690.263 35.6733 690.1 36.05C689.94 36.4233 689.86 36.9167 689.86 37.53C689.86 38.1333 689.937 38.6217 690.09 38.995C690.247 39.3683 690.458 39.6417 690.725 39.815C690.995 39.985 691.3 40.07 691.64 40.07C692 40.07 692.298 40.0067 692.535 39.88C692.772 39.7533 692.985 39.615 693.175 39.465L693.82 40.28C693.577 40.52 693.272 40.725 692.905 40.895C692.542 41.065 692.1 41.15 691.58 41.15C690.977 41.15 690.438 41.0117 689.965 40.735C689.492 40.4583 689.12 40.0517 688.85 39.515C688.58 38.9783 688.445 38.3167 688.445 37.53C688.445 36.7567 688.583 36.1033 688.86 35.57C689.14 35.0333 689.517 34.6267 689.99 34.35C690.467 34.0733 690.997 33.935 691.58 33.935ZM697.001 35.555C697.528 35.555 697.974 35.67 698.341 35.9C698.708 36.13 698.986 36.455 699.176 36.875C699.369 37.2917 699.466 37.78 699.466 38.34C699.466 38.9133 699.369 39.41 699.176 39.83C698.983 40.25 698.703 40.575 698.336 40.805C697.969 41.035 697.523 41.15 696.996 41.15C696.473 41.15 696.026 41.0383 695.656 40.815C695.289 40.5883 695.009 40.2667 694.816 39.85C694.623 39.43 694.526 38.93 694.526 38.35C694.526 37.7967 694.623 37.31 694.816 36.89C695.009 36.47 695.291 36.1433 695.661 35.91C696.031 35.6733 696.478 35.555 697.001 35.555ZM697.001 36.55C696.631 36.55 696.354 36.695 696.171 36.985C695.991 37.275 695.901 37.73 695.901 38.35C695.901 38.9767 695.991 39.435 696.171 39.725C696.351 40.0117 696.626 40.155 696.996 40.155C697.366 40.155 697.641 40.0117 697.821 39.725C698.001 39.435 698.091 38.9733 698.091 38.34C698.091 37.7233 698.001 37.2717 697.821 36.985C697.641 36.695 697.368 36.55 697.001 36.55ZM703.317 33.59V39.46C703.317 39.69 703.384 39.8533 703.517 39.95C703.654 40.0467 703.837 40.095 704.067 40.095C704.211 40.095 704.349 40.08 704.482 40.05C704.616 40.0167 704.742 39.9767 704.862 39.93L705.187 40.83C705.021 40.9133 704.817 40.9867 704.577 41.05C704.341 41.1167 704.066 41.15 703.752 41.15C703.176 41.15 702.739 40.985 702.442 40.655C702.146 40.325 701.997 39.88 701.997 39.32V34.525H700.412V33.59H703.317ZM708.113 35.705V39.375C708.113 39.6617 708.17 39.8633 708.283 39.98C708.397 40.0967 708.562 40.155 708.778 40.155C708.985 40.155 709.187 40.0933 709.383 39.97C709.58 39.8433 709.74 39.6833 709.863 39.49V35.705H711.183V41H710.033L709.963 40.35C709.773 40.61 709.53 40.8083 709.233 40.945C708.937 41.0817 708.63 41.15 708.313 41.15C707.803 41.15 707.422 41.0067 707.168 40.72C706.918 40.43 706.793 40.035 706.793 39.535V35.705H708.113ZM716.554 35.555C716.781 35.555 716.974 35.6033 717.134 35.7C717.294 35.7933 717.418 35.9517 717.504 36.175C717.591 36.395 717.634 36.695 717.634 37.075V41H716.484V37.24C716.484 37 716.464 36.83 716.424 36.73C716.388 36.63 716.303 36.58 716.169 36.58C716.059 36.58 715.948 36.6133 715.834 36.68C715.724 36.7433 715.609 36.8583 715.489 37.025V41H714.494V37.24C714.494 37 714.474 36.83 714.434 36.73C714.398 36.63 714.313 36.58 714.179 36.58C714.066 36.58 713.954 36.6133 713.844 36.68C713.734 36.7433 713.619 36.8583 713.499 37.025V41H712.334V35.705H713.319L713.404 36.255C713.561 36.035 713.726 35.8633 713.899 35.74C714.073 35.6167 714.281 35.555 714.524 35.555C714.724 35.555 714.901 35.605 715.054 35.705C715.211 35.8017 715.323 35.9683 715.389 36.205C715.543 36.0117 715.714 35.855 715.904 35.735C716.094 35.615 716.311 35.555 716.554 35.555ZM718.785 41V35.705H719.935L720.03 36.36C720.257 36.0933 720.512 35.8933 720.795 35.76C721.079 35.6233 721.384 35.555 721.71 35.555C722.187 35.555 722.55 35.6933 722.8 35.97C723.05 36.2433 723.175 36.6283 723.175 37.125V41H721.855V37.64C721.855 37.3733 721.839 37.16 721.805 37C721.772 36.8367 721.709 36.72 721.615 36.65C721.522 36.5767 721.387 36.54 721.21 36.54C721.067 36.54 720.929 36.5717 720.795 36.635C720.665 36.6983 720.542 36.7833 720.425 36.89C720.312 36.9967 720.205 37.115 720.105 37.245V41H718.785ZM729.007 39.605C729.007 39.8083 729.037 39.9567 729.097 40.05C729.157 40.14 729.253 40.2083 729.387 40.255L729.102 41.14C728.818 41.11 728.577 41.04 728.377 40.93C728.18 40.8167 728.028 40.6483 727.922 40.425C727.722 40.6683 727.468 40.85 727.162 40.97C726.858 41.09 726.54 41.15 726.207 41.15C725.667 41.15 725.238 40.9967 724.922 40.69C724.605 40.3833 724.447 39.985 724.447 39.495C724.447 38.9317 724.667 38.4983 725.107 38.195C725.55 37.8883 726.177 37.735 726.987 37.735H727.727V37.45C727.727 37.1367 727.63 36.91 727.437 36.77C727.243 36.6267 726.965 36.555 726.602 36.555C726.432 36.555 726.218 36.5783 725.962 36.625C725.708 36.6683 725.447 36.7367 725.177 36.83L724.862 35.925C725.198 35.7983 725.537 35.705 725.877 35.645C726.22 35.585 726.532 35.555 726.812 35.555C727.555 35.555 728.107 35.7133 728.467 36.03C728.827 36.3433 729.007 36.7883 729.007 37.365V39.605ZM726.637 40.195C726.837 40.195 727.038 40.1383 727.242 40.025C727.448 39.9117 727.61 39.7533 727.727 39.55V38.52H727.207C726.717 38.52 726.362 38.5983 726.142 38.755C725.925 38.9117 725.817 39.1333 725.817 39.42C725.817 39.6667 725.887 39.8583 726.027 39.995C726.167 40.1283 726.37 40.195 726.637 40.195ZM740.014 34.085V40.8H738.719V35.415L737.244 36.33L736.679 35.415L738.849 34.085H740.014ZM741.359 39.985V41H737.044V39.985H741.359Z" fill="#00194E"/>
<path d="M772.58 33.935C773.06 33.935 773.467 33.9983 773.8 34.125C774.133 34.2483 774.442 34.4267 774.725 34.66L774.03 35.485C773.833 35.3183 773.617 35.1917 773.38 35.105C773.147 35.0183 772.897 34.975 772.63 34.975C772.31 34.975 772.015 35.06 771.745 35.23C771.478 35.4 771.263 35.6733 771.1 36.05C770.94 36.4233 770.86 36.9167 770.86 37.53C770.86 38.1333 770.937 38.6217 771.09 38.995C771.247 39.3683 771.458 39.6417 771.725 39.815C771.995 39.985 772.3 40.07 772.64 40.07C773 40.07 773.298 40.0067 773.535 39.88C773.772 39.7533 773.985 39.615 774.175 39.465L774.82 40.28C774.577 40.52 774.272 40.725 773.905 40.895C773.542 41.065 773.1 41.15 772.58 41.15C771.977 41.15 771.438 41.0117 770.965 40.735C770.492 40.4583 770.12 40.0517 769.85 39.515C769.58 38.9783 769.445 38.3167 769.445 37.53C769.445 36.7567 769.583 36.1033 769.86 35.57C770.14 35.0333 770.517 34.6267 770.99 34.35C771.467 34.0733 771.997 33.935 772.58 33.935ZM778.001 35.555C778.528 35.555 778.974 35.67 779.341 35.9C779.708 36.13 779.986 36.455 780.176 36.875C780.369 37.2917 780.466 37.78 780.466 38.34C780.466 38.9133 780.369 39.41 780.176 39.83C779.983 40.25 779.703 40.575 779.336 40.805C778.969 41.035 778.523 41.15 777.996 41.15C777.473 41.15 777.026 41.0383 776.656 40.815C776.289 40.5883 776.009 40.2667 775.816 39.85C775.623 39.43 775.526 38.93 775.526 38.35C775.526 37.7967 775.623 37.31 775.816 36.89C776.009 36.47 776.291 36.1433 776.661 35.91C777.031 35.6733 777.478 35.555 778.001 35.555ZM778.001 36.55C777.631 36.55 777.354 36.695 777.171 36.985C776.991 37.275 776.901 37.73 776.901 38.35C776.901 38.9767 776.991 39.435 777.171 39.725C777.351 40.0117 777.626 40.155 777.996 40.155C778.366 40.155 778.641 40.0117 778.821 39.725C779.001 39.435 779.091 38.9733 779.091 38.34C779.091 37.7233 779.001 37.2717 778.821 36.985C778.641 36.695 778.368 36.55 778.001 36.55ZM784.317 33.59V39.46C784.317 39.69 784.384 39.8533 784.517 39.95C784.654 40.0467 784.837 40.095 785.067 40.095C785.211 40.095 785.349 40.08 785.482 40.05C785.616 40.0167 785.742 39.9767 785.862 39.93L786.187 40.83C786.021 40.9133 785.817 40.9867 785.577 41.05C785.341 41.1167 785.066 41.15 784.752 41.15C784.176 41.15 783.739 40.985 783.442 40.655C783.146 40.325 782.997 39.88 782.997 39.32V34.525H781.412V33.59H784.317ZM789.113 35.705V39.375C789.113 39.6617 789.17 39.8633 789.283 39.98C789.397 40.0967 789.562 40.155 789.778 40.155C789.985 40.155 790.187 40.0933 790.383 39.97C790.58 39.8433 790.74 39.6833 790.863 39.49V35.705H792.183V41H791.033L790.963 40.35C790.773 40.61 790.53 40.8083 790.233 40.945C789.937 41.0817 789.63 41.15 789.313 41.15C788.803 41.15 788.422 41.0067 788.168 40.72C787.918 40.43 787.793 40.035 787.793 39.535V35.705H789.113ZM797.554 35.555C797.781 35.555 797.974 35.6033 798.134 35.7C798.294 35.7933 798.418 35.9517 798.504 36.175C798.591 36.395 798.634 36.695 798.634 37.075V41H797.484V37.24C797.484 37 797.464 36.83 797.424 36.73C797.388 36.63 797.303 36.58 797.169 36.58C797.059 36.58 796.948 36.6133 796.834 36.68C796.724 36.7433 796.609 36.8583 796.489 37.025V41H795.494V37.24C795.494 37 795.474 36.83 795.434 36.73C795.398 36.63 795.313 36.58 795.179 36.58C795.066 36.58 794.954 36.6133 794.844 36.68C794.734 36.7433 794.619 36.8583 794.499 37.025V41H793.334V35.705H794.319L794.404 36.255C794.561 36.035 794.726 35.8633 794.899 35.74C795.073 35.6167 795.281 35.555 795.524 35.555C795.724 35.555 795.901 35.605 796.054 35.705C796.211 35.8017 796.323 35.9683 796.389 36.205C796.543 36.0117 796.714 35.855 796.904 35.735C797.094 35.615 797.311 35.555 797.554 35.555ZM799.785 41V35.705H800.935L801.03 36.36C801.257 36.0933 801.512 35.8933 801.795 35.76C802.079 35.6233 802.384 35.555 802.71 35.555C803.187 35.555 803.55 35.6933 803.8 35.97C804.05 36.2433 804.175 36.6283 804.175 37.125V41H802.855V37.64C802.855 37.3733 802.839 37.16 802.805 37C802.772 36.8367 802.709 36.72 802.615 36.65C802.522 36.5767 802.387 36.54 802.21 36.54C802.067 36.54 801.929 36.5717 801.795 36.635C801.665 36.6983 801.542 36.7833 801.425 36.89C801.312 36.9967 801.205 37.115 801.105 37.245V41H799.785ZM810.007 39.605C810.007 39.8083 810.037 39.9567 810.097 40.05C810.157 40.14 810.253 40.2083 810.387 40.255L810.102 41.14C809.818 41.11 809.577 41.04 809.377 40.93C809.18 40.8167 809.028 40.6483 808.922 40.425C808.722 40.6683 808.468 40.85 808.162 40.97C807.858 41.09 807.54 41.15 807.207 41.15C806.667 41.15 806.238 40.9967 805.922 40.69C805.605 40.3833 805.447 39.985 805.447 39.495C805.447 38.9317 805.667 38.4983 806.107 38.195C806.55 37.8883 807.177 37.735 807.987 37.735H808.727V37.45C808.727 37.1367 808.63 36.91 808.437 36.77C808.243 36.6267 807.965 36.555 807.602 36.555C807.432 36.555 807.218 36.5783 806.962 36.625C806.708 36.6683 806.447 36.7367 806.177 36.83L805.862 35.925C806.198 35.7983 806.537 35.705 806.877 35.645C807.22 35.585 807.532 35.555 807.812 35.555C808.555 35.555 809.107 35.7133 809.467 36.03C809.827 36.3433 810.007 36.7883 810.007 37.365V39.605ZM807.637 40.195C807.837 40.195 808.038 40.1383 808.242 40.025C808.448 39.9117 808.61 39.7533 808.727 39.55V38.52H808.207C807.717 38.52 807.362 38.5983 807.142 38.755C806.925 38.9117 806.817 39.1333 806.817 39.42C806.817 39.6667 806.887 39.8583 807.027 39.995C807.167 40.1283 807.37 40.195 807.637 40.195ZM819.704 33.935C820.2 33.935 820.617 34.0233 820.954 34.2C821.294 34.3767 821.55 34.615 821.724 34.915C821.897 35.2117 821.984 35.5383 821.984 35.895C821.984 36.1883 821.934 36.475 821.834 36.755C821.734 37.035 821.57 37.33 821.344 37.64C821.12 37.95 820.824 38.295 820.454 38.675C820.084 39.0517 819.627 39.4817 819.084 39.965H822.144L821.999 41H817.574V40.035C818.05 39.575 818.462 39.17 818.809 38.82C819.155 38.4667 819.445 38.155 819.679 37.885C819.915 37.615 820.102 37.3733 820.239 37.16C820.379 36.9433 820.479 36.7417 820.539 36.555C820.599 36.3683 820.629 36.1817 820.629 35.995C820.629 35.6783 820.537 35.4283 820.354 35.245C820.174 35.0617 819.92 34.97 819.594 34.97C819.304 34.97 819.057 35.0267 818.854 35.14C818.654 35.25 818.457 35.43 818.264 35.68L817.434 35.05C817.697 34.6967 818.01 34.4233 818.374 34.23C818.737 34.0333 819.18 33.935 819.704 33.935Z" fill="#00194E"/>
</svg>
