<svg width="1400" height="202" viewBox="0 0 1400 202" fill="none" xmlns="http://www.w3.org/2000/svg">
<rect width="1400" height="202" fill="white"/>
<path d="M42.0992 97V83.1927H45.0979L45.3457 84.9007C45.9367 84.2053 46.6017 83.6838 47.3405 83.3361C48.0793 82.9797 48.8746 82.8015 49.7265 82.8015C50.9694 82.8015 51.9168 83.1622 52.5688 83.8837C53.2207 84.5964 53.5466 85.6004 53.5466 86.8955V97H50.1046V88.2384C50.1046 87.543 50.0611 86.9868 49.9742 86.5695C49.8873 86.1436 49.7221 85.8394 49.4787 85.6569C49.2353 85.4656 48.8833 85.37 48.4226 85.37C48.0489 85.37 47.6882 85.4526 47.3405 85.6178C47.0015 85.7829 46.6799 86.0046 46.3757 86.2827C46.0801 86.5608 45.802 86.8694 45.5412 87.2084V97H42.0992ZM64.8665 82.8015C66.0834 82.8015 67.0569 83.1014 67.787 83.7012C68.5259 84.2922 69.0604 85.131 69.3907 86.2175C69.7297 87.304 69.8992 88.5861 69.8992 90.0637C69.8992 91.4805 69.695 92.7409 69.2864 93.8448C68.8779 94.9487 68.2781 95.8179 67.4872 96.4524C66.7049 97.0782 65.7401 97.3911 64.5927 97.3911C63.1846 97.3911 62.0459 96.8913 61.1767 95.8918V102.32L57.7347 102.685V83.1927H60.7595L60.9421 84.8746C61.4897 84.1618 62.1024 83.6403 62.7804 83.31C63.4584 82.971 64.1538 82.8015 64.8665 82.8015ZM63.8626 85.3831C63.2802 85.3831 62.7674 85.5569 62.3241 85.9046C61.8895 86.2523 61.507 86.6825 61.1767 87.1954V93.3754C61.4897 93.8448 61.846 94.1968 62.2459 94.4315C62.6457 94.6662 63.0977 94.7835 63.6018 94.7835C64.4797 94.7835 65.149 94.4185 65.6097 93.6883C66.0791 92.9495 66.3137 91.7543 66.3137 90.1029C66.3137 88.9381 66.2181 88.0124 66.0269 87.3257C65.8444 86.6304 65.5706 86.1349 65.2055 85.8394C64.8404 85.5352 64.3928 85.3831 63.8626 85.3831ZM76.395 94.6923C76.395 94.2055 76.5124 93.7579 76.7471 93.3493C76.9904 92.9408 77.3164 92.6149 77.7249 92.3715C78.1334 92.1281 78.5854 92.0064 79.0809 92.0064C79.585 92.0064 80.0413 92.1281 80.4499 92.3715C80.8584 92.6149 81.18 92.9408 81.4147 93.3493C81.6581 93.7579 81.7798 94.2055 81.7798 94.6923C81.7798 95.179 81.6581 95.631 81.4147 96.0482C81.18 96.4567 80.8584 96.7827 80.4499 97.0261C80.0413 97.2695 79.585 97.3911 79.0809 97.3911C78.5854 97.3911 78.1334 97.2695 77.7249 97.0261C77.3164 96.7827 76.9904 96.4567 76.7471 96.0482C76.5124 95.631 76.395 95.179 76.395 94.6923ZM100.023 93.3624C100.023 93.8926 100.101 94.2794 100.258 94.5228C100.414 94.7575 100.666 94.9356 101.014 95.0573L100.271 97.3651C99.5318 97.2868 98.9016 97.1043 98.3801 96.8175C97.8673 96.5219 97.4718 96.083 97.1936 95.5006C96.6721 96.1351 96.0115 96.6089 95.2118 96.9218C94.4209 97.2347 93.5908 97.3911 92.7216 97.3911C91.3134 97.3911 90.1965 96.9913 89.3708 96.1916C88.545 95.392 88.1322 94.3533 88.1322 93.0755C88.1322 91.6066 88.7058 90.4766 89.8532 89.6856C91.0092 88.886 92.6433 88.4861 94.7555 88.4861H96.6851V87.743C96.6851 86.9259 96.4331 86.3349 95.9289 85.9698C95.4248 85.596 94.699 85.4091 93.7516 85.4091C93.3083 85.4091 92.752 85.47 92.0827 85.5917C91.4221 85.7047 90.7398 85.8829 90.0357 86.1262L89.2143 83.7663C90.0922 83.436 90.9745 83.1927 91.861 83.0362C92.7563 82.8798 93.569 82.8015 94.2992 82.8015C96.2375 82.8015 97.676 83.2144 98.6148 84.0401C99.5535 84.8572 100.023 86.0176 100.023 87.5213V93.3624ZM93.8428 94.9009C94.3644 94.9009 94.8902 94.7531 95.4204 94.4576C95.9593 94.162 96.3809 93.7492 96.6851 93.219V90.5331H95.3292C94.0514 90.5331 93.1257 90.7374 92.5521 91.1459C91.9871 91.5544 91.7046 92.1324 91.7046 92.88C91.7046 93.5232 91.8871 94.023 92.2522 94.3793C92.6173 94.727 93.1475 94.9009 93.8428 94.9009ZM104.772 97V94.614H106.714V85.5656H104.772V83.1927H109.335L109.974 86.3609C110.478 85.1875 111.112 84.3053 111.877 83.7142C112.642 83.1144 113.603 82.8146 114.759 82.8146C115.202 82.8146 115.593 82.8493 115.932 82.9189C116.28 82.9884 116.61 83.0797 116.923 83.1927L115.893 86.0871C115.624 86.0176 115.367 85.9654 115.124 85.9307C114.88 85.8872 114.607 85.8655 114.302 85.8655C113.346 85.8655 112.512 86.2392 111.799 86.9868C111.095 87.7256 110.547 88.7295 110.156 89.9986V94.614H112.907V97H104.772ZM114.016 88.5774V84.9137L114.485 83.1927H116.923L116.31 88.5774H114.016ZM131.294 93.3624C131.294 93.8926 131.372 94.2794 131.529 94.5228C131.685 94.7575 131.937 94.9356 132.285 95.0573L131.542 97.3651C130.803 97.2868 130.173 97.1043 129.651 96.8175C129.138 96.5219 128.743 96.083 128.465 95.5006C127.943 96.1351 127.283 96.6089 126.483 96.9218C125.692 97.2347 124.862 97.3911 123.993 97.3911C122.584 97.3911 121.468 96.9913 120.642 96.1916C119.816 95.392 119.403 94.3533 119.403 93.0755C119.403 91.6066 119.977 90.4766 121.124 89.6856C122.28 88.886 123.914 88.4861 126.027 88.4861H127.956V87.743C127.956 86.9259 127.704 86.3349 127.2 85.9698C126.696 85.596 125.97 85.4091 125.023 85.4091C124.579 85.4091 124.023 85.47 123.354 85.5917C122.693 85.7047 122.011 85.8829 121.307 86.1262L120.485 83.7663C121.363 83.436 122.245 83.1927 123.132 83.0362C124.027 82.8798 124.84 82.8015 125.57 82.8015C127.509 82.8015 128.947 83.2144 129.886 84.0401C130.825 84.8572 131.294 86.0176 131.294 87.5213V93.3624ZM125.114 94.9009C125.635 94.9009 126.161 94.7531 126.691 94.4576C127.23 94.162 127.652 93.7492 127.956 93.219V90.5331H126.6C125.322 90.5331 124.397 90.7374 123.823 91.1459C123.258 91.5544 122.976 92.1324 122.976 92.88C122.976 93.5232 123.158 94.023 123.523 94.3793C123.888 94.727 124.418 94.9009 125.114 94.9009ZM135.912 97V83.1927H138.911L139.159 84.9007C139.75 84.2053 140.415 83.6838 141.154 83.3361C141.892 82.9797 142.688 82.8015 143.54 82.8015C144.782 82.8015 145.73 83.1622 146.382 83.8837C147.034 84.5964 147.36 85.6004 147.36 86.8955V97H143.918V88.2384C143.918 87.543 143.874 86.9868 143.787 86.5695C143.7 86.1436 143.535 85.8394 143.292 85.6569C143.048 85.4656 142.696 85.37 142.236 85.37C141.862 85.37 141.501 85.4526 141.154 85.6178C140.815 85.7829 140.493 86.0046 140.189 86.2827C139.893 86.5608 139.615 86.8694 139.354 87.2084V97H135.912ZM163.452 81.25L164.312 83.9358C163.791 84.1184 163.204 84.2488 162.552 84.327C161.9 84.3965 161.152 84.4313 160.309 84.4313C161.152 84.7964 161.791 85.2614 162.226 85.8264C162.669 86.3827 162.891 87.0911 162.891 87.9516C162.891 88.8469 162.661 89.6465 162.2 90.3506C161.748 91.0546 161.1 91.6066 160.257 92.0064C159.423 92.4062 158.428 92.6062 157.271 92.6062C156.915 92.6062 156.598 92.5888 156.32 92.554C156.042 92.5192 155.772 92.4714 155.511 92.4106C155.337 92.5062 155.203 92.6453 155.107 92.8278C155.012 93.0103 154.964 93.1972 154.964 93.3885C154.964 93.6492 155.064 93.8752 155.264 94.0664C155.472 94.249 155.916 94.3402 156.593 94.3402H158.94C159.957 94.3402 160.848 94.5141 161.613 94.8618C162.387 95.2007 162.986 95.6614 163.412 96.2438C163.847 96.8262 164.064 97.4954 164.064 98.2517C164.064 99.6424 163.46 100.729 162.252 101.511C161.044 102.293 159.279 102.685 156.959 102.685C155.298 102.685 154.003 102.515 153.073 102.176C152.152 101.837 151.504 101.342 151.131 100.69C150.757 100.047 150.57 99.2686 150.57 98.356H153.634C153.634 98.7993 153.721 99.1643 153.895 99.4512C154.077 99.738 154.412 99.951 154.899 100.09C155.394 100.229 156.102 100.299 157.024 100.299C157.945 100.299 158.667 100.225 159.188 100.077C159.718 99.9292 160.092 99.7163 160.309 99.4381C160.527 99.1687 160.635 98.8514 160.635 98.4863C160.635 97.9909 160.427 97.6041 160.009 97.326C159.592 97.0478 159.001 96.9087 158.236 96.9087H155.955C154.564 96.9087 153.551 96.6393 152.917 96.1004C152.282 95.5528 151.965 94.9226 151.965 94.2099C151.965 93.7231 152.095 93.2581 152.356 92.8148C152.626 92.3628 153.008 91.9803 153.503 91.6674C152.652 91.2154 152.034 90.6765 151.652 90.0507C151.278 89.4162 151.091 88.6513 151.091 87.756C151.091 86.7564 151.343 85.8872 151.848 85.1484C152.352 84.4096 153.051 83.8359 153.947 83.4274C154.842 83.0188 155.872 82.8146 157.037 82.8146C158.106 82.8233 159.014 82.7581 159.762 82.619C160.518 82.4799 161.183 82.2887 161.757 82.0453C162.339 81.8019 162.904 81.5368 163.452 81.25ZM157.102 85.1093C156.285 85.1093 155.659 85.3483 155.224 85.8264C154.799 86.3044 154.586 86.9389 154.586 87.7299C154.586 88.547 154.807 89.1945 155.251 89.6726C155.694 90.1507 156.315 90.3897 157.115 90.3897C157.906 90.3897 158.506 90.1594 158.914 89.6987C159.331 89.2293 159.54 88.56 159.54 87.6908C159.54 86.8216 159.331 86.174 158.914 85.7481C158.506 85.3222 157.902 85.1093 157.102 85.1093ZM170.117 91.1459C170.186 92.0064 170.382 92.7061 170.704 93.245C171.034 93.7839 171.455 94.1794 171.968 94.4315C172.481 94.6836 173.05 94.8096 173.676 94.8096C174.337 94.8096 174.958 94.7053 175.541 94.4967C176.123 94.2881 176.697 93.9969 177.262 93.6231L178.696 95.5919C178.053 96.1308 177.283 96.5654 176.388 96.8957C175.502 97.226 174.524 97.3911 173.455 97.3911C171.96 97.3911 170.699 97.0826 169.674 96.4654C168.657 95.8483 167.887 94.9921 167.366 93.8969C166.844 92.8017 166.584 91.5414 166.584 90.1159C166.584 88.7425 166.84 87.5039 167.353 86.4C167.866 85.2961 168.604 84.4226 169.569 83.7794C170.534 83.1275 171.699 82.8015 173.063 82.8015C174.332 82.8015 175.428 83.0797 176.349 83.636C177.27 84.1923 177.983 84.9919 178.487 86.035C178.991 87.0693 179.243 88.3166 179.243 89.7769C179.243 90.0116 179.235 90.2506 179.217 90.494C179.209 90.7374 179.196 90.9547 179.178 91.1459H170.117ZM173.076 85.2266C172.242 85.2266 171.555 85.5265 171.016 86.1262C170.486 86.7173 170.173 87.656 170.078 88.9425H175.893C175.875 87.7777 175.632 86.8694 175.163 86.2175C174.702 85.5569 174.007 85.2266 173.076 85.2266ZM187.069 87.8733C187.069 89.0468 187.165 90.1202 187.356 91.0937C187.547 92.0586 187.847 92.9756 188.256 93.8448C188.664 94.7053 189.194 95.5615 189.846 96.4133C190.507 97.2651 191.307 98.1691 192.245 99.1252L190.29 100.951C188.899 99.7771 187.699 98.5515 186.691 97.2738C185.691 95.9961 184.918 94.5923 184.37 93.0625C183.831 91.5327 183.562 89.803 183.562 87.8733C183.562 85.9437 183.831 84.214 184.37 82.6842C184.918 81.1457 185.691 79.7419 186.691 78.4729C187.699 77.1952 188.899 75.9696 190.29 74.7961L192.245 76.6215C191.35 77.5341 190.576 78.4164 189.925 79.2682C189.273 80.12 188.734 80.9849 188.308 81.8628C187.891 82.732 187.578 83.6577 187.369 84.6399C187.169 85.6134 187.069 86.6912 187.069 87.8733ZM219.814 92.0064C220.552 92.0064 221.165 92.2541 221.652 92.7496C222.147 93.245 222.395 93.8535 222.395 94.5749C222.395 95.0182 222.321 95.4659 222.173 95.9178C222.026 96.3611 221.8 96.9305 221.495 97.6258L219.527 102.085H217.049L218.353 96.6871C218.006 96.4524 217.736 96.1482 217.545 95.7744C217.354 95.4007 217.258 94.9965 217.258 94.5619C217.258 93.8404 217.501 93.2363 217.988 92.7496C218.475 92.2541 219.083 92.0064 219.814 92.0064ZM282.356 92.0064C283.094 92.0064 283.707 92.2541 284.194 92.7496C284.689 93.245 284.937 93.8535 284.937 94.5749C284.937 95.0182 284.863 95.4659 284.715 95.9178C284.568 96.3611 284.342 96.9305 284.037 97.6258L282.069 102.085H279.591L280.895 96.6871C280.548 96.4524 280.278 96.1482 280.087 95.7744C279.896 95.4007 279.8 94.9965 279.8 94.5619C279.8 93.8404 280.043 93.2363 280.53 92.7496C281.017 92.2541 281.625 92.0064 282.356 92.0064ZM330.735 87.8733C330.735 86.6912 330.631 85.6134 330.422 84.6399C330.223 83.6577 329.91 82.732 329.484 81.8628C329.066 80.9849 328.532 80.12 327.88 79.2682C327.228 78.4164 326.455 77.5341 325.559 76.6215L327.515 74.7961C328.906 75.9696 330.101 77.1952 331.1 78.4729C332.109 79.7419 332.882 81.1457 333.421 82.6842C333.969 84.214 334.243 85.9437 334.243 87.8733C334.243 89.803 333.969 91.5327 333.421 93.0625C332.882 94.5923 332.109 95.9961 331.1 97.2738C330.101 98.5515 328.906 99.7771 327.515 100.951L325.559 99.1252C326.498 98.1691 327.293 97.2651 327.945 96.4133C328.606 95.5615 329.14 94.7053 329.549 93.8448C329.957 92.9756 330.257 92.0586 330.449 91.0937C330.64 90.1202 330.735 89.0468 330.735 87.8733Z" fill="black"/>
<path d="M204.178 78.5772C206.255 78.5772 207.824 79.3986 208.885 81.0414C209.945 82.6755 210.475 84.9789 210.475 87.9516C210.475 90.9329 209.945 93.2537 208.885 94.9139C207.824 96.5654 206.255 97.3911 204.178 97.3911C202.092 97.3911 200.519 96.5654 199.458 94.9139C198.406 93.2537 197.881 90.9329 197.881 87.9516C197.881 84.9789 198.406 82.6755 199.458 81.0414C200.519 79.3986 202.092 78.5772 204.178 78.5772ZM204.178 81.1327C203.196 81.1327 202.453 81.6585 201.948 82.7103C201.453 83.7533 201.205 85.5004 201.205 87.9516C201.205 89.3075 201.253 90.4332 201.349 91.3284C201.453 92.215 201.623 92.9147 201.857 93.4276C202.092 93.9404 202.396 94.3055 202.77 94.5228C203.152 94.7314 203.622 94.8357 204.178 94.8357C204.839 94.8357 205.386 94.614 205.821 94.1707C206.264 93.7187 206.594 92.9886 206.812 91.9803C207.029 90.9634 207.138 89.6204 207.138 87.9516C207.138 86.1784 207.042 84.7964 206.851 83.8055C206.668 82.8146 206.36 82.1236 205.925 81.7324C205.499 81.3326 204.917 81.1327 204.178 81.1327ZM206.434 81.7194L207.32 83.8576L202.183 94.3924L201.127 92.6453L206.434 81.7194Z" fill="#027D47"/>
<path d="M253.809 78.9683V96.4785H250.433V82.4365L246.586 84.8224L245.113 82.4365L250.772 78.9683H253.809ZM257.317 94.3533V97H246.065V94.3533H257.317ZM266.72 78.5772C268.797 78.5772 270.366 79.3986 271.427 81.0414C272.487 82.6755 273.017 84.9789 273.017 87.9516C273.017 90.9329 272.487 93.2537 271.427 94.9139C270.366 96.5654 268.797 97.3911 266.72 97.3911C264.634 97.3911 263.061 96.5654 262 94.9139C260.949 93.2537 260.423 90.9329 260.423 87.9516C260.423 84.9789 260.949 82.6755 262 81.0414C263.061 79.3986 264.634 78.5772 266.72 78.5772ZM266.72 81.1327C265.738 81.1327 264.995 81.6585 264.491 82.7103C263.995 83.7533 263.747 85.5004 263.747 87.9516C263.747 89.3075 263.795 90.4332 263.891 91.3284C263.995 92.215 264.165 92.9147 264.399 93.4276C264.634 93.9404 264.938 94.3055 265.312 94.5228C265.694 94.7314 266.164 94.8357 266.72 94.8357C267.381 94.8357 267.928 94.614 268.363 94.1707C268.806 93.7187 269.136 92.9886 269.354 91.9803C269.571 90.9634 269.68 89.6204 269.68 87.9516C269.68 86.1784 269.584 84.7964 269.393 83.8055C269.21 82.8146 268.902 82.1236 268.467 81.7324C268.041 81.3326 267.459 81.1327 266.72 81.1327ZM268.976 81.7194L269.862 83.8576L264.725 94.3924L263.669 92.6453L268.976 81.7194Z" fill="#8B0101"/>
<path d="M312.936 78.5772C314.231 78.5772 315.317 78.8075 316.195 79.2682C317.082 79.7289 317.751 80.3504 318.203 81.1327C318.655 81.9062 318.881 82.7581 318.881 83.6881C318.881 84.453 318.751 85.2005 318.49 85.9307C318.229 86.6608 317.803 87.43 317.212 88.2384C316.63 89.0468 315.856 89.9464 314.891 90.9373C313.926 91.9195 312.736 93.0408 311.319 94.3011H319.298L318.92 97H307.381V94.4837C308.624 93.2841 309.698 92.2281 310.602 91.3154C311.506 90.394 312.262 89.5813 312.87 88.8773C313.487 88.1732 313.974 87.543 314.331 86.9868C314.696 86.4218 314.956 85.8959 315.113 85.4091C315.269 84.9224 315.348 84.4356 315.348 83.9489C315.348 83.1231 315.109 82.4712 314.631 81.9932C314.161 81.5151 313.501 81.2761 312.649 81.2761C311.893 81.2761 311.249 81.4238 310.719 81.7194C310.198 82.0062 309.685 82.4756 309.181 83.1275L307.016 81.4847C307.703 80.5633 308.52 79.8506 309.467 79.3464C310.415 78.8336 311.571 78.5772 312.936 78.5772Z" fill="#0037AC"/>
<path d="M395.795 92.0215L404.487 97.0399L404.487 87.0032L395.795 92.0215ZM1360.61 92.0216L1351.92 87.0033L1351.92 97.04L1360.61 92.0216ZM403.618 92.0215L403.618 92.8908L1352.79 92.8908L1352.79 92.0216L1352.79 91.1524L403.618 91.1523L403.618 92.0215Z" fill="black"/>
<line x1="426.217" y1="80.7219" x2="426.217" y2="103.321" stroke="black" stroke-width="1.73841"/>
<line x1="686.978" y1="80.7219" x2="686.978" y2="103.321" stroke="black" stroke-width="1.73841"/>
<line x1="947.74" y1="80.7219" x2="947.74" y2="103.321" stroke="black" stroke-width="1.73841"/>
<line x1="513.137" y1="80.7219" x2="513.137" y2="103.321" stroke="black" stroke-width="1.73841"/>
<line x1="773.899" y1="80.7219" x2="773.899" y2="103.321" stroke="black" stroke-width="1.73841"/>
<line x1="1034.66" y1="80.7219" x2="1034.66" y2="103.321" stroke="black" stroke-width="1.73841"/>
<line x1="600.058" y1="80.7219" x2="600.058" y2="103.321" stroke="black" stroke-width="1.73841"/>
<line x1="860.82" y1="80.7219" x2="860.82" y2="103.321" stroke="black" stroke-width="1.73841"/>
<line x1="1121.58" y1="80.7219" x2="1121.58" y2="103.321" stroke="black" stroke-width="1.73841"/>
<line x1="1208.5" y1="80.7219" x2="1208.5" y2="103.321" stroke="black" stroke-width="1.73841"/>
<line x1="1295.42" y1="80.7219" x2="1295.42" y2="103.321" stroke="black" stroke-width="1.73841"/>
<path d="M426.217 109.16C428.294 109.16 429.863 109.981 430.924 111.624C431.984 113.258 432.514 115.562 432.514 118.534C432.514 121.516 431.984 123.836 430.924 125.497C429.863 127.148 428.294 127.974 426.217 127.974C424.131 127.974 422.558 127.148 421.497 125.497C420.445 123.836 419.919 121.516 419.919 118.534C419.919 115.562 420.445 113.258 421.497 111.624C422.558 109.981 424.131 109.16 426.217 109.16ZM426.217 111.715C425.235 111.715 424.491 112.241 423.987 113.293C423.492 114.336 423.244 116.083 423.244 118.534C423.244 119.89 423.292 121.016 423.388 121.911C423.492 122.798 423.661 123.497 423.896 124.01C424.131 124.523 424.435 124.888 424.809 125.106C425.191 125.314 425.661 125.418 426.217 125.418C426.877 125.418 427.425 125.197 427.86 124.754C428.303 124.302 428.633 123.571 428.851 122.563C429.068 121.546 429.177 120.203 429.177 118.534C429.177 116.761 429.081 115.379 428.89 114.388C428.707 113.397 428.399 112.706 427.964 112.315C427.538 111.915 426.956 111.715 426.217 111.715ZM428.472 112.302L429.359 114.44L424.222 124.975L423.166 123.228L428.472 112.302Z" fill="#4D4D4D"/>
<path d="M515.862 109.551V127.061H512.485V113.019L508.639 115.405L507.166 113.019L512.824 109.551H515.862ZM519.37 124.936V127.583H508.118V124.936H519.37Z" fill="#4D4D4D"/>
<path d="M599.367 109.16C600.662 109.16 601.749 109.39 602.626 109.851C603.513 110.312 604.182 110.933 604.634 111.715C605.086 112.489 605.312 113.341 605.312 114.271C605.312 115.036 605.182 115.783 604.921 116.513C604.66 117.244 604.234 118.013 603.643 118.821C603.061 119.63 602.287 120.529 601.323 121.52C600.358 122.502 599.167 123.624 597.75 124.884H605.73L605.351 127.583H593.813V125.066C595.056 123.867 596.129 122.811 597.033 121.898C597.937 120.977 598.693 120.164 599.302 119.46C599.919 118.756 600.406 118.126 600.762 117.57C601.127 117.005 601.388 116.479 601.544 115.992C601.701 115.505 601.779 115.018 601.779 114.532C601.779 113.706 601.54 113.054 601.062 112.576C600.593 112.098 599.932 111.859 599.08 111.859C598.324 111.859 597.681 112.007 597.15 112.302C596.629 112.589 596.116 113.058 595.612 113.71L593.448 112.067C594.134 111.146 594.951 110.433 595.899 109.929C596.846 109.416 598.002 109.16 599.367 109.16Z" fill="#4D4D4D"/>
<path d="M687.961 109.16C689.204 109.16 690.264 109.369 691.142 109.786C692.029 110.194 692.707 110.746 693.176 111.442C693.645 112.137 693.88 112.902 693.88 113.736C693.88 114.484 693.724 115.149 693.411 115.731C693.106 116.305 692.68 116.783 692.133 117.165C691.594 117.548 690.968 117.83 690.255 118.013C691.046 118.108 691.755 118.326 692.381 118.665C693.015 118.995 693.519 119.473 693.893 120.099C694.267 120.716 694.454 121.507 694.454 122.472C694.454 123.489 694.18 124.415 693.632 125.249C693.085 126.083 692.307 126.748 691.298 127.244C690.299 127.731 689.112 127.974 687.739 127.974C686.513 127.974 685.379 127.757 684.336 127.322C683.293 126.879 682.406 126.231 681.676 125.379L683.697 123.554C684.21 124.154 684.797 124.593 685.457 124.871C686.127 125.149 686.822 125.288 687.543 125.288C688.56 125.288 689.373 125.027 689.982 124.506C690.599 123.976 690.907 123.232 690.907 122.276C690.907 121.564 690.773 120.994 690.503 120.568C690.234 120.134 689.851 119.821 689.356 119.63C688.869 119.43 688.291 119.33 687.622 119.33H686.018L686.422 116.878H687.557C688.104 116.878 688.6 116.783 689.043 116.592C689.495 116.4 689.851 116.109 690.112 115.718C690.381 115.327 690.516 114.836 690.516 114.245C690.516 113.463 690.242 112.854 689.695 112.419C689.147 111.976 688.46 111.755 687.635 111.755C686.887 111.755 686.222 111.894 685.64 112.172C685.058 112.45 684.493 112.845 683.945 113.358L682.159 111.468C682.958 110.694 683.841 110.116 684.805 109.734C685.779 109.351 686.831 109.16 687.961 109.16Z" fill="#4D4D4D"/>
<path d="M772.595 109.16L775.516 110.268L771.057 120.972H780.275V123.593H767.484V121.246L772.595 109.16ZM778.293 116.357V127.583H774.981L774.942 121.39L775.385 116.357H778.293Z" fill="#4D4D4D"/>
<path d="M866.165 109.551L865.761 112.08H858.981V116.592C859.459 116.357 859.937 116.192 860.415 116.096C860.893 116.001 861.354 115.953 861.797 115.953C862.745 115.953 863.597 116.183 864.353 116.644C865.118 117.104 865.718 117.769 866.152 118.639C866.595 119.499 866.817 120.534 866.817 121.742C866.817 122.95 866.535 124.028 865.97 124.975C865.413 125.914 864.631 126.648 863.623 127.179C862.614 127.709 861.432 127.974 860.076 127.974C858.851 127.974 857.76 127.748 856.804 127.296C855.856 126.844 855.044 126.235 854.366 125.471L856.374 123.606C856.852 124.162 857.386 124.584 857.977 124.871C858.568 125.149 859.203 125.288 859.881 125.288C860.915 125.288 861.737 124.975 862.345 124.349C862.953 123.715 863.258 122.85 863.258 121.755C863.258 120.929 863.14 120.273 862.906 119.786C862.671 119.299 862.349 118.947 861.941 118.73C861.532 118.513 861.063 118.404 860.533 118.404C860.133 118.404 859.737 118.452 859.346 118.547C858.964 118.634 858.551 118.786 858.108 119.004H855.696V109.551H866.165Z" fill="#4D4D4D"/>
<path d="M950.652 109.16C951.417 109.16 952.112 109.26 952.738 109.46C953.373 109.651 953.942 109.925 954.446 110.281L953.129 112.419C952.764 112.167 952.373 111.981 951.956 111.859C951.539 111.737 951.117 111.676 950.691 111.676C949.909 111.676 949.222 111.933 948.631 112.446C948.049 112.958 947.592 113.697 947.262 114.662C946.94 115.618 946.775 116.774 946.767 118.13L946.793 119.238C946.784 121.342 946.993 122.902 947.418 123.919C947.853 124.936 948.618 125.445 949.713 125.445C950.617 125.445 951.286 125.088 951.721 124.375C952.156 123.663 952.373 122.759 952.373 121.663C952.373 120.777 952.273 120.077 952.073 119.564C951.873 119.043 951.595 118.669 951.239 118.443C950.882 118.208 950.452 118.091 949.948 118.091C949.27 118.091 948.631 118.291 948.031 118.691C947.44 119.082 946.936 119.608 946.519 120.268L946.493 117.895C947.066 117.104 947.723 116.526 948.462 116.161C949.2 115.796 949.97 115.614 950.769 115.614C951.699 115.614 952.547 115.84 953.312 116.292C954.077 116.735 954.685 117.391 955.137 118.261C955.598 119.13 955.828 120.203 955.828 121.481C955.828 122.733 955.572 123.85 955.059 124.832C954.546 125.805 953.825 126.574 952.894 127.139C951.973 127.696 950.904 127.974 949.687 127.974C948.522 127.974 947.531 127.757 946.714 127.322C945.897 126.879 945.232 126.266 944.72 125.484C944.207 124.693 943.829 123.771 943.585 122.72C943.351 121.659 943.233 120.52 943.233 119.304C943.233 117.287 943.529 115.518 944.12 113.997C944.711 112.467 945.558 111.281 946.662 110.438C947.775 109.586 949.105 109.16 950.652 109.16Z" fill="#4D4D4D"/>
<path d="M1033.41 127.935L1030.16 126.931L1036.99 112.211H1028.88V109.551H1040.48V111.95L1033.41 127.935Z" fill="#4D4D4D"/>
<path d="M1127.37 113.867C1127.37 114.719 1127.13 115.453 1126.64 116.07C1126.16 116.687 1125.44 117.27 1124.46 117.817C1125.66 118.382 1126.57 119.078 1127.17 119.903C1127.78 120.729 1128.09 121.663 1128.09 122.707C1128.09 123.654 1127.83 124.528 1127.32 125.327C1126.81 126.127 1126.07 126.77 1125.1 127.257C1124.13 127.735 1122.93 127.974 1121.52 127.974C1120.11 127.974 1118.93 127.739 1117.97 127.27C1117.01 126.792 1116.29 126.162 1115.81 125.379C1115.32 124.597 1115.08 123.737 1115.08 122.798C1115.08 121.737 1115.38 120.825 1116 120.06C1116.63 119.295 1117.46 118.682 1118.5 118.221C1117.57 117.683 1116.88 117.1 1116.44 116.474C1116.01 115.848 1115.79 115.036 1115.79 114.036C1115.79 113.245 1115.95 112.55 1116.26 111.95C1116.57 111.342 1117 110.833 1117.54 110.425C1118.09 110.007 1118.71 109.695 1119.4 109.486C1120.1 109.269 1120.83 109.16 1121.59 109.16C1122.39 109.16 1123.14 109.264 1123.84 109.473C1124.54 109.673 1125.16 109.973 1125.69 110.372C1126.22 110.772 1126.63 111.263 1126.93 111.846C1127.22 112.428 1127.37 113.102 1127.37 113.867ZM1124.61 122.707C1124.61 122.029 1124.45 121.49 1124.15 121.09C1123.85 120.681 1123.42 120.334 1122.83 120.047C1122.25 119.76 1121.53 119.464 1120.67 119.16C1120.27 119.386 1119.91 119.66 1119.59 119.982C1119.27 120.303 1119.02 120.681 1118.83 121.116C1118.65 121.55 1118.56 122.059 1118.56 122.641C1118.56 123.484 1118.81 124.162 1119.31 124.675C1119.83 125.188 1120.58 125.445 1121.58 125.445C1122.6 125.445 1123.35 125.179 1123.85 124.649C1124.35 124.11 1124.61 123.463 1124.61 122.707ZM1119.09 114.049C1119.09 114.571 1119.21 115.005 1119.44 115.353C1119.68 115.692 1120.03 115.988 1120.49 116.24C1120.95 116.492 1121.52 116.739 1122.19 116.983C1122.86 116.531 1123.34 116.083 1123.63 115.64C1123.92 115.188 1124.07 114.658 1124.07 114.049C1124.07 113.31 1123.86 112.715 1123.43 112.263C1123.02 111.802 1122.4 111.572 1121.59 111.572C1120.8 111.572 1120.19 111.785 1119.74 112.211C1119.31 112.637 1119.09 113.25 1119.09 114.049Z" fill="#4D4D4D"/>
<path d="M1208.33 109.16C1209.75 109.16 1210.93 109.464 1211.87 110.073C1212.81 110.681 1213.52 111.529 1213.99 112.615C1214.47 113.702 1214.71 114.971 1214.71 116.422C1214.71 118.178 1214.5 119.712 1214.08 121.025C1213.67 122.328 1213.04 123.445 1212.18 124.375C1211.33 125.297 1210.24 126.075 1208.91 126.709C1207.58 127.344 1206.02 127.87 1204.2 128.287L1203.47 125.823C1205.07 125.397 1206.41 124.884 1207.5 124.284C1208.58 123.684 1209.43 122.946 1210.03 122.068C1210.63 121.19 1211 120.125 1211.14 118.873L1211.15 117.53C1211.17 116.174 1211.09 115.066 1210.93 114.206C1210.77 113.345 1210.48 112.711 1210.07 112.302C1209.66 111.894 1209.08 111.689 1208.32 111.689C1207.43 111.689 1206.74 111.998 1206.25 112.615C1205.76 113.223 1205.52 114.154 1205.52 115.405C1205.52 116.605 1205.76 117.461 1206.25 117.974C1206.73 118.478 1207.35 118.73 1208.11 118.73C1208.81 118.73 1209.44 118.56 1209.99 118.221C1210.54 117.874 1211.07 117.387 1211.59 116.761L1211.55 118.939C1210.95 119.634 1210.3 120.19 1209.6 120.607C1208.9 121.016 1208.08 121.22 1207.15 121.22C1206.18 121.22 1205.31 120.985 1204.54 120.516C1203.76 120.038 1203.15 119.369 1202.7 118.508C1202.25 117.648 1202.02 116.626 1202.02 115.444C1202.02 114.149 1202.3 113.032 1202.86 112.094C1203.42 111.155 1204.18 110.433 1205.12 109.929C1206.08 109.416 1207.15 109.16 1208.33 109.16Z" fill="#4D4D4D"/>
<path d="M1298.15 109.551V127.061H1294.77V113.019L1290.92 115.405L1289.45 113.019L1295.11 109.551H1298.15ZM1301.65 124.936V127.583H1290.4V124.936H1301.65ZM1311.06 109.16C1313.14 109.16 1314.7 109.981 1315.76 111.624C1316.82 113.258 1317.36 115.562 1317.36 118.534C1317.36 121.516 1316.82 123.836 1315.76 125.497C1314.7 127.148 1313.14 127.974 1311.06 127.974C1308.97 127.974 1307.4 127.148 1306.34 125.497C1305.29 123.836 1304.76 121.516 1304.76 118.534C1304.76 115.562 1305.29 113.258 1306.34 111.624C1307.4 109.981 1308.97 109.16 1311.06 109.16ZM1311.06 111.715C1310.08 111.715 1309.33 112.241 1308.83 113.293C1308.33 114.336 1308.09 116.083 1308.09 118.534C1308.09 119.89 1308.13 121.016 1308.23 121.911C1308.33 122.798 1308.5 123.497 1308.74 124.01C1308.97 124.523 1309.28 124.888 1309.65 125.106C1310.03 125.314 1310.5 125.418 1311.06 125.418C1311.72 125.418 1312.27 125.197 1312.7 124.754C1313.14 124.302 1313.47 123.571 1313.69 122.563C1313.91 121.546 1314.02 120.203 1314.02 118.534C1314.02 116.761 1313.92 115.379 1313.73 114.388C1313.55 113.397 1313.24 112.706 1312.8 112.315C1312.38 111.915 1311.8 111.715 1311.06 111.715ZM1313.31 112.302L1314.2 114.44L1309.06 124.975L1308.01 123.228L1313.31 112.302Z" fill="#4D4D4D"/>
<path d="M431.722 70.2914C431.082 70.2914 430.563 70.8103 430.563 71.4503C430.563 72.0904 431.082 72.6093 431.722 72.6093V71.4503V70.2914ZM599.768 71.4503L588.179 64.7592V78.1415L599.768 71.4503ZM431.722 71.4503V72.6093H589.338V71.4503V70.2914H431.722V71.4503Z" fill="#0037AC"/>
<path d="M604.404 70.2914C603.764 70.2914 603.245 70.8103 603.245 71.4503C603.245 72.0904 603.764 72.6093 604.404 72.6093L604.404 71.4503L604.404 70.2914ZM773.609 71.4503L762.02 64.7592L762.02 78.1415L773.609 71.4503ZM604.404 71.4503L604.404 72.6093L763.179 72.6093L763.179 71.4503L763.179 70.2914L604.404 70.2914L604.404 71.4503Z" fill="#0037AC"/>
<path d="M778.245 70.2914C777.605 70.2914 777.086 70.8103 777.086 71.4503C777.086 72.0904 777.605 72.6093 778.245 72.6093V71.4503V70.2914ZM947.45 71.4503L935.861 64.7592V78.1415L947.45 71.4503ZM778.245 71.4503V72.6093H937.02V71.4503V70.2914H778.245V71.4503Z" fill="#0037AC"/>
<path d="M952.086 70.2914C951.446 70.2914 950.927 70.8103 950.927 71.4503C950.927 72.0904 951.446 72.6093 952.086 72.6093V71.4503V70.2914ZM1121.29 71.4503L1109.7 64.7592V78.1415L1121.29 71.4503ZM952.086 71.4503V72.6093H1110.86V71.4503V70.2914H952.086V71.4503Z" fill="#0037AC"/>
<path d="M1121 70.8411C1120.36 70.8411 1119.84 71.3599 1119.84 72C1119.84 72.6401 1120.36 73.1589 1121 73.1589V72V70.8411ZM1290.21 72L1278.62 65.3089V78.6911L1290.21 72ZM1121 72V73.1589H1279.77V72V70.8411H1121V72Z" fill="#0037AC"/>
<path d="M406.637 52.5493C406.637 53.2794 406.448 53.9226 406.072 54.4789C405.701 55.0352 405.165 55.4727 404.464 55.7914C403.762 56.1043 402.913 56.2608 401.917 56.2608C400.874 56.2608 399.978 56.1072 399.231 55.8001C398.483 55.4872 397.858 55.0873 397.353 54.6006L398.605 53.2012C399.04 53.5894 399.526 53.8936 400.065 54.1138C400.604 54.334 401.21 54.4441 401.882 54.4441C402.311 54.4441 402.696 54.3775 403.038 54.2442C403.386 54.1109 403.658 53.9168 403.855 53.6618C404.058 53.4011 404.159 53.0824 404.159 52.7057C404.159 52.3754 404.09 52.0973 403.951 51.8713C403.812 51.6453 403.571 51.4425 403.229 51.2628C402.893 51.0832 402.424 50.9036 401.821 50.7239C400.935 50.4516 400.204 50.1531 399.631 49.8286C399.057 49.4983 398.631 49.1101 398.353 48.6639C398.075 48.2119 397.936 47.6788 397.936 47.0646C397.936 46.375 398.127 45.781 398.509 45.2827C398.892 44.7786 399.408 44.3932 400.057 44.1267C400.711 43.8543 401.442 43.7181 402.247 43.7181C403.139 43.7181 403.925 43.8485 404.603 44.1093C405.281 44.3642 405.877 44.7293 406.393 45.2045L405.202 46.5517C404.791 46.1983 404.345 45.9375 403.864 45.7695C403.389 45.6014 402.905 45.5174 402.412 45.5174C402.024 45.5174 401.676 45.5695 401.369 45.6738C401.068 45.7781 400.83 45.9317 400.656 46.1345C400.483 46.3373 400.396 46.5952 400.396 46.9081C400.396 47.1921 400.474 47.4354 400.63 47.6382C400.793 47.8353 401.068 48.0207 401.456 48.1945C401.844 48.3626 402.377 48.5538 403.055 48.7682C403.768 48.9826 404.391 49.2405 404.924 49.5418C405.463 49.8431 405.883 50.2343 406.185 50.7152C406.486 51.1904 406.637 51.8017 406.637 52.5493ZM413.757 45.8477V56H411.384V45.8477H407.873V43.9789H417.373L417.13 45.8477H413.757ZM424.963 53.2446H421.008L420.261 56H417.801L421.565 43.9789H424.485L428.24 56H425.711L424.963 53.2446ZM421.434 51.4627H424.52L422.981 45.7608L421.434 51.4627ZM437.838 47.5339C437.838 48.1134 437.722 48.6204 437.49 49.055C437.264 49.4897 436.954 49.8547 436.56 50.1502C436.172 50.4458 435.735 50.6747 435.248 50.8369L438.542 56H435.813L432.97 51.2107H431.875V56H429.502V43.9789H433.04C434.622 43.9789 435.816 44.2715 436.621 44.8568C437.432 45.4421 437.838 46.3344 437.838 47.5339ZM435.369 47.5339C435.369 46.8849 435.181 46.4185 434.805 46.1345C434.428 45.8448 433.86 45.6999 433.101 45.6999H431.875V49.5244H433.179C433.88 49.5244 434.419 49.368 434.796 49.055C435.178 48.7421 435.369 48.2351 435.369 47.5339ZM445.028 45.8477V56H442.655V45.8477H439.144V43.9789H448.644L448.401 45.8477H445.028Z" fill="#027D47"/>
<path d="M673.193 52.5493C673.193 53.2794 673.005 53.9226 672.628 54.4789C672.257 55.0352 671.721 55.4727 671.02 55.7914C670.319 56.1043 669.47 56.2608 668.473 56.2608C667.43 56.2608 666.535 56.1072 665.787 55.8001C665.04 55.4872 664.414 55.0873 663.91 54.6006L665.161 53.2012C665.596 53.5894 666.083 53.8936 666.622 54.1138C667.161 54.334 667.766 54.4441 668.438 54.4441C668.867 54.4441 669.253 54.3775 669.594 54.2442C669.942 54.1109 670.214 53.9168 670.411 53.6618C670.614 53.4011 670.716 53.0824 670.716 52.7057C670.716 52.3754 670.646 52.0973 670.507 51.8713C670.368 51.6453 670.128 51.4425 669.786 51.2628C669.45 51.0832 668.98 50.9036 668.378 50.7239C667.491 50.4516 666.761 50.1531 666.187 49.8286C665.613 49.4983 665.188 49.1101 664.909 48.6639C664.631 48.2119 664.492 47.6788 664.492 47.0646C664.492 46.375 664.683 45.781 665.066 45.2827C665.448 44.7786 665.964 44.3932 666.613 44.1267C667.268 43.8543 667.998 43.7181 668.803 43.7181C669.696 43.7181 670.481 43.8485 671.159 44.1093C671.837 44.3642 672.434 44.7293 672.95 45.2045L671.759 46.5517C671.347 46.1983 670.901 45.9375 670.42 45.7695C669.945 45.6014 669.461 45.5174 668.969 45.5174C668.58 45.5174 668.233 45.5695 667.926 45.6738C667.624 45.7781 667.387 45.9317 667.213 46.1345C667.039 46.3373 666.952 46.5952 666.952 46.9081C666.952 47.1921 667.03 47.4354 667.187 47.6382C667.349 47.8353 667.624 48.0207 668.012 48.1945C668.401 48.3626 668.934 48.5538 669.612 48.7682C670.325 48.9826 670.948 49.2405 671.481 49.5418C672.02 49.8431 672.44 50.2343 672.741 50.7152C673.042 51.1904 673.193 51.8017 673.193 52.5493ZM680.314 45.8477V56H677.941V45.8477H674.429V43.9789H683.93L683.686 45.8477H680.314ZM688.556 45.7347V49.029H692.815V50.7587H688.556V54.2529H693.727V56H686.174V43.9789H693.667L693.423 45.7347H688.556ZM702.213 47.8295C702.213 47.3311 702.117 46.9284 701.926 46.6213C701.74 46.3084 701.468 46.0795 701.109 45.9346C700.75 45.7897 700.318 45.7173 699.814 45.7173H698.571V50.072H699.883C700.358 50.072 700.767 49.9996 701.109 49.8547C701.457 49.7041 701.726 49.4636 701.917 49.1333C702.114 48.803 702.213 48.3684 702.213 47.8295ZM704.681 47.8121C704.681 48.745 704.481 49.5099 704.082 50.1068C703.687 50.6978 703.134 51.1353 702.421 51.4193C701.709 51.6974 700.886 51.8365 699.953 51.8365H698.571V56H696.189V43.9789H699.727C701.286 43.9789 702.5 44.2947 703.369 44.9263C704.244 45.5579 704.681 46.5199 704.681 47.8121Z" fill="#0037AC"/>
<path d="M1283.95 57.185C1283.95 57.9151 1283.77 58.5583 1283.39 59.1146C1283.02 59.6709 1282.48 60.1084 1281.78 60.4271C1281.08 60.74 1280.23 60.8965 1279.23 60.8965C1278.19 60.8965 1277.3 60.7429 1276.55 60.4358C1275.8 60.1229 1275.18 59.7231 1274.67 59.2363L1275.92 57.8369C1276.36 58.2251 1276.84 58.5294 1277.38 58.7496C1277.92 58.9698 1278.53 59.0799 1279.2 59.0799C1279.63 59.0799 1280.01 59.0132 1280.36 58.8799C1280.7 58.7467 1280.98 58.5525 1281.17 58.2976C1281.38 58.0368 1281.48 57.7181 1281.48 57.3415C1281.48 57.0112 1281.41 56.733 1281.27 56.507C1281.13 56.281 1280.89 56.0782 1280.55 55.8986C1280.21 55.7189 1279.74 55.5393 1279.14 55.3597C1278.25 55.0873 1277.52 54.7889 1276.95 54.4644C1276.37 54.1341 1275.95 53.7458 1275.67 53.2996C1275.39 52.8477 1275.25 52.3145 1275.25 51.7003C1275.25 51.0107 1275.44 50.4168 1275.83 49.9184C1276.21 49.4143 1276.73 49.029 1277.37 48.7624C1278.03 48.49 1278.76 48.3539 1279.56 48.3539C1280.46 48.3539 1281.24 48.4843 1281.92 48.745C1282.6 49 1283.2 49.365 1283.71 49.8402L1282.52 51.1875C1282.11 50.834 1281.66 50.5732 1281.18 50.4052C1280.71 50.2371 1280.22 50.1531 1279.73 50.1531C1279.34 50.1531 1278.99 50.2053 1278.69 50.3096C1278.39 50.4139 1278.15 50.5674 1277.97 50.7703C1277.8 50.9731 1277.71 51.2309 1277.71 51.5439C1277.71 51.8278 1277.79 52.0712 1277.95 52.274C1278.11 52.471 1278.39 52.6564 1278.77 52.8303C1279.16 52.9983 1279.7 53.1896 1280.37 53.404C1281.09 53.6184 1281.71 53.8762 1282.24 54.1775C1282.78 54.4789 1283.2 54.87 1283.5 55.351C1283.8 55.8261 1283.95 56.4375 1283.95 57.185ZM1291.08 50.4834V60.6357H1288.7V50.4834H1285.19V48.6146H1294.69L1294.45 50.4834H1291.08ZM1305.01 54.6208C1305.01 55.8725 1304.83 56.9706 1304.48 57.9151C1304.13 58.8539 1303.61 59.5869 1302.92 60.1142C1302.22 60.6357 1301.36 60.8965 1300.33 60.8965C1299.31 60.8965 1298.45 60.6415 1297.75 60.1316C1297.06 59.6159 1296.53 58.8915 1296.18 57.9586C1295.83 57.0198 1295.66 55.9102 1295.66 54.6295C1295.66 53.3779 1295.83 52.2827 1296.18 51.3439C1296.53 50.3994 1297.06 49.6664 1297.75 49.1448C1298.45 48.6175 1299.31 48.3539 1300.33 48.3539C1301.36 48.3539 1302.22 48.6088 1302.92 49.1188C1303.61 49.6287 1304.13 50.353 1304.48 51.2918C1304.83 52.2305 1305.01 53.3402 1305.01 54.6208ZM1302.56 54.6208C1302.56 53.1026 1302.39 51.9785 1302.04 51.2483C1301.7 50.5124 1301.13 50.1444 1300.33 50.1444C1299.54 50.1444 1298.97 50.5124 1298.62 51.2483C1298.28 51.9843 1298.11 53.1113 1298.11 54.6295C1298.11 56.1535 1298.29 57.2806 1298.64 58.0107C1298.99 58.7351 1299.56 59.0972 1300.33 59.0972C1301.14 59.0972 1301.71 58.7293 1302.05 57.9934C1302.39 57.2574 1302.56 56.1333 1302.56 54.6208ZM1312.97 52.4652C1312.97 51.9669 1312.88 51.5641 1312.69 51.257C1312.5 50.9441 1312.23 50.7152 1311.87 50.5703C1311.51 50.4255 1311.08 50.353 1310.58 50.353H1309.33V54.7078H1310.64C1311.12 54.7078 1311.53 54.6353 1311.87 54.4905C1312.22 54.3398 1312.49 54.0993 1312.68 53.769C1312.88 53.4387 1312.97 53.0041 1312.97 52.4652ZM1315.44 52.4478C1315.44 53.3808 1315.24 54.1457 1314.84 54.7425C1314.45 55.3336 1313.9 55.7711 1313.18 56.055C1312.47 56.3332 1311.65 56.4722 1310.71 56.4722H1309.33V60.6357H1306.95V48.6146H1310.49C1312.05 48.6146 1313.26 48.9304 1314.13 49.5621C1315.01 50.1937 1315.44 51.1556 1315.44 52.4478Z" fill="#8A0101"/>
<rect x="505.389" y="175.186" width="19.1617" height="19.1617" rx="3.74252" fill="#0037AC"/>
<path d="M512.812 180.191C512.685 179.882 512.246 179.882 512.119 180.192L511.92 180.678C511.882 180.769 511.882 180.871 511.919 180.962L514.593 187.522C514.693 187.768 514.512 188.037 514.246 188.037H511.585H510.687C510.421 188.037 510.24 187.767 510.341 187.521L510.802 186.397C510.839 186.306 510.84 186.204 510.803 186.114L510.593 185.599C510.466 185.288 510.027 185.288 509.9 185.598L508.643 188.659C508.542 188.905 508.723 189.175 508.989 189.175H515.942C516.208 189.175 516.389 188.905 516.288 188.659L512.812 180.191Z" fill="white"/>
<path d="M515.347 182.011C515.247 181.765 515.428 181.496 515.694 181.496H518.355H519.253C519.519 181.496 519.7 181.766 519.599 182.012L519.138 183.136C519.101 183.227 519.101 183.329 519.138 183.419L519.347 183.934C519.474 184.245 519.913 184.245 520.04 183.935L521.297 180.874C521.398 180.628 521.217 180.358 520.951 180.358H513.999C513.732 180.358 513.551 180.628 513.652 180.874L517.128 189.341C517.255 189.651 517.694 189.651 517.821 189.341L518.021 188.855C518.058 188.764 518.058 188.662 518.021 188.571L515.347 182.011Z" fill="white"/>
<path d="M536.368 186.455H533.656L533.128 188.281H531.83L534.245 180.69H535.829L538.25 188.281H536.897L536.368 186.455ZM533.92 185.47H536.099L535.015 181.68L533.92 185.47ZM540.545 182.472V186.532C540.545 186.877 540.613 187.123 540.749 187.269C540.888 187.416 541.097 187.489 541.376 187.489C541.64 187.489 541.895 187.41 542.14 187.253C542.386 187.095 542.58 186.902 542.723 186.675V182.472H543.956V188.281H542.894L542.817 187.539C542.601 187.829 542.327 188.05 541.997 188.204C541.667 188.355 541.33 188.43 540.985 188.43C540.424 188.43 540.004 188.276 539.725 187.968C539.45 187.656 539.313 187.229 539.313 186.686V182.472H540.545ZM550.762 187.973C550.549 188.109 550.294 188.219 549.997 188.303C549.7 188.388 549.39 188.43 549.067 188.43C548.393 188.43 547.879 188.256 547.527 187.907C547.179 187.555 547.004 187.093 547.004 186.521V183.369H545.712V182.472H547.004V181.174L548.237 181.025V182.472H550.195L550.058 183.369H548.237V186.51C548.237 186.822 548.314 187.055 548.468 187.209C548.625 187.359 548.882 187.434 549.238 187.434C549.451 187.434 549.647 187.409 549.827 187.357C550.006 187.306 550.169 187.24 550.316 187.159L550.762 187.973ZM554.834 182.318C555.402 182.318 555.881 182.445 556.27 182.698C556.658 182.951 556.952 183.305 557.15 183.76C557.351 184.214 557.452 184.75 557.452 185.366C557.452 185.978 557.35 186.516 557.144 186.978C556.943 187.436 556.645 187.794 556.253 188.05C555.864 188.303 555.389 188.43 554.828 188.43C554.267 188.43 553.79 188.307 553.398 188.061C553.009 187.812 552.712 187.458 552.507 187C552.305 186.541 552.204 186 552.204 185.377C552.204 184.772 552.305 184.24 552.507 183.782C552.712 183.323 553.011 182.966 553.403 182.709C553.796 182.448 554.273 182.318 554.834 182.318ZM554.834 183.275C554.39 183.275 554.056 183.446 553.833 183.787C553.609 184.124 553.497 184.654 553.497 185.377C553.497 186.096 553.607 186.626 553.827 186.967C554.051 187.308 554.385 187.478 554.828 187.478C555.272 187.478 555.604 187.308 555.824 186.967C556.048 186.626 556.16 186.092 556.16 185.366C556.16 184.651 556.05 184.124 555.829 183.787C555.609 183.446 555.278 183.275 554.834 183.275ZM559.159 188.281V187.401H560.012V183.347H559.159V182.472H560.952L561.178 183.82C561.394 183.332 561.662 182.962 561.981 182.709C562.304 182.452 562.718 182.324 563.224 182.324C563.397 182.324 563.551 182.338 563.686 182.368C563.826 182.393 563.963 182.428 564.099 182.472L563.73 183.528C563.613 183.495 563.503 183.472 563.4 183.457C563.298 183.439 563.184 183.429 563.059 183.429C562.637 183.429 562.272 183.587 561.964 183.903C561.66 184.218 561.42 184.665 561.244 185.245V187.401H562.416V188.281H559.159ZM563.01 184.612V183.182L563.164 182.472H564.099L563.89 184.612H563.01ZM567.027 187.434C567.027 187.167 567.122 186.937 567.313 186.747C567.503 186.552 567.738 186.455 568.017 186.455C568.299 186.455 568.534 186.552 568.721 186.747C568.912 186.937 569.007 187.167 569.007 187.434C569.007 187.709 568.912 187.944 568.721 188.138C568.534 188.333 568.299 188.43 568.017 188.43C567.738 188.43 567.503 188.333 567.313 188.138C567.122 187.944 567.027 187.709 567.027 187.434ZM567.027 183.528C567.027 183.349 567.071 183.184 567.159 183.033C567.247 182.883 567.366 182.764 567.516 182.676C567.667 182.588 567.833 182.544 568.017 182.544C568.299 182.544 568.534 182.641 568.721 182.835C568.912 183.026 569.007 183.257 569.007 183.528C569.007 183.8 568.912 184.035 568.721 184.233C568.534 184.427 568.299 184.524 568.017 184.524C567.738 184.524 567.503 184.427 567.313 184.233C567.122 184.035 567.027 183.8 567.027 183.528ZM583.714 180.657V185.536C583.714 185.98 583.646 186.382 583.51 186.741C583.375 187.101 583.175 187.407 582.911 187.66C582.65 187.913 582.329 188.107 581.948 188.243C581.57 188.379 581.138 188.446 580.65 188.446C580.158 188.446 579.733 188.384 579.374 188.259C579.018 188.131 578.675 187.955 578.345 187.731L579.032 186.62C579.293 186.8 579.537 186.926 579.764 187C579.992 187.069 580.25 187.104 580.54 187.104C580.932 187.104 581.259 186.98 581.519 186.73C581.783 186.477 581.915 186.086 581.915 185.558V181.977H579.572V180.657H583.714ZM587.813 182.247C588.415 182.247 588.927 182.375 589.348 182.632C589.77 182.889 590.093 183.25 590.316 183.716C590.54 184.178 590.652 184.72 590.652 185.344C590.652 185.993 590.538 186.552 590.311 187.022C590.087 187.487 589.765 187.845 589.343 188.094C588.921 188.344 588.411 188.468 587.813 188.468C587.219 188.468 586.71 188.346 586.284 188.1C585.862 187.854 585.538 187.498 585.31 187.033C585.087 186.567 584.975 186.008 584.975 185.355C584.975 184.735 585.087 184.192 585.31 183.727C585.538 183.261 585.862 182.898 586.284 182.637C586.71 182.377 587.219 182.247 587.813 182.247ZM587.813 183.528C587.458 183.528 587.194 183.675 587.021 183.969C586.853 184.258 586.768 184.72 586.768 185.355C586.768 186 586.853 186.468 587.021 186.758C587.194 187.047 587.458 187.192 587.813 187.192C588.169 187.192 588.431 187.047 588.6 186.758C588.772 186.468 588.859 185.997 588.859 185.344C588.859 184.713 588.772 184.253 588.6 183.963C588.431 183.673 588.169 183.528 587.813 183.528ZM594.223 187.225C594.513 187.225 594.746 187.179 594.922 187.088C595.102 186.996 595.192 186.858 595.192 186.675C595.192 186.55 595.157 186.446 595.087 186.362C595.017 186.277 594.884 186.197 594.686 186.119C594.487 186.042 594.194 185.951 593.805 185.844C593.45 185.749 593.134 185.628 592.859 185.481C592.588 185.335 592.375 185.146 592.221 184.915C592.071 184.684 591.995 184.396 591.995 184.051C591.995 183.703 592.093 183.393 592.287 183.121C592.481 182.85 592.767 182.637 593.145 182.483C593.523 182.326 593.985 182.247 594.532 182.247C595.052 182.247 595.505 182.315 595.89 182.45C596.279 182.582 596.615 182.751 596.897 182.956L596.204 183.98C595.962 183.829 595.701 183.71 595.423 183.622C595.144 183.53 594.863 183.484 594.581 183.484C594.299 183.484 594.088 183.523 593.948 183.6C593.813 183.673 593.745 183.785 593.745 183.936C593.745 184.035 593.78 184.121 593.849 184.194C593.923 184.264 594.058 184.337 594.256 184.414C594.454 184.488 594.744 184.579 595.126 184.689C595.503 184.796 595.832 184.918 596.11 185.058C596.393 185.197 596.611 185.384 596.765 185.619C596.919 185.85 596.996 186.156 596.996 186.538C596.996 186.963 596.869 187.321 596.616 187.61C596.363 187.896 596.028 188.111 595.61 188.254C595.192 188.397 594.733 188.468 594.234 188.468C593.67 188.468 593.171 188.388 592.738 188.226C592.305 188.065 591.937 187.852 591.632 187.588L592.507 186.609C592.734 186.785 592.991 186.932 593.277 187.049C593.567 187.167 593.882 187.225 594.223 187.225ZM599.984 185.866C600.025 186.186 600.107 186.444 600.232 186.642C600.36 186.836 600.523 186.98 600.721 187.071C600.919 187.159 601.141 187.203 601.387 187.203C601.655 187.203 601.913 187.159 602.163 187.071C602.412 186.983 602.652 186.866 602.883 186.719L603.582 187.665C603.307 187.9 602.973 188.093 602.581 188.243C602.192 188.393 601.748 188.468 601.25 188.468C600.582 188.468 600.023 188.336 599.572 188.072C599.121 187.805 598.781 187.438 598.554 186.972C598.327 186.506 598.213 185.971 598.213 185.366C598.213 184.79 598.323 184.267 598.543 183.798C598.763 183.325 599.084 182.949 599.506 182.67C599.931 182.388 600.45 182.247 601.063 182.247C601.62 182.247 602.102 182.366 602.509 182.604C602.92 182.843 603.237 183.186 603.461 183.633C603.688 184.08 603.802 184.618 603.802 185.245C603.802 185.344 603.798 185.45 603.791 185.564C603.787 185.678 603.78 185.778 603.769 185.866H599.984ZM601.063 183.413C600.751 183.413 600.5 183.525 600.309 183.749C600.118 183.972 600.003 184.33 599.962 184.821H602.108C602.104 184.396 602.022 184.055 601.86 183.798C601.699 183.541 601.433 183.413 601.063 183.413ZM608.309 182.247C608.818 182.247 609.229 182.373 609.541 182.626C609.853 182.879 610.08 183.237 610.223 183.699C610.37 184.161 610.443 184.709 610.443 185.344C610.443 185.945 610.355 186.483 610.179 186.956C610.003 187.425 609.748 187.796 609.414 188.067C609.081 188.335 608.675 188.468 608.199 188.468C607.63 188.468 607.168 188.265 606.812 187.858V190.537L605.074 190.718V182.439H606.614L606.691 183.094C606.93 182.789 607.19 182.573 607.473 182.445C607.755 182.313 608.034 182.247 608.309 182.247ZM607.77 183.528C607.568 183.528 607.39 183.589 607.236 183.71C607.082 183.831 606.941 183.996 606.812 184.205V186.67C606.933 186.849 607.06 186.981 607.192 187.066C607.328 187.15 607.487 187.192 607.671 187.192C607.979 187.192 608.219 187.053 608.391 186.774C608.564 186.492 608.65 186.022 608.65 185.366C608.65 184.882 608.615 184.508 608.545 184.244C608.476 183.976 608.375 183.791 608.243 183.688C608.111 183.582 607.953 183.528 607.77 183.528ZM613.409 179.947V183.017C613.655 182.756 613.921 182.564 614.207 182.439C614.497 182.311 614.803 182.247 615.126 182.247C615.647 182.247 616.044 182.399 616.32 182.703C616.595 183.008 616.732 183.437 616.732 183.991V188.281H614.994V184.475C614.994 184.123 614.953 183.877 614.873 183.738C614.796 183.598 614.649 183.528 614.433 183.528C614.312 183.528 614.192 183.558 614.075 183.616C613.961 183.672 613.85 183.752 613.739 183.859C613.629 183.965 613.519 184.091 613.409 184.238V188.281H611.671V180.118L613.409 179.947ZM630.344 186.053C630.344 186.527 630.22 186.945 629.97 187.308C629.724 187.671 629.371 187.955 628.908 188.16C628.446 188.366 627.891 188.468 627.242 188.468C626.523 188.468 625.92 188.364 625.432 188.155C624.948 187.942 624.546 187.68 624.227 187.368L625.14 186.356C625.423 186.602 625.734 186.792 626.075 186.928C626.416 187.06 626.791 187.126 627.198 187.126C627.451 187.126 627.673 187.09 627.863 187.016C628.054 186.943 628.202 186.836 628.309 186.697C628.415 186.558 628.468 186.389 628.468 186.191C628.468 186.004 628.426 185.846 628.342 185.718C628.257 185.59 628.114 185.474 627.913 185.371C627.715 185.269 627.438 185.164 627.082 185.058C626.488 184.874 626.009 184.673 625.646 184.453C625.287 184.233 625.025 183.978 624.86 183.688C624.698 183.398 624.618 183.061 624.618 182.676C624.618 182.21 624.746 181.812 625.003 181.482C625.263 181.152 625.611 180.901 626.048 180.728C626.484 180.552 626.965 180.464 627.489 180.464C628.08 180.464 628.6 180.551 629.051 180.723C629.503 180.892 629.893 181.134 630.223 181.449L629.371 182.428C629.114 182.212 628.837 182.052 628.54 181.95C628.243 181.843 627.94 181.79 627.632 181.79C627.405 181.79 627.205 181.819 627.033 181.878C626.86 181.933 626.726 182.016 626.631 182.126C626.536 182.236 626.488 182.373 626.488 182.538C626.488 182.7 626.534 182.835 626.625 182.945C626.717 183.055 626.877 183.16 627.104 183.259C627.331 183.354 627.647 183.466 628.05 183.594C628.531 183.741 628.941 183.917 629.283 184.123C629.627 184.324 629.889 184.579 630.069 184.887C630.253 185.195 630.344 185.584 630.344 186.053ZM636.38 186.598C636.38 186.818 636.41 186.978 636.468 187.077C636.531 187.176 636.63 187.251 636.765 187.302L636.408 188.446C636.063 188.413 635.771 188.338 635.533 188.221C635.298 188.1 635.113 187.918 634.977 187.676C634.754 187.944 634.468 188.144 634.119 188.276C633.771 188.404 633.415 188.468 633.052 188.468C632.451 188.468 631.97 188.298 631.611 187.957C631.255 187.612 631.077 187.17 631.077 186.631C631.077 185.997 631.325 185.507 631.82 185.162C632.319 184.818 633.019 184.645 633.921 184.645H634.708V184.425C634.708 184.121 634.609 183.895 634.411 183.749C634.216 183.602 633.93 183.528 633.553 183.528C633.366 183.528 633.125 183.556 632.832 183.611C632.539 183.662 632.245 183.738 631.952 183.837L631.55 182.681C631.928 182.538 632.32 182.43 632.727 182.357C633.138 182.283 633.505 182.247 633.828 182.247C634.697 182.247 635.339 182.425 635.753 182.78C636.171 183.132 636.38 183.642 636.38 184.31V186.598ZM633.652 187.225C633.839 187.225 634.035 187.17 634.24 187.06C634.446 186.946 634.601 186.787 634.708 186.582V185.635H634.279C633.795 185.635 633.439 185.711 633.212 185.861C632.984 186.008 632.87 186.224 632.87 186.51C632.87 186.734 632.938 186.91 633.074 187.038C633.213 187.163 633.406 187.225 633.652 187.225ZM638.059 188.281V182.439H639.578L639.699 183.116C639.959 182.822 640.234 182.604 640.524 182.461C640.813 182.318 641.143 182.247 641.514 182.247C642.013 182.247 642.405 182.399 642.691 182.703C642.977 183.008 643.12 183.437 643.12 183.991V188.281H641.382V184.491C641.382 184.253 641.365 184.064 641.332 183.925C641.299 183.782 641.241 183.681 641.156 183.622C641.076 183.56 640.964 183.528 640.821 183.528C640.7 183.528 640.581 183.556 640.463 183.611C640.35 183.662 640.238 183.738 640.128 183.837C640.018 183.936 639.908 184.055 639.798 184.194V188.281H638.059ZM649.915 187.94C649.688 188.087 649.413 188.212 649.09 188.314C648.767 188.417 648.404 188.468 648.001 188.468C647.238 188.468 646.671 188.274 646.301 187.885C645.931 187.493 645.745 186.961 645.745 186.29V183.638H644.519V182.439H645.745V181.174L647.484 180.965V182.439H649.365L649.195 183.638H647.484V186.29C647.484 186.58 647.55 186.787 647.682 186.912C647.814 187.036 648.025 187.099 648.314 187.099C648.52 187.099 648.707 187.075 648.876 187.027C649.048 186.976 649.202 186.912 649.338 186.835L649.915 187.94ZM654.823 182.439V187.093H656.309V188.281H651.429V187.093H653.085V183.627H651.484V182.439H654.823ZM653.773 179.381C654.074 179.381 654.319 179.474 654.51 179.661C654.701 179.848 654.796 180.081 654.796 180.36C654.796 180.639 654.701 180.873 654.51 181.064C654.319 181.251 654.074 181.345 653.773 181.345C653.468 181.345 653.219 181.251 653.025 181.064C652.834 180.873 652.739 180.639 652.739 180.36C652.739 180.081 652.834 179.848 653.025 179.661C653.219 179.474 653.468 179.381 653.773 179.381ZM662.768 186.598C662.768 186.818 662.798 186.978 662.856 187.077C662.919 187.176 663.018 187.251 663.153 187.302L662.796 188.446C662.451 188.413 662.16 188.338 661.921 188.221C661.686 188.1 661.501 187.918 661.366 187.676C661.142 187.944 660.856 188.144 660.507 188.276C660.159 188.404 659.803 188.468 659.44 188.468C658.839 188.468 658.358 188.298 657.999 187.957C657.643 187.612 657.465 187.17 657.465 186.631C657.465 185.997 657.713 185.507 658.208 185.162C658.707 184.818 659.407 184.645 660.309 184.645H661.096V184.425C661.096 184.121 660.997 183.895 660.799 183.749C660.605 183.602 660.318 183.528 659.941 183.528C659.754 183.528 659.513 183.556 659.22 183.611C658.927 183.662 658.633 183.738 658.34 183.837L657.938 182.681C658.316 182.538 658.708 182.43 659.116 182.357C659.526 182.283 659.893 182.247 660.216 182.247C661.085 182.247 661.727 182.425 662.141 182.78C662.559 183.132 662.768 183.642 662.768 184.31V186.598ZM660.04 187.225C660.227 187.225 660.423 187.17 660.628 187.06C660.834 186.946 660.99 186.787 661.096 186.582V185.635H660.667C660.183 185.635 659.827 185.711 659.6 185.861C659.372 186.008 659.259 186.224 659.259 186.51C659.259 186.734 659.326 186.91 659.462 187.038C659.601 187.163 659.794 187.225 660.04 187.225ZM669.635 181.504L670.042 182.78C669.837 182.861 669.596 182.92 669.321 182.956C669.046 182.993 668.725 183.011 668.359 183.011C668.725 183.169 669.004 183.365 669.195 183.6C669.389 183.831 669.486 184.135 669.486 184.513C669.486 184.891 669.386 185.228 669.184 185.525C668.982 185.819 668.696 186.05 668.326 186.219C667.955 186.387 667.517 186.472 667.011 186.472C666.886 186.472 666.769 186.466 666.659 186.455C666.549 186.444 666.441 186.428 666.334 186.406C666.272 186.439 666.224 186.486 666.191 186.549C666.158 186.611 666.142 186.675 666.142 186.741C666.142 186.833 666.178 186.915 666.252 186.989C666.329 187.062 666.507 187.099 666.785 187.099H667.743C668.197 187.099 668.59 187.172 668.92 187.319C669.253 187.465 669.512 187.665 669.695 187.918C669.879 188.171 669.97 188.461 669.97 188.788C669.97 189.385 669.708 189.857 669.184 190.201C668.659 190.546 667.88 190.718 666.846 190.718C666.098 190.718 665.518 190.641 665.107 190.487C664.7 190.337 664.416 190.121 664.255 189.838C664.097 189.56 664.018 189.228 664.018 188.843H665.559C665.559 189.011 665.592 189.149 665.658 189.255C665.727 189.365 665.857 189.446 666.048 189.497C666.243 189.549 666.523 189.574 666.89 189.574C667.26 189.574 667.543 189.545 667.737 189.486C667.931 189.427 668.063 189.347 668.133 189.244C668.206 189.145 668.243 189.033 668.243 188.909C668.243 188.736 668.175 188.597 668.04 188.49C667.904 188.384 667.689 188.331 667.396 188.331H666.466C665.835 188.331 665.377 188.215 665.091 187.984C664.805 187.75 664.662 187.476 664.662 187.165C664.662 186.948 664.719 186.743 664.832 186.549C664.95 186.354 665.113 186.191 665.322 186.059C664.948 185.861 664.68 185.628 664.519 185.36C664.357 185.089 664.277 184.764 664.277 184.387C664.277 183.947 664.389 183.569 664.612 183.253C664.836 182.934 665.144 182.689 665.537 182.516C665.933 182.344 666.384 182.258 666.89 182.258C667.326 182.265 667.706 182.236 668.029 182.17C668.351 182.1 668.641 182.007 668.898 181.889C669.154 181.768 669.4 181.64 669.635 181.504ZM666.934 183.385C666.659 183.385 666.441 183.473 666.279 183.649C666.118 183.822 666.037 184.06 666.037 184.365C666.037 184.687 666.12 184.935 666.285 185.107C666.45 185.28 666.666 185.366 666.934 185.366C667.224 185.366 667.444 185.28 667.594 185.107C667.748 184.935 667.825 184.68 667.825 184.343C667.825 184.016 667.75 183.776 667.599 183.622C667.449 183.464 667.227 183.385 666.934 183.385ZM673.575 182.247C674.176 182.247 674.688 182.375 675.11 182.632C675.531 182.889 675.854 183.25 676.078 183.716C676.302 184.178 676.413 184.72 676.413 185.344C676.413 185.993 676.3 186.552 676.072 187.022C675.849 187.487 675.526 187.845 675.104 188.094C674.682 188.344 674.173 188.468 673.575 188.468C672.981 188.468 672.471 188.346 672.046 188.1C671.624 187.854 671.299 187.498 671.072 187.033C670.848 186.567 670.736 186.008 670.736 185.355C670.736 184.735 670.848 184.192 671.072 183.727C671.299 183.261 671.624 182.898 672.046 182.637C672.471 182.377 672.981 182.247 673.575 182.247ZM673.575 183.528C673.219 183.528 672.955 183.675 672.783 183.969C672.614 184.258 672.53 184.72 672.53 185.355C672.53 186 672.614 186.468 672.783 186.758C672.955 187.047 673.219 187.192 673.575 187.192C673.931 187.192 674.193 187.047 674.362 186.758C674.534 186.468 674.62 185.997 674.62 185.344C674.62 184.713 674.534 184.253 674.362 183.963C674.193 183.673 673.931 183.528 673.575 183.528ZM687.952 183.143C687.952 182.872 687.9 182.648 687.798 182.472C687.699 182.293 687.546 182.161 687.341 182.076C687.139 181.988 686.884 181.944 686.576 181.944H685.96V184.436H686.67C686.938 184.436 687.167 184.39 687.358 184.299C687.548 184.207 687.695 184.066 687.798 183.875C687.9 183.684 687.952 183.44 687.952 183.143ZM689.811 183.138C689.811 183.728 689.685 184.216 689.431 184.601C689.178 184.986 688.825 185.274 688.37 185.465C687.915 185.652 687.387 185.745 686.785 185.745H685.96V188.281H684.156V180.657H686.554C687.589 180.657 688.39 180.862 688.958 181.273C689.527 181.684 689.811 182.305 689.811 183.138ZM693.366 182.247C693.967 182.247 694.479 182.375 694.901 182.632C695.323 182.889 695.645 183.25 695.869 183.716C696.093 184.178 696.205 184.72 696.205 185.344C696.205 185.993 696.091 186.552 695.863 187.022C695.64 187.487 695.317 187.845 694.895 188.094C694.474 188.344 693.964 188.468 693.366 188.468C692.772 188.468 692.262 188.346 691.837 188.1C691.415 187.854 691.09 187.498 690.863 187.033C690.639 186.567 690.527 186.008 690.527 185.355C690.527 184.735 690.639 184.192 690.863 183.727C691.09 183.261 691.415 182.898 691.837 182.637C692.262 182.377 692.772 182.247 693.366 182.247ZM693.366 183.528C693.01 183.528 692.746 183.675 692.574 183.969C692.405 184.258 692.321 184.72 692.321 185.355C692.321 186 692.405 186.468 692.574 186.758C692.746 187.047 693.01 187.192 693.366 187.192C693.722 187.192 693.984 187.047 694.153 186.758C694.325 186.468 694.411 185.997 694.411 185.344C694.411 184.713 694.325 184.253 694.153 183.963C693.984 183.673 693.722 183.528 693.366 183.528ZM697.488 188.281V187.115H698.258V183.594H697.488V182.439H699.583L699.903 183.754C700.112 183.252 700.377 182.878 700.7 182.632C701.027 182.386 701.424 182.263 701.894 182.263C702.092 182.263 702.268 182.28 702.422 182.313C702.576 182.342 702.721 182.384 702.857 182.439L702.328 183.875C702.222 183.846 702.116 183.824 702.009 183.809C701.903 183.794 701.786 183.787 701.657 183.787C701.276 183.787 700.94 183.943 700.651 184.255C700.365 184.566 700.146 184.962 699.996 185.443V187.115H701.151V188.281H697.488ZM701.443 184.882V183.176L701.701 182.439H702.857L702.532 184.882H701.443ZM709.289 187.94C709.061 188.087 708.786 188.212 708.463 188.314C708.141 188.417 707.778 188.468 707.374 188.468C706.611 188.468 706.045 188.274 705.674 187.885C705.304 187.493 705.119 186.961 705.119 186.29V183.638H703.892V182.439H705.119V181.174L706.857 180.965V182.439H708.739L708.568 183.638H706.857V186.29C706.857 186.58 706.923 186.787 707.055 186.912C707.187 187.036 707.398 187.099 707.688 187.099C707.893 187.099 708.08 187.075 708.249 187.027C708.421 186.976 708.575 186.912 708.711 186.835L709.289 187.94ZM714.197 182.439V187.093H715.682V188.281H710.803V187.093H712.458V183.627H710.858V182.439H714.197ZM713.146 179.381C713.447 179.381 713.693 179.474 713.883 179.661C714.074 179.848 714.169 180.081 714.169 180.36C714.169 180.639 714.074 180.873 713.883 181.064C713.693 181.251 713.447 181.345 713.146 181.345C712.842 181.345 712.592 181.251 712.398 181.064C712.207 180.873 712.112 180.639 712.112 180.36C712.112 180.081 712.207 179.848 712.398 179.661C712.592 179.474 712.842 179.381 713.146 179.381ZM720.271 180.118V186.444C720.271 186.679 720.337 186.847 720.469 186.95C720.605 187.049 720.79 187.099 721.025 187.099C721.175 187.099 721.32 187.082 721.459 187.049C721.599 187.013 721.729 186.97 721.85 186.923L722.268 188.083C722.07 188.186 721.832 188.276 721.553 188.353C721.274 188.43 720.95 188.468 720.579 188.468C719.875 188.468 719.358 188.267 719.028 187.863C718.698 187.456 718.533 186.912 718.533 186.23V181.306H716.811V180.118H720.271ZM726.868 180.118V186.444C726.868 186.679 726.934 186.847 727.066 186.95C727.202 187.049 727.387 187.099 727.622 187.099C727.772 187.099 727.917 187.082 728.057 187.049C728.196 187.013 728.326 186.97 728.447 186.923L728.865 188.083C728.667 188.186 728.429 188.276 728.15 188.353C727.871 188.43 727.547 188.468 727.176 188.468C726.472 188.468 725.955 188.267 725.625 187.863C725.295 187.456 725.13 186.912 725.13 186.23V181.306H723.408V180.118H726.868ZM735.336 186.598C735.336 186.818 735.365 186.978 735.424 187.077C735.486 187.176 735.585 187.251 735.721 187.302L735.363 188.446C735.018 188.413 734.727 188.338 734.489 188.221C734.254 188.1 734.069 187.918 733.933 187.676C733.709 187.944 733.423 188.144 733.075 188.276C732.726 188.404 732.371 188.468 732.008 188.468C731.406 188.468 730.926 188.298 730.566 187.957C730.21 187.612 730.033 187.17 730.033 186.631C730.033 185.997 730.28 185.507 730.775 185.162C731.274 184.818 731.975 184.645 732.877 184.645H733.663V184.425C733.663 184.121 733.564 183.895 733.366 183.749C733.172 183.602 732.886 183.528 732.508 183.528C732.321 183.528 732.081 183.556 731.787 183.611C731.494 183.662 731.201 183.738 730.907 183.837L730.506 182.681C730.883 182.538 731.276 182.43 731.683 182.357C732.094 182.283 732.46 182.247 732.783 182.247C733.652 182.247 734.294 182.425 734.709 182.78C735.127 183.132 735.336 183.642 735.336 184.31V186.598ZM732.607 187.225C732.794 187.225 732.99 187.17 733.196 187.06C733.401 186.946 733.557 186.787 733.663 186.582V185.635H733.234C732.75 185.635 732.394 185.711 732.167 185.861C731.94 186.008 731.826 186.224 731.826 186.51C731.826 186.734 731.894 186.91 732.03 187.038C732.169 187.163 732.361 187.225 732.607 187.225ZM737.163 185.514V184.161H741.927V185.514H737.163ZM748.821 180.657L749.25 188.281H747.677L747.584 185.019C747.576 184.715 747.573 184.443 747.573 184.205C747.576 183.967 747.582 183.743 747.589 183.534C747.596 183.321 747.607 183.109 747.622 182.896C747.64 182.679 747.659 182.445 747.677 182.192L746.819 186.983H745.455L744.53 182.192C744.552 182.434 744.571 182.663 744.585 182.879C744.604 183.092 744.617 183.307 744.624 183.523C744.631 183.739 744.637 183.972 744.64 184.222C744.644 184.467 744.642 184.742 744.635 185.047L744.58 188.281H743.034L743.463 180.657H745.317L746.164 185.586L746.967 180.657H748.821ZM755.127 186.598C755.127 186.818 755.156 186.978 755.215 187.077C755.277 187.176 755.376 187.251 755.512 187.302L755.154 188.446C754.81 188.413 754.518 188.338 754.28 188.221C754.045 188.1 753.86 187.918 753.724 187.676C753.5 187.944 753.214 188.144 752.866 188.276C752.517 188.404 752.162 188.468 751.799 188.468C751.197 188.468 750.717 188.298 750.357 187.957C750.002 187.612 749.824 187.17 749.824 186.631C749.824 185.997 750.071 185.507 750.566 185.162C751.065 184.818 751.766 184.645 752.668 184.645H753.454V184.425C753.454 184.121 753.355 183.895 753.157 183.749C752.963 183.602 752.677 183.528 752.299 183.528C752.112 183.528 751.872 183.556 751.579 183.611C751.285 183.662 750.992 183.738 750.698 183.837L750.297 182.681C750.675 182.538 751.067 182.43 751.474 182.357C751.885 182.283 752.252 182.247 752.574 182.247C753.443 182.247 754.085 182.425 754.5 182.78C754.918 183.132 755.127 183.642 755.127 184.31V186.598ZM752.398 187.225C752.585 187.225 752.781 187.17 752.987 187.06C753.192 186.946 753.348 186.787 753.454 186.582V185.635H753.025C752.541 185.635 752.186 185.711 751.958 185.861C751.731 186.008 751.617 186.224 751.617 186.51C751.617 186.734 751.685 186.91 751.821 187.038C751.96 187.163 752.153 187.225 752.398 187.225ZM756.861 188.281V187.115H757.631V183.594H756.861V182.439H758.957L759.276 183.754C759.485 183.252 759.751 182.878 760.073 182.632C760.4 182.386 760.798 182.263 761.267 182.263C761.465 182.263 761.641 182.28 761.795 182.313C761.949 182.342 762.094 182.384 762.23 182.439L761.702 183.875C761.595 183.846 761.489 183.824 761.383 183.809C761.276 183.794 761.159 183.787 761.031 183.787C760.649 183.787 760.314 183.943 760.024 184.255C759.738 184.566 759.52 184.962 759.369 185.443V187.115H760.525V188.281H756.861ZM760.816 184.882V183.176L761.075 182.439H762.23L761.905 184.882H760.816ZM768.662 187.94C768.435 188.087 768.159 188.212 767.837 188.314C767.514 188.417 767.151 188.468 766.748 188.468C765.985 188.468 765.418 188.274 765.048 187.885C764.677 187.493 764.492 186.961 764.492 186.29V183.638H763.265V182.439H764.492V181.174L766.23 180.965V182.439H768.112L767.941 183.638H766.23V186.29C766.23 186.58 766.296 186.787 766.428 186.912C766.56 187.036 766.771 187.099 767.061 187.099C767.266 187.099 767.454 187.075 767.622 187.027C767.795 186.976 767.949 186.912 768.084 186.835L768.662 187.94ZM773.57 182.439V187.093H775.055V188.281H770.176V187.093H771.832V183.627H770.231V182.439H773.57ZM773.356 179.095L774.032 180.404L771.436 181.433L770.957 180.552L773.356 179.095ZM776.597 188.281V182.439H778.115L778.236 183.116C778.497 182.822 778.772 182.604 779.061 182.461C779.351 182.318 779.681 182.247 780.052 182.247C780.55 182.247 780.943 182.399 781.229 182.703C781.515 183.008 781.658 183.437 781.658 183.991V188.281H779.92V184.491C779.92 184.253 779.903 184.064 779.87 183.925C779.837 183.782 779.778 183.681 779.694 183.622C779.613 183.56 779.502 183.528 779.358 183.528C779.237 183.528 779.118 183.556 779.001 183.611C778.887 183.662 778.775 183.738 778.665 183.837C778.555 183.936 778.445 184.055 778.335 184.194V188.281H776.597ZM784.701 185.866C784.742 186.186 784.824 186.444 784.949 186.642C785.077 186.836 785.24 186.98 785.438 187.071C785.636 187.159 785.858 187.203 786.104 187.203C786.372 187.203 786.63 187.159 786.88 187.071C787.129 186.983 787.369 186.866 787.6 186.719L788.299 187.665C788.024 187.9 787.69 188.093 787.298 188.243C786.909 188.393 786.465 188.468 785.967 188.468C785.299 188.468 784.74 188.336 784.289 188.072C783.838 187.805 783.498 187.438 783.271 186.972C783.044 186.506 782.93 185.971 782.93 185.366C782.93 184.79 783.04 184.267 783.26 183.798C783.48 183.325 783.801 182.949 784.223 182.67C784.648 182.388 785.167 182.247 785.779 182.247C786.337 182.247 786.819 182.366 787.226 182.604C787.637 182.843 787.954 183.186 788.178 183.633C788.405 184.08 788.519 184.618 788.519 185.245C788.519 185.344 788.515 185.45 788.508 185.564C788.504 185.678 788.497 185.778 788.486 185.866H784.701ZM785.779 183.413C785.468 183.413 785.217 183.525 785.026 183.749C784.835 183.972 784.72 184.33 784.679 184.821H786.825C786.821 184.396 786.739 184.055 786.577 183.798C786.416 183.541 786.15 183.413 785.779 183.413ZM791.865 186.967H794.792L794.626 188.281H789.813V187.055L792.712 183.749H790.055V182.439H794.736V183.661L791.865 186.967ZM806.077 178.379V191.582H804.954V178.379H806.077ZM818.545 180.536C819.095 180.536 819.564 180.617 819.953 180.778C820.342 180.936 820.663 181.157 820.916 181.444C821.172 181.726 821.372 182.06 821.515 182.445C821.658 182.83 821.759 183.248 821.818 183.699C821.876 184.15 821.906 184.618 821.906 185.102C821.906 186.026 821.862 186.8 821.774 187.423C821.686 188.043 821.521 188.509 821.279 188.821C821.04 189.136 820.696 189.294 820.244 189.294C820.024 189.294 819.832 189.244 819.667 189.145C819.505 189.046 819.372 188.918 819.265 188.76C819.163 188.606 819.084 188.439 819.029 188.259C818.977 188.076 818.948 187.904 818.941 187.742H818.897C818.823 187.918 818.722 188.087 818.594 188.248C818.466 188.41 818.303 188.542 818.105 188.645C817.906 188.747 817.664 188.799 817.378 188.799C816.968 188.799 816.638 188.689 816.388 188.468C816.139 188.252 815.957 187.953 815.844 187.572C815.73 187.19 815.673 186.759 815.673 186.279C815.673 185.344 815.864 184.631 816.245 184.139C816.627 183.644 817.178 183.396 817.901 183.396C818.172 183.396 818.44 183.429 818.704 183.495C818.972 183.558 819.26 183.672 819.568 183.837V187.104C819.568 187.453 819.595 187.722 819.65 187.913C819.705 188.104 819.781 188.236 819.876 188.309C819.975 188.382 820.087 188.419 820.211 188.419C820.358 188.419 820.472 188.344 820.553 188.193C820.637 188.043 820.697 187.827 820.734 187.544C820.771 187.258 820.793 186.913 820.8 186.51C820.807 186.107 820.811 185.652 820.811 185.146C820.811 184.603 820.78 184.106 820.718 183.655C820.659 183.2 820.547 182.808 820.382 182.478C820.221 182.148 819.99 181.893 819.689 181.713C819.388 181.533 818.998 181.444 818.517 181.444C818.147 181.444 817.756 181.513 817.345 181.653C816.938 181.792 816.509 182.06 816.058 182.456L815.464 181.768C815.963 181.335 816.467 181.022 816.977 180.827C817.49 180.633 818.013 180.536 818.545 180.536ZM817.917 184.233C817.496 184.233 817.208 184.398 817.054 184.728C816.9 185.054 816.823 185.571 816.823 186.279C816.823 186.631 816.845 186.932 816.889 187.181C816.933 187.431 817.01 187.621 817.12 187.753C817.23 187.885 817.378 187.951 817.565 187.951C817.789 187.951 817.963 187.9 818.088 187.797C818.213 187.695 818.306 187.574 818.369 187.434C818.431 187.291 818.479 187.167 818.512 187.06V184.376C818.413 184.324 818.317 184.288 818.226 184.266C818.134 184.244 818.031 184.233 817.917 184.233ZM827.804 180.657V185.536C827.804 185.98 827.736 186.382 827.601 186.741C827.465 187.101 827.265 187.407 827.001 187.66C826.741 187.913 826.42 188.107 826.038 188.243C825.661 188.379 825.228 188.446 824.74 188.446C824.249 188.446 823.823 188.384 823.464 188.259C823.108 188.131 822.765 187.955 822.435 187.731L823.123 186.62C823.383 186.8 823.627 186.926 823.854 187C824.082 187.069 824.34 187.104 824.63 187.104C825.022 187.104 825.349 186.98 825.609 186.73C825.873 186.477 826.005 186.086 826.005 185.558V181.977H823.662V180.657H827.804ZM831.904 182.247C832.505 182.247 833.017 182.375 833.439 182.632C833.86 182.889 834.183 183.25 834.407 183.716C834.63 184.178 834.742 184.72 834.742 185.344C834.742 185.993 834.629 186.552 834.401 187.022C834.177 187.487 833.855 187.845 833.433 188.094C833.011 188.344 832.501 188.468 831.904 188.468C831.31 188.468 830.8 188.346 830.374 188.1C829.953 187.854 829.628 187.498 829.401 187.033C829.177 186.567 829.065 186.008 829.065 185.355C829.065 184.735 829.177 184.192 829.401 183.727C829.628 183.261 829.953 182.898 830.374 182.637C830.8 182.377 831.31 182.247 831.904 182.247ZM831.904 183.528C831.548 183.528 831.284 183.675 831.112 183.969C830.943 184.258 830.858 184.72 830.858 185.355C830.858 186 830.943 186.468 831.112 186.758C831.284 187.047 831.548 187.192 831.904 187.192C832.259 187.192 832.522 187.047 832.69 186.758C832.863 186.468 832.949 185.997 832.949 185.344C832.949 184.713 832.863 184.253 832.69 183.963C832.522 183.673 832.259 183.528 831.904 183.528ZM837.478 185.866C837.518 186.186 837.6 186.444 837.725 186.642C837.853 186.836 838.017 186.98 838.215 187.071C838.413 187.159 838.635 187.203 838.88 187.203C839.148 187.203 839.407 187.159 839.656 187.071C839.905 186.983 840.146 186.866 840.377 186.719L841.075 187.665C840.8 187.9 840.466 188.093 840.074 188.243C839.685 188.393 839.242 188.468 838.743 188.468C838.075 188.468 837.516 188.336 837.065 188.072C836.614 187.805 836.275 187.438 836.047 186.972C835.82 186.506 835.706 185.971 835.706 185.366C835.706 184.79 835.816 184.267 836.036 183.798C836.256 183.325 836.577 182.949 836.999 182.67C837.424 182.388 837.943 182.247 838.556 182.247C839.113 182.247 839.595 182.366 840.003 182.604C840.413 182.843 840.731 183.186 840.954 183.633C841.182 184.08 841.295 184.618 841.295 185.245C841.295 185.344 841.292 185.45 841.284 185.564C841.281 185.678 841.273 185.778 841.262 185.866H837.478ZM838.556 183.413C838.244 183.413 837.993 183.525 837.802 183.749C837.611 183.972 837.496 184.33 837.456 184.821H839.601C839.597 184.396 839.515 184.055 839.353 183.798C839.192 183.541 838.926 183.413 838.556 183.413ZM846.281 183.143C846.281 182.872 846.229 182.648 846.126 182.472C846.027 182.293 845.875 182.161 845.67 182.076C845.468 181.988 845.213 181.944 844.905 181.944H844.289V184.436H844.999C845.266 184.436 845.496 184.39 845.686 184.299C845.877 184.207 846.024 184.066 846.126 183.875C846.229 183.684 846.281 183.44 846.281 183.143ZM848.14 183.138C848.14 183.728 848.013 184.216 847.76 184.601C847.507 184.986 847.153 185.274 846.699 185.465C846.244 185.652 845.716 185.745 845.114 185.745H844.289V188.281H842.485V180.657H844.883C845.917 180.657 846.719 180.862 847.287 181.273C847.856 181.684 848.14 182.305 848.14 183.138ZM851.695 182.247C852.296 182.247 852.808 182.375 853.23 182.632C853.651 182.889 853.974 183.25 854.198 183.716C854.422 184.178 854.533 184.72 854.533 185.344C854.533 185.993 854.42 186.552 854.192 187.022C853.969 187.487 853.646 187.845 853.224 188.094C852.802 188.344 852.293 188.468 851.695 188.468C851.101 188.468 850.591 188.346 850.165 188.1C849.744 187.854 849.419 187.498 849.192 187.033C848.968 186.567 848.856 186.008 848.856 185.355C848.856 184.735 848.968 184.192 849.192 183.727C849.419 183.261 849.744 182.898 850.165 182.637C850.591 182.377 851.101 182.247 851.695 182.247ZM851.695 183.528C851.339 183.528 851.075 183.675 850.903 183.969C850.734 184.258 850.65 184.72 850.65 185.355C850.65 186 850.734 186.468 850.903 186.758C851.075 187.047 851.339 187.192 851.695 187.192C852.051 187.192 852.313 187.047 852.481 186.758C852.654 186.468 852.74 185.997 852.74 185.344C852.74 184.713 852.654 184.253 852.481 183.963C852.313 183.673 852.051 183.528 851.695 183.528ZM855.816 188.281V187.115H856.587V183.594H855.816V182.439H857.912L858.231 183.754C858.44 183.252 858.706 182.878 859.029 182.632C859.355 182.386 859.753 182.263 860.223 182.263C860.421 182.263 860.597 182.28 860.751 182.313C860.905 182.342 861.05 182.384 861.185 182.439L860.657 183.875C860.551 183.846 860.445 183.824 860.338 183.809C860.232 183.794 860.115 183.787 859.986 183.787C859.605 183.787 859.269 183.943 858.979 184.255C858.693 184.566 858.475 184.962 858.325 185.443V187.115H859.48V188.281H855.816ZM859.772 184.882V183.176L860.03 182.439H861.185L860.861 184.882H859.772ZM867.617 187.94C867.39 188.087 867.115 188.212 866.792 188.314C866.47 188.417 866.106 188.468 865.703 188.468C864.94 188.468 864.374 188.274 864.003 187.885C863.633 187.493 863.448 186.961 863.448 186.29V183.638H862.221V182.439H863.448V181.174L865.186 180.965V182.439H867.067L866.897 183.638H865.186V186.29C865.186 186.58 865.252 186.787 865.384 186.912C865.516 187.036 865.727 187.099 866.017 187.099C866.222 187.099 866.409 187.075 866.578 187.027C866.75 186.976 866.904 186.912 867.04 186.835L867.617 187.94ZM872.526 182.439V187.093H874.011V188.281H869.131V187.093H870.787V183.627H869.186V182.439H872.526ZM871.475 179.381C871.776 179.381 872.021 179.474 872.212 179.661C872.403 179.848 872.498 180.081 872.498 180.36C872.498 180.639 872.403 180.873 872.212 181.064C872.021 181.251 871.776 181.345 871.475 181.345C871.171 181.345 870.921 181.251 870.727 181.064C870.536 180.873 870.441 180.639 870.441 180.36C870.441 180.081 870.536 179.848 870.727 179.661C870.921 179.474 871.171 179.381 871.475 179.381ZM878.6 180.118V186.444C878.6 186.679 878.666 186.847 878.798 186.95C878.934 187.049 879.119 187.099 879.354 187.099C879.504 187.099 879.649 187.082 879.788 187.049C879.928 187.013 880.058 186.97 880.179 186.923L880.597 188.083C880.399 188.186 880.161 188.276 879.882 188.353C879.603 188.43 879.279 188.468 878.908 188.468C878.204 188.468 877.687 188.267 877.357 187.863C877.027 187.456 876.862 186.912 876.862 186.23V181.306H875.14V180.118H878.6ZM885.197 180.118V186.444C885.197 186.679 885.263 186.847 885.395 186.95C885.531 187.049 885.716 187.099 885.951 187.099C886.101 187.099 886.246 187.082 886.385 187.049C886.525 187.013 886.655 186.97 886.776 186.923L887.194 188.083C886.996 188.186 886.758 188.276 886.479 188.353C886.2 188.43 885.876 188.468 885.505 188.468C884.801 188.468 884.284 188.267 883.954 187.863C883.624 187.456 883.459 186.912 883.459 186.23V181.306H881.737V180.118H885.197ZM893.664 186.598C893.664 186.818 893.694 186.978 893.753 187.077C893.815 187.176 893.914 187.251 894.05 187.302L893.692 188.446C893.347 188.413 893.056 188.338 892.817 188.221C892.583 188.1 892.397 187.918 892.262 187.676C892.038 187.944 891.752 188.144 891.404 188.276C891.055 188.404 890.699 188.468 890.336 188.468C889.735 188.468 889.254 188.298 888.895 187.957C888.539 187.612 888.361 187.17 888.361 186.631C888.361 185.997 888.609 185.507 889.104 185.162C889.603 184.818 890.303 184.645 891.206 184.645H891.992V184.425C891.992 184.121 891.893 183.895 891.695 183.749C891.501 183.602 891.215 183.528 890.837 183.528C890.65 183.528 890.41 183.556 890.116 183.611C889.823 183.662 889.529 183.738 889.236 183.837L888.835 182.681C889.212 182.538 889.605 182.43 890.012 182.357C890.423 182.283 890.789 182.247 891.112 182.247C891.981 182.247 892.623 182.425 893.037 182.78C893.455 183.132 893.664 183.642 893.664 184.31V186.598ZM890.936 187.225C891.123 187.225 891.319 187.17 891.525 187.06C891.73 186.946 891.886 186.787 891.992 186.582V185.635H891.563C891.079 185.635 890.723 185.711 890.496 185.861C890.268 186.008 890.155 186.224 890.155 186.51C890.155 186.734 890.223 186.91 890.358 187.038C890.498 187.163 890.69 187.225 890.936 187.225Z" fill="black"/>
<circle cx="426" cy="92" r="11" fill="#027D47"/>
<circle cx="1295" cy="92" r="8.5" fill="white" stroke="#8A0101" stroke-width="5"/>
</svg>
