<svg width="1208" height="242" viewBox="0 0 1208 242" fill="none" xmlns="http://www.w3.org/2000/svg">
<rect width="1208" height="241" fill="white"/>
<rect x="342.249" y="205.665" width="25.7725" height="25.7725" rx="5.03368" fill="#0037AC"/>
<path d="M352.232 212.398C352.061 211.981 351.471 211.981 351.301 212.398L351.032 213.052C350.982 213.174 350.982 213.311 351.031 213.433L354.627 222.257C354.762 222.588 354.519 222.95 354.161 222.95H350.582H349.374C349.016 222.95 348.772 222.587 348.908 222.255L349.529 220.744C349.579 220.622 349.579 220.485 349.529 220.363L349.247 219.67C349.077 219.253 348.487 219.252 348.315 219.669L346.625 223.786C346.489 224.117 346.733 224.48 347.091 224.48H356.441C356.8 224.48 357.043 224.117 356.907 223.786L352.232 212.398Z" fill="white"/>
<path d="M355.642 214.845C355.507 214.514 355.751 214.152 356.108 214.152H359.687H360.896C361.254 214.152 361.497 214.515 361.361 214.846L360.741 216.358C360.69 216.48 360.69 216.617 360.74 216.739L361.022 217.432C361.192 217.849 361.783 217.85 361.954 217.433L363.644 213.316C363.78 212.985 363.537 212.621 363.179 212.621H353.828C353.47 212.621 353.226 212.985 353.362 213.316L358.038 224.704C358.209 225.121 358.798 225.121 358.969 224.704L359.238 224.05C359.288 223.927 359.288 223.791 359.238 223.668L355.642 214.845Z" fill="white"/>
<path d="M383.916 220.027H380.268L379.558 222.484H377.811L381.06 212.273H383.191L386.446 222.484H384.626L383.916 220.027ZM380.623 218.703H383.553L382.095 213.605L380.623 218.703ZM389.533 214.67V220.131C389.533 220.594 389.624 220.925 389.807 221.122C389.994 221.319 390.275 221.418 390.65 221.418C391.005 221.418 391.348 221.312 391.679 221.1C392.009 220.888 392.271 220.629 392.463 220.323V214.67H394.12V222.484H392.692L392.589 221.485C392.298 221.874 391.93 222.173 391.486 222.38C391.042 222.582 390.589 222.683 390.125 222.683C389.37 222.683 388.806 222.476 388.431 222.062C388.061 221.643 387.876 221.068 387.876 220.338V214.67H389.533ZM403.275 222.069C402.989 222.252 402.646 222.4 402.246 222.513C401.847 222.627 401.43 222.683 400.996 222.683C400.088 222.683 399.398 222.449 398.924 221.98C398.455 221.507 398.221 220.885 398.221 220.116V215.876H396.482V214.67H398.221V212.924L399.878 212.724V214.67H402.513L402.328 215.876H399.878V220.101C399.878 220.52 399.982 220.834 400.189 221.041C400.401 221.243 400.747 221.344 401.225 221.344C401.511 221.344 401.775 221.31 402.017 221.241C402.258 221.171 402.478 221.083 402.675 220.974L403.275 222.069ZM408.751 214.463C409.516 214.463 410.16 214.633 410.683 214.974C411.205 215.314 411.6 215.79 411.866 216.402C412.138 217.013 412.273 217.733 412.273 218.562C412.273 219.386 412.135 220.108 411.859 220.73C411.588 221.347 411.188 221.827 410.66 222.173C410.138 222.513 409.499 222.683 408.744 222.683C407.989 222.683 407.348 222.518 406.82 222.188C406.297 221.852 405.898 221.376 405.622 220.76C405.35 220.143 405.215 219.415 405.215 218.577C405.215 217.763 405.35 217.048 405.622 216.431C405.898 215.815 406.3 215.334 406.828 214.988C407.356 214.638 407.997 214.463 408.751 214.463ZM408.751 215.75C408.155 215.75 407.706 215.98 407.405 216.439C407.104 216.892 406.954 217.605 406.954 218.577C406.954 219.544 407.102 220.256 407.397 220.715C407.698 221.174 408.147 221.403 408.744 221.403C409.341 221.403 409.787 221.174 410.083 220.715C410.384 220.256 410.535 219.539 410.535 218.562C410.535 217.6 410.387 216.892 410.091 216.439C409.795 215.98 409.348 215.75 408.751 215.75ZM414.569 222.484V221.3H415.716V215.847H414.569V214.67H416.981L417.284 216.483C417.575 215.827 417.935 215.329 418.364 214.988C418.798 214.643 419.356 214.47 420.037 214.47C420.268 214.47 420.476 214.49 420.658 214.53C420.846 214.564 421.031 214.611 421.213 214.67L420.717 216.091C420.559 216.046 420.411 216.014 420.273 215.995C420.135 215.97 419.982 215.958 419.815 215.958C419.247 215.958 418.757 216.17 418.342 216.594C417.933 217.018 417.61 217.62 417.373 218.399V221.3H418.949V222.484H414.569ZM419.748 217.548V215.625L419.955 214.67H421.213L420.932 217.548H419.748ZM425.151 221.344C425.151 220.984 425.279 220.676 425.536 220.419C425.792 220.158 426.108 220.027 426.483 220.027C426.863 220.027 427.178 220.158 427.43 220.419C427.686 220.676 427.815 220.984 427.815 221.344C427.815 221.714 427.686 222.03 427.43 222.291C427.178 222.553 426.863 222.683 426.483 222.683C426.108 222.683 425.792 222.553 425.536 222.291C425.279 222.03 425.151 221.714 425.151 221.344ZM425.151 216.091C425.151 215.849 425.21 215.627 425.328 215.425C425.447 215.223 425.607 215.062 425.809 214.944C426.012 214.826 426.236 214.766 426.483 214.766C426.863 214.766 427.178 214.897 427.43 215.159C427.686 215.415 427.815 215.726 427.815 216.091C427.815 216.456 427.686 216.772 427.43 217.038C427.178 217.299 426.863 217.43 426.483 217.43C426.108 217.43 425.792 217.299 425.536 217.038C425.279 216.772 425.151 216.456 425.151 216.091ZM447.595 212.229V218.791C447.595 219.388 447.504 219.928 447.322 220.412C447.139 220.895 446.87 221.307 446.515 221.647C446.165 221.988 445.733 222.249 445.22 222.432C444.712 222.614 444.13 222.706 443.474 222.706C442.813 222.706 442.241 222.622 441.757 222.454C441.279 222.281 440.818 222.045 440.374 221.744L441.299 220.249C441.649 220.491 441.977 220.661 442.283 220.76C442.589 220.853 442.936 220.9 443.326 220.9C443.854 220.9 444.293 220.732 444.643 220.397C444.998 220.057 445.176 219.531 445.176 218.821V214.004H442.024V212.229H447.595ZM453.109 214.367C453.918 214.367 454.606 214.539 455.173 214.885C455.741 215.23 456.175 215.716 456.476 216.342C456.777 216.964 456.927 217.694 456.927 218.532C456.927 219.406 456.774 220.158 456.468 220.789C456.167 221.416 455.733 221.897 455.166 222.232C454.599 222.567 453.913 222.735 453.109 222.735C452.31 222.735 451.624 222.57 451.052 222.239C450.485 221.909 450.048 221.43 449.743 220.804C449.442 220.178 449.291 219.425 449.291 218.547C449.291 217.714 449.442 216.984 449.743 216.357C450.048 215.731 450.485 215.242 451.052 214.892C451.624 214.542 452.31 214.367 453.109 214.367ZM453.109 216.091C452.631 216.091 452.276 216.288 452.044 216.683C451.817 217.072 451.703 217.694 451.703 218.547C451.703 219.415 451.817 220.044 452.044 220.434C452.276 220.824 452.631 221.019 453.109 221.019C453.588 221.019 453.94 220.824 454.167 220.434C454.399 220.044 454.515 219.41 454.515 218.532C454.515 217.684 454.399 217.065 454.167 216.675C453.94 216.286 453.588 216.091 453.109 216.091ZM461.731 221.063C462.12 221.063 462.433 221.001 462.67 220.878C462.912 220.755 463.033 220.57 463.033 220.323C463.033 220.155 462.986 220.015 462.892 219.901C462.799 219.788 462.618 219.679 462.352 219.576C462.086 219.472 461.691 219.349 461.168 219.206C460.69 219.078 460.266 218.915 459.896 218.717C459.531 218.52 459.245 218.266 459.037 217.955C458.835 217.645 458.734 217.257 458.734 216.794C458.734 216.325 458.865 215.908 459.126 215.543C459.388 215.178 459.772 214.892 460.28 214.685C460.788 214.473 461.41 214.367 462.145 214.367C462.845 214.367 463.455 214.458 463.972 214.641C464.495 214.818 464.947 215.045 465.326 215.321L464.394 216.698C464.069 216.495 463.718 216.335 463.344 216.217C462.969 216.093 462.591 216.032 462.212 216.032C461.832 216.032 461.548 216.083 461.361 216.187C461.178 216.286 461.087 216.436 461.087 216.638C461.087 216.772 461.134 216.887 461.227 216.986C461.326 217.08 461.509 217.178 461.775 217.282C462.041 217.381 462.431 217.504 462.944 217.652C463.452 217.795 463.894 217.96 464.268 218.148C464.648 218.335 464.942 218.587 465.149 218.902C465.356 219.213 465.46 219.625 465.46 220.138C465.46 220.71 465.29 221.191 464.949 221.581C464.609 221.966 464.157 222.254 463.595 222.447C463.033 222.639 462.416 222.735 461.745 222.735C460.986 222.735 460.315 222.627 459.733 222.41C459.151 222.193 458.655 221.906 458.246 221.551L459.422 220.234C459.728 220.471 460.073 220.668 460.458 220.826C460.848 220.984 461.272 221.063 461.731 221.063ZM469.479 219.235C469.533 219.665 469.644 220.012 469.812 220.279C469.985 220.54 470.204 220.732 470.47 220.856C470.737 220.974 471.035 221.033 471.366 221.033C471.726 221.033 472.074 220.974 472.409 220.856C472.744 220.737 473.067 220.58 473.378 220.382L474.318 221.655C473.948 221.971 473.499 222.23 472.971 222.432C472.448 222.634 471.852 222.735 471.181 222.735C470.283 222.735 469.531 222.558 468.924 222.202C468.317 221.842 467.861 221.349 467.555 220.723C467.249 220.096 467.096 219.376 467.096 218.562C467.096 217.788 467.244 217.085 467.54 216.453C467.836 215.817 468.268 215.311 468.835 214.937C469.407 214.557 470.105 214.367 470.929 214.367C471.679 214.367 472.328 214.527 472.875 214.848C473.428 215.168 473.854 215.63 474.155 216.231C474.461 216.833 474.614 217.556 474.614 218.399C474.614 218.532 474.609 218.676 474.599 218.828C474.594 218.981 474.584 219.117 474.569 219.235H469.479ZM470.929 215.935C470.51 215.935 470.172 216.086 469.915 216.387C469.659 216.688 469.504 217.169 469.449 217.83H472.335C472.33 217.257 472.219 216.799 472.002 216.453C471.785 216.108 471.427 215.935 470.929 215.935ZM480.675 214.367C481.361 214.367 481.913 214.537 482.333 214.877C482.752 215.218 483.058 215.699 483.25 216.32C483.447 216.942 483.546 217.679 483.546 218.532C483.546 219.341 483.428 220.064 483.191 220.7C482.954 221.332 482.611 221.83 482.162 222.195C481.714 222.555 481.169 222.735 480.527 222.735C479.763 222.735 479.141 222.461 478.663 221.914V225.517L476.325 225.761V214.626H478.396L478.5 215.506C478.821 215.097 479.171 214.806 479.551 214.633C479.93 214.456 480.305 214.367 480.675 214.367ZM479.95 216.091C479.679 216.091 479.44 216.172 479.232 216.335C479.025 216.498 478.835 216.72 478.663 217.001V220.316C478.825 220.557 478.996 220.735 479.173 220.848C479.356 220.962 479.57 221.019 479.817 221.019C480.231 221.019 480.554 220.831 480.786 220.456C481.018 220.076 481.134 219.445 481.134 218.562C481.134 217.911 481.087 217.408 480.993 217.053C480.9 216.693 480.764 216.443 480.586 216.305C480.409 216.162 480.197 216.091 479.95 216.091ZM487.536 211.274V215.403C487.866 215.052 488.224 214.794 488.609 214.626C488.998 214.453 489.41 214.367 489.844 214.367C490.545 214.367 491.08 214.572 491.45 214.981C491.82 215.39 492.005 215.967 492.005 216.712V222.484H489.667V217.363C489.667 216.89 489.612 216.559 489.504 216.372C489.4 216.185 489.203 216.091 488.912 216.091C488.749 216.091 488.589 216.13 488.431 216.209C488.278 216.283 488.128 216.392 487.98 216.535C487.832 216.678 487.684 216.848 487.536 217.045V222.484H485.198V211.503L487.536 211.274ZM510.313 219.487C510.313 220.123 510.145 220.686 509.81 221.174C509.479 221.662 509.003 222.045 508.382 222.321C507.76 222.597 507.013 222.735 506.14 222.735C505.173 222.735 504.362 222.595 503.706 222.313C503.055 222.027 502.515 221.675 502.085 221.255L503.314 219.894C503.693 220.224 504.113 220.481 504.571 220.663C505.03 220.841 505.533 220.93 506.081 220.93C506.421 220.93 506.72 220.88 506.976 220.782C507.233 220.683 507.432 220.54 507.575 220.353C507.718 220.165 507.79 219.938 507.79 219.672C507.79 219.42 507.733 219.208 507.62 219.036C507.506 218.863 507.314 218.708 507.043 218.569C506.776 218.431 506.404 218.291 505.925 218.148C505.126 217.901 504.483 217.63 503.994 217.334C503.511 217.038 503.158 216.695 502.936 216.305C502.719 215.916 502.611 215.462 502.611 214.944C502.611 214.318 502.783 213.782 503.129 213.338C503.479 212.894 503.947 212.557 504.534 212.325C505.121 212.088 505.768 211.97 506.473 211.97C507.267 211.97 507.968 212.085 508.574 212.317C509.181 212.544 509.706 212.87 510.15 213.294L509.003 214.611C508.658 214.32 508.286 214.105 507.886 213.967C507.487 213.824 507.08 213.753 506.665 213.753C506.36 213.753 506.091 213.792 505.859 213.871C505.627 213.945 505.447 214.056 505.319 214.204C505.19 214.352 505.126 214.537 505.126 214.759C505.126 214.976 505.188 215.159 505.311 215.307C505.435 215.454 505.649 215.595 505.955 215.728C506.261 215.857 506.685 216.007 507.228 216.18C507.874 216.377 508.426 216.614 508.885 216.89C509.349 217.161 509.701 217.504 509.943 217.918C510.19 218.333 510.313 218.856 510.313 219.487ZM518.431 220.219C518.431 220.515 518.471 220.73 518.55 220.863C518.634 220.996 518.767 221.097 518.949 221.167L518.468 222.706C518.005 222.661 517.613 222.56 517.292 222.402C516.976 222.239 516.727 221.995 516.545 221.67C516.244 222.03 515.859 222.299 515.39 222.476C514.922 222.649 514.443 222.735 513.955 222.735C513.146 222.735 512.5 222.506 512.016 222.047C511.538 221.583 511.299 220.989 511.299 220.264C511.299 219.41 511.632 218.752 512.298 218.288C512.968 217.825 513.911 217.593 515.124 217.593H516.182V217.297C516.182 216.887 516.049 216.584 515.783 216.387C515.521 216.189 515.136 216.091 514.628 216.091C514.377 216.091 514.054 216.128 513.659 216.202C513.264 216.271 512.87 216.372 512.475 216.505L511.935 214.951C512.443 214.759 512.971 214.613 513.518 214.515C514.071 214.416 514.564 214.367 514.998 214.367C516.167 214.367 517.03 214.606 517.588 215.085C518.15 215.558 518.431 216.244 518.431 217.141V220.219ZM514.761 221.063C515.013 221.063 515.277 220.989 515.553 220.841C515.829 220.688 516.039 220.473 516.182 220.197V218.925H515.605C514.954 218.925 514.475 219.026 514.17 219.228C513.864 219.425 513.711 219.716 513.711 220.101C513.711 220.402 513.802 220.639 513.985 220.811C514.172 220.979 514.431 221.063 514.761 221.063ZM520.69 222.484V214.626H522.732L522.895 215.536C523.245 215.141 523.615 214.848 524.004 214.655C524.394 214.463 524.838 214.367 525.336 214.367C526.007 214.367 526.535 214.572 526.92 214.981C527.304 215.39 527.497 215.967 527.497 216.712V222.484H525.159V217.386C525.159 217.065 525.136 216.811 525.092 216.624C525.048 216.431 524.969 216.296 524.855 216.217C524.747 216.133 524.596 216.091 524.404 216.091C524.241 216.091 524.081 216.128 523.923 216.202C523.77 216.271 523.62 216.372 523.472 216.505C523.324 216.638 523.176 216.799 523.028 216.986V222.484H520.69ZM536.636 222.025C536.33 222.222 535.96 222.39 535.526 222.528C535.092 222.666 534.604 222.735 534.061 222.735C533.035 222.735 532.273 222.474 531.775 221.951C531.277 221.423 531.028 220.708 531.028 219.805V216.239H529.378V214.626H531.028V212.924L533.366 212.643V214.626H535.896L535.667 216.239H533.366V219.805C533.366 220.195 533.455 220.473 533.632 220.641C533.81 220.809 534.093 220.893 534.483 220.893C534.759 220.893 535.011 220.861 535.238 220.797C535.47 220.728 535.677 220.641 535.859 220.538L536.636 222.025ZM543.238 214.626V220.885H545.235V222.484H538.672V220.885H540.9V216.224H538.746V214.626H543.238ZM541.824 210.512C542.229 210.512 542.559 210.638 542.816 210.889C543.072 211.141 543.201 211.454 543.201 211.829C543.201 212.204 543.072 212.52 542.816 212.776C542.559 213.028 542.229 213.153 541.824 213.153C541.415 213.153 541.08 213.028 540.818 212.776C540.562 212.52 540.433 212.204 540.433 211.829C540.433 211.454 540.562 211.141 540.818 210.889C541.08 210.638 541.415 210.512 541.824 210.512ZM553.923 220.219C553.923 220.515 553.963 220.73 554.042 220.863C554.126 220.996 554.259 221.097 554.441 221.167L553.96 222.706C553.497 222.661 553.105 222.56 552.784 222.402C552.468 222.239 552.219 221.995 552.037 221.67C551.736 222.03 551.351 222.299 550.882 222.476C550.414 222.649 549.935 222.735 549.447 222.735C548.638 222.735 547.992 222.506 547.508 222.047C547.03 221.583 546.791 220.989 546.791 220.264C546.791 219.41 547.124 218.752 547.79 218.288C548.46 217.825 549.403 217.593 550.616 217.593H551.674V217.297C551.674 216.887 551.541 216.584 551.275 216.387C551.013 216.189 550.628 216.091 550.12 216.091C549.869 216.091 549.546 216.128 549.151 216.202C548.756 216.271 548.362 216.372 547.967 216.505L547.427 214.951C547.935 214.759 548.463 214.613 549.01 214.515C549.563 214.416 550.056 214.367 550.49 214.367C551.659 214.367 552.523 214.606 553.08 215.085C553.642 215.558 553.923 216.244 553.923 217.141V220.219ZM550.254 221.063C550.505 221.063 550.769 220.989 551.045 220.841C551.321 220.688 551.531 220.473 551.674 220.197V218.925H551.097C550.446 218.925 549.967 219.026 549.662 219.228C549.356 219.425 549.203 219.716 549.203 220.101C549.203 220.402 549.294 220.639 549.477 220.811C549.664 220.979 549.923 221.063 550.254 221.063ZM563.159 213.368L563.706 215.085C563.43 215.193 563.107 215.272 562.737 215.321C562.367 215.371 561.936 215.395 561.442 215.395C561.936 215.607 562.311 215.871 562.567 216.187C562.828 216.498 562.959 216.907 562.959 217.415C562.959 217.923 562.824 218.377 562.552 218.777C562.281 219.171 561.896 219.482 561.398 219.709C560.9 219.936 560.31 220.049 559.63 220.049C559.462 220.049 559.304 220.042 559.156 220.027C559.008 220.012 558.863 219.99 558.72 219.96C558.636 220.005 558.572 220.069 558.527 220.153C558.483 220.237 558.461 220.323 558.461 220.412C558.461 220.535 558.51 220.646 558.609 220.745C558.712 220.843 558.951 220.893 559.326 220.893H560.614C561.225 220.893 561.753 220.991 562.197 221.189C562.646 221.386 562.994 221.655 563.24 221.995C563.487 222.336 563.61 222.725 563.61 223.164C563.61 223.968 563.258 224.602 562.552 225.066C561.847 225.529 560.799 225.761 559.408 225.761C558.401 225.761 557.622 225.658 557.07 225.451C556.522 225.248 556.14 224.957 555.923 224.577C555.711 224.203 555.605 223.756 555.605 223.238H557.676C557.676 223.465 557.721 223.65 557.809 223.793C557.903 223.941 558.078 224.05 558.335 224.119C558.596 224.188 558.974 224.222 559.467 224.222C559.965 224.222 560.345 224.183 560.606 224.104C560.868 224.025 561.045 223.916 561.139 223.778C561.238 223.645 561.287 223.495 561.287 223.327C561.287 223.095 561.196 222.908 561.013 222.765C560.831 222.622 560.542 222.55 560.148 222.55H558.897C558.049 222.55 557.432 222.395 557.047 222.084C556.663 221.768 556.47 221.401 556.47 220.982C556.47 220.691 556.547 220.414 556.7 220.153C556.857 219.891 557.077 219.672 557.358 219.494C556.855 219.228 556.495 218.915 556.278 218.555C556.061 218.19 555.952 217.753 555.952 217.245C555.952 216.653 556.103 216.145 556.404 215.721C556.705 215.292 557.119 214.961 557.647 214.729C558.179 214.498 558.786 214.382 559.467 214.382C560.054 214.392 560.564 214.352 560.998 214.263C561.433 214.17 561.822 214.044 562.168 213.886C562.513 213.723 562.843 213.55 563.159 213.368ZM559.526 215.898C559.156 215.898 558.863 216.017 558.646 216.254C558.429 216.485 558.32 216.806 558.32 217.215C558.32 217.65 558.431 217.982 558.653 218.214C558.875 218.446 559.166 218.562 559.526 218.562C559.916 218.562 560.212 218.446 560.414 218.214C560.621 217.982 560.725 217.64 560.725 217.186C560.725 216.747 560.624 216.424 560.421 216.217C560.219 216.004 559.921 215.898 559.526 215.898ZM568.458 214.367C569.267 214.367 569.955 214.539 570.523 214.885C571.09 215.23 571.524 215.716 571.825 216.342C572.126 216.964 572.276 217.694 572.276 218.532C572.276 219.406 572.123 220.158 571.817 220.789C571.517 221.416 571.082 221.897 570.515 222.232C569.948 222.567 569.262 222.735 568.458 222.735C567.659 222.735 566.974 222.57 566.401 222.239C565.834 221.909 565.398 221.43 565.092 220.804C564.791 220.178 564.64 219.425 564.64 218.547C564.64 217.714 564.791 216.984 565.092 216.357C565.398 215.731 565.834 215.242 566.401 214.892C566.974 214.542 567.659 214.367 568.458 214.367ZM568.458 216.091C567.98 216.091 567.625 216.288 567.393 216.683C567.166 217.072 567.052 217.694 567.052 218.547C567.052 219.415 567.166 220.044 567.393 220.434C567.625 220.824 567.98 221.019 568.458 221.019C568.937 221.019 569.289 220.824 569.516 220.434C569.748 220.044 569.864 219.41 569.864 218.532C569.864 217.684 569.748 217.065 569.516 216.675C569.289 216.286 568.937 216.091 568.458 216.091ZM587.795 215.573C587.795 215.208 587.726 214.907 587.588 214.67C587.455 214.428 587.25 214.251 586.974 214.137C586.702 214.019 586.36 213.96 585.945 213.96H585.117V217.312H586.071C586.431 217.312 586.739 217.25 586.996 217.127C587.252 217.003 587.45 216.813 587.588 216.557C587.726 216.3 587.795 215.972 587.795 215.573ZM590.296 215.565C590.296 216.36 590.126 217.016 589.785 217.534C589.445 218.052 588.969 218.439 588.357 218.695C587.746 218.947 587.035 219.073 586.226 219.073H585.117V222.484H582.69V212.229H585.916C587.307 212.229 588.385 212.505 589.149 213.057C589.914 213.61 590.296 214.446 590.296 215.565ZM595.077 214.367C595.886 214.367 596.574 214.539 597.142 214.885C597.709 215.23 598.143 215.716 598.444 216.342C598.745 216.964 598.895 217.694 598.895 218.532C598.895 219.406 598.742 220.158 598.436 220.789C598.136 221.416 597.701 221.897 597.134 222.232C596.567 222.567 595.881 222.735 595.077 222.735C594.278 222.735 593.593 222.57 593.02 222.239C592.453 221.909 592.017 221.43 591.711 220.804C591.41 220.178 591.259 219.425 591.259 218.547C591.259 217.714 591.41 216.984 591.711 216.357C592.017 215.731 592.453 215.242 593.02 214.892C593.593 214.542 594.278 214.367 595.077 214.367ZM595.077 216.091C594.599 216.091 594.244 216.288 594.012 216.683C593.785 217.072 593.671 217.694 593.671 218.547C593.671 219.415 593.785 220.044 594.012 220.434C594.244 220.824 594.599 221.019 595.077 221.019C595.556 221.019 595.908 220.824 596.135 220.434C596.367 220.044 596.483 219.41 596.483 218.532C596.483 217.684 596.367 217.065 596.135 216.675C595.908 216.286 595.556 216.091 595.077 216.091ZM600.621 222.484V220.915H601.657V216.18H600.621V214.626H603.44L603.869 216.394C604.15 215.718 604.508 215.215 604.942 214.885C605.381 214.554 605.916 214.389 606.547 214.389C606.814 214.389 607.05 214.411 607.258 214.456C607.465 214.495 607.66 214.552 607.842 214.626L607.132 216.557C606.989 216.517 606.846 216.488 606.703 216.468C606.56 216.448 606.402 216.439 606.229 216.439C605.716 216.439 605.265 216.648 604.875 217.067C604.49 217.487 604.197 218.019 603.995 218.666V220.915H605.548V222.484H600.621ZM605.941 217.911V215.617L606.288 214.626H607.842L607.406 217.911H605.941ZM616.493 222.025C616.187 222.222 615.817 222.39 615.383 222.528C614.949 222.666 614.461 222.735 613.918 222.735C612.892 222.735 612.13 222.474 611.632 221.951C611.134 221.423 610.885 220.708 610.885 219.805V216.239H609.235V214.626H610.885V212.924L613.223 212.643V214.626H615.753L615.524 216.239H613.223V219.805C613.223 220.195 613.312 220.473 613.489 220.641C613.667 220.809 613.95 220.893 614.34 220.893C614.616 220.893 614.868 220.861 615.095 220.797C615.327 220.728 615.534 220.641 615.716 220.538L616.493 222.025ZM623.095 214.626V220.885H625.092V222.484H618.53V220.885H620.757V216.224H618.604V214.626H623.095ZM621.682 210.512C622.086 210.512 622.416 210.638 622.673 210.889C622.929 211.141 623.058 211.454 623.058 211.829C623.058 212.204 622.929 212.52 622.673 212.776C622.416 213.028 622.086 213.153 621.682 213.153C621.272 213.153 620.937 213.028 620.675 212.776C620.419 212.52 620.291 212.204 620.291 211.829C620.291 211.454 620.419 211.141 620.675 210.889C620.937 210.638 621.272 210.512 621.682 210.512ZM631.265 211.503V220.012C631.265 220.328 631.354 220.555 631.531 220.693C631.714 220.826 631.963 220.893 632.279 220.893C632.481 220.893 632.676 220.871 632.863 220.826C633.05 220.777 633.226 220.72 633.388 220.656L633.951 222.217C633.684 222.355 633.364 222.476 632.989 222.58C632.614 222.683 632.177 222.735 631.679 222.735C630.732 222.735 630.037 222.464 629.593 221.921C629.149 221.374 628.927 220.641 628.927 219.724V213.102H626.611V211.503H631.265ZM640.138 211.503V220.012C640.138 220.328 640.227 220.555 640.404 220.693C640.587 220.826 640.836 220.893 641.152 220.893C641.354 220.893 641.549 220.871 641.736 220.826C641.923 220.777 642.099 220.72 642.261 220.656L642.824 222.217C642.557 222.355 642.237 222.476 641.862 222.58C641.487 222.683 641.05 222.735 640.552 222.735C639.605 222.735 638.91 222.464 638.466 221.921C638.022 221.374 637.8 220.641 637.8 219.724V213.102H635.484V211.503H640.138ZM651.527 220.219C651.527 220.515 651.566 220.73 651.645 220.863C651.729 220.996 651.862 221.097 652.044 221.167L651.563 222.706C651.1 222.661 650.708 222.56 650.387 222.402C650.071 222.239 649.822 221.995 649.64 221.67C649.339 222.03 648.954 222.299 648.486 222.476C648.017 222.649 647.538 222.735 647.05 222.735C646.241 222.735 645.595 222.506 645.112 222.047C644.633 221.583 644.394 220.989 644.394 220.264C644.394 219.41 644.727 218.752 645.393 218.288C646.064 217.825 647.006 217.593 648.219 217.593H649.277V217.297C649.277 216.887 649.144 216.584 648.878 216.387C648.616 216.189 648.231 216.091 647.723 216.091C647.472 216.091 647.149 216.128 646.754 216.202C646.36 216.271 645.965 216.372 645.57 216.505L645.03 214.951C645.538 214.759 646.066 214.613 646.614 214.515C647.166 214.416 647.659 214.367 648.093 214.367C649.262 214.367 650.126 214.606 650.683 215.085C651.245 215.558 651.527 216.244 651.527 217.141V220.219ZM647.857 221.063C648.108 221.063 648.372 220.989 648.648 220.841C648.925 220.688 649.134 220.473 649.277 220.197V218.925H648.7C648.049 218.925 647.571 219.026 647.265 219.228C646.959 219.425 646.806 219.716 646.806 220.101C646.806 220.402 646.897 220.639 647.08 220.811C647.267 220.979 647.526 221.063 647.857 221.063ZM653.985 218.762V216.942H660.392V218.762H653.985ZM669.665 212.229L670.242 222.484H668.126L668 218.096C667.99 217.687 667.985 217.322 667.985 217.001C667.99 216.68 667.997 216.379 668.007 216.098C668.017 215.812 668.032 215.526 668.052 215.24C668.076 214.949 668.101 214.633 668.126 214.293L666.971 220.737H665.137L663.893 214.293C663.923 214.618 663.948 214.927 663.967 215.218C663.992 215.504 664.009 215.792 664.019 216.083C664.029 216.374 664.037 216.688 664.041 217.023C664.046 217.354 664.044 217.724 664.034 218.133L663.96 222.484H661.881L662.458 212.229H664.952L666.091 218.858L667.171 212.229H669.665ZM678.146 220.219C678.146 220.515 678.185 220.73 678.264 220.863C678.348 220.996 678.481 221.097 678.663 221.167L678.183 222.706C677.719 222.661 677.327 222.56 677.006 222.402C676.69 222.239 676.441 221.995 676.259 221.67C675.958 222.03 675.573 222.299 675.105 222.476C674.636 222.649 674.157 222.735 673.669 222.735C672.86 222.735 672.214 222.506 671.731 222.047C671.252 221.583 671.013 220.989 671.013 220.264C671.013 219.41 671.346 218.752 672.012 218.288C672.683 217.825 673.625 217.593 674.838 217.593H675.896V217.297C675.896 216.887 675.763 216.584 675.497 216.387C675.235 216.189 674.851 216.091 674.342 216.091C674.091 216.091 673.768 216.128 673.373 216.202C672.979 216.271 672.584 216.372 672.189 216.505L671.649 214.951C672.157 214.759 672.685 214.613 673.233 214.515C673.785 214.416 674.278 214.367 674.712 214.367C675.881 214.367 676.745 214.606 677.302 215.085C677.864 215.558 678.146 216.244 678.146 217.141V220.219ZM674.476 221.063C674.727 221.063 674.991 220.989 675.267 220.841C675.544 220.688 675.753 220.473 675.896 220.197V218.925H675.319C674.668 218.925 674.19 219.026 673.884 219.228C673.578 219.425 673.425 219.716 673.425 220.101C673.425 220.402 673.516 220.639 673.699 220.811C673.886 220.979 674.145 221.063 674.476 221.063ZM680.478 222.484V220.915H681.514V216.18H680.478V214.626H683.297L683.726 216.394C684.007 215.718 684.365 215.215 684.799 214.885C685.238 214.554 685.773 214.389 686.404 214.389C686.671 214.389 686.908 214.411 687.115 214.456C687.322 214.495 687.517 214.552 687.699 214.626L686.989 216.557C686.846 216.517 686.703 216.488 686.56 216.468C686.417 216.448 686.259 216.439 686.086 216.439C685.573 216.439 685.122 216.648 684.732 217.067C684.348 217.487 684.054 218.019 683.852 218.666V220.915H685.406V222.484H680.478ZM685.798 217.911V215.617L686.145 214.626H687.699L687.263 217.911H685.798ZM696.35 222.025C696.044 222.222 695.675 222.39 695.24 222.528C694.806 222.666 694.318 222.735 693.775 222.735C692.749 222.735 691.987 222.474 691.489 221.951C690.991 221.423 690.742 220.708 690.742 219.805V216.239H689.092V214.626H690.742V212.924L693.08 212.643V214.626H695.61L695.381 216.239H693.08V219.805C693.08 220.195 693.169 220.473 693.346 220.641C693.524 220.809 693.808 220.893 694.197 220.893C694.473 220.893 694.725 220.861 694.952 220.797C695.184 220.728 695.391 220.641 695.573 220.538L696.35 222.025ZM702.952 214.626V220.885H704.95V222.484H698.387V220.885H700.614V216.224H698.461V214.626H702.952ZM702.663 210.127L703.573 211.888L700.081 213.272L699.437 212.088L702.663 210.127ZM707.023 222.484V214.626H709.065L709.228 215.536C709.578 215.141 709.948 214.848 710.338 214.655C710.727 214.463 711.171 214.367 711.669 214.367C712.34 214.367 712.868 214.572 713.253 214.981C713.638 215.39 713.83 215.967 713.83 216.712V222.484H711.492V217.386C711.492 217.065 711.47 216.811 711.425 216.624C711.381 216.431 711.302 216.296 711.189 216.217C711.08 216.133 710.93 216.091 710.737 216.091C710.574 216.091 710.414 216.128 710.256 216.202C710.103 216.271 709.953 216.372 709.805 216.505C709.657 216.638 709.509 216.799 709.361 216.986V222.484H707.023ZM717.923 219.235C717.977 219.665 718.088 220.012 718.256 220.279C718.429 220.54 718.648 220.732 718.915 220.856C719.181 220.974 719.479 221.033 719.81 221.033C720.17 221.033 720.518 220.974 720.853 220.856C721.189 220.737 721.512 220.58 721.822 220.382L722.762 221.655C722.392 221.971 721.943 222.23 721.416 222.432C720.893 222.634 720.296 222.735 719.625 222.735C718.727 222.735 717.975 222.558 717.368 222.202C716.762 221.842 716.305 221.349 715.999 220.723C715.694 220.096 715.541 219.376 715.541 218.562C715.541 217.788 715.689 217.085 715.985 216.453C716.281 215.817 716.712 215.311 717.28 214.937C717.852 214.557 718.55 214.367 719.373 214.367C720.123 214.367 720.772 214.527 721.319 214.848C721.872 215.168 722.299 215.63 722.599 216.231C722.905 216.833 723.058 217.556 723.058 218.399C723.058 218.532 723.053 218.676 723.043 218.828C723.038 218.981 723.029 219.117 723.014 219.235H717.923ZM719.373 215.935C718.954 215.935 718.616 216.086 718.36 216.387C718.103 216.688 717.948 217.169 717.894 217.83H720.779C720.774 217.257 720.663 216.799 720.446 216.453C720.229 216.108 719.872 215.935 719.373 215.935ZM727.558 220.715H731.495L731.273 222.484H724.798V220.834L728.698 216.387H725.124V214.626H731.421V216.268L727.558 220.715ZM746.673 209.165V226.923H745.164V209.165H746.673ZM763.443 212.066C764.182 212.066 764.814 212.174 765.337 212.391C765.86 212.603 766.291 212.902 766.631 213.287C766.977 213.666 767.246 214.115 767.438 214.633C767.63 215.151 767.766 215.713 767.845 216.32C767.924 216.927 767.963 217.556 767.963 218.207C767.963 219.45 767.904 220.491 767.786 221.329C767.667 222.163 767.445 222.789 767.12 223.209C766.799 223.633 766.336 223.845 765.729 223.845C765.433 223.845 765.174 223.778 764.952 223.645C764.735 223.512 764.555 223.339 764.412 223.127C764.274 222.92 764.168 222.696 764.094 222.454C764.025 222.207 763.985 221.975 763.975 221.758H763.916C763.817 221.995 763.682 222.222 763.509 222.439C763.336 222.656 763.117 222.834 762.851 222.972C762.584 223.11 762.259 223.179 761.874 223.179C761.321 223.179 760.878 223.031 760.542 222.735C760.207 222.444 759.963 222.042 759.81 221.529C759.657 221.016 759.58 220.436 759.58 219.79C759.58 218.532 759.837 217.573 760.35 216.912C760.863 216.246 761.605 215.913 762.577 215.913C762.942 215.913 763.302 215.958 763.657 216.046C764.017 216.13 764.404 216.283 764.819 216.505V220.9C764.819 221.369 764.856 221.731 764.93 221.988C765.004 222.244 765.105 222.422 765.233 222.521C765.366 222.619 765.517 222.669 765.684 222.669C765.882 222.669 766.035 222.567 766.143 222.365C766.257 222.163 766.338 221.872 766.387 221.492C766.437 221.107 766.466 220.644 766.476 220.101C766.486 219.558 766.491 218.947 766.491 218.266C766.491 217.536 766.449 216.868 766.365 216.261C766.286 215.649 766.136 215.122 765.914 214.678C765.697 214.234 765.386 213.891 764.982 213.649C764.577 213.407 764.052 213.287 763.406 213.287C762.907 213.287 762.382 213.38 761.83 213.568C761.282 213.755 760.705 214.115 760.098 214.648L759.299 213.723C759.97 213.141 760.648 212.719 761.334 212.458C762.024 212.196 762.727 212.066 763.443 212.066ZM762.599 217.038C762.032 217.038 761.645 217.26 761.437 217.704C761.23 218.143 761.127 218.838 761.127 219.79C761.127 220.264 761.156 220.668 761.215 221.004C761.275 221.339 761.378 221.596 761.526 221.773C761.674 221.951 761.874 222.04 762.126 222.04C762.426 222.04 762.661 221.971 762.828 221.832C762.996 221.694 763.122 221.532 763.206 221.344C763.29 221.152 763.354 220.984 763.398 220.841V217.23C763.265 217.161 763.137 217.112 763.013 217.082C762.89 217.053 762.752 217.038 762.599 217.038ZM775.897 212.229V218.791C775.897 219.388 775.805 219.928 775.623 220.412C775.44 220.895 775.172 221.307 774.816 221.647C774.466 221.988 774.035 222.249 773.522 222.432C773.013 222.614 772.431 222.706 771.775 222.706C771.114 222.706 770.542 222.622 770.059 222.454C769.58 222.281 769.119 222.045 768.675 221.744L769.6 220.249C769.95 220.491 770.278 220.661 770.584 220.76C770.89 220.853 771.238 220.9 771.627 220.9C772.155 220.9 772.594 220.732 772.944 220.397C773.3 220.057 773.477 219.531 773.477 218.821V214.004H770.325V212.229H775.897ZM781.41 214.367C782.219 214.367 782.908 214.539 783.475 214.885C784.042 215.23 784.476 215.716 784.777 216.342C785.078 216.964 785.228 217.694 785.228 218.532C785.228 219.406 785.075 220.158 784.77 220.789C784.469 221.416 784.035 221.897 783.467 222.232C782.9 222.567 782.215 222.735 781.41 222.735C780.611 222.735 779.926 222.57 779.354 222.239C778.786 221.909 778.35 221.43 778.044 220.804C777.743 220.178 777.593 219.425 777.593 218.547C777.593 217.714 777.743 216.984 778.044 216.357C778.35 215.731 778.786 215.242 779.354 214.892C779.926 214.542 780.611 214.367 781.41 214.367ZM781.41 216.091C780.932 216.091 780.577 216.288 780.345 216.683C780.118 217.072 780.005 217.694 780.005 218.547C780.005 219.415 780.118 220.044 780.345 220.434C780.577 220.824 780.932 221.019 781.41 221.019C781.889 221.019 782.242 220.824 782.469 220.434C782.7 220.044 782.816 219.41 782.816 218.532C782.816 217.684 782.7 217.065 782.469 216.675C782.242 216.286 781.889 216.091 781.41 216.091ZM788.907 219.235C788.962 219.665 789.073 220.012 789.24 220.279C789.413 220.54 789.632 220.732 789.899 220.856C790.165 220.974 790.464 221.033 790.794 221.033C791.154 221.033 791.502 220.974 791.837 220.856C792.173 220.737 792.496 220.58 792.807 220.382L793.746 221.655C793.376 221.971 792.927 222.23 792.4 222.432C791.877 222.634 791.28 222.735 790.609 222.735C789.711 222.735 788.959 222.558 788.352 222.202C787.746 221.842 787.289 221.349 786.984 220.723C786.678 220.096 786.525 219.376 786.525 218.562C786.525 217.788 786.673 217.085 786.969 216.453C787.265 215.817 787.696 215.311 788.264 214.937C788.836 214.557 789.534 214.367 790.358 214.367C791.107 214.367 791.756 214.527 792.303 214.848C792.856 215.168 793.283 215.63 793.583 216.231C793.889 216.833 794.042 217.556 794.042 218.399C794.042 218.532 794.037 218.676 794.027 218.828C794.022 218.981 794.013 219.117 793.998 219.235H788.907ZM790.358 215.935C789.938 215.935 789.6 216.086 789.344 216.387C789.087 216.688 788.932 217.169 788.878 217.83H791.763C791.758 217.257 791.647 216.799 791.43 216.453C791.213 216.108 790.856 215.935 790.358 215.935ZM800.747 215.573C800.747 215.208 800.678 214.907 800.54 214.67C800.407 214.428 800.202 214.251 799.926 214.137C799.655 214.019 799.312 213.96 798.898 213.96H798.069V217.312H799.023C799.383 217.312 799.692 217.25 799.948 217.127C800.205 217.003 800.402 216.813 800.54 216.557C800.678 216.3 800.747 215.972 800.747 215.573ZM803.248 215.565C803.248 216.36 803.078 217.016 802.738 217.534C802.397 218.052 801.921 218.439 801.31 218.695C800.698 218.947 799.988 219.073 799.179 219.073H798.069V222.484H795.642V212.229H798.868C800.259 212.229 801.337 212.505 802.101 213.057C802.866 213.61 803.248 214.446 803.248 215.565ZM808.03 214.367C808.839 214.367 809.527 214.539 810.094 214.885C810.661 215.23 811.095 215.716 811.396 216.342C811.697 216.964 811.847 217.694 811.847 218.532C811.847 219.406 811.695 220.158 811.389 220.789C811.088 221.416 810.654 221.897 810.086 222.232C809.519 222.567 808.834 222.735 808.03 222.735C807.23 222.735 806.545 222.57 805.973 222.239C805.405 221.909 804.969 221.43 804.663 220.804C804.362 220.178 804.212 219.425 804.212 218.547C804.212 217.714 804.362 216.984 804.663 216.357C804.969 215.731 805.405 215.242 805.973 214.892C806.545 214.542 807.23 214.367 808.03 214.367ZM808.03 216.091C807.551 216.091 807.196 216.288 806.964 216.683C806.737 217.072 806.624 217.694 806.624 218.547C806.624 219.415 806.737 220.044 806.964 220.434C807.196 220.824 807.551 221.019 808.03 221.019C808.508 221.019 808.861 220.824 809.088 220.434C809.319 220.044 809.435 219.41 809.435 218.532C809.435 217.684 809.319 217.065 809.088 216.675C808.861 216.286 808.508 216.091 808.03 216.091ZM813.573 222.484V220.915H814.609V216.18H813.573V214.626H816.392L816.821 216.394C817.102 215.718 817.46 215.215 817.894 214.885C818.333 214.554 818.868 214.389 819.5 214.389C819.766 214.389 820.003 214.411 820.21 214.456C820.417 214.495 820.612 214.552 820.794 214.626L820.084 216.557C819.941 216.517 819.798 216.488 819.655 216.468C819.512 216.448 819.354 216.439 819.181 216.439C818.668 216.439 818.217 216.648 817.827 217.067C817.443 217.487 817.149 218.019 816.947 218.666V220.915H818.501V222.484H813.573ZM818.893 217.911V215.617L819.241 214.626H820.794L820.358 217.911H818.893ZM829.445 222.025C829.14 222.222 828.77 222.39 828.336 222.528C827.902 222.666 827.413 222.735 826.871 222.735C825.845 222.735 825.083 222.474 824.584 221.951C824.086 221.423 823.837 220.708 823.837 219.805V216.239H822.187V214.626H823.837V212.924L826.175 212.643V214.626H828.706L828.476 216.239H826.175V219.805C826.175 220.195 826.264 220.473 826.441 220.641C826.619 220.809 826.903 220.893 827.292 220.893C827.569 220.893 827.82 220.861 828.047 220.797C828.279 220.728 828.486 220.641 828.669 220.538L829.445 222.025ZM836.047 214.626V220.885H838.045V222.484H831.482V220.885H833.709V216.224H831.556V214.626H836.047ZM834.634 210.512C835.038 210.512 835.369 210.638 835.625 210.889C835.882 211.141 836.01 211.454 836.01 211.829C836.01 212.204 835.882 212.52 835.625 212.776C835.369 213.028 835.038 213.153 834.634 213.153C834.224 213.153 833.889 213.028 833.628 212.776C833.371 212.52 833.243 212.204 833.243 211.829C833.243 211.454 833.371 211.141 833.628 210.889C833.889 210.638 834.224 210.512 834.634 210.512ZM844.217 211.503V220.012C844.217 220.328 844.306 220.555 844.483 220.693C844.666 220.826 844.915 220.893 845.231 220.893C845.433 220.893 845.628 220.871 845.815 220.826C846.003 220.777 846.178 220.72 846.341 220.656L846.903 222.217C846.637 222.355 846.316 222.476 845.941 222.58C845.566 222.683 845.13 222.735 844.631 222.735C843.684 222.735 842.989 222.464 842.545 221.921C842.101 221.374 841.879 220.641 841.879 219.724V213.102H839.563V211.503H844.217ZM853.09 211.503V220.012C853.09 220.328 853.179 220.555 853.356 220.693C853.539 220.826 853.788 220.893 854.104 220.893C854.306 220.893 854.501 220.871 854.688 220.826C854.876 220.777 855.051 220.72 855.214 220.656L855.776 222.217C855.51 222.355 855.189 222.476 854.814 222.58C854.439 222.683 854.003 222.735 853.504 222.735C852.557 222.735 851.862 222.464 851.418 221.921C850.974 221.374 850.752 220.641 850.752 219.724V213.102H848.436V211.503H853.09ZM864.479 220.219C864.479 220.515 864.518 220.73 864.597 220.863C864.681 220.996 864.814 221.097 864.997 221.167L864.516 222.706C864.052 222.661 863.66 222.56 863.339 222.402C863.024 222.239 862.775 221.995 862.592 221.67C862.291 222.03 861.906 222.299 861.438 222.476C860.969 222.649 860.491 222.735 860.002 222.735C859.193 222.735 858.547 222.506 858.064 222.047C857.585 221.583 857.346 220.989 857.346 220.264C857.346 219.41 857.679 218.752 858.345 218.288C859.016 217.825 859.958 217.593 861.171 217.593H862.229V217.297C862.229 216.887 862.096 216.584 861.83 216.387C861.568 216.189 861.184 216.091 860.676 216.091C860.424 216.091 860.101 216.128 859.706 216.202C859.312 216.271 858.917 216.372 858.523 216.505L857.982 214.951C858.49 214.759 859.018 214.613 859.566 214.515C860.118 214.416 860.612 214.367 861.046 214.367C862.215 214.367 863.078 214.606 863.635 215.085C864.198 215.558 864.479 216.244 864.479 217.141V220.219ZM860.809 221.063C861.06 221.063 861.324 220.989 861.601 220.841C861.877 220.688 862.086 220.473 862.229 220.197V218.925H861.652C861.001 218.925 860.523 219.026 860.217 219.228C859.911 219.425 859.758 219.716 859.758 220.101C859.758 220.402 859.849 220.639 860.032 220.811C860.219 220.979 860.478 221.063 860.809 221.063Z" fill="black"/>
<path d="M457.811 59V47.0862H460.399L460.613 48.56C461.123 47.96 461.696 47.51 462.334 47.21C462.971 46.9025 463.658 46.7487 464.393 46.7487C465.465 46.7487 466.283 47.06 466.845 47.6825C467.408 48.2975 467.689 49.1637 467.689 50.2812V59H464.719V51.44C464.719 50.84 464.681 50.36 464.606 50C464.531 49.6325 464.389 49.37 464.179 49.2125C463.969 49.0475 463.665 48.965 463.268 48.965C462.945 48.965 462.634 49.0362 462.334 49.1787C462.041 49.3212 461.764 49.5125 461.501 49.7525C461.246 49.9925 461.006 50.2587 460.781 50.5512V59H457.811ZM477.456 46.7487C478.506 46.7487 479.346 47.0075 479.976 47.525C480.614 48.035 481.075 48.7587 481.36 49.6962C481.652 50.6337 481.799 51.74 481.799 53.015C481.799 54.2375 481.622 55.325 481.27 56.2775C480.917 57.23 480.4 57.98 479.717 58.5275C479.042 59.0675 478.21 59.3375 477.22 59.3375C476.005 59.3375 475.022 58.9063 474.272 58.0437V63.59L471.302 63.905V47.0862H473.912L474.07 48.5375C474.542 47.9225 475.071 47.4725 475.656 47.1875C476.241 46.895 476.841 46.7487 477.456 46.7487ZM476.59 48.9762C476.087 48.9762 475.645 49.1262 475.262 49.4262C474.887 49.7262 474.557 50.0975 474.272 50.54V55.8725C474.542 56.2775 474.85 56.5812 475.195 56.7837C475.54 56.9862 475.93 57.0875 476.365 57.0875C477.122 57.0875 477.7 56.7725 478.097 56.1425C478.502 55.505 478.705 54.4737 478.705 53.0487C478.705 52.0437 478.622 51.245 478.457 50.6525C478.3 50.0525 478.064 49.625 477.749 49.37C477.434 49.1075 477.047 48.9762 476.59 48.9762ZM487.404 57.0087C487.404 56.5887 487.505 56.2025 487.707 55.85C487.917 55.4975 488.199 55.2162 488.551 55.0062C488.904 54.7962 489.294 54.6912 489.721 54.6912C490.156 54.6912 490.55 54.7962 490.902 55.0062C491.255 55.2162 491.532 55.4975 491.735 55.85C491.945 56.2025 492.05 56.5887 492.05 57.0087C492.05 57.4287 491.945 57.8187 491.735 58.1787C491.532 58.5312 491.255 58.8125 490.902 59.0225C490.55 59.2325 490.156 59.3375 489.721 59.3375C489.294 59.3375 488.904 59.2325 488.551 59.0225C488.199 58.8125 487.917 58.5312 487.707 58.1787C487.505 57.8187 487.404 57.4287 487.404 57.0087ZM503.955 42.3275V55.535C503.955 56.0525 504.105 56.42 504.405 56.6375C504.712 56.855 505.125 56.9637 505.642 56.9637C505.965 56.9637 506.276 56.93 506.576 56.8625C506.876 56.7875 507.161 56.6975 507.431 56.5925L508.162 58.6175C507.787 58.805 507.33 58.97 506.79 59.1125C506.257 59.2625 505.639 59.3375 504.934 59.3375C503.636 59.3375 502.654 58.9662 501.986 58.2237C501.319 57.4812 500.985 56.48 500.985 55.22V44.4312H497.419V42.3275H503.955ZM518.627 47.0862V56.8962H521.766V59H512.17V56.8962H515.657V49.19H512.282V47.0862H518.627ZM516.704 41.0787C517.251 41.0787 517.694 41.2475 518.031 41.585C518.376 41.9225 518.549 42.3425 518.549 42.845C518.549 43.3475 518.376 43.7712 518.031 44.1162C517.694 44.4537 517.251 44.6225 516.704 44.6225C516.156 44.6225 515.71 44.4537 515.365 44.1162C515.02 43.7712 514.847 43.3475 514.847 42.845C514.847 42.3425 515.02 41.9225 515.365 41.585C515.71 41.2475 516.156 41.0787 516.704 41.0787ZM525.267 59V47.0862H527.855L528.069 48.56C528.579 47.96 529.152 47.51 529.79 47.21C530.427 46.9025 531.114 46.7487 531.849 46.7487C532.921 46.7487 533.739 47.06 534.301 47.6825C534.864 48.2975 535.145 49.1637 535.145 50.2812V59H532.175V51.44C532.175 50.84 532.137 50.36 532.062 50C531.987 49.6325 531.845 49.37 531.635 49.2125C531.425 49.0475 531.121 48.965 530.724 48.965C530.401 48.965 530.09 49.0362 529.79 49.1787C529.497 49.3212 529.22 49.5125 528.957 49.7525C528.702 49.9925 528.462 50.2587 528.237 50.5512V59H525.267ZM543.292 57.1437C543.99 57.1437 544.549 57.0237 544.969 56.7837C545.396 56.5362 545.61 56.1912 545.61 55.7487C545.61 55.4562 545.539 55.2087 545.396 55.0062C545.261 54.8037 544.991 54.6162 544.586 54.4437C544.181 54.2637 543.574 54.065 542.764 53.8475C541.999 53.6525 541.327 53.4125 540.75 53.1275C540.18 52.835 539.734 52.46 539.411 52.0025C539.096 51.545 538.939 50.9675 538.939 50.27C538.939 49.5725 539.134 48.9612 539.524 48.4362C539.914 47.9037 540.476 47.4912 541.211 47.1987C541.954 46.8987 542.846 46.7487 543.889 46.7487C544.909 46.7487 545.801 46.8837 546.566 47.1537C547.331 47.4162 547.987 47.7462 548.535 48.1437L547.32 49.955C546.84 49.6475 546.319 49.4 545.756 49.2125C545.201 49.0175 544.601 48.92 543.956 48.92C543.259 48.92 542.749 49.0212 542.426 49.2237C542.111 49.4262 541.954 49.7075 541.954 50.0675C541.954 50.3225 542.032 50.54 542.19 50.72C542.355 50.8925 542.647 51.0612 543.067 51.2262C543.495 51.3837 544.102 51.575 544.89 51.8C545.662 52.01 546.334 52.2575 546.904 52.5425C547.481 52.8275 547.927 53.2062 548.242 53.6787C548.557 54.1512 548.715 54.77 548.715 55.535C548.715 56.3975 548.464 57.11 547.961 57.6725C547.459 58.235 546.795 58.655 545.97 58.9325C545.152 59.2025 544.264 59.3375 543.304 59.3375C542.179 59.3375 541.196 59.1763 540.356 58.8537C539.516 58.5312 538.804 58.115 538.219 57.605L539.76 55.8725C540.225 56.24 540.754 56.5437 541.346 56.7837C541.946 57.0237 542.595 57.1437 543.292 57.1437ZM558.403 46.7487C559.453 46.7487 560.293 47.0075 560.923 47.525C561.561 48.035 562.022 48.7587 562.307 49.6962C562.6 50.6337 562.746 51.74 562.746 53.015C562.746 54.2375 562.57 55.325 562.217 56.2775C561.865 57.23 561.347 57.98 560.665 58.5275C559.99 59.0675 559.157 59.3375 558.167 59.3375C556.952 59.3375 555.97 58.9063 555.22 58.0437V63.59L552.25 63.905V47.0862H554.86L555.017 48.5375C555.49 47.9225 556.018 47.4725 556.603 47.1875C557.188 46.895 557.788 46.7487 558.403 46.7487ZM557.537 48.9762C557.035 48.9762 556.592 49.1262 556.21 49.4262C555.835 49.7262 555.505 50.0975 555.22 50.54V55.8725C555.49 56.2775 555.797 56.5812 556.142 56.7837C556.487 56.9862 556.877 57.0875 557.312 57.0875C558.07 57.0875 558.647 56.7725 559.045 56.1425C559.45 55.505 559.652 54.4737 559.652 53.0487C559.652 52.0437 559.57 51.245 559.405 50.6525C559.247 50.0525 559.011 49.625 558.696 49.37C558.381 49.1075 557.995 48.9762 557.537 48.9762ZM575.247 55.8612C575.247 56.3187 575.315 56.6525 575.45 56.8625C575.585 57.065 575.802 57.2187 576.102 57.3237L575.461 59.315C574.823 59.2475 574.28 59.09 573.83 58.8425C573.387 58.5875 573.046 58.2087 572.806 57.7062C572.356 58.2537 571.786 58.6625 571.096 58.9325C570.413 59.2025 569.697 59.3375 568.947 59.3375C567.732 59.3375 566.768 58.9925 566.056 58.3025C565.343 57.6125 564.987 56.7162 564.987 55.6137C564.987 54.3462 565.482 53.3712 566.472 52.6887C567.47 51.9987 568.88 51.6537 570.702 51.6537H572.367V51.0125C572.367 50.3075 572.15 49.7975 571.715 49.4825C571.28 49.16 570.653 48.9987 569.836 48.9987C569.453 48.9987 568.973 49.0512 568.396 49.1562C567.826 49.2537 567.237 49.4075 566.63 49.6175L565.921 47.5812C566.678 47.2962 567.44 47.0862 568.205 46.9512C568.977 46.8162 569.678 46.7487 570.308 46.7487C571.981 46.7487 573.222 47.105 574.032 47.8175C574.842 48.5225 575.247 49.5237 575.247 50.8212V55.8612ZM569.915 57.1887C570.365 57.1887 570.818 57.0612 571.276 56.8062C571.741 56.5512 572.105 56.195 572.367 55.7375V53.42H571.197C570.095 53.42 569.296 53.5962 568.801 53.9487C568.313 54.3012 568.07 54.8 568.07 55.445C568.07 56 568.227 56.4312 568.542 56.7387C568.857 57.0387 569.315 57.1887 569.915 57.1887ZM585.228 56.9525C585.753 56.9525 586.245 56.855 586.702 56.66C587.167 56.465 587.613 56.2175 588.041 55.9175L589.391 57.8187C588.866 58.2612 588.232 58.625 587.49 58.91C586.747 59.195 585.952 59.3375 585.105 59.3375C583.86 59.3375 582.791 59.0788 581.898 58.5612C581.013 58.0362 580.331 57.3087 579.851 56.3787C579.378 55.4412 579.142 54.3537 579.142 53.1162C579.142 51.8937 579.382 50.8025 579.862 49.8425C580.35 48.875 581.04 48.1175 581.932 47.57C582.832 47.0225 583.905 46.7487 585.15 46.7487C586.005 46.7487 586.777 46.8725 587.467 47.12C588.165 47.36 588.802 47.72 589.38 48.2L588.063 50.0225C587.621 49.715 587.163 49.4825 586.691 49.325C586.226 49.16 585.742 49.0775 585.24 49.0775C584.362 49.0775 583.646 49.3962 583.091 50.0337C582.543 50.6637 582.27 51.6912 582.27 53.1162C582.27 54.0537 582.397 54.8037 582.652 55.3662C582.915 55.9287 583.267 56.3337 583.71 56.5812C584.16 56.8287 584.666 56.9525 585.228 56.9525ZM595.255 53.9487C595.315 54.6912 595.483 55.295 595.761 55.76C596.046 56.225 596.41 56.5662 596.852 56.7837C597.295 57.0012 597.786 57.11 598.326 57.11C598.896 57.11 599.432 57.02 599.935 56.84C600.437 56.66 600.932 56.4087 601.42 56.0862L602.657 57.785C602.102 58.25 601.438 58.625 600.666 58.91C599.901 59.195 599.057 59.3375 598.135 59.3375C596.845 59.3375 595.757 59.0713 594.872 58.5387C593.995 58.0062 593.331 57.2675 592.881 56.3225C592.431 55.3775 592.206 54.29 592.206 53.06C592.206 51.875 592.427 50.8062 592.87 49.8537C593.312 48.9012 593.95 48.1475 594.782 47.5925C595.615 47.03 596.62 46.7487 597.797 46.7487C598.892 46.7487 599.837 46.9887 600.632 47.4687C601.427 47.9487 602.042 48.6387 602.477 49.5387C602.912 50.4312 603.13 51.5075 603.13 52.7675C603.13 52.97 603.122 53.1762 603.107 53.3862C603.1 53.5962 603.088 53.7837 603.073 53.9487H595.255ZM597.808 48.8412C597.088 48.8412 596.496 49.1 596.031 49.6175C595.573 50.1275 595.303 50.9375 595.221 52.0475H600.238C600.223 51.0425 600.013 50.2587 599.608 49.6962C599.211 49.1262 598.611 48.8412 597.808 48.8412ZM609.882 51.125C609.882 52.1375 609.965 53.0637 610.13 53.9037C610.295 54.7362 610.553 55.5275 610.906 56.2775C611.258 57.02 611.716 57.7587 612.278 58.4937C612.848 59.2288 613.538 60.0088 614.348 60.8338L612.661 62.4088C611.461 61.3963 610.426 60.3388 609.556 59.2363C608.693 58.1337 608.026 56.9225 607.553 55.6025C607.088 54.2825 606.856 52.79 606.856 51.125C606.856 49.46 607.088 47.9675 607.553 46.6475C608.026 45.32 608.693 44.1087 609.556 43.0137C610.426 41.9112 611.461 40.8537 612.661 39.8412L614.348 41.4162C613.576 42.2037 612.908 42.965 612.346 43.7C611.783 44.435 611.318 45.1812 610.951 45.9387C610.591 46.6887 610.321 47.4875 610.141 48.335C609.968 49.175 609.882 50.105 609.882 51.125ZM638.136 54.6912C638.773 54.6912 639.302 54.905 639.722 55.3325C640.149 55.76 640.363 56.285 640.363 56.9075C640.363 57.29 640.299 57.6762 640.172 58.0662C640.044 58.4487 639.849 58.94 639.587 59.54L637.888 63.3875H635.751L636.876 58.73C636.576 58.5275 636.343 58.265 636.178 57.9425C636.013 57.62 635.931 57.2712 635.931 56.8962C635.931 56.2737 636.141 55.7525 636.561 55.3325C636.981 54.905 637.506 54.6912 638.136 54.6912ZM705.592 54.6912C706.229 54.6912 706.758 54.905 707.178 55.3325C707.606 55.76 707.819 56.285 707.819 56.9075C707.819 57.29 707.756 57.6762 707.628 58.0662C707.501 58.4487 707.306 58.94 707.043 59.54L705.344 63.3875H703.207L704.332 58.73C704.032 58.5275 703.799 58.265 703.634 57.9425C703.469 57.62 703.387 57.2712 703.387 56.8962C703.387 56.2737 703.597 55.7525 704.017 55.3325C704.437 54.905 704.962 54.6912 705.592 54.6912ZM737.187 43.4412L736.838 45.6237H730.988V49.5162C731.4 49.3137 731.813 49.1712 732.225 49.0887C732.638 49.0062 733.035 48.965 733.418 48.965C734.235 48.965 734.97 49.1637 735.623 49.5612C736.283 49.9587 736.8 50.5325 737.175 51.2825C737.558 52.025 737.749 52.9175 737.749 53.96C737.749 55.0025 737.505 55.9325 737.018 56.75C736.538 57.56 735.863 58.1937 734.993 58.6512C734.123 59.1088 733.103 59.3375 731.933 59.3375C730.875 59.3375 729.934 59.1425 729.109 58.7525C728.292 58.3625 727.59 57.8375 727.005 57.1775L728.738 55.5687C729.15 56.0487 729.612 56.4125 730.122 56.66C730.632 56.9 731.179 57.02 731.764 57.02C732.657 57.02 733.365 56.75 733.89 56.21C734.415 55.6625 734.678 54.9162 734.678 53.9712C734.678 53.2587 734.577 52.6925 734.374 52.2725C734.172 51.8525 733.894 51.5487 733.542 51.3612C733.189 51.1737 732.784 51.08 732.327 51.08C731.982 51.08 731.64 51.1212 731.303 51.2037C730.973 51.2787 730.617 51.41 730.234 51.5975H728.153V43.4412H737.187ZM747.337 51.125C747.337 50.105 747.247 49.175 747.067 48.335C746.894 47.4875 746.624 46.6887 746.257 45.9387C745.897 45.1812 745.435 44.435 744.873 43.7C744.31 42.965 743.643 42.2037 742.87 41.4162L744.558 39.8412C745.758 40.8537 746.789 41.9112 747.652 43.0137C748.522 44.1087 749.189 45.32 749.654 46.6475C750.127 47.9675 750.363 49.46 750.363 51.125C750.363 52.79 750.127 54.2825 749.654 55.6025C749.189 56.9225 748.522 58.1337 747.652 59.2363C746.789 60.3388 745.758 61.3963 744.558 62.4088L742.87 60.8338C743.68 60.0088 744.367 59.2288 744.929 58.4937C745.499 57.7587 745.96 57.02 746.313 56.2775C746.665 55.5275 746.924 54.7362 747.089 53.9037C747.254 53.0637 747.337 52.1375 747.337 51.125Z" fill="black"/>
<path d="M624.645 43.1037C626.437 43.1037 627.791 43.8125 628.706 45.23C629.621 46.64 630.078 48.6275 630.078 51.1925C630.078 53.765 629.621 55.7675 628.706 57.2C627.791 58.625 626.437 59.3375 624.645 59.3375C622.845 59.3375 621.487 58.625 620.572 57.2C619.665 55.7675 619.211 53.765 619.211 51.1925C619.211 48.6275 619.665 46.64 620.572 45.23C621.487 43.8125 622.845 43.1037 624.645 43.1037ZM624.645 45.3087C623.797 45.3087 623.156 45.7625 622.721 46.67C622.293 47.57 622.08 49.0775 622.08 51.1925C622.08 52.3625 622.121 53.3337 622.203 54.1062C622.293 54.8712 622.44 55.475 622.642 55.9175C622.845 56.36 623.107 56.675 623.43 56.8625C623.76 57.0425 624.165 57.1325 624.645 57.1325C625.215 57.1325 625.687 56.9412 626.062 56.5587C626.445 56.1687 626.73 55.5387 626.917 54.6687C627.105 53.7912 627.198 52.6325 627.198 51.1925C627.198 49.6625 627.116 48.47 626.951 47.615C626.793 46.76 626.527 46.1637 626.152 45.8262C625.785 45.4812 625.282 45.3087 624.645 45.3087ZM626.591 45.815L627.356 47.66L622.923 56.75L622.012 55.2425L626.591 45.815Z" fill="#027D47"/>
<path d="M667.469 43.4412V58.55H664.556V46.4337L661.237 48.4925L659.966 46.4337L664.848 43.4412H667.469ZM670.496 56.7162V59H660.787V56.7162H670.496ZM678.609 43.1037C680.402 43.1037 681.756 43.8125 682.671 45.23C683.586 46.64 684.043 48.6275 684.043 51.1925C684.043 53.765 683.586 55.7675 682.671 57.2C681.756 58.625 680.402 59.3375 678.609 59.3375C676.809 59.3375 675.452 58.625 674.537 57.2C673.629 55.7675 673.176 53.765 673.176 51.1925C673.176 48.6275 673.629 46.64 674.537 45.23C675.452 43.8125 676.809 43.1037 678.609 43.1037ZM678.609 45.3087C677.762 45.3087 677.121 45.7625 676.686 46.67C676.258 47.57 676.044 49.0775 676.044 51.1925C676.044 52.3625 676.086 53.3337 676.168 54.1062C676.258 54.8712 676.404 55.475 676.607 55.9175C676.809 56.36 677.072 56.675 677.394 56.8625C677.724 57.0425 678.129 57.1325 678.609 57.1325C679.179 57.1325 679.652 56.9412 680.027 56.5587C680.409 56.1687 680.694 55.5387 680.882 54.6687C681.069 53.7912 681.163 52.6325 681.163 51.1925C681.163 49.6625 681.081 48.47 680.916 47.615C680.758 46.76 680.492 46.1637 680.117 45.8262C679.749 45.4812 679.247 45.3087 678.609 45.3087ZM680.556 45.815L681.321 47.66L676.888 56.75L675.977 55.2425L680.556 45.815ZM692.101 43.1037C693.893 43.1037 695.247 43.8125 696.162 45.23C697.077 46.64 697.534 48.6275 697.534 51.1925C697.534 53.765 697.077 55.7675 696.162 57.2C695.247 58.625 693.893 59.3375 692.101 59.3375C690.301 59.3375 688.943 58.625 688.028 57.2C687.121 55.7675 686.667 53.765 686.667 51.1925C686.667 48.6275 687.121 46.64 688.028 45.23C688.943 43.8125 690.301 43.1037 692.101 43.1037ZM692.101 45.3087C691.253 45.3087 690.612 45.7625 690.177 46.67C689.749 47.57 689.536 49.0775 689.536 51.1925C689.536 52.3625 689.577 53.3337 689.659 54.1062C689.749 54.8712 689.896 55.475 690.098 55.9175C690.301 56.36 690.563 56.675 690.886 56.8625C691.216 57.0425 691.621 57.1325 692.101 57.1325C692.671 57.1325 693.143 56.9412 693.518 56.5587C693.901 56.1687 694.186 55.5387 694.373 54.6687C694.561 53.7912 694.654 52.6325 694.654 51.1925C694.654 49.6625 694.572 48.47 694.407 47.615C694.249 46.76 693.983 46.1637 693.608 45.8262C693.241 45.4812 692.738 45.3087 692.101 45.3087ZM694.047 45.815L694.812 47.66L690.379 56.75L689.468 55.2425L694.047 45.815Z" fill="#8B0101"/>
<path d="M215 128L222.5 132.33L222.5 123.67L215 128ZM1069 128L1061.5 123.67L1061.5 132.33L1069 128ZM221.75 128L221.75 128.75L1062.25 128.75L1062.25 128L1062.25 127.25L221.75 127.25L221.75 128Z" fill="black"/>
<line x1="262.25" y1="118" x2="262.25" y2="137.5" stroke="black" stroke-width="1.5"/>
<line x1="449.75" y1="117" x2="449.75" y2="136.5" stroke="black" stroke-width="1.5"/>
<line x1="637.25" y1="118" x2="637.25" y2="137.5" stroke="black" stroke-width="1.5"/>
<line x1="824.75" y1="118" x2="824.75" y2="137.5" stroke="black" stroke-width="1.5"/>
<line x1="1012.25" y1="118" x2="1012.25" y2="137.5" stroke="black" stroke-width="1.5"/>
<path d="M262.25 146.104C264.043 146.104 265.396 146.812 266.311 148.23C267.226 149.64 267.684 151.627 267.684 154.192C267.684 156.765 267.226 158.767 266.311 160.2C265.396 161.625 264.043 162.338 262.25 162.338C260.45 162.338 259.093 161.625 258.178 160.2C257.27 158.767 256.816 156.765 256.816 154.192C256.816 151.627 257.27 149.64 258.178 148.23C259.093 146.812 260.45 146.104 262.25 146.104ZM262.25 148.309C261.403 148.309 260.761 148.762 260.326 149.67C259.899 150.57 259.685 152.077 259.685 154.192C259.685 155.362 259.726 156.334 259.809 157.106C259.899 157.871 260.045 158.475 260.248 158.917C260.45 159.36 260.713 159.675 261.035 159.862C261.365 160.042 261.77 160.132 262.25 160.132C262.82 160.132 263.293 159.941 263.668 159.559C264.05 159.169 264.335 158.539 264.523 157.669C264.71 156.791 264.804 155.632 264.804 154.192C264.804 152.662 264.721 151.47 264.556 150.615C264.399 149.76 264.133 149.164 263.758 148.826C263.39 148.481 262.888 148.309 262.25 148.309ZM264.196 148.815L264.961 150.66L260.529 159.75L259.618 158.242L264.196 148.815Z" fill="#4D4D4D"/>
<path d="M439.154 146.104C440.271 146.104 441.209 146.302 441.966 146.7C442.731 147.097 443.309 147.634 443.699 148.309C444.089 148.976 444.284 149.711 444.284 150.514C444.284 151.174 444.171 151.819 443.946 152.449C443.721 153.079 443.354 153.742 442.844 154.44C442.341 155.137 441.674 155.914 440.841 156.769C440.009 157.616 438.981 158.584 437.759 159.671H444.644L444.318 162H434.361V159.829C435.434 158.794 436.36 157.882 437.14 157.095C437.92 156.3 438.573 155.599 439.098 154.991C439.63 154.384 440.05 153.84 440.358 153.36C440.673 152.872 440.898 152.419 441.033 151.999C441.168 151.579 441.235 151.159 441.235 150.739C441.235 150.026 441.029 149.464 440.616 149.051C440.211 148.639 439.641 148.432 438.906 148.432C438.254 148.432 437.699 148.56 437.241 148.815C436.791 149.062 436.349 149.467 435.914 150.03L434.046 148.612C434.639 147.817 435.344 147.202 436.161 146.767C436.979 146.325 437.976 146.104 439.154 146.104ZM457.854 146.441L457.505 148.624H451.655V152.516C452.067 152.314 452.48 152.171 452.892 152.089C453.305 152.006 453.702 151.965 454.085 151.965C454.902 151.965 455.637 152.164 456.29 152.561C456.95 152.959 457.467 153.532 457.842 154.282C458.225 155.025 458.416 155.917 458.416 156.96C458.416 158.002 458.172 158.932 457.685 159.75C457.205 160.56 456.53 161.194 455.66 161.651C454.79 162.109 453.77 162.338 452.6 162.338C451.542 162.338 450.601 162.143 449.776 161.752C448.959 161.362 448.257 160.837 447.672 160.177L449.405 158.569C449.817 159.049 450.279 159.412 450.789 159.66C451.299 159.9 451.846 160.02 452.431 160.02C453.324 160.02 454.032 159.75 454.557 159.21C455.082 158.662 455.345 157.916 455.345 156.971C455.345 156.259 455.244 155.692 455.041 155.272C454.839 154.852 454.561 154.549 454.209 154.361C453.856 154.174 453.451 154.08 452.994 154.08C452.649 154.08 452.307 154.121 451.97 154.204C451.64 154.279 451.284 154.41 450.901 154.597H448.82V146.441H457.854Z" fill="#4D4D4D"/>
<path d="M635.362 146.441L635.014 148.624H629.164V152.516C629.576 152.314 629.989 152.171 630.401 152.089C630.814 152.006 631.211 151.965 631.594 151.965C632.411 151.965 633.146 152.164 633.799 152.561C634.459 152.959 634.976 153.532 635.351 154.282C635.734 155.025 635.925 155.917 635.925 156.96C635.925 158.002 635.681 158.932 635.194 159.75C634.714 160.56 634.039 161.194 633.169 161.651C632.299 162.109 631.279 162.338 630.109 162.338C629.051 162.338 628.11 162.143 627.285 161.752C626.468 161.362 625.766 160.837 625.181 160.177L626.914 158.569C627.326 159.049 627.788 159.412 628.298 159.66C628.808 159.9 629.355 160.02 629.94 160.02C630.833 160.02 631.541 159.75 632.066 159.21C632.591 158.662 632.854 157.916 632.854 156.971C632.854 156.259 632.753 155.692 632.55 155.272C632.348 154.852 632.07 154.549 631.718 154.361C631.365 154.174 630.96 154.08 630.503 154.08C630.158 154.08 629.816 154.121 629.479 154.204C629.149 154.279 628.793 154.41 628.41 154.597H626.329V146.441H635.362ZM644.241 146.104C646.034 146.104 647.387 146.812 648.302 148.23C649.217 149.64 649.675 151.627 649.675 154.192C649.675 156.765 649.217 158.767 648.302 160.2C647.387 161.625 646.034 162.338 644.241 162.338C642.441 162.338 641.084 161.625 640.169 160.2C639.261 158.767 638.807 156.765 638.807 154.192C638.807 151.627 639.261 149.64 640.169 148.23C641.084 146.812 642.441 146.104 644.241 146.104ZM644.241 148.309C643.394 148.309 642.752 148.762 642.317 149.67C641.89 150.57 641.676 152.077 641.676 154.192C641.676 155.362 641.717 156.334 641.8 157.106C641.89 157.871 642.036 158.475 642.239 158.917C642.441 159.36 642.704 159.675 643.026 159.862C643.356 160.042 643.761 160.132 644.241 160.132C644.811 160.132 645.284 159.941 645.659 159.559C646.041 159.169 646.326 158.539 646.514 157.669C646.701 156.791 646.795 155.632 646.795 154.192C646.795 152.662 646.712 151.47 646.547 150.615C646.39 149.76 646.124 149.164 645.749 148.826C645.381 148.481 644.879 148.309 644.241 148.309ZM646.187 148.815L646.952 150.66L642.52 159.75L641.609 158.242L646.187 148.815Z" fill="#4D4D4D"/>
<path d="M820.67 162.304L817.869 161.437L823.764 148.736H816.766V146.441H826.768V148.511L820.67 162.304ZM839.854 146.441L839.505 148.624H833.655V152.516C834.067 152.314 834.48 152.171 834.892 152.089C835.305 152.006 835.702 151.965 836.085 151.965C836.902 151.965 837.637 152.164 838.29 152.561C838.95 152.959 839.467 153.532 839.842 154.282C840.225 155.025 840.416 155.917 840.416 156.96C840.416 158.002 840.172 158.932 839.685 159.75C839.205 160.56 838.53 161.194 837.66 161.651C836.79 162.109 835.77 162.338 834.6 162.338C833.542 162.338 832.601 162.143 831.776 161.752C830.959 161.362 830.257 160.837 829.672 160.177L831.405 158.569C831.817 159.049 832.279 159.412 832.789 159.66C833.299 159.9 833.846 160.02 834.431 160.02C835.324 160.02 836.032 159.75 836.557 159.21C837.082 158.662 837.345 157.916 837.345 156.971C837.345 156.259 837.244 155.692 837.041 155.272C836.839 154.852 836.561 154.549 836.209 154.361C835.856 154.174 835.451 154.08 834.994 154.08C834.649 154.08 834.307 154.121 833.97 154.204C833.64 154.279 833.284 154.41 832.901 154.597H830.82V146.441H839.854Z" fill="#4D4D4D"/>
<path d="M1015.1 146.441V161.55H1012.19V149.434L1008.87 151.492L1007.6 149.434L1012.48 146.441H1015.1ZM1018.13 159.716V162H1008.42V159.716H1018.13ZM1026.24 146.104C1028.03 146.104 1029.39 146.812 1030.3 148.23C1031.22 149.64 1031.67 151.627 1031.67 154.192C1031.67 156.765 1031.22 158.767 1030.3 160.2C1029.39 161.625 1028.03 162.338 1026.24 162.338C1024.44 162.338 1023.08 161.625 1022.17 160.2C1021.26 158.767 1020.81 156.765 1020.81 154.192C1020.81 151.627 1021.26 149.64 1022.17 148.23C1023.08 146.812 1024.44 146.104 1026.24 146.104ZM1026.24 148.309C1025.39 148.309 1024.75 148.762 1024.32 149.67C1023.89 150.57 1023.68 152.077 1023.68 154.192C1023.68 155.362 1023.72 156.334 1023.8 157.106C1023.89 157.871 1024.04 158.475 1024.24 158.917C1024.44 159.36 1024.7 159.675 1025.03 159.862C1025.36 160.042 1025.76 160.132 1026.24 160.132C1026.81 160.132 1027.28 159.941 1027.66 159.559C1028.04 159.169 1028.33 158.539 1028.51 157.669C1028.7 156.791 1028.79 155.632 1028.79 154.192C1028.79 152.662 1028.71 151.47 1028.55 150.615C1028.39 149.76 1028.12 149.164 1027.75 148.826C1027.38 148.481 1026.88 148.309 1026.24 148.309ZM1028.19 148.815L1028.95 150.66L1024.52 159.75L1023.61 158.242L1028.19 148.815ZM1039.73 146.104C1041.52 146.104 1042.88 146.812 1043.79 148.23C1044.71 149.64 1045.17 151.627 1045.17 154.192C1045.17 156.765 1044.71 158.767 1043.79 160.2C1042.88 161.625 1041.52 162.338 1039.73 162.338C1037.93 162.338 1036.57 161.625 1035.66 160.2C1034.75 158.767 1034.3 156.765 1034.3 154.192C1034.3 151.627 1034.75 149.64 1035.66 148.23C1036.57 146.812 1037.93 146.104 1039.73 146.104ZM1039.73 148.309C1038.88 148.309 1038.24 148.762 1037.81 149.67C1037.38 150.57 1037.17 152.077 1037.17 154.192C1037.17 155.362 1037.21 156.334 1037.29 157.106C1037.38 157.871 1037.53 158.475 1037.73 158.917C1037.93 159.36 1038.19 159.675 1038.52 159.862C1038.85 160.042 1039.25 160.132 1039.73 160.132C1040.3 160.132 1040.77 159.941 1041.15 159.559C1041.53 159.169 1041.82 158.539 1042 157.669C1042.19 156.791 1042.29 155.632 1042.29 154.192C1042.29 152.662 1042.2 151.47 1042.04 150.615C1041.88 149.76 1041.61 149.164 1041.24 148.826C1040.87 148.481 1040.37 148.309 1039.73 148.309ZM1041.68 148.815L1042.44 150.66L1038.01 159.75L1037.1 158.242L1041.68 148.815Z" fill="#4D4D4D"/>
<path d="M244.355 97.0225C244.355 97.6525 244.193 98.2075 243.868 98.6875C243.548 99.1675 243.085 99.545 242.48 99.82C241.875 100.09 241.143 100.225 240.283 100.225C239.383 100.225 238.61 100.093 237.965 99.8275C237.32 99.5575 236.78 99.2125 236.345 98.7925L237.425 97.585C237.8 97.92 238.22 98.1825 238.685 98.3725C239.15 98.5625 239.673 98.6575 240.253 98.6575C240.623 98.6575 240.955 98.6 241.25 98.485C241.55 98.37 241.785 98.2025 241.955 97.9825C242.13 97.7575 242.218 97.4825 242.218 97.1575C242.218 96.8725 242.158 96.6325 242.038 96.4375C241.918 96.2425 241.71 96.0675 241.415 95.9125C241.125 95.7575 240.72 95.6025 240.2 95.4475C239.435 95.2125 238.805 94.955 238.31 94.675C237.815 94.39 237.448 94.055 237.208 93.67C236.968 93.28 236.848 92.82 236.848 92.29C236.848 91.695 237.013 91.1825 237.343 90.7525C237.673 90.3175 238.118 89.985 238.678 89.755C239.243 89.52 239.873 89.4025 240.568 89.4025C241.338 89.4025 242.015 89.515 242.6 89.74C243.185 89.96 243.7 90.275 244.145 90.685L243.118 91.8475C242.763 91.5425 242.378 91.3175 241.963 91.1725C241.553 91.0275 241.135 90.955 240.71 90.955C240.375 90.955 240.075 91 239.81 91.09C239.55 91.18 239.345 91.3125 239.195 91.4875C239.045 91.6625 238.97 91.885 238.97 92.155C238.97 92.4 239.038 92.61 239.173 92.785C239.313 92.955 239.55 93.115 239.885 93.265C240.22 93.41 240.68 93.575 241.265 93.76C241.88 93.945 242.418 94.1675 242.878 94.4275C243.343 94.6875 243.705 95.025 243.965 95.44C244.225 95.85 244.355 96.3775 244.355 97.0225ZM250.499 91.24V100H248.452V91.24H245.422V89.6275H253.619L253.409 91.24H250.499ZM260.168 97.6225H256.756L256.111 100H253.988L257.236 89.6275H259.756L262.996 100H260.813L260.168 97.6225ZM257.123 96.085H259.786L258.458 91.165L257.123 96.085ZM271.277 92.695C271.277 93.195 271.177 93.6325 270.977 94.0075C270.782 94.3825 270.515 94.6975 270.175 94.9525C269.84 95.2075 269.462 95.405 269.042 95.545L271.885 100H269.53L267.077 95.8675H266.132V100H264.085V89.6275H267.137C268.502 89.6275 269.532 89.88 270.227 90.385C270.927 90.89 271.277 91.66 271.277 92.695ZM269.147 92.695C269.147 92.135 268.985 91.7325 268.66 91.4875C268.335 91.2375 267.845 91.1125 267.19 91.1125H266.132V94.4125H267.257C267.862 94.4125 268.327 94.2775 268.652 94.0075C268.982 93.7375 269.147 93.3 269.147 92.695ZM277.482 91.24V100H275.434V91.24H272.404V89.6275H280.602L280.392 91.24H277.482Z" fill="#027D47"/>
<path d="M1001.36 101.022C1001.36 101.652 1001.19 102.207 1000.87 102.687C1000.55 103.167 1000.09 103.545 999.48 103.82C998.875 104.09 998.143 104.225 997.283 104.225C996.383 104.225 995.61 104.093 994.965 103.827C994.32 103.557 993.78 103.212 993.345 102.792L994.425 101.585C994.8 101.92 995.22 102.182 995.685 102.372C996.15 102.562 996.673 102.657 997.253 102.657C997.623 102.657 997.955 102.6 998.25 102.485C998.55 102.37 998.785 102.202 998.955 101.982C999.13 101.757 999.218 101.482 999.218 101.157C999.218 100.872 999.158 100.632 999.038 100.437C998.918 100.242 998.71 100.067 998.415 99.9125C998.125 99.7575 997.72 99.6025 997.2 99.4475C996.435 99.2125 995.805 98.955 995.31 98.675C994.815 98.39 994.448 98.055 994.208 97.67C993.968 97.28 993.848 96.82 993.848 96.29C993.848 95.695 994.013 95.1825 994.343 94.7525C994.673 94.3175 995.118 93.985 995.678 93.755C996.243 93.52 996.873 93.4025 997.568 93.4025C998.338 93.4025 999.015 93.515 999.6 93.74C1000.19 93.96 1000.7 94.275 1001.15 94.685L1000.12 95.8475C999.763 95.5425 999.378 95.3175 998.963 95.1725C998.553 95.0275 998.135 94.955 997.71 94.955C997.375 94.955 997.075 95 996.81 95.09C996.55 95.18 996.345 95.3125 996.195 95.4875C996.045 95.6625 995.97 95.885 995.97 96.155C995.97 96.4 996.038 96.61 996.173 96.785C996.313 96.955 996.55 97.115 996.885 97.265C997.22 97.41 997.68 97.575 998.265 97.76C998.88 97.945 999.418 98.1675 999.878 98.4275C1000.34 98.6875 1000.71 99.025 1000.97 99.44C1001.23 99.85 1001.36 100.377 1001.36 101.022ZM1007.5 95.24V104H1005.45V95.24H1002.42V93.6275H1010.62L1010.41 95.24H1007.5ZM1019.52 98.81C1019.52 99.89 1019.37 100.837 1019.07 101.652C1018.77 102.462 1018.32 103.095 1017.72 103.55C1017.12 104 1016.37 104.225 1015.49 104.225C1014.61 104.225 1013.87 104.005 1013.26 103.565C1012.66 103.12 1012.21 102.495 1011.9 101.69C1011.6 100.88 1011.45 99.9225 1011.45 98.8175C1011.45 97.7375 1011.6 96.7925 1011.9 95.9825C1012.21 95.1675 1012.66 94.535 1013.26 94.085C1013.87 93.63 1014.61 93.4025 1015.49 93.4025C1016.37 93.4025 1017.12 93.6225 1017.72 94.0625C1018.32 94.5025 1018.77 95.1275 1019.07 95.9375C1019.37 96.7475 1019.52 97.705 1019.52 98.81ZM1017.41 98.81C1017.41 97.5 1017.26 96.53 1016.96 95.9C1016.66 95.265 1016.17 94.9475 1015.49 94.9475C1014.8 94.9475 1014.31 95.265 1014.01 95.9C1013.72 96.535 1013.57 97.5075 1013.57 98.8175C1013.57 100.132 1013.72 101.105 1014.03 101.735C1014.33 102.36 1014.82 102.672 1015.49 102.672C1016.18 102.672 1016.68 102.355 1016.97 101.72C1017.26 101.085 1017.41 100.115 1017.41 98.81ZM1026.39 96.95C1026.39 96.52 1026.31 96.1725 1026.15 95.9075C1025.99 95.6375 1025.75 95.44 1025.44 95.315C1025.13 95.19 1024.76 95.1275 1024.32 95.1275H1023.25V98.885H1024.38C1024.79 98.885 1025.15 98.8225 1025.44 98.6975C1025.74 98.5675 1025.97 98.36 1026.14 98.075C1026.31 97.79 1026.39 97.415 1026.39 96.95ZM1028.52 96.935C1028.52 97.74 1028.35 98.4 1028.01 98.915C1027.67 99.425 1027.19 99.8025 1026.57 100.047C1025.96 100.287 1025.25 100.407 1024.44 100.407H1023.25V104H1021.2V93.6275H1024.25C1025.59 93.6275 1026.64 93.9 1027.39 94.445C1028.15 94.99 1028.52 95.82 1028.52 96.935Z" fill="#8B0101"/>
</svg>
