<svg width="1400" height="202" viewBox="0 0 1400 202" fill="none" xmlns="http://www.w3.org/2000/svg">
<rect width="1400" height="202" fill="white"/>
<path d="M42.0992 97V83.1927H45.0979L45.3457 84.9007C45.9367 84.2053 46.6017 83.6838 47.3405 83.3361C48.0793 82.9797 48.8746 82.8015 49.7265 82.8015C50.9694 82.8015 51.9168 83.1622 52.5688 83.8837C53.2207 84.5964 53.5466 85.6004 53.5466 86.8955V97H50.1046V88.2384C50.1046 87.543 50.0611 86.9868 49.9742 86.5695C49.8873 86.1436 49.7221 85.8394 49.4787 85.6569C49.2353 85.4656 48.8833 85.37 48.4226 85.37C48.0489 85.37 47.6882 85.4526 47.3405 85.6178C47.0015 85.7829 46.6799 86.0046 46.3757 86.2827C46.0801 86.5608 45.802 86.8694 45.5412 87.2084V97H42.0992ZM64.8665 82.8015C66.0834 82.8015 67.0569 83.1014 67.787 83.7012C68.5259 84.2922 69.0604 85.131 69.3907 86.2175C69.7297 87.304 69.8992 88.5861 69.8992 90.0637C69.8992 91.4805 69.695 92.7409 69.2864 93.8448C68.8779 94.9487 68.2781 95.8179 67.4872 96.4524C66.7049 97.0782 65.7401 97.3911 64.5927 97.3911C63.1846 97.3911 62.0459 96.8913 61.1767 95.8918V102.32L57.7347 102.685V83.1927H60.7595L60.9421 84.8746C61.4897 84.1618 62.1024 83.6403 62.7804 83.31C63.4584 82.971 64.1538 82.8015 64.8665 82.8015ZM63.8626 85.3831C63.2802 85.3831 62.7674 85.5569 62.3241 85.9046C61.8895 86.2523 61.507 86.6825 61.1767 87.1954V93.3754C61.4897 93.8448 61.846 94.1968 62.2459 94.4315C62.6457 94.6662 63.0977 94.7835 63.6018 94.7835C64.4797 94.7835 65.149 94.4185 65.6097 93.6883C66.0791 92.9495 66.3137 91.7543 66.3137 90.1029C66.3137 88.9381 66.2181 88.0124 66.0269 87.3257C65.8444 86.6304 65.5706 86.1349 65.2055 85.8394C64.8404 85.5352 64.3928 85.3831 63.8626 85.3831ZM76.395 94.6923C76.395 94.2055 76.5124 93.7579 76.7471 93.3493C76.9904 92.9408 77.3164 92.6149 77.7249 92.3715C78.1334 92.1281 78.5854 92.0064 79.0809 92.0064C79.585 92.0064 80.0413 92.1281 80.4499 92.3715C80.8584 92.6149 81.18 92.9408 81.4147 93.3493C81.6581 93.7579 81.7798 94.2055 81.7798 94.6923C81.7798 95.179 81.6581 95.631 81.4147 96.0482C81.18 96.4567 80.8584 96.7827 80.4499 97.0261C80.0413 97.2695 79.585 97.3911 79.0809 97.3911C78.5854 97.3911 78.1334 97.2695 77.7249 97.0261C77.3164 96.7827 76.9904 96.4567 76.7471 96.0482C76.5124 95.631 76.395 95.179 76.395 94.6923ZM95.5769 77.6776V92.9843C95.5769 93.584 95.7507 94.0099 96.0984 94.262C96.4548 94.5141 96.9329 94.6401 97.5326 94.6401C97.9064 94.6401 98.2671 94.601 98.6148 94.5228C98.9625 94.4358 99.2928 94.3315 99.6057 94.2099L100.453 96.5567C100.019 96.774 99.4883 96.9652 98.8625 97.1304C98.2454 97.3042 97.5283 97.3911 96.7112 97.3911C95.2075 97.3911 94.0688 96.9609 93.2952 96.1004C92.5216 95.2399 92.1348 94.0795 92.1348 92.6192V80.1157H88.0018V77.6776H95.5769ZM112.581 83.1927V94.5619H116.219V97H105.098V94.5619H109.139V85.6308H105.228V83.1927H112.581ZM110.352 76.2303C110.986 76.2303 111.499 76.4259 111.89 76.8171C112.29 77.2082 112.49 77.6949 112.49 78.2773C112.49 78.8597 112.29 79.3508 111.89 79.7506C111.499 80.1418 110.986 80.3373 110.352 80.3373C109.717 80.3373 109.2 80.1418 108.8 79.7506C108.401 79.3508 108.201 78.8597 108.201 78.2773C108.201 77.6949 108.401 77.2082 108.8 76.8171C109.2 76.4259 109.717 76.2303 110.352 76.2303ZM120.277 97V83.1927H123.275L123.523 84.9007C124.114 84.2053 124.779 83.6838 125.518 83.3361C126.257 82.9797 127.052 82.8015 127.904 82.8015C129.147 82.8015 130.094 83.1622 130.746 83.8837C131.398 84.5964 131.724 85.6004 131.724 86.8955V97H128.282V88.2384C128.282 87.543 128.239 86.9868 128.152 86.5695C128.065 86.1436 127.9 85.8394 127.656 85.6569C127.413 85.4656 127.061 85.37 126.6 85.37C126.226 85.37 125.866 85.4526 125.518 85.6178C125.179 85.7829 124.857 86.0046 124.553 86.2827C124.258 86.5608 123.98 86.8694 123.719 87.2084V97H120.277ZM141.167 94.8487C141.975 94.8487 142.623 94.7096 143.109 94.4315C143.605 94.1447 143.852 93.7448 143.852 93.232C143.852 92.893 143.77 92.6062 143.605 92.3715C143.448 92.1368 143.135 91.9195 142.666 91.7196C142.197 91.511 141.493 91.2806 140.554 91.0286C139.667 90.8026 138.889 90.5244 138.22 90.1941C137.559 89.8551 137.042 89.4205 136.668 88.8903C136.303 88.3601 136.121 87.6908 136.121 86.8824C136.121 86.0741 136.347 85.3657 136.799 84.7572C137.251 84.1401 137.903 83.662 138.755 83.3231C139.615 82.9754 140.649 82.8015 141.858 82.8015C143.04 82.8015 144.074 82.958 144.961 83.2709C145.847 83.5751 146.608 83.9576 147.242 84.4183L145.834 86.5174C145.278 86.161 144.674 85.8742 144.022 85.6569C143.379 85.4309 142.683 85.3179 141.936 85.3179C141.127 85.3179 140.536 85.4352 140.163 85.6699C139.798 85.9046 139.615 86.2305 139.615 86.6478C139.615 86.9433 139.706 87.1954 139.889 87.404C140.08 87.6039 140.419 87.7995 140.906 87.9907C141.401 88.1732 142.105 88.3949 143.018 88.6556C143.913 88.899 144.691 89.1858 145.352 89.5161C146.021 89.8464 146.538 90.2854 146.903 90.833C147.268 91.3806 147.451 92.0977 147.451 92.9843C147.451 93.9839 147.16 94.8096 146.577 95.4615C145.995 96.1134 145.226 96.6002 144.27 96.9218C143.322 97.2347 142.292 97.3911 141.18 97.3911C139.876 97.3911 138.737 97.2043 137.764 96.8305C136.79 96.4567 135.964 95.9743 135.286 95.3833L137.073 93.3754C137.612 93.8013 138.224 94.1534 138.911 94.4315C139.606 94.7096 140.358 94.8487 141.167 94.8487ZM158.68 82.8015C159.896 82.8015 160.87 83.1014 161.6 83.7012C162.339 84.2922 162.873 85.131 163.204 86.2175C163.543 87.304 163.712 88.5861 163.712 90.0637C163.712 91.4805 163.508 92.7409 163.099 93.8448C162.691 94.9487 162.091 95.8179 161.3 96.4524C160.518 97.0782 159.553 97.3911 158.406 97.3911C156.998 97.3911 155.859 96.8913 154.99 95.8918V102.32L151.548 102.685V83.1927H154.573L154.755 84.8746C155.303 84.1618 155.916 83.6403 156.593 83.31C157.271 82.971 157.967 82.8015 158.68 82.8015ZM157.676 85.3831C157.093 85.3831 156.58 85.5569 156.137 85.9046C155.703 86.2523 155.32 86.6825 154.99 87.1954V93.3754C155.303 93.8448 155.659 94.1968 156.059 94.4315C156.459 94.6662 156.911 94.7835 157.415 94.7835C158.293 94.7835 158.962 94.4185 159.423 93.6883C159.892 92.9495 160.127 91.7543 160.127 90.1029C160.127 88.9381 160.031 88.0124 159.84 87.3257C159.657 86.6304 159.384 86.1349 159.019 85.8394C158.653 85.5352 158.206 85.3831 157.676 85.3831ZM178.2 93.3624C178.2 93.8926 178.279 94.2794 178.435 94.5228C178.592 94.7575 178.844 94.9356 179.191 95.0573L178.448 97.3651C177.709 97.2868 177.079 97.1043 176.558 96.8175C176.045 96.5219 175.649 96.083 175.371 95.5006C174.85 96.1351 174.189 96.6089 173.389 96.9218C172.598 97.2347 171.768 97.3911 170.899 97.3911C169.491 97.3911 168.374 96.9913 167.548 96.1916C166.723 95.392 166.31 94.3533 166.31 93.0755C166.31 91.6066 166.883 90.4766 168.031 89.6856C169.187 88.886 170.821 88.4861 172.933 88.4861H174.863V87.743C174.863 86.9259 174.611 86.3349 174.106 85.9698C173.602 85.596 172.877 85.4091 171.929 85.4091C171.486 85.4091 170.93 85.47 170.26 85.5917C169.6 85.7047 168.917 85.8829 168.213 86.1262L167.392 83.7663C168.27 83.436 169.152 83.1927 170.039 83.0362C170.934 82.8798 171.747 82.8015 172.477 82.8015C174.415 82.8015 175.854 83.2144 176.792 84.0401C177.731 84.8572 178.2 86.0176 178.2 87.5213V93.3624ZM172.02 94.9009C172.542 94.9009 173.068 94.7531 173.598 94.4576C174.137 94.162 174.558 93.7492 174.863 93.219V90.5331H173.507C172.229 90.5331 171.303 90.7374 170.73 91.1459C170.165 91.5544 169.882 92.1324 169.882 92.88C169.882 93.5232 170.065 94.023 170.43 94.3793C170.795 94.727 171.325 94.9009 172.02 94.9009ZM189.768 94.6271C190.377 94.6271 190.946 94.5141 191.476 94.2881C192.015 94.0621 192.532 93.7752 193.028 93.4276L194.592 95.631C193.984 96.1438 193.249 96.5654 192.389 96.8957C191.528 97.226 190.607 97.3911 189.625 97.3911C188.182 97.3911 186.943 97.0913 185.909 96.4915C184.883 95.8831 184.092 95.0399 183.536 93.9621C182.988 92.8756 182.714 91.6153 182.714 90.1811C182.714 88.7643 182.993 87.4996 183.549 86.387C184.114 85.2657 184.914 84.3878 185.948 83.7533C186.991 83.1188 188.234 82.8015 189.677 82.8015C190.668 82.8015 191.563 82.9449 192.363 83.2318C193.171 83.5099 193.91 83.9272 194.579 84.4834L193.054 86.5956C192.541 86.2392 192.011 85.9698 191.463 85.7873C190.924 85.596 190.363 85.5004 189.781 85.5004C188.764 85.5004 187.934 85.8698 187.291 86.6086C186.656 87.3388 186.339 88.5296 186.339 90.1811C186.339 91.2676 186.487 92.1368 186.782 92.7887C187.087 93.4406 187.495 93.91 188.008 94.1968C188.529 94.4837 189.116 94.6271 189.768 94.6271ZM201.388 91.1459C201.457 92.0064 201.653 92.7061 201.975 93.245C202.305 93.7839 202.726 94.1794 203.239 94.4315C203.752 94.6836 204.321 94.8096 204.947 94.8096C205.608 94.8096 206.229 94.7053 206.812 94.4967C207.394 94.2881 207.968 93.9969 208.533 93.6231L209.967 95.5919C209.324 96.1308 208.554 96.5654 207.659 96.8957C206.773 97.226 205.795 97.3911 204.726 97.3911C203.231 97.3911 201.97 97.0826 200.945 96.4654C199.928 95.8483 199.158 94.9921 198.637 93.8969C198.115 92.8017 197.855 91.5414 197.855 90.1159C197.855 88.7425 198.111 87.5039 198.624 86.4C199.137 85.2961 199.875 84.4226 200.84 83.7794C201.805 83.1275 202.97 82.8015 204.334 82.8015C205.603 82.8015 206.699 83.0797 207.62 83.636C208.541 84.1923 209.254 84.9919 209.758 86.035C210.262 87.0693 210.515 88.3166 210.515 89.7769C210.515 90.0116 210.506 90.2506 210.488 90.494C210.48 90.7374 210.467 90.9547 210.449 91.1459H201.388ZM204.347 85.2266C203.513 85.2266 202.826 85.5265 202.287 86.1262C201.757 86.7173 201.444 87.656 201.349 88.9425H207.164C207.146 87.7777 206.903 86.8694 206.434 86.2175C205.973 85.5569 205.278 85.2266 204.347 85.2266ZM218.34 87.8733C218.34 89.0468 218.436 90.1202 218.627 91.0937C218.818 92.0586 219.118 92.9756 219.527 93.8448C219.935 94.7053 220.465 95.5615 221.117 96.4133C221.778 97.2651 222.578 98.1691 223.516 99.1252L221.561 100.951C220.17 99.7771 218.97 98.5515 217.962 97.2738C216.963 95.9961 216.189 94.5923 215.641 93.0625C215.102 91.5327 214.833 89.803 214.833 87.8733C214.833 85.9437 215.102 84.214 215.641 82.6842C216.189 81.1457 216.963 79.7419 217.962 78.4729C218.97 77.1952 220.17 75.9696 221.561 74.7961L223.516 76.6215C222.621 77.5341 221.847 78.4164 221.196 79.2682C220.544 80.12 220.005 80.9849 219.579 81.8628C219.162 82.732 218.849 83.6577 218.64 84.6399C218.44 85.6134 218.34 86.6912 218.34 87.8733ZM266.72 92.0064C267.459 92.0064 268.072 92.2541 268.558 92.7496C269.054 93.245 269.302 93.8535 269.302 94.5749C269.302 95.0182 269.228 95.4659 269.08 95.9178C268.932 96.3611 268.706 96.9305 268.402 97.6258L266.433 102.085H263.956L265.26 96.6871C264.912 96.4524 264.643 96.1482 264.451 95.7744C264.26 95.4007 264.165 94.9965 264.165 94.5619C264.165 93.8404 264.408 93.2363 264.895 92.7496C265.381 92.2541 265.99 92.0064 266.72 92.0064ZM329.262 92.0064C330.001 92.0064 330.614 92.2541 331.1 92.7496C331.596 93.245 331.844 93.8535 331.844 94.5749C331.844 95.0182 331.77 95.4659 331.622 95.9178C331.474 96.3611 331.248 96.9305 330.944 97.6258L328.975 102.085H326.498L327.802 96.6871C327.454 96.4524 327.185 96.1482 326.993 95.7744C326.802 95.4007 326.707 94.9965 326.707 94.5619C326.707 93.8404 326.95 93.2363 327.437 92.7496C327.923 92.2541 328.532 92.0064 329.262 92.0064ZM363.258 78.9683V96.4785H359.881V82.4365L356.035 84.8224L354.562 82.4365L360.22 78.9683H363.258ZM366.765 94.3533V97H355.513V94.3533H366.765ZM376.169 78.5772C378.246 78.5772 379.815 79.3986 380.875 81.0414C381.936 82.6755 382.466 84.9789 382.466 87.9516C382.466 90.9329 381.936 93.2537 380.875 94.9139C379.815 96.5654 378.246 97.3911 376.169 97.3911C374.083 97.3911 372.509 96.5654 371.449 94.9139C370.397 93.2537 369.871 90.9329 369.871 87.9516C369.871 84.9789 370.397 82.6755 371.449 81.0414C372.509 79.3986 374.083 78.5772 376.169 78.5772ZM376.169 81.1327C375.186 81.1327 374.443 81.6585 373.939 82.7103C373.444 83.7533 373.196 85.5004 373.196 87.9516C373.196 89.3075 373.244 90.4332 373.339 91.3284C373.444 92.215 373.613 92.9147 373.848 93.4276C374.083 93.9404 374.387 94.3055 374.761 94.5228C375.143 94.7314 375.612 94.8357 376.169 94.8357C376.829 94.8357 377.377 94.614 377.811 94.1707C378.255 93.7187 378.585 92.9886 378.802 91.9803C379.02 90.9634 379.128 89.6204 379.128 87.9516C379.128 86.1784 379.033 84.7964 378.841 83.8055C378.659 82.8146 378.35 82.1236 377.916 81.7324C377.49 81.3326 376.907 81.1327 376.169 81.1327ZM378.424 81.7194L379.311 83.8576L374.174 94.3924L373.118 92.6453L378.424 81.7194ZM393.277 87.8733C393.277 86.6912 393.173 85.6134 392.965 84.6399C392.765 83.6577 392.452 82.732 392.026 81.8628C391.609 80.9849 391.074 80.12 390.422 79.2682C389.77 78.4164 388.997 77.5341 388.101 76.6215L390.057 74.7961C391.448 75.9696 392.643 77.1952 393.642 78.4729C394.651 79.7419 395.424 81.1457 395.963 82.6842C396.511 84.214 396.785 85.9437 396.785 87.8733C396.785 89.803 396.511 91.5327 395.963 93.0625C395.424 94.5923 394.651 95.9961 393.642 97.2738C392.643 98.5515 391.448 99.7771 390.057 100.951L388.101 99.1252C389.04 98.1691 389.835 97.2651 390.487 96.4133C391.148 95.5615 391.682 94.7053 392.091 93.8448C392.499 92.9756 392.799 92.0586 392.991 91.0937C393.182 90.1202 393.277 89.0468 393.277 87.8733Z" fill="black"/>
<path d="M236.622 78.5772C237.387 78.5772 238.083 78.6771 238.709 78.8771C239.343 79.0683 239.912 79.3421 240.417 79.6985L239.1 81.8367C238.735 81.5846 238.343 81.3978 237.926 81.2761C237.509 81.1544 237.087 81.0935 236.662 81.0935C235.879 81.0935 235.193 81.35 234.602 81.8628C234.019 82.3756 233.563 83.1144 233.233 84.0793C232.911 85.0354 232.746 86.1914 232.737 87.5474L232.763 88.6556C232.754 90.7591 232.963 92.3193 233.389 93.3363C233.824 94.3533 234.589 94.8618 235.684 94.8618C236.588 94.8618 237.257 94.5054 237.692 93.7926C238.126 93.0799 238.343 92.1759 238.343 91.0807C238.343 90.1941 238.244 89.4944 238.044 88.9816C237.844 88.4601 237.566 88.0863 237.209 87.8603C236.853 87.6256 236.423 87.5083 235.918 87.5083C235.24 87.5083 234.602 87.7082 234.002 88.108C233.411 88.4992 232.907 89.025 232.489 89.6856L232.463 87.3127C233.037 86.5217 233.693 85.9437 234.432 85.5786C235.171 85.2136 235.94 85.031 236.74 85.031C237.67 85.031 238.517 85.257 239.282 85.709C240.047 86.1523 240.656 86.8086 241.108 87.6778C241.568 88.547 241.799 89.6204 241.799 90.8982C241.799 92.1498 241.542 93.2668 241.029 94.249C240.516 95.2225 239.795 95.9917 238.865 96.5567C237.944 97.113 236.875 97.3911 235.658 97.3911C234.493 97.3911 233.502 97.1738 232.685 96.7392C231.868 96.2959 231.203 95.6832 230.69 94.9009C230.177 94.1099 229.799 93.1885 229.556 92.1368C229.321 91.0764 229.204 89.9377 229.204 88.7208C229.204 86.7043 229.499 84.9354 230.09 83.4143C230.681 81.8845 231.529 80.6981 232.633 79.8549C233.745 79.0031 235.075 78.5772 236.622 78.5772ZM251.085 78.5772C253.162 78.5772 254.731 79.3986 255.791 81.0414C256.852 82.6755 257.382 84.9789 257.382 87.9516C257.382 90.9329 256.852 93.2537 255.791 94.9139C254.731 96.5654 253.162 97.3911 251.085 97.3911C248.998 97.3911 247.425 96.5654 246.365 94.9139C245.313 93.2537 244.787 90.9329 244.787 87.9516C244.787 84.9789 245.313 82.6755 246.365 81.0414C247.425 79.3986 248.998 78.5772 251.085 78.5772ZM251.085 81.1327C250.102 81.1327 249.359 81.6585 248.855 82.7103C248.36 83.7533 248.112 85.5004 248.112 87.9516C248.112 89.3075 248.16 90.4332 248.255 91.3284C248.36 92.215 248.529 92.9147 248.764 93.4276C248.998 93.9404 249.303 94.3055 249.676 94.5228C250.059 94.7314 250.528 94.8357 251.085 94.8357C251.745 94.8357 252.293 94.614 252.727 94.1707C253.171 93.7187 253.501 92.9886 253.718 91.9803C253.936 90.9634 254.044 89.6204 254.044 87.9516C254.044 86.1784 253.949 84.7964 253.757 83.8055C253.575 82.8146 253.266 82.1236 252.832 81.7324C252.406 81.3326 251.823 81.1327 251.085 81.1327ZM253.34 81.7194L254.227 83.8576L249.09 94.3924L248.034 92.6453L253.34 81.7194Z" fill="#027D47"/>
<path d="M297.822 78.5772C299.238 78.5772 300.416 78.8814 301.355 79.4899C302.302 80.0983 303.011 80.9458 303.48 82.0323C303.958 83.1188 304.197 84.3878 304.197 85.8394C304.197 87.5952 303.989 89.1293 303.571 90.4418C303.163 91.7457 302.528 92.8626 301.668 93.7926C300.816 94.714 299.725 95.4919 298.395 96.1264C297.074 96.761 295.505 97.2868 293.688 97.7041L292.958 95.2399C294.558 94.8139 295.901 94.3011 296.987 93.7014C298.074 93.1016 298.917 92.3628 299.517 91.4849C300.116 90.607 300.486 89.5422 300.625 88.2906L300.638 86.9476C300.655 85.5917 300.581 84.4834 300.416 83.6229C300.26 82.7624 299.973 82.1279 299.556 81.7194C299.147 81.3108 298.565 81.1066 297.809 81.1066C296.922 81.1066 296.231 81.4151 295.735 82.0323C295.249 82.6407 295.005 83.5708 295.005 84.8224C295.005 86.0219 295.249 86.8781 295.735 87.3909C296.222 87.8951 296.844 88.1471 297.6 88.1471C298.304 88.1471 298.93 87.9776 299.477 87.6387C300.025 87.291 300.56 86.8042 301.081 86.1784L301.042 88.3558C300.442 89.0511 299.79 89.6074 299.086 90.0246C298.391 90.4332 297.574 90.6374 296.635 90.6374C295.67 90.6374 294.801 90.4027 294.027 89.9334C293.254 89.4553 292.641 88.786 292.189 87.9255C291.737 87.065 291.511 86.0437 291.511 84.8615C291.511 83.5664 291.789 82.4495 292.346 81.5108C292.911 80.572 293.667 79.8506 294.614 79.3464C295.57 78.8336 296.639 78.5772 297.822 78.5772ZM313.627 78.5772C315.704 78.5772 317.273 79.3986 318.333 81.0414C319.394 82.6755 319.924 84.9789 319.924 87.9516C319.924 90.9329 319.394 93.2537 318.333 94.9139C317.273 96.5654 315.704 97.3911 313.627 97.3911C311.54 97.3911 309.967 96.5654 308.907 94.9139C307.855 93.2537 307.329 90.9329 307.329 87.9516C307.329 84.9789 307.855 82.6755 308.907 81.0414C309.967 79.3986 311.54 78.5772 313.627 78.5772ZM313.627 81.1327C312.644 81.1327 311.901 81.6585 311.397 82.7103C310.902 83.7533 310.654 85.5004 310.654 87.9516C310.654 89.3075 310.702 90.4332 310.797 91.3284C310.902 92.215 311.071 92.9147 311.306 93.4276C311.54 93.9404 311.845 94.3055 312.218 94.5228C312.601 94.7314 313.07 94.8357 313.627 94.8357C314.287 94.8357 314.835 94.614 315.269 94.1707C315.713 93.7187 316.043 92.9886 316.26 91.9803C316.478 90.9634 316.586 89.6204 316.586 87.9516C316.586 86.1784 316.491 84.7964 316.299 83.8055C316.117 82.8146 315.808 82.1236 315.374 81.7324C314.948 81.3326 314.365 81.1327 313.627 81.1327ZM315.882 81.7194L316.769 83.8576L311.632 94.3924L310.576 92.6453L315.882 81.7194Z" fill="#8B0101"/>
<rect x="505.389" y="175.186" width="19.1617" height="19.1617" rx="3.74252" fill="#0037AC"/>
<path d="M512.812 180.191C512.685 179.882 512.246 179.882 512.119 180.192L511.92 180.678C511.882 180.769 511.882 180.871 511.919 180.962L514.593 187.522C514.693 187.768 514.512 188.037 514.246 188.037H511.585H510.687C510.421 188.037 510.24 187.767 510.341 187.521L510.802 186.397C510.839 186.306 510.84 186.204 510.803 186.114L510.593 185.599C510.466 185.288 510.027 185.288 509.9 185.598L508.643 188.659C508.542 188.905 508.723 189.175 508.989 189.175H515.942C516.208 189.175 516.389 188.905 516.288 188.659L512.812 180.191Z" fill="white"/>
<path d="M515.347 182.011C515.247 181.765 515.428 181.496 515.694 181.496H518.355H519.253C519.519 181.496 519.7 181.766 519.599 182.012L519.138 183.136C519.101 183.227 519.101 183.329 519.138 183.419L519.347 183.934C519.474 184.245 519.913 184.245 520.04 183.935L521.297 180.874C521.398 180.628 521.217 180.358 520.951 180.358H513.999C513.732 180.358 513.551 180.628 513.652 180.874L517.128 189.341C517.255 189.651 517.694 189.651 517.821 189.341L518.021 188.855C518.058 188.764 518.058 188.662 518.021 188.571L515.347 182.011Z" fill="white"/>
<path d="M536.368 186.455H533.656L533.128 188.281H531.83L534.245 180.69H535.829L538.25 188.281H536.897L536.368 186.455ZM533.92 185.47H536.099L535.015 181.68L533.92 185.47ZM540.545 182.472V186.532C540.545 186.877 540.613 187.123 540.749 187.269C540.888 187.416 541.097 187.489 541.376 187.489C541.64 187.489 541.895 187.41 542.14 187.253C542.386 187.095 542.58 186.903 542.723 186.675V182.472H543.956V188.281H542.894L542.817 187.539C542.601 187.829 542.327 188.05 541.997 188.204C541.667 188.355 541.33 188.43 540.985 188.43C540.424 188.43 540.004 188.276 539.725 187.968C539.45 187.656 539.313 187.229 539.313 186.686V182.472H540.545ZM550.762 187.973C550.549 188.109 550.294 188.219 549.997 188.303C549.7 188.388 549.39 188.43 549.067 188.43C548.393 188.43 547.879 188.256 547.527 187.907C547.179 187.555 547.004 187.093 547.004 186.521V183.369H545.712V182.472H547.004V181.174L548.237 181.026V182.472H550.195L550.058 183.369H548.237V186.51C548.237 186.822 548.314 187.055 548.468 187.209C548.625 187.359 548.882 187.434 549.238 187.434C549.451 187.434 549.647 187.409 549.827 187.357C550.006 187.306 550.169 187.24 550.316 187.159L550.762 187.973ZM554.834 182.318C555.402 182.318 555.881 182.445 556.27 182.698C556.658 182.951 556.952 183.305 557.15 183.76C557.351 184.214 557.452 184.75 557.452 185.366C557.452 185.978 557.35 186.516 557.144 186.978C556.943 187.436 556.645 187.794 556.253 188.05C555.864 188.303 555.389 188.43 554.828 188.43C554.267 188.43 553.79 188.307 553.398 188.061C553.009 187.812 552.712 187.458 552.507 187C552.305 186.541 552.204 186 552.204 185.377C552.204 184.772 552.305 184.24 552.507 183.782C552.712 183.323 553.011 182.966 553.403 182.709C553.796 182.448 554.273 182.318 554.834 182.318ZM554.834 183.275C554.39 183.275 554.056 183.446 553.833 183.787C553.609 184.124 553.497 184.654 553.497 185.377C553.497 186.096 553.607 186.626 553.827 186.967C554.051 187.308 554.385 187.478 554.828 187.478C555.272 187.478 555.604 187.308 555.824 186.967C556.048 186.626 556.16 186.092 556.16 185.366C556.16 184.651 556.05 184.124 555.829 183.787C555.609 183.446 555.278 183.275 554.834 183.275ZM559.159 188.281V187.401H560.012V183.347H559.159V182.472H560.952L561.178 183.82C561.394 183.332 561.662 182.962 561.981 182.709C562.304 182.452 562.718 182.324 563.224 182.324C563.397 182.324 563.551 182.338 563.686 182.368C563.826 182.393 563.963 182.428 564.099 182.472L563.73 183.529C563.613 183.496 563.503 183.472 563.4 183.457C563.298 183.439 563.184 183.43 563.059 183.43C562.637 183.43 562.272 183.587 561.964 183.903C561.66 184.218 561.42 184.665 561.244 185.245V187.401H562.416V188.281H559.159ZM563.01 184.612V183.182L563.164 182.472H564.099L563.89 184.612H563.01ZM567.027 187.434C567.027 187.167 567.122 186.937 567.313 186.747C567.503 186.552 567.738 186.455 568.017 186.455C568.299 186.455 568.534 186.552 568.721 186.747C568.912 186.937 569.007 187.167 569.007 187.434C569.007 187.709 568.912 187.944 568.721 188.138C568.534 188.333 568.299 188.43 568.017 188.43C567.738 188.43 567.503 188.333 567.313 188.138C567.122 187.944 567.027 187.709 567.027 187.434ZM567.027 183.529C567.027 183.349 567.071 183.184 567.159 183.033C567.247 182.883 567.366 182.764 567.516 182.676C567.667 182.588 567.833 182.544 568.017 182.544C568.299 182.544 568.534 182.641 568.721 182.835C568.912 183.026 569.007 183.257 569.007 183.529C569.007 183.8 568.912 184.035 568.721 184.233C568.534 184.427 568.299 184.524 568.017 184.524C567.738 184.524 567.503 184.427 567.313 184.233C567.122 184.035 567.027 183.8 567.027 183.529ZM583.714 180.657V185.536C583.714 185.98 583.646 186.382 583.51 186.741C583.375 187.101 583.175 187.407 582.911 187.66C582.65 187.913 582.329 188.107 581.948 188.243C581.57 188.379 581.138 188.447 580.65 188.447C580.158 188.447 579.733 188.384 579.374 188.259C579.018 188.131 578.675 187.955 578.345 187.731L579.032 186.62C579.293 186.8 579.537 186.926 579.764 187C579.992 187.069 580.25 187.104 580.54 187.104C580.932 187.104 581.259 186.98 581.519 186.73C581.783 186.477 581.915 186.087 581.915 185.558V181.977H579.572V180.657H583.714ZM587.813 182.247C588.415 182.247 588.927 182.375 589.348 182.632C589.77 182.889 590.093 183.25 590.316 183.716C590.54 184.178 590.652 184.72 590.652 185.344C590.652 185.993 590.538 186.552 590.311 187.022C590.087 187.488 589.765 187.845 589.343 188.094C588.921 188.344 588.411 188.469 587.813 188.469C587.219 188.469 586.71 188.346 586.284 188.1C585.862 187.854 585.538 187.499 585.31 187.033C585.087 186.567 584.975 186.008 584.975 185.355C584.975 184.735 585.087 184.192 585.31 183.727C585.538 183.261 585.862 182.898 586.284 182.637C586.71 182.377 587.219 182.247 587.813 182.247ZM587.813 183.529C587.458 183.529 587.194 183.675 587.021 183.969C586.853 184.258 586.768 184.72 586.768 185.355C586.768 186 586.853 186.468 587.021 186.758C587.194 187.047 587.458 187.192 587.813 187.192C588.169 187.192 588.431 187.047 588.6 186.758C588.772 186.468 588.859 185.997 588.859 185.344C588.859 184.713 588.772 184.253 588.6 183.963C588.431 183.673 588.169 183.529 587.813 183.529ZM594.223 187.225C594.513 187.225 594.746 187.179 594.922 187.088C595.102 186.996 595.192 186.859 595.192 186.675C595.192 186.55 595.157 186.446 595.087 186.362C595.017 186.277 594.884 186.197 594.686 186.12C594.487 186.043 594.194 185.951 593.805 185.845C593.45 185.749 593.134 185.628 592.859 185.481C592.588 185.335 592.375 185.146 592.221 184.915C592.071 184.684 591.995 184.396 591.995 184.051C591.995 183.703 592.093 183.393 592.287 183.121C592.481 182.85 592.767 182.637 593.145 182.483C593.523 182.326 593.985 182.247 594.532 182.247C595.052 182.247 595.505 182.315 595.89 182.45C596.279 182.582 596.615 182.751 596.897 182.956L596.204 183.98C595.962 183.829 595.701 183.71 595.423 183.622C595.144 183.53 594.863 183.485 594.581 183.485C594.299 183.485 594.088 183.523 593.948 183.6C593.813 183.673 593.745 183.785 593.745 183.936C593.745 184.035 593.78 184.121 593.849 184.194C593.923 184.264 594.058 184.337 594.256 184.414C594.454 184.488 594.744 184.579 595.126 184.689C595.503 184.796 595.832 184.918 596.11 185.058C596.393 185.197 596.611 185.384 596.765 185.619C596.919 185.85 596.996 186.156 596.996 186.538C596.996 186.963 596.869 187.321 596.616 187.61C596.363 187.896 596.028 188.111 595.61 188.254C595.192 188.397 594.733 188.469 594.234 188.469C593.67 188.469 593.171 188.388 592.738 188.226C592.305 188.065 591.937 187.852 591.632 187.588L592.507 186.609C592.734 186.785 592.991 186.932 593.277 187.049C593.567 187.167 593.882 187.225 594.223 187.225ZM599.984 185.867C600.025 186.186 600.107 186.444 600.232 186.642C600.36 186.837 600.523 186.98 600.721 187.071C600.919 187.159 601.141 187.203 601.387 187.203C601.655 187.203 601.913 187.159 602.163 187.071C602.412 186.983 602.652 186.866 602.883 186.719L603.582 187.665C603.307 187.9 602.973 188.093 602.581 188.243C602.192 188.393 601.748 188.469 601.25 188.469C600.582 188.469 600.023 188.337 599.572 188.072C599.121 187.805 598.781 187.438 598.554 186.972C598.327 186.506 598.213 185.971 598.213 185.366C598.213 184.79 598.323 184.268 598.543 183.798C598.763 183.325 599.084 182.949 599.506 182.67C599.931 182.388 600.45 182.247 601.063 182.247C601.62 182.247 602.102 182.366 602.509 182.604C602.92 182.843 603.237 183.186 603.461 183.633C603.688 184.08 603.802 184.618 603.802 185.245C603.802 185.344 603.798 185.45 603.791 185.564C603.787 185.678 603.78 185.778 603.769 185.867H599.984ZM601.063 183.413C600.751 183.413 600.5 183.525 600.309 183.749C600.118 183.972 600.003 184.33 599.962 184.821H602.108C602.104 184.396 602.022 184.055 601.86 183.798C601.699 183.541 601.433 183.413 601.063 183.413ZM608.309 182.247C608.818 182.247 609.229 182.373 609.541 182.626C609.853 182.879 610.08 183.237 610.223 183.699C610.37 184.161 610.443 184.709 610.443 185.344C610.443 185.945 610.355 186.483 610.179 186.956C610.003 187.425 609.748 187.796 609.414 188.067C609.081 188.335 608.675 188.469 608.199 188.469C607.63 188.469 607.168 188.265 606.812 187.858V190.537L605.074 190.718V182.439H606.614L606.691 183.094C606.93 182.79 607.19 182.573 607.473 182.445C607.755 182.313 608.034 182.247 608.309 182.247ZM607.77 183.529C607.568 183.529 607.39 183.589 607.236 183.71C607.082 183.831 606.941 183.996 606.812 184.205V186.67C606.933 186.849 607.06 186.981 607.192 187.066C607.328 187.15 607.487 187.192 607.671 187.192C607.979 187.192 608.219 187.053 608.391 186.774C608.564 186.492 608.65 186.022 608.65 185.366C608.65 184.882 608.615 184.508 608.545 184.244C608.476 183.976 608.375 183.791 608.243 183.688C608.111 183.582 607.953 183.529 607.77 183.529ZM613.409 179.947V183.017C613.655 182.757 613.921 182.564 614.207 182.439C614.497 182.311 614.803 182.247 615.126 182.247C615.647 182.247 616.044 182.399 616.32 182.703C616.595 183.008 616.732 183.437 616.732 183.991V188.281H614.994V184.475C614.994 184.123 614.953 183.877 614.873 183.738C614.796 183.598 614.649 183.529 614.433 183.529C614.312 183.529 614.192 183.558 614.075 183.617C613.961 183.672 613.85 183.752 613.739 183.859C613.629 183.965 613.519 184.091 613.409 184.238V188.281H611.671V180.118L613.409 179.947ZM630.344 186.054C630.344 186.527 630.22 186.945 629.97 187.308C629.724 187.671 629.371 187.955 628.908 188.16C628.446 188.366 627.891 188.469 627.242 188.469C626.523 188.469 625.92 188.364 625.432 188.155C624.948 187.942 624.546 187.68 624.227 187.368L625.14 186.356C625.423 186.602 625.734 186.793 626.075 186.928C626.416 187.06 626.791 187.126 627.198 187.126C627.451 187.126 627.673 187.09 627.863 187.016C628.054 186.943 628.202 186.837 628.309 186.697C628.415 186.558 628.468 186.389 628.468 186.191C628.468 186.004 628.426 185.846 628.342 185.718C628.257 185.59 628.114 185.474 627.913 185.371C627.715 185.269 627.438 185.164 627.082 185.058C626.488 184.874 626.009 184.673 625.646 184.453C625.287 184.233 625.025 183.978 624.86 183.688C624.698 183.398 624.618 183.061 624.618 182.676C624.618 182.21 624.746 181.812 625.003 181.482C625.263 181.152 625.611 180.901 626.048 180.728C626.484 180.552 626.965 180.464 627.489 180.464C628.08 180.464 628.6 180.551 629.051 180.723C629.503 180.892 629.893 181.134 630.223 181.449L629.371 182.428C629.114 182.212 628.837 182.052 628.54 181.95C628.243 181.843 627.94 181.79 627.632 181.79C627.405 181.79 627.205 181.82 627.033 181.878C626.86 181.933 626.726 182.016 626.631 182.126C626.536 182.236 626.488 182.373 626.488 182.538C626.488 182.7 626.534 182.835 626.625 182.945C626.717 183.055 626.877 183.16 627.104 183.259C627.331 183.354 627.647 183.466 628.05 183.595C628.531 183.741 628.941 183.917 629.283 184.123C629.627 184.324 629.889 184.579 630.069 184.887C630.253 185.195 630.344 185.584 630.344 186.054ZM636.38 186.598C636.38 186.818 636.41 186.978 636.468 187.077C636.531 187.176 636.63 187.251 636.765 187.302L636.408 188.447C636.063 188.414 635.771 188.338 635.533 188.221C635.298 188.1 635.113 187.918 634.977 187.676C634.754 187.944 634.468 188.144 634.119 188.276C633.771 188.404 633.415 188.469 633.052 188.469C632.451 188.469 631.97 188.298 631.611 187.957C631.255 187.612 631.077 187.17 631.077 186.631C631.077 185.997 631.325 185.507 631.82 185.162C632.319 184.818 633.019 184.645 633.921 184.645H634.708V184.425C634.708 184.121 634.609 183.895 634.411 183.749C634.216 183.602 633.93 183.529 633.553 183.529C633.366 183.529 633.125 183.556 632.832 183.611C632.539 183.662 632.245 183.738 631.952 183.837L631.55 182.681C631.928 182.538 632.32 182.43 632.727 182.357C633.138 182.283 633.505 182.247 633.828 182.247C634.697 182.247 635.339 182.425 635.753 182.78C636.171 183.132 636.38 183.642 636.38 184.31V186.598ZM633.652 187.225C633.839 187.225 634.035 187.17 634.24 187.06C634.446 186.947 634.601 186.787 634.708 186.582V185.635H634.279C633.795 185.635 633.439 185.711 633.212 185.861C632.984 186.008 632.87 186.224 632.87 186.51C632.87 186.734 632.938 186.91 633.074 187.038C633.213 187.163 633.406 187.225 633.652 187.225ZM638.059 188.281V182.439H639.578L639.699 183.116C639.959 182.823 640.234 182.604 640.524 182.461C640.813 182.318 641.143 182.247 641.514 182.247C642.013 182.247 642.405 182.399 642.691 182.703C642.977 183.008 643.12 183.437 643.12 183.991V188.281H641.382V184.491C641.382 184.253 641.365 184.064 641.332 183.925C641.299 183.782 641.241 183.681 641.156 183.622C641.076 183.56 640.964 183.529 640.821 183.529C640.7 183.529 640.581 183.556 640.463 183.611C640.35 183.662 640.238 183.738 640.128 183.837C640.018 183.936 639.908 184.055 639.798 184.194V188.281H638.059ZM649.915 187.94C649.688 188.087 649.413 188.212 649.09 188.315C648.767 188.417 648.404 188.469 648.001 188.469C647.238 188.469 646.671 188.274 646.301 187.885C645.931 187.493 645.745 186.961 645.745 186.29V183.639H644.519V182.439H645.745V181.174L647.484 180.965V182.439H649.365L649.195 183.639H647.484V186.29C647.484 186.58 647.55 186.787 647.682 186.912C647.814 187.036 648.025 187.099 648.314 187.099C648.52 187.099 648.707 187.075 648.876 187.027C649.048 186.976 649.202 186.912 649.338 186.835L649.915 187.94ZM654.823 182.439V187.093H656.309V188.281H651.429V187.093H653.085V183.628H651.484V182.439H654.823ZM653.773 179.381C654.074 179.381 654.319 179.474 654.51 179.661C654.701 179.848 654.796 180.081 654.796 180.36C654.796 180.639 654.701 180.873 654.51 181.064C654.319 181.251 654.074 181.345 653.773 181.345C653.468 181.345 653.219 181.251 653.025 181.064C652.834 180.873 652.739 180.639 652.739 180.36C652.739 180.081 652.834 179.848 653.025 179.661C653.219 179.474 653.468 179.381 653.773 179.381ZM662.768 186.598C662.768 186.818 662.798 186.978 662.856 187.077C662.919 187.176 663.018 187.251 663.153 187.302L662.796 188.447C662.451 188.414 662.16 188.338 661.921 188.221C661.686 188.1 661.501 187.918 661.366 187.676C661.142 187.944 660.856 188.144 660.507 188.276C660.159 188.404 659.803 188.469 659.44 188.469C658.839 188.469 658.358 188.298 657.999 187.957C657.643 187.612 657.465 187.17 657.465 186.631C657.465 185.997 657.713 185.507 658.208 185.162C658.707 184.818 659.407 184.645 660.309 184.645H661.096V184.425C661.096 184.121 660.997 183.895 660.799 183.749C660.605 183.602 660.318 183.529 659.941 183.529C659.754 183.529 659.513 183.556 659.22 183.611C658.927 183.662 658.633 183.738 658.34 183.837L657.938 182.681C658.316 182.538 658.708 182.43 659.116 182.357C659.526 182.283 659.893 182.247 660.216 182.247C661.085 182.247 661.727 182.425 662.141 182.78C662.559 183.132 662.768 183.642 662.768 184.31V186.598ZM660.04 187.225C660.227 187.225 660.423 187.17 660.628 187.06C660.834 186.947 660.99 186.787 661.096 186.582V185.635H660.667C660.183 185.635 659.827 185.711 659.6 185.861C659.372 186.008 659.259 186.224 659.259 186.51C659.259 186.734 659.326 186.91 659.462 187.038C659.601 187.163 659.794 187.225 660.04 187.225ZM669.635 181.504L670.042 182.78C669.837 182.861 669.596 182.92 669.321 182.956C669.046 182.993 668.725 183.011 668.359 183.011C668.725 183.169 669.004 183.365 669.195 183.6C669.389 183.831 669.486 184.135 669.486 184.513C669.486 184.891 669.386 185.228 669.184 185.525C668.982 185.819 668.696 186.05 668.326 186.219C667.955 186.387 667.517 186.472 667.011 186.472C666.886 186.472 666.769 186.466 666.659 186.455C666.549 186.444 666.441 186.428 666.334 186.406C666.272 186.439 666.224 186.486 666.191 186.549C666.158 186.611 666.142 186.675 666.142 186.741C666.142 186.833 666.178 186.915 666.252 186.989C666.329 187.062 666.507 187.099 666.785 187.099H667.743C668.197 187.099 668.59 187.172 668.92 187.319C669.253 187.465 669.512 187.665 669.695 187.918C669.879 188.171 669.97 188.461 669.97 188.788C669.97 189.385 669.708 189.857 669.184 190.201C668.659 190.546 667.88 190.718 666.846 190.718C666.098 190.718 665.518 190.641 665.107 190.487C664.7 190.337 664.416 190.121 664.255 189.838C664.097 189.56 664.018 189.228 664.018 188.843H665.559C665.559 189.011 665.592 189.149 665.658 189.255C665.727 189.365 665.857 189.446 666.048 189.497C666.243 189.549 666.523 189.574 666.89 189.574C667.26 189.574 667.543 189.545 667.737 189.486C667.931 189.428 668.063 189.347 668.133 189.244C668.206 189.145 668.243 189.033 668.243 188.909C668.243 188.736 668.175 188.597 668.04 188.491C667.904 188.384 667.689 188.331 667.396 188.331H666.466C665.835 188.331 665.377 188.215 665.091 187.984C664.805 187.75 664.662 187.476 664.662 187.165C664.662 186.948 664.719 186.743 664.832 186.549C664.95 186.354 665.113 186.191 665.322 186.059C664.948 185.861 664.68 185.628 664.519 185.36C664.357 185.089 664.277 184.764 664.277 184.387C664.277 183.947 664.389 183.569 664.612 183.253C664.836 182.934 665.144 182.689 665.537 182.516C665.933 182.344 666.384 182.258 666.89 182.258C667.326 182.265 667.706 182.236 668.029 182.17C668.351 182.1 668.641 182.007 668.898 181.889C669.154 181.768 669.4 181.64 669.635 181.504ZM666.934 183.386C666.659 183.386 666.441 183.474 666.279 183.65C666.118 183.822 666.037 184.06 666.037 184.365C666.037 184.687 666.12 184.935 666.285 185.107C666.45 185.28 666.666 185.366 666.934 185.366C667.224 185.366 667.444 185.28 667.594 185.107C667.748 184.935 667.825 184.68 667.825 184.343C667.825 184.016 667.75 183.776 667.599 183.622C667.449 183.464 667.227 183.386 666.934 183.386ZM673.575 182.247C674.176 182.247 674.688 182.375 675.11 182.632C675.531 182.889 675.854 183.25 676.078 183.716C676.302 184.178 676.413 184.72 676.413 185.344C676.413 185.993 676.3 186.552 676.072 187.022C675.849 187.488 675.526 187.845 675.104 188.094C674.682 188.344 674.173 188.469 673.575 188.469C672.981 188.469 672.471 188.346 672.046 188.1C671.624 187.854 671.299 187.499 671.072 187.033C670.848 186.567 670.736 186.008 670.736 185.355C670.736 184.735 670.848 184.192 671.072 183.727C671.299 183.261 671.624 182.898 672.046 182.637C672.471 182.377 672.981 182.247 673.575 182.247ZM673.575 183.529C673.219 183.529 672.955 183.675 672.783 183.969C672.614 184.258 672.53 184.72 672.53 185.355C672.53 186 672.614 186.468 672.783 186.758C672.955 187.047 673.219 187.192 673.575 187.192C673.931 187.192 674.193 187.047 674.362 186.758C674.534 186.468 674.62 185.997 674.62 185.344C674.62 184.713 674.534 184.253 674.362 183.963C674.193 183.673 673.931 183.529 673.575 183.529ZM687.952 183.143C687.952 182.872 687.9 182.648 687.798 182.472C687.699 182.293 687.546 182.161 687.341 182.076C687.139 181.988 686.884 181.944 686.576 181.944H685.96V184.436H686.67C686.938 184.436 687.167 184.39 687.358 184.299C687.548 184.207 687.695 184.066 687.798 183.875C687.9 183.684 687.952 183.441 687.952 183.143ZM689.811 183.138C689.811 183.728 689.685 184.216 689.431 184.601C689.178 184.986 688.825 185.274 688.37 185.465C687.915 185.652 687.387 185.745 686.785 185.745H685.96V188.281H684.156V180.657H686.554C687.589 180.657 688.39 180.862 688.958 181.273C689.527 181.684 689.811 182.305 689.811 183.138ZM693.366 182.247C693.967 182.247 694.479 182.375 694.901 182.632C695.323 182.889 695.645 183.25 695.869 183.716C696.093 184.178 696.205 184.72 696.205 185.344C696.205 185.993 696.091 186.552 695.863 187.022C695.64 187.488 695.317 187.845 694.895 188.094C694.474 188.344 693.964 188.469 693.366 188.469C692.772 188.469 692.262 188.346 691.837 188.1C691.415 187.854 691.09 187.499 690.863 187.033C690.639 186.567 690.527 186.008 690.527 185.355C690.527 184.735 690.639 184.192 690.863 183.727C691.09 183.261 691.415 182.898 691.837 182.637C692.262 182.377 692.772 182.247 693.366 182.247ZM693.366 183.529C693.01 183.529 692.746 183.675 692.574 183.969C692.405 184.258 692.321 184.72 692.321 185.355C692.321 186 692.405 186.468 692.574 186.758C692.746 187.047 693.01 187.192 693.366 187.192C693.722 187.192 693.984 187.047 694.153 186.758C694.325 186.468 694.411 185.997 694.411 185.344C694.411 184.713 694.325 184.253 694.153 183.963C693.984 183.673 693.722 183.529 693.366 183.529ZM697.488 188.281V187.115H698.258V183.595H697.488V182.439H699.583L699.903 183.754C700.112 183.252 700.377 182.878 700.7 182.632C701.027 182.386 701.424 182.263 701.894 182.263C702.092 182.263 702.268 182.28 702.422 182.313C702.576 182.342 702.721 182.384 702.857 182.439L702.328 183.875C702.222 183.846 702.116 183.824 702.009 183.809C701.903 183.794 701.786 183.787 701.657 183.787C701.276 183.787 700.94 183.943 700.651 184.255C700.365 184.566 700.146 184.962 699.996 185.443V187.115H701.151V188.281H697.488ZM701.443 184.882V183.176L701.701 182.439H702.857L702.532 184.882H701.443ZM709.289 187.94C709.061 188.087 708.786 188.212 708.463 188.315C708.141 188.417 707.778 188.469 707.374 188.469C706.611 188.469 706.045 188.274 705.674 187.885C705.304 187.493 705.119 186.961 705.119 186.29V183.639H703.892V182.439H705.119V181.174L706.857 180.965V182.439H708.739L708.568 183.639H706.857V186.29C706.857 186.58 706.923 186.787 707.055 186.912C707.187 187.036 707.398 187.099 707.688 187.099C707.893 187.099 708.08 187.075 708.249 187.027C708.421 186.976 708.575 186.912 708.711 186.835L709.289 187.94ZM714.197 182.439V187.093H715.682V188.281H710.803V187.093H712.458V183.628H710.858V182.439H714.197ZM713.146 179.381C713.447 179.381 713.693 179.474 713.883 179.661C714.074 179.848 714.169 180.081 714.169 180.36C714.169 180.639 714.074 180.873 713.883 181.064C713.693 181.251 713.447 181.345 713.146 181.345C712.842 181.345 712.592 181.251 712.398 181.064C712.207 180.873 712.112 180.639 712.112 180.36C712.112 180.081 712.207 179.848 712.398 179.661C712.592 179.474 712.842 179.381 713.146 179.381ZM720.271 180.118V186.444C720.271 186.679 720.337 186.848 720.469 186.95C720.605 187.049 720.79 187.099 721.025 187.099C721.175 187.099 721.32 187.082 721.459 187.049C721.599 187.013 721.729 186.97 721.85 186.923L722.268 188.083C722.07 188.186 721.832 188.276 721.553 188.353C721.274 188.43 720.95 188.469 720.579 188.469C719.875 188.469 719.358 188.267 719.028 187.863C718.698 187.456 718.533 186.912 718.533 186.23V181.306H716.811V180.118H720.271ZM726.868 180.118V186.444C726.868 186.679 726.934 186.848 727.066 186.95C727.202 187.049 727.387 187.099 727.622 187.099C727.772 187.099 727.917 187.082 728.057 187.049C728.196 187.013 728.326 186.97 728.447 186.923L728.865 188.083C728.667 188.186 728.429 188.276 728.15 188.353C727.871 188.43 727.547 188.469 727.176 188.469C726.472 188.469 725.955 188.267 725.625 187.863C725.295 187.456 725.13 186.912 725.13 186.23V181.306H723.408V180.118H726.868ZM735.336 186.598C735.336 186.818 735.365 186.978 735.424 187.077C735.486 187.176 735.585 187.251 735.721 187.302L735.363 188.447C735.018 188.414 734.727 188.338 734.489 188.221C734.254 188.1 734.069 187.918 733.933 187.676C733.709 187.944 733.423 188.144 733.075 188.276C732.726 188.404 732.371 188.469 732.008 188.469C731.406 188.469 730.926 188.298 730.566 187.957C730.21 187.612 730.033 187.17 730.033 186.631C730.033 185.997 730.28 185.507 730.775 185.162C731.274 184.818 731.975 184.645 732.877 184.645H733.663V184.425C733.663 184.121 733.564 183.895 733.366 183.749C733.172 183.602 732.886 183.529 732.508 183.529C732.321 183.529 732.081 183.556 731.787 183.611C731.494 183.662 731.201 183.738 730.907 183.837L730.506 182.681C730.883 182.538 731.276 182.43 731.683 182.357C732.094 182.283 732.46 182.247 732.783 182.247C733.652 182.247 734.294 182.425 734.709 182.78C735.127 183.132 735.336 183.642 735.336 184.31V186.598ZM732.607 187.225C732.794 187.225 732.99 187.17 733.196 187.06C733.401 186.947 733.557 186.787 733.663 186.582V185.635H733.234C732.75 185.635 732.394 185.711 732.167 185.861C731.94 186.008 731.826 186.224 731.826 186.51C731.826 186.734 731.894 186.91 732.03 187.038C732.169 187.163 732.361 187.225 732.607 187.225ZM737.163 185.514V184.161H741.927V185.514H737.163ZM748.821 180.657L749.25 188.281H747.677L747.584 185.019C747.576 184.715 747.573 184.444 747.573 184.205C747.576 183.967 747.582 183.743 747.589 183.534C747.596 183.321 747.607 183.109 747.622 182.896C747.64 182.68 747.659 182.445 747.677 182.192L746.819 186.983H745.455L744.53 182.192C744.552 182.434 744.571 182.663 744.585 182.879C744.604 183.092 744.617 183.307 744.624 183.523C744.631 183.739 744.637 183.972 744.64 184.222C744.644 184.467 744.642 184.742 744.635 185.047L744.58 188.281H743.034L743.463 180.657H745.317L746.164 185.586L746.967 180.657H748.821ZM755.127 186.598C755.127 186.818 755.156 186.978 755.215 187.077C755.277 187.176 755.376 187.251 755.512 187.302L755.154 188.447C754.81 188.414 754.518 188.338 754.28 188.221C754.045 188.1 753.86 187.918 753.724 187.676C753.5 187.944 753.214 188.144 752.866 188.276C752.517 188.404 752.162 188.469 751.799 188.469C751.197 188.469 750.717 188.298 750.357 187.957C750.002 187.612 749.824 187.17 749.824 186.631C749.824 185.997 750.071 185.507 750.566 185.162C751.065 184.818 751.766 184.645 752.668 184.645H753.454V184.425C753.454 184.121 753.355 183.895 753.157 183.749C752.963 183.602 752.677 183.529 752.299 183.529C752.112 183.529 751.872 183.556 751.579 183.611C751.285 183.662 750.992 183.738 750.698 183.837L750.297 182.681C750.675 182.538 751.067 182.43 751.474 182.357C751.885 182.283 752.252 182.247 752.574 182.247C753.443 182.247 754.085 182.425 754.5 182.78C754.918 183.132 755.127 183.642 755.127 184.31V186.598ZM752.398 187.225C752.585 187.225 752.781 187.17 752.987 187.06C753.192 186.947 753.348 186.787 753.454 186.582V185.635H753.025C752.541 185.635 752.186 185.711 751.958 185.861C751.731 186.008 751.617 186.224 751.617 186.51C751.617 186.734 751.685 186.91 751.821 187.038C751.96 187.163 752.153 187.225 752.398 187.225ZM756.861 188.281V187.115H757.631V183.595H756.861V182.439H758.957L759.276 183.754C759.485 183.252 759.751 182.878 760.073 182.632C760.4 182.386 760.798 182.263 761.267 182.263C761.465 182.263 761.641 182.28 761.795 182.313C761.949 182.342 762.094 182.384 762.23 182.439L761.702 183.875C761.595 183.846 761.489 183.824 761.383 183.809C761.276 183.794 761.159 183.787 761.031 183.787C760.649 183.787 760.314 183.943 760.024 184.255C759.738 184.566 759.52 184.962 759.369 185.443V187.115H760.525V188.281H756.861ZM760.816 184.882V183.176L761.075 182.439H762.23L761.905 184.882H760.816ZM768.662 187.94C768.435 188.087 768.159 188.212 767.837 188.315C767.514 188.417 767.151 188.469 766.748 188.469C765.985 188.469 765.418 188.274 765.048 187.885C764.677 187.493 764.492 186.961 764.492 186.29V183.639H763.265V182.439H764.492V181.174L766.23 180.965V182.439H768.112L767.941 183.639H766.23V186.29C766.23 186.58 766.296 186.787 766.428 186.912C766.56 187.036 766.771 187.099 767.061 187.099C767.266 187.099 767.454 187.075 767.622 187.027C767.795 186.976 767.949 186.912 768.084 186.835L768.662 187.94ZM773.57 182.439V187.093H775.055V188.281H770.176V187.093H771.832V183.628H770.231V182.439H773.57ZM773.356 179.095L774.032 180.404L771.436 181.433L770.957 180.552L773.356 179.095ZM776.597 188.281V182.439H778.115L778.236 183.116C778.497 182.823 778.772 182.604 779.061 182.461C779.351 182.318 779.681 182.247 780.052 182.247C780.55 182.247 780.943 182.399 781.229 182.703C781.515 183.008 781.658 183.437 781.658 183.991V188.281H779.92V184.491C779.92 184.253 779.903 184.064 779.87 183.925C779.837 183.782 779.778 183.681 779.694 183.622C779.613 183.56 779.502 183.529 779.358 183.529C779.237 183.529 779.118 183.556 779.001 183.611C778.887 183.662 778.775 183.738 778.665 183.837C778.555 183.936 778.445 184.055 778.335 184.194V188.281H776.597ZM784.701 185.867C784.742 186.186 784.824 186.444 784.949 186.642C785.077 186.837 785.24 186.98 785.438 187.071C785.636 187.159 785.858 187.203 786.104 187.203C786.372 187.203 786.63 187.159 786.88 187.071C787.129 186.983 787.369 186.866 787.6 186.719L788.299 187.665C788.024 187.9 787.69 188.093 787.298 188.243C786.909 188.393 786.465 188.469 785.967 188.469C785.299 188.469 784.74 188.337 784.289 188.072C783.838 187.805 783.498 187.438 783.271 186.972C783.044 186.506 782.93 185.971 782.93 185.366C782.93 184.79 783.04 184.268 783.26 183.798C783.48 183.325 783.801 182.949 784.223 182.67C784.648 182.388 785.167 182.247 785.779 182.247C786.337 182.247 786.819 182.366 787.226 182.604C787.637 182.843 787.954 183.186 788.178 183.633C788.405 184.08 788.519 184.618 788.519 185.245C788.519 185.344 788.515 185.45 788.508 185.564C788.504 185.678 788.497 185.778 788.486 185.867H784.701ZM785.779 183.413C785.468 183.413 785.217 183.525 785.026 183.749C784.835 183.972 784.72 184.33 784.679 184.821H786.825C786.821 184.396 786.739 184.055 786.577 183.798C786.416 183.541 786.15 183.413 785.779 183.413ZM791.865 186.967H794.792L794.626 188.281H789.813V187.055L792.712 183.749H790.055V182.439H794.736V183.661L791.865 186.967ZM806.077 178.379V191.582H804.954V178.379H806.077ZM818.545 180.536C819.095 180.536 819.564 180.617 819.953 180.778C820.342 180.936 820.663 181.158 820.916 181.444C821.172 181.726 821.372 182.06 821.515 182.445C821.658 182.83 821.759 183.248 821.818 183.699C821.876 184.15 821.906 184.618 821.906 185.102C821.906 186.026 821.862 186.8 821.774 187.423C821.686 188.043 821.521 188.509 821.279 188.821C821.04 189.136 820.696 189.294 820.244 189.294C820.024 189.294 819.832 189.244 819.667 189.145C819.505 189.046 819.372 188.918 819.265 188.76C819.163 188.606 819.084 188.439 819.029 188.259C818.977 188.076 818.948 187.904 818.941 187.742H818.897C818.823 187.918 818.722 188.087 818.594 188.248C818.466 188.41 818.303 188.542 818.105 188.645C817.906 188.747 817.664 188.799 817.378 188.799C816.968 188.799 816.638 188.689 816.388 188.469C816.139 188.252 815.957 187.953 815.844 187.572C815.73 187.19 815.673 186.76 815.673 186.279C815.673 185.344 815.864 184.631 816.245 184.139C816.627 183.644 817.178 183.397 817.901 183.397C818.172 183.397 818.44 183.43 818.704 183.496C818.972 183.558 819.26 183.672 819.568 183.837V187.104C819.568 187.453 819.595 187.722 819.65 187.913C819.705 188.104 819.781 188.236 819.876 188.309C819.975 188.382 820.087 188.419 820.211 188.419C820.358 188.419 820.472 188.344 820.553 188.193C820.637 188.043 820.697 187.827 820.734 187.544C820.771 187.258 820.793 186.914 820.8 186.51C820.807 186.107 820.811 185.652 820.811 185.146C820.811 184.603 820.78 184.106 820.718 183.655C820.659 183.2 820.547 182.808 820.382 182.478C820.221 182.148 819.99 181.893 819.689 181.713C819.388 181.533 818.998 181.444 818.517 181.444C818.147 181.444 817.756 181.513 817.345 181.653C816.938 181.792 816.509 182.06 816.058 182.456L815.464 181.768C815.963 181.335 816.467 181.022 816.977 180.827C817.49 180.633 818.013 180.536 818.545 180.536ZM817.917 184.233C817.496 184.233 817.208 184.398 817.054 184.728C816.9 185.054 816.823 185.571 816.823 186.279C816.823 186.631 816.845 186.932 816.889 187.181C816.933 187.431 817.01 187.621 817.12 187.753C817.23 187.885 817.378 187.951 817.565 187.951C817.789 187.951 817.963 187.9 818.088 187.797C818.213 187.695 818.306 187.574 818.369 187.434C818.431 187.291 818.479 187.167 818.512 187.06V184.376C818.413 184.324 818.317 184.288 818.226 184.266C818.134 184.244 818.031 184.233 817.917 184.233ZM827.804 180.657V185.536C827.804 185.98 827.736 186.382 827.601 186.741C827.465 187.101 827.265 187.407 827.001 187.66C826.741 187.913 826.42 188.107 826.038 188.243C825.661 188.379 825.228 188.447 824.74 188.447C824.249 188.447 823.823 188.384 823.464 188.259C823.108 188.131 822.765 187.955 822.435 187.731L823.123 186.62C823.383 186.8 823.627 186.926 823.854 187C824.082 187.069 824.34 187.104 824.63 187.104C825.022 187.104 825.349 186.98 825.609 186.73C825.873 186.477 826.005 186.087 826.005 185.558V181.977H823.662V180.657H827.804ZM831.904 182.247C832.505 182.247 833.017 182.375 833.439 182.632C833.86 182.889 834.183 183.25 834.407 183.716C834.63 184.178 834.742 184.72 834.742 185.344C834.742 185.993 834.629 186.552 834.401 187.022C834.177 187.488 833.855 187.845 833.433 188.094C833.011 188.344 832.501 188.469 831.904 188.469C831.31 188.469 830.8 188.346 830.374 188.1C829.953 187.854 829.628 187.499 829.401 187.033C829.177 186.567 829.065 186.008 829.065 185.355C829.065 184.735 829.177 184.192 829.401 183.727C829.628 183.261 829.953 182.898 830.374 182.637C830.8 182.377 831.31 182.247 831.904 182.247ZM831.904 183.529C831.548 183.529 831.284 183.675 831.112 183.969C830.943 184.258 830.858 184.72 830.858 185.355C830.858 186 830.943 186.468 831.112 186.758C831.284 187.047 831.548 187.192 831.904 187.192C832.259 187.192 832.522 187.047 832.69 186.758C832.863 186.468 832.949 185.997 832.949 185.344C832.949 184.713 832.863 184.253 832.69 183.963C832.522 183.673 832.259 183.529 831.904 183.529ZM837.478 185.867C837.518 186.186 837.6 186.444 837.725 186.642C837.853 186.837 838.017 186.98 838.215 187.071C838.413 187.159 838.635 187.203 838.88 187.203C839.148 187.203 839.407 187.159 839.656 187.071C839.905 186.983 840.146 186.866 840.377 186.719L841.075 187.665C840.8 187.9 840.466 188.093 840.074 188.243C839.685 188.393 839.242 188.469 838.743 188.469C838.075 188.469 837.516 188.337 837.065 188.072C836.614 187.805 836.275 187.438 836.047 186.972C835.82 186.506 835.706 185.971 835.706 185.366C835.706 184.79 835.816 184.268 836.036 183.798C836.256 183.325 836.577 182.949 836.999 182.67C837.424 182.388 837.943 182.247 838.556 182.247C839.113 182.247 839.595 182.366 840.003 182.604C840.413 182.843 840.731 183.186 840.954 183.633C841.182 184.08 841.295 184.618 841.295 185.245C841.295 185.344 841.292 185.45 841.284 185.564C841.281 185.678 841.273 185.778 841.262 185.867H837.478ZM838.556 183.413C838.244 183.413 837.993 183.525 837.802 183.749C837.611 183.972 837.496 184.33 837.456 184.821H839.601C839.597 184.396 839.515 184.055 839.353 183.798C839.192 183.541 838.926 183.413 838.556 183.413ZM846.281 183.143C846.281 182.872 846.229 182.648 846.126 182.472C846.027 182.293 845.875 182.161 845.67 182.076C845.468 181.988 845.213 181.944 844.905 181.944H844.289V184.436H844.999C845.266 184.436 845.496 184.39 845.686 184.299C845.877 184.207 846.024 184.066 846.126 183.875C846.229 183.684 846.281 183.441 846.281 183.143ZM848.14 183.138C848.14 183.728 848.013 184.216 847.76 184.601C847.507 184.986 847.153 185.274 846.699 185.465C846.244 185.652 845.716 185.745 845.114 185.745H844.289V188.281H842.485V180.657H844.883C845.917 180.657 846.719 180.862 847.287 181.273C847.856 181.684 848.14 182.305 848.14 183.138ZM851.695 182.247C852.296 182.247 852.808 182.375 853.23 182.632C853.651 182.889 853.974 183.25 854.198 183.716C854.422 184.178 854.533 184.72 854.533 185.344C854.533 185.993 854.42 186.552 854.192 187.022C853.969 187.488 853.646 187.845 853.224 188.094C852.802 188.344 852.293 188.469 851.695 188.469C851.101 188.469 850.591 188.346 850.165 188.1C849.744 187.854 849.419 187.499 849.192 187.033C848.968 186.567 848.856 186.008 848.856 185.355C848.856 184.735 848.968 184.192 849.192 183.727C849.419 183.261 849.744 182.898 850.165 182.637C850.591 182.377 851.101 182.247 851.695 182.247ZM851.695 183.529C851.339 183.529 851.075 183.675 850.903 183.969C850.734 184.258 850.65 184.72 850.65 185.355C850.65 186 850.734 186.468 850.903 186.758C851.075 187.047 851.339 187.192 851.695 187.192C852.051 187.192 852.313 187.047 852.481 186.758C852.654 186.468 852.74 185.997 852.74 185.344C852.74 184.713 852.654 184.253 852.481 183.963C852.313 183.673 852.051 183.529 851.695 183.529ZM855.816 188.281V187.115H856.587V183.595H855.816V182.439H857.912L858.231 183.754C858.44 183.252 858.706 182.878 859.029 182.632C859.355 182.386 859.753 182.263 860.223 182.263C860.421 182.263 860.597 182.28 860.751 182.313C860.905 182.342 861.05 182.384 861.185 182.439L860.657 183.875C860.551 183.846 860.445 183.824 860.338 183.809C860.232 183.794 860.115 183.787 859.986 183.787C859.605 183.787 859.269 183.943 858.979 184.255C858.693 184.566 858.475 184.962 858.325 185.443V187.115H859.48V188.281H855.816ZM859.772 184.882V183.176L860.03 182.439H861.185L860.861 184.882H859.772ZM867.617 187.94C867.39 188.087 867.115 188.212 866.792 188.315C866.47 188.417 866.106 188.469 865.703 188.469C864.94 188.469 864.374 188.274 864.003 187.885C863.633 187.493 863.448 186.961 863.448 186.29V183.639H862.221V182.439H863.448V181.174L865.186 180.965V182.439H867.067L866.897 183.639H865.186V186.29C865.186 186.58 865.252 186.787 865.384 186.912C865.516 187.036 865.727 187.099 866.017 187.099C866.222 187.099 866.409 187.075 866.578 187.027C866.75 186.976 866.904 186.912 867.04 186.835L867.617 187.94ZM872.526 182.439V187.093H874.011V188.281H869.131V187.093H870.787V183.628H869.186V182.439H872.526ZM871.475 179.381C871.776 179.381 872.021 179.474 872.212 179.661C872.403 179.848 872.498 180.081 872.498 180.36C872.498 180.639 872.403 180.873 872.212 181.064C872.021 181.251 871.776 181.345 871.475 181.345C871.171 181.345 870.921 181.251 870.727 181.064C870.536 180.873 870.441 180.639 870.441 180.36C870.441 180.081 870.536 179.848 870.727 179.661C870.921 179.474 871.171 179.381 871.475 179.381ZM878.6 180.118V186.444C878.6 186.679 878.666 186.848 878.798 186.95C878.934 187.049 879.119 187.099 879.354 187.099C879.504 187.099 879.649 187.082 879.788 187.049C879.928 187.013 880.058 186.97 880.179 186.923L880.597 188.083C880.399 188.186 880.161 188.276 879.882 188.353C879.603 188.43 879.279 188.469 878.908 188.469C878.204 188.469 877.687 188.267 877.357 187.863C877.027 187.456 876.862 186.912 876.862 186.23V181.306H875.14V180.118H878.6ZM885.197 180.118V186.444C885.197 186.679 885.263 186.848 885.395 186.95C885.531 187.049 885.716 187.099 885.951 187.099C886.101 187.099 886.246 187.082 886.385 187.049C886.525 187.013 886.655 186.97 886.776 186.923L887.194 188.083C886.996 188.186 886.758 188.276 886.479 188.353C886.2 188.43 885.876 188.469 885.505 188.469C884.801 188.469 884.284 188.267 883.954 187.863C883.624 187.456 883.459 186.912 883.459 186.23V181.306H881.737V180.118H885.197ZM893.664 186.598C893.664 186.818 893.694 186.978 893.753 187.077C893.815 187.176 893.914 187.251 894.05 187.302L893.692 188.447C893.347 188.414 893.056 188.338 892.817 188.221C892.583 188.1 892.397 187.918 892.262 187.676C892.038 187.944 891.752 188.144 891.404 188.276C891.055 188.404 890.699 188.469 890.336 188.469C889.735 188.469 889.254 188.298 888.895 187.957C888.539 187.612 888.361 187.17 888.361 186.631C888.361 185.997 888.609 185.507 889.104 185.162C889.603 184.818 890.303 184.645 891.206 184.645H891.992V184.425C891.992 184.121 891.893 183.895 891.695 183.749C891.501 183.602 891.215 183.529 890.837 183.529C890.65 183.529 890.41 183.556 890.116 183.611C889.823 183.662 889.529 183.738 889.236 183.837L888.835 182.681C889.212 182.538 889.605 182.43 890.012 182.357C890.423 182.283 890.789 182.247 891.112 182.247C891.981 182.247 892.623 182.425 893.037 182.78C893.455 183.132 893.664 183.642 893.664 184.31V186.598ZM890.936 187.225C891.123 187.225 891.319 187.17 891.525 187.06C891.73 186.947 891.886 186.787 891.992 186.582V185.635H891.563C891.079 185.635 890.723 185.711 890.496 185.861C890.268 186.008 890.155 186.224 890.155 186.51C890.155 186.734 890.223 186.91 890.358 187.038C890.498 187.163 890.69 187.225 890.936 187.225Z" fill="black"/>
<path d="M473 89L480.5 93.3301L480.5 84.6699L473 89ZM1327 89.0001L1319.5 84.6699L1319.5 93.3302L1327 89.0001ZM479.75 89L479.75 89.75L1320.25 89.7501L1320.25 89.0001L1320.25 88.2501L479.75 88.25L479.75 89Z" fill="black"/>
<line x1="520.25" y1="79" x2="520.25" y2="98.5" stroke="black" stroke-width="1.5"/>
<line x1="689.75" y1="80" x2="689.75" y2="99.5" stroke="black" stroke-width="1.5"/>
<line x1="769.75" y1="80" x2="769.75" y2="99.5" stroke="black" stroke-width="1.5"/>
<line x1="609.75" y1="80" x2="609.75" y2="99.5" stroke="black" stroke-width="1.5"/>
<line x1="849.75" y1="80" x2="849.75" y2="99.5" stroke="black" stroke-width="1.5"/>
<line x1="929.75" y1="80" x2="929.75" y2="99.5" stroke="black" stroke-width="1.5"/>
<line x1="1009.75" y1="80" x2="1009.75" y2="99.5" stroke="black" stroke-width="1.5"/>
<line x1="1089.75" y1="80" x2="1089.75" y2="99.5" stroke="black" stroke-width="1.5"/>
<line x1="1169.75" y1="80" x2="1169.75" y2="99.5" stroke="black" stroke-width="1.5"/>
<line x1="1270.25" y1="79" x2="1270.25" y2="98.5" stroke="black" stroke-width="1.5"/>
<path d="M511.263 107.104C511.923 107.104 512.523 107.19 513.063 107.362C513.61 107.527 514.101 107.764 514.536 108.071L513.4 109.916C513.085 109.699 512.748 109.537 512.388 109.432C512.028 109.327 511.664 109.275 511.296 109.275C510.621 109.275 510.029 109.496 509.519 109.939C509.016 110.381 508.623 111.019 508.338 111.851C508.06 112.676 507.918 113.674 507.91 114.844L507.933 115.8C507.925 117.615 508.105 118.961 508.473 119.839C508.848 120.716 509.508 121.155 510.453 121.155C511.233 121.155 511.81 120.847 512.185 120.232C512.56 119.617 512.748 118.837 512.748 117.892C512.748 117.127 512.661 116.524 512.489 116.081C512.316 115.631 512.076 115.309 511.769 115.114C511.461 114.911 511.09 114.81 510.655 114.81C510.07 114.81 509.519 114.982 509.001 115.327C508.491 115.665 508.056 116.119 507.696 116.689L507.674 114.641C508.169 113.959 508.735 113.46 509.373 113.145C510.01 112.83 510.674 112.672 511.364 112.672C512.166 112.672 512.898 112.867 513.558 113.257C514.218 113.64 514.743 114.206 515.133 114.956C515.53 115.706 515.729 116.632 515.729 117.735C515.729 118.815 515.508 119.779 515.065 120.626C514.623 121.466 514 122.13 513.198 122.617C512.403 123.098 511.48 123.338 510.43 123.338C509.425 123.338 508.57 123.15 507.865 122.775C507.16 122.392 506.586 121.864 506.144 121.189C505.701 120.506 505.375 119.711 505.165 118.804C504.963 117.889 504.861 116.906 504.861 115.856C504.861 114.116 505.116 112.59 505.626 111.277C506.136 109.957 506.868 108.934 507.82 108.206C508.78 107.471 509.928 107.104 511.263 107.104ZM523.741 107.104C525.534 107.104 526.887 107.812 527.802 109.23C528.717 110.64 529.175 112.627 529.175 115.192C529.175 117.765 528.717 119.767 527.802 121.2C526.887 122.625 525.534 123.338 523.741 123.338C521.941 123.338 520.584 122.625 519.669 121.2C518.761 119.767 518.307 117.765 518.307 115.192C518.307 112.627 518.761 110.64 519.669 109.23C520.584 107.812 521.941 107.104 523.741 107.104ZM523.741 109.309C522.894 109.309 522.252 109.762 521.817 110.67C521.39 111.57 521.176 113.077 521.176 115.192C521.176 116.362 521.217 117.334 521.3 118.106C521.39 118.871 521.536 119.475 521.739 119.917C521.941 120.36 522.204 120.675 522.526 120.862C522.856 121.042 523.261 121.132 523.741 121.132C524.311 121.132 524.784 120.941 525.159 120.559C525.541 120.169 525.826 119.539 526.014 118.669C526.201 117.791 526.295 116.632 526.295 115.192C526.295 113.662 526.212 112.47 526.047 111.615C525.89 110.76 525.624 110.164 525.249 109.826C524.881 109.481 524.379 109.309 523.741 109.309ZM525.687 109.815L526.452 111.66L522.02 120.75L521.109 119.242L525.687 109.815Z" fill="#4D4D4D"/>
<path d="M1264.6 108.104C1265.83 108.104 1266.84 108.366 1267.65 108.891C1268.47 109.416 1269.08 110.147 1269.49 111.085C1269.9 112.022 1270.11 113.117 1270.11 114.37C1270.11 115.885 1269.93 117.209 1269.56 118.341C1269.21 119.466 1268.67 120.43 1267.92 121.232C1267.19 122.027 1266.25 122.699 1265.1 123.246C1263.96 123.794 1262.61 124.248 1261.04 124.608L1260.41 122.481C1261.79 122.114 1262.95 121.671 1263.88 121.154C1264.82 120.636 1265.55 119.999 1266.07 119.241C1266.58 118.484 1266.9 117.565 1267.02 116.485L1267.03 115.326C1267.05 114.156 1266.99 113.2 1266.84 112.457C1266.71 111.715 1266.46 111.167 1266.1 110.815C1265.75 110.462 1265.25 110.286 1264.59 110.286C1263.83 110.286 1263.23 110.552 1262.8 111.085C1262.38 111.61 1262.17 112.412 1262.17 113.492C1262.17 114.527 1262.38 115.266 1262.8 115.709C1263.22 116.144 1263.76 116.361 1264.41 116.361C1265.02 116.361 1265.56 116.215 1266.03 115.922C1266.51 115.622 1266.97 115.202 1267.42 114.662L1267.38 116.541C1266.87 117.141 1266.3 117.621 1265.7 117.981C1265.1 118.334 1264.39 118.51 1263.58 118.51C1262.75 118.51 1262 118.307 1261.33 117.902C1260.66 117.49 1260.13 116.912 1259.74 116.17C1259.35 115.427 1259.16 114.546 1259.16 113.526C1259.16 112.409 1259.4 111.445 1259.88 110.635C1260.37 109.825 1261.02 109.202 1261.84 108.767C1262.66 108.325 1263.58 108.104 1264.6 108.104ZM1278.24 108.104C1280.03 108.104 1281.39 108.812 1282.3 110.23C1283.22 111.64 1283.67 113.627 1283.67 116.192C1283.67 118.765 1283.22 120.767 1282.3 122.2C1281.39 123.625 1280.03 124.338 1278.24 124.338C1276.44 124.338 1275.08 123.625 1274.17 122.2C1273.26 120.767 1272.81 118.765 1272.81 116.192C1272.81 113.627 1273.26 111.64 1274.17 110.23C1275.08 108.812 1276.44 108.104 1278.24 108.104ZM1278.24 110.309C1277.39 110.309 1276.75 110.762 1276.32 111.67C1275.89 112.57 1275.68 114.077 1275.68 116.192C1275.68 117.362 1275.72 118.334 1275.8 119.106C1275.89 119.871 1276.04 120.475 1276.24 120.917C1276.44 121.36 1276.7 121.675 1277.03 121.862C1277.36 122.042 1277.76 122.132 1278.24 122.132C1278.81 122.132 1279.28 121.941 1279.66 121.559C1280.04 121.169 1280.33 120.539 1280.51 119.669C1280.7 118.791 1280.79 117.632 1280.79 116.192C1280.79 114.662 1280.71 113.47 1280.55 112.615C1280.39 111.76 1280.12 111.164 1279.75 110.826C1279.38 110.481 1278.88 110.309 1278.24 110.309ZM1280.19 110.815L1280.95 112.66L1276.52 121.75L1275.61 120.242L1280.19 110.815Z" fill="#4D4D4D"/>
<path d="M502.355 58.0225C502.355 58.6525 502.193 59.2075 501.868 59.6875C501.548 60.1675 501.085 60.545 500.48 60.82C499.875 61.09 499.143 61.225 498.283 61.225C497.383 61.225 496.61 61.0925 495.965 60.8275C495.32 60.5575 494.78 60.2125 494.345 59.7925L495.425 58.585C495.8 58.92 496.22 59.1825 496.685 59.3725C497.15 59.5625 497.673 59.6575 498.253 59.6575C498.623 59.6575 498.955 59.6 499.25 59.485C499.55 59.37 499.785 59.2025 499.955 58.9825C500.13 58.7575 500.218 58.4825 500.218 58.1575C500.218 57.8725 500.158 57.6325 500.038 57.4375C499.918 57.2425 499.71 57.0675 499.415 56.9125C499.125 56.7575 498.72 56.6025 498.2 56.4475C497.435 56.2125 496.805 55.955 496.31 55.675C495.815 55.39 495.448 55.055 495.208 54.67C494.968 54.28 494.848 53.82 494.848 53.29C494.848 52.695 495.013 52.1825 495.343 51.7525C495.673 51.3175 496.118 50.985 496.678 50.755C497.243 50.52 497.873 50.4025 498.568 50.4025C499.338 50.4025 500.015 50.515 500.6 50.74C501.185 50.96 501.7 51.275 502.145 51.685L501.118 52.8475C500.763 52.5425 500.378 52.3175 499.963 52.1725C499.553 52.0275 499.135 51.955 498.71 51.955C498.375 51.955 498.075 52 497.81 52.09C497.55 52.18 497.345 52.3125 497.195 52.4875C497.045 52.6625 496.97 52.885 496.97 53.155C496.97 53.4 497.038 53.61 497.173 53.785C497.313 53.955 497.55 54.115 497.885 54.265C498.22 54.41 498.68 54.575 499.265 54.76C499.88 54.945 500.418 55.1675 500.878 55.4275C501.343 55.6875 501.705 56.025 501.965 56.44C502.225 56.85 502.355 57.3775 502.355 58.0225ZM508.499 52.24V61H506.452V52.24H503.422V50.6275H511.619L511.409 52.24H508.499ZM518.168 58.6225H514.756L514.111 61H511.988L515.236 50.6275H517.756L520.996 61H518.813L518.168 58.6225ZM515.123 57.085H517.786L516.458 52.165L515.123 57.085ZM529.277 53.695C529.277 54.195 529.177 54.6325 528.977 55.0075C528.782 55.3825 528.515 55.6975 528.175 55.9525C527.84 56.2075 527.462 56.405 527.042 56.545L529.885 61H527.53L525.077 56.8675H524.132V61H522.085V50.6275H525.137C526.502 50.6275 527.532 50.88 528.227 51.385C528.927 51.89 529.277 52.66 529.277 53.695ZM527.147 53.695C527.147 53.135 526.985 52.7325 526.66 52.4875C526.335 52.2375 525.845 52.1125 525.19 52.1125H524.132V55.4125H525.257C525.862 55.4125 526.327 55.2775 526.652 55.0075C526.982 54.7375 527.147 54.3 527.147 53.695ZM535.482 52.24V61H533.434V52.24H530.404V50.6275H538.602L538.392 52.24H535.482Z" fill="#027D47"/>
<path d="M1259.36 62.0225C1259.36 62.6525 1259.19 63.2075 1258.87 63.6875C1258.55 64.1675 1258.09 64.545 1257.48 64.82C1256.88 65.09 1256.14 65.225 1255.28 65.225C1254.38 65.225 1253.61 65.0925 1252.97 64.8275C1252.32 64.5575 1251.78 64.2125 1251.35 63.7925L1252.43 62.585C1252.8 62.92 1253.22 63.1825 1253.69 63.3725C1254.15 63.5625 1254.67 63.6575 1255.25 63.6575C1255.62 63.6575 1255.96 63.6 1256.25 63.485C1256.55 63.37 1256.79 63.2025 1256.96 62.9825C1257.13 62.7575 1257.22 62.4825 1257.22 62.1575C1257.22 61.8725 1257.16 61.6325 1257.04 61.4375C1256.92 61.2425 1256.71 61.0675 1256.42 60.9125C1256.13 60.7575 1255.72 60.6025 1255.2 60.4475C1254.44 60.2125 1253.81 59.955 1253.31 59.675C1252.82 59.39 1252.45 59.055 1252.21 58.67C1251.97 58.28 1251.85 57.82 1251.85 57.29C1251.85 56.695 1252.01 56.1825 1252.34 55.7525C1252.67 55.3175 1253.12 54.985 1253.68 54.755C1254.24 54.52 1254.87 54.4025 1255.57 54.4025C1256.34 54.4025 1257.02 54.515 1257.6 54.74C1258.19 54.96 1258.7 55.275 1259.15 55.685L1258.12 56.8475C1257.76 56.5425 1257.38 56.3175 1256.96 56.1725C1256.55 56.0275 1256.14 55.955 1255.71 55.955C1255.38 55.955 1255.08 56 1254.81 56.09C1254.55 56.18 1254.35 56.3125 1254.2 56.4875C1254.05 56.6625 1253.97 56.885 1253.97 57.155C1253.97 57.4 1254.04 57.61 1254.17 57.785C1254.31 57.955 1254.55 58.115 1254.89 58.265C1255.22 58.41 1255.68 58.575 1256.27 58.76C1256.88 58.945 1257.42 59.1675 1257.88 59.4275C1258.34 59.6875 1258.71 60.025 1258.97 60.44C1259.23 60.85 1259.36 61.3775 1259.36 62.0225ZM1265.5 56.24V65H1263.45V56.24H1260.42V54.6275H1268.62L1268.41 56.24H1265.5ZM1277.52 59.81C1277.52 60.89 1277.37 61.8375 1277.07 62.6525C1276.77 63.4625 1276.32 64.095 1275.72 64.55C1275.12 65 1274.37 65.225 1273.49 65.225C1272.61 65.225 1271.87 65.005 1271.26 64.565C1270.66 64.12 1270.21 63.495 1269.9 62.69C1269.6 61.88 1269.45 60.9225 1269.45 59.8175C1269.45 58.7375 1269.6 57.7925 1269.9 56.9825C1270.21 56.1675 1270.66 55.535 1271.26 55.085C1271.87 54.63 1272.61 54.4025 1273.49 54.4025C1274.37 54.4025 1275.12 54.6225 1275.72 55.0625C1276.32 55.5025 1276.77 56.1275 1277.07 56.9375C1277.37 57.7475 1277.52 58.705 1277.52 59.81ZM1275.41 59.81C1275.41 58.5 1275.26 57.53 1274.96 56.9C1274.66 56.265 1274.17 55.9475 1273.49 55.9475C1272.8 55.9475 1272.31 56.265 1272.01 56.9C1271.72 57.535 1271.57 58.5075 1271.57 59.8175C1271.57 61.1325 1271.72 62.105 1272.03 62.735C1272.33 63.36 1272.82 63.6725 1273.49 63.6725C1274.18 63.6725 1274.68 63.355 1274.97 62.72C1275.26 62.085 1275.41 61.115 1275.41 59.81ZM1284.39 57.95C1284.39 57.52 1284.31 57.1725 1284.15 56.9075C1283.99 56.6375 1283.75 56.44 1283.44 56.315C1283.13 56.19 1282.76 56.1275 1282.32 56.1275H1281.25V59.885H1282.38C1282.79 59.885 1283.15 59.8225 1283.44 59.6975C1283.74 59.5675 1283.97 59.36 1284.14 59.075C1284.31 58.79 1284.39 58.415 1284.39 57.95ZM1286.52 57.935C1286.52 58.74 1286.35 59.4 1286.01 59.915C1285.67 60.425 1285.19 60.8025 1284.57 61.0475C1283.96 61.2875 1283.25 61.4075 1282.44 61.4075H1281.25V65H1279.2V54.6275H1282.25C1283.59 54.6275 1284.64 54.9 1285.39 55.445C1286.15 55.99 1286.52 56.82 1286.52 57.935Z" fill="#8B0101"/>
<circle cx="520" cy="89" r="11" fill="#027D47"/>
<circle cx="1270" cy="90" r="11" fill="#8A0101"/>
</svg>
