<svg width="1400" height="394" viewBox="0 0 1400 394" fill="none" xmlns="http://www.w3.org/2000/svg">
<rect width="1400" height="394" fill="white"/>
<rect x="505.389" y="367.186" width="19.1617" height="19.1617" rx="3.74252" fill="#0037AC"/>
<path d="M512.812 372.192C512.685 371.882 512.246 371.882 512.119 372.192L511.92 372.678C511.882 372.769 511.882 372.871 511.919 372.962L514.593 379.522C514.693 379.768 514.512 380.037 514.246 380.037H511.585H510.687C510.421 380.037 510.24 379.767 510.341 379.521L510.802 378.397C510.839 378.306 510.84 378.205 510.803 378.114L510.593 377.599C510.466 377.288 510.027 377.288 509.9 377.598L508.643 380.659C508.542 380.905 508.723 381.175 508.989 381.175H515.942C516.208 381.175 516.389 380.905 516.288 380.659L512.812 372.192Z" fill="white"/>
<path d="M515.348 374.011C515.247 373.765 515.428 373.496 515.694 373.496H518.355H519.253C519.519 373.496 519.701 373.766 519.599 374.012L519.138 375.136C519.101 375.227 519.101 375.329 519.138 375.419L519.348 375.934C519.474 376.245 519.913 376.245 520.04 375.935L521.297 372.874C521.398 372.628 521.217 372.358 520.951 372.358H513.999C513.732 372.358 513.551 372.628 513.652 372.874L517.128 381.341C517.256 381.651 517.694 381.651 517.821 381.341L518.021 380.855C518.058 380.764 518.058 380.662 518.021 380.571L515.348 374.011Z" fill="white"/>
<path d="M536.368 378.455H533.656L533.128 380.281H531.83L534.245 372.69H535.829L538.25 380.281H536.896L536.368 378.455ZM533.92 377.47H536.099L535.015 373.68L533.92 377.47ZM540.545 374.472V378.532C540.545 378.877 540.613 379.122 540.748 379.269C540.888 379.416 541.097 379.489 541.375 379.489C541.64 379.489 541.894 379.41 542.14 379.253C542.386 379.095 542.58 378.902 542.723 378.675V374.472H543.955V380.281H542.894L542.817 379.539C542.6 379.828 542.327 380.05 541.997 380.204C541.667 380.355 541.33 380.43 540.985 380.43C540.424 380.43 540.004 380.276 539.725 379.968C539.45 379.656 539.313 379.229 539.313 378.686V374.472H540.545ZM550.762 379.973C550.549 380.109 550.294 380.219 549.997 380.303C549.7 380.388 549.39 380.43 549.067 380.43C548.392 380.43 547.879 380.256 547.527 379.907C547.179 379.555 547.004 379.093 547.004 378.521V375.369H545.712V374.472H547.004V373.174L548.237 373.025V374.472H550.195L550.057 375.369H548.237V378.51C548.237 378.822 548.314 379.055 548.468 379.209C548.625 379.359 548.882 379.434 549.238 379.434C549.45 379.434 549.647 379.408 549.826 379.357C550.006 379.306 550.169 379.24 550.316 379.159L550.762 379.973ZM554.834 374.318C555.402 374.318 555.881 374.445 556.269 374.698C556.658 374.951 556.952 375.305 557.15 375.759C557.351 376.214 557.452 376.75 557.452 377.366C557.452 377.978 557.349 378.515 557.144 378.977C556.942 379.436 556.645 379.793 556.253 380.05C555.864 380.303 555.389 380.43 554.828 380.43C554.267 380.43 553.79 380.307 553.398 380.061C553.009 379.812 552.712 379.458 552.507 378.999C552.305 378.541 552.204 378 552.204 377.377C552.204 376.772 552.305 376.24 552.507 375.781C552.712 375.323 553.011 374.965 553.403 374.709C553.796 374.448 554.272 374.318 554.834 374.318ZM554.834 375.275C554.39 375.275 554.056 375.446 553.832 375.787C553.609 376.124 553.497 376.654 553.497 377.377C553.497 378.095 553.607 378.625 553.827 378.966C554.051 379.308 554.384 379.478 554.828 379.478C555.272 379.478 555.604 379.308 555.824 378.966C556.048 378.625 556.159 378.092 556.159 377.366C556.159 376.651 556.049 376.124 555.829 375.787C555.609 375.446 555.277 375.275 554.834 375.275ZM559.159 380.281V379.401H560.011V375.347H559.159V374.472H560.952L561.178 375.82C561.394 375.332 561.662 374.962 561.981 374.709C562.303 374.452 562.718 374.324 563.224 374.324C563.396 374.324 563.55 374.338 563.686 374.368C563.825 374.393 563.963 374.428 564.099 374.472L563.73 375.528C563.613 375.495 563.503 375.471 563.4 375.457C563.297 375.438 563.184 375.429 563.059 375.429C562.637 375.429 562.272 375.587 561.964 375.902C561.66 376.218 561.42 376.665 561.244 377.245V379.401H562.415V380.281H559.159ZM563.009 376.612V375.182L563.163 374.472H564.099L563.89 376.612H563.009ZM567.026 379.434C567.026 379.166 567.122 378.937 567.313 378.746C567.503 378.552 567.738 378.455 568.017 378.455C568.299 378.455 568.534 378.552 568.721 378.746C568.912 378.937 569.007 379.166 569.007 379.434C569.007 379.709 568.912 379.944 568.721 380.138C568.534 380.333 568.299 380.43 568.017 380.43C567.738 380.43 567.503 380.333 567.313 380.138C567.122 379.944 567.026 379.709 567.026 379.434ZM567.026 375.528C567.026 375.349 567.07 375.184 567.158 375.033C567.247 374.883 567.366 374.764 567.516 374.676C567.666 374.588 567.833 374.544 568.017 374.544C568.299 374.544 568.534 374.641 568.721 374.835C568.912 375.026 569.007 375.257 569.007 375.528C569.007 375.8 568.912 376.034 568.721 376.232C568.534 376.427 568.299 376.524 568.017 376.524C567.738 376.524 567.503 376.427 567.313 376.232C567.122 376.034 567.026 375.8 567.026 375.528ZM583.714 372.657V377.536C583.714 377.98 583.646 378.382 583.51 378.741C583.375 379.1 583.175 379.407 582.911 379.66C582.65 379.913 582.329 380.107 581.948 380.243C581.57 380.378 581.137 380.446 580.65 380.446C580.158 380.446 579.733 380.384 579.373 380.259C579.018 380.131 578.675 379.955 578.345 379.731L579.032 378.62C579.293 378.8 579.537 378.926 579.764 378.999C579.991 379.069 580.25 379.104 580.54 379.104C580.932 379.104 581.258 378.979 581.519 378.73C581.783 378.477 581.915 378.086 581.915 377.558V373.977H579.571V372.657H583.714ZM587.813 374.247C588.415 374.247 588.926 374.375 589.348 374.632C589.77 374.888 590.093 375.25 590.316 375.715C590.54 376.177 590.652 376.72 590.652 377.344C590.652 377.993 590.538 378.552 590.311 379.021C590.087 379.487 589.764 379.845 589.343 380.094C588.921 380.344 588.411 380.468 587.813 380.468C587.219 380.468 586.709 380.345 586.284 380.1C585.862 379.854 585.538 379.498 585.31 379.032C585.087 378.567 584.975 378.007 584.975 377.355C584.975 376.735 585.087 376.192 585.31 375.726C585.538 375.261 585.862 374.897 586.284 374.637C586.709 374.377 587.219 374.247 587.813 374.247ZM587.813 375.528C587.458 375.528 587.193 375.675 587.021 375.968C586.852 376.258 586.768 376.72 586.768 377.355C586.768 378 586.852 378.468 587.021 378.757C587.193 379.047 587.458 379.192 587.813 379.192C588.169 379.192 588.431 379.047 588.6 378.757C588.772 378.468 588.858 377.996 588.858 377.344C588.858 376.713 588.772 376.253 588.6 375.963C588.431 375.673 588.169 375.528 587.813 375.528ZM594.223 379.225C594.513 379.225 594.746 379.179 594.922 379.088C595.102 378.996 595.191 378.858 595.191 378.675C595.191 378.55 595.157 378.446 595.087 378.361C595.017 378.277 594.883 378.196 594.685 378.119C594.487 378.042 594.194 377.951 593.805 377.844C593.449 377.749 593.134 377.628 592.859 377.481C592.588 377.334 592.375 377.146 592.221 376.915C592.07 376.684 591.995 376.396 591.995 376.051C591.995 375.702 592.092 375.393 592.287 375.121C592.481 374.85 592.767 374.637 593.145 374.483C593.523 374.325 593.985 374.247 594.531 374.247C595.052 374.247 595.505 374.314 595.89 374.45C596.279 374.582 596.614 374.751 596.897 374.956L596.204 375.979C595.962 375.829 595.701 375.71 595.423 375.622C595.144 375.53 594.863 375.484 594.581 375.484C594.298 375.484 594.088 375.523 593.948 375.6C593.813 375.673 593.745 375.785 593.745 375.935C593.745 376.034 593.78 376.121 593.849 376.194C593.923 376.264 594.058 376.337 594.256 376.414C594.454 376.487 594.744 376.579 595.125 376.689C595.503 376.795 595.831 376.918 596.11 377.058C596.393 377.197 596.611 377.384 596.765 377.619C596.919 377.85 596.996 378.156 596.996 378.537C596.996 378.963 596.869 379.32 596.616 379.61C596.363 379.896 596.028 380.111 595.61 380.254C595.191 380.397 594.733 380.468 594.234 380.468C593.669 380.468 593.171 380.388 592.738 380.226C592.305 380.065 591.937 379.852 591.632 379.588L592.507 378.609C592.734 378.785 592.991 378.932 593.277 379.049C593.567 379.166 593.882 379.225 594.223 379.225ZM599.984 377.866C600.024 378.185 600.107 378.444 600.232 378.642C600.36 378.836 600.523 378.979 600.721 379.071C600.919 379.159 601.141 379.203 601.387 379.203C601.655 379.203 601.913 379.159 602.163 379.071C602.412 378.983 602.652 378.866 602.883 378.719L603.582 379.665C603.307 379.9 602.973 380.092 602.581 380.243C602.192 380.393 601.748 380.468 601.249 380.468C600.582 380.468 600.023 380.336 599.572 380.072C599.12 379.804 598.781 379.438 598.554 378.972C598.326 378.506 598.213 377.971 598.213 377.366C598.213 376.79 598.323 376.267 598.543 375.798C598.763 375.325 599.084 374.949 599.506 374.67C599.931 374.388 600.45 374.247 601.062 374.247C601.62 374.247 602.102 374.366 602.509 374.604C602.92 374.842 603.237 375.185 603.461 375.633C603.688 376.08 603.802 376.618 603.802 377.245C603.802 377.344 603.798 377.45 603.791 377.564C603.787 377.677 603.78 377.778 603.769 377.866H599.984ZM601.062 375.413C600.751 375.413 600.499 375.525 600.309 375.748C600.118 375.972 600.002 376.33 599.962 376.821H602.108C602.104 376.396 602.021 376.055 601.86 375.798C601.699 375.541 601.433 375.413 601.062 375.413ZM608.309 374.247C608.818 374.247 609.229 374.373 609.541 374.626C609.852 374.879 610.08 375.237 610.223 375.699C610.37 376.161 610.443 376.709 610.443 377.344C610.443 377.945 610.355 378.482 610.179 378.955C610.003 379.425 609.748 379.795 609.414 380.067C609.081 380.334 608.675 380.468 608.198 380.468C607.63 380.468 607.168 380.265 606.812 379.858V382.537L605.074 382.718V374.439H606.614L606.691 375.094C606.93 374.789 607.19 374.573 607.472 374.445C607.755 374.313 608.033 374.247 608.309 374.247ZM607.769 375.528C607.568 375.528 607.39 375.589 607.236 375.71C607.082 375.831 606.941 375.996 606.812 376.205V378.669C606.933 378.849 607.06 378.981 607.192 379.066C607.327 379.15 607.487 379.192 607.67 379.192C607.978 379.192 608.219 379.053 608.391 378.774C608.563 378.492 608.65 378.022 608.65 377.366C608.65 376.882 608.615 376.507 608.545 376.243C608.475 375.976 608.375 375.791 608.242 375.688C608.11 375.581 607.953 375.528 607.769 375.528ZM613.409 371.947V375.017C613.655 374.756 613.921 374.564 614.207 374.439C614.497 374.311 614.803 374.247 615.126 374.247C615.646 374.247 616.044 374.399 616.319 374.703C616.594 375.008 616.732 375.437 616.732 375.99V380.281H614.994V376.474C614.994 376.122 614.953 375.877 614.873 375.737C614.796 375.598 614.649 375.528 614.432 375.528C614.311 375.528 614.192 375.558 614.075 375.616C613.961 375.671 613.849 375.752 613.739 375.858C613.629 375.965 613.519 376.091 613.409 376.238V380.281H611.671V372.118L613.409 371.947ZM630.344 378.053C630.344 378.526 630.219 378.944 629.97 379.308C629.724 379.671 629.37 379.955 628.908 380.16C628.446 380.366 627.891 380.468 627.241 380.468C626.523 380.468 625.919 380.364 625.432 380.155C624.947 379.942 624.546 379.68 624.227 379.368L625.14 378.356C625.422 378.602 625.734 378.792 626.075 378.928C626.416 379.06 626.79 379.126 627.197 379.126C627.45 379.126 627.672 379.089 627.863 379.016C628.054 378.943 628.202 378.836 628.309 378.697C628.415 378.558 628.468 378.389 628.468 378.191C628.468 378.004 628.426 377.846 628.342 377.718C628.257 377.589 628.114 377.474 627.913 377.371C627.715 377.268 627.438 377.164 627.082 377.058C626.488 376.874 626.009 376.673 625.646 376.452C625.287 376.232 625.024 375.978 624.859 375.688C624.698 375.398 624.617 375.061 624.617 374.676C624.617 374.21 624.746 373.812 625.002 373.482C625.263 373.152 625.611 372.901 626.048 372.728C626.484 372.552 626.965 372.464 627.489 372.464C628.079 372.464 628.6 372.55 629.051 372.723C629.502 372.891 629.893 373.133 630.223 373.449L629.37 374.428C629.114 374.212 628.837 374.052 628.54 373.949C628.243 373.843 627.94 373.79 627.632 373.79C627.405 373.79 627.205 373.819 627.032 373.878C626.86 373.933 626.726 374.015 626.631 374.126C626.535 374.236 626.488 374.373 626.488 374.538C626.488 374.699 626.534 374.835 626.625 374.945C626.717 375.055 626.877 375.16 627.104 375.259C627.331 375.354 627.647 375.466 628.05 375.594C628.531 375.741 628.941 375.917 629.282 376.122C629.627 376.324 629.889 376.579 630.069 376.887C630.252 377.195 630.344 377.584 630.344 378.053ZM636.38 378.598C636.38 378.818 636.409 378.977 636.468 379.077C636.53 379.176 636.629 379.251 636.765 379.302L636.407 380.446C636.063 380.413 635.771 380.338 635.533 380.221C635.298 380.1 635.113 379.918 634.977 379.676C634.753 379.944 634.467 380.144 634.119 380.276C633.771 380.404 633.415 380.468 633.052 380.468C632.45 380.468 631.97 380.298 631.611 379.957C631.255 379.612 631.077 379.17 631.077 378.631C631.077 377.996 631.324 377.507 631.82 377.162C632.318 376.817 633.019 376.645 633.921 376.645H634.708V376.425C634.708 376.121 634.609 375.895 634.411 375.748C634.216 375.602 633.93 375.528 633.552 375.528C633.365 375.528 633.125 375.556 632.832 375.611C632.538 375.662 632.245 375.737 631.952 375.836L631.55 374.681C631.928 374.538 632.32 374.43 632.727 374.357C633.138 374.283 633.505 374.247 633.827 374.247C634.697 374.247 635.338 374.424 635.753 374.78C636.171 375.132 636.38 375.642 636.38 376.309V378.598ZM633.651 379.225C633.838 379.225 634.035 379.17 634.24 379.06C634.445 378.946 634.601 378.787 634.708 378.581V377.635H634.279C633.794 377.635 633.439 377.71 633.211 377.861C632.984 378.007 632.87 378.224 632.87 378.51C632.87 378.734 632.938 378.91 633.074 379.038C633.213 379.163 633.406 379.225 633.651 379.225ZM638.059 380.281V374.439H639.577L639.698 375.116C639.959 374.822 640.234 374.604 640.524 374.461C640.813 374.318 641.143 374.247 641.514 374.247C642.012 374.247 642.405 374.399 642.691 374.703C642.977 375.008 643.12 375.437 643.12 375.99V380.281H641.382V376.491C641.382 376.253 641.365 376.064 641.332 375.924C641.299 375.781 641.241 375.68 641.156 375.622C641.075 375.559 640.964 375.528 640.821 375.528C640.7 375.528 640.58 375.556 640.463 375.611C640.349 375.662 640.237 375.737 640.127 375.836C640.017 375.935 639.907 376.055 639.797 376.194V380.281H638.059ZM649.915 379.94C649.688 380.087 649.413 380.212 649.09 380.314C648.767 380.417 648.404 380.468 648.001 380.468C647.238 380.468 646.671 380.274 646.301 379.885C645.93 379.493 645.745 378.961 645.745 378.29V375.638H644.519V374.439H645.745V373.174L647.484 372.965V374.439H649.365L649.194 375.638H647.484V378.29C647.484 378.58 647.55 378.787 647.682 378.911C647.814 379.036 648.025 379.099 648.314 379.099C648.52 379.099 648.707 379.075 648.875 379.027C649.048 378.976 649.202 378.911 649.338 378.834L649.915 379.94ZM654.823 374.439V379.093H656.309V380.281H651.429V379.093H653.085V375.627H651.484V374.439H654.823ZM653.773 371.38C654.073 371.38 654.319 371.474 654.51 371.661C654.7 371.848 654.796 372.081 654.796 372.36C654.796 372.638 654.7 372.873 654.51 373.064C654.319 373.251 654.073 373.344 653.773 373.344C653.468 373.344 653.219 373.251 653.024 373.064C652.834 372.873 652.738 372.638 652.738 372.36C652.738 372.081 652.834 371.848 653.024 371.661C653.219 371.474 653.468 371.38 653.773 371.38ZM662.768 378.598C662.768 378.818 662.797 378.977 662.856 379.077C662.918 379.176 663.018 379.251 663.153 379.302L662.796 380.446C662.451 380.413 662.159 380.338 661.921 380.221C661.686 380.1 661.501 379.918 661.365 379.676C661.142 379.944 660.856 380.144 660.507 380.276C660.159 380.404 659.803 380.468 659.44 380.468C658.838 380.468 658.358 380.298 657.999 379.957C657.643 379.612 657.465 379.17 657.465 378.631C657.465 377.996 657.713 377.507 658.208 377.162C658.706 376.817 659.407 376.645 660.309 376.645H661.096V376.425C661.096 376.121 660.997 375.895 660.799 375.748C660.604 375.602 660.318 375.528 659.941 375.528C659.754 375.528 659.513 375.556 659.22 375.611C658.927 375.662 658.633 375.737 658.34 375.836L657.938 374.681C658.316 374.538 658.708 374.43 659.115 374.357C659.526 374.283 659.893 374.247 660.216 374.247C661.085 374.247 661.727 374.424 662.141 374.78C662.559 375.132 662.768 375.642 662.768 376.309V378.598ZM660.04 379.225C660.227 379.225 660.423 379.17 660.628 379.06C660.834 378.946 660.989 378.787 661.096 378.581V377.635H660.667C660.183 377.635 659.827 377.71 659.599 377.861C659.372 378.007 659.258 378.224 659.258 378.51C659.258 378.734 659.326 378.91 659.462 379.038C659.601 379.163 659.794 379.225 660.04 379.225ZM669.635 373.504L670.042 374.78C669.836 374.861 669.596 374.92 669.321 374.956C669.046 374.993 668.725 375.011 668.358 375.011C668.725 375.169 669.004 375.365 669.195 375.6C669.389 375.831 669.486 376.135 669.486 376.513C669.486 376.891 669.385 377.228 669.184 377.525C668.982 377.819 668.696 378.05 668.325 378.218C667.955 378.387 667.517 378.471 667.011 378.471C666.886 378.471 666.769 378.466 666.659 378.455C666.549 378.444 666.44 378.427 666.334 378.405C666.272 378.438 666.224 378.486 666.191 378.548C666.158 378.611 666.141 378.675 666.141 378.741C666.141 378.833 666.178 378.915 666.252 378.988C666.329 379.062 666.506 379.099 666.785 379.099H667.742C668.197 379.099 668.589 379.172 668.92 379.319C669.253 379.465 669.512 379.665 669.695 379.918C669.879 380.171 669.97 380.461 669.97 380.787C669.97 381.385 669.708 381.856 669.184 382.201C668.659 382.546 667.88 382.718 666.846 382.718C666.097 382.718 665.518 382.641 665.107 382.487C664.7 382.337 664.416 382.12 664.255 381.838C664.097 381.559 664.018 381.227 664.018 380.842H665.558C665.558 381.011 665.591 381.149 665.657 381.255C665.727 381.365 665.857 381.446 666.048 381.497C666.242 381.548 666.523 381.574 666.89 381.574C667.26 381.574 667.542 381.545 667.737 381.486C667.931 381.427 668.063 381.347 668.133 381.244C668.206 381.145 668.243 381.033 668.243 380.908C668.243 380.736 668.175 380.597 668.039 380.49C667.904 380.384 667.689 380.331 667.396 380.331H666.466C665.835 380.331 665.377 380.215 665.091 379.984C664.805 379.749 664.662 379.476 664.662 379.165C664.662 378.948 664.719 378.743 664.832 378.548C664.95 378.354 665.113 378.191 665.322 378.059C664.948 377.861 664.68 377.628 664.519 377.36C664.357 377.089 664.277 376.764 664.277 376.386C664.277 375.946 664.388 375.569 664.612 375.253C664.836 374.934 665.144 374.688 665.536 374.516C665.932 374.344 666.384 374.258 666.89 374.258C667.326 374.265 667.706 374.236 668.028 374.17C668.351 374.1 668.641 374.006 668.898 373.889C669.154 373.768 669.4 373.64 669.635 373.504ZM666.934 375.385C666.659 375.385 666.44 375.473 666.279 375.649C666.118 375.822 666.037 376.06 666.037 376.364C666.037 376.687 666.119 376.935 666.285 377.107C666.45 377.279 666.666 377.366 666.934 377.366C667.223 377.366 667.443 377.279 667.594 377.107C667.748 376.935 667.825 376.68 667.825 376.342C667.825 376.016 667.75 375.776 667.599 375.622C667.449 375.464 667.227 375.385 666.934 375.385ZM673.575 374.247C674.176 374.247 674.688 374.375 675.11 374.632C675.531 374.888 675.854 375.25 676.078 375.715C676.301 376.177 676.413 376.72 676.413 377.344C676.413 377.993 676.3 378.552 676.072 379.021C675.849 379.487 675.526 379.845 675.104 380.094C674.682 380.344 674.173 380.468 673.575 380.468C672.981 380.468 672.471 380.345 672.045 380.1C671.624 379.854 671.299 379.498 671.072 379.032C670.848 378.567 670.736 378.007 670.736 377.355C670.736 376.735 670.848 376.192 671.072 375.726C671.299 375.261 671.624 374.897 672.045 374.637C672.471 374.377 672.981 374.247 673.575 374.247ZM673.575 375.528C673.219 375.528 672.955 375.675 672.783 375.968C672.614 376.258 672.53 376.72 672.53 377.355C672.53 378 672.614 378.468 672.783 378.757C672.955 379.047 673.219 379.192 673.575 379.192C673.93 379.192 674.193 379.047 674.361 378.757C674.534 378.468 674.62 377.996 674.62 377.344C674.62 376.713 674.534 376.253 674.361 375.963C674.193 375.673 673.93 375.528 673.575 375.528ZM687.952 375.143C687.952 374.872 687.9 374.648 687.797 374.472C687.698 374.292 687.546 374.16 687.341 374.076C687.139 373.988 686.884 373.944 686.576 373.944H685.96V376.436H686.67C686.937 376.436 687.167 376.39 687.357 376.298C687.548 376.207 687.695 376.066 687.797 375.875C687.9 375.684 687.952 375.44 687.952 375.143ZM689.811 375.138C689.811 375.728 689.684 376.216 689.431 376.601C689.178 376.986 688.824 377.274 688.37 377.465C687.915 377.652 687.387 377.745 686.785 377.745H685.96V380.281H684.156V372.657H686.554C687.588 372.657 688.39 372.862 688.958 373.273C689.527 373.684 689.811 374.305 689.811 375.138ZM693.366 374.247C693.967 374.247 694.479 374.375 694.901 374.632C695.322 374.888 695.645 375.25 695.869 375.715C696.093 376.177 696.204 376.72 696.204 377.344C696.204 377.993 696.091 378.552 695.863 379.021C695.64 379.487 695.317 379.845 694.895 380.094C694.473 380.344 693.964 380.468 693.366 380.468C692.772 380.468 692.262 380.345 691.836 380.1C691.415 379.854 691.09 379.498 690.863 379.032C690.639 378.567 690.527 378.007 690.527 377.355C690.527 376.735 690.639 376.192 690.863 375.726C691.09 375.261 691.415 374.897 691.836 374.637C692.262 374.377 692.772 374.247 693.366 374.247ZM693.366 375.528C693.01 375.528 692.746 375.675 692.574 375.968C692.405 376.258 692.321 376.72 692.321 377.355C692.321 378 692.405 378.468 692.574 378.757C692.746 379.047 693.01 379.192 693.366 379.192C693.722 379.192 693.984 379.047 694.152 378.757C694.325 378.468 694.411 377.996 694.411 377.344C694.411 376.713 694.325 376.253 694.152 375.963C693.984 375.673 693.722 375.528 693.366 375.528ZM697.487 380.281V379.115H698.257V375.594H697.487V374.439H699.583L699.902 375.754C700.111 375.251 700.377 374.877 700.7 374.632C701.026 374.386 701.424 374.263 701.894 374.263C702.092 374.263 702.268 374.28 702.422 374.313C702.576 374.342 702.721 374.384 702.856 374.439L702.328 375.875C702.222 375.846 702.116 375.824 702.009 375.809C701.903 375.794 701.786 375.787 701.657 375.787C701.276 375.787 700.94 375.943 700.65 376.254C700.364 376.566 700.146 376.962 699.996 377.443V379.115H701.151V380.281H697.487ZM701.443 376.882V375.176L701.701 374.439H702.856L702.532 376.882H701.443ZM709.288 379.94C709.061 380.087 708.786 380.212 708.463 380.314C708.141 380.417 707.777 380.468 707.374 380.468C706.611 380.468 706.045 380.274 705.674 379.885C705.304 379.493 705.119 378.961 705.119 378.29V375.638H703.892V374.439H705.119V373.174L706.857 372.965V374.439H708.738L708.568 375.638H706.857V378.29C706.857 378.58 706.923 378.787 707.055 378.911C707.187 379.036 707.398 379.099 707.688 379.099C707.893 379.099 708.08 379.075 708.249 379.027C708.421 378.976 708.575 378.911 708.711 378.834L709.288 379.94ZM714.197 374.439V379.093H715.682V380.281H710.802V379.093H712.458V375.627H710.857V374.439H714.197ZM713.146 371.38C713.447 371.38 713.692 371.474 713.883 371.661C714.074 371.848 714.169 372.081 714.169 372.36C714.169 372.638 714.074 372.873 713.883 373.064C713.692 373.251 713.447 373.344 713.146 373.344C712.842 373.344 712.592 373.251 712.398 373.064C712.207 372.873 712.112 372.638 712.112 372.36C712.112 372.081 712.207 371.848 712.398 371.661C712.592 371.474 712.842 371.38 713.146 371.38ZM720.271 372.118V378.444C720.271 378.679 720.337 378.847 720.469 378.95C720.605 379.049 720.79 379.099 721.025 379.099C721.175 379.099 721.32 379.082 721.459 379.049C721.599 379.012 721.729 378.97 721.85 378.922L722.268 380.083C722.07 380.186 721.832 380.276 721.553 380.353C721.274 380.43 720.95 380.468 720.579 380.468C719.875 380.468 719.358 380.267 719.028 379.863C718.698 379.456 718.533 378.911 718.533 378.229V373.306H716.811V372.118H720.271ZM726.868 372.118V378.444C726.868 378.679 726.934 378.847 727.066 378.95C727.202 379.049 727.387 379.099 727.622 379.099C727.772 379.099 727.917 379.082 728.056 379.049C728.196 379.012 728.326 378.97 728.447 378.922L728.865 380.083C728.667 380.186 728.429 380.276 728.15 380.353C727.871 380.43 727.547 380.468 727.176 380.468C726.472 380.468 725.955 380.267 725.625 379.863C725.295 379.456 725.13 378.911 725.13 378.229V373.306H723.408V372.118H726.868ZM735.336 378.598C735.336 378.818 735.365 378.977 735.424 379.077C735.486 379.176 735.585 379.251 735.721 379.302L735.363 380.446C735.018 380.413 734.727 380.338 734.488 380.221C734.254 380.1 734.068 379.918 733.933 379.676C733.709 379.944 733.423 380.144 733.075 380.276C732.726 380.404 732.37 380.468 732.007 380.468C731.406 380.468 730.925 380.298 730.566 379.957C730.21 379.612 730.032 379.17 730.032 378.631C730.032 377.996 730.28 377.507 730.775 377.162C731.274 376.817 731.974 376.645 732.877 376.645H733.663V376.425C733.663 376.121 733.564 375.895 733.366 375.748C733.172 375.602 732.886 375.528 732.508 375.528C732.321 375.528 732.081 375.556 731.787 375.611C731.494 375.662 731.201 375.737 730.907 375.836L730.506 374.681C730.883 374.538 731.276 374.43 731.683 374.357C732.094 374.283 732.46 374.247 732.783 374.247C733.652 374.247 734.294 374.424 734.708 374.78C735.126 375.132 735.336 375.642 735.336 376.309V378.598ZM732.607 379.225C732.794 379.225 732.99 379.17 733.196 379.06C733.401 378.946 733.557 378.787 733.663 378.581V377.635H733.234C732.75 377.635 732.394 377.71 732.167 377.861C731.939 378.007 731.826 378.224 731.826 378.51C731.826 378.734 731.894 378.91 732.029 379.038C732.169 379.163 732.361 379.225 732.607 379.225ZM737.163 377.514V376.161H741.927V377.514H737.163ZM748.821 372.657L749.25 380.281H747.677L747.583 377.019C747.576 376.715 747.572 376.443 747.572 376.205C747.576 375.967 747.582 375.743 747.589 375.534C747.596 375.321 747.607 375.108 747.622 374.896C747.64 374.679 747.659 374.445 747.677 374.192L746.819 378.983H745.454L744.53 374.192C744.552 374.434 744.571 374.663 744.585 374.879C744.604 375.092 744.616 375.306 744.624 375.523C744.631 375.739 744.637 375.972 744.64 376.221C744.644 376.467 744.642 376.742 744.635 377.047L744.58 380.281H743.034L743.463 372.657H745.317L746.164 377.586L746.967 372.657H748.821ZM755.127 378.598C755.127 378.818 755.156 378.977 755.215 379.077C755.277 379.176 755.376 379.251 755.512 379.302L755.154 380.446C754.809 380.413 754.518 380.338 754.279 380.221C754.045 380.1 753.86 379.918 753.724 379.676C753.5 379.944 753.214 380.144 752.866 380.276C752.517 380.404 752.161 380.468 751.798 380.468C751.197 380.468 750.717 380.298 750.357 379.957C750.001 379.612 749.824 379.17 749.824 378.631C749.824 377.996 750.071 377.507 750.566 377.162C751.065 376.817 751.765 376.645 752.668 376.645H753.454V376.425C753.454 376.121 753.355 375.895 753.157 375.748C752.963 375.602 752.677 375.528 752.299 375.528C752.112 375.528 751.872 375.556 751.578 375.611C751.285 375.662 750.992 375.737 750.698 375.836L750.297 374.681C750.674 374.538 751.067 374.43 751.474 374.357C751.885 374.283 752.251 374.247 752.574 374.247C753.443 374.247 754.085 374.424 754.499 374.78C754.918 375.132 755.127 375.642 755.127 376.309V378.598ZM752.398 379.225C752.585 379.225 752.781 379.17 752.987 379.06C753.192 378.946 753.348 378.787 753.454 378.581V377.635H753.025C752.541 377.635 752.185 377.71 751.958 377.861C751.731 378.007 751.617 378.224 751.617 378.51C751.617 378.734 751.685 378.91 751.82 379.038C751.96 379.163 752.152 379.225 752.398 379.225ZM756.861 380.281V379.115H757.631V375.594H756.861V374.439H758.957L759.276 375.754C759.485 375.251 759.751 374.877 760.073 374.632C760.4 374.386 760.798 374.263 761.267 374.263C761.465 374.263 761.641 374.28 761.795 374.313C761.949 374.342 762.094 374.384 762.23 374.439L761.702 375.875C761.595 375.846 761.489 375.824 761.383 375.809C761.276 375.794 761.159 375.787 761.03 375.787C760.649 375.787 760.314 375.943 760.024 376.254C759.738 376.566 759.52 376.962 759.369 377.443V379.115H760.524V380.281H756.861ZM760.816 376.882V375.176L761.074 374.439H762.23L761.905 376.882H760.816ZM768.662 379.94C768.434 380.087 768.159 380.212 767.837 380.314C767.514 380.417 767.151 380.468 766.747 380.468C765.985 380.468 765.418 380.274 765.048 379.885C764.677 379.493 764.492 378.961 764.492 378.29V375.638H763.265V374.439H764.492V373.174L766.23 372.965V374.439H768.112L767.941 375.638H766.23V378.29C766.23 378.58 766.296 378.787 766.428 378.911C766.56 379.036 766.771 379.099 767.061 379.099C767.266 379.099 767.453 379.075 767.622 379.027C767.794 378.976 767.948 378.911 768.084 378.834L768.662 379.94ZM773.57 374.439V379.093H775.055V380.281H770.176V379.093H771.832V375.627H770.231V374.439H773.57ZM773.355 371.094L774.032 372.404L771.435 373.432L770.957 372.552L773.355 371.094ZM776.597 380.281V374.439H778.115L778.236 375.116C778.496 374.822 778.772 374.604 779.061 374.461C779.351 374.318 779.681 374.247 780.051 374.247C780.55 374.247 780.943 374.399 781.229 374.703C781.515 375.008 781.658 375.437 781.658 375.99V380.281H779.919V376.491C779.919 376.253 779.903 376.064 779.87 375.924C779.837 375.781 779.778 375.68 779.694 375.622C779.613 375.559 779.501 375.528 779.358 375.528C779.237 375.528 779.118 375.556 779.001 375.611C778.887 375.662 778.775 375.737 778.665 375.836C778.555 375.935 778.445 376.055 778.335 376.194V380.281H776.597ZM784.701 377.866C784.741 378.185 784.824 378.444 784.949 378.642C785.077 378.836 785.24 378.979 785.438 379.071C785.636 379.159 785.858 379.203 786.104 379.203C786.372 379.203 786.63 379.159 786.88 379.071C787.129 378.983 787.369 378.866 787.6 378.719L788.299 379.665C788.024 379.9 787.69 380.092 787.298 380.243C786.909 380.393 786.465 380.468 785.966 380.468C785.299 380.468 784.74 380.336 784.288 380.072C783.837 379.804 783.498 379.438 783.271 378.972C783.043 378.506 782.93 377.971 782.93 377.366C782.93 376.79 783.04 376.267 783.26 375.798C783.48 375.325 783.801 374.949 784.222 374.67C784.648 374.388 785.167 374.247 785.779 374.247C786.337 374.247 786.819 374.366 787.226 374.604C787.637 374.842 787.954 375.185 788.178 375.633C788.405 376.08 788.519 376.618 788.519 377.245C788.519 377.344 788.515 377.45 788.508 377.564C788.504 377.677 788.497 377.778 788.486 377.866H784.701ZM785.779 375.413C785.468 375.413 785.216 375.525 785.026 375.748C784.835 375.972 784.719 376.33 784.679 376.821H786.825C786.821 376.396 786.738 376.055 786.577 375.798C786.416 375.541 786.15 375.413 785.779 375.413ZM791.865 378.966H794.791L794.626 380.281H789.813V379.055L792.712 375.748H790.055V374.439H794.736V375.66L791.865 378.966ZM806.077 370.379V383.582H804.954V370.379H806.077ZM818.544 372.536C819.095 372.536 819.564 372.616 819.953 372.778C820.341 372.935 820.662 373.157 820.915 373.443C821.172 373.726 821.372 374.059 821.515 374.445C821.658 374.83 821.759 375.248 821.818 375.699C821.876 376.15 821.906 376.618 821.906 377.102C821.906 378.026 821.862 378.8 821.774 379.423C821.686 380.043 821.521 380.509 821.278 380.82C821.04 381.136 820.695 381.293 820.244 381.293C820.024 381.293 819.832 381.244 819.667 381.145C819.505 381.046 819.371 380.918 819.265 380.76C819.162 380.606 819.084 380.439 819.029 380.259C818.977 380.076 818.948 379.904 818.94 379.742H818.896C818.823 379.918 818.722 380.087 818.594 380.248C818.466 380.41 818.302 380.542 818.104 380.644C817.906 380.747 817.664 380.798 817.378 380.798C816.967 380.798 816.637 380.688 816.388 380.468C816.139 380.252 815.957 379.953 815.843 379.572C815.73 379.19 815.673 378.759 815.673 378.279C815.673 377.344 815.864 376.63 816.245 376.139C816.626 375.644 817.178 375.396 817.901 375.396C818.172 375.396 818.44 375.429 818.704 375.495C818.972 375.558 819.26 375.671 819.568 375.836V379.104C819.568 379.452 819.595 379.722 819.65 379.913C819.705 380.103 819.78 380.235 819.876 380.309C819.975 380.382 820.087 380.419 820.211 380.419C820.358 380.419 820.472 380.344 820.552 380.193C820.637 380.043 820.697 379.826 820.734 379.544C820.771 379.258 820.793 378.913 820.8 378.51C820.807 378.106 820.811 377.652 820.811 377.146C820.811 376.603 820.78 376.106 820.717 375.655C820.659 375.2 820.547 374.808 820.382 374.478C820.22 374.148 819.989 373.893 819.689 373.713C819.388 373.533 818.997 373.443 818.517 373.443C818.147 373.443 817.756 373.513 817.345 373.652C816.938 373.792 816.509 374.059 816.058 374.456L815.464 373.768C815.963 373.335 816.467 373.022 816.977 372.827C817.49 372.633 818.013 372.536 818.544 372.536ZM817.917 376.232C817.496 376.232 817.208 376.397 817.054 376.728C816.9 377.054 816.823 377.571 816.823 378.279C816.823 378.631 816.845 378.932 816.889 379.181C816.933 379.43 817.01 379.621 817.12 379.753C817.23 379.885 817.378 379.951 817.565 379.951C817.789 379.951 817.963 379.9 818.088 379.797C818.213 379.694 818.306 379.573 818.368 379.434C818.431 379.291 818.478 379.166 818.511 379.06V376.375C818.412 376.324 818.317 376.287 818.225 376.265C818.134 376.243 818.031 376.232 817.917 376.232ZM827.804 372.657V377.536C827.804 377.98 827.736 378.382 827.6 378.741C827.465 379.1 827.265 379.407 827.001 379.66C826.74 379.913 826.42 380.107 826.038 380.243C825.66 380.378 825.228 380.446 824.74 380.446C824.248 380.446 823.823 380.384 823.464 380.259C823.108 380.131 822.765 379.955 822.435 379.731L823.123 378.62C823.383 378.8 823.627 378.926 823.854 378.999C824.082 379.069 824.34 379.104 824.63 379.104C825.022 379.104 825.349 378.979 825.609 378.73C825.873 378.477 826.005 378.086 826.005 377.558V373.977H823.662V372.657H827.804ZM831.904 374.247C832.505 374.247 833.017 374.375 833.438 374.632C833.86 374.888 834.183 375.25 834.407 375.715C834.63 376.177 834.742 376.72 834.742 377.344C834.742 377.993 834.628 378.552 834.401 379.021C834.177 379.487 833.855 379.845 833.433 380.094C833.011 380.344 832.501 380.468 831.904 380.468C831.309 380.468 830.8 380.345 830.374 380.1C829.952 379.854 829.628 379.498 829.401 379.032C829.177 378.567 829.065 378.007 829.065 377.355C829.065 376.735 829.177 376.192 829.401 375.726C829.628 375.261 829.952 374.897 830.374 374.637C830.8 374.377 831.309 374.247 831.904 374.247ZM831.904 375.528C831.548 375.528 831.284 375.675 831.111 375.968C830.943 376.258 830.858 376.72 830.858 377.355C830.858 378 830.943 378.468 831.111 378.757C831.284 379.047 831.548 379.192 831.904 379.192C832.259 379.192 832.521 379.047 832.69 378.757C832.863 378.468 832.949 377.996 832.949 377.344C832.949 376.713 832.863 376.253 832.69 375.963C832.521 375.673 832.259 375.528 831.904 375.528ZM837.477 377.866C837.518 378.185 837.6 378.444 837.725 378.642C837.853 378.836 838.016 378.979 838.214 379.071C838.413 379.159 838.634 379.203 838.88 379.203C839.148 379.203 839.406 379.159 839.656 379.071C839.905 378.983 840.145 378.866 840.376 378.719L841.075 379.665C840.8 379.9 840.466 380.092 840.074 380.243C839.685 380.393 839.241 380.468 838.743 380.468C838.075 380.468 837.516 380.336 837.065 380.072C836.614 379.804 836.274 379.438 836.047 378.972C835.82 378.506 835.706 377.971 835.706 377.366C835.706 376.79 835.816 376.267 836.036 375.798C836.256 375.325 836.577 374.949 836.999 374.67C837.424 374.388 837.943 374.247 838.556 374.247C839.113 374.247 839.595 374.366 840.002 374.604C840.413 374.842 840.73 375.185 840.954 375.633C841.181 376.08 841.295 376.618 841.295 377.245C841.295 377.344 841.291 377.45 841.284 377.564C841.28 377.677 841.273 377.778 841.262 377.866H837.477ZM838.556 375.413C838.244 375.413 837.993 375.525 837.802 375.748C837.611 375.972 837.496 376.33 837.455 376.821H839.601C839.597 376.396 839.515 376.055 839.353 375.798C839.192 375.541 838.926 375.413 838.556 375.413ZM846.28 375.143C846.28 374.872 846.229 374.648 846.126 374.472C846.027 374.292 845.875 374.16 845.67 374.076C845.468 373.988 845.213 373.944 844.905 373.944H844.289V376.436H844.999C845.266 376.436 845.496 376.39 845.686 376.298C845.877 376.207 846.024 376.066 846.126 375.875C846.229 375.684 846.28 375.44 846.28 375.143ZM848.14 375.138C848.14 375.728 848.013 376.216 847.76 376.601C847.507 376.986 847.153 377.274 846.698 377.465C846.244 377.652 845.716 377.745 845.114 377.745H844.289V380.281H842.485V372.657H844.883C845.917 372.657 846.719 372.862 847.287 373.273C847.855 373.684 848.14 374.305 848.14 375.138ZM851.695 374.247C852.296 374.247 852.808 374.375 853.229 374.632C853.651 374.888 853.974 375.25 854.198 375.715C854.421 376.177 854.533 376.72 854.533 377.344C854.533 377.993 854.42 378.552 854.192 379.021C853.968 379.487 853.646 379.845 853.224 380.094C852.802 380.344 852.292 380.468 851.695 380.468C851.1 380.468 850.591 380.345 850.165 380.1C849.744 379.854 849.419 379.498 849.192 379.032C848.968 378.567 848.856 378.007 848.856 377.355C848.856 376.735 848.968 376.192 849.192 375.726C849.419 375.261 849.744 374.897 850.165 374.637C850.591 374.377 851.1 374.247 851.695 374.247ZM851.695 375.528C851.339 375.528 851.075 375.675 850.902 375.968C850.734 376.258 850.649 376.72 850.649 377.355C850.649 378 850.734 378.468 850.902 378.757C851.075 379.047 851.339 379.192 851.695 379.192C852.05 379.192 852.313 379.047 852.481 378.757C852.654 378.468 852.74 377.996 852.74 377.344C852.74 376.713 852.654 376.253 852.481 375.963C852.313 375.673 852.05 375.528 851.695 375.528ZM855.816 380.281V379.115H856.586V375.594H855.816V374.439H857.912L858.231 375.754C858.44 375.251 858.706 374.877 859.029 374.632C859.355 374.386 859.753 374.263 860.223 374.263C860.421 374.263 860.597 374.28 860.751 374.313C860.905 374.342 861.05 374.384 861.185 374.439L860.657 375.875C860.551 375.846 860.444 375.824 860.338 375.809C860.232 375.794 860.114 375.787 859.986 375.787C859.605 375.787 859.269 375.943 858.979 376.254C858.693 376.566 858.475 376.962 858.325 377.443V379.115H859.48V380.281H855.816ZM859.771 376.882V375.176L860.03 374.439H861.185L860.861 376.882H859.771ZM867.617 379.94C867.39 380.087 867.115 380.212 866.792 380.314C866.469 380.417 866.106 380.468 865.703 380.468C864.94 380.468 864.373 380.274 864.003 379.885C863.633 379.493 863.447 378.961 863.447 378.29V375.638H862.221V374.439H863.447V373.174L865.186 372.965V374.439H867.067L866.897 375.638H865.186V378.29C865.186 378.58 865.252 378.787 865.384 378.911C865.516 379.036 865.727 379.099 866.016 379.099C866.222 379.099 866.409 379.075 866.578 379.027C866.75 378.976 866.904 378.911 867.04 378.834L867.617 379.94ZM872.525 374.439V379.093H874.011V380.281H869.131V379.093H870.787V375.627H869.186V374.439H872.525ZM871.475 371.38C871.775 371.38 872.021 371.474 872.212 371.661C872.403 371.848 872.498 372.081 872.498 372.36C872.498 372.638 872.403 372.873 872.212 373.064C872.021 373.251 871.775 373.344 871.475 373.344C871.17 373.344 870.921 373.251 870.727 373.064C870.536 372.873 870.441 372.638 870.441 372.36C870.441 372.081 870.536 371.848 870.727 371.661C870.921 371.474 871.17 371.38 871.475 371.38ZM878.6 372.118V378.444C878.6 378.679 878.666 378.847 878.798 378.95C878.934 379.049 879.119 379.099 879.354 379.099C879.504 379.099 879.649 379.082 879.788 379.049C879.927 379.012 880.058 378.97 880.179 378.922L880.597 380.083C880.399 380.186 880.16 380.276 879.882 380.353C879.603 380.43 879.278 380.468 878.908 380.468C878.204 380.468 877.687 380.267 877.357 379.863C877.027 379.456 876.862 378.911 876.862 378.229V373.306H875.14V372.118H878.6ZM885.197 372.118V378.444C885.197 378.679 885.263 378.847 885.395 378.95C885.531 379.049 885.716 379.099 885.951 379.099C886.101 379.099 886.246 379.082 886.385 379.049C886.524 379.012 886.655 378.97 886.776 378.922L887.194 380.083C886.996 380.186 886.757 380.276 886.479 380.353C886.2 380.43 885.875 380.468 885.505 380.468C884.801 380.468 884.284 380.267 883.954 379.863C883.624 379.456 883.459 378.911 883.459 378.229V373.306H881.737V372.118H885.197ZM893.664 378.598C893.664 378.818 893.694 378.977 893.752 379.077C893.815 379.176 893.914 379.251 894.049 379.302L893.692 380.446C893.347 380.413 893.056 380.338 892.817 380.221C892.582 380.1 892.397 379.918 892.262 379.676C892.038 379.944 891.752 380.144 891.403 380.276C891.055 380.404 890.699 380.468 890.336 380.468C889.735 380.468 889.254 380.298 888.895 379.957C888.539 379.612 888.361 379.17 888.361 378.631C888.361 377.996 888.609 377.507 889.104 377.162C889.603 376.817 890.303 376.645 891.205 376.645H891.992V376.425C891.992 376.121 891.893 375.895 891.695 375.748C891.501 375.602 891.214 375.528 890.837 375.528C890.65 375.528 890.409 375.556 890.116 375.611C889.823 375.662 889.529 375.737 889.236 375.836L888.834 374.681C889.212 374.538 889.604 374.43 890.012 374.357C890.422 374.283 890.789 374.247 891.112 374.247C891.981 374.247 892.623 374.424 893.037 374.78C893.455 375.132 893.664 375.642 893.664 376.309V378.598ZM890.936 379.225C891.123 379.225 891.319 379.17 891.524 379.06C891.73 378.946 891.886 378.787 891.992 378.581V377.635H891.563C891.079 377.635 890.723 377.71 890.496 377.861C890.268 378.007 890.155 378.224 890.155 378.51C890.155 378.734 890.222 378.91 890.358 379.038C890.498 379.163 890.69 379.225 890.936 379.225Z" fill="black"/>
<rect x="265" y="30" width="77.1792" height="77.1792" rx="2" fill="#0037AC"/>
<rect x="265" y="188" width="77.1792" height="77.1792" rx="2" fill="#0037AC"/>
<path d="M309.122 86H302.503V67.8778C302.503 67.378 302.51 66.7639 302.525 66.0356C302.539 65.293 302.56 64.5361 302.589 63.765C302.617 62.9795 302.646 62.2726 302.674 61.6443C302.517 61.8299 302.196 62.1513 301.711 62.6082C301.239 63.0509 300.797 63.4508 300.382 63.8078L296.784 66.6997L293.592 62.7154L303.681 54.6825H309.122V86Z" fill="white"/>
<path d="M295.863 244L307.623 218.252H292.178V212.682H314.649V216.838L302.803 244H295.863Z" fill="white"/>
<rect x="344" y="30" width="77.1792" height="77.1792" rx="2" fill="#0037AC"/>
<rect x="344" y="188" width="77.1792" height="77.1792" rx="2" fill="#0037AC"/>
<path d="M393.649 86H371.757V81.3945L379.618 73.4473C381.203 71.8193 382.474 70.4626 383.431 69.3773C384.402 68.2777 385.102 67.278 385.53 66.3783C385.973 65.4787 386.194 64.5147 386.194 63.4865C386.194 62.2441 385.844 61.3158 385.145 60.7018C384.459 60.0734 383.538 59.7592 382.381 59.7592C381.167 59.7592 379.989 60.0377 378.847 60.5947C377.704 61.1516 376.512 61.9442 375.27 62.9724L371.671 58.7096C372.571 57.9385 373.52 57.2101 374.52 56.5247C375.534 55.8392 376.705 55.2894 378.033 54.8753C379.375 54.4468 380.982 54.2326 382.853 54.2326C384.909 54.2326 386.673 54.6039 388.144 55.3465C389.629 56.0891 390.771 57.103 391.571 58.3883C392.371 59.6593 392.771 61.1016 392.771 62.7154C392.771 64.4433 392.428 66.0213 391.742 67.4494C391.057 68.8775 390.057 70.2913 388.743 71.6908C387.444 73.0903 385.873 74.6397 384.031 76.3391L380.004 80.1306V80.4305H393.649V86Z" fill="white"/>
<path d="M382.553 212.275C384.352 212.275 386.009 212.554 387.522 213.111C389.05 213.668 390.271 214.51 391.185 215.639C392.099 216.752 392.556 218.152 392.556 219.837C392.556 221.094 392.306 222.193 391.807 223.136C391.321 224.078 390.657 224.907 389.814 225.621C388.972 226.321 388.015 226.935 386.944 227.463C388.058 228.048 389.115 228.734 390.114 229.519C391.114 230.291 391.928 231.197 392.556 232.24C393.199 233.282 393.52 234.496 393.52 235.881C393.52 237.624 393.056 239.137 392.128 240.423C391.2 241.694 389.914 242.679 388.272 243.379C386.63 244.079 384.723 244.428 382.553 244.428C380.211 244.428 378.219 244.093 376.576 243.422C374.934 242.75 373.684 241.794 372.828 240.551C371.971 239.295 371.542 237.795 371.542 236.053C371.542 234.625 371.807 233.382 372.335 232.326C372.878 231.269 373.606 230.362 374.52 229.605C375.434 228.834 376.441 228.177 377.54 227.634C376.612 227.049 375.762 226.385 374.991 225.642C374.234 224.9 373.627 224.05 373.17 223.093C372.728 222.136 372.506 221.037 372.506 219.794C372.506 218.138 372.97 216.752 373.899 215.639C374.841 214.525 376.076 213.689 377.604 213.132C379.132 212.561 380.782 212.275 382.553 212.275ZM377.669 235.667C377.669 236.795 378.069 237.731 378.868 238.473C379.682 239.202 380.882 239.566 382.467 239.566C384.109 239.566 385.337 239.216 386.151 238.516C386.965 237.802 387.372 236.867 387.372 235.71C387.372 234.91 387.137 234.211 386.666 233.611C386.209 233.011 385.63 232.475 384.93 232.004C384.231 231.519 383.524 231.069 382.81 230.655L382.231 230.355C381.317 230.769 380.518 231.233 379.832 231.747C379.161 232.261 378.633 232.84 378.247 233.482C377.862 234.125 377.669 234.853 377.669 235.667ZM382.51 217.117C381.425 217.117 380.525 217.395 379.811 217.952C379.097 218.509 378.74 219.294 378.74 220.308C378.74 221.022 378.911 221.651 379.254 222.193C379.611 222.722 380.075 223.186 380.646 223.586C381.232 223.986 381.867 224.357 382.553 224.7C383.21 224.385 383.824 224.036 384.395 223.65C384.966 223.264 385.43 222.8 385.787 222.258C386.144 221.715 386.323 221.065 386.323 220.308C386.323 219.294 385.959 218.509 385.23 217.952C384.516 217.395 383.609 217.117 382.51 217.117Z" fill="white"/>
<rect x="423" y="30" width="77.1792" height="77.1792" rx="2" fill="#0037AC"/>
<rect x="423" y="188" width="77.1792" height="77.1792" rx="2" fill="#0037AC"/>
<path d="M471.428 61.6871C471.428 63.1295 471.128 64.379 470.528 65.4358C469.928 66.4926 469.114 67.3566 468.086 68.0278C467.072 68.699 465.93 69.1916 464.659 69.5058V69.6343C467.172 69.9485 469.079 70.7197 470.378 71.9478C471.692 73.1759 472.349 74.8182 472.349 76.8746C472.349 78.7026 471.899 80.3377 470.999 81.7801C470.114 83.2224 468.743 84.3577 466.887 85.186C465.03 86.0143 462.638 86.4284 459.711 86.4284C457.983 86.4284 456.369 86.2856 454.869 86C453.384 85.7287 451.985 85.3074 450.671 84.7362V79.1024C452.013 79.7879 453.42 80.3091 454.891 80.6662C456.362 81.0089 457.733 81.1803 459.004 81.1803C461.374 81.1803 463.031 80.7733 463.973 79.9593C464.93 79.131 465.409 77.9743 465.409 76.4891C465.409 75.6179 465.187 74.8825 464.744 74.2827C464.302 73.6829 463.531 73.2259 462.431 72.9118C461.346 72.5976 459.825 72.4405 457.868 72.4405H455.491V67.3637H457.911C459.839 67.3637 461.303 67.1852 462.302 66.8282C463.316 66.4569 464.002 65.9571 464.359 65.3287C464.73 64.6861 464.916 63.9578 464.916 63.1438C464.916 62.0299 464.573 61.1588 463.888 60.5304C463.202 59.9021 462.06 59.5879 460.46 59.5879C459.461 59.5879 458.547 59.7164 457.718 59.9735C456.904 60.2162 456.169 60.5161 455.512 60.8731C454.855 61.2159 454.277 61.5515 453.777 61.8799L450.714 57.3173C451.942 56.4319 453.377 55.6964 455.019 55.1109C456.676 54.5254 458.647 54.2326 460.932 54.2326C464.159 54.2326 466.715 54.8824 468.6 56.1819C470.485 57.4815 471.428 59.3165 471.428 61.6871Z" fill="white"/>
<path d="M472.52 226.049C472.52 227.849 472.385 229.634 472.113 231.404C471.856 233.175 471.399 234.846 470.742 236.417C470.085 237.974 469.164 239.359 467.979 240.573C466.794 241.772 465.287 242.715 463.459 243.4C461.631 244.086 459.418 244.428 456.819 244.428C456.205 244.428 455.483 244.4 454.655 244.343C453.827 244.3 453.141 244.228 452.599 244.129V238.816C453.17 238.959 453.777 239.073 454.42 239.159C455.062 239.23 455.712 239.266 456.369 239.266C458.982 239.266 460.996 238.852 462.41 238.024C463.838 237.195 464.837 236.046 465.409 234.575C465.994 233.104 466.33 231.404 466.415 229.477H466.158C465.744 230.162 465.251 230.783 464.68 231.34C464.123 231.883 463.409 232.318 462.538 232.647C461.667 232.961 460.56 233.118 459.218 233.118C457.433 233.118 455.876 232.733 454.548 231.961C453.234 231.176 452.213 230.048 451.485 228.577C450.771 227.092 450.414 225.299 450.414 223.2C450.414 220.93 450.842 218.987 451.699 217.374C452.57 215.746 453.805 214.496 455.405 213.625C457.004 212.754 458.889 212.318 461.06 212.318C462.659 212.318 464.152 212.597 465.537 213.154C466.922 213.696 468.136 214.532 469.179 215.66C470.235 216.788 471.057 218.216 471.642 219.944C472.228 221.672 472.52 223.707 472.52 226.049ZM461.189 217.631C459.903 217.631 458.854 218.073 458.04 218.959C457.226 219.844 456.819 221.229 456.819 223.115C456.819 224.628 457.169 225.828 457.868 226.713C458.568 227.599 459.632 228.041 461.06 228.041C462.045 228.041 462.902 227.827 463.631 227.399C464.359 226.956 464.923 226.406 465.323 225.749C465.737 225.078 465.944 224.393 465.944 223.693C465.944 222.965 465.844 222.243 465.644 221.529C465.444 220.815 465.144 220.166 464.744 219.58C464.345 218.995 463.845 218.523 463.245 218.166C462.659 217.809 461.974 217.631 461.189 217.631Z" fill="white"/>
<rect x="265" y="109" width="77.1792" height="77.1792" rx="2" fill="#0037AC"/>
<rect x="265" y="267" width="77.1792" height="77.1792" rx="2" fill="#0037AC"/>
<path d="M315.356 158.509H311.586V165H305.116V158.509H291.75V153.904L305.481 133.682H311.586V153.368H315.356V158.509ZM305.116 153.368V148.056C305.116 147.556 305.124 146.964 305.138 146.278C305.166 145.593 305.195 144.907 305.224 144.222C305.252 143.536 305.281 142.929 305.309 142.401C305.352 141.858 305.381 141.48 305.395 141.266H305.224C304.952 141.851 304.667 142.422 304.367 142.979C304.067 143.522 303.717 144.093 303.317 144.693L297.576 153.368H305.116Z" fill="white"/>
<path d="M296.122 323H289.503V304.878C289.503 304.378 289.51 303.764 289.525 303.036C289.539 302.293 289.56 301.536 289.589 300.765C289.617 299.98 289.646 299.273 289.674 298.644C289.517 298.83 289.196 299.151 288.711 299.608C288.239 300.051 287.797 300.451 287.382 300.808L283.784 303.7L280.592 299.715L290.681 291.682H296.122V323ZM326.583 307.341C326.583 309.869 326.383 312.125 325.983 314.11C325.598 316.095 324.969 317.78 324.098 319.166C323.241 320.551 322.113 321.608 320.714 322.336C319.314 323.064 317.615 323.428 315.615 323.428C313.102 323.428 311.038 322.793 309.425 321.522C307.811 320.237 306.618 318.394 305.847 315.995C305.076 313.582 304.691 310.697 304.691 307.341C304.691 303.957 305.04 301.065 305.74 298.666C306.454 296.252 307.611 294.403 309.21 293.118C310.81 291.832 312.945 291.19 315.615 291.19C318.114 291.19 320.171 291.832 321.785 293.118C323.413 294.389 324.619 296.231 325.405 298.644C326.19 301.043 326.583 303.942 326.583 307.341ZM311.267 307.341C311.267 309.726 311.395 311.718 311.652 313.318C311.924 314.903 312.374 316.095 313.002 316.895C313.63 317.695 314.501 318.095 315.615 318.095C316.715 318.095 317.579 317.702 318.207 316.916C318.85 316.117 319.307 314.924 319.578 313.339C319.85 311.74 319.985 309.74 319.985 307.341C319.985 304.956 319.85 302.964 319.578 301.365C319.307 299.765 318.85 298.566 318.207 297.766C317.579 296.952 316.715 296.545 315.615 296.545C314.501 296.545 313.63 296.952 313.002 297.766C312.374 298.566 311.924 299.765 311.652 301.365C311.395 302.964 311.267 304.956 311.267 307.341Z" fill="white"/>
<rect x="344" y="109" width="77.1792" height="77.1792" rx="2" fill="#0037AC"/>
<rect x="344" y="267" width="77.1792" height="77.1792" rx="2" fill="#0037AC"/>
<path d="M383.153 144.993C385.066 144.993 386.766 145.357 388.251 146.085C389.75 146.814 390.928 147.885 391.785 149.298C392.642 150.712 393.07 152.454 393.07 154.525C393.07 156.781 392.599 158.731 391.657 160.373C390.728 162.001 389.336 163.251 387.48 164.122C385.637 164.993 383.338 165.428 380.582 165.428C378.94 165.428 377.39 165.286 375.934 165C374.491 164.729 373.227 164.307 372.142 163.736V158.017C373.227 158.588 374.527 159.074 376.041 159.473C377.569 159.859 379.004 160.052 380.346 160.052C381.66 160.052 382.767 159.88 383.667 159.538C384.566 159.181 385.245 158.638 385.702 157.91C386.173 157.167 386.409 156.225 386.409 155.082C386.409 153.554 385.894 152.383 384.866 151.569C383.838 150.755 382.26 150.348 380.132 150.348C379.318 150.348 378.468 150.427 377.583 150.584C376.712 150.741 375.984 150.898 375.398 151.055L372.763 149.641L373.941 133.682H390.928V139.295H379.747L379.168 145.443C379.654 145.343 380.182 145.243 380.753 145.143C381.325 145.043 382.124 144.993 383.153 144.993Z" fill="white"/>
<path d="M375.122 323H368.503V304.878C368.503 304.378 368.51 303.764 368.525 303.036C368.539 302.293 368.56 301.536 368.589 300.765C368.617 299.98 368.646 299.273 368.674 298.644C368.517 298.83 368.196 299.151 367.711 299.608C367.239 300.051 366.797 300.451 366.382 300.808L362.784 303.7L359.592 299.715L369.681 291.682H375.122V323ZM400.228 323H393.609V304.878C393.609 304.378 393.616 303.764 393.63 303.036C393.644 302.293 393.666 301.536 393.694 300.765C393.723 299.98 393.751 299.273 393.78 298.644C393.623 298.83 393.301 299.151 392.816 299.608C392.345 300.051 391.902 300.451 391.488 300.808L387.889 303.7L384.697 299.715L394.787 291.682H400.228V323Z" fill="white"/>
<rect x="423" y="109" width="77.1792" height="77.1792" rx="2" fill="#0037AC"/>
<rect x="423" y="267" width="77.1792" height="77.1792" rx="2" fill="#0037AC"/>
<path d="M450.542 151.698C450.542 149.898 450.671 148.12 450.928 146.364C451.199 144.593 451.663 142.929 452.32 141.373C452.977 139.802 453.898 138.417 455.084 137.217C456.269 136.003 457.775 135.053 459.603 134.368C461.431 133.668 463.645 133.318 466.244 133.318C466.858 133.318 467.572 133.347 468.386 133.404C469.214 133.447 469.9 133.525 470.442 133.64V138.931C469.871 138.802 469.257 138.702 468.6 138.631C467.958 138.545 467.315 138.502 466.672 138.502C464.073 138.502 462.06 138.916 460.632 139.745C459.218 140.573 458.218 141.722 457.633 143.193C457.061 144.65 456.726 146.349 456.626 148.292H456.904C457.304 147.592 457.804 146.971 458.404 146.428C459.018 145.885 459.76 145.457 460.632 145.143C461.503 144.814 462.524 144.65 463.695 144.65C465.523 144.65 467.108 145.043 468.45 145.828C469.793 146.599 470.828 147.72 471.556 149.191C472.285 150.662 472.649 152.454 472.649 154.568C472.649 156.824 472.213 158.766 471.342 160.394C470.471 162.022 469.236 163.272 467.636 164.143C466.051 165 464.166 165.428 461.981 165.428C460.382 165.428 458.889 165.157 457.504 164.614C456.119 164.057 454.905 163.215 453.863 162.087C452.82 160.959 452.006 159.538 451.421 157.824C450.835 156.096 450.542 154.054 450.542 151.698ZM461.853 160.137C463.152 160.137 464.209 159.695 465.023 158.809C465.837 157.924 466.244 156.539 466.244 154.654C466.244 153.126 465.887 151.926 465.173 151.055C464.473 150.17 463.409 149.727 461.981 149.727C461.01 149.727 460.153 149.948 459.411 150.391C458.682 150.819 458.118 151.369 457.718 152.04C457.318 152.697 457.119 153.376 457.119 154.075C457.119 154.804 457.219 155.525 457.418 156.239C457.618 156.953 457.918 157.603 458.318 158.188C458.718 158.774 459.211 159.245 459.796 159.602C460.396 159.959 461.081 160.137 461.853 160.137Z" fill="white"/>
<path d="M454.122 323H447.503V304.878C447.503 304.378 447.51 303.764 447.525 303.036C447.539 302.293 447.56 301.536 447.589 300.765C447.617 299.98 447.646 299.273 447.674 298.644C447.517 298.83 447.196 299.151 446.711 299.608C446.239 300.051 445.797 300.451 445.382 300.808L441.784 303.7L438.592 299.715L448.681 291.682H454.122V323ZM484.754 323H462.862V318.394L470.723 310.447C472.309 308.819 473.58 307.463 474.536 306.377C475.508 305.278 476.207 304.278 476.636 303.378C477.078 302.479 477.3 301.515 477.3 300.487C477.3 299.244 476.95 298.316 476.25 297.702C475.565 297.073 474.644 296.759 473.487 296.759C472.273 296.759 471.095 297.038 469.952 297.595C468.81 298.152 467.617 298.944 466.375 299.972L462.776 295.71C463.676 294.938 464.626 294.21 465.625 293.525C466.639 292.839 467.81 292.289 469.138 291.875C470.481 291.447 472.087 291.233 473.958 291.233C476.014 291.233 477.778 291.604 479.249 292.347C480.734 293.089 481.877 294.103 482.676 295.388C483.476 296.659 483.876 298.102 483.876 299.715C483.876 301.443 483.533 303.021 482.848 304.449C482.162 305.877 481.163 307.291 479.849 308.691C478.549 310.09 476.978 311.64 475.136 313.339L471.109 317.131V317.431H484.754V323Z" fill="white"/>
<path d="M567.486 189.626C570.066 190.785 572.61 192.15 575.375 193.439C575.461 193.474 575.549 193.503 575.634 193.542C575.813 193.623 575.983 193.715 576.155 193.805L576.295 193.87L576.291 193.873C580.059 195.937 581.788 200.291 580.156 203.923C578.433 207.762 573.613 209.337 569.392 207.439C565.169 205.543 563.145 200.894 564.869 197.056C564.928 196.922 565.001 196.797 565.069 196.67C564.518 194.232 562.704 194.157 562.704 194.157C562.704 194.157 564.621 188.338 567.486 189.626ZM570.639 204.659C573.327 205.867 576.344 204.977 577.377 202.675C578.413 200.374 577.072 197.528 574.386 196.321C571.699 195.114 568.682 196.002 567.649 198.303C566.614 200.607 567.953 203.453 570.639 204.659Z" fill="#DD2E44"/>
<path d="M537 176.808C537.828 175.343 540.118 174.052 541.585 174.881L567.633 189.692C567.008 191.082 564.718 193.394 562.703 194.158L537 176.808Z" fill="#99AAB5"/>
<path d="M580.157 172.319C581.789 175.951 580.06 180.306 576.292 182.37L576.296 182.374L576.155 182.441C575.985 182.53 575.815 182.623 575.636 182.703C575.55 182.741 575.463 182.77 575.376 182.805C572.612 184.094 570.067 185.46 567.488 186.618C564.622 187.905 562.704 182.085 562.704 182.085C562.704 182.085 564.518 182.011 565.07 179.574C565.002 179.445 564.93 179.322 564.869 179.187C563.145 175.35 565.169 170.702 569.392 168.803C573.613 166.907 578.433 168.482 580.157 172.319ZM570.639 171.583C567.953 172.792 566.615 175.636 567.649 177.939C568.682 180.24 571.699 181.129 574.386 179.92C577.072 178.716 578.412 175.87 577.377 173.568C576.344 171.266 573.327 170.377 570.639 171.583Z" fill="#DD2E44"/>
<path d="M537 199.435C537.828 200.901 540.118 202.191 541.585 201.362L567.633 186.551C567.008 185.162 564.718 182.849 562.703 182.086L537 199.435Z" fill="#CCD6DD"/>
<path d="M559.017 186.153C557.93 186.153 557.049 187.037 557.049 188.122C557.049 189.209 557.93 190.09 559.017 190.09C560.105 190.09 560.985 189.209 560.985 188.122C560.985 187.035 560.105 186.153 559.017 186.153Z" fill="#99AAB5"/>
<line x1="252.5" y1="187.5" x2="529.5" y2="187.5" stroke="#C90000" stroke-width="3" stroke-linecap="square" stroke-dasharray="6 6"/>
<rect x="794" y="120" width="77.1792" height="77.1792" rx="2" fill="#5C87E1"/>
<path d="M838.122 176H831.503V157.878C831.503 157.378 831.51 156.764 831.525 156.036C831.539 155.293 831.56 154.536 831.589 153.765C831.617 152.98 831.646 152.273 831.674 151.644C831.517 151.83 831.196 152.151 830.711 152.608C830.239 153.051 829.797 153.451 829.382 153.808L825.784 156.7L822.592 152.715L832.681 144.682H838.122V176Z" fill="white"/>
<rect x="873" y="120" width="77.1792" height="77.1792" rx="2" fill="#5C87E1"/>
<path d="M922.649 176H900.757V171.394L908.618 163.447C910.203 161.819 911.474 160.463 912.431 159.377C913.402 158.278 914.102 157.278 914.53 156.378C914.973 155.479 915.194 154.515 915.194 153.487C915.194 152.244 914.844 151.316 914.145 150.702C913.459 150.073 912.538 149.759 911.381 149.759C910.167 149.759 908.989 150.038 907.847 150.595C906.704 151.152 905.512 151.944 904.27 152.972L900.671 148.71C901.571 147.938 902.52 147.21 903.52 146.525C904.534 145.839 905.705 145.289 907.033 144.875C908.375 144.447 909.982 144.233 911.853 144.233C913.909 144.233 915.673 144.604 917.144 145.347C918.629 146.089 919.771 147.103 920.571 148.388C921.371 149.659 921.771 151.102 921.771 152.715C921.771 154.443 921.428 156.021 920.742 157.449C920.057 158.877 919.057 160.291 917.743 161.691C916.444 163.09 914.873 164.64 913.031 166.339L909.004 170.131V170.431H922.649V176Z" fill="white"/>
<rect x="952" y="120" width="77.1792" height="77.1792" rx="2" fill="#5C87E1"/>
<path d="M1000.43 151.687C1000.43 153.129 1000.13 154.379 999.528 155.436C998.928 156.493 998.114 157.357 997.086 158.028C996.072 158.699 994.93 159.192 993.659 159.506V159.634C996.172 159.949 998.079 160.72 999.378 161.948C1000.69 163.176 1001.35 164.818 1001.35 166.875C1001.35 168.703 1000.9 170.338 999.999 171.78C999.114 173.222 997.743 174.358 995.887 175.186C994.03 176.014 991.638 176.428 988.711 176.428C986.983 176.428 985.369 176.286 983.869 176C982.384 175.729 980.985 175.307 979.671 174.736V169.102C981.013 169.788 982.42 170.309 983.891 170.666C985.362 171.009 986.733 171.18 988.004 171.18C990.374 171.18 992.031 170.773 992.973 169.959C993.93 169.131 994.409 167.974 994.409 166.489C994.409 165.618 994.187 164.882 993.744 164.283C993.302 163.683 992.531 163.226 991.431 162.912C990.346 162.598 988.825 162.44 986.868 162.44H984.491V157.364H986.911C988.839 157.364 990.303 157.185 991.302 156.828C992.316 156.457 993.002 155.957 993.359 155.329C993.73 154.686 993.916 153.958 993.916 153.144C993.916 152.03 993.573 151.159 992.888 150.53C992.202 149.902 991.06 149.588 989.46 149.588C988.461 149.588 987.547 149.716 986.718 149.973C985.904 150.216 985.169 150.516 984.512 150.873C983.855 151.216 983.277 151.551 982.777 151.88L979.714 147.317C980.942 146.432 982.377 145.696 984.019 145.111C985.676 144.525 987.647 144.233 989.932 144.233C993.159 144.233 995.715 144.882 997.6 146.182C999.485 147.481 1000.43 149.317 1000.43 151.687Z" fill="white"/>
<rect x="794" y="199" width="77.1792" height="77.1792" rx="2" fill="#5C87E1"/>
<path d="M844.356 248.509H840.586V255H834.116V248.509H820.75V243.904L834.481 223.682H840.586V243.368H844.356V248.509ZM834.116 243.368V238.056C834.116 237.556 834.124 236.964 834.138 236.278C834.166 235.593 834.195 234.907 834.224 234.222C834.252 233.536 834.281 232.929 834.309 232.401C834.352 231.858 834.381 231.48 834.395 231.266H834.224C833.952 231.851 833.667 232.422 833.367 232.979C833.067 233.522 832.717 234.093 832.317 234.693L826.576 243.368H834.116Z" fill="white"/>
<rect x="873" y="199" width="77.1792" height="77.1792" rx="2" fill="#5C87E1"/>
<path d="M912.153 234.993C914.066 234.993 915.766 235.357 917.251 236.085C918.75 236.814 919.928 237.885 920.785 239.298C921.642 240.712 922.07 242.454 922.07 244.525C922.07 246.781 921.599 248.731 920.657 250.373C919.728 252.001 918.336 253.251 916.48 254.122C914.637 254.993 912.338 255.428 909.582 255.428C907.94 255.428 906.39 255.286 904.934 255C903.491 254.729 902.227 254.307 901.142 253.736V248.017C902.227 248.588 903.527 249.074 905.041 249.473C906.569 249.859 908.004 250.052 909.346 250.052C910.66 250.052 911.767 249.88 912.667 249.538C913.566 249.181 914.245 248.638 914.702 247.91C915.173 247.167 915.409 246.225 915.409 245.082C915.409 243.554 914.894 242.383 913.866 241.569C912.838 240.755 911.26 240.348 909.132 240.348C908.318 240.348 907.468 240.427 906.583 240.584C905.712 240.741 904.984 240.898 904.398 241.055L901.763 239.641L902.941 223.682H919.928V229.295H908.747L908.168 235.443C908.654 235.343 909.182 235.243 909.753 235.143C910.325 235.043 911.124 234.993 912.153 234.993Z" fill="white"/>
<rect x="952" y="199" width="77.1792" height="77.1792" rx="2" fill="#5C87E1"/>
<path d="M979.542 241.698C979.542 239.898 979.671 238.12 979.928 236.364C980.199 234.593 980.663 232.929 981.32 231.373C981.977 229.802 982.898 228.417 984.084 227.217C985.269 226.003 986.775 225.053 988.603 224.368C990.431 223.668 992.645 223.318 995.244 223.318C995.858 223.318 996.572 223.347 997.386 223.404C998.214 223.447 998.9 223.525 999.442 223.64V228.931C998.871 228.802 998.257 228.702 997.6 228.631C996.958 228.545 996.315 228.502 995.672 228.502C993.073 228.502 991.06 228.916 989.632 229.745C988.218 230.573 987.218 231.722 986.633 233.193C986.061 234.65 985.726 236.349 985.626 238.292H985.904C986.304 237.592 986.804 236.971 987.404 236.428C988.018 235.885 988.76 235.457 989.632 235.143C990.503 234.814 991.524 234.65 992.695 234.65C994.523 234.65 996.108 235.043 997.45 235.828C998.793 236.599 999.828 237.72 1000.56 239.191C1001.28 240.662 1001.65 242.454 1001.65 244.568C1001.65 246.824 1001.21 248.766 1000.34 250.394C999.471 252.022 998.236 253.272 996.636 254.143C995.051 255 993.166 255.428 990.981 255.428C989.382 255.428 987.889 255.157 986.504 254.614C985.119 254.057 983.905 253.215 982.863 252.087C981.82 250.959 981.006 249.538 980.421 247.824C979.835 246.096 979.542 244.054 979.542 241.698ZM990.853 250.137C992.152 250.137 993.209 249.695 994.023 248.809C994.837 247.924 995.244 246.539 995.244 244.654C995.244 243.126 994.887 241.926 994.173 241.055C993.473 240.17 992.409 239.727 990.981 239.727C990.01 239.727 989.153 239.948 988.411 240.391C987.682 240.819 987.118 241.369 986.718 242.04C986.318 242.697 986.119 243.376 986.119 244.075C986.119 244.804 986.219 245.525 986.418 246.239C986.618 246.953 986.918 247.603 987.318 248.188C987.718 248.774 988.211 249.245 988.796 249.602C989.396 249.959 990.081 250.137 990.853 250.137Z" fill="white"/>
<rect x="1093" y="121" width="77.1792" height="77.1792" rx="2" fill="#08003C"/>
<path d="M1123.86 177L1135.62 151.252H1120.18V145.682H1142.65V149.838L1130.8 177H1123.86Z" fill="white"/>
<rect x="1172" y="121" width="77.1792" height="77.1792" rx="2" fill="#08003C"/>
<path d="M1210.55 145.275C1212.35 145.275 1214.01 145.554 1215.52 146.111C1217.05 146.668 1218.27 147.51 1219.19 148.639C1220.1 149.752 1220.56 151.152 1220.56 152.837C1220.56 154.094 1220.31 155.193 1219.81 156.136C1219.32 157.078 1218.66 157.907 1217.81 158.621C1216.97 159.321 1216.02 159.935 1214.94 160.463C1216.06 161.048 1217.11 161.734 1218.11 162.519C1219.11 163.291 1219.93 164.197 1220.56 165.24C1221.2 166.282 1221.52 167.496 1221.52 168.881C1221.52 170.624 1221.06 172.137 1220.13 173.423C1219.2 174.694 1217.91 175.679 1216.27 176.379C1214.63 177.079 1212.72 177.428 1210.55 177.428C1208.21 177.428 1206.22 177.093 1204.58 176.422C1202.93 175.75 1201.68 174.794 1200.83 173.551C1199.97 172.295 1199.54 170.795 1199.54 169.053C1199.54 167.625 1199.81 166.382 1200.33 165.326C1200.88 164.269 1201.61 163.362 1202.52 162.605C1203.43 161.834 1204.44 161.177 1205.54 160.634C1204.61 160.049 1203.76 159.385 1202.99 158.642C1202.23 157.9 1201.63 157.05 1201.17 156.093C1200.73 155.136 1200.51 154.037 1200.51 152.794C1200.51 151.138 1200.97 149.752 1201.9 148.639C1202.84 147.525 1204.08 146.689 1205.6 146.132C1207.13 145.561 1208.78 145.275 1210.55 145.275ZM1205.67 168.667C1205.67 169.795 1206.07 170.731 1206.87 171.473C1207.68 172.202 1208.88 172.566 1210.47 172.566C1212.11 172.566 1213.34 172.216 1214.15 171.516C1214.97 170.802 1215.37 169.867 1215.37 168.71C1215.37 167.91 1215.14 167.211 1214.67 166.611C1214.21 166.011 1213.63 165.475 1212.93 165.004C1212.23 164.519 1211.52 164.069 1210.81 163.655L1210.23 163.355C1209.32 163.769 1208.52 164.233 1207.83 164.747C1207.16 165.261 1206.63 165.84 1206.25 166.482C1205.86 167.125 1205.67 167.853 1205.67 168.667ZM1210.51 150.117C1209.42 150.117 1208.52 150.395 1207.81 150.952C1207.1 151.509 1206.74 152.294 1206.74 153.308C1206.74 154.022 1206.91 154.651 1207.25 155.193C1207.61 155.722 1208.08 156.186 1208.65 156.586C1209.23 156.986 1209.87 157.357 1210.55 157.7C1211.21 157.385 1211.82 157.036 1212.39 156.65C1212.97 156.264 1213.43 155.8 1213.79 155.258C1214.14 154.715 1214.32 154.065 1214.32 153.308C1214.32 152.294 1213.96 151.509 1213.23 150.952C1212.52 150.395 1211.61 150.117 1210.51 150.117Z" fill="white"/>
<rect x="1251" y="121" width="77.1792" height="77.1792" rx="2" fill="#08003C"/>
<path d="M1300.52 159.049C1300.52 160.849 1300.38 162.634 1300.11 164.404C1299.86 166.175 1299.4 167.846 1298.74 169.417C1298.09 170.974 1297.16 172.359 1295.98 173.573C1294.79 174.772 1293.29 175.715 1291.46 176.4C1289.63 177.086 1287.42 177.428 1284.82 177.428C1284.2 177.428 1283.48 177.4 1282.66 177.343C1281.83 177.3 1281.14 177.228 1280.6 177.129V171.816C1281.17 171.959 1281.78 172.073 1282.42 172.159C1283.06 172.23 1283.71 172.266 1284.37 172.266C1286.98 172.266 1289 171.852 1290.41 171.024C1291.84 170.195 1292.84 169.046 1293.41 167.575C1293.99 166.104 1294.33 164.404 1294.42 162.477H1294.16C1293.74 163.162 1293.25 163.783 1292.68 164.34C1292.12 164.883 1291.41 165.318 1290.54 165.647C1289.67 165.961 1288.56 166.118 1287.22 166.118C1285.43 166.118 1283.88 165.733 1282.55 164.961C1281.23 164.176 1280.21 163.048 1279.48 161.577C1278.77 160.092 1278.41 158.299 1278.41 156.2C1278.41 153.93 1278.84 151.987 1279.7 150.374C1280.57 148.746 1281.81 147.496 1283.4 146.625C1285 145.754 1286.89 145.318 1289.06 145.318C1290.66 145.318 1292.15 145.597 1293.54 146.154C1294.92 146.696 1296.14 147.532 1297.18 148.66C1298.24 149.788 1299.06 151.216 1299.64 152.944C1300.23 154.672 1300.52 156.707 1300.52 159.049ZM1289.19 150.631C1287.9 150.631 1286.85 151.073 1286.04 151.959C1285.23 152.844 1284.82 154.229 1284.82 156.115C1284.82 157.628 1285.17 158.828 1285.87 159.713C1286.57 160.599 1287.63 161.041 1289.06 161.041C1290.05 161.041 1290.9 160.827 1291.63 160.399C1292.36 159.956 1292.92 159.406 1293.32 158.749C1293.74 158.078 1293.94 157.393 1293.94 156.693C1293.94 155.965 1293.84 155.243 1293.64 154.529C1293.44 153.815 1293.14 153.166 1292.74 152.58C1292.34 151.995 1291.84 151.523 1291.24 151.166C1290.66 150.809 1289.97 150.631 1289.19 150.631Z" fill="white"/>
<rect x="1093" y="200" width="77.1792" height="77.1792" rx="2" fill="#08003C"/>
<path d="M1124.12 256H1117.5V237.878C1117.5 237.378 1117.51 236.764 1117.52 236.036C1117.54 235.293 1117.56 234.536 1117.59 233.765C1117.62 232.98 1117.65 232.273 1117.67 231.644C1117.52 231.83 1117.2 232.151 1116.71 232.608C1116.24 233.051 1115.8 233.451 1115.38 233.808L1111.78 236.7L1108.59 232.715L1118.68 224.682H1124.12V256ZM1154.58 240.341C1154.58 242.869 1154.38 245.125 1153.98 247.11C1153.6 249.095 1152.97 250.78 1152.1 252.166C1151.24 253.551 1150.11 254.608 1148.71 255.336C1147.31 256.064 1145.61 256.428 1143.62 256.428C1141.1 256.428 1139.04 255.793 1137.42 254.522C1135.81 253.237 1134.62 251.394 1133.85 248.995C1133.08 246.582 1132.69 243.697 1132.69 240.341C1132.69 236.957 1133.04 234.065 1133.74 231.666C1134.45 229.252 1135.61 227.403 1137.21 226.118C1138.81 224.832 1140.94 224.19 1143.62 224.19C1146.11 224.19 1148.17 224.832 1149.78 226.118C1151.41 227.389 1152.62 229.231 1153.4 231.644C1154.19 234.043 1154.58 236.942 1154.58 240.341ZM1139.27 240.341C1139.27 242.726 1139.4 244.718 1139.65 246.318C1139.92 247.903 1140.37 249.095 1141 249.895C1141.63 250.695 1142.5 251.095 1143.62 251.095C1144.71 251.095 1145.58 250.702 1146.21 249.916C1146.85 249.117 1147.31 247.924 1147.58 246.339C1147.85 244.74 1147.99 242.74 1147.99 240.341C1147.99 237.956 1147.85 235.964 1147.58 234.365C1147.31 232.765 1146.85 231.566 1146.21 230.766C1145.58 229.952 1144.71 229.545 1143.62 229.545C1142.5 229.545 1141.63 229.952 1141 230.766C1140.37 231.566 1139.92 232.765 1139.65 234.365C1139.4 235.964 1139.27 237.956 1139.27 240.341Z" fill="white"/>
<rect x="1172" y="200" width="77.1792" height="77.1792" rx="2" fill="#08003C"/>
<path d="M1203.12 256H1196.5V237.878C1196.5 237.378 1196.51 236.764 1196.52 236.036C1196.54 235.293 1196.56 234.536 1196.59 233.765C1196.62 232.98 1196.65 232.273 1196.67 231.644C1196.52 231.83 1196.2 232.151 1195.71 232.608C1195.24 233.051 1194.8 233.451 1194.38 233.808L1190.78 236.7L1187.59 232.715L1197.68 224.682H1203.12V256ZM1228.23 256H1221.61V237.878C1221.61 237.378 1221.62 236.764 1221.63 236.036C1221.64 235.293 1221.67 234.536 1221.69 233.765C1221.72 232.98 1221.75 232.273 1221.78 231.644C1221.62 231.83 1221.3 232.151 1220.82 232.608C1220.34 233.051 1219.9 233.451 1219.49 233.808L1215.89 236.7L1212.7 232.715L1222.79 224.682H1228.23V256Z" fill="white"/>
<rect x="1251" y="200" width="77.1792" height="77.1792" rx="2" fill="#08003C"/>
<path d="M1282.12 256H1275.5V237.878C1275.5 237.378 1275.51 236.764 1275.52 236.036C1275.54 235.293 1275.56 234.536 1275.59 233.765C1275.62 232.98 1275.65 232.273 1275.67 231.644C1275.52 231.83 1275.2 232.151 1274.71 232.608C1274.24 233.051 1273.8 233.451 1273.38 233.808L1269.78 236.7L1266.59 232.715L1276.68 224.682H1282.12V256ZM1312.75 256H1290.86V251.394L1298.72 243.447C1300.31 241.819 1301.58 240.463 1302.54 239.377C1303.51 238.278 1304.21 237.278 1304.64 236.378C1305.08 235.479 1305.3 234.515 1305.3 233.487C1305.3 232.244 1304.95 231.316 1304.25 230.702C1303.56 230.073 1302.64 229.759 1301.49 229.759C1300.27 229.759 1299.09 230.038 1297.95 230.595C1296.81 231.152 1295.62 231.944 1294.38 232.972L1290.78 228.71C1291.68 227.938 1292.63 227.21 1293.63 226.525C1294.64 225.839 1295.81 225.289 1297.14 224.875C1298.48 224.447 1300.09 224.233 1301.96 224.233C1304.01 224.233 1305.78 224.604 1307.25 225.347C1308.73 226.089 1309.88 227.103 1310.68 228.388C1311.48 229.659 1311.88 231.102 1311.88 232.715C1311.88 234.443 1311.53 236.021 1310.85 237.449C1310.16 238.877 1309.16 240.291 1307.85 241.691C1306.55 243.09 1304.98 244.64 1303.14 246.339L1299.11 250.131V250.431H1312.75V256Z" fill="white"/>
<path d="M730 197L710 185.453V208.547L730 197ZM602 197V199H712V197V195H602V197Z" fill="#C90000"/>
<path d="M245 40L249.774 30L238.226 30L243 40L245 40ZM243 334L238.227 344L249.774 344L245 334L243 334ZM244 39L243 39L243 335L244 335L245 335L245 39L244 39Z" fill="black"/>
<path d="M119.255 188.061V192.027H123.784V193.432H119.255V197.612H124.796V199H117.473V186.665H124.661L124.456 188.061H119.255ZM134.107 189.565V197.281C134.107 198.385 133.866 199.304 133.382 200.038C132.905 200.778 132.21 201.369 131.297 201.811C130.384 202.258 129.276 202.596 127.976 202.822L127.698 201.498C128.629 201.33 129.447 201.092 130.151 200.781C130.855 200.471 131.404 200.041 131.798 199.492C132.192 198.949 132.389 198.251 132.389 197.398V190.872H128.548V189.565H134.107ZM132.63 185.053C132.988 185.053 133.278 185.164 133.499 185.384C133.72 185.605 133.83 185.874 133.83 186.19C133.83 186.518 133.72 186.796 133.499 187.023C133.278 187.243 132.988 187.354 132.63 187.354C132.284 187.354 132.001 187.243 131.78 187.023C131.565 186.796 131.458 186.518 131.458 186.19C131.458 185.874 131.565 185.605 131.78 185.384C132.001 185.164 132.284 185.053 132.63 185.053ZM139.892 194.864C139.928 195.557 140.068 196.124 140.313 196.565C140.558 197.001 140.877 197.323 141.271 197.532C141.665 197.735 142.1 197.836 142.578 197.836C143.049 197.836 143.482 197.765 143.876 197.621C144.27 197.478 144.669 197.269 145.075 196.995L145.854 198.078C145.412 198.43 144.902 198.711 144.323 198.919C143.744 199.122 143.145 199.224 142.524 199.224C141.581 199.224 140.778 199.018 140.116 198.606C139.46 198.188 138.958 197.61 138.612 196.869C138.272 196.129 138.102 195.27 138.102 194.291C138.102 193.343 138.272 192.495 138.612 191.749C138.958 191.003 139.445 190.415 140.071 189.986C140.698 189.556 141.444 189.341 142.309 189.341C143.121 189.341 143.819 189.529 144.404 189.905C144.995 190.281 145.448 190.818 145.764 191.516C146.081 192.209 146.239 193.038 146.239 194.005C146.239 194.166 146.236 194.321 146.23 194.47C146.224 194.62 146.215 194.751 146.203 194.864H139.892ZM142.327 190.684C141.659 190.684 141.101 190.923 140.653 191.4C140.211 191.877 139.958 192.614 139.892 193.611H144.583C144.565 192.656 144.356 191.931 143.956 191.436C143.562 190.935 143.019 190.684 142.327 190.684ZM165.578 185.564L167.297 185.769V199H165.784L165.641 197.792C165.307 198.269 164.913 198.627 164.46 198.866C164.006 199.104 163.511 199.224 162.974 199.224C162.162 199.224 161.491 199.018 160.959 198.606C160.434 198.188 160.043 197.61 159.787 196.869C159.53 196.129 159.402 195.27 159.402 194.291C159.402 193.337 159.548 192.489 159.84 191.749C160.139 191.003 160.563 190.415 161.112 189.986C161.667 189.556 162.335 189.341 163.117 189.341C163.636 189.341 164.098 189.434 164.504 189.619C164.91 189.798 165.268 190.063 165.578 190.415V185.564ZM163.564 190.693C162.83 190.693 162.26 190.988 161.855 191.579C161.449 192.17 161.246 193.074 161.246 194.291C161.246 195.097 161.329 195.765 161.497 196.297C161.664 196.828 161.905 197.222 162.222 197.478C162.538 197.735 162.926 197.863 163.385 197.863C163.881 197.863 164.307 197.72 164.665 197.433C165.029 197.147 165.334 196.816 165.578 196.44V191.83C165.334 191.472 165.038 191.194 164.692 190.997C164.352 190.794 163.976 190.693 163.564 190.693ZM172.097 194.864C172.133 195.557 172.273 196.124 172.518 196.565C172.763 197.001 173.082 197.323 173.476 197.532C173.87 197.735 174.305 197.836 174.783 197.836C175.254 197.836 175.687 197.765 176.081 197.621C176.475 197.478 176.875 197.269 177.28 196.995L178.059 198.078C177.617 198.43 177.107 198.711 176.528 198.919C175.949 199.122 175.35 199.224 174.729 199.224C173.786 199.224 172.984 199.018 172.321 198.606C171.665 198.188 171.163 197.61 170.817 196.869C170.477 196.129 170.307 195.27 170.307 194.291C170.307 193.343 170.477 192.495 170.817 191.749C171.163 191.003 171.65 190.415 172.276 189.986C172.903 189.556 173.649 189.341 174.514 189.341C175.326 189.341 176.024 189.529 176.609 189.905C177.2 190.281 177.653 190.818 177.97 191.516C178.286 192.209 178.444 193.038 178.444 194.005C178.444 194.166 178.441 194.321 178.435 194.47C178.429 194.62 178.42 194.751 178.408 194.864H172.097ZM174.532 190.684C173.864 190.684 173.306 190.923 172.858 191.4C172.417 191.877 172.163 192.614 172.097 193.611H176.788C176.77 192.656 176.561 191.931 176.161 191.436C175.767 190.935 175.224 190.684 174.532 190.684ZM196.056 185.769V196.565C196.056 197.019 196.196 197.341 196.477 197.532C196.757 197.717 197.118 197.809 197.56 197.809C197.84 197.809 198.106 197.78 198.357 197.72C198.607 197.66 198.858 197.583 199.108 197.487L199.556 198.714C199.293 198.845 198.965 198.961 198.571 199.063C198.177 199.17 197.733 199.224 197.238 199.224C196.354 199.224 195.65 198.976 195.125 198.481C194.6 197.985 194.337 197.305 194.337 196.44V187.076H191.464V185.769H196.056ZM209.87 196.834C209.87 197.21 209.93 197.484 210.049 197.657C210.169 197.824 210.357 197.95 210.613 198.033L210.211 199.215C209.781 199.161 209.408 199.033 209.092 198.83C208.775 198.627 208.54 198.317 208.384 197.899C208.044 198.335 207.615 198.666 207.095 198.893C206.576 199.113 206.012 199.224 205.403 199.224C204.455 199.224 203.706 198.955 203.157 198.418C202.608 197.881 202.333 197.174 202.333 196.297C202.333 195.312 202.715 194.557 203.479 194.032C204.249 193.507 205.353 193.244 206.791 193.244H208.161V192.528C208.161 191.877 207.967 191.415 207.579 191.14C207.197 190.866 206.663 190.729 205.976 190.729C205.666 190.729 205.296 190.767 204.866 190.845C204.437 190.923 203.98 191.045 203.497 191.212L203.058 189.959C203.643 189.738 204.201 189.58 204.732 189.484C205.269 189.389 205.77 189.341 206.236 189.341C207.453 189.341 208.363 189.619 208.966 190.174C209.569 190.723 209.87 191.478 209.87 192.438V196.834ZM205.887 197.935C206.328 197.935 206.752 197.821 207.158 197.595C207.564 197.368 207.898 197.052 208.161 196.646V194.363H206.907C205.911 194.363 205.204 194.533 204.786 194.873C204.368 195.207 204.159 195.667 204.159 196.252C204.159 196.801 204.302 197.219 204.589 197.505C204.875 197.792 205.308 197.935 205.887 197.935ZM216.953 197.854C217.639 197.854 218.179 197.729 218.573 197.478C218.973 197.228 219.173 196.887 219.173 196.458C219.173 196.183 219.119 195.947 219.012 195.751C218.911 195.554 218.696 195.375 218.367 195.213C218.045 195.052 217.556 194.888 216.899 194.721C216.261 194.56 215.703 194.372 215.225 194.157C214.748 193.942 214.378 193.662 214.115 193.316C213.859 192.97 213.731 192.522 213.731 191.973C213.731 191.436 213.88 190.97 214.178 190.576C214.482 190.183 214.909 189.878 215.458 189.663C216.013 189.449 216.658 189.341 217.392 189.341C218.168 189.341 218.842 189.446 219.415 189.654C219.994 189.857 220.483 190.108 220.883 190.406L220.149 191.525C219.785 191.281 219.385 191.081 218.949 190.926C218.52 190.77 218.012 190.693 217.428 190.693C216.729 190.693 216.231 190.8 215.933 191.015C215.64 191.224 215.494 191.501 215.494 191.848C215.494 192.104 215.566 192.319 215.709 192.492C215.858 192.659 216.112 192.814 216.47 192.958C216.828 193.101 217.323 193.259 217.956 193.432C218.57 193.599 219.107 193.796 219.567 194.023C220.027 194.25 220.382 194.548 220.632 194.918C220.889 195.282 221.017 195.762 221.017 196.359C221.017 197.034 220.823 197.583 220.435 198.006C220.047 198.424 219.543 198.731 218.922 198.928C218.308 199.125 217.651 199.224 216.953 199.224C216.094 199.224 215.354 199.098 214.733 198.848C214.118 198.597 213.602 198.29 213.184 197.926L214.133 196.834C214.503 197.138 214.927 197.386 215.404 197.577C215.882 197.762 216.398 197.854 216.953 197.854ZM149.521 208.564C150.058 208.564 150.541 208.611 150.971 208.707C151.401 208.796 151.806 208.925 152.188 209.092L151.651 210.327C151.347 210.196 151.022 210.097 150.675 210.032C150.335 209.966 149.986 209.933 149.628 209.933C148.984 209.933 148.503 210.058 148.187 210.309C147.871 210.56 147.712 210.945 147.712 211.464V213.272H150.899L150.711 214.579H147.712V222H146.003V214.579H143.792V213.272H146.003V211.473C146.003 210.882 146.152 210.369 146.45 209.933C146.755 209.497 147.169 209.16 147.695 208.922C148.226 208.683 148.834 208.564 149.521 208.564ZM159.549 213.272V220.693H162.171V222H154.956V220.693H157.83V214.579H155.046V213.272H159.549ZM158.268 208.671C158.627 208.671 158.913 208.781 159.128 209.002C159.349 209.223 159.459 209.491 159.459 209.808C159.459 210.142 159.349 210.419 159.128 210.64C158.913 210.861 158.627 210.972 158.268 210.972C157.916 210.972 157.63 210.861 157.409 210.64C157.194 210.419 157.087 210.142 157.087 209.808C157.087 209.491 157.194 209.223 157.409 209.002C157.63 208.781 157.916 208.671 158.268 208.671ZM169.218 208.769V219.565C169.218 220.019 169.359 220.341 169.639 220.532C169.92 220.717 170.281 220.809 170.722 220.809C171.003 220.809 171.268 220.78 171.519 220.72C171.77 220.66 172.02 220.583 172.271 220.487L172.718 221.714C172.456 221.845 172.128 221.961 171.734 222.063C171.34 222.17 170.895 222.224 170.4 222.224C169.517 222.224 168.813 221.976 168.287 221.481C167.762 220.985 167.5 220.305 167.5 219.44V210.076H164.626V208.769H169.218ZM183.033 219.834C183.033 220.21 183.092 220.484 183.212 220.657C183.331 220.824 183.519 220.95 183.776 221.033L183.373 222.215C182.943 222.161 182.57 222.033 182.254 221.83C181.938 221.627 181.702 221.317 181.547 220.899C181.207 221.335 180.777 221.666 180.258 221.893C179.739 222.113 179.175 222.224 178.566 222.224C177.617 222.224 176.868 221.955 176.319 221.418C175.77 220.881 175.495 220.174 175.495 219.297C175.495 218.312 175.877 217.557 176.641 217.032C177.411 216.507 178.515 216.244 179.953 216.244H181.323V215.528C181.323 214.877 181.129 214.415 180.741 214.14C180.359 213.866 179.825 213.729 179.139 213.729C178.828 213.729 178.458 213.767 178.029 213.845C177.599 213.923 177.143 214.045 176.659 214.212L176.221 212.959C176.805 212.738 177.363 212.58 177.894 212.484C178.432 212.389 178.933 212.341 179.398 212.341C180.616 212.341 181.526 212.619 182.129 213.174C182.731 213.723 183.033 214.478 183.033 215.438V219.834ZM179.049 220.935C179.491 220.935 179.915 220.821 180.32 220.595C180.726 220.368 181.06 220.052 181.323 219.646V217.363H180.07C179.073 217.363 178.366 217.533 177.948 217.873C177.53 218.207 177.322 218.667 177.322 219.252C177.322 219.801 177.465 220.219 177.751 220.505C178.038 220.792 178.47 220.935 179.049 220.935ZM190.116 220.854C190.802 220.854 191.342 220.729 191.736 220.478C192.136 220.228 192.336 219.887 192.336 219.458C192.336 219.183 192.282 218.947 192.174 218.751C192.073 218.554 191.858 218.375 191.53 218.213C191.208 218.052 190.718 217.888 190.062 217.721C189.423 217.56 188.865 217.372 188.388 217.157C187.91 216.942 187.54 216.662 187.278 216.316C187.021 215.97 186.893 215.522 186.893 214.973C186.893 214.436 187.042 213.97 187.34 213.576C187.645 213.183 188.072 212.878 188.621 212.663C189.176 212.449 189.82 212.341 190.554 212.341C191.33 212.341 192.004 212.446 192.577 212.654C193.156 212.857 193.645 213.108 194.045 213.406L193.311 214.525C192.947 214.281 192.547 214.081 192.112 213.926C191.682 213.77 191.175 213.693 190.59 213.693C189.892 213.693 189.393 213.8 189.095 214.015C188.803 214.224 188.656 214.501 188.656 214.848C188.656 215.104 188.728 215.319 188.871 215.492C189.02 215.659 189.274 215.814 189.632 215.958C189.99 216.101 190.486 216.259 191.118 216.432C191.733 216.599 192.27 216.796 192.729 217.023C193.189 217.25 193.544 217.548 193.795 217.918C194.051 218.282 194.18 218.762 194.18 219.359C194.18 220.034 193.986 220.583 193.598 221.006C193.21 221.424 192.706 221.731 192.085 221.928C191.47 222.125 190.814 222.224 190.116 222.224C189.256 222.224 188.516 222.098 187.895 221.848C187.281 221.597 186.765 221.29 186.347 220.926L187.296 219.834C187.666 220.138 188.089 220.386 188.567 220.577C189.044 220.762 189.561 220.854 190.116 220.854Z" fill="black"/>
<path d="M868.909 73.7044C868.909 72.8233 868.736 72.1237 868.391 71.6054C868.045 71.0785 867.57 70.7028 866.965 70.4782C866.361 70.245 865.661 70.1284 864.866 70.1284H862.47V77.4617H864.828C865.622 77.4617 866.326 77.3494 866.939 77.1249C867.553 76.9003 868.032 76.5159 868.378 75.9717C868.732 75.4189 868.909 74.6631 868.909 73.7044ZM871.63 73.6785C871.63 75.0691 871.332 76.192 870.736 77.0471C870.148 77.8936 869.332 78.5112 868.287 78.8999C867.25 79.2886 866.054 79.4829 864.698 79.4829H862.47V86H859.891V68.1461H864.62C866.797 68.1461 868.507 68.5996 869.751 69.5065C871.003 70.4048 871.63 71.7955 871.63 73.6785ZM885.198 82.8646C885.198 83.4087 885.284 83.806 885.457 84.0565C885.63 84.2984 885.902 84.4798 886.273 84.6007L885.69 86.311C885.068 86.2332 884.528 86.0475 884.071 85.7538C883.613 85.4601 883.272 85.011 883.047 84.4064C882.555 85.0369 881.933 85.5163 881.181 85.8445C880.43 86.1641 879.614 86.3239 878.733 86.3239C877.359 86.3239 876.275 85.9352 875.481 85.1578C874.686 84.3804 874.289 83.3569 874.289 82.0872C874.289 80.662 874.841 79.5693 875.947 78.8092C877.061 78.0491 878.659 77.669 880.741 77.669H882.723V76.6325C882.723 75.691 882.443 75.0216 881.881 74.6243C881.328 74.227 880.555 74.0283 879.562 74.0283C879.113 74.0283 878.577 74.0844 877.955 74.1967C877.333 74.309 876.673 74.4861 875.973 74.7279L875.338 72.914C876.185 72.5944 876.992 72.3655 877.761 72.2273C878.538 72.0891 879.264 72.02 879.938 72.02C881.7 72.02 883.017 72.4217 883.889 73.225C884.762 74.0196 885.198 75.1123 885.198 76.503V82.8646ZM879.432 84.4582C880.071 84.4582 880.685 84.2941 881.272 83.9658C881.859 83.6376 882.343 83.1798 882.723 82.5925V79.2886H880.909C879.467 79.2886 878.443 79.5348 877.839 80.0271C877.234 80.5108 876.932 81.1759 876.932 82.0224C876.932 82.817 877.139 83.4217 877.554 83.8363C877.968 84.2509 878.594 84.4582 879.432 84.4582ZM890.798 86V84.1602H892.871V74.1838H890.798V72.344H894.776L895.229 75.5442C895.747 74.4127 896.382 73.5446 897.134 72.9399C897.894 72.3267 898.878 72.02 900.088 72.02C900.485 72.02 900.835 72.0503 901.137 72.1107C901.448 72.1712 901.763 72.2489 902.083 72.344L901.344 74.5206C901.059 74.4343 900.8 74.3738 900.567 74.3392C900.334 74.3047 900.066 74.2874 899.764 74.2874C898.736 74.2874 897.855 74.6588 897.121 75.4017C896.386 76.1445 895.799 77.2372 895.359 78.6796V84.1602H898.131V86H890.798ZM899.777 77.1378V74.0024L900.062 72.344H902.083L901.694 77.1378H899.777ZM917.297 85.3004C916.813 85.6113 916.23 85.8575 915.547 86.0389C914.865 86.2289 914.183 86.3239 913.5 86.3239C911.98 86.3239 910.814 85.9266 910.002 85.1319C909.199 84.3373 908.797 83.3051 908.797 82.0353V74.2097H905.701V72.344H908.797V69.2603L911.285 68.9623V72.344H915.949L915.664 74.2097H911.285V82.0094C911.285 82.7609 911.475 83.3267 911.855 83.7067C912.244 84.0868 912.887 84.2768 913.785 84.2768C914.295 84.2768 914.761 84.2163 915.185 84.0954C915.608 83.9745 916.001 83.819 916.364 83.629L917.297 85.3004ZM923.752 80.0141C923.804 81.0161 924.007 81.8367 924.361 82.4759C924.715 83.1064 925.177 83.5728 925.747 83.8752C926.317 84.1688 926.948 84.3157 927.639 84.3157C928.321 84.3157 928.947 84.212 929.517 84.0047C930.087 83.7974 930.666 83.4951 931.253 83.0978L932.381 84.6655C931.741 85.1751 931.003 85.5811 930.165 85.8834C929.327 86.1771 928.459 86.3239 927.561 86.3239C926.196 86.3239 925.034 86.0259 924.076 85.4299C923.125 84.8253 922.4 83.9874 921.899 82.9164C921.407 81.8453 921.16 80.6015 921.16 79.1849C921.16 77.8116 921.407 76.585 921.899 75.5053C922.4 74.4256 923.104 73.5748 924.011 72.9529C924.918 72.331 925.997 72.02 927.25 72.02C928.425 72.02 929.435 72.2921 930.282 72.8363C931.137 73.3805 931.793 74.1578 932.251 75.1684C932.709 76.1704 932.938 77.371 932.938 78.7703C932.938 79.0035 932.933 79.2281 932.925 79.4441C932.916 79.66 932.903 79.85 932.886 80.0141H923.752ZM927.276 73.9635C926.308 73.9635 925.501 74.309 924.853 75C924.214 75.691 923.847 76.7578 923.752 78.2002H930.541C930.515 76.8182 930.213 75.7688 929.634 75.0518C929.064 74.3263 928.278 73.9635 927.276 73.9635ZM960.23 68.1461V85.4817H957.755V70.7633L953.726 73.225L952.65 71.4629L958.04 68.1461H960.23ZM963.896 84.0047V86H953.376V84.0047H963.896Z" fill="black"/>
<path d="M1168.91 73.7044C1168.91 72.8233 1168.74 72.1237 1168.39 71.6054C1168.05 71.0785 1167.57 70.7028 1166.97 70.4782C1166.36 70.245 1165.66 70.1284 1164.87 70.1284H1162.47V77.4617H1164.83C1165.62 77.4617 1166.33 77.3494 1166.94 77.1249C1167.55 76.9003 1168.03 76.5159 1168.38 75.9717C1168.73 75.4189 1168.91 74.6631 1168.91 73.7044ZM1171.63 73.6785C1171.63 75.0691 1171.33 76.192 1170.74 77.0471C1170.15 77.8936 1169.33 78.5112 1168.29 78.8999C1167.25 79.2886 1166.05 79.4829 1164.7 79.4829H1162.47V86H1159.89V68.1461H1164.62C1166.8 68.1461 1168.51 68.5996 1169.75 69.5065C1171 70.4048 1171.63 71.7955 1171.63 73.6785ZM1185.2 82.8646C1185.2 83.4087 1185.28 83.806 1185.46 84.0565C1185.63 84.2984 1185.9 84.4798 1186.27 84.6007L1185.69 86.311C1185.07 86.2332 1184.53 86.0475 1184.07 85.7538C1183.61 85.4601 1183.27 85.011 1183.05 84.4064C1182.55 85.0369 1181.93 85.5163 1181.18 85.8445C1180.43 86.1641 1179.61 86.3239 1178.73 86.3239C1177.36 86.3239 1176.28 85.9352 1175.48 85.1578C1174.69 84.3804 1174.29 83.3569 1174.29 82.0872C1174.29 80.662 1174.84 79.5693 1175.95 78.8092C1177.06 78.0491 1178.66 77.669 1180.74 77.669H1182.72V76.6325C1182.72 75.691 1182.44 75.0216 1181.88 74.6243C1181.33 74.227 1180.56 74.0283 1179.56 74.0283C1179.11 74.0283 1178.58 74.0844 1177.96 74.1967C1177.33 74.309 1176.67 74.4861 1175.97 74.7279L1175.34 72.914C1176.18 72.5944 1176.99 72.3655 1177.76 72.2273C1178.54 72.0891 1179.26 72.02 1179.94 72.02C1181.7 72.02 1183.02 72.4217 1183.89 73.225C1184.76 74.0196 1185.2 75.1123 1185.2 76.503V82.8646ZM1179.43 84.4582C1180.07 84.4582 1180.68 84.2941 1181.27 83.9658C1181.86 83.6376 1182.34 83.1798 1182.72 82.5925V79.2886H1180.91C1179.47 79.2886 1178.44 79.5348 1177.84 80.0271C1177.23 80.5108 1176.93 81.1759 1176.93 82.0224C1176.93 82.817 1177.14 83.4217 1177.55 83.8363C1177.97 84.2509 1178.59 84.4582 1179.43 84.4582ZM1190.8 86V84.1602H1192.87V74.1838H1190.8V72.344H1194.78L1195.23 75.5442C1195.75 74.4127 1196.38 73.5446 1197.13 72.9399C1197.89 72.3267 1198.88 72.02 1200.09 72.02C1200.48 72.02 1200.83 72.0503 1201.14 72.1107C1201.45 72.1712 1201.76 72.2489 1202.08 72.344L1201.34 74.5206C1201.06 74.4343 1200.8 74.3738 1200.57 74.3392C1200.33 74.3047 1200.07 74.2874 1199.76 74.2874C1198.74 74.2874 1197.85 74.6588 1197.12 75.4017C1196.39 76.1445 1195.8 77.2372 1195.36 78.6796V84.1602H1198.13V86H1190.8ZM1199.78 77.1378V74.0024L1200.06 72.344H1202.08L1201.69 77.1378H1199.78ZM1217.3 85.3004C1216.81 85.6113 1216.23 85.8575 1215.55 86.0389C1214.87 86.2289 1214.18 86.3239 1213.5 86.3239C1211.98 86.3239 1210.81 85.9266 1210 85.1319C1209.2 84.3373 1208.8 83.3051 1208.8 82.0353V74.2097H1205.7V72.344H1208.8V69.2603L1211.28 68.9623V72.344H1215.95L1215.66 74.2097H1211.28V82.0094C1211.28 82.7609 1211.47 83.3267 1211.85 83.7067C1212.24 84.0868 1212.89 84.2768 1213.79 84.2768C1214.3 84.2768 1214.76 84.2163 1215.18 84.0954C1215.61 83.9745 1216 83.819 1216.36 83.629L1217.3 85.3004ZM1223.75 80.0141C1223.8 81.0161 1224.01 81.8367 1224.36 82.4759C1224.71 83.1064 1225.18 83.5728 1225.75 83.8752C1226.32 84.1688 1226.95 84.3157 1227.64 84.3157C1228.32 84.3157 1228.95 84.212 1229.52 84.0047C1230.09 83.7974 1230.67 83.4951 1231.25 83.0978L1232.38 84.6655C1231.74 85.1751 1231 85.5811 1230.17 85.8834C1229.33 86.1771 1228.46 86.3239 1227.56 86.3239C1226.2 86.3239 1225.03 86.0259 1224.08 85.4299C1223.13 84.8253 1222.4 83.9874 1221.9 82.9164C1221.41 81.8453 1221.16 80.6015 1221.16 79.1849C1221.16 77.8116 1221.41 76.585 1221.9 75.5053C1222.4 74.4256 1223.1 73.5748 1224.01 72.9529C1224.92 72.331 1226 72.02 1227.25 72.02C1228.42 72.02 1229.44 72.2921 1230.28 72.8363C1231.14 73.3805 1231.79 74.1578 1232.25 75.1684C1232.71 76.1704 1232.94 77.371 1232.94 78.7703C1232.94 79.0035 1232.93 79.2281 1232.92 79.4441C1232.92 79.66 1232.9 79.85 1232.89 80.0141H1223.75ZM1227.28 73.9635C1226.31 73.9635 1225.5 74.309 1224.85 75C1224.21 75.691 1223.85 76.7578 1223.75 78.2002H1230.54C1230.51 76.8182 1230.21 75.7688 1229.63 75.0518C1229.06 74.3263 1228.28 73.9635 1227.28 73.9635ZM1257.35 67.8222C1258.52 67.8222 1259.51 68.0424 1260.33 68.4829C1261.15 68.9235 1261.78 69.5238 1262.21 70.2839C1262.64 71.044 1262.86 71.8948 1262.86 72.8363C1262.86 73.6396 1262.72 74.4256 1262.45 75.1944C1262.17 75.9631 1261.72 76.7707 1261.1 77.6172C1260.48 78.4551 1259.68 79.3879 1258.67 80.4158C1257.67 81.4437 1256.45 82.6184 1255 83.9399H1263.27L1262.98 86H1252.16V84.0436C1253.47 82.7825 1254.59 81.6769 1255.53 80.7267C1256.47 79.768 1257.25 78.9258 1257.86 78.2002C1258.47 77.4747 1258.96 76.8225 1259.31 76.2438C1259.66 75.6565 1259.91 75.1037 1260.05 74.5854C1260.2 74.0585 1260.27 73.5143 1260.27 72.9529C1260.27 71.9941 1260 71.2383 1259.45 70.6855C1258.92 70.1327 1258.17 69.8563 1257.21 69.8563C1256.36 69.8563 1255.65 70.0075 1255.1 70.3098C1254.55 70.6035 1254.01 71.0829 1253.45 71.748L1251.8 70.4653C1252.49 69.5929 1253.28 68.9364 1254.17 68.4959C1255.05 68.0467 1256.11 67.8222 1257.35 67.8222Z" fill="black"/>
</svg>
