<svg width="1400" height="350" viewBox="0 0 1400 350" fill="none" xmlns="http://www.w3.org/2000/svg">
<rect width="1400" height="350" fill="white"/>
<rect width="55.75" height="55.75" rx="3.71666" transform="matrix(0.866025 -0.5 0 1 1183.7 160.358)" fill="#0037AC"/>
<rect width="55.75" height="55.75" rx="3.71666" transform="matrix(0.866025 -0.5 0 1 1183.7 217.967)" fill="#190555"/>
<rect width="55.75" height="55.75" rx="3.71666" transform="matrix(0.866025 0.5 -0.866025 0.5 1183.7 102.75)" fill="#0037AC"/>
<rect width="55.75" height="55.75" rx="3.71666" transform="matrix(0.866025 0.5 -0.866025 0.5 1133.52 74.875)" fill="#0037AC"/>
<rect width="55.75" height="55.75" rx="3.71666" transform="matrix(0.866025 0.5 -0.866025 0.5 1083.35 47)" fill="#0037AC"/>
<path d="M1208.16 163.376C1208.99 162.892 1209.76 162.578 1210.44 162.436C1211.13 162.289 1211.74 162.278 1212.27 162.405L1210.63 166.385C1210.27 166.29 1209.87 166.296 1209.46 166.401C1209.04 166.491 1208.64 166.651 1208.24 166.883C1207.51 167.304 1206.86 167.949 1206.28 168.818C1205.72 169.681 1205.26 170.726 1204.93 171.953C1204.6 173.175 1204.43 174.538 1204.41 176.044L1204.43 177.561C1204.43 180.041 1204.6 181.786 1204.97 182.797C1205.33 183.808 1206.03 184.019 1207.05 183.429C1207.86 182.96 1208.45 182.218 1208.83 181.202C1209.21 180.18 1209.4 179.101 1209.4 177.964C1209.4 176.963 1209.31 176.218 1209.14 175.728C1208.98 175.223 1208.74 174.928 1208.43 174.844C1208.12 174.749 1207.74 174.831 1207.29 175.089C1206.72 175.42 1206.15 175.931 1205.6 176.621C1205.04 177.311 1204.55 178.114 1204.13 179.03L1204.11 175.886C1204.7 174.723 1205.38 173.725 1206.14 172.893C1206.91 172.061 1207.67 171.429 1208.42 170.998C1209.4 170.429 1210.29 170.197 1211.1 170.303C1211.9 170.397 1212.54 170.85 1213.01 171.661C1213.49 172.461 1213.72 173.635 1213.72 175.183C1213.72 176.647 1213.45 178.143 1212.9 179.669C1212.36 181.186 1211.58 182.594 1210.56 183.895C1209.56 185.19 1208.37 186.235 1206.99 187.03C1205.73 187.757 1204.66 188.104 1203.76 188.073C1202.87 188.031 1202.14 187.694 1201.58 187.062C1201.01 186.42 1200.6 185.548 1200.33 184.448C1200.07 183.337 1199.93 182.076 1199.93 180.665C1199.93 178.2 1200.26 175.836 1200.92 173.572C1201.59 171.303 1202.53 169.284 1203.75 167.515C1204.98 165.74 1206.45 164.361 1208.16 163.376Z" fill="white"/>
<path d="M1202.67 224.132V245.393L1198.45 247.826V231.477L1194.55 236.54L1192.72 234.17L1198.83 226.344L1202.67 224.132ZM1206.21 240.204V243.98L1193.88 251.096V247.32L1206.21 240.204ZM1215.09 216.406C1216.53 215.574 1217.73 215.169 1218.7 215.19C1219.68 215.206 1220.41 215.553 1220.89 216.233C1221.38 216.896 1221.63 217.786 1221.63 218.902C1221.63 219.787 1221.5 220.732 1221.23 221.737C1220.98 222.727 1220.55 223.867 1219.96 225.157C1219.37 226.437 1218.58 227.935 1217.59 229.651C1216.62 231.362 1215.41 233.376 1213.97 235.693L1222.07 231.017L1221.6 235.093L1209 242.367V238.828C1210.25 236.717 1211.34 234.858 1212.26 233.253C1213.18 231.647 1213.95 230.246 1214.58 229.051C1215.22 227.85 1215.73 226.813 1216.12 225.939C1216.51 225.06 1216.79 224.296 1216.96 223.649C1217.14 222.99 1217.22 222.403 1217.22 221.887C1217.22 221.003 1217 220.432 1216.55 220.174C1216.12 219.91 1215.49 220.013 1214.68 220.482C1213.96 220.898 1213.33 221.432 1212.8 222.085C1212.28 222.738 1211.77 223.596 1211.27 224.66L1208.62 223.886C1209.33 222.338 1210.21 220.927 1211.25 219.652C1212.28 218.368 1213.57 217.286 1215.09 216.406Z" fill="white"/>
<path d="M1195.17 125.572C1196.01 126.056 1196.66 126.559 1197.13 127.08C1197.6 127.607 1197.92 128.131 1198.07 128.652L1193.81 129.221C1193.7 128.857 1193.5 128.52 1193.2 128.21C1192.92 127.899 1192.58 127.628 1192.18 127.396C1191.45 126.975 1190.56 126.733 1189.52 126.67C1188.49 126.612 1187.36 126.743 1186.13 127.065C1184.91 127.391 1183.64 127.923 1182.33 128.66L1181.03 129.442C1178.88 130.674 1177.45 131.701 1176.76 132.522C1176.07 133.343 1176.23 134.049 1177.25 134.639C1178.06 135.107 1179 135.249 1180.07 135.065C1181.15 134.886 1182.18 134.512 1183.16 133.944C1184.03 133.443 1184.63 132.996 1184.97 132.601C1185.32 132.206 1185.46 131.853 1185.38 131.543C1185.31 131.227 1185.05 130.94 1184.6 130.682C1184.02 130.35 1183.3 130.116 1182.42 129.979C1181.55 129.842 1180.61 129.821 1179.61 129.916L1182.31 128.32C1183.62 128.252 1184.82 128.341 1185.93 128.589C1187.03 128.836 1187.95 129.176 1188.7 129.608C1189.69 130.176 1190.33 130.834 1190.65 131.582C1190.96 132.325 1190.89 133.104 1190.43 133.92C1189.97 134.731 1189.07 135.523 1187.73 136.297C1186.46 137.029 1185.03 137.54 1183.44 137.829C1181.85 138.114 1180.24 138.143 1178.61 137.916C1176.98 137.695 1175.48 137.187 1174.11 136.392C1172.85 135.665 1172.01 134.907 1171.59 134.117C1171.18 133.322 1171.11 132.522 1171.37 131.716C1171.64 130.906 1172.19 130.11 1173.01 129.331C1173.84 128.547 1174.87 127.802 1176.09 127.096C1178.22 125.864 1180.44 124.966 1182.72 124.403C1185.02 123.845 1187.24 123.653 1189.39 123.826C1191.54 124.005 1193.47 124.587 1195.17 125.572Z" fill="white"/>
<path d="M1149.02 100.572L1145.45 102.08L1138.51 98.0759L1134.42 100.437C1135.11 100.58 1135.74 100.766 1136.32 100.998C1136.91 101.23 1137.41 101.467 1137.83 101.709C1138.81 102.272 1139.45 102.928 1139.76 103.676C1140.08 104.428 1140.01 105.208 1139.57 106.013C1139.13 106.824 1138.27 107.598 1137 108.335C1135.72 109.072 1134.26 109.552 1132.62 109.773C1130.99 109.999 1129.32 109.96 1127.62 109.654C1125.94 109.344 1124.35 108.759 1122.86 107.901C1121.49 107.106 1120.52 106.256 1119.98 105.35C1119.44 104.439 1119.25 103.533 1119.4 102.633L1124.16 102.759C1124.04 103.36 1124.11 103.92 1124.4 104.442C1124.7 104.963 1125.18 105.413 1125.83 105.792C1126.84 106.371 1127.94 106.658 1129.16 106.653C1130.38 106.653 1131.48 106.369 1132.47 105.8C1133.25 105.347 1133.77 104.921 1134.03 104.521C1134.29 104.126 1134.34 103.757 1134.16 103.415C1134 103.067 1133.66 102.746 1133.15 102.451C1132.8 102.251 1132.39 102.064 1131.91 101.891C1131.42 101.717 1130.85 101.577 1130.2 101.472L1127.28 99.7898L1137.47 93.9058L1149.02 100.572Z" fill="white"/>
<path d="M1091.72 68.029L1094.04 70.9354L1078.69 74.6158L1088.16 80.0812L1084.92 81.953L1070.99 73.9129L1073.87 72.2544L1091.72 68.029ZM1090.83 76.3455L1079.04 83.1535L1074.89 80.7604L1081.62 76.8115L1087.18 74.2367L1090.83 76.3455Z" fill="white"/>
<rect x="505.389" y="323.186" width="19.1617" height="19.1617" rx="3.74252" fill="#0037AC"/>
<path d="M512.812 328.192C512.685 327.882 512.246 327.882 512.119 328.192L511.92 328.678C511.882 328.769 511.882 328.871 511.919 328.962L514.593 335.522C514.693 335.768 514.512 336.037 514.246 336.037H511.585H510.687C510.421 336.037 510.24 335.767 510.341 335.521L510.802 334.397C510.839 334.306 510.84 334.205 510.803 334.114L510.593 333.599C510.466 333.288 510.027 333.288 509.9 333.598L508.643 336.659C508.542 336.905 508.723 337.175 508.989 337.175H515.942C516.208 337.175 516.389 336.905 516.288 336.659L512.812 328.192Z" fill="white"/>
<path d="M515.348 330.011C515.247 329.765 515.428 329.496 515.694 329.496H518.355H519.253C519.519 329.496 519.701 329.766 519.599 330.012L519.138 331.136C519.101 331.227 519.101 331.329 519.138 331.419L519.348 331.934C519.474 332.245 519.913 332.245 520.04 331.935L521.297 328.874C521.398 328.628 521.217 328.358 520.951 328.358H513.999C513.732 328.358 513.551 328.628 513.652 328.874L517.128 337.341C517.256 337.651 517.694 337.651 517.821 337.341L518.021 336.855C518.058 336.764 518.058 336.662 518.021 336.571L515.348 330.011Z" fill="white"/>
<path d="M536.368 334.455H533.656L533.128 336.281H531.83L534.245 328.69H535.829L538.25 336.281H536.896L536.368 334.455ZM533.92 333.47H536.099L535.015 329.68L533.92 333.47ZM540.545 330.472V334.532C540.545 334.877 540.613 335.122 540.748 335.269C540.888 335.416 541.097 335.489 541.375 335.489C541.64 335.489 541.894 335.41 542.14 335.253C542.386 335.095 542.58 334.902 542.723 334.675V330.472H543.955V336.281H542.894L542.817 335.539C542.6 335.828 542.327 336.05 541.997 336.204C541.667 336.355 541.33 336.43 540.985 336.43C540.424 336.43 540.004 336.276 539.725 335.968C539.45 335.656 539.313 335.229 539.313 334.686V330.472H540.545ZM550.762 335.973C550.549 336.109 550.294 336.219 549.997 336.303C549.7 336.388 549.39 336.43 549.067 336.43C548.392 336.43 547.879 336.256 547.527 335.907C547.179 335.555 547.004 335.093 547.004 334.521V331.369H545.712V330.472H547.004V329.174L548.237 329.025V330.472H550.195L550.057 331.369H548.237V334.51C548.237 334.822 548.314 335.055 548.468 335.209C548.625 335.359 548.882 335.434 549.238 335.434C549.45 335.434 549.647 335.408 549.826 335.357C550.006 335.306 550.169 335.24 550.316 335.159L550.762 335.973ZM554.834 330.318C555.402 330.318 555.881 330.445 556.269 330.698C556.658 330.951 556.952 331.305 557.15 331.759C557.351 332.214 557.452 332.75 557.452 333.366C557.452 333.978 557.349 334.515 557.144 334.977C556.942 335.436 556.645 335.793 556.253 336.05C555.864 336.303 555.389 336.43 554.828 336.43C554.267 336.43 553.79 336.307 553.398 336.061C553.009 335.812 552.712 335.458 552.507 334.999C552.305 334.541 552.204 334 552.204 333.377C552.204 332.772 552.305 332.24 552.507 331.781C552.712 331.323 553.011 330.965 553.403 330.709C553.796 330.448 554.272 330.318 554.834 330.318ZM554.834 331.275C554.39 331.275 554.056 331.446 553.832 331.787C553.609 332.124 553.497 332.654 553.497 333.377C553.497 334.095 553.607 334.625 553.827 334.966C554.051 335.308 554.384 335.478 554.828 335.478C555.272 335.478 555.604 335.308 555.824 334.966C556.048 334.625 556.159 334.092 556.159 333.366C556.159 332.651 556.049 332.124 555.829 331.787C555.609 331.446 555.277 331.275 554.834 331.275ZM559.159 336.281V335.401H560.011V331.347H559.159V330.472H560.952L561.178 331.82C561.394 331.332 561.662 330.962 561.981 330.709C562.303 330.452 562.718 330.324 563.224 330.324C563.396 330.324 563.55 330.338 563.686 330.368C563.825 330.393 563.963 330.428 564.099 330.472L563.73 331.528C563.613 331.495 563.503 331.471 563.4 331.457C563.297 331.438 563.184 331.429 563.059 331.429C562.637 331.429 562.272 331.587 561.964 331.902C561.66 332.218 561.42 332.665 561.244 333.245V335.401H562.415V336.281H559.159ZM563.009 332.612V331.182L563.163 330.472H564.099L563.89 332.612H563.009ZM567.026 335.434C567.026 335.166 567.122 334.937 567.313 334.746C567.503 334.552 567.738 334.455 568.017 334.455C568.299 334.455 568.534 334.552 568.721 334.746C568.912 334.937 569.007 335.166 569.007 335.434C569.007 335.709 568.912 335.944 568.721 336.138C568.534 336.333 568.299 336.43 568.017 336.43C567.738 336.43 567.503 336.333 567.313 336.138C567.122 335.944 567.026 335.709 567.026 335.434ZM567.026 331.528C567.026 331.349 567.07 331.184 567.158 331.033C567.247 330.883 567.366 330.764 567.516 330.676C567.666 330.588 567.833 330.544 568.017 330.544C568.299 330.544 568.534 330.641 568.721 330.835C568.912 331.026 569.007 331.257 569.007 331.528C569.007 331.8 568.912 332.034 568.721 332.232C568.534 332.427 568.299 332.524 568.017 332.524C567.738 332.524 567.503 332.427 567.313 332.232C567.122 332.034 567.026 331.8 567.026 331.528ZM583.714 328.657V333.536C583.714 333.98 583.646 334.382 583.51 334.741C583.375 335.1 583.175 335.407 582.911 335.66C582.65 335.913 582.329 336.107 581.948 336.243C581.57 336.378 581.137 336.446 580.65 336.446C580.158 336.446 579.733 336.384 579.373 336.259C579.018 336.131 578.675 335.955 578.345 335.731L579.032 334.62C579.293 334.8 579.537 334.926 579.764 334.999C579.991 335.069 580.25 335.104 580.54 335.104C580.932 335.104 581.258 334.979 581.519 334.73C581.783 334.477 581.915 334.086 581.915 333.558V329.977H579.571V328.657H583.714ZM587.813 330.247C588.415 330.247 588.926 330.375 589.348 330.632C589.77 330.888 590.093 331.25 590.316 331.715C590.54 332.177 590.652 332.72 590.652 333.344C590.652 333.993 590.538 334.552 590.311 335.021C590.087 335.487 589.764 335.845 589.343 336.094C588.921 336.344 588.411 336.468 587.813 336.468C587.219 336.468 586.709 336.345 586.284 336.1C585.862 335.854 585.538 335.498 585.31 335.032C585.087 334.567 584.975 334.007 584.975 333.355C584.975 332.735 585.087 332.192 585.31 331.726C585.538 331.261 585.862 330.897 586.284 330.637C586.709 330.377 587.219 330.247 587.813 330.247ZM587.813 331.528C587.458 331.528 587.193 331.675 587.021 331.968C586.852 332.258 586.768 332.72 586.768 333.355C586.768 334 586.852 334.468 587.021 334.757C587.193 335.047 587.458 335.192 587.813 335.192C588.169 335.192 588.431 335.047 588.6 334.757C588.772 334.468 588.858 333.996 588.858 333.344C588.858 332.713 588.772 332.253 588.6 331.963C588.431 331.673 588.169 331.528 587.813 331.528ZM594.223 335.225C594.513 335.225 594.746 335.179 594.922 335.088C595.102 334.996 595.191 334.858 595.191 334.675C595.191 334.55 595.157 334.446 595.087 334.361C595.017 334.277 594.883 334.196 594.685 334.119C594.487 334.042 594.194 333.951 593.805 333.844C593.449 333.749 593.134 333.628 592.859 333.481C592.588 333.334 592.375 333.146 592.221 332.915C592.07 332.684 591.995 332.396 591.995 332.051C591.995 331.702 592.092 331.393 592.287 331.121C592.481 330.85 592.767 330.637 593.145 330.483C593.523 330.325 593.985 330.247 594.531 330.247C595.052 330.247 595.505 330.314 595.89 330.45C596.279 330.582 596.614 330.751 596.897 330.956L596.204 331.979C595.962 331.829 595.701 331.71 595.423 331.622C595.144 331.53 594.863 331.484 594.581 331.484C594.298 331.484 594.088 331.523 593.948 331.6C593.813 331.673 593.745 331.785 593.745 331.935C593.745 332.034 593.78 332.121 593.849 332.194C593.923 332.264 594.058 332.337 594.256 332.414C594.454 332.487 594.744 332.579 595.125 332.689C595.503 332.795 595.831 332.918 596.11 333.058C596.393 333.197 596.611 333.384 596.765 333.619C596.919 333.85 596.996 334.156 596.996 334.537C596.996 334.963 596.869 335.32 596.616 335.61C596.363 335.896 596.028 336.111 595.61 336.254C595.191 336.397 594.733 336.468 594.234 336.468C593.669 336.468 593.171 336.388 592.738 336.226C592.305 336.065 591.937 335.852 591.632 335.588L592.507 334.609C592.734 334.785 592.991 334.932 593.277 335.049C593.567 335.166 593.882 335.225 594.223 335.225ZM599.984 333.866C600.024 334.185 600.107 334.444 600.232 334.642C600.36 334.836 600.523 334.979 600.721 335.071C600.919 335.159 601.141 335.203 601.387 335.203C601.655 335.203 601.913 335.159 602.163 335.071C602.412 334.983 602.652 334.866 602.883 334.719L603.582 335.665C603.307 335.9 602.973 336.092 602.581 336.243C602.192 336.393 601.748 336.468 601.249 336.468C600.582 336.468 600.023 336.336 599.572 336.072C599.12 335.804 598.781 335.438 598.554 334.972C598.326 334.506 598.213 333.971 598.213 333.366C598.213 332.79 598.323 332.267 598.543 331.798C598.763 331.325 599.084 330.949 599.506 330.67C599.931 330.388 600.45 330.247 601.062 330.247C601.62 330.247 602.102 330.366 602.509 330.604C602.92 330.842 603.237 331.185 603.461 331.633C603.688 332.08 603.802 332.618 603.802 333.245C603.802 333.344 603.798 333.45 603.791 333.564C603.787 333.677 603.78 333.778 603.769 333.866H599.984ZM601.062 331.413C600.751 331.413 600.499 331.525 600.309 331.748C600.118 331.972 600.002 332.33 599.962 332.821H602.108C602.104 332.396 602.021 332.055 601.86 331.798C601.699 331.541 601.433 331.413 601.062 331.413ZM608.309 330.247C608.818 330.247 609.229 330.373 609.541 330.626C609.852 330.879 610.08 331.237 610.223 331.699C610.37 332.161 610.443 332.709 610.443 333.344C610.443 333.945 610.355 334.482 610.179 334.955C610.003 335.425 609.748 335.795 609.414 336.067C609.081 336.334 608.675 336.468 608.198 336.468C607.63 336.468 607.168 336.265 606.812 335.858V338.537L605.074 338.718V330.439H606.614L606.691 331.094C606.93 330.789 607.19 330.573 607.472 330.445C607.755 330.313 608.033 330.247 608.309 330.247ZM607.769 331.528C607.568 331.528 607.39 331.589 607.236 331.71C607.082 331.831 606.941 331.996 606.812 332.205V334.669C606.933 334.849 607.06 334.981 607.192 335.066C607.327 335.15 607.487 335.192 607.67 335.192C607.978 335.192 608.219 335.053 608.391 334.774C608.563 334.492 608.65 334.022 608.65 333.366C608.65 332.882 608.615 332.507 608.545 332.243C608.475 331.976 608.375 331.791 608.242 331.688C608.11 331.581 607.953 331.528 607.769 331.528ZM613.409 327.947V331.017C613.655 330.756 613.921 330.564 614.207 330.439C614.497 330.311 614.803 330.247 615.126 330.247C615.646 330.247 616.044 330.399 616.319 330.703C616.594 331.008 616.732 331.437 616.732 331.99V336.281H614.994V332.474C614.994 332.122 614.953 331.877 614.873 331.737C614.796 331.598 614.649 331.528 614.432 331.528C614.311 331.528 614.192 331.558 614.075 331.616C613.961 331.671 613.849 331.752 613.739 331.858C613.629 331.965 613.519 332.091 613.409 332.238V336.281H611.671V328.118L613.409 327.947ZM630.344 334.053C630.344 334.526 630.219 334.944 629.97 335.308C629.724 335.671 629.37 335.955 628.908 336.16C628.446 336.366 627.891 336.468 627.241 336.468C626.523 336.468 625.919 336.364 625.432 336.155C624.947 335.942 624.546 335.68 624.227 335.368L625.14 334.356C625.422 334.602 625.734 334.792 626.075 334.928C626.416 335.06 626.79 335.126 627.197 335.126C627.45 335.126 627.672 335.089 627.863 335.016C628.054 334.943 628.202 334.836 628.309 334.697C628.415 334.558 628.468 334.389 628.468 334.191C628.468 334.004 628.426 333.846 628.342 333.718C628.257 333.589 628.114 333.474 627.913 333.371C627.715 333.268 627.438 333.164 627.082 333.058C626.488 332.874 626.009 332.673 625.646 332.452C625.287 332.232 625.024 331.978 624.859 331.688C624.698 331.398 624.617 331.061 624.617 330.676C624.617 330.21 624.746 329.812 625.002 329.482C625.263 329.152 625.611 328.901 626.048 328.728C626.484 328.552 626.965 328.464 627.489 328.464C628.079 328.464 628.6 328.55 629.051 328.723C629.502 328.891 629.893 329.133 630.223 329.449L629.37 330.428C629.114 330.212 628.837 330.052 628.54 329.949C628.243 329.843 627.94 329.79 627.632 329.79C627.405 329.79 627.205 329.819 627.032 329.878C626.86 329.933 626.726 330.015 626.631 330.126C626.535 330.236 626.488 330.373 626.488 330.538C626.488 330.699 626.534 330.835 626.625 330.945C626.717 331.055 626.877 331.16 627.104 331.259C627.331 331.354 627.647 331.466 628.05 331.594C628.531 331.741 628.941 331.917 629.282 332.122C629.627 332.324 629.889 332.579 630.069 332.887C630.252 333.195 630.344 333.584 630.344 334.053ZM636.38 334.598C636.38 334.818 636.409 334.977 636.468 335.077C636.53 335.176 636.629 335.251 636.765 335.302L636.407 336.446C636.063 336.413 635.771 336.338 635.533 336.221C635.298 336.1 635.113 335.918 634.977 335.676C634.753 335.944 634.467 336.144 634.119 336.276C633.771 336.404 633.415 336.468 633.052 336.468C632.45 336.468 631.97 336.298 631.611 335.957C631.255 335.612 631.077 335.17 631.077 334.631C631.077 333.996 631.324 333.507 631.82 333.162C632.318 332.817 633.019 332.645 633.921 332.645H634.708V332.425C634.708 332.121 634.609 331.895 634.411 331.748C634.216 331.602 633.93 331.528 633.552 331.528C633.365 331.528 633.125 331.556 632.832 331.611C632.538 331.662 632.245 331.737 631.952 331.836L631.55 330.681C631.928 330.538 632.32 330.43 632.727 330.357C633.138 330.283 633.505 330.247 633.827 330.247C634.697 330.247 635.338 330.424 635.753 330.78C636.171 331.132 636.38 331.642 636.38 332.309V334.598ZM633.651 335.225C633.838 335.225 634.035 335.17 634.24 335.06C634.445 334.946 634.601 334.787 634.708 334.581V333.635H634.279C633.794 333.635 633.439 333.71 633.211 333.861C632.984 334.007 632.87 334.224 632.87 334.51C632.87 334.734 632.938 334.91 633.074 335.038C633.213 335.163 633.406 335.225 633.651 335.225ZM638.059 336.281V330.439H639.577L639.698 331.116C639.959 330.822 640.234 330.604 640.524 330.461C640.813 330.318 641.143 330.247 641.514 330.247C642.012 330.247 642.405 330.399 642.691 330.703C642.977 331.008 643.12 331.437 643.12 331.99V336.281H641.382V332.491C641.382 332.253 641.365 332.064 641.332 331.924C641.299 331.781 641.241 331.68 641.156 331.622C641.075 331.559 640.964 331.528 640.821 331.528C640.7 331.528 640.58 331.556 640.463 331.611C640.349 331.662 640.237 331.737 640.127 331.836C640.017 331.935 639.907 332.055 639.797 332.194V336.281H638.059ZM649.915 335.94C649.688 336.087 649.413 336.212 649.09 336.314C648.767 336.417 648.404 336.468 648.001 336.468C647.238 336.468 646.671 336.274 646.301 335.885C645.93 335.493 645.745 334.961 645.745 334.29V331.638H644.519V330.439H645.745V329.174L647.484 328.965V330.439H649.365L649.194 331.638H647.484V334.29C647.484 334.58 647.55 334.787 647.682 334.911C647.814 335.036 648.025 335.099 648.314 335.099C648.52 335.099 648.707 335.075 648.875 335.027C649.048 334.976 649.202 334.911 649.338 334.834L649.915 335.94ZM654.823 330.439V335.093H656.309V336.281H651.429V335.093H653.085V331.627H651.484V330.439H654.823ZM653.773 327.38C654.073 327.38 654.319 327.474 654.51 327.661C654.7 327.848 654.796 328.081 654.796 328.36C654.796 328.638 654.7 328.873 654.51 329.064C654.319 329.251 654.073 329.344 653.773 329.344C653.468 329.344 653.219 329.251 653.024 329.064C652.834 328.873 652.738 328.638 652.738 328.36C652.738 328.081 652.834 327.848 653.024 327.661C653.219 327.474 653.468 327.38 653.773 327.38ZM662.768 334.598C662.768 334.818 662.797 334.977 662.856 335.077C662.918 335.176 663.018 335.251 663.153 335.302L662.796 336.446C662.451 336.413 662.159 336.338 661.921 336.221C661.686 336.1 661.501 335.918 661.365 335.676C661.142 335.944 660.856 336.144 660.507 336.276C660.159 336.404 659.803 336.468 659.44 336.468C658.838 336.468 658.358 336.298 657.999 335.957C657.643 335.612 657.465 335.17 657.465 334.631C657.465 333.996 657.713 333.507 658.208 333.162C658.706 332.817 659.407 332.645 660.309 332.645H661.096V332.425C661.096 332.121 660.997 331.895 660.799 331.748C660.604 331.602 660.318 331.528 659.941 331.528C659.754 331.528 659.513 331.556 659.22 331.611C658.927 331.662 658.633 331.737 658.34 331.836L657.938 330.681C658.316 330.538 658.708 330.43 659.115 330.357C659.526 330.283 659.893 330.247 660.216 330.247C661.085 330.247 661.727 330.424 662.141 330.78C662.559 331.132 662.768 331.642 662.768 332.309V334.598ZM660.04 335.225C660.227 335.225 660.423 335.17 660.628 335.06C660.834 334.946 660.989 334.787 661.096 334.581V333.635H660.667C660.183 333.635 659.827 333.71 659.599 333.861C659.372 334.007 659.258 334.224 659.258 334.51C659.258 334.734 659.326 334.91 659.462 335.038C659.601 335.163 659.794 335.225 660.04 335.225ZM669.635 329.504L670.042 330.78C669.836 330.861 669.596 330.92 669.321 330.956C669.046 330.993 668.725 331.011 668.358 331.011C668.725 331.169 669.004 331.365 669.195 331.6C669.389 331.831 669.486 332.135 669.486 332.513C669.486 332.891 669.385 333.228 669.184 333.525C668.982 333.819 668.696 334.05 668.325 334.218C667.955 334.387 667.517 334.471 667.011 334.471C666.886 334.471 666.769 334.466 666.659 334.455C666.549 334.444 666.44 334.427 666.334 334.405C666.272 334.438 666.224 334.486 666.191 334.548C666.158 334.611 666.141 334.675 666.141 334.741C666.141 334.833 666.178 334.915 666.252 334.988C666.329 335.062 666.506 335.099 666.785 335.099H667.742C668.197 335.099 668.589 335.172 668.92 335.319C669.253 335.465 669.512 335.665 669.695 335.918C669.879 336.171 669.97 336.461 669.97 336.787C669.97 337.385 669.708 337.856 669.184 338.201C668.659 338.546 667.88 338.718 666.846 338.718C666.097 338.718 665.518 338.641 665.107 338.487C664.7 338.337 664.416 338.12 664.255 337.838C664.097 337.559 664.018 337.227 664.018 336.842H665.558C665.558 337.011 665.591 337.149 665.657 337.255C665.727 337.365 665.857 337.446 666.048 337.497C666.242 337.548 666.523 337.574 666.89 337.574C667.26 337.574 667.542 337.545 667.737 337.486C667.931 337.427 668.063 337.347 668.133 337.244C668.206 337.145 668.243 337.033 668.243 336.908C668.243 336.736 668.175 336.597 668.039 336.49C667.904 336.384 667.689 336.331 667.396 336.331H666.466C665.835 336.331 665.377 336.215 665.091 335.984C664.805 335.749 664.662 335.476 664.662 335.165C664.662 334.948 664.719 334.743 664.832 334.548C664.95 334.354 665.113 334.191 665.322 334.059C664.948 333.861 664.68 333.628 664.519 333.36C664.357 333.089 664.277 332.764 664.277 332.386C664.277 331.946 664.388 331.569 664.612 331.253C664.836 330.934 665.144 330.688 665.536 330.516C665.932 330.344 666.384 330.258 666.89 330.258C667.326 330.265 667.706 330.236 668.028 330.17C668.351 330.1 668.641 330.006 668.898 329.889C669.154 329.768 669.4 329.64 669.635 329.504ZM666.934 331.385C666.659 331.385 666.44 331.473 666.279 331.649C666.118 331.822 666.037 332.06 666.037 332.364C666.037 332.687 666.119 332.935 666.285 333.107C666.45 333.279 666.666 333.366 666.934 333.366C667.223 333.366 667.443 333.279 667.594 333.107C667.748 332.935 667.825 332.68 667.825 332.342C667.825 332.016 667.75 331.776 667.599 331.622C667.449 331.464 667.227 331.385 666.934 331.385ZM673.575 330.247C674.176 330.247 674.688 330.375 675.11 330.632C675.531 330.888 675.854 331.25 676.078 331.715C676.301 332.177 676.413 332.72 676.413 333.344C676.413 333.993 676.3 334.552 676.072 335.021C675.849 335.487 675.526 335.845 675.104 336.094C674.682 336.344 674.173 336.468 673.575 336.468C672.981 336.468 672.471 336.345 672.045 336.1C671.624 335.854 671.299 335.498 671.072 335.032C670.848 334.567 670.736 334.007 670.736 333.355C670.736 332.735 670.848 332.192 671.072 331.726C671.299 331.261 671.624 330.897 672.045 330.637C672.471 330.377 672.981 330.247 673.575 330.247ZM673.575 331.528C673.219 331.528 672.955 331.675 672.783 331.968C672.614 332.258 672.53 332.72 672.53 333.355C672.53 334 672.614 334.468 672.783 334.757C672.955 335.047 673.219 335.192 673.575 335.192C673.93 335.192 674.193 335.047 674.361 334.757C674.534 334.468 674.62 333.996 674.62 333.344C674.62 332.713 674.534 332.253 674.361 331.963C674.193 331.673 673.93 331.528 673.575 331.528ZM687.952 331.143C687.952 330.872 687.9 330.648 687.797 330.472C687.698 330.292 687.546 330.16 687.341 330.076C687.139 329.988 686.884 329.944 686.576 329.944H685.96V332.436H686.67C686.937 332.436 687.167 332.39 687.357 332.298C687.548 332.207 687.695 332.066 687.797 331.875C687.9 331.684 687.952 331.44 687.952 331.143ZM689.811 331.138C689.811 331.728 689.684 332.216 689.431 332.601C689.178 332.986 688.824 333.274 688.37 333.465C687.915 333.652 687.387 333.745 686.785 333.745H685.96V336.281H684.156V328.657H686.554C687.588 328.657 688.39 328.862 688.958 329.273C689.527 329.684 689.811 330.305 689.811 331.138ZM693.366 330.247C693.967 330.247 694.479 330.375 694.901 330.632C695.322 330.888 695.645 331.25 695.869 331.715C696.093 332.177 696.204 332.72 696.204 333.344C696.204 333.993 696.091 334.552 695.863 335.021C695.64 335.487 695.317 335.845 694.895 336.094C694.473 336.344 693.964 336.468 693.366 336.468C692.772 336.468 692.262 336.345 691.836 336.1C691.415 335.854 691.09 335.498 690.863 335.032C690.639 334.567 690.527 334.007 690.527 333.355C690.527 332.735 690.639 332.192 690.863 331.726C691.09 331.261 691.415 330.897 691.836 330.637C692.262 330.377 692.772 330.247 693.366 330.247ZM693.366 331.528C693.01 331.528 692.746 331.675 692.574 331.968C692.405 332.258 692.321 332.72 692.321 333.355C692.321 334 692.405 334.468 692.574 334.757C692.746 335.047 693.01 335.192 693.366 335.192C693.722 335.192 693.984 335.047 694.152 334.757C694.325 334.468 694.411 333.996 694.411 333.344C694.411 332.713 694.325 332.253 694.152 331.963C693.984 331.673 693.722 331.528 693.366 331.528ZM697.487 336.281V335.115H698.257V331.594H697.487V330.439H699.583L699.902 331.754C700.111 331.251 700.377 330.877 700.7 330.632C701.026 330.386 701.424 330.263 701.894 330.263C702.092 330.263 702.268 330.28 702.422 330.313C702.576 330.342 702.721 330.384 702.856 330.439L702.328 331.875C702.222 331.846 702.116 331.824 702.009 331.809C701.903 331.794 701.786 331.787 701.657 331.787C701.276 331.787 700.94 331.943 700.65 332.254C700.364 332.566 700.146 332.962 699.996 333.443V335.115H701.151V336.281H697.487ZM701.443 332.882V331.176L701.701 330.439H702.856L702.532 332.882H701.443ZM709.288 335.94C709.061 336.087 708.786 336.212 708.463 336.314C708.141 336.417 707.777 336.468 707.374 336.468C706.611 336.468 706.045 336.274 705.674 335.885C705.304 335.493 705.119 334.961 705.119 334.29V331.638H703.892V330.439H705.119V329.174L706.857 328.965V330.439H708.738L708.568 331.638H706.857V334.29C706.857 334.58 706.923 334.787 707.055 334.911C707.187 335.036 707.398 335.099 707.688 335.099C707.893 335.099 708.08 335.075 708.249 335.027C708.421 334.976 708.575 334.911 708.711 334.834L709.288 335.94ZM714.197 330.439V335.093H715.682V336.281H710.802V335.093H712.458V331.627H710.857V330.439H714.197ZM713.146 327.38C713.447 327.38 713.692 327.474 713.883 327.661C714.074 327.848 714.169 328.081 714.169 328.36C714.169 328.638 714.074 328.873 713.883 329.064C713.692 329.251 713.447 329.344 713.146 329.344C712.842 329.344 712.592 329.251 712.398 329.064C712.207 328.873 712.112 328.638 712.112 328.36C712.112 328.081 712.207 327.848 712.398 327.661C712.592 327.474 712.842 327.38 713.146 327.38ZM720.271 328.118V334.444C720.271 334.679 720.337 334.847 720.469 334.95C720.605 335.049 720.79 335.099 721.025 335.099C721.175 335.099 721.32 335.082 721.459 335.049C721.599 335.012 721.729 334.97 721.85 334.922L722.268 336.083C722.07 336.186 721.832 336.276 721.553 336.353C721.274 336.43 720.95 336.468 720.579 336.468C719.875 336.468 719.358 336.267 719.028 335.863C718.698 335.456 718.533 334.911 718.533 334.229V329.306H716.811V328.118H720.271ZM726.868 328.118V334.444C726.868 334.679 726.934 334.847 727.066 334.95C727.202 335.049 727.387 335.099 727.622 335.099C727.772 335.099 727.917 335.082 728.056 335.049C728.196 335.012 728.326 334.97 728.447 334.922L728.865 336.083C728.667 336.186 728.429 336.276 728.15 336.353C727.871 336.43 727.547 336.468 727.176 336.468C726.472 336.468 725.955 336.267 725.625 335.863C725.295 335.456 725.13 334.911 725.13 334.229V329.306H723.408V328.118H726.868ZM735.336 334.598C735.336 334.818 735.365 334.977 735.424 335.077C735.486 335.176 735.585 335.251 735.721 335.302L735.363 336.446C735.018 336.413 734.727 336.338 734.488 336.221C734.254 336.1 734.068 335.918 733.933 335.676C733.709 335.944 733.423 336.144 733.075 336.276C732.726 336.404 732.37 336.468 732.007 336.468C731.406 336.468 730.925 336.298 730.566 335.957C730.21 335.612 730.032 335.17 730.032 334.631C730.032 333.996 730.28 333.507 730.775 333.162C731.274 332.817 731.974 332.645 732.877 332.645H733.663V332.425C733.663 332.121 733.564 331.895 733.366 331.748C733.172 331.602 732.886 331.528 732.508 331.528C732.321 331.528 732.081 331.556 731.787 331.611C731.494 331.662 731.201 331.737 730.907 331.836L730.506 330.681C730.883 330.538 731.276 330.43 731.683 330.357C732.094 330.283 732.46 330.247 732.783 330.247C733.652 330.247 734.294 330.424 734.708 330.78C735.126 331.132 735.336 331.642 735.336 332.309V334.598ZM732.607 335.225C732.794 335.225 732.99 335.17 733.196 335.06C733.401 334.946 733.557 334.787 733.663 334.581V333.635H733.234C732.75 333.635 732.394 333.71 732.167 333.861C731.939 334.007 731.826 334.224 731.826 334.51C731.826 334.734 731.894 334.91 732.029 335.038C732.169 335.163 732.361 335.225 732.607 335.225ZM737.163 333.514V332.161H741.927V333.514H737.163ZM748.821 328.657L749.25 336.281H747.677L747.583 333.019C747.576 332.715 747.572 332.443 747.572 332.205C747.576 331.967 747.582 331.743 747.589 331.534C747.596 331.321 747.607 331.108 747.622 330.896C747.64 330.679 747.659 330.445 747.677 330.192L746.819 334.983H745.454L744.53 330.192C744.552 330.434 744.571 330.663 744.585 330.879C744.604 331.092 744.616 331.306 744.624 331.523C744.631 331.739 744.637 331.972 744.64 332.221C744.644 332.467 744.642 332.742 744.635 333.047L744.58 336.281H743.034L743.463 328.657H745.317L746.164 333.586L746.967 328.657H748.821ZM755.127 334.598C755.127 334.818 755.156 334.977 755.215 335.077C755.277 335.176 755.376 335.251 755.512 335.302L755.154 336.446C754.809 336.413 754.518 336.338 754.279 336.221C754.045 336.1 753.86 335.918 753.724 335.676C753.5 335.944 753.214 336.144 752.866 336.276C752.517 336.404 752.161 336.468 751.798 336.468C751.197 336.468 750.717 336.298 750.357 335.957C750.001 335.612 749.824 335.17 749.824 334.631C749.824 333.996 750.071 333.507 750.566 333.162C751.065 332.817 751.765 332.645 752.668 332.645H753.454V332.425C753.454 332.121 753.355 331.895 753.157 331.748C752.963 331.602 752.677 331.528 752.299 331.528C752.112 331.528 751.872 331.556 751.578 331.611C751.285 331.662 750.992 331.737 750.698 331.836L750.297 330.681C750.674 330.538 751.067 330.43 751.474 330.357C751.885 330.283 752.251 330.247 752.574 330.247C753.443 330.247 754.085 330.424 754.499 330.78C754.918 331.132 755.127 331.642 755.127 332.309V334.598ZM752.398 335.225C752.585 335.225 752.781 335.17 752.987 335.06C753.192 334.946 753.348 334.787 753.454 334.581V333.635H753.025C752.541 333.635 752.185 333.71 751.958 333.861C751.731 334.007 751.617 334.224 751.617 334.51C751.617 334.734 751.685 334.91 751.82 335.038C751.96 335.163 752.152 335.225 752.398 335.225ZM756.861 336.281V335.115H757.631V331.594H756.861V330.439H758.957L759.276 331.754C759.485 331.251 759.751 330.877 760.073 330.632C760.4 330.386 760.798 330.263 761.267 330.263C761.465 330.263 761.641 330.28 761.795 330.313C761.949 330.342 762.094 330.384 762.23 330.439L761.702 331.875C761.595 331.846 761.489 331.824 761.383 331.809C761.276 331.794 761.159 331.787 761.03 331.787C760.649 331.787 760.314 331.943 760.024 332.254C759.738 332.566 759.52 332.962 759.369 333.443V335.115H760.524V336.281H756.861ZM760.816 332.882V331.176L761.074 330.439H762.23L761.905 332.882H760.816ZM768.662 335.94C768.434 336.087 768.159 336.212 767.837 336.314C767.514 336.417 767.151 336.468 766.747 336.468C765.985 336.468 765.418 336.274 765.048 335.885C764.677 335.493 764.492 334.961 764.492 334.29V331.638H763.265V330.439H764.492V329.174L766.23 328.965V330.439H768.112L767.941 331.638H766.23V334.29C766.23 334.58 766.296 334.787 766.428 334.911C766.56 335.036 766.771 335.099 767.061 335.099C767.266 335.099 767.453 335.075 767.622 335.027C767.794 334.976 767.948 334.911 768.084 334.834L768.662 335.94ZM773.57 330.439V335.093H775.055V336.281H770.176V335.093H771.832V331.627H770.231V330.439H773.57ZM773.355 327.094L774.032 328.404L771.435 329.432L770.957 328.552L773.355 327.094ZM776.597 336.281V330.439H778.115L778.236 331.116C778.496 330.822 778.772 330.604 779.061 330.461C779.351 330.318 779.681 330.247 780.051 330.247C780.55 330.247 780.943 330.399 781.229 330.703C781.515 331.008 781.658 331.437 781.658 331.99V336.281H779.919V332.491C779.919 332.253 779.903 332.064 779.87 331.924C779.837 331.781 779.778 331.68 779.694 331.622C779.613 331.559 779.501 331.528 779.358 331.528C779.237 331.528 779.118 331.556 779.001 331.611C778.887 331.662 778.775 331.737 778.665 331.836C778.555 331.935 778.445 332.055 778.335 332.194V336.281H776.597ZM784.701 333.866C784.741 334.185 784.824 334.444 784.949 334.642C785.077 334.836 785.24 334.979 785.438 335.071C785.636 335.159 785.858 335.203 786.104 335.203C786.372 335.203 786.63 335.159 786.88 335.071C787.129 334.983 787.369 334.866 787.6 334.719L788.299 335.665C788.024 335.9 787.69 336.092 787.298 336.243C786.909 336.393 786.465 336.468 785.966 336.468C785.299 336.468 784.74 336.336 784.288 336.072C783.837 335.804 783.498 335.438 783.271 334.972C783.043 334.506 782.93 333.971 782.93 333.366C782.93 332.79 783.04 332.267 783.26 331.798C783.48 331.325 783.801 330.949 784.222 330.67C784.648 330.388 785.167 330.247 785.779 330.247C786.337 330.247 786.819 330.366 787.226 330.604C787.637 330.842 787.954 331.185 788.178 331.633C788.405 332.08 788.519 332.618 788.519 333.245C788.519 333.344 788.515 333.45 788.508 333.564C788.504 333.677 788.497 333.778 788.486 333.866H784.701ZM785.779 331.413C785.468 331.413 785.216 331.525 785.026 331.748C784.835 331.972 784.719 332.33 784.679 332.821H786.825C786.821 332.396 786.738 332.055 786.577 331.798C786.416 331.541 786.15 331.413 785.779 331.413ZM791.865 334.966H794.791L794.626 336.281H789.813V335.055L792.712 331.748H790.055V330.439H794.736V331.66L791.865 334.966ZM806.077 326.379V339.582H804.954V326.379H806.077ZM818.544 328.536C819.095 328.536 819.564 328.616 819.953 328.778C820.341 328.935 820.662 329.157 820.915 329.443C821.172 329.726 821.372 330.059 821.515 330.445C821.658 330.83 821.759 331.248 821.818 331.699C821.876 332.15 821.906 332.618 821.906 333.102C821.906 334.026 821.862 334.8 821.774 335.423C821.686 336.043 821.521 336.509 821.278 336.82C821.04 337.136 820.695 337.293 820.244 337.293C820.024 337.293 819.832 337.244 819.667 337.145C819.505 337.046 819.371 336.918 819.265 336.76C819.162 336.606 819.084 336.439 819.029 336.259C818.977 336.076 818.948 335.904 818.94 335.742H818.896C818.823 335.918 818.722 336.087 818.594 336.248C818.466 336.41 818.302 336.542 818.104 336.644C817.906 336.747 817.664 336.798 817.378 336.798C816.967 336.798 816.637 336.688 816.388 336.468C816.139 336.252 815.957 335.953 815.843 335.572C815.73 335.19 815.673 334.759 815.673 334.279C815.673 333.344 815.864 332.63 816.245 332.139C816.626 331.644 817.178 331.396 817.901 331.396C818.172 331.396 818.44 331.429 818.704 331.495C818.972 331.558 819.26 331.671 819.568 331.836V335.104C819.568 335.452 819.595 335.722 819.65 335.913C819.705 336.103 819.78 336.235 819.876 336.309C819.975 336.382 820.087 336.419 820.211 336.419C820.358 336.419 820.472 336.344 820.552 336.193C820.637 336.043 820.697 335.826 820.734 335.544C820.771 335.258 820.793 334.913 820.8 334.51C820.807 334.106 820.811 333.652 820.811 333.146C820.811 332.603 820.78 332.106 820.717 331.655C820.659 331.2 820.547 330.808 820.382 330.478C820.22 330.148 819.989 329.893 819.689 329.713C819.388 329.533 818.997 329.443 818.517 329.443C818.147 329.443 817.756 329.513 817.345 329.652C816.938 329.792 816.509 330.059 816.058 330.456L815.464 329.768C815.963 329.335 816.467 329.022 816.977 328.827C817.49 328.633 818.013 328.536 818.544 328.536ZM817.917 332.232C817.496 332.232 817.208 332.397 817.054 332.728C816.9 333.054 816.823 333.571 816.823 334.279C816.823 334.631 816.845 334.932 816.889 335.181C816.933 335.43 817.01 335.621 817.12 335.753C817.23 335.885 817.378 335.951 817.565 335.951C817.789 335.951 817.963 335.9 818.088 335.797C818.213 335.694 818.306 335.573 818.368 335.434C818.431 335.291 818.478 335.166 818.511 335.06V332.375C818.412 332.324 818.317 332.287 818.225 332.265C818.134 332.243 818.031 332.232 817.917 332.232ZM827.804 328.657V333.536C827.804 333.98 827.736 334.382 827.6 334.741C827.465 335.1 827.265 335.407 827.001 335.66C826.74 335.913 826.42 336.107 826.038 336.243C825.66 336.378 825.228 336.446 824.74 336.446C824.248 336.446 823.823 336.384 823.464 336.259C823.108 336.131 822.765 335.955 822.435 335.731L823.123 334.62C823.383 334.8 823.627 334.926 823.854 334.999C824.082 335.069 824.34 335.104 824.63 335.104C825.022 335.104 825.349 334.979 825.609 334.73C825.873 334.477 826.005 334.086 826.005 333.558V329.977H823.662V328.657H827.804ZM831.904 330.247C832.505 330.247 833.017 330.375 833.438 330.632C833.86 330.888 834.183 331.25 834.407 331.715C834.63 332.177 834.742 332.72 834.742 333.344C834.742 333.993 834.628 334.552 834.401 335.021C834.177 335.487 833.855 335.845 833.433 336.094C833.011 336.344 832.501 336.468 831.904 336.468C831.309 336.468 830.8 336.345 830.374 336.1C829.952 335.854 829.628 335.498 829.401 335.032C829.177 334.567 829.065 334.007 829.065 333.355C829.065 332.735 829.177 332.192 829.401 331.726C829.628 331.261 829.952 330.897 830.374 330.637C830.8 330.377 831.309 330.247 831.904 330.247ZM831.904 331.528C831.548 331.528 831.284 331.675 831.111 331.968C830.943 332.258 830.858 332.72 830.858 333.355C830.858 334 830.943 334.468 831.111 334.757C831.284 335.047 831.548 335.192 831.904 335.192C832.259 335.192 832.521 335.047 832.69 334.757C832.863 334.468 832.949 333.996 832.949 333.344C832.949 332.713 832.863 332.253 832.69 331.963C832.521 331.673 832.259 331.528 831.904 331.528ZM837.477 333.866C837.518 334.185 837.6 334.444 837.725 334.642C837.853 334.836 838.016 334.979 838.214 335.071C838.413 335.159 838.634 335.203 838.88 335.203C839.148 335.203 839.406 335.159 839.656 335.071C839.905 334.983 840.145 334.866 840.376 334.719L841.075 335.665C840.8 335.9 840.466 336.092 840.074 336.243C839.685 336.393 839.241 336.468 838.743 336.468C838.075 336.468 837.516 336.336 837.065 336.072C836.614 335.804 836.274 335.438 836.047 334.972C835.82 334.506 835.706 333.971 835.706 333.366C835.706 332.79 835.816 332.267 836.036 331.798C836.256 331.325 836.577 330.949 836.999 330.67C837.424 330.388 837.943 330.247 838.556 330.247C839.113 330.247 839.595 330.366 840.002 330.604C840.413 330.842 840.73 331.185 840.954 331.633C841.181 332.08 841.295 332.618 841.295 333.245C841.295 333.344 841.291 333.45 841.284 333.564C841.28 333.677 841.273 333.778 841.262 333.866H837.477ZM838.556 331.413C838.244 331.413 837.993 331.525 837.802 331.748C837.611 331.972 837.496 332.33 837.455 332.821H839.601C839.597 332.396 839.515 332.055 839.353 331.798C839.192 331.541 838.926 331.413 838.556 331.413ZM846.28 331.143C846.28 330.872 846.229 330.648 846.126 330.472C846.027 330.292 845.875 330.16 845.67 330.076C845.468 329.988 845.213 329.944 844.905 329.944H844.289V332.436H844.999C845.266 332.436 845.496 332.39 845.686 332.298C845.877 332.207 846.024 332.066 846.126 331.875C846.229 331.684 846.28 331.44 846.28 331.143ZM848.14 331.138C848.14 331.728 848.013 332.216 847.76 332.601C847.507 332.986 847.153 333.274 846.698 333.465C846.244 333.652 845.716 333.745 845.114 333.745H844.289V336.281H842.485V328.657H844.883C845.917 328.657 846.719 328.862 847.287 329.273C847.855 329.684 848.14 330.305 848.14 331.138ZM851.695 330.247C852.296 330.247 852.808 330.375 853.229 330.632C853.651 330.888 853.974 331.25 854.198 331.715C854.421 332.177 854.533 332.72 854.533 333.344C854.533 333.993 854.42 334.552 854.192 335.021C853.968 335.487 853.646 335.845 853.224 336.094C852.802 336.344 852.292 336.468 851.695 336.468C851.1 336.468 850.591 336.345 850.165 336.1C849.744 335.854 849.419 335.498 849.192 335.032C848.968 334.567 848.856 334.007 848.856 333.355C848.856 332.735 848.968 332.192 849.192 331.726C849.419 331.261 849.744 330.897 850.165 330.637C850.591 330.377 851.1 330.247 851.695 330.247ZM851.695 331.528C851.339 331.528 851.075 331.675 850.902 331.968C850.734 332.258 850.649 332.72 850.649 333.355C850.649 334 850.734 334.468 850.902 334.757C851.075 335.047 851.339 335.192 851.695 335.192C852.05 335.192 852.313 335.047 852.481 334.757C852.654 334.468 852.74 333.996 852.74 333.344C852.74 332.713 852.654 332.253 852.481 331.963C852.313 331.673 852.05 331.528 851.695 331.528ZM855.816 336.281V335.115H856.586V331.594H855.816V330.439H857.912L858.231 331.754C858.44 331.251 858.706 330.877 859.029 330.632C859.355 330.386 859.753 330.263 860.223 330.263C860.421 330.263 860.597 330.28 860.751 330.313C860.905 330.342 861.05 330.384 861.185 330.439L860.657 331.875C860.551 331.846 860.444 331.824 860.338 331.809C860.232 331.794 860.114 331.787 859.986 331.787C859.605 331.787 859.269 331.943 858.979 332.254C858.693 332.566 858.475 332.962 858.325 333.443V335.115H859.48V336.281H855.816ZM859.771 332.882V331.176L860.03 330.439H861.185L860.861 332.882H859.771ZM867.617 335.94C867.39 336.087 867.115 336.212 866.792 336.314C866.469 336.417 866.106 336.468 865.703 336.468C864.94 336.468 864.373 336.274 864.003 335.885C863.633 335.493 863.447 334.961 863.447 334.29V331.638H862.221V330.439H863.447V329.174L865.186 328.965V330.439H867.067L866.897 331.638H865.186V334.29C865.186 334.58 865.252 334.787 865.384 334.911C865.516 335.036 865.727 335.099 866.016 335.099C866.222 335.099 866.409 335.075 866.578 335.027C866.75 334.976 866.904 334.911 867.04 334.834L867.617 335.94ZM872.525 330.439V335.093H874.011V336.281H869.131V335.093H870.787V331.627H869.186V330.439H872.525ZM871.475 327.38C871.775 327.38 872.021 327.474 872.212 327.661C872.403 327.848 872.498 328.081 872.498 328.36C872.498 328.638 872.403 328.873 872.212 329.064C872.021 329.251 871.775 329.344 871.475 329.344C871.17 329.344 870.921 329.251 870.727 329.064C870.536 328.873 870.441 328.638 870.441 328.36C870.441 328.081 870.536 327.848 870.727 327.661C870.921 327.474 871.17 327.38 871.475 327.38ZM878.6 328.118V334.444C878.6 334.679 878.666 334.847 878.798 334.95C878.934 335.049 879.119 335.099 879.354 335.099C879.504 335.099 879.649 335.082 879.788 335.049C879.927 335.012 880.058 334.97 880.179 334.922L880.597 336.083C880.399 336.186 880.16 336.276 879.882 336.353C879.603 336.43 879.278 336.468 878.908 336.468C878.204 336.468 877.687 336.267 877.357 335.863C877.027 335.456 876.862 334.911 876.862 334.229V329.306H875.14V328.118H878.6ZM885.197 328.118V334.444C885.197 334.679 885.263 334.847 885.395 334.95C885.531 335.049 885.716 335.099 885.951 335.099C886.101 335.099 886.246 335.082 886.385 335.049C886.524 335.012 886.655 334.97 886.776 334.922L887.194 336.083C886.996 336.186 886.757 336.276 886.479 336.353C886.2 336.43 885.875 336.468 885.505 336.468C884.801 336.468 884.284 336.267 883.954 335.863C883.624 335.456 883.459 334.911 883.459 334.229V329.306H881.737V328.118H885.197ZM893.664 334.598C893.664 334.818 893.694 334.977 893.752 335.077C893.815 335.176 893.914 335.251 894.049 335.302L893.692 336.446C893.347 336.413 893.056 336.338 892.817 336.221C892.582 336.1 892.397 335.918 892.262 335.676C892.038 335.944 891.752 336.144 891.403 336.276C891.055 336.404 890.699 336.468 890.336 336.468C889.735 336.468 889.254 336.298 888.895 335.957C888.539 335.612 888.361 335.17 888.361 334.631C888.361 333.996 888.609 333.507 889.104 333.162C889.603 332.817 890.303 332.645 891.205 332.645H891.992V332.425C891.992 332.121 891.893 331.895 891.695 331.748C891.501 331.602 891.214 331.528 890.837 331.528C890.65 331.528 890.409 331.556 890.116 331.611C889.823 331.662 889.529 331.737 889.236 331.836L888.834 330.681C889.212 330.538 889.604 330.43 890.012 330.357C890.422 330.283 890.789 330.247 891.112 330.247C891.981 330.247 892.623 330.424 893.037 330.78C893.455 331.132 893.664 331.642 893.664 332.309V334.598ZM890.936 335.225C891.123 335.225 891.319 335.17 891.524 335.06C891.73 334.946 891.886 334.787 891.992 334.581V333.635H891.563C891.079 333.635 890.723 333.71 890.496 333.861C890.268 334.007 890.155 334.224 890.155 334.51C890.155 334.734 890.222 334.91 890.358 335.038C890.498 335.163 890.69 335.225 890.936 335.225Z" fill="black"/>
<rect x="195" y="98" width="77.1792" height="77.1792" rx="2" fill="#0037AC"/>
<path d="M239.122 154H232.503V135.878C232.503 135.378 232.51 134.764 232.525 134.036C232.539 133.293 232.56 132.536 232.589 131.765C232.617 130.98 232.646 130.273 232.674 129.644C232.517 129.83 232.196 130.151 231.711 130.608C231.239 131.051 230.797 131.451 230.382 131.808L226.784 134.7L223.592 130.715L233.681 122.682H239.122V154Z" fill="white"/>
<rect x="274" y="98" width="77.1792" height="77.1792" rx="2" fill="#0037AC"/>
<path d="M323.649 154H301.757V149.394L309.618 141.447C311.203 139.819 312.474 138.463 313.431 137.377C314.402 136.278 315.102 135.278 315.53 134.378C315.973 133.479 316.194 132.515 316.194 131.487C316.194 130.244 315.844 129.316 315.145 128.702C314.459 128.073 313.538 127.759 312.381 127.759C311.167 127.759 309.989 128.038 308.847 128.595C307.704 129.152 306.512 129.944 305.27 130.972L301.671 126.71C302.571 125.938 303.52 125.21 304.52 124.525C305.534 123.839 306.705 123.289 308.033 122.875C309.375 122.447 310.982 122.233 312.853 122.233C314.909 122.233 316.673 122.604 318.144 123.347C319.629 124.089 320.771 125.103 321.571 126.388C322.371 127.659 322.771 129.102 322.771 130.715C322.771 132.443 322.428 134.021 321.742 135.449C321.057 136.877 320.057 138.291 318.743 139.691C317.444 141.09 315.873 142.64 314.031 144.339L310.004 148.131V148.431H323.649V154Z" fill="white"/>
<rect x="353" y="98" width="77.1792" height="77.1792" rx="2" fill="#0037AC"/>
<path d="M401.428 129.687C401.428 131.129 401.128 132.379 400.528 133.436C399.928 134.493 399.114 135.357 398.086 136.028C397.072 136.699 395.93 137.192 394.659 137.506V137.634C397.172 137.949 399.079 138.72 400.378 139.948C401.692 141.176 402.349 142.818 402.349 144.875C402.349 146.703 401.899 148.338 400.999 149.78C400.114 151.222 398.743 152.358 396.887 153.186C395.03 154.014 392.638 154.428 389.711 154.428C387.983 154.428 386.369 154.286 384.869 154C383.384 153.729 381.985 153.307 380.671 152.736V147.102C382.013 147.788 383.42 148.309 384.891 148.666C386.362 149.009 387.733 149.18 389.004 149.18C391.374 149.18 393.031 148.773 393.973 147.959C394.93 147.131 395.409 145.974 395.409 144.489C395.409 143.618 395.187 142.882 394.744 142.283C394.302 141.683 393.531 141.226 392.431 140.912C391.346 140.598 389.825 140.44 387.868 140.44H385.491V135.364H387.911C389.839 135.364 391.303 135.185 392.302 134.828C393.316 134.457 394.002 133.957 394.359 133.329C394.73 132.686 394.916 131.958 394.916 131.144C394.916 130.03 394.573 129.159 393.888 128.53C393.202 127.902 392.06 127.588 390.46 127.588C389.461 127.588 388.547 127.716 387.718 127.973C386.904 128.216 386.169 128.516 385.512 128.873C384.855 129.216 384.277 129.551 383.777 129.88L380.714 125.317C381.942 124.432 383.377 123.696 385.019 123.111C386.676 122.525 388.647 122.233 390.932 122.233C394.159 122.233 396.715 122.882 398.6 124.182C400.485 125.481 401.428 127.317 401.428 129.687Z" fill="white"/>
<rect x="195" y="177" width="77.1792" height="77.1792" rx="2" fill="#0037AC"/>
<path d="M245.356 226.509H241.586V233H235.116V226.509H221.75V221.904L235.481 201.682H241.586V221.368H245.356V226.509ZM235.116 221.368V216.056C235.116 215.556 235.124 214.964 235.138 214.278C235.166 213.593 235.195 212.907 235.224 212.222C235.252 211.536 235.281 210.929 235.309 210.401C235.352 209.858 235.381 209.48 235.395 209.266H235.224C234.952 209.851 234.667 210.422 234.367 210.979C234.067 211.522 233.717 212.093 233.317 212.693L227.576 221.368H235.116Z" fill="white"/>
<rect x="274" y="177" width="77.1792" height="77.1792" rx="2" fill="#0037AC"/>
<path d="M313.153 212.993C315.066 212.993 316.766 213.357 318.251 214.085C319.75 214.814 320.928 215.885 321.785 217.298C322.642 218.712 323.07 220.454 323.07 222.525C323.07 224.781 322.599 226.731 321.657 228.373C320.728 230.001 319.336 231.251 317.48 232.122C315.637 232.993 313.338 233.428 310.582 233.428C308.94 233.428 307.39 233.286 305.934 233C304.491 232.729 303.227 232.307 302.142 231.736V226.017C303.227 226.588 304.527 227.074 306.041 227.473C307.569 227.859 309.004 228.052 310.346 228.052C311.66 228.052 312.767 227.88 313.667 227.538C314.566 227.181 315.245 226.638 315.702 225.91C316.173 225.167 316.409 224.225 316.409 223.082C316.409 221.554 315.894 220.383 314.866 219.569C313.838 218.755 312.26 218.348 310.132 218.348C309.318 218.348 308.468 218.427 307.583 218.584C306.712 218.741 305.984 218.898 305.398 219.055L302.763 217.641L303.941 201.682H320.928V207.295H309.747L309.168 213.443C309.654 213.343 310.182 213.243 310.753 213.143C311.325 213.043 312.124 212.993 313.153 212.993Z" fill="white"/>
<rect x="353" y="177" width="77.1792" height="77.1792" rx="2" fill="#0037AC"/>
<path d="M380.542 219.698C380.542 217.898 380.671 216.12 380.928 214.364C381.199 212.593 381.663 210.929 382.32 209.373C382.977 207.802 383.898 206.417 385.084 205.217C386.269 204.003 387.775 203.053 389.603 202.368C391.431 201.668 393.645 201.318 396.244 201.318C396.858 201.318 397.572 201.347 398.386 201.404C399.214 201.447 399.9 201.525 400.442 201.64V206.931C399.871 206.802 399.257 206.702 398.6 206.631C397.958 206.545 397.315 206.502 396.672 206.502C394.073 206.502 392.06 206.916 390.632 207.745C389.218 208.573 388.218 209.722 387.633 211.193C387.061 212.65 386.726 214.349 386.626 216.292H386.904C387.304 215.592 387.804 214.971 388.404 214.428C389.018 213.885 389.76 213.457 390.632 213.143C391.503 212.814 392.524 212.65 393.695 212.65C395.523 212.65 397.108 213.043 398.45 213.828C399.793 214.599 400.828 215.72 401.556 217.191C402.285 218.662 402.649 220.454 402.649 222.568C402.649 224.824 402.213 226.766 401.342 228.394C400.471 230.022 399.236 231.272 397.636 232.143C396.051 233 394.166 233.428 391.981 233.428C390.382 233.428 388.889 233.157 387.504 232.614C386.119 232.057 384.905 231.215 383.863 230.087C382.82 228.959 382.006 227.538 381.421 225.824C380.835 224.096 380.542 222.054 380.542 219.698ZM391.853 228.137C393.152 228.137 394.209 227.695 395.023 226.809C395.837 225.924 396.244 224.539 396.244 222.654C396.244 221.126 395.887 219.926 395.173 219.055C394.473 218.17 393.409 217.727 391.981 217.727C391.01 217.727 390.153 217.948 389.411 218.391C388.682 218.819 388.118 219.369 387.718 220.04C387.318 220.697 387.119 221.376 387.119 222.075C387.119 222.804 387.219 223.525 387.418 224.239C387.618 224.953 387.918 225.603 388.318 226.188C388.718 226.774 389.211 227.245 389.796 227.602C390.396 227.959 391.081 228.137 391.853 228.137Z" fill="white"/>
<rect x="548" y="98" width="77.1792" height="77.1792" rx="2" fill="#08003C"/>
<path d="M578.863 154L590.623 128.252H575.178V122.682H597.649V126.838L585.803 154H578.863Z" fill="white"/>
<rect x="627" y="98" width="77.1792" height="77.1792" rx="2" fill="#08003C"/>
<path d="M665.553 122.275C667.352 122.275 669.009 122.554 670.522 123.111C672.05 123.668 673.271 124.51 674.185 125.639C675.099 126.752 675.556 128.152 675.556 129.837C675.556 131.094 675.306 132.193 674.807 133.136C674.321 134.078 673.657 134.907 672.814 135.621C671.972 136.321 671.015 136.935 669.944 137.463C671.058 138.048 672.115 138.734 673.114 139.519C674.114 140.291 674.928 141.197 675.556 142.24C676.199 143.282 676.52 144.496 676.52 145.881C676.52 147.624 676.056 149.137 675.128 150.423C674.2 151.694 672.914 152.679 671.272 153.379C669.63 154.079 667.723 154.428 665.553 154.428C663.211 154.428 661.219 154.093 659.576 153.422C657.934 152.75 656.684 151.794 655.828 150.551C654.971 149.295 654.542 147.795 654.542 146.053C654.542 144.625 654.807 143.382 655.335 142.326C655.878 141.269 656.606 140.362 657.52 139.605C658.434 138.834 659.441 138.177 660.54 137.634C659.612 137.049 658.762 136.385 657.991 135.642C657.234 134.9 656.627 134.05 656.17 133.093C655.728 132.136 655.506 131.037 655.506 129.794C655.506 128.138 655.97 126.752 656.899 125.639C657.841 124.525 659.076 123.689 660.604 123.132C662.132 122.561 663.782 122.275 665.553 122.275ZM660.669 145.667C660.669 146.795 661.069 147.731 661.868 148.473C662.682 149.202 663.882 149.566 665.467 149.566C667.109 149.566 668.337 149.216 669.151 148.516C669.965 147.802 670.372 146.867 670.372 145.71C670.372 144.91 670.137 144.211 669.666 143.611C669.209 143.011 668.63 142.475 667.93 142.004C667.231 141.519 666.524 141.069 665.81 140.655L665.231 140.355C664.317 140.769 663.518 141.233 662.832 141.747C662.161 142.261 661.633 142.84 661.247 143.482C660.862 144.125 660.669 144.853 660.669 145.667ZM665.51 127.117C664.425 127.117 663.525 127.395 662.811 127.952C662.097 128.509 661.74 129.294 661.74 130.308C661.74 131.022 661.911 131.651 662.254 132.193C662.611 132.722 663.075 133.186 663.646 133.586C664.232 133.986 664.867 134.357 665.553 134.7C666.21 134.385 666.824 134.036 667.395 133.65C667.966 133.264 668.43 132.8 668.787 132.258C669.144 131.715 669.323 131.065 669.323 130.308C669.323 129.294 668.959 128.509 668.23 127.952C667.516 127.395 666.609 127.117 665.51 127.117Z" fill="white"/>
<rect x="706" y="98" width="77.1792" height="77.1792" rx="2" fill="#08003C"/>
<path d="M755.52 136.049C755.52 137.849 755.385 139.634 755.113 141.404C754.856 143.175 754.399 144.846 753.742 146.417C753.085 147.974 752.164 149.359 750.979 150.573C749.794 151.772 748.287 152.715 746.459 153.4C744.631 154.086 742.418 154.428 739.819 154.428C739.205 154.428 738.483 154.4 737.655 154.343C736.827 154.3 736.141 154.228 735.599 154.129V148.816C736.17 148.959 736.777 149.073 737.42 149.159C738.062 149.23 738.712 149.266 739.369 149.266C741.982 149.266 743.996 148.852 745.41 148.024C746.838 147.195 747.837 146.046 748.409 144.575C748.994 143.104 749.33 141.404 749.415 139.477H749.158C748.744 140.162 748.251 140.783 747.68 141.34C747.123 141.883 746.409 142.318 745.538 142.647C744.667 142.961 743.56 143.118 742.218 143.118C740.433 143.118 738.876 142.733 737.548 141.961C736.234 141.176 735.213 140.048 734.485 138.577C733.771 137.092 733.414 135.299 733.414 133.2C733.414 130.93 733.842 128.987 734.699 127.374C735.57 125.746 736.805 124.496 738.405 123.625C740.004 122.754 741.889 122.318 744.06 122.318C745.659 122.318 747.152 122.597 748.537 123.154C749.922 123.696 751.136 124.532 752.179 125.66C753.235 126.788 754.057 128.216 754.642 129.944C755.228 131.672 755.52 133.707 755.52 136.049ZM744.189 127.631C742.903 127.631 741.854 128.073 741.04 128.959C740.226 129.844 739.819 131.229 739.819 133.115C739.819 134.628 740.169 135.828 740.868 136.713C741.568 137.599 742.632 138.041 744.06 138.041C745.045 138.041 745.902 137.827 746.631 137.399C747.359 136.956 747.923 136.406 748.323 135.749C748.737 135.078 748.944 134.393 748.944 133.693C748.944 132.965 748.844 132.243 748.644 131.529C748.444 130.815 748.144 130.166 747.744 129.58C747.345 128.995 746.845 128.523 746.245 128.166C745.659 127.809 744.974 127.631 744.189 127.631Z" fill="white"/>
<rect x="548" y="177" width="77.1792" height="77.1792" rx="2" fill="#08003C"/>
<path d="M579.122 233H572.503V214.878C572.503 214.378 572.51 213.764 572.525 213.036C572.539 212.293 572.56 211.536 572.589 210.765C572.617 209.98 572.646 209.273 572.674 208.644C572.517 208.83 572.196 209.151 571.711 209.608C571.239 210.051 570.797 210.451 570.382 210.808L566.784 213.7L563.592 209.715L573.681 201.682H579.122V233ZM609.583 217.341C609.583 219.869 609.383 222.125 608.983 224.11C608.598 226.095 607.969 227.78 607.098 229.166C606.241 230.551 605.113 231.608 603.714 232.336C602.314 233.064 600.615 233.428 598.615 233.428C596.102 233.428 594.038 232.793 592.425 231.522C590.811 230.237 589.618 228.394 588.847 225.995C588.076 223.582 587.691 220.697 587.691 217.341C587.691 213.957 588.04 211.065 588.74 208.666C589.454 206.252 590.611 204.403 592.21 203.118C593.81 201.832 595.945 201.19 598.615 201.19C601.114 201.19 603.171 201.832 604.785 203.118C606.413 204.389 607.619 206.231 608.405 208.644C609.19 211.043 609.583 213.942 609.583 217.341ZM594.267 217.341C594.267 219.726 594.395 221.718 594.652 223.318C594.924 224.903 595.374 226.095 596.002 226.895C596.63 227.695 597.501 228.095 598.615 228.095C599.715 228.095 600.579 227.702 601.207 226.916C601.85 226.117 602.307 224.924 602.578 223.339C602.85 221.74 602.985 219.74 602.985 217.341C602.985 214.956 602.85 212.964 602.578 211.365C602.307 209.765 601.85 208.566 601.207 207.766C600.579 206.952 599.715 206.545 598.615 206.545C597.501 206.545 596.63 206.952 596.002 207.766C595.374 208.566 594.924 209.765 594.652 211.365C594.395 212.964 594.267 214.956 594.267 217.341Z" fill="white"/>
<rect x="627" y="177" width="77.1792" height="77.1792" rx="2" fill="#08003C"/>
<path d="M658.122 233H651.503V214.878C651.503 214.378 651.51 213.764 651.525 213.036C651.539 212.293 651.56 211.536 651.589 210.765C651.617 209.98 651.646 209.273 651.674 208.644C651.517 208.83 651.196 209.151 650.711 209.608C650.239 210.051 649.797 210.451 649.382 210.808L645.784 213.7L642.592 209.715L652.681 201.682H658.122V233ZM683.228 233H676.609V214.878C676.609 214.378 676.616 213.764 676.63 213.036C676.644 212.293 676.666 211.536 676.694 210.765C676.723 209.98 676.751 209.273 676.78 208.644C676.623 208.83 676.301 209.151 675.816 209.608C675.345 210.051 674.902 210.451 674.488 210.808L670.889 213.7L667.697 209.715L677.787 201.682H683.228V233Z" fill="white"/>
<rect x="706" y="177" width="77.1792" height="77.1792" rx="2" fill="#08003C"/>
<path d="M737.122 233H730.503V214.878C730.503 214.378 730.51 213.764 730.525 213.036C730.539 212.293 730.56 211.536 730.589 210.765C730.617 209.98 730.646 209.273 730.674 208.644C730.517 208.83 730.196 209.151 729.711 209.608C729.239 210.051 728.797 210.451 728.382 210.808L724.784 213.7L721.592 209.715L731.681 201.682H737.122V233ZM767.754 233H745.862V228.394L753.723 220.447C755.309 218.819 756.58 217.463 757.536 216.377C758.508 215.278 759.207 214.278 759.636 213.378C760.078 212.479 760.3 211.515 760.3 210.487C760.3 209.244 759.95 208.316 759.25 207.702C758.565 207.073 757.644 206.759 756.487 206.759C755.273 206.759 754.095 207.038 752.952 207.595C751.81 208.152 750.617 208.944 749.375 209.972L745.776 205.71C746.676 204.938 747.626 204.21 748.625 203.525C749.639 202.839 750.81 202.289 752.138 201.875C753.481 201.447 755.087 201.233 756.958 201.233C759.014 201.233 760.778 201.604 762.249 202.347C763.734 203.089 764.877 204.103 765.676 205.388C766.476 206.659 766.876 208.102 766.876 209.715C766.876 211.443 766.533 213.021 765.848 214.449C765.162 215.877 764.163 217.291 762.849 218.691C761.549 220.09 759.978 221.64 758.136 223.339L754.109 227.131V227.431H767.754V233Z" fill="white"/>
<path d="M107.548 179.441H98.6424L97.0412 186H89.5174L98.8179 155.598H107.548L116.849 186H109.149L107.548 179.441ZM99.7831 174.221H106.364L103.073 160.775L99.7831 174.221ZM165.73 165.03V170.448H145.813V165.03H165.73ZM165.73 174.265V179.639H145.813V174.265H165.73Z" fill="#0037AC"/>
<path d="M473.636 176.809C473.636 175.742 473.424 174.901 473 174.287C472.59 173.658 472.005 173.212 471.245 172.949C470.499 172.685 469.622 172.554 468.613 172.554H465.651V180.758H468.306C469.008 180.758 469.673 180.706 470.302 180.604C470.945 180.502 471.515 180.311 472.013 180.034C472.524 179.756 472.919 179.361 473.197 178.849C473.49 178.323 473.636 177.643 473.636 176.809ZM472.495 164.087C472.495 162.888 472.115 162.025 471.355 161.498C470.609 160.957 469.446 160.687 467.867 160.687H465.651V167.728H468.086C469.636 167.728 470.755 167.443 471.442 166.873C472.144 166.302 472.495 165.374 472.495 164.087ZM481.05 177.094C481.05 178.849 480.714 180.304 480.041 181.459C479.368 182.615 478.447 183.521 477.277 184.179C476.107 184.837 474.769 185.305 473.263 185.583C471.771 185.861 470.199 186 468.547 186H458.457V155.598H468.086C469.651 155.598 471.128 155.73 472.517 155.993C473.921 156.241 475.164 156.665 476.246 157.265C477.328 157.85 478.176 158.647 478.791 159.656C479.419 160.65 479.734 161.886 479.734 163.363C479.734 164.577 479.478 165.63 478.966 166.522C478.454 167.399 477.774 168.123 476.926 168.693C476.078 169.249 475.157 169.651 474.162 169.9C475.244 170.075 476.312 170.419 477.365 170.931C478.432 171.428 479.31 172.174 479.997 173.168C480.699 174.162 481.05 175.471 481.05 177.094ZM531.73 165.03V170.448H511.813V165.03H531.73ZM531.73 174.265V179.639H511.813V174.265H531.73Z" fill="#08003C"/>
<path d="M943 174L923 162.453V185.547L943 174ZM815 174V176H925V174V172H815V174Z" fill="#C90000"/>
<path d="M835.494 154.007C835.494 154.529 835.563 154.907 835.703 155.142C835.85 155.377 836.085 155.555 836.407 155.677L835.559 158.392C834.741 158.313 834.05 158.135 833.484 157.856C832.927 157.569 832.488 157.139 832.166 156.564C831.635 157.2 830.957 157.674 830.13 157.987C829.304 158.291 828.46 158.444 827.598 158.444C826.172 158.444 825.032 158.039 824.179 157.23C823.335 156.412 822.914 155.364 822.914 154.085C822.914 152.58 823.501 151.418 824.675 150.601C825.858 149.783 827.52 149.374 829.66 149.374H831.527V148.852C831.527 148.13 831.292 147.595 830.822 147.247C830.361 146.899 829.682 146.725 828.786 146.725C828.342 146.725 827.772 146.79 827.076 146.921C826.38 147.042 825.684 147.221 824.988 147.456L824.036 144.715C824.932 144.376 825.863 144.119 826.829 143.945C827.803 143.771 828.673 143.684 829.439 143.684C831.5 143.684 833.023 144.106 834.006 144.95C834.998 145.785 835.494 146.994 835.494 148.578V154.007ZM829.021 155.494C829.465 155.494 829.93 155.364 830.417 155.103C830.904 154.833 831.274 154.455 831.527 153.968V151.723H830.509C829.36 151.723 828.516 151.901 827.977 152.258C827.438 152.606 827.168 153.119 827.168 153.798C827.168 154.329 827.329 154.746 827.651 155.051C827.981 155.346 828.438 155.494 829.021 155.494ZM842.687 158H838.224L842.974 150.718L838.668 144.141H843.287L845.506 148.578L847.646 144.141H852.031L847.959 150.561L852.736 158H848.064L845.323 152.819L842.687 158ZM863.596 144.141V155.181H867.12V158H855.544V155.181H859.472V146.96H855.675V144.141H863.596ZM861.104 136.885C861.817 136.885 862.4 137.107 862.852 137.551C863.305 137.994 863.531 138.547 863.531 139.208C863.531 139.869 863.305 140.426 862.852 140.878C862.4 141.322 861.817 141.544 861.104 141.544C860.381 141.544 859.79 141.322 859.329 140.878C858.876 140.426 858.65 139.869 858.65 139.208C858.65 138.547 858.876 137.994 859.329 137.551C859.79 137.107 860.381 136.885 861.104 136.885ZM876.336 155.494C877.023 155.494 877.576 155.386 877.993 155.168C878.419 154.951 878.633 154.624 878.633 154.189C878.633 153.894 878.55 153.646 878.385 153.446C878.219 153.245 877.902 153.054 877.432 152.871C876.962 152.689 876.266 152.471 875.344 152.219C874.5 151.993 873.752 151.706 873.099 151.358C872.456 151.01 871.951 150.561 871.586 150.013C871.229 149.465 871.051 148.782 871.051 147.965C871.051 147.138 871.281 146.403 871.742 145.759C872.203 145.115 872.882 144.611 873.778 144.245C874.674 143.871 875.77 143.684 877.067 143.684C878.302 143.684 879.376 143.845 880.29 144.167C881.212 144.48 882.008 144.88 882.678 145.368L881.034 147.795C880.46 147.438 879.842 147.155 879.181 146.947C878.519 146.729 877.854 146.62 877.184 146.62C876.514 146.62 876.014 146.712 875.683 146.894C875.361 147.068 875.2 147.334 875.2 147.69C875.2 147.925 875.283 148.13 875.448 148.304C875.622 148.469 875.944 148.643 876.414 148.826C876.884 149 877.571 149.217 878.476 149.478C879.372 149.731 880.151 150.022 880.812 150.353C881.482 150.683 881.999 151.127 882.365 151.684C882.73 152.232 882.913 152.958 882.913 153.863C882.913 154.872 882.613 155.721 882.013 156.408C881.412 157.086 880.616 157.595 879.624 157.935C878.633 158.274 877.545 158.444 876.362 158.444C875.022 158.444 873.839 158.252 872.812 157.869C871.786 157.487 870.911 156.982 870.189 156.356L872.264 154.033C872.804 154.45 873.413 154.798 874.091 155.077C874.778 155.355 875.527 155.494 876.336 155.494ZM898.354 145.524V148.748H886.505V145.524H898.354ZM898.354 151.018V154.215H886.505V151.018H898.354ZM911.25 139.913V157.478H907.231V143.971L903.512 146.294L901.763 143.462L907.596 139.913H911.25ZM914.63 154.881V158H902.872V154.881H914.63Z" fill="#C90000"/>
<rect width="55.75" height="55.75" rx="3.71666" transform="matrix(0.866025 0.5 0 1 1083.35 160.358)" fill="#0037AC"/>
<rect width="55.75" height="55.75" rx="3.71666" transform="matrix(0.866025 0.5 0 1 1033.17 132.483)" fill="#0037AC"/>
<rect width="55.75" height="55.75" rx="3.71666" transform="matrix(0.866025 0.5 0 1 983 104.608)" fill="#0037AC"/>
<rect width="55.75" height="55.75" rx="3.71666" transform="matrix(0.866025 0.5 0 1 983 162.217)" fill="#190555"/>
<rect width="55.75" height="55.75" rx="3.71666" transform="matrix(0.866025 0.5 0 1 1033.17 190.092)" fill="#190555"/>
<rect width="55.75" height="55.75" rx="3.71666" transform="matrix(0.866025 0.5 0 1 1083.35 217.967)" fill="#190555"/>
<rect width="55.75" height="55.75" rx="3.71666" transform="matrix(0.866025 -0.5 0 1 1133.52 190.092)" fill="#0037AC"/>
<rect width="55.75" height="55.75" rx="3.71666" transform="matrix(0.866025 -0.5 0 1 1133.52 247.7)" fill="#190555"/>
<rect width="55.75" height="55.75" rx="3.71666" transform="matrix(0.866025 0.5 -0.866025 0.5 1133.52 132.483)" fill="#0037AC"/>
<rect width="55.75" height="55.75" rx="3.71666" transform="matrix(0.866025 0.5 -0.866025 0.5 1083.35 104.608)" fill="#0037AC"/>
<rect width="55.75" height="55.75" rx="3.71666" transform="matrix(0.866025 0.5 -0.866025 0.5 1033.17 76.7334)" fill="#0037AC"/>
<path d="M1009.4 137.098V158.36L1005.19 155.927V139.578L1001.29 140.139L999.454 135.653L1005.57 134.887L1009.4 137.098ZM1012.94 157.262V161.037L1000.62 153.921V150.146L1012.94 157.262Z" fill="white"/>
<path d="M1005.09 214.617L1000.99 210.779L1008.06 197.692L999.727 192.882V189.123L1012.44 196.46V199.84L1005.09 214.617Z" fill="white"/>
<path d="M1055.59 162.122C1057.03 162.954 1058.24 163.939 1059.2 165.076C1060.18 166.219 1060.91 167.409 1061.39 168.646C1061.89 169.878 1062.13 171.052 1062.13 172.168C1062.13 173.053 1062 173.845 1061.73 174.546C1061.48 175.241 1061.06 175.891 1060.46 176.496C1059.87 177.091 1059.08 177.679 1058.1 178.258C1057.12 178.842 1055.91 179.461 1054.47 180.114L1062.57 184.789L1062.1 188.328L1049.51 181.054V177.515C1050.75 176.847 1051.84 176.241 1052.76 175.699C1053.68 175.156 1054.46 174.651 1055.09 174.182C1055.72 173.719 1056.24 173.271 1056.62 172.84C1057.01 172.413 1057.29 171.976 1057.47 171.529C1057.64 171.071 1057.73 170.584 1057.73 170.068C1057.73 169.183 1057.5 168.354 1057.06 167.58C1056.62 166.811 1055.99 166.192 1055.18 165.724C1054.46 165.308 1053.84 165.121 1053.31 165.163C1052.78 165.205 1052.27 165.474 1051.78 165.969L1049.12 162.13C1049.83 161.404 1050.71 161.003 1051.75 160.93C1052.79 160.845 1054.07 161.243 1055.59 162.122Z" fill="white"/>
<path d="M1062.56 229.547C1062.56 230.569 1062.32 231.311 1061.84 231.775C1061.37 232.238 1060.63 232.509 1059.61 232.588C1060.89 234.062 1061.82 235.473 1062.41 236.821C1063 238.164 1063.29 239.451 1063.29 240.683C1063.29 241.81 1063.03 242.713 1062.49 243.392C1061.96 244.066 1061.16 244.403 1060.11 244.403C1059.06 244.409 1057.74 243.956 1056.17 243.045C1054.63 242.155 1053.34 241.115 1052.3 239.925C1051.27 238.74 1050.49 237.519 1049.97 236.261C1049.46 234.997 1049.2 233.802 1049.2 232.675C1049.2 231.422 1049.52 230.513 1050.15 229.95C1050.78 229.387 1051.63 229.144 1052.69 229.223C1051.73 227.949 1051.02 226.817 1050.59 225.827C1050.16 224.832 1049.94 223.729 1049.94 222.518C1049.94 221.581 1050.1 220.836 1050.42 220.283C1050.74 219.72 1051.18 219.338 1051.75 219.138C1052.32 218.943 1052.99 218.93 1053.76 219.098C1054.53 219.262 1055.37 219.604 1056.28 220.125C1057.2 220.657 1058.04 221.281 1058.81 221.997C1059.57 222.702 1060.23 223.469 1060.79 224.295C1061.36 225.127 1061.79 225.988 1062.09 226.878C1062.4 227.762 1062.56 228.652 1062.56 229.547ZM1058.97 238.156C1058.97 237.429 1058.84 236.766 1058.59 236.166C1058.34 235.571 1057.95 234.957 1057.43 234.326C1056.9 233.683 1056.2 232.941 1055.35 232.098C1054.98 232.162 1054.66 232.304 1054.39 232.525C1054.12 232.735 1053.9 233.033 1053.75 233.417C1053.6 233.807 1053.53 234.291 1053.53 234.87C1053.53 235.776 1053.76 236.65 1054.21 237.493C1054.68 238.33 1055.36 239.012 1056.28 239.538C1057.22 240.08 1057.9 240.186 1058.33 239.854C1058.76 239.512 1058.97 238.946 1058.97 238.156ZM1054.06 224.895C1054.06 225.411 1054.16 225.92 1054.35 226.42C1054.55 226.925 1054.85 227.449 1055.26 227.991C1055.67 228.534 1056.19 229.123 1056.82 229.761C1057.44 229.592 1057.87 229.321 1058.1 228.947C1058.32 228.563 1058.44 228.065 1058.44 227.454C1058.44 226.675 1058.26 225.927 1057.89 225.211C1057.54 224.501 1057 223.937 1056.28 223.521C1055.57 223.116 1055.03 223.026 1054.64 223.253C1054.25 223.474 1054.06 224.021 1054.06 224.895Z" fill="white"/>
<path d="M1105.66 189.934C1107.03 190.723 1108.19 191.653 1109.15 192.722C1110.11 193.785 1110.85 194.888 1111.35 196.031C1111.86 197.168 1112.12 198.247 1112.12 199.269C1112.12 200.196 1111.96 200.914 1111.64 201.425C1111.32 201.925 1110.87 202.239 1110.28 202.365C1109.71 202.497 1109.03 202.468 1108.24 202.278C1109.12 202.92 1109.89 203.639 1110.56 204.434C1111.23 205.224 1111.76 206.103 1112.14 207.072C1112.53 208.041 1112.72 209.115 1112.72 210.294C1112.72 211.526 1112.42 212.477 1111.83 213.146C1111.24 213.82 1110.41 214.146 1109.31 214.125C1108.22 214.093 1106.91 213.638 1105.38 212.759C1103.97 211.942 1102.7 210.926 1101.58 209.71C1100.46 208.483 1099.5 207.119 1098.71 205.619L1101.14 204.403C1101.69 205.445 1102.3 206.327 1102.96 207.048C1103.64 207.764 1104.35 208.338 1105.1 208.77C1106.04 209.312 1106.8 209.481 1107.4 209.276C1107.99 209.06 1108.28 208.431 1108.28 207.388C1108.28 206.609 1108.16 205.908 1107.9 205.287C1107.66 204.661 1107.29 204.097 1106.81 203.597C1106.33 203.102 1105.75 202.657 1105.07 202.262L1103.35 201.267L1103.84 198.108L1105.07 198.819C1105.63 199.14 1106.12 199.319 1106.55 199.356C1106.98 199.393 1107.31 199.272 1107.56 198.993C1107.81 198.703 1107.93 198.242 1107.93 197.61C1107.93 196.789 1107.67 195.994 1107.16 195.225C1106.65 194.456 1105.99 193.838 1105.18 193.369C1104.42 192.932 1103.73 192.703 1103.11 192.682C1102.5 192.666 1101.93 192.798 1101.39 193.077L1099.17 189.144C1100.04 188.675 1101.01 188.504 1102.09 188.63C1103.16 188.746 1104.35 189.181 1105.66 189.934Z" fill="white"/>
<path d="M1106.32 247.921C1107.87 248.816 1109.16 249.93 1110.19 251.262C1111.22 252.594 1111.99 254.068 1112.51 255.685C1113.03 257.291 1113.29 258.957 1113.29 260.684C1113.29 262.78 1113.06 264.504 1112.59 265.857C1112.14 267.205 1111.44 268.195 1110.49 268.827C1109.55 269.464 1108.35 269.767 1106.89 269.735C1105.44 269.698 1103.72 269.343 1101.73 268.669L1100.84 264.649C1102.47 265.112 1103.83 265.323 1104.95 265.281C1106.06 265.228 1106.94 264.896 1107.57 264.286C1108.21 263.664 1108.63 262.738 1108.83 261.506V259.815C1108.85 258.278 1108.8 256.964 1108.68 255.874C1108.57 254.79 1108.33 253.892 1107.96 253.181C1107.59 252.465 1107.04 251.891 1106.29 251.459C1105.51 251.012 1104.9 250.993 1104.44 251.404C1103.99 251.815 1103.76 252.736 1103.76 254.168C1103.76 255.516 1103.99 256.596 1104.44 257.406C1104.91 258.223 1105.46 258.818 1106.11 259.191C1106.74 259.555 1107.31 259.726 1107.82 259.705C1108.33 259.684 1108.85 259.523 1109.37 259.223L1109.31 262.003C1108.65 262.409 1107.96 262.632 1107.25 262.674C1106.54 262.711 1105.72 262.456 1104.77 261.908C1103.78 261.334 1102.87 260.524 1102.06 259.476C1101.25 258.428 1100.6 257.238 1100.12 255.906C1099.64 254.579 1099.41 253.21 1099.41 251.799C1099.41 250.219 1099.71 249.014 1100.31 248.182C1100.92 247.355 1101.75 246.915 1102.79 246.863C1103.83 246.815 1105.01 247.168 1106.32 247.921Z" fill="white"/>
<path d="M1155.83 194.349C1157.2 193.56 1158.36 193.146 1159.32 193.109C1160.29 193.057 1161.02 193.312 1161.52 193.876C1162.03 194.423 1162.29 195.208 1162.29 196.229C1162.29 197.156 1162.13 198.059 1161.81 198.938C1161.49 199.807 1161.04 200.641 1160.46 201.442C1159.88 202.237 1159.2 202.992 1158.42 203.708C1159.29 203.34 1160.06 203.169 1160.73 203.195C1161.41 203.206 1161.93 203.474 1162.32 204.001C1162.7 204.527 1162.89 205.38 1162.89 206.56C1162.89 207.792 1162.6 209.084 1162 210.438C1161.42 211.785 1160.58 213.081 1159.49 214.323C1158.39 215.555 1157.08 216.611 1155.56 217.49C1154.15 218.306 1152.88 218.754 1151.76 218.833C1150.64 218.901 1149.68 218.643 1148.88 218.059L1151.32 214.031C1151.87 214.442 1152.47 214.623 1153.14 214.576C1153.81 214.513 1154.52 214.265 1155.27 213.834C1156.21 213.291 1156.98 212.575 1157.57 211.685C1158.16 210.785 1158.46 209.814 1158.46 208.771C1158.46 207.992 1158.33 207.439 1158.08 207.112C1157.83 206.77 1157.47 206.628 1156.98 206.686C1156.51 206.739 1155.93 206.962 1155.25 207.357L1153.52 208.352L1154.01 204.625L1155.25 203.914C1155.8 203.593 1156.29 203.203 1156.72 202.745C1157.15 202.287 1157.49 201.776 1157.73 201.213C1157.98 200.639 1158.1 200.036 1158.1 199.404C1158.1 198.583 1157.85 198.083 1157.34 197.904C1156.83 197.725 1156.17 197.869 1155.35 198.338C1154.6 198.775 1153.91 199.341 1153.29 200.036C1152.68 200.726 1152.1 201.521 1151.57 202.421L1149.35 201.047C1150.22 199.578 1151.19 198.285 1152.26 197.169C1153.34 196.042 1154.53 195.102 1155.83 194.349Z" fill="white"/>
<path d="M1156.49 251.578C1158.04 250.683 1159.33 250.307 1160.36 250.449C1161.39 250.591 1162.17 251.17 1162.69 252.186C1163.21 253.192 1163.47 254.558 1163.47 256.285C1163.47 258.381 1163.23 260.374 1162.77 262.264C1162.31 264.139 1161.61 265.939 1160.66 267.666C1159.72 269.388 1158.52 271.076 1157.06 272.729C1155.61 274.366 1153.9 275.996 1151.91 277.618L1151.02 274.624C1152.64 273.213 1154.01 271.844 1155.12 270.517C1156.23 269.18 1157.11 267.837 1157.75 266.49C1158.39 265.131 1158.81 263.72 1159.01 262.256V260.566C1159.03 259.008 1158.98 257.752 1158.86 256.799C1158.75 255.841 1158.51 255.222 1158.13 254.943C1157.77 254.648 1157.21 254.716 1156.46 255.148C1155.69 255.596 1155.07 256.288 1154.62 257.225C1154.16 258.163 1153.93 259.347 1153.93 260.779C1153.93 262.127 1154.16 262.943 1154.62 263.228C1155.08 263.507 1155.64 263.459 1156.28 263.086C1156.91 262.722 1157.48 262.235 1157.99 261.624C1158.51 261.014 1159.02 260.258 1159.54 259.358L1159.49 262.201C1158.82 263.375 1158.13 264.394 1157.42 265.257C1156.72 266.105 1155.89 266.803 1154.94 267.35C1153.95 267.924 1153.05 268.156 1152.24 268.045C1151.42 267.935 1150.78 267.493 1150.29 266.719C1149.82 265.939 1149.58 264.844 1149.58 263.433C1149.58 261.853 1149.88 260.3 1150.48 258.773C1151.1 257.241 1151.92 255.848 1152.96 254.595C1154.01 253.337 1155.19 252.331 1156.49 251.578Z" fill="white"/>
<path d="M1142.85 154.065C1144.22 154.855 1145.16 155.655 1145.67 156.466C1146.2 157.277 1146.34 158.041 1146.11 158.757C1145.89 159.473 1145.34 160.086 1144.45 160.597C1143.65 161.06 1142.79 161.373 1141.87 161.537C1140.95 161.695 1140 161.721 1139.02 161.616C1138.04 161.516 1137.05 161.305 1136.04 160.984C1136.79 161.558 1137.33 162.14 1137.64 162.729C1137.97 163.319 1138 163.911 1137.73 164.506C1137.47 165.101 1136.83 165.694 1135.81 166.283C1134.74 166.899 1133.47 167.289 1132 167.452C1130.54 167.621 1129 167.542 1127.38 167.215C1125.76 166.884 1124.2 166.278 1122.67 165.399C1121.26 164.583 1120.24 163.709 1119.61 162.777C1118.99 161.839 1118.73 160.881 1118.84 159.902L1123.55 159.997C1123.47 160.676 1123.61 161.292 1123.99 161.845C1124.38 162.398 1124.95 162.89 1125.7 163.322C1126.64 163.864 1127.64 164.169 1128.71 164.238C1129.78 164.301 1130.77 164.072 1131.67 163.551C1132.35 163.161 1132.76 162.774 1132.92 162.39C1133.09 162.005 1133.03 161.618 1132.74 161.229C1132.46 160.844 1131.97 160.455 1131.29 160.06L1129.57 159.065L1133.04 157.627L1134.27 158.338C1134.83 158.659 1135.41 158.891 1136.02 159.033C1136.63 159.175 1137.25 159.212 1137.86 159.144C1138.48 159.07 1139.06 158.875 1139.61 158.559C1140.32 158.148 1140.62 157.677 1140.52 157.145C1140.42 156.614 1139.97 156.113 1139.16 155.645C1138.4 155.208 1137.57 154.895 1136.65 154.705C1135.75 154.521 1134.77 154.421 1133.73 154.405L1133.81 151.799C1135.51 151.814 1137.12 152.009 1138.62 152.383C1140.14 152.752 1141.55 153.312 1142.85 154.065Z" fill="white"/>
<path d="M1092.78 126.253C1094.23 127.085 1095.18 127.925 1095.64 128.773C1096.12 129.626 1096.18 130.431 1095.84 131.19C1095.51 131.948 1094.86 132.606 1093.89 133.164C1093.13 133.606 1092.24 133.964 1091.24 134.238C1090.25 134.512 1089.05 134.715 1087.64 134.846C1086.24 134.973 1084.54 135.039 1082.57 135.044C1080.6 135.054 1078.25 135.015 1075.52 134.925L1083.62 139.601L1079.86 141.236L1067.26 133.962L1070.32 132.193C1072.78 132.219 1074.93 132.23 1076.78 132.224C1078.63 132.219 1080.23 132.19 1081.58 132.137C1082.94 132.09 1084.09 132.014 1085.04 131.908C1086 131.808 1086.8 131.671 1087.45 131.498C1088.11 131.319 1088.66 131.1 1089.1 130.842C1089.87 130.4 1090.25 129.921 1090.25 129.405C1090.26 128.894 1089.86 128.404 1089.05 127.936C1088.33 127.52 1087.55 127.246 1086.72 127.114C1085.89 126.983 1084.9 126.969 1083.73 127.075L1083.07 124.39C1084.77 124.232 1086.43 124.284 1088.05 124.547C1089.68 124.805 1091.26 125.374 1092.78 126.253Z" fill="white"/>
<path d="M1046.11 100.953L1027.7 111.584L1023.49 109.151L1037.64 100.977L1031.31 100.132L1032.45 97.3596L1042.28 98.7417L1046.11 100.953ZM1033.96 112.058L1030.69 113.945L1018.37 106.829L1021.64 104.942L1033.96 112.058Z" fill="white"/>
</svg>
