<svg width="1400" height="350" viewBox="0 0 1400 350" fill="none" xmlns="http://www.w3.org/2000/svg">
<rect width="1400" height="350" fill="white"/>
<rect x="505.389" y="323.186" width="19.1617" height="19.1617" rx="3.74252" fill="#0037AC"/>
<path d="M512.812 328.192C512.685 327.882 512.246 327.882 512.119 328.192L511.92 328.678C511.882 328.769 511.882 328.871 511.919 328.962L514.593 335.522C514.693 335.768 514.512 336.037 514.246 336.037H511.585H510.687C510.421 336.037 510.24 335.767 510.341 335.521L510.802 334.397C510.839 334.306 510.84 334.205 510.803 334.114L510.593 333.599C510.466 333.288 510.027 333.288 509.9 333.598L508.643 336.659C508.542 336.905 508.723 337.175 508.989 337.175H515.942C516.208 337.175 516.389 336.905 516.288 336.659L512.812 328.192Z" fill="white"/>
<path d="M515.348 330.011C515.247 329.765 515.428 329.496 515.694 329.496H518.355H519.253C519.519 329.496 519.701 329.766 519.599 330.012L519.138 331.136C519.101 331.227 519.101 331.329 519.138 331.419L519.348 331.934C519.474 332.245 519.913 332.245 520.04 331.935L521.297 328.874C521.398 328.628 521.217 328.358 520.951 328.358H513.999C513.732 328.358 513.551 328.628 513.652 328.874L517.128 337.341C517.256 337.651 517.694 337.651 517.821 337.341L518.021 336.855C518.058 336.764 518.058 336.662 518.021 336.571L515.348 330.011Z" fill="white"/>
<path d="M536.368 334.455H533.656L533.128 336.281H531.83L534.245 328.69H535.829L538.25 336.281H536.896L536.368 334.455ZM533.92 333.47H536.099L535.015 329.68L533.92 333.47ZM540.545 330.472V334.532C540.545 334.877 540.613 335.122 540.748 335.269C540.888 335.416 541.097 335.489 541.375 335.489C541.64 335.489 541.894 335.41 542.14 335.253C542.386 335.095 542.58 334.902 542.723 334.675V330.472H543.955V336.281H542.894L542.817 335.539C542.6 335.828 542.327 336.05 541.997 336.204C541.667 336.355 541.33 336.43 540.985 336.43C540.424 336.43 540.004 336.276 539.725 335.968C539.45 335.656 539.313 335.229 539.313 334.686V330.472H540.545ZM550.762 335.973C550.549 336.109 550.294 336.219 549.997 336.303C549.7 336.388 549.39 336.43 549.067 336.43C548.392 336.43 547.879 336.256 547.527 335.907C547.179 335.555 547.004 335.093 547.004 334.521V331.369H545.712V330.472H547.004V329.174L548.237 329.025V330.472H550.195L550.057 331.369H548.237V334.51C548.237 334.822 548.314 335.055 548.468 335.209C548.625 335.359 548.882 335.434 549.238 335.434C549.45 335.434 549.647 335.408 549.826 335.357C550.006 335.306 550.169 335.24 550.316 335.159L550.762 335.973ZM554.834 330.318C555.402 330.318 555.881 330.445 556.269 330.698C556.658 330.951 556.952 331.305 557.15 331.759C557.351 332.214 557.452 332.75 557.452 333.366C557.452 333.978 557.349 334.515 557.144 334.977C556.942 335.436 556.645 335.793 556.253 336.05C555.864 336.303 555.389 336.43 554.828 336.43C554.267 336.43 553.79 336.307 553.398 336.061C553.009 335.812 552.712 335.458 552.507 334.999C552.305 334.541 552.204 334 552.204 333.377C552.204 332.772 552.305 332.24 552.507 331.781C552.712 331.323 553.011 330.965 553.403 330.709C553.796 330.448 554.272 330.318 554.834 330.318ZM554.834 331.275C554.39 331.275 554.056 331.446 553.832 331.787C553.609 332.124 553.497 332.654 553.497 333.377C553.497 334.095 553.607 334.625 553.827 334.966C554.051 335.308 554.384 335.478 554.828 335.478C555.272 335.478 555.604 335.308 555.824 334.966C556.048 334.625 556.159 334.092 556.159 333.366C556.159 332.651 556.049 332.124 555.829 331.787C555.609 331.446 555.277 331.275 554.834 331.275ZM559.159 336.281V335.401H560.011V331.347H559.159V330.472H560.952L561.178 331.82C561.394 331.332 561.662 330.962 561.981 330.709C562.303 330.452 562.718 330.324 563.224 330.324C563.396 330.324 563.55 330.338 563.686 330.368C563.825 330.393 563.963 330.428 564.099 330.472L563.73 331.528C563.613 331.495 563.503 331.471 563.4 331.457C563.297 331.438 563.184 331.429 563.059 331.429C562.637 331.429 562.272 331.587 561.964 331.902C561.66 332.218 561.42 332.665 561.244 333.245V335.401H562.415V336.281H559.159ZM563.009 332.612V331.182L563.163 330.472H564.099L563.89 332.612H563.009ZM567.026 335.434C567.026 335.166 567.122 334.937 567.313 334.746C567.503 334.552 567.738 334.455 568.017 334.455C568.299 334.455 568.534 334.552 568.721 334.746C568.912 334.937 569.007 335.166 569.007 335.434C569.007 335.709 568.912 335.944 568.721 336.138C568.534 336.333 568.299 336.43 568.017 336.43C567.738 336.43 567.503 336.333 567.313 336.138C567.122 335.944 567.026 335.709 567.026 335.434ZM567.026 331.528C567.026 331.349 567.07 331.184 567.158 331.033C567.247 330.883 567.366 330.764 567.516 330.676C567.666 330.588 567.833 330.544 568.017 330.544C568.299 330.544 568.534 330.641 568.721 330.835C568.912 331.026 569.007 331.257 569.007 331.528C569.007 331.8 568.912 332.034 568.721 332.232C568.534 332.427 568.299 332.524 568.017 332.524C567.738 332.524 567.503 332.427 567.313 332.232C567.122 332.034 567.026 331.8 567.026 331.528ZM583.714 328.657V333.536C583.714 333.98 583.646 334.382 583.51 334.741C583.375 335.1 583.175 335.407 582.911 335.66C582.65 335.913 582.329 336.107 581.948 336.243C581.57 336.378 581.137 336.446 580.65 336.446C580.158 336.446 579.733 336.384 579.373 336.259C579.018 336.131 578.675 335.955 578.345 335.731L579.032 334.62C579.293 334.8 579.537 334.926 579.764 334.999C579.991 335.069 580.25 335.104 580.54 335.104C580.932 335.104 581.258 334.979 581.519 334.73C581.783 334.477 581.915 334.086 581.915 333.558V329.977H579.571V328.657H583.714ZM587.813 330.247C588.415 330.247 588.926 330.375 589.348 330.632C589.77 330.888 590.093 331.25 590.316 331.715C590.54 332.177 590.652 332.72 590.652 333.344C590.652 333.993 590.538 334.552 590.311 335.021C590.087 335.487 589.764 335.845 589.343 336.094C588.921 336.344 588.411 336.468 587.813 336.468C587.219 336.468 586.709 336.345 586.284 336.1C585.862 335.854 585.538 335.498 585.31 335.032C585.087 334.567 584.975 334.007 584.975 333.355C584.975 332.735 585.087 332.192 585.31 331.726C585.538 331.261 585.862 330.897 586.284 330.637C586.709 330.377 587.219 330.247 587.813 330.247ZM587.813 331.528C587.458 331.528 587.193 331.675 587.021 331.968C586.852 332.258 586.768 332.72 586.768 333.355C586.768 334 586.852 334.468 587.021 334.757C587.193 335.047 587.458 335.192 587.813 335.192C588.169 335.192 588.431 335.047 588.6 334.757C588.772 334.468 588.858 333.996 588.858 333.344C588.858 332.713 588.772 332.253 588.6 331.963C588.431 331.673 588.169 331.528 587.813 331.528ZM594.223 335.225C594.513 335.225 594.746 335.179 594.922 335.088C595.102 334.996 595.191 334.858 595.191 334.675C595.191 334.55 595.157 334.446 595.087 334.361C595.017 334.277 594.883 334.196 594.685 334.119C594.487 334.042 594.194 333.951 593.805 333.844C593.449 333.749 593.134 333.628 592.859 333.481C592.588 333.334 592.375 333.146 592.221 332.915C592.07 332.684 591.995 332.396 591.995 332.051C591.995 331.702 592.092 331.393 592.287 331.121C592.481 330.85 592.767 330.637 593.145 330.483C593.523 330.325 593.985 330.247 594.531 330.247C595.052 330.247 595.505 330.314 595.89 330.45C596.279 330.582 596.614 330.751 596.897 330.956L596.204 331.979C595.962 331.829 595.701 331.71 595.423 331.622C595.144 331.53 594.863 331.484 594.581 331.484C594.298 331.484 594.088 331.523 593.948 331.6C593.813 331.673 593.745 331.785 593.745 331.935C593.745 332.034 593.78 332.121 593.849 332.194C593.923 332.264 594.058 332.337 594.256 332.414C594.454 332.487 594.744 332.579 595.125 332.689C595.503 332.795 595.831 332.918 596.11 333.058C596.393 333.197 596.611 333.384 596.765 333.619C596.919 333.85 596.996 334.156 596.996 334.537C596.996 334.963 596.869 335.32 596.616 335.61C596.363 335.896 596.028 336.111 595.61 336.254C595.191 336.397 594.733 336.468 594.234 336.468C593.669 336.468 593.171 336.388 592.738 336.226C592.305 336.065 591.937 335.852 591.632 335.588L592.507 334.609C592.734 334.785 592.991 334.932 593.277 335.049C593.567 335.166 593.882 335.225 594.223 335.225ZM599.984 333.866C600.024 334.185 600.107 334.444 600.232 334.642C600.36 334.836 600.523 334.979 600.721 335.071C600.919 335.159 601.141 335.203 601.387 335.203C601.655 335.203 601.913 335.159 602.163 335.071C602.412 334.983 602.652 334.866 602.883 334.719L603.582 335.665C603.307 335.9 602.973 336.092 602.581 336.243C602.192 336.393 601.748 336.468 601.249 336.468C600.582 336.468 600.023 336.336 599.572 336.072C599.12 335.804 598.781 335.438 598.554 334.972C598.326 334.506 598.213 333.971 598.213 333.366C598.213 332.79 598.323 332.267 598.543 331.798C598.763 331.325 599.084 330.949 599.506 330.67C599.931 330.388 600.45 330.247 601.062 330.247C601.62 330.247 602.102 330.366 602.509 330.604C602.92 330.842 603.237 331.185 603.461 331.633C603.688 332.08 603.802 332.618 603.802 333.245C603.802 333.344 603.798 333.45 603.791 333.564C603.787 333.677 603.78 333.778 603.769 333.866H599.984ZM601.062 331.413C600.751 331.413 600.499 331.525 600.309 331.748C600.118 331.972 600.002 332.33 599.962 332.821H602.108C602.104 332.396 602.021 332.055 601.86 331.798C601.699 331.541 601.433 331.413 601.062 331.413ZM608.309 330.247C608.818 330.247 609.229 330.373 609.541 330.626C609.852 330.879 610.08 331.237 610.223 331.699C610.37 332.161 610.443 332.709 610.443 333.344C610.443 333.945 610.355 334.482 610.179 334.955C610.003 335.425 609.748 335.795 609.414 336.067C609.081 336.334 608.675 336.468 608.198 336.468C607.63 336.468 607.168 336.265 606.812 335.858V338.537L605.074 338.718V330.439H606.614L606.691 331.094C606.93 330.789 607.19 330.573 607.472 330.445C607.755 330.313 608.033 330.247 608.309 330.247ZM607.769 331.528C607.568 331.528 607.39 331.589 607.236 331.71C607.082 331.831 606.941 331.996 606.812 332.205V334.669C606.933 334.849 607.06 334.981 607.192 335.066C607.327 335.15 607.487 335.192 607.67 335.192C607.978 335.192 608.219 335.053 608.391 334.774C608.563 334.492 608.65 334.022 608.65 333.366C608.65 332.882 608.615 332.507 608.545 332.243C608.475 331.976 608.375 331.791 608.242 331.688C608.11 331.581 607.953 331.528 607.769 331.528ZM613.409 327.947V331.017C613.655 330.756 613.921 330.564 614.207 330.439C614.497 330.311 614.803 330.247 615.126 330.247C615.646 330.247 616.044 330.399 616.319 330.703C616.594 331.008 616.732 331.437 616.732 331.99V336.281H614.994V332.474C614.994 332.122 614.953 331.877 614.873 331.737C614.796 331.598 614.649 331.528 614.432 331.528C614.311 331.528 614.192 331.558 614.075 331.616C613.961 331.671 613.849 331.752 613.739 331.858C613.629 331.965 613.519 332.091 613.409 332.238V336.281H611.671V328.118L613.409 327.947ZM630.344 334.053C630.344 334.526 630.219 334.944 629.97 335.308C629.724 335.671 629.37 335.955 628.908 336.16C628.446 336.366 627.891 336.468 627.241 336.468C626.523 336.468 625.919 336.364 625.432 336.155C624.947 335.942 624.546 335.68 624.227 335.368L625.14 334.356C625.422 334.602 625.734 334.792 626.075 334.928C626.416 335.06 626.79 335.126 627.197 335.126C627.45 335.126 627.672 335.089 627.863 335.016C628.054 334.943 628.202 334.836 628.309 334.697C628.415 334.558 628.468 334.389 628.468 334.191C628.468 334.004 628.426 333.846 628.342 333.718C628.257 333.589 628.114 333.474 627.913 333.371C627.715 333.268 627.438 333.164 627.082 333.058C626.488 332.874 626.009 332.673 625.646 332.452C625.287 332.232 625.024 331.978 624.859 331.688C624.698 331.398 624.617 331.061 624.617 330.676C624.617 330.21 624.746 329.812 625.002 329.482C625.263 329.152 625.611 328.901 626.048 328.728C626.484 328.552 626.965 328.464 627.489 328.464C628.079 328.464 628.6 328.55 629.051 328.723C629.502 328.891 629.893 329.133 630.223 329.449L629.37 330.428C629.114 330.212 628.837 330.052 628.54 329.949C628.243 329.843 627.94 329.79 627.632 329.79C627.405 329.79 627.205 329.819 627.032 329.878C626.86 329.933 626.726 330.015 626.631 330.126C626.535 330.236 626.488 330.373 626.488 330.538C626.488 330.699 626.534 330.835 626.625 330.945C626.717 331.055 626.877 331.16 627.104 331.259C627.331 331.354 627.647 331.466 628.05 331.594C628.531 331.741 628.941 331.917 629.282 332.122C629.627 332.324 629.889 332.579 630.069 332.887C630.252 333.195 630.344 333.584 630.344 334.053ZM636.38 334.598C636.38 334.818 636.409 334.977 636.468 335.077C636.53 335.176 636.629 335.251 636.765 335.302L636.407 336.446C636.063 336.413 635.771 336.338 635.533 336.221C635.298 336.1 635.113 335.918 634.977 335.676C634.753 335.944 634.467 336.144 634.119 336.276C633.771 336.404 633.415 336.468 633.052 336.468C632.45 336.468 631.97 336.298 631.611 335.957C631.255 335.612 631.077 335.17 631.077 334.631C631.077 333.996 631.324 333.507 631.82 333.162C632.318 332.817 633.019 332.645 633.921 332.645H634.708V332.425C634.708 332.121 634.609 331.895 634.411 331.748C634.216 331.602 633.93 331.528 633.552 331.528C633.365 331.528 633.125 331.556 632.832 331.611C632.538 331.662 632.245 331.737 631.952 331.836L631.55 330.681C631.928 330.538 632.32 330.43 632.727 330.357C633.138 330.283 633.505 330.247 633.827 330.247C634.697 330.247 635.338 330.424 635.753 330.78C636.171 331.132 636.38 331.642 636.38 332.309V334.598ZM633.651 335.225C633.838 335.225 634.035 335.17 634.24 335.06C634.445 334.946 634.601 334.787 634.708 334.581V333.635H634.279C633.794 333.635 633.439 333.71 633.211 333.861C632.984 334.007 632.87 334.224 632.87 334.51C632.87 334.734 632.938 334.91 633.074 335.038C633.213 335.163 633.406 335.225 633.651 335.225ZM638.059 336.281V330.439H639.577L639.698 331.116C639.959 330.822 640.234 330.604 640.524 330.461C640.813 330.318 641.143 330.247 641.514 330.247C642.012 330.247 642.405 330.399 642.691 330.703C642.977 331.008 643.12 331.437 643.12 331.99V336.281H641.382V332.491C641.382 332.253 641.365 332.064 641.332 331.924C641.299 331.781 641.241 331.68 641.156 331.622C641.075 331.559 640.964 331.528 640.821 331.528C640.7 331.528 640.58 331.556 640.463 331.611C640.349 331.662 640.237 331.737 640.127 331.836C640.017 331.935 639.907 332.055 639.797 332.194V336.281H638.059ZM649.915 335.94C649.688 336.087 649.413 336.212 649.09 336.314C648.767 336.417 648.404 336.468 648.001 336.468C647.238 336.468 646.671 336.274 646.301 335.885C645.93 335.493 645.745 334.961 645.745 334.29V331.638H644.519V330.439H645.745V329.174L647.484 328.965V330.439H649.365L649.194 331.638H647.484V334.29C647.484 334.58 647.55 334.787 647.682 334.911C647.814 335.036 648.025 335.099 648.314 335.099C648.52 335.099 648.707 335.075 648.875 335.027C649.048 334.976 649.202 334.911 649.338 334.834L649.915 335.94ZM654.823 330.439V335.093H656.309V336.281H651.429V335.093H653.085V331.627H651.484V330.439H654.823ZM653.773 327.38C654.073 327.38 654.319 327.474 654.51 327.661C654.7 327.848 654.796 328.081 654.796 328.36C654.796 328.638 654.7 328.873 654.51 329.064C654.319 329.251 654.073 329.344 653.773 329.344C653.468 329.344 653.219 329.251 653.024 329.064C652.834 328.873 652.738 328.638 652.738 328.36C652.738 328.081 652.834 327.848 653.024 327.661C653.219 327.474 653.468 327.38 653.773 327.38ZM662.768 334.598C662.768 334.818 662.797 334.977 662.856 335.077C662.918 335.176 663.018 335.251 663.153 335.302L662.796 336.446C662.451 336.413 662.159 336.338 661.921 336.221C661.686 336.1 661.501 335.918 661.365 335.676C661.142 335.944 660.856 336.144 660.507 336.276C660.159 336.404 659.803 336.468 659.44 336.468C658.838 336.468 658.358 336.298 657.999 335.957C657.643 335.612 657.465 335.17 657.465 334.631C657.465 333.996 657.713 333.507 658.208 333.162C658.706 332.817 659.407 332.645 660.309 332.645H661.096V332.425C661.096 332.121 660.997 331.895 660.799 331.748C660.604 331.602 660.318 331.528 659.941 331.528C659.754 331.528 659.513 331.556 659.22 331.611C658.927 331.662 658.633 331.737 658.34 331.836L657.938 330.681C658.316 330.538 658.708 330.43 659.115 330.357C659.526 330.283 659.893 330.247 660.216 330.247C661.085 330.247 661.727 330.424 662.141 330.78C662.559 331.132 662.768 331.642 662.768 332.309V334.598ZM660.04 335.225C660.227 335.225 660.423 335.17 660.628 335.06C660.834 334.946 660.989 334.787 661.096 334.581V333.635H660.667C660.183 333.635 659.827 333.71 659.599 333.861C659.372 334.007 659.258 334.224 659.258 334.51C659.258 334.734 659.326 334.91 659.462 335.038C659.601 335.163 659.794 335.225 660.04 335.225ZM669.635 329.504L670.042 330.78C669.836 330.861 669.596 330.92 669.321 330.956C669.046 330.993 668.725 331.011 668.358 331.011C668.725 331.169 669.004 331.365 669.195 331.6C669.389 331.831 669.486 332.135 669.486 332.513C669.486 332.891 669.385 333.228 669.184 333.525C668.982 333.819 668.696 334.05 668.325 334.218C667.955 334.387 667.517 334.471 667.011 334.471C666.886 334.471 666.769 334.466 666.659 334.455C666.549 334.444 666.44 334.427 666.334 334.405C666.272 334.438 666.224 334.486 666.191 334.548C666.158 334.611 666.141 334.675 666.141 334.741C666.141 334.833 666.178 334.915 666.252 334.988C666.329 335.062 666.506 335.099 666.785 335.099H667.742C668.197 335.099 668.589 335.172 668.92 335.319C669.253 335.465 669.512 335.665 669.695 335.918C669.879 336.171 669.97 336.461 669.97 336.787C669.97 337.385 669.708 337.856 669.184 338.201C668.659 338.546 667.88 338.718 666.846 338.718C666.097 338.718 665.518 338.641 665.107 338.487C664.7 338.337 664.416 338.12 664.255 337.838C664.097 337.559 664.018 337.227 664.018 336.842H665.558C665.558 337.011 665.591 337.149 665.657 337.255C665.727 337.365 665.857 337.446 666.048 337.497C666.242 337.548 666.523 337.574 666.89 337.574C667.26 337.574 667.542 337.545 667.737 337.486C667.931 337.427 668.063 337.347 668.133 337.244C668.206 337.145 668.243 337.033 668.243 336.908C668.243 336.736 668.175 336.597 668.039 336.49C667.904 336.384 667.689 336.331 667.396 336.331H666.466C665.835 336.331 665.377 336.215 665.091 335.984C664.805 335.749 664.662 335.476 664.662 335.165C664.662 334.948 664.719 334.743 664.832 334.548C664.95 334.354 665.113 334.191 665.322 334.059C664.948 333.861 664.68 333.628 664.519 333.36C664.357 333.089 664.277 332.764 664.277 332.386C664.277 331.946 664.388 331.569 664.612 331.253C664.836 330.934 665.144 330.688 665.536 330.516C665.932 330.344 666.384 330.258 666.89 330.258C667.326 330.265 667.706 330.236 668.028 330.17C668.351 330.1 668.641 330.006 668.898 329.889C669.154 329.768 669.4 329.64 669.635 329.504ZM666.934 331.385C666.659 331.385 666.44 331.473 666.279 331.649C666.118 331.822 666.037 332.06 666.037 332.364C666.037 332.687 666.119 332.935 666.285 333.107C666.45 333.279 666.666 333.366 666.934 333.366C667.223 333.366 667.443 333.279 667.594 333.107C667.748 332.935 667.825 332.68 667.825 332.342C667.825 332.016 667.75 331.776 667.599 331.622C667.449 331.464 667.227 331.385 666.934 331.385ZM673.575 330.247C674.176 330.247 674.688 330.375 675.11 330.632C675.531 330.888 675.854 331.25 676.078 331.715C676.301 332.177 676.413 332.72 676.413 333.344C676.413 333.993 676.3 334.552 676.072 335.021C675.849 335.487 675.526 335.845 675.104 336.094C674.682 336.344 674.173 336.468 673.575 336.468C672.981 336.468 672.471 336.345 672.045 336.1C671.624 335.854 671.299 335.498 671.072 335.032C670.848 334.567 670.736 334.007 670.736 333.355C670.736 332.735 670.848 332.192 671.072 331.726C671.299 331.261 671.624 330.897 672.045 330.637C672.471 330.377 672.981 330.247 673.575 330.247ZM673.575 331.528C673.219 331.528 672.955 331.675 672.783 331.968C672.614 332.258 672.53 332.72 672.53 333.355C672.53 334 672.614 334.468 672.783 334.757C672.955 335.047 673.219 335.192 673.575 335.192C673.93 335.192 674.193 335.047 674.361 334.757C674.534 334.468 674.62 333.996 674.62 333.344C674.62 332.713 674.534 332.253 674.361 331.963C674.193 331.673 673.93 331.528 673.575 331.528ZM687.952 331.143C687.952 330.872 687.9 330.648 687.797 330.472C687.698 330.292 687.546 330.16 687.341 330.076C687.139 329.988 686.884 329.944 686.576 329.944H685.96V332.436H686.67C686.937 332.436 687.167 332.39 687.357 332.298C687.548 332.207 687.695 332.066 687.797 331.875C687.9 331.684 687.952 331.44 687.952 331.143ZM689.811 331.138C689.811 331.728 689.684 332.216 689.431 332.601C689.178 332.986 688.824 333.274 688.37 333.465C687.915 333.652 687.387 333.745 686.785 333.745H685.96V336.281H684.156V328.657H686.554C687.588 328.657 688.39 328.862 688.958 329.273C689.527 329.684 689.811 330.305 689.811 331.138ZM693.366 330.247C693.967 330.247 694.479 330.375 694.901 330.632C695.322 330.888 695.645 331.25 695.869 331.715C696.093 332.177 696.204 332.72 696.204 333.344C696.204 333.993 696.091 334.552 695.863 335.021C695.64 335.487 695.317 335.845 694.895 336.094C694.473 336.344 693.964 336.468 693.366 336.468C692.772 336.468 692.262 336.345 691.836 336.1C691.415 335.854 691.09 335.498 690.863 335.032C690.639 334.567 690.527 334.007 690.527 333.355C690.527 332.735 690.639 332.192 690.863 331.726C691.09 331.261 691.415 330.897 691.836 330.637C692.262 330.377 692.772 330.247 693.366 330.247ZM693.366 331.528C693.01 331.528 692.746 331.675 692.574 331.968C692.405 332.258 692.321 332.72 692.321 333.355C692.321 334 692.405 334.468 692.574 334.757C692.746 335.047 693.01 335.192 693.366 335.192C693.722 335.192 693.984 335.047 694.152 334.757C694.325 334.468 694.411 333.996 694.411 333.344C694.411 332.713 694.325 332.253 694.152 331.963C693.984 331.673 693.722 331.528 693.366 331.528ZM697.487 336.281V335.115H698.257V331.594H697.487V330.439H699.583L699.902 331.754C700.111 331.251 700.377 330.877 700.7 330.632C701.026 330.386 701.424 330.263 701.894 330.263C702.092 330.263 702.268 330.28 702.422 330.313C702.576 330.342 702.721 330.384 702.856 330.439L702.328 331.875C702.222 331.846 702.116 331.824 702.009 331.809C701.903 331.794 701.786 331.787 701.657 331.787C701.276 331.787 700.94 331.943 700.65 332.254C700.364 332.566 700.146 332.962 699.996 333.443V335.115H701.151V336.281H697.487ZM701.443 332.882V331.176L701.701 330.439H702.856L702.532 332.882H701.443ZM709.288 335.94C709.061 336.087 708.786 336.212 708.463 336.314C708.141 336.417 707.777 336.468 707.374 336.468C706.611 336.468 706.045 336.274 705.674 335.885C705.304 335.493 705.119 334.961 705.119 334.29V331.638H703.892V330.439H705.119V329.174L706.857 328.965V330.439H708.738L708.568 331.638H706.857V334.29C706.857 334.58 706.923 334.787 707.055 334.911C707.187 335.036 707.398 335.099 707.688 335.099C707.893 335.099 708.08 335.075 708.249 335.027C708.421 334.976 708.575 334.911 708.711 334.834L709.288 335.94ZM714.197 330.439V335.093H715.682V336.281H710.802V335.093H712.458V331.627H710.857V330.439H714.197ZM713.146 327.38C713.447 327.38 713.692 327.474 713.883 327.661C714.074 327.848 714.169 328.081 714.169 328.36C714.169 328.638 714.074 328.873 713.883 329.064C713.692 329.251 713.447 329.344 713.146 329.344C712.842 329.344 712.592 329.251 712.398 329.064C712.207 328.873 712.112 328.638 712.112 328.36C712.112 328.081 712.207 327.848 712.398 327.661C712.592 327.474 712.842 327.38 713.146 327.38ZM720.271 328.118V334.444C720.271 334.679 720.337 334.847 720.469 334.95C720.605 335.049 720.79 335.099 721.025 335.099C721.175 335.099 721.32 335.082 721.459 335.049C721.599 335.012 721.729 334.97 721.85 334.922L722.268 336.083C722.07 336.186 721.832 336.276 721.553 336.353C721.274 336.43 720.95 336.468 720.579 336.468C719.875 336.468 719.358 336.267 719.028 335.863C718.698 335.456 718.533 334.911 718.533 334.229V329.306H716.811V328.118H720.271ZM726.868 328.118V334.444C726.868 334.679 726.934 334.847 727.066 334.95C727.202 335.049 727.387 335.099 727.622 335.099C727.772 335.099 727.917 335.082 728.056 335.049C728.196 335.012 728.326 334.97 728.447 334.922L728.865 336.083C728.667 336.186 728.429 336.276 728.15 336.353C727.871 336.43 727.547 336.468 727.176 336.468C726.472 336.468 725.955 336.267 725.625 335.863C725.295 335.456 725.13 334.911 725.13 334.229V329.306H723.408V328.118H726.868ZM735.336 334.598C735.336 334.818 735.365 334.977 735.424 335.077C735.486 335.176 735.585 335.251 735.721 335.302L735.363 336.446C735.018 336.413 734.727 336.338 734.488 336.221C734.254 336.1 734.068 335.918 733.933 335.676C733.709 335.944 733.423 336.144 733.075 336.276C732.726 336.404 732.37 336.468 732.007 336.468C731.406 336.468 730.925 336.298 730.566 335.957C730.21 335.612 730.032 335.17 730.032 334.631C730.032 333.996 730.28 333.507 730.775 333.162C731.274 332.817 731.974 332.645 732.877 332.645H733.663V332.425C733.663 332.121 733.564 331.895 733.366 331.748C733.172 331.602 732.886 331.528 732.508 331.528C732.321 331.528 732.081 331.556 731.787 331.611C731.494 331.662 731.201 331.737 730.907 331.836L730.506 330.681C730.883 330.538 731.276 330.43 731.683 330.357C732.094 330.283 732.46 330.247 732.783 330.247C733.652 330.247 734.294 330.424 734.708 330.78C735.126 331.132 735.336 331.642 735.336 332.309V334.598ZM732.607 335.225C732.794 335.225 732.99 335.17 733.196 335.06C733.401 334.946 733.557 334.787 733.663 334.581V333.635H733.234C732.75 333.635 732.394 333.71 732.167 333.861C731.939 334.007 731.826 334.224 731.826 334.51C731.826 334.734 731.894 334.91 732.029 335.038C732.169 335.163 732.361 335.225 732.607 335.225ZM737.163 333.514V332.161H741.927V333.514H737.163ZM748.821 328.657L749.25 336.281H747.677L747.583 333.019C747.576 332.715 747.572 332.443 747.572 332.205C747.576 331.967 747.582 331.743 747.589 331.534C747.596 331.321 747.607 331.108 747.622 330.896C747.64 330.679 747.659 330.445 747.677 330.192L746.819 334.983H745.454L744.53 330.192C744.552 330.434 744.571 330.663 744.585 330.879C744.604 331.092 744.616 331.306 744.624 331.523C744.631 331.739 744.637 331.972 744.64 332.221C744.644 332.467 744.642 332.742 744.635 333.047L744.58 336.281H743.034L743.463 328.657H745.317L746.164 333.586L746.967 328.657H748.821ZM755.127 334.598C755.127 334.818 755.156 334.977 755.215 335.077C755.277 335.176 755.376 335.251 755.512 335.302L755.154 336.446C754.809 336.413 754.518 336.338 754.279 336.221C754.045 336.1 753.86 335.918 753.724 335.676C753.5 335.944 753.214 336.144 752.866 336.276C752.517 336.404 752.161 336.468 751.798 336.468C751.197 336.468 750.717 336.298 750.357 335.957C750.001 335.612 749.824 335.17 749.824 334.631C749.824 333.996 750.071 333.507 750.566 333.162C751.065 332.817 751.765 332.645 752.668 332.645H753.454V332.425C753.454 332.121 753.355 331.895 753.157 331.748C752.963 331.602 752.677 331.528 752.299 331.528C752.112 331.528 751.872 331.556 751.578 331.611C751.285 331.662 750.992 331.737 750.698 331.836L750.297 330.681C750.674 330.538 751.067 330.43 751.474 330.357C751.885 330.283 752.251 330.247 752.574 330.247C753.443 330.247 754.085 330.424 754.499 330.78C754.918 331.132 755.127 331.642 755.127 332.309V334.598ZM752.398 335.225C752.585 335.225 752.781 335.17 752.987 335.06C753.192 334.946 753.348 334.787 753.454 334.581V333.635H753.025C752.541 333.635 752.185 333.71 751.958 333.861C751.731 334.007 751.617 334.224 751.617 334.51C751.617 334.734 751.685 334.91 751.82 335.038C751.96 335.163 752.152 335.225 752.398 335.225ZM756.861 336.281V335.115H757.631V331.594H756.861V330.439H758.957L759.276 331.754C759.485 331.251 759.751 330.877 760.073 330.632C760.4 330.386 760.798 330.263 761.267 330.263C761.465 330.263 761.641 330.28 761.795 330.313C761.949 330.342 762.094 330.384 762.23 330.439L761.702 331.875C761.595 331.846 761.489 331.824 761.383 331.809C761.276 331.794 761.159 331.787 761.03 331.787C760.649 331.787 760.314 331.943 760.024 332.254C759.738 332.566 759.52 332.962 759.369 333.443V335.115H760.524V336.281H756.861ZM760.816 332.882V331.176L761.074 330.439H762.23L761.905 332.882H760.816ZM768.662 335.94C768.434 336.087 768.159 336.212 767.837 336.314C767.514 336.417 767.151 336.468 766.747 336.468C765.985 336.468 765.418 336.274 765.048 335.885C764.677 335.493 764.492 334.961 764.492 334.29V331.638H763.265V330.439H764.492V329.174L766.23 328.965V330.439H768.112L767.941 331.638H766.23V334.29C766.23 334.58 766.296 334.787 766.428 334.911C766.56 335.036 766.771 335.099 767.061 335.099C767.266 335.099 767.453 335.075 767.622 335.027C767.794 334.976 767.948 334.911 768.084 334.834L768.662 335.94ZM773.57 330.439V335.093H775.055V336.281H770.176V335.093H771.832V331.627H770.231V330.439H773.57ZM773.355 327.094L774.032 328.404L771.435 329.432L770.957 328.552L773.355 327.094ZM776.597 336.281V330.439H778.115L778.236 331.116C778.496 330.822 778.772 330.604 779.061 330.461C779.351 330.318 779.681 330.247 780.051 330.247C780.55 330.247 780.943 330.399 781.229 330.703C781.515 331.008 781.658 331.437 781.658 331.99V336.281H779.919V332.491C779.919 332.253 779.903 332.064 779.87 331.924C779.837 331.781 779.778 331.68 779.694 331.622C779.613 331.559 779.501 331.528 779.358 331.528C779.237 331.528 779.118 331.556 779.001 331.611C778.887 331.662 778.775 331.737 778.665 331.836C778.555 331.935 778.445 332.055 778.335 332.194V336.281H776.597ZM784.701 333.866C784.741 334.185 784.824 334.444 784.949 334.642C785.077 334.836 785.24 334.979 785.438 335.071C785.636 335.159 785.858 335.203 786.104 335.203C786.372 335.203 786.63 335.159 786.88 335.071C787.129 334.983 787.369 334.866 787.6 334.719L788.299 335.665C788.024 335.9 787.69 336.092 787.298 336.243C786.909 336.393 786.465 336.468 785.966 336.468C785.299 336.468 784.74 336.336 784.288 336.072C783.837 335.804 783.498 335.438 783.271 334.972C783.043 334.506 782.93 333.971 782.93 333.366C782.93 332.79 783.04 332.267 783.26 331.798C783.48 331.325 783.801 330.949 784.222 330.67C784.648 330.388 785.167 330.247 785.779 330.247C786.337 330.247 786.819 330.366 787.226 330.604C787.637 330.842 787.954 331.185 788.178 331.633C788.405 332.08 788.519 332.618 788.519 333.245C788.519 333.344 788.515 333.45 788.508 333.564C788.504 333.677 788.497 333.778 788.486 333.866H784.701ZM785.779 331.413C785.468 331.413 785.216 331.525 785.026 331.748C784.835 331.972 784.719 332.33 784.679 332.821H786.825C786.821 332.396 786.738 332.055 786.577 331.798C786.416 331.541 786.15 331.413 785.779 331.413ZM791.865 334.966H794.791L794.626 336.281H789.813V335.055L792.712 331.748H790.055V330.439H794.736V331.66L791.865 334.966ZM806.077 326.379V339.582H804.954V326.379H806.077ZM818.544 328.536C819.095 328.536 819.564 328.616 819.953 328.778C820.341 328.935 820.662 329.157 820.915 329.443C821.172 329.726 821.372 330.059 821.515 330.445C821.658 330.83 821.759 331.248 821.818 331.699C821.876 332.15 821.906 332.618 821.906 333.102C821.906 334.026 821.862 334.8 821.774 335.423C821.686 336.043 821.521 336.509 821.278 336.82C821.04 337.136 820.695 337.293 820.244 337.293C820.024 337.293 819.832 337.244 819.667 337.145C819.505 337.046 819.371 336.918 819.265 336.76C819.162 336.606 819.084 336.439 819.029 336.259C818.977 336.076 818.948 335.904 818.94 335.742H818.896C818.823 335.918 818.722 336.087 818.594 336.248C818.466 336.41 818.302 336.542 818.104 336.644C817.906 336.747 817.664 336.798 817.378 336.798C816.967 336.798 816.637 336.688 816.388 336.468C816.139 336.252 815.957 335.953 815.843 335.572C815.73 335.19 815.673 334.759 815.673 334.279C815.673 333.344 815.864 332.63 816.245 332.139C816.626 331.644 817.178 331.396 817.901 331.396C818.172 331.396 818.44 331.429 818.704 331.495C818.972 331.558 819.26 331.671 819.568 331.836V335.104C819.568 335.452 819.595 335.722 819.65 335.913C819.705 336.103 819.78 336.235 819.876 336.309C819.975 336.382 820.087 336.419 820.211 336.419C820.358 336.419 820.472 336.344 820.552 336.193C820.637 336.043 820.697 335.826 820.734 335.544C820.771 335.258 820.793 334.913 820.8 334.51C820.807 334.106 820.811 333.652 820.811 333.146C820.811 332.603 820.78 332.106 820.717 331.655C820.659 331.2 820.547 330.808 820.382 330.478C820.22 330.148 819.989 329.893 819.689 329.713C819.388 329.533 818.997 329.443 818.517 329.443C818.147 329.443 817.756 329.513 817.345 329.652C816.938 329.792 816.509 330.059 816.058 330.456L815.464 329.768C815.963 329.335 816.467 329.022 816.977 328.827C817.49 328.633 818.013 328.536 818.544 328.536ZM817.917 332.232C817.496 332.232 817.208 332.397 817.054 332.728C816.9 333.054 816.823 333.571 816.823 334.279C816.823 334.631 816.845 334.932 816.889 335.181C816.933 335.43 817.01 335.621 817.12 335.753C817.23 335.885 817.378 335.951 817.565 335.951C817.789 335.951 817.963 335.9 818.088 335.797C818.213 335.694 818.306 335.573 818.368 335.434C818.431 335.291 818.478 335.166 818.511 335.06V332.375C818.412 332.324 818.317 332.287 818.225 332.265C818.134 332.243 818.031 332.232 817.917 332.232ZM827.804 328.657V333.536C827.804 333.98 827.736 334.382 827.6 334.741C827.465 335.1 827.265 335.407 827.001 335.66C826.74 335.913 826.42 336.107 826.038 336.243C825.66 336.378 825.228 336.446 824.74 336.446C824.248 336.446 823.823 336.384 823.464 336.259C823.108 336.131 822.765 335.955 822.435 335.731L823.123 334.62C823.383 334.8 823.627 334.926 823.854 334.999C824.082 335.069 824.34 335.104 824.63 335.104C825.022 335.104 825.349 334.979 825.609 334.73C825.873 334.477 826.005 334.086 826.005 333.558V329.977H823.662V328.657H827.804ZM831.904 330.247C832.505 330.247 833.017 330.375 833.438 330.632C833.86 330.888 834.183 331.25 834.407 331.715C834.63 332.177 834.742 332.72 834.742 333.344C834.742 333.993 834.628 334.552 834.401 335.021C834.177 335.487 833.855 335.845 833.433 336.094C833.011 336.344 832.501 336.468 831.904 336.468C831.309 336.468 830.8 336.345 830.374 336.1C829.952 335.854 829.628 335.498 829.401 335.032C829.177 334.567 829.065 334.007 829.065 333.355C829.065 332.735 829.177 332.192 829.401 331.726C829.628 331.261 829.952 330.897 830.374 330.637C830.8 330.377 831.309 330.247 831.904 330.247ZM831.904 331.528C831.548 331.528 831.284 331.675 831.111 331.968C830.943 332.258 830.858 332.72 830.858 333.355C830.858 334 830.943 334.468 831.111 334.757C831.284 335.047 831.548 335.192 831.904 335.192C832.259 335.192 832.521 335.047 832.69 334.757C832.863 334.468 832.949 333.996 832.949 333.344C832.949 332.713 832.863 332.253 832.69 331.963C832.521 331.673 832.259 331.528 831.904 331.528ZM837.477 333.866C837.518 334.185 837.6 334.444 837.725 334.642C837.853 334.836 838.016 334.979 838.214 335.071C838.413 335.159 838.634 335.203 838.88 335.203C839.148 335.203 839.406 335.159 839.656 335.071C839.905 334.983 840.145 334.866 840.376 334.719L841.075 335.665C840.8 335.9 840.466 336.092 840.074 336.243C839.685 336.393 839.241 336.468 838.743 336.468C838.075 336.468 837.516 336.336 837.065 336.072C836.614 335.804 836.274 335.438 836.047 334.972C835.82 334.506 835.706 333.971 835.706 333.366C835.706 332.79 835.816 332.267 836.036 331.798C836.256 331.325 836.577 330.949 836.999 330.67C837.424 330.388 837.943 330.247 838.556 330.247C839.113 330.247 839.595 330.366 840.002 330.604C840.413 330.842 840.73 331.185 840.954 331.633C841.181 332.08 841.295 332.618 841.295 333.245C841.295 333.344 841.291 333.45 841.284 333.564C841.28 333.677 841.273 333.778 841.262 333.866H837.477ZM838.556 331.413C838.244 331.413 837.993 331.525 837.802 331.748C837.611 331.972 837.496 332.33 837.455 332.821H839.601C839.597 332.396 839.515 332.055 839.353 331.798C839.192 331.541 838.926 331.413 838.556 331.413ZM846.28 331.143C846.28 330.872 846.229 330.648 846.126 330.472C846.027 330.292 845.875 330.16 845.67 330.076C845.468 329.988 845.213 329.944 844.905 329.944H844.289V332.436H844.999C845.266 332.436 845.496 332.39 845.686 332.298C845.877 332.207 846.024 332.066 846.126 331.875C846.229 331.684 846.28 331.44 846.28 331.143ZM848.14 331.138C848.14 331.728 848.013 332.216 847.76 332.601C847.507 332.986 847.153 333.274 846.698 333.465C846.244 333.652 845.716 333.745 845.114 333.745H844.289V336.281H842.485V328.657H844.883C845.917 328.657 846.719 328.862 847.287 329.273C847.855 329.684 848.14 330.305 848.14 331.138ZM851.695 330.247C852.296 330.247 852.808 330.375 853.229 330.632C853.651 330.888 853.974 331.25 854.198 331.715C854.421 332.177 854.533 332.72 854.533 333.344C854.533 333.993 854.42 334.552 854.192 335.021C853.968 335.487 853.646 335.845 853.224 336.094C852.802 336.344 852.292 336.468 851.695 336.468C851.1 336.468 850.591 336.345 850.165 336.1C849.744 335.854 849.419 335.498 849.192 335.032C848.968 334.567 848.856 334.007 848.856 333.355C848.856 332.735 848.968 332.192 849.192 331.726C849.419 331.261 849.744 330.897 850.165 330.637C850.591 330.377 851.1 330.247 851.695 330.247ZM851.695 331.528C851.339 331.528 851.075 331.675 850.902 331.968C850.734 332.258 850.649 332.72 850.649 333.355C850.649 334 850.734 334.468 850.902 334.757C851.075 335.047 851.339 335.192 851.695 335.192C852.05 335.192 852.313 335.047 852.481 334.757C852.654 334.468 852.74 333.996 852.74 333.344C852.74 332.713 852.654 332.253 852.481 331.963C852.313 331.673 852.05 331.528 851.695 331.528ZM855.816 336.281V335.115H856.586V331.594H855.816V330.439H857.912L858.231 331.754C858.44 331.251 858.706 330.877 859.029 330.632C859.355 330.386 859.753 330.263 860.223 330.263C860.421 330.263 860.597 330.28 860.751 330.313C860.905 330.342 861.05 330.384 861.185 330.439L860.657 331.875C860.551 331.846 860.444 331.824 860.338 331.809C860.232 331.794 860.114 331.787 859.986 331.787C859.605 331.787 859.269 331.943 858.979 332.254C858.693 332.566 858.475 332.962 858.325 333.443V335.115H859.48V336.281H855.816ZM859.771 332.882V331.176L860.03 330.439H861.185L860.861 332.882H859.771ZM867.617 335.94C867.39 336.087 867.115 336.212 866.792 336.314C866.469 336.417 866.106 336.468 865.703 336.468C864.94 336.468 864.373 336.274 864.003 335.885C863.633 335.493 863.447 334.961 863.447 334.29V331.638H862.221V330.439H863.447V329.174L865.186 328.965V330.439H867.067L866.897 331.638H865.186V334.29C865.186 334.58 865.252 334.787 865.384 334.911C865.516 335.036 865.727 335.099 866.016 335.099C866.222 335.099 866.409 335.075 866.578 335.027C866.75 334.976 866.904 334.911 867.04 334.834L867.617 335.94ZM872.525 330.439V335.093H874.011V336.281H869.131V335.093H870.787V331.627H869.186V330.439H872.525ZM871.475 327.38C871.775 327.38 872.021 327.474 872.212 327.661C872.403 327.848 872.498 328.081 872.498 328.36C872.498 328.638 872.403 328.873 872.212 329.064C872.021 329.251 871.775 329.344 871.475 329.344C871.17 329.344 870.921 329.251 870.727 329.064C870.536 328.873 870.441 328.638 870.441 328.36C870.441 328.081 870.536 327.848 870.727 327.661C870.921 327.474 871.17 327.38 871.475 327.38ZM878.6 328.118V334.444C878.6 334.679 878.666 334.847 878.798 334.95C878.934 335.049 879.119 335.099 879.354 335.099C879.504 335.099 879.649 335.082 879.788 335.049C879.927 335.012 880.058 334.97 880.179 334.922L880.597 336.083C880.399 336.186 880.16 336.276 879.882 336.353C879.603 336.43 879.278 336.468 878.908 336.468C878.204 336.468 877.687 336.267 877.357 335.863C877.027 335.456 876.862 334.911 876.862 334.229V329.306H875.14V328.118H878.6ZM885.197 328.118V334.444C885.197 334.679 885.263 334.847 885.395 334.95C885.531 335.049 885.716 335.099 885.951 335.099C886.101 335.099 886.246 335.082 886.385 335.049C886.524 335.012 886.655 334.97 886.776 334.922L887.194 336.083C886.996 336.186 886.757 336.276 886.479 336.353C886.2 336.43 885.875 336.468 885.505 336.468C884.801 336.468 884.284 336.267 883.954 335.863C883.624 335.456 883.459 334.911 883.459 334.229V329.306H881.737V328.118H885.197ZM893.664 334.598C893.664 334.818 893.694 334.977 893.752 335.077C893.815 335.176 893.914 335.251 894.049 335.302L893.692 336.446C893.347 336.413 893.056 336.338 892.817 336.221C892.582 336.1 892.397 335.918 892.262 335.676C892.038 335.944 891.752 336.144 891.403 336.276C891.055 336.404 890.699 336.468 890.336 336.468C889.735 336.468 889.254 336.298 888.895 335.957C888.539 335.612 888.361 335.17 888.361 334.631C888.361 333.996 888.609 333.507 889.104 333.162C889.603 332.817 890.303 332.645 891.205 332.645H891.992V332.425C891.992 332.121 891.893 331.895 891.695 331.748C891.501 331.602 891.214 331.528 890.837 331.528C890.65 331.528 890.409 331.556 890.116 331.611C889.823 331.662 889.529 331.737 889.236 331.836L888.834 330.681C889.212 330.538 889.604 330.43 890.012 330.357C890.422 330.283 890.789 330.247 891.112 330.247C891.981 330.247 892.623 330.424 893.037 330.78C893.455 331.132 893.664 331.642 893.664 332.309V334.598ZM890.936 335.225C891.123 335.225 891.319 335.17 891.524 335.06C891.73 334.946 891.886 334.787 891.992 334.581V333.635H891.563C891.079 333.635 890.723 333.71 890.496 333.861C890.268 334.007 890.155 334.224 890.155 334.51C890.155 334.734 890.222 334.91 890.358 335.038C890.498 335.163 890.69 335.225 890.936 335.225Z" fill="black"/>
<rect x="173" y="99" width="77.1792" height="77.1792" rx="2" fill="#0037AC"/>
<path d="M217.122 155H210.503V136.878C210.503 136.378 210.51 135.764 210.525 135.036C210.539 134.293 210.56 133.536 210.589 132.765C210.617 131.98 210.646 131.273 210.674 130.644C210.517 130.83 210.196 131.151 209.711 131.608C209.239 132.051 208.797 132.451 208.382 132.808L204.784 135.7L201.592 131.715L211.681 123.682H217.122V155Z" fill="white"/>
<rect x="252" y="99" width="77.1792" height="77.1792" rx="2" fill="#0037AC"/>
<path d="M301.649 155H279.757V150.394L287.618 142.447C289.203 140.819 290.474 139.463 291.431 138.377C292.402 137.278 293.102 136.278 293.53 135.378C293.973 134.479 294.194 133.515 294.194 132.487C294.194 131.244 293.844 130.316 293.145 129.702C292.459 129.073 291.538 128.759 290.381 128.759C289.167 128.759 287.989 129.038 286.847 129.595C285.704 130.152 284.512 130.944 283.27 131.972L279.671 127.71C280.571 126.938 281.52 126.21 282.52 125.525C283.534 124.839 284.705 124.289 286.033 123.875C287.375 123.447 288.982 123.233 290.853 123.233C292.909 123.233 294.673 123.604 296.144 124.347C297.629 125.089 298.771 126.103 299.571 127.388C300.371 128.659 300.771 130.102 300.771 131.715C300.771 133.443 300.428 135.021 299.742 136.449C299.057 137.877 298.057 139.291 296.743 140.691C295.444 142.09 293.873 143.64 292.031 145.339L288.004 149.131V149.431H301.649V155Z" fill="white"/>
<rect x="331" y="99" width="77.1792" height="77.1792" rx="2" fill="#0037AC"/>
<path d="M379.428 130.687C379.428 132.129 379.128 133.379 378.528 134.436C377.928 135.493 377.114 136.357 376.086 137.028C375.072 137.699 373.93 138.192 372.659 138.506V138.634C375.172 138.949 377.079 139.72 378.378 140.948C379.692 142.176 380.349 143.818 380.349 145.875C380.349 147.703 379.899 149.338 378.999 150.78C378.114 152.222 376.743 153.358 374.887 154.186C373.03 155.014 370.638 155.428 367.711 155.428C365.983 155.428 364.369 155.286 362.869 155C361.384 154.729 359.985 154.307 358.671 153.736V148.102C360.013 148.788 361.42 149.309 362.891 149.666C364.362 150.009 365.733 150.18 367.004 150.18C369.374 150.18 371.031 149.773 371.973 148.959C372.93 148.131 373.409 146.974 373.409 145.489C373.409 144.618 373.187 143.882 372.744 143.283C372.302 142.683 371.531 142.226 370.431 141.912C369.346 141.598 367.825 141.44 365.868 141.44H363.491V136.364H365.911C367.839 136.364 369.303 136.185 370.302 135.828C371.316 135.457 372.002 134.957 372.359 134.329C372.73 133.686 372.916 132.958 372.916 132.144C372.916 131.03 372.573 130.159 371.888 129.53C371.202 128.902 370.06 128.588 368.46 128.588C367.461 128.588 366.547 128.716 365.718 128.973C364.904 129.216 364.169 129.516 363.512 129.873C362.855 130.216 362.277 130.551 361.777 130.88L358.714 126.317C359.942 125.432 361.377 124.696 363.019 124.111C364.676 123.525 366.647 123.233 368.932 123.233C372.159 123.233 374.715 123.882 376.6 125.182C378.485 126.481 379.428 128.317 379.428 130.687Z" fill="white"/>
<rect x="173" y="178" width="77.1792" height="77.1792" rx="2" fill="#0037AC"/>
<path d="M223.356 227.509H219.586V234H213.116V227.509H199.75V222.904L213.481 202.682H219.586V222.368H223.356V227.509ZM213.116 222.368V217.056C213.116 216.556 213.124 215.964 213.138 215.278C213.166 214.593 213.195 213.907 213.224 213.222C213.252 212.536 213.281 211.929 213.309 211.401C213.352 210.858 213.381 210.48 213.395 210.266H213.224C212.952 210.851 212.667 211.422 212.367 211.979C212.067 212.522 211.717 213.093 211.317 213.693L205.576 222.368H213.116Z" fill="white"/>
<rect x="252" y="178" width="77.1792" height="77.1792" rx="2" fill="#0037AC"/>
<path d="M291.153 213.993C293.066 213.993 294.766 214.357 296.251 215.085C297.75 215.814 298.928 216.885 299.785 218.298C300.642 219.712 301.07 221.454 301.07 223.525C301.07 225.781 300.599 227.731 299.657 229.373C298.728 231.001 297.336 232.251 295.48 233.122C293.637 233.993 291.338 234.428 288.582 234.428C286.94 234.428 285.39 234.286 283.934 234C282.491 233.729 281.227 233.307 280.142 232.736V227.017C281.227 227.588 282.527 228.074 284.041 228.473C285.569 228.859 287.004 229.052 288.346 229.052C289.66 229.052 290.767 228.88 291.667 228.538C292.566 228.181 293.245 227.638 293.702 226.91C294.173 226.167 294.409 225.225 294.409 224.082C294.409 222.554 293.894 221.383 292.866 220.569C291.838 219.755 290.26 219.348 288.132 219.348C287.318 219.348 286.468 219.427 285.583 219.584C284.712 219.741 283.984 219.898 283.398 220.055L280.763 218.641L281.941 202.682H298.928V208.295H287.747L287.168 214.443C287.654 214.343 288.182 214.243 288.753 214.143C289.325 214.043 290.124 213.993 291.153 213.993Z" fill="white"/>
<rect x="331" y="178" width="77.1792" height="77.1792" rx="2" fill="#0037AC"/>
<path d="M358.542 220.698C358.542 218.898 358.671 217.12 358.928 215.364C359.199 213.593 359.663 211.929 360.32 210.373C360.977 208.802 361.898 207.417 363.084 206.217C364.269 205.003 365.775 204.053 367.603 203.368C369.431 202.668 371.645 202.318 374.244 202.318C374.858 202.318 375.572 202.347 376.386 202.404C377.214 202.447 377.9 202.525 378.442 202.64V207.931C377.871 207.802 377.257 207.702 376.6 207.631C375.958 207.545 375.315 207.502 374.672 207.502C372.073 207.502 370.06 207.916 368.632 208.745C367.218 209.573 366.218 210.722 365.633 212.193C365.061 213.65 364.726 215.349 364.626 217.292H364.904C365.304 216.592 365.804 215.971 366.404 215.428C367.018 214.885 367.76 214.457 368.632 214.143C369.503 213.814 370.524 213.65 371.695 213.65C373.523 213.65 375.108 214.043 376.45 214.828C377.793 215.599 378.828 216.72 379.556 218.191C380.285 219.662 380.649 221.454 380.649 223.568C380.649 225.824 380.213 227.766 379.342 229.394C378.471 231.022 377.236 232.272 375.636 233.143C374.051 234 372.166 234.428 369.981 234.428C368.382 234.428 366.889 234.157 365.504 233.614C364.119 233.057 362.905 232.215 361.863 231.087C360.82 229.959 360.006 228.538 359.421 226.824C358.835 225.096 358.542 223.054 358.542 220.698ZM369.853 229.137C371.152 229.137 372.209 228.695 373.023 227.809C373.837 226.924 374.244 225.539 374.244 223.654C374.244 222.126 373.887 220.926 373.173 220.055C372.473 219.17 371.409 218.727 369.981 218.727C369.01 218.727 368.153 218.948 367.411 219.391C366.682 219.819 366.118 220.369 365.718 221.04C365.318 221.697 365.119 222.376 365.119 223.075C365.119 223.804 365.219 224.525 365.418 225.239C365.618 225.953 365.918 226.603 366.318 227.188C366.718 227.774 367.211 228.245 367.796 228.602C368.396 228.959 369.081 229.137 369.853 229.137Z" fill="white"/>
<rect x="526" y="99" width="77.1792" height="77.1792" rx="2" fill="#08003C"/>
<path d="M556.863 155L568.623 129.252H553.178V123.682H575.649V127.838L563.803 155H556.863Z" fill="white"/>
<rect x="605" y="99" width="77.1792" height="77.1792" rx="2" fill="#08003C"/>
<path d="M643.553 123.275C645.352 123.275 647.009 123.554 648.522 124.111C650.05 124.668 651.271 125.51 652.185 126.639C653.099 127.752 653.556 129.152 653.556 130.837C653.556 132.094 653.306 133.193 652.807 134.136C652.321 135.078 651.657 135.907 650.814 136.621C649.972 137.321 649.015 137.935 647.944 138.463C649.058 139.048 650.115 139.734 651.114 140.519C652.114 141.291 652.928 142.197 653.556 143.24C654.199 144.282 654.52 145.496 654.52 146.881C654.52 148.624 654.056 150.137 653.128 151.423C652.2 152.694 650.914 153.679 649.272 154.379C647.63 155.079 645.723 155.428 643.553 155.428C641.211 155.428 639.219 155.093 637.576 154.422C635.934 153.75 634.684 152.794 633.828 151.551C632.971 150.295 632.542 148.795 632.542 147.053C632.542 145.625 632.807 144.382 633.335 143.326C633.878 142.269 634.606 141.362 635.52 140.605C636.434 139.834 637.441 139.177 638.54 138.634C637.612 138.049 636.762 137.385 635.991 136.642C635.234 135.9 634.627 135.05 634.17 134.093C633.728 133.136 633.506 132.037 633.506 130.794C633.506 129.138 633.97 127.752 634.899 126.639C635.841 125.525 637.076 124.689 638.604 124.132C640.132 123.561 641.782 123.275 643.553 123.275ZM638.669 146.667C638.669 147.795 639.069 148.731 639.868 149.473C640.682 150.202 641.882 150.566 643.467 150.566C645.109 150.566 646.337 150.216 647.151 149.516C647.965 148.802 648.372 147.867 648.372 146.71C648.372 145.91 648.137 145.211 647.666 144.611C647.209 144.011 646.63 143.475 645.93 143.004C645.231 142.519 644.524 142.069 643.81 141.655L643.231 141.355C642.317 141.769 641.518 142.233 640.832 142.747C640.161 143.261 639.633 143.84 639.247 144.482C638.862 145.125 638.669 145.853 638.669 146.667ZM643.51 128.117C642.425 128.117 641.525 128.395 640.811 128.952C640.097 129.509 639.74 130.294 639.74 131.308C639.74 132.022 639.911 132.651 640.254 133.193C640.611 133.722 641.075 134.186 641.646 134.586C642.232 134.986 642.867 135.357 643.553 135.7C644.21 135.385 644.824 135.036 645.395 134.65C645.966 134.264 646.43 133.8 646.787 133.258C647.144 132.715 647.323 132.065 647.323 131.308C647.323 130.294 646.959 129.509 646.23 128.952C645.516 128.395 644.609 128.117 643.51 128.117Z" fill="white"/>
<rect x="684" y="99" width="77.1792" height="77.1792" rx="2" fill="#08003C"/>
<path d="M733.52 137.049C733.52 138.849 733.385 140.634 733.113 142.404C732.856 144.175 732.399 145.846 731.742 147.417C731.085 148.974 730.164 150.359 728.979 151.573C727.794 152.772 726.287 153.715 724.459 154.4C722.631 155.086 720.418 155.428 717.819 155.428C717.205 155.428 716.483 155.4 715.655 155.343C714.827 155.3 714.141 155.228 713.599 155.129V149.816C714.17 149.959 714.777 150.073 715.42 150.159C716.062 150.23 716.712 150.266 717.369 150.266C719.982 150.266 721.996 149.852 723.41 149.024C724.838 148.195 725.837 147.046 726.409 145.575C726.994 144.104 727.33 142.404 727.415 140.477H727.158C726.744 141.162 726.251 141.783 725.68 142.34C725.123 142.883 724.409 143.318 723.538 143.647C722.667 143.961 721.56 144.118 720.218 144.118C718.433 144.118 716.876 143.733 715.548 142.961C714.234 142.176 713.213 141.048 712.485 139.577C711.771 138.092 711.414 136.299 711.414 134.2C711.414 131.93 711.842 129.987 712.699 128.374C713.57 126.746 714.805 125.496 716.405 124.625C718.004 123.754 719.889 123.318 722.06 123.318C723.659 123.318 725.152 123.597 726.537 124.154C727.922 124.696 729.136 125.532 730.179 126.66C731.235 127.788 732.057 129.216 732.642 130.944C733.228 132.672 733.52 134.707 733.52 137.049ZM722.189 128.631C720.903 128.631 719.854 129.073 719.04 129.959C718.226 130.844 717.819 132.229 717.819 134.115C717.819 135.628 718.169 136.828 718.868 137.713C719.568 138.599 720.632 139.041 722.06 139.041C723.045 139.041 723.902 138.827 724.631 138.399C725.359 137.956 725.923 137.406 726.323 136.749C726.737 136.078 726.944 135.393 726.944 134.693C726.944 133.965 726.844 133.243 726.644 132.529C726.444 131.815 726.144 131.166 725.744 130.58C725.345 129.995 724.845 129.523 724.245 129.166C723.659 128.809 722.974 128.631 722.189 128.631Z" fill="white"/>
<rect x="526" y="178" width="77.1792" height="77.1792" rx="2" fill="#08003C"/>
<path d="M557.122 234H550.503V215.878C550.503 215.378 550.51 214.764 550.525 214.036C550.539 213.293 550.56 212.536 550.589 211.765C550.617 210.98 550.646 210.273 550.674 209.644C550.517 209.83 550.196 210.151 549.711 210.608C549.239 211.051 548.797 211.451 548.382 211.808L544.784 214.7L541.592 210.715L551.681 202.682H557.122V234ZM587.583 218.341C587.583 220.869 587.383 223.125 586.983 225.11C586.598 227.095 585.969 228.78 585.098 230.166C584.241 231.551 583.113 232.608 581.714 233.336C580.314 234.064 578.615 234.428 576.615 234.428C574.102 234.428 572.038 233.793 570.425 232.522C568.811 231.237 567.618 229.394 566.847 226.995C566.076 224.582 565.691 221.697 565.691 218.341C565.691 214.957 566.04 212.065 566.74 209.666C567.454 207.252 568.611 205.403 570.21 204.118C571.81 202.832 573.945 202.19 576.615 202.19C579.114 202.19 581.171 202.832 582.785 204.118C584.413 205.389 585.619 207.231 586.405 209.644C587.19 212.043 587.583 214.942 587.583 218.341ZM572.267 218.341C572.267 220.726 572.395 222.718 572.652 224.318C572.924 225.903 573.374 227.095 574.002 227.895C574.63 228.695 575.501 229.095 576.615 229.095C577.715 229.095 578.579 228.702 579.207 227.916C579.85 227.117 580.307 225.924 580.578 224.339C580.85 222.74 580.985 220.74 580.985 218.341C580.985 215.956 580.85 213.964 580.578 212.365C580.307 210.765 579.85 209.566 579.207 208.766C578.579 207.952 577.715 207.545 576.615 207.545C575.501 207.545 574.63 207.952 574.002 208.766C573.374 209.566 572.924 210.765 572.652 212.365C572.395 213.964 572.267 215.956 572.267 218.341Z" fill="white"/>
<rect x="605" y="178" width="77.1792" height="77.1792" rx="2" fill="#08003C"/>
<path d="M636.122 234H629.503V215.878C629.503 215.378 629.51 214.764 629.525 214.036C629.539 213.293 629.56 212.536 629.589 211.765C629.617 210.98 629.646 210.273 629.674 209.644C629.517 209.83 629.196 210.151 628.711 210.608C628.239 211.051 627.797 211.451 627.382 211.808L623.784 214.7L620.592 210.715L630.681 202.682H636.122V234ZM661.228 234H654.609V215.878C654.609 215.378 654.616 214.764 654.63 214.036C654.644 213.293 654.666 212.536 654.694 211.765C654.723 210.98 654.751 210.273 654.78 209.644C654.623 209.83 654.301 210.151 653.816 210.608C653.345 211.051 652.902 211.451 652.488 211.808L648.889 214.7L645.697 210.715L655.787 202.682H661.228V234Z" fill="white"/>
<rect x="684" y="178" width="77.1792" height="77.1792" rx="2" fill="#08003C"/>
<path d="M715.122 234H708.503V215.878C708.503 215.378 708.51 214.764 708.525 214.036C708.539 213.293 708.56 212.536 708.589 211.765C708.617 210.98 708.646 210.273 708.674 209.644C708.517 209.83 708.196 210.151 707.711 210.608C707.239 211.051 706.797 211.451 706.382 211.808L702.784 214.7L699.592 210.715L709.681 202.682H715.122V234ZM745.754 234H723.862V229.394L731.723 221.447C733.309 219.819 734.58 218.463 735.536 217.377C736.508 216.278 737.207 215.278 737.636 214.378C738.078 213.479 738.3 212.515 738.3 211.487C738.3 210.244 737.95 209.316 737.25 208.702C736.565 208.073 735.644 207.759 734.487 207.759C733.273 207.759 732.095 208.038 730.952 208.595C729.81 209.152 728.617 209.944 727.375 210.972L723.776 206.71C724.676 205.938 725.626 205.21 726.625 204.525C727.639 203.839 728.81 203.289 730.138 202.875C731.481 202.447 733.087 202.233 734.958 202.233C737.014 202.233 738.778 202.604 740.249 203.347C741.734 204.089 742.877 205.103 743.676 206.388C744.476 207.659 744.876 209.102 744.876 210.715C744.876 212.443 744.533 214.021 743.848 215.449C743.162 216.877 742.163 218.291 740.849 219.691C739.549 221.09 737.978 222.64 736.136 224.339L732.109 228.131V228.431H745.754V234Z" fill="white"/>
<path d="M85.5481 180.441H76.6424L75.0412 187H67.5174L76.8179 156.598H85.5481L94.8486 187H87.1494L85.5481 180.441ZM77.7831 175.221H84.3636L81.0733 161.775L77.7831 175.221ZM143.73 166.03V171.448H123.813V166.03H143.73ZM143.73 175.265V180.639H123.813V175.265H143.73Z" fill="#0037AC"/>
<path d="M451.636 177.809C451.636 176.742 451.424 175.901 451 175.287C450.59 174.658 450.005 174.212 449.245 173.949C448.499 173.685 447.622 173.554 446.613 173.554H443.651V181.758H446.306C447.008 181.758 447.673 181.706 448.302 181.604C448.945 181.502 449.515 181.311 450.013 181.034C450.524 180.756 450.919 180.361 451.197 179.849C451.49 179.323 451.636 178.643 451.636 177.809ZM450.495 165.087C450.495 163.888 450.115 163.025 449.355 162.498C448.609 161.957 447.446 161.687 445.867 161.687H443.651V168.728H446.086C447.636 168.728 448.755 168.443 449.442 167.873C450.144 167.302 450.495 166.374 450.495 165.087ZM459.05 178.094C459.05 179.849 458.714 181.304 458.041 182.459C457.368 183.615 456.447 184.521 455.277 185.179C454.107 185.837 452.769 186.305 451.263 186.583C449.771 186.861 448.199 187 446.547 187H436.457V156.598H446.086C447.651 156.598 449.128 156.73 450.517 156.993C451.921 157.241 453.164 157.665 454.246 158.265C455.328 158.85 456.176 159.647 456.791 160.656C457.419 161.65 457.734 162.886 457.734 164.363C457.734 165.577 457.478 166.63 456.966 167.522C456.454 168.399 455.774 169.123 454.926 169.693C454.078 170.249 453.157 170.651 452.162 170.9C453.244 171.075 454.312 171.419 455.365 171.931C456.432 172.428 457.31 173.174 457.997 174.168C458.699 175.162 459.05 176.471 459.05 178.094ZM509.73 166.03V171.448H489.813V166.03H509.73ZM509.73 175.265V180.639H489.813V175.265H509.73Z" fill="#08003C"/>
<rect x="1004" y="11" width="77.1792" height="77.1792" rx="2" fill="#0037AC"/>
<path d="M1048.12 67H1041.5V48.8778C1041.5 48.378 1041.51 47.7639 1041.52 47.0356C1041.54 46.293 1041.56 45.5361 1041.59 44.765C1041.62 43.9795 1041.65 43.2726 1041.67 42.6443C1041.52 42.8299 1041.2 43.1513 1040.71 43.6082C1040.24 44.0509 1039.8 44.4508 1039.38 44.8078L1035.78 47.6997L1032.59 43.7154L1042.68 35.6825H1048.12V67Z" fill="white"/>
<rect x="1083" y="11" width="77.1792" height="77.1792" rx="2" fill="#0037AC"/>
<path d="M1132.65 67H1110.76V62.3945L1118.62 54.4473C1120.2 52.8193 1121.47 51.4626 1122.43 50.3773C1123.4 49.2777 1124.1 48.278 1124.53 47.3783C1124.97 46.4787 1125.19 45.5147 1125.19 44.4865C1125.19 43.2441 1124.84 42.3158 1124.14 41.7018C1123.46 41.0734 1122.54 40.7592 1121.38 40.7592C1120.17 40.7592 1118.99 41.0377 1117.85 41.5947C1116.7 42.1516 1115.51 42.9442 1114.27 43.9724L1110.67 39.7096C1111.57 38.9385 1112.52 38.2101 1113.52 37.5247C1114.53 36.8392 1115.7 36.2894 1117.03 35.8753C1118.38 35.4468 1119.98 35.2326 1121.85 35.2326C1123.91 35.2326 1125.67 35.6039 1127.14 36.3465C1128.63 37.0891 1129.77 38.103 1130.57 39.3883C1131.37 40.6593 1131.77 42.1016 1131.77 43.7154C1131.77 45.4433 1131.43 47.0213 1130.74 48.4494C1130.06 49.8775 1129.06 51.2913 1127.74 52.6908C1126.44 54.0903 1124.87 55.6397 1123.03 57.3391L1119 61.1306V61.4305H1132.65V67Z" fill="white"/>
<rect x="1162" y="11" width="77.1792" height="77.1792" rx="2" fill="#0037AC"/>
<path d="M1210.43 42.6871C1210.43 44.1295 1210.13 45.379 1209.53 46.4358C1208.93 47.4926 1208.11 48.3566 1207.09 49.0278C1206.07 49.699 1204.93 50.1916 1203.66 50.5058V50.6343C1206.17 50.9485 1208.08 51.7197 1209.38 52.9478C1210.69 54.1759 1211.35 55.8182 1211.35 57.8746C1211.35 59.7026 1210.9 61.3377 1210 62.7801C1209.11 64.2224 1207.74 65.3577 1205.89 66.186C1204.03 67.0143 1201.64 67.4284 1198.71 67.4284C1196.98 67.4284 1195.37 67.2856 1193.87 67C1192.38 66.7287 1190.98 66.3074 1189.67 65.7362V60.1024C1191.01 60.7879 1192.42 61.3091 1193.89 61.6662C1195.36 62.0089 1196.73 62.1803 1198 62.1803C1200.37 62.1803 1202.03 61.7733 1202.97 60.9593C1203.93 60.131 1204.41 58.9743 1204.41 57.4891C1204.41 56.6179 1204.19 55.8825 1203.74 55.2827C1203.3 54.6829 1202.53 54.2259 1201.43 53.9118C1200.35 53.5976 1198.82 53.4405 1196.87 53.4405H1194.49V48.3637H1196.91C1198.84 48.3637 1200.3 48.1852 1201.3 47.8282C1202.32 47.4569 1203 46.9571 1203.36 46.3287C1203.73 45.6861 1203.92 44.9578 1203.92 44.1438C1203.92 43.0299 1203.57 42.1588 1202.89 41.5304C1202.2 40.9021 1201.06 40.5879 1199.46 40.5879C1198.46 40.5879 1197.55 40.7164 1196.72 40.9735C1195.9 41.2162 1195.17 41.5161 1194.51 41.8731C1193.86 42.2159 1193.28 42.5515 1192.78 42.8799L1189.71 38.3173C1190.94 37.4319 1192.38 36.6964 1194.02 36.1109C1195.68 35.5254 1197.65 35.2326 1199.93 35.2326C1203.16 35.2326 1205.72 35.8824 1207.6 37.1819C1209.49 38.4815 1210.43 40.3165 1210.43 42.6871Z" fill="white"/>
<rect x="1004" y="90" width="77.1792" height="77.1792" rx="2" fill="#0037AC"/>
<path d="M1054.36 139.509H1050.59V146H1044.12V139.509H1030.75V134.904L1044.48 114.682H1050.59V134.368H1054.36V139.509ZM1044.12 134.368V129.056C1044.12 128.556 1044.12 127.964 1044.14 127.278C1044.17 126.593 1044.19 125.907 1044.22 125.222C1044.25 124.536 1044.28 123.929 1044.31 123.401C1044.35 122.858 1044.38 122.48 1044.39 122.266H1044.22C1043.95 122.851 1043.67 123.422 1043.37 123.979C1043.07 124.522 1042.72 125.093 1042.32 125.693L1036.58 134.368H1044.12Z" fill="white"/>
<rect x="1083" y="90" width="77.1792" height="77.1792" rx="2" fill="#0037AC"/>
<path d="M1122.15 125.993C1124.07 125.993 1125.77 126.357 1127.25 127.085C1128.75 127.814 1129.93 128.885 1130.79 130.298C1131.64 131.712 1132.07 133.454 1132.07 135.525C1132.07 137.781 1131.6 139.731 1130.66 141.373C1129.73 143.001 1128.34 144.251 1126.48 145.122C1124.64 145.993 1122.34 146.428 1119.58 146.428C1117.94 146.428 1116.39 146.286 1114.93 146C1113.49 145.729 1112.23 145.307 1111.14 144.736V139.017C1112.23 139.588 1113.53 140.074 1115.04 140.473C1116.57 140.859 1118 141.052 1119.35 141.052C1120.66 141.052 1121.77 140.88 1122.67 140.538C1123.57 140.181 1124.24 139.638 1124.7 138.91C1125.17 138.167 1125.41 137.225 1125.41 136.082C1125.41 134.554 1124.89 133.383 1123.87 132.569C1122.84 131.755 1121.26 131.348 1119.13 131.348C1118.32 131.348 1117.47 131.427 1116.58 131.584C1115.71 131.741 1114.98 131.898 1114.4 132.055L1111.76 130.641L1112.94 114.682H1129.93V120.295H1118.75L1118.17 126.443C1118.65 126.343 1119.18 126.243 1119.75 126.143C1120.32 126.043 1121.12 125.993 1122.15 125.993Z" fill="white"/>
<rect x="1162" y="90" width="77.1792" height="77.1792" rx="2" fill="#0037AC"/>
<path d="M1189.54 132.698C1189.54 130.898 1189.67 129.12 1189.93 127.364C1190.2 125.593 1190.66 123.929 1191.32 122.373C1191.98 120.802 1192.9 119.417 1194.08 118.217C1195.27 117.003 1196.78 116.053 1198.6 115.368C1200.43 114.668 1202.64 114.318 1205.24 114.318C1205.86 114.318 1206.57 114.347 1207.39 114.404C1208.21 114.447 1208.9 114.525 1209.44 114.64V119.931C1208.87 119.802 1208.26 119.702 1207.6 119.631C1206.96 119.545 1206.31 119.502 1205.67 119.502C1203.07 119.502 1201.06 119.916 1199.63 120.745C1198.22 121.573 1197.22 122.722 1196.63 124.193C1196.06 125.65 1195.73 127.349 1195.63 129.292H1195.9C1196.3 128.592 1196.8 127.971 1197.4 127.428C1198.02 126.885 1198.76 126.457 1199.63 126.143C1200.5 125.814 1201.52 125.65 1202.69 125.65C1204.52 125.65 1206.11 126.043 1207.45 126.828C1208.79 127.599 1209.83 128.72 1210.56 130.191C1211.28 131.662 1211.65 133.454 1211.65 135.568C1211.65 137.824 1211.21 139.766 1210.34 141.394C1209.47 143.022 1208.24 144.272 1206.64 145.143C1205.05 146 1203.17 146.428 1200.98 146.428C1199.38 146.428 1197.89 146.157 1196.5 145.614C1195.12 145.057 1193.91 144.215 1192.86 143.087C1191.82 141.959 1191.01 140.538 1190.42 138.824C1189.84 137.096 1189.54 135.054 1189.54 132.698ZM1200.85 141.137C1202.15 141.137 1203.21 140.695 1204.02 139.809C1204.84 138.924 1205.24 137.539 1205.24 135.654C1205.24 134.126 1204.89 132.926 1204.17 132.055C1203.47 131.17 1202.41 130.727 1200.98 130.727C1200.01 130.727 1199.15 130.948 1198.41 131.391C1197.68 131.819 1197.12 132.369 1196.72 133.04C1196.32 133.697 1196.12 134.376 1196.12 135.075C1196.12 135.804 1196.22 136.525 1196.42 137.239C1196.62 137.953 1196.92 138.603 1197.32 139.188C1197.72 139.774 1198.21 140.245 1198.8 140.602C1199.4 140.959 1200.08 141.137 1200.85 141.137Z" fill="white"/>
<rect x="1004" y="169" width="77.1792" height="77.1792" rx="2" fill="#08003C"/>
<path d="M1034.86 225L1046.62 199.252H1031.18V193.682H1053.65V197.838L1041.8 225H1034.86Z" fill="white"/>
<rect x="1083" y="169" width="77.1792" height="77.1792" rx="2" fill="#08003C"/>
<path d="M1121.55 193.275C1123.35 193.275 1125.01 193.554 1126.52 194.111C1128.05 194.668 1129.27 195.51 1130.19 196.639C1131.1 197.752 1131.56 199.152 1131.56 200.837C1131.56 202.094 1131.31 203.193 1130.81 204.136C1130.32 205.078 1129.66 205.907 1128.81 206.621C1127.97 207.321 1127.02 207.935 1125.94 208.463C1127.06 209.048 1128.11 209.734 1129.11 210.519C1130.11 211.291 1130.93 212.197 1131.56 213.24C1132.2 214.282 1132.52 215.496 1132.52 216.881C1132.52 218.624 1132.06 220.137 1131.13 221.423C1130.2 222.694 1128.91 223.679 1127.27 224.379C1125.63 225.079 1123.72 225.428 1121.55 225.428C1119.21 225.428 1117.22 225.093 1115.58 224.422C1113.93 223.75 1112.68 222.794 1111.83 221.551C1110.97 220.295 1110.54 218.795 1110.54 217.053C1110.54 215.625 1110.81 214.382 1111.33 213.326C1111.88 212.269 1112.61 211.362 1113.52 210.605C1114.43 209.834 1115.44 209.177 1116.54 208.634C1115.61 208.049 1114.76 207.385 1113.99 206.642C1113.23 205.9 1112.63 205.05 1112.17 204.093C1111.73 203.136 1111.51 202.037 1111.51 200.794C1111.51 199.138 1111.97 197.752 1112.9 196.639C1113.84 195.525 1115.08 194.689 1116.6 194.132C1118.13 193.561 1119.78 193.275 1121.55 193.275ZM1116.67 216.667C1116.67 217.795 1117.07 218.731 1117.87 219.473C1118.68 220.202 1119.88 220.566 1121.47 220.566C1123.11 220.566 1124.34 220.216 1125.15 219.516C1125.97 218.802 1126.37 217.867 1126.37 216.71C1126.37 215.91 1126.14 215.211 1125.67 214.611C1125.21 214.011 1124.63 213.475 1123.93 213.004C1123.23 212.519 1122.52 212.069 1121.81 211.655L1121.23 211.355C1120.32 211.769 1119.52 212.233 1118.83 212.747C1118.16 213.261 1117.63 213.84 1117.25 214.482C1116.86 215.125 1116.67 215.853 1116.67 216.667ZM1121.51 198.117C1120.42 198.117 1119.52 198.395 1118.81 198.952C1118.1 199.509 1117.74 200.294 1117.74 201.308C1117.74 202.022 1117.91 202.651 1118.25 203.193C1118.61 203.722 1119.08 204.186 1119.65 204.586C1120.23 204.986 1120.87 205.357 1121.55 205.7C1122.21 205.385 1122.82 205.036 1123.39 204.65C1123.97 204.264 1124.43 203.8 1124.79 203.258C1125.14 202.715 1125.32 202.065 1125.32 201.308C1125.32 200.294 1124.96 199.509 1124.23 198.952C1123.52 198.395 1122.61 198.117 1121.51 198.117Z" fill="white"/>
<rect x="1162" y="169" width="77.1792" height="77.1792" rx="2" fill="#08003C"/>
<path d="M1211.52 207.049C1211.52 208.849 1211.38 210.634 1211.11 212.404C1210.86 214.175 1210.4 215.846 1209.74 217.417C1209.09 218.974 1208.16 220.359 1206.98 221.573C1205.79 222.772 1204.29 223.715 1202.46 224.4C1200.63 225.086 1198.42 225.428 1195.82 225.428C1195.2 225.428 1194.48 225.4 1193.66 225.343C1192.83 225.3 1192.14 225.228 1191.6 225.129V219.816C1192.17 219.959 1192.78 220.073 1193.42 220.159C1194.06 220.23 1194.71 220.266 1195.37 220.266C1197.98 220.266 1200 219.852 1201.41 219.024C1202.84 218.195 1203.84 217.046 1204.41 215.575C1204.99 214.104 1205.33 212.404 1205.42 210.477H1205.16C1204.74 211.162 1204.25 211.783 1203.68 212.34C1203.12 212.883 1202.41 213.318 1201.54 213.647C1200.67 213.961 1199.56 214.118 1198.22 214.118C1196.43 214.118 1194.88 213.733 1193.55 212.961C1192.23 212.176 1191.21 211.048 1190.48 209.577C1189.77 208.092 1189.41 206.299 1189.41 204.2C1189.41 201.93 1189.84 199.987 1190.7 198.374C1191.57 196.746 1192.81 195.496 1194.4 194.625C1196 193.754 1197.89 193.318 1200.06 193.318C1201.66 193.318 1203.15 193.597 1204.54 194.154C1205.92 194.696 1207.14 195.532 1208.18 196.66C1209.24 197.788 1210.06 199.216 1210.64 200.944C1211.23 202.672 1211.52 204.707 1211.52 207.049ZM1200.19 198.631C1198.9 198.631 1197.85 199.073 1197.04 199.959C1196.23 200.844 1195.82 202.229 1195.82 204.115C1195.82 205.628 1196.17 206.828 1196.87 207.713C1197.57 208.599 1198.63 209.041 1200.06 209.041C1201.05 209.041 1201.9 208.827 1202.63 208.399C1203.36 207.956 1203.92 207.406 1204.32 206.749C1204.74 206.078 1204.94 205.393 1204.94 204.693C1204.94 203.965 1204.84 203.243 1204.64 202.529C1204.44 201.815 1204.14 201.166 1203.74 200.58C1203.34 199.995 1202.84 199.523 1202.24 199.166C1201.66 198.809 1200.97 198.631 1200.19 198.631Z" fill="white"/>
<rect x="1004" y="248" width="77.1792" height="77.1792" rx="2" fill="#08003C"/>
<path d="M1035.12 304H1028.5V285.878C1028.5 285.378 1028.51 284.764 1028.52 284.036C1028.54 283.293 1028.56 282.536 1028.59 281.765C1028.62 280.98 1028.65 280.273 1028.67 279.644C1028.52 279.83 1028.2 280.151 1027.71 280.608C1027.24 281.051 1026.8 281.451 1026.38 281.808L1022.78 284.7L1019.59 280.715L1029.68 272.682H1035.12V304ZM1065.58 288.341C1065.58 290.869 1065.38 293.125 1064.98 295.11C1064.6 297.095 1063.97 298.78 1063.1 300.166C1062.24 301.551 1061.11 302.608 1059.71 303.336C1058.31 304.064 1056.61 304.428 1054.62 304.428C1052.1 304.428 1050.04 303.793 1048.42 302.522C1046.81 301.237 1045.62 299.394 1044.85 296.995C1044.08 294.582 1043.69 291.697 1043.69 288.341C1043.69 284.957 1044.04 282.065 1044.74 279.666C1045.45 277.252 1046.61 275.403 1048.21 274.118C1049.81 272.832 1051.94 272.19 1054.62 272.19C1057.11 272.19 1059.17 272.832 1060.78 274.118C1062.41 275.389 1063.62 277.231 1064.4 279.644C1065.19 282.043 1065.58 284.942 1065.58 288.341ZM1050.27 288.341C1050.27 290.726 1050.4 292.718 1050.65 294.318C1050.92 295.903 1051.37 297.095 1052 297.895C1052.63 298.695 1053.5 299.095 1054.62 299.095C1055.71 299.095 1056.58 298.702 1057.21 297.916C1057.85 297.117 1058.31 295.924 1058.58 294.339C1058.85 292.74 1058.99 290.74 1058.99 288.341C1058.99 285.956 1058.85 283.964 1058.58 282.365C1058.31 280.765 1057.85 279.566 1057.21 278.766C1056.58 277.952 1055.71 277.545 1054.62 277.545C1053.5 277.545 1052.63 277.952 1052 278.766C1051.37 279.566 1050.92 280.765 1050.65 282.365C1050.4 283.964 1050.27 285.956 1050.27 288.341Z" fill="white"/>
<rect x="1083" y="248" width="77.1792" height="77.1792" rx="2" fill="#08003C"/>
<path d="M1114.12 304H1107.5V285.878C1107.5 285.378 1107.51 284.764 1107.52 284.036C1107.54 283.293 1107.56 282.536 1107.59 281.765C1107.62 280.98 1107.65 280.273 1107.67 279.644C1107.52 279.83 1107.2 280.151 1106.71 280.608C1106.24 281.051 1105.8 281.451 1105.38 281.808L1101.78 284.7L1098.59 280.715L1108.68 272.682H1114.12V304ZM1139.23 304H1132.61V285.878C1132.61 285.378 1132.62 284.764 1132.63 284.036C1132.64 283.293 1132.67 282.536 1132.69 281.765C1132.72 280.98 1132.75 280.273 1132.78 279.644C1132.62 279.83 1132.3 280.151 1131.82 280.608C1131.34 281.051 1130.9 281.451 1130.49 281.808L1126.89 284.7L1123.7 280.715L1133.79 272.682H1139.23V304Z" fill="white"/>
<rect x="1162" y="248" width="77.1792" height="77.1792" rx="2" fill="#08003C"/>
<path d="M1193.12 304H1186.5V285.878C1186.5 285.378 1186.51 284.764 1186.52 284.036C1186.54 283.293 1186.56 282.536 1186.59 281.765C1186.62 280.98 1186.65 280.273 1186.67 279.644C1186.52 279.83 1186.2 280.151 1185.71 280.608C1185.24 281.051 1184.8 281.451 1184.38 281.808L1180.78 284.7L1177.59 280.715L1187.68 272.682H1193.12V304ZM1223.75 304H1201.86V299.394L1209.72 291.447C1211.31 289.819 1212.58 288.463 1213.54 287.377C1214.51 286.278 1215.21 285.278 1215.64 284.378C1216.08 283.479 1216.3 282.515 1216.3 281.487C1216.3 280.244 1215.95 279.316 1215.25 278.702C1214.56 278.073 1213.64 277.759 1212.49 277.759C1211.27 277.759 1210.09 278.038 1208.95 278.595C1207.81 279.152 1206.62 279.944 1205.38 280.972L1201.78 276.71C1202.68 275.938 1203.63 275.21 1204.63 274.525C1205.64 273.839 1206.81 273.289 1208.14 272.875C1209.48 272.447 1211.09 272.233 1212.96 272.233C1215.01 272.233 1216.78 272.604 1218.25 273.347C1219.73 274.089 1220.88 275.103 1221.68 276.388C1222.48 277.659 1222.88 279.102 1222.88 280.715C1222.88 282.443 1222.53 284.021 1221.85 285.449C1221.16 286.877 1220.16 288.291 1218.85 289.691C1217.55 291.09 1215.98 292.64 1214.14 294.339L1210.11 298.131V298.431H1223.75V304Z" fill="white"/>
<path d="M921 175L901 163.453V186.547L921 175ZM793 175V177H903V175V173H793V175Z" fill="#C90000"/>
<path d="M814.903 145.141L810.283 159H805.429L800.757 145.141H805.207L807.908 155.842L810.727 145.141H814.903ZM823.036 156.494C823.723 156.494 824.276 156.386 824.693 156.168C825.12 155.951 825.333 155.624 825.333 155.189C825.333 154.894 825.25 154.646 825.085 154.446C824.92 154.245 824.602 154.054 824.132 153.871C823.663 153.689 822.967 153.471 822.044 153.219C821.2 152.993 820.452 152.706 819.8 152.358C819.156 152.01 818.651 151.561 818.286 151.013C817.929 150.465 817.751 149.782 817.751 148.965C817.751 148.138 817.981 147.403 818.443 146.759C818.904 146.115 819.582 145.611 820.478 145.245C821.374 144.871 822.471 144.684 823.767 144.684C825.002 144.684 826.077 144.845 826.99 145.167C827.912 145.48 828.709 145.88 829.378 146.368L827.734 148.795C827.16 148.438 826.542 148.155 825.881 147.947C825.22 147.729 824.554 147.62 823.884 147.62C823.214 147.62 822.714 147.712 822.384 147.894C822.062 148.068 821.901 148.334 821.901 148.69C821.901 148.925 821.983 149.13 822.149 149.304C822.323 149.469 822.645 149.643 823.114 149.826C823.584 150 824.272 150.217 825.176 150.478C826.072 150.731 826.851 151.022 827.512 151.353C828.182 151.683 828.7 152.127 829.065 152.684C829.431 153.232 829.613 153.958 829.613 154.863C829.613 155.872 829.313 156.721 828.713 157.408C828.113 158.086 827.317 158.595 826.325 158.935C825.333 159.274 824.245 159.444 823.062 159.444C821.722 159.444 820.539 159.252 819.513 158.869C818.486 158.487 817.612 157.982 816.89 157.356L818.965 155.033C819.504 155.45 820.113 155.798 820.792 156.077C821.479 156.355 822.227 156.494 823.036 156.494ZM845.602 158.191C845.063 158.539 844.411 158.835 843.645 159.078C842.879 159.322 842.018 159.444 841.061 159.444C839.251 159.444 837.907 158.983 837.029 158.06C836.15 157.129 835.711 155.868 835.711 154.276V147.986H832.8V145.141H835.711V142.139L839.834 141.643V145.141H844.297L843.893 147.986H839.834V154.276C839.834 154.963 839.991 155.455 840.304 155.751C840.617 156.046 841.118 156.194 841.805 156.194C842.292 156.194 842.736 156.138 843.136 156.025C843.545 155.903 843.91 155.751 844.232 155.568L845.602 158.191ZM860.443 155.007C860.443 155.529 860.513 155.907 860.652 156.142C860.8 156.377 861.035 156.555 861.357 156.677L860.508 159.392C859.691 159.313 858.999 159.135 858.433 158.856C857.877 158.569 857.437 158.139 857.115 157.564C856.585 158.2 855.906 158.674 855.08 158.987C854.253 159.291 853.409 159.444 852.548 159.444C851.121 159.444 849.981 159.039 849.129 158.23C848.285 157.412 847.863 156.364 847.863 155.085C847.863 153.58 848.45 152.418 849.625 151.601C850.808 150.783 852.47 150.374 854.61 150.374H856.476V149.852C856.476 149.13 856.241 148.595 855.771 148.247C855.31 147.899 854.632 147.725 853.735 147.725C853.292 147.725 852.722 147.79 852.026 147.921C851.33 148.042 850.634 148.221 849.938 148.456L848.985 145.715C849.881 145.376 850.812 145.119 851.778 144.945C852.752 144.771 853.622 144.684 854.388 144.684C856.45 144.684 857.972 145.106 858.955 145.95C859.947 146.785 860.443 147.994 860.443 149.578V155.007ZM853.97 156.494C854.414 156.494 854.88 156.364 855.367 156.103C855.854 155.833 856.224 155.455 856.476 154.968V152.723H855.458C854.31 152.723 853.466 152.901 852.926 153.258C852.387 153.606 852.117 154.119 852.117 154.798C852.117 155.329 852.278 155.746 852.6 156.051C852.931 156.346 853.387 156.494 853.97 156.494ZM871.773 156.194C872.339 156.194 872.87 156.085 873.366 155.868C873.87 155.642 874.37 155.355 874.866 155.007L876.706 157.617C876.097 158.139 875.353 158.574 874.475 158.922C873.605 159.27 872.63 159.444 871.552 159.444C870.064 159.444 868.785 159.139 867.715 158.53C866.645 157.912 865.823 157.06 865.248 155.972C864.674 154.876 864.387 153.606 864.387 152.162C864.387 150.718 864.679 149.434 865.261 148.312C865.853 147.181 866.688 146.294 867.767 145.65C868.855 145.006 870.142 144.684 871.63 144.684C872.683 144.684 873.618 144.832 874.436 145.128C875.262 145.415 876.019 145.846 876.706 146.42L874.918 148.899C874.449 148.569 873.953 148.312 873.431 148.129C872.909 147.947 872.365 147.855 871.8 147.855C870.869 147.855 870.116 148.186 869.542 148.847C868.976 149.5 868.694 150.604 868.694 152.162C868.694 153.18 868.828 153.984 869.098 154.576C869.368 155.159 869.733 155.577 870.194 155.829C870.664 156.072 871.191 156.194 871.773 156.194ZM893.231 145.141L888.676 151.274L893.609 159H888.911L884.356 151.405L888.911 145.141H893.231ZM884.2 139.203V159H880.076V139.634L884.2 139.203Z" fill="#C90000"/>
</svg>
