<svg width="1400" height="350" viewBox="0 0 1400 350" fill="none" xmlns="http://www.w3.org/2000/svg">
<rect width="1400" height="350" fill="white"/>
<rect x="505.389" y="323.186" width="19.1617" height="19.1617" rx="3.74252" fill="#0037AC"/>
<path d="M512.812 328.192C512.685 327.882 512.246 327.882 512.119 328.192L511.92 328.678C511.882 328.769 511.882 328.871 511.919 328.962L514.593 335.522C514.693 335.768 514.512 336.037 514.246 336.037H511.585H510.687C510.421 336.037 510.24 335.767 510.341 335.521L510.802 334.397C510.839 334.306 510.84 334.205 510.803 334.114L510.593 333.599C510.466 333.288 510.027 333.288 509.9 333.598L508.643 336.659C508.542 336.905 508.723 337.175 508.989 337.175H515.942C516.208 337.175 516.389 336.905 516.288 336.659L512.812 328.192Z" fill="white"/>
<path d="M515.348 330.011C515.247 329.765 515.428 329.496 515.694 329.496H518.355H519.253C519.519 329.496 519.701 329.766 519.599 330.012L519.138 331.136C519.101 331.227 519.101 331.329 519.138 331.419L519.348 331.934C519.474 332.245 519.913 332.245 520.04 331.935L521.297 328.874C521.398 328.628 521.217 328.358 520.951 328.358H513.999C513.732 328.358 513.551 328.628 513.652 328.874L517.128 337.341C517.256 337.651 517.694 337.651 517.821 337.341L518.021 336.855C518.058 336.764 518.058 336.662 518.021 336.571L515.348 330.011Z" fill="white"/>
<path d="M536.368 334.455H533.656L533.128 336.281H531.83L534.245 328.69H535.829L538.25 336.281H536.896L536.368 334.455ZM533.92 333.47H536.099L535.015 329.68L533.92 333.47ZM540.545 330.472V334.532C540.545 334.877 540.613 335.122 540.748 335.269C540.888 335.416 541.097 335.489 541.375 335.489C541.64 335.489 541.894 335.41 542.14 335.253C542.386 335.095 542.58 334.902 542.723 334.675V330.472H543.955V336.281H542.894L542.817 335.539C542.6 335.828 542.327 336.05 541.997 336.204C541.667 336.355 541.33 336.43 540.985 336.43C540.424 336.43 540.004 336.276 539.725 335.968C539.45 335.656 539.313 335.229 539.313 334.686V330.472H540.545ZM550.762 335.973C550.549 336.109 550.294 336.219 549.997 336.303C549.7 336.388 549.39 336.43 549.067 336.43C548.392 336.43 547.879 336.256 547.527 335.907C547.179 335.555 547.004 335.093 547.004 334.521V331.369H545.712V330.472H547.004V329.174L548.237 329.025V330.472H550.195L550.057 331.369H548.237V334.51C548.237 334.822 548.314 335.055 548.468 335.209C548.625 335.359 548.882 335.434 549.238 335.434C549.45 335.434 549.647 335.408 549.826 335.357C550.006 335.306 550.169 335.24 550.316 335.159L550.762 335.973ZM554.834 330.318C555.402 330.318 555.881 330.445 556.269 330.698C556.658 330.951 556.952 331.305 557.15 331.759C557.351 332.214 557.452 332.75 557.452 333.366C557.452 333.978 557.349 334.515 557.144 334.977C556.942 335.436 556.645 335.793 556.253 336.05C555.864 336.303 555.389 336.43 554.828 336.43C554.267 336.43 553.79 336.307 553.398 336.061C553.009 335.812 552.712 335.458 552.507 334.999C552.305 334.541 552.204 334 552.204 333.377C552.204 332.772 552.305 332.24 552.507 331.781C552.712 331.323 553.011 330.965 553.403 330.709C553.796 330.448 554.272 330.318 554.834 330.318ZM554.834 331.275C554.39 331.275 554.056 331.446 553.832 331.787C553.609 332.124 553.497 332.654 553.497 333.377C553.497 334.095 553.607 334.625 553.827 334.966C554.051 335.308 554.384 335.478 554.828 335.478C555.272 335.478 555.604 335.308 555.824 334.966C556.048 334.625 556.159 334.092 556.159 333.366C556.159 332.651 556.049 332.124 555.829 331.787C555.609 331.446 555.277 331.275 554.834 331.275ZM559.159 336.281V335.401H560.011V331.347H559.159V330.472H560.952L561.178 331.82C561.394 331.332 561.662 330.962 561.981 330.709C562.303 330.452 562.718 330.324 563.224 330.324C563.396 330.324 563.55 330.338 563.686 330.368C563.825 330.393 563.963 330.428 564.099 330.472L563.73 331.528C563.613 331.495 563.503 331.471 563.4 331.457C563.297 331.438 563.184 331.429 563.059 331.429C562.637 331.429 562.272 331.587 561.964 331.902C561.66 332.218 561.42 332.665 561.244 333.245V335.401H562.415V336.281H559.159ZM563.009 332.612V331.182L563.163 330.472H564.099L563.89 332.612H563.009ZM567.026 335.434C567.026 335.166 567.122 334.937 567.313 334.746C567.503 334.552 567.738 334.455 568.017 334.455C568.299 334.455 568.534 334.552 568.721 334.746C568.912 334.937 569.007 335.166 569.007 335.434C569.007 335.709 568.912 335.944 568.721 336.138C568.534 336.333 568.299 336.43 568.017 336.43C567.738 336.43 567.503 336.333 567.313 336.138C567.122 335.944 567.026 335.709 567.026 335.434ZM567.026 331.528C567.026 331.349 567.07 331.184 567.158 331.033C567.247 330.883 567.366 330.764 567.516 330.676C567.666 330.588 567.833 330.544 568.017 330.544C568.299 330.544 568.534 330.641 568.721 330.835C568.912 331.026 569.007 331.257 569.007 331.528C569.007 331.8 568.912 332.034 568.721 332.232C568.534 332.427 568.299 332.524 568.017 332.524C567.738 332.524 567.503 332.427 567.313 332.232C567.122 332.034 567.026 331.8 567.026 331.528ZM583.714 328.657V333.536C583.714 333.98 583.646 334.382 583.51 334.741C583.375 335.1 583.175 335.407 582.911 335.66C582.65 335.913 582.329 336.107 581.948 336.243C581.57 336.378 581.137 336.446 580.65 336.446C580.158 336.446 579.733 336.384 579.373 336.259C579.018 336.131 578.675 335.955 578.345 335.731L579.032 334.62C579.293 334.8 579.537 334.926 579.764 334.999C579.991 335.069 580.25 335.104 580.54 335.104C580.932 335.104 581.258 334.979 581.519 334.73C581.783 334.477 581.915 334.086 581.915 333.558V329.977H579.571V328.657H583.714ZM587.813 330.247C588.415 330.247 588.926 330.375 589.348 330.632C589.77 330.888 590.093 331.25 590.316 331.715C590.54 332.177 590.652 332.72 590.652 333.344C590.652 333.993 590.538 334.552 590.311 335.021C590.087 335.487 589.764 335.845 589.343 336.094C588.921 336.344 588.411 336.468 587.813 336.468C587.219 336.468 586.709 336.345 586.284 336.1C585.862 335.854 585.538 335.498 585.31 335.032C585.087 334.567 584.975 334.007 584.975 333.355C584.975 332.735 585.087 332.192 585.31 331.726C585.538 331.261 585.862 330.897 586.284 330.637C586.709 330.377 587.219 330.247 587.813 330.247ZM587.813 331.528C587.458 331.528 587.193 331.675 587.021 331.968C586.852 332.258 586.768 332.72 586.768 333.355C586.768 334 586.852 334.468 587.021 334.757C587.193 335.047 587.458 335.192 587.813 335.192C588.169 335.192 588.431 335.047 588.6 334.757C588.772 334.468 588.858 333.996 588.858 333.344C588.858 332.713 588.772 332.253 588.6 331.963C588.431 331.673 588.169 331.528 587.813 331.528ZM594.223 335.225C594.513 335.225 594.746 335.179 594.922 335.088C595.102 334.996 595.191 334.858 595.191 334.675C595.191 334.55 595.157 334.446 595.087 334.361C595.017 334.277 594.883 334.196 594.685 334.119C594.487 334.042 594.194 333.951 593.805 333.844C593.449 333.749 593.134 333.628 592.859 333.481C592.588 333.334 592.375 333.146 592.221 332.915C592.07 332.684 591.995 332.396 591.995 332.051C591.995 331.702 592.092 331.393 592.287 331.121C592.481 330.85 592.767 330.637 593.145 330.483C593.523 330.325 593.985 330.247 594.531 330.247C595.052 330.247 595.505 330.314 595.89 330.45C596.279 330.582 596.614 330.751 596.897 330.956L596.204 331.979C595.962 331.829 595.701 331.71 595.423 331.622C595.144 331.53 594.863 331.484 594.581 331.484C594.298 331.484 594.088 331.523 593.948 331.6C593.813 331.673 593.745 331.785 593.745 331.935C593.745 332.034 593.78 332.121 593.849 332.194C593.923 332.264 594.058 332.337 594.256 332.414C594.454 332.487 594.744 332.579 595.125 332.689C595.503 332.795 595.831 332.918 596.11 333.058C596.393 333.197 596.611 333.384 596.765 333.619C596.919 333.85 596.996 334.156 596.996 334.537C596.996 334.963 596.869 335.32 596.616 335.61C596.363 335.896 596.028 336.111 595.61 336.254C595.191 336.397 594.733 336.468 594.234 336.468C593.669 336.468 593.171 336.388 592.738 336.226C592.305 336.065 591.937 335.852 591.632 335.588L592.507 334.609C592.734 334.785 592.991 334.932 593.277 335.049C593.567 335.166 593.882 335.225 594.223 335.225ZM599.984 333.866C600.024 334.185 600.107 334.444 600.232 334.642C600.36 334.836 600.523 334.979 600.721 335.071C600.919 335.159 601.141 335.203 601.387 335.203C601.655 335.203 601.913 335.159 602.163 335.071C602.412 334.983 602.652 334.866 602.883 334.719L603.582 335.665C603.307 335.9 602.973 336.092 602.581 336.243C602.192 336.393 601.748 336.468 601.249 336.468C600.582 336.468 600.023 336.336 599.572 336.072C599.12 335.804 598.781 335.438 598.554 334.972C598.326 334.506 598.213 333.971 598.213 333.366C598.213 332.79 598.323 332.267 598.543 331.798C598.763 331.325 599.084 330.949 599.506 330.67C599.931 330.388 600.45 330.247 601.062 330.247C601.62 330.247 602.102 330.366 602.509 330.604C602.92 330.842 603.237 331.185 603.461 331.633C603.688 332.08 603.802 332.618 603.802 333.245C603.802 333.344 603.798 333.45 603.791 333.564C603.787 333.677 603.78 333.778 603.769 333.866H599.984ZM601.062 331.413C600.751 331.413 600.499 331.525 600.309 331.748C600.118 331.972 600.002 332.33 599.962 332.821H602.108C602.104 332.396 602.021 332.055 601.86 331.798C601.699 331.541 601.433 331.413 601.062 331.413ZM608.309 330.247C608.818 330.247 609.229 330.373 609.541 330.626C609.852 330.879 610.08 331.237 610.223 331.699C610.37 332.161 610.443 332.709 610.443 333.344C610.443 333.945 610.355 334.482 610.179 334.955C610.003 335.425 609.748 335.795 609.414 336.067C609.081 336.334 608.675 336.468 608.198 336.468C607.63 336.468 607.168 336.265 606.812 335.858V338.537L605.074 338.718V330.439H606.614L606.691 331.094C606.93 330.789 607.19 330.573 607.472 330.445C607.755 330.313 608.033 330.247 608.309 330.247ZM607.769 331.528C607.568 331.528 607.39 331.589 607.236 331.71C607.082 331.831 606.941 331.996 606.812 332.205V334.669C606.933 334.849 607.06 334.981 607.192 335.066C607.327 335.15 607.487 335.192 607.67 335.192C607.978 335.192 608.219 335.053 608.391 334.774C608.563 334.492 608.65 334.022 608.65 333.366C608.65 332.882 608.615 332.507 608.545 332.243C608.475 331.976 608.375 331.791 608.242 331.688C608.11 331.581 607.953 331.528 607.769 331.528ZM613.409 327.947V331.017C613.655 330.756 613.921 330.564 614.207 330.439C614.497 330.311 614.803 330.247 615.126 330.247C615.646 330.247 616.044 330.399 616.319 330.703C616.594 331.008 616.732 331.437 616.732 331.99V336.281H614.994V332.474C614.994 332.122 614.953 331.877 614.873 331.737C614.796 331.598 614.649 331.528 614.432 331.528C614.311 331.528 614.192 331.558 614.075 331.616C613.961 331.671 613.849 331.752 613.739 331.858C613.629 331.965 613.519 332.091 613.409 332.238V336.281H611.671V328.118L613.409 327.947ZM630.344 334.053C630.344 334.526 630.219 334.944 629.97 335.308C629.724 335.671 629.37 335.955 628.908 336.16C628.446 336.366 627.891 336.468 627.241 336.468C626.523 336.468 625.919 336.364 625.432 336.155C624.947 335.942 624.546 335.68 624.227 335.368L625.14 334.356C625.422 334.602 625.734 334.792 626.075 334.928C626.416 335.06 626.79 335.126 627.197 335.126C627.45 335.126 627.672 335.089 627.863 335.016C628.054 334.943 628.202 334.836 628.309 334.697C628.415 334.558 628.468 334.389 628.468 334.191C628.468 334.004 628.426 333.846 628.342 333.718C628.257 333.589 628.114 333.474 627.913 333.371C627.715 333.268 627.438 333.164 627.082 333.058C626.488 332.874 626.009 332.673 625.646 332.452C625.287 332.232 625.024 331.978 624.859 331.688C624.698 331.398 624.617 331.061 624.617 330.676C624.617 330.21 624.746 329.812 625.002 329.482C625.263 329.152 625.611 328.901 626.048 328.728C626.484 328.552 626.965 328.464 627.489 328.464C628.079 328.464 628.6 328.55 629.051 328.723C629.502 328.891 629.893 329.133 630.223 329.449L629.37 330.428C629.114 330.212 628.837 330.052 628.54 329.949C628.243 329.843 627.94 329.79 627.632 329.79C627.405 329.79 627.205 329.819 627.032 329.878C626.86 329.933 626.726 330.015 626.631 330.126C626.535 330.236 626.488 330.373 626.488 330.538C626.488 330.699 626.534 330.835 626.625 330.945C626.717 331.055 626.877 331.16 627.104 331.259C627.331 331.354 627.647 331.466 628.05 331.594C628.531 331.741 628.941 331.917 629.282 332.122C629.627 332.324 629.889 332.579 630.069 332.887C630.252 333.195 630.344 333.584 630.344 334.053ZM636.38 334.598C636.38 334.818 636.409 334.977 636.468 335.077C636.53 335.176 636.629 335.251 636.765 335.302L636.407 336.446C636.063 336.413 635.771 336.338 635.533 336.221C635.298 336.1 635.113 335.918 634.977 335.676C634.753 335.944 634.467 336.144 634.119 336.276C633.771 336.404 633.415 336.468 633.052 336.468C632.45 336.468 631.97 336.298 631.611 335.957C631.255 335.612 631.077 335.17 631.077 334.631C631.077 333.996 631.324 333.507 631.82 333.162C632.318 332.817 633.019 332.645 633.921 332.645H634.708V332.425C634.708 332.121 634.609 331.895 634.411 331.748C634.216 331.602 633.93 331.528 633.552 331.528C633.365 331.528 633.125 331.556 632.832 331.611C632.538 331.662 632.245 331.737 631.952 331.836L631.55 330.681C631.928 330.538 632.32 330.43 632.727 330.357C633.138 330.283 633.505 330.247 633.827 330.247C634.697 330.247 635.338 330.424 635.753 330.78C636.171 331.132 636.38 331.642 636.38 332.309V334.598ZM633.651 335.225C633.838 335.225 634.035 335.17 634.24 335.06C634.445 334.946 634.601 334.787 634.708 334.581V333.635H634.279C633.794 333.635 633.439 333.71 633.211 333.861C632.984 334.007 632.87 334.224 632.87 334.51C632.87 334.734 632.938 334.91 633.074 335.038C633.213 335.163 633.406 335.225 633.651 335.225ZM638.059 336.281V330.439H639.577L639.698 331.116C639.959 330.822 640.234 330.604 640.524 330.461C640.813 330.318 641.143 330.247 641.514 330.247C642.012 330.247 642.405 330.399 642.691 330.703C642.977 331.008 643.12 331.437 643.12 331.99V336.281H641.382V332.491C641.382 332.253 641.365 332.064 641.332 331.924C641.299 331.781 641.241 331.68 641.156 331.622C641.075 331.559 640.964 331.528 640.821 331.528C640.7 331.528 640.58 331.556 640.463 331.611C640.349 331.662 640.237 331.737 640.127 331.836C640.017 331.935 639.907 332.055 639.797 332.194V336.281H638.059ZM649.915 335.94C649.688 336.087 649.413 336.212 649.09 336.314C648.767 336.417 648.404 336.468 648.001 336.468C647.238 336.468 646.671 336.274 646.301 335.885C645.93 335.493 645.745 334.961 645.745 334.29V331.638H644.519V330.439H645.745V329.174L647.484 328.965V330.439H649.365L649.194 331.638H647.484V334.29C647.484 334.58 647.55 334.787 647.682 334.911C647.814 335.036 648.025 335.099 648.314 335.099C648.52 335.099 648.707 335.075 648.875 335.027C649.048 334.976 649.202 334.911 649.338 334.834L649.915 335.94ZM654.823 330.439V335.093H656.309V336.281H651.429V335.093H653.085V331.627H651.484V330.439H654.823ZM653.773 327.38C654.073 327.38 654.319 327.474 654.51 327.661C654.7 327.848 654.796 328.081 654.796 328.36C654.796 328.638 654.7 328.873 654.51 329.064C654.319 329.251 654.073 329.344 653.773 329.344C653.468 329.344 653.219 329.251 653.024 329.064C652.834 328.873 652.738 328.638 652.738 328.36C652.738 328.081 652.834 327.848 653.024 327.661C653.219 327.474 653.468 327.38 653.773 327.38ZM662.768 334.598C662.768 334.818 662.797 334.977 662.856 335.077C662.918 335.176 663.018 335.251 663.153 335.302L662.796 336.446C662.451 336.413 662.159 336.338 661.921 336.221C661.686 336.1 661.501 335.918 661.365 335.676C661.142 335.944 660.856 336.144 660.507 336.276C660.159 336.404 659.803 336.468 659.44 336.468C658.838 336.468 658.358 336.298 657.999 335.957C657.643 335.612 657.465 335.17 657.465 334.631C657.465 333.996 657.713 333.507 658.208 333.162C658.706 332.817 659.407 332.645 660.309 332.645H661.096V332.425C661.096 332.121 660.997 331.895 660.799 331.748C660.604 331.602 660.318 331.528 659.941 331.528C659.754 331.528 659.513 331.556 659.22 331.611C658.927 331.662 658.633 331.737 658.34 331.836L657.938 330.681C658.316 330.538 658.708 330.43 659.115 330.357C659.526 330.283 659.893 330.247 660.216 330.247C661.085 330.247 661.727 330.424 662.141 330.78C662.559 331.132 662.768 331.642 662.768 332.309V334.598ZM660.04 335.225C660.227 335.225 660.423 335.17 660.628 335.06C660.834 334.946 660.989 334.787 661.096 334.581V333.635H660.667C660.183 333.635 659.827 333.71 659.599 333.861C659.372 334.007 659.258 334.224 659.258 334.51C659.258 334.734 659.326 334.91 659.462 335.038C659.601 335.163 659.794 335.225 660.04 335.225ZM669.635 329.504L670.042 330.78C669.836 330.861 669.596 330.92 669.321 330.956C669.046 330.993 668.725 331.011 668.358 331.011C668.725 331.169 669.004 331.365 669.195 331.6C669.389 331.831 669.486 332.135 669.486 332.513C669.486 332.891 669.385 333.228 669.184 333.525C668.982 333.819 668.696 334.05 668.325 334.218C667.955 334.387 667.517 334.471 667.011 334.471C666.886 334.471 666.769 334.466 666.659 334.455C666.549 334.444 666.44 334.427 666.334 334.405C666.272 334.438 666.224 334.486 666.191 334.548C666.158 334.611 666.141 334.675 666.141 334.741C666.141 334.833 666.178 334.915 666.252 334.988C666.329 335.062 666.506 335.099 666.785 335.099H667.742C668.197 335.099 668.589 335.172 668.92 335.319C669.253 335.465 669.512 335.665 669.695 335.918C669.879 336.171 669.97 336.461 669.97 336.787C669.97 337.385 669.708 337.856 669.184 338.201C668.659 338.546 667.88 338.718 666.846 338.718C666.097 338.718 665.518 338.641 665.107 338.487C664.7 338.337 664.416 338.12 664.255 337.838C664.097 337.559 664.018 337.227 664.018 336.842H665.558C665.558 337.011 665.591 337.149 665.657 337.255C665.727 337.365 665.857 337.446 666.048 337.497C666.242 337.548 666.523 337.574 666.89 337.574C667.26 337.574 667.542 337.545 667.737 337.486C667.931 337.427 668.063 337.347 668.133 337.244C668.206 337.145 668.243 337.033 668.243 336.908C668.243 336.736 668.175 336.597 668.039 336.49C667.904 336.384 667.689 336.331 667.396 336.331H666.466C665.835 336.331 665.377 336.215 665.091 335.984C664.805 335.749 664.662 335.476 664.662 335.165C664.662 334.948 664.719 334.743 664.832 334.548C664.95 334.354 665.113 334.191 665.322 334.059C664.948 333.861 664.68 333.628 664.519 333.36C664.357 333.089 664.277 332.764 664.277 332.386C664.277 331.946 664.388 331.569 664.612 331.253C664.836 330.934 665.144 330.688 665.536 330.516C665.932 330.344 666.384 330.258 666.89 330.258C667.326 330.265 667.706 330.236 668.028 330.17C668.351 330.1 668.641 330.006 668.898 329.889C669.154 329.768 669.4 329.64 669.635 329.504ZM666.934 331.385C666.659 331.385 666.44 331.473 666.279 331.649C666.118 331.822 666.037 332.06 666.037 332.364C666.037 332.687 666.119 332.935 666.285 333.107C666.45 333.279 666.666 333.366 666.934 333.366C667.223 333.366 667.443 333.279 667.594 333.107C667.748 332.935 667.825 332.68 667.825 332.342C667.825 332.016 667.75 331.776 667.599 331.622C667.449 331.464 667.227 331.385 666.934 331.385ZM673.575 330.247C674.176 330.247 674.688 330.375 675.11 330.632C675.531 330.888 675.854 331.25 676.078 331.715C676.301 332.177 676.413 332.72 676.413 333.344C676.413 333.993 676.3 334.552 676.072 335.021C675.849 335.487 675.526 335.845 675.104 336.094C674.682 336.344 674.173 336.468 673.575 336.468C672.981 336.468 672.471 336.345 672.045 336.1C671.624 335.854 671.299 335.498 671.072 335.032C670.848 334.567 670.736 334.007 670.736 333.355C670.736 332.735 670.848 332.192 671.072 331.726C671.299 331.261 671.624 330.897 672.045 330.637C672.471 330.377 672.981 330.247 673.575 330.247ZM673.575 331.528C673.219 331.528 672.955 331.675 672.783 331.968C672.614 332.258 672.53 332.72 672.53 333.355C672.53 334 672.614 334.468 672.783 334.757C672.955 335.047 673.219 335.192 673.575 335.192C673.93 335.192 674.193 335.047 674.361 334.757C674.534 334.468 674.62 333.996 674.62 333.344C674.62 332.713 674.534 332.253 674.361 331.963C674.193 331.673 673.93 331.528 673.575 331.528ZM687.952 331.143C687.952 330.872 687.9 330.648 687.797 330.472C687.698 330.292 687.546 330.16 687.341 330.076C687.139 329.988 686.884 329.944 686.576 329.944H685.96V332.436H686.67C686.937 332.436 687.167 332.39 687.357 332.298C687.548 332.207 687.695 332.066 687.797 331.875C687.9 331.684 687.952 331.44 687.952 331.143ZM689.811 331.138C689.811 331.728 689.684 332.216 689.431 332.601C689.178 332.986 688.824 333.274 688.37 333.465C687.915 333.652 687.387 333.745 686.785 333.745H685.96V336.281H684.156V328.657H686.554C687.588 328.657 688.39 328.862 688.958 329.273C689.527 329.684 689.811 330.305 689.811 331.138ZM693.366 330.247C693.967 330.247 694.479 330.375 694.901 330.632C695.322 330.888 695.645 331.25 695.869 331.715C696.093 332.177 696.204 332.72 696.204 333.344C696.204 333.993 696.091 334.552 695.863 335.021C695.64 335.487 695.317 335.845 694.895 336.094C694.473 336.344 693.964 336.468 693.366 336.468C692.772 336.468 692.262 336.345 691.836 336.1C691.415 335.854 691.09 335.498 690.863 335.032C690.639 334.567 690.527 334.007 690.527 333.355C690.527 332.735 690.639 332.192 690.863 331.726C691.09 331.261 691.415 330.897 691.836 330.637C692.262 330.377 692.772 330.247 693.366 330.247ZM693.366 331.528C693.01 331.528 692.746 331.675 692.574 331.968C692.405 332.258 692.321 332.72 692.321 333.355C692.321 334 692.405 334.468 692.574 334.757C692.746 335.047 693.01 335.192 693.366 335.192C693.722 335.192 693.984 335.047 694.152 334.757C694.325 334.468 694.411 333.996 694.411 333.344C694.411 332.713 694.325 332.253 694.152 331.963C693.984 331.673 693.722 331.528 693.366 331.528ZM697.487 336.281V335.115H698.257V331.594H697.487V330.439H699.583L699.902 331.754C700.111 331.251 700.377 330.877 700.7 330.632C701.026 330.386 701.424 330.263 701.894 330.263C702.092 330.263 702.268 330.28 702.422 330.313C702.576 330.342 702.721 330.384 702.856 330.439L702.328 331.875C702.222 331.846 702.116 331.824 702.009 331.809C701.903 331.794 701.786 331.787 701.657 331.787C701.276 331.787 700.94 331.943 700.65 332.254C700.364 332.566 700.146 332.962 699.996 333.443V335.115H701.151V336.281H697.487ZM701.443 332.882V331.176L701.701 330.439H702.856L702.532 332.882H701.443ZM709.288 335.94C709.061 336.087 708.786 336.212 708.463 336.314C708.141 336.417 707.777 336.468 707.374 336.468C706.611 336.468 706.045 336.274 705.674 335.885C705.304 335.493 705.119 334.961 705.119 334.29V331.638H703.892V330.439H705.119V329.174L706.857 328.965V330.439H708.738L708.568 331.638H706.857V334.29C706.857 334.58 706.923 334.787 707.055 334.911C707.187 335.036 707.398 335.099 707.688 335.099C707.893 335.099 708.08 335.075 708.249 335.027C708.421 334.976 708.575 334.911 708.711 334.834L709.288 335.94ZM714.197 330.439V335.093H715.682V336.281H710.802V335.093H712.458V331.627H710.857V330.439H714.197ZM713.146 327.38C713.447 327.38 713.692 327.474 713.883 327.661C714.074 327.848 714.169 328.081 714.169 328.36C714.169 328.638 714.074 328.873 713.883 329.064C713.692 329.251 713.447 329.344 713.146 329.344C712.842 329.344 712.592 329.251 712.398 329.064C712.207 328.873 712.112 328.638 712.112 328.36C712.112 328.081 712.207 327.848 712.398 327.661C712.592 327.474 712.842 327.38 713.146 327.38ZM720.271 328.118V334.444C720.271 334.679 720.337 334.847 720.469 334.95C720.605 335.049 720.79 335.099 721.025 335.099C721.175 335.099 721.32 335.082 721.459 335.049C721.599 335.012 721.729 334.97 721.85 334.922L722.268 336.083C722.07 336.186 721.832 336.276 721.553 336.353C721.274 336.43 720.95 336.468 720.579 336.468C719.875 336.468 719.358 336.267 719.028 335.863C718.698 335.456 718.533 334.911 718.533 334.229V329.306H716.811V328.118H720.271ZM726.868 328.118V334.444C726.868 334.679 726.934 334.847 727.066 334.95C727.202 335.049 727.387 335.099 727.622 335.099C727.772 335.099 727.917 335.082 728.056 335.049C728.196 335.012 728.326 334.97 728.447 334.922L728.865 336.083C728.667 336.186 728.429 336.276 728.15 336.353C727.871 336.43 727.547 336.468 727.176 336.468C726.472 336.468 725.955 336.267 725.625 335.863C725.295 335.456 725.13 334.911 725.13 334.229V329.306H723.408V328.118H726.868ZM735.336 334.598C735.336 334.818 735.365 334.977 735.424 335.077C735.486 335.176 735.585 335.251 735.721 335.302L735.363 336.446C735.018 336.413 734.727 336.338 734.488 336.221C734.254 336.1 734.068 335.918 733.933 335.676C733.709 335.944 733.423 336.144 733.075 336.276C732.726 336.404 732.37 336.468 732.007 336.468C731.406 336.468 730.925 336.298 730.566 335.957C730.21 335.612 730.032 335.17 730.032 334.631C730.032 333.996 730.28 333.507 730.775 333.162C731.274 332.817 731.974 332.645 732.877 332.645H733.663V332.425C733.663 332.121 733.564 331.895 733.366 331.748C733.172 331.602 732.886 331.528 732.508 331.528C732.321 331.528 732.081 331.556 731.787 331.611C731.494 331.662 731.201 331.737 730.907 331.836L730.506 330.681C730.883 330.538 731.276 330.43 731.683 330.357C732.094 330.283 732.46 330.247 732.783 330.247C733.652 330.247 734.294 330.424 734.708 330.78C735.126 331.132 735.336 331.642 735.336 332.309V334.598ZM732.607 335.225C732.794 335.225 732.99 335.17 733.196 335.06C733.401 334.946 733.557 334.787 733.663 334.581V333.635H733.234C732.75 333.635 732.394 333.71 732.167 333.861C731.939 334.007 731.826 334.224 731.826 334.51C731.826 334.734 731.894 334.91 732.029 335.038C732.169 335.163 732.361 335.225 732.607 335.225ZM737.163 333.514V332.161H741.927V333.514H737.163ZM748.821 328.657L749.25 336.281H747.677L747.583 333.019C747.576 332.715 747.572 332.443 747.572 332.205C747.576 331.967 747.582 331.743 747.589 331.534C747.596 331.321 747.607 331.108 747.622 330.896C747.64 330.679 747.659 330.445 747.677 330.192L746.819 334.983H745.454L744.53 330.192C744.552 330.434 744.571 330.663 744.585 330.879C744.604 331.092 744.616 331.306 744.624 331.523C744.631 331.739 744.637 331.972 744.64 332.221C744.644 332.467 744.642 332.742 744.635 333.047L744.58 336.281H743.034L743.463 328.657H745.317L746.164 333.586L746.967 328.657H748.821ZM755.127 334.598C755.127 334.818 755.156 334.977 755.215 335.077C755.277 335.176 755.376 335.251 755.512 335.302L755.154 336.446C754.809 336.413 754.518 336.338 754.279 336.221C754.045 336.1 753.86 335.918 753.724 335.676C753.5 335.944 753.214 336.144 752.866 336.276C752.517 336.404 752.161 336.468 751.798 336.468C751.197 336.468 750.717 336.298 750.357 335.957C750.001 335.612 749.824 335.17 749.824 334.631C749.824 333.996 750.071 333.507 750.566 333.162C751.065 332.817 751.765 332.645 752.668 332.645H753.454V332.425C753.454 332.121 753.355 331.895 753.157 331.748C752.963 331.602 752.677 331.528 752.299 331.528C752.112 331.528 751.872 331.556 751.578 331.611C751.285 331.662 750.992 331.737 750.698 331.836L750.297 330.681C750.674 330.538 751.067 330.43 751.474 330.357C751.885 330.283 752.251 330.247 752.574 330.247C753.443 330.247 754.085 330.424 754.499 330.78C754.918 331.132 755.127 331.642 755.127 332.309V334.598ZM752.398 335.225C752.585 335.225 752.781 335.17 752.987 335.06C753.192 334.946 753.348 334.787 753.454 334.581V333.635H753.025C752.541 333.635 752.185 333.71 751.958 333.861C751.731 334.007 751.617 334.224 751.617 334.51C751.617 334.734 751.685 334.91 751.82 335.038C751.96 335.163 752.152 335.225 752.398 335.225ZM756.861 336.281V335.115H757.631V331.594H756.861V330.439H758.957L759.276 331.754C759.485 331.251 759.751 330.877 760.073 330.632C760.4 330.386 760.798 330.263 761.267 330.263C761.465 330.263 761.641 330.28 761.795 330.313C761.949 330.342 762.094 330.384 762.23 330.439L761.702 331.875C761.595 331.846 761.489 331.824 761.383 331.809C761.276 331.794 761.159 331.787 761.03 331.787C760.649 331.787 760.314 331.943 760.024 332.254C759.738 332.566 759.52 332.962 759.369 333.443V335.115H760.524V336.281H756.861ZM760.816 332.882V331.176L761.074 330.439H762.23L761.905 332.882H760.816ZM768.662 335.94C768.434 336.087 768.159 336.212 767.837 336.314C767.514 336.417 767.151 336.468 766.747 336.468C765.985 336.468 765.418 336.274 765.048 335.885C764.677 335.493 764.492 334.961 764.492 334.29V331.638H763.265V330.439H764.492V329.174L766.23 328.965V330.439H768.112L767.941 331.638H766.23V334.29C766.23 334.58 766.296 334.787 766.428 334.911C766.56 335.036 766.771 335.099 767.061 335.099C767.266 335.099 767.453 335.075 767.622 335.027C767.794 334.976 767.948 334.911 768.084 334.834L768.662 335.94ZM773.57 330.439V335.093H775.055V336.281H770.176V335.093H771.832V331.627H770.231V330.439H773.57ZM773.355 327.094L774.032 328.404L771.435 329.432L770.957 328.552L773.355 327.094ZM776.597 336.281V330.439H778.115L778.236 331.116C778.496 330.822 778.772 330.604 779.061 330.461C779.351 330.318 779.681 330.247 780.051 330.247C780.55 330.247 780.943 330.399 781.229 330.703C781.515 331.008 781.658 331.437 781.658 331.99V336.281H779.919V332.491C779.919 332.253 779.903 332.064 779.87 331.924C779.837 331.781 779.778 331.68 779.694 331.622C779.613 331.559 779.501 331.528 779.358 331.528C779.237 331.528 779.118 331.556 779.001 331.611C778.887 331.662 778.775 331.737 778.665 331.836C778.555 331.935 778.445 332.055 778.335 332.194V336.281H776.597ZM784.701 333.866C784.741 334.185 784.824 334.444 784.949 334.642C785.077 334.836 785.24 334.979 785.438 335.071C785.636 335.159 785.858 335.203 786.104 335.203C786.372 335.203 786.63 335.159 786.88 335.071C787.129 334.983 787.369 334.866 787.6 334.719L788.299 335.665C788.024 335.9 787.69 336.092 787.298 336.243C786.909 336.393 786.465 336.468 785.966 336.468C785.299 336.468 784.74 336.336 784.288 336.072C783.837 335.804 783.498 335.438 783.271 334.972C783.043 334.506 782.93 333.971 782.93 333.366C782.93 332.79 783.04 332.267 783.26 331.798C783.48 331.325 783.801 330.949 784.222 330.67C784.648 330.388 785.167 330.247 785.779 330.247C786.337 330.247 786.819 330.366 787.226 330.604C787.637 330.842 787.954 331.185 788.178 331.633C788.405 332.08 788.519 332.618 788.519 333.245C788.519 333.344 788.515 333.45 788.508 333.564C788.504 333.677 788.497 333.778 788.486 333.866H784.701ZM785.779 331.413C785.468 331.413 785.216 331.525 785.026 331.748C784.835 331.972 784.719 332.33 784.679 332.821H786.825C786.821 332.396 786.738 332.055 786.577 331.798C786.416 331.541 786.15 331.413 785.779 331.413ZM791.865 334.966H794.791L794.626 336.281H789.813V335.055L792.712 331.748H790.055V330.439H794.736V331.66L791.865 334.966ZM806.077 326.379V339.582H804.954V326.379H806.077ZM818.544 328.536C819.095 328.536 819.564 328.616 819.953 328.778C820.341 328.935 820.662 329.157 820.915 329.443C821.172 329.726 821.372 330.059 821.515 330.445C821.658 330.83 821.759 331.248 821.818 331.699C821.876 332.15 821.906 332.618 821.906 333.102C821.906 334.026 821.862 334.8 821.774 335.423C821.686 336.043 821.521 336.509 821.278 336.82C821.04 337.136 820.695 337.293 820.244 337.293C820.024 337.293 819.832 337.244 819.667 337.145C819.505 337.046 819.371 336.918 819.265 336.76C819.162 336.606 819.084 336.439 819.029 336.259C818.977 336.076 818.948 335.904 818.94 335.742H818.896C818.823 335.918 818.722 336.087 818.594 336.248C818.466 336.41 818.302 336.542 818.104 336.644C817.906 336.747 817.664 336.798 817.378 336.798C816.967 336.798 816.637 336.688 816.388 336.468C816.139 336.252 815.957 335.953 815.843 335.572C815.73 335.19 815.673 334.759 815.673 334.279C815.673 333.344 815.864 332.63 816.245 332.139C816.626 331.644 817.178 331.396 817.901 331.396C818.172 331.396 818.44 331.429 818.704 331.495C818.972 331.558 819.26 331.671 819.568 331.836V335.104C819.568 335.452 819.595 335.722 819.65 335.913C819.705 336.103 819.78 336.235 819.876 336.309C819.975 336.382 820.087 336.419 820.211 336.419C820.358 336.419 820.472 336.344 820.552 336.193C820.637 336.043 820.697 335.826 820.734 335.544C820.771 335.258 820.793 334.913 820.8 334.51C820.807 334.106 820.811 333.652 820.811 333.146C820.811 332.603 820.78 332.106 820.717 331.655C820.659 331.2 820.547 330.808 820.382 330.478C820.22 330.148 819.989 329.893 819.689 329.713C819.388 329.533 818.997 329.443 818.517 329.443C818.147 329.443 817.756 329.513 817.345 329.652C816.938 329.792 816.509 330.059 816.058 330.456L815.464 329.768C815.963 329.335 816.467 329.022 816.977 328.827C817.49 328.633 818.013 328.536 818.544 328.536ZM817.917 332.232C817.496 332.232 817.208 332.397 817.054 332.728C816.9 333.054 816.823 333.571 816.823 334.279C816.823 334.631 816.845 334.932 816.889 335.181C816.933 335.43 817.01 335.621 817.12 335.753C817.23 335.885 817.378 335.951 817.565 335.951C817.789 335.951 817.963 335.9 818.088 335.797C818.213 335.694 818.306 335.573 818.368 335.434C818.431 335.291 818.478 335.166 818.511 335.06V332.375C818.412 332.324 818.317 332.287 818.225 332.265C818.134 332.243 818.031 332.232 817.917 332.232ZM827.804 328.657V333.536C827.804 333.98 827.736 334.382 827.6 334.741C827.465 335.1 827.265 335.407 827.001 335.66C826.74 335.913 826.42 336.107 826.038 336.243C825.66 336.378 825.228 336.446 824.74 336.446C824.248 336.446 823.823 336.384 823.464 336.259C823.108 336.131 822.765 335.955 822.435 335.731L823.123 334.62C823.383 334.8 823.627 334.926 823.854 334.999C824.082 335.069 824.34 335.104 824.63 335.104C825.022 335.104 825.349 334.979 825.609 334.73C825.873 334.477 826.005 334.086 826.005 333.558V329.977H823.662V328.657H827.804ZM831.904 330.247C832.505 330.247 833.017 330.375 833.438 330.632C833.86 330.888 834.183 331.25 834.407 331.715C834.63 332.177 834.742 332.72 834.742 333.344C834.742 333.993 834.628 334.552 834.401 335.021C834.177 335.487 833.855 335.845 833.433 336.094C833.011 336.344 832.501 336.468 831.904 336.468C831.309 336.468 830.8 336.345 830.374 336.1C829.952 335.854 829.628 335.498 829.401 335.032C829.177 334.567 829.065 334.007 829.065 333.355C829.065 332.735 829.177 332.192 829.401 331.726C829.628 331.261 829.952 330.897 830.374 330.637C830.8 330.377 831.309 330.247 831.904 330.247ZM831.904 331.528C831.548 331.528 831.284 331.675 831.111 331.968C830.943 332.258 830.858 332.72 830.858 333.355C830.858 334 830.943 334.468 831.111 334.757C831.284 335.047 831.548 335.192 831.904 335.192C832.259 335.192 832.521 335.047 832.69 334.757C832.863 334.468 832.949 333.996 832.949 333.344C832.949 332.713 832.863 332.253 832.69 331.963C832.521 331.673 832.259 331.528 831.904 331.528ZM837.477 333.866C837.518 334.185 837.6 334.444 837.725 334.642C837.853 334.836 838.016 334.979 838.214 335.071C838.413 335.159 838.634 335.203 838.88 335.203C839.148 335.203 839.406 335.159 839.656 335.071C839.905 334.983 840.145 334.866 840.376 334.719L841.075 335.665C840.8 335.9 840.466 336.092 840.074 336.243C839.685 336.393 839.241 336.468 838.743 336.468C838.075 336.468 837.516 336.336 837.065 336.072C836.614 335.804 836.274 335.438 836.047 334.972C835.82 334.506 835.706 333.971 835.706 333.366C835.706 332.79 835.816 332.267 836.036 331.798C836.256 331.325 836.577 330.949 836.999 330.67C837.424 330.388 837.943 330.247 838.556 330.247C839.113 330.247 839.595 330.366 840.002 330.604C840.413 330.842 840.73 331.185 840.954 331.633C841.181 332.08 841.295 332.618 841.295 333.245C841.295 333.344 841.291 333.45 841.284 333.564C841.28 333.677 841.273 333.778 841.262 333.866H837.477ZM838.556 331.413C838.244 331.413 837.993 331.525 837.802 331.748C837.611 331.972 837.496 332.33 837.455 332.821H839.601C839.597 332.396 839.515 332.055 839.353 331.798C839.192 331.541 838.926 331.413 838.556 331.413ZM846.28 331.143C846.28 330.872 846.229 330.648 846.126 330.472C846.027 330.292 845.875 330.16 845.67 330.076C845.468 329.988 845.213 329.944 844.905 329.944H844.289V332.436H844.999C845.266 332.436 845.496 332.39 845.686 332.298C845.877 332.207 846.024 332.066 846.126 331.875C846.229 331.684 846.28 331.44 846.28 331.143ZM848.14 331.138C848.14 331.728 848.013 332.216 847.76 332.601C847.507 332.986 847.153 333.274 846.698 333.465C846.244 333.652 845.716 333.745 845.114 333.745H844.289V336.281H842.485V328.657H844.883C845.917 328.657 846.719 328.862 847.287 329.273C847.855 329.684 848.14 330.305 848.14 331.138ZM851.695 330.247C852.296 330.247 852.808 330.375 853.229 330.632C853.651 330.888 853.974 331.25 854.198 331.715C854.421 332.177 854.533 332.72 854.533 333.344C854.533 333.993 854.42 334.552 854.192 335.021C853.968 335.487 853.646 335.845 853.224 336.094C852.802 336.344 852.292 336.468 851.695 336.468C851.1 336.468 850.591 336.345 850.165 336.1C849.744 335.854 849.419 335.498 849.192 335.032C848.968 334.567 848.856 334.007 848.856 333.355C848.856 332.735 848.968 332.192 849.192 331.726C849.419 331.261 849.744 330.897 850.165 330.637C850.591 330.377 851.1 330.247 851.695 330.247ZM851.695 331.528C851.339 331.528 851.075 331.675 850.902 331.968C850.734 332.258 850.649 332.72 850.649 333.355C850.649 334 850.734 334.468 850.902 334.757C851.075 335.047 851.339 335.192 851.695 335.192C852.05 335.192 852.313 335.047 852.481 334.757C852.654 334.468 852.74 333.996 852.74 333.344C852.74 332.713 852.654 332.253 852.481 331.963C852.313 331.673 852.05 331.528 851.695 331.528ZM855.816 336.281V335.115H856.586V331.594H855.816V330.439H857.912L858.231 331.754C858.44 331.251 858.706 330.877 859.029 330.632C859.355 330.386 859.753 330.263 860.223 330.263C860.421 330.263 860.597 330.28 860.751 330.313C860.905 330.342 861.05 330.384 861.185 330.439L860.657 331.875C860.551 331.846 860.444 331.824 860.338 331.809C860.232 331.794 860.114 331.787 859.986 331.787C859.605 331.787 859.269 331.943 858.979 332.254C858.693 332.566 858.475 332.962 858.325 333.443V335.115H859.48V336.281H855.816ZM859.771 332.882V331.176L860.03 330.439H861.185L860.861 332.882H859.771ZM867.617 335.94C867.39 336.087 867.115 336.212 866.792 336.314C866.469 336.417 866.106 336.468 865.703 336.468C864.94 336.468 864.373 336.274 864.003 335.885C863.633 335.493 863.447 334.961 863.447 334.29V331.638H862.221V330.439H863.447V329.174L865.186 328.965V330.439H867.067L866.897 331.638H865.186V334.29C865.186 334.58 865.252 334.787 865.384 334.911C865.516 335.036 865.727 335.099 866.016 335.099C866.222 335.099 866.409 335.075 866.578 335.027C866.75 334.976 866.904 334.911 867.04 334.834L867.617 335.94ZM872.525 330.439V335.093H874.011V336.281H869.131V335.093H870.787V331.627H869.186V330.439H872.525ZM871.475 327.38C871.775 327.38 872.021 327.474 872.212 327.661C872.403 327.848 872.498 328.081 872.498 328.36C872.498 328.638 872.403 328.873 872.212 329.064C872.021 329.251 871.775 329.344 871.475 329.344C871.17 329.344 870.921 329.251 870.727 329.064C870.536 328.873 870.441 328.638 870.441 328.36C870.441 328.081 870.536 327.848 870.727 327.661C870.921 327.474 871.17 327.38 871.475 327.38ZM878.6 328.118V334.444C878.6 334.679 878.666 334.847 878.798 334.95C878.934 335.049 879.119 335.099 879.354 335.099C879.504 335.099 879.649 335.082 879.788 335.049C879.927 335.012 880.058 334.97 880.179 334.922L880.597 336.083C880.399 336.186 880.16 336.276 879.882 336.353C879.603 336.43 879.278 336.468 878.908 336.468C878.204 336.468 877.687 336.267 877.357 335.863C877.027 335.456 876.862 334.911 876.862 334.229V329.306H875.14V328.118H878.6ZM885.197 328.118V334.444C885.197 334.679 885.263 334.847 885.395 334.95C885.531 335.049 885.716 335.099 885.951 335.099C886.101 335.099 886.246 335.082 886.385 335.049C886.524 335.012 886.655 334.97 886.776 334.922L887.194 336.083C886.996 336.186 886.757 336.276 886.479 336.353C886.2 336.43 885.875 336.468 885.505 336.468C884.801 336.468 884.284 336.267 883.954 335.863C883.624 335.456 883.459 334.911 883.459 334.229V329.306H881.737V328.118H885.197ZM893.664 334.598C893.664 334.818 893.694 334.977 893.752 335.077C893.815 335.176 893.914 335.251 894.049 335.302L893.692 336.446C893.347 336.413 893.056 336.338 892.817 336.221C892.582 336.1 892.397 335.918 892.262 335.676C892.038 335.944 891.752 336.144 891.403 336.276C891.055 336.404 890.699 336.468 890.336 336.468C889.735 336.468 889.254 336.298 888.895 335.957C888.539 335.612 888.361 335.17 888.361 334.631C888.361 333.996 888.609 333.507 889.104 333.162C889.603 332.817 890.303 332.645 891.205 332.645H891.992V332.425C891.992 332.121 891.893 331.895 891.695 331.748C891.501 331.602 891.214 331.528 890.837 331.528C890.65 331.528 890.409 331.556 890.116 331.611C889.823 331.662 889.529 331.737 889.236 331.836L888.834 330.681C889.212 330.538 889.604 330.43 890.012 330.357C890.422 330.283 890.789 330.247 891.112 330.247C891.981 330.247 892.623 330.424 893.037 330.78C893.455 331.132 893.664 331.642 893.664 332.309V334.598ZM890.936 335.225C891.123 335.225 891.319 335.17 891.524 335.06C891.73 334.946 891.886 334.787 891.992 334.581V333.635H891.563C891.079 333.635 890.723 333.71 890.496 333.861C890.268 334.007 890.155 334.224 890.155 334.51C890.155 334.734 890.222 334.91 890.358 335.038C890.498 335.163 890.69 335.225 890.936 335.225Z" fill="black"/>
<rect x="126" y="96" width="77.1792" height="77.1792" rx="2" fill="#0037AC"/>
<path d="M170.122 152H163.503V133.878C163.503 133.378 163.51 132.764 163.525 132.036C163.539 131.293 163.56 130.536 163.589 129.765C163.617 128.98 163.646 128.273 163.674 127.644C163.517 127.83 163.196 128.151 162.711 128.608C162.239 129.051 161.797 129.451 161.382 129.808L157.784 132.7L154.592 128.715L164.681 120.682H170.122V152Z" fill="white"/>
<rect x="205" y="96" width="77.1792" height="77.1792" rx="2" fill="#0037AC"/>
<path d="M254.649 152H232.757V147.394L240.618 139.447C242.203 137.819 243.474 136.463 244.431 135.377C245.402 134.278 246.102 133.278 246.53 132.378C246.973 131.479 247.194 130.515 247.194 129.487C247.194 128.244 246.844 127.316 246.145 126.702C245.459 126.073 244.538 125.759 243.381 125.759C242.167 125.759 240.989 126.038 239.847 126.595C238.704 127.152 237.512 127.944 236.27 128.972L232.671 124.71C233.571 123.938 234.52 123.21 235.52 122.525C236.534 121.839 237.705 121.289 239.033 120.875C240.375 120.447 241.982 120.233 243.853 120.233C245.909 120.233 247.673 120.604 249.144 121.347C250.629 122.089 251.771 123.103 252.571 124.388C253.371 125.659 253.771 127.102 253.771 128.715C253.771 130.443 253.428 132.021 252.742 133.449C252.057 134.877 251.057 136.291 249.743 137.691C248.444 139.09 246.873 140.64 245.031 142.339L241.004 146.131V146.431H254.649V152Z" fill="white"/>
<rect x="284" y="96" width="77.1792" height="77.1792" rx="2" fill="#0037AC"/>
<path d="M332.428 127.687C332.428 129.129 332.128 130.379 331.528 131.436C330.928 132.493 330.114 133.357 329.086 134.028C328.072 134.699 326.93 135.192 325.659 135.506V135.634C328.172 135.949 330.079 136.72 331.378 137.948C332.692 139.176 333.349 140.818 333.349 142.875C333.349 144.703 332.899 146.338 331.999 147.78C331.114 149.222 329.743 150.358 327.887 151.186C326.03 152.014 323.638 152.428 320.711 152.428C318.983 152.428 317.369 152.286 315.869 152C314.384 151.729 312.985 151.307 311.671 150.736V145.102C313.013 145.788 314.42 146.309 315.891 146.666C317.362 147.009 318.733 147.18 320.004 147.18C322.374 147.18 324.031 146.773 324.973 145.959C325.93 145.131 326.409 143.974 326.409 142.489C326.409 141.618 326.187 140.882 325.744 140.283C325.302 139.683 324.531 139.226 323.431 138.912C322.346 138.598 320.825 138.44 318.868 138.44H316.491V133.364H318.911C320.839 133.364 322.303 133.185 323.302 132.828C324.316 132.457 325.002 131.957 325.359 131.329C325.73 130.686 325.916 129.958 325.916 129.144C325.916 128.03 325.573 127.159 324.888 126.53C324.202 125.902 323.06 125.588 321.46 125.588C320.461 125.588 319.547 125.716 318.718 125.973C317.904 126.216 317.169 126.516 316.512 126.873C315.855 127.216 315.277 127.551 314.777 127.88L311.714 123.317C312.942 122.432 314.377 121.696 316.019 121.111C317.676 120.525 319.647 120.233 321.932 120.233C325.159 120.233 327.715 120.882 329.6 122.182C331.485 123.481 332.428 125.317 332.428 127.687Z" fill="white"/>
<rect x="126" y="175" width="77.1792" height="77.1792" rx="2" fill="#0037AC"/>
<path d="M176.356 224.509H172.586V231H166.116V224.509H152.75V219.904L166.481 199.682H172.586V219.368H176.356V224.509ZM166.116 219.368V214.056C166.116 213.556 166.124 212.964 166.138 212.278C166.166 211.593 166.195 210.907 166.224 210.222C166.252 209.536 166.281 208.929 166.309 208.401C166.352 207.858 166.381 207.48 166.395 207.266H166.224C165.952 207.851 165.667 208.422 165.367 208.979C165.067 209.522 164.717 210.093 164.317 210.693L158.576 219.368H166.116Z" fill="white"/>
<rect x="205" y="175" width="77.1792" height="77.1792" rx="2" fill="#0037AC"/>
<path d="M244.153 210.993C246.066 210.993 247.766 211.357 249.251 212.085C250.75 212.814 251.928 213.885 252.785 215.298C253.642 216.712 254.07 218.454 254.07 220.525C254.07 222.781 253.599 224.731 252.657 226.373C251.728 228.001 250.336 229.251 248.48 230.122C246.637 230.993 244.338 231.428 241.582 231.428C239.94 231.428 238.39 231.286 236.934 231C235.491 230.729 234.227 230.307 233.142 229.736V224.017C234.227 224.588 235.527 225.074 237.041 225.473C238.569 225.859 240.004 226.052 241.346 226.052C242.66 226.052 243.767 225.88 244.667 225.538C245.566 225.181 246.245 224.638 246.702 223.91C247.173 223.167 247.409 222.225 247.409 221.082C247.409 219.554 246.894 218.383 245.866 217.569C244.838 216.755 243.26 216.348 241.132 216.348C240.318 216.348 239.468 216.427 238.583 216.584C237.712 216.741 236.984 216.898 236.398 217.055L233.763 215.641L234.941 199.682H251.928V205.295H240.747L240.168 211.443C240.654 211.343 241.182 211.243 241.753 211.143C242.325 211.043 243.124 210.993 244.153 210.993Z" fill="white"/>
<rect x="284" y="175" width="77.1792" height="77.1792" rx="2" fill="#0037AC"/>
<path d="M311.542 217.698C311.542 215.898 311.671 214.12 311.928 212.364C312.199 210.593 312.663 208.929 313.32 207.373C313.977 205.802 314.898 204.417 316.084 203.217C317.269 202.003 318.775 201.053 320.603 200.368C322.431 199.668 324.645 199.318 327.244 199.318C327.858 199.318 328.572 199.347 329.386 199.404C330.214 199.447 330.9 199.525 331.442 199.64V204.931C330.871 204.802 330.257 204.702 329.6 204.631C328.958 204.545 328.315 204.502 327.672 204.502C325.073 204.502 323.06 204.916 321.632 205.745C320.218 206.573 319.218 207.722 318.633 209.193C318.061 210.65 317.726 212.349 317.626 214.292H317.904C318.304 213.592 318.804 212.971 319.404 212.428C320.018 211.885 320.76 211.457 321.632 211.143C322.503 210.814 323.524 210.65 324.695 210.65C326.523 210.65 328.108 211.043 329.45 211.828C330.793 212.599 331.828 213.72 332.556 215.191C333.285 216.662 333.649 218.454 333.649 220.568C333.649 222.824 333.213 224.766 332.342 226.394C331.471 228.022 330.236 229.272 328.636 230.143C327.051 231 325.166 231.428 322.981 231.428C321.382 231.428 319.889 231.157 318.504 230.614C317.119 230.057 315.905 229.215 314.863 228.087C313.82 226.959 313.006 225.538 312.421 223.824C311.835 222.096 311.542 220.054 311.542 217.698ZM322.853 226.137C324.152 226.137 325.209 225.695 326.023 224.809C326.837 223.924 327.244 222.539 327.244 220.654C327.244 219.126 326.887 217.926 326.173 217.055C325.473 216.17 324.409 215.727 322.981 215.727C322.01 215.727 321.153 215.948 320.411 216.391C319.682 216.819 319.118 217.369 318.718 218.04C318.318 218.697 318.119 219.376 318.119 220.075C318.119 220.804 318.219 221.525 318.418 222.239C318.618 222.953 318.918 223.603 319.318 224.188C319.718 224.774 320.211 225.245 320.796 225.602C321.396 225.959 322.081 226.137 322.853 226.137Z" fill="white"/>
<rect x="479" y="96" width="77.1792" height="77.1792" rx="2" fill="#08003C"/>
<path d="M509.863 152L521.623 126.252H506.178V120.682H528.649V124.838L516.803 152H509.863Z" fill="white"/>
<rect x="558" y="96" width="77.1792" height="77.1792" rx="2" fill="#08003C"/>
<path d="M596.553 120.275C598.352 120.275 600.009 120.554 601.522 121.111C603.05 121.668 604.271 122.51 605.185 123.639C606.099 124.752 606.556 126.152 606.556 127.837C606.556 129.094 606.306 130.193 605.807 131.136C605.321 132.078 604.657 132.907 603.814 133.621C602.972 134.321 602.015 134.935 600.944 135.463C602.058 136.048 603.115 136.734 604.114 137.519C605.114 138.291 605.928 139.197 606.556 140.24C607.199 141.282 607.52 142.496 607.52 143.881C607.52 145.624 607.056 147.137 606.128 148.423C605.2 149.694 603.914 150.679 602.272 151.379C600.63 152.079 598.723 152.428 596.553 152.428C594.211 152.428 592.219 152.093 590.576 151.422C588.934 150.75 587.684 149.794 586.828 148.551C585.971 147.295 585.542 145.795 585.542 144.053C585.542 142.625 585.807 141.382 586.335 140.326C586.878 139.269 587.606 138.362 588.52 137.605C589.434 136.834 590.441 136.177 591.54 135.634C590.612 135.049 589.762 134.385 588.991 133.642C588.234 132.9 587.627 132.05 587.17 131.093C586.728 130.136 586.506 129.037 586.506 127.794C586.506 126.138 586.97 124.752 587.899 123.639C588.841 122.525 590.076 121.689 591.604 121.132C593.132 120.561 594.782 120.275 596.553 120.275ZM591.669 143.667C591.669 144.795 592.069 145.731 592.868 146.473C593.682 147.202 594.882 147.566 596.467 147.566C598.109 147.566 599.337 147.216 600.151 146.516C600.965 145.802 601.372 144.867 601.372 143.71C601.372 142.91 601.137 142.211 600.666 141.611C600.209 141.011 599.63 140.475 598.93 140.004C598.231 139.519 597.524 139.069 596.81 138.655L596.231 138.355C595.317 138.769 594.518 139.233 593.832 139.747C593.161 140.261 592.633 140.84 592.247 141.482C591.862 142.125 591.669 142.853 591.669 143.667ZM596.51 125.117C595.425 125.117 594.525 125.395 593.811 125.952C593.097 126.509 592.74 127.294 592.74 128.308C592.74 129.022 592.911 129.651 593.254 130.193C593.611 130.722 594.075 131.186 594.646 131.586C595.232 131.986 595.867 132.357 596.553 132.7C597.21 132.385 597.824 132.036 598.395 131.65C598.966 131.264 599.43 130.8 599.787 130.258C600.144 129.715 600.323 129.065 600.323 128.308C600.323 127.294 599.959 126.509 599.23 125.952C598.516 125.395 597.609 125.117 596.51 125.117Z" fill="white"/>
<rect x="637" y="96" width="77.1792" height="77.1792" rx="2" fill="#08003C"/>
<path d="M686.52 134.049C686.52 135.849 686.385 137.634 686.113 139.404C685.856 141.175 685.399 142.846 684.742 144.417C684.085 145.974 683.164 147.359 681.979 148.573C680.794 149.772 679.287 150.715 677.459 151.4C675.631 152.086 673.418 152.428 670.819 152.428C670.205 152.428 669.483 152.4 668.655 152.343C667.827 152.3 667.141 152.228 666.599 152.129V146.816C667.17 146.959 667.777 147.073 668.42 147.159C669.062 147.23 669.712 147.266 670.369 147.266C672.982 147.266 674.996 146.852 676.41 146.024C677.838 145.195 678.837 144.046 679.409 142.575C679.994 141.104 680.33 139.404 680.415 137.477H680.158C679.744 138.162 679.251 138.783 678.68 139.34C678.123 139.883 677.409 140.318 676.538 140.647C675.667 140.961 674.56 141.118 673.218 141.118C671.433 141.118 669.876 140.733 668.548 139.961C667.234 139.176 666.213 138.048 665.485 136.577C664.771 135.092 664.414 133.299 664.414 131.2C664.414 128.93 664.842 126.987 665.699 125.374C666.57 123.746 667.805 122.496 669.405 121.625C671.004 120.754 672.889 120.318 675.06 120.318C676.659 120.318 678.152 120.597 679.537 121.154C680.922 121.696 682.136 122.532 683.179 123.66C684.235 124.788 685.057 126.216 685.642 127.944C686.228 129.672 686.52 131.707 686.52 134.049ZM675.189 125.631C673.903 125.631 672.854 126.073 672.04 126.959C671.226 127.844 670.819 129.229 670.819 131.115C670.819 132.628 671.169 133.828 671.868 134.713C672.568 135.599 673.632 136.041 675.06 136.041C676.045 136.041 676.902 135.827 677.631 135.399C678.359 134.956 678.923 134.406 679.323 133.749C679.737 133.078 679.944 132.393 679.944 131.693C679.944 130.965 679.844 130.243 679.644 129.529C679.444 128.815 679.144 128.166 678.744 127.58C678.345 126.995 677.845 126.523 677.245 126.166C676.659 125.809 675.974 125.631 675.189 125.631Z" fill="white"/>
<rect x="479" y="175" width="77.1792" height="77.1792" rx="2" fill="#08003C"/>
<path d="M510.122 231H503.503V212.878C503.503 212.378 503.51 211.764 503.525 211.036C503.539 210.293 503.56 209.536 503.589 208.765C503.617 207.98 503.646 207.273 503.674 206.644C503.517 206.83 503.196 207.151 502.711 207.608C502.239 208.051 501.797 208.451 501.382 208.808L497.784 211.7L494.592 207.715L504.681 199.682H510.122V231ZM540.583 215.341C540.583 217.869 540.383 220.125 539.983 222.11C539.598 224.095 538.969 225.78 538.098 227.166C537.241 228.551 536.113 229.608 534.714 230.336C533.314 231.064 531.615 231.428 529.615 231.428C527.102 231.428 525.038 230.793 523.425 229.522C521.811 228.237 520.618 226.394 519.847 223.995C519.076 221.582 518.691 218.697 518.691 215.341C518.691 211.957 519.04 209.065 519.74 206.666C520.454 204.252 521.611 202.403 523.21 201.118C524.81 199.832 526.945 199.19 529.615 199.19C532.114 199.19 534.171 199.832 535.785 201.118C537.413 202.389 538.619 204.231 539.405 206.644C540.19 209.043 540.583 211.942 540.583 215.341ZM525.267 215.341C525.267 217.726 525.395 219.718 525.652 221.318C525.924 222.903 526.374 224.095 527.002 224.895C527.63 225.695 528.501 226.095 529.615 226.095C530.715 226.095 531.579 225.702 532.207 224.916C532.85 224.117 533.307 222.924 533.578 221.339C533.85 219.74 533.985 217.74 533.985 215.341C533.985 212.956 533.85 210.964 533.578 209.365C533.307 207.765 532.85 206.566 532.207 205.766C531.579 204.952 530.715 204.545 529.615 204.545C528.501 204.545 527.63 204.952 527.002 205.766C526.374 206.566 525.924 207.765 525.652 209.365C525.395 210.964 525.267 212.956 525.267 215.341Z" fill="white"/>
<rect x="558" y="175" width="77.1792" height="77.1792" rx="2" fill="#08003C"/>
<path d="M589.122 231H582.503V212.878C582.503 212.378 582.51 211.764 582.525 211.036C582.539 210.293 582.56 209.536 582.589 208.765C582.617 207.98 582.646 207.273 582.674 206.644C582.517 206.83 582.196 207.151 581.711 207.608C581.239 208.051 580.797 208.451 580.382 208.808L576.784 211.7L573.592 207.715L583.681 199.682H589.122V231ZM614.228 231H607.609V212.878C607.609 212.378 607.616 211.764 607.63 211.036C607.644 210.293 607.666 209.536 607.694 208.765C607.723 207.98 607.751 207.273 607.78 206.644C607.623 206.83 607.301 207.151 606.816 207.608C606.345 208.051 605.902 208.451 605.488 208.808L601.889 211.7L598.697 207.715L608.787 199.682H614.228V231Z" fill="white"/>
<rect x="637" y="175" width="77.1792" height="77.1792" rx="2" fill="#08003C"/>
<path d="M668.122 231H661.503V212.878C661.503 212.378 661.51 211.764 661.525 211.036C661.539 210.293 661.56 209.536 661.589 208.765C661.617 207.98 661.646 207.273 661.674 206.644C661.517 206.83 661.196 207.151 660.711 207.608C660.239 208.051 659.797 208.451 659.382 208.808L655.784 211.7L652.592 207.715L662.681 199.682H668.122V231ZM698.754 231H676.862V226.394L684.723 218.447C686.309 216.819 687.58 215.463 688.536 214.377C689.508 213.278 690.207 212.278 690.636 211.378C691.078 210.479 691.3 209.515 691.3 208.487C691.3 207.244 690.95 206.316 690.25 205.702C689.565 205.073 688.644 204.759 687.487 204.759C686.273 204.759 685.095 205.038 683.952 205.595C682.81 206.152 681.617 206.944 680.375 207.972L676.776 203.71C677.676 202.938 678.626 202.21 679.625 201.525C680.639 200.839 681.81 200.289 683.138 199.875C684.481 199.447 686.087 199.233 687.958 199.233C690.014 199.233 691.778 199.604 693.249 200.347C694.734 201.089 695.877 202.103 696.676 203.388C697.476 204.659 697.876 206.102 697.876 207.715C697.876 209.443 697.533 211.021 696.848 212.449C696.162 213.877 695.163 215.291 693.849 216.691C692.549 218.09 690.978 219.64 689.136 221.339L685.109 225.131V225.431H698.754V231Z" fill="white"/>
<path d="M38.5481 177.441H29.6424L28.0412 184H20.5174L29.8179 153.598H38.5481L47.8486 184H40.1494L38.5481 177.441ZM30.7831 172.221H37.3636L34.0733 158.775L30.7831 172.221ZM96.7296 163.03V168.448H76.8126V163.03H96.7296ZM96.7296 172.265V177.639H76.8126V172.265H96.7296Z" fill="#0037AC"/>
<path d="M404.636 174.809C404.636 173.742 404.424 172.901 404 172.287C403.59 171.658 403.005 171.212 402.245 170.949C401.499 170.685 400.622 170.554 399.613 170.554H396.651V178.758H399.306C400.008 178.758 400.673 178.706 401.302 178.604C401.945 178.502 402.515 178.311 403.013 178.034C403.524 177.756 403.919 177.361 404.197 176.849C404.49 176.323 404.636 175.643 404.636 174.809ZM403.495 162.087C403.495 160.888 403.115 160.025 402.355 159.498C401.609 158.957 400.446 158.687 398.867 158.687H396.651V165.728H399.086C400.636 165.728 401.755 165.443 402.442 164.873C403.144 164.302 403.495 163.374 403.495 162.087ZM412.05 175.094C412.05 176.849 411.714 178.304 411.041 179.459C410.368 180.615 409.447 181.521 408.277 182.179C407.107 182.837 405.769 183.305 404.263 183.583C402.771 183.861 401.199 184 399.547 184H389.457V153.598H399.086C400.651 153.598 402.128 153.73 403.517 153.993C404.921 154.241 406.164 154.665 407.246 155.265C408.328 155.85 409.176 156.647 409.791 157.656C410.419 158.65 410.734 159.886 410.734 161.363C410.734 162.577 410.478 163.63 409.966 164.522C409.454 165.399 408.774 166.123 407.926 166.693C407.078 167.249 406.157 167.651 405.162 167.9C406.244 168.075 407.312 168.419 408.365 168.931C409.432 169.428 410.31 170.174 410.997 171.168C411.699 172.162 412.05 173.471 412.05 175.094ZM462.73 163.03V168.448H442.813V163.03H462.73ZM462.73 172.265V177.639H442.813V172.265H462.73Z" fill="#08003C"/>
<rect x="884" y="97" width="77.1792" height="77.1792" rx="2" fill="#0037AC"/>
<path d="M928.122 153H921.503V134.878C921.503 134.378 921.51 133.764 921.525 133.036C921.539 132.293 921.56 131.536 921.589 130.765C921.617 129.98 921.646 129.273 921.674 128.644C921.517 128.83 921.196 129.151 920.711 129.608C920.239 130.051 919.797 130.451 919.382 130.808L915.784 133.7L912.592 129.715L922.681 121.682H928.122V153Z" fill="white"/>
<rect x="963" y="97" width="77.1792" height="77.1792" rx="2" fill="#0037AC"/>
<path d="M1012.65 153H990.757V148.394L998.618 140.447C1000.2 138.819 1001.47 137.463 1002.43 136.377C1003.4 135.278 1004.1 134.278 1004.53 133.378C1004.97 132.479 1005.19 131.515 1005.19 130.487C1005.19 129.244 1004.84 128.316 1004.14 127.702C1003.46 127.073 1002.54 126.759 1001.38 126.759C1000.17 126.759 998.989 127.038 997.847 127.595C996.704 128.152 995.512 128.944 994.27 129.972L990.671 125.71C991.571 124.938 992.52 124.21 993.52 123.525C994.534 122.839 995.705 122.289 997.033 121.875C998.375 121.447 999.982 121.233 1001.85 121.233C1003.91 121.233 1005.67 121.604 1007.14 122.347C1008.63 123.089 1009.77 124.103 1010.57 125.388C1011.37 126.659 1011.77 128.102 1011.77 129.715C1011.77 131.443 1011.43 133.021 1010.74 134.449C1010.06 135.877 1009.06 137.291 1007.74 138.691C1006.44 140.09 1004.87 141.64 1003.03 143.339L999.004 147.131V147.431H1012.65V153Z" fill="white"/>
<rect x="1042" y="97" width="77.1792" height="77.1792" rx="2" fill="#0037AC"/>
<path d="M1090.43 128.687C1090.43 130.129 1090.13 131.379 1089.53 132.436C1088.93 133.493 1088.11 134.357 1087.09 135.028C1086.07 135.699 1084.93 136.192 1083.66 136.506V136.634C1086.17 136.949 1088.08 137.72 1089.38 138.948C1090.69 140.176 1091.35 141.818 1091.35 143.875C1091.35 145.703 1090.9 147.338 1090 148.78C1089.11 150.222 1087.74 151.358 1085.89 152.186C1084.03 153.014 1081.64 153.428 1078.71 153.428C1076.98 153.428 1075.37 153.286 1073.87 153C1072.38 152.729 1070.98 152.307 1069.67 151.736V146.102C1071.01 146.788 1072.42 147.309 1073.89 147.666C1075.36 148.009 1076.73 148.18 1078 148.18C1080.37 148.18 1082.03 147.773 1082.97 146.959C1083.93 146.131 1084.41 144.974 1084.41 143.489C1084.41 142.618 1084.19 141.882 1083.74 141.283C1083.3 140.683 1082.53 140.226 1081.43 139.912C1080.35 139.598 1078.82 139.44 1076.87 139.44H1074.49V134.364H1076.91C1078.84 134.364 1080.3 134.185 1081.3 133.828C1082.32 133.457 1083 132.957 1083.36 132.329C1083.73 131.686 1083.92 130.958 1083.92 130.144C1083.92 129.03 1083.57 128.159 1082.89 127.53C1082.2 126.902 1081.06 126.588 1079.46 126.588C1078.46 126.588 1077.55 126.716 1076.72 126.973C1075.9 127.216 1075.17 127.516 1074.51 127.873C1073.86 128.216 1073.28 128.551 1072.78 128.88L1069.71 124.317C1070.94 123.432 1072.38 122.696 1074.02 122.111C1075.68 121.525 1077.65 121.233 1079.93 121.233C1083.16 121.233 1085.72 121.882 1087.6 123.182C1089.49 124.481 1090.43 126.317 1090.43 128.687Z" fill="white"/>
<rect x="884" y="176" width="77.1792" height="77.1792" rx="2" fill="#0037AC"/>
<path d="M934.356 225.509H930.586V232H924.116V225.509H910.75V220.904L924.481 200.682H930.586V220.368H934.356V225.509ZM924.116 220.368V215.056C924.116 214.556 924.124 213.964 924.138 213.278C924.166 212.593 924.195 211.907 924.224 211.222C924.252 210.536 924.281 209.929 924.309 209.401C924.352 208.858 924.381 208.48 924.395 208.266H924.224C923.952 208.851 923.667 209.422 923.367 209.979C923.067 210.522 922.717 211.093 922.317 211.693L916.576 220.368H924.116Z" fill="white"/>
<rect x="963" y="176" width="77.1792" height="77.1792" rx="2" fill="#0037AC"/>
<path d="M1002.15 211.993C1004.07 211.993 1005.77 212.357 1007.25 213.085C1008.75 213.814 1009.93 214.885 1010.79 216.298C1011.64 217.712 1012.07 219.454 1012.07 221.525C1012.07 223.781 1011.6 225.731 1010.66 227.373C1009.73 229.001 1008.34 230.251 1006.48 231.122C1004.64 231.993 1002.34 232.428 999.582 232.428C997.94 232.428 996.39 232.286 994.934 232C993.491 231.729 992.227 231.307 991.142 230.736V225.017C992.227 225.588 993.527 226.074 995.041 226.473C996.569 226.859 998.004 227.052 999.346 227.052C1000.66 227.052 1001.77 226.88 1002.67 226.538C1003.57 226.181 1004.24 225.638 1004.7 224.91C1005.17 224.167 1005.41 223.225 1005.41 222.082C1005.41 220.554 1004.89 219.383 1003.87 218.569C1002.84 217.755 1001.26 217.348 999.132 217.348C998.318 217.348 997.468 217.427 996.583 217.584C995.712 217.741 994.984 217.898 994.398 218.055L991.763 216.641L992.941 200.682H1009.93V206.295H998.747L998.168 212.443C998.654 212.343 999.182 212.243 999.753 212.143C1000.32 212.043 1001.12 211.993 1002.15 211.993Z" fill="white"/>
<rect x="1042" y="176" width="77.1792" height="77.1792" rx="2" fill="#0037AC"/>
<path d="M1069.54 218.698C1069.54 216.898 1069.67 215.12 1069.93 213.364C1070.2 211.593 1070.66 209.929 1071.32 208.373C1071.98 206.802 1072.9 205.417 1074.08 204.217C1075.27 203.003 1076.78 202.053 1078.6 201.368C1080.43 200.668 1082.64 200.318 1085.24 200.318C1085.86 200.318 1086.57 200.347 1087.39 200.404C1088.21 200.447 1088.9 200.525 1089.44 200.64V205.931C1088.87 205.802 1088.26 205.702 1087.6 205.631C1086.96 205.545 1086.31 205.502 1085.67 205.502C1083.07 205.502 1081.06 205.916 1079.63 206.745C1078.22 207.573 1077.22 208.722 1076.63 210.193C1076.06 211.65 1075.73 213.349 1075.63 215.292H1075.9C1076.3 214.592 1076.8 213.971 1077.4 213.428C1078.02 212.885 1078.76 212.457 1079.63 212.143C1080.5 211.814 1081.52 211.65 1082.69 211.65C1084.52 211.65 1086.11 212.043 1087.45 212.828C1088.79 213.599 1089.83 214.72 1090.56 216.191C1091.28 217.662 1091.65 219.454 1091.65 221.568C1091.65 223.824 1091.21 225.766 1090.34 227.394C1089.47 229.022 1088.24 230.272 1086.64 231.143C1085.05 232 1083.17 232.428 1080.98 232.428C1079.38 232.428 1077.89 232.157 1076.5 231.614C1075.12 231.057 1073.91 230.215 1072.86 229.087C1071.82 227.959 1071.01 226.538 1070.42 224.824C1069.84 223.096 1069.54 221.054 1069.54 218.698ZM1080.85 227.137C1082.15 227.137 1083.21 226.695 1084.02 225.809C1084.84 224.924 1085.24 223.539 1085.24 221.654C1085.24 220.126 1084.89 218.926 1084.17 218.055C1083.47 217.17 1082.41 216.727 1080.98 216.727C1080.01 216.727 1079.15 216.948 1078.41 217.391C1077.68 217.819 1077.12 218.369 1076.72 219.04C1076.32 219.697 1076.12 220.376 1076.12 221.075C1076.12 221.804 1076.22 222.525 1076.42 223.239C1076.62 223.953 1076.92 224.603 1077.32 225.188C1077.72 225.774 1078.21 226.245 1078.8 226.602C1079.4 226.959 1080.08 227.137 1080.85 227.137Z" fill="white"/>
<rect x="1121" y="97" width="77.1792" height="77.1792" rx="2" fill="#08003C"/>
<path d="M1151.86 153L1163.62 127.252H1148.18V121.682H1170.65V125.838L1158.8 153H1151.86Z" fill="white"/>
<rect x="1200" y="97" width="77.1792" height="77.1792" rx="2" fill="#08003C"/>
<path d="M1238.55 121.275C1240.35 121.275 1242.01 121.554 1243.52 122.111C1245.05 122.668 1246.27 123.51 1247.19 124.639C1248.1 125.752 1248.56 127.152 1248.56 128.837C1248.56 130.094 1248.31 131.193 1247.81 132.136C1247.32 133.078 1246.66 133.907 1245.81 134.621C1244.97 135.321 1244.02 135.935 1242.94 136.463C1244.06 137.048 1245.11 137.734 1246.11 138.519C1247.11 139.291 1247.93 140.197 1248.56 141.24C1249.2 142.282 1249.52 143.496 1249.52 144.881C1249.52 146.624 1249.06 148.137 1248.13 149.423C1247.2 150.694 1245.91 151.679 1244.27 152.379C1242.63 153.079 1240.72 153.428 1238.55 153.428C1236.21 153.428 1234.22 153.093 1232.58 152.422C1230.93 151.75 1229.68 150.794 1228.83 149.551C1227.97 148.295 1227.54 146.795 1227.54 145.053C1227.54 143.625 1227.81 142.382 1228.33 141.326C1228.88 140.269 1229.61 139.362 1230.52 138.605C1231.43 137.834 1232.44 137.177 1233.54 136.634C1232.61 136.049 1231.76 135.385 1230.99 134.642C1230.23 133.9 1229.63 133.05 1229.17 132.093C1228.73 131.136 1228.51 130.037 1228.51 128.794C1228.51 127.138 1228.97 125.752 1229.9 124.639C1230.84 123.525 1232.08 122.689 1233.6 122.132C1235.13 121.561 1236.78 121.275 1238.55 121.275ZM1233.67 144.667C1233.67 145.795 1234.07 146.731 1234.87 147.473C1235.68 148.202 1236.88 148.566 1238.47 148.566C1240.11 148.566 1241.34 148.216 1242.15 147.516C1242.97 146.802 1243.37 145.867 1243.37 144.71C1243.37 143.91 1243.14 143.211 1242.67 142.611C1242.21 142.011 1241.63 141.475 1240.93 141.004C1240.23 140.519 1239.52 140.069 1238.81 139.655L1238.23 139.355C1237.32 139.769 1236.52 140.233 1235.83 140.747C1235.16 141.261 1234.63 141.84 1234.25 142.482C1233.86 143.125 1233.67 143.853 1233.67 144.667ZM1238.51 126.117C1237.42 126.117 1236.52 126.395 1235.81 126.952C1235.1 127.509 1234.74 128.294 1234.74 129.308C1234.74 130.022 1234.91 130.651 1235.25 131.193C1235.61 131.722 1236.08 132.186 1236.65 132.586C1237.23 132.986 1237.87 133.357 1238.55 133.7C1239.21 133.385 1239.82 133.036 1240.39 132.65C1240.97 132.264 1241.43 131.8 1241.79 131.258C1242.14 130.715 1242.32 130.065 1242.32 129.308C1242.32 128.294 1241.96 127.509 1241.23 126.952C1240.52 126.395 1239.61 126.117 1238.51 126.117Z" fill="white"/>
<rect x="1279" y="97" width="77.1792" height="77.1792" rx="2" fill="#08003C"/>
<path d="M1328.52 135.049C1328.52 136.849 1328.38 138.634 1328.11 140.404C1327.86 142.175 1327.4 143.846 1326.74 145.417C1326.09 146.974 1325.16 148.359 1323.98 149.573C1322.79 150.772 1321.29 151.715 1319.46 152.4C1317.63 153.086 1315.42 153.428 1312.82 153.428C1312.2 153.428 1311.48 153.4 1310.66 153.343C1309.83 153.3 1309.14 153.228 1308.6 153.129V147.816C1309.17 147.959 1309.78 148.073 1310.42 148.159C1311.06 148.23 1311.71 148.266 1312.37 148.266C1314.98 148.266 1317 147.852 1318.41 147.024C1319.84 146.195 1320.84 145.046 1321.41 143.575C1321.99 142.104 1322.33 140.404 1322.42 138.477H1322.16C1321.74 139.162 1321.25 139.783 1320.68 140.34C1320.12 140.883 1319.41 141.318 1318.54 141.647C1317.67 141.961 1316.56 142.118 1315.22 142.118C1313.43 142.118 1311.88 141.733 1310.55 140.961C1309.23 140.176 1308.21 139.048 1307.48 137.577C1306.77 136.092 1306.41 134.299 1306.41 132.2C1306.41 129.93 1306.84 127.987 1307.7 126.374C1308.57 124.746 1309.81 123.496 1311.4 122.625C1313 121.754 1314.89 121.318 1317.06 121.318C1318.66 121.318 1320.15 121.597 1321.54 122.154C1322.92 122.696 1324.14 123.532 1325.18 124.66C1326.24 125.788 1327.06 127.216 1327.64 128.944C1328.23 130.672 1328.52 132.707 1328.52 135.049ZM1317.19 126.631C1315.9 126.631 1314.85 127.073 1314.04 127.959C1313.23 128.844 1312.82 130.229 1312.82 132.115C1312.82 133.628 1313.17 134.828 1313.87 135.713C1314.57 136.599 1315.63 137.041 1317.06 137.041C1318.05 137.041 1318.9 136.827 1319.63 136.399C1320.36 135.956 1320.92 135.406 1321.32 134.749C1321.74 134.078 1321.94 133.393 1321.94 132.693C1321.94 131.965 1321.84 131.243 1321.64 130.529C1321.44 129.815 1321.14 129.166 1320.74 128.58C1320.34 127.995 1319.84 127.523 1319.24 127.166C1318.66 126.809 1317.97 126.631 1317.19 126.631Z" fill="white"/>
<rect x="1121" y="176" width="77.1792" height="77.1792" rx="2" fill="#08003C"/>
<path d="M1152.12 232H1145.5V213.878C1145.5 213.378 1145.51 212.764 1145.52 212.036C1145.54 211.293 1145.56 210.536 1145.59 209.765C1145.62 208.98 1145.65 208.273 1145.67 207.644C1145.52 207.83 1145.2 208.151 1144.71 208.608C1144.24 209.051 1143.8 209.451 1143.38 209.808L1139.78 212.7L1136.59 208.715L1146.68 200.682H1152.12V232ZM1182.58 216.341C1182.58 218.869 1182.38 221.125 1181.98 223.11C1181.6 225.095 1180.97 226.78 1180.1 228.166C1179.24 229.551 1178.11 230.608 1176.71 231.336C1175.31 232.064 1173.61 232.428 1171.62 232.428C1169.1 232.428 1167.04 231.793 1165.42 230.522C1163.81 229.237 1162.62 227.394 1161.85 224.995C1161.08 222.582 1160.69 219.697 1160.69 216.341C1160.69 212.957 1161.04 210.065 1161.74 207.666C1162.45 205.252 1163.61 203.403 1165.21 202.118C1166.81 200.832 1168.94 200.19 1171.62 200.19C1174.11 200.19 1176.17 200.832 1177.78 202.118C1179.41 203.389 1180.62 205.231 1181.4 207.644C1182.19 210.043 1182.58 212.942 1182.58 216.341ZM1167.27 216.341C1167.27 218.726 1167.4 220.718 1167.65 222.318C1167.92 223.903 1168.37 225.095 1169 225.895C1169.63 226.695 1170.5 227.095 1171.62 227.095C1172.71 227.095 1173.58 226.702 1174.21 225.916C1174.85 225.117 1175.31 223.924 1175.58 222.339C1175.85 220.74 1175.99 218.74 1175.99 216.341C1175.99 213.956 1175.85 211.964 1175.58 210.365C1175.31 208.765 1174.85 207.566 1174.21 206.766C1173.58 205.952 1172.71 205.545 1171.62 205.545C1170.5 205.545 1169.63 205.952 1169 206.766C1168.37 207.566 1167.92 208.765 1167.65 210.365C1167.4 211.964 1167.27 213.956 1167.27 216.341Z" fill="white"/>
<rect x="1200" y="176" width="77.1792" height="77.1792" rx="2" fill="#08003C"/>
<path d="M1231.12 232H1224.5V213.878C1224.5 213.378 1224.51 212.764 1224.52 212.036C1224.54 211.293 1224.56 210.536 1224.59 209.765C1224.62 208.98 1224.65 208.273 1224.67 207.644C1224.52 207.83 1224.2 208.151 1223.71 208.608C1223.24 209.051 1222.8 209.451 1222.38 209.808L1218.78 212.7L1215.59 208.715L1225.68 200.682H1231.12V232ZM1256.23 232H1249.61V213.878C1249.61 213.378 1249.62 212.764 1249.63 212.036C1249.64 211.293 1249.67 210.536 1249.69 209.765C1249.72 208.98 1249.75 208.273 1249.78 207.644C1249.62 207.83 1249.3 208.151 1248.82 208.608C1248.34 209.051 1247.9 209.451 1247.49 209.808L1243.89 212.7L1240.7 208.715L1250.79 200.682H1256.23V232Z" fill="white"/>
<rect x="1279" y="176" width="77.1792" height="77.1792" rx="2" fill="#08003C"/>
<path d="M1310.12 232H1303.5V213.878C1303.5 213.378 1303.51 212.764 1303.52 212.036C1303.54 211.293 1303.56 210.536 1303.59 209.765C1303.62 208.98 1303.65 208.273 1303.67 207.644C1303.52 207.83 1303.2 208.151 1302.71 208.608C1302.24 209.051 1301.8 209.451 1301.38 209.808L1297.78 212.7L1294.59 208.715L1304.68 200.682H1310.12V232ZM1340.75 232H1318.86V227.394L1326.72 219.447C1328.31 217.819 1329.58 216.463 1330.54 215.377C1331.51 214.278 1332.21 213.278 1332.64 212.378C1333.08 211.479 1333.3 210.515 1333.3 209.487C1333.3 208.244 1332.95 207.316 1332.25 206.702C1331.56 206.073 1330.64 205.759 1329.49 205.759C1328.27 205.759 1327.09 206.038 1325.95 206.595C1324.81 207.152 1323.62 207.944 1322.38 208.972L1318.78 204.71C1319.68 203.938 1320.63 203.21 1321.63 202.525C1322.64 201.839 1323.81 201.289 1325.14 200.875C1326.48 200.447 1328.09 200.233 1329.96 200.233C1332.01 200.233 1333.78 200.604 1335.25 201.347C1336.73 202.089 1337.88 203.103 1338.68 204.388C1339.48 205.659 1339.88 207.102 1339.88 208.715C1339.88 210.443 1339.53 212.021 1338.85 213.449C1338.16 214.877 1337.16 216.291 1335.85 217.691C1334.55 219.09 1332.98 220.64 1331.14 222.339L1327.11 226.131V226.431H1340.75V232Z" fill="white"/>
<path d="M874 172L854 160.453V183.547L874 172ZM746 172V174H856V172V170H746V172Z" fill="#C90000"/>
<path d="M758.951 136.229V143.511C759.534 142.893 760.164 142.437 760.843 142.141C761.53 141.836 762.257 141.684 763.022 141.684C764.258 141.684 765.202 142.045 765.854 142.767C766.507 143.489 766.833 144.507 766.833 145.821V156H762.709V146.969C762.709 146.134 762.614 145.551 762.422 145.221C762.239 144.89 761.891 144.725 761.378 144.725C761.091 144.725 760.808 144.794 760.53 144.934C760.26 145.064 759.995 145.255 759.734 145.508C759.473 145.76 759.212 146.06 758.951 146.408V156H754.827V136.634L758.951 136.229ZM776.036 153.494C776.723 153.494 777.276 153.386 777.693 153.168C778.12 152.951 778.333 152.624 778.333 152.189C778.333 151.894 778.25 151.646 778.085 151.446C777.92 151.245 777.602 151.054 777.132 150.871C776.663 150.689 775.967 150.471 775.044 150.219C774.2 149.993 773.452 149.706 772.8 149.358C772.156 149.01 771.651 148.561 771.286 148.013C770.929 147.465 770.751 146.782 770.751 145.965C770.751 145.138 770.981 144.403 771.443 143.759C771.904 143.115 772.582 142.611 773.478 142.245C774.374 141.871 775.471 141.684 776.767 141.684C778.002 141.684 779.077 141.845 779.99 142.167C780.912 142.48 781.709 142.88 782.378 143.368L780.734 145.795C780.16 145.438 779.542 145.155 778.881 144.947C778.22 144.729 777.554 144.62 776.884 144.62C776.214 144.62 775.714 144.712 775.384 144.894C775.062 145.068 774.901 145.334 774.901 145.69C774.901 145.925 774.983 146.13 775.149 146.304C775.323 146.469 775.645 146.643 776.114 146.826C776.584 147 777.272 147.217 778.176 147.478C779.072 147.731 779.851 148.022 780.512 148.353C781.182 148.683 781.7 149.127 782.065 149.684C782.431 150.232 782.613 150.958 782.613 151.863C782.613 152.872 782.313 153.721 781.713 154.408C781.113 155.086 780.317 155.595 779.325 155.935C778.333 156.274 777.245 156.444 776.062 156.444C774.722 156.444 773.539 156.252 772.513 155.869C771.486 155.487 770.612 154.982 769.89 154.356L771.965 152.033C772.504 152.45 773.113 152.798 773.792 153.077C774.479 153.355 775.227 153.494 776.036 153.494ZM798.602 155.191C798.063 155.539 797.411 155.835 796.645 156.078C795.879 156.322 795.018 156.444 794.061 156.444C792.251 156.444 790.907 155.983 790.029 155.06C789.15 154.129 788.711 152.868 788.711 151.276V144.986H785.8V142.141H788.711V139.139L792.834 138.643V142.141H797.297L796.893 144.986H792.834V151.276C792.834 151.963 792.991 152.455 793.304 152.751C793.617 153.046 794.118 153.194 794.805 153.194C795.292 153.194 795.736 153.138 796.136 153.025C796.545 152.903 796.91 152.751 797.232 152.568L798.602 155.191ZM813.443 152.007C813.443 152.529 813.513 152.907 813.652 153.142C813.8 153.377 814.035 153.555 814.357 153.677L813.508 156.392C812.691 156.313 811.999 156.135 811.433 155.856C810.877 155.569 810.437 155.139 810.115 154.564C809.585 155.2 808.906 155.674 808.08 155.987C807.253 156.291 806.409 156.444 805.548 156.444C804.121 156.444 802.981 156.039 802.129 155.23C801.285 154.412 800.863 153.364 800.863 152.085C800.863 150.58 801.45 149.418 802.625 148.601C803.808 147.783 805.47 147.374 807.61 147.374H809.476V146.852C809.476 146.13 809.241 145.595 808.771 145.247C808.31 144.899 807.632 144.725 806.735 144.725C806.292 144.725 805.722 144.79 805.026 144.921C804.33 145.042 803.634 145.221 802.938 145.456L801.985 142.715C802.881 142.376 803.812 142.119 804.778 141.945C805.752 141.771 806.622 141.684 807.388 141.684C809.45 141.684 810.972 142.106 811.955 142.95C812.947 143.785 813.443 144.994 813.443 146.578V152.007ZM806.97 153.494C807.414 153.494 807.88 153.364 808.367 153.103C808.854 152.833 809.224 152.455 809.476 151.968V149.723H808.458C807.31 149.723 806.466 149.901 805.926 150.258C805.387 150.606 805.117 151.119 805.117 151.798C805.117 152.329 805.278 152.746 805.6 153.051C805.931 153.346 806.387 153.494 806.97 153.494ZM824.773 153.194C825.339 153.194 825.87 153.085 826.366 152.868C826.87 152.642 827.37 152.355 827.866 152.007L829.706 154.617C829.097 155.139 828.353 155.574 827.475 155.922C826.605 156.27 825.63 156.444 824.552 156.444C823.064 156.444 821.785 156.139 820.715 155.53C819.645 154.912 818.823 154.06 818.248 152.972C817.674 151.876 817.387 150.606 817.387 149.162C817.387 147.718 817.679 146.434 818.261 145.312C818.853 144.181 819.688 143.294 820.767 142.65C821.855 142.006 823.142 141.684 824.63 141.684C825.683 141.684 826.618 141.832 827.436 142.128C828.262 142.415 829.019 142.846 829.706 143.42L827.918 145.899C827.449 145.569 826.953 145.312 826.431 145.129C825.909 144.947 825.365 144.855 824.8 144.855C823.869 144.855 823.116 145.186 822.542 145.847C821.976 146.5 821.694 147.604 821.694 149.162C821.694 150.18 821.828 150.984 822.098 151.576C822.368 152.159 822.733 152.577 823.194 152.829C823.664 153.072 824.191 153.194 824.773 153.194ZM846.231 142.141L841.676 148.274L846.609 156H841.911L837.356 148.405L841.911 142.141H846.231ZM837.2 136.203V156H833.076V136.634L837.2 136.203Z" fill="#C90000"/>
</svg>
