<svg width="1400" height="350" viewBox="0 0 1400 350" fill="none" xmlns="http://www.w3.org/2000/svg">
<rect width="1400" height="350" fill="white"/>
<rect width="55.75" height="55.75" rx="3.71666" transform="matrix(0.866025 -0.5 0 1 1183.7 160.358)" fill="#190555"/>
<rect width="55.75" height="55.75" rx="3.71666" transform="matrix(0.866025 -0.5 0 1 1183.7 217.967)" fill="#190555"/>
<rect width="55.75" height="55.75" rx="3.71666" transform="matrix(0.866025 0.5 -0.866025 0.5 1183.7 102.75)" fill="#190555"/>
<rect width="55.75" height="55.75" rx="3.71666" transform="matrix(0.866025 0.5 -0.866025 0.5 1133.52 74.875)" fill="#190555"/>
<rect width="55.75" height="55.75" rx="3.71666" transform="matrix(0.866025 0.5 -0.866025 0.5 1083.35 47)" fill="#190555"/>
<path d="M1206.66 164.237C1208.22 163.342 1209.51 162.965 1210.54 163.108C1211.57 163.25 1212.34 163.829 1212.86 164.845C1213.38 165.851 1213.64 167.217 1213.64 168.944C1213.64 171.04 1213.41 173.033 1212.94 174.923C1212.49 176.797 1211.79 178.598 1210.84 180.325C1209.9 182.047 1208.7 183.734 1207.24 185.388C1205.79 187.025 1204.07 188.655 1202.08 190.276L1201.19 187.283C1202.82 185.872 1204.18 184.503 1205.3 183.176C1206.41 181.839 1207.28 180.496 1207.92 179.148C1208.56 177.79 1208.98 176.379 1209.18 174.915V173.225C1209.2 171.666 1209.15 170.411 1209.03 169.457C1208.92 168.499 1208.68 167.881 1208.31 167.601C1207.94 167.307 1207.39 167.375 1206.64 167.807C1205.86 168.254 1205.25 168.947 1204.79 169.884C1204.33 170.821 1204.11 172.006 1204.11 173.438C1204.11 174.786 1204.33 175.602 1204.79 175.886C1205.26 176.165 1205.81 176.118 1206.46 175.744C1207.09 175.381 1207.66 174.894 1208.17 174.283C1208.68 173.672 1209.2 172.917 1209.72 172.016L1209.66 174.86C1208.99 176.034 1208.31 177.053 1207.59 177.916C1206.89 178.764 1206.07 179.462 1205.12 180.009C1204.12 180.583 1203.22 180.815 1202.41 180.704C1201.6 180.594 1200.95 180.151 1200.47 179.377C1199.99 178.598 1199.76 177.503 1199.76 176.092C1199.76 174.512 1200.06 172.959 1200.66 171.432C1201.27 169.9 1202.1 168.507 1203.14 167.254C1204.18 165.996 1205.36 164.99 1206.66 164.237Z" fill="white"/>
<path d="M1202.67 224.132V245.393L1198.45 247.826V231.477L1194.55 236.54L1192.72 234.17L1198.83 226.344L1202.67 224.132ZM1206.21 240.204V243.98L1193.88 251.096V247.32L1206.21 240.204ZM1215.09 216.406C1216.53 215.574 1217.73 215.169 1218.7 215.19C1219.68 215.206 1220.41 215.553 1220.89 216.233C1221.38 216.896 1221.63 217.786 1221.63 218.902C1221.63 219.787 1221.5 220.732 1221.23 221.737C1220.98 222.727 1220.55 223.867 1219.96 225.157C1219.37 226.437 1218.58 227.935 1217.59 229.651C1216.62 231.362 1215.41 233.376 1213.97 235.693L1222.07 231.017L1221.6 235.093L1209 242.367V238.828C1210.25 236.717 1211.34 234.858 1212.26 233.253C1213.18 231.647 1213.95 230.246 1214.58 229.051C1215.22 227.85 1215.73 226.813 1216.12 225.939C1216.51 225.06 1216.79 224.296 1216.96 223.649C1217.14 222.99 1217.22 222.403 1217.22 221.887C1217.22 221.003 1217 220.432 1216.55 220.174C1216.12 219.91 1215.49 220.013 1214.68 220.482C1213.96 220.898 1213.33 221.432 1212.8 222.085C1212.28 222.738 1211.77 223.596 1211.27 224.66L1208.62 223.886C1209.33 222.338 1210.21 220.927 1211.25 219.652C1212.28 218.368 1213.57 217.286 1215.09 216.406Z" fill="white"/>
<path d="M1193.68 124.711C1195.23 125.606 1196.2 126.535 1196.6 127.499C1196.99 128.462 1196.87 129.423 1196.25 130.382C1195.64 131.335 1194.59 132.243 1193.09 133.106C1191.28 134.154 1189.44 134.949 1187.57 135.492C1185.72 136.034 1183.81 136.326 1181.84 136.368C1179.87 136.416 1177.81 136.221 1175.65 135.784C1173.51 135.347 1171.24 134.673 1168.84 133.762L1170.99 131.495C1173.02 132.196 1174.89 132.696 1176.6 132.996C1178.31 133.291 1179.91 133.378 1181.4 133.256C1182.89 133.13 1184.33 132.788 1185.69 132.23L1187.16 131.385C1188.52 130.621 1189.58 129.95 1190.34 129.371C1191.12 128.797 1191.53 128.278 1191.59 127.815C1191.66 127.351 1191.32 126.904 1190.58 126.472C1189.8 126.025 1188.89 125.838 1187.85 125.911C1186.81 125.985 1185.67 126.38 1184.43 127.096C1183.27 127.77 1182.67 128.376 1182.66 128.913C1182.65 129.455 1182.97 129.913 1183.61 130.287C1184.24 130.65 1184.95 130.9 1185.73 131.037C1186.52 131.174 1187.43 131.243 1188.47 131.243L1185.98 132.617C1184.63 132.627 1183.4 132.54 1182.3 132.356C1181.22 132.172 1180.2 131.806 1179.25 131.258C1178.26 130.684 1177.6 130.018 1177.29 129.26C1176.98 128.502 1177.04 127.72 1177.47 126.914C1177.91 126.114 1178.74 125.361 1179.96 124.656C1181.33 123.866 1182.82 123.35 1184.45 123.108C1186.08 122.871 1187.7 122.889 1189.3 123.163C1190.92 123.442 1192.38 123.958 1193.68 124.711Z" fill="white"/>
<path d="M1144.9 103.439C1144.02 103.949 1143.02 104.252 1141.91 104.347C1140.79 104.442 1139.44 104.363 1137.86 104.11C1138.5 105.216 1138.67 106.19 1138.38 107.032C1138.1 107.875 1137.43 108.604 1136.37 109.22C1135.39 109.783 1134.2 110.157 1132.81 110.341C1131.43 110.526 1129.95 110.465 1128.36 110.16C1126.79 109.86 1125.21 109.254 1123.63 108.343C1122.09 107.453 1121.05 106.561 1120.52 105.666C1120.01 104.776 1119.9 103.941 1120.21 103.162C1120.54 102.383 1121.19 101.712 1122.17 101.148C1123.25 100.522 1124.51 100.158 1125.94 100.058C1127.37 99.9582 1128.86 100.082 1130.39 100.429C1130.04 99.5133 1129.97 98.7446 1130.17 98.1233C1130.39 97.502 1131.02 96.8886 1132.07 96.2831C1132.88 95.8145 1133.77 95.488 1134.72 95.3037C1135.69 95.1142 1136.69 95.051 1137.71 95.1142C1138.74 95.1826 1139.75 95.3696 1140.76 95.6749C1141.78 95.9803 1142.74 96.3936 1143.64 96.9149C1144.56 97.4467 1145.29 98.0022 1145.82 98.5814C1146.36 99.1553 1146.68 99.7292 1146.8 100.303C1146.93 100.882 1146.84 101.438 1146.52 101.97C1146.22 102.501 1145.68 102.991 1144.9 103.439ZM1132.07 106.708C1132.7 106.345 1133.08 105.976 1133.22 105.603C1133.37 105.234 1133.32 104.815 1133.07 104.347C1132.83 103.873 1132.44 103.302 1131.88 102.633C1131.28 102.559 1130.68 102.538 1130.07 102.57C1129.48 102.596 1128.9 102.683 1128.34 102.83C1127.78 102.983 1127.25 103.204 1126.75 103.494C1125.96 103.947 1125.55 104.45 1125.5 105.002C1125.48 105.555 1125.92 106.095 1126.83 106.621C1127.77 107.164 1128.71 107.414 1129.64 107.372C1130.57 107.324 1131.39 107.103 1132.07 106.708ZM1136.19 98.6603C1135.74 98.9183 1135.44 99.2 1135.3 99.5054C1135.16 99.8161 1135.17 100.166 1135.31 100.556C1135.46 100.945 1135.73 101.39 1136.12 101.891C1137.2 101.985 1138.07 101.972 1138.73 101.851C1139.41 101.725 1140.01 101.509 1140.54 101.203C1141.21 100.814 1141.59 100.387 1141.66 99.924C1141.74 99.4659 1141.42 99.0289 1140.7 98.613C1140 98.2075 1139.26 98.0048 1138.47 98.0048C1137.71 98.0048 1136.94 98.2233 1136.19 98.6603Z" fill="white"/>
<path d="M1072.58 79.9311L1069.75 76.8273L1091.69 72.3254L1083.36 67.5156L1086.62 65.6359L1099.32 72.9731L1096.4 74.6632L1072.58 79.9311Z" fill="white"/>
<rect x="505.389" y="323.186" width="19.1617" height="19.1617" rx="3.74252" fill="#0037AC"/>
<path d="M512.812 328.192C512.685 327.882 512.246 327.882 512.119 328.192L511.92 328.678C511.882 328.769 511.882 328.871 511.919 328.962L514.593 335.522C514.693 335.768 514.512 336.037 514.246 336.037H511.585H510.687C510.421 336.037 510.24 335.767 510.341 335.521L510.802 334.397C510.839 334.306 510.84 334.205 510.803 334.114L510.593 333.599C510.466 333.288 510.027 333.288 509.9 333.598L508.643 336.659C508.542 336.905 508.723 337.175 508.989 337.175H515.942C516.208 337.175 516.389 336.905 516.288 336.659L512.812 328.192Z" fill="white"/>
<path d="M515.348 330.011C515.247 329.765 515.428 329.496 515.694 329.496H518.355H519.253C519.519 329.496 519.701 329.766 519.599 330.012L519.138 331.136C519.101 331.227 519.101 331.329 519.138 331.419L519.348 331.934C519.474 332.245 519.913 332.245 520.04 331.935L521.297 328.874C521.398 328.628 521.217 328.358 520.951 328.358H513.999C513.732 328.358 513.551 328.628 513.652 328.874L517.128 337.341C517.256 337.651 517.694 337.651 517.821 337.341L518.021 336.855C518.058 336.764 518.058 336.662 518.021 336.571L515.348 330.011Z" fill="white"/>
<path d="M536.368 334.455H533.656L533.128 336.281H531.83L534.245 328.69H535.829L538.25 336.281H536.896L536.368 334.455ZM533.92 333.47H536.099L535.015 329.68L533.92 333.47ZM540.545 330.472V334.532C540.545 334.877 540.613 335.122 540.748 335.269C540.888 335.416 541.097 335.489 541.375 335.489C541.64 335.489 541.894 335.41 542.14 335.253C542.386 335.095 542.58 334.902 542.723 334.675V330.472H543.955V336.281H542.894L542.817 335.539C542.6 335.828 542.327 336.05 541.997 336.204C541.667 336.355 541.33 336.43 540.985 336.43C540.424 336.43 540.004 336.276 539.725 335.968C539.45 335.656 539.313 335.229 539.313 334.686V330.472H540.545ZM550.762 335.973C550.549 336.109 550.294 336.219 549.997 336.303C549.7 336.388 549.39 336.43 549.067 336.43C548.392 336.43 547.879 336.256 547.527 335.907C547.179 335.555 547.004 335.093 547.004 334.521V331.369H545.712V330.472H547.004V329.174L548.237 329.025V330.472H550.195L550.057 331.369H548.237V334.51C548.237 334.822 548.314 335.055 548.468 335.209C548.625 335.359 548.882 335.434 549.238 335.434C549.45 335.434 549.647 335.408 549.826 335.357C550.006 335.306 550.169 335.24 550.316 335.159L550.762 335.973ZM554.834 330.318C555.402 330.318 555.881 330.445 556.269 330.698C556.658 330.951 556.952 331.305 557.15 331.759C557.351 332.214 557.452 332.75 557.452 333.366C557.452 333.978 557.349 334.515 557.144 334.977C556.942 335.436 556.645 335.793 556.253 336.05C555.864 336.303 555.389 336.43 554.828 336.43C554.267 336.43 553.79 336.307 553.398 336.061C553.009 335.812 552.712 335.458 552.507 334.999C552.305 334.541 552.204 334 552.204 333.377C552.204 332.772 552.305 332.24 552.507 331.781C552.712 331.323 553.011 330.965 553.403 330.709C553.796 330.448 554.272 330.318 554.834 330.318ZM554.834 331.275C554.39 331.275 554.056 331.446 553.832 331.787C553.609 332.124 553.497 332.654 553.497 333.377C553.497 334.095 553.607 334.625 553.827 334.966C554.051 335.308 554.384 335.478 554.828 335.478C555.272 335.478 555.604 335.308 555.824 334.966C556.048 334.625 556.159 334.092 556.159 333.366C556.159 332.651 556.049 332.124 555.829 331.787C555.609 331.446 555.277 331.275 554.834 331.275ZM559.159 336.281V335.401H560.011V331.347H559.159V330.472H560.952L561.178 331.82C561.394 331.332 561.662 330.962 561.981 330.709C562.303 330.452 562.718 330.324 563.224 330.324C563.396 330.324 563.55 330.338 563.686 330.368C563.825 330.393 563.963 330.428 564.099 330.472L563.73 331.528C563.613 331.495 563.503 331.471 563.4 331.457C563.297 331.438 563.184 331.429 563.059 331.429C562.637 331.429 562.272 331.587 561.964 331.902C561.66 332.218 561.42 332.665 561.244 333.245V335.401H562.415V336.281H559.159ZM563.009 332.612V331.182L563.163 330.472H564.099L563.89 332.612H563.009ZM567.026 335.434C567.026 335.166 567.122 334.937 567.313 334.746C567.503 334.552 567.738 334.455 568.017 334.455C568.299 334.455 568.534 334.552 568.721 334.746C568.912 334.937 569.007 335.166 569.007 335.434C569.007 335.709 568.912 335.944 568.721 336.138C568.534 336.333 568.299 336.43 568.017 336.43C567.738 336.43 567.503 336.333 567.313 336.138C567.122 335.944 567.026 335.709 567.026 335.434ZM567.026 331.528C567.026 331.349 567.07 331.184 567.158 331.033C567.247 330.883 567.366 330.764 567.516 330.676C567.666 330.588 567.833 330.544 568.017 330.544C568.299 330.544 568.534 330.641 568.721 330.835C568.912 331.026 569.007 331.257 569.007 331.528C569.007 331.8 568.912 332.034 568.721 332.232C568.534 332.427 568.299 332.524 568.017 332.524C567.738 332.524 567.503 332.427 567.313 332.232C567.122 332.034 567.026 331.8 567.026 331.528ZM583.714 328.657V333.536C583.714 333.98 583.646 334.382 583.51 334.741C583.375 335.1 583.175 335.407 582.911 335.66C582.65 335.913 582.329 336.107 581.948 336.243C581.57 336.378 581.137 336.446 580.65 336.446C580.158 336.446 579.733 336.384 579.373 336.259C579.018 336.131 578.675 335.955 578.345 335.731L579.032 334.62C579.293 334.8 579.537 334.926 579.764 334.999C579.991 335.069 580.25 335.104 580.54 335.104C580.932 335.104 581.258 334.979 581.519 334.73C581.783 334.477 581.915 334.086 581.915 333.558V329.977H579.571V328.657H583.714ZM587.813 330.247C588.415 330.247 588.926 330.375 589.348 330.632C589.77 330.888 590.093 331.25 590.316 331.715C590.54 332.177 590.652 332.72 590.652 333.344C590.652 333.993 590.538 334.552 590.311 335.021C590.087 335.487 589.764 335.845 589.343 336.094C588.921 336.344 588.411 336.468 587.813 336.468C587.219 336.468 586.709 336.345 586.284 336.1C585.862 335.854 585.538 335.498 585.31 335.032C585.087 334.567 584.975 334.007 584.975 333.355C584.975 332.735 585.087 332.192 585.31 331.726C585.538 331.261 585.862 330.897 586.284 330.637C586.709 330.377 587.219 330.247 587.813 330.247ZM587.813 331.528C587.458 331.528 587.193 331.675 587.021 331.968C586.852 332.258 586.768 332.72 586.768 333.355C586.768 334 586.852 334.468 587.021 334.757C587.193 335.047 587.458 335.192 587.813 335.192C588.169 335.192 588.431 335.047 588.6 334.757C588.772 334.468 588.858 333.996 588.858 333.344C588.858 332.713 588.772 332.253 588.6 331.963C588.431 331.673 588.169 331.528 587.813 331.528ZM594.223 335.225C594.513 335.225 594.746 335.179 594.922 335.088C595.102 334.996 595.191 334.858 595.191 334.675C595.191 334.55 595.157 334.446 595.087 334.361C595.017 334.277 594.883 334.196 594.685 334.119C594.487 334.042 594.194 333.951 593.805 333.844C593.449 333.749 593.134 333.628 592.859 333.481C592.588 333.334 592.375 333.146 592.221 332.915C592.07 332.684 591.995 332.396 591.995 332.051C591.995 331.702 592.092 331.393 592.287 331.121C592.481 330.85 592.767 330.637 593.145 330.483C593.523 330.325 593.985 330.247 594.531 330.247C595.052 330.247 595.505 330.314 595.89 330.45C596.279 330.582 596.614 330.751 596.897 330.956L596.204 331.979C595.962 331.829 595.701 331.71 595.423 331.622C595.144 331.53 594.863 331.484 594.581 331.484C594.298 331.484 594.088 331.523 593.948 331.6C593.813 331.673 593.745 331.785 593.745 331.935C593.745 332.034 593.78 332.121 593.849 332.194C593.923 332.264 594.058 332.337 594.256 332.414C594.454 332.487 594.744 332.579 595.125 332.689C595.503 332.795 595.831 332.918 596.11 333.058C596.393 333.197 596.611 333.384 596.765 333.619C596.919 333.85 596.996 334.156 596.996 334.537C596.996 334.963 596.869 335.32 596.616 335.61C596.363 335.896 596.028 336.111 595.61 336.254C595.191 336.397 594.733 336.468 594.234 336.468C593.669 336.468 593.171 336.388 592.738 336.226C592.305 336.065 591.937 335.852 591.632 335.588L592.507 334.609C592.734 334.785 592.991 334.932 593.277 335.049C593.567 335.166 593.882 335.225 594.223 335.225ZM599.984 333.866C600.024 334.185 600.107 334.444 600.232 334.642C600.36 334.836 600.523 334.979 600.721 335.071C600.919 335.159 601.141 335.203 601.387 335.203C601.655 335.203 601.913 335.159 602.163 335.071C602.412 334.983 602.652 334.866 602.883 334.719L603.582 335.665C603.307 335.9 602.973 336.092 602.581 336.243C602.192 336.393 601.748 336.468 601.249 336.468C600.582 336.468 600.023 336.336 599.572 336.072C599.12 335.804 598.781 335.438 598.554 334.972C598.326 334.506 598.213 333.971 598.213 333.366C598.213 332.79 598.323 332.267 598.543 331.798C598.763 331.325 599.084 330.949 599.506 330.67C599.931 330.388 600.45 330.247 601.062 330.247C601.62 330.247 602.102 330.366 602.509 330.604C602.92 330.842 603.237 331.185 603.461 331.633C603.688 332.08 603.802 332.618 603.802 333.245C603.802 333.344 603.798 333.45 603.791 333.564C603.787 333.677 603.78 333.778 603.769 333.866H599.984ZM601.062 331.413C600.751 331.413 600.499 331.525 600.309 331.748C600.118 331.972 600.002 332.33 599.962 332.821H602.108C602.104 332.396 602.021 332.055 601.86 331.798C601.699 331.541 601.433 331.413 601.062 331.413ZM608.309 330.247C608.818 330.247 609.229 330.373 609.541 330.626C609.852 330.879 610.08 331.237 610.223 331.699C610.37 332.161 610.443 332.709 610.443 333.344C610.443 333.945 610.355 334.482 610.179 334.955C610.003 335.425 609.748 335.795 609.414 336.067C609.081 336.334 608.675 336.468 608.198 336.468C607.63 336.468 607.168 336.265 606.812 335.858V338.537L605.074 338.718V330.439H606.614L606.691 331.094C606.93 330.789 607.19 330.573 607.472 330.445C607.755 330.313 608.033 330.247 608.309 330.247ZM607.769 331.528C607.568 331.528 607.39 331.589 607.236 331.71C607.082 331.831 606.941 331.996 606.812 332.205V334.669C606.933 334.849 607.06 334.981 607.192 335.066C607.327 335.15 607.487 335.192 607.67 335.192C607.978 335.192 608.219 335.053 608.391 334.774C608.563 334.492 608.65 334.022 608.65 333.366C608.65 332.882 608.615 332.507 608.545 332.243C608.475 331.976 608.375 331.791 608.242 331.688C608.11 331.581 607.953 331.528 607.769 331.528ZM613.409 327.947V331.017C613.655 330.756 613.921 330.564 614.207 330.439C614.497 330.311 614.803 330.247 615.126 330.247C615.646 330.247 616.044 330.399 616.319 330.703C616.594 331.008 616.732 331.437 616.732 331.99V336.281H614.994V332.474C614.994 332.122 614.953 331.877 614.873 331.737C614.796 331.598 614.649 331.528 614.432 331.528C614.311 331.528 614.192 331.558 614.075 331.616C613.961 331.671 613.849 331.752 613.739 331.858C613.629 331.965 613.519 332.091 613.409 332.238V336.281H611.671V328.118L613.409 327.947ZM630.344 334.053C630.344 334.526 630.219 334.944 629.97 335.308C629.724 335.671 629.37 335.955 628.908 336.16C628.446 336.366 627.891 336.468 627.241 336.468C626.523 336.468 625.919 336.364 625.432 336.155C624.947 335.942 624.546 335.68 624.227 335.368L625.14 334.356C625.422 334.602 625.734 334.792 626.075 334.928C626.416 335.06 626.79 335.126 627.197 335.126C627.45 335.126 627.672 335.089 627.863 335.016C628.054 334.943 628.202 334.836 628.309 334.697C628.415 334.558 628.468 334.389 628.468 334.191C628.468 334.004 628.426 333.846 628.342 333.718C628.257 333.589 628.114 333.474 627.913 333.371C627.715 333.268 627.438 333.164 627.082 333.058C626.488 332.874 626.009 332.673 625.646 332.452C625.287 332.232 625.024 331.978 624.859 331.688C624.698 331.398 624.617 331.061 624.617 330.676C624.617 330.21 624.746 329.812 625.002 329.482C625.263 329.152 625.611 328.901 626.048 328.728C626.484 328.552 626.965 328.464 627.489 328.464C628.079 328.464 628.6 328.55 629.051 328.723C629.502 328.891 629.893 329.133 630.223 329.449L629.37 330.428C629.114 330.212 628.837 330.052 628.54 329.949C628.243 329.843 627.94 329.79 627.632 329.79C627.405 329.79 627.205 329.819 627.032 329.878C626.86 329.933 626.726 330.015 626.631 330.126C626.535 330.236 626.488 330.373 626.488 330.538C626.488 330.699 626.534 330.835 626.625 330.945C626.717 331.055 626.877 331.16 627.104 331.259C627.331 331.354 627.647 331.466 628.05 331.594C628.531 331.741 628.941 331.917 629.282 332.122C629.627 332.324 629.889 332.579 630.069 332.887C630.252 333.195 630.344 333.584 630.344 334.053ZM636.38 334.598C636.38 334.818 636.409 334.977 636.468 335.077C636.53 335.176 636.629 335.251 636.765 335.302L636.407 336.446C636.063 336.413 635.771 336.338 635.533 336.221C635.298 336.1 635.113 335.918 634.977 335.676C634.753 335.944 634.467 336.144 634.119 336.276C633.771 336.404 633.415 336.468 633.052 336.468C632.45 336.468 631.97 336.298 631.611 335.957C631.255 335.612 631.077 335.17 631.077 334.631C631.077 333.996 631.324 333.507 631.82 333.162C632.318 332.817 633.019 332.645 633.921 332.645H634.708V332.425C634.708 332.121 634.609 331.895 634.411 331.748C634.216 331.602 633.93 331.528 633.552 331.528C633.365 331.528 633.125 331.556 632.832 331.611C632.538 331.662 632.245 331.737 631.952 331.836L631.55 330.681C631.928 330.538 632.32 330.43 632.727 330.357C633.138 330.283 633.505 330.247 633.827 330.247C634.697 330.247 635.338 330.424 635.753 330.78C636.171 331.132 636.38 331.642 636.38 332.309V334.598ZM633.651 335.225C633.838 335.225 634.035 335.17 634.24 335.06C634.445 334.946 634.601 334.787 634.708 334.581V333.635H634.279C633.794 333.635 633.439 333.71 633.211 333.861C632.984 334.007 632.87 334.224 632.87 334.51C632.87 334.734 632.938 334.91 633.074 335.038C633.213 335.163 633.406 335.225 633.651 335.225ZM638.059 336.281V330.439H639.577L639.698 331.116C639.959 330.822 640.234 330.604 640.524 330.461C640.813 330.318 641.143 330.247 641.514 330.247C642.012 330.247 642.405 330.399 642.691 330.703C642.977 331.008 643.12 331.437 643.12 331.99V336.281H641.382V332.491C641.382 332.253 641.365 332.064 641.332 331.924C641.299 331.781 641.241 331.68 641.156 331.622C641.075 331.559 640.964 331.528 640.821 331.528C640.7 331.528 640.58 331.556 640.463 331.611C640.349 331.662 640.237 331.737 640.127 331.836C640.017 331.935 639.907 332.055 639.797 332.194V336.281H638.059ZM649.915 335.94C649.688 336.087 649.413 336.212 649.09 336.314C648.767 336.417 648.404 336.468 648.001 336.468C647.238 336.468 646.671 336.274 646.301 335.885C645.93 335.493 645.745 334.961 645.745 334.29V331.638H644.519V330.439H645.745V329.174L647.484 328.965V330.439H649.365L649.194 331.638H647.484V334.29C647.484 334.58 647.55 334.787 647.682 334.911C647.814 335.036 648.025 335.099 648.314 335.099C648.52 335.099 648.707 335.075 648.875 335.027C649.048 334.976 649.202 334.911 649.338 334.834L649.915 335.94ZM654.823 330.439V335.093H656.309V336.281H651.429V335.093H653.085V331.627H651.484V330.439H654.823ZM653.773 327.38C654.073 327.38 654.319 327.474 654.51 327.661C654.7 327.848 654.796 328.081 654.796 328.36C654.796 328.638 654.7 328.873 654.51 329.064C654.319 329.251 654.073 329.344 653.773 329.344C653.468 329.344 653.219 329.251 653.024 329.064C652.834 328.873 652.738 328.638 652.738 328.36C652.738 328.081 652.834 327.848 653.024 327.661C653.219 327.474 653.468 327.38 653.773 327.38ZM662.768 334.598C662.768 334.818 662.797 334.977 662.856 335.077C662.918 335.176 663.018 335.251 663.153 335.302L662.796 336.446C662.451 336.413 662.159 336.338 661.921 336.221C661.686 336.1 661.501 335.918 661.365 335.676C661.142 335.944 660.856 336.144 660.507 336.276C660.159 336.404 659.803 336.468 659.44 336.468C658.838 336.468 658.358 336.298 657.999 335.957C657.643 335.612 657.465 335.17 657.465 334.631C657.465 333.996 657.713 333.507 658.208 333.162C658.706 332.817 659.407 332.645 660.309 332.645H661.096V332.425C661.096 332.121 660.997 331.895 660.799 331.748C660.604 331.602 660.318 331.528 659.941 331.528C659.754 331.528 659.513 331.556 659.22 331.611C658.927 331.662 658.633 331.737 658.34 331.836L657.938 330.681C658.316 330.538 658.708 330.43 659.115 330.357C659.526 330.283 659.893 330.247 660.216 330.247C661.085 330.247 661.727 330.424 662.141 330.78C662.559 331.132 662.768 331.642 662.768 332.309V334.598ZM660.04 335.225C660.227 335.225 660.423 335.17 660.628 335.06C660.834 334.946 660.989 334.787 661.096 334.581V333.635H660.667C660.183 333.635 659.827 333.71 659.599 333.861C659.372 334.007 659.258 334.224 659.258 334.51C659.258 334.734 659.326 334.91 659.462 335.038C659.601 335.163 659.794 335.225 660.04 335.225ZM669.635 329.504L670.042 330.78C669.836 330.861 669.596 330.92 669.321 330.956C669.046 330.993 668.725 331.011 668.358 331.011C668.725 331.169 669.004 331.365 669.195 331.6C669.389 331.831 669.486 332.135 669.486 332.513C669.486 332.891 669.385 333.228 669.184 333.525C668.982 333.819 668.696 334.05 668.325 334.218C667.955 334.387 667.517 334.471 667.011 334.471C666.886 334.471 666.769 334.466 666.659 334.455C666.549 334.444 666.44 334.427 666.334 334.405C666.272 334.438 666.224 334.486 666.191 334.548C666.158 334.611 666.141 334.675 666.141 334.741C666.141 334.833 666.178 334.915 666.252 334.988C666.329 335.062 666.506 335.099 666.785 335.099H667.742C668.197 335.099 668.589 335.172 668.92 335.319C669.253 335.465 669.512 335.665 669.695 335.918C669.879 336.171 669.97 336.461 669.97 336.787C669.97 337.385 669.708 337.856 669.184 338.201C668.659 338.546 667.88 338.718 666.846 338.718C666.097 338.718 665.518 338.641 665.107 338.487C664.7 338.337 664.416 338.12 664.255 337.838C664.097 337.559 664.018 337.227 664.018 336.842H665.558C665.558 337.011 665.591 337.149 665.657 337.255C665.727 337.365 665.857 337.446 666.048 337.497C666.242 337.548 666.523 337.574 666.89 337.574C667.26 337.574 667.542 337.545 667.737 337.486C667.931 337.427 668.063 337.347 668.133 337.244C668.206 337.145 668.243 337.033 668.243 336.908C668.243 336.736 668.175 336.597 668.039 336.49C667.904 336.384 667.689 336.331 667.396 336.331H666.466C665.835 336.331 665.377 336.215 665.091 335.984C664.805 335.749 664.662 335.476 664.662 335.165C664.662 334.948 664.719 334.743 664.832 334.548C664.95 334.354 665.113 334.191 665.322 334.059C664.948 333.861 664.68 333.628 664.519 333.36C664.357 333.089 664.277 332.764 664.277 332.386C664.277 331.946 664.388 331.569 664.612 331.253C664.836 330.934 665.144 330.688 665.536 330.516C665.932 330.344 666.384 330.258 666.89 330.258C667.326 330.265 667.706 330.236 668.028 330.17C668.351 330.1 668.641 330.006 668.898 329.889C669.154 329.768 669.4 329.64 669.635 329.504ZM666.934 331.385C666.659 331.385 666.44 331.473 666.279 331.649C666.118 331.822 666.037 332.06 666.037 332.364C666.037 332.687 666.119 332.935 666.285 333.107C666.45 333.279 666.666 333.366 666.934 333.366C667.223 333.366 667.443 333.279 667.594 333.107C667.748 332.935 667.825 332.68 667.825 332.342C667.825 332.016 667.75 331.776 667.599 331.622C667.449 331.464 667.227 331.385 666.934 331.385ZM673.575 330.247C674.176 330.247 674.688 330.375 675.11 330.632C675.531 330.888 675.854 331.25 676.078 331.715C676.301 332.177 676.413 332.72 676.413 333.344C676.413 333.993 676.3 334.552 676.072 335.021C675.849 335.487 675.526 335.845 675.104 336.094C674.682 336.344 674.173 336.468 673.575 336.468C672.981 336.468 672.471 336.345 672.045 336.1C671.624 335.854 671.299 335.498 671.072 335.032C670.848 334.567 670.736 334.007 670.736 333.355C670.736 332.735 670.848 332.192 671.072 331.726C671.299 331.261 671.624 330.897 672.045 330.637C672.471 330.377 672.981 330.247 673.575 330.247ZM673.575 331.528C673.219 331.528 672.955 331.675 672.783 331.968C672.614 332.258 672.53 332.72 672.53 333.355C672.53 334 672.614 334.468 672.783 334.757C672.955 335.047 673.219 335.192 673.575 335.192C673.93 335.192 674.193 335.047 674.361 334.757C674.534 334.468 674.62 333.996 674.62 333.344C674.62 332.713 674.534 332.253 674.361 331.963C674.193 331.673 673.93 331.528 673.575 331.528ZM687.952 331.143C687.952 330.872 687.9 330.648 687.797 330.472C687.698 330.292 687.546 330.16 687.341 330.076C687.139 329.988 686.884 329.944 686.576 329.944H685.96V332.436H686.67C686.937 332.436 687.167 332.39 687.357 332.298C687.548 332.207 687.695 332.066 687.797 331.875C687.9 331.684 687.952 331.44 687.952 331.143ZM689.811 331.138C689.811 331.728 689.684 332.216 689.431 332.601C689.178 332.986 688.824 333.274 688.37 333.465C687.915 333.652 687.387 333.745 686.785 333.745H685.96V336.281H684.156V328.657H686.554C687.588 328.657 688.39 328.862 688.958 329.273C689.527 329.684 689.811 330.305 689.811 331.138ZM693.366 330.247C693.967 330.247 694.479 330.375 694.901 330.632C695.322 330.888 695.645 331.25 695.869 331.715C696.093 332.177 696.204 332.72 696.204 333.344C696.204 333.993 696.091 334.552 695.863 335.021C695.64 335.487 695.317 335.845 694.895 336.094C694.473 336.344 693.964 336.468 693.366 336.468C692.772 336.468 692.262 336.345 691.836 336.1C691.415 335.854 691.09 335.498 690.863 335.032C690.639 334.567 690.527 334.007 690.527 333.355C690.527 332.735 690.639 332.192 690.863 331.726C691.09 331.261 691.415 330.897 691.836 330.637C692.262 330.377 692.772 330.247 693.366 330.247ZM693.366 331.528C693.01 331.528 692.746 331.675 692.574 331.968C692.405 332.258 692.321 332.72 692.321 333.355C692.321 334 692.405 334.468 692.574 334.757C692.746 335.047 693.01 335.192 693.366 335.192C693.722 335.192 693.984 335.047 694.152 334.757C694.325 334.468 694.411 333.996 694.411 333.344C694.411 332.713 694.325 332.253 694.152 331.963C693.984 331.673 693.722 331.528 693.366 331.528ZM697.487 336.281V335.115H698.257V331.594H697.487V330.439H699.583L699.902 331.754C700.111 331.251 700.377 330.877 700.7 330.632C701.026 330.386 701.424 330.263 701.894 330.263C702.092 330.263 702.268 330.28 702.422 330.313C702.576 330.342 702.721 330.384 702.856 330.439L702.328 331.875C702.222 331.846 702.116 331.824 702.009 331.809C701.903 331.794 701.786 331.787 701.657 331.787C701.276 331.787 700.94 331.943 700.65 332.254C700.364 332.566 700.146 332.962 699.996 333.443V335.115H701.151V336.281H697.487ZM701.443 332.882V331.176L701.701 330.439H702.856L702.532 332.882H701.443ZM709.288 335.94C709.061 336.087 708.786 336.212 708.463 336.314C708.141 336.417 707.777 336.468 707.374 336.468C706.611 336.468 706.045 336.274 705.674 335.885C705.304 335.493 705.119 334.961 705.119 334.29V331.638H703.892V330.439H705.119V329.174L706.857 328.965V330.439H708.738L708.568 331.638H706.857V334.29C706.857 334.58 706.923 334.787 707.055 334.911C707.187 335.036 707.398 335.099 707.688 335.099C707.893 335.099 708.08 335.075 708.249 335.027C708.421 334.976 708.575 334.911 708.711 334.834L709.288 335.94ZM714.197 330.439V335.093H715.682V336.281H710.802V335.093H712.458V331.627H710.857V330.439H714.197ZM713.146 327.38C713.447 327.38 713.692 327.474 713.883 327.661C714.074 327.848 714.169 328.081 714.169 328.36C714.169 328.638 714.074 328.873 713.883 329.064C713.692 329.251 713.447 329.344 713.146 329.344C712.842 329.344 712.592 329.251 712.398 329.064C712.207 328.873 712.112 328.638 712.112 328.36C712.112 328.081 712.207 327.848 712.398 327.661C712.592 327.474 712.842 327.38 713.146 327.38ZM720.271 328.118V334.444C720.271 334.679 720.337 334.847 720.469 334.95C720.605 335.049 720.79 335.099 721.025 335.099C721.175 335.099 721.32 335.082 721.459 335.049C721.599 335.012 721.729 334.97 721.85 334.922L722.268 336.083C722.07 336.186 721.832 336.276 721.553 336.353C721.274 336.43 720.95 336.468 720.579 336.468C719.875 336.468 719.358 336.267 719.028 335.863C718.698 335.456 718.533 334.911 718.533 334.229V329.306H716.811V328.118H720.271ZM726.868 328.118V334.444C726.868 334.679 726.934 334.847 727.066 334.95C727.202 335.049 727.387 335.099 727.622 335.099C727.772 335.099 727.917 335.082 728.056 335.049C728.196 335.012 728.326 334.97 728.447 334.922L728.865 336.083C728.667 336.186 728.429 336.276 728.15 336.353C727.871 336.43 727.547 336.468 727.176 336.468C726.472 336.468 725.955 336.267 725.625 335.863C725.295 335.456 725.13 334.911 725.13 334.229V329.306H723.408V328.118H726.868ZM735.336 334.598C735.336 334.818 735.365 334.977 735.424 335.077C735.486 335.176 735.585 335.251 735.721 335.302L735.363 336.446C735.018 336.413 734.727 336.338 734.488 336.221C734.254 336.1 734.068 335.918 733.933 335.676C733.709 335.944 733.423 336.144 733.075 336.276C732.726 336.404 732.37 336.468 732.007 336.468C731.406 336.468 730.925 336.298 730.566 335.957C730.21 335.612 730.032 335.17 730.032 334.631C730.032 333.996 730.28 333.507 730.775 333.162C731.274 332.817 731.974 332.645 732.877 332.645H733.663V332.425C733.663 332.121 733.564 331.895 733.366 331.748C733.172 331.602 732.886 331.528 732.508 331.528C732.321 331.528 732.081 331.556 731.787 331.611C731.494 331.662 731.201 331.737 730.907 331.836L730.506 330.681C730.883 330.538 731.276 330.43 731.683 330.357C732.094 330.283 732.46 330.247 732.783 330.247C733.652 330.247 734.294 330.424 734.708 330.78C735.126 331.132 735.336 331.642 735.336 332.309V334.598ZM732.607 335.225C732.794 335.225 732.99 335.17 733.196 335.06C733.401 334.946 733.557 334.787 733.663 334.581V333.635H733.234C732.75 333.635 732.394 333.71 732.167 333.861C731.939 334.007 731.826 334.224 731.826 334.51C731.826 334.734 731.894 334.91 732.029 335.038C732.169 335.163 732.361 335.225 732.607 335.225ZM737.163 333.514V332.161H741.927V333.514H737.163ZM748.821 328.657L749.25 336.281H747.677L747.583 333.019C747.576 332.715 747.572 332.443 747.572 332.205C747.576 331.967 747.582 331.743 747.589 331.534C747.596 331.321 747.607 331.108 747.622 330.896C747.64 330.679 747.659 330.445 747.677 330.192L746.819 334.983H745.454L744.53 330.192C744.552 330.434 744.571 330.663 744.585 330.879C744.604 331.092 744.616 331.306 744.624 331.523C744.631 331.739 744.637 331.972 744.64 332.221C744.644 332.467 744.642 332.742 744.635 333.047L744.58 336.281H743.034L743.463 328.657H745.317L746.164 333.586L746.967 328.657H748.821ZM755.127 334.598C755.127 334.818 755.156 334.977 755.215 335.077C755.277 335.176 755.376 335.251 755.512 335.302L755.154 336.446C754.809 336.413 754.518 336.338 754.279 336.221C754.045 336.1 753.86 335.918 753.724 335.676C753.5 335.944 753.214 336.144 752.866 336.276C752.517 336.404 752.161 336.468 751.798 336.468C751.197 336.468 750.717 336.298 750.357 335.957C750.001 335.612 749.824 335.17 749.824 334.631C749.824 333.996 750.071 333.507 750.566 333.162C751.065 332.817 751.765 332.645 752.668 332.645H753.454V332.425C753.454 332.121 753.355 331.895 753.157 331.748C752.963 331.602 752.677 331.528 752.299 331.528C752.112 331.528 751.872 331.556 751.578 331.611C751.285 331.662 750.992 331.737 750.698 331.836L750.297 330.681C750.674 330.538 751.067 330.43 751.474 330.357C751.885 330.283 752.251 330.247 752.574 330.247C753.443 330.247 754.085 330.424 754.499 330.78C754.918 331.132 755.127 331.642 755.127 332.309V334.598ZM752.398 335.225C752.585 335.225 752.781 335.17 752.987 335.06C753.192 334.946 753.348 334.787 753.454 334.581V333.635H753.025C752.541 333.635 752.185 333.71 751.958 333.861C751.731 334.007 751.617 334.224 751.617 334.51C751.617 334.734 751.685 334.91 751.82 335.038C751.96 335.163 752.152 335.225 752.398 335.225ZM756.861 336.281V335.115H757.631V331.594H756.861V330.439H758.957L759.276 331.754C759.485 331.251 759.751 330.877 760.073 330.632C760.4 330.386 760.798 330.263 761.267 330.263C761.465 330.263 761.641 330.28 761.795 330.313C761.949 330.342 762.094 330.384 762.23 330.439L761.702 331.875C761.595 331.846 761.489 331.824 761.383 331.809C761.276 331.794 761.159 331.787 761.03 331.787C760.649 331.787 760.314 331.943 760.024 332.254C759.738 332.566 759.52 332.962 759.369 333.443V335.115H760.524V336.281H756.861ZM760.816 332.882V331.176L761.074 330.439H762.23L761.905 332.882H760.816ZM768.662 335.94C768.434 336.087 768.159 336.212 767.837 336.314C767.514 336.417 767.151 336.468 766.747 336.468C765.985 336.468 765.418 336.274 765.048 335.885C764.677 335.493 764.492 334.961 764.492 334.29V331.638H763.265V330.439H764.492V329.174L766.23 328.965V330.439H768.112L767.941 331.638H766.23V334.29C766.23 334.58 766.296 334.787 766.428 334.911C766.56 335.036 766.771 335.099 767.061 335.099C767.266 335.099 767.453 335.075 767.622 335.027C767.794 334.976 767.948 334.911 768.084 334.834L768.662 335.94ZM773.57 330.439V335.093H775.055V336.281H770.176V335.093H771.832V331.627H770.231V330.439H773.57ZM773.355 327.094L774.032 328.404L771.435 329.432L770.957 328.552L773.355 327.094ZM776.597 336.281V330.439H778.115L778.236 331.116C778.496 330.822 778.772 330.604 779.061 330.461C779.351 330.318 779.681 330.247 780.051 330.247C780.55 330.247 780.943 330.399 781.229 330.703C781.515 331.008 781.658 331.437 781.658 331.99V336.281H779.919V332.491C779.919 332.253 779.903 332.064 779.87 331.924C779.837 331.781 779.778 331.68 779.694 331.622C779.613 331.559 779.501 331.528 779.358 331.528C779.237 331.528 779.118 331.556 779.001 331.611C778.887 331.662 778.775 331.737 778.665 331.836C778.555 331.935 778.445 332.055 778.335 332.194V336.281H776.597ZM784.701 333.866C784.741 334.185 784.824 334.444 784.949 334.642C785.077 334.836 785.24 334.979 785.438 335.071C785.636 335.159 785.858 335.203 786.104 335.203C786.372 335.203 786.63 335.159 786.88 335.071C787.129 334.983 787.369 334.866 787.6 334.719L788.299 335.665C788.024 335.9 787.69 336.092 787.298 336.243C786.909 336.393 786.465 336.468 785.966 336.468C785.299 336.468 784.74 336.336 784.288 336.072C783.837 335.804 783.498 335.438 783.271 334.972C783.043 334.506 782.93 333.971 782.93 333.366C782.93 332.79 783.04 332.267 783.26 331.798C783.48 331.325 783.801 330.949 784.222 330.67C784.648 330.388 785.167 330.247 785.779 330.247C786.337 330.247 786.819 330.366 787.226 330.604C787.637 330.842 787.954 331.185 788.178 331.633C788.405 332.08 788.519 332.618 788.519 333.245C788.519 333.344 788.515 333.45 788.508 333.564C788.504 333.677 788.497 333.778 788.486 333.866H784.701ZM785.779 331.413C785.468 331.413 785.216 331.525 785.026 331.748C784.835 331.972 784.719 332.33 784.679 332.821H786.825C786.821 332.396 786.738 332.055 786.577 331.798C786.416 331.541 786.15 331.413 785.779 331.413ZM791.865 334.966H794.791L794.626 336.281H789.813V335.055L792.712 331.748H790.055V330.439H794.736V331.66L791.865 334.966ZM806.077 326.379V339.582H804.954V326.379H806.077ZM818.544 328.536C819.095 328.536 819.564 328.616 819.953 328.778C820.341 328.935 820.662 329.157 820.915 329.443C821.172 329.726 821.372 330.059 821.515 330.445C821.658 330.83 821.759 331.248 821.818 331.699C821.876 332.15 821.906 332.618 821.906 333.102C821.906 334.026 821.862 334.8 821.774 335.423C821.686 336.043 821.521 336.509 821.278 336.82C821.04 337.136 820.695 337.293 820.244 337.293C820.024 337.293 819.832 337.244 819.667 337.145C819.505 337.046 819.371 336.918 819.265 336.76C819.162 336.606 819.084 336.439 819.029 336.259C818.977 336.076 818.948 335.904 818.94 335.742H818.896C818.823 335.918 818.722 336.087 818.594 336.248C818.466 336.41 818.302 336.542 818.104 336.644C817.906 336.747 817.664 336.798 817.378 336.798C816.967 336.798 816.637 336.688 816.388 336.468C816.139 336.252 815.957 335.953 815.843 335.572C815.73 335.19 815.673 334.759 815.673 334.279C815.673 333.344 815.864 332.63 816.245 332.139C816.626 331.644 817.178 331.396 817.901 331.396C818.172 331.396 818.44 331.429 818.704 331.495C818.972 331.558 819.26 331.671 819.568 331.836V335.104C819.568 335.452 819.595 335.722 819.65 335.913C819.705 336.103 819.78 336.235 819.876 336.309C819.975 336.382 820.087 336.419 820.211 336.419C820.358 336.419 820.472 336.344 820.552 336.193C820.637 336.043 820.697 335.826 820.734 335.544C820.771 335.258 820.793 334.913 820.8 334.51C820.807 334.106 820.811 333.652 820.811 333.146C820.811 332.603 820.78 332.106 820.717 331.655C820.659 331.2 820.547 330.808 820.382 330.478C820.22 330.148 819.989 329.893 819.689 329.713C819.388 329.533 818.997 329.443 818.517 329.443C818.147 329.443 817.756 329.513 817.345 329.652C816.938 329.792 816.509 330.059 816.058 330.456L815.464 329.768C815.963 329.335 816.467 329.022 816.977 328.827C817.49 328.633 818.013 328.536 818.544 328.536ZM817.917 332.232C817.496 332.232 817.208 332.397 817.054 332.728C816.9 333.054 816.823 333.571 816.823 334.279C816.823 334.631 816.845 334.932 816.889 335.181C816.933 335.43 817.01 335.621 817.12 335.753C817.23 335.885 817.378 335.951 817.565 335.951C817.789 335.951 817.963 335.9 818.088 335.797C818.213 335.694 818.306 335.573 818.368 335.434C818.431 335.291 818.478 335.166 818.511 335.06V332.375C818.412 332.324 818.317 332.287 818.225 332.265C818.134 332.243 818.031 332.232 817.917 332.232ZM827.804 328.657V333.536C827.804 333.98 827.736 334.382 827.6 334.741C827.465 335.1 827.265 335.407 827.001 335.66C826.74 335.913 826.42 336.107 826.038 336.243C825.66 336.378 825.228 336.446 824.74 336.446C824.248 336.446 823.823 336.384 823.464 336.259C823.108 336.131 822.765 335.955 822.435 335.731L823.123 334.62C823.383 334.8 823.627 334.926 823.854 334.999C824.082 335.069 824.34 335.104 824.63 335.104C825.022 335.104 825.349 334.979 825.609 334.73C825.873 334.477 826.005 334.086 826.005 333.558V329.977H823.662V328.657H827.804ZM831.904 330.247C832.505 330.247 833.017 330.375 833.438 330.632C833.86 330.888 834.183 331.25 834.407 331.715C834.63 332.177 834.742 332.72 834.742 333.344C834.742 333.993 834.628 334.552 834.401 335.021C834.177 335.487 833.855 335.845 833.433 336.094C833.011 336.344 832.501 336.468 831.904 336.468C831.309 336.468 830.8 336.345 830.374 336.1C829.952 335.854 829.628 335.498 829.401 335.032C829.177 334.567 829.065 334.007 829.065 333.355C829.065 332.735 829.177 332.192 829.401 331.726C829.628 331.261 829.952 330.897 830.374 330.637C830.8 330.377 831.309 330.247 831.904 330.247ZM831.904 331.528C831.548 331.528 831.284 331.675 831.111 331.968C830.943 332.258 830.858 332.72 830.858 333.355C830.858 334 830.943 334.468 831.111 334.757C831.284 335.047 831.548 335.192 831.904 335.192C832.259 335.192 832.521 335.047 832.69 334.757C832.863 334.468 832.949 333.996 832.949 333.344C832.949 332.713 832.863 332.253 832.69 331.963C832.521 331.673 832.259 331.528 831.904 331.528ZM837.477 333.866C837.518 334.185 837.6 334.444 837.725 334.642C837.853 334.836 838.016 334.979 838.214 335.071C838.413 335.159 838.634 335.203 838.88 335.203C839.148 335.203 839.406 335.159 839.656 335.071C839.905 334.983 840.145 334.866 840.376 334.719L841.075 335.665C840.8 335.9 840.466 336.092 840.074 336.243C839.685 336.393 839.241 336.468 838.743 336.468C838.075 336.468 837.516 336.336 837.065 336.072C836.614 335.804 836.274 335.438 836.047 334.972C835.82 334.506 835.706 333.971 835.706 333.366C835.706 332.79 835.816 332.267 836.036 331.798C836.256 331.325 836.577 330.949 836.999 330.67C837.424 330.388 837.943 330.247 838.556 330.247C839.113 330.247 839.595 330.366 840.002 330.604C840.413 330.842 840.73 331.185 840.954 331.633C841.181 332.08 841.295 332.618 841.295 333.245C841.295 333.344 841.291 333.45 841.284 333.564C841.28 333.677 841.273 333.778 841.262 333.866H837.477ZM838.556 331.413C838.244 331.413 837.993 331.525 837.802 331.748C837.611 331.972 837.496 332.33 837.455 332.821H839.601C839.597 332.396 839.515 332.055 839.353 331.798C839.192 331.541 838.926 331.413 838.556 331.413ZM846.28 331.143C846.28 330.872 846.229 330.648 846.126 330.472C846.027 330.292 845.875 330.16 845.67 330.076C845.468 329.988 845.213 329.944 844.905 329.944H844.289V332.436H844.999C845.266 332.436 845.496 332.39 845.686 332.298C845.877 332.207 846.024 332.066 846.126 331.875C846.229 331.684 846.28 331.44 846.28 331.143ZM848.14 331.138C848.14 331.728 848.013 332.216 847.76 332.601C847.507 332.986 847.153 333.274 846.698 333.465C846.244 333.652 845.716 333.745 845.114 333.745H844.289V336.281H842.485V328.657H844.883C845.917 328.657 846.719 328.862 847.287 329.273C847.855 329.684 848.14 330.305 848.14 331.138ZM851.695 330.247C852.296 330.247 852.808 330.375 853.229 330.632C853.651 330.888 853.974 331.25 854.198 331.715C854.421 332.177 854.533 332.72 854.533 333.344C854.533 333.993 854.42 334.552 854.192 335.021C853.968 335.487 853.646 335.845 853.224 336.094C852.802 336.344 852.292 336.468 851.695 336.468C851.1 336.468 850.591 336.345 850.165 336.1C849.744 335.854 849.419 335.498 849.192 335.032C848.968 334.567 848.856 334.007 848.856 333.355C848.856 332.735 848.968 332.192 849.192 331.726C849.419 331.261 849.744 330.897 850.165 330.637C850.591 330.377 851.1 330.247 851.695 330.247ZM851.695 331.528C851.339 331.528 851.075 331.675 850.902 331.968C850.734 332.258 850.649 332.72 850.649 333.355C850.649 334 850.734 334.468 850.902 334.757C851.075 335.047 851.339 335.192 851.695 335.192C852.05 335.192 852.313 335.047 852.481 334.757C852.654 334.468 852.74 333.996 852.74 333.344C852.74 332.713 852.654 332.253 852.481 331.963C852.313 331.673 852.05 331.528 851.695 331.528ZM855.816 336.281V335.115H856.586V331.594H855.816V330.439H857.912L858.231 331.754C858.44 331.251 858.706 330.877 859.029 330.632C859.355 330.386 859.753 330.263 860.223 330.263C860.421 330.263 860.597 330.28 860.751 330.313C860.905 330.342 861.05 330.384 861.185 330.439L860.657 331.875C860.551 331.846 860.444 331.824 860.338 331.809C860.232 331.794 860.114 331.787 859.986 331.787C859.605 331.787 859.269 331.943 858.979 332.254C858.693 332.566 858.475 332.962 858.325 333.443V335.115H859.48V336.281H855.816ZM859.771 332.882V331.176L860.03 330.439H861.185L860.861 332.882H859.771ZM867.617 335.94C867.39 336.087 867.115 336.212 866.792 336.314C866.469 336.417 866.106 336.468 865.703 336.468C864.94 336.468 864.373 336.274 864.003 335.885C863.633 335.493 863.447 334.961 863.447 334.29V331.638H862.221V330.439H863.447V329.174L865.186 328.965V330.439H867.067L866.897 331.638H865.186V334.29C865.186 334.58 865.252 334.787 865.384 334.911C865.516 335.036 865.727 335.099 866.016 335.099C866.222 335.099 866.409 335.075 866.578 335.027C866.75 334.976 866.904 334.911 867.04 334.834L867.617 335.94ZM872.525 330.439V335.093H874.011V336.281H869.131V335.093H870.787V331.627H869.186V330.439H872.525ZM871.475 327.38C871.775 327.38 872.021 327.474 872.212 327.661C872.403 327.848 872.498 328.081 872.498 328.36C872.498 328.638 872.403 328.873 872.212 329.064C872.021 329.251 871.775 329.344 871.475 329.344C871.17 329.344 870.921 329.251 870.727 329.064C870.536 328.873 870.441 328.638 870.441 328.36C870.441 328.081 870.536 327.848 870.727 327.661C870.921 327.474 871.17 327.38 871.475 327.38ZM878.6 328.118V334.444C878.6 334.679 878.666 334.847 878.798 334.95C878.934 335.049 879.119 335.099 879.354 335.099C879.504 335.099 879.649 335.082 879.788 335.049C879.927 335.012 880.058 334.97 880.179 334.922L880.597 336.083C880.399 336.186 880.16 336.276 879.882 336.353C879.603 336.43 879.278 336.468 878.908 336.468C878.204 336.468 877.687 336.267 877.357 335.863C877.027 335.456 876.862 334.911 876.862 334.229V329.306H875.14V328.118H878.6ZM885.197 328.118V334.444C885.197 334.679 885.263 334.847 885.395 334.95C885.531 335.049 885.716 335.099 885.951 335.099C886.101 335.099 886.246 335.082 886.385 335.049C886.524 335.012 886.655 334.97 886.776 334.922L887.194 336.083C886.996 336.186 886.757 336.276 886.479 336.353C886.2 336.43 885.875 336.468 885.505 336.468C884.801 336.468 884.284 336.267 883.954 335.863C883.624 335.456 883.459 334.911 883.459 334.229V329.306H881.737V328.118H885.197ZM893.664 334.598C893.664 334.818 893.694 334.977 893.752 335.077C893.815 335.176 893.914 335.251 894.049 335.302L893.692 336.446C893.347 336.413 893.056 336.338 892.817 336.221C892.582 336.1 892.397 335.918 892.262 335.676C892.038 335.944 891.752 336.144 891.403 336.276C891.055 336.404 890.699 336.468 890.336 336.468C889.735 336.468 889.254 336.298 888.895 335.957C888.539 335.612 888.361 335.17 888.361 334.631C888.361 333.996 888.609 333.507 889.104 333.162C889.603 332.817 890.303 332.645 891.205 332.645H891.992V332.425C891.992 332.121 891.893 331.895 891.695 331.748C891.501 331.602 891.214 331.528 890.837 331.528C890.65 331.528 890.409 331.556 890.116 331.611C889.823 331.662 889.529 331.737 889.236 331.836L888.834 330.681C889.212 330.538 889.604 330.43 890.012 330.357C890.422 330.283 890.789 330.247 891.112 330.247C891.981 330.247 892.623 330.424 893.037 330.78C893.455 331.132 893.664 331.642 893.664 332.309V334.598ZM890.936 335.225C891.123 335.225 891.319 335.17 891.524 335.06C891.73 334.946 891.886 334.787 891.992 334.581V333.635H891.563C891.079 333.635 890.723 333.71 890.496 333.861C890.268 334.007 890.155 334.224 890.155 334.51C890.155 334.734 890.222 334.91 890.358 335.038C890.498 335.163 890.69 335.225 890.936 335.225Z" fill="black"/>
<rect x="190" y="94" width="77.1792" height="77.1792" rx="2" fill="#0037AC"/>
<path d="M234.122 150H227.503V131.878C227.503 131.378 227.51 130.764 227.525 130.036C227.539 129.293 227.56 128.536 227.589 127.765C227.617 126.98 227.646 126.273 227.674 125.644C227.517 125.83 227.196 126.151 226.711 126.608C226.239 127.051 225.797 127.451 225.382 127.808L221.784 130.7L218.592 126.715L228.681 118.682H234.122V150Z" fill="white"/>
<rect x="269" y="94" width="77.1792" height="77.1792" rx="2" fill="#0037AC"/>
<path d="M318.649 150H296.757V145.394L304.618 137.447C306.203 135.819 307.474 134.463 308.431 133.377C309.402 132.278 310.102 131.278 310.53 130.378C310.973 129.479 311.194 128.515 311.194 127.487C311.194 126.244 310.844 125.316 310.145 124.702C309.459 124.073 308.538 123.759 307.381 123.759C306.167 123.759 304.989 124.038 303.847 124.595C302.704 125.152 301.512 125.944 300.27 126.972L296.671 122.71C297.571 121.938 298.52 121.21 299.52 120.525C300.534 119.839 301.705 119.289 303.033 118.875C304.375 118.447 305.982 118.233 307.853 118.233C309.909 118.233 311.673 118.604 313.144 119.347C314.629 120.089 315.771 121.103 316.571 122.388C317.371 123.659 317.771 125.102 317.771 126.715C317.771 128.443 317.428 130.021 316.742 131.449C316.057 132.877 315.057 134.291 313.743 135.691C312.444 137.09 310.873 138.64 309.031 140.339L305.004 144.131V144.431H318.649V150Z" fill="white"/>
<rect x="348" y="94" width="77.1792" height="77.1792" rx="2" fill="#0037AC"/>
<path d="M396.428 125.687C396.428 127.129 396.128 128.379 395.528 129.436C394.928 130.493 394.114 131.357 393.086 132.028C392.072 132.699 390.93 133.192 389.659 133.506V133.634C392.172 133.949 394.079 134.72 395.378 135.948C396.692 137.176 397.349 138.818 397.349 140.875C397.349 142.703 396.899 144.338 395.999 145.78C395.114 147.222 393.743 148.358 391.887 149.186C390.03 150.014 387.638 150.428 384.711 150.428C382.983 150.428 381.369 150.286 379.869 150C378.384 149.729 376.985 149.307 375.671 148.736V143.102C377.013 143.788 378.42 144.309 379.891 144.666C381.362 145.009 382.733 145.18 384.004 145.18C386.374 145.18 388.031 144.773 388.973 143.959C389.93 143.131 390.409 141.974 390.409 140.489C390.409 139.618 390.187 138.882 389.744 138.283C389.302 137.683 388.531 137.226 387.431 136.912C386.346 136.598 384.825 136.44 382.868 136.44H380.491V131.364H382.911C384.839 131.364 386.303 131.185 387.302 130.828C388.316 130.457 389.002 129.957 389.359 129.329C389.73 128.686 389.916 127.958 389.916 127.144C389.916 126.03 389.573 125.159 388.888 124.53C388.202 123.902 387.06 123.588 385.46 123.588C384.461 123.588 383.547 123.716 382.718 123.973C381.904 124.216 381.169 124.516 380.512 124.873C379.855 125.216 379.277 125.551 378.777 125.88L375.714 121.317C376.942 120.432 378.377 119.696 380.019 119.111C381.676 118.525 383.647 118.233 385.932 118.233C389.159 118.233 391.715 118.882 393.6 120.182C395.485 121.481 396.428 123.317 396.428 125.687Z" fill="white"/>
<rect x="190" y="173" width="77.1792" height="77.1792" rx="2" fill="#0037AC"/>
<path d="M240.356 222.509H236.586V229H230.116V222.509H216.75V217.904L230.481 197.682H236.586V217.368H240.356V222.509ZM230.116 217.368V212.056C230.116 211.556 230.124 210.964 230.138 210.278C230.166 209.593 230.195 208.907 230.224 208.222C230.252 207.536 230.281 206.929 230.309 206.401C230.352 205.858 230.381 205.48 230.395 205.266H230.224C229.952 205.851 229.667 206.422 229.367 206.979C229.067 207.522 228.717 208.093 228.317 208.693L222.576 217.368H230.116Z" fill="white"/>
<rect x="269" y="173" width="77.1792" height="77.1792" rx="2" fill="#0037AC"/>
<path d="M308.153 208.993C310.066 208.993 311.766 209.357 313.251 210.085C314.75 210.814 315.928 211.885 316.785 213.298C317.642 214.712 318.07 216.454 318.07 218.525C318.07 220.781 317.599 222.731 316.657 224.373C315.728 226.001 314.336 227.251 312.48 228.122C310.637 228.993 308.338 229.428 305.582 229.428C303.94 229.428 302.39 229.286 300.934 229C299.491 228.729 298.227 228.307 297.142 227.736V222.017C298.227 222.588 299.527 223.074 301.041 223.473C302.569 223.859 304.004 224.052 305.346 224.052C306.66 224.052 307.767 223.88 308.667 223.538C309.566 223.181 310.245 222.638 310.702 221.91C311.173 221.167 311.409 220.225 311.409 219.082C311.409 217.554 310.894 216.383 309.866 215.569C308.838 214.755 307.26 214.348 305.132 214.348C304.318 214.348 303.468 214.427 302.583 214.584C301.712 214.741 300.984 214.898 300.398 215.055L297.763 213.641L298.941 197.682H315.928V203.295H304.747L304.168 209.443C304.654 209.343 305.182 209.243 305.753 209.143C306.325 209.043 307.124 208.993 308.153 208.993Z" fill="white"/>
<rect x="348" y="173" width="77.1792" height="77.1792" rx="2" fill="#0037AC"/>
<path d="M375.542 215.698C375.542 213.898 375.671 212.12 375.928 210.364C376.199 208.593 376.663 206.929 377.32 205.373C377.977 203.802 378.898 202.417 380.084 201.217C381.269 200.003 382.775 199.053 384.603 198.368C386.431 197.668 388.645 197.318 391.244 197.318C391.858 197.318 392.572 197.347 393.386 197.404C394.214 197.447 394.9 197.525 395.442 197.64V202.931C394.871 202.802 394.257 202.702 393.6 202.631C392.958 202.545 392.315 202.502 391.672 202.502C389.073 202.502 387.06 202.916 385.632 203.745C384.218 204.573 383.218 205.722 382.633 207.193C382.061 208.65 381.726 210.349 381.626 212.292H381.904C382.304 211.592 382.804 210.971 383.404 210.428C384.018 209.885 384.76 209.457 385.632 209.143C386.503 208.814 387.524 208.65 388.695 208.65C390.523 208.65 392.108 209.043 393.45 209.828C394.793 210.599 395.828 211.72 396.556 213.191C397.285 214.662 397.649 216.454 397.649 218.568C397.649 220.824 397.213 222.766 396.342 224.394C395.471 226.022 394.236 227.272 392.636 228.143C391.051 229 389.166 229.428 386.981 229.428C385.382 229.428 383.889 229.157 382.504 228.614C381.119 228.057 379.905 227.215 378.863 226.087C377.82 224.959 377.006 223.538 376.421 221.824C375.835 220.096 375.542 218.054 375.542 215.698ZM386.853 224.137C388.152 224.137 389.209 223.695 390.023 222.809C390.837 221.924 391.244 220.539 391.244 218.654C391.244 217.126 390.887 215.926 390.173 215.055C389.473 214.17 388.409 213.727 386.981 213.727C386.01 213.727 385.153 213.948 384.411 214.391C383.682 214.819 383.118 215.369 382.718 216.04C382.318 216.697 382.119 217.376 382.119 218.075C382.119 218.804 382.219 219.525 382.418 220.239C382.618 220.953 382.918 221.603 383.318 222.188C383.718 222.774 384.211 223.245 384.796 223.602C385.396 223.959 386.081 224.137 386.853 224.137Z" fill="white"/>
<rect x="543" y="94" width="77.1792" height="77.1792" rx="2" fill="#08003C"/>
<path d="M573.863 150L585.623 124.252H570.178V118.682H592.649V122.838L580.803 150H573.863Z" fill="white"/>
<rect x="622" y="94" width="77.1792" height="77.1792" rx="2" fill="#08003C"/>
<path d="M660.553 118.275C662.352 118.275 664.009 118.554 665.522 119.111C667.05 119.668 668.271 120.51 669.185 121.639C670.099 122.752 670.556 124.152 670.556 125.837C670.556 127.094 670.306 128.193 669.807 129.136C669.321 130.078 668.657 130.907 667.814 131.621C666.972 132.321 666.015 132.935 664.944 133.463C666.058 134.048 667.115 134.734 668.114 135.519C669.114 136.291 669.928 137.197 670.556 138.24C671.199 139.282 671.52 140.496 671.52 141.881C671.52 143.624 671.056 145.137 670.128 146.423C669.2 147.694 667.914 148.679 666.272 149.379C664.63 150.079 662.723 150.428 660.553 150.428C658.211 150.428 656.219 150.093 654.576 149.422C652.934 148.75 651.684 147.794 650.828 146.551C649.971 145.295 649.542 143.795 649.542 142.053C649.542 140.625 649.807 139.382 650.335 138.326C650.878 137.269 651.606 136.362 652.52 135.605C653.434 134.834 654.441 134.177 655.54 133.634C654.612 133.049 653.762 132.385 652.991 131.642C652.234 130.9 651.627 130.05 651.17 129.093C650.728 128.136 650.506 127.037 650.506 125.794C650.506 124.138 650.97 122.752 651.899 121.639C652.841 120.525 654.076 119.689 655.604 119.132C657.132 118.561 658.782 118.275 660.553 118.275ZM655.669 141.667C655.669 142.795 656.069 143.731 656.868 144.473C657.682 145.202 658.882 145.566 660.467 145.566C662.109 145.566 663.337 145.216 664.151 144.516C664.965 143.802 665.372 142.867 665.372 141.71C665.372 140.91 665.137 140.211 664.666 139.611C664.209 139.011 663.63 138.475 662.93 138.004C662.231 137.519 661.524 137.069 660.81 136.655L660.231 136.355C659.317 136.769 658.518 137.233 657.832 137.747C657.161 138.261 656.633 138.84 656.247 139.482C655.862 140.125 655.669 140.853 655.669 141.667ZM660.51 123.117C659.425 123.117 658.525 123.395 657.811 123.952C657.097 124.509 656.74 125.294 656.74 126.308C656.74 127.022 656.911 127.651 657.254 128.193C657.611 128.722 658.075 129.186 658.646 129.586C659.232 129.986 659.867 130.357 660.553 130.7C661.21 130.385 661.824 130.036 662.395 129.65C662.966 129.264 663.43 128.8 663.787 128.258C664.144 127.715 664.323 127.065 664.323 126.308C664.323 125.294 663.959 124.509 663.23 123.952C662.516 123.395 661.609 123.117 660.51 123.117Z" fill="white"/>
<rect x="701" y="94" width="77.1792" height="77.1792" rx="2" fill="#08003C"/>
<path d="M750.52 132.049C750.52 133.849 750.385 135.634 750.113 137.404C749.856 139.175 749.399 140.846 748.742 142.417C748.085 143.974 747.164 145.359 745.979 146.573C744.794 147.772 743.287 148.715 741.459 149.4C739.631 150.086 737.418 150.428 734.819 150.428C734.205 150.428 733.483 150.4 732.655 150.343C731.827 150.3 731.141 150.228 730.599 150.129V144.816C731.17 144.959 731.777 145.073 732.42 145.159C733.062 145.23 733.712 145.266 734.369 145.266C736.982 145.266 738.996 144.852 740.41 144.024C741.838 143.195 742.837 142.046 743.409 140.575C743.994 139.104 744.33 137.404 744.415 135.477H744.158C743.744 136.162 743.251 136.783 742.68 137.34C742.123 137.883 741.409 138.318 740.538 138.647C739.667 138.961 738.56 139.118 737.218 139.118C735.433 139.118 733.876 138.733 732.548 137.961C731.234 137.176 730.213 136.048 729.485 134.577C728.771 133.092 728.414 131.299 728.414 129.2C728.414 126.93 728.842 124.987 729.699 123.374C730.57 121.746 731.805 120.496 733.405 119.625C735.004 118.754 736.889 118.318 739.06 118.318C740.659 118.318 742.152 118.597 743.537 119.154C744.922 119.696 746.136 120.532 747.179 121.66C748.235 122.788 749.057 124.216 749.642 125.944C750.228 127.672 750.52 129.707 750.52 132.049ZM739.189 123.631C737.903 123.631 736.854 124.073 736.04 124.959C735.226 125.844 734.819 127.229 734.819 129.115C734.819 130.628 735.169 131.828 735.868 132.713C736.568 133.599 737.632 134.041 739.06 134.041C740.045 134.041 740.902 133.827 741.631 133.399C742.359 132.956 742.923 132.406 743.323 131.749C743.737 131.078 743.944 130.393 743.944 129.693C743.944 128.965 743.844 128.243 743.644 127.529C743.444 126.815 743.144 126.166 742.744 125.58C742.345 124.995 741.845 124.523 741.245 124.166C740.659 123.809 739.974 123.631 739.189 123.631Z" fill="white"/>
<rect x="543" y="173" width="77.1792" height="77.1792" rx="2" fill="#08003C"/>
<path d="M574.122 229H567.503V210.878C567.503 210.378 567.51 209.764 567.525 209.036C567.539 208.293 567.56 207.536 567.589 206.765C567.617 205.98 567.646 205.273 567.674 204.644C567.517 204.83 567.196 205.151 566.711 205.608C566.239 206.051 565.797 206.451 565.382 206.808L561.784 209.7L558.592 205.715L568.681 197.682H574.122V229ZM604.583 213.341C604.583 215.869 604.383 218.125 603.983 220.11C603.598 222.095 602.969 223.78 602.098 225.166C601.241 226.551 600.113 227.608 598.714 228.336C597.314 229.064 595.615 229.428 593.615 229.428C591.102 229.428 589.038 228.793 587.425 227.522C585.811 226.237 584.618 224.394 583.847 221.995C583.076 219.582 582.691 216.697 582.691 213.341C582.691 209.957 583.04 207.065 583.74 204.666C584.454 202.252 585.611 200.403 587.21 199.118C588.81 197.832 590.945 197.19 593.615 197.19C596.114 197.19 598.171 197.832 599.785 199.118C601.413 200.389 602.619 202.231 603.405 204.644C604.19 207.043 604.583 209.942 604.583 213.341ZM589.267 213.341C589.267 215.726 589.395 217.718 589.652 219.318C589.924 220.903 590.374 222.095 591.002 222.895C591.63 223.695 592.501 224.095 593.615 224.095C594.715 224.095 595.579 223.702 596.207 222.916C596.85 222.117 597.307 220.924 597.578 219.339C597.85 217.74 597.985 215.74 597.985 213.341C597.985 210.956 597.85 208.964 597.578 207.365C597.307 205.765 596.85 204.566 596.207 203.766C595.579 202.952 594.715 202.545 593.615 202.545C592.501 202.545 591.63 202.952 591.002 203.766C590.374 204.566 589.924 205.765 589.652 207.365C589.395 208.964 589.267 210.956 589.267 213.341Z" fill="white"/>
<rect x="622" y="173" width="77.1792" height="77.1792" rx="2" fill="#08003C"/>
<path d="M653.122 229H646.503V210.878C646.503 210.378 646.51 209.764 646.525 209.036C646.539 208.293 646.56 207.536 646.589 206.765C646.617 205.98 646.646 205.273 646.674 204.644C646.517 204.83 646.196 205.151 645.711 205.608C645.239 206.051 644.797 206.451 644.382 206.808L640.784 209.7L637.592 205.715L647.681 197.682H653.122V229ZM678.228 229H671.609V210.878C671.609 210.378 671.616 209.764 671.63 209.036C671.644 208.293 671.666 207.536 671.694 206.765C671.723 205.98 671.751 205.273 671.78 204.644C671.623 204.83 671.301 205.151 670.816 205.608C670.345 206.051 669.902 206.451 669.488 206.808L665.889 209.7L662.697 205.715L672.787 197.682H678.228V229Z" fill="white"/>
<rect x="701" y="173" width="77.1792" height="77.1792" rx="2" fill="#08003C"/>
<path d="M732.122 229H725.503V210.878C725.503 210.378 725.51 209.764 725.525 209.036C725.539 208.293 725.56 207.536 725.589 206.765C725.617 205.98 725.646 205.273 725.674 204.644C725.517 204.83 725.196 205.151 724.711 205.608C724.239 206.051 723.797 206.451 723.382 206.808L719.784 209.7L716.592 205.715L726.681 197.682H732.122V229ZM762.754 229H740.862V224.394L748.723 216.447C750.309 214.819 751.58 213.463 752.536 212.377C753.508 211.278 754.207 210.278 754.636 209.378C755.078 208.479 755.3 207.515 755.3 206.487C755.3 205.244 754.95 204.316 754.25 203.702C753.565 203.073 752.644 202.759 751.487 202.759C750.273 202.759 749.095 203.038 747.952 203.595C746.81 204.152 745.617 204.944 744.375 205.972L740.776 201.71C741.676 200.938 742.626 200.21 743.625 199.525C744.639 198.839 745.81 198.289 747.138 197.875C748.481 197.447 750.087 197.233 751.958 197.233C754.014 197.233 755.778 197.604 757.249 198.347C758.734 199.089 759.877 200.103 760.676 201.388C761.476 202.659 761.876 204.102 761.876 205.715C761.876 207.443 761.533 209.021 760.848 210.449C760.162 211.877 759.163 213.291 757.849 214.691C756.549 216.09 754.978 217.64 753.136 219.339L749.109 223.131V223.431H762.754V229Z" fill="white"/>
<path d="M102.548 175.441H93.6424L92.0412 182H84.5174L93.8179 151.598H102.548L111.849 182H104.149L102.548 175.441ZM94.7831 170.221H101.364L98.0733 156.775L94.7831 170.221ZM160.73 161.03V166.448H140.813V161.03H160.73ZM160.73 170.265V175.639H140.813V170.265H160.73Z" fill="#0037AC"/>
<path d="M468.636 172.809C468.636 171.742 468.424 170.901 468 170.287C467.59 169.658 467.005 169.212 466.245 168.949C465.499 168.685 464.622 168.554 463.613 168.554H460.651V176.758H463.306C464.008 176.758 464.673 176.706 465.302 176.604C465.945 176.502 466.515 176.311 467.013 176.034C467.524 175.756 467.919 175.361 468.197 174.849C468.49 174.323 468.636 173.643 468.636 172.809ZM467.495 160.087C467.495 158.888 467.115 158.025 466.355 157.498C465.609 156.957 464.446 156.687 462.867 156.687H460.651V163.728H463.086C464.636 163.728 465.755 163.443 466.442 162.873C467.144 162.302 467.495 161.374 467.495 160.087ZM476.05 173.094C476.05 174.849 475.714 176.304 475.041 177.459C474.368 178.615 473.447 179.521 472.277 180.179C471.107 180.837 469.769 181.305 468.263 181.583C466.771 181.861 465.199 182 463.547 182H453.457V151.598H463.086C464.651 151.598 466.128 151.73 467.517 151.993C468.921 152.241 470.164 152.665 471.246 153.265C472.328 153.85 473.176 154.647 473.791 155.656C474.419 156.65 474.734 157.886 474.734 159.363C474.734 160.577 474.478 161.63 473.966 162.522C473.454 163.399 472.774 164.123 471.926 164.693C471.078 165.249 470.157 165.651 469.162 165.9C470.244 166.075 471.312 166.419 472.365 166.931C473.432 167.428 474.31 168.174 474.997 169.168C475.699 170.162 476.05 171.471 476.05 173.094ZM526.73 161.03V166.448H506.813V161.03H526.73ZM526.73 170.265V175.639H506.813V170.265H526.73Z" fill="#08003C"/>
<path d="M938 170L918 158.453V181.547L938 170ZM810 170V172H920V170V168H810V170Z" fill="#C90000"/>
<path d="M830.494 150.007C830.494 150.529 830.563 150.907 830.703 151.142C830.85 151.377 831.085 151.555 831.407 151.677L830.559 154.392C829.741 154.313 829.05 154.135 828.484 153.856C827.927 153.569 827.488 153.139 827.166 152.564C826.635 153.2 825.957 153.674 825.13 153.987C824.304 154.291 823.46 154.444 822.598 154.444C821.172 154.444 820.032 154.039 819.179 153.23C818.335 152.412 817.914 151.364 817.914 150.085C817.914 148.58 818.501 147.418 819.675 146.601C820.858 145.783 822.52 145.374 824.66 145.374H826.527V144.852C826.527 144.13 826.292 143.595 825.822 143.247C825.361 142.899 824.682 142.725 823.786 142.725C823.342 142.725 822.772 142.79 822.076 142.921C821.38 143.042 820.684 143.221 819.988 143.456L819.036 140.715C819.932 140.376 820.863 140.119 821.829 139.945C822.803 139.771 823.673 139.684 824.439 139.684C826.5 139.684 828.023 140.106 829.006 140.95C829.998 141.785 830.494 142.994 830.494 144.578V150.007ZM824.021 151.494C824.465 151.494 824.93 151.364 825.417 151.103C825.904 150.833 826.274 150.455 826.527 149.968V147.723H825.509C824.36 147.723 823.516 147.901 822.977 148.258C822.438 148.606 822.168 149.119 822.168 149.798C822.168 150.329 822.329 150.746 822.651 151.051C822.981 151.346 823.438 151.494 824.021 151.494ZM837.687 154H833.224L837.974 146.718L833.668 140.141H838.287L840.506 144.578L842.646 140.141H847.031L842.959 146.561L847.736 154H843.064L840.323 148.819L837.687 154ZM858.596 140.141V151.181H862.12V154H850.544V151.181H854.472V142.96H850.675V140.141H858.596ZM856.104 132.885C856.817 132.885 857.4 133.107 857.852 133.551C858.305 133.994 858.531 134.547 858.531 135.208C858.531 135.869 858.305 136.426 857.852 136.878C857.4 137.322 856.817 137.544 856.104 137.544C855.381 137.544 854.79 137.322 854.329 136.878C853.876 136.426 853.65 135.869 853.65 135.208C853.65 134.547 853.876 133.994 854.329 133.551C854.79 133.107 855.381 132.885 856.104 132.885ZM871.336 151.494C872.023 151.494 872.576 151.386 872.993 151.168C873.419 150.951 873.633 150.624 873.633 150.189C873.633 149.894 873.55 149.646 873.385 149.446C873.219 149.245 872.902 149.054 872.432 148.871C871.962 148.689 871.266 148.471 870.344 148.219C869.5 147.993 868.752 147.706 868.099 147.358C867.456 147.01 866.951 146.561 866.586 146.013C866.229 145.465 866.051 144.782 866.051 143.965C866.051 143.138 866.281 142.403 866.742 141.759C867.203 141.115 867.882 140.611 868.778 140.245C869.674 139.871 870.77 139.684 872.067 139.684C873.302 139.684 874.376 139.845 875.29 140.167C876.212 140.48 877.008 140.88 877.678 141.368L876.034 143.795C875.46 143.438 874.842 143.155 874.181 142.947C873.519 142.729 872.854 142.62 872.184 142.62C871.514 142.62 871.014 142.712 870.683 142.894C870.361 143.068 870.2 143.334 870.2 143.69C870.2 143.925 870.283 144.13 870.448 144.304C870.622 144.469 870.944 144.643 871.414 144.826C871.884 145 872.571 145.217 873.476 145.478C874.372 145.731 875.151 146.022 875.812 146.353C876.482 146.683 876.999 147.127 877.365 147.684C877.73 148.232 877.913 148.958 877.913 149.863C877.913 150.872 877.613 151.721 877.013 152.408C876.412 153.086 875.616 153.595 874.624 153.935C873.633 154.274 872.545 154.444 871.362 154.444C870.022 154.444 868.839 154.252 867.812 153.869C866.786 153.487 865.911 152.982 865.189 152.356L867.264 150.033C867.804 150.45 868.413 150.798 869.091 151.077C869.778 151.355 870.527 151.494 871.336 151.494ZM893.354 141.524V144.748H881.505V141.524H893.354ZM893.354 147.018V150.215H881.505V147.018H893.354ZM903.079 135.456C905.237 135.456 906.864 136.291 907.96 137.962C909.065 139.623 909.617 141.942 909.617 144.917C909.617 147.901 909.065 150.237 907.96 151.925C906.864 153.604 905.237 154.444 903.079 154.444C900.904 154.444 899.268 153.604 898.172 151.925C897.085 150.237 896.541 147.901 896.541 144.917C896.541 141.942 897.085 139.623 898.172 137.962C899.268 136.291 900.904 135.456 903.079 135.456ZM903.079 138.444C902.157 138.444 901.483 138.94 901.056 139.932C900.63 140.915 900.417 142.577 900.417 144.917C900.417 146.274 900.456 147.384 900.534 148.245C900.621 149.098 900.765 149.759 900.965 150.229C901.165 150.698 901.435 151.025 901.774 151.207C902.122 151.381 902.557 151.468 903.079 151.468C903.697 151.468 904.197 151.259 904.58 150.842C904.971 150.424 905.258 149.737 905.441 148.78C905.624 147.814 905.715 146.527 905.715 144.917C905.715 143.142 905.637 141.79 905.48 140.859C905.324 139.928 905.054 139.293 904.671 138.953C904.297 138.614 903.766 138.444 903.079 138.444ZM905.128 139.019L906.185 141.276L901.356 151.246L900.169 149.393L905.128 139.019Z" fill="#C90000"/>
<rect width="55.75" height="55.75" rx="3.71666" transform="matrix(0.866025 0.5 0 1 1083.35 160.358)" fill="#0037AC"/>
<rect width="55.75" height="55.75" rx="3.71666" transform="matrix(0.866025 0.5 0 1 1033.17 132.483)" fill="#0037AC"/>
<rect width="55.75" height="55.75" rx="3.71666" transform="matrix(0.866025 0.5 0 1 983 104.608)" fill="#0037AC"/>
<rect width="55.75" height="55.75" rx="3.71666" transform="matrix(0.866025 0.5 0 1 983 162.217)" fill="#0037AC"/>
<rect width="55.75" height="55.75" rx="3.71666" transform="matrix(0.866025 0.5 0 1 1033.17 190.092)" fill="#0037AC"/>
<rect width="55.75" height="55.75" rx="3.71666" transform="matrix(0.866025 0.5 0 1 1083.35 217.967)" fill="#0037AC"/>
<rect width="55.75" height="55.75" rx="3.71666" transform="matrix(0.866025 -0.5 0 1 1133.52 190.092)" fill="#0037AC"/>
<rect width="55.75" height="55.75" rx="3.71666" transform="matrix(0.866025 -0.5 0 1 1133.52 247.7)" fill="#0037AC"/>
<rect width="55.75" height="55.75" rx="3.71666" transform="matrix(0.866025 0.5 -0.866025 0.5 1133.52 132.483)" fill="#0037AC"/>
<rect width="55.75" height="55.75" rx="3.71666" transform="matrix(0.866025 0.5 -0.866025 0.5 1083.35 104.608)" fill="#0037AC"/>
<rect width="55.75" height="55.75" rx="3.71666" transform="matrix(0.866025 0.5 -0.866025 0.5 1033.17 76.7334)" fill="#0037AC"/>
<path d="M1009.4 137.098V158.36L1005.19 155.927V139.578L1001.29 140.139L999.454 135.653L1005.57 134.887L1009.4 137.098ZM1012.94 157.262V161.037L1000.62 153.921V150.146L1012.94 157.262Z" fill="white"/>
<path d="M1004.35 191.239L1008.03 194.927L1003.54 204.879L1013.01 210.344V214.088L999.084 206.048V202.731L1004.35 191.239ZM1011.11 203.971V217.587L1006.96 215.194L1006.91 207.327L1007.46 201.862L1011.11 203.971Z" fill="white"/>
<path d="M1055.59 162.122C1057.03 162.954 1058.24 163.939 1059.2 165.076C1060.18 166.219 1060.91 167.409 1061.39 168.646C1061.89 169.878 1062.13 171.052 1062.13 172.168C1062.13 173.053 1062 173.845 1061.73 174.546C1061.48 175.241 1061.06 175.891 1060.46 176.496C1059.87 177.091 1059.08 177.679 1058.1 178.258C1057.12 178.842 1055.91 179.461 1054.47 180.114L1062.57 184.789L1062.1 188.328L1049.51 181.054V177.515C1050.75 176.847 1051.84 176.241 1052.76 175.699C1053.68 175.156 1054.46 174.651 1055.09 174.182C1055.72 173.719 1056.24 173.271 1056.62 172.84C1057.01 172.413 1057.29 171.976 1057.47 171.529C1057.64 171.071 1057.73 170.584 1057.73 170.068C1057.73 169.183 1057.5 168.354 1057.06 167.58C1056.62 166.811 1055.99 166.192 1055.18 165.724C1054.46 165.308 1053.84 165.121 1053.31 165.163C1052.78 165.205 1052.27 165.474 1051.78 165.969L1049.12 162.13C1049.83 161.404 1050.71 161.003 1051.75 160.93C1052.79 160.845 1054.07 161.243 1055.59 162.122Z" fill="white"/>
<path d="M1062.13 224.058L1061.65 227.352L1054.72 223.347V228.07C1055.18 228.086 1055.66 228.184 1056.15 228.363C1056.65 228.542 1057.1 228.752 1057.52 228.994C1058.5 229.558 1059.39 230.356 1060.19 231.388C1061 232.425 1061.64 233.612 1062.12 234.949C1062.6 236.292 1062.84 237.701 1062.84 239.175C1062.84 240.649 1062.53 241.789 1061.9 242.595C1061.28 243.405 1060.41 243.827 1059.3 243.858C1058.19 243.879 1056.89 243.461 1055.4 242.603C1054.02 241.807 1052.81 240.81 1051.75 239.609C1050.69 238.398 1049.81 237.095 1049.11 235.7L1051.6 234.515C1052.05 235.452 1052.58 236.271 1053.17 236.971C1053.77 237.666 1054.4 238.203 1055.06 238.583C1056.06 239.162 1056.86 239.272 1057.47 238.914C1058.08 238.561 1058.38 237.816 1058.38 236.679C1058.38 235.773 1058.27 234.984 1058.05 234.31C1057.85 233.641 1057.55 233.075 1057.17 232.612C1056.78 232.138 1056.34 231.753 1055.83 231.459C1055.48 231.259 1055.11 231.098 1054.72 230.977C1054.32 230.856 1053.92 230.811 1053.5 230.843L1050.59 229.16V217.392L1062.13 224.058Z" fill="white"/>
<path d="M1105.66 189.934C1107.03 190.723 1108.19 191.653 1109.15 192.722C1110.11 193.785 1110.85 194.888 1111.35 196.031C1111.86 197.168 1112.12 198.247 1112.12 199.269C1112.12 200.196 1111.96 200.914 1111.64 201.425C1111.32 201.925 1110.87 202.239 1110.28 202.365C1109.71 202.497 1109.03 202.468 1108.24 202.278C1109.12 202.92 1109.89 203.639 1110.56 204.434C1111.23 205.224 1111.76 206.103 1112.14 207.072C1112.53 208.041 1112.72 209.115 1112.72 210.294C1112.72 211.526 1112.42 212.477 1111.83 213.146C1111.24 213.82 1110.41 214.146 1109.31 214.125C1108.22 214.093 1106.91 213.638 1105.38 212.759C1103.97 211.942 1102.7 210.926 1101.58 209.71C1100.46 208.483 1099.5 207.119 1098.71 205.619L1101.14 204.403C1101.69 205.445 1102.3 206.327 1102.96 207.048C1103.64 207.764 1104.35 208.338 1105.1 208.77C1106.04 209.312 1106.8 209.481 1107.4 209.276C1107.99 209.06 1108.28 208.431 1108.28 207.388C1108.28 206.609 1108.16 205.908 1107.9 205.287C1107.66 204.661 1107.29 204.097 1106.81 203.597C1106.33 203.102 1105.75 202.657 1105.07 202.262L1103.35 201.267L1103.84 198.108L1105.07 198.819C1105.63 199.14 1106.12 199.319 1106.55 199.356C1106.98 199.393 1107.31 199.272 1107.56 198.993C1107.81 198.703 1107.93 198.242 1107.93 197.61C1107.93 196.789 1107.67 195.994 1107.16 195.225C1106.65 194.456 1105.99 193.838 1105.18 193.369C1104.42 192.932 1103.73 192.703 1103.11 192.682C1102.5 192.666 1101.93 192.798 1101.39 193.077L1099.17 189.144C1100.04 188.675 1101.01 188.504 1102.09 188.63C1103.16 188.746 1104.35 189.181 1105.66 189.934Z" fill="white"/>
<path d="M1107.81 248.782C1108.65 249.266 1109.41 249.832 1110.09 250.48C1110.78 251.133 1111.39 251.828 1111.92 252.565L1110.28 254.65C1109.92 254.134 1109.53 253.687 1109.11 253.307C1108.7 252.923 1108.29 252.615 1107.89 252.383C1107.16 251.962 1106.51 251.854 1105.93 252.06C1105.37 252.27 1104.92 252.794 1104.58 253.631C1104.25 254.474 1104.08 255.637 1104.06 257.122L1104.09 258.67C1104.08 261.14 1104.25 263.09 1104.62 264.523C1104.98 265.955 1105.68 266.966 1106.7 267.555C1107.51 268.024 1108.1 267.966 1108.48 267.382C1108.86 266.802 1109.05 265.944 1109.05 264.807C1109.05 263.806 1108.96 262.961 1108.79 262.272C1108.63 261.577 1108.39 261.008 1108.08 260.566C1107.77 260.113 1107.39 259.757 1106.94 259.499C1106.37 259.168 1105.8 259.026 1105.25 259.073C1104.69 259.12 1104.2 259.36 1103.78 259.792L1103.76 256.617C1104.35 256.138 1105.03 255.924 1105.8 255.977C1106.56 256.03 1107.32 256.272 1108.07 256.704C1109.05 257.272 1109.94 258.073 1110.75 259.105C1111.55 260.126 1112.19 261.316 1112.66 262.674C1113.14 264.022 1113.37 265.47 1113.37 267.018C1113.37 268.482 1113.1 269.661 1112.55 270.557C1112.01 271.441 1111.23 271.949 1110.21 272.081C1109.21 272.218 1108.02 271.889 1106.64 271.094C1105.38 270.367 1104.31 269.472 1103.42 268.408C1102.52 267.334 1101.79 266.155 1101.23 264.87C1100.66 263.575 1100.25 262.224 1099.98 260.818C1099.72 259.402 1099.58 257.988 1099.58 256.577C1099.58 254.113 1099.91 252.128 1100.57 250.622C1101.24 249.122 1102.18 248.192 1103.4 247.834C1104.63 247.481 1106.1 247.797 1107.81 248.782Z" fill="white"/>
<path d="M1155.83 194.349C1157.2 193.56 1158.36 193.146 1159.32 193.109C1160.29 193.057 1161.02 193.312 1161.52 193.876C1162.03 194.423 1162.29 195.208 1162.29 196.229C1162.29 197.156 1162.13 198.059 1161.81 198.938C1161.49 199.807 1161.04 200.641 1160.46 201.442C1159.88 202.237 1159.2 202.992 1158.42 203.708C1159.29 203.34 1160.06 203.169 1160.73 203.195C1161.41 203.206 1161.93 203.474 1162.32 204.001C1162.7 204.527 1162.89 205.38 1162.89 206.56C1162.89 207.792 1162.6 209.084 1162 210.438C1161.42 211.785 1160.58 213.081 1159.49 214.323C1158.39 215.555 1157.08 216.611 1155.56 217.49C1154.15 218.306 1152.88 218.754 1151.76 218.833C1150.64 218.901 1149.68 218.643 1148.88 218.059L1151.32 214.031C1151.87 214.442 1152.47 214.623 1153.14 214.576C1153.81 214.513 1154.52 214.265 1155.27 213.834C1156.21 213.291 1156.98 212.575 1157.57 211.685C1158.16 210.785 1158.46 209.814 1158.46 208.771C1158.46 207.992 1158.33 207.439 1158.08 207.112C1157.83 206.77 1157.47 206.628 1156.98 206.686C1156.51 206.739 1155.93 206.962 1155.25 207.357L1153.52 208.352L1154.01 204.625L1155.25 203.914C1155.8 203.593 1156.29 203.203 1156.72 202.745C1157.15 202.287 1157.49 201.776 1157.73 201.213C1157.98 200.639 1158.1 200.036 1158.1 199.404C1158.1 198.583 1157.85 198.083 1157.34 197.904C1156.83 197.725 1156.17 197.869 1155.35 198.338C1154.6 198.775 1153.91 199.341 1153.29 200.036C1152.68 200.726 1152.1 201.521 1151.57 202.421L1149.35 201.047C1150.22 199.578 1151.19 198.285 1152.26 197.169C1153.34 196.042 1154.53 195.102 1155.83 194.349Z" fill="white"/>
<path d="M1157.98 250.717C1158.82 250.233 1159.58 249.92 1160.27 249.778C1160.96 249.63 1161.57 249.62 1162.1 249.746L1160.46 253.727C1160.09 253.632 1159.7 253.637 1159.28 253.742C1158.87 253.832 1158.46 253.992 1158.06 254.224C1157.33 254.645 1156.68 255.29 1156.11 256.159C1155.54 257.023 1155.09 258.068 1154.75 259.295C1154.42 260.516 1154.25 261.88 1154.23 263.386L1154.26 264.902C1154.25 267.382 1154.43 269.127 1154.79 270.138C1155.16 271.149 1155.85 271.36 1156.87 270.77C1157.68 270.302 1158.28 269.559 1158.65 268.543C1159.03 267.522 1159.23 266.442 1159.23 265.305C1159.23 264.304 1159.14 263.559 1158.97 263.07C1158.8 262.564 1158.56 262.269 1158.25 262.185C1157.94 262.09 1157.57 262.172 1157.12 262.43C1156.54 262.762 1155.98 263.272 1155.42 263.962C1154.87 264.652 1154.38 265.455 1153.96 266.371L1153.93 263.228C1154.52 262.064 1155.2 261.066 1155.97 260.234C1156.74 259.402 1157.49 258.771 1158.24 258.339C1159.23 257.77 1160.12 257.539 1160.92 257.644C1161.72 257.739 1162.36 258.191 1162.84 259.002C1163.31 259.803 1163.55 260.977 1163.55 262.525C1163.55 263.989 1163.27 265.484 1162.73 267.011C1162.18 268.527 1161.4 269.936 1160.39 271.236C1159.39 272.531 1158.2 273.577 1156.82 274.372C1155.56 275.098 1154.48 275.446 1153.59 275.414C1152.7 275.372 1151.97 275.035 1151.4 274.403C1150.84 273.761 1150.42 272.889 1150.16 271.789C1149.89 270.678 1149.76 269.417 1149.76 268.006C1149.76 265.542 1150.09 263.178 1150.74 260.914C1151.41 258.644 1152.35 256.625 1153.58 254.856C1154.81 253.082 1156.28 251.702 1157.98 250.717Z" fill="white"/>
<path d="M1142.85 154.065C1144.22 154.855 1145.16 155.655 1145.67 156.466C1146.2 157.277 1146.34 158.041 1146.11 158.757C1145.89 159.473 1145.34 160.086 1144.45 160.597C1143.65 161.06 1142.79 161.373 1141.87 161.537C1140.95 161.695 1140 161.721 1139.02 161.616C1138.04 161.516 1137.05 161.305 1136.04 160.984C1136.79 161.558 1137.33 162.14 1137.64 162.729C1137.97 163.319 1138 163.911 1137.73 164.506C1137.47 165.101 1136.83 165.694 1135.81 166.283C1134.74 166.899 1133.47 167.289 1132 167.452C1130.54 167.621 1129 167.542 1127.38 167.215C1125.76 166.884 1124.2 166.278 1122.67 165.399C1121.26 164.583 1120.24 163.709 1119.61 162.777C1118.99 161.839 1118.73 160.881 1118.84 159.902L1123.55 159.997C1123.47 160.676 1123.61 161.292 1123.99 161.845C1124.38 162.398 1124.95 162.89 1125.7 163.322C1126.64 163.864 1127.64 164.169 1128.71 164.238C1129.78 164.301 1130.77 164.072 1131.67 163.551C1132.35 163.161 1132.76 162.774 1132.92 162.39C1133.09 162.005 1133.03 161.618 1132.74 161.229C1132.46 160.844 1131.97 160.455 1131.29 160.06L1129.57 159.065L1133.04 157.627L1134.27 158.338C1134.83 158.659 1135.41 158.891 1136.02 159.033C1136.63 159.175 1137.25 159.212 1137.86 159.144C1138.48 159.07 1139.06 158.875 1139.61 158.559C1140.32 158.148 1140.62 157.677 1140.52 157.145C1140.42 156.614 1139.97 156.113 1139.16 155.645C1138.4 155.208 1137.57 154.895 1136.65 154.705C1135.75 154.521 1134.77 154.421 1133.73 154.405L1133.81 151.799C1135.51 151.814 1137.12 152.009 1138.62 152.383C1140.14 152.752 1141.55 153.312 1142.85 154.065Z" fill="white"/>
<path d="M1092.78 126.253C1094.23 127.085 1095.18 127.925 1095.64 128.773C1096.12 129.626 1096.18 130.431 1095.84 131.19C1095.51 131.948 1094.86 132.606 1093.89 133.164C1093.13 133.606 1092.24 133.964 1091.24 134.238C1090.25 134.512 1089.05 134.715 1087.64 134.846C1086.24 134.973 1084.54 135.039 1082.57 135.044C1080.6 135.054 1078.25 135.015 1075.52 134.925L1083.62 139.601L1079.86 141.236L1067.26 133.962L1070.32 132.193C1072.78 132.219 1074.93 132.23 1076.78 132.224C1078.63 132.219 1080.23 132.19 1081.58 132.137C1082.94 132.09 1084.09 132.014 1085.04 131.908C1086 131.808 1086.8 131.671 1087.45 131.498C1088.11 131.319 1088.66 131.1 1089.1 130.842C1089.87 130.4 1090.25 129.921 1090.25 129.405C1090.26 128.894 1089.86 128.404 1089.05 127.936C1088.33 127.52 1087.55 127.246 1086.72 127.114C1085.89 126.983 1084.9 126.969 1083.73 127.075L1083.07 124.39C1084.77 124.232 1086.43 124.284 1088.05 124.547C1089.68 124.805 1091.26 125.374 1092.78 126.253Z" fill="white"/>
<path d="M1046.11 100.953L1027.7 111.584L1023.49 109.151L1037.64 100.977L1031.31 100.132L1032.45 97.3596L1042.28 98.7417L1046.11 100.953ZM1033.96 112.058L1030.69 113.945L1018.37 106.829L1021.64 104.942L1033.96 112.058Z" fill="white"/>
</svg>
