<svg width="1400" height="350" viewBox="0 0 1400 350" fill="none" xmlns="http://www.w3.org/2000/svg">
<rect width="1400" height="350" fill="white"/>
<rect x="505.389" y="323.186" width="19.1617" height="19.1617" rx="3.74252" fill="#0037AC"/>
<path d="M512.812 328.192C512.685 327.882 512.246 327.882 512.119 328.192L511.92 328.678C511.882 328.769 511.882 328.871 511.919 328.962L514.593 335.522C514.693 335.768 514.512 336.037 514.246 336.037H511.585H510.687C510.421 336.037 510.24 335.767 510.341 335.521L510.802 334.397C510.839 334.306 510.84 334.205 510.803 334.114L510.593 333.599C510.466 333.288 510.027 333.288 509.9 333.598L508.643 336.659C508.542 336.905 508.723 337.175 508.989 337.175H515.942C516.208 337.175 516.389 336.905 516.288 336.659L512.812 328.192Z" fill="white"/>
<path d="M515.348 330.011C515.247 329.765 515.428 329.496 515.694 329.496H518.355H519.253C519.519 329.496 519.701 329.766 519.599 330.012L519.138 331.136C519.101 331.227 519.101 331.329 519.138 331.419L519.348 331.934C519.474 332.245 519.913 332.245 520.04 331.935L521.297 328.874C521.398 328.628 521.217 328.358 520.951 328.358H513.999C513.732 328.358 513.551 328.628 513.652 328.874L517.128 337.341C517.256 337.651 517.694 337.651 517.821 337.341L518.021 336.855C518.058 336.764 518.058 336.662 518.021 336.571L515.348 330.011Z" fill="white"/>
<path d="M536.368 334.455H533.656L533.128 336.281H531.83L534.245 328.69H535.829L538.25 336.281H536.896L536.368 334.455ZM533.92 333.47H536.099L535.015 329.68L533.92 333.47ZM540.545 330.472V334.532C540.545 334.877 540.613 335.122 540.748 335.269C540.888 335.416 541.097 335.489 541.375 335.489C541.64 335.489 541.894 335.41 542.14 335.253C542.386 335.095 542.58 334.902 542.723 334.675V330.472H543.955V336.281H542.894L542.817 335.539C542.6 335.828 542.327 336.05 541.997 336.204C541.667 336.355 541.33 336.43 540.985 336.43C540.424 336.43 540.004 336.276 539.725 335.968C539.45 335.656 539.313 335.229 539.313 334.686V330.472H540.545ZM550.762 335.973C550.549 336.109 550.294 336.219 549.997 336.303C549.7 336.388 549.39 336.43 549.067 336.43C548.392 336.43 547.879 336.256 547.527 335.907C547.179 335.555 547.004 335.093 547.004 334.521V331.369H545.712V330.472H547.004V329.174L548.237 329.025V330.472H550.195L550.057 331.369H548.237V334.51C548.237 334.822 548.314 335.055 548.468 335.209C548.625 335.359 548.882 335.434 549.238 335.434C549.45 335.434 549.647 335.408 549.826 335.357C550.006 335.306 550.169 335.24 550.316 335.159L550.762 335.973ZM554.834 330.318C555.402 330.318 555.881 330.445 556.269 330.698C556.658 330.951 556.952 331.305 557.15 331.759C557.351 332.214 557.452 332.75 557.452 333.366C557.452 333.978 557.349 334.515 557.144 334.977C556.942 335.436 556.645 335.793 556.253 336.05C555.864 336.303 555.389 336.43 554.828 336.43C554.267 336.43 553.79 336.307 553.398 336.061C553.009 335.812 552.712 335.458 552.507 334.999C552.305 334.541 552.204 334 552.204 333.377C552.204 332.772 552.305 332.24 552.507 331.781C552.712 331.323 553.011 330.965 553.403 330.709C553.796 330.448 554.272 330.318 554.834 330.318ZM554.834 331.275C554.39 331.275 554.056 331.446 553.832 331.787C553.609 332.124 553.497 332.654 553.497 333.377C553.497 334.095 553.607 334.625 553.827 334.966C554.051 335.308 554.384 335.478 554.828 335.478C555.272 335.478 555.604 335.308 555.824 334.966C556.048 334.625 556.159 334.092 556.159 333.366C556.159 332.651 556.049 332.124 555.829 331.787C555.609 331.446 555.277 331.275 554.834 331.275ZM559.159 336.281V335.401H560.011V331.347H559.159V330.472H560.952L561.178 331.82C561.394 331.332 561.662 330.962 561.981 330.709C562.303 330.452 562.718 330.324 563.224 330.324C563.396 330.324 563.55 330.338 563.686 330.368C563.825 330.393 563.963 330.428 564.099 330.472L563.73 331.528C563.613 331.495 563.503 331.471 563.4 331.457C563.297 331.438 563.184 331.429 563.059 331.429C562.637 331.429 562.272 331.587 561.964 331.902C561.66 332.218 561.42 332.665 561.244 333.245V335.401H562.415V336.281H559.159ZM563.009 332.612V331.182L563.163 330.472H564.099L563.89 332.612H563.009ZM567.026 335.434C567.026 335.166 567.122 334.937 567.313 334.746C567.503 334.552 567.738 334.455 568.017 334.455C568.299 334.455 568.534 334.552 568.721 334.746C568.912 334.937 569.007 335.166 569.007 335.434C569.007 335.709 568.912 335.944 568.721 336.138C568.534 336.333 568.299 336.43 568.017 336.43C567.738 336.43 567.503 336.333 567.313 336.138C567.122 335.944 567.026 335.709 567.026 335.434ZM567.026 331.528C567.026 331.349 567.07 331.184 567.158 331.033C567.247 330.883 567.366 330.764 567.516 330.676C567.666 330.588 567.833 330.544 568.017 330.544C568.299 330.544 568.534 330.641 568.721 330.835C568.912 331.026 569.007 331.257 569.007 331.528C569.007 331.8 568.912 332.034 568.721 332.232C568.534 332.427 568.299 332.524 568.017 332.524C567.738 332.524 567.503 332.427 567.313 332.232C567.122 332.034 567.026 331.8 567.026 331.528ZM583.714 328.657V333.536C583.714 333.98 583.646 334.382 583.51 334.741C583.375 335.1 583.175 335.407 582.911 335.66C582.65 335.913 582.329 336.107 581.948 336.243C581.57 336.378 581.137 336.446 580.65 336.446C580.158 336.446 579.733 336.384 579.373 336.259C579.018 336.131 578.675 335.955 578.345 335.731L579.032 334.62C579.293 334.8 579.537 334.926 579.764 334.999C579.991 335.069 580.25 335.104 580.54 335.104C580.932 335.104 581.258 334.979 581.519 334.73C581.783 334.477 581.915 334.086 581.915 333.558V329.977H579.571V328.657H583.714ZM587.813 330.247C588.415 330.247 588.926 330.375 589.348 330.632C589.77 330.888 590.093 331.25 590.316 331.715C590.54 332.177 590.652 332.72 590.652 333.344C590.652 333.993 590.538 334.552 590.311 335.021C590.087 335.487 589.764 335.845 589.343 336.094C588.921 336.344 588.411 336.468 587.813 336.468C587.219 336.468 586.709 336.345 586.284 336.1C585.862 335.854 585.538 335.498 585.31 335.032C585.087 334.567 584.975 334.007 584.975 333.355C584.975 332.735 585.087 332.192 585.31 331.726C585.538 331.261 585.862 330.897 586.284 330.637C586.709 330.377 587.219 330.247 587.813 330.247ZM587.813 331.528C587.458 331.528 587.193 331.675 587.021 331.968C586.852 332.258 586.768 332.72 586.768 333.355C586.768 334 586.852 334.468 587.021 334.757C587.193 335.047 587.458 335.192 587.813 335.192C588.169 335.192 588.431 335.047 588.6 334.757C588.772 334.468 588.858 333.996 588.858 333.344C588.858 332.713 588.772 332.253 588.6 331.963C588.431 331.673 588.169 331.528 587.813 331.528ZM594.223 335.225C594.513 335.225 594.746 335.179 594.922 335.088C595.102 334.996 595.191 334.858 595.191 334.675C595.191 334.55 595.157 334.446 595.087 334.361C595.017 334.277 594.883 334.196 594.685 334.119C594.487 334.042 594.194 333.951 593.805 333.844C593.449 333.749 593.134 333.628 592.859 333.481C592.588 333.334 592.375 333.146 592.221 332.915C592.07 332.684 591.995 332.396 591.995 332.051C591.995 331.702 592.092 331.393 592.287 331.121C592.481 330.85 592.767 330.637 593.145 330.483C593.523 330.325 593.985 330.247 594.531 330.247C595.052 330.247 595.505 330.314 595.89 330.45C596.279 330.582 596.614 330.751 596.897 330.956L596.204 331.979C595.962 331.829 595.701 331.71 595.423 331.622C595.144 331.53 594.863 331.484 594.581 331.484C594.298 331.484 594.088 331.523 593.948 331.6C593.813 331.673 593.745 331.785 593.745 331.935C593.745 332.034 593.78 332.121 593.849 332.194C593.923 332.264 594.058 332.337 594.256 332.414C594.454 332.487 594.744 332.579 595.125 332.689C595.503 332.795 595.831 332.918 596.11 333.058C596.393 333.197 596.611 333.384 596.765 333.619C596.919 333.85 596.996 334.156 596.996 334.537C596.996 334.963 596.869 335.32 596.616 335.61C596.363 335.896 596.028 336.111 595.61 336.254C595.191 336.397 594.733 336.468 594.234 336.468C593.669 336.468 593.171 336.388 592.738 336.226C592.305 336.065 591.937 335.852 591.632 335.588L592.507 334.609C592.734 334.785 592.991 334.932 593.277 335.049C593.567 335.166 593.882 335.225 594.223 335.225ZM599.984 333.866C600.024 334.185 600.107 334.444 600.232 334.642C600.36 334.836 600.523 334.979 600.721 335.071C600.919 335.159 601.141 335.203 601.387 335.203C601.655 335.203 601.913 335.159 602.163 335.071C602.412 334.983 602.652 334.866 602.883 334.719L603.582 335.665C603.307 335.9 602.973 336.092 602.581 336.243C602.192 336.393 601.748 336.468 601.249 336.468C600.582 336.468 600.023 336.336 599.572 336.072C599.12 335.804 598.781 335.438 598.554 334.972C598.326 334.506 598.213 333.971 598.213 333.366C598.213 332.79 598.323 332.267 598.543 331.798C598.763 331.325 599.084 330.949 599.506 330.67C599.931 330.388 600.45 330.247 601.062 330.247C601.62 330.247 602.102 330.366 602.509 330.604C602.92 330.842 603.237 331.185 603.461 331.633C603.688 332.08 603.802 332.618 603.802 333.245C603.802 333.344 603.798 333.45 603.791 333.564C603.787 333.677 603.78 333.778 603.769 333.866H599.984ZM601.062 331.413C600.751 331.413 600.499 331.525 600.309 331.748C600.118 331.972 600.002 332.33 599.962 332.821H602.108C602.104 332.396 602.021 332.055 601.86 331.798C601.699 331.541 601.433 331.413 601.062 331.413ZM608.309 330.247C608.818 330.247 609.229 330.373 609.541 330.626C609.852 330.879 610.08 331.237 610.223 331.699C610.37 332.161 610.443 332.709 610.443 333.344C610.443 333.945 610.355 334.482 610.179 334.955C610.003 335.425 609.748 335.795 609.414 336.067C609.081 336.334 608.675 336.468 608.198 336.468C607.63 336.468 607.168 336.265 606.812 335.858V338.537L605.074 338.718V330.439H606.614L606.691 331.094C606.93 330.789 607.19 330.573 607.472 330.445C607.755 330.313 608.033 330.247 608.309 330.247ZM607.769 331.528C607.568 331.528 607.39 331.589 607.236 331.71C607.082 331.831 606.941 331.996 606.812 332.205V334.669C606.933 334.849 607.06 334.981 607.192 335.066C607.327 335.15 607.487 335.192 607.67 335.192C607.978 335.192 608.219 335.053 608.391 334.774C608.563 334.492 608.65 334.022 608.65 333.366C608.65 332.882 608.615 332.507 608.545 332.243C608.475 331.976 608.375 331.791 608.242 331.688C608.11 331.581 607.953 331.528 607.769 331.528ZM613.409 327.947V331.017C613.655 330.756 613.921 330.564 614.207 330.439C614.497 330.311 614.803 330.247 615.126 330.247C615.646 330.247 616.044 330.399 616.319 330.703C616.594 331.008 616.732 331.437 616.732 331.99V336.281H614.994V332.474C614.994 332.122 614.953 331.877 614.873 331.737C614.796 331.598 614.649 331.528 614.432 331.528C614.311 331.528 614.192 331.558 614.075 331.616C613.961 331.671 613.849 331.752 613.739 331.858C613.629 331.965 613.519 332.091 613.409 332.238V336.281H611.671V328.118L613.409 327.947ZM630.344 334.053C630.344 334.526 630.219 334.944 629.97 335.308C629.724 335.671 629.37 335.955 628.908 336.16C628.446 336.366 627.891 336.468 627.241 336.468C626.523 336.468 625.919 336.364 625.432 336.155C624.947 335.942 624.546 335.68 624.227 335.368L625.14 334.356C625.422 334.602 625.734 334.792 626.075 334.928C626.416 335.06 626.79 335.126 627.197 335.126C627.45 335.126 627.672 335.089 627.863 335.016C628.054 334.943 628.202 334.836 628.309 334.697C628.415 334.558 628.468 334.389 628.468 334.191C628.468 334.004 628.426 333.846 628.342 333.718C628.257 333.589 628.114 333.474 627.913 333.371C627.715 333.268 627.438 333.164 627.082 333.058C626.488 332.874 626.009 332.673 625.646 332.452C625.287 332.232 625.024 331.978 624.859 331.688C624.698 331.398 624.617 331.061 624.617 330.676C624.617 330.21 624.746 329.812 625.002 329.482C625.263 329.152 625.611 328.901 626.048 328.728C626.484 328.552 626.965 328.464 627.489 328.464C628.079 328.464 628.6 328.55 629.051 328.723C629.502 328.891 629.893 329.133 630.223 329.449L629.37 330.428C629.114 330.212 628.837 330.052 628.54 329.949C628.243 329.843 627.94 329.79 627.632 329.79C627.405 329.79 627.205 329.819 627.032 329.878C626.86 329.933 626.726 330.015 626.631 330.126C626.535 330.236 626.488 330.373 626.488 330.538C626.488 330.699 626.534 330.835 626.625 330.945C626.717 331.055 626.877 331.16 627.104 331.259C627.331 331.354 627.647 331.466 628.05 331.594C628.531 331.741 628.941 331.917 629.282 332.122C629.627 332.324 629.889 332.579 630.069 332.887C630.252 333.195 630.344 333.584 630.344 334.053ZM636.38 334.598C636.38 334.818 636.409 334.977 636.468 335.077C636.53 335.176 636.629 335.251 636.765 335.302L636.407 336.446C636.063 336.413 635.771 336.338 635.533 336.221C635.298 336.1 635.113 335.918 634.977 335.676C634.753 335.944 634.467 336.144 634.119 336.276C633.771 336.404 633.415 336.468 633.052 336.468C632.45 336.468 631.97 336.298 631.611 335.957C631.255 335.612 631.077 335.17 631.077 334.631C631.077 333.996 631.324 333.507 631.82 333.162C632.318 332.817 633.019 332.645 633.921 332.645H634.708V332.425C634.708 332.121 634.609 331.895 634.411 331.748C634.216 331.602 633.93 331.528 633.552 331.528C633.365 331.528 633.125 331.556 632.832 331.611C632.538 331.662 632.245 331.737 631.952 331.836L631.55 330.681C631.928 330.538 632.32 330.43 632.727 330.357C633.138 330.283 633.505 330.247 633.827 330.247C634.697 330.247 635.338 330.424 635.753 330.78C636.171 331.132 636.38 331.642 636.38 332.309V334.598ZM633.651 335.225C633.838 335.225 634.035 335.17 634.24 335.06C634.445 334.946 634.601 334.787 634.708 334.581V333.635H634.279C633.794 333.635 633.439 333.71 633.211 333.861C632.984 334.007 632.87 334.224 632.87 334.51C632.87 334.734 632.938 334.91 633.074 335.038C633.213 335.163 633.406 335.225 633.651 335.225ZM638.059 336.281V330.439H639.577L639.698 331.116C639.959 330.822 640.234 330.604 640.524 330.461C640.813 330.318 641.143 330.247 641.514 330.247C642.012 330.247 642.405 330.399 642.691 330.703C642.977 331.008 643.12 331.437 643.12 331.99V336.281H641.382V332.491C641.382 332.253 641.365 332.064 641.332 331.924C641.299 331.781 641.241 331.68 641.156 331.622C641.075 331.559 640.964 331.528 640.821 331.528C640.7 331.528 640.58 331.556 640.463 331.611C640.349 331.662 640.237 331.737 640.127 331.836C640.017 331.935 639.907 332.055 639.797 332.194V336.281H638.059ZM649.915 335.94C649.688 336.087 649.413 336.212 649.09 336.314C648.767 336.417 648.404 336.468 648.001 336.468C647.238 336.468 646.671 336.274 646.301 335.885C645.93 335.493 645.745 334.961 645.745 334.29V331.638H644.519V330.439H645.745V329.174L647.484 328.965V330.439H649.365L649.194 331.638H647.484V334.29C647.484 334.58 647.55 334.787 647.682 334.911C647.814 335.036 648.025 335.099 648.314 335.099C648.52 335.099 648.707 335.075 648.875 335.027C649.048 334.976 649.202 334.911 649.338 334.834L649.915 335.94ZM654.823 330.439V335.093H656.309V336.281H651.429V335.093H653.085V331.627H651.484V330.439H654.823ZM653.773 327.38C654.073 327.38 654.319 327.474 654.51 327.661C654.7 327.848 654.796 328.081 654.796 328.36C654.796 328.638 654.7 328.873 654.51 329.064C654.319 329.251 654.073 329.344 653.773 329.344C653.468 329.344 653.219 329.251 653.024 329.064C652.834 328.873 652.738 328.638 652.738 328.36C652.738 328.081 652.834 327.848 653.024 327.661C653.219 327.474 653.468 327.38 653.773 327.38ZM662.768 334.598C662.768 334.818 662.797 334.977 662.856 335.077C662.918 335.176 663.018 335.251 663.153 335.302L662.796 336.446C662.451 336.413 662.159 336.338 661.921 336.221C661.686 336.1 661.501 335.918 661.365 335.676C661.142 335.944 660.856 336.144 660.507 336.276C660.159 336.404 659.803 336.468 659.44 336.468C658.838 336.468 658.358 336.298 657.999 335.957C657.643 335.612 657.465 335.17 657.465 334.631C657.465 333.996 657.713 333.507 658.208 333.162C658.706 332.817 659.407 332.645 660.309 332.645H661.096V332.425C661.096 332.121 660.997 331.895 660.799 331.748C660.604 331.602 660.318 331.528 659.941 331.528C659.754 331.528 659.513 331.556 659.22 331.611C658.927 331.662 658.633 331.737 658.34 331.836L657.938 330.681C658.316 330.538 658.708 330.43 659.115 330.357C659.526 330.283 659.893 330.247 660.216 330.247C661.085 330.247 661.727 330.424 662.141 330.78C662.559 331.132 662.768 331.642 662.768 332.309V334.598ZM660.04 335.225C660.227 335.225 660.423 335.17 660.628 335.06C660.834 334.946 660.989 334.787 661.096 334.581V333.635H660.667C660.183 333.635 659.827 333.71 659.599 333.861C659.372 334.007 659.258 334.224 659.258 334.51C659.258 334.734 659.326 334.91 659.462 335.038C659.601 335.163 659.794 335.225 660.04 335.225ZM669.635 329.504L670.042 330.78C669.836 330.861 669.596 330.92 669.321 330.956C669.046 330.993 668.725 331.011 668.358 331.011C668.725 331.169 669.004 331.365 669.195 331.6C669.389 331.831 669.486 332.135 669.486 332.513C669.486 332.891 669.385 333.228 669.184 333.525C668.982 333.819 668.696 334.05 668.325 334.218C667.955 334.387 667.517 334.471 667.011 334.471C666.886 334.471 666.769 334.466 666.659 334.455C666.549 334.444 666.44 334.427 666.334 334.405C666.272 334.438 666.224 334.486 666.191 334.548C666.158 334.611 666.141 334.675 666.141 334.741C666.141 334.833 666.178 334.915 666.252 334.988C666.329 335.062 666.506 335.099 666.785 335.099H667.742C668.197 335.099 668.589 335.172 668.92 335.319C669.253 335.465 669.512 335.665 669.695 335.918C669.879 336.171 669.97 336.461 669.97 336.787C669.97 337.385 669.708 337.856 669.184 338.201C668.659 338.546 667.88 338.718 666.846 338.718C666.097 338.718 665.518 338.641 665.107 338.487C664.7 338.337 664.416 338.12 664.255 337.838C664.097 337.559 664.018 337.227 664.018 336.842H665.558C665.558 337.011 665.591 337.149 665.657 337.255C665.727 337.365 665.857 337.446 666.048 337.497C666.242 337.548 666.523 337.574 666.89 337.574C667.26 337.574 667.542 337.545 667.737 337.486C667.931 337.427 668.063 337.347 668.133 337.244C668.206 337.145 668.243 337.033 668.243 336.908C668.243 336.736 668.175 336.597 668.039 336.49C667.904 336.384 667.689 336.331 667.396 336.331H666.466C665.835 336.331 665.377 336.215 665.091 335.984C664.805 335.749 664.662 335.476 664.662 335.165C664.662 334.948 664.719 334.743 664.832 334.548C664.95 334.354 665.113 334.191 665.322 334.059C664.948 333.861 664.68 333.628 664.519 333.36C664.357 333.089 664.277 332.764 664.277 332.386C664.277 331.946 664.388 331.569 664.612 331.253C664.836 330.934 665.144 330.688 665.536 330.516C665.932 330.344 666.384 330.258 666.89 330.258C667.326 330.265 667.706 330.236 668.028 330.17C668.351 330.1 668.641 330.006 668.898 329.889C669.154 329.768 669.4 329.64 669.635 329.504ZM666.934 331.385C666.659 331.385 666.44 331.473 666.279 331.649C666.118 331.822 666.037 332.06 666.037 332.364C666.037 332.687 666.119 332.935 666.285 333.107C666.45 333.279 666.666 333.366 666.934 333.366C667.223 333.366 667.443 333.279 667.594 333.107C667.748 332.935 667.825 332.68 667.825 332.342C667.825 332.016 667.75 331.776 667.599 331.622C667.449 331.464 667.227 331.385 666.934 331.385ZM673.575 330.247C674.176 330.247 674.688 330.375 675.11 330.632C675.531 330.888 675.854 331.25 676.078 331.715C676.301 332.177 676.413 332.72 676.413 333.344C676.413 333.993 676.3 334.552 676.072 335.021C675.849 335.487 675.526 335.845 675.104 336.094C674.682 336.344 674.173 336.468 673.575 336.468C672.981 336.468 672.471 336.345 672.045 336.1C671.624 335.854 671.299 335.498 671.072 335.032C670.848 334.567 670.736 334.007 670.736 333.355C670.736 332.735 670.848 332.192 671.072 331.726C671.299 331.261 671.624 330.897 672.045 330.637C672.471 330.377 672.981 330.247 673.575 330.247ZM673.575 331.528C673.219 331.528 672.955 331.675 672.783 331.968C672.614 332.258 672.53 332.72 672.53 333.355C672.53 334 672.614 334.468 672.783 334.757C672.955 335.047 673.219 335.192 673.575 335.192C673.93 335.192 674.193 335.047 674.361 334.757C674.534 334.468 674.62 333.996 674.62 333.344C674.62 332.713 674.534 332.253 674.361 331.963C674.193 331.673 673.93 331.528 673.575 331.528ZM687.952 331.143C687.952 330.872 687.9 330.648 687.797 330.472C687.698 330.292 687.546 330.16 687.341 330.076C687.139 329.988 686.884 329.944 686.576 329.944H685.96V332.436H686.67C686.937 332.436 687.167 332.39 687.357 332.298C687.548 332.207 687.695 332.066 687.797 331.875C687.9 331.684 687.952 331.44 687.952 331.143ZM689.811 331.138C689.811 331.728 689.684 332.216 689.431 332.601C689.178 332.986 688.824 333.274 688.37 333.465C687.915 333.652 687.387 333.745 686.785 333.745H685.96V336.281H684.156V328.657H686.554C687.588 328.657 688.39 328.862 688.958 329.273C689.527 329.684 689.811 330.305 689.811 331.138ZM693.366 330.247C693.967 330.247 694.479 330.375 694.901 330.632C695.322 330.888 695.645 331.25 695.869 331.715C696.093 332.177 696.204 332.72 696.204 333.344C696.204 333.993 696.091 334.552 695.863 335.021C695.64 335.487 695.317 335.845 694.895 336.094C694.473 336.344 693.964 336.468 693.366 336.468C692.772 336.468 692.262 336.345 691.836 336.1C691.415 335.854 691.09 335.498 690.863 335.032C690.639 334.567 690.527 334.007 690.527 333.355C690.527 332.735 690.639 332.192 690.863 331.726C691.09 331.261 691.415 330.897 691.836 330.637C692.262 330.377 692.772 330.247 693.366 330.247ZM693.366 331.528C693.01 331.528 692.746 331.675 692.574 331.968C692.405 332.258 692.321 332.72 692.321 333.355C692.321 334 692.405 334.468 692.574 334.757C692.746 335.047 693.01 335.192 693.366 335.192C693.722 335.192 693.984 335.047 694.152 334.757C694.325 334.468 694.411 333.996 694.411 333.344C694.411 332.713 694.325 332.253 694.152 331.963C693.984 331.673 693.722 331.528 693.366 331.528ZM697.487 336.281V335.115H698.257V331.594H697.487V330.439H699.583L699.902 331.754C700.111 331.251 700.377 330.877 700.7 330.632C701.026 330.386 701.424 330.263 701.894 330.263C702.092 330.263 702.268 330.28 702.422 330.313C702.576 330.342 702.721 330.384 702.856 330.439L702.328 331.875C702.222 331.846 702.116 331.824 702.009 331.809C701.903 331.794 701.786 331.787 701.657 331.787C701.276 331.787 700.94 331.943 700.65 332.254C700.364 332.566 700.146 332.962 699.996 333.443V335.115H701.151V336.281H697.487ZM701.443 332.882V331.176L701.701 330.439H702.856L702.532 332.882H701.443ZM709.288 335.94C709.061 336.087 708.786 336.212 708.463 336.314C708.141 336.417 707.777 336.468 707.374 336.468C706.611 336.468 706.045 336.274 705.674 335.885C705.304 335.493 705.119 334.961 705.119 334.29V331.638H703.892V330.439H705.119V329.174L706.857 328.965V330.439H708.738L708.568 331.638H706.857V334.29C706.857 334.58 706.923 334.787 707.055 334.911C707.187 335.036 707.398 335.099 707.688 335.099C707.893 335.099 708.08 335.075 708.249 335.027C708.421 334.976 708.575 334.911 708.711 334.834L709.288 335.94ZM714.197 330.439V335.093H715.682V336.281H710.802V335.093H712.458V331.627H710.857V330.439H714.197ZM713.146 327.38C713.447 327.38 713.692 327.474 713.883 327.661C714.074 327.848 714.169 328.081 714.169 328.36C714.169 328.638 714.074 328.873 713.883 329.064C713.692 329.251 713.447 329.344 713.146 329.344C712.842 329.344 712.592 329.251 712.398 329.064C712.207 328.873 712.112 328.638 712.112 328.36C712.112 328.081 712.207 327.848 712.398 327.661C712.592 327.474 712.842 327.38 713.146 327.38ZM720.271 328.118V334.444C720.271 334.679 720.337 334.847 720.469 334.95C720.605 335.049 720.79 335.099 721.025 335.099C721.175 335.099 721.32 335.082 721.459 335.049C721.599 335.012 721.729 334.97 721.85 334.922L722.268 336.083C722.07 336.186 721.832 336.276 721.553 336.353C721.274 336.43 720.95 336.468 720.579 336.468C719.875 336.468 719.358 336.267 719.028 335.863C718.698 335.456 718.533 334.911 718.533 334.229V329.306H716.811V328.118H720.271ZM726.868 328.118V334.444C726.868 334.679 726.934 334.847 727.066 334.95C727.202 335.049 727.387 335.099 727.622 335.099C727.772 335.099 727.917 335.082 728.056 335.049C728.196 335.012 728.326 334.97 728.447 334.922L728.865 336.083C728.667 336.186 728.429 336.276 728.15 336.353C727.871 336.43 727.547 336.468 727.176 336.468C726.472 336.468 725.955 336.267 725.625 335.863C725.295 335.456 725.13 334.911 725.13 334.229V329.306H723.408V328.118H726.868ZM735.336 334.598C735.336 334.818 735.365 334.977 735.424 335.077C735.486 335.176 735.585 335.251 735.721 335.302L735.363 336.446C735.018 336.413 734.727 336.338 734.488 336.221C734.254 336.1 734.068 335.918 733.933 335.676C733.709 335.944 733.423 336.144 733.075 336.276C732.726 336.404 732.37 336.468 732.007 336.468C731.406 336.468 730.925 336.298 730.566 335.957C730.21 335.612 730.032 335.17 730.032 334.631C730.032 333.996 730.28 333.507 730.775 333.162C731.274 332.817 731.974 332.645 732.877 332.645H733.663V332.425C733.663 332.121 733.564 331.895 733.366 331.748C733.172 331.602 732.886 331.528 732.508 331.528C732.321 331.528 732.081 331.556 731.787 331.611C731.494 331.662 731.201 331.737 730.907 331.836L730.506 330.681C730.883 330.538 731.276 330.43 731.683 330.357C732.094 330.283 732.46 330.247 732.783 330.247C733.652 330.247 734.294 330.424 734.708 330.78C735.126 331.132 735.336 331.642 735.336 332.309V334.598ZM732.607 335.225C732.794 335.225 732.99 335.17 733.196 335.06C733.401 334.946 733.557 334.787 733.663 334.581V333.635H733.234C732.75 333.635 732.394 333.71 732.167 333.861C731.939 334.007 731.826 334.224 731.826 334.51C731.826 334.734 731.894 334.91 732.029 335.038C732.169 335.163 732.361 335.225 732.607 335.225ZM737.163 333.514V332.161H741.927V333.514H737.163ZM748.821 328.657L749.25 336.281H747.677L747.583 333.019C747.576 332.715 747.572 332.443 747.572 332.205C747.576 331.967 747.582 331.743 747.589 331.534C747.596 331.321 747.607 331.108 747.622 330.896C747.64 330.679 747.659 330.445 747.677 330.192L746.819 334.983H745.454L744.53 330.192C744.552 330.434 744.571 330.663 744.585 330.879C744.604 331.092 744.616 331.306 744.624 331.523C744.631 331.739 744.637 331.972 744.64 332.221C744.644 332.467 744.642 332.742 744.635 333.047L744.58 336.281H743.034L743.463 328.657H745.317L746.164 333.586L746.967 328.657H748.821ZM755.127 334.598C755.127 334.818 755.156 334.977 755.215 335.077C755.277 335.176 755.376 335.251 755.512 335.302L755.154 336.446C754.809 336.413 754.518 336.338 754.279 336.221C754.045 336.1 753.86 335.918 753.724 335.676C753.5 335.944 753.214 336.144 752.866 336.276C752.517 336.404 752.161 336.468 751.798 336.468C751.197 336.468 750.717 336.298 750.357 335.957C750.001 335.612 749.824 335.17 749.824 334.631C749.824 333.996 750.071 333.507 750.566 333.162C751.065 332.817 751.765 332.645 752.668 332.645H753.454V332.425C753.454 332.121 753.355 331.895 753.157 331.748C752.963 331.602 752.677 331.528 752.299 331.528C752.112 331.528 751.872 331.556 751.578 331.611C751.285 331.662 750.992 331.737 750.698 331.836L750.297 330.681C750.674 330.538 751.067 330.43 751.474 330.357C751.885 330.283 752.251 330.247 752.574 330.247C753.443 330.247 754.085 330.424 754.499 330.78C754.918 331.132 755.127 331.642 755.127 332.309V334.598ZM752.398 335.225C752.585 335.225 752.781 335.17 752.987 335.06C753.192 334.946 753.348 334.787 753.454 334.581V333.635H753.025C752.541 333.635 752.185 333.71 751.958 333.861C751.731 334.007 751.617 334.224 751.617 334.51C751.617 334.734 751.685 334.91 751.82 335.038C751.96 335.163 752.152 335.225 752.398 335.225ZM756.861 336.281V335.115H757.631V331.594H756.861V330.439H758.957L759.276 331.754C759.485 331.251 759.751 330.877 760.073 330.632C760.4 330.386 760.798 330.263 761.267 330.263C761.465 330.263 761.641 330.28 761.795 330.313C761.949 330.342 762.094 330.384 762.23 330.439L761.702 331.875C761.595 331.846 761.489 331.824 761.383 331.809C761.276 331.794 761.159 331.787 761.03 331.787C760.649 331.787 760.314 331.943 760.024 332.254C759.738 332.566 759.52 332.962 759.369 333.443V335.115H760.524V336.281H756.861ZM760.816 332.882V331.176L761.074 330.439H762.23L761.905 332.882H760.816ZM768.662 335.94C768.434 336.087 768.159 336.212 767.837 336.314C767.514 336.417 767.151 336.468 766.747 336.468C765.985 336.468 765.418 336.274 765.048 335.885C764.677 335.493 764.492 334.961 764.492 334.29V331.638H763.265V330.439H764.492V329.174L766.23 328.965V330.439H768.112L767.941 331.638H766.23V334.29C766.23 334.58 766.296 334.787 766.428 334.911C766.56 335.036 766.771 335.099 767.061 335.099C767.266 335.099 767.453 335.075 767.622 335.027C767.794 334.976 767.948 334.911 768.084 334.834L768.662 335.94ZM773.57 330.439V335.093H775.055V336.281H770.176V335.093H771.832V331.627H770.231V330.439H773.57ZM773.355 327.094L774.032 328.404L771.435 329.432L770.957 328.552L773.355 327.094ZM776.597 336.281V330.439H778.115L778.236 331.116C778.496 330.822 778.772 330.604 779.061 330.461C779.351 330.318 779.681 330.247 780.051 330.247C780.55 330.247 780.943 330.399 781.229 330.703C781.515 331.008 781.658 331.437 781.658 331.99V336.281H779.919V332.491C779.919 332.253 779.903 332.064 779.87 331.924C779.837 331.781 779.778 331.68 779.694 331.622C779.613 331.559 779.501 331.528 779.358 331.528C779.237 331.528 779.118 331.556 779.001 331.611C778.887 331.662 778.775 331.737 778.665 331.836C778.555 331.935 778.445 332.055 778.335 332.194V336.281H776.597ZM784.701 333.866C784.741 334.185 784.824 334.444 784.949 334.642C785.077 334.836 785.24 334.979 785.438 335.071C785.636 335.159 785.858 335.203 786.104 335.203C786.372 335.203 786.63 335.159 786.88 335.071C787.129 334.983 787.369 334.866 787.6 334.719L788.299 335.665C788.024 335.9 787.69 336.092 787.298 336.243C786.909 336.393 786.465 336.468 785.966 336.468C785.299 336.468 784.74 336.336 784.288 336.072C783.837 335.804 783.498 335.438 783.271 334.972C783.043 334.506 782.93 333.971 782.93 333.366C782.93 332.79 783.04 332.267 783.26 331.798C783.48 331.325 783.801 330.949 784.222 330.67C784.648 330.388 785.167 330.247 785.779 330.247C786.337 330.247 786.819 330.366 787.226 330.604C787.637 330.842 787.954 331.185 788.178 331.633C788.405 332.08 788.519 332.618 788.519 333.245C788.519 333.344 788.515 333.45 788.508 333.564C788.504 333.677 788.497 333.778 788.486 333.866H784.701ZM785.779 331.413C785.468 331.413 785.216 331.525 785.026 331.748C784.835 331.972 784.719 332.33 784.679 332.821H786.825C786.821 332.396 786.738 332.055 786.577 331.798C786.416 331.541 786.15 331.413 785.779 331.413ZM791.865 334.966H794.791L794.626 336.281H789.813V335.055L792.712 331.748H790.055V330.439H794.736V331.66L791.865 334.966ZM806.077 326.379V339.582H804.954V326.379H806.077ZM818.544 328.536C819.095 328.536 819.564 328.616 819.953 328.778C820.341 328.935 820.662 329.157 820.915 329.443C821.172 329.726 821.372 330.059 821.515 330.445C821.658 330.83 821.759 331.248 821.818 331.699C821.876 332.15 821.906 332.618 821.906 333.102C821.906 334.026 821.862 334.8 821.774 335.423C821.686 336.043 821.521 336.509 821.278 336.82C821.04 337.136 820.695 337.293 820.244 337.293C820.024 337.293 819.832 337.244 819.667 337.145C819.505 337.046 819.371 336.918 819.265 336.76C819.162 336.606 819.084 336.439 819.029 336.259C818.977 336.076 818.948 335.904 818.94 335.742H818.896C818.823 335.918 818.722 336.087 818.594 336.248C818.466 336.41 818.302 336.542 818.104 336.644C817.906 336.747 817.664 336.798 817.378 336.798C816.967 336.798 816.637 336.688 816.388 336.468C816.139 336.252 815.957 335.953 815.843 335.572C815.73 335.19 815.673 334.759 815.673 334.279C815.673 333.344 815.864 332.63 816.245 332.139C816.626 331.644 817.178 331.396 817.901 331.396C818.172 331.396 818.44 331.429 818.704 331.495C818.972 331.558 819.26 331.671 819.568 331.836V335.104C819.568 335.452 819.595 335.722 819.65 335.913C819.705 336.103 819.78 336.235 819.876 336.309C819.975 336.382 820.087 336.419 820.211 336.419C820.358 336.419 820.472 336.344 820.552 336.193C820.637 336.043 820.697 335.826 820.734 335.544C820.771 335.258 820.793 334.913 820.8 334.51C820.807 334.106 820.811 333.652 820.811 333.146C820.811 332.603 820.78 332.106 820.717 331.655C820.659 331.2 820.547 330.808 820.382 330.478C820.22 330.148 819.989 329.893 819.689 329.713C819.388 329.533 818.997 329.443 818.517 329.443C818.147 329.443 817.756 329.513 817.345 329.652C816.938 329.792 816.509 330.059 816.058 330.456L815.464 329.768C815.963 329.335 816.467 329.022 816.977 328.827C817.49 328.633 818.013 328.536 818.544 328.536ZM817.917 332.232C817.496 332.232 817.208 332.397 817.054 332.728C816.9 333.054 816.823 333.571 816.823 334.279C816.823 334.631 816.845 334.932 816.889 335.181C816.933 335.43 817.01 335.621 817.12 335.753C817.23 335.885 817.378 335.951 817.565 335.951C817.789 335.951 817.963 335.9 818.088 335.797C818.213 335.694 818.306 335.573 818.368 335.434C818.431 335.291 818.478 335.166 818.511 335.06V332.375C818.412 332.324 818.317 332.287 818.225 332.265C818.134 332.243 818.031 332.232 817.917 332.232ZM827.804 328.657V333.536C827.804 333.98 827.736 334.382 827.6 334.741C827.465 335.1 827.265 335.407 827.001 335.66C826.74 335.913 826.42 336.107 826.038 336.243C825.66 336.378 825.228 336.446 824.74 336.446C824.248 336.446 823.823 336.384 823.464 336.259C823.108 336.131 822.765 335.955 822.435 335.731L823.123 334.62C823.383 334.8 823.627 334.926 823.854 334.999C824.082 335.069 824.34 335.104 824.63 335.104C825.022 335.104 825.349 334.979 825.609 334.73C825.873 334.477 826.005 334.086 826.005 333.558V329.977H823.662V328.657H827.804ZM831.904 330.247C832.505 330.247 833.017 330.375 833.438 330.632C833.86 330.888 834.183 331.25 834.407 331.715C834.63 332.177 834.742 332.72 834.742 333.344C834.742 333.993 834.628 334.552 834.401 335.021C834.177 335.487 833.855 335.845 833.433 336.094C833.011 336.344 832.501 336.468 831.904 336.468C831.309 336.468 830.8 336.345 830.374 336.1C829.952 335.854 829.628 335.498 829.401 335.032C829.177 334.567 829.065 334.007 829.065 333.355C829.065 332.735 829.177 332.192 829.401 331.726C829.628 331.261 829.952 330.897 830.374 330.637C830.8 330.377 831.309 330.247 831.904 330.247ZM831.904 331.528C831.548 331.528 831.284 331.675 831.111 331.968C830.943 332.258 830.858 332.72 830.858 333.355C830.858 334 830.943 334.468 831.111 334.757C831.284 335.047 831.548 335.192 831.904 335.192C832.259 335.192 832.521 335.047 832.69 334.757C832.863 334.468 832.949 333.996 832.949 333.344C832.949 332.713 832.863 332.253 832.69 331.963C832.521 331.673 832.259 331.528 831.904 331.528ZM837.477 333.866C837.518 334.185 837.6 334.444 837.725 334.642C837.853 334.836 838.016 334.979 838.214 335.071C838.413 335.159 838.634 335.203 838.88 335.203C839.148 335.203 839.406 335.159 839.656 335.071C839.905 334.983 840.145 334.866 840.376 334.719L841.075 335.665C840.8 335.9 840.466 336.092 840.074 336.243C839.685 336.393 839.241 336.468 838.743 336.468C838.075 336.468 837.516 336.336 837.065 336.072C836.614 335.804 836.274 335.438 836.047 334.972C835.82 334.506 835.706 333.971 835.706 333.366C835.706 332.79 835.816 332.267 836.036 331.798C836.256 331.325 836.577 330.949 836.999 330.67C837.424 330.388 837.943 330.247 838.556 330.247C839.113 330.247 839.595 330.366 840.002 330.604C840.413 330.842 840.73 331.185 840.954 331.633C841.181 332.08 841.295 332.618 841.295 333.245C841.295 333.344 841.291 333.45 841.284 333.564C841.28 333.677 841.273 333.778 841.262 333.866H837.477ZM838.556 331.413C838.244 331.413 837.993 331.525 837.802 331.748C837.611 331.972 837.496 332.33 837.455 332.821H839.601C839.597 332.396 839.515 332.055 839.353 331.798C839.192 331.541 838.926 331.413 838.556 331.413ZM846.28 331.143C846.28 330.872 846.229 330.648 846.126 330.472C846.027 330.292 845.875 330.16 845.67 330.076C845.468 329.988 845.213 329.944 844.905 329.944H844.289V332.436H844.999C845.266 332.436 845.496 332.39 845.686 332.298C845.877 332.207 846.024 332.066 846.126 331.875C846.229 331.684 846.28 331.44 846.28 331.143ZM848.14 331.138C848.14 331.728 848.013 332.216 847.76 332.601C847.507 332.986 847.153 333.274 846.698 333.465C846.244 333.652 845.716 333.745 845.114 333.745H844.289V336.281H842.485V328.657H844.883C845.917 328.657 846.719 328.862 847.287 329.273C847.855 329.684 848.14 330.305 848.14 331.138ZM851.695 330.247C852.296 330.247 852.808 330.375 853.229 330.632C853.651 330.888 853.974 331.25 854.198 331.715C854.421 332.177 854.533 332.72 854.533 333.344C854.533 333.993 854.42 334.552 854.192 335.021C853.968 335.487 853.646 335.845 853.224 336.094C852.802 336.344 852.292 336.468 851.695 336.468C851.1 336.468 850.591 336.345 850.165 336.1C849.744 335.854 849.419 335.498 849.192 335.032C848.968 334.567 848.856 334.007 848.856 333.355C848.856 332.735 848.968 332.192 849.192 331.726C849.419 331.261 849.744 330.897 850.165 330.637C850.591 330.377 851.1 330.247 851.695 330.247ZM851.695 331.528C851.339 331.528 851.075 331.675 850.902 331.968C850.734 332.258 850.649 332.72 850.649 333.355C850.649 334 850.734 334.468 850.902 334.757C851.075 335.047 851.339 335.192 851.695 335.192C852.05 335.192 852.313 335.047 852.481 334.757C852.654 334.468 852.74 333.996 852.74 333.344C852.74 332.713 852.654 332.253 852.481 331.963C852.313 331.673 852.05 331.528 851.695 331.528ZM855.816 336.281V335.115H856.586V331.594H855.816V330.439H857.912L858.231 331.754C858.44 331.251 858.706 330.877 859.029 330.632C859.355 330.386 859.753 330.263 860.223 330.263C860.421 330.263 860.597 330.28 860.751 330.313C860.905 330.342 861.05 330.384 861.185 330.439L860.657 331.875C860.551 331.846 860.444 331.824 860.338 331.809C860.232 331.794 860.114 331.787 859.986 331.787C859.605 331.787 859.269 331.943 858.979 332.254C858.693 332.566 858.475 332.962 858.325 333.443V335.115H859.48V336.281H855.816ZM859.771 332.882V331.176L860.03 330.439H861.185L860.861 332.882H859.771ZM867.617 335.94C867.39 336.087 867.115 336.212 866.792 336.314C866.469 336.417 866.106 336.468 865.703 336.468C864.94 336.468 864.373 336.274 864.003 335.885C863.633 335.493 863.447 334.961 863.447 334.29V331.638H862.221V330.439H863.447V329.174L865.186 328.965V330.439H867.067L866.897 331.638H865.186V334.29C865.186 334.58 865.252 334.787 865.384 334.911C865.516 335.036 865.727 335.099 866.016 335.099C866.222 335.099 866.409 335.075 866.578 335.027C866.75 334.976 866.904 334.911 867.04 334.834L867.617 335.94ZM872.525 330.439V335.093H874.011V336.281H869.131V335.093H870.787V331.627H869.186V330.439H872.525ZM871.475 327.38C871.775 327.38 872.021 327.474 872.212 327.661C872.403 327.848 872.498 328.081 872.498 328.36C872.498 328.638 872.403 328.873 872.212 329.064C872.021 329.251 871.775 329.344 871.475 329.344C871.17 329.344 870.921 329.251 870.727 329.064C870.536 328.873 870.441 328.638 870.441 328.36C870.441 328.081 870.536 327.848 870.727 327.661C870.921 327.474 871.17 327.38 871.475 327.38ZM878.6 328.118V334.444C878.6 334.679 878.666 334.847 878.798 334.95C878.934 335.049 879.119 335.099 879.354 335.099C879.504 335.099 879.649 335.082 879.788 335.049C879.927 335.012 880.058 334.97 880.179 334.922L880.597 336.083C880.399 336.186 880.16 336.276 879.882 336.353C879.603 336.43 879.278 336.468 878.908 336.468C878.204 336.468 877.687 336.267 877.357 335.863C877.027 335.456 876.862 334.911 876.862 334.229V329.306H875.14V328.118H878.6ZM885.197 328.118V334.444C885.197 334.679 885.263 334.847 885.395 334.95C885.531 335.049 885.716 335.099 885.951 335.099C886.101 335.099 886.246 335.082 886.385 335.049C886.524 335.012 886.655 334.97 886.776 334.922L887.194 336.083C886.996 336.186 886.757 336.276 886.479 336.353C886.2 336.43 885.875 336.468 885.505 336.468C884.801 336.468 884.284 336.267 883.954 335.863C883.624 335.456 883.459 334.911 883.459 334.229V329.306H881.737V328.118H885.197ZM893.664 334.598C893.664 334.818 893.694 334.977 893.752 335.077C893.815 335.176 893.914 335.251 894.049 335.302L893.692 336.446C893.347 336.413 893.056 336.338 892.817 336.221C892.582 336.1 892.397 335.918 892.262 335.676C892.038 335.944 891.752 336.144 891.403 336.276C891.055 336.404 890.699 336.468 890.336 336.468C889.735 336.468 889.254 336.298 888.895 335.957C888.539 335.612 888.361 335.17 888.361 334.631C888.361 333.996 888.609 333.507 889.104 333.162C889.603 332.817 890.303 332.645 891.205 332.645H891.992V332.425C891.992 332.121 891.893 331.895 891.695 331.748C891.501 331.602 891.214 331.528 890.837 331.528C890.65 331.528 890.409 331.556 890.116 331.611C889.823 331.662 889.529 331.737 889.236 331.836L888.834 330.681C889.212 330.538 889.604 330.43 890.012 330.357C890.422 330.283 890.789 330.247 891.112 330.247C891.981 330.247 892.623 330.424 893.037 330.78C893.455 331.132 893.664 331.642 893.664 332.309V334.598ZM890.936 335.225C891.123 335.225 891.319 335.17 891.524 335.06C891.73 334.946 891.886 334.787 891.992 334.581V333.635H891.563C891.079 333.635 890.723 333.71 890.496 333.861C890.268 334.007 890.155 334.224 890.155 334.51C890.155 334.734 890.222 334.91 890.358 335.038C890.498 335.163 890.69 335.225 890.936 335.225Z" fill="black"/>
<rect x="369" y="97" width="77.1792" height="77.1792" rx="2" fill="#0037AC"/>
<path d="M413.122 153H406.503V134.878C406.503 134.378 406.51 133.764 406.525 133.036C406.539 132.293 406.56 131.536 406.589 130.765C406.617 129.98 406.646 129.273 406.674 128.644C406.517 128.83 406.196 129.151 405.711 129.608C405.239 130.051 404.797 130.451 404.382 130.808L400.784 133.7L397.592 129.715L407.681 121.682H413.122V153Z" fill="white"/>
<rect x="448" y="97" width="77.1792" height="77.1792" rx="2" fill="#0037AC"/>
<path d="M497.649 153H475.757V148.394L483.618 140.447C485.203 138.819 486.474 137.463 487.431 136.377C488.402 135.278 489.102 134.278 489.53 133.378C489.973 132.479 490.194 131.515 490.194 130.487C490.194 129.244 489.844 128.316 489.145 127.702C488.459 127.073 487.538 126.759 486.381 126.759C485.167 126.759 483.989 127.038 482.847 127.595C481.704 128.152 480.512 128.944 479.27 129.972L475.671 125.71C476.571 124.938 477.52 124.21 478.52 123.525C479.534 122.839 480.705 122.289 482.033 121.875C483.375 121.447 484.982 121.233 486.853 121.233C488.909 121.233 490.673 121.604 492.144 122.347C493.629 123.089 494.771 124.103 495.571 125.388C496.371 126.659 496.771 128.102 496.771 129.715C496.771 131.443 496.428 133.021 495.742 134.449C495.057 135.877 494.057 137.291 492.743 138.691C491.444 140.09 489.873 141.64 488.031 143.339L484.004 147.131V147.431H497.649V153Z" fill="white"/>
<rect x="527" y="97" width="77.1792" height="77.1792" rx="2" fill="#0037AC"/>
<path d="M575.428 128.687C575.428 130.129 575.128 131.379 574.528 132.436C573.928 133.493 573.114 134.357 572.086 135.028C571.072 135.699 569.93 136.192 568.659 136.506V136.634C571.172 136.949 573.079 137.72 574.378 138.948C575.692 140.176 576.349 141.818 576.349 143.875C576.349 145.703 575.899 147.338 574.999 148.78C574.114 150.222 572.743 151.358 570.887 152.186C569.03 153.014 566.638 153.428 563.711 153.428C561.983 153.428 560.369 153.286 558.869 153C557.384 152.729 555.985 152.307 554.671 151.736V146.102C556.013 146.788 557.42 147.309 558.891 147.666C560.362 148.009 561.733 148.18 563.004 148.18C565.374 148.18 567.031 147.773 567.973 146.959C568.93 146.131 569.409 144.974 569.409 143.489C569.409 142.618 569.187 141.882 568.744 141.283C568.302 140.683 567.531 140.226 566.431 139.912C565.346 139.598 563.825 139.44 561.868 139.44H559.491V134.364H561.911C563.839 134.364 565.303 134.185 566.302 133.828C567.316 133.457 568.002 132.957 568.359 132.329C568.73 131.686 568.916 130.958 568.916 130.144C568.916 129.03 568.573 128.159 567.888 127.53C567.202 126.902 566.06 126.588 564.46 126.588C563.461 126.588 562.547 126.716 561.718 126.973C560.904 127.216 560.169 127.516 559.512 127.873C558.855 128.216 558.277 128.551 557.777 128.88L554.714 124.317C555.942 123.432 557.377 122.696 559.019 122.111C560.676 121.525 562.647 121.233 564.932 121.233C568.159 121.233 570.715 121.882 572.6 123.182C574.485 124.481 575.428 126.317 575.428 128.687Z" fill="white"/>
<rect x="369" y="176" width="77.1792" height="77.1792" rx="2" fill="#0037AC"/>
<path d="M419.356 225.509H415.586V232H409.116V225.509H395.75V220.904L409.481 200.682H415.586V220.368H419.356V225.509ZM409.116 220.368V215.056C409.116 214.556 409.124 213.964 409.138 213.278C409.166 212.593 409.195 211.907 409.224 211.222C409.252 210.536 409.281 209.929 409.309 209.401C409.352 208.858 409.381 208.48 409.395 208.266H409.224C408.952 208.851 408.667 209.422 408.367 209.979C408.067 210.522 407.717 211.093 407.317 211.693L401.576 220.368H409.116Z" fill="white"/>
<rect x="448" y="176" width="77.1792" height="77.1792" rx="2" fill="#0037AC"/>
<path d="M487.153 211.993C489.066 211.993 490.766 212.357 492.251 213.085C493.75 213.814 494.928 214.885 495.785 216.298C496.642 217.712 497.07 219.454 497.07 221.525C497.07 223.781 496.599 225.731 495.657 227.373C494.728 229.001 493.336 230.251 491.48 231.122C489.637 231.993 487.338 232.428 484.582 232.428C482.94 232.428 481.39 232.286 479.934 232C478.491 231.729 477.227 231.307 476.142 230.736V225.017C477.227 225.588 478.527 226.074 480.041 226.473C481.569 226.859 483.004 227.052 484.346 227.052C485.66 227.052 486.767 226.88 487.667 226.538C488.566 226.181 489.245 225.638 489.702 224.91C490.173 224.167 490.409 223.225 490.409 222.082C490.409 220.554 489.894 219.383 488.866 218.569C487.838 217.755 486.26 217.348 484.132 217.348C483.318 217.348 482.468 217.427 481.583 217.584C480.712 217.741 479.984 217.898 479.398 218.055L476.763 216.641L477.941 200.682H494.928V206.295H483.747L483.168 212.443C483.654 212.343 484.182 212.243 484.753 212.143C485.325 212.043 486.124 211.993 487.153 211.993Z" fill="white"/>
<rect x="527" y="176" width="77.1792" height="77.1792" rx="2" fill="#0037AC"/>
<path d="M554.542 218.698C554.542 216.898 554.671 215.12 554.928 213.364C555.199 211.593 555.663 209.929 556.32 208.373C556.977 206.802 557.898 205.417 559.084 204.217C560.269 203.003 561.775 202.053 563.603 201.368C565.431 200.668 567.645 200.318 570.244 200.318C570.858 200.318 571.572 200.347 572.386 200.404C573.214 200.447 573.9 200.525 574.442 200.64V205.931C573.871 205.802 573.257 205.702 572.6 205.631C571.958 205.545 571.315 205.502 570.672 205.502C568.073 205.502 566.06 205.916 564.632 206.745C563.218 207.573 562.218 208.722 561.633 210.193C561.061 211.65 560.726 213.349 560.626 215.292H560.904C561.304 214.592 561.804 213.971 562.404 213.428C563.018 212.885 563.76 212.457 564.632 212.143C565.503 211.814 566.524 211.65 567.695 211.65C569.523 211.65 571.108 212.043 572.45 212.828C573.793 213.599 574.828 214.72 575.556 216.191C576.285 217.662 576.649 219.454 576.649 221.568C576.649 223.824 576.213 225.766 575.342 227.394C574.471 229.022 573.236 230.272 571.636 231.143C570.051 232 568.166 232.428 565.981 232.428C564.382 232.428 562.889 232.157 561.504 231.614C560.119 231.057 558.905 230.215 557.863 229.087C556.82 227.959 556.006 226.538 555.421 224.824C554.835 223.096 554.542 221.054 554.542 218.698ZM565.853 227.137C567.152 227.137 568.209 226.695 569.023 225.809C569.837 224.924 570.244 223.539 570.244 221.654C570.244 220.126 569.887 218.926 569.173 218.055C568.473 217.17 567.409 216.727 565.981 216.727C565.01 216.727 564.153 216.948 563.411 217.391C562.682 217.819 562.118 218.369 561.718 219.04C561.318 219.697 561.119 220.376 561.119 221.075C561.119 221.804 561.219 222.525 561.418 223.239C561.618 223.953 561.918 224.603 562.318 225.188C562.718 225.774 563.211 226.245 563.796 226.602C564.396 226.959 565.081 227.137 565.853 227.137Z" fill="white"/>
<rect x="900" y="97" width="77.1792" height="77.1792" rx="2" fill="#08003C"/>
<path d="M930.863 153L942.623 127.252H927.178V121.682H949.649V125.838L937.803 153H930.863Z" fill="white"/>
<rect x="979" y="97" width="77.1792" height="77.1792" rx="2" fill="#08003C"/>
<path d="M1017.55 121.275C1019.35 121.275 1021.01 121.554 1022.52 122.111C1024.05 122.668 1025.27 123.51 1026.19 124.639C1027.1 125.752 1027.56 127.152 1027.56 128.837C1027.56 130.094 1027.31 131.193 1026.81 132.136C1026.32 133.078 1025.66 133.907 1024.81 134.621C1023.97 135.321 1023.02 135.935 1021.94 136.463C1023.06 137.048 1024.11 137.734 1025.11 138.519C1026.11 139.291 1026.93 140.197 1027.56 141.24C1028.2 142.282 1028.52 143.496 1028.52 144.881C1028.52 146.624 1028.06 148.137 1027.13 149.423C1026.2 150.694 1024.91 151.679 1023.27 152.379C1021.63 153.079 1019.72 153.428 1017.55 153.428C1015.21 153.428 1013.22 153.093 1011.58 152.422C1009.93 151.75 1008.68 150.794 1007.83 149.551C1006.97 148.295 1006.54 146.795 1006.54 145.053C1006.54 143.625 1006.81 142.382 1007.33 141.326C1007.88 140.269 1008.61 139.362 1009.52 138.605C1010.43 137.834 1011.44 137.177 1012.54 136.634C1011.61 136.049 1010.76 135.385 1009.99 134.642C1009.23 133.9 1008.63 133.05 1008.17 132.093C1007.73 131.136 1007.51 130.037 1007.51 128.794C1007.51 127.138 1007.97 125.752 1008.9 124.639C1009.84 123.525 1011.08 122.689 1012.6 122.132C1014.13 121.561 1015.78 121.275 1017.55 121.275ZM1012.67 144.667C1012.67 145.795 1013.07 146.731 1013.87 147.473C1014.68 148.202 1015.88 148.566 1017.47 148.566C1019.11 148.566 1020.34 148.216 1021.15 147.516C1021.97 146.802 1022.37 145.867 1022.37 144.71C1022.37 143.91 1022.14 143.211 1021.67 142.611C1021.21 142.011 1020.63 141.475 1019.93 141.004C1019.23 140.519 1018.52 140.069 1017.81 139.655L1017.23 139.355C1016.32 139.769 1015.52 140.233 1014.83 140.747C1014.16 141.261 1013.63 141.84 1013.25 142.482C1012.86 143.125 1012.67 143.853 1012.67 144.667ZM1017.51 126.117C1016.42 126.117 1015.52 126.395 1014.81 126.952C1014.1 127.509 1013.74 128.294 1013.74 129.308C1013.74 130.022 1013.91 130.651 1014.25 131.193C1014.61 131.722 1015.08 132.186 1015.65 132.586C1016.23 132.986 1016.87 133.357 1017.55 133.7C1018.21 133.385 1018.82 133.036 1019.39 132.65C1019.97 132.264 1020.43 131.8 1020.79 131.258C1021.14 130.715 1021.32 130.065 1021.32 129.308C1021.32 128.294 1020.96 127.509 1020.23 126.952C1019.52 126.395 1018.61 126.117 1017.51 126.117Z" fill="white"/>
<rect x="1058" y="97" width="77.1792" height="77.1792" rx="2" fill="#08003C"/>
<path d="M1107.52 135.049C1107.52 136.849 1107.38 138.634 1107.11 140.404C1106.86 142.175 1106.4 143.846 1105.74 145.417C1105.09 146.974 1104.16 148.359 1102.98 149.573C1101.79 150.772 1100.29 151.715 1098.46 152.4C1096.63 153.086 1094.42 153.428 1091.82 153.428C1091.2 153.428 1090.48 153.4 1089.66 153.343C1088.83 153.3 1088.14 153.228 1087.6 153.129V147.816C1088.17 147.959 1088.78 148.073 1089.42 148.159C1090.06 148.23 1090.71 148.266 1091.37 148.266C1093.98 148.266 1096 147.852 1097.41 147.024C1098.84 146.195 1099.84 145.046 1100.41 143.575C1100.99 142.104 1101.33 140.404 1101.42 138.477H1101.16C1100.74 139.162 1100.25 139.783 1099.68 140.34C1099.12 140.883 1098.41 141.318 1097.54 141.647C1096.67 141.961 1095.56 142.118 1094.22 142.118C1092.43 142.118 1090.88 141.733 1089.55 140.961C1088.23 140.176 1087.21 139.048 1086.48 137.577C1085.77 136.092 1085.41 134.299 1085.41 132.2C1085.41 129.93 1085.84 127.987 1086.7 126.374C1087.57 124.746 1088.81 123.496 1090.4 122.625C1092 121.754 1093.89 121.318 1096.06 121.318C1097.66 121.318 1099.15 121.597 1100.54 122.154C1101.92 122.696 1103.14 123.532 1104.18 124.66C1105.24 125.788 1106.06 127.216 1106.64 128.944C1107.23 130.672 1107.52 132.707 1107.52 135.049ZM1096.19 126.631C1094.9 126.631 1093.85 127.073 1093.04 127.959C1092.23 128.844 1091.82 130.229 1091.82 132.115C1091.82 133.628 1092.17 134.828 1092.87 135.713C1093.57 136.599 1094.63 137.041 1096.06 137.041C1097.05 137.041 1097.9 136.827 1098.63 136.399C1099.36 135.956 1099.92 135.406 1100.32 134.749C1100.74 134.078 1100.94 133.393 1100.94 132.693C1100.94 131.965 1100.84 131.243 1100.64 130.529C1100.44 129.815 1100.14 129.166 1099.74 128.58C1099.34 127.995 1098.84 127.523 1098.24 127.166C1097.66 126.809 1096.97 126.631 1096.19 126.631Z" fill="white"/>
<rect x="900" y="176" width="77.1792" height="77.1792" rx="2" fill="#08003C"/>
<path d="M931.122 232H924.503V213.878C924.503 213.378 924.51 212.764 924.525 212.036C924.539 211.293 924.56 210.536 924.589 209.765C924.617 208.98 924.646 208.273 924.674 207.644C924.517 207.83 924.196 208.151 923.711 208.608C923.239 209.051 922.797 209.451 922.382 209.808L918.784 212.7L915.592 208.715L925.681 200.682H931.122V232ZM961.583 216.341C961.583 218.869 961.383 221.125 960.983 223.11C960.598 225.095 959.969 226.78 959.098 228.166C958.241 229.551 957.113 230.608 955.714 231.336C954.314 232.064 952.615 232.428 950.615 232.428C948.102 232.428 946.038 231.793 944.425 230.522C942.811 229.237 941.618 227.394 940.847 224.995C940.076 222.582 939.691 219.697 939.691 216.341C939.691 212.957 940.04 210.065 940.74 207.666C941.454 205.252 942.611 203.403 944.21 202.118C945.81 200.832 947.945 200.19 950.615 200.19C953.114 200.19 955.171 200.832 956.785 202.118C958.413 203.389 959.619 205.231 960.405 207.644C961.19 210.043 961.583 212.942 961.583 216.341ZM946.267 216.341C946.267 218.726 946.395 220.718 946.652 222.318C946.924 223.903 947.374 225.095 948.002 225.895C948.63 226.695 949.501 227.095 950.615 227.095C951.715 227.095 952.579 226.702 953.207 225.916C953.85 225.117 954.307 223.924 954.578 222.339C954.85 220.74 954.985 218.74 954.985 216.341C954.985 213.956 954.85 211.964 954.578 210.365C954.307 208.765 953.85 207.566 953.207 206.766C952.579 205.952 951.715 205.545 950.615 205.545C949.501 205.545 948.63 205.952 948.002 206.766C947.374 207.566 946.924 208.765 946.652 210.365C946.395 211.964 946.267 213.956 946.267 216.341Z" fill="white"/>
<rect x="979" y="176" width="77.1792" height="77.1792" rx="2" fill="#08003C"/>
<path d="M1010.12 232H1003.5V213.878C1003.5 213.378 1003.51 212.764 1003.52 212.036C1003.54 211.293 1003.56 210.536 1003.59 209.765C1003.62 208.98 1003.65 208.273 1003.67 207.644C1003.52 207.83 1003.2 208.151 1002.71 208.608C1002.24 209.051 1001.8 209.451 1001.38 209.808L997.784 212.7L994.592 208.715L1004.68 200.682H1010.12V232ZM1035.23 232H1028.61V213.878C1028.61 213.378 1028.62 212.764 1028.63 212.036C1028.64 211.293 1028.67 210.536 1028.69 209.765C1028.72 208.98 1028.75 208.273 1028.78 207.644C1028.62 207.83 1028.3 208.151 1027.82 208.608C1027.34 209.051 1026.9 209.451 1026.49 209.808L1022.89 212.7L1019.7 208.715L1029.79 200.682H1035.23V232Z" fill="white"/>
<rect x="1058" y="176" width="77.1792" height="77.1792" rx="2" fill="#08003C"/>
<path d="M1089.12 232H1082.5V213.878C1082.5 213.378 1082.51 212.764 1082.52 212.036C1082.54 211.293 1082.56 210.536 1082.59 209.765C1082.62 208.98 1082.65 208.273 1082.67 207.644C1082.52 207.83 1082.2 208.151 1081.71 208.608C1081.24 209.051 1080.8 209.451 1080.38 209.808L1076.78 212.7L1073.59 208.715L1083.68 200.682H1089.12V232ZM1119.75 232H1097.86V227.394L1105.72 219.447C1107.31 217.819 1108.58 216.463 1109.54 215.377C1110.51 214.278 1111.21 213.278 1111.64 212.378C1112.08 211.479 1112.3 210.515 1112.3 209.487C1112.3 208.244 1111.95 207.316 1111.25 206.702C1110.56 206.073 1109.64 205.759 1108.49 205.759C1107.27 205.759 1106.09 206.038 1104.95 206.595C1103.81 207.152 1102.62 207.944 1101.38 208.972L1097.78 204.71C1098.68 203.938 1099.63 203.21 1100.63 202.525C1101.64 201.839 1102.81 201.289 1104.14 200.875C1105.48 200.447 1107.09 200.233 1108.96 200.233C1111.01 200.233 1112.78 200.604 1114.25 201.347C1115.73 202.089 1116.88 203.103 1117.68 204.388C1118.48 205.659 1118.88 207.102 1118.88 208.715C1118.88 210.443 1118.53 212.021 1117.85 213.449C1117.16 214.877 1116.16 216.291 1114.85 217.691C1113.55 219.09 1111.98 220.64 1110.14 222.339L1106.11 226.131V226.431H1119.75V232Z" fill="white"/>
<path d="M281.548 178.441H272.642L271.041 185H263.517L272.818 154.598H281.548L290.849 185H283.149L281.548 178.441ZM273.783 173.221H280.364L277.073 159.775L273.783 173.221ZM339.73 164.03V169.448H319.813V164.03H339.73ZM339.73 173.265V178.639H319.813V173.265H339.73Z" fill="#0037AC"/>
<path d="M825.636 175.809C825.636 174.742 825.424 173.901 825 173.287C824.59 172.658 824.005 172.212 823.245 171.949C822.499 171.685 821.622 171.554 820.613 171.554H817.651V179.758H820.306C821.008 179.758 821.673 179.706 822.302 179.604C822.945 179.502 823.515 179.311 824.013 179.034C824.524 178.756 824.919 178.361 825.197 177.849C825.49 177.323 825.636 176.643 825.636 175.809ZM824.495 163.087C824.495 161.888 824.115 161.025 823.355 160.498C822.609 159.957 821.446 159.687 819.867 159.687H817.651V166.728H820.086C821.636 166.728 822.755 166.443 823.442 165.873C824.144 165.302 824.495 164.374 824.495 163.087ZM833.05 176.094C833.05 177.849 832.714 179.304 832.041 180.459C831.368 181.615 830.447 182.521 829.277 183.179C828.107 183.837 826.769 184.305 825.263 184.583C823.771 184.861 822.199 185 820.547 185H810.457V154.598H820.086C821.651 154.598 823.128 154.73 824.517 154.993C825.921 155.241 827.164 155.665 828.246 156.265C829.328 156.85 830.176 157.647 830.791 158.656C831.419 159.65 831.734 160.886 831.734 162.363C831.734 163.577 831.478 164.63 830.966 165.522C830.454 166.399 829.774 167.123 828.926 167.693C828.078 168.249 827.157 168.651 826.162 168.9C827.244 169.075 828.312 169.419 829.365 169.931C830.432 170.428 831.31 171.174 831.997 172.168C832.699 173.162 833.05 174.471 833.05 176.094ZM883.73 164.03V169.448H863.813V164.03H883.73ZM883.73 173.265V178.639H863.813V173.265H883.73Z" fill="#08003C"/>
</svg>
