<svg width="1400" height="400" viewBox="0 0 1400 400" fill="none" xmlns="http://www.w3.org/2000/svg">
<rect width="1400" height="400" fill="white"/>
<rect x="505.389" y="373.186" width="19.1617" height="19.1617" rx="3.74252" fill="#0037AC"/>
<path d="M512.812 378.191C512.685 377.882 512.246 377.882 512.119 378.191L511.92 378.678C511.882 378.769 511.882 378.871 511.919 378.962L514.593 385.521C514.693 385.768 514.512 386.037 514.246 386.037H511.585H510.687C510.421 386.037 510.24 385.767 510.341 385.521L510.802 384.397C510.839 384.306 510.84 384.204 510.803 384.113L510.593 383.599C510.466 383.288 510.027 383.288 509.9 383.598L508.643 386.659C508.542 386.905 508.723 387.175 508.989 387.175H515.942C516.208 387.175 516.389 386.905 516.288 386.659L512.812 378.191Z" fill="white"/>
<path d="M515.348 380.011C515.247 379.765 515.428 379.496 515.694 379.496H518.355H519.253C519.519 379.496 519.701 379.766 519.599 380.012L519.138 381.136C519.101 381.227 519.101 381.329 519.138 381.419L519.348 381.934C519.474 382.245 519.913 382.245 520.04 381.935L521.297 378.874C521.398 378.628 521.217 378.358 520.951 378.358H513.999C513.732 378.358 513.551 378.628 513.652 378.874L517.128 387.341C517.256 387.651 517.694 387.651 517.821 387.341L518.021 386.855C518.058 386.764 518.058 386.662 518.021 386.571L515.348 380.011Z" fill="white"/>
<path d="M536.369 384.455H533.656L533.128 386.281H531.83L534.245 378.69H535.829L538.25 386.281H536.897L536.369 384.455ZM533.921 383.47H536.099L535.015 379.68L533.921 383.47ZM540.545 380.472V384.532C540.545 384.877 540.613 385.123 540.749 385.269C540.888 385.416 541.097 385.489 541.376 385.489C541.64 385.489 541.895 385.41 542.14 385.253C542.386 385.095 542.58 384.903 542.723 384.675V380.472H543.956V386.281H542.894L542.817 385.539C542.601 385.829 542.327 386.05 541.997 386.204C541.667 386.355 541.33 386.43 540.985 386.43C540.424 386.43 540.004 386.276 539.725 385.968C539.45 385.656 539.313 385.229 539.313 384.686V380.472H540.545ZM550.762 385.973C550.549 386.109 550.294 386.219 549.997 386.303C549.7 386.388 549.39 386.43 549.067 386.43C548.393 386.43 547.879 386.256 547.527 385.907C547.179 385.555 547.005 385.093 547.005 384.521V381.369H545.712V380.472H547.005V379.174L548.237 379.026V380.472H550.195L550.058 381.369H548.237V384.51C548.237 384.822 548.314 385.055 548.468 385.209C548.626 385.359 548.882 385.434 549.238 385.434C549.451 385.434 549.647 385.409 549.827 385.357C550.006 385.306 550.17 385.24 550.316 385.159L550.762 385.973ZM554.834 380.318C555.402 380.318 555.881 380.445 556.27 380.698C556.658 380.951 556.952 381.305 557.15 381.76C557.352 382.214 557.452 382.75 557.452 383.366C557.452 383.978 557.35 384.516 557.144 384.978C556.943 385.436 556.646 385.794 556.253 386.05C555.864 386.303 555.389 386.43 554.828 386.43C554.267 386.43 553.79 386.307 553.398 386.061C553.009 385.812 552.712 385.458 552.507 385C552.305 384.541 552.204 384 552.204 383.377C552.204 382.772 552.305 382.24 552.507 381.782C552.712 381.323 553.011 380.966 553.404 380.709C553.796 380.448 554.273 380.318 554.834 380.318ZM554.834 381.275C554.39 381.275 554.056 381.446 553.833 381.787C553.609 382.124 553.497 382.654 553.497 383.377C553.497 384.096 553.607 384.626 553.827 384.967C554.051 385.308 554.385 385.478 554.828 385.478C555.272 385.478 555.604 385.308 555.824 384.967C556.048 384.626 556.16 384.092 556.16 383.366C556.16 382.651 556.05 382.124 555.83 381.787C555.609 381.446 555.278 381.275 554.834 381.275ZM559.159 386.281V385.401H560.012V381.347H559.159V380.472H560.952L561.178 381.82C561.394 381.332 561.662 380.962 561.981 380.709C562.304 380.452 562.718 380.324 563.224 380.324C563.397 380.324 563.551 380.338 563.686 380.368C563.826 380.393 563.963 380.428 564.099 380.472L563.73 381.529C563.613 381.496 563.503 381.472 563.4 381.457C563.298 381.439 563.184 381.43 563.059 381.43C562.637 381.43 562.273 381.587 561.964 381.903C561.66 382.218 561.42 382.665 561.244 383.245V385.401H562.416V386.281H559.159ZM563.01 382.612V381.182L563.164 380.472H564.099L563.89 382.612H563.01ZM567.027 385.434C567.027 385.167 567.122 384.937 567.313 384.747C567.503 384.552 567.738 384.455 568.017 384.455C568.299 384.455 568.534 384.552 568.721 384.747C568.912 384.937 569.007 385.167 569.007 385.434C569.007 385.709 568.912 385.944 568.721 386.138C568.534 386.333 568.299 386.43 568.017 386.43C567.738 386.43 567.503 386.333 567.313 386.138C567.122 385.944 567.027 385.709 567.027 385.434ZM567.027 381.529C567.027 381.349 567.071 381.184 567.159 381.033C567.247 380.883 567.366 380.764 567.516 380.676C567.667 380.588 567.834 380.544 568.017 380.544C568.299 380.544 568.534 380.641 568.721 380.835C568.912 381.026 569.007 381.257 569.007 381.529C569.007 381.8 568.912 382.035 568.721 382.233C568.534 382.427 568.299 382.524 568.017 382.524C567.738 382.524 567.503 382.427 567.313 382.233C567.122 382.035 567.027 381.8 567.027 381.529ZM583.714 378.657V383.536C583.714 383.98 583.646 384.382 583.51 384.741C583.375 385.101 583.175 385.407 582.911 385.66C582.65 385.913 582.33 386.107 581.948 386.243C581.57 386.379 581.138 386.447 580.65 386.447C580.158 386.447 579.733 386.384 579.374 386.259C579.018 386.131 578.675 385.955 578.345 385.731L579.033 384.62C579.293 384.8 579.537 384.926 579.764 385C579.992 385.069 580.25 385.104 580.54 385.104C580.932 385.104 581.259 384.98 581.519 384.73C581.783 384.477 581.915 384.087 581.915 383.558V379.977H579.572V378.657H583.714ZM587.814 380.247C588.415 380.247 588.927 380.375 589.348 380.632C589.77 380.889 590.093 381.25 590.317 381.716C590.54 382.178 590.652 382.72 590.652 383.344C590.652 383.993 590.538 384.552 590.311 385.022C590.087 385.488 589.765 385.845 589.343 386.094C588.921 386.344 588.411 386.469 587.814 386.469C587.219 386.469 586.71 386.346 586.284 386.1C585.862 385.854 585.538 385.499 585.311 385.033C585.087 384.567 584.975 384.008 584.975 383.355C584.975 382.735 585.087 382.192 585.311 381.727C585.538 381.261 585.862 380.898 586.284 380.637C586.71 380.377 587.219 380.247 587.814 380.247ZM587.814 381.529C587.458 381.529 587.194 381.675 587.021 381.969C586.853 382.258 586.768 382.72 586.768 383.355C586.768 384 586.853 384.468 587.021 384.758C587.194 385.047 587.458 385.192 587.814 385.192C588.169 385.192 588.431 385.047 588.6 384.758C588.773 384.468 588.859 383.997 588.859 383.344C588.859 382.713 588.773 382.253 588.6 381.963C588.431 381.673 588.169 381.529 587.814 381.529ZM594.224 385.225C594.513 385.225 594.746 385.179 594.922 385.088C595.102 384.996 595.192 384.859 595.192 384.675C595.192 384.55 595.157 384.446 595.087 384.362C595.018 384.277 594.884 384.197 594.686 384.12C594.488 384.043 594.194 383.951 593.805 383.845C593.45 383.749 593.134 383.628 592.859 383.481C592.588 383.335 592.375 383.146 592.221 382.915C592.071 382.684 591.996 382.396 591.996 382.051C591.996 381.703 592.093 381.393 592.287 381.121C592.481 380.85 592.768 380.637 593.145 380.483C593.523 380.326 593.985 380.247 594.532 380.247C595.052 380.247 595.505 380.315 595.89 380.45C596.279 380.582 596.615 380.751 596.897 380.956L596.204 381.98C595.962 381.829 595.701 381.71 595.423 381.622C595.144 381.53 594.863 381.485 594.581 381.485C594.299 381.485 594.088 381.523 593.948 381.6C593.813 381.673 593.745 381.785 593.745 381.936C593.745 382.035 593.78 382.121 593.849 382.194C593.923 382.264 594.058 382.337 594.257 382.414C594.455 382.488 594.744 382.579 595.126 382.689C595.503 382.796 595.832 382.918 596.11 383.058C596.393 383.197 596.611 383.384 596.765 383.619C596.919 383.85 596.996 384.156 596.996 384.538C596.996 384.963 596.87 385.321 596.616 385.61C596.363 385.896 596.028 386.111 595.61 386.254C595.192 386.397 594.733 386.469 594.235 386.469C593.67 386.469 593.171 386.388 592.738 386.226C592.305 386.065 591.937 385.852 591.632 385.588L592.507 384.609C592.735 384.785 592.991 384.932 593.277 385.049C593.567 385.167 593.882 385.225 594.224 385.225ZM599.984 383.867C600.025 384.186 600.107 384.444 600.232 384.642C600.36 384.837 600.523 384.98 600.722 385.071C600.92 385.159 601.141 385.203 601.387 385.203C601.655 385.203 601.913 385.159 602.163 385.071C602.412 384.983 602.652 384.866 602.883 384.719L603.582 385.665C603.307 385.9 602.973 386.093 602.581 386.243C602.192 386.393 601.748 386.469 601.25 386.469C600.582 386.469 600.023 386.337 599.572 386.072C599.121 385.805 598.781 385.438 598.554 384.972C598.327 384.506 598.213 383.971 598.213 383.366C598.213 382.79 598.323 382.268 598.543 381.798C598.763 381.325 599.084 380.949 599.506 380.67C599.931 380.388 600.45 380.247 601.063 380.247C601.62 380.247 602.102 380.366 602.509 380.604C602.92 380.843 603.237 381.186 603.461 381.633C603.688 382.08 603.802 382.618 603.802 383.245C603.802 383.344 603.798 383.45 603.791 383.564C603.787 383.678 603.78 383.778 603.769 383.867H599.984ZM601.063 381.413C600.751 381.413 600.5 381.525 600.309 381.749C600.118 381.972 600.003 382.33 599.962 382.821H602.108C602.104 382.396 602.022 382.055 601.86 381.798C601.699 381.541 601.433 381.413 601.063 381.413ZM608.309 380.247C608.819 380.247 609.229 380.373 609.541 380.626C609.853 380.879 610.08 381.237 610.223 381.699C610.37 382.161 610.443 382.709 610.443 383.344C610.443 383.945 610.355 384.483 610.179 384.956C610.003 385.425 609.748 385.796 609.414 386.067C609.081 386.335 608.675 386.469 608.199 386.469C607.63 386.469 607.168 386.265 606.812 385.858V388.537L605.074 388.718V380.439H606.614L606.691 381.094C606.93 380.79 607.19 380.573 607.473 380.445C607.755 380.313 608.034 380.247 608.309 380.247ZM607.77 381.529C607.568 381.529 607.39 381.589 607.236 381.71C607.082 381.831 606.941 381.996 606.812 382.205V384.67C606.933 384.849 607.06 384.981 607.192 385.066C607.328 385.15 607.487 385.192 607.671 385.192C607.979 385.192 608.219 385.053 608.391 384.774C608.564 384.492 608.65 384.022 608.65 383.366C608.65 382.882 608.615 382.508 608.545 382.244C608.476 381.976 608.375 381.791 608.243 381.688C608.111 381.582 607.953 381.529 607.77 381.529ZM613.409 377.947V381.017C613.655 380.757 613.921 380.564 614.207 380.439C614.497 380.311 614.803 380.247 615.126 380.247C615.647 380.247 616.045 380.399 616.32 380.703C616.595 381.008 616.732 381.437 616.732 381.991V386.281H614.994V382.475C614.994 382.123 614.953 381.877 614.873 381.738C614.796 381.598 614.649 381.529 614.433 381.529C614.312 381.529 614.192 381.558 614.075 381.617C613.961 381.672 613.85 381.752 613.74 381.859C613.63 381.965 613.52 382.091 613.409 382.238V386.281H611.671V378.118L613.409 377.947ZM630.344 384.054C630.344 384.527 630.22 384.945 629.97 385.308C629.725 385.671 629.371 385.955 628.909 386.16C628.446 386.366 627.891 386.469 627.242 386.469C626.523 386.469 625.92 386.364 625.432 386.155C624.948 385.942 624.546 385.68 624.227 385.368L625.14 384.356C625.423 384.602 625.734 384.793 626.075 384.928C626.417 385.06 626.791 385.126 627.198 385.126C627.451 385.126 627.673 385.09 627.863 385.016C628.054 384.943 628.203 384.837 628.309 384.697C628.415 384.558 628.468 384.389 628.468 384.191C628.468 384.004 628.426 383.846 628.342 383.718C628.258 383.59 628.115 383.474 627.913 383.371C627.715 383.269 627.438 383.164 627.082 383.058C626.488 382.874 626.009 382.673 625.646 382.453C625.287 382.233 625.025 381.978 624.86 381.688C624.698 381.398 624.618 381.061 624.618 380.676C624.618 380.21 624.746 379.812 625.003 379.482C625.263 379.152 625.612 378.901 626.048 378.728C626.484 378.552 626.965 378.464 627.489 378.464C628.08 378.464 628.6 378.551 629.052 378.723C629.503 378.892 629.893 379.134 630.223 379.449L629.371 380.428C629.114 380.212 628.837 380.052 628.54 379.95C628.243 379.843 627.94 379.79 627.632 379.79C627.405 379.79 627.205 379.82 627.033 379.878C626.86 379.933 626.726 380.016 626.631 380.126C626.536 380.236 626.488 380.373 626.488 380.538C626.488 380.7 626.534 380.835 626.626 380.945C626.717 381.055 626.877 381.16 627.104 381.259C627.332 381.354 627.647 381.466 628.05 381.595C628.531 381.741 628.942 381.917 629.283 382.123C629.627 382.324 629.89 382.579 630.069 382.887C630.253 383.195 630.344 383.584 630.344 384.054ZM636.38 384.598C636.38 384.818 636.41 384.978 636.468 385.077C636.531 385.176 636.63 385.251 636.765 385.302L636.408 386.447C636.063 386.414 635.771 386.338 635.533 386.221C635.298 386.1 635.113 385.918 634.977 385.676C634.754 385.944 634.468 386.144 634.119 386.276C633.771 386.404 633.415 386.469 633.052 386.469C632.451 386.469 631.97 386.298 631.611 385.957C631.255 385.612 631.077 385.17 631.077 384.631C631.077 383.997 631.325 383.507 631.82 383.162C632.319 382.818 633.019 382.645 633.921 382.645H634.708V382.425C634.708 382.121 634.609 381.895 634.411 381.749C634.216 381.602 633.93 381.529 633.553 381.529C633.366 381.529 633.125 381.556 632.832 381.611C632.539 381.662 632.245 381.738 631.952 381.837L631.55 380.681C631.928 380.538 632.32 380.43 632.727 380.357C633.138 380.283 633.505 380.247 633.828 380.247C634.697 380.247 635.339 380.425 635.753 380.78C636.171 381.132 636.38 381.642 636.38 382.31V384.598ZM633.652 385.225C633.839 385.225 634.035 385.17 634.24 385.06C634.446 384.947 634.602 384.787 634.708 384.582V383.635H634.279C633.795 383.635 633.439 383.711 633.212 383.861C632.984 384.008 632.871 384.224 632.871 384.51C632.871 384.734 632.938 384.91 633.074 385.038C633.213 385.163 633.406 385.225 633.652 385.225ZM638.059 386.281V380.439H639.578L639.699 381.116C639.959 380.823 640.234 380.604 640.524 380.461C640.813 380.318 641.144 380.247 641.514 380.247C642.013 380.247 642.405 380.399 642.691 380.703C642.977 381.008 643.12 381.437 643.12 381.991V386.281H641.382V382.491C641.382 382.253 641.365 382.064 641.332 381.925C641.299 381.782 641.241 381.681 641.156 381.622C641.076 381.56 640.964 381.529 640.821 381.529C640.7 381.529 640.581 381.556 640.463 381.611C640.35 381.662 640.238 381.738 640.128 381.837C640.018 381.936 639.908 382.055 639.798 382.194V386.281H638.059ZM649.915 385.94C649.688 386.087 649.413 386.212 649.09 386.315C648.767 386.417 648.404 386.469 648.001 386.469C647.238 386.469 646.672 386.274 646.301 385.885C645.931 385.493 645.746 384.961 645.746 384.29V381.639H644.519V380.439H645.746V379.174L647.484 378.965V380.439H649.365L649.195 381.639H647.484V384.29C647.484 384.58 647.55 384.787 647.682 384.912C647.814 385.036 648.025 385.099 648.315 385.099C648.52 385.099 648.707 385.075 648.876 385.027C649.048 384.976 649.202 384.912 649.338 384.835L649.915 385.94ZM654.824 380.439V385.093H656.309V386.281H651.429V385.093H653.085V381.628H651.484V380.439H654.824ZM653.773 377.381C654.074 377.381 654.319 377.474 654.51 377.661C654.701 377.848 654.796 378.081 654.796 378.36C654.796 378.639 654.701 378.873 654.51 379.064C654.319 379.251 654.074 379.345 653.773 379.345C653.468 379.345 653.219 379.251 653.025 379.064C652.834 378.873 652.739 378.639 652.739 378.36C652.739 378.081 652.834 377.848 653.025 377.661C653.219 377.474 653.468 377.381 653.773 377.381ZM662.768 384.598C662.768 384.818 662.798 384.978 662.856 385.077C662.919 385.176 663.018 385.251 663.153 385.302L662.796 386.447C662.451 386.414 662.16 386.338 661.921 386.221C661.686 386.1 661.501 385.918 661.366 385.676C661.142 385.944 660.856 386.144 660.507 386.276C660.159 386.404 659.803 386.469 659.44 386.469C658.839 386.469 658.358 386.298 657.999 385.957C657.643 385.612 657.465 385.17 657.465 384.631C657.465 383.997 657.713 383.507 658.208 383.162C658.707 382.818 659.407 382.645 660.309 382.645H661.096V382.425C661.096 382.121 660.997 381.895 660.799 381.749C660.605 381.602 660.319 381.529 659.941 381.529C659.754 381.529 659.514 381.556 659.22 381.611C658.927 381.662 658.633 381.738 658.34 381.837L657.938 380.681C658.316 380.538 658.709 380.43 659.116 380.357C659.526 380.283 659.893 380.247 660.216 380.247C661.085 380.247 661.727 380.425 662.141 380.78C662.559 381.132 662.768 381.642 662.768 382.31V384.598ZM660.04 385.225C660.227 385.225 660.423 385.17 660.628 385.06C660.834 384.947 660.99 384.787 661.096 384.582V383.635H660.667C660.183 383.635 659.827 383.711 659.6 383.861C659.372 384.008 659.259 384.224 659.259 384.51C659.259 384.734 659.327 384.91 659.462 385.038C659.602 385.163 659.794 385.225 660.04 385.225ZM669.635 379.504L670.042 380.78C669.837 380.861 669.596 380.92 669.321 380.956C669.046 380.993 668.725 381.011 668.359 381.011C668.725 381.169 669.004 381.365 669.195 381.6C669.389 381.831 669.486 382.135 669.486 382.513C669.486 382.891 669.386 383.228 669.184 383.525C668.982 383.819 668.696 384.05 668.326 384.219C667.955 384.387 667.517 384.472 667.011 384.472C666.886 384.472 666.769 384.466 666.659 384.455C666.549 384.444 666.441 384.428 666.334 384.406C666.272 384.439 666.224 384.486 666.191 384.549C666.158 384.611 666.142 384.675 666.142 384.741C666.142 384.833 666.178 384.915 666.252 384.989C666.329 385.062 666.507 385.099 666.785 385.099H667.743C668.197 385.099 668.59 385.172 668.92 385.319C669.254 385.465 669.512 385.665 669.695 385.918C669.879 386.171 669.971 386.461 669.971 386.788C669.971 387.385 669.708 387.857 669.184 388.201C668.659 388.546 667.88 388.718 666.846 388.718C666.098 388.718 665.518 388.641 665.108 388.487C664.7 388.337 664.416 388.121 664.255 387.838C664.097 387.56 664.018 387.228 664.018 386.843H665.559C665.559 387.011 665.592 387.149 665.658 387.255C665.727 387.365 665.858 387.446 666.048 387.497C666.243 387.549 666.523 387.574 666.89 387.574C667.26 387.574 667.543 387.545 667.737 387.486C667.931 387.428 668.063 387.347 668.133 387.244C668.206 387.145 668.243 387.033 668.243 386.909C668.243 386.736 668.175 386.597 668.04 386.491C667.904 386.384 667.689 386.331 667.396 386.331H666.466C665.836 386.331 665.377 386.215 665.091 385.984C664.805 385.75 664.662 385.476 664.662 385.165C664.662 384.948 664.719 384.743 664.832 384.549C664.95 384.354 665.113 384.191 665.322 384.059C664.948 383.861 664.68 383.628 664.519 383.36C664.358 383.089 664.277 382.764 664.277 382.387C664.277 381.947 664.389 381.569 664.612 381.253C664.836 380.934 665.144 380.689 665.537 380.516C665.933 380.344 666.384 380.258 666.89 380.258C667.326 380.265 667.706 380.236 668.029 380.17C668.351 380.1 668.641 380.007 668.898 379.889C669.155 379.768 669.4 379.64 669.635 379.504ZM666.934 381.386C666.659 381.386 666.441 381.474 666.279 381.65C666.118 381.822 666.037 382.06 666.037 382.365C666.037 382.687 666.12 382.935 666.285 383.107C666.45 383.28 666.666 383.366 666.934 383.366C667.224 383.366 667.444 383.28 667.594 383.107C667.748 382.935 667.825 382.68 667.825 382.343C667.825 382.016 667.75 381.776 667.6 381.622C667.449 381.464 667.227 381.386 666.934 381.386ZM673.575 380.247C674.176 380.247 674.688 380.375 675.11 380.632C675.532 380.889 675.854 381.25 676.078 381.716C676.302 382.178 676.414 382.72 676.414 383.344C676.414 383.993 676.3 384.552 676.072 385.022C675.849 385.488 675.526 385.845 675.104 386.094C674.683 386.344 674.173 386.469 673.575 386.469C672.981 386.469 672.471 386.346 672.046 386.1C671.624 385.854 671.299 385.499 671.072 385.033C670.848 384.567 670.736 384.008 670.736 383.355C670.736 382.735 670.848 382.192 671.072 381.727C671.299 381.261 671.624 380.898 672.046 380.637C672.471 380.377 672.981 380.247 673.575 380.247ZM673.575 381.529C673.219 381.529 672.955 381.675 672.783 381.969C672.614 382.258 672.53 382.72 672.53 383.355C672.53 384 672.614 384.468 672.783 384.758C672.955 385.047 673.219 385.192 673.575 385.192C673.931 385.192 674.193 385.047 674.362 384.758C674.534 384.468 674.62 383.997 674.62 383.344C674.62 382.713 674.534 382.253 674.362 381.963C674.193 381.673 673.931 381.529 673.575 381.529ZM687.952 381.143C687.952 380.872 687.9 380.648 687.798 380.472C687.699 380.293 687.547 380.161 687.341 380.076C687.139 379.988 686.885 379.944 686.576 379.944H685.96V382.436H686.67C686.938 382.436 687.167 382.39 687.358 382.299C687.548 382.207 687.695 382.066 687.798 381.875C687.9 381.684 687.952 381.441 687.952 381.143ZM689.811 381.138C689.811 381.728 689.685 382.216 689.432 382.601C689.179 382.986 688.825 383.274 688.37 383.465C687.915 383.652 687.387 383.745 686.786 383.745H685.96V386.281H684.156V378.657H686.554C687.589 378.657 688.39 378.862 688.958 379.273C689.527 379.684 689.811 380.305 689.811 381.138ZM693.366 380.247C693.968 380.247 694.479 380.375 694.901 380.632C695.323 380.889 695.645 381.25 695.869 381.716C696.093 382.178 696.205 382.72 696.205 383.344C696.205 383.993 696.091 384.552 695.864 385.022C695.64 385.488 695.317 385.845 694.895 386.094C694.474 386.344 693.964 386.469 693.366 386.469C692.772 386.469 692.262 386.346 691.837 386.1C691.415 385.854 691.09 385.499 690.863 385.033C690.639 384.567 690.527 384.008 690.527 383.355C690.527 382.735 690.639 382.192 690.863 381.727C691.09 381.261 691.415 380.898 691.837 380.637C692.262 380.377 692.772 380.247 693.366 380.247ZM693.366 381.529C693.01 381.529 692.746 381.675 692.574 381.969C692.405 382.258 692.321 382.72 692.321 383.355C692.321 384 692.405 384.468 692.574 384.758C692.746 385.047 693.01 385.192 693.366 385.192C693.722 385.192 693.984 385.047 694.153 384.758C694.325 384.468 694.411 383.997 694.411 383.344C694.411 382.713 694.325 382.253 694.153 381.963C693.984 381.673 693.722 381.529 693.366 381.529ZM697.488 386.281V385.115H698.258V381.595H697.488V380.439H699.584L699.903 381.754C700.112 381.252 700.377 380.878 700.7 380.632C701.027 380.386 701.425 380.263 701.894 380.263C702.092 380.263 702.268 380.28 702.422 380.313C702.576 380.342 702.721 380.384 702.857 380.439L702.329 381.875C702.222 381.846 702.116 381.824 702.009 381.809C701.903 381.794 701.786 381.787 701.657 381.787C701.276 381.787 700.94 381.943 700.651 382.255C700.365 382.566 700.146 382.962 699.996 383.443V385.115H701.151V386.281H697.488ZM701.443 382.882V381.176L701.701 380.439H702.857L702.532 382.882H701.443ZM709.289 385.94C709.061 386.087 708.786 386.212 708.464 386.315C708.141 386.417 707.778 386.469 707.374 386.469C706.611 386.469 706.045 386.274 705.674 385.885C705.304 385.493 705.119 384.961 705.119 384.29V381.639H703.892V380.439H705.119V379.174L706.857 378.965V380.439H708.739L708.568 381.639H706.857V384.29C706.857 384.58 706.923 384.787 707.055 384.912C707.187 385.036 707.398 385.099 707.688 385.099C707.893 385.099 708.08 385.075 708.249 385.027C708.421 384.976 708.575 384.912 708.711 384.835L709.289 385.94ZM714.197 380.439V385.093H715.682V386.281H710.803V385.093H712.459V381.628H710.858V380.439H714.197ZM713.146 377.381C713.447 377.381 713.693 377.474 713.883 377.661C714.074 377.848 714.169 378.081 714.169 378.36C714.169 378.639 714.074 378.873 713.883 379.064C713.693 379.251 713.447 379.345 713.146 379.345C712.842 379.345 712.592 379.251 712.398 379.064C712.207 378.873 712.112 378.639 712.112 378.36C712.112 378.081 712.207 377.848 712.398 377.661C712.592 377.474 712.842 377.381 713.146 377.381ZM720.271 378.118V384.444C720.271 384.679 720.337 384.848 720.469 384.95C720.605 385.049 720.79 385.099 721.025 385.099C721.175 385.099 721.32 385.082 721.46 385.049C721.599 385.013 721.729 384.97 721.85 384.923L722.268 386.083C722.07 386.186 721.832 386.276 721.553 386.353C721.274 386.43 720.95 386.469 720.579 386.469C719.875 386.469 719.358 386.267 719.028 385.863C718.698 385.456 718.533 384.912 718.533 384.23V379.306H716.811V378.118H720.271ZM726.868 378.118V384.444C726.868 384.679 726.934 384.848 727.066 384.95C727.202 385.049 727.387 385.099 727.622 385.099C727.772 385.099 727.917 385.082 728.057 385.049C728.196 385.013 728.326 384.97 728.447 384.923L728.865 386.083C728.667 386.186 728.429 386.276 728.15 386.353C727.871 386.43 727.547 386.469 727.176 386.469C726.472 386.469 725.955 386.267 725.625 385.863C725.295 385.456 725.13 384.912 725.13 384.23V379.306H723.408V378.118H726.868ZM735.336 384.598C735.336 384.818 735.365 384.978 735.424 385.077C735.486 385.176 735.585 385.251 735.721 385.302L735.363 386.447C735.019 386.414 734.727 386.338 734.489 386.221C734.254 386.1 734.069 385.918 733.933 385.676C733.709 385.944 733.423 386.144 733.075 386.276C732.726 386.404 732.371 386.469 732.008 386.469C731.406 386.469 730.926 386.298 730.566 385.957C730.211 385.612 730.033 385.17 730.033 384.631C730.033 383.997 730.28 383.507 730.775 383.162C731.274 382.818 731.975 382.645 732.877 382.645H733.663V382.425C733.663 382.121 733.564 381.895 733.366 381.749C733.172 381.602 732.886 381.529 732.508 381.529C732.321 381.529 732.081 381.556 731.788 381.611C731.494 381.662 731.201 381.738 730.907 381.837L730.506 380.681C730.884 380.538 731.276 380.43 731.683 380.357C732.094 380.283 732.46 380.247 732.783 380.247C733.652 380.247 734.294 380.425 734.709 380.78C735.127 381.132 735.336 381.642 735.336 382.31V384.598ZM732.607 385.225C732.794 385.225 732.99 385.17 733.196 385.06C733.401 384.947 733.557 384.787 733.663 384.582V383.635H733.234C732.75 383.635 732.394 383.711 732.167 383.861C731.94 384.008 731.826 384.224 731.826 384.51C731.826 384.734 731.894 384.91 732.03 385.038C732.169 385.163 732.361 385.225 732.607 385.225ZM737.163 383.514V382.161H741.927V383.514H737.163ZM748.821 378.657L749.25 386.281H747.677L747.584 383.019C747.576 382.715 747.573 382.444 747.573 382.205C747.576 381.967 747.582 381.743 747.589 381.534C747.596 381.321 747.607 381.109 747.622 380.896C747.64 380.68 747.659 380.445 747.677 380.192L746.819 384.983H745.455L744.531 380.192C744.553 380.434 744.571 380.663 744.586 380.879C744.604 381.092 744.617 381.307 744.624 381.523C744.631 381.739 744.637 381.972 744.641 382.222C744.644 382.467 744.642 382.742 744.635 383.047L744.58 386.281H743.034L743.463 378.657H745.317L746.164 383.586L746.967 378.657H748.821ZM755.127 384.598C755.127 384.818 755.156 384.978 755.215 385.077C755.277 385.176 755.376 385.251 755.512 385.302L755.154 386.447C754.81 386.414 754.518 386.338 754.28 386.221C754.045 386.1 753.86 385.918 753.724 385.676C753.5 385.944 753.214 386.144 752.866 386.276C752.517 386.404 752.162 386.469 751.799 386.469C751.197 386.469 750.717 386.298 750.357 385.957C750.002 385.612 749.824 385.17 749.824 384.631C749.824 383.997 750.071 383.507 750.566 383.162C751.065 382.818 751.766 382.645 752.668 382.645H753.455V382.425C753.455 382.121 753.355 381.895 753.157 381.749C752.963 381.602 752.677 381.529 752.299 381.529C752.112 381.529 751.872 381.556 751.579 381.611C751.285 381.662 750.992 381.738 750.698 381.837L750.297 380.681C750.675 380.538 751.067 380.43 751.474 380.357C751.885 380.283 752.252 380.247 752.574 380.247C753.443 380.247 754.085 380.425 754.5 380.78C754.918 381.132 755.127 381.642 755.127 382.31V384.598ZM752.398 385.225C752.585 385.225 752.782 385.17 752.987 385.06C753.192 384.947 753.348 384.787 753.455 384.582V383.635H753.025C752.541 383.635 752.186 383.711 751.958 383.861C751.731 384.008 751.617 384.224 751.617 384.51C751.617 384.734 751.685 384.91 751.821 385.038C751.96 385.163 752.153 385.225 752.398 385.225ZM756.861 386.281V385.115H757.631V381.595H756.861V380.439H758.957L759.276 381.754C759.485 381.252 759.751 380.878 760.074 380.632C760.4 380.386 760.798 380.263 761.267 380.263C761.465 380.263 761.641 380.28 761.795 380.313C761.949 380.342 762.094 380.384 762.23 380.439L761.702 381.875C761.596 381.846 761.489 381.824 761.383 381.809C761.276 381.794 761.159 381.787 761.031 381.787C760.649 381.787 760.314 381.943 760.024 382.255C759.738 382.566 759.52 382.962 759.369 383.443V385.115H760.525V386.281H756.861ZM760.816 382.882V381.176L761.075 380.439H762.23L761.905 382.882H760.816ZM768.662 385.94C768.435 386.087 768.16 386.212 767.837 386.315C767.514 386.417 767.151 386.469 766.748 386.469C765.985 386.469 765.418 386.274 765.048 385.885C764.677 385.493 764.492 384.961 764.492 384.29V381.639H763.265V380.439H764.492V379.174L766.23 378.965V380.439H768.112L767.941 381.639H766.23V384.29C766.23 384.58 766.297 384.787 766.429 384.912C766.561 385.036 766.771 385.099 767.061 385.099C767.267 385.099 767.454 385.075 767.622 385.027C767.795 384.976 767.949 384.912 768.084 384.835L768.662 385.94ZM773.57 380.439V385.093H775.055V386.281H770.176V385.093H771.832V381.628H770.231V380.439H773.57ZM773.356 377.095L774.032 378.404L771.436 379.433L770.957 378.552L773.356 377.095ZM776.597 386.281V380.439H778.115L778.236 381.116C778.497 380.823 778.772 380.604 779.061 380.461C779.351 380.318 779.681 380.247 780.052 380.247C780.55 380.247 780.943 380.399 781.229 380.703C781.515 381.008 781.658 381.437 781.658 381.991V386.281H779.92V382.491C779.92 382.253 779.903 382.064 779.87 381.925C779.837 381.782 779.778 381.681 779.694 381.622C779.613 381.56 779.502 381.529 779.359 381.529C779.238 381.529 779.118 381.556 779.001 381.611C778.887 381.662 778.775 381.738 778.665 381.837C778.555 381.936 778.445 382.055 778.335 382.194V386.281H776.597ZM784.701 383.867C784.742 384.186 784.824 384.444 784.949 384.642C785.077 384.837 785.24 384.98 785.438 385.071C785.637 385.159 785.858 385.203 786.104 385.203C786.372 385.203 786.63 385.159 786.88 385.071C787.129 384.983 787.369 384.866 787.6 384.719L788.299 385.665C788.024 385.9 787.69 386.093 787.298 386.243C786.909 386.393 786.465 386.469 785.967 386.469C785.299 386.469 784.74 386.337 784.289 386.072C783.838 385.805 783.498 385.438 783.271 384.972C783.044 384.506 782.93 383.971 782.93 383.366C782.93 382.79 783.04 382.268 783.26 381.798C783.48 381.325 783.801 380.949 784.223 380.67C784.648 380.388 785.167 380.247 785.78 380.247C786.337 380.247 786.819 380.366 787.226 380.604C787.637 380.843 787.954 381.186 788.178 381.633C788.405 382.08 788.519 382.618 788.519 383.245C788.519 383.344 788.515 383.45 788.508 383.564C788.504 383.678 788.497 383.778 788.486 383.867H784.701ZM785.78 381.413C785.468 381.413 785.217 381.525 785.026 381.749C784.835 381.972 784.72 382.33 784.679 382.821H786.825C786.821 382.396 786.739 382.055 786.577 381.798C786.416 381.541 786.15 381.413 785.78 381.413ZM791.865 384.967H794.792L794.627 386.281H789.813V385.055L792.712 381.749H790.055V380.439H794.737V381.661L791.865 384.967ZM806.077 376.379V389.582H804.955V376.379H806.077ZM818.545 378.536C819.095 378.536 819.564 378.617 819.953 378.778C820.342 378.936 820.663 379.158 820.916 379.444C821.172 379.726 821.372 380.06 821.515 380.445C821.658 380.83 821.759 381.248 821.818 381.699C821.876 382.15 821.906 382.618 821.906 383.102C821.906 384.026 821.862 384.8 821.774 385.423C821.686 386.043 821.521 386.509 821.279 386.821C821.04 387.136 820.696 387.294 820.245 387.294C820.024 387.294 819.832 387.244 819.667 387.145C819.506 387.046 819.372 386.918 819.265 386.76C819.163 386.606 819.084 386.439 819.029 386.259C818.977 386.076 818.948 385.904 818.941 385.742H818.897C818.823 385.918 818.723 386.087 818.594 386.248C818.466 386.41 818.303 386.542 818.105 386.645C817.907 386.747 817.664 386.799 817.378 386.799C816.968 386.799 816.638 386.689 816.388 386.469C816.139 386.252 815.957 385.953 815.844 385.572C815.73 385.19 815.673 384.76 815.673 384.279C815.673 383.344 815.864 382.631 816.245 382.139C816.627 381.644 817.179 381.397 817.901 381.397C818.172 381.397 818.44 381.43 818.704 381.496C818.972 381.558 819.26 381.672 819.568 381.837V385.104C819.568 385.453 819.595 385.722 819.65 385.913C819.705 386.104 819.781 386.236 819.876 386.309C819.975 386.382 820.087 386.419 820.211 386.419C820.358 386.419 820.472 386.344 820.553 386.193C820.637 386.043 820.697 385.827 820.734 385.544C820.771 385.258 820.793 384.914 820.8 384.51C820.807 384.107 820.811 383.652 820.811 383.146C820.811 382.603 820.78 382.106 820.718 381.655C820.659 381.2 820.547 380.808 820.382 380.478C820.221 380.148 819.99 379.893 819.689 379.713C819.388 379.533 818.998 379.444 818.517 379.444C818.147 379.444 817.756 379.513 817.345 379.653C816.938 379.792 816.509 380.06 816.058 380.456L815.464 379.768C815.963 379.335 816.467 379.022 816.977 378.827C817.49 378.633 818.013 378.536 818.545 378.536ZM817.918 382.233C817.496 382.233 817.208 382.398 817.054 382.728C816.9 383.054 816.823 383.571 816.823 384.279C816.823 384.631 816.845 384.932 816.889 385.181C816.933 385.431 817.01 385.621 817.12 385.753C817.23 385.885 817.378 385.951 817.565 385.951C817.789 385.951 817.963 385.9 818.088 385.797C818.213 385.695 818.306 385.574 818.369 385.434C818.431 385.291 818.479 385.167 818.512 385.06V382.376C818.413 382.324 818.317 382.288 818.226 382.266C818.134 382.244 818.031 382.233 817.918 382.233ZM827.804 378.657V383.536C827.804 383.98 827.736 384.382 827.601 384.741C827.465 385.101 827.265 385.407 827.001 385.66C826.741 385.913 826.42 386.107 826.038 386.243C825.661 386.379 825.228 386.447 824.74 386.447C824.249 386.447 823.823 386.384 823.464 386.259C823.108 386.131 822.765 385.955 822.435 385.731L823.123 384.62C823.383 384.8 823.627 384.926 823.854 385C824.082 385.069 824.34 385.104 824.63 385.104C825.023 385.104 825.349 384.98 825.609 384.73C825.873 384.477 826.005 384.087 826.005 383.558V379.977H823.662V378.657H827.804ZM831.904 380.247C832.505 380.247 833.017 380.375 833.439 380.632C833.86 380.889 834.183 381.25 834.407 381.716C834.63 382.178 834.742 382.72 834.742 383.344C834.742 383.993 834.629 384.552 834.401 385.022C834.178 385.488 833.855 385.845 833.433 386.094C833.011 386.344 832.502 386.469 831.904 386.469C831.31 386.469 830.8 386.346 830.374 386.1C829.953 385.854 829.628 385.499 829.401 385.033C829.177 384.567 829.065 384.008 829.065 383.355C829.065 382.735 829.177 382.192 829.401 381.727C829.628 381.261 829.953 380.898 830.374 380.637C830.8 380.377 831.31 380.247 831.904 380.247ZM831.904 381.529C831.548 381.529 831.284 381.675 831.112 381.969C830.943 382.258 830.859 382.72 830.859 383.355C830.859 384 830.943 384.468 831.112 384.758C831.284 385.047 831.548 385.192 831.904 385.192C832.259 385.192 832.522 385.047 832.69 384.758C832.863 384.468 832.949 383.997 832.949 383.344C832.949 382.713 832.863 382.253 832.69 381.963C832.522 381.673 832.259 381.529 831.904 381.529ZM837.478 383.867C837.518 384.186 837.6 384.444 837.725 384.642C837.854 384.837 838.017 384.98 838.215 385.071C838.413 385.159 838.635 385.203 838.88 385.203C839.148 385.203 839.407 385.159 839.656 385.071C839.905 384.983 840.146 384.866 840.377 384.719L841.075 385.665C840.8 385.9 840.467 386.093 840.074 386.243C839.685 386.393 839.242 386.469 838.743 386.469C838.075 386.469 837.516 386.337 837.065 386.072C836.614 385.805 836.275 385.438 836.047 384.972C835.82 384.506 835.706 383.971 835.706 383.366C835.706 382.79 835.816 382.268 836.036 381.798C836.256 381.325 836.577 380.949 836.999 380.67C837.424 380.388 837.943 380.247 838.556 380.247C839.113 380.247 839.596 380.366 840.003 380.604C840.413 380.843 840.731 381.186 840.954 381.633C841.182 382.08 841.295 382.618 841.295 383.245C841.295 383.344 841.292 383.45 841.284 383.564C841.281 383.678 841.273 383.778 841.262 383.867H837.478ZM838.556 381.413C838.244 381.413 837.993 381.525 837.802 381.749C837.611 381.972 837.496 382.33 837.456 382.821H839.601C839.597 382.396 839.515 382.055 839.353 381.798C839.192 381.541 838.926 381.413 838.556 381.413ZM846.281 381.143C846.281 380.872 846.229 380.648 846.127 380.472C846.028 380.293 845.875 380.161 845.67 380.076C845.468 379.988 845.213 379.944 844.905 379.944H844.289V382.436H844.999C845.267 382.436 845.496 382.39 845.686 382.299C845.877 382.207 846.024 382.066 846.127 381.875C846.229 381.684 846.281 381.441 846.281 381.143ZM848.14 381.138C848.14 381.728 848.013 382.216 847.76 382.601C847.507 382.986 847.153 383.274 846.699 383.465C846.244 383.652 845.716 383.745 845.114 383.745H844.289V386.281H842.485V378.657H844.883C845.918 378.657 846.719 378.862 847.287 379.273C847.856 379.684 848.14 380.305 848.14 381.138ZM851.695 380.247C852.296 380.247 852.808 380.375 853.23 380.632C853.651 380.889 853.974 381.25 854.198 381.716C854.422 382.178 854.533 382.72 854.533 383.344C854.533 383.993 854.42 384.552 854.192 385.022C853.969 385.488 853.646 385.845 853.224 386.094C852.802 386.344 852.293 386.469 851.695 386.469C851.101 386.469 850.591 386.346 850.166 386.1C849.744 385.854 849.419 385.499 849.192 385.033C848.968 384.567 848.856 384.008 848.856 383.355C848.856 382.735 848.968 382.192 849.192 381.727C849.419 381.261 849.744 380.898 850.166 380.637C850.591 380.377 851.101 380.247 851.695 380.247ZM851.695 381.529C851.339 381.529 851.075 381.675 850.903 381.969C850.734 382.258 850.65 382.72 850.65 383.355C850.65 384 850.734 384.468 850.903 384.758C851.075 385.047 851.339 385.192 851.695 385.192C852.051 385.192 852.313 385.047 852.482 384.758C852.654 384.468 852.74 383.997 852.74 383.344C852.74 382.713 852.654 382.253 852.482 381.963C852.313 381.673 852.051 381.529 851.695 381.529ZM855.816 386.281V385.115H856.587V381.595H855.816V380.439H857.912L858.231 381.754C858.44 381.252 858.706 380.878 859.029 380.632C859.355 380.386 859.753 380.263 860.223 380.263C860.421 380.263 860.597 380.28 860.751 380.313C860.905 380.342 861.05 380.384 861.185 380.439L860.657 381.875C860.551 381.846 860.445 381.824 860.338 381.809C860.232 381.794 860.115 381.787 859.986 381.787C859.605 381.787 859.269 381.943 858.98 382.255C858.693 382.566 858.475 382.962 858.325 383.443V385.115H859.48V386.281H855.816ZM859.772 382.882V381.176L860.03 380.439H861.185L860.861 382.882H859.772ZM867.617 385.94C867.39 386.087 867.115 386.212 866.792 386.315C866.47 386.417 866.107 386.469 865.703 386.469C864.94 386.469 864.374 386.274 864.003 385.885C863.633 385.493 863.448 384.961 863.448 384.29V381.639H862.221V380.439H863.448V379.174L865.186 378.965V380.439H867.067L866.897 381.639H865.186V384.29C865.186 384.58 865.252 384.787 865.384 384.912C865.516 385.036 865.727 385.099 866.017 385.099C866.222 385.099 866.409 385.075 866.578 385.027C866.75 384.976 866.904 384.912 867.04 384.835L867.617 385.94ZM872.526 380.439V385.093H874.011V386.281H869.131V385.093H870.787V381.628H869.187V380.439H872.526ZM871.475 377.381C871.776 377.381 872.021 377.474 872.212 377.661C872.403 377.848 872.498 378.081 872.498 378.36C872.498 378.639 872.403 378.873 872.212 379.064C872.021 379.251 871.776 379.345 871.475 379.345C871.171 379.345 870.921 379.251 870.727 379.064C870.536 378.873 870.441 378.639 870.441 378.36C870.441 378.081 870.536 377.848 870.727 377.661C870.921 377.474 871.171 377.381 871.475 377.381ZM878.6 378.118V384.444C878.6 384.679 878.666 384.848 878.798 384.95C878.934 385.049 879.119 385.099 879.354 385.099C879.504 385.099 879.649 385.082 879.788 385.049C879.928 385.013 880.058 384.97 880.179 384.923L880.597 386.083C880.399 386.186 880.161 386.276 879.882 386.353C879.603 386.43 879.279 386.469 878.908 386.469C878.204 386.469 877.687 386.267 877.357 385.863C877.027 385.456 876.862 384.912 876.862 384.23V379.306H875.14V378.118H878.6ZM885.197 378.118V384.444C885.197 384.679 885.263 384.848 885.395 384.95C885.531 385.049 885.716 385.099 885.951 385.099C886.101 385.099 886.246 385.082 886.385 385.049C886.525 385.013 886.655 384.97 886.776 384.923L887.194 386.083C886.996 386.186 886.758 386.276 886.479 386.353C886.2 386.43 885.876 386.469 885.505 386.469C884.801 386.469 884.284 386.267 883.954 385.863C883.624 385.456 883.459 384.912 883.459 384.23V379.306H881.737V378.118H885.197ZM893.665 384.598C893.665 384.818 893.694 384.978 893.753 385.077C893.815 385.176 893.914 385.251 894.05 385.302L893.692 386.447C893.347 386.414 893.056 386.338 892.817 386.221C892.583 386.1 892.397 385.918 892.262 385.676C892.038 385.944 891.752 386.144 891.404 386.276C891.055 386.404 890.699 386.469 890.336 386.469C889.735 386.469 889.255 386.298 888.895 385.957C888.539 385.612 888.361 385.17 888.361 384.631C888.361 383.997 888.609 383.507 889.104 383.162C889.603 382.818 890.303 382.645 891.206 382.645H891.992V382.425C891.992 382.121 891.893 381.895 891.695 381.749C891.501 381.602 891.215 381.529 890.837 381.529C890.65 381.529 890.41 381.556 890.116 381.611C889.823 381.662 889.53 381.738 889.236 381.837L888.835 380.681C889.212 380.538 889.605 380.43 890.012 380.357C890.423 380.283 890.789 380.247 891.112 380.247C891.981 380.247 892.623 380.425 893.037 380.78C893.456 381.132 893.665 381.642 893.665 382.31V384.598ZM890.936 385.225C891.123 385.225 891.319 385.17 891.525 385.06C891.73 384.947 891.886 384.787 891.992 384.582V383.635H891.563C891.079 383.635 890.723 383.711 890.496 383.861C890.269 384.008 890.155 384.224 890.155 384.51C890.155 384.734 890.223 384.91 890.358 385.038C890.498 385.163 890.69 385.225 890.936 385.225Z" fill="black"/>
<path fill-rule="evenodd" clip-rule="evenodd" d="M166 103.486H220.29V76.9092H166V103.486Z" fill="#AFABAB" stroke="white" stroke-width="1.24123"/>
<path fill-rule="evenodd" clip-rule="evenodd" d="M223.623 73.5772H277.913V47H223.623V73.5772Z" fill="#150458" stroke="white" stroke-width="1.24123"/>
<path fill-rule="evenodd" clip-rule="evenodd" d="M223.623 103.486H277.913V76.9092H223.623V103.486Z" fill="#AFABAB" fill-opacity="0.392157" stroke="white" stroke-width="1.24123"/>
<path fill-rule="evenodd" clip-rule="evenodd" d="M166 131.18H220.29V104.603H166V131.18Z" fill="#AFABAB" stroke="white" stroke-width="1.24123"/>
<path fill-rule="evenodd" clip-rule="evenodd" d="M223.623 131.18H277.913V104.603H223.623V131.18Z" fill="#AFABAB" fill-opacity="0.392157" stroke="white" stroke-width="1.24123"/>
<path fill-rule="evenodd" clip-rule="evenodd" d="M279.029 73.5772H333.319V47H279.029V73.5772Z" fill="#150458" stroke="white" stroke-width="1.24123"/>
<path fill-rule="evenodd" clip-rule="evenodd" d="M279.029 103.486H333.319V76.9092H279.029V103.486Z" fill="#AFABAB" fill-opacity="0.392157" stroke="white" stroke-width="1.24123"/>
<path fill-rule="evenodd" clip-rule="evenodd" d="M279.029 131.18H333.319V104.603H279.029V131.18Z" fill="#AFABAB" fill-opacity="0.392157" stroke="white" stroke-width="1.24123"/>
<path fill-rule="evenodd" clip-rule="evenodd" d="M166 158.874H220.29V132.297H166V158.874Z" fill="#AFABAB" stroke="white" stroke-width="1.24123"/>
<path fill-rule="evenodd" clip-rule="evenodd" d="M223.623 158.874H277.913V132.297H223.623V158.874Z" fill="#AFABAB" fill-opacity="0.392157" stroke="white" stroke-width="1.24123"/>
<path fill-rule="evenodd" clip-rule="evenodd" d="M279.029 158.874H333.319V132.297H279.029V158.874Z" fill="#AFABAB" fill-opacity="0.392157" stroke="white" stroke-width="1.24123"/>
<path fill-rule="evenodd" clip-rule="evenodd" d="M334.436 158.874H388.725V132.297H334.436V158.874Z" fill="#AFABAB" fill-opacity="0.392157" stroke="white" stroke-width="1.24123"/>
<path fill-rule="evenodd" clip-rule="evenodd" d="M334.436 73.5772H388.725V47H334.436V73.5772Z" fill="#150458" stroke="white" stroke-width="1.24123"/>
<path fill-rule="evenodd" clip-rule="evenodd" d="M334.436 103.486H388.725V76.9092H334.436V103.486Z" fill="#AFABAB" fill-opacity="0.392157" stroke="white" stroke-width="1.24123"/>
<path fill-rule="evenodd" clip-rule="evenodd" d="M334.436 131.18H388.725V104.603H334.436V131.18Z" fill="#AFABAB" fill-opacity="0.392157" stroke="white" stroke-width="1.24123"/>
<path fill-rule="evenodd" clip-rule="evenodd" d="M389.842 158.874H444.132V132.297H389.842V158.874Z" fill="#AFABAB" fill-opacity="0.392157" stroke="white" stroke-width="1.24123"/>
<path fill-rule="evenodd" clip-rule="evenodd" d="M389.842 73.5772H444.132V47H389.842V73.5772Z" fill="#150458" stroke="white" stroke-width="1.24123"/>
<path fill-rule="evenodd" clip-rule="evenodd" d="M389.842 103.486H444.132V76.9092H389.842V103.486Z" fill="#AFABAB" fill-opacity="0.392157" stroke="white" stroke-width="1.24123"/>
<path fill-rule="evenodd" clip-rule="evenodd" d="M389.842 131.18H444.132V104.603H389.842V131.18Z" fill="#AFABAB" fill-opacity="0.392157" stroke="white" stroke-width="1.24123"/>
<path fill-rule="evenodd" clip-rule="evenodd" d="M166 313.486H220.29V286.909H166V313.486Z" fill="#585858" stroke="white" stroke-width="1.24123"/>
<path fill-rule="evenodd" clip-rule="evenodd" d="M223.623 283.577H277.913V257H223.623V283.577Z" fill="#150458" stroke="white" stroke-width="1.24123"/>
<path fill-rule="evenodd" clip-rule="evenodd" d="M223.623 313.486H277.913V286.909H223.623V313.486Z" fill="#868686" stroke="white" stroke-width="1.24123"/>
<path fill-rule="evenodd" clip-rule="evenodd" d="M166 341.18H220.29V314.603H166V341.18Z" fill="#585858" stroke="white" stroke-width="1.24123"/>
<path fill-rule="evenodd" clip-rule="evenodd" d="M223.623 341.18H277.913V314.603H223.623V341.18Z" fill="#868686" stroke="white" stroke-width="1.24123"/>
<path fill-rule="evenodd" clip-rule="evenodd" d="M279.029 283.577H333.319V257H279.029V283.577Z" fill="#150458" stroke="white" stroke-width="1.24123"/>
<path fill-rule="evenodd" clip-rule="evenodd" d="M279.029 313.486H333.319V286.909H279.029V313.486Z" fill="#868686" stroke="white" stroke-width="1.24123"/>
<path fill-rule="evenodd" clip-rule="evenodd" d="M279.029 341.18H333.319V314.603H279.029V341.18Z" fill="#868686" stroke="white" stroke-width="1.24123"/>
<path fill-rule="evenodd" clip-rule="evenodd" d="M334.436 283.577H388.725V257H334.436V283.577Z" fill="#150458" stroke="white" stroke-width="1.24123"/>
<path fill-rule="evenodd" clip-rule="evenodd" d="M334.436 313.486H388.725V286.909H334.436V313.486Z" fill="#868686" stroke="white" stroke-width="1.24123"/>
<path fill-rule="evenodd" clip-rule="evenodd" d="M334.436 341.18H388.725V314.603H334.436V341.18Z" fill="#868686" stroke="white" stroke-width="1.24123"/>
<path fill-rule="evenodd" clip-rule="evenodd" d="M389.842 283.577H444.132V257H389.842V283.577Z" fill="#150458" stroke="white" stroke-width="1.24123"/>
<path fill-rule="evenodd" clip-rule="evenodd" d="M389.842 313.486H444.132V286.909H389.842V313.486Z" fill="#868686" stroke="white" stroke-width="1.24123"/>
<path fill-rule="evenodd" clip-rule="evenodd" d="M389.842 341.18H444.132V314.603H389.842V341.18Z" fill="#868686" stroke="white" stroke-width="1.24123"/>
<path fill-rule="evenodd" clip-rule="evenodd" d="M983 172.486H1037.29V145.909H983V172.486Z" fill="#AFABAB" stroke="white" stroke-width="1.24123"/>
<path fill-rule="evenodd" clip-rule="evenodd" d="M1040.62 142.577H1094.91V116H1040.62V142.577Z" fill="#150458" stroke="white" stroke-width="1.24123"/>
<path fill-rule="evenodd" clip-rule="evenodd" d="M1040.62 172.486H1094.91V145.909H1040.62V172.486Z" fill="#AFABAB" fill-opacity="0.392157" stroke="white" stroke-width="1.24123"/>
<path fill-rule="evenodd" clip-rule="evenodd" d="M983 200.18H1037.29V173.603H983V200.18Z" fill="#AFABAB" stroke="white" stroke-width="1.24123"/>
<path fill-rule="evenodd" clip-rule="evenodd" d="M1040.62 200.18H1094.91V173.603H1040.62V200.18Z" fill="#AFABAB" fill-opacity="0.392157" stroke="white" stroke-width="1.24123"/>
<path fill-rule="evenodd" clip-rule="evenodd" d="M1096.03 142.577H1150.32V116H1096.03V142.577Z" fill="#150458" stroke="white" stroke-width="1.24123"/>
<path fill-rule="evenodd" clip-rule="evenodd" d="M1096.03 172.486H1150.32V145.909H1096.03V172.486Z" fill="#AFABAB" fill-opacity="0.392157" stroke="white" stroke-width="1.24123"/>
<path fill-rule="evenodd" clip-rule="evenodd" d="M1096.03 200.18H1150.32V173.603H1096.03V200.18Z" fill="#AFABAB" fill-opacity="0.392157" stroke="white" stroke-width="1.24123"/>
<path fill-rule="evenodd" clip-rule="evenodd" d="M983 227.873H1037.29V201.296H983V227.873Z" fill="#AFABAB" stroke="white" stroke-width="1.24123"/>
<path fill-rule="evenodd" clip-rule="evenodd" d="M1040.62 227.873H1094.91V201.296H1040.62V227.873Z" fill="#AFABAB" fill-opacity="0.392157" stroke="white" stroke-width="1.24123"/>
<path fill-rule="evenodd" clip-rule="evenodd" d="M1096.03 227.873H1150.32V201.296H1096.03V227.873Z" fill="#AFABAB" fill-opacity="0.392157" stroke="white" stroke-width="1.24123"/>
<path fill-rule="evenodd" clip-rule="evenodd" d="M1151.44 227.873H1205.73V201.296H1151.44V227.873Z" fill="#AFABAB" fill-opacity="0.392157" stroke="white" stroke-width="1.24123"/>
<path fill-rule="evenodd" clip-rule="evenodd" d="M1151.44 142.577H1205.73V116H1151.44V142.577Z" fill="#150458" stroke="white" stroke-width="1.24123"/>
<path fill-rule="evenodd" clip-rule="evenodd" d="M1151.44 172.486H1205.73V145.909H1151.44V172.486Z" fill="#AFABAB" fill-opacity="0.392157" stroke="white" stroke-width="1.24123"/>
<path fill-rule="evenodd" clip-rule="evenodd" d="M1151.44 200.18H1205.73V173.603H1151.44V200.18Z" fill="#AFABAB" fill-opacity="0.392157" stroke="white" stroke-width="1.24123"/>
<path fill-rule="evenodd" clip-rule="evenodd" d="M1206.84 227.873H1261.13V201.296H1206.84V227.873Z" fill="#AFABAB" fill-opacity="0.392157" stroke="white" stroke-width="1.24123"/>
<path fill-rule="evenodd" clip-rule="evenodd" d="M1206.84 142.577H1261.13V116H1206.84V142.577Z" fill="#150458" stroke="white" stroke-width="1.24123"/>
<path fill-rule="evenodd" clip-rule="evenodd" d="M1206.84 172.486H1261.13V145.909H1206.84V172.486Z" fill="#AFABAB" fill-opacity="0.392157" stroke="white" stroke-width="1.24123"/>
<path fill-rule="evenodd" clip-rule="evenodd" d="M1206.84 200.18H1261.13V173.603H1206.84V200.18Z" fill="#AFABAB" fill-opacity="0.392157" stroke="white" stroke-width="1.24123"/>
<path fill-rule="evenodd" clip-rule="evenodd" d="M983 255.567H1037.29V228.99H983V255.567Z" fill="#585858" stroke="white" stroke-width="1.24123"/>
<path fill-rule="evenodd" clip-rule="evenodd" d="M1040.62 255.567H1094.91V228.99H1040.62V255.567Z" fill="#868686" stroke="white" stroke-width="1.24123"/>
<path fill-rule="evenodd" clip-rule="evenodd" d="M983 283.261H1037.29V256.684H983V283.261Z" fill="#585858" stroke="white" stroke-width="1.24123"/>
<path fill-rule="evenodd" clip-rule="evenodd" d="M1040.62 283.261H1094.91V256.684H1040.62V283.261Z" fill="#868686" stroke="white" stroke-width="1.24123"/>
<path fill-rule="evenodd" clip-rule="evenodd" d="M1096.03 255.567H1150.32V228.99H1096.03V255.567Z" fill="#868686" stroke="white" stroke-width="1.24123"/>
<path fill-rule="evenodd" clip-rule="evenodd" d="M1096.03 283.261H1150.32V256.684H1096.03V283.261Z" fill="#868686" stroke="white" stroke-width="1.24123"/>
<path fill-rule="evenodd" clip-rule="evenodd" d="M1151.44 255.567H1205.73V228.99H1151.44V255.567Z" fill="#868686" stroke="white" stroke-width="1.24123"/>
<path fill-rule="evenodd" clip-rule="evenodd" d="M1151.44 283.261H1205.73V256.684H1151.44V283.261Z" fill="#868686" stroke="white" stroke-width="1.24123"/>
<path fill-rule="evenodd" clip-rule="evenodd" d="M1206.84 255.567H1261.13V228.99H1206.84V255.567Z" fill="#868686" stroke="white" stroke-width="1.24123"/>
<path fill-rule="evenodd" clip-rule="evenodd" d="M1206.84 283.261H1261.13V256.684H1206.84V283.261Z" fill="#868686" stroke="white" stroke-width="1.24123"/>
<path d="M92.7901 105.08L97.147 105.542V130H93.2852L93.0211 127.937C92.482 128.707 91.8054 129.329 90.9912 129.802C90.1771 130.264 89.2309 130.495 88.1526 130.495C86.6783 130.495 85.4571 130.11 84.4889 129.34C83.5317 128.57 82.8166 127.491 82.3435 126.105C81.8814 124.708 81.6503 123.085 81.6503 121.237C81.6503 119.454 81.9254 117.87 82.4755 116.484C83.0256 115.097 83.8178 114.008 84.852 113.216C85.8972 112.424 87.1349 112.028 88.5652 112.028C89.4234 112.028 90.2046 112.176 90.9087 112.473C91.6128 112.771 92.24 113.211 92.7901 113.794V105.08ZM89.737 115.279C88.6367 115.279 87.7676 115.758 87.1294 116.715C86.5023 117.661 86.1887 119.174 86.1887 121.253C86.1887 122.717 86.3208 123.888 86.5848 124.768C86.8489 125.638 87.223 126.265 87.7071 126.65C88.1912 127.035 88.7633 127.227 89.4234 127.227C90.1495 127.227 90.7877 127.013 91.3378 126.584C91.8989 126.144 92.383 125.599 92.7901 124.95V116.995C92.383 116.456 91.9264 116.038 91.4203 115.741C90.9252 115.433 90.3641 115.279 89.737 115.279ZM113.291 105.08C114.457 105.08 115.491 105.173 116.393 105.361C117.296 105.548 118.115 105.801 118.852 106.12L117.598 109.057C117.015 108.815 116.404 108.639 115.766 108.529C115.128 108.419 114.49 108.364 113.852 108.364C112.752 108.364 111.949 108.573 111.442 108.991C110.947 109.398 110.7 110.053 110.7 110.955V113.711H116.476L115.997 116.83H110.7V130H106.359V116.83H102.514V113.711H106.359V110.856C106.359 109.723 106.634 108.727 107.185 107.869C107.735 107 108.527 106.318 109.561 105.823C110.606 105.328 111.85 105.08 113.291 105.08ZM132.933 107.176V129.34H128.659V111.566L123.791 114.586L121.926 111.566L129.088 107.176H132.933ZM137.373 126.65V130H123.13V126.65H137.373Z" fill="#276A9B"/>
<path d="M513.684 194.028C515.225 194.028 516.457 194.407 517.381 195.167C518.316 195.915 518.993 196.976 519.411 198.352C519.84 199.727 520.055 201.35 520.055 203.22C520.055 205.014 519.796 206.609 519.279 208.006C518.762 209.403 518.003 210.504 517.002 211.307C516.011 212.099 514.79 212.495 513.338 212.495C511.555 212.495 510.114 211.862 509.014 210.597V218.733L504.657 219.195V194.523H508.486L508.717 196.652C509.41 195.75 510.186 195.09 511.044 194.672C511.902 194.242 512.782 194.028 513.684 194.028ZM512.414 197.296C511.676 197.296 511.027 197.516 510.466 197.956C509.916 198.396 509.432 198.94 509.014 199.589V207.412C509.41 208.006 509.861 208.452 510.367 208.749C510.873 209.046 511.445 209.194 512.084 209.194C513.195 209.194 514.042 208.732 514.625 207.808C515.219 206.873 515.516 205.36 515.516 203.27C515.516 201.795 515.395 200.624 515.153 199.755C514.922 198.874 514.576 198.247 514.113 197.873C513.651 197.488 513.085 197.296 512.414 197.296ZM534.581 187.08L538.938 187.542V212H535.076L534.812 209.937C534.273 210.707 533.596 211.329 532.782 211.802C531.968 212.264 531.022 212.495 529.944 212.495C528.469 212.495 527.248 212.11 526.28 211.34C525.323 210.57 524.608 209.491 524.135 208.105C523.672 206.708 523.441 205.085 523.441 203.237C523.441 201.454 523.716 199.87 524.267 198.484C524.817 197.097 525.609 196.008 526.643 195.216C527.688 194.424 528.926 194.028 530.356 194.028C531.215 194.028 531.996 194.176 532.7 194.473C533.404 194.771 534.031 195.211 534.581 195.794V187.08ZM531.528 197.279C530.428 197.279 529.559 197.758 528.921 198.715C528.293 199.661 527.98 201.174 527.98 203.253C527.98 204.717 528.112 205.888 528.376 206.768C528.64 207.638 529.014 208.265 529.498 208.65C529.982 209.035 530.554 209.227 531.215 209.227C531.941 209.227 532.579 209.013 533.129 208.584C533.69 208.144 534.174 207.599 534.581 206.95V198.995C534.174 198.456 533.718 198.038 533.211 197.741C532.716 197.433 532.155 197.279 531.528 197.279ZM548.068 209.079C548.068 208.463 548.217 207.896 548.514 207.379C548.822 206.862 549.234 206.449 549.751 206.141C550.268 205.833 550.841 205.679 551.468 205.679C552.106 205.679 552.683 205.833 553.201 206.141C553.718 206.449 554.125 206.862 554.422 207.379C554.73 207.896 554.884 208.463 554.884 209.079C554.884 209.695 554.73 210.267 554.422 210.795C554.125 211.312 553.718 211.725 553.201 212.033C552.683 212.341 552.106 212.495 551.468 212.495C550.841 212.495 550.268 212.341 549.751 212.033C549.234 211.725 548.822 211.312 548.514 210.795C548.217 210.267 548.068 209.695 548.068 209.079ZM572.827 208.996C573.597 208.996 574.317 208.853 574.989 208.567C575.671 208.281 576.325 207.918 576.952 207.478L578.933 210.267C578.163 210.916 577.233 211.45 576.144 211.868C575.055 212.286 573.888 212.495 572.645 212.495C570.819 212.495 569.251 212.116 567.942 211.356C566.643 210.586 565.642 209.519 564.938 208.155C564.245 206.779 563.898 205.184 563.898 203.369C563.898 201.575 564.25 199.975 564.955 198.566C565.67 197.147 566.682 196.036 567.991 195.233C569.311 194.429 570.885 194.028 572.711 194.028C573.965 194.028 575.099 194.209 576.111 194.572C577.134 194.925 578.069 195.453 578.916 196.157L576.985 198.83C576.336 198.379 575.665 198.038 574.972 197.807C574.29 197.565 573.58 197.444 572.843 197.444C571.556 197.444 570.505 197.912 569.691 198.847C568.888 199.771 568.486 201.278 568.486 203.369C568.486 204.744 568.673 205.844 569.047 206.669C569.432 207.495 569.95 208.089 570.599 208.452C571.259 208.815 572.001 208.996 572.827 208.996ZM591.083 194.028C592.821 194.028 594.296 194.407 595.506 195.167C596.716 195.926 597.635 196.998 598.262 198.385C598.9 199.76 599.219 201.372 599.219 203.22C599.219 205.113 598.9 206.752 598.262 208.138C597.624 209.525 596.7 210.597 595.489 211.356C594.279 212.116 592.805 212.495 591.066 212.495C589.339 212.495 587.865 212.127 586.644 211.389C585.433 210.641 584.509 209.58 583.871 208.204C583.233 206.818 582.914 205.168 582.914 203.253C582.914 201.427 583.233 199.821 583.871 198.434C584.509 197.048 585.439 195.97 586.66 195.2C587.881 194.418 589.356 194.028 591.083 194.028ZM591.083 197.312C589.862 197.312 588.948 197.791 588.343 198.748C587.749 199.705 587.452 201.207 587.452 203.253C587.452 205.322 587.749 206.834 588.343 207.792C588.937 208.738 589.845 209.211 591.066 209.211C592.288 209.211 593.195 208.738 593.789 207.792C594.384 206.834 594.681 205.311 594.681 203.22C594.681 201.185 594.384 199.694 593.789 198.748C593.195 197.791 592.293 197.312 591.083 197.312ZM603.613 212V194.523H607.408L607.722 196.685C608.47 195.805 609.312 195.145 610.247 194.705C611.182 194.253 612.189 194.028 613.267 194.028C614.84 194.028 616.04 194.484 616.865 195.398C617.69 196.3 618.102 197.571 618.102 199.21V212H613.746V200.91C613.746 200.03 613.691 199.325 613.581 198.797C613.471 198.258 613.261 197.873 612.953 197.642C612.645 197.4 612.2 197.279 611.617 197.279C611.144 197.279 610.687 197.384 610.247 197.593C609.818 197.802 609.411 198.082 609.026 198.434C608.652 198.786 608.299 199.177 607.969 199.606V212H603.613ZM632.2 208.996C632.97 208.996 633.691 208.853 634.362 208.567C635.044 208.281 635.699 207.918 636.326 207.478L638.306 210.267C637.536 210.916 636.606 211.45 635.517 211.868C634.428 212.286 633.262 212.495 632.018 212.495C630.192 212.495 628.624 212.116 627.315 211.356C626.017 210.586 625.015 209.519 624.311 208.155C623.618 206.779 623.272 205.184 623.272 203.369C623.272 201.575 623.624 199.975 624.328 198.566C625.043 197.147 626.055 196.036 627.364 195.233C628.685 194.429 630.258 194.028 632.084 194.028C633.339 194.028 634.472 194.209 635.484 194.572C636.507 194.925 637.442 195.453 638.29 196.157L636.359 198.83C635.71 198.379 635.038 198.038 634.345 197.807C633.663 197.565 632.954 197.444 632.216 197.444C630.929 197.444 629.878 197.912 629.064 198.847C628.261 199.771 627.86 201.278 627.86 203.369C627.86 204.744 628.047 205.844 628.421 206.669C628.806 207.495 629.323 208.089 629.972 208.452C630.632 208.815 631.375 208.996 632.2 208.996ZM657.14 207.396C657.14 208.067 657.239 208.556 657.437 208.864C657.635 209.161 657.954 209.387 658.394 209.541L657.454 212.462C656.518 212.363 655.721 212.132 655.061 211.769C654.412 211.395 653.911 210.839 653.559 210.102C652.899 210.905 652.063 211.505 651.05 211.901C650.049 212.297 648.998 212.495 647.898 212.495C646.116 212.495 644.702 211.989 643.657 210.977C642.612 209.965 642.089 208.65 642.089 207.032C642.089 205.173 642.815 203.743 644.267 202.742C645.731 201.729 647.799 201.223 650.473 201.223H652.915V200.283C652.915 199.248 652.596 198.5 651.958 198.038C651.32 197.565 650.401 197.329 649.202 197.329C648.641 197.329 647.937 197.406 647.09 197.56C646.253 197.703 645.39 197.928 644.499 198.236L643.459 195.249C644.57 194.831 645.687 194.523 646.809 194.325C647.942 194.127 648.971 194.028 649.895 194.028C652.349 194.028 654.169 194.55 655.358 195.596C656.546 196.63 657.14 198.099 657.14 200.002V207.396ZM649.317 209.343C649.978 209.343 650.643 209.156 651.314 208.782C651.997 208.408 652.53 207.885 652.915 207.214V203.814H651.199C649.582 203.814 648.41 204.073 647.684 204.59C646.969 205.107 646.611 205.839 646.611 206.785C646.611 207.599 646.842 208.232 647.304 208.683C647.766 209.123 648.437 209.343 649.317 209.343ZM678.07 211.026C677.421 211.455 676.634 211.807 675.71 212.083C674.786 212.358 673.785 212.495 672.706 212.495C670.572 212.495 668.966 211.945 667.887 210.845C666.809 209.734 666.27 208.259 666.27 206.422V197.609H662.474V194.523H666.27V190.678L670.627 190.15V194.523H676.403L675.957 197.609H670.627V206.405C670.627 207.308 670.847 207.968 671.287 208.386C671.727 208.804 672.437 209.013 673.416 209.013C674.043 209.013 674.615 208.941 675.132 208.798C675.66 208.644 676.139 208.452 676.568 208.221L678.07 211.026ZM688.157 200.448C688.157 201.933 688.278 203.292 688.52 204.524C688.762 205.745 689.142 206.906 689.659 208.006C690.176 209.095 690.847 210.179 691.672 211.257C692.508 212.336 693.521 213.48 694.709 214.69L692.233 217.001C690.473 215.515 688.955 213.964 687.678 212.347C686.413 210.729 685.434 208.952 684.741 207.016C684.059 205.08 683.718 202.89 683.718 200.448C683.718 198.005 684.059 195.816 684.741 193.879C685.434 191.932 686.413 190.155 687.678 188.549C688.955 186.931 690.473 185.38 692.233 183.895L694.709 186.205C693.576 187.361 692.596 188.477 691.771 189.555C690.946 190.634 690.264 191.728 689.725 192.84C689.197 193.94 688.801 195.112 688.537 196.355C688.284 197.587 688.157 198.951 688.157 200.448ZM705.39 215.977V184.918H714.88V188.285H709.499V212.644H714.88V215.977H705.39ZM732.492 187.08L736.849 187.542V212H732.987L732.723 209.937C732.184 210.707 731.507 211.329 730.693 211.802C729.879 212.264 728.933 212.495 727.855 212.495C726.38 212.495 725.159 212.11 724.191 211.34C723.234 210.57 722.519 209.491 722.046 208.105C721.583 206.708 721.352 205.085 721.352 203.237C721.352 201.454 721.628 199.87 722.178 198.484C722.728 197.097 723.52 196.008 724.554 195.216C725.599 194.424 726.837 194.028 728.267 194.028C729.126 194.028 729.907 194.176 730.611 194.473C731.315 194.771 731.942 195.211 732.492 195.794V187.08ZM729.439 197.279C728.339 197.279 727.47 197.758 726.832 198.715C726.204 199.661 725.891 201.174 725.891 203.253C725.891 204.717 726.023 205.888 726.287 206.768C726.551 207.638 726.925 208.265 727.409 208.65C727.893 209.035 728.465 209.227 729.126 209.227C729.852 209.227 730.49 209.013 731.04 208.584C731.601 208.144 732.085 207.599 732.492 206.95V198.995C732.085 198.456 731.629 198.038 731.122 197.741C730.627 197.433 730.066 197.279 729.439 197.279ZM752.993 187.08C754.159 187.08 755.193 187.173 756.096 187.361C756.998 187.548 757.817 187.801 758.555 188.12L757.3 191.057C756.717 190.815 756.107 190.639 755.468 190.529C754.83 190.419 754.192 190.364 753.554 190.364C752.454 190.364 751.651 190.573 751.145 190.991C750.649 191.398 750.402 192.053 750.402 192.955V195.711H756.178L755.699 198.83H750.402V212H746.062V198.83H742.216V195.711H746.062V192.856C746.062 191.723 746.337 190.727 746.887 189.869C747.437 189 748.229 188.318 749.263 187.823C750.308 187.328 751.552 187.08 752.993 187.08ZM772.636 189.176V211.34H768.361V193.566L763.493 196.586L761.628 193.566L768.79 189.176H772.636ZM777.075 208.65V212H762.833V208.65H777.075ZM788.977 205.679C789.913 205.679 790.688 205.993 791.304 206.62C791.932 207.247 792.245 208.017 792.245 208.93C792.245 209.491 792.152 210.058 791.965 210.63C791.777 211.191 791.491 211.912 791.106 212.792L788.614 218.436H785.479L787.129 211.604C786.689 211.307 786.348 210.922 786.106 210.449C785.864 209.976 785.743 209.464 785.743 208.914C785.743 208.001 786.051 207.236 786.667 206.62C787.283 205.993 788.053 205.679 788.977 205.679ZM811.657 187.08L816.013 187.542V212H812.152L811.888 209.937C811.349 210.707 810.672 211.329 809.858 211.802C809.044 212.264 808.097 212.495 807.019 212.495C805.545 212.495 804.324 212.11 803.355 211.34C802.398 210.57 801.683 209.491 801.21 208.105C800.748 206.708 800.517 205.085 800.517 203.237C800.517 201.454 800.792 199.87 801.342 198.484C801.892 197.097 802.684 196.008 803.718 195.216C804.764 194.424 806.001 194.028 807.432 194.028C808.29 194.028 809.071 194.176 809.775 194.473C810.479 194.771 811.106 195.211 811.657 195.794V187.08ZM808.603 197.279C807.503 197.279 806.634 197.758 805.996 198.715C805.369 199.661 805.055 201.174 805.055 203.253C805.055 204.717 805.187 205.888 805.451 206.768C805.715 207.638 806.089 208.265 806.574 208.65C807.058 209.035 807.63 209.227 808.29 209.227C809.016 209.227 809.654 209.013 810.204 208.584C810.765 208.144 811.25 207.599 811.657 206.95V198.995C811.25 198.456 810.793 198.038 810.287 197.741C809.792 197.433 809.231 197.279 808.603 197.279ZM832.157 187.08C833.324 187.08 834.358 187.173 835.26 187.361C836.162 187.548 836.982 187.801 837.719 188.12L836.465 191.057C835.882 190.815 835.271 190.639 834.633 190.529C833.995 190.419 833.357 190.364 832.718 190.364C831.618 190.364 830.815 190.573 830.309 190.991C829.814 191.398 829.566 192.053 829.566 192.955V195.711H835.342L834.864 198.83H829.566V212H825.226V198.83H821.381V195.711H825.226V192.856C825.226 191.723 825.501 190.727 826.051 189.869C826.601 189 827.393 188.318 828.428 187.823C829.473 187.328 830.716 187.08 832.157 187.08ZM847.476 188.681C849.115 188.681 850.491 188.972 851.602 189.555C852.724 190.139 853.571 190.925 854.143 191.915C854.716 192.895 855.002 193.973 855.002 195.15C855.002 196.118 854.837 197.064 854.506 197.989C854.176 198.913 853.637 199.887 852.889 200.91C852.152 201.933 851.173 203.072 849.952 204.326C848.73 205.569 847.223 206.988 845.43 208.584H855.53L855.051 212H840.446V208.815C842.019 207.297 843.378 205.96 844.522 204.805C845.666 203.638 846.623 202.61 847.394 201.718C848.175 200.827 848.791 200.03 849.242 199.325C849.704 198.61 850.034 197.945 850.232 197.329C850.43 196.712 850.529 196.096 850.529 195.48C850.529 194.435 850.227 193.61 849.621 193.005C849.027 192.4 848.191 192.097 847.113 192.097C846.156 192.097 845.342 192.284 844.67 192.658C844.01 193.021 843.361 193.615 842.723 194.44L839.984 192.361C840.853 191.195 841.887 190.293 843.086 189.654C844.285 189.005 845.749 188.681 847.476 188.681ZM872.565 184.918V215.977H863.075V212.627H868.455V188.285H863.075V184.918H872.565ZM889.798 200.448C889.798 198.951 889.666 197.587 889.402 196.355C889.149 195.112 888.753 193.94 888.213 192.84C887.685 191.728 887.009 190.634 886.184 189.555C885.358 188.477 884.379 187.361 883.246 186.205L885.721 183.895C887.482 185.38 888.995 186.931 890.26 188.549C891.536 190.155 892.515 191.932 893.197 193.879C893.891 195.816 894.237 198.005 894.237 200.448C894.237 202.89 893.891 205.08 893.197 207.016C892.515 208.952 891.536 210.729 890.26 212.347C888.995 213.964 887.482 215.515 885.721 217.001L883.246 214.69C884.434 213.48 885.441 212.336 886.266 211.257C887.102 210.179 887.779 209.095 888.296 208.006C888.813 206.906 889.193 205.745 889.435 204.524C889.677 203.292 889.798 201.933 889.798 200.448Z" fill="black"/>
<path d="M92.7901 298.432L97.147 298.894V323.352H93.2852L93.0211 321.289C92.482 322.059 91.8054 322.681 90.9912 323.154C90.1771 323.616 89.2309 323.847 88.1526 323.847C86.6783 323.847 85.4571 323.462 84.4889 322.692C83.5317 321.922 82.8166 320.843 82.3435 319.457C81.8814 318.06 81.6503 316.437 81.6503 314.589C81.6503 312.806 81.9254 311.222 82.4755 309.836C83.0256 308.449 83.8178 307.36 84.852 306.568C85.8972 305.776 87.1349 305.38 88.5652 305.38C89.4234 305.38 90.2046 305.528 90.9087 305.825C91.6128 306.122 92.24 306.562 92.7901 307.146V298.432ZM89.737 308.631C88.6367 308.631 87.7676 309.109 87.1294 310.067C86.5023 311.013 86.1887 312.526 86.1887 314.605C86.1887 316.068 86.3208 317.24 86.5848 318.12C86.8489 318.989 87.223 319.617 87.7071 320.002C88.1912 320.387 88.7633 320.579 89.4234 320.579C90.1495 320.579 90.7877 320.365 91.3378 319.936C91.8989 319.496 92.383 318.951 92.7901 318.302V310.347C92.383 309.808 91.9264 309.39 91.4203 309.093C90.9252 308.785 90.3641 308.631 89.737 308.631ZM113.291 298.432C114.457 298.432 115.491 298.525 116.393 298.712C117.296 298.899 118.115 299.152 118.852 299.471L117.598 302.409C117.015 302.167 116.404 301.991 115.766 301.881C115.128 301.771 114.49 301.716 113.852 301.716C112.752 301.716 111.949 301.925 111.442 302.343C110.947 302.75 110.7 303.405 110.7 304.307V307.063H116.476L115.997 310.182H110.7V323.352H106.359V310.182H102.514V307.063H106.359V304.208C106.359 303.075 106.634 302.079 107.185 301.221C107.735 300.352 108.527 299.67 109.561 299.174C110.606 298.679 111.85 298.432 113.291 298.432ZM128.61 300.033C130.249 300.033 131.624 300.324 132.735 300.907C133.858 301.49 134.705 302.277 135.277 303.267C135.849 304.246 136.135 305.325 136.135 306.502C136.135 307.47 135.97 308.416 135.64 309.34C135.31 310.265 134.771 311.238 134.023 312.262C133.285 313.285 132.306 314.424 131.085 315.678C129.864 316.921 128.356 318.34 126.563 319.936H136.663L136.185 323.352H121.579V320.167C123.152 318.648 124.511 317.312 125.655 316.156C126.8 314.99 127.757 313.961 128.527 313.07C129.308 312.179 129.924 311.381 130.375 310.677C130.837 309.962 131.168 309.296 131.366 308.68C131.564 308.064 131.663 307.448 131.663 306.832C131.663 305.787 131.36 304.962 130.755 304.356C130.161 303.751 129.325 303.449 128.246 303.449C127.289 303.449 126.475 303.636 125.804 304.01C125.144 304.373 124.495 304.967 123.857 305.792L121.117 303.713C121.986 302.547 123.02 301.644 124.22 301.006C125.419 300.357 126.882 300.033 128.61 300.033Z" fill="#C90000"/>
<path d="M466 84.5C465.172 84.5 464.5 85.1716 464.5 86C464.5 86.8284 465.172 87.5 466 87.5V86V84.5ZM792 86H793.5V84.5H792V86ZM792 154.5L800.66 139.5H783.34L792 154.5ZM466 86V87.5H792V86V84.5H466V86ZM792 86H790.5V141H792H793.5V86H792Z" fill="#00194E"/>
<path d="M467 306C466.172 306 465.5 305.328 465.5 304.5C465.5 303.672 466.172 303 467 303V304.5V306ZM792 304.5H793.5V306H792V304.5ZM792 236L800.66 251H783.34L792 236ZM467 304.5V303H792V304.5V306H467V304.5ZM792 304.5H790.5V249.5H792H793.5V304.5H792Z" fill="#00194E"/>
<path d="M908.5 197.5C907.672 197.5 907 198.172 907 199C907 199.828 907.672 200.5 908.5 200.5V199V197.5ZM975.5 199L960.5 190.34V207.66L975.5 199ZM908.5 199V200.5H962V199V197.5H908.5V199Z" fill="#00194E"/>
</svg>
