<svg width="1400" height="300" viewBox="0 0 1400 300" fill="none" xmlns="http://www.w3.org/2000/svg">
<rect width="1400" height="300" fill="white"/>
<rect x="505.389" y="273.186" width="19.1617" height="19.1617" rx="3.74252" fill="#0037AC"/>
<path d="M512.812 278.191C512.685 277.882 512.246 277.882 512.119 278.192L511.92 278.678C511.882 278.769 511.882 278.871 511.919 278.962L514.593 285.522C514.693 285.768 514.512 286.037 514.246 286.037H511.585H510.687C510.421 286.037 510.24 285.767 510.341 285.521L510.802 284.397C510.839 284.306 510.84 284.204 510.803 284.114L510.593 283.599C510.466 283.288 510.027 283.288 509.9 283.598L508.643 286.659C508.542 286.905 508.723 287.175 508.989 287.175H515.942C516.208 287.175 516.389 286.905 516.288 286.659L512.812 278.191Z" fill="white"/>
<path d="M515.347 280.011C515.247 279.765 515.428 279.496 515.694 279.496H518.355H519.253C519.519 279.496 519.7 279.766 519.599 280.012L519.138 281.136C519.101 281.227 519.101 281.329 519.138 281.419L519.347 281.934C519.474 282.245 519.913 282.245 520.04 281.935L521.297 278.874C521.398 278.628 521.217 278.358 520.951 278.358H513.999C513.732 278.358 513.551 278.628 513.652 278.874L517.128 287.341C517.255 287.651 517.694 287.651 517.821 287.341L518.021 286.855C518.058 286.764 518.058 286.662 518.021 286.571L515.347 280.011Z" fill="white"/>
<path d="M536.369 284.455H533.656L533.128 286.281H531.83L534.245 278.69H535.829L538.25 286.281H536.897L536.369 284.455ZM533.921 283.47H536.099L535.015 279.68L533.921 283.47ZM540.545 280.472V284.532C540.545 284.877 540.613 285.123 540.749 285.269C540.888 285.416 541.097 285.489 541.376 285.489C541.64 285.489 541.895 285.41 542.14 285.253C542.386 285.095 542.58 284.903 542.723 284.675V280.472H543.956V286.281H542.894L542.817 285.539C542.601 285.829 542.327 286.05 541.997 286.204C541.667 286.355 541.33 286.43 540.985 286.43C540.424 286.43 540.004 286.276 539.725 285.968C539.45 285.656 539.313 285.229 539.313 284.686V280.472H540.545ZM550.762 285.973C550.549 286.109 550.294 286.219 549.997 286.303C549.7 286.388 549.39 286.43 549.067 286.43C548.393 286.43 547.879 286.256 547.527 285.907C547.179 285.555 547.005 285.093 547.005 284.521V281.369H545.712V280.472H547.005V279.174L548.237 279.026V280.472H550.195L550.058 281.369H548.237V284.51C548.237 284.822 548.314 285.055 548.468 285.209C548.626 285.359 548.882 285.434 549.238 285.434C549.451 285.434 549.647 285.409 549.827 285.357C550.006 285.306 550.17 285.24 550.316 285.159L550.762 285.973ZM554.834 280.318C555.402 280.318 555.881 280.445 556.27 280.698C556.658 280.951 556.952 281.305 557.15 281.76C557.352 282.214 557.452 282.75 557.452 283.366C557.452 283.978 557.35 284.516 557.144 284.978C556.943 285.436 556.646 285.794 556.253 286.05C555.864 286.303 555.389 286.43 554.828 286.43C554.267 286.43 553.79 286.307 553.398 286.061C553.009 285.812 552.712 285.458 552.507 285C552.305 284.541 552.204 284 552.204 283.377C552.204 282.772 552.305 282.24 552.507 281.782C552.712 281.323 553.011 280.966 553.404 280.709C553.796 280.448 554.273 280.318 554.834 280.318ZM554.834 281.275C554.39 281.275 554.056 281.446 553.833 281.787C553.609 282.124 553.497 282.654 553.497 283.377C553.497 284.096 553.607 284.626 553.827 284.967C554.051 285.308 554.385 285.478 554.828 285.478C555.272 285.478 555.604 285.308 555.824 284.967C556.048 284.626 556.16 284.092 556.16 283.366C556.16 282.651 556.05 282.124 555.83 281.787C555.609 281.446 555.278 281.275 554.834 281.275ZM559.159 286.281V285.401H560.012V281.347H559.159V280.472H560.952L561.178 281.82C561.394 281.332 561.662 280.962 561.981 280.709C562.304 280.452 562.718 280.324 563.224 280.324C563.397 280.324 563.551 280.338 563.686 280.368C563.826 280.393 563.963 280.428 564.099 280.472L563.73 281.529C563.613 281.496 563.503 281.472 563.4 281.457C563.298 281.439 563.184 281.43 563.059 281.43C562.637 281.43 562.273 281.587 561.964 281.903C561.66 282.218 561.42 282.665 561.244 283.245V285.401H562.416V286.281H559.159ZM563.01 282.612V281.182L563.164 280.472H564.099L563.89 282.612H563.01ZM567.027 285.434C567.027 285.167 567.122 284.937 567.313 284.747C567.503 284.552 567.738 284.455 568.017 284.455C568.299 284.455 568.534 284.552 568.721 284.747C568.912 284.937 569.007 285.167 569.007 285.434C569.007 285.709 568.912 285.944 568.721 286.138C568.534 286.333 568.299 286.43 568.017 286.43C567.738 286.43 567.503 286.333 567.313 286.138C567.122 285.944 567.027 285.709 567.027 285.434ZM567.027 281.529C567.027 281.349 567.071 281.184 567.159 281.033C567.247 280.883 567.366 280.764 567.516 280.676C567.667 280.588 567.834 280.544 568.017 280.544C568.299 280.544 568.534 280.641 568.721 280.835C568.912 281.026 569.007 281.257 569.007 281.529C569.007 281.8 568.912 282.035 568.721 282.233C568.534 282.427 568.299 282.524 568.017 282.524C567.738 282.524 567.503 282.427 567.313 282.233C567.122 282.035 567.027 281.8 567.027 281.529ZM583.714 278.657V283.536C583.714 283.98 583.646 284.382 583.51 284.741C583.375 285.101 583.175 285.407 582.911 285.66C582.65 285.913 582.33 286.107 581.948 286.243C581.57 286.379 581.138 286.447 580.65 286.447C580.158 286.447 579.733 286.384 579.374 286.259C579.018 286.131 578.675 285.955 578.345 285.731L579.033 284.62C579.293 284.8 579.537 284.926 579.764 285C579.992 285.069 580.25 285.104 580.54 285.104C580.932 285.104 581.259 284.98 581.519 284.73C581.783 284.477 581.915 284.087 581.915 283.558V279.977H579.572V278.657H583.714ZM587.814 280.247C588.415 280.247 588.927 280.375 589.348 280.632C589.77 280.889 590.093 281.25 590.317 281.716C590.54 282.178 590.652 282.72 590.652 283.344C590.652 283.993 590.538 284.552 590.311 285.022C590.087 285.488 589.765 285.845 589.343 286.094C588.921 286.344 588.411 286.469 587.814 286.469C587.219 286.469 586.71 286.346 586.284 286.1C585.862 285.854 585.538 285.499 585.311 285.033C585.087 284.567 584.975 284.008 584.975 283.355C584.975 282.735 585.087 282.192 585.311 281.727C585.538 281.261 585.862 280.898 586.284 280.637C586.71 280.377 587.219 280.247 587.814 280.247ZM587.814 281.529C587.458 281.529 587.194 281.675 587.021 281.969C586.853 282.258 586.768 282.72 586.768 283.355C586.768 284 586.853 284.468 587.021 284.758C587.194 285.047 587.458 285.192 587.814 285.192C588.169 285.192 588.431 285.047 588.6 284.758C588.773 284.468 588.859 283.997 588.859 283.344C588.859 282.713 588.773 282.253 588.6 281.963C588.431 281.673 588.169 281.529 587.814 281.529ZM594.224 285.225C594.513 285.225 594.746 285.179 594.922 285.088C595.102 284.996 595.192 284.859 595.192 284.675C595.192 284.55 595.157 284.446 595.087 284.362C595.018 284.277 594.884 284.197 594.686 284.12C594.488 284.043 594.194 283.951 593.805 283.845C593.45 283.749 593.134 283.628 592.859 283.481C592.588 283.335 592.375 283.146 592.221 282.915C592.071 282.684 591.996 282.396 591.996 282.051C591.996 281.703 592.093 281.393 592.287 281.121C592.481 280.85 592.768 280.637 593.145 280.483C593.523 280.326 593.985 280.247 594.532 280.247C595.052 280.247 595.505 280.315 595.89 280.45C596.279 280.582 596.615 280.751 596.897 280.956L596.204 281.98C595.962 281.829 595.701 281.71 595.423 281.622C595.144 281.53 594.863 281.485 594.581 281.485C594.299 281.485 594.088 281.523 593.948 281.6C593.813 281.673 593.745 281.785 593.745 281.936C593.745 282.035 593.78 282.121 593.849 282.194C593.923 282.264 594.058 282.337 594.257 282.414C594.455 282.488 594.744 282.579 595.126 282.689C595.503 282.796 595.832 282.918 596.11 283.058C596.393 283.197 596.611 283.384 596.765 283.619C596.919 283.85 596.996 284.156 596.996 284.538C596.996 284.963 596.87 285.321 596.616 285.61C596.363 285.896 596.028 286.111 595.61 286.254C595.192 286.397 594.733 286.469 594.235 286.469C593.67 286.469 593.171 286.388 592.738 286.226C592.305 286.065 591.937 285.852 591.632 285.588L592.507 284.609C592.735 284.785 592.991 284.932 593.277 285.049C593.567 285.167 593.882 285.225 594.224 285.225ZM599.984 283.867C600.025 284.186 600.107 284.444 600.232 284.642C600.36 284.837 600.523 284.98 600.722 285.071C600.92 285.159 601.141 285.203 601.387 285.203C601.655 285.203 601.913 285.159 602.163 285.071C602.412 284.983 602.652 284.866 602.883 284.719L603.582 285.665C603.307 285.9 602.973 286.093 602.581 286.243C602.192 286.393 601.748 286.469 601.25 286.469C600.582 286.469 600.023 286.337 599.572 286.072C599.121 285.805 598.781 285.438 598.554 284.972C598.327 284.506 598.213 283.971 598.213 283.366C598.213 282.79 598.323 282.268 598.543 281.798C598.763 281.325 599.084 280.949 599.506 280.67C599.931 280.388 600.45 280.247 601.063 280.247C601.62 280.247 602.102 280.366 602.509 280.604C602.92 280.843 603.237 281.186 603.461 281.633C603.688 282.08 603.802 282.618 603.802 283.245C603.802 283.344 603.798 283.45 603.791 283.564C603.787 283.678 603.78 283.778 603.769 283.867H599.984ZM601.063 281.413C600.751 281.413 600.5 281.525 600.309 281.749C600.118 281.972 600.003 282.33 599.962 282.821H602.108C602.104 282.396 602.022 282.055 601.86 281.798C601.699 281.541 601.433 281.413 601.063 281.413ZM608.309 280.247C608.819 280.247 609.229 280.373 609.541 280.626C609.853 280.879 610.08 281.237 610.223 281.699C610.37 282.161 610.443 282.709 610.443 283.344C610.443 283.945 610.355 284.483 610.179 284.956C610.003 285.425 609.748 285.796 609.414 286.067C609.081 286.335 608.675 286.469 608.199 286.469C607.63 286.469 607.168 286.265 606.812 285.858V288.537L605.074 288.718V280.439H606.614L606.691 281.094C606.93 280.79 607.19 280.573 607.473 280.445C607.755 280.313 608.034 280.247 608.309 280.247ZM607.77 281.529C607.568 281.529 607.39 281.589 607.236 281.71C607.082 281.831 606.941 281.996 606.812 282.205V284.67C606.933 284.849 607.06 284.981 607.192 285.066C607.328 285.15 607.487 285.192 607.671 285.192C607.979 285.192 608.219 285.053 608.391 284.774C608.564 284.492 608.65 284.022 608.65 283.366C608.65 282.882 608.615 282.508 608.545 282.244C608.476 281.976 608.375 281.791 608.243 281.688C608.111 281.582 607.953 281.529 607.77 281.529ZM613.409 277.947V281.017C613.655 280.757 613.921 280.564 614.207 280.439C614.497 280.311 614.803 280.247 615.126 280.247C615.647 280.247 616.045 280.399 616.32 280.703C616.595 281.008 616.732 281.437 616.732 281.991V286.281H614.994V282.475C614.994 282.123 614.953 281.877 614.873 281.738C614.796 281.598 614.649 281.529 614.433 281.529C614.312 281.529 614.192 281.558 614.075 281.617C613.961 281.672 613.85 281.752 613.74 281.859C613.63 281.965 613.52 282.091 613.409 282.238V286.281H611.671V278.118L613.409 277.947ZM630.344 284.054C630.344 284.527 630.22 284.945 629.97 285.308C629.725 285.671 629.371 285.955 628.909 286.16C628.446 286.366 627.891 286.469 627.242 286.469C626.523 286.469 625.92 286.364 625.432 286.155C624.948 285.942 624.546 285.68 624.227 285.368L625.14 284.356C625.423 284.602 625.734 284.793 626.075 284.928C626.417 285.06 626.791 285.126 627.198 285.126C627.451 285.126 627.673 285.09 627.863 285.016C628.054 284.943 628.203 284.837 628.309 284.697C628.415 284.558 628.468 284.389 628.468 284.191C628.468 284.004 628.426 283.846 628.342 283.718C628.258 283.59 628.115 283.474 627.913 283.371C627.715 283.269 627.438 283.164 627.082 283.058C626.488 282.874 626.009 282.673 625.646 282.453C625.287 282.233 625.025 281.978 624.86 281.688C624.698 281.398 624.618 281.061 624.618 280.676C624.618 280.21 624.746 279.812 625.003 279.482C625.263 279.152 625.612 278.901 626.048 278.728C626.484 278.552 626.965 278.464 627.489 278.464C628.08 278.464 628.6 278.551 629.052 278.723C629.503 278.892 629.893 279.134 630.223 279.449L629.371 280.428C629.114 280.212 628.837 280.052 628.54 279.95C628.243 279.843 627.94 279.79 627.632 279.79C627.405 279.79 627.205 279.82 627.033 279.878C626.86 279.933 626.726 280.016 626.631 280.126C626.536 280.236 626.488 280.373 626.488 280.538C626.488 280.7 626.534 280.835 626.626 280.945C626.717 281.055 626.877 281.16 627.104 281.259C627.332 281.354 627.647 281.466 628.05 281.595C628.531 281.741 628.942 281.917 629.283 282.123C629.627 282.324 629.89 282.579 630.069 282.887C630.253 283.195 630.344 283.584 630.344 284.054ZM636.38 284.598C636.38 284.818 636.41 284.978 636.468 285.077C636.531 285.176 636.63 285.251 636.765 285.302L636.408 286.447C636.063 286.414 635.771 286.338 635.533 286.221C635.298 286.1 635.113 285.918 634.977 285.676C634.754 285.944 634.468 286.144 634.119 286.276C633.771 286.404 633.415 286.469 633.052 286.469C632.451 286.469 631.97 286.298 631.611 285.957C631.255 285.612 631.077 285.17 631.077 284.631C631.077 283.997 631.325 283.507 631.82 283.162C632.319 282.818 633.019 282.645 633.921 282.645H634.708V282.425C634.708 282.121 634.609 281.895 634.411 281.749C634.216 281.602 633.93 281.529 633.553 281.529C633.366 281.529 633.125 281.556 632.832 281.611C632.539 281.662 632.245 281.738 631.952 281.837L631.55 280.681C631.928 280.538 632.32 280.43 632.727 280.357C633.138 280.283 633.505 280.247 633.828 280.247C634.697 280.247 635.339 280.425 635.753 280.78C636.171 281.132 636.38 281.642 636.38 282.31V284.598ZM633.652 285.225C633.839 285.225 634.035 285.17 634.24 285.06C634.446 284.947 634.602 284.787 634.708 284.582V283.635H634.279C633.795 283.635 633.439 283.711 633.212 283.861C632.984 284.008 632.871 284.224 632.871 284.51C632.871 284.734 632.938 284.91 633.074 285.038C633.213 285.163 633.406 285.225 633.652 285.225ZM638.059 286.281V280.439H639.578L639.699 281.116C639.959 280.823 640.234 280.604 640.524 280.461C640.813 280.318 641.144 280.247 641.514 280.247C642.013 280.247 642.405 280.399 642.691 280.703C642.977 281.008 643.12 281.437 643.12 281.991V286.281H641.382V282.491C641.382 282.253 641.365 282.064 641.332 281.925C641.299 281.782 641.241 281.681 641.156 281.622C641.076 281.56 640.964 281.529 640.821 281.529C640.7 281.529 640.581 281.556 640.463 281.611C640.35 281.662 640.238 281.738 640.128 281.837C640.018 281.936 639.908 282.055 639.798 282.194V286.281H638.059ZM649.915 285.94C649.688 286.087 649.413 286.212 649.09 286.315C648.767 286.417 648.404 286.469 648.001 286.469C647.238 286.469 646.672 286.274 646.301 285.885C645.931 285.493 645.746 284.961 645.746 284.29V281.639H644.519V280.439H645.746V279.174L647.484 278.965V280.439H649.365L649.195 281.639H647.484V284.29C647.484 284.58 647.55 284.787 647.682 284.912C647.814 285.036 648.025 285.099 648.315 285.099C648.52 285.099 648.707 285.075 648.876 285.027C649.048 284.976 649.202 284.912 649.338 284.835L649.915 285.94ZM654.824 280.439V285.093H656.309V286.281H651.429V285.093H653.085V281.628H651.484V280.439H654.824ZM653.773 277.381C654.074 277.381 654.319 277.474 654.51 277.661C654.701 277.848 654.796 278.081 654.796 278.36C654.796 278.639 654.701 278.873 654.51 279.064C654.319 279.251 654.074 279.345 653.773 279.345C653.468 279.345 653.219 279.251 653.025 279.064C652.834 278.873 652.739 278.639 652.739 278.36C652.739 278.081 652.834 277.848 653.025 277.661C653.219 277.474 653.468 277.381 653.773 277.381ZM662.768 284.598C662.768 284.818 662.798 284.978 662.856 285.077C662.919 285.176 663.018 285.251 663.153 285.302L662.796 286.447C662.451 286.414 662.16 286.338 661.921 286.221C661.686 286.1 661.501 285.918 661.366 285.676C661.142 285.944 660.856 286.144 660.507 286.276C660.159 286.404 659.803 286.469 659.44 286.469C658.839 286.469 658.358 286.298 657.999 285.957C657.643 285.612 657.465 285.17 657.465 284.631C657.465 283.997 657.713 283.507 658.208 283.162C658.707 282.818 659.407 282.645 660.309 282.645H661.096V282.425C661.096 282.121 660.997 281.895 660.799 281.749C660.605 281.602 660.319 281.529 659.941 281.529C659.754 281.529 659.514 281.556 659.22 281.611C658.927 281.662 658.633 281.738 658.34 281.837L657.938 280.681C658.316 280.538 658.709 280.43 659.116 280.357C659.526 280.283 659.893 280.247 660.216 280.247C661.085 280.247 661.727 280.425 662.141 280.78C662.559 281.132 662.768 281.642 662.768 282.31V284.598ZM660.04 285.225C660.227 285.225 660.423 285.17 660.628 285.06C660.834 284.947 660.99 284.787 661.096 284.582V283.635H660.667C660.183 283.635 659.827 283.711 659.6 283.861C659.372 284.008 659.259 284.224 659.259 284.51C659.259 284.734 659.327 284.91 659.462 285.038C659.602 285.163 659.794 285.225 660.04 285.225ZM669.635 279.504L670.042 280.78C669.837 280.861 669.596 280.92 669.321 280.956C669.046 280.993 668.725 281.011 668.359 281.011C668.725 281.169 669.004 281.365 669.195 281.6C669.389 281.831 669.486 282.135 669.486 282.513C669.486 282.891 669.386 283.228 669.184 283.525C668.982 283.819 668.696 284.05 668.326 284.219C667.955 284.387 667.517 284.472 667.011 284.472C666.886 284.472 666.769 284.466 666.659 284.455C666.549 284.444 666.441 284.428 666.334 284.406C666.272 284.439 666.224 284.486 666.191 284.549C666.158 284.611 666.142 284.675 666.142 284.741C666.142 284.833 666.178 284.915 666.252 284.989C666.329 285.062 666.507 285.099 666.785 285.099H667.743C668.197 285.099 668.59 285.172 668.92 285.319C669.254 285.465 669.512 285.665 669.695 285.918C669.879 286.171 669.971 286.461 669.971 286.788C669.971 287.385 669.708 287.857 669.184 288.201C668.659 288.546 667.88 288.718 666.846 288.718C666.098 288.718 665.518 288.641 665.108 288.487C664.7 288.337 664.416 288.121 664.255 287.838C664.097 287.56 664.018 287.228 664.018 286.843H665.559C665.559 287.011 665.592 287.149 665.658 287.255C665.727 287.365 665.858 287.446 666.048 287.497C666.243 287.549 666.523 287.574 666.89 287.574C667.26 287.574 667.543 287.545 667.737 287.486C667.931 287.428 668.063 287.347 668.133 287.244C668.206 287.145 668.243 287.033 668.243 286.909C668.243 286.736 668.175 286.597 668.04 286.491C667.904 286.384 667.689 286.331 667.396 286.331H666.466C665.836 286.331 665.377 286.215 665.091 285.984C664.805 285.75 664.662 285.476 664.662 285.165C664.662 284.948 664.719 284.743 664.832 284.549C664.95 284.354 665.113 284.191 665.322 284.059C664.948 283.861 664.68 283.628 664.519 283.36C664.358 283.089 664.277 282.764 664.277 282.387C664.277 281.947 664.389 281.569 664.612 281.253C664.836 280.934 665.144 280.689 665.537 280.516C665.933 280.344 666.384 280.258 666.89 280.258C667.326 280.265 667.706 280.236 668.029 280.17C668.351 280.1 668.641 280.007 668.898 279.889C669.155 279.768 669.4 279.64 669.635 279.504ZM666.934 281.386C666.659 281.386 666.441 281.474 666.279 281.65C666.118 281.822 666.037 282.06 666.037 282.365C666.037 282.687 666.12 282.935 666.285 283.107C666.45 283.28 666.666 283.366 666.934 283.366C667.224 283.366 667.444 283.28 667.594 283.107C667.748 282.935 667.825 282.68 667.825 282.343C667.825 282.016 667.75 281.776 667.6 281.622C667.449 281.464 667.227 281.386 666.934 281.386ZM673.575 280.247C674.176 280.247 674.688 280.375 675.11 280.632C675.532 280.889 675.854 281.25 676.078 281.716C676.302 282.178 676.414 282.72 676.414 283.344C676.414 283.993 676.3 284.552 676.072 285.022C675.849 285.488 675.526 285.845 675.104 286.094C674.683 286.344 674.173 286.469 673.575 286.469C672.981 286.469 672.471 286.346 672.046 286.1C671.624 285.854 671.299 285.499 671.072 285.033C670.848 284.567 670.736 284.008 670.736 283.355C670.736 282.735 670.848 282.192 671.072 281.727C671.299 281.261 671.624 280.898 672.046 280.637C672.471 280.377 672.981 280.247 673.575 280.247ZM673.575 281.529C673.219 281.529 672.955 281.675 672.783 281.969C672.614 282.258 672.53 282.72 672.53 283.355C672.53 284 672.614 284.468 672.783 284.758C672.955 285.047 673.219 285.192 673.575 285.192C673.931 285.192 674.193 285.047 674.362 284.758C674.534 284.468 674.62 283.997 674.62 283.344C674.62 282.713 674.534 282.253 674.362 281.963C674.193 281.673 673.931 281.529 673.575 281.529ZM687.952 281.143C687.952 280.872 687.9 280.648 687.798 280.472C687.699 280.293 687.547 280.161 687.341 280.076C687.139 279.988 686.885 279.944 686.576 279.944H685.96V282.436H686.67C686.938 282.436 687.167 282.39 687.358 282.299C687.548 282.207 687.695 282.066 687.798 281.875C687.9 281.684 687.952 281.441 687.952 281.143ZM689.811 281.138C689.811 281.728 689.685 282.216 689.432 282.601C689.179 282.986 688.825 283.274 688.37 283.465C687.915 283.652 687.387 283.745 686.786 283.745H685.96V286.281H684.156V278.657H686.554C687.589 278.657 688.39 278.862 688.958 279.273C689.527 279.684 689.811 280.305 689.811 281.138ZM693.366 280.247C693.968 280.247 694.479 280.375 694.901 280.632C695.323 280.889 695.645 281.25 695.869 281.716C696.093 282.178 696.205 282.72 696.205 283.344C696.205 283.993 696.091 284.552 695.864 285.022C695.64 285.488 695.317 285.845 694.895 286.094C694.474 286.344 693.964 286.469 693.366 286.469C692.772 286.469 692.262 286.346 691.837 286.1C691.415 285.854 691.09 285.499 690.863 285.033C690.639 284.567 690.527 284.008 690.527 283.355C690.527 282.735 690.639 282.192 690.863 281.727C691.09 281.261 691.415 280.898 691.837 280.637C692.262 280.377 692.772 280.247 693.366 280.247ZM693.366 281.529C693.01 281.529 692.746 281.675 692.574 281.969C692.405 282.258 692.321 282.72 692.321 283.355C692.321 284 692.405 284.468 692.574 284.758C692.746 285.047 693.01 285.192 693.366 285.192C693.722 285.192 693.984 285.047 694.153 284.758C694.325 284.468 694.411 283.997 694.411 283.344C694.411 282.713 694.325 282.253 694.153 281.963C693.984 281.673 693.722 281.529 693.366 281.529ZM697.488 286.281V285.115H698.258V281.595H697.488V280.439H699.584L699.903 281.754C700.112 281.252 700.377 280.878 700.7 280.632C701.027 280.386 701.425 280.263 701.894 280.263C702.092 280.263 702.268 280.28 702.422 280.313C702.576 280.342 702.721 280.384 702.857 280.439L702.329 281.875C702.222 281.846 702.116 281.824 702.009 281.809C701.903 281.794 701.786 281.787 701.657 281.787C701.276 281.787 700.94 281.943 700.651 282.255C700.365 282.566 700.146 282.962 699.996 283.443V285.115H701.151V286.281H697.488ZM701.443 282.882V281.176L701.701 280.439H702.857L702.532 282.882H701.443ZM709.289 285.94C709.061 286.087 708.786 286.212 708.464 286.315C708.141 286.417 707.778 286.469 707.374 286.469C706.611 286.469 706.045 286.274 705.674 285.885C705.304 285.493 705.119 284.961 705.119 284.29V281.639H703.892V280.439H705.119V279.174L706.857 278.965V280.439H708.739L708.568 281.639H706.857V284.29C706.857 284.58 706.923 284.787 707.055 284.912C707.187 285.036 707.398 285.099 707.688 285.099C707.893 285.099 708.08 285.075 708.249 285.027C708.421 284.976 708.575 284.912 708.711 284.835L709.289 285.94ZM714.197 280.439V285.093H715.682V286.281H710.803V285.093H712.459V281.628H710.858V280.439H714.197ZM713.146 277.381C713.447 277.381 713.693 277.474 713.883 277.661C714.074 277.848 714.169 278.081 714.169 278.36C714.169 278.639 714.074 278.873 713.883 279.064C713.693 279.251 713.447 279.345 713.146 279.345C712.842 279.345 712.592 279.251 712.398 279.064C712.207 278.873 712.112 278.639 712.112 278.36C712.112 278.081 712.207 277.848 712.398 277.661C712.592 277.474 712.842 277.381 713.146 277.381ZM720.271 278.118V284.444C720.271 284.679 720.337 284.848 720.469 284.95C720.605 285.049 720.79 285.099 721.025 285.099C721.175 285.099 721.32 285.082 721.46 285.049C721.599 285.013 721.729 284.97 721.85 284.923L722.268 286.083C722.07 286.186 721.832 286.276 721.553 286.353C721.274 286.43 720.95 286.469 720.579 286.469C719.875 286.469 719.358 286.267 719.028 285.863C718.698 285.456 718.533 284.912 718.533 284.23V279.306H716.811V278.118H720.271ZM726.868 278.118V284.444C726.868 284.679 726.934 284.848 727.066 284.95C727.202 285.049 727.387 285.099 727.622 285.099C727.772 285.099 727.917 285.082 728.057 285.049C728.196 285.013 728.326 284.97 728.447 284.923L728.865 286.083C728.667 286.186 728.429 286.276 728.15 286.353C727.871 286.43 727.547 286.469 727.176 286.469C726.472 286.469 725.955 286.267 725.625 285.863C725.295 285.456 725.13 284.912 725.13 284.23V279.306H723.408V278.118H726.868ZM735.336 284.598C735.336 284.818 735.365 284.978 735.424 285.077C735.486 285.176 735.585 285.251 735.721 285.302L735.363 286.447C735.019 286.414 734.727 286.338 734.489 286.221C734.254 286.1 734.069 285.918 733.933 285.676C733.709 285.944 733.423 286.144 733.075 286.276C732.726 286.404 732.371 286.469 732.008 286.469C731.406 286.469 730.926 286.298 730.566 285.957C730.211 285.612 730.033 285.17 730.033 284.631C730.033 283.997 730.28 283.507 730.775 283.162C731.274 282.818 731.975 282.645 732.877 282.645H733.663V282.425C733.663 282.121 733.564 281.895 733.366 281.749C733.172 281.602 732.886 281.529 732.508 281.529C732.321 281.529 732.081 281.556 731.788 281.611C731.494 281.662 731.201 281.738 730.907 281.837L730.506 280.681C730.884 280.538 731.276 280.43 731.683 280.357C732.094 280.283 732.46 280.247 732.783 280.247C733.652 280.247 734.294 280.425 734.709 280.78C735.127 281.132 735.336 281.642 735.336 282.31V284.598ZM732.607 285.225C732.794 285.225 732.99 285.17 733.196 285.06C733.401 284.947 733.557 284.787 733.663 284.582V283.635H733.234C732.75 283.635 732.394 283.711 732.167 283.861C731.94 284.008 731.826 284.224 731.826 284.51C731.826 284.734 731.894 284.91 732.03 285.038C732.169 285.163 732.361 285.225 732.607 285.225ZM737.163 283.514V282.161H741.927V283.514H737.163ZM748.821 278.657L749.25 286.281H747.677L747.584 283.019C747.576 282.715 747.573 282.444 747.573 282.205C747.576 281.967 747.582 281.743 747.589 281.534C747.596 281.321 747.607 281.109 747.622 280.896C747.64 280.68 747.659 280.445 747.677 280.192L746.819 284.983H745.455L744.531 280.192C744.553 280.434 744.571 280.663 744.586 280.879C744.604 281.092 744.617 281.307 744.624 281.523C744.631 281.739 744.637 281.972 744.641 282.222C744.644 282.467 744.642 282.742 744.635 283.047L744.58 286.281H743.034L743.463 278.657H745.317L746.164 283.586L746.967 278.657H748.821ZM755.127 284.598C755.127 284.818 755.156 284.978 755.215 285.077C755.277 285.176 755.376 285.251 755.512 285.302L755.154 286.447C754.81 286.414 754.518 286.338 754.28 286.221C754.045 286.1 753.86 285.918 753.724 285.676C753.5 285.944 753.214 286.144 752.866 286.276C752.517 286.404 752.162 286.469 751.799 286.469C751.197 286.469 750.717 286.298 750.357 285.957C750.002 285.612 749.824 285.17 749.824 284.631C749.824 283.997 750.071 283.507 750.566 283.162C751.065 282.818 751.766 282.645 752.668 282.645H753.455V282.425C753.455 282.121 753.355 281.895 753.157 281.749C752.963 281.602 752.677 281.529 752.299 281.529C752.112 281.529 751.872 281.556 751.579 281.611C751.285 281.662 750.992 281.738 750.698 281.837L750.297 280.681C750.675 280.538 751.067 280.43 751.474 280.357C751.885 280.283 752.252 280.247 752.574 280.247C753.443 280.247 754.085 280.425 754.5 280.78C754.918 281.132 755.127 281.642 755.127 282.31V284.598ZM752.398 285.225C752.585 285.225 752.782 285.17 752.987 285.06C753.192 284.947 753.348 284.787 753.455 284.582V283.635H753.025C752.541 283.635 752.186 283.711 751.958 283.861C751.731 284.008 751.617 284.224 751.617 284.51C751.617 284.734 751.685 284.91 751.821 285.038C751.96 285.163 752.153 285.225 752.398 285.225ZM756.861 286.281V285.115H757.631V281.595H756.861V280.439H758.957L759.276 281.754C759.485 281.252 759.751 280.878 760.074 280.632C760.4 280.386 760.798 280.263 761.267 280.263C761.465 280.263 761.641 280.28 761.795 280.313C761.949 280.342 762.094 280.384 762.23 280.439L761.702 281.875C761.596 281.846 761.489 281.824 761.383 281.809C761.276 281.794 761.159 281.787 761.031 281.787C760.649 281.787 760.314 281.943 760.024 282.255C759.738 282.566 759.52 282.962 759.369 283.443V285.115H760.525V286.281H756.861ZM760.816 282.882V281.176L761.075 280.439H762.23L761.905 282.882H760.816ZM768.662 285.94C768.435 286.087 768.16 286.212 767.837 286.315C767.514 286.417 767.151 286.469 766.748 286.469C765.985 286.469 765.418 286.274 765.048 285.885C764.677 285.493 764.492 284.961 764.492 284.29V281.639H763.265V280.439H764.492V279.174L766.23 278.965V280.439H768.112L767.941 281.639H766.23V284.29C766.23 284.58 766.297 284.787 766.429 284.912C766.561 285.036 766.771 285.099 767.061 285.099C767.267 285.099 767.454 285.075 767.622 285.027C767.795 284.976 767.949 284.912 768.084 284.835L768.662 285.94ZM773.57 280.439V285.093H775.055V286.281H770.176V285.093H771.832V281.628H770.231V280.439H773.57ZM773.356 277.095L774.032 278.404L771.436 279.433L770.957 278.552L773.356 277.095ZM776.597 286.281V280.439H778.115L778.236 281.116C778.497 280.823 778.772 280.604 779.061 280.461C779.351 280.318 779.681 280.247 780.052 280.247C780.55 280.247 780.943 280.399 781.229 280.703C781.515 281.008 781.658 281.437 781.658 281.991V286.281H779.92V282.491C779.92 282.253 779.903 282.064 779.87 281.925C779.837 281.782 779.778 281.681 779.694 281.622C779.613 281.56 779.502 281.529 779.359 281.529C779.238 281.529 779.118 281.556 779.001 281.611C778.887 281.662 778.775 281.738 778.665 281.837C778.555 281.936 778.445 282.055 778.335 282.194V286.281H776.597ZM784.701 283.867C784.742 284.186 784.824 284.444 784.949 284.642C785.077 284.837 785.24 284.98 785.438 285.071C785.637 285.159 785.858 285.203 786.104 285.203C786.372 285.203 786.63 285.159 786.88 285.071C787.129 284.983 787.369 284.866 787.6 284.719L788.299 285.665C788.024 285.9 787.69 286.093 787.298 286.243C786.909 286.393 786.465 286.469 785.967 286.469C785.299 286.469 784.74 286.337 784.289 286.072C783.838 285.805 783.498 285.438 783.271 284.972C783.044 284.506 782.93 283.971 782.93 283.366C782.93 282.79 783.04 282.268 783.26 281.798C783.48 281.325 783.801 280.949 784.223 280.67C784.648 280.388 785.167 280.247 785.78 280.247C786.337 280.247 786.819 280.366 787.226 280.604C787.637 280.843 787.954 281.186 788.178 281.633C788.405 282.08 788.519 282.618 788.519 283.245C788.519 283.344 788.515 283.45 788.508 283.564C788.504 283.678 788.497 283.778 788.486 283.867H784.701ZM785.78 281.413C785.468 281.413 785.217 281.525 785.026 281.749C784.835 281.972 784.72 282.33 784.679 282.821H786.825C786.821 282.396 786.739 282.055 786.577 281.798C786.416 281.541 786.15 281.413 785.78 281.413ZM791.865 284.967H794.792L794.627 286.281H789.813V285.055L792.712 281.749H790.055V280.439H794.737V281.661L791.865 284.967ZM806.077 276.379V289.582H804.955V276.379H806.077ZM818.545 278.536C819.095 278.536 819.564 278.617 819.953 278.778C820.342 278.936 820.663 279.158 820.916 279.444C821.172 279.726 821.372 280.06 821.515 280.445C821.658 280.83 821.759 281.248 821.818 281.699C821.876 282.15 821.906 282.618 821.906 283.102C821.906 284.026 821.862 284.8 821.774 285.423C821.686 286.043 821.521 286.509 821.279 286.821C821.04 287.136 820.696 287.294 820.245 287.294C820.024 287.294 819.832 287.244 819.667 287.145C819.506 287.046 819.372 286.918 819.265 286.76C819.163 286.606 819.084 286.439 819.029 286.259C818.977 286.076 818.948 285.904 818.941 285.742H818.897C818.823 285.918 818.723 286.087 818.594 286.248C818.466 286.41 818.303 286.542 818.105 286.645C817.907 286.747 817.664 286.799 817.378 286.799C816.968 286.799 816.638 286.689 816.388 286.469C816.139 286.252 815.957 285.953 815.844 285.572C815.73 285.19 815.673 284.76 815.673 284.279C815.673 283.344 815.864 282.631 816.245 282.139C816.627 281.644 817.179 281.397 817.901 281.397C818.172 281.397 818.44 281.43 818.704 281.496C818.972 281.558 819.26 281.672 819.568 281.837V285.104C819.568 285.453 819.595 285.722 819.65 285.913C819.705 286.104 819.781 286.236 819.876 286.309C819.975 286.382 820.087 286.419 820.211 286.419C820.358 286.419 820.472 286.344 820.553 286.193C820.637 286.043 820.697 285.827 820.734 285.544C820.771 285.258 820.793 284.914 820.8 284.51C820.807 284.107 820.811 283.652 820.811 283.146C820.811 282.603 820.78 282.106 820.718 281.655C820.659 281.2 820.547 280.808 820.382 280.478C820.221 280.148 819.99 279.893 819.689 279.713C819.388 279.533 818.998 279.444 818.517 279.444C818.147 279.444 817.756 279.513 817.345 279.653C816.938 279.792 816.509 280.06 816.058 280.456L815.464 279.768C815.963 279.335 816.467 279.022 816.977 278.827C817.49 278.633 818.013 278.536 818.545 278.536ZM817.918 282.233C817.496 282.233 817.208 282.398 817.054 282.728C816.9 283.054 816.823 283.571 816.823 284.279C816.823 284.631 816.845 284.932 816.889 285.181C816.933 285.431 817.01 285.621 817.12 285.753C817.23 285.885 817.378 285.951 817.565 285.951C817.789 285.951 817.963 285.9 818.088 285.797C818.213 285.695 818.306 285.574 818.369 285.434C818.431 285.291 818.479 285.167 818.512 285.06V282.376C818.413 282.324 818.317 282.288 818.226 282.266C818.134 282.244 818.031 282.233 817.918 282.233ZM827.804 278.657V283.536C827.804 283.98 827.736 284.382 827.601 284.741C827.465 285.101 827.265 285.407 827.001 285.66C826.741 285.913 826.42 286.107 826.038 286.243C825.661 286.379 825.228 286.447 824.74 286.447C824.249 286.447 823.823 286.384 823.464 286.259C823.108 286.131 822.765 285.955 822.435 285.731L823.123 284.62C823.383 284.8 823.627 284.926 823.854 285C824.082 285.069 824.34 285.104 824.63 285.104C825.023 285.104 825.349 284.98 825.609 284.73C825.873 284.477 826.005 284.087 826.005 283.558V279.977H823.662V278.657H827.804ZM831.904 280.247C832.505 280.247 833.017 280.375 833.439 280.632C833.86 280.889 834.183 281.25 834.407 281.716C834.63 282.178 834.742 282.72 834.742 283.344C834.742 283.993 834.629 284.552 834.401 285.022C834.178 285.488 833.855 285.845 833.433 286.094C833.011 286.344 832.502 286.469 831.904 286.469C831.31 286.469 830.8 286.346 830.374 286.1C829.953 285.854 829.628 285.499 829.401 285.033C829.177 284.567 829.065 284.008 829.065 283.355C829.065 282.735 829.177 282.192 829.401 281.727C829.628 281.261 829.953 280.898 830.374 280.637C830.8 280.377 831.31 280.247 831.904 280.247ZM831.904 281.529C831.548 281.529 831.284 281.675 831.112 281.969C830.943 282.258 830.859 282.72 830.859 283.355C830.859 284 830.943 284.468 831.112 284.758C831.284 285.047 831.548 285.192 831.904 285.192C832.259 285.192 832.522 285.047 832.69 284.758C832.863 284.468 832.949 283.997 832.949 283.344C832.949 282.713 832.863 282.253 832.69 281.963C832.522 281.673 832.259 281.529 831.904 281.529ZM837.478 283.867C837.518 284.186 837.6 284.444 837.725 284.642C837.854 284.837 838.017 284.98 838.215 285.071C838.413 285.159 838.635 285.203 838.88 285.203C839.148 285.203 839.407 285.159 839.656 285.071C839.905 284.983 840.146 284.866 840.377 284.719L841.075 285.665C840.8 285.9 840.467 286.093 840.074 286.243C839.685 286.393 839.242 286.469 838.743 286.469C838.075 286.469 837.516 286.337 837.065 286.072C836.614 285.805 836.275 285.438 836.047 284.972C835.82 284.506 835.706 283.971 835.706 283.366C835.706 282.79 835.816 282.268 836.036 281.798C836.256 281.325 836.577 280.949 836.999 280.67C837.424 280.388 837.943 280.247 838.556 280.247C839.113 280.247 839.596 280.366 840.003 280.604C840.413 280.843 840.731 281.186 840.954 281.633C841.182 282.08 841.295 282.618 841.295 283.245C841.295 283.344 841.292 283.45 841.284 283.564C841.281 283.678 841.273 283.778 841.262 283.867H837.478ZM838.556 281.413C838.244 281.413 837.993 281.525 837.802 281.749C837.611 281.972 837.496 282.33 837.456 282.821H839.601C839.597 282.396 839.515 282.055 839.353 281.798C839.192 281.541 838.926 281.413 838.556 281.413ZM846.281 281.143C846.281 280.872 846.229 280.648 846.127 280.472C846.028 280.293 845.875 280.161 845.67 280.076C845.468 279.988 845.213 279.944 844.905 279.944H844.289V282.436H844.999C845.267 282.436 845.496 282.39 845.686 282.299C845.877 282.207 846.024 282.066 846.127 281.875C846.229 281.684 846.281 281.441 846.281 281.143ZM848.14 281.138C848.14 281.728 848.013 282.216 847.76 282.601C847.507 282.986 847.153 283.274 846.699 283.465C846.244 283.652 845.716 283.745 845.114 283.745H844.289V286.281H842.485V278.657H844.883C845.918 278.657 846.719 278.862 847.287 279.273C847.856 279.684 848.14 280.305 848.14 281.138ZM851.695 280.247C852.296 280.247 852.808 280.375 853.23 280.632C853.651 280.889 853.974 281.25 854.198 281.716C854.422 282.178 854.533 282.72 854.533 283.344C854.533 283.993 854.42 284.552 854.192 285.022C853.969 285.488 853.646 285.845 853.224 286.094C852.802 286.344 852.293 286.469 851.695 286.469C851.101 286.469 850.591 286.346 850.166 286.1C849.744 285.854 849.419 285.499 849.192 285.033C848.968 284.567 848.856 284.008 848.856 283.355C848.856 282.735 848.968 282.192 849.192 281.727C849.419 281.261 849.744 280.898 850.166 280.637C850.591 280.377 851.101 280.247 851.695 280.247ZM851.695 281.529C851.339 281.529 851.075 281.675 850.903 281.969C850.734 282.258 850.65 282.72 850.65 283.355C850.65 284 850.734 284.468 850.903 284.758C851.075 285.047 851.339 285.192 851.695 285.192C852.051 285.192 852.313 285.047 852.482 284.758C852.654 284.468 852.74 283.997 852.74 283.344C852.74 282.713 852.654 282.253 852.482 281.963C852.313 281.673 852.051 281.529 851.695 281.529ZM855.816 286.281V285.115H856.587V281.595H855.816V280.439H857.912L858.231 281.754C858.44 281.252 858.706 280.878 859.029 280.632C859.355 280.386 859.753 280.263 860.223 280.263C860.421 280.263 860.597 280.28 860.751 280.313C860.905 280.342 861.05 280.384 861.185 280.439L860.657 281.875C860.551 281.846 860.445 281.824 860.338 281.809C860.232 281.794 860.115 281.787 859.986 281.787C859.605 281.787 859.269 281.943 858.98 282.255C858.693 282.566 858.475 282.962 858.325 283.443V285.115H859.48V286.281H855.816ZM859.772 282.882V281.176L860.03 280.439H861.185L860.861 282.882H859.772ZM867.617 285.94C867.39 286.087 867.115 286.212 866.792 286.315C866.47 286.417 866.107 286.469 865.703 286.469C864.94 286.469 864.374 286.274 864.003 285.885C863.633 285.493 863.448 284.961 863.448 284.29V281.639H862.221V280.439H863.448V279.174L865.186 278.965V280.439H867.067L866.897 281.639H865.186V284.29C865.186 284.58 865.252 284.787 865.384 284.912C865.516 285.036 865.727 285.099 866.017 285.099C866.222 285.099 866.409 285.075 866.578 285.027C866.75 284.976 866.904 284.912 867.04 284.835L867.617 285.94ZM872.526 280.439V285.093H874.011V286.281H869.131V285.093H870.787V281.628H869.187V280.439H872.526ZM871.475 277.381C871.776 277.381 872.021 277.474 872.212 277.661C872.403 277.848 872.498 278.081 872.498 278.36C872.498 278.639 872.403 278.873 872.212 279.064C872.021 279.251 871.776 279.345 871.475 279.345C871.171 279.345 870.921 279.251 870.727 279.064C870.536 278.873 870.441 278.639 870.441 278.36C870.441 278.081 870.536 277.848 870.727 277.661C870.921 277.474 871.171 277.381 871.475 277.381ZM878.6 278.118V284.444C878.6 284.679 878.666 284.848 878.798 284.95C878.934 285.049 879.119 285.099 879.354 285.099C879.504 285.099 879.649 285.082 879.788 285.049C879.928 285.013 880.058 284.97 880.179 284.923L880.597 286.083C880.399 286.186 880.161 286.276 879.882 286.353C879.603 286.43 879.279 286.469 878.908 286.469C878.204 286.469 877.687 286.267 877.357 285.863C877.027 285.456 876.862 284.912 876.862 284.23V279.306H875.14V278.118H878.6ZM885.197 278.118V284.444C885.197 284.679 885.263 284.848 885.395 284.95C885.531 285.049 885.716 285.099 885.951 285.099C886.101 285.099 886.246 285.082 886.385 285.049C886.525 285.013 886.655 284.97 886.776 284.923L887.194 286.083C886.996 286.186 886.758 286.276 886.479 286.353C886.2 286.43 885.876 286.469 885.505 286.469C884.801 286.469 884.284 286.267 883.954 285.863C883.624 285.456 883.459 284.912 883.459 284.23V279.306H881.737V278.118H885.197ZM893.665 284.598C893.665 284.818 893.694 284.978 893.753 285.077C893.815 285.176 893.914 285.251 894.05 285.302L893.692 286.447C893.347 286.414 893.056 286.338 892.817 286.221C892.583 286.1 892.397 285.918 892.262 285.676C892.038 285.944 891.752 286.144 891.404 286.276C891.055 286.404 890.699 286.469 890.336 286.469C889.735 286.469 889.255 286.298 888.895 285.957C888.539 285.612 888.361 285.17 888.361 284.631C888.361 283.997 888.609 283.507 889.104 283.162C889.603 282.818 890.303 282.645 891.206 282.645H891.992V282.425C891.992 282.121 891.893 281.895 891.695 281.749C891.501 281.602 891.215 281.529 890.837 281.529C890.65 281.529 890.41 281.556 890.116 281.611C889.823 281.662 889.53 281.738 889.236 281.837L888.835 280.681C889.212 280.538 889.605 280.43 890.012 280.357C890.423 280.283 890.789 280.247 891.112 280.247C891.981 280.247 892.623 280.425 893.037 280.78C893.456 281.132 893.665 281.642 893.665 282.31V284.598ZM890.936 285.225C891.123 285.225 891.319 285.17 891.525 285.06C891.73 284.947 891.886 284.787 891.992 284.582V283.635H891.563C891.079 283.635 890.723 283.711 890.496 283.861C890.269 284.008 890.155 284.224 890.155 284.51C890.155 284.734 890.223 284.91 890.358 285.038C890.498 285.163 890.69 285.225 890.936 285.225Z" fill="black"/>
<rect x="324" y="72" width="308" height="45" rx="5" fill="#D9D9D9"/>
<rect x="324" y="22" width="308" height="45" rx="5" fill="#276A9B"/>
<rect x="324" y="122" width="308" height="45" rx="5" fill="#D9D9D9"/>
<rect x="324" y="173" width="308" height="45" rx="5" fill="#D9D9D9"/>
<path d="M442.857 39.8728V43.6674H448.327V46.2883H442.857V50.3221H449.455V53H439.119V37.2063H449.444L449.067 39.8728H442.857ZM463.758 45.0918C463.758 46.1249 463.656 47.0973 463.451 48.0089C463.246 48.9129 462.9 49.7144 462.414 50.4133C461.927 51.1122 461.267 51.6744 460.431 52.0998C461.259 52.2365 461.965 52.4416 462.55 52.7151C463.143 52.981 463.644 53.3646 464.055 53.866C464.472 54.375 464.826 55.0549 465.114 55.9058L462.06 56.9427C461.726 56.1527 461.365 55.4879 460.978 54.9486C460.59 54.4092 460.104 54.0028 459.519 53.7293C458.942 53.4558 458.194 53.3191 457.274 53.3191C455.96 53.3191 454.866 52.9886 453.993 52.3277C453.127 51.6668 452.477 50.7248 452.044 49.5017C451.619 48.271 451.406 46.801 451.406 45.0918C451.406 43.4205 451.63 41.9657 452.078 40.7274C452.534 39.4891 453.218 38.5282 454.129 37.8444C455.049 37.1531 456.196 36.8075 457.571 36.8075C458.953 36.8075 460.1 37.1417 461.012 37.8103C461.931 38.4788 462.619 39.4322 463.075 40.6704C463.53 41.9087 463.758 43.3825 463.758 45.0918ZM459.861 45.0918C459.861 43.1622 459.705 41.7568 459.394 40.8756C459.083 39.9943 458.475 39.5537 457.571 39.5537C456.682 39.5537 456.074 39.9981 455.748 40.8869C455.428 41.7682 455.269 43.1698 455.269 45.0918C455.269 47.0213 455.432 48.4305 455.759 49.3194C456.093 50.2082 456.697 50.6526 457.571 50.6526C458.482 50.6526 459.09 50.2082 459.394 49.3194C459.705 48.4229 459.861 47.0137 459.861 45.0918ZM477.048 37.2063V47.7126C477.048 48.7914 476.827 49.76 476.387 50.6184C475.954 51.4693 475.3 52.1454 474.427 52.6468C473.561 53.1405 472.474 53.3874 471.168 53.3874C469.853 53.3874 468.759 53.1481 467.886 52.6695C467.02 52.1909 466.37 51.5262 465.937 50.6754C465.504 49.8246 465.288 48.837 465.288 47.7126V37.2063H469.037V46.3224C469.037 47.743 469.166 48.8142 469.424 49.5359C469.682 50.25 470.264 50.607 471.168 50.607C472.072 50.607 472.653 50.25 472.911 49.5359C473.169 48.8142 473.299 47.743 473.299 46.3224V37.2063H477.048ZM489.961 37.2063V39.9412H486.702V50.2538H489.961V53H479.705V50.2538H482.964V39.9412H479.705V37.2063H489.961ZM500.948 42.3569C500.948 41.7948 500.842 41.3314 500.629 40.9667C500.424 40.5945 500.109 40.321 499.683 40.1463C499.266 39.9639 498.738 39.8728 498.099 39.8728H496.823V45.0348H498.293C498.848 45.0348 499.322 44.9398 499.718 44.7499C500.113 44.56 500.416 44.2675 500.629 43.8725C500.842 43.4774 500.948 42.9723 500.948 42.3569ZM504.8 42.3455C504.8 43.5686 504.538 44.579 504.013 45.3766C503.489 46.1743 502.756 46.7706 501.814 47.1657C500.872 47.5531 499.778 47.7468 498.532 47.7468H496.823V53H493.086V37.2063H498.054C500.196 37.2063 501.856 37.6317 503.033 38.4826C504.211 39.3334 504.8 40.6211 504.8 42.3455ZM518.488 45.0918C518.488 46.7631 518.249 48.2216 517.77 49.4675C517.291 50.7058 516.581 51.6706 515.639 52.3619C514.705 53.0456 513.546 53.3874 512.164 53.3874C510.788 53.3874 509.63 53.0532 508.688 52.3847C507.746 51.7085 507.036 50.7514 506.557 49.5131C506.078 48.2748 505.839 46.801 505.839 45.0918C505.839 43.4205 506.078 41.9657 506.557 40.7274C507.036 39.4891 507.746 38.5282 508.688 37.8444C509.63 37.1531 510.788 36.8075 512.164 36.8075C513.546 36.8075 514.705 37.1417 515.639 37.8103C516.581 38.4788 517.291 39.4322 517.77 40.6704C518.249 41.9087 518.488 43.3825 518.488 45.0918ZM514.659 45.0918C514.659 43.147 514.465 41.734 514.078 40.8528C513.69 39.9715 513.052 39.5309 512.164 39.5309C511.275 39.5309 510.637 39.9753 510.249 40.8642C509.862 41.7454 509.668 43.1546 509.668 45.0918C509.668 47.0365 509.865 48.4495 510.261 49.3308C510.656 50.212 511.29 50.6526 512.164 50.6526C513.075 50.6526 513.717 50.2082 514.089 49.3194C514.469 48.4229 514.659 47.0137 514.659 45.0918Z" fill="white"/>
<path d="M375.445 83C374.752 81.809 373.477 81 372 81H358V83H375.445ZM340 101H376V103H340V101ZM358 93H376V95H358V93ZM358 89H376V91H358V89ZM340 97H376V99H340V97ZM344 107H372C373.477 107 374.752 106.191 375.445 105H340.555C341.248 106.191 342.523 107 344 107ZM358 85H376V87H358V85Z" fill="#B22334"/>
<path d="M340.068 103.679C340.085 103.772 340.104 103.865 340.127 103.956C340.153 104.057 340.185 104.154 340.219 104.252C340.308 104.511 340.416 104.761 340.552 104.995L340.555 105H375.445L375.447 104.996C375.582 104.763 375.69 104.513 375.779 104.255C375.813 104.156 375.846 104.057 375.872 103.954C375.895 103.864 375.914 103.772 375.931 103.679C375.972 103.459 376 103.233 376 103H340C340 103.233 340.028 103.458 340.068 103.679ZM340 99H376V101H340V99ZM340 95V97H376V95H358H340ZM358 91H376V93H358V91ZM358 87H376V89H358V87ZM340 85C340 84.767 340.03 84.543 340.068 84.321C340.028 84.542 340 84.767 340 85ZM340.128 84.044C340.153 83.942 340.188 83.845 340.22 83.747C340.186 83.845 340.154 83.943 340.128 84.044ZM358 85H376C376 84.767 375.972 84.541 375.931 84.32C375.914 84.228 375.896 84.136 375.872 84.046C375.845 83.943 375.813 83.843 375.778 83.744C375.689 83.486 375.581 83.237 375.446 83.004C375.447 83.003 375.446 83.001 375.445 83H358V85Z" fill="#EEEEEE"/>
<path d="M358 81H344C341.791 81 340 82.791 340 85V95H358V81Z" fill="#3C3B6E"/>
<path d="M342.001 83.726L342.619 84.175L342.383 84.9L343 84.452L343.618 84.9L343.382 84.175L344 83.726H343.236L343 83L342.765 83.726H342.001ZM344.001 85.726L344.619 86.175L344.383 86.9L345 86.452L345.618 86.9L345.382 86.175L346 85.726H345.236L345 85L344.765 85.726H344.001ZM348.001 85.726L348.619 86.175L348.383 86.9L349 86.452L349.618 86.9L349.382 86.175L350 85.726H349.236L349 85L348.765 85.726H348.001ZM352.001 85.726L352.619 86.175L352.383 86.9L353 86.452L353.618 86.9L353.382 86.175L354 85.726H353.236L353 85L352.765 85.726H352.001ZM344.001 89.726L344.619 90.175L344.383 90.9L345 90.452L345.618 90.9L345.382 90.175L346 89.726H345.236L345 89L344.765 89.726H344.001ZM348.001 89.726L348.619 90.175L348.383 90.9L349 90.452L349.618 90.9L349.382 90.175L350 89.726H349.236L349 89L348.765 89.726H348.001ZM352.001 89.726L352.619 90.175L352.383 90.9L353 90.452L353.618 90.9L353.382 90.175L354 89.726H353.236L353 89L352.765 89.726H352.001ZM346.001 83.726L346.619 84.175L346.383 84.9L347 84.452L347.618 84.9L347.382 84.175L348 83.726H347.236L347 83L346.765 83.726H346.001ZM350.001 83.726L350.619 84.175L350.383 84.9L351 84.452L351.618 84.9L351.382 84.175L352 83.726H351.236L351 83L350.765 83.726H350.001ZM354.001 83.726L354.619 84.175L354.383 84.9L355 84.452L355.618 84.9L355.382 84.175L356 83.726H355.236L355 83L354.765 83.726H354.001ZM342.001 87.726L342.619 88.175L342.383 88.9L343 88.452L343.618 88.9L343.382 88.175L344 87.726H343.236L343 87L342.765 87.726H342.001ZM346.383 88.9L347 88.452L347.618 88.9L347.382 88.175L348 87.726H347.236L347 87L346.765 87.726H346.001L346.619 88.175L346.383 88.9ZM350.001 87.726L350.619 88.175L350.383 88.9L351 88.452L351.618 88.9L351.382 88.175L352 87.726H351.236L351 87L350.765 87.726H350.001ZM354.001 87.726L354.619 88.175L354.383 88.9L355 88.452L355.618 88.9L355.382 88.175L356 87.726H355.236L355 87L354.765 87.726H354.001ZM342.001 91.726L342.619 92.175L342.383 92.9L343 92.452L343.618 92.9L343.382 92.175L344 91.726H343.236L343 91L342.765 91.726H342.001ZM346.383 92.9L347 92.452L347.618 92.9L347.382 92.175L348 91.726H347.236L347 91L346.765 91.726H346.001L346.619 92.175L346.383 92.9ZM350.001 91.726L350.619 92.175L350.383 92.9L351 92.452L351.618 92.9L351.382 92.175L352 91.726H351.236L351 91L350.765 91.726H350.001ZM354.001 91.726L354.619 92.175L354.383 92.9L355 92.452L355.618 92.9L355.382 92.175L356 91.726H355.236L355 91L354.765 91.726H354.001Z" fill="white"/>
<path d="M393.843 85.7362V91.6322H400.577V93.7217H393.843V99.9371H402.081V102H391.194V83.66H401.881L401.575 85.7362H393.843ZM411.414 100.296C412.434 100.296 413.237 100.11 413.823 99.7374C414.417 99.3648 414.714 98.859 414.714 98.2202C414.714 97.8121 414.634 97.4616 414.475 97.1688C414.324 96.876 414.005 96.6098 413.517 96.3702C413.037 96.1307 412.31 95.8867 411.334 95.6382C410.384 95.3987 409.555 95.1192 408.845 94.7998C408.135 94.4803 407.585 94.0633 407.195 93.5487C406.813 93.0341 406.622 92.3686 406.622 91.5523C406.622 90.7538 406.844 90.0617 407.288 89.4761C407.74 88.8905 408.375 88.438 409.191 88.1186C410.016 87.7992 410.974 87.6394 412.066 87.6394C413.219 87.6394 414.222 87.7947 415.074 88.1053C415.934 88.4069 416.662 88.7796 417.256 89.2232L416.165 90.8869C415.624 90.5231 415.029 90.2258 414.382 89.9952C413.743 89.7645 412.989 89.6491 412.119 89.6491C411.081 89.6491 410.34 89.8088 409.896 90.1283C409.462 90.4388 409.244 90.8514 409.244 91.366C409.244 91.7475 409.351 92.0669 409.564 92.3243C409.786 92.5727 410.163 92.8034 410.695 93.0163C411.227 93.2293 411.964 93.4644 412.904 93.7217C413.818 93.9702 414.617 94.263 415.3 94.6001C415.983 94.9373 416.511 95.3809 416.884 95.931C417.265 96.4723 417.456 97.1865 417.456 98.0738C417.456 99.0764 417.168 99.8927 416.591 100.523C416.014 101.144 415.264 101.601 414.342 101.894C413.428 102.186 412.452 102.333 411.414 102.333C410.136 102.333 409.036 102.146 408.113 101.774C407.199 101.401 406.432 100.944 405.811 100.403L407.221 98.7792C407.771 99.2317 408.401 99.5999 409.111 99.8838C409.821 100.159 410.589 100.296 411.414 100.296ZM433.856 101.281C433.359 101.601 432.76 101.854 432.059 102.04C431.358 102.235 430.657 102.333 429.956 102.333C428.395 102.333 427.197 101.925 426.363 101.108C425.538 100.292 425.125 99.2317 425.125 97.9274V89.8887H421.944V87.9722H425.125V84.8046L427.68 84.4985V87.9722H432.472L432.179 89.8887H427.68V97.9008C427.68 98.6727 427.876 99.2539 428.266 99.6443C428.665 100.035 429.326 100.23 430.249 100.23C430.773 100.23 431.252 100.168 431.686 100.044C432.121 99.9193 432.525 99.7596 432.898 99.5644L433.856 101.281ZM448.765 98.7792C448.765 99.3382 448.854 99.7463 449.031 100.004C449.209 100.252 449.488 100.438 449.87 100.563L449.271 102.319C448.632 102.24 448.077 102.049 447.607 101.747C447.137 101.445 446.786 100.984 446.556 100.363C446.05 101.011 445.411 101.503 444.639 101.84C443.867 102.169 443.029 102.333 442.124 102.333C440.713 102.333 439.599 101.933 438.783 101.135C437.967 100.336 437.559 99.2849 437.559 97.9806C437.559 96.5166 438.127 95.3942 439.262 94.6134C440.407 93.8326 442.048 93.4422 444.187 93.4422H446.223V92.3775C446.223 91.4104 445.935 90.7227 445.358 90.3146C444.79 89.9064 443.996 89.7024 442.975 89.7024C442.514 89.7024 441.964 89.76 441.325 89.8754C440.686 89.9907 440.008 90.1726 439.289 90.4211L438.637 88.5578C439.506 88.2295 440.336 87.9944 441.125 87.8524C441.924 87.7104 442.669 87.6394 443.361 87.6394C445.171 87.6394 446.525 88.052 447.421 88.8772C448.317 89.6935 448.765 90.8159 448.765 92.2444V98.7792ZM442.842 100.416C443.499 100.416 444.129 100.248 444.732 99.9105C445.336 99.5733 445.832 99.103 446.223 98.4997V95.1059H444.36C442.878 95.1059 441.826 95.3587 441.205 95.8645C440.584 96.3614 440.274 97.0446 440.274 97.9141C440.274 98.7304 440.487 99.3515 440.913 99.7774C441.338 100.203 441.982 100.416 442.842 100.416ZM462.716 82.023L465.271 82.3291V102H463.022L462.809 100.203C462.312 100.913 461.727 101.445 461.052 101.8C460.378 102.155 459.641 102.333 458.843 102.333C457.636 102.333 456.638 102.027 455.848 101.414C455.068 100.793 454.486 99.9326 454.105 98.8324C453.723 97.7322 453.533 96.4545 453.533 94.9994C453.533 93.5798 453.75 92.3198 454.185 91.2196C454.628 90.1105 455.258 89.2365 456.075 88.5977C456.9 87.9589 457.893 87.6394 459.056 87.6394C459.828 87.6394 460.515 87.777 461.119 88.052C461.722 88.3182 462.254 88.713 462.716 89.2365V82.023ZM459.721 89.6491C458.63 89.6491 457.783 90.0883 457.179 90.9667C456.576 91.8451 456.274 93.1894 456.274 94.9994C456.274 96.1972 456.398 97.191 456.647 97.9806C456.895 98.7703 457.255 99.3559 457.725 99.7374C458.195 100.119 458.772 100.31 459.455 100.31C460.192 100.31 460.826 100.097 461.358 99.6709C461.9 99.245 462.352 98.7526 462.716 98.1936V91.3394C462.352 90.807 461.913 90.3944 461.398 90.1016C460.892 89.8 460.333 89.6491 459.721 89.6491ZM475.815 87.6394C477.155 87.6394 478.277 87.9411 479.182 88.5445C480.096 89.1478 480.784 89.9996 481.245 91.0998C481.715 92.1912 481.95 93.4822 481.95 94.9728C481.95 96.419 481.711 97.6967 481.232 98.8058C480.761 99.906 480.069 100.771 479.156 101.401C478.242 102.022 477.119 102.333 475.788 102.333C474.457 102.333 473.331 102.031 472.408 101.428C471.494 100.824 470.802 99.9726 470.332 98.8724C469.861 97.7721 469.626 96.4811 469.626 94.9994C469.626 93.5443 469.861 92.2666 470.332 91.1664C470.811 90.0573 471.512 89.1922 472.434 88.5711C473.357 87.95 474.484 87.6394 475.815 87.6394ZM475.815 89.6757C474.661 89.6757 473.792 90.1105 473.206 90.98C472.621 91.8407 472.328 93.1805 472.328 94.9994C472.328 96.8006 472.616 98.1359 473.193 99.0054C473.77 99.8661 474.635 100.296 475.788 100.296C476.942 100.296 477.807 99.8661 478.384 99.0054C478.96 98.1359 479.249 96.7917 479.249 94.9728C479.249 93.1627 478.96 91.8274 478.384 90.9667C477.816 90.1061 476.96 89.6757 475.815 89.6757ZM491.217 100.296C492.237 100.296 493.04 100.11 493.625 99.7374C494.22 99.3648 494.517 98.859 494.517 98.2202C494.517 97.8121 494.437 97.4616 494.278 97.1688C494.127 96.876 493.807 96.6098 493.319 96.3702C492.84 96.1307 492.113 95.8867 491.137 95.6382C490.187 95.3987 489.358 95.1192 488.648 94.7998C487.938 94.4803 487.388 94.0633 486.998 93.5487C486.616 93.0341 486.425 92.3686 486.425 91.5523C486.425 90.7538 486.647 90.0617 487.091 89.4761C487.543 88.8905 488.178 88.438 488.994 88.1186C489.819 87.7992 490.777 87.6394 491.869 87.6394C493.022 87.6394 494.025 87.7947 494.877 88.1053C495.737 88.4069 496.465 88.7796 497.059 89.2232L495.968 90.8869C495.427 90.5231 494.832 90.2258 494.184 89.9952C493.546 89.7645 492.791 89.6491 491.922 89.6491C490.884 89.6491 490.143 89.8088 489.699 90.1283C489.265 90.4388 489.047 90.8514 489.047 91.366C489.047 91.7475 489.154 92.0669 489.367 92.3243C489.588 92.5727 489.965 92.8034 490.498 93.0163C491.03 93.2293 491.767 93.4644 492.707 93.7217C493.621 93.9702 494.42 94.263 495.103 94.6001C495.786 94.9373 496.314 95.3809 496.687 95.931C497.068 96.4723 497.259 97.1865 497.259 98.0738C497.259 99.0764 496.97 99.8927 496.394 100.523C495.817 101.144 495.067 101.601 494.145 101.894C493.231 102.186 492.255 102.333 491.217 102.333C489.939 102.333 488.839 102.146 487.916 101.774C487.002 101.401 486.234 100.944 485.613 100.403L487.024 98.7792C487.574 99.2317 488.204 99.5999 488.914 99.8838C489.624 100.159 490.391 100.296 491.217 100.296ZM529.859 83.66V96.0242C529.859 97.2664 529.606 98.3622 529.1 99.3116C528.603 100.252 527.889 100.993 526.957 101.534C526.035 102.067 524.93 102.333 523.643 102.333C522.348 102.333 521.239 102.067 520.316 101.534C519.393 101.002 518.688 100.261 518.2 99.3116C517.721 98.3622 517.481 97.2664 517.481 96.0242V83.66H520.116V95.8246C520.116 97.2619 520.414 98.34 521.008 99.0587C521.603 99.7774 522.481 100.137 523.643 100.137C524.823 100.137 525.711 99.7774 526.305 99.0587C526.9 98.34 527.197 97.2619 527.197 95.8246V83.66H529.859ZM534.187 102V87.9722H536.383L536.569 89.8621C537.146 89.1434 537.847 88.5933 538.672 88.2117C539.506 87.8302 540.336 87.6394 541.161 87.6394C542.51 87.6394 543.504 88.0077 544.142 88.7441C544.781 89.4717 545.101 90.4876 545.101 91.7919V102H542.545V93.3624C542.545 92.4751 542.492 91.7564 542.386 91.2063C542.288 90.6473 542.079 90.2436 541.76 89.9952C541.441 89.7467 540.957 89.6225 540.309 89.6225C539.804 89.6225 539.324 89.7334 538.872 89.9552C538.419 90.177 538.011 90.4565 537.648 90.7937C537.293 91.1309 536.991 91.4813 536.742 91.8451V102H534.187ZM557.494 87.9722V100.057H561.394V102H550.667V100.057H554.939V89.9153H550.8V87.9722H557.494ZM555.591 81.2644C556.123 81.2644 556.549 81.4285 556.869 81.7568C557.197 82.0851 557.361 82.4844 557.361 82.9546C557.361 83.4426 557.197 83.8552 556.869 84.1924C556.549 84.5207 556.123 84.6848 555.591 84.6848C555.068 84.6848 554.642 84.5207 554.313 84.1924C553.994 83.8552 553.834 83.4426 553.834 82.9546C553.834 82.4844 553.994 82.0851 554.313 81.7568C554.642 81.4285 555.068 81.2644 555.591 81.2644ZM574.44 82.023L576.995 82.3291V102H574.746L574.533 100.203C574.036 100.913 573.45 101.445 572.776 101.8C572.102 102.155 571.365 102.333 570.567 102.333C569.36 102.333 568.362 102.027 567.572 101.414C566.791 100.793 566.21 99.9326 565.829 98.8324C565.447 97.7322 565.256 96.4545 565.256 94.9994C565.256 93.5798 565.474 92.3198 565.909 91.2196C566.352 90.1105 566.982 89.2365 567.799 88.5977C568.624 87.9589 569.617 87.6394 570.78 87.6394C571.552 87.6394 572.239 87.777 572.843 88.052C573.446 88.3182 573.978 88.713 574.44 89.2365V82.023ZM571.445 89.6491C570.354 89.6491 569.507 90.0883 568.903 90.9667C568.3 91.8451 567.998 93.1894 567.998 94.9994C567.998 96.1972 568.122 97.191 568.371 97.9806C568.619 98.7703 568.979 99.3559 569.449 99.7374C569.919 100.119 570.496 100.31 571.179 100.31C571.915 100.31 572.55 100.097 573.082 99.6709C573.623 99.245 574.076 98.7526 574.44 98.1936V91.3394C574.076 90.807 573.637 90.3944 573.122 90.1016C572.616 89.8 572.057 89.6491 571.445 89.6491ZM587.539 87.6394C588.879 87.6394 590.001 87.9411 590.906 88.5445C591.82 89.1478 592.508 89.9996 592.969 91.0998C593.439 92.1912 593.674 93.4822 593.674 94.9728C593.674 96.419 593.435 97.6967 592.956 98.8058C592.485 99.906 591.793 100.771 590.879 101.401C589.966 102.022 588.843 102.333 587.512 102.333C586.181 102.333 585.055 102.031 584.132 101.428C583.218 100.824 582.526 99.9726 582.056 98.8724C581.585 97.7721 581.35 96.4811 581.35 94.9994C581.35 93.5443 581.585 92.2666 582.056 91.1664C582.535 90.0573 583.236 89.1922 584.158 88.5711C585.081 87.95 586.208 87.6394 587.539 87.6394ZM587.539 89.6757C586.385 89.6757 585.516 90.1105 584.93 90.98C584.345 91.8407 584.052 93.1805 584.052 94.9994C584.052 96.8006 584.34 98.1359 584.917 99.0054C585.494 99.8661 586.359 100.296 587.512 100.296C588.666 100.296 589.531 99.8661 590.108 99.0054C590.684 98.1359 590.973 96.7917 590.973 94.9728C590.973 93.1627 590.684 91.8274 590.108 90.9667C589.54 90.1061 588.683 89.6757 587.539 89.6757ZM602.94 100.296C603.961 100.296 604.764 100.11 605.349 99.7374C605.944 99.3648 606.241 98.859 606.241 98.2202C606.241 97.8121 606.161 97.4616 606.002 97.1688C605.851 96.876 605.531 96.6098 605.043 96.3702C604.564 96.1307 603.837 95.8867 602.861 95.6382C601.911 95.3987 601.082 95.1192 600.372 94.7998C599.662 94.4803 599.112 94.0633 598.721 93.5487C598.34 93.0341 598.149 92.3686 598.149 91.5523C598.149 90.7538 598.371 90.0617 598.815 89.4761C599.267 88.8905 599.902 88.438 600.718 88.1186C601.543 87.7992 602.501 87.6394 603.593 87.6394C604.746 87.6394 605.749 87.7947 606.6 88.1053C607.461 88.4069 608.189 88.7796 608.783 89.2232L607.692 90.8869C607.151 90.5231 606.556 90.2258 605.908 89.9952C605.27 89.7645 604.515 89.6491 603.646 89.6491C602.608 89.6491 601.867 89.8088 601.423 90.1283C600.988 90.4388 600.771 90.8514 600.771 91.366C600.771 91.7475 600.878 92.0669 601.09 92.3243C601.312 92.5727 601.689 92.8034 602.222 93.0163C602.754 93.2293 603.491 93.4644 604.431 93.7217C605.345 93.9702 606.144 94.263 606.827 94.6001C607.51 94.9373 608.038 95.3809 608.411 95.931C608.792 96.4723 608.983 97.1865 608.983 98.0738C608.983 99.0764 608.694 99.8927 608.118 100.523C607.541 101.144 606.791 101.601 605.868 101.894C604.955 102.186 603.979 102.333 602.94 102.333C601.663 102.333 600.563 102.146 599.64 101.774C598.726 101.401 597.958 100.944 597.337 100.403L598.748 98.7792C599.298 99.2317 599.928 99.5999 600.638 99.8838C601.348 100.159 602.115 100.296 602.94 100.296Z" fill="black"/>
<path d="M376 154C376 156.209 374.209 158 372 158H344C341.791 158 340 156.209 340 154V136C340 133.791 341.791 132 344 132H372C374.209 132 376 133.791 376 136V154Z" fill="#DE2910"/>
<path d="M351.136 135.977L351.872 136.333L352.461 135.767L352.35 136.577L353.07 136.963L352.266 137.107L352.122 137.911L351.736 137.191L350.926 137.302L351.492 136.713L351.136 135.977ZM355.801 138.918L355.445 139.653L356.011 140.243L355.202 140.131L354.816 140.852L354.672 140.047L353.867 139.903L354.588 139.517L354.476 138.708L355.066 139.274L355.801 138.918ZM354.844 142.697L355.112 143.469L355.929 143.486L355.278 143.979L355.515 144.762L354.844 144.295L354.173 144.762L354.409 143.979L353.758 143.486L354.575 143.469L354.844 142.697ZM351.136 145.977L351.872 146.333L352.461 145.767L352.35 146.577L353.07 146.963L352.266 147.107L352.122 147.911L351.736 147.191L350.926 147.302L351.492 146.713L351.136 145.977ZM347 137.951L347.929 140.622L350.755 140.68L348.502 142.388L349.321 145.094L347 143.479L344.679 145.094L345.498 142.388L343.245 140.68L346.071 140.622L347 137.951Z" fill="#FFDE02"/>
<path d="M397.529 134.327C398.745 134.327 399.765 134.483 400.59 134.793C401.424 135.104 402.205 135.556 402.933 136.151L401.509 137.828C400.941 137.357 400.338 137.016 399.699 136.803C399.069 136.581 398.399 136.47 397.689 136.47C396.731 136.47 395.839 136.705 395.014 137.175C394.198 137.646 393.541 138.418 393.044 139.491C392.547 140.565 392.299 142.007 392.299 143.817C392.299 145.582 392.534 147.002 393.004 148.076C393.483 149.14 394.127 149.917 394.934 150.405C395.75 150.884 396.66 151.123 397.662 151.123C398.674 151.123 399.504 150.968 400.151 150.658C400.808 150.338 401.385 149.974 401.881 149.566L403.199 151.257C402.622 151.815 401.873 152.303 400.95 152.721C400.036 153.129 398.918 153.333 397.596 153.333C396.079 153.333 394.712 152.969 393.497 152.241C392.281 151.514 391.318 150.445 390.609 149.034C389.908 147.614 389.557 145.875 389.557 143.817C389.557 141.758 389.917 140.024 390.635 138.613C391.363 137.202 392.33 136.137 393.537 135.419C394.752 134.691 396.083 134.327 397.529 134.327ZM409.058 133.076V140.796C409.617 140.077 410.287 139.54 411.068 139.185C411.857 138.821 412.66 138.639 413.477 138.639C414.825 138.639 415.819 139.008 416.458 139.744C417.097 140.472 417.416 141.488 417.416 142.792V153H414.861V143.018C414.861 142.175 414.679 141.567 414.315 141.195C413.96 140.813 413.392 140.623 412.612 140.623C412.115 140.623 411.64 140.733 411.187 140.955C410.744 141.177 410.34 141.461 409.976 141.807C409.613 142.144 409.306 142.495 409.058 142.858V153H406.503V133.356L409.058 133.076ZM429.81 138.972V151.057H433.709V153H422.982V151.057H427.254V140.915H423.115V138.972H429.81ZM427.907 132.264C428.439 132.264 428.865 132.429 429.184 132.757C429.513 133.085 429.677 133.484 429.677 133.955C429.677 134.443 429.513 134.855 429.184 135.192C428.865 135.521 428.439 135.685 427.907 135.685C427.383 135.685 426.957 135.521 426.629 135.192C426.31 134.855 426.15 134.443 426.15 133.955C426.15 133.484 426.31 133.085 426.629 132.757C426.957 132.429 427.383 132.264 427.907 132.264ZM438.424 153V138.972H440.62L440.806 140.862C441.383 140.143 442.084 139.593 442.909 139.212C443.743 138.83 444.573 138.639 445.398 138.639C446.746 138.639 447.74 139.008 448.379 139.744C449.018 140.472 449.337 141.488 449.337 142.792V153H446.782V144.362C446.782 143.475 446.729 142.756 446.622 142.206C446.525 141.647 446.316 141.244 445.997 140.995C445.677 140.747 445.194 140.623 444.546 140.623C444.04 140.623 443.561 140.733 443.109 140.955C442.656 141.177 442.248 141.457 441.884 141.794C441.529 142.131 441.228 142.481 440.979 142.845V153H438.424ZM464.726 149.779C464.726 150.338 464.814 150.746 464.992 151.004C465.169 151.252 465.449 151.438 465.83 151.563L465.231 153.319C464.592 153.24 464.038 153.049 463.568 152.747C463.097 152.445 462.747 151.984 462.516 151.363C462.01 152.011 461.372 152.503 460.6 152.84C459.828 153.169 458.989 153.333 458.084 153.333C456.673 153.333 455.56 152.933 454.744 152.135C453.927 151.336 453.519 150.285 453.519 148.981C453.519 147.517 454.087 146.394 455.223 145.613C456.367 144.833 458.009 144.442 460.147 144.442H462.183V143.377C462.183 142.41 461.895 141.723 461.318 141.315C460.751 140.906 459.956 140.702 458.936 140.702C458.475 140.702 457.925 140.76 457.286 140.875C456.647 140.991 455.968 141.173 455.249 141.421L454.597 139.558C455.467 139.229 456.296 138.994 457.086 138.852C457.885 138.71 458.63 138.639 459.322 138.639C461.132 138.639 462.485 139.052 463.381 139.877C464.277 140.693 464.726 141.816 464.726 143.244V149.779ZM458.803 151.416C459.46 151.416 460.089 151.248 460.693 150.91C461.296 150.573 461.793 150.103 462.183 149.5V146.106H460.32C458.838 146.106 457.787 146.359 457.166 146.864C456.545 147.361 456.234 148.045 456.234 148.914C456.234 149.73 456.447 150.351 456.873 150.777C457.299 151.203 457.942 151.416 458.803 151.416Z" fill="black"/>
<path d="M376 205C376 207.209 374.209 209 372 209H344C341.791 209 340 207.209 340 205V187C340 184.791 341.791 183 344 183H372C374.209 183 376 184.791 376 187V205Z" fill="#EEEEEE"/>
<path d="M358 203C361.866 203 365 199.866 365 196C365 192.134 361.866 189 358 189C354.134 189 351 192.134 351 196C351 199.866 354.134 203 358 203Z" fill="#ED1B2F"/>
<path d="M401.349 185.66V197.825C401.349 198.641 401.238 199.439 401.016 200.22C400.795 200.992 400.431 201.689 399.925 202.31C399.428 202.922 398.767 203.41 397.942 203.774C397.126 204.138 396.114 204.319 394.907 204.319C393.958 204.319 393.053 204.177 392.192 203.894C391.332 203.601 390.529 203.184 389.783 202.642L390.915 200.926C391.687 201.414 392.392 201.746 393.031 201.924C393.67 202.092 394.273 202.177 394.841 202.177C396.065 202.177 397.015 201.786 397.689 201.005C398.372 200.216 398.714 199.12 398.714 197.718V187.75H393.244V185.66H401.349ZM416.844 200.779C416.844 201.338 416.933 201.746 417.11 202.004C417.287 202.252 417.567 202.438 417.948 202.563L417.35 204.319C416.711 204.24 416.156 204.049 415.686 203.747C415.216 203.445 414.865 202.984 414.634 202.363C414.129 203.011 413.49 203.503 412.718 203.84C411.946 204.169 411.108 204.333 410.203 204.333C408.792 204.333 407.678 203.933 406.862 203.135C406.046 202.336 405.638 201.285 405.638 199.981C405.638 198.517 406.205 197.394 407.341 196.613C408.486 195.833 410.127 195.442 412.265 195.442H414.302V194.377C414.302 193.41 414.013 192.723 413.437 192.315C412.869 191.906 412.075 191.702 411.054 191.702C410.593 191.702 410.043 191.76 409.404 191.875C408.765 191.991 408.086 192.173 407.368 192.421L406.716 190.558C407.585 190.229 408.415 189.994 409.204 189.852C410.003 189.71 410.748 189.639 411.44 189.639C413.25 189.639 414.603 190.052 415.5 190.877C416.396 191.693 416.844 192.816 416.844 194.244V200.779ZM410.921 202.416C411.578 202.416 412.208 202.248 412.811 201.91C413.414 201.573 413.911 201.103 414.302 200.5V197.106H412.438C410.957 197.106 409.905 197.359 409.284 197.864C408.663 198.361 408.353 199.045 408.353 199.914C408.353 200.73 408.566 201.351 408.991 201.777C409.417 202.203 410.061 202.416 410.921 202.416ZM428.985 189.639C430.227 189.639 431.221 189.946 431.966 190.558C432.711 191.161 433.248 192.013 433.576 193.113C433.905 194.204 434.069 195.491 434.069 196.973C434.069 198.392 433.869 199.657 433.47 200.766C433.071 201.875 432.472 202.749 431.673 203.388C430.875 204.018 429.872 204.333 428.665 204.333C427.148 204.333 425.932 203.8 425.019 202.736V209.377L422.463 209.683V189.972H424.659L424.846 191.862C425.369 191.143 425.986 190.593 426.695 190.212C427.405 189.83 428.168 189.639 428.985 189.639ZM428.333 191.649C427.605 191.649 426.962 191.871 426.403 192.315C425.844 192.749 425.382 193.246 425.019 193.805V200.593C425.373 201.116 425.808 201.529 426.323 201.831C426.837 202.123 427.41 202.27 428.04 202.27C429.14 202.27 429.97 201.844 430.529 200.992C431.087 200.131 431.367 198.792 431.367 196.973C431.367 195.757 431.256 194.759 431.034 193.978C430.812 193.189 430.475 192.603 430.023 192.221C429.579 191.84 429.016 191.649 428.333 191.649ZM443.894 189.639C445.234 189.639 446.356 189.941 447.261 190.544C448.175 191.148 448.863 192 449.324 193.1C449.794 194.191 450.029 195.482 450.029 196.973C450.029 198.419 449.79 199.697 449.311 200.806C448.84 201.906 448.148 202.771 447.234 203.401C446.32 204.022 445.198 204.333 443.867 204.333C442.536 204.333 441.409 204.031 440.487 203.428C439.573 202.824 438.881 201.973 438.41 200.872C437.94 199.772 437.705 198.481 437.705 196.999C437.705 195.544 437.94 194.267 438.41 193.166C438.89 192.057 439.591 191.192 440.513 190.571C441.436 189.95 442.563 189.639 443.894 189.639ZM443.894 191.676C442.74 191.676 441.871 192.111 441.285 192.98C440.7 193.841 440.407 195.18 440.407 196.999C440.407 198.801 440.695 200.136 441.272 201.005C441.849 201.866 442.714 202.296 443.867 202.296C445.021 202.296 445.886 201.866 446.462 201.005C447.039 200.136 447.328 198.792 447.328 196.973C447.328 195.163 447.039 193.827 446.462 192.967C445.895 192.106 445.038 191.676 443.894 191.676ZM446.063 182.626L447.194 184.742L441.511 187.044L440.74 185.687L446.063 182.626ZM454.384 204V189.972H456.58L456.767 191.862C457.343 191.143 458.044 190.593 458.869 190.212C459.704 189.83 460.533 189.639 461.358 189.639C462.707 189.639 463.701 190.008 464.34 190.744C464.978 191.472 465.298 192.488 465.298 193.792V204H462.742V195.362C462.742 194.475 462.689 193.756 462.583 193.206C462.485 192.647 462.277 192.244 461.957 191.995C461.638 191.747 461.154 191.623 460.507 191.623C460.001 191.623 459.522 191.733 459.069 191.955C458.617 192.177 458.208 192.457 457.845 192.794C457.49 193.131 457.188 193.481 456.94 193.845V204H454.384Z" fill="black"/>
<rect x="637" y="72" width="140" height="45" rx="5" fill="#D9D9D9"/>
<rect x="637" y="23" width="140" height="45" rx="5" fill="#276A9B"/>
<rect x="637" y="123" width="140" height="45" rx="5" fill="#D9D9D9"/>
<rect x="637" y="173" width="140" height="45" rx="5" fill="#D9D9D9"/>
<path d="M715.161 46.0918C715.161 47.7631 714.922 49.2216 714.444 50.4675C713.965 51.7058 713.255 52.6706 712.313 53.3619C711.378 54.0456 710.22 54.3874 708.837 54.3874C707.462 54.3874 706.304 54.0532 705.362 53.3847C704.42 52.7085 703.709 51.7514 703.231 50.5131C702.752 49.2748 702.513 47.801 702.513 46.0918C702.513 44.4205 702.752 42.9657 703.231 41.7274C703.709 40.4891 704.42 39.5282 705.362 38.8444C706.304 38.1531 707.462 37.8075 708.837 37.8075C710.22 37.8075 711.378 38.1417 712.313 38.8103C713.255 39.4788 713.965 40.4322 714.444 41.6704C714.922 42.9087 715.161 44.3825 715.161 46.0918ZM711.333 46.0918C711.333 44.147 711.139 42.734 710.751 41.8528C710.364 40.9715 709.726 40.5309 708.837 40.5309C707.948 40.5309 707.31 40.9753 706.923 41.8642C706.535 42.7454 706.342 44.1546 706.342 46.0918C706.342 48.0365 706.539 49.4495 706.934 50.3308C707.329 51.212 707.963 51.6526 708.837 51.6526C709.749 51.6526 710.391 51.2082 710.763 50.3194C711.143 49.4229 711.333 48.0137 711.333 46.0918ZM728.462 43.0037C728.462 43.7558 728.322 44.4129 728.04 44.975C727.759 45.5372 727.38 46.012 726.901 46.3994C726.422 46.7869 725.887 47.0983 725.294 47.3338L729.431 54H725.203L721.784 47.9606H720.725V54H716.987V38.2063H721.955C724.105 38.2063 725.727 38.5975 726.821 39.38C727.915 40.1625 728.462 41.3704 728.462 43.0037ZM724.61 43.0037C724.61 42.244 724.386 41.6932 723.938 41.3514C723.498 41.0019 722.84 40.8272 721.967 40.8272H720.725V45.3967H722.115C722.928 45.3967 723.547 45.2067 723.972 44.8269C724.398 44.4471 724.61 43.8393 724.61 43.0037ZM742.492 46.0918C742.492 47.7631 742.253 49.2216 741.774 50.4675C741.295 51.7058 740.585 52.6706 739.643 53.3619C738.709 54.0456 737.55 54.3874 736.168 54.3874C734.793 54.3874 733.634 54.0532 732.692 53.3847C731.75 52.7085 731.04 51.7514 730.561 50.5131C730.083 49.2748 729.843 47.801 729.843 46.0918C729.843 44.4205 730.083 42.9657 730.561 41.7274C731.04 40.4891 731.75 39.5282 732.692 38.8444C733.634 38.1531 734.793 37.8075 736.168 37.8075C737.55 37.8075 738.709 38.1417 739.643 38.8103C740.585 39.4788 741.295 40.4322 741.774 41.6704C742.253 42.9087 742.492 44.3825 742.492 46.0918ZM738.663 46.0918C738.663 44.147 738.469 42.734 738.082 41.8528C737.695 40.9715 737.056 40.5309 736.168 40.5309C735.279 40.5309 734.641 40.9753 734.253 41.8642C733.866 42.7454 733.672 44.1546 733.672 46.0918C733.672 48.0365 733.87 49.4495 734.265 50.3308C734.66 51.212 735.294 51.6526 736.168 51.6526C737.079 51.6526 737.721 51.2082 738.093 50.3194C738.473 49.4229 738.663 48.0137 738.663 46.0918Z" fill="white"/>
<path d="M696.507 84.7318L699.063 85.7794L693.349 99.3974H704.903V101.794H690.143V99.6355L696.507 84.7318ZM702.174 93.3502V107H699.237L699.221 99.9053L699.634 93.3502H702.174ZM716.557 84.7318C718.959 84.7318 720.773 85.7159 722.001 87.684C723.228 89.6415 723.842 92.4297 723.842 96.0484C723.842 99.6778 723.228 102.477 722.001 104.445C720.773 106.413 718.959 107.397 716.557 107.397C714.155 107.397 712.34 106.413 711.113 104.445C709.885 102.477 709.272 99.6778 709.272 96.0484C709.272 92.4297 709.885 89.6415 711.113 87.684C712.34 85.7159 714.155 84.7318 716.557 84.7318ZM716.557 87.1285C715.255 87.1285 714.234 87.8215 713.494 89.2077C712.764 90.5938 712.398 92.8741 712.398 96.0484C712.398 97.6885 712.478 99.08 712.637 100.223C712.795 101.366 713.039 102.286 713.367 102.984C713.705 103.683 714.139 104.196 714.668 104.524C715.197 104.841 715.827 105 716.557 105C717.435 105 718.186 104.699 718.811 104.095C719.435 103.492 719.906 102.529 720.223 101.207C720.551 99.8841 720.715 98.1647 720.715 96.0484C720.715 93.8687 720.572 92.1281 720.287 90.8266C720.012 89.5145 719.567 88.5728 718.954 88.0014C718.34 87.4195 717.541 87.1285 716.557 87.1285ZM719.668 87.8903L720.461 90.287L713.684 104.048L712.621 102.127L719.668 87.8903Z" fill="black"/>
<path d="M695.507 134.732L698.063 135.779L692.349 149.397H703.903V151.794H689.143V149.635L695.507 134.732ZM701.174 143.35V157H698.237L698.221 149.905L698.634 143.35H701.174ZM715.557 134.732C717.959 134.732 719.773 135.716 721.001 137.684C722.228 139.642 722.842 142.43 722.842 146.048C722.842 149.678 722.228 152.477 721.001 154.445C719.773 156.413 717.959 157.397 715.557 157.397C713.155 157.397 711.34 156.413 710.113 154.445C708.885 152.477 708.272 149.678 708.272 146.048C708.272 142.43 708.885 139.642 710.113 137.684C711.34 135.716 713.155 134.732 715.557 134.732ZM715.557 137.128C714.255 137.128 713.234 137.822 712.494 139.208C711.764 140.594 711.398 142.874 711.398 146.048C711.398 147.689 711.478 149.08 711.637 150.223C711.795 151.366 712.039 152.286 712.367 152.984C712.705 153.683 713.139 154.196 713.668 154.524C714.197 154.841 714.827 155 715.557 155C716.435 155 717.186 154.699 717.811 154.095C718.435 153.492 718.906 152.529 719.223 151.207C719.551 149.884 719.715 148.165 719.715 146.048C719.715 143.869 719.572 142.128 719.287 140.827C719.012 139.515 718.567 138.573 717.954 138.001C717.34 137.419 716.541 137.128 715.557 137.128ZM718.668 137.89L719.461 140.287L712.684 154.048L711.621 152.127L718.668 137.89Z" fill="black"/>
<path d="M695.587 184.732C697.015 184.732 698.232 185.002 699.237 185.541C700.242 186.081 701.01 186.816 701.539 187.747C702.068 188.679 702.332 189.721 702.332 190.874C702.332 191.858 702.163 192.821 701.824 193.763C701.486 194.705 700.935 195.694 700.174 196.731C699.422 197.757 698.433 198.9 697.206 200.159C695.978 201.418 694.476 202.857 692.698 204.476H702.84L702.475 207H689.222V204.603C690.83 203.058 692.206 201.704 693.349 200.54C694.502 199.366 695.454 198.334 696.206 197.445C696.957 196.556 697.549 195.757 697.983 195.049C698.417 194.329 698.719 193.652 698.888 193.017C699.068 192.371 699.158 191.705 699.158 191.017C699.158 189.843 698.825 188.917 698.158 188.24C697.502 187.562 696.587 187.224 695.412 187.224C694.365 187.224 693.502 187.409 692.825 187.779C692.158 188.139 691.486 188.726 690.809 189.541L688.778 187.97C689.635 186.901 690.603 186.097 691.682 185.557C692.761 185.007 694.063 184.732 695.587 184.732ZM715.557 184.732C717.959 184.732 719.773 185.716 721.001 187.684C722.228 189.642 722.842 192.43 722.842 196.048C722.842 199.678 722.228 202.477 721.001 204.445C719.773 206.413 717.959 207.397 715.557 207.397C713.155 207.397 711.34 206.413 710.113 204.445C708.885 202.477 708.272 199.678 708.272 196.048C708.272 192.43 708.885 189.642 710.113 187.684C711.34 185.716 713.155 184.732 715.557 184.732ZM715.557 187.128C714.255 187.128 713.234 187.822 712.494 189.208C711.764 190.594 711.398 192.874 711.398 196.048C711.398 197.689 711.478 199.08 711.637 200.223C711.795 201.366 712.039 202.286 712.367 202.984C712.705 203.683 713.139 204.196 713.668 204.524C714.197 204.841 714.827 205 715.557 205C716.435 205 717.186 204.699 717.811 204.095C718.435 203.492 718.906 202.529 719.223 201.207C719.551 199.884 719.715 198.165 719.715 196.048C719.715 193.869 719.572 192.128 719.287 190.827C719.012 189.515 718.567 188.573 717.954 188.001C717.34 187.419 716.541 187.128 715.557 187.128ZM718.668 187.89L719.461 190.287L712.684 204.048L711.621 202.127L718.668 187.89Z" fill="black"/>
<path d="M684.5 39.5556L679.639 34H672L681.722 45.8056L689.723 42.5069L684.5 39.5556Z" fill="#55ACEE"/>
<path d="M689.361 34L684.5 39.5556L688.243 44.6333L689.095 43.5993L697 34H689.361Z" fill="#3B88C3"/>
<path d="M688.115 45.1292C688.17 44.9785 688.206 44.8181 688.206 44.6479C688.206 43.8813 687.583 43.259 686.817 43.259H682.187C681.419 43.259 680.798 43.8813 680.798 44.6479C680.798 44.8181 680.833 44.9785 680.889 45.1292C678.626 46.3972 677.094 48.8146 677.094 51.5924C677.094 55.6833 680.41 59 684.501 59C688.592 59 691.909 55.6833 691.909 51.5924C691.909 48.8146 690.377 46.3972 688.115 45.1292Z" fill="#FFAC33"/>
<path d="M685.475 46.9166H684.28L682.384 48.3972C682.345 48.4361 682.306 48.5402 682.306 48.5916V49.4097C682.306 49.5388 682.411 49.6555 682.54 49.6555H683.787V55.4986C683.787 55.6291 683.891 55.7451 684.033 55.7451H685.475C685.604 55.7451 685.708 55.6284 685.708 55.4986V47.1625C685.708 47.0333 685.605 46.9166 685.475 46.9166Z" fill="#9E5200"/>
<rect x="782" y="23" width="140" height="45" rx="5" fill="#276A9B"/>
<rect x="782" y="72" width="140" height="45" rx="5" fill="#D9D9D9"/>
<rect x="782" y="122" width="140" height="45" rx="5" fill="#D9D9D9"/>
<rect x="782" y="173" width="140" height="45" rx="5" fill="#D9D9D9"/>
<path d="M842.287 43.3569C842.287 42.7948 842.181 42.3314 841.968 41.9667C841.763 41.5945 841.448 41.321 841.022 41.1463C840.604 40.9639 840.076 40.8728 839.438 40.8728H838.162V46.0348H839.632C840.187 46.0348 840.661 45.9398 841.056 45.7499C841.451 45.56 841.755 45.2675 841.968 44.8725C842.181 44.4774 842.287 43.9723 842.287 43.3569ZM846.139 43.3455C846.139 44.5686 845.877 45.579 845.352 46.3766C844.828 47.1743 844.095 47.7706 843.153 48.1657C842.211 48.5531 841.117 48.7468 839.871 48.7468H838.162V54H834.424V38.2063H839.393C841.535 38.2063 843.195 38.6317 844.372 39.4826C845.55 40.3334 846.139 41.6211 846.139 43.3455ZM848.785 54V38.2063H852.522V51.0487H859.371L858.983 54H848.785ZM869.447 50.5928H864.82L863.988 54H860.08L864.911 38.2063H869.447L874.278 54H870.279L869.447 50.5928ZM865.413 47.8808H868.831L867.122 40.8956L865.413 47.8808ZM882.679 41.0665V54H878.941V41.0665H874.509V38.2063H887.294L886.907 41.0665H882.679ZM896.777 50.5928H892.151L891.319 54H887.41L892.242 38.2063H896.777L901.609 54H897.609L896.777 50.5928ZM892.743 47.8808H896.162L894.453 40.8956L892.743 47.8808Z" fill="white"/>
<path d="M841.507 83.7318L844.063 84.7794L838.349 98.3974H849.903V100.794H835.143V98.6355L841.507 83.7318ZM847.174 92.3502V106H844.237L844.221 98.9053L844.634 92.3502H847.174ZM860.541 83.7318L863.096 84.7794L857.383 98.3974H868.937V100.794H854.176V98.6355L860.541 83.7318ZM866.207 92.3502V106H863.271L863.255 98.9053L863.668 92.3502H866.207Z" fill="black"/>
<path d="M840.587 133.732C842.015 133.732 843.232 134.002 844.237 134.541C845.242 135.081 846.01 135.816 846.539 136.747C847.068 137.679 847.332 138.721 847.332 139.874C847.332 140.858 847.163 141.821 846.824 142.763C846.486 143.705 845.935 144.694 845.174 145.731C844.422 146.757 843.433 147.9 842.206 149.159C840.978 150.418 839.476 151.857 837.698 153.476H847.84L847.475 156H834.222V153.603C835.83 152.058 837.206 150.704 838.349 149.54C839.502 148.366 840.454 147.334 841.206 146.445C841.957 145.556 842.549 144.757 842.983 144.049C843.417 143.329 843.719 142.652 843.888 142.017C844.068 141.371 844.158 140.705 844.158 140.017C844.158 138.843 843.825 137.917 843.158 137.24C842.502 136.562 841.587 136.224 840.412 136.224C839.365 136.224 838.502 136.409 837.825 136.779C837.158 137.139 836.486 137.726 835.809 138.541L833.778 136.97C834.635 135.901 835.603 135.097 836.682 134.557C837.761 134.007 839.063 133.732 840.587 133.732ZM858.525 156.333L855.668 155.46L864.128 136.589H853.97V134.129H867.207V136.382L858.525 156.333Z" fill="black"/>
<path d="M844.11 184.129V205.365H841.079V187.335L836.143 190.35L834.825 188.192L841.428 184.129H844.11ZM848.602 203.556V206H835.714V203.556H848.602ZM859.62 183.732C861.049 183.732 862.266 184.002 863.271 184.541C864.276 185.081 865.043 185.816 865.572 186.747C866.101 187.679 866.366 188.721 866.366 189.874C866.366 190.858 866.197 191.821 865.858 192.763C865.519 193.705 864.969 194.694 864.207 195.731C863.456 196.757 862.467 197.9 861.239 199.159C860.012 200.418 858.509 201.857 856.732 203.476H866.874L866.509 206H853.256V203.603C854.864 202.058 856.24 200.704 857.383 199.54C858.536 198.366 859.488 197.334 860.239 196.445C860.991 195.556 861.583 194.757 862.017 194.049C862.451 193.329 862.752 192.652 862.922 192.017C863.102 191.371 863.192 190.705 863.192 190.017C863.192 188.843 862.858 187.917 862.192 187.24C861.536 186.562 860.62 186.224 859.446 186.224C858.398 186.224 857.536 186.409 856.859 186.779C856.192 187.139 855.52 187.726 854.843 188.541L852.811 186.97C853.669 185.901 854.637 185.097 855.716 184.557C856.795 184.007 858.097 183.732 859.62 183.732Z" fill="black"/>
<path d="M815.5 39.5556L810.639 34H803L812.722 45.8056L820.723 42.5069L815.5 39.5556Z" fill="#55ACEE"/>
<path d="M820.361 34L815.5 39.5556L819.243 44.6333L820.095 43.5993L828 34H820.361Z" fill="#3B88C3"/>
<path d="M819.115 45.1292C819.17 44.9785 819.206 44.8181 819.206 44.6479C819.206 43.8813 818.583 43.259 817.817 43.259H813.187C812.419 43.259 811.798 43.8813 811.798 44.6479C811.798 44.8181 811.833 44.9785 811.889 45.1292C809.626 46.3972 808.094 48.8146 808.094 51.5924C808.094 55.6833 811.41 59 815.501 59C819.592 59 822.909 55.6833 822.909 51.5924C822.909 48.8146 821.377 46.3972 819.115 45.1292Z" fill="#CCD6DD"/>
<path d="M818.279 54.084H815.819C816.429 53.227 817.494 51.8381 817.909 51.0972C818.221 50.4867 818.415 50.0979 818.415 49.4097C818.415 47.968 817.325 46.7867 815.468 46.7867C813.923 46.7867 812.871 48.059 812.871 48.059C812.78 48.1631 812.793 48.3187 812.884 48.3972L813.677 49.202C813.78 49.3062 813.936 49.3062 814.04 49.202C814.286 48.9291 814.767 48.5527 815.299 48.5527C816.026 48.5527 816.442 48.9937 816.442 49.4874C816.442 49.8506 816.273 50.2145 816.104 50.4742C815.338 51.6423 813.416 54.2527 812.663 55.2395V55.4992C812.663 55.6298 812.767 55.7458 812.91 55.7458H818.279C818.408 55.7458 818.526 55.6291 818.526 55.4992V54.3312C818.527 54.2006 818.408 54.084 818.279 54.084Z" fill="#627077"/>
<rect x="927" y="23" width="140" height="45" rx="5" fill="#276A9B"/>
<rect x="927" y="72" width="140" height="45" rx="5" fill="#D9D9D9"/>
<rect x="927" y="122" width="140" height="45" rx="5" fill="#D9D9D9"/>
<rect x="927" y="173" width="140" height="45" rx="5" fill="#D9D9D9"/>
<path d="M980.162 49.2254C980.162 48.6709 980.052 48.2341 979.831 47.915C979.619 47.5883 979.315 47.3566 978.92 47.2199C978.532 47.0831 978.076 47.0148 977.552 47.0148H976.014V51.2766H977.393C977.757 51.2766 978.103 51.25 978.43 51.1968C978.764 51.1436 979.06 51.0449 979.318 50.9005C979.584 50.7562 979.789 50.5511 979.934 50.2852C980.086 50.0117 980.162 49.6584 980.162 49.2254ZM979.569 42.6162C979.569 41.9933 979.372 41.5451 978.977 41.2716C978.589 40.9905 977.985 40.85 977.165 40.85H976.014V44.5078H977.279C978.084 44.5078 978.665 44.3597 979.022 44.0634C979.387 43.7672 979.569 43.2848 979.569 42.6162ZM984.013 49.3736C984.013 50.2852 983.839 51.0411 983.489 51.6412C983.14 52.2413 982.661 52.7123 982.053 53.0542C981.446 53.3961 980.75 53.6392 979.968 53.7835C979.193 53.9278 978.376 54 977.518 54H972.276V38.2063H977.279C978.092 38.2063 978.859 38.2747 979.581 38.4114C980.31 38.5406 980.956 38.7609 981.518 39.0723C982.08 39.3762 982.521 39.7902 982.84 40.3144C983.166 40.831 983.33 41.4729 983.33 42.2402C983.33 42.8707 983.197 43.4177 982.931 43.8811C982.665 44.3369 982.312 44.7129 981.871 45.0092C981.43 45.2979 980.952 45.5068 980.435 45.636C980.997 45.7271 981.552 45.9056 982.099 46.1715C982.653 46.4298 983.109 46.8173 983.466 47.3338C983.831 47.8504 984.013 48.5303 984.013 49.3736ZM997.462 43.0037C997.462 43.7558 997.322 44.4129 997.04 44.975C996.759 45.5372 996.38 46.012 995.901 46.3994C995.422 46.7869 994.887 47.0983 994.294 47.3338L998.431 54H994.203L990.784 47.9606H989.725V54H985.987V38.2063H990.955C993.105 38.2063 994.727 38.5975 995.821 39.38C996.915 40.1625 997.462 41.3704 997.462 43.0037ZM993.61 43.0037C993.61 42.244 993.386 41.6932 992.938 41.3514C992.498 41.0019 991.84 40.8272 990.967 40.8272H989.725V45.3967H991.115C991.928 45.3967 992.547 45.2067 992.972 44.8269C993.398 44.4471 993.61 43.8393 993.61 43.0037ZM1011.49 46.0918C1011.49 47.7631 1011.25 49.2216 1010.77 50.4675C1010.3 51.7058 1009.59 52.6706 1008.64 53.3619C1007.71 54.0456 1006.55 54.3874 1005.17 54.3874C1003.79 54.3874 1002.63 54.0532 1001.69 53.3847C1000.75 52.7085 1000.04 51.7514 999.561 50.5131C999.083 49.2748 998.843 47.801 998.843 46.0918C998.843 44.4205 999.083 42.9657 999.561 41.7274C1000.04 40.4891 1000.75 39.5282 1001.69 38.8444C1002.63 38.1531 1003.79 37.8075 1005.17 37.8075C1006.55 37.8075 1007.71 38.1417 1008.64 38.8103C1009.59 39.4788 1010.3 40.4322 1010.77 41.6704C1011.25 42.9087 1011.49 44.3825 1011.49 46.0918ZM1007.66 46.0918C1007.66 44.147 1007.47 42.734 1007.08 41.8528C1006.69 40.9715 1006.06 40.5309 1005.17 40.5309C1004.28 40.5309 1003.64 40.9753 1003.25 41.8642C1002.87 42.7454 1002.67 44.1546 1002.67 46.0918C1002.67 48.0365 1002.87 49.4495 1003.26 50.3308C1003.66 51.212 1004.29 51.6526 1005.17 51.6526C1006.08 51.6526 1006.72 51.2082 1007.09 50.3194C1007.47 49.4229 1007.66 48.0137 1007.66 46.0918ZM1019.95 54L1015.79 41.2944C1015.84 41.6363 1015.9 42.0503 1015.96 42.5365C1016.03 43.0151 1016.09 43.5506 1016.16 44.1432C1016.22 44.7281 1016.27 45.3511 1016.3 46.012C1016.34 46.6729 1016.36 47.349 1016.36 48.0403V54H1013.18V38.2063H1017.84L1021.88 50.8435C1021.79 50.3649 1021.7 49.7952 1021.61 49.1343C1021.53 48.4658 1021.46 47.7213 1021.4 46.9008C1021.34 46.0804 1021.31 45.1991 1021.31 44.2571V38.2063H1024.48V54H1019.95ZM1033.82 37.8075C1034.95 37.8075 1035.91 37.9594 1036.7 38.2633C1037.5 38.5596 1038.23 38.9812 1038.89 39.5282L1037.06 41.7388C1036.62 41.3818 1036.14 41.1007 1035.62 40.8956C1035.1 40.6829 1034.53 40.5765 1033.91 40.5765C1033.25 40.5765 1032.65 40.7664 1032.1 41.1463C1031.55 41.5185 1031.12 42.1111 1030.79 42.9239C1030.46 43.7292 1030.3 44.7775 1030.3 46.069C1030.3 47.3376 1030.45 48.3746 1030.77 49.1798C1031.09 49.9775 1031.52 50.5663 1032.08 50.9461C1032.63 51.3183 1033.27 51.5045 1033.98 51.5045C1034.77 51.5045 1035.43 51.3563 1035.95 51.06C1036.48 50.7638 1036.96 50.4409 1037.4 50.0915L1039.1 52.2565C1038.5 52.8415 1037.77 53.3429 1036.91 53.7607C1036.04 54.1785 1035 54.3874 1033.77 54.3874C1032.35 54.3874 1031.08 54.0722 1029.97 53.4416C1028.87 52.8035 1028 51.8691 1027.37 50.6384C1026.75 49.4002 1026.44 47.877 1026.44 46.069C1026.44 44.3065 1026.76 42.81 1027.4 41.5793C1028.06 40.3486 1028.94 39.4142 1030.06 38.7761C1031.18 38.1303 1032.43 37.8075 1033.82 37.8075ZM1045.18 40.8728V44.6674H1050.65V47.2883H1045.18V51.3221H1051.78V54H1041.45V38.2063H1051.77L1051.39 40.8728H1045.18Z" fill="white"/>
<path d="M986.507 83.7318L989.063 84.7794L983.349 98.3974H994.903V100.794H980.143V98.6355L986.507 83.7318ZM992.174 92.3502V106H989.237L989.221 98.9053L989.634 92.3502H992.174ZM1005.62 83.7318C1007.05 83.7318 1008.27 84.0017 1009.27 84.5413C1010.28 85.0809 1011.04 85.8163 1011.57 86.7475C1012.1 87.6786 1012.37 88.7209 1012.37 89.8742C1012.37 90.8583 1012.2 91.8212 1011.86 92.7629C1011.52 93.7046 1010.97 94.694 1010.21 95.7309C1009.46 96.7573 1008.47 97.9001 1007.24 99.1592C1006.01 100.418 1004.51 101.857 1002.73 103.476H1012.87L1012.51 106H999.256V103.603C1000.86 102.058 1002.24 100.704 1003.38 99.5402C1004.54 98.3657 1005.49 97.334 1006.24 96.4452C1006.99 95.5563 1007.58 94.7575 1008.02 94.0485C1008.45 93.329 1008.75 92.6518 1008.92 92.0169C1009.1 91.3715 1009.19 90.7049 1009.19 90.0171C1009.19 88.8426 1008.86 87.9167 1008.19 87.2395C1007.54 86.5623 1006.62 86.2237 1005.45 86.2237C1004.4 86.2237 1003.54 86.4089 1002.86 86.7792C1002.19 87.139 1001.52 87.7262 1000.84 88.541L998.811 86.9697C999.669 85.901 1000.64 85.0968 1001.72 84.5572C1002.8 84.0069 1004.1 83.7318 1005.62 83.7318Z" fill="black"/>
<path d="M985.587 133.732C987.015 133.732 988.232 134.002 989.237 134.541C990.242 135.081 991.01 135.816 991.539 136.747C992.068 137.679 992.332 138.721 992.332 139.874C992.332 140.858 992.163 141.821 991.824 142.763C991.486 143.705 990.935 144.694 990.174 145.731C989.422 146.757 988.433 147.9 987.206 149.159C985.978 150.418 984.476 151.857 982.698 153.476H992.84L992.475 156H979.222V153.603C980.83 152.058 982.206 150.704 983.349 149.54C984.502 148.366 985.454 147.334 986.206 146.445C986.957 145.556 987.549 144.757 987.983 144.049C988.417 143.329 988.719 142.652 988.888 142.017C989.068 141.371 989.158 140.705 989.158 140.017C989.158 138.843 988.825 137.917 988.158 137.24C987.502 136.562 986.587 136.224 985.412 136.224C984.365 136.224 983.502 136.409 982.825 136.779C982.158 137.139 981.486 137.726 980.809 138.541L978.778 136.97C979.635 135.901 980.603 135.097 981.682 134.557C982.761 134.007 984.063 133.732 985.587 133.732ZM1004.54 133.732L1007.1 134.779L1001.38 148.397H1012.94V150.794H998.176V148.635L1004.54 133.732ZM1010.21 142.35V156H1007.27L1007.26 148.905L1007.67 142.35H1010.21Z" fill="black"/>
<path d="M989.11 184.129V205.365H986.079V187.335L981.143 190.35L979.825 188.192L986.428 184.129H989.11ZM993.602 203.556V206H980.714V203.556H993.602ZM1004.57 183.732C1005.98 183.732 1007.19 183.98 1008.21 184.478C1009.23 184.975 1010.02 185.642 1010.57 186.478C1011.13 187.314 1011.41 188.229 1011.41 189.223C1011.41 190.112 1011.22 190.916 1010.83 191.636C1010.45 192.345 1009.93 192.932 1009.27 193.398C1008.63 193.863 1007.91 194.181 1007.11 194.35C1007.99 194.424 1008.81 194.673 1009.56 195.096C1010.32 195.509 1010.93 196.101 1011.4 196.874C1011.87 197.636 1012.11 198.583 1012.11 199.715C1012.11 200.974 1011.79 202.111 1011.14 203.127C1010.51 204.132 1009.61 204.931 1008.45 205.524C1007.28 206.106 1005.93 206.397 1004.38 206.397C1003.09 206.397 1001.83 206.153 1000.6 205.667C999.388 205.18 998.351 204.429 997.494 203.413L999.462 201.762C1000.09 202.492 1000.82 203.037 1001.67 203.397C1002.51 203.746 1003.38 203.921 1004.27 203.921C1005.72 203.921 1006.86 203.545 1007.68 202.794C1008.52 202.032 1008.94 200.99 1008.94 199.667C1008.94 198.662 1008.75 197.868 1008.37 197.286C1008 196.704 1007.48 196.286 1006.81 196.032C1006.15 195.779 1005.4 195.652 1004.54 195.652H1002.68L1003.05 193.334H1004.35C1005.05 193.334 1005.71 193.202 1006.32 192.937C1006.93 192.673 1007.43 192.271 1007.81 191.731C1008.19 191.181 1008.38 190.493 1008.38 189.668C1008.38 188.525 1008 187.652 1007.22 187.049C1006.45 186.435 1005.51 186.128 1004.4 186.128C1003.47 186.128 1002.65 186.298 1001.94 186.636C1001.23 186.964 1000.52 187.462 999.811 188.128L998.161 186.319C999.102 185.43 1000.11 184.779 1001.19 184.367C1002.27 183.943 1003.4 183.732 1004.57 183.732Z" fill="black"/>
<path d="M953.5 39.5556L948.639 34H941L950.722 45.8056L958.723 42.5069L953.5 39.5556Z" fill="#55ACEE"/>
<path d="M958.361 34L953.5 39.5556L957.243 44.6333L958.095 43.5993L966 34H958.361Z" fill="#3B88C3"/>
<path d="M957.115 45.1292C957.17 44.9785 957.206 44.8181 957.206 44.6479C957.206 43.8813 956.583 43.259 955.817 43.259H951.187C950.419 43.259 949.798 43.8813 949.798 44.6479C949.798 44.8181 949.833 44.9785 949.889 45.1292C947.626 46.3972 946.094 48.8146 946.094 51.5924C946.094 55.6833 949.41 59 953.501 59C957.592 59 960.909 55.6833 960.909 51.5924C960.909 48.8146 959.377 46.3972 957.115 45.1292Z" fill="#FF8A3B"/>
<path d="M950.806 54.3819L951.624 53.5639C951.715 53.4722 951.845 53.4597 951.949 53.5375C951.949 53.5375 952.754 54.1354 953.376 54.1354C953.936 54.1354 954.507 53.668 954.507 53.0965C954.507 52.525 953.922 52.0451 952.962 52.0451H952.518C952.389 52.0451 952.272 51.9285 952.272 51.7986V50.7208C952.272 50.5778 952.389 50.4743 952.518 50.4743H952.962C953.871 50.4743 954.351 50.0333 954.351 49.475C954.351 48.916 953.871 48.5014 953.312 48.5014C952.74 48.5014 952.377 48.8 952.183 49.0201C952.091 49.1243 951.936 49.1243 951.833 49.034L951.04 48.2548C950.936 48.1632 950.949 48.0083 951.04 47.9173C951.04 47.9173 952.105 46.7743 953.52 46.7743C955.026 46.7743 956.324 47.6965 956.324 49.1507C956.324 50.15 955.571 50.8903 954.987 51.1625V51.2021C955.597 51.4618 956.558 52.2667 956.558 53.3833C956.558 54.7986 955.324 55.8639 953.532 55.8639C951.897 55.8639 951.065 55.0583 950.793 54.7083C950.715 54.6153 950.729 54.4722 950.806 54.3819Z" fill="#7C4119"/>
</svg>
