<svg width="1208" height="363" viewBox="0 0 1208 363" fill="none" xmlns="http://www.w3.org/2000/svg">
<g clip-path="url(#clip0_107_753)">
<rect width="1208" height="363" fill="white"/>
<rect x="342.248" y="327.665" width="25.7725" height="25.7725" rx="5.03368" fill="#0037AC"/>
<path d="M352.232 334.398C352.061 333.981 351.471 333.981 351.3 334.398L351.032 335.052C350.982 335.174 350.981 335.311 351.031 335.433L354.627 344.257C354.762 344.588 354.518 344.95 354.161 344.95H350.582H349.374C349.016 344.95 348.772 344.587 348.908 344.255L349.529 342.744C349.579 342.622 349.579 342.485 349.529 342.363L349.247 341.67C349.077 341.253 348.486 341.252 348.315 341.669L346.625 345.786C346.489 346.117 346.733 346.481 347.091 346.481H356.441C356.799 346.481 357.043 346.117 356.907 345.786L352.232 334.398Z" fill="white"/>
<path d="M355.642 336.845C355.507 336.514 355.751 336.152 356.108 336.152H359.687H360.895C361.253 336.152 361.497 336.515 361.361 336.846L360.74 338.358C360.69 338.48 360.69 338.617 360.74 338.739L361.022 339.432C361.192 339.849 361.783 339.85 361.954 339.433L363.644 335.316C363.78 334.985 363.537 334.621 363.179 334.621H353.828C353.47 334.621 353.226 334.985 353.362 335.316L358.038 346.704C358.208 347.121 358.798 347.121 358.969 346.704L359.238 346.049C359.288 345.927 359.288 345.791 359.238 345.668L355.642 336.845Z" fill="white"/>
<path d="M383.915 342.027H380.268L379.557 344.484H377.811L381.059 334.273H383.19L386.446 344.484H384.626L383.915 342.027ZM380.623 340.703H383.553L382.095 335.605L380.623 340.703ZM389.533 336.67V342.131C389.533 342.594 389.624 342.925 389.807 343.122C389.994 343.32 390.275 343.418 390.65 343.418C391.005 343.418 391.348 343.312 391.679 343.1C392.009 342.888 392.271 342.629 392.463 342.323V336.67H394.12V344.484H392.692L392.589 343.485C392.298 343.874 391.93 344.173 391.486 344.38C391.042 344.582 390.589 344.683 390.125 344.683C389.37 344.683 388.805 344.476 388.431 344.062C388.061 343.643 387.876 343.068 387.876 342.338V336.67H389.533ZM403.274 344.069C402.988 344.252 402.646 344.4 402.246 344.513C401.846 344.627 401.43 344.683 400.996 344.683C400.088 344.683 399.397 344.449 398.924 343.981C398.455 343.507 398.221 342.885 398.221 342.116V337.876H396.482V336.67H398.221V334.924L399.878 334.724V336.67H402.512L402.327 337.876H399.878V342.101C399.878 342.52 399.982 342.834 400.189 343.041C400.401 343.243 400.747 343.344 401.225 343.344C401.511 343.344 401.775 343.31 402.017 343.241C402.258 343.172 402.478 343.083 402.675 342.974L403.274 344.069ZM408.751 336.463C409.516 336.463 410.16 336.633 410.683 336.974C411.205 337.314 411.6 337.79 411.866 338.402C412.138 339.013 412.273 339.733 412.273 340.562C412.273 341.386 412.135 342.109 411.859 342.73C411.588 343.347 411.188 343.828 410.66 344.173C410.137 344.513 409.499 344.683 408.744 344.683C407.989 344.683 407.348 344.518 406.82 344.188C406.297 343.852 405.898 343.376 405.622 342.76C405.35 342.143 405.215 341.416 405.215 340.577C405.215 339.763 405.35 339.048 405.622 338.431C405.898 337.815 406.3 337.334 406.828 336.988C407.355 336.638 407.997 336.463 408.751 336.463ZM408.751 337.751C408.155 337.751 407.706 337.98 407.405 338.439C407.104 338.892 406.953 339.605 406.953 340.577C406.953 341.544 407.101 342.257 407.397 342.715C407.698 343.174 408.147 343.403 408.744 343.403C409.341 343.403 409.787 343.174 410.083 342.715C410.384 342.257 410.535 341.539 410.535 340.562C410.535 339.6 410.387 338.892 410.091 338.439C409.795 337.98 409.348 337.751 408.751 337.751ZM414.569 344.484V343.3H415.715V337.847H414.569V336.67H416.981L417.284 338.483C417.575 337.827 417.935 337.329 418.364 336.988C418.798 336.643 419.356 336.471 420.036 336.471C420.268 336.471 420.475 336.49 420.658 336.53C420.845 336.564 421.03 336.611 421.213 336.67L420.717 338.091C420.559 338.047 420.411 338.014 420.273 337.995C420.135 337.97 419.982 337.958 419.814 337.958C419.247 337.958 418.756 338.17 418.342 338.594C417.933 339.018 417.61 339.62 417.373 340.399V343.3H418.949V344.484H414.569ZM419.748 339.549V337.625L419.955 336.67H421.213L420.932 339.549H419.748ZM425.151 343.344C425.151 342.984 425.279 342.676 425.536 342.419C425.792 342.158 426.108 342.027 426.483 342.027C426.862 342.027 427.178 342.158 427.43 342.419C427.686 342.676 427.814 342.984 427.814 343.344C427.814 343.714 427.686 344.03 427.43 344.291C427.178 344.553 426.862 344.683 426.483 344.683C426.108 344.683 425.792 344.553 425.536 344.291C425.279 344.03 425.151 343.714 425.151 343.344ZM425.151 338.091C425.151 337.849 425.21 337.627 425.328 337.425C425.447 337.223 425.607 337.062 425.809 336.944C426.012 336.826 426.236 336.766 426.483 336.766C426.862 336.766 427.178 336.897 427.43 337.159C427.686 337.415 427.814 337.726 427.814 338.091C427.814 338.456 427.686 338.772 427.43 339.038C427.178 339.299 426.862 339.43 426.483 339.43C426.108 339.43 425.792 339.299 425.536 339.038C425.279 338.772 425.151 338.456 425.151 338.091ZM447.595 334.229V340.792C447.595 341.388 447.504 341.929 447.321 342.412C447.139 342.895 446.87 343.307 446.515 343.648C446.165 343.988 445.733 344.249 445.22 344.432C444.712 344.614 444.13 344.706 443.474 344.706C442.813 344.706 442.241 344.622 441.757 344.454C441.279 344.281 440.818 344.045 440.374 343.744L441.299 342.249C441.649 342.491 441.977 342.661 442.283 342.76C442.589 342.853 442.936 342.9 443.326 342.9C443.854 342.9 444.293 342.733 444.643 342.397C444.998 342.057 445.176 341.531 445.176 340.821V336.004H442.024V334.229H447.595ZM453.109 336.367C453.918 336.367 454.606 336.54 455.173 336.885C455.741 337.23 456.175 337.716 456.476 338.342C456.776 338.964 456.927 339.694 456.927 340.533C456.927 341.406 456.774 342.158 456.468 342.789C456.167 343.416 455.733 343.897 455.166 344.232C454.599 344.567 453.913 344.735 453.109 344.735C452.31 344.735 451.624 344.57 451.052 344.239C450.485 343.909 450.048 343.431 449.742 342.804C449.442 342.178 449.291 341.425 449.291 340.547C449.291 339.714 449.442 338.984 449.742 338.357C450.048 337.731 450.485 337.242 451.052 336.892C451.624 336.542 452.31 336.367 453.109 336.367ZM453.109 338.091C452.631 338.091 452.275 338.288 452.044 338.683C451.817 339.073 451.703 339.694 451.703 340.547C451.703 341.416 451.817 342.044 452.044 342.434C452.275 342.824 452.631 343.019 453.109 343.019C453.587 343.019 453.94 342.824 454.167 342.434C454.399 342.044 454.515 341.411 454.515 340.533C454.515 339.684 454.399 339.065 454.167 338.675C453.94 338.286 453.587 338.091 453.109 338.091ZM461.73 343.063C462.12 343.063 462.433 343.001 462.67 342.878C462.912 342.755 463.033 342.57 463.033 342.323C463.033 342.155 462.986 342.015 462.892 341.901C462.798 341.788 462.618 341.679 462.352 341.576C462.086 341.472 461.691 341.349 461.168 341.206C460.69 341.078 460.265 340.915 459.896 340.718C459.53 340.52 459.244 340.266 459.037 339.955C458.835 339.645 458.734 339.257 458.734 338.794C458.734 338.325 458.865 337.908 459.126 337.543C459.387 337.178 459.772 336.892 460.28 336.685C460.788 336.473 461.41 336.367 462.145 336.367C462.845 336.367 463.454 336.458 463.972 336.641C464.495 336.818 464.947 337.045 465.326 337.321L464.394 338.698C464.069 338.495 463.718 338.335 463.343 338.217C462.969 338.093 462.591 338.032 462.211 338.032C461.832 338.032 461.548 338.084 461.361 338.187C461.178 338.286 461.087 338.436 461.087 338.638C461.087 338.772 461.134 338.888 461.227 338.986C461.326 339.08 461.508 339.179 461.775 339.282C462.041 339.381 462.431 339.504 462.944 339.652C463.452 339.795 463.893 339.96 464.268 340.148C464.648 340.335 464.942 340.587 465.149 340.903C465.356 341.213 465.46 341.625 465.46 342.138C465.46 342.71 465.289 343.191 464.949 343.581C464.609 343.966 464.157 344.254 463.595 344.447C463.033 344.639 462.416 344.735 461.745 344.735C460.986 344.735 460.315 344.627 459.733 344.41C459.151 344.193 458.655 343.907 458.246 343.551L459.422 342.234C459.728 342.471 460.073 342.668 460.458 342.826C460.848 342.984 461.272 343.063 461.73 343.063ZM469.479 341.235C469.533 341.665 469.644 342.012 469.812 342.279C469.984 342.54 470.204 342.733 470.47 342.856C470.737 342.974 471.035 343.033 471.366 343.033C471.726 343.033 472.073 342.974 472.409 342.856C472.744 342.737 473.067 342.58 473.378 342.382L474.318 343.655C473.948 343.971 473.499 344.23 472.971 344.432C472.448 344.634 471.851 344.735 471.181 344.735C470.283 344.735 469.531 344.558 468.924 344.202C468.317 343.842 467.861 343.349 467.555 342.723C467.249 342.096 467.096 341.376 467.096 340.562C467.096 339.788 467.244 339.085 467.54 338.453C467.836 337.817 468.268 337.312 468.835 336.937C469.407 336.557 470.105 336.367 470.929 336.367C471.679 336.367 472.327 336.527 472.875 336.848C473.427 337.169 473.854 337.63 474.155 338.231C474.461 338.833 474.614 339.556 474.614 340.399C474.614 340.533 474.609 340.676 474.599 340.829C474.594 340.981 474.584 341.117 474.569 341.235H469.479ZM470.929 337.936C470.51 337.936 470.172 338.086 469.915 338.387C469.659 338.688 469.503 339.169 469.449 339.83H472.335C472.33 339.257 472.219 338.799 472.002 338.453C471.785 338.108 471.427 337.936 470.929 337.936ZM480.675 336.367C481.361 336.367 481.913 336.537 482.332 336.877C482.752 337.218 483.058 337.699 483.25 338.32C483.447 338.942 483.546 339.679 483.546 340.533C483.546 341.342 483.428 342.064 483.191 342.7C482.954 343.332 482.611 343.83 482.162 344.195C481.713 344.555 481.168 344.735 480.527 344.735C479.763 344.735 479.141 344.461 478.663 343.914V347.517L476.325 347.761V336.626H478.396L478.5 337.506C478.82 337.097 479.171 336.806 479.55 336.633C479.93 336.456 480.305 336.367 480.675 336.367ZM479.95 338.091C479.679 338.091 479.439 338.172 479.232 338.335C479.025 338.498 478.835 338.72 478.663 339.001V342.316C478.825 342.557 478.996 342.735 479.173 342.848C479.356 342.962 479.57 343.019 479.817 343.019C480.231 343.019 480.554 342.831 480.786 342.456C481.018 342.077 481.134 341.445 481.134 340.562C481.134 339.911 481.087 339.408 480.993 339.053C480.9 338.693 480.764 338.444 480.586 338.305C480.409 338.162 480.197 338.091 479.95 338.091ZM487.536 333.274V337.403C487.866 337.053 488.224 336.794 488.608 336.626C488.998 336.453 489.41 336.367 489.844 336.367C490.545 336.367 491.08 336.572 491.45 336.981C491.82 337.39 492.005 337.968 492.005 338.712V344.484H489.667V339.364C489.667 338.89 489.612 338.56 489.504 338.372C489.4 338.185 489.203 338.091 488.912 338.091C488.749 338.091 488.589 338.13 488.431 338.209C488.278 338.283 488.128 338.392 487.98 338.535C487.832 338.678 487.684 338.848 487.536 339.045V344.484H485.198V333.504L487.536 333.274ZM510.313 341.487C510.313 342.123 510.145 342.686 509.81 343.174C509.479 343.662 509.003 344.045 508.382 344.321C507.76 344.597 507.013 344.735 506.14 344.735C505.173 344.735 504.362 344.595 503.706 344.313C503.055 344.027 502.514 343.675 502.085 343.255L503.313 341.894C503.693 342.224 504.113 342.481 504.571 342.663C505.03 342.841 505.533 342.93 506.081 342.93C506.421 342.93 506.719 342.881 506.976 342.782C507.232 342.683 507.432 342.54 507.575 342.353C507.718 342.165 507.79 341.938 507.79 341.672C507.79 341.42 507.733 341.208 507.62 341.036C507.506 340.863 507.314 340.708 507.043 340.57C506.776 340.431 506.404 340.291 505.925 340.148C505.126 339.901 504.483 339.63 503.994 339.334C503.511 339.038 503.158 338.695 502.936 338.305C502.719 337.916 502.611 337.462 502.611 336.944C502.611 336.318 502.783 335.782 503.129 335.338C503.479 334.895 503.947 334.557 504.534 334.325C505.121 334.088 505.767 333.97 506.473 333.97C507.267 333.97 507.967 334.086 508.574 334.317C509.181 334.544 509.706 334.87 510.15 335.294L509.003 336.611C508.658 336.32 508.286 336.106 507.886 335.967C507.487 335.824 507.08 335.753 506.665 335.753C506.359 335.753 506.091 335.792 505.859 335.871C505.627 335.945 505.447 336.056 505.319 336.204C505.19 336.352 505.126 336.537 505.126 336.759C505.126 336.976 505.188 337.159 505.311 337.307C505.435 337.455 505.649 337.595 505.955 337.728C506.261 337.857 506.685 338.007 507.228 338.18C507.874 338.377 508.426 338.614 508.885 338.89C509.349 339.161 509.701 339.504 509.943 339.918C510.19 340.333 510.313 340.856 510.313 341.487ZM518.431 342.22C518.431 342.516 518.471 342.73 518.55 342.863C518.633 342.996 518.767 343.098 518.949 343.167L518.468 344.706C518.005 344.661 517.612 344.56 517.292 344.402C516.976 344.239 516.727 343.995 516.545 343.67C516.244 344.03 515.859 344.299 515.39 344.476C514.922 344.649 514.443 344.735 513.955 344.735C513.146 344.735 512.5 344.506 512.016 344.047C511.538 343.583 511.299 342.989 511.299 342.264C511.299 341.411 511.632 340.752 512.297 340.288C512.968 339.825 513.91 339.593 515.124 339.593H516.182V339.297C516.182 338.888 516.049 338.584 515.782 338.387C515.521 338.19 515.136 338.091 514.628 338.091C514.377 338.091 514.054 338.128 513.659 338.202C513.264 338.271 512.87 338.372 512.475 338.505L511.935 336.951C512.443 336.759 512.971 336.614 513.518 336.515C514.071 336.416 514.564 336.367 514.998 336.367C516.167 336.367 517.03 336.606 517.588 337.085C518.15 337.558 518.431 338.244 518.431 339.142V342.22ZM514.761 343.063C515.013 343.063 515.277 342.989 515.553 342.841C515.829 342.688 516.039 342.474 516.182 342.197V340.925H515.605C514.954 340.925 514.475 341.026 514.169 341.228C513.864 341.425 513.711 341.716 513.711 342.101C513.711 342.402 513.802 342.639 513.984 342.811C514.172 342.979 514.431 343.063 514.761 343.063ZM520.69 344.484V336.626H522.732L522.894 337.536C523.245 337.141 523.615 336.848 524.004 336.656C524.394 336.463 524.838 336.367 525.336 336.367C526.007 336.367 526.535 336.572 526.92 336.981C527.304 337.39 527.497 337.968 527.497 338.712V344.484H525.159V339.386C525.159 339.065 525.136 338.811 525.092 338.624C525.048 338.431 524.969 338.296 524.855 338.217C524.747 338.133 524.596 338.091 524.404 338.091C524.241 338.091 524.081 338.128 523.923 338.202C523.77 338.271 523.62 338.372 523.472 338.505C523.324 338.638 523.176 338.799 523.028 338.986V344.484H520.69ZM536.636 344.025C536.33 344.222 535.96 344.39 535.526 344.528C535.092 344.666 534.604 344.735 534.061 344.735C533.035 344.735 532.273 344.474 531.775 343.951C531.277 343.423 531.028 342.708 531.028 341.805V338.239H529.378V336.626H531.028V334.924L533.366 334.643V336.626H535.896L535.667 338.239H533.366V341.805C533.366 342.195 533.454 342.474 533.632 342.641C533.81 342.809 534.093 342.893 534.483 342.893C534.759 342.893 535.011 342.861 535.238 342.797C535.469 342.728 535.677 342.641 535.859 342.538L536.636 344.025ZM543.238 336.626V342.885H545.235V344.484H538.672V342.885H540.899V338.224H538.746V336.626H543.238ZM541.824 332.512C542.229 332.512 542.559 332.638 542.816 332.889C543.072 333.141 543.201 333.454 543.201 333.829C543.201 334.204 543.072 334.52 542.816 334.776C542.559 335.028 542.229 335.154 541.824 335.154C541.415 335.154 541.079 335.028 540.818 334.776C540.562 334.52 540.433 334.204 540.433 333.829C540.433 333.454 540.562 333.141 540.818 332.889C541.079 332.638 541.415 332.512 541.824 332.512ZM553.923 342.22C553.923 342.516 553.963 342.73 554.042 342.863C554.126 342.996 554.259 343.098 554.441 343.167L553.96 344.706C553.497 344.661 553.104 344.56 552.784 344.402C552.468 344.239 552.219 343.995 552.037 343.67C551.736 344.03 551.351 344.299 550.882 344.476C550.414 344.649 549.935 344.735 549.447 344.735C548.638 344.735 547.992 344.506 547.508 344.047C547.03 343.583 546.791 342.989 546.791 342.264C546.791 341.411 547.124 340.752 547.79 340.288C548.46 339.825 549.403 339.593 550.616 339.593H551.674V339.297C551.674 338.888 551.541 338.584 551.274 338.387C551.013 338.19 550.628 338.091 550.12 338.091C549.869 338.091 549.546 338.128 549.151 338.202C548.756 338.271 548.362 338.372 547.967 338.505L547.427 336.951C547.935 336.759 548.463 336.614 549.01 336.515C549.563 336.416 550.056 336.367 550.49 336.367C551.659 336.367 552.522 336.606 553.08 337.085C553.642 337.558 553.923 338.244 553.923 339.142V342.22ZM550.253 343.063C550.505 343.063 550.769 342.989 551.045 342.841C551.321 342.688 551.531 342.474 551.674 342.197V340.925H551.097C550.446 340.925 549.967 341.026 549.661 341.228C549.356 341.425 549.203 341.716 549.203 342.101C549.203 342.402 549.294 342.639 549.476 342.811C549.664 342.979 549.923 343.063 550.253 343.063ZM563.159 335.368L563.706 337.085C563.43 337.193 563.107 337.272 562.737 337.321C562.367 337.371 561.936 337.395 561.442 337.395C561.936 337.608 562.31 337.871 562.567 338.187C562.828 338.498 562.959 338.907 562.959 339.415C562.959 339.923 562.823 340.377 562.552 340.777C562.281 341.171 561.896 341.482 561.398 341.709C560.9 341.936 560.31 342.049 559.63 342.049C559.462 342.049 559.304 342.042 559.156 342.027C559.008 342.012 558.862 341.99 558.719 341.961C558.636 342.005 558.571 342.069 558.527 342.153C558.483 342.237 558.46 342.323 558.46 342.412C558.46 342.535 558.51 342.646 558.608 342.745C558.712 342.844 558.951 342.893 559.326 342.893H560.614C561.225 342.893 561.753 342.992 562.197 343.189C562.646 343.386 562.994 343.655 563.24 343.995C563.487 344.336 563.61 344.725 563.61 345.164C563.61 345.968 563.257 346.602 562.552 347.066C561.847 347.53 560.799 347.761 559.408 347.761C558.401 347.761 557.622 347.658 557.069 347.451C556.522 347.248 556.14 346.957 555.923 346.578C555.711 346.203 555.604 345.756 555.604 345.238H557.676C557.676 345.465 557.721 345.65 557.809 345.793C557.903 345.941 558.078 346.05 558.335 346.119C558.596 346.188 558.973 346.222 559.467 346.222C559.965 346.222 560.345 346.183 560.606 346.104C560.868 346.025 561.045 345.917 561.139 345.778C561.238 345.645 561.287 345.495 561.287 345.327C561.287 345.095 561.196 344.908 561.013 344.765C560.831 344.622 560.542 344.55 560.147 344.55H558.897C558.049 344.55 557.432 344.395 557.047 344.084C556.663 343.768 556.47 343.401 556.47 342.982C556.47 342.691 556.547 342.414 556.7 342.153C556.857 341.892 557.077 341.672 557.358 341.494C556.855 341.228 556.495 340.915 556.278 340.555C556.061 340.19 555.952 339.753 555.952 339.245C555.952 338.653 556.103 338.145 556.404 337.721C556.704 337.292 557.119 336.961 557.647 336.729C558.179 336.498 558.786 336.382 559.467 336.382C560.054 336.392 560.564 336.352 560.998 336.263C561.432 336.17 561.822 336.044 562.167 335.886C562.513 335.723 562.843 335.551 563.159 335.368ZM559.526 337.899C559.156 337.899 558.862 338.017 558.645 338.254C558.428 338.486 558.32 338.806 558.32 339.216C558.32 339.65 558.431 339.983 558.653 340.214C558.875 340.446 559.166 340.562 559.526 340.562C559.916 340.562 560.212 340.446 560.414 340.214C560.621 339.983 560.725 339.64 560.725 339.186C560.725 338.747 560.623 338.424 560.421 338.217C560.219 338.005 559.921 337.899 559.526 337.899ZM568.458 336.367C569.267 336.367 569.955 336.54 570.522 336.885C571.09 337.23 571.524 337.716 571.825 338.342C572.126 338.964 572.276 339.694 572.276 340.533C572.276 341.406 572.123 342.158 571.817 342.789C571.516 343.416 571.082 343.897 570.515 344.232C569.948 344.567 569.262 344.735 568.458 344.735C567.659 344.735 566.973 344.57 566.401 344.239C565.834 343.909 565.397 343.431 565.092 342.804C564.791 342.178 564.64 341.425 564.64 340.547C564.64 339.714 564.791 338.984 565.092 338.357C565.397 337.731 565.834 337.242 566.401 336.892C566.973 336.542 567.659 336.367 568.458 336.367ZM568.458 338.091C567.98 338.091 567.625 338.288 567.393 338.683C567.166 339.073 567.052 339.694 567.052 340.547C567.052 341.416 567.166 342.044 567.393 342.434C567.625 342.824 567.98 343.019 568.458 343.019C568.937 343.019 569.289 342.824 569.516 342.434C569.748 342.044 569.864 341.411 569.864 340.533C569.864 339.684 569.748 339.065 569.516 338.675C569.289 338.286 568.937 338.091 568.458 338.091ZM587.795 337.573C587.795 337.208 587.726 336.907 587.588 336.67C587.455 336.429 587.25 336.251 586.974 336.138C586.702 336.019 586.36 335.96 585.945 335.96H585.117V339.312H586.071C586.431 339.312 586.739 339.25 586.996 339.127C587.252 339.003 587.45 338.814 587.588 338.557C587.726 338.301 587.795 337.973 587.795 337.573ZM590.296 337.566C590.296 338.36 590.126 339.016 589.785 339.534C589.445 340.052 588.969 340.439 588.357 340.695C587.746 340.947 587.035 341.073 586.226 341.073H585.117V344.484H582.69V334.229H585.916C587.307 334.229 588.384 334.505 589.149 335.057C589.914 335.61 590.296 336.446 590.296 337.566ZM595.077 336.367C595.886 336.367 596.574 336.54 597.142 336.885C597.709 337.23 598.143 337.716 598.444 338.342C598.745 338.964 598.895 339.694 598.895 340.533C598.895 341.406 598.742 342.158 598.436 342.789C598.135 343.416 597.701 343.897 597.134 344.232C596.567 344.567 595.881 344.735 595.077 344.735C594.278 344.735 593.592 344.57 593.02 344.239C592.453 343.909 592.016 343.431 591.711 342.804C591.41 342.178 591.259 341.425 591.259 340.547C591.259 339.714 591.41 338.984 591.711 338.357C592.016 337.731 592.453 337.242 593.02 336.892C593.592 336.542 594.278 336.367 595.077 336.367ZM595.077 338.091C594.599 338.091 594.244 338.288 594.012 338.683C593.785 339.073 593.671 339.694 593.671 340.547C593.671 341.416 593.785 342.044 594.012 342.434C594.244 342.824 594.599 343.019 595.077 343.019C595.556 343.019 595.908 342.824 596.135 342.434C596.367 342.044 596.483 341.411 596.483 340.533C596.483 339.684 596.367 339.065 596.135 338.675C595.908 338.286 595.556 338.091 595.077 338.091ZM600.621 344.484V342.915H601.656V338.18H600.621V336.626H603.44L603.869 338.394C604.15 337.718 604.508 337.215 604.942 336.885C605.381 336.554 605.916 336.389 606.547 336.389C606.814 336.389 607.05 336.411 607.258 336.456C607.465 336.495 607.66 336.552 607.842 336.626L607.132 338.557C606.989 338.518 606.846 338.488 606.703 338.468C606.56 338.449 606.402 338.439 606.229 338.439C605.716 338.439 605.265 338.648 604.875 339.068C604.49 339.487 604.197 340.02 603.995 340.666V342.915H605.548V344.484H600.621ZM605.941 339.911V337.617L606.288 336.626H607.842L607.406 339.911H605.941ZM616.493 344.025C616.187 344.222 615.817 344.39 615.383 344.528C614.949 344.666 614.461 344.735 613.918 344.735C612.892 344.735 612.13 344.474 611.632 343.951C611.134 343.423 610.885 342.708 610.885 341.805V338.239H609.235V336.626H610.885V334.924L613.223 334.643V336.626H615.753L615.524 338.239H613.223V341.805C613.223 342.195 613.312 342.474 613.489 342.641C613.667 342.809 613.95 342.893 614.34 342.893C614.616 342.893 614.868 342.861 615.095 342.797C615.327 342.728 615.534 342.641 615.716 342.538L616.493 344.025ZM623.095 336.626V342.885H625.092V344.484H618.529V342.885H620.757V338.224H618.603V336.626H623.095ZM621.681 332.512C622.086 332.512 622.416 332.638 622.673 332.889C622.929 333.141 623.058 333.454 623.058 333.829C623.058 334.204 622.929 334.52 622.673 334.776C622.416 335.028 622.086 335.154 621.681 335.154C621.272 335.154 620.937 335.028 620.675 334.776C620.419 334.52 620.29 334.204 620.29 333.829C620.29 333.454 620.419 333.141 620.675 332.889C620.937 332.638 621.272 332.512 621.681 332.512ZM631.265 333.504V342.012C631.265 342.328 631.354 342.555 631.531 342.693C631.714 342.826 631.963 342.893 632.278 342.893C632.481 342.893 632.675 342.871 632.863 342.826C633.05 342.777 633.225 342.72 633.388 342.656L633.951 344.217C633.684 344.355 633.364 344.476 632.989 344.58C632.614 344.683 632.177 344.735 631.679 344.735C630.732 344.735 630.036 344.464 629.593 343.921C629.149 343.374 628.927 342.641 628.927 341.724V335.102H626.611V333.504H631.265ZM640.138 333.504V342.012C640.138 342.328 640.227 342.555 640.404 342.693C640.587 342.826 640.836 342.893 641.151 342.893C641.354 342.893 641.548 342.871 641.736 342.826C641.923 342.777 642.098 342.72 642.261 342.656L642.824 344.217C642.557 344.355 642.237 344.476 641.862 344.58C641.487 344.683 641.05 344.735 640.552 344.735C639.605 344.735 638.91 344.464 638.466 343.921C638.022 343.374 637.8 342.641 637.8 341.724V335.102H635.484V333.504H640.138ZM651.526 342.22C651.526 342.516 651.566 342.73 651.645 342.863C651.729 342.996 651.862 343.098 652.044 343.167L651.563 344.706C651.1 344.661 650.708 344.56 650.387 344.402C650.071 344.239 649.822 343.995 649.64 343.67C649.339 344.03 648.954 344.299 648.485 344.476C648.017 344.649 647.538 344.735 647.05 344.735C646.241 344.735 645.595 344.506 645.111 344.047C644.633 343.583 644.394 342.989 644.394 342.264C644.394 341.411 644.727 340.752 645.393 340.288C646.063 339.825 647.006 339.593 648.219 339.593H649.277V339.297C649.277 338.888 649.144 338.584 648.878 338.387C648.616 338.19 648.231 338.091 647.723 338.091C647.472 338.091 647.149 338.128 646.754 338.202C646.359 338.271 645.965 338.372 645.57 338.505L645.03 336.951C645.538 336.759 646.066 336.614 646.613 336.515C647.166 336.416 647.659 336.367 648.093 336.367C649.262 336.367 650.126 336.606 650.683 337.085C651.245 337.558 651.526 338.244 651.526 339.142V342.22ZM647.856 343.063C648.108 343.063 648.372 342.989 648.648 342.841C648.924 342.688 649.134 342.474 649.277 342.197V340.925H648.7C648.049 340.925 647.57 341.026 647.265 341.228C646.959 341.425 646.806 341.716 646.806 342.101C646.806 342.402 646.897 342.639 647.08 342.811C647.267 342.979 647.526 343.063 647.856 343.063ZM653.984 340.762V338.942H660.392V340.762H653.984ZM669.665 334.229L670.242 344.484H668.126L668 340.096C667.99 339.687 667.985 339.322 667.985 339.001C667.99 338.68 667.997 338.379 668.007 338.098C668.017 337.812 668.032 337.526 668.052 337.24C668.076 336.949 668.101 336.633 668.126 336.293L666.971 342.737H665.136L663.893 336.293C663.923 336.619 663.948 336.927 663.967 337.218C663.992 337.504 664.009 337.792 664.019 338.084C664.029 338.375 664.036 338.688 664.041 339.023C664.046 339.354 664.044 339.724 664.034 340.133L663.96 344.484H661.881L662.458 334.229H664.951L666.091 340.858L667.171 334.229H669.665ZM678.145 342.22C678.145 342.516 678.185 342.73 678.264 342.863C678.348 342.996 678.481 343.098 678.663 343.167L678.182 344.706C677.719 344.661 677.327 344.56 677.006 344.402C676.69 344.239 676.441 343.995 676.259 343.67C675.958 344.03 675.573 344.299 675.104 344.476C674.636 344.649 674.157 344.735 673.669 344.735C672.86 344.735 672.214 344.506 671.731 344.047C671.252 343.583 671.013 342.989 671.013 342.264C671.013 341.411 671.346 340.752 672.012 340.288C672.683 339.825 673.625 339.593 674.838 339.593H675.896V339.297C675.896 338.888 675.763 338.584 675.497 338.387C675.235 338.19 674.85 338.091 674.342 338.091C674.091 338.091 673.768 338.128 673.373 338.202C672.978 338.271 672.584 338.372 672.189 338.505L671.649 336.951C672.157 336.759 672.685 336.614 673.233 336.515C673.785 336.416 674.278 336.367 674.712 336.367C675.881 336.367 676.745 336.606 677.302 337.085C677.864 337.558 678.145 338.244 678.145 339.142V342.22ZM674.476 343.063C674.727 343.063 674.991 342.989 675.267 342.841C675.543 342.688 675.753 342.474 675.896 342.197V340.925H675.319C674.668 340.925 674.189 341.026 673.884 341.228C673.578 341.425 673.425 341.716 673.425 342.101C673.425 342.402 673.516 342.639 673.699 342.811C673.886 342.979 674.145 343.063 674.476 343.063ZM680.478 344.484V342.915H681.514V338.18H680.478V336.626H683.297L683.726 338.394C684.007 337.718 684.365 337.215 684.799 336.885C685.238 336.554 685.773 336.389 686.404 336.389C686.671 336.389 686.907 336.411 687.115 336.456C687.322 336.495 687.517 336.552 687.699 336.626L686.989 338.557C686.846 338.518 686.703 338.488 686.56 338.468C686.417 338.449 686.259 338.439 686.086 338.439C685.573 338.439 685.122 338.648 684.732 339.068C684.347 339.487 684.054 340.02 683.852 340.666V342.915H685.405V344.484H680.478ZM685.798 339.911V337.617L686.145 336.626H687.699L687.263 339.911H685.798ZM696.35 344.025C696.044 344.222 695.674 344.39 695.24 344.528C694.806 344.666 694.318 344.735 693.775 344.735C692.749 344.735 691.987 344.474 691.489 343.951C690.991 343.423 690.742 342.708 690.742 341.805V338.239H689.092V336.626H690.742V334.924L693.08 334.643V336.626H695.61L695.381 338.239H693.08V341.805C693.08 342.195 693.169 342.474 693.346 342.641C693.524 342.809 693.807 342.893 694.197 342.893C694.473 342.893 694.725 342.861 694.952 342.797C695.184 342.728 695.391 342.641 695.573 342.538L696.35 344.025ZM702.952 336.626V342.885H704.949V344.484H698.387V342.885H700.614V338.224H698.461V336.626H702.952ZM702.663 332.127L703.573 333.888L700.081 335.272L699.437 334.088L702.663 332.127ZM707.023 344.484V336.626H709.065L709.228 337.536C709.578 337.141 709.948 336.848 710.338 336.656C710.727 336.463 711.171 336.367 711.669 336.367C712.34 336.367 712.868 336.572 713.253 336.981C713.637 337.39 713.83 337.968 713.83 338.712V344.484H711.492V339.386C711.492 339.065 711.47 338.811 711.425 338.624C711.381 338.431 711.302 338.296 711.188 338.217C711.08 338.133 710.929 338.091 710.737 338.091C710.574 338.091 710.414 338.128 710.256 338.202C710.103 338.271 709.953 338.372 709.805 338.505C709.657 338.638 709.509 338.799 709.361 338.986V344.484H707.023ZM717.923 341.235C717.977 341.665 718.088 342.012 718.256 342.279C718.429 342.54 718.648 342.733 718.915 342.856C719.181 342.974 719.479 343.033 719.81 343.033C720.17 343.033 720.518 342.974 720.853 342.856C721.189 342.737 721.512 342.58 721.822 342.382L722.762 343.655C722.392 343.971 721.943 344.23 721.415 344.432C720.893 344.634 720.296 344.735 719.625 344.735C718.727 344.735 717.975 344.558 717.368 344.202C716.761 343.842 716.305 343.349 715.999 342.723C715.694 342.096 715.541 341.376 715.541 340.562C715.541 339.788 715.689 339.085 715.985 338.453C716.281 337.817 716.712 337.312 717.279 336.937C717.852 336.557 718.55 336.367 719.373 336.367C720.123 336.367 720.772 336.527 721.319 336.848C721.872 337.169 722.298 337.63 722.599 338.231C722.905 338.833 723.058 339.556 723.058 340.399C723.058 340.533 723.053 340.676 723.043 340.829C723.038 340.981 723.028 341.117 723.014 341.235H717.923ZM719.373 337.936C718.954 337.936 718.616 338.086 718.36 338.387C718.103 338.688 717.948 339.169 717.894 339.83H720.779C720.774 339.257 720.663 338.799 720.446 338.453C720.229 338.108 719.872 337.936 719.373 337.936ZM727.558 342.715H731.494L731.272 344.484H724.798V342.834L728.698 338.387H725.124V336.626H731.42V338.268L727.558 342.715ZM746.673 331.165V348.923H745.164V331.165H746.673ZM763.442 334.066C764.182 334.066 764.814 334.174 765.337 334.391C765.859 334.604 766.291 334.902 766.631 335.287C766.977 335.667 767.245 336.115 767.438 336.633C767.63 337.151 767.766 337.714 767.845 338.32C767.924 338.927 767.963 339.556 767.963 340.207C767.963 341.45 767.904 342.491 767.786 343.329C767.667 344.163 767.445 344.789 767.12 345.209C766.799 345.633 766.335 345.845 765.729 345.845C765.433 345.845 765.174 345.778 764.952 345.645C764.735 345.512 764.555 345.339 764.412 345.127C764.274 344.92 764.168 344.696 764.094 344.454C764.024 344.207 763.985 343.976 763.975 343.759H763.916C763.817 343.995 763.682 344.222 763.509 344.439C763.336 344.656 763.117 344.834 762.85 344.972C762.584 345.11 762.259 345.179 761.874 345.179C761.321 345.179 760.877 345.031 760.542 344.735C760.207 344.444 759.962 344.042 759.809 343.529C759.657 343.016 759.58 342.437 759.58 341.79C759.58 340.533 759.837 339.573 760.35 338.912C760.863 338.246 761.605 337.913 762.577 337.913C762.942 337.913 763.302 337.958 763.657 338.047C764.017 338.13 764.404 338.283 764.819 338.505V342.9C764.819 343.369 764.856 343.731 764.93 343.988C765.004 344.244 765.105 344.422 765.233 344.521C765.366 344.619 765.517 344.669 765.684 344.669C765.882 344.669 766.035 344.567 766.143 344.365C766.256 344.163 766.338 343.872 766.387 343.492C766.437 343.107 766.466 342.644 766.476 342.101C766.486 341.559 766.491 340.947 766.491 340.266C766.491 339.536 766.449 338.868 766.365 338.261C766.286 337.649 766.136 337.122 765.914 336.678C765.697 336.234 765.386 335.891 764.981 335.649C764.577 335.408 764.052 335.287 763.405 335.287C762.907 335.287 762.382 335.38 761.829 335.568C761.282 335.755 760.705 336.115 760.098 336.648L759.299 335.723C759.97 335.141 760.648 334.719 761.334 334.458C762.024 334.197 762.727 334.066 763.442 334.066ZM762.599 339.038C762.032 339.038 761.644 339.26 761.437 339.704C761.23 340.143 761.127 340.838 761.127 341.79C761.127 342.264 761.156 342.668 761.215 343.004C761.274 343.339 761.378 343.596 761.526 343.773C761.674 343.951 761.874 344.04 762.125 344.04C762.426 344.04 762.661 343.971 762.828 343.833C762.996 343.694 763.122 343.532 763.206 343.344C763.289 343.152 763.354 342.984 763.398 342.841V339.23C763.265 339.161 763.137 339.112 763.013 339.082C762.89 339.053 762.752 339.038 762.599 339.038ZM775.896 334.229V340.792C775.896 341.388 775.805 341.929 775.623 342.412C775.44 342.895 775.171 343.307 774.816 343.648C774.466 343.988 774.034 344.249 773.521 344.432C773.013 344.614 772.431 344.706 771.775 344.706C771.114 344.706 770.542 344.622 770.059 344.454C769.58 344.281 769.119 344.045 768.675 343.744L769.6 342.249C769.95 342.491 770.278 342.661 770.584 342.76C770.89 342.853 771.238 342.9 771.627 342.9C772.155 342.9 772.594 342.733 772.944 342.397C773.299 342.057 773.477 341.531 773.477 340.821V336.004H770.325V334.229H775.896ZM781.41 336.367C782.219 336.367 782.907 336.54 783.475 336.885C784.042 337.23 784.476 337.716 784.777 338.342C785.078 338.964 785.228 339.694 785.228 340.533C785.228 341.406 785.075 342.158 784.77 342.789C784.469 343.416 784.035 343.897 783.467 344.232C782.9 344.567 782.214 344.735 781.41 344.735C780.611 344.735 779.926 344.57 779.353 344.239C778.786 343.909 778.35 343.431 778.044 342.804C777.743 342.178 777.592 341.425 777.592 340.547C777.592 339.714 777.743 338.984 778.044 338.357C778.35 337.731 778.786 337.242 779.353 336.892C779.926 336.542 780.611 336.367 781.41 336.367ZM781.41 338.091C780.932 338.091 780.577 338.288 780.345 338.683C780.118 339.073 780.005 339.694 780.005 340.547C780.005 341.416 780.118 342.044 780.345 342.434C780.577 342.824 780.932 343.019 781.41 343.019C781.889 343.019 782.242 342.824 782.468 342.434C782.7 342.044 782.816 341.411 782.816 340.533C782.816 339.684 782.7 339.065 782.468 338.675C782.242 338.286 781.889 338.091 781.41 338.091ZM788.907 341.235C788.961 341.665 789.072 342.012 789.24 342.279C789.413 342.54 789.632 342.733 789.899 342.856C790.165 342.974 790.463 343.033 790.794 343.033C791.154 343.033 791.502 342.974 791.837 342.856C792.173 342.737 792.496 342.58 792.806 342.382L793.746 343.655C793.376 343.971 792.927 344.23 792.4 344.432C791.877 344.634 791.28 344.735 790.609 344.735C789.711 344.735 788.959 344.558 788.352 344.202C787.746 343.842 787.289 343.349 786.983 342.723C786.678 342.096 786.525 341.376 786.525 340.562C786.525 339.788 786.673 339.085 786.969 338.453C787.265 337.817 787.696 337.312 788.263 336.937C788.836 336.557 789.534 336.367 790.357 336.367C791.107 336.367 791.756 336.527 792.303 336.848C792.856 337.169 793.282 337.63 793.583 338.231C793.889 338.833 794.042 339.556 794.042 340.399C794.042 340.533 794.037 340.676 794.027 340.829C794.022 340.981 794.012 341.117 793.998 341.235H788.907ZM790.357 337.936C789.938 337.936 789.6 338.086 789.344 338.387C789.087 338.688 788.932 339.169 788.878 339.83H791.763C791.758 339.257 791.647 338.799 791.43 338.453C791.213 338.108 790.856 337.936 790.357 337.936ZM800.747 337.573C800.747 337.208 800.678 336.907 800.54 336.67C800.407 336.429 800.202 336.251 799.926 336.138C799.655 336.019 799.312 335.96 798.897 335.96H798.069V339.312H799.023C799.383 339.312 799.692 339.25 799.948 339.127C800.205 339.003 800.402 338.814 800.54 338.557C800.678 338.301 800.747 337.973 800.747 337.573ZM803.248 337.566C803.248 338.36 803.078 339.016 802.738 339.534C802.397 340.052 801.921 340.439 801.31 340.695C800.698 340.947 799.988 341.073 799.179 341.073H798.069V344.484H795.642V334.229H798.868C800.259 334.229 801.337 334.505 802.101 335.057C802.866 335.61 803.248 336.446 803.248 337.566ZM808.029 336.367C808.838 336.367 809.526 336.54 810.094 336.885C810.661 337.23 811.095 337.716 811.396 338.342C811.697 338.964 811.847 339.694 811.847 340.533C811.847 341.406 811.694 342.158 811.389 342.789C811.088 343.416 810.654 343.897 810.086 344.232C809.519 344.567 808.833 344.735 808.029 344.735C807.23 344.735 806.545 344.57 805.973 344.239C805.405 343.909 804.969 343.431 804.663 342.804C804.362 342.178 804.212 341.425 804.212 340.547C804.212 339.714 804.362 338.984 804.663 338.357C804.969 337.731 805.405 337.242 805.973 336.892C806.545 336.542 807.23 336.367 808.029 336.367ZM808.029 338.091C807.551 338.091 807.196 338.288 806.964 338.683C806.737 339.073 806.624 339.694 806.624 340.547C806.624 341.416 806.737 342.044 806.964 342.434C807.196 342.824 807.551 343.019 808.029 343.019C808.508 343.019 808.861 342.824 809.087 342.434C809.319 342.044 809.435 341.411 809.435 340.533C809.435 339.684 809.319 339.065 809.087 338.675C808.861 338.286 808.508 338.091 808.029 338.091ZM813.573 344.484V342.915H814.609V338.18H813.573V336.626H816.392L816.821 338.394C817.102 337.718 817.46 337.215 817.894 336.885C818.333 336.554 818.868 336.389 819.499 336.389C819.766 336.389 820.003 336.411 820.21 336.456C820.417 336.495 820.612 336.552 820.794 336.626L820.084 338.557C819.941 338.518 819.798 338.488 819.655 338.468C819.512 338.449 819.354 338.439 819.181 338.439C818.668 338.439 818.217 338.648 817.827 339.068C817.443 339.487 817.149 340.02 816.947 340.666V342.915H818.501V344.484H813.573ZM818.893 339.911V337.617L819.24 336.626H820.794L820.358 339.911H818.893ZM829.445 344.025C829.139 344.222 828.77 344.39 828.335 344.528C827.901 344.666 827.413 344.735 826.87 344.735C825.844 344.735 825.082 344.474 824.584 343.951C824.086 343.423 823.837 342.708 823.837 341.805V338.239H822.187V336.626H823.837V334.924L826.175 334.643V336.626H828.705L828.476 338.239H826.175V341.805C826.175 342.195 826.264 342.474 826.441 342.641C826.619 342.809 826.903 342.893 827.292 342.893C827.568 342.893 827.82 342.861 828.047 342.797C828.279 342.728 828.486 342.641 828.668 342.538L829.445 344.025ZM836.047 336.626V342.885H838.045V344.484H831.482V342.885H833.709V338.224H831.556V336.626H836.047ZM834.634 332.512C835.038 332.512 835.369 332.638 835.625 332.889C835.882 333.141 836.01 333.454 836.01 333.829C836.01 334.204 835.882 334.52 835.625 334.776C835.369 335.028 835.038 335.154 834.634 335.154C834.224 335.154 833.889 335.028 833.627 334.776C833.371 334.52 833.243 334.204 833.243 333.829C833.243 333.454 833.371 333.141 833.627 332.889C833.889 332.638 834.224 332.512 834.634 332.512ZM844.217 333.504V342.012C844.217 342.328 844.306 342.555 844.483 342.693C844.666 342.826 844.915 342.893 845.231 342.893C845.433 342.893 845.628 342.871 845.815 342.826C846.003 342.777 846.178 342.72 846.34 342.656L846.903 344.217C846.636 344.355 846.316 344.476 845.941 344.58C845.566 344.683 845.13 344.735 844.631 344.735C843.684 344.735 842.989 344.464 842.545 343.921C842.101 343.374 841.879 342.641 841.879 341.724V335.102H839.563V333.504H844.217ZM853.09 333.504V342.012C853.09 342.328 853.179 342.555 853.356 342.693C853.539 342.826 853.788 342.893 854.104 342.893C854.306 342.893 854.501 342.871 854.688 342.826C854.876 342.777 855.051 342.72 855.213 342.656L855.776 344.217C855.509 344.355 855.189 344.476 854.814 344.58C854.439 344.683 854.002 344.735 853.504 344.735C852.557 344.735 851.862 344.464 851.418 343.921C850.974 343.374 850.752 342.641 850.752 341.724V335.102H848.436V333.504H853.09ZM864.479 342.22C864.479 342.516 864.518 342.73 864.597 342.863C864.681 342.996 864.814 343.098 864.997 343.167L864.516 344.706C864.052 344.661 863.66 344.56 863.339 344.402C863.023 344.239 862.774 343.995 862.592 343.67C862.291 344.03 861.906 344.299 861.438 344.476C860.969 344.649 860.491 344.735 860.002 344.735C859.193 344.735 858.547 344.506 858.064 344.047C857.585 343.583 857.346 342.989 857.346 342.264C857.346 341.411 857.679 340.752 858.345 340.288C859.016 339.825 859.958 339.593 861.171 339.593H862.229V339.297C862.229 338.888 862.096 338.584 861.83 338.387C861.568 338.19 861.184 338.091 860.676 338.091C860.424 338.091 860.101 338.128 859.706 338.202C859.312 338.271 858.917 338.372 858.522 338.505L857.982 336.951C858.49 336.759 859.018 336.614 859.566 336.515C860.118 336.416 860.611 336.367 861.045 336.367C862.215 336.367 863.078 336.606 863.635 337.085C864.197 337.558 864.479 338.244 864.479 339.142V342.22ZM860.809 343.063C861.06 343.063 861.324 342.989 861.6 342.841C861.877 342.688 862.086 342.474 862.229 342.197V340.925H861.652C861.001 340.925 860.523 341.026 860.217 341.228C859.911 341.425 859.758 341.716 859.758 342.101C859.758 342.402 859.849 342.639 860.032 342.811C860.219 342.979 860.478 343.063 860.809 343.063Z" fill="black"/>
<path d="M327.275 68V63.425H331V46.075H327.275V41.525H336.025L337.25 47.6C338.217 45.35 339.433 43.6583 340.9 42.525C342.367 41.375 344.208 40.8 346.425 40.8C347.275 40.8 348.025 40.8667 348.675 41C349.342 41.1333 349.975 41.3083 350.575 41.525L348.6 47.075C348.083 46.9417 347.592 46.8417 347.125 46.775C346.658 46.6917 346.133 46.65 345.55 46.65C343.717 46.65 342.117 47.3667 340.75 48.8C339.4 50.2167 338.35 52.1417 337.6 54.575V63.425H342.875V68H327.275ZM345 51.85V44.825L345.9 41.525H350.575L349.4 51.85H345ZM378.13 61.025C378.13 62.0417 378.28 62.7833 378.58 63.25C378.88 63.7 379.364 64.0417 380.03 64.275L378.605 68.7C377.189 68.55 375.98 68.2 374.98 67.65C373.997 67.0833 373.239 66.2417 372.705 65.125C371.705 66.3417 370.439 67.25 368.905 67.85C367.389 68.45 365.797 68.75 364.13 68.75C361.43 68.75 359.289 67.9833 357.705 66.45C356.122 64.9167 355.33 62.925 355.33 60.475C355.33 57.6583 356.43 55.4917 358.63 53.975C360.847 52.4417 363.98 51.675 368.03 51.675H371.73V50.25C371.73 48.6833 371.247 47.55 370.28 46.85C369.314 46.1333 367.922 45.775 366.105 45.775C365.255 45.775 364.189 45.8917 362.905 46.125C361.639 46.3417 360.33 46.6833 358.98 47.15L357.405 42.625C359.089 41.9917 360.78 41.525 362.48 41.225C364.197 40.925 365.755 40.775 367.155 40.775C370.872 40.775 373.63 41.5667 375.43 43.15C377.23 44.7167 378.13 46.9417 378.13 49.825V61.025ZM366.28 63.975C367.28 63.975 368.289 63.6917 369.305 63.125C370.339 62.5583 371.147 61.7667 371.73 60.75V55.6H369.13C366.68 55.6 364.905 55.9917 363.805 56.775C362.722 57.5583 362.18 58.6667 362.18 60.1C362.18 61.3333 362.53 62.2917 363.23 62.975C363.93 63.6417 364.947 63.975 366.28 63.975ZM386.986 68V41.525H392.736L393.211 44.8C394.344 43.4667 395.619 42.4667 397.036 41.8C398.453 41.1167 399.978 40.775 401.611 40.775C403.994 40.775 405.811 41.4667 407.061 42.85C408.311 44.2167 408.936 46.1417 408.936 48.625V68H402.336V51.2C402.336 49.8667 402.253 48.8 402.086 48C401.919 47.1833 401.603 46.6 401.136 46.25C400.669 45.8833 399.994 45.7 399.111 45.7C398.394 45.7 397.703 45.8583 397.036 46.175C396.386 46.4917 395.769 46.9167 395.186 47.45C394.619 47.9833 394.086 48.575 393.586 49.225V68H386.986ZM439.791 37.8L441.441 42.95C440.441 43.3 439.316 43.55 438.066 43.7C436.816 43.8333 435.383 43.9 433.766 43.9C435.383 44.6 436.608 45.4917 437.441 46.575C438.291 47.6417 438.716 49 438.716 50.65C438.716 52.3667 438.275 53.9 437.391 55.25C436.525 56.6 435.283 57.6583 433.666 58.425C432.066 59.1917 430.158 59.575 427.941 59.575C427.258 59.575 426.65 59.5417 426.116 59.475C425.583 59.4083 425.066 59.3167 424.566 59.2C424.233 59.3833 423.975 59.65 423.791 60C423.608 60.35 423.516 60.7083 423.516 61.075C423.516 61.575 423.708 62.0083 424.091 62.375C424.491 62.725 425.341 62.9 426.641 62.9H431.141C433.091 62.9 434.8 63.2333 436.266 63.9C437.75 64.55 438.9 65.4333 439.716 66.55C440.55 67.6667 440.966 68.95 440.966 70.4C440.966 73.0667 439.808 75.15 437.491 76.65C435.175 78.15 431.791 78.9 427.341 78.9C424.158 78.9 421.675 78.575 419.891 77.925C418.125 77.275 416.883 76.325 416.166 75.075C415.45 73.8417 415.091 72.35 415.091 70.6H420.966C420.966 71.45 421.133 72.15 421.466 72.7C421.816 73.25 422.458 73.6583 423.391 73.925C424.341 74.1917 425.7 74.325 427.466 74.325C429.233 74.325 430.616 74.1833 431.616 73.9C432.633 73.6167 433.35 73.2083 433.766 72.675C434.183 72.1583 434.391 71.55 434.391 70.85C434.391 69.9 433.991 69.1583 433.191 68.625C432.391 68.0917 431.258 67.825 429.791 67.825H425.416C422.75 67.825 420.808 67.3083 419.591 66.275C418.375 65.225 417.766 64.0167 417.766 62.65C417.766 61.7167 418.016 60.825 418.516 59.975C419.033 59.1083 419.766 58.375 420.716 57.775C419.083 56.9083 417.9 55.875 417.166 54.675C416.45 53.4583 416.091 51.9917 416.091 50.275C416.091 48.3583 416.575 46.6917 417.541 45.275C418.508 43.8583 419.85 42.7583 421.566 41.975C423.283 41.1917 425.258 40.8 427.491 40.8C429.541 40.8167 431.283 40.6917 432.716 40.425C434.166 40.1583 435.441 39.7917 436.541 39.325C437.658 38.8583 438.741 38.35 439.791 37.8ZM427.616 45.2C426.05 45.2 424.85 45.6583 424.016 46.575C423.2 47.4917 422.791 48.7083 422.791 50.225C422.791 51.7917 423.216 53.0333 424.066 53.95C424.916 54.8667 426.108 55.325 427.641 55.325C429.158 55.325 430.308 54.8833 431.091 54C431.891 53.1 432.291 51.8167 432.291 50.15C432.291 48.4833 431.891 47.2417 431.091 46.425C430.308 45.6083 429.15 45.2 427.616 45.2ZM452.572 56.775C452.705 58.425 453.08 59.7667 453.697 60.8C454.33 61.8333 455.139 62.5917 456.122 63.075C457.105 63.5583 458.197 63.8 459.397 63.8C460.664 63.8 461.855 63.6 462.972 63.2C464.089 62.8 465.189 62.2417 466.272 61.525L469.022 65.3C467.789 66.3333 466.314 67.1667 464.597 67.8C462.897 68.4333 461.022 68.75 458.972 68.75C456.105 68.75 453.689 68.1583 451.722 66.975C449.772 65.7917 448.297 64.15 447.297 62.05C446.297 59.95 445.797 57.5333 445.797 54.8C445.797 52.1667 446.289 49.7917 447.272 47.675C448.255 45.5583 449.672 43.8833 451.522 42.65C453.372 41.4 455.605 40.775 458.222 40.775C460.655 40.775 462.755 41.3083 464.522 42.375C466.289 43.4417 467.655 44.975 468.622 46.975C469.589 48.9583 470.072 51.35 470.072 54.15C470.072 54.6 470.055 55.0583 470.022 55.525C470.005 55.9917 469.98 56.4083 469.947 56.775H452.572ZM458.247 45.425C456.647 45.425 455.33 46 454.297 47.15C453.28 48.2833 452.68 50.0833 452.497 52.55H463.647C463.614 50.3167 463.147 48.575 462.247 47.325C461.364 46.0583 460.03 45.425 458.247 45.425Z" fill="#007B00"/>
<path d="M485.077 50.5C485.077 52.75 485.261 54.8083 485.627 56.675C485.994 58.525 486.569 60.2833 487.352 61.95C488.136 63.6 489.152 65.2417 490.402 66.875C491.669 68.5083 493.202 70.2417 495.002 72.075L491.252 75.575C488.586 73.325 486.286 70.975 484.352 68.525C482.436 66.075 480.952 63.3833 479.902 60.45C478.869 57.5167 478.352 54.2 478.352 50.5C478.352 46.8 478.869 43.4833 479.902 40.55C480.952 37.6 482.436 34.9083 484.352 32.475C486.286 30.025 488.586 27.675 491.252 25.425L495.002 28.925C493.286 30.675 491.802 32.3667 490.552 34C489.302 35.6333 488.269 37.2917 487.452 38.975C486.652 40.6417 486.052 42.4167 485.652 44.3C485.269 46.1667 485.077 48.2333 485.077 50.5ZM517.883 32.675C521.866 32.675 524.874 34.25 526.908 37.4C528.941 40.5333 529.958 44.95 529.958 50.65C529.958 56.3667 528.941 60.8167 526.908 64C524.874 67.1667 521.866 68.75 517.883 68.75C513.883 68.75 510.866 67.1667 508.833 64C506.816 60.8167 505.808 56.3667 505.808 50.65C505.808 44.95 506.816 40.5333 508.833 37.4C510.866 34.25 513.883 32.675 517.883 32.675ZM517.883 37.575C515.999 37.575 514.574 38.5833 513.608 40.6C512.658 42.6 512.183 45.95 512.183 50.65C512.183 53.25 512.274 55.4083 512.458 57.125C512.658 58.825 512.983 60.1667 513.433 61.15C513.883 62.1333 514.466 62.8333 515.183 63.25C515.916 63.65 516.816 63.85 517.883 63.85C519.149 63.85 520.199 63.425 521.033 62.575C521.883 61.7083 522.516 60.3083 522.933 58.375C523.349 56.425 523.558 53.85 523.558 50.65C523.558 47.25 523.374 44.6 523.008 42.7C522.658 40.8 522.066 39.475 521.233 38.725C520.416 37.9583 519.299 37.575 517.883 37.575ZM522.208 38.7L523.908 42.8L514.058 63L512.033 59.65L522.208 38.7ZM547.863 58.425C549.28 58.425 550.455 58.9 551.388 59.85C552.338 60.8 552.813 61.9667 552.813 63.35C552.813 64.2 552.672 65.0583 552.388 65.925C552.105 66.775 551.672 67.8667 551.088 69.2L547.313 77.75H542.563L545.063 67.4C544.397 66.95 543.88 66.3667 543.513 65.65C543.147 64.9333 542.963 64.1583 542.963 63.325C542.963 61.9417 543.43 60.7833 544.363 59.85C545.297 58.9 546.463 58.425 547.863 58.425ZM613.049 33.425V67H606.574V40.075L599.199 44.65L596.374 40.075L607.224 33.425H613.049ZM619.774 62.925V68H598.199V62.925H619.774ZM636.48 32.675C638.963 32.675 641.046 33.1167 642.73 34C644.43 34.8833 645.713 36.075 646.58 37.575C647.446 39.0583 647.88 40.6917 647.88 42.475C647.88 43.9417 647.63 45.375 647.13 46.775C646.63 48.175 645.813 49.65 644.68 51.2C643.563 52.75 642.08 54.475 640.23 56.375C638.38 58.2583 636.096 60.4083 633.38 62.825H648.68L647.955 68H625.83V63.175C628.213 60.875 630.271 58.85 632.005 57.1C633.738 55.3333 635.188 53.775 636.355 52.425C637.538 51.075 638.471 49.8667 639.155 48.8C639.855 47.7167 640.355 46.7083 640.655 45.775C640.955 44.8417 641.105 43.9083 641.105 42.975C641.105 41.3917 640.646 40.1417 639.73 39.225C638.83 38.3083 637.563 37.85 635.93 37.85C634.48 37.85 633.246 38.1333 632.23 38.7C631.23 39.25 630.246 40.15 629.28 41.4L625.13 38.25C626.446 36.4833 628.013 35.1167 629.83 34.15C631.646 33.1667 633.863 32.675 636.48 32.675ZM667.785 58.425C669.202 58.425 670.377 58.9 671.31 59.85C672.26 60.8 672.735 61.9667 672.735 63.35C672.735 64.2 672.593 65.0583 672.31 65.925C672.027 66.775 671.593 67.8667 671.01 69.2L667.235 77.75H662.485L664.985 67.4C664.318 66.95 663.802 66.3667 663.435 65.65C663.068 64.9333 662.885 64.1583 662.885 63.325C662.885 61.9417 663.352 60.7833 664.285 59.85C665.218 58.9 666.385 58.425 667.785 58.425ZM726.421 32.675C728.904 32.675 730.988 33.1167 732.671 34C734.371 34.8833 735.654 36.075 736.521 37.575C737.388 39.0583 737.821 40.6917 737.821 42.475C737.821 43.9417 737.571 45.375 737.071 46.775C736.571 48.175 735.754 49.65 734.621 51.2C733.504 52.75 732.021 54.475 730.171 56.375C728.321 58.2583 726.038 60.4083 723.321 62.825H738.621L737.896 68H715.771V63.175C718.154 60.875 720.213 58.85 721.946 57.1C723.679 55.3333 725.129 53.775 726.296 52.425C727.479 51.075 728.413 49.8667 729.096 48.8C729.796 47.7167 730.296 46.7083 730.596 45.775C730.896 44.8417 731.046 43.9083 731.046 42.975C731.046 41.3917 730.588 40.1417 729.671 39.225C728.771 38.3083 727.504 37.85 725.871 37.85C724.421 37.85 723.188 38.1333 722.171 38.7C721.171 39.25 720.188 40.15 719.221 41.4L715.071 38.25C716.388 36.4833 717.954 35.1167 719.771 34.15C721.588 33.1667 723.804 32.675 726.421 32.675ZM760.552 50.5C760.552 48.2333 760.352 46.1667 759.952 44.3C759.568 42.4167 758.968 40.6417 758.152 38.975C757.352 37.2917 756.327 35.6333 755.077 34C753.827 32.3667 752.343 30.675 750.627 28.925L754.377 25.425C757.043 27.675 759.335 30.025 761.252 32.475C763.185 34.9083 764.668 37.6 765.702 40.55C766.752 43.4833 767.277 46.8 767.277 50.5C767.277 54.2 766.752 57.5167 765.702 60.45C764.668 63.3833 763.185 66.075 761.252 68.525C759.335 70.975 757.043 73.325 754.377 75.575L750.627 72.075C752.427 70.2417 753.952 68.5083 755.202 66.875C756.468 65.2417 757.493 63.6 758.277 61.95C759.06 60.2833 759.635 58.525 760.002 56.675C760.368 54.8083 760.552 52.75 760.552 50.5Z" fill="black"/>
<rect x="295.5" y="167.5" width="82" height="82" rx="3.5" fill="#0037AC" stroke="white" stroke-width="3"/>
<rect x="380.5" y="167.5" width="82" height="82" rx="3.5" fill="#0037AC" stroke="white" stroke-width="3"/>
<rect x="465.5" y="167.5" width="82" height="82" rx="3.5" fill="#0037AC" stroke="white" stroke-width="3"/>
<rect x="550.5" y="167.5" width="82" height="82" rx="3.5" fill="#0037AC" stroke="white" stroke-width="3"/>
<rect x="635.5" y="167.5" width="82" height="82" rx="3.5" fill="#0037AC" stroke="white" stroke-width="3"/>
<rect x="721.5" y="167.5" width="82" height="82" rx="3.5" fill="#0037AC" stroke="white" stroke-width="3"/>
<rect x="807.5" y="167.5" width="82" height="82" rx="3.5" fill="#8E0000" stroke="white" stroke-width="3"/>
<path d="M337 190.675C340.983 190.675 343.992 192.25 346.025 195.4C348.058 198.533 349.075 202.95 349.075 208.65C349.075 214.367 348.058 218.817 346.025 222C343.992 225.167 340.983 226.75 337 226.75C333 226.75 329.983 225.167 327.95 222C325.933 218.817 324.925 214.367 324.925 208.65C324.925 202.95 325.933 198.533 327.95 195.4C329.983 192.25 333 190.675 337 190.675ZM337 195.575C335.117 195.575 333.692 196.583 332.725 198.6C331.775 200.6 331.3 203.95 331.3 208.65C331.3 211.25 331.392 213.408 331.575 215.125C331.775 216.825 332.1 218.167 332.55 219.15C333 220.133 333.583 220.833 334.3 221.25C335.033 221.65 335.933 221.85 337 221.85C338.267 221.85 339.317 221.425 340.15 220.575C341 219.708 341.633 218.308 342.05 216.375C342.467 214.425 342.675 211.85 342.675 208.65C342.675 205.25 342.492 202.6 342.125 200.7C341.775 198.8 341.183 197.475 340.35 196.725C339.533 195.958 338.417 195.575 337 195.575ZM341.325 196.7L343.025 200.8L333.175 221L331.15 217.65L341.325 196.7Z" fill="white"/>
<path d="M420.675 190.675C423.158 190.675 425.242 191.117 426.925 192C428.625 192.883 429.908 194.075 430.775 195.575C431.642 197.058 432.075 198.692 432.075 200.475C432.075 201.942 431.825 203.375 431.325 204.775C430.825 206.175 430.008 207.65 428.875 209.2C427.758 210.75 426.275 212.475 424.425 214.375C422.575 216.258 420.292 218.408 417.575 220.825H432.875L432.15 226H410.025V221.175C412.408 218.875 414.467 216.85 416.2 215.1C417.933 213.333 419.383 211.775 420.55 210.425C421.733 209.075 422.667 207.867 423.35 206.8C424.05 205.717 424.55 204.708 424.85 203.775C425.15 202.842 425.3 201.908 425.3 200.975C425.3 199.392 424.842 198.142 423.925 197.225C423.025 196.308 421.758 195.85 420.125 195.85C418.675 195.85 417.442 196.133 416.425 196.7C415.425 197.25 414.442 198.15 413.475 199.4L409.325 196.25C410.642 194.483 412.208 193.117 414.025 192.15C415.842 191.167 418.058 190.675 420.675 190.675Z" fill="white"/>
<path d="M504.5 190.675L510.1 192.8L501.55 213.325H519.225V218.35H494.7V213.85L504.5 190.675ZM515.425 204.475V226H509.075L509 214.125L509.85 204.475H515.425Z" fill="white"/>
<path d="M594.25 190.675C595.717 190.675 597.05 190.867 598.25 191.25C599.467 191.617 600.558 192.142 601.525 192.825L599 196.925C598.3 196.442 597.55 196.083 596.75 195.85C595.95 195.617 595.142 195.5 594.325 195.5C592.825 195.5 591.508 195.992 590.375 196.975C589.258 197.958 588.383 199.375 587.75 201.225C587.133 203.058 586.817 205.275 586.8 207.875L586.85 210C586.833 214.033 587.233 217.025 588.05 218.975C588.883 220.925 590.35 221.9 592.45 221.9C594.183 221.9 595.467 221.217 596.3 219.85C597.133 218.483 597.55 216.75 597.55 214.65C597.55 212.95 597.358 211.608 596.975 210.625C596.592 209.625 596.058 208.908 595.375 208.475C594.692 208.025 593.867 207.8 592.9 207.8C591.6 207.8 590.375 208.183 589.225 208.95C588.092 209.7 587.125 210.708 586.325 211.975L586.275 207.425C587.375 205.908 588.633 204.8 590.05 204.1C591.467 203.4 592.942 203.05 594.475 203.05C596.258 203.05 597.883 203.483 599.35 204.35C600.817 205.2 601.983 206.458 602.85 208.125C603.733 209.792 604.175 211.85 604.175 214.3C604.175 216.7 603.683 218.842 602.7 220.725C601.717 222.592 600.333 224.067 598.55 225.15C596.783 226.217 594.733 226.75 592.4 226.75C590.167 226.75 588.267 226.333 586.7 225.5C585.133 224.65 583.858 223.475 582.875 221.975C581.892 220.458 581.167 218.692 580.7 216.675C580.25 214.642 580.025 212.458 580.025 210.125C580.025 206.258 580.592 202.867 581.725 199.95C582.858 197.017 584.483 194.742 586.6 193.125C588.733 191.492 591.283 190.675 594.25 190.675Z" fill="white"/>
<path d="M688.1 199.7C688.1 201.333 687.633 202.742 686.7 203.925C685.783 205.108 684.392 206.225 682.525 207.275C684.825 208.358 686.558 209.692 687.725 211.275C688.892 212.858 689.475 214.65 689.475 216.65C689.475 218.467 688.983 220.142 688 221.675C687.033 223.208 685.617 224.442 683.75 225.375C681.883 226.292 679.592 226.75 676.875 226.75C674.175 226.75 671.908 226.3 670.075 225.4C668.242 224.483 666.858 223.275 665.925 221.775C664.992 220.275 664.525 218.625 664.525 216.825C664.525 214.792 665.117 213.042 666.3 211.575C667.5 210.108 669.1 208.933 671.1 208.05C669.3 207.017 667.983 205.9 667.15 204.7C666.317 203.5 665.9 201.942 665.9 200.025C665.9 198.508 666.2 197.175 666.8 196.025C667.4 194.858 668.217 193.883 669.25 193.1C670.3 192.3 671.492 191.7 672.825 191.3C674.158 190.883 675.558 190.675 677.025 190.675C678.558 190.675 679.992 190.875 681.325 191.275C682.675 191.658 683.858 192.233 684.875 193C685.892 193.767 686.683 194.708 687.25 195.825C687.817 196.942 688.1 198.233 688.1 199.7ZM682.8 216.65C682.8 215.35 682.508 214.317 681.925 213.55C681.358 212.767 680.517 212.1 679.4 211.55C678.283 211 676.9 210.433 675.25 209.85C674.483 210.283 673.792 210.808 673.175 211.425C672.575 212.042 672.092 212.767 671.725 213.6C671.375 214.433 671.2 215.408 671.2 216.525C671.2 218.142 671.683 219.442 672.65 220.425C673.633 221.408 675.083 221.9 677 221.9C678.95 221.9 680.4 221.392 681.35 220.375C682.317 219.342 682.8 218.1 682.8 216.65ZM672.225 200.05C672.225 201.05 672.45 201.883 672.9 202.55C673.35 203.2 674.017 203.767 674.9 204.25C675.783 204.733 676.875 205.208 678.175 205.675C679.458 204.808 680.375 203.95 680.925 203.1C681.492 202.233 681.775 201.217 681.775 200.05C681.775 198.633 681.367 197.492 680.55 196.625C679.75 195.742 678.575 195.3 677.025 195.3C675.508 195.3 674.325 195.708 673.475 196.525C672.642 197.342 672.225 198.517 672.225 200.05Z" fill="white"/>
<path d="M752.225 191.425V225H745.75V198.075L738.375 202.65L735.55 198.075L746.4 191.425H752.225ZM758.95 220.925V226H737.375V220.925H758.95ZM776.98 190.675C780.964 190.675 783.972 192.25 786.005 195.4C788.039 198.533 789.055 202.95 789.055 208.65C789.055 214.367 788.039 218.817 786.005 222C783.972 225.167 780.964 226.75 776.98 226.75C772.98 226.75 769.964 225.167 767.93 222C765.914 218.817 764.905 214.367 764.905 208.65C764.905 202.95 765.914 198.533 767.93 195.4C769.964 192.25 772.98 190.675 776.98 190.675ZM776.98 195.575C775.097 195.575 773.672 196.583 772.705 198.6C771.755 200.6 771.28 203.95 771.28 208.65C771.28 211.25 771.372 213.408 771.555 215.125C771.755 216.825 772.08 218.167 772.53 219.15C772.98 220.133 773.564 220.833 774.28 221.25C775.014 221.65 775.914 221.85 776.98 221.85C778.247 221.85 779.297 221.425 780.13 220.575C780.98 219.708 781.614 218.308 782.03 216.375C782.447 214.425 782.655 211.85 782.655 208.65C782.655 205.25 782.472 202.6 782.105 200.7C781.755 198.8 781.164 197.475 780.33 196.725C779.514 195.958 778.397 195.575 776.98 195.575ZM781.305 196.7L783.005 200.8L773.155 221L771.13 217.65L781.305 196.7Z" fill="white"/>
<path d="M838.225 191.425V225H831.75V198.075L824.375 202.65L821.55 198.075L832.4 191.425H838.225ZM844.95 220.925V226H823.375V220.925H844.95ZM861.655 190.675C864.139 190.675 866.222 191.117 867.905 192C869.605 192.883 870.889 194.075 871.755 195.575C872.622 197.058 873.055 198.692 873.055 200.475C873.055 201.942 872.805 203.375 872.305 204.775C871.805 206.175 870.989 207.65 869.855 209.2C868.739 210.75 867.255 212.475 865.405 214.375C863.555 216.258 861.272 218.408 858.555 220.825H873.855L873.13 226H851.005V221.175C853.389 218.875 855.447 216.85 857.18 215.1C858.914 213.333 860.364 211.775 861.53 210.425C862.714 209.075 863.647 207.867 864.33 206.8C865.03 205.717 865.53 204.708 865.83 203.775C866.13 202.842 866.28 201.908 866.28 200.975C866.28 199.392 865.822 198.142 864.905 197.225C864.005 196.308 862.739 195.85 861.105 195.85C859.655 195.85 858.422 196.133 857.405 196.7C856.405 197.25 855.422 198.15 854.455 199.4L850.305 196.25C851.622 194.483 853.189 193.117 855.005 192.15C856.822 191.167 859.039 190.675 861.655 190.675Z" fill="white"/>
<path d="M302.238 156.133C303.139 156.133 303.856 155.974 304.389 155.656C304.921 155.33 305.187 154.883 305.187 154.317C305.187 153.947 305.11 153.634 304.955 153.377C304.801 153.11 304.492 152.87 304.028 152.655C303.564 152.432 302.86 152.2 301.916 151.96C301.023 151.728 300.237 151.453 299.559 151.136C298.889 150.818 298.37 150.406 298.001 149.899C297.632 149.393 297.447 148.74 297.447 147.942C297.447 147.16 297.666 146.478 298.104 145.894C298.542 145.31 299.168 144.855 299.984 144.529C300.808 144.203 301.774 144.039 302.882 144.039C304.024 144.039 305.02 144.19 305.87 144.49C306.72 144.791 307.445 145.164 308.046 145.611L306.836 147.427C306.303 147.074 305.719 146.787 305.084 146.564C304.457 146.34 303.749 146.229 302.959 146.229C302.04 146.229 301.379 146.366 300.976 146.641C300.581 146.916 300.383 147.281 300.383 147.736C300.383 148.07 300.482 148.354 300.68 148.586C300.886 148.809 301.238 149.019 301.736 149.217C302.234 149.406 302.938 149.629 303.848 149.886C304.732 150.127 305.501 150.41 306.153 150.736C306.814 151.063 307.325 151.496 307.686 152.037C308.055 152.569 308.239 153.265 308.239 154.123C308.239 155.102 307.956 155.905 307.389 156.532C306.831 157.15 306.093 157.609 305.174 157.91C304.264 158.202 303.285 158.348 302.238 158.348C300.976 158.348 299.885 158.167 298.967 157.807C298.048 157.438 297.275 156.978 296.648 156.429L298.181 154.677C298.713 155.107 299.323 155.459 300.01 155.733C300.697 155.999 301.439 156.133 302.238 156.133ZM324.096 157.279C323.598 157.596 323.001 157.854 322.306 158.052C321.61 158.249 320.885 158.348 320.129 158.348C318.55 158.348 317.348 157.94 316.523 157.124C315.708 156.3 315.3 155.218 315.3 153.879V146.499H312.273V144.4H315.3V141.361L318.185 141.013V144.4H322.769L322.448 146.499H318.185V153.853C318.185 154.583 318.365 155.128 318.726 155.489C319.095 155.841 319.696 156.017 320.529 156.017C321.027 156.017 321.486 155.957 321.907 155.836C322.327 155.716 322.709 155.562 323.053 155.373L324.096 157.279ZM338.575 154.664C338.575 155.197 338.656 155.587 338.819 155.836C338.982 156.077 339.244 156.257 339.605 156.377L338.961 158.335C338.291 158.258 337.716 158.073 337.235 157.781C336.754 157.489 336.389 157.047 336.14 156.455C335.643 157.081 335.011 157.554 334.247 157.871C333.483 158.189 332.668 158.348 331.8 158.348C330.427 158.348 329.336 157.961 328.529 157.189C327.731 156.407 327.331 155.386 327.331 154.123C327.331 152.69 327.889 151.586 329.006 150.814C330.122 150.041 331.719 149.655 333.797 149.655H335.741V148.766C335.741 147.89 335.475 147.259 334.943 146.873C334.419 146.486 333.676 146.293 332.715 146.293C332.268 146.293 331.727 146.353 331.092 146.473C330.457 146.585 329.791 146.761 329.096 147.002L328.387 144.967C329.237 144.649 330.07 144.417 330.886 144.271C331.702 144.117 332.457 144.039 333.153 144.039C334.973 144.039 336.329 144.443 337.222 145.25C338.124 146.057 338.575 147.173 338.575 148.598V154.664ZM332.676 156.223C333.26 156.223 333.831 156.068 334.389 155.759C334.947 155.45 335.398 155.016 335.741 154.458V151.458H334.144C332.788 151.458 331.818 151.685 331.234 152.14C330.65 152.587 330.358 153.205 330.358 153.995C330.358 154.716 330.551 155.27 330.937 155.656C331.332 156.034 331.912 156.223 332.676 156.223ZM343.755 158V155.939H345.751V146.448H343.755V144.4H347.953L348.481 147.555C348.988 146.413 349.615 145.546 350.361 144.954C351.117 144.353 352.087 144.052 353.272 144.052C353.676 144.052 354.036 144.087 354.354 144.155C354.68 144.215 355.002 144.297 355.32 144.4L354.457 146.873C354.182 146.795 353.925 146.74 353.684 146.705C353.444 146.662 353.178 146.641 352.886 146.641C351.898 146.641 351.044 147.01 350.323 147.748C349.61 148.487 349.048 149.534 348.636 150.891V155.939H351.379V158H343.755ZM352.77 149.41V146.061L353.13 144.4H355.32L354.83 149.41H352.77ZM370.429 157.279C369.931 157.596 369.335 157.854 368.639 158.052C367.944 158.249 367.218 158.348 366.463 158.348C364.883 158.348 363.681 157.94 362.857 157.124C362.041 156.3 361.633 155.218 361.633 153.879V146.499H358.607V144.4H361.633V141.361L364.518 141.013V144.4H369.103L368.781 146.499H364.518V153.853C364.518 154.583 364.698 155.128 365.059 155.489C365.428 155.841 366.029 156.017 366.862 156.017C367.36 156.017 367.819 155.957 368.24 155.836C368.661 155.716 369.043 155.562 369.386 155.373L370.429 157.279Z" fill="black"/>
<path d="M529.238 122.133C530.139 122.133 530.856 121.974 531.389 121.656C531.921 121.33 532.187 120.883 532.187 120.317C532.187 119.947 532.11 119.634 531.955 119.377C531.801 119.11 531.492 118.87 531.028 118.655C530.564 118.432 529.86 118.2 528.916 117.96C528.023 117.728 527.237 117.453 526.559 117.136C525.889 116.818 525.37 116.406 525.001 115.899C524.632 115.393 524.447 114.74 524.447 113.942C524.447 113.16 524.666 112.478 525.104 111.894C525.542 111.31 526.168 110.855 526.984 110.529C527.808 110.203 528.774 110.039 529.882 110.039C531.024 110.039 532.02 110.19 532.87 110.49C533.72 110.791 534.445 111.164 535.046 111.611L533.836 113.427C533.303 113.074 532.719 112.787 532.084 112.564C531.457 112.34 530.749 112.229 529.959 112.229C529.04 112.229 528.379 112.366 527.976 112.641C527.581 112.916 527.383 113.281 527.383 113.736C527.383 114.07 527.482 114.354 527.68 114.586C527.886 114.809 528.238 115.019 528.736 115.217C529.234 115.406 529.938 115.629 530.848 115.886C531.732 116.127 532.501 116.41 533.153 116.736C533.814 117.063 534.325 117.496 534.686 118.037C535.055 118.569 535.239 119.265 535.239 120.123C535.239 121.102 534.956 121.905 534.389 122.532C533.831 123.15 533.093 123.609 532.174 123.91C531.264 124.202 530.285 124.348 529.238 124.348C527.976 124.348 526.885 124.167 525.967 123.807C525.048 123.438 524.275 122.978 523.648 122.429L525.181 120.677C525.713 121.107 526.323 121.459 527.01 121.733C527.697 121.999 528.439 122.133 529.238 122.133ZM551.096 123.279C550.598 123.596 550.001 123.854 549.306 124.052C548.61 124.249 547.885 124.348 547.129 124.348C545.55 124.348 544.348 123.94 543.523 123.124C542.708 122.3 542.3 121.218 542.3 119.879V112.499H539.273V110.4H542.3V107.361L545.185 107.013V110.4H549.769L549.448 112.499H545.185V119.853C545.185 120.583 545.365 121.128 545.726 121.489C546.095 121.841 546.696 122.017 547.529 122.017C548.027 122.017 548.486 121.957 548.907 121.836C549.327 121.716 549.709 121.562 550.053 121.373L551.096 123.279ZM557.577 118.127C557.637 119.055 557.834 119.814 558.169 120.407C558.504 120.991 558.942 121.42 559.483 121.695C560.032 121.969 560.633 122.107 561.286 122.107C561.956 122.107 562.574 122.004 563.14 121.798C563.707 121.592 564.278 121.3 564.853 120.922L566.103 122.648C565.467 123.163 564.725 123.575 563.875 123.884C563.025 124.193 562.114 124.348 561.144 124.348C559.736 124.348 558.543 124.047 557.564 123.446C556.594 122.845 555.855 122.008 555.349 120.935C554.842 119.862 554.589 118.621 554.589 117.213C554.589 115.848 554.838 114.629 555.336 113.555C555.834 112.473 556.547 111.619 557.474 110.992C558.401 110.357 559.509 110.039 560.797 110.039C562.007 110.039 563.046 110.314 563.913 110.864C564.789 111.413 565.463 112.194 565.935 113.208C566.416 114.212 566.656 115.423 566.656 116.839C566.656 117.071 566.648 117.303 566.631 117.535C566.622 117.758 566.609 117.956 566.592 118.127H557.577ZM560.822 112.177C559.921 112.177 559.174 112.499 558.581 113.143C557.998 113.787 557.658 114.792 557.564 116.157H563.862C563.836 114.878 563.561 113.894 563.037 113.208C562.522 112.521 561.784 112.177 560.822 112.177ZM577.258 110.039C578.46 110.039 579.422 110.336 580.143 110.928C580.865 111.512 581.388 112.34 581.715 113.414C582.041 114.478 582.204 115.732 582.204 117.174C582.204 118.557 582.006 119.789 581.611 120.87C581.217 121.952 580.628 122.802 579.847 123.42C579.074 124.039 578.113 124.348 576.962 124.348C575.537 124.348 574.386 123.845 573.511 122.841V129.229L570.626 129.551V110.4H573.137L573.318 112.152C573.833 111.447 574.429 110.919 575.108 110.567C575.795 110.215 576.511 110.039 577.258 110.039ZM576.46 112.267C575.816 112.267 575.249 112.461 574.76 112.847C574.271 113.233 573.854 113.688 573.511 114.212V120.574C573.837 121.064 574.223 121.441 574.67 121.708C575.125 121.965 575.636 122.094 576.202 122.094C577.173 122.094 577.911 121.703 578.418 120.922C578.924 120.141 579.177 118.896 579.177 117.187C579.177 116.028 579.074 115.088 578.868 114.367C578.671 113.637 578.37 113.105 577.967 112.77C577.572 112.435 577.07 112.267 576.46 112.267Z" fill="black"/>
<path d="M820.238 156.133C821.139 156.133 821.856 155.974 822.389 155.656C822.921 155.33 823.187 154.883 823.187 154.317C823.187 153.947 823.11 153.634 822.955 153.377C822.801 153.11 822.492 152.87 822.028 152.655C821.564 152.432 820.86 152.2 819.916 151.96C819.023 151.728 818.237 151.453 817.559 151.136C816.889 150.818 816.37 150.406 816.001 149.899C815.632 149.393 815.447 148.74 815.447 147.942C815.447 147.16 815.666 146.478 816.104 145.894C816.542 145.31 817.168 144.855 817.984 144.529C818.808 144.203 819.774 144.039 820.882 144.039C822.024 144.039 823.02 144.19 823.87 144.49C824.72 144.791 825.445 145.164 826.046 145.611L824.836 147.427C824.303 147.074 823.719 146.787 823.084 146.564C822.457 146.34 821.749 146.229 820.959 146.229C820.04 146.229 819.379 146.366 818.976 146.641C818.581 146.916 818.383 147.281 818.383 147.736C818.383 148.07 818.482 148.354 818.68 148.586C818.886 148.809 819.238 149.019 819.736 149.217C820.234 149.406 820.938 149.629 821.848 149.886C822.732 150.127 823.501 150.41 824.153 150.736C824.814 151.063 825.325 151.496 825.686 152.037C826.055 152.569 826.239 153.265 826.239 154.123C826.239 155.102 825.956 155.905 825.389 156.532C824.831 157.15 824.093 157.609 823.174 157.91C822.264 158.202 821.285 158.348 820.238 158.348C818.976 158.348 817.885 158.167 816.967 157.807C816.048 157.438 815.275 156.978 814.648 156.429L816.181 154.677C816.713 155.107 817.323 155.459 818.01 155.733C818.697 155.999 819.439 156.133 820.238 156.133ZM842.096 157.279C841.598 157.596 841.001 157.854 840.306 158.052C839.61 158.249 838.885 158.348 838.129 158.348C836.55 158.348 835.348 157.94 834.523 157.124C833.708 156.3 833.3 155.218 833.3 153.879V146.499H830.273V144.4H833.3V141.361L836.185 141.013V144.4H840.769L840.448 146.499H836.185V153.853C836.185 154.583 836.365 155.128 836.726 155.489C837.095 155.841 837.696 156.017 838.529 156.017C839.027 156.017 839.486 155.957 839.907 155.836C840.327 155.716 840.709 155.562 841.053 155.373L842.096 157.279ZM851.629 144.039C852.96 144.039 854.08 144.336 854.99 144.928C855.901 145.52 856.587 146.349 857.051 147.414C857.523 148.478 857.759 149.732 857.759 151.174C857.759 152.608 857.519 153.866 857.038 154.948C856.566 156.021 855.871 156.858 854.952 157.459C854.042 158.052 852.93 158.348 851.616 158.348C850.303 158.348 849.186 158.06 848.268 157.485C847.358 156.901 846.662 156.072 846.181 154.999C845.709 153.926 845.473 152.66 845.473 151.2C845.473 149.783 845.709 148.538 846.181 147.465C846.662 146.392 847.362 145.555 848.281 144.954C849.199 144.344 850.315 144.039 851.629 144.039ZM851.629 146.28C850.59 146.28 849.809 146.68 849.285 147.478C848.761 148.268 848.5 149.509 848.5 151.2C848.5 152.883 848.757 154.123 849.272 154.922C849.796 155.72 850.577 156.12 851.616 156.12C852.655 156.12 853.432 155.72 853.947 154.922C854.471 154.123 854.733 152.874 854.733 151.174C854.733 149.5 854.475 148.268 853.96 147.478C853.445 146.68 852.668 146.28 851.629 146.28ZM868.258 144.039C869.46 144.039 870.422 144.336 871.143 144.928C871.865 145.512 872.388 146.34 872.715 147.414C873.041 148.478 873.204 149.732 873.204 151.174C873.204 152.557 873.006 153.789 872.611 154.87C872.217 155.952 871.628 156.802 870.847 157.42C870.074 158.039 869.113 158.348 867.962 158.348C866.537 158.348 865.386 157.845 864.511 156.841V163.229L861.626 163.551V144.4H864.137L864.318 146.152C864.833 145.447 865.429 144.919 866.108 144.567C866.795 144.215 867.511 144.039 868.258 144.039ZM867.46 146.267C866.816 146.267 866.249 146.461 865.76 146.847C865.271 147.233 864.854 147.688 864.511 148.212V154.574C864.837 155.064 865.223 155.441 865.67 155.708C866.125 155.965 866.636 156.094 867.202 156.094C868.173 156.094 868.911 155.703 869.418 154.922C869.924 154.141 870.177 152.896 870.177 151.187C870.177 150.028 870.074 149.088 869.868 148.367C869.671 147.637 869.37 147.105 868.967 146.77C868.572 146.435 868.07 146.267 867.46 146.267Z" fill="black"/>
<path d="M508.5 166C508.5 166.828 507.828 167.5 507 167.5C506.172 167.5 505.5 166.828 505.5 166H508.5ZM507 137H505.5C505.5 136.172 506.172 135.5 507 135.5V137ZM596 137V135.5C596.828 135.5 597.5 136.172 597.5 137H596ZM596 166L587.34 151H604.66L596 166ZM507 166H505.5V137H507H508.5V166H507ZM507 137V135.5H596V137V138.5H507V137ZM596 137H597.5V152.5H596H594.5V137H596Z" fill="black"/>
<path d="M336.727 262.867C338.719 262.867 340.226 263.669 341.248 265.275C342.269 266.881 342.78 269.152 342.78 272.088C342.78 275.033 342.269 277.312 341.248 278.927C340.226 280.541 338.719 281.348 336.727 281.348C334.727 281.348 333.216 280.541 332.194 278.927C331.181 277.312 330.674 275.033 330.674 272.088C330.674 269.152 331.181 266.881 332.194 265.275C333.216 263.669 334.727 262.867 336.727 262.867ZM336.727 265.069C335.706 265.069 334.92 265.614 334.37 266.705C333.821 267.786 333.546 269.581 333.546 272.088C333.546 273.427 333.602 274.552 333.714 275.462C333.834 276.364 334.018 277.085 334.267 277.626C334.525 278.167 334.856 278.557 335.259 278.798C335.663 279.03 336.152 279.145 336.727 279.145C337.414 279.145 337.994 278.914 338.466 278.45C338.938 277.978 339.294 277.222 339.535 276.183C339.784 275.144 339.908 273.779 339.908 272.088C339.908 270.328 339.801 268.937 339.586 267.915C339.38 266.885 339.045 266.155 338.582 265.726C338.118 265.288 337.5 265.069 336.727 265.069ZM339.123 265.674L339.87 267.696L334.564 278.527L333.611 276.892L339.123 265.674Z" fill="black"/>
<path d="M420.097 263.227V280.485H417.238V266.189L413.323 268.598L412.086 266.576L417.547 263.227H420.097ZM423.652 278.733V281H412.898V278.733H423.652Z" fill="black"/>
<path d="M506.006 262.867C507.217 262.867 508.238 263.094 509.071 263.549C509.913 263.996 510.552 264.597 510.99 265.352C511.437 266.108 511.66 266.954 511.66 267.889C511.66 268.662 511.522 269.422 511.248 270.169C510.982 270.916 510.548 271.702 509.947 272.526C509.355 273.341 508.569 274.252 507.59 275.256C506.611 276.252 505.414 277.394 503.997 278.682H512.072L511.737 281H500.687V278.811C501.966 277.591 503.061 276.518 503.971 275.591C504.881 274.655 505.641 273.835 506.251 273.131C506.86 272.418 507.341 271.779 507.693 271.212C508.045 270.637 508.294 270.1 508.44 269.602C508.595 269.096 508.672 268.585 508.672 268.07C508.672 267.177 508.419 266.473 507.912 265.958C507.406 265.442 506.702 265.185 505.8 265.185C504.993 265.185 504.323 265.331 503.791 265.623C503.259 265.915 502.731 266.387 502.207 267.039L500.327 265.61C501.022 264.726 501.82 264.047 502.722 263.575C503.623 263.103 504.718 262.867 506.006 262.867Z" fill="black"/>
<path d="M590.955 262.867C592.131 262.867 593.144 263.073 593.994 263.485C594.844 263.897 595.496 264.442 595.952 265.12C596.407 265.799 596.634 266.546 596.634 267.361C596.634 268.091 596.48 268.744 596.17 269.319C595.861 269.894 595.441 270.371 594.908 270.748C594.376 271.126 593.775 271.392 593.105 271.547C593.852 271.624 594.535 271.83 595.153 272.165C595.771 272.5 596.265 272.977 596.634 273.595C597.012 274.213 597.201 274.99 597.201 275.926C597.201 276.939 596.935 277.858 596.402 278.682C595.879 279.497 595.132 280.146 594.161 280.627C593.2 281.107 592.066 281.348 590.761 281.348C589.645 281.348 588.581 281.142 587.567 280.73C586.563 280.317 585.709 279.695 585.005 278.862L586.769 277.317C587.276 277.909 587.868 278.347 588.546 278.63C589.224 278.914 589.92 279.055 590.633 279.055C591.732 279.055 592.603 278.772 593.247 278.205C593.891 277.63 594.213 276.836 594.213 275.823C594.213 275.05 594.067 274.44 593.775 273.994C593.492 273.539 593.092 273.213 592.577 273.015C592.062 272.818 591.465 272.719 590.787 272.719H589.255L589.589 270.594H590.671C591.229 270.594 591.744 270.495 592.217 270.298C592.689 270.092 593.067 269.778 593.35 269.358C593.642 268.937 593.788 268.413 593.788 267.786C593.788 266.919 593.492 266.254 592.899 265.79C592.315 265.327 591.59 265.095 590.723 265.095C589.984 265.095 589.323 265.232 588.739 265.507C588.164 265.773 587.597 266.168 587.039 266.692L585.507 265.056C586.288 264.309 587.134 263.76 588.044 263.408C588.954 263.047 589.924 262.867 590.955 262.867Z" fill="black"/>
<path d="M675.697 262.867L678.131 263.833L673.598 274.664H682.858V276.905H670.584V274.895L675.697 262.867ZM680.745 269.911V281H677.977L677.951 275.076L678.324 269.911H680.745Z" fill="black"/>
<path d="M766.814 263.227L766.441 265.391H759.615V270.336C760.122 270.07 760.611 269.89 761.083 269.795C761.564 269.692 762.045 269.641 762.526 269.641C763.47 269.641 764.312 269.864 765.05 270.311C765.788 270.757 766.368 271.401 766.789 272.242C767.218 273.084 767.433 274.101 767.433 275.295C767.433 276.48 767.166 277.531 766.634 278.45C766.11 279.36 765.372 280.073 764.419 280.588C763.466 281.094 762.345 281.348 761.058 281.348C759.898 281.348 758.868 281.142 757.967 280.73C757.074 280.309 756.288 279.738 755.61 279.017L757.336 277.394C757.834 277.943 758.379 278.36 758.971 278.643C759.572 278.918 760.229 279.055 760.942 279.055C762.023 279.055 762.873 278.729 763.492 278.077C764.118 277.415 764.432 276.484 764.432 275.282C764.432 274.406 764.303 273.715 764.045 273.208C763.796 272.693 763.453 272.324 763.015 272.101C762.577 271.878 762.084 271.766 761.534 271.766C761.088 271.766 760.667 271.813 760.272 271.908C759.886 272.002 759.456 272.152 758.984 272.358H756.859V263.227H766.814Z" fill="black"/>
<rect x="296" y="254" width="508" height="36" rx="4" stroke="#8E8E8E" stroke-width="2" stroke-dasharray="7 7"/>
<path d="M90.6879 275.127C90.748 276.055 90.9455 276.814 91.2803 277.407C91.6152 277.991 92.053 278.42 92.5939 278.695C93.1434 278.969 93.7444 279.107 94.397 279.107C95.0667 279.107 95.6848 279.004 96.2515 278.798C96.8182 278.592 97.3891 278.3 97.9644 277.922L99.2136 279.648C98.5783 280.163 97.8356 280.575 96.9856 280.884C96.1356 281.193 95.2255 281.348 94.2553 281.348C92.8472 281.348 91.6538 281.047 90.675 280.446C89.7048 279.845 88.9664 279.008 88.4598 277.935C87.9533 276.862 87.7 275.621 87.7 274.213C87.7 272.848 87.949 271.629 88.447 270.555C88.9449 269.473 89.6576 268.619 90.5848 267.992C91.5121 267.357 92.6197 267.039 93.9076 267.039C95.1182 267.039 96.1571 267.314 97.0242 267.864C97.9 268.413 98.574 269.194 99.0462 270.208C99.527 271.212 99.7674 272.423 99.7674 273.839C99.7674 274.071 99.7588 274.303 99.7417 274.535C99.7331 274.758 99.7202 274.956 99.703 275.127H90.6879ZM93.9333 269.177C93.0318 269.177 92.2848 269.499 91.6924 270.143C91.1086 270.787 90.7694 271.792 90.675 273.157H96.9727C96.947 271.878 96.6722 270.894 96.1485 270.208C95.6333 269.521 94.895 269.177 93.9333 269.177ZM103.737 281V267.4H106.223L106.441 269.164C107.008 268.469 107.678 267.941 108.451 267.58C109.223 267.22 110.017 267.039 110.833 267.039C112.104 267.039 113.053 267.396 113.679 268.108C114.315 268.812 114.632 269.804 114.632 271.083V281H111.748V272.513C111.748 271.723 111.7 271.088 111.606 270.607C111.511 270.126 111.323 269.778 111.039 269.564C110.764 269.349 110.352 269.242 109.803 269.242C109.365 269.242 108.949 269.336 108.554 269.525C108.159 269.714 107.798 269.963 107.472 270.272C107.145 270.572 106.862 270.894 106.622 271.238V281H103.737ZM122.066 267.4V276.905C122.066 277.712 122.225 278.287 122.543 278.63C122.869 278.974 123.358 279.145 124.011 279.145C124.629 279.145 125.226 278.961 125.801 278.592C126.376 278.222 126.831 277.772 127.166 277.239V267.4H130.051V281H127.565L127.385 279.261C126.879 279.94 126.239 280.459 125.466 280.82C124.694 281.172 123.904 281.348 123.097 281.348C121.783 281.348 120.8 280.987 120.147 280.266C119.503 279.536 119.181 278.536 119.181 277.265V267.4H122.066ZM144.002 267.039C144.517 267.039 144.98 267.151 145.393 267.374C145.805 267.597 146.127 267.988 146.358 268.546C146.599 269.104 146.719 269.886 146.719 270.89V281H144.156V271.289C144.156 270.577 144.105 270.066 144.002 269.757C143.907 269.448 143.654 269.293 143.242 269.293C142.916 269.293 142.585 269.396 142.25 269.602C141.915 269.8 141.576 270.143 141.233 270.633V281H138.902V271.289C138.902 270.577 138.85 270.066 138.747 269.757C138.653 269.448 138.399 269.293 137.987 269.293C137.652 269.293 137.318 269.396 136.983 269.602C136.656 269.8 136.322 270.143 135.978 270.633V281H133.402V267.4H135.579L135.772 268.868C136.158 268.327 136.579 267.889 137.034 267.555C137.489 267.211 138.039 267.039 138.683 267.039C139.198 267.039 139.666 267.168 140.086 267.426C140.507 267.683 140.816 268.134 141.014 268.778C141.392 268.263 141.821 267.846 142.302 267.529C142.782 267.203 143.349 267.039 144.002 267.039ZM152.466 275.127C152.526 276.055 152.723 276.814 153.058 277.407C153.393 277.991 153.831 278.42 154.372 278.695C154.921 278.969 155.522 279.107 156.175 279.107C156.845 279.107 157.463 279.004 158.029 278.798C158.596 278.592 159.167 278.3 159.742 277.922L160.992 279.648C160.356 280.163 159.614 280.575 158.764 280.884C157.914 281.193 157.003 281.348 156.033 281.348C154.625 281.348 153.432 281.047 152.453 280.446C151.483 279.845 150.744 279.008 150.238 277.935C149.731 276.862 149.478 275.621 149.478 274.213C149.478 272.848 149.727 271.629 150.225 270.555C150.723 269.473 151.436 268.619 152.363 267.992C153.29 267.357 154.398 267.039 155.686 267.039C156.896 267.039 157.935 267.314 158.802 267.864C159.678 268.413 160.352 269.194 160.824 270.208C161.305 271.212 161.545 272.423 161.545 273.839C161.545 274.071 161.537 274.303 161.52 274.535C161.511 274.758 161.498 274.956 161.481 275.127H152.466ZM155.711 269.177C154.81 269.177 154.063 269.499 153.47 270.143C152.887 270.787 152.547 271.792 152.453 273.157H158.751C158.725 271.878 158.45 270.894 157.926 270.208C157.411 269.521 156.673 269.177 155.711 269.177ZM165.644 281V278.939H167.64V269.448H165.644V267.4H169.842L170.37 270.555C170.877 269.413 171.503 268.546 172.25 267.954C173.006 267.353 173.976 267.052 175.161 267.052C175.565 267.052 175.925 267.087 176.243 267.155C176.569 267.215 176.891 267.297 177.209 267.4L176.346 269.873C176.071 269.795 175.814 269.74 175.573 269.705C175.333 269.662 175.067 269.641 174.775 269.641C173.787 269.641 172.933 270.01 172.212 270.748C171.499 271.487 170.937 272.534 170.525 273.891V278.939H173.268V281H165.644ZM174.659 272.41V269.061L175.019 267.4H177.209L176.719 272.41H174.659ZM191.353 277.664C191.353 278.197 191.434 278.587 191.597 278.836C191.76 279.077 192.022 279.257 192.383 279.377L191.739 281.335C191.069 281.258 190.494 281.073 190.013 280.781C189.532 280.489 189.167 280.047 188.918 279.455C188.42 280.081 187.789 280.554 187.025 280.871C186.261 281.189 185.445 281.348 184.578 281.348C183.205 281.348 182.114 280.961 181.307 280.189C180.509 279.407 180.109 278.386 180.109 277.123C180.109 275.69 180.667 274.586 181.784 273.814C182.9 273.041 184.497 272.655 186.574 272.655H188.519V271.766C188.519 270.89 188.253 270.259 187.721 269.873C187.197 269.486 186.454 269.293 185.493 269.293C185.046 269.293 184.505 269.353 183.87 269.473C183.235 269.585 182.569 269.761 181.874 270.002L181.165 267.967C182.015 267.649 182.848 267.417 183.664 267.271C184.48 267.117 185.235 267.039 185.931 267.039C187.751 267.039 189.107 267.443 190 268.25C190.902 269.057 191.353 270.173 191.353 271.598V277.664ZM185.454 279.223C186.038 279.223 186.609 279.068 187.167 278.759C187.725 278.45 188.176 278.016 188.519 277.458V274.458H186.922C185.566 274.458 184.595 274.685 184.012 275.14C183.428 275.587 183.136 276.205 183.136 276.995C183.136 277.716 183.329 278.27 183.715 278.656C184.11 279.034 184.69 279.223 185.454 279.223ZM207.763 280.279C207.265 280.596 206.668 280.854 205.973 281.052C205.277 281.249 204.552 281.348 203.796 281.348C202.216 281.348 201.014 280.94 200.19 280.124C199.375 279.3 198.967 278.218 198.967 276.879V269.499H195.94V267.4H198.967V264.361L201.852 264.013V267.4H206.436L206.114 269.499H201.852V276.853C201.852 277.583 202.032 278.128 202.392 278.489C202.762 278.841 203.363 279.017 204.195 279.017C204.693 279.017 205.153 278.957 205.574 278.836C205.994 278.716 206.376 278.562 206.72 278.373L207.763 280.279ZM214.244 275.127C214.304 276.055 214.501 276.814 214.836 277.407C215.171 277.991 215.609 278.42 216.15 278.695C216.699 278.969 217.3 279.107 217.953 279.107C218.623 279.107 219.241 279.004 219.807 278.798C220.374 278.592 220.945 278.3 221.52 277.922L222.77 279.648C222.134 280.163 221.391 280.575 220.541 280.884C219.691 281.193 218.781 281.348 217.811 281.348C216.403 281.348 215.21 281.047 214.231 280.446C213.261 279.845 212.522 279.008 212.016 277.935C211.509 276.862 211.256 275.621 211.256 274.213C211.256 272.848 211.505 271.629 212.003 270.555C212.501 269.473 213.213 268.619 214.141 267.992C215.068 267.357 216.176 267.039 217.463 267.039C218.674 267.039 219.713 267.314 220.58 267.864C221.456 268.413 222.13 269.194 222.602 270.208C223.083 271.212 223.323 272.423 223.323 273.839C223.323 274.071 223.315 274.303 223.298 274.535C223.289 274.758 223.276 274.956 223.259 275.127H214.244ZM217.489 269.177C216.588 269.177 215.841 269.499 215.248 270.143C214.664 270.787 214.325 271.792 214.231 273.157H220.529C220.503 271.878 220.228 270.894 219.704 270.208C219.189 269.521 218.451 269.177 217.489 269.177Z" fill="#007B00"/>
<path d="M236 273.5C235.172 273.5 234.5 274.172 234.5 275C234.5 275.828 235.172 276.5 236 276.5V273.5ZM290 275L275 266.34V283.66L290 275ZM236 275V276.5H276.5V275V273.5H236V275Z" fill="black"/>
</g>
<defs>
<clipPath id="clip0_107_753">
<rect width="1208" height="363" fill="white"/>
</clipPath>
</defs>
</svg>
