<svg width="1208" height="400" viewBox="0 0 1208 400" fill="none" xmlns="http://www.w3.org/2000/svg">
<g clip-path="url(#clip0_89_1571)">
<rect width="1208" height="400" fill="white"/>
<rect x="342.249" y="364.665" width="25.7725" height="25.7725" rx="5.03368" fill="#0037AC"/>
<path d="M352.232 371.398C352.061 370.981 351.471 370.981 351.3 371.398L351.032 372.052C350.982 372.174 350.981 372.311 351.031 372.433L354.627 381.257C354.762 381.588 354.518 381.95 354.161 381.95H350.582H349.374C349.016 381.95 348.772 381.587 348.908 381.255L349.529 379.744C349.579 379.622 349.579 379.485 349.529 379.363L349.247 378.67C349.077 378.253 348.486 378.252 348.315 378.669L346.625 382.786C346.489 383.117 346.733 383.481 347.091 383.481H356.441C356.799 383.481 357.043 383.117 356.907 382.786L352.232 371.398Z" fill="white"/>
<path d="M355.642 373.845C355.507 373.514 355.751 373.152 356.108 373.152H359.687H360.895C361.253 373.152 361.497 373.515 361.361 373.846L360.74 375.358C360.69 375.48 360.69 375.617 360.74 375.739L361.022 376.432C361.192 376.849 361.783 376.85 361.954 376.433L363.644 372.316C363.78 371.985 363.537 371.621 363.179 371.621H353.828C353.47 371.621 353.226 371.985 353.362 372.316L358.038 383.704C358.208 384.121 358.798 384.121 358.969 383.704L359.238 383.049C359.288 382.927 359.288 382.791 359.238 382.668L355.642 373.845Z" fill="white"/>
<path d="M383.915 379.027H380.268L379.557 381.484H377.811L381.059 371.273H383.19L386.446 381.484H384.626L383.915 379.027ZM380.623 377.703H383.553L382.095 372.605L380.623 377.703ZM389.533 373.67V379.131C389.533 379.594 389.624 379.925 389.807 380.122C389.994 380.32 390.275 380.418 390.65 380.418C391.005 380.418 391.348 380.312 391.679 380.1C392.009 379.888 392.271 379.629 392.463 379.323V373.67H394.12V381.484H392.692L392.589 380.485C392.298 380.874 391.93 381.173 391.486 381.38C391.042 381.582 390.589 381.683 390.125 381.683C389.37 381.683 388.805 381.476 388.431 381.062C388.061 380.643 387.876 380.068 387.876 379.338V373.67H389.533ZM403.274 381.069C402.988 381.252 402.646 381.4 402.246 381.513C401.846 381.627 401.43 381.683 400.996 381.683C400.088 381.683 399.397 381.449 398.924 380.981C398.455 380.507 398.221 379.885 398.221 379.116V374.876H396.482V373.67H398.221V371.924L399.878 371.724V373.67H402.512L402.327 374.876H399.878V379.101C399.878 379.52 399.982 379.834 400.189 380.041C400.401 380.243 400.747 380.344 401.225 380.344C401.511 380.344 401.775 380.31 402.017 380.241C402.258 380.172 402.478 380.083 402.675 379.974L403.274 381.069ZM408.751 373.463C409.516 373.463 410.16 373.633 410.683 373.974C411.205 374.314 411.6 374.79 411.866 375.402C412.138 376.013 412.273 376.733 412.273 377.562C412.273 378.386 412.135 379.109 411.859 379.73C411.588 380.347 411.188 380.828 410.66 381.173C410.137 381.513 409.499 381.683 408.744 381.683C407.989 381.683 407.348 381.518 406.82 381.188C406.297 380.852 405.898 380.376 405.622 379.76C405.35 379.143 405.215 378.416 405.215 377.577C405.215 376.763 405.35 376.048 405.622 375.431C405.898 374.815 406.3 374.334 406.828 373.988C407.355 373.638 407.997 373.463 408.751 373.463ZM408.751 374.751C408.155 374.751 407.706 374.98 407.405 375.439C407.104 375.892 406.953 376.605 406.953 377.577C406.953 378.544 407.101 379.257 407.397 379.715C407.698 380.174 408.147 380.403 408.744 380.403C409.341 380.403 409.787 380.174 410.083 379.715C410.384 379.257 410.535 378.539 410.535 377.562C410.535 376.6 410.387 375.892 410.091 375.439C409.795 374.98 409.348 374.751 408.751 374.751ZM414.569 381.484V380.3H415.715V374.847H414.569V373.67H416.981L417.284 375.483C417.575 374.827 417.935 374.329 418.364 373.988C418.798 373.643 419.356 373.471 420.036 373.471C420.268 373.471 420.475 373.49 420.658 373.53C420.845 373.564 421.03 373.611 421.213 373.67L420.717 375.091C420.559 375.047 420.411 375.014 420.273 374.995C420.135 374.97 419.982 374.958 419.814 374.958C419.247 374.958 418.756 375.17 418.342 375.594C417.933 376.018 417.61 376.62 417.373 377.399V380.3H418.949V381.484H414.569ZM419.748 376.549V374.625L419.955 373.67H421.213L420.932 376.549H419.748ZM425.151 380.344C425.151 379.984 425.279 379.676 425.536 379.419C425.792 379.158 426.108 379.027 426.483 379.027C426.862 379.027 427.178 379.158 427.43 379.419C427.686 379.676 427.814 379.984 427.814 380.344C427.814 380.714 427.686 381.03 427.43 381.291C427.178 381.553 426.862 381.683 426.483 381.683C426.108 381.683 425.792 381.553 425.536 381.291C425.279 381.03 425.151 380.714 425.151 380.344ZM425.151 375.091C425.151 374.849 425.21 374.627 425.328 374.425C425.447 374.223 425.607 374.062 425.809 373.944C426.012 373.826 426.236 373.766 426.483 373.766C426.862 373.766 427.178 373.897 427.43 374.159C427.686 374.415 427.814 374.726 427.814 375.091C427.814 375.456 427.686 375.772 427.43 376.038C427.178 376.299 426.862 376.43 426.483 376.43C426.108 376.43 425.792 376.299 425.536 376.038C425.279 375.772 425.151 375.456 425.151 375.091ZM447.595 371.229V377.792C447.595 378.388 447.504 378.929 447.321 379.412C447.139 379.895 446.87 380.307 446.515 380.648C446.165 380.988 445.733 381.249 445.22 381.432C444.712 381.614 444.13 381.706 443.474 381.706C442.813 381.706 442.241 381.622 441.757 381.454C441.279 381.281 440.818 381.045 440.374 380.744L441.299 379.249C441.649 379.491 441.977 379.661 442.283 379.76C442.589 379.853 442.936 379.9 443.326 379.9C443.854 379.9 444.293 379.733 444.643 379.397C444.998 379.057 445.176 378.531 445.176 377.821V373.004H442.024V371.229H447.595ZM453.109 373.367C453.918 373.367 454.606 373.54 455.173 373.885C455.741 374.23 456.175 374.716 456.476 375.342C456.776 375.964 456.927 376.694 456.927 377.533C456.927 378.406 456.774 379.158 456.468 379.789C456.167 380.416 455.733 380.897 455.166 381.232C454.599 381.567 453.913 381.735 453.109 381.735C452.31 381.735 451.624 381.57 451.052 381.239C450.485 380.909 450.048 380.431 449.742 379.804C449.442 379.178 449.291 378.425 449.291 377.547C449.291 376.714 449.442 375.984 449.742 375.357C450.048 374.731 450.485 374.242 451.052 373.892C451.624 373.542 452.31 373.367 453.109 373.367ZM453.109 375.091C452.631 375.091 452.275 375.288 452.044 375.683C451.817 376.073 451.703 376.694 451.703 377.547C451.703 378.416 451.817 379.044 452.044 379.434C452.275 379.824 452.631 380.019 453.109 380.019C453.587 380.019 453.94 379.824 454.167 379.434C454.399 379.044 454.515 378.411 454.515 377.533C454.515 376.684 454.399 376.065 454.167 375.675C453.94 375.286 453.587 375.091 453.109 375.091ZM461.73 380.063C462.12 380.063 462.433 380.001 462.67 379.878C462.912 379.755 463.033 379.57 463.033 379.323C463.033 379.155 462.986 379.015 462.892 378.901C462.798 378.788 462.618 378.679 462.352 378.576C462.086 378.472 461.691 378.349 461.168 378.206C460.69 378.078 460.265 377.915 459.896 377.718C459.53 377.52 459.244 377.266 459.037 376.955C458.835 376.645 458.734 376.257 458.734 375.794C458.734 375.325 458.865 374.908 459.126 374.543C459.387 374.178 459.772 373.892 460.28 373.685C460.788 373.473 461.41 373.367 462.145 373.367C462.845 373.367 463.454 373.458 463.972 373.641C464.495 373.818 464.947 374.045 465.326 374.321L464.394 375.698C464.069 375.495 463.718 375.335 463.343 375.217C462.969 375.093 462.591 375.032 462.211 375.032C461.832 375.032 461.548 375.084 461.361 375.187C461.178 375.286 461.087 375.436 461.087 375.638C461.087 375.772 461.134 375.888 461.227 375.986C461.326 376.08 461.508 376.179 461.775 376.282C462.041 376.381 462.431 376.504 462.944 376.652C463.452 376.795 463.893 376.96 464.268 377.148C464.648 377.335 464.942 377.587 465.149 377.903C465.356 378.213 465.46 378.625 465.46 379.138C465.46 379.71 465.289 380.191 464.949 380.581C464.609 380.966 464.157 381.254 463.595 381.447C463.033 381.639 462.416 381.735 461.745 381.735C460.986 381.735 460.315 381.627 459.733 381.41C459.151 381.193 458.655 380.907 458.246 380.551L459.422 379.234C459.728 379.471 460.073 379.668 460.458 379.826C460.848 379.984 461.272 380.063 461.73 380.063ZM469.479 378.235C469.533 378.665 469.644 379.012 469.812 379.279C469.984 379.54 470.204 379.733 470.47 379.856C470.737 379.974 471.035 380.033 471.366 380.033C471.726 380.033 472.073 379.974 472.409 379.856C472.744 379.737 473.067 379.58 473.378 379.382L474.318 380.655C473.948 380.971 473.499 381.23 472.971 381.432C472.448 381.634 471.851 381.735 471.181 381.735C470.283 381.735 469.531 381.558 468.924 381.202C468.317 380.842 467.861 380.349 467.555 379.723C467.249 379.096 467.096 378.376 467.096 377.562C467.096 376.788 467.244 376.085 467.54 375.453C467.836 374.817 468.268 374.312 468.835 373.937C469.407 373.557 470.105 373.367 470.929 373.367C471.679 373.367 472.327 373.527 472.875 373.848C473.427 374.169 473.854 374.63 474.155 375.231C474.461 375.833 474.614 376.556 474.614 377.399C474.614 377.533 474.609 377.676 474.599 377.829C474.594 377.981 474.584 378.117 474.569 378.235H469.479ZM470.929 374.936C470.51 374.936 470.172 375.086 469.915 375.387C469.659 375.688 469.503 376.169 469.449 376.83H472.335C472.33 376.257 472.219 375.799 472.002 375.453C471.785 375.108 471.427 374.936 470.929 374.936ZM480.675 373.367C481.361 373.367 481.913 373.537 482.332 373.877C482.752 374.218 483.058 374.699 483.25 375.32C483.447 375.942 483.546 376.679 483.546 377.533C483.546 378.342 483.428 379.064 483.191 379.7C482.954 380.332 482.611 380.83 482.162 381.195C481.713 381.555 481.168 381.735 480.527 381.735C479.763 381.735 479.141 381.461 478.663 380.914V384.517L476.325 384.761V373.626H478.396L478.5 374.506C478.82 374.097 479.171 373.806 479.55 373.633C479.93 373.456 480.305 373.367 480.675 373.367ZM479.95 375.091C479.679 375.091 479.439 375.172 479.232 375.335C479.025 375.498 478.835 375.72 478.663 376.001V379.316C478.825 379.557 478.996 379.735 479.173 379.848C479.356 379.962 479.57 380.019 479.817 380.019C480.231 380.019 480.554 379.831 480.786 379.456C481.018 379.077 481.134 378.445 481.134 377.562C481.134 376.911 481.087 376.408 480.993 376.053C480.9 375.693 480.764 375.444 480.586 375.305C480.409 375.162 480.197 375.091 479.95 375.091ZM487.536 370.274V374.403C487.866 374.053 488.224 373.794 488.608 373.626C488.998 373.453 489.41 373.367 489.844 373.367C490.545 373.367 491.08 373.572 491.45 373.981C491.82 374.39 492.005 374.968 492.005 375.712V381.484H489.667V376.364C489.667 375.89 489.612 375.56 489.504 375.372C489.4 375.185 489.203 375.091 488.912 375.091C488.749 375.091 488.589 375.13 488.431 375.209C488.278 375.283 488.128 375.392 487.98 375.535C487.832 375.678 487.684 375.848 487.536 376.045V381.484H485.198V370.504L487.536 370.274ZM510.313 378.487C510.313 379.123 510.145 379.686 509.81 380.174C509.479 380.662 509.003 381.045 508.382 381.321C507.76 381.597 507.013 381.735 506.14 381.735C505.173 381.735 504.362 381.595 503.706 381.313C503.055 381.027 502.514 380.675 502.085 380.255L503.313 378.894C503.693 379.224 504.113 379.481 504.571 379.663C505.03 379.841 505.533 379.93 506.081 379.93C506.421 379.93 506.719 379.881 506.976 379.782C507.232 379.683 507.432 379.54 507.575 379.353C507.718 379.165 507.79 378.938 507.79 378.672C507.79 378.42 507.733 378.208 507.62 378.036C507.506 377.863 507.314 377.708 507.043 377.57C506.776 377.431 506.404 377.291 505.925 377.148C505.126 376.901 504.483 376.63 503.994 376.334C503.511 376.038 503.158 375.695 502.936 375.305C502.719 374.916 502.611 374.462 502.611 373.944C502.611 373.318 502.783 372.782 503.129 372.338C503.479 371.895 503.947 371.557 504.534 371.325C505.121 371.088 505.767 370.97 506.473 370.97C507.267 370.97 507.967 371.086 508.574 371.317C509.181 371.544 509.706 371.87 510.15 372.294L509.003 373.611C508.658 373.32 508.286 373.106 507.886 372.967C507.487 372.824 507.08 372.753 506.665 372.753C506.359 372.753 506.091 372.792 505.859 372.871C505.627 372.945 505.447 373.056 505.319 373.204C505.19 373.352 505.126 373.537 505.126 373.759C505.126 373.976 505.188 374.159 505.311 374.307C505.435 374.455 505.649 374.595 505.955 374.728C506.261 374.857 506.685 375.007 507.228 375.18C507.874 375.377 508.426 375.614 508.885 375.89C509.349 376.161 509.701 376.504 509.943 376.918C510.19 377.333 510.313 377.856 510.313 378.487ZM518.431 379.22C518.431 379.516 518.471 379.73 518.55 379.863C518.633 379.996 518.767 380.098 518.949 380.167L518.468 381.706C518.005 381.661 517.612 381.56 517.292 381.402C516.976 381.239 516.727 380.995 516.545 380.67C516.244 381.03 515.859 381.299 515.39 381.476C514.922 381.649 514.443 381.735 513.955 381.735C513.146 381.735 512.5 381.506 512.016 381.047C511.538 380.583 511.299 379.989 511.299 379.264C511.299 378.411 511.632 377.752 512.297 377.288C512.968 376.825 513.91 376.593 515.124 376.593H516.182V376.297C516.182 375.888 516.049 375.584 515.782 375.387C515.521 375.19 515.136 375.091 514.628 375.091C514.377 375.091 514.054 375.128 513.659 375.202C513.264 375.271 512.87 375.372 512.475 375.505L511.935 373.951C512.443 373.759 512.971 373.614 513.518 373.515C514.071 373.416 514.564 373.367 514.998 373.367C516.167 373.367 517.03 373.606 517.588 374.085C518.15 374.558 518.431 375.244 518.431 376.142V379.22ZM514.761 380.063C515.013 380.063 515.277 379.989 515.553 379.841C515.829 379.688 516.039 379.474 516.182 379.197V377.925H515.605C514.954 377.925 514.475 378.026 514.169 378.228C513.864 378.425 513.711 378.716 513.711 379.101C513.711 379.402 513.802 379.639 513.984 379.811C514.172 379.979 514.431 380.063 514.761 380.063ZM520.69 381.484V373.626H522.732L522.894 374.536C523.245 374.141 523.615 373.848 524.004 373.656C524.394 373.463 524.838 373.367 525.336 373.367C526.007 373.367 526.535 373.572 526.92 373.981C527.304 374.39 527.497 374.968 527.497 375.712V381.484H525.159V376.386C525.159 376.065 525.136 375.811 525.092 375.624C525.048 375.431 524.969 375.296 524.855 375.217C524.747 375.133 524.596 375.091 524.404 375.091C524.241 375.091 524.081 375.128 523.923 375.202C523.77 375.271 523.62 375.372 523.472 375.505C523.324 375.638 523.176 375.799 523.028 375.986V381.484H520.69ZM536.636 381.025C536.33 381.222 535.96 381.39 535.526 381.528C535.092 381.666 534.604 381.735 534.061 381.735C533.035 381.735 532.273 381.474 531.775 380.951C531.277 380.423 531.028 379.708 531.028 378.805V375.239H529.378V373.626H531.028V371.924L533.366 371.643V373.626H535.896L535.667 375.239H533.366V378.805C533.366 379.195 533.454 379.474 533.632 379.641C533.81 379.809 534.093 379.893 534.483 379.893C534.759 379.893 535.011 379.861 535.238 379.797C535.469 379.728 535.677 379.641 535.859 379.538L536.636 381.025ZM543.238 373.626V379.885H545.235V381.484H538.672V379.885H540.899V375.224H538.746V373.626H543.238ZM541.824 369.512C542.229 369.512 542.559 369.638 542.816 369.889C543.072 370.141 543.201 370.454 543.201 370.829C543.201 371.204 543.072 371.52 542.816 371.776C542.559 372.028 542.229 372.154 541.824 372.154C541.415 372.154 541.079 372.028 540.818 371.776C540.562 371.52 540.433 371.204 540.433 370.829C540.433 370.454 540.562 370.141 540.818 369.889C541.079 369.638 541.415 369.512 541.824 369.512ZM553.923 379.22C553.923 379.516 553.963 379.73 554.042 379.863C554.126 379.996 554.259 380.098 554.441 380.167L553.96 381.706C553.497 381.661 553.104 381.56 552.784 381.402C552.468 381.239 552.219 380.995 552.037 380.67C551.736 381.03 551.351 381.299 550.882 381.476C550.414 381.649 549.935 381.735 549.447 381.735C548.638 381.735 547.992 381.506 547.508 381.047C547.03 380.583 546.791 379.989 546.791 379.264C546.791 378.411 547.124 377.752 547.79 377.288C548.46 376.825 549.403 376.593 550.616 376.593H551.674V376.297C551.674 375.888 551.541 375.584 551.274 375.387C551.013 375.19 550.628 375.091 550.12 375.091C549.869 375.091 549.546 375.128 549.151 375.202C548.756 375.271 548.362 375.372 547.967 375.505L547.427 373.951C547.935 373.759 548.463 373.614 549.01 373.515C549.563 373.416 550.056 373.367 550.49 373.367C551.659 373.367 552.522 373.606 553.08 374.085C553.642 374.558 553.923 375.244 553.923 376.142V379.22ZM550.253 380.063C550.505 380.063 550.769 379.989 551.045 379.841C551.321 379.688 551.531 379.474 551.674 379.197V377.925H551.097C550.446 377.925 549.967 378.026 549.661 378.228C549.356 378.425 549.203 378.716 549.203 379.101C549.203 379.402 549.294 379.639 549.476 379.811C549.664 379.979 549.923 380.063 550.253 380.063ZM563.159 372.368L563.706 374.085C563.43 374.193 563.107 374.272 562.737 374.321C562.367 374.371 561.936 374.395 561.442 374.395C561.936 374.608 562.31 374.871 562.567 375.187C562.828 375.498 562.959 375.907 562.959 376.415C562.959 376.923 562.823 377.377 562.552 377.777C562.281 378.171 561.896 378.482 561.398 378.709C560.9 378.936 560.31 379.049 559.63 379.049C559.462 379.049 559.304 379.042 559.156 379.027C559.008 379.012 558.862 378.99 558.719 378.961C558.636 379.005 558.571 379.069 558.527 379.153C558.483 379.237 558.46 379.323 558.46 379.412C558.46 379.535 558.51 379.646 558.608 379.745C558.712 379.844 558.951 379.893 559.326 379.893H560.614C561.225 379.893 561.753 379.992 562.197 380.189C562.646 380.386 562.994 380.655 563.24 380.995C563.487 381.336 563.61 381.725 563.61 382.164C563.61 382.968 563.257 383.602 562.552 384.066C561.847 384.53 560.799 384.761 559.408 384.761C558.401 384.761 557.622 384.658 557.069 384.451C556.522 384.248 556.14 383.957 555.923 383.578C555.711 383.203 555.604 382.756 555.604 382.238H557.676C557.676 382.465 557.721 382.65 557.809 382.793C557.903 382.941 558.078 383.05 558.335 383.119C558.596 383.188 558.973 383.222 559.467 383.222C559.965 383.222 560.345 383.183 560.606 383.104C560.868 383.025 561.045 382.917 561.139 382.778C561.238 382.645 561.287 382.495 561.287 382.327C561.287 382.095 561.196 381.908 561.013 381.765C560.831 381.622 560.542 381.55 560.147 381.55H558.897C558.049 381.55 557.432 381.395 557.047 381.084C556.663 380.768 556.47 380.401 556.47 379.982C556.47 379.691 556.547 379.414 556.7 379.153C556.857 378.892 557.077 378.672 557.358 378.494C556.855 378.228 556.495 377.915 556.278 377.555C556.061 377.19 555.952 376.753 555.952 376.245C555.952 375.653 556.103 375.145 556.404 374.721C556.704 374.292 557.119 373.961 557.647 373.729C558.179 373.498 558.786 373.382 559.467 373.382C560.054 373.392 560.564 373.352 560.998 373.263C561.432 373.17 561.822 373.044 562.167 372.886C562.513 372.723 562.843 372.551 563.159 372.368ZM559.526 374.899C559.156 374.899 558.862 375.017 558.645 375.254C558.428 375.486 558.32 375.806 558.32 376.216C558.32 376.65 558.431 376.983 558.653 377.214C558.875 377.446 559.166 377.562 559.526 377.562C559.916 377.562 560.212 377.446 560.414 377.214C560.621 376.983 560.725 376.64 560.725 376.186C560.725 375.747 560.623 375.424 560.421 375.217C560.219 375.005 559.921 374.899 559.526 374.899ZM568.458 373.367C569.267 373.367 569.955 373.54 570.522 373.885C571.09 374.23 571.524 374.716 571.825 375.342C572.126 375.964 572.276 376.694 572.276 377.533C572.276 378.406 572.123 379.158 571.817 379.789C571.516 380.416 571.082 380.897 570.515 381.232C569.948 381.567 569.262 381.735 568.458 381.735C567.659 381.735 566.973 381.57 566.401 381.239C565.834 380.909 565.397 380.431 565.092 379.804C564.791 379.178 564.64 378.425 564.64 377.547C564.64 376.714 564.791 375.984 565.092 375.357C565.397 374.731 565.834 374.242 566.401 373.892C566.973 373.542 567.659 373.367 568.458 373.367ZM568.458 375.091C567.98 375.091 567.625 375.288 567.393 375.683C567.166 376.073 567.052 376.694 567.052 377.547C567.052 378.416 567.166 379.044 567.393 379.434C567.625 379.824 567.98 380.019 568.458 380.019C568.937 380.019 569.289 379.824 569.516 379.434C569.748 379.044 569.864 378.411 569.864 377.533C569.864 376.684 569.748 376.065 569.516 375.675C569.289 375.286 568.937 375.091 568.458 375.091ZM587.795 374.573C587.795 374.208 587.726 373.907 587.588 373.67C587.455 373.429 587.25 373.251 586.974 373.138C586.702 373.019 586.36 372.96 585.945 372.96H585.117V376.312H586.071C586.431 376.312 586.739 376.25 586.996 376.127C587.252 376.003 587.45 375.814 587.588 375.557C587.726 375.301 587.795 374.973 587.795 374.573ZM590.296 374.566C590.296 375.36 590.126 376.016 589.785 376.534C589.445 377.052 588.969 377.439 588.357 377.695C587.746 377.947 587.035 378.073 586.226 378.073H585.117V381.484H582.69V371.229H585.916C587.307 371.229 588.384 371.505 589.149 372.057C589.914 372.61 590.296 373.446 590.296 374.566ZM595.077 373.367C595.886 373.367 596.574 373.54 597.142 373.885C597.709 374.23 598.143 374.716 598.444 375.342C598.745 375.964 598.895 376.694 598.895 377.533C598.895 378.406 598.742 379.158 598.436 379.789C598.135 380.416 597.701 380.897 597.134 381.232C596.567 381.567 595.881 381.735 595.077 381.735C594.278 381.735 593.592 381.57 593.02 381.239C592.453 380.909 592.016 380.431 591.711 379.804C591.41 379.178 591.259 378.425 591.259 377.547C591.259 376.714 591.41 375.984 591.711 375.357C592.016 374.731 592.453 374.242 593.02 373.892C593.592 373.542 594.278 373.367 595.077 373.367ZM595.077 375.091C594.599 375.091 594.244 375.288 594.012 375.683C593.785 376.073 593.671 376.694 593.671 377.547C593.671 378.416 593.785 379.044 594.012 379.434C594.244 379.824 594.599 380.019 595.077 380.019C595.556 380.019 595.908 379.824 596.135 379.434C596.367 379.044 596.483 378.411 596.483 377.533C596.483 376.684 596.367 376.065 596.135 375.675C595.908 375.286 595.556 375.091 595.077 375.091ZM600.621 381.484V379.915H601.656V375.18H600.621V373.626H603.44L603.869 375.394C604.15 374.718 604.508 374.215 604.942 373.885C605.381 373.554 605.916 373.389 606.547 373.389C606.814 373.389 607.05 373.411 607.258 373.456C607.465 373.495 607.66 373.552 607.842 373.626L607.132 375.557C606.989 375.518 606.846 375.488 606.703 375.468C606.56 375.449 606.402 375.439 606.229 375.439C605.716 375.439 605.265 375.648 604.875 376.068C604.49 376.487 604.197 377.02 603.995 377.666V379.915H605.548V381.484H600.621ZM605.941 376.911V374.617L606.288 373.626H607.842L607.406 376.911H605.941ZM616.493 381.025C616.187 381.222 615.817 381.39 615.383 381.528C614.949 381.666 614.461 381.735 613.918 381.735C612.892 381.735 612.13 381.474 611.632 380.951C611.134 380.423 610.885 379.708 610.885 378.805V375.239H609.235V373.626H610.885V371.924L613.223 371.643V373.626H615.753L615.524 375.239H613.223V378.805C613.223 379.195 613.312 379.474 613.489 379.641C613.667 379.809 613.95 379.893 614.34 379.893C614.616 379.893 614.868 379.861 615.095 379.797C615.327 379.728 615.534 379.641 615.716 379.538L616.493 381.025ZM623.095 373.626V379.885H625.092V381.484H618.529V379.885H620.757V375.224H618.603V373.626H623.095ZM621.681 369.512C622.086 369.512 622.416 369.638 622.673 369.889C622.929 370.141 623.058 370.454 623.058 370.829C623.058 371.204 622.929 371.52 622.673 371.776C622.416 372.028 622.086 372.154 621.681 372.154C621.272 372.154 620.937 372.028 620.675 371.776C620.419 371.52 620.29 371.204 620.29 370.829C620.29 370.454 620.419 370.141 620.675 369.889C620.937 369.638 621.272 369.512 621.681 369.512ZM631.265 370.504V379.012C631.265 379.328 631.354 379.555 631.531 379.693C631.714 379.826 631.963 379.893 632.278 379.893C632.481 379.893 632.675 379.871 632.863 379.826C633.05 379.777 633.225 379.72 633.388 379.656L633.951 381.217C633.684 381.355 633.364 381.476 632.989 381.58C632.614 381.683 632.177 381.735 631.679 381.735C630.732 381.735 630.036 381.464 629.593 380.921C629.149 380.374 628.927 379.641 628.927 378.724V372.102H626.611V370.504H631.265ZM640.138 370.504V379.012C640.138 379.328 640.227 379.555 640.404 379.693C640.587 379.826 640.836 379.893 641.151 379.893C641.354 379.893 641.548 379.871 641.736 379.826C641.923 379.777 642.098 379.72 642.261 379.656L642.824 381.217C642.557 381.355 642.237 381.476 641.862 381.58C641.487 381.683 641.05 381.735 640.552 381.735C639.605 381.735 638.91 381.464 638.466 380.921C638.022 380.374 637.8 379.641 637.8 378.724V372.102H635.484V370.504H640.138ZM651.526 379.22C651.526 379.516 651.566 379.73 651.645 379.863C651.729 379.996 651.862 380.098 652.044 380.167L651.563 381.706C651.1 381.661 650.708 381.56 650.387 381.402C650.071 381.239 649.822 380.995 649.64 380.67C649.339 381.03 648.954 381.299 648.485 381.476C648.017 381.649 647.538 381.735 647.05 381.735C646.241 381.735 645.595 381.506 645.111 381.047C644.633 380.583 644.394 379.989 644.394 379.264C644.394 378.411 644.727 377.752 645.393 377.288C646.063 376.825 647.006 376.593 648.219 376.593H649.277V376.297C649.277 375.888 649.144 375.584 648.878 375.387C648.616 375.19 648.231 375.091 647.723 375.091C647.472 375.091 647.149 375.128 646.754 375.202C646.359 375.271 645.965 375.372 645.57 375.505L645.03 373.951C645.538 373.759 646.066 373.614 646.613 373.515C647.166 373.416 647.659 373.367 648.093 373.367C649.262 373.367 650.126 373.606 650.683 374.085C651.245 374.558 651.526 375.244 651.526 376.142V379.22ZM647.856 380.063C648.108 380.063 648.372 379.989 648.648 379.841C648.924 379.688 649.134 379.474 649.277 379.197V377.925H648.7C648.049 377.925 647.57 378.026 647.265 378.228C646.959 378.425 646.806 378.716 646.806 379.101C646.806 379.402 646.897 379.639 647.08 379.811C647.267 379.979 647.526 380.063 647.856 380.063ZM653.984 377.762V375.942H660.392V377.762H653.984ZM669.665 371.229L670.242 381.484H668.126L668 377.096C667.99 376.687 667.985 376.322 667.985 376.001C667.99 375.68 667.997 375.379 668.007 375.098C668.017 374.812 668.032 374.526 668.052 374.24C668.076 373.949 668.101 373.633 668.126 373.293L666.971 379.737H665.136L663.893 373.293C663.923 373.619 663.948 373.927 663.967 374.218C663.992 374.504 664.009 374.792 664.019 375.084C664.029 375.375 664.036 375.688 664.041 376.023C664.046 376.354 664.044 376.724 664.034 377.133L663.96 381.484H661.881L662.458 371.229H664.951L666.091 377.858L667.171 371.229H669.665ZM678.145 379.22C678.145 379.516 678.185 379.73 678.264 379.863C678.348 379.996 678.481 380.098 678.663 380.167L678.182 381.706C677.719 381.661 677.327 381.56 677.006 381.402C676.69 381.239 676.441 380.995 676.259 380.67C675.958 381.03 675.573 381.299 675.104 381.476C674.636 381.649 674.157 381.735 673.669 381.735C672.86 381.735 672.214 381.506 671.731 381.047C671.252 380.583 671.013 379.989 671.013 379.264C671.013 378.411 671.346 377.752 672.012 377.288C672.683 376.825 673.625 376.593 674.838 376.593H675.896V376.297C675.896 375.888 675.763 375.584 675.497 375.387C675.235 375.19 674.85 375.091 674.342 375.091C674.091 375.091 673.768 375.128 673.373 375.202C672.978 375.271 672.584 375.372 672.189 375.505L671.649 373.951C672.157 373.759 672.685 373.614 673.233 373.515C673.785 373.416 674.278 373.367 674.712 373.367C675.881 373.367 676.745 373.606 677.302 374.085C677.864 374.558 678.145 375.244 678.145 376.142V379.22ZM674.476 380.063C674.727 380.063 674.991 379.989 675.267 379.841C675.543 379.688 675.753 379.474 675.896 379.197V377.925H675.319C674.668 377.925 674.189 378.026 673.884 378.228C673.578 378.425 673.425 378.716 673.425 379.101C673.425 379.402 673.516 379.639 673.699 379.811C673.886 379.979 674.145 380.063 674.476 380.063ZM680.478 381.484V379.915H681.514V375.18H680.478V373.626H683.297L683.726 375.394C684.007 374.718 684.365 374.215 684.799 373.885C685.238 373.554 685.773 373.389 686.404 373.389C686.671 373.389 686.907 373.411 687.115 373.456C687.322 373.495 687.517 373.552 687.699 373.626L686.989 375.557C686.846 375.518 686.703 375.488 686.56 375.468C686.417 375.449 686.259 375.439 686.086 375.439C685.573 375.439 685.122 375.648 684.732 376.068C684.347 376.487 684.054 377.02 683.852 377.666V379.915H685.405V381.484H680.478ZM685.798 376.911V374.617L686.145 373.626H687.699L687.263 376.911H685.798ZM696.35 381.025C696.044 381.222 695.674 381.39 695.24 381.528C694.806 381.666 694.318 381.735 693.775 381.735C692.749 381.735 691.987 381.474 691.489 380.951C690.991 380.423 690.742 379.708 690.742 378.805V375.239H689.092V373.626H690.742V371.924L693.08 371.643V373.626H695.61L695.381 375.239H693.08V378.805C693.08 379.195 693.169 379.474 693.346 379.641C693.524 379.809 693.807 379.893 694.197 379.893C694.473 379.893 694.725 379.861 694.952 379.797C695.184 379.728 695.391 379.641 695.573 379.538L696.35 381.025ZM702.952 373.626V379.885H704.949V381.484H698.387V379.885H700.614V375.224H698.461V373.626H702.952ZM702.663 369.127L703.573 370.888L700.081 372.272L699.437 371.088L702.663 369.127ZM707.023 381.484V373.626H709.065L709.228 374.536C709.578 374.141 709.948 373.848 710.338 373.656C710.727 373.463 711.171 373.367 711.669 373.367C712.34 373.367 712.868 373.572 713.253 373.981C713.637 374.39 713.83 374.968 713.83 375.712V381.484H711.492V376.386C711.492 376.065 711.47 375.811 711.425 375.624C711.381 375.431 711.302 375.296 711.188 375.217C711.08 375.133 710.929 375.091 710.737 375.091C710.574 375.091 710.414 375.128 710.256 375.202C710.103 375.271 709.953 375.372 709.805 375.505C709.657 375.638 709.509 375.799 709.361 375.986V381.484H707.023ZM717.923 378.235C717.977 378.665 718.088 379.012 718.256 379.279C718.429 379.54 718.648 379.733 718.915 379.856C719.181 379.974 719.479 380.033 719.81 380.033C720.17 380.033 720.518 379.974 720.853 379.856C721.189 379.737 721.512 379.58 721.822 379.382L722.762 380.655C722.392 380.971 721.943 381.23 721.415 381.432C720.893 381.634 720.296 381.735 719.625 381.735C718.727 381.735 717.975 381.558 717.368 381.202C716.761 380.842 716.305 380.349 715.999 379.723C715.694 379.096 715.541 378.376 715.541 377.562C715.541 376.788 715.689 376.085 715.985 375.453C716.281 374.817 716.712 374.312 717.279 373.937C717.852 373.557 718.55 373.367 719.373 373.367C720.123 373.367 720.772 373.527 721.319 373.848C721.872 374.169 722.298 374.63 722.599 375.231C722.905 375.833 723.058 376.556 723.058 377.399C723.058 377.533 723.053 377.676 723.043 377.829C723.038 377.981 723.028 378.117 723.014 378.235H717.923ZM719.373 374.936C718.954 374.936 718.616 375.086 718.36 375.387C718.103 375.688 717.948 376.169 717.894 376.83H720.779C720.774 376.257 720.663 375.799 720.446 375.453C720.229 375.108 719.872 374.936 719.373 374.936ZM727.558 379.715H731.494L731.272 381.484H724.798V379.834L728.698 375.387H725.124V373.626H731.42V375.268L727.558 379.715ZM746.673 368.165V385.923H745.164V368.165H746.673ZM763.442 371.066C764.182 371.066 764.814 371.174 765.337 371.391C765.859 371.604 766.291 371.902 766.631 372.287C766.977 372.667 767.245 373.115 767.438 373.633C767.63 374.151 767.766 374.714 767.845 375.32C767.924 375.927 767.963 376.556 767.963 377.207C767.963 378.45 767.904 379.491 767.786 380.329C767.667 381.163 767.445 381.789 767.12 382.209C766.799 382.633 766.335 382.845 765.729 382.845C765.433 382.845 765.174 382.778 764.952 382.645C764.735 382.512 764.555 382.339 764.412 382.127C764.274 381.92 764.168 381.696 764.094 381.454C764.024 381.207 763.985 380.976 763.975 380.759H763.916C763.817 380.995 763.682 381.222 763.509 381.439C763.336 381.656 763.117 381.834 762.85 381.972C762.584 382.11 762.259 382.179 761.874 382.179C761.321 382.179 760.877 382.031 760.542 381.735C760.207 381.444 759.962 381.042 759.809 380.529C759.657 380.016 759.58 379.437 759.58 378.79C759.58 377.533 759.837 376.573 760.35 375.912C760.863 375.246 761.605 374.913 762.577 374.913C762.942 374.913 763.302 374.958 763.657 375.047C764.017 375.13 764.404 375.283 764.819 375.505V379.9C764.819 380.369 764.856 380.731 764.93 380.988C765.004 381.244 765.105 381.422 765.233 381.521C765.366 381.619 765.517 381.669 765.684 381.669C765.882 381.669 766.035 381.567 766.143 381.365C766.256 381.163 766.338 380.872 766.387 380.492C766.437 380.107 766.466 379.644 766.476 379.101C766.486 378.559 766.491 377.947 766.491 377.266C766.491 376.536 766.449 375.868 766.365 375.261C766.286 374.649 766.136 374.122 765.914 373.678C765.697 373.234 765.386 372.891 764.981 372.649C764.577 372.408 764.052 372.287 763.405 372.287C762.907 372.287 762.382 372.38 761.829 372.568C761.282 372.755 760.705 373.115 760.098 373.648L759.299 372.723C759.97 372.141 760.648 371.719 761.334 371.458C762.024 371.197 762.727 371.066 763.442 371.066ZM762.599 376.038C762.032 376.038 761.644 376.26 761.437 376.704C761.23 377.143 761.127 377.838 761.127 378.79C761.127 379.264 761.156 379.668 761.215 380.004C761.274 380.339 761.378 380.596 761.526 380.773C761.674 380.951 761.874 381.04 762.125 381.04C762.426 381.04 762.661 380.971 762.828 380.833C762.996 380.694 763.122 380.532 763.206 380.344C763.289 380.152 763.354 379.984 763.398 379.841V376.23C763.265 376.161 763.137 376.112 763.013 376.082C762.89 376.053 762.752 376.038 762.599 376.038ZM775.896 371.229V377.792C775.896 378.388 775.805 378.929 775.623 379.412C775.44 379.895 775.171 380.307 774.816 380.648C774.466 380.988 774.034 381.249 773.521 381.432C773.013 381.614 772.431 381.706 771.775 381.706C771.114 381.706 770.542 381.622 770.059 381.454C769.58 381.281 769.119 381.045 768.675 380.744L769.6 379.249C769.95 379.491 770.278 379.661 770.584 379.76C770.89 379.853 771.238 379.9 771.627 379.9C772.155 379.9 772.594 379.733 772.944 379.397C773.299 379.057 773.477 378.531 773.477 377.821V373.004H770.325V371.229H775.896ZM781.41 373.367C782.219 373.367 782.907 373.54 783.475 373.885C784.042 374.23 784.476 374.716 784.777 375.342C785.078 375.964 785.228 376.694 785.228 377.533C785.228 378.406 785.075 379.158 784.77 379.789C784.469 380.416 784.035 380.897 783.467 381.232C782.9 381.567 782.214 381.735 781.41 381.735C780.611 381.735 779.926 381.57 779.353 381.239C778.786 380.909 778.35 380.431 778.044 379.804C777.743 379.178 777.592 378.425 777.592 377.547C777.592 376.714 777.743 375.984 778.044 375.357C778.35 374.731 778.786 374.242 779.353 373.892C779.926 373.542 780.611 373.367 781.41 373.367ZM781.41 375.091C780.932 375.091 780.577 375.288 780.345 375.683C780.118 376.073 780.005 376.694 780.005 377.547C780.005 378.416 780.118 379.044 780.345 379.434C780.577 379.824 780.932 380.019 781.41 380.019C781.889 380.019 782.242 379.824 782.468 379.434C782.7 379.044 782.816 378.411 782.816 377.533C782.816 376.684 782.7 376.065 782.468 375.675C782.242 375.286 781.889 375.091 781.41 375.091ZM788.907 378.235C788.961 378.665 789.072 379.012 789.24 379.279C789.413 379.54 789.632 379.733 789.899 379.856C790.165 379.974 790.463 380.033 790.794 380.033C791.154 380.033 791.502 379.974 791.837 379.856C792.173 379.737 792.496 379.58 792.806 379.382L793.746 380.655C793.376 380.971 792.927 381.23 792.4 381.432C791.877 381.634 791.28 381.735 790.609 381.735C789.711 381.735 788.959 381.558 788.352 381.202C787.746 380.842 787.289 380.349 786.983 379.723C786.678 379.096 786.525 378.376 786.525 377.562C786.525 376.788 786.673 376.085 786.969 375.453C787.265 374.817 787.696 374.312 788.263 373.937C788.836 373.557 789.534 373.367 790.357 373.367C791.107 373.367 791.756 373.527 792.303 373.848C792.856 374.169 793.282 374.63 793.583 375.231C793.889 375.833 794.042 376.556 794.042 377.399C794.042 377.533 794.037 377.676 794.027 377.829C794.022 377.981 794.012 378.117 793.998 378.235H788.907ZM790.357 374.936C789.938 374.936 789.6 375.086 789.344 375.387C789.087 375.688 788.932 376.169 788.878 376.83H791.763C791.758 376.257 791.647 375.799 791.43 375.453C791.213 375.108 790.856 374.936 790.357 374.936ZM800.747 374.573C800.747 374.208 800.678 373.907 800.54 373.67C800.407 373.429 800.202 373.251 799.926 373.138C799.655 373.019 799.312 372.96 798.897 372.96H798.069V376.312H799.023C799.383 376.312 799.692 376.25 799.948 376.127C800.205 376.003 800.402 375.814 800.54 375.557C800.678 375.301 800.747 374.973 800.747 374.573ZM803.248 374.566C803.248 375.36 803.078 376.016 802.738 376.534C802.397 377.052 801.921 377.439 801.31 377.695C800.698 377.947 799.988 378.073 799.179 378.073H798.069V381.484H795.642V371.229H798.868C800.259 371.229 801.337 371.505 802.101 372.057C802.866 372.61 803.248 373.446 803.248 374.566ZM808.029 373.367C808.838 373.367 809.526 373.54 810.094 373.885C810.661 374.23 811.095 374.716 811.396 375.342C811.697 375.964 811.847 376.694 811.847 377.533C811.847 378.406 811.694 379.158 811.389 379.789C811.088 380.416 810.654 380.897 810.086 381.232C809.519 381.567 808.833 381.735 808.029 381.735C807.23 381.735 806.545 381.57 805.973 381.239C805.405 380.909 804.969 380.431 804.663 379.804C804.362 379.178 804.212 378.425 804.212 377.547C804.212 376.714 804.362 375.984 804.663 375.357C804.969 374.731 805.405 374.242 805.973 373.892C806.545 373.542 807.23 373.367 808.029 373.367ZM808.029 375.091C807.551 375.091 807.196 375.288 806.964 375.683C806.737 376.073 806.624 376.694 806.624 377.547C806.624 378.416 806.737 379.044 806.964 379.434C807.196 379.824 807.551 380.019 808.029 380.019C808.508 380.019 808.861 379.824 809.087 379.434C809.319 379.044 809.435 378.411 809.435 377.533C809.435 376.684 809.319 376.065 809.087 375.675C808.861 375.286 808.508 375.091 808.029 375.091ZM813.573 381.484V379.915H814.609V375.18H813.573V373.626H816.392L816.821 375.394C817.102 374.718 817.46 374.215 817.894 373.885C818.333 373.554 818.868 373.389 819.499 373.389C819.766 373.389 820.003 373.411 820.21 373.456C820.417 373.495 820.612 373.552 820.794 373.626L820.084 375.557C819.941 375.518 819.798 375.488 819.655 375.468C819.512 375.449 819.354 375.439 819.181 375.439C818.668 375.439 818.217 375.648 817.827 376.068C817.443 376.487 817.149 377.02 816.947 377.666V379.915H818.501V381.484H813.573ZM818.893 376.911V374.617L819.24 373.626H820.794L820.358 376.911H818.893ZM829.445 381.025C829.139 381.222 828.77 381.39 828.335 381.528C827.901 381.666 827.413 381.735 826.87 381.735C825.844 381.735 825.082 381.474 824.584 380.951C824.086 380.423 823.837 379.708 823.837 378.805V375.239H822.187V373.626H823.837V371.924L826.175 371.643V373.626H828.705L828.476 375.239H826.175V378.805C826.175 379.195 826.264 379.474 826.441 379.641C826.619 379.809 826.903 379.893 827.292 379.893C827.568 379.893 827.82 379.861 828.047 379.797C828.279 379.728 828.486 379.641 828.668 379.538L829.445 381.025ZM836.047 373.626V379.885H838.045V381.484H831.482V379.885H833.709V375.224H831.556V373.626H836.047ZM834.634 369.512C835.038 369.512 835.369 369.638 835.625 369.889C835.882 370.141 836.01 370.454 836.01 370.829C836.01 371.204 835.882 371.52 835.625 371.776C835.369 372.028 835.038 372.154 834.634 372.154C834.224 372.154 833.889 372.028 833.627 371.776C833.371 371.52 833.243 371.204 833.243 370.829C833.243 370.454 833.371 370.141 833.627 369.889C833.889 369.638 834.224 369.512 834.634 369.512ZM844.217 370.504V379.012C844.217 379.328 844.306 379.555 844.483 379.693C844.666 379.826 844.915 379.893 845.231 379.893C845.433 379.893 845.628 379.871 845.815 379.826C846.003 379.777 846.178 379.72 846.34 379.656L846.903 381.217C846.636 381.355 846.316 381.476 845.941 381.58C845.566 381.683 845.13 381.735 844.631 381.735C843.684 381.735 842.989 381.464 842.545 380.921C842.101 380.374 841.879 379.641 841.879 378.724V372.102H839.563V370.504H844.217ZM853.09 370.504V379.012C853.09 379.328 853.179 379.555 853.356 379.693C853.539 379.826 853.788 379.893 854.104 379.893C854.306 379.893 854.501 379.871 854.688 379.826C854.876 379.777 855.051 379.72 855.213 379.656L855.776 381.217C855.509 381.355 855.189 381.476 854.814 381.58C854.439 381.683 854.002 381.735 853.504 381.735C852.557 381.735 851.862 381.464 851.418 380.921C850.974 380.374 850.752 379.641 850.752 378.724V372.102H848.436V370.504H853.09ZM864.479 379.22C864.479 379.516 864.518 379.73 864.597 379.863C864.681 379.996 864.814 380.098 864.997 380.167L864.516 381.706C864.052 381.661 863.66 381.56 863.339 381.402C863.023 381.239 862.774 380.995 862.592 380.67C862.291 381.03 861.906 381.299 861.438 381.476C860.969 381.649 860.491 381.735 860.002 381.735C859.193 381.735 858.547 381.506 858.064 381.047C857.585 380.583 857.346 379.989 857.346 379.264C857.346 378.411 857.679 377.752 858.345 377.288C859.016 376.825 859.958 376.593 861.171 376.593H862.229V376.297C862.229 375.888 862.096 375.584 861.83 375.387C861.568 375.19 861.184 375.091 860.676 375.091C860.424 375.091 860.101 375.128 859.706 375.202C859.312 375.271 858.917 375.372 858.522 375.505L857.982 373.951C858.49 373.759 859.018 373.614 859.566 373.515C860.118 373.416 860.611 373.367 861.045 373.367C862.215 373.367 863.078 373.606 863.635 374.085C864.197 374.558 864.479 375.244 864.479 376.142V379.22ZM860.809 380.063C861.06 380.063 861.324 379.989 861.6 379.841C861.877 379.688 862.086 379.474 862.229 379.197V377.925H861.652C861.001 377.925 860.523 378.026 860.217 378.228C859.911 378.425 859.758 378.716 859.758 379.101C859.758 379.402 859.849 379.639 860.032 379.811C860.219 379.979 860.478 380.063 860.809 380.063Z" fill="black"/>
<path d="M593.615 114.294C595.103 113.487 596.897 113.487 598.385 114.294L669.902 153.105C673.389 154.998 673.389 160.002 669.902 161.895L598.385 200.706C596.897 201.513 595.103 201.513 593.615 200.706L522.098 161.895C518.611 160.002 518.611 154.998 522.098 153.105L593.615 114.294Z" fill="#8E0000"/>
<circle cx="596" cy="324" r="16" fill="#C5CDFF"/>
<circle cx="596" cy="29" r="16" fill="#C5CDFF"/>
<path d="M556.341 155H550.585V145.006H556.341V146.742H552.704V148.937H556.088V150.673H552.704V153.25H556.341V155ZM560.087 155L557.175 147.357H559.355L560.832 151.712C560.914 151.967 560.978 152.236 561.023 152.519C561.074 152.801 561.108 153.054 561.126 153.277H561.181C561.194 153.036 561.226 152.778 561.276 152.505C561.331 152.231 561.402 151.967 561.488 151.712L562.958 147.357H565.139L562.227 155H560.087ZM569.37 147.2C570.396 147.2 571.182 147.424 571.729 147.87C572.275 148.317 572.549 148.996 572.549 149.907V155H571.093L570.689 153.961H570.635C570.416 154.234 570.193 154.458 569.965 154.631C569.737 154.804 569.475 154.932 569.179 155.014C568.882 155.096 568.522 155.137 568.099 155.137C567.647 155.137 567.242 155.05 566.882 154.877C566.526 154.704 566.246 154.439 566.041 154.084C565.836 153.724 565.733 153.268 565.733 152.717C565.733 151.906 566.018 151.309 566.588 150.926C567.158 150.538 568.012 150.324 569.151 150.283L570.478 150.242V149.907C570.478 149.506 570.373 149.212 570.163 149.025C569.953 148.839 569.662 148.745 569.288 148.745C568.919 148.745 568.557 148.798 568.201 148.902C567.846 149.007 567.49 149.139 567.135 149.299L566.444 147.891C566.85 147.676 567.303 147.508 567.805 147.385C568.311 147.262 568.832 147.2 569.37 147.2ZM570.478 151.459L569.671 151.486C568.996 151.505 568.527 151.625 568.263 151.849C568.003 152.072 567.873 152.366 567.873 152.73C567.873 153.049 567.966 153.277 568.153 153.414C568.34 153.546 568.584 153.612 568.885 153.612C569.331 153.612 569.707 153.48 570.013 153.216C570.323 152.951 570.478 152.576 570.478 152.088V151.459ZM576.787 155H574.702V144.363H576.787V155ZM585.995 147.357V155H584.396L584.115 154.022H584.006C583.842 154.282 583.637 154.494 583.391 154.658C583.145 154.822 582.873 154.943 582.577 155.021C582.281 155.098 581.973 155.137 581.654 155.137C581.107 155.137 580.631 155.041 580.226 154.85C579.82 154.654 579.503 154.351 579.275 153.94C579.052 153.53 578.94 152.997 578.94 152.341V147.357H581.025V151.821C581.025 152.368 581.123 152.781 581.319 153.059C581.515 153.337 581.827 153.476 582.256 153.476C582.68 153.476 583.012 153.38 583.254 153.188C583.495 152.993 583.664 152.708 583.76 152.334C583.86 151.956 583.91 151.495 583.91 150.953V147.357H585.995ZM591.313 147.2C592.339 147.2 593.125 147.424 593.672 147.87C594.219 148.317 594.492 148.996 594.492 149.907V155H593.036L592.633 153.961H592.578C592.359 154.234 592.136 154.458 591.908 154.631C591.68 154.804 591.418 154.932 591.122 155.014C590.826 155.096 590.466 155.137 590.042 155.137C589.591 155.137 589.185 155.05 588.825 154.877C588.47 154.704 588.189 154.439 587.984 154.084C587.779 153.724 587.677 153.268 587.677 152.717C587.677 151.906 587.962 151.309 588.531 150.926C589.101 150.538 589.955 150.324 591.095 150.283L592.421 150.242V149.907C592.421 149.506 592.316 149.212 592.106 149.025C591.897 148.839 591.605 148.745 591.231 148.745C590.862 148.745 590.5 148.798 590.145 148.902C589.789 149.007 589.434 149.139 589.078 149.299L588.388 147.891C588.793 147.676 589.247 147.508 589.748 147.385C590.254 147.262 590.776 147.2 591.313 147.2ZM592.421 151.459L591.614 151.486C590.94 151.505 590.47 151.625 590.206 151.849C589.946 152.072 589.816 152.366 589.816 152.73C589.816 153.049 589.91 153.277 590.097 153.414C590.284 153.546 590.527 153.612 590.828 153.612C591.275 153.612 591.651 153.48 591.956 153.216C592.266 152.951 592.421 152.576 592.421 152.088V151.459ZM599.749 155.137C598.993 155.137 598.348 155 597.814 154.727C597.281 154.449 596.876 154.02 596.598 153.441C596.32 152.863 596.181 152.122 596.181 151.22C596.181 150.285 596.338 149.524 596.652 148.937C596.971 148.344 597.411 147.909 597.972 147.631C598.537 147.353 599.191 147.214 599.934 147.214C600.462 147.214 600.918 147.266 601.301 147.371C601.688 147.471 602.025 147.592 602.312 147.733L601.697 149.347C601.369 149.215 601.064 149.107 600.781 149.025C600.499 148.939 600.216 148.896 599.934 148.896C599.569 148.896 599.266 148.982 599.024 149.155C598.783 149.324 598.603 149.579 598.484 149.921C598.366 150.263 598.307 150.691 598.307 151.206C598.307 151.712 598.37 152.131 598.498 152.464C598.626 152.797 598.81 153.045 599.052 153.209C599.293 153.368 599.587 153.448 599.934 153.448C600.367 153.448 600.752 153.391 601.089 153.277C601.426 153.159 601.754 152.995 602.073 152.785V154.569C601.754 154.77 601.419 154.913 601.068 155C600.722 155.091 600.282 155.137 599.749 155.137ZM605.936 147.357V155H603.851V147.357H605.936ZM604.896 144.363C605.206 144.363 605.473 144.436 605.696 144.582C605.92 144.723 606.031 144.99 606.031 145.382C606.031 145.769 605.92 146.038 605.696 146.188C605.473 146.334 605.206 146.407 604.896 146.407C604.582 146.407 604.313 146.334 604.09 146.188C603.871 146.038 603.762 145.769 603.762 145.382C603.762 144.99 603.871 144.723 604.09 144.582C604.313 144.436 604.582 144.363 604.896 144.363ZM615.075 151.165C615.075 151.803 614.989 152.368 614.815 152.86C614.647 153.353 614.398 153.77 614.07 154.111C613.747 154.449 613.355 154.704 612.895 154.877C612.439 155.05 611.924 155.137 611.35 155.137C610.812 155.137 610.317 155.05 609.866 154.877C609.42 154.704 609.03 154.449 608.697 154.111C608.369 153.77 608.114 153.353 607.932 152.86C607.754 152.368 607.665 151.803 607.665 151.165C607.665 150.317 607.815 149.6 608.116 149.012C608.417 148.424 608.845 147.977 609.401 147.672C609.957 147.367 610.62 147.214 611.391 147.214C612.106 147.214 612.74 147.367 613.291 147.672C613.847 147.977 614.282 148.424 614.597 149.012C614.916 149.6 615.075 150.317 615.075 151.165ZM609.791 151.165C609.791 151.666 609.846 152.088 609.955 152.43C610.064 152.771 610.235 153.029 610.468 153.202C610.7 153.375 611.003 153.462 611.377 153.462C611.746 153.462 612.045 153.375 612.272 153.202C612.505 153.029 612.674 152.771 612.778 152.43C612.888 152.088 612.942 151.666 612.942 151.165C612.942 150.659 612.888 150.24 612.778 149.907C612.674 149.57 612.505 149.317 612.272 149.148C612.04 148.98 611.737 148.896 611.363 148.896C610.812 148.896 610.411 149.085 610.16 149.463C609.914 149.841 609.791 150.409 609.791 151.165ZM614.063 144.274V144.418C613.931 144.546 613.758 144.703 613.544 144.89C613.33 145.076 613.1 145.272 612.854 145.478C612.607 145.678 612.366 145.872 612.129 146.059C611.892 146.241 611.685 146.394 611.507 146.517H610.119V146.332C610.27 146.159 610.443 145.954 610.639 145.717C610.839 145.475 611.037 145.227 611.233 144.972C611.429 144.716 611.593 144.484 611.726 144.274H614.063ZM621.139 147.214C621.954 147.214 622.611 147.437 623.107 147.884C623.604 148.326 623.853 149.037 623.853 150.017V155H621.768V150.536C621.768 149.989 621.667 149.577 621.467 149.299C621.271 149.021 620.961 148.882 620.537 148.882C619.899 148.882 619.464 149.098 619.231 149.531C618.999 149.964 618.883 150.589 618.883 151.404V155H616.798V147.357H618.391L618.671 148.335H618.787C618.951 148.071 619.154 147.856 619.396 147.692C619.642 147.528 619.913 147.408 620.209 147.33C620.51 147.253 620.82 147.214 621.139 147.214ZM632.056 155.137C631.203 155.137 630.508 154.804 629.971 154.139C629.438 153.469 629.171 152.487 629.171 151.192C629.171 149.884 629.442 148.896 629.984 148.226C630.527 147.551 631.235 147.214 632.11 147.214C632.475 147.214 632.796 147.264 633.074 147.364C633.352 147.465 633.591 147.599 633.792 147.768C633.997 147.936 634.17 148.125 634.312 148.335H634.38C634.353 148.189 634.318 147.975 634.277 147.692C634.241 147.405 634.223 147.111 634.223 146.811V144.363H636.314V155H634.715L634.312 154.009H634.223C634.09 154.218 633.924 154.41 633.724 154.583C633.528 154.752 633.293 154.886 633.02 154.986C632.746 155.087 632.425 155.137 632.056 155.137ZM632.787 153.476C633.357 153.476 633.758 153.307 633.99 152.97C634.227 152.628 634.353 152.115 634.366 151.432V151.206C634.366 150.463 634.252 149.896 634.024 149.504C633.797 149.107 633.373 148.909 632.753 148.909C632.293 148.909 631.933 149.107 631.673 149.504C631.413 149.9 631.283 150.472 631.283 151.22C631.283 151.967 631.413 152.53 631.673 152.908C631.937 153.286 632.309 153.476 632.787 153.476ZM641.646 147.214C642.353 147.214 642.961 147.351 643.472 147.624C643.982 147.893 644.376 148.285 644.654 148.8C644.932 149.315 645.071 149.944 645.071 150.687V151.698H640.143C640.165 152.286 640.341 152.749 640.669 153.086C641.002 153.419 641.462 153.585 642.05 153.585C642.537 153.585 642.984 153.535 643.39 153.435C643.795 153.334 644.212 153.184 644.641 152.983V154.597C644.262 154.784 643.866 154.92 643.451 155.007C643.041 155.093 642.542 155.137 641.954 155.137C641.188 155.137 640.509 154.995 639.917 154.713C639.329 154.43 638.867 154 638.529 153.421C638.197 152.842 638.03 152.113 638.03 151.233C638.03 150.34 638.181 149.597 638.481 149.005C638.787 148.408 639.211 147.961 639.753 147.665C640.295 147.364 640.926 147.214 641.646 147.214ZM641.66 148.697C641.255 148.697 640.917 148.827 640.648 149.087C640.384 149.347 640.231 149.755 640.19 150.311H643.116C643.112 150.001 643.055 149.725 642.945 149.483C642.84 149.242 642.681 149.05 642.467 148.909C642.257 148.768 641.988 148.697 641.66 148.697ZM568.358 165.626C567.953 165.626 567.593 165.706 567.278 165.865C566.968 166.02 566.706 166.246 566.492 166.542C566.283 166.838 566.123 167.196 566.014 167.615C565.904 168.035 565.85 168.506 565.85 169.03C565.85 169.737 565.936 170.34 566.109 170.842C566.287 171.339 566.561 171.719 566.93 171.983C567.299 172.243 567.775 172.373 568.358 172.373C568.764 172.373 569.17 172.327 569.575 172.236C569.985 172.145 570.43 172.015 570.908 171.847V173.624C570.466 173.806 570.031 173.936 569.603 174.014C569.174 174.096 568.693 174.137 568.16 174.137C567.13 174.137 566.283 173.925 565.617 173.501C564.956 173.073 564.466 172.476 564.147 171.71C563.828 170.94 563.669 170.042 563.669 169.017C563.669 168.26 563.771 167.567 563.977 166.938C564.182 166.31 564.482 165.765 564.879 165.305C565.275 164.844 565.765 164.489 566.349 164.238C566.932 163.988 567.602 163.862 568.358 163.862C568.855 163.862 569.352 163.926 569.849 164.054C570.35 164.177 570.828 164.348 571.284 164.566L570.601 166.289C570.227 166.111 569.851 165.956 569.473 165.824C569.094 165.692 568.723 165.626 568.358 165.626ZM579.822 170.165C579.822 170.803 579.736 171.368 579.562 171.86C579.394 172.353 579.146 172.77 578.817 173.111C578.494 173.449 578.102 173.704 577.642 173.877C577.186 174.05 576.671 174.137 576.097 174.137C575.559 174.137 575.064 174.05 574.613 173.877C574.167 173.704 573.777 173.449 573.444 173.111C573.116 172.77 572.861 172.353 572.679 171.86C572.501 171.368 572.412 170.803 572.412 170.165C572.412 169.317 572.562 168.6 572.863 168.012C573.164 167.424 573.592 166.977 574.148 166.672C574.704 166.367 575.368 166.214 576.138 166.214C576.853 166.214 577.487 166.367 578.038 166.672C578.594 166.977 579.029 167.424 579.344 168.012C579.663 168.6 579.822 169.317 579.822 170.165ZM574.538 170.165C574.538 170.666 574.593 171.088 574.702 171.43C574.812 171.771 574.982 172.029 575.215 172.202C575.447 172.375 575.75 172.462 576.124 172.462C576.493 172.462 576.792 172.375 577.02 172.202C577.252 172.029 577.421 171.771 577.525 171.43C577.635 171.088 577.689 170.666 577.689 170.165C577.689 169.659 577.635 169.24 577.525 168.907C577.421 168.57 577.252 168.317 577.02 168.148C576.787 167.98 576.484 167.896 576.11 167.896C575.559 167.896 575.158 168.085 574.907 168.463C574.661 168.841 574.538 169.409 574.538 170.165ZM585.886 166.214C586.701 166.214 587.358 166.437 587.854 166.884C588.351 167.326 588.6 168.037 588.6 169.017V174H586.515V169.536C586.515 168.989 586.414 168.577 586.214 168.299C586.018 168.021 585.708 167.882 585.284 167.882C584.646 167.882 584.211 168.098 583.979 168.531C583.746 168.964 583.63 169.589 583.63 170.404V174H581.545V166.357H583.138L583.418 167.335H583.534C583.698 167.071 583.901 166.856 584.143 166.692C584.389 166.528 584.66 166.408 584.956 166.33C585.257 166.253 585.567 166.214 585.886 166.214ZM593.166 174.137C592.314 174.137 591.619 173.804 591.081 173.139C590.548 172.469 590.281 171.487 590.281 170.192C590.281 168.884 590.552 167.896 591.095 167.226C591.637 166.551 592.346 166.214 593.221 166.214C593.585 166.214 593.907 166.264 594.185 166.364C594.463 166.465 594.702 166.599 594.902 166.768C595.107 166.936 595.281 167.125 595.422 167.335H595.49C595.463 167.189 595.429 166.975 595.388 166.692C595.351 166.405 595.333 166.111 595.333 165.811V163.363H597.425V174H595.825L595.422 173.009H595.333C595.201 173.218 595.035 173.41 594.834 173.583C594.638 173.752 594.403 173.886 594.13 173.986C593.856 174.087 593.535 174.137 593.166 174.137ZM593.897 172.476C594.467 172.476 594.868 172.307 595.101 171.97C595.338 171.628 595.463 171.115 595.477 170.432V170.206C595.477 169.463 595.363 168.896 595.135 168.504C594.907 168.107 594.483 167.909 593.863 167.909C593.403 167.909 593.043 168.107 592.783 168.504C592.523 168.9 592.394 169.472 592.394 170.22C592.394 170.967 592.523 171.53 592.783 171.908C593.048 172.286 593.419 172.476 593.897 172.476ZM601.69 166.357V174H599.605V166.357H601.69ZM600.651 163.363C600.961 163.363 601.228 163.436 601.451 163.582C601.674 163.723 601.786 163.99 601.786 164.382C601.786 164.769 601.674 165.038 601.451 165.188C601.228 165.334 600.961 165.407 600.651 165.407C600.337 165.407 600.068 165.334 599.845 165.188C599.626 165.038 599.517 164.769 599.517 164.382C599.517 163.99 599.626 163.723 599.845 163.582C600.068 163.436 600.337 163.363 600.651 163.363ZM606.988 174.137C606.232 174.137 605.587 174 605.054 173.727C604.521 173.449 604.115 173.02 603.837 172.441C603.559 171.863 603.42 171.122 603.42 170.22C603.42 169.285 603.577 168.524 603.892 167.937C604.211 167.344 604.65 166.909 605.211 166.631C605.776 166.353 606.43 166.214 607.173 166.214C607.701 166.214 608.157 166.266 608.54 166.371C608.927 166.471 609.265 166.592 609.552 166.733L608.937 168.347C608.608 168.215 608.303 168.107 608.021 168.025C607.738 167.939 607.455 167.896 607.173 167.896C606.808 167.896 606.505 167.982 606.264 168.155C606.022 168.324 605.842 168.579 605.724 168.921C605.605 169.263 605.546 169.691 605.546 170.206C605.546 170.712 605.61 171.131 605.737 171.464C605.865 171.797 606.049 172.045 606.291 172.209C606.533 172.368 606.826 172.448 607.173 172.448C607.606 172.448 607.991 172.391 608.328 172.277C608.665 172.159 608.993 171.995 609.312 171.785V173.569C608.993 173.77 608.659 173.913 608.308 174C607.961 174.091 607.521 174.137 606.988 174.137ZM613.175 166.357V174H611.09V166.357H613.175ZM612.136 163.363C612.446 163.363 612.712 163.436 612.936 163.582C613.159 163.723 613.271 163.99 613.271 164.382C613.271 164.769 613.159 165.038 612.936 165.188C612.712 165.334 612.446 165.407 612.136 165.407C611.821 165.407 611.552 165.334 611.329 165.188C611.11 165.038 611.001 164.769 611.001 164.382C611.001 163.99 611.11 163.723 611.329 163.582C611.552 163.436 611.821 163.363 612.136 163.363ZM622.314 170.165C622.314 170.803 622.228 171.368 622.055 171.86C621.886 172.353 621.638 172.77 621.31 173.111C620.986 173.449 620.594 173.704 620.134 173.877C619.678 174.05 619.163 174.137 618.589 174.137C618.051 174.137 617.557 174.05 617.105 173.877C616.659 173.704 616.269 173.449 615.937 173.111C615.608 172.77 615.353 172.353 615.171 171.86C614.993 171.368 614.904 170.803 614.904 170.165C614.904 169.317 615.055 168.6 615.355 168.012C615.656 167.424 616.085 166.977 616.641 166.672C617.197 166.367 617.86 166.214 618.63 166.214C619.345 166.214 619.979 166.367 620.53 166.672C621.086 166.977 621.521 167.424 621.836 168.012C622.155 168.6 622.314 169.317 622.314 170.165ZM617.03 170.165C617.03 170.666 617.085 171.088 617.194 171.43C617.304 171.771 617.475 172.029 617.707 172.202C617.939 172.375 618.243 172.462 618.616 172.462C618.985 172.462 619.284 172.375 619.512 172.202C619.744 172.029 619.913 171.771 620.018 171.43C620.127 171.088 620.182 170.666 620.182 170.165C620.182 169.659 620.127 169.24 620.018 168.907C619.913 168.57 619.744 168.317 619.512 168.148C619.279 167.98 618.976 167.896 618.603 167.896C618.051 167.896 617.65 168.085 617.399 168.463C617.153 168.841 617.03 169.409 617.03 170.165ZM621.303 163.274V163.418C621.171 163.546 620.997 163.703 620.783 163.89C620.569 164.076 620.339 164.272 620.093 164.478C619.847 164.678 619.605 164.872 619.368 165.059C619.131 165.241 618.924 165.394 618.746 165.517H617.358V165.332C617.509 165.159 617.682 164.954 617.878 164.717C618.078 164.475 618.277 164.227 618.473 163.972C618.669 163.716 618.833 163.484 618.965 163.274H621.303ZM628.378 166.214C629.194 166.214 629.85 166.437 630.347 166.884C630.843 167.326 631.092 168.037 631.092 169.017V174H629.007V169.536C629.007 168.989 628.907 168.577 628.706 168.299C628.51 168.021 628.2 167.882 627.776 167.882C627.138 167.882 626.703 168.098 626.471 168.531C626.238 168.964 626.122 169.589 626.122 170.404V174H624.037V166.357H625.63L625.91 167.335H626.026C626.19 167.071 626.393 166.856 626.635 166.692C626.881 166.528 627.152 166.408 627.448 166.33C627.749 166.253 628.059 166.214 628.378 166.214Z" fill="white"/>
<path d="M560.682 256.832C560.19 256.832 559.752 256.928 559.371 257.122C558.994 257.31 558.676 257.584 558.416 257.944C558.161 258.304 557.968 258.738 557.835 259.247C557.702 259.756 557.636 260.329 557.636 260.965C557.636 261.823 557.741 262.556 557.951 263.165C558.167 263.768 558.499 264.23 558.947 264.551C559.396 264.867 559.974 265.024 560.682 265.024C561.175 265.024 561.667 264.969 562.16 264.858C562.658 264.748 563.197 264.59 563.778 264.385V266.543C563.242 266.765 562.713 266.923 562.193 267.017C561.673 267.116 561.089 267.166 560.441 267.166C559.191 267.166 558.161 266.909 557.354 266.394C556.551 265.874 555.956 265.149 555.569 264.219C555.181 263.284 554.988 262.194 554.988 260.949C554.988 260.03 555.112 259.189 555.361 258.425C555.61 257.662 555.976 257 556.457 256.441C556.938 255.882 557.533 255.451 558.242 255.146C558.95 254.842 559.764 254.69 560.682 254.69C561.285 254.69 561.889 254.767 562.492 254.922C563.1 255.072 563.681 255.279 564.235 255.545L563.405 257.637C562.951 257.421 562.494 257.233 562.035 257.072C561.576 256.912 561.125 256.832 560.682 256.832ZM574.603 262.343C574.603 263.118 574.497 263.804 574.287 264.402C574.082 265 573.781 265.506 573.382 265.921C572.989 266.33 572.514 266.64 571.955 266.851C571.401 267.061 570.776 267.166 570.079 267.166C569.426 267.166 568.825 267.061 568.277 266.851C567.735 266.64 567.262 266.33 566.858 265.921C566.459 265.506 566.15 265 565.928 264.402C565.712 263.804 565.604 263.118 565.604 262.343C565.604 261.314 565.787 260.442 566.152 259.729C566.518 259.015 567.038 258.472 567.713 258.102C568.388 257.731 569.193 257.545 570.128 257.545C570.997 257.545 571.766 257.731 572.436 258.102C573.111 258.472 573.64 259.015 574.021 259.729C574.409 260.442 574.603 261.314 574.603 262.343ZM568.186 262.343C568.186 262.952 568.252 263.464 568.385 263.879C568.518 264.294 568.726 264.607 569.008 264.817C569.29 265.027 569.658 265.132 570.112 265.132C570.56 265.132 570.923 265.027 571.199 264.817C571.481 264.607 571.686 264.294 571.813 263.879C571.946 263.464 572.013 262.952 572.013 262.343C572.013 261.729 571.946 261.22 571.813 260.816C571.686 260.406 571.481 260.099 571.199 259.895C570.917 259.69 570.549 259.587 570.095 259.587C569.426 259.587 568.939 259.817 568.634 260.276C568.335 260.736 568.186 261.425 568.186 262.343ZM581.965 257.545C582.956 257.545 583.753 257.817 584.356 258.359C584.959 258.896 585.261 259.759 585.261 260.949V267H582.729V261.58C582.729 260.916 582.607 260.415 582.364 260.077C582.126 259.74 581.75 259.571 581.235 259.571C580.46 259.571 579.932 259.834 579.649 260.359C579.367 260.885 579.226 261.643 579.226 262.634V267H576.694V257.72H578.628L578.969 258.907H579.11C579.309 258.586 579.555 258.326 579.849 258.126C580.147 257.927 580.477 257.781 580.836 257.687C581.202 257.592 581.578 257.545 581.965 257.545ZM590.806 267.166C589.771 267.166 588.927 266.762 588.274 265.954C587.626 265.141 587.303 263.948 587.303 262.376C587.303 260.788 587.632 259.587 588.291 258.774C588.949 257.955 589.81 257.545 590.872 257.545C591.315 257.545 591.705 257.606 592.042 257.728C592.38 257.85 592.671 258.013 592.914 258.218C593.163 258.423 593.373 258.652 593.545 258.907H593.628C593.595 258.73 593.553 258.47 593.503 258.126C593.459 257.778 593.437 257.421 593.437 257.056V254.084H595.977V267H594.035L593.545 265.796H593.437C593.277 266.051 593.075 266.283 592.831 266.494C592.593 266.698 592.308 266.862 591.976 266.983C591.644 267.105 591.254 267.166 590.806 267.166ZM591.694 265.149C592.386 265.149 592.873 264.944 593.155 264.535C593.443 264.12 593.595 263.497 593.611 262.667V262.393C593.611 261.491 593.473 260.802 593.196 260.326C592.92 259.845 592.405 259.604 591.652 259.604C591.093 259.604 590.656 259.845 590.341 260.326C590.025 260.808 589.868 261.502 589.868 262.41C589.868 263.317 590.025 264.001 590.341 264.46C590.662 264.919 591.113 265.149 591.694 265.149ZM601.157 257.72V267H598.625V257.72H601.157ZM599.895 254.084C600.271 254.084 600.595 254.173 600.866 254.35C601.137 254.521 601.273 254.845 601.273 255.321C601.273 255.791 601.137 256.118 600.866 256.3C600.595 256.477 600.271 256.566 599.895 256.566C599.513 256.566 599.187 256.477 598.916 256.3C598.65 256.118 598.517 255.791 598.517 255.321C598.517 254.845 598.65 254.521 598.916 254.35C599.187 254.173 599.513 254.084 599.895 254.084ZM607.59 267.166C606.671 267.166 605.888 267 605.241 266.668C604.593 266.33 604.101 265.81 603.763 265.107C603.426 264.405 603.257 263.505 603.257 262.41C603.257 261.275 603.448 260.351 603.83 259.637C604.217 258.918 604.751 258.389 605.432 258.052C606.118 257.714 606.912 257.545 607.814 257.545C608.456 257.545 609.009 257.609 609.474 257.736C609.944 257.858 610.354 258.005 610.703 258.176L609.956 260.135C609.557 259.975 609.186 259.845 608.843 259.745C608.5 259.64 608.157 259.587 607.814 259.587C607.371 259.587 607.003 259.693 606.71 259.903C606.417 260.108 606.198 260.417 606.054 260.833C605.91 261.248 605.838 261.768 605.838 262.393C605.838 263.007 605.916 263.516 606.071 263.92C606.226 264.324 606.45 264.626 606.743 264.825C607.036 265.019 607.393 265.116 607.814 265.116C608.34 265.116 608.807 265.047 609.217 264.908C609.626 264.764 610.025 264.565 610.412 264.311V266.477C610.025 266.721 609.618 266.895 609.192 267C608.771 267.111 608.237 267.166 607.59 267.166ZM615.102 257.72V267H612.57V257.72H615.102ZM613.84 254.084C614.217 254.084 614.54 254.173 614.812 254.35C615.083 254.521 615.218 254.845 615.218 255.321C615.218 255.791 615.083 256.118 614.812 256.3C614.54 256.477 614.217 256.566 613.84 256.566C613.458 256.566 613.132 256.477 612.861 256.3C612.595 256.118 612.462 255.791 612.462 255.321C612.462 254.845 612.595 254.521 612.861 254.35C613.132 254.173 613.458 254.084 613.84 254.084ZM626.2 262.343C626.2 263.118 626.095 263.804 625.885 264.402C625.68 265 625.378 265.506 624.98 265.921C624.587 266.33 624.111 266.64 623.552 266.851C622.999 267.061 622.374 267.166 621.676 267.166C621.023 267.166 620.423 267.061 619.875 266.851C619.333 266.64 618.86 266.33 618.456 265.921C618.057 265.506 617.747 265 617.526 264.402C617.31 263.804 617.202 263.118 617.202 262.343C617.202 261.314 617.385 260.442 617.75 259.729C618.115 259.015 618.635 258.472 619.311 258.102C619.986 257.731 620.791 257.545 621.726 257.545C622.595 257.545 623.364 257.731 624.034 258.102C624.709 258.472 625.237 259.015 625.619 259.729C626.007 260.442 626.2 261.314 626.2 262.343ZM619.784 262.343C619.784 262.952 619.85 263.464 619.983 263.879C620.116 264.294 620.323 264.607 620.605 264.817C620.888 265.027 621.256 265.132 621.709 265.132C622.158 265.132 622.52 265.027 622.797 264.817C623.079 264.607 623.284 264.294 623.411 263.879C623.544 263.464 623.61 262.952 623.61 262.343C623.61 261.729 623.544 261.22 623.411 260.816C623.284 260.406 623.079 260.099 622.797 259.895C622.515 259.69 622.147 259.587 621.693 259.587C621.023 259.587 620.536 259.817 620.232 260.276C619.933 260.736 619.784 261.425 619.784 262.343ZM624.972 253.976V254.15C624.811 254.305 624.601 254.496 624.341 254.723C624.081 254.95 623.801 255.188 623.502 255.437C623.204 255.681 622.91 255.916 622.623 256.143C622.335 256.364 622.083 256.549 621.867 256.699H620.182V256.475C620.365 256.264 620.575 256.015 620.813 255.728C621.056 255.434 621.297 255.133 621.535 254.823C621.773 254.513 621.972 254.231 622.133 253.976H624.972ZM633.563 257.545C634.554 257.545 635.35 257.817 635.954 258.359C636.557 258.896 636.858 259.759 636.858 260.949V267H634.327V261.58C634.327 260.916 634.205 260.415 633.961 260.077C633.723 259.74 633.347 259.571 632.833 259.571C632.058 259.571 631.529 259.834 631.247 260.359C630.965 260.885 630.824 261.643 630.824 262.634V267H628.292V257.72H630.226L630.566 258.907H630.708C630.907 258.586 631.153 258.326 631.446 258.126C631.745 257.927 632.074 257.781 632.434 257.687C632.799 257.592 633.176 257.545 633.563 257.545Z" fill="white"/>
<path d="M693.059 149H690.527V136.864H697.483V138.973H693.059V142.102H697.176V144.202H693.059V149ZM703.46 139.529C704.705 139.529 705.66 139.8 706.324 140.342C706.988 140.885 707.32 141.709 707.32 142.816V149H705.552L705.062 147.738H704.996C704.73 148.07 704.459 148.341 704.182 148.552C703.905 148.762 703.587 148.917 703.228 149.017C702.868 149.116 702.431 149.166 701.916 149.166C701.368 149.166 700.876 149.061 700.438 148.851C700.007 148.64 699.667 148.319 699.417 147.888C699.168 147.451 699.044 146.897 699.044 146.228C699.044 145.243 699.39 144.518 700.082 144.053C700.773 143.582 701.811 143.322 703.194 143.272L704.805 143.223V142.816C704.805 142.329 704.677 141.972 704.423 141.745C704.168 141.518 703.814 141.405 703.36 141.405C702.912 141.405 702.472 141.468 702.041 141.596C701.609 141.723 701.177 141.883 700.746 142.077L699.907 140.367C700.4 140.107 700.95 139.902 701.559 139.753C702.173 139.604 702.807 139.529 703.46 139.529ZM704.805 144.7L703.825 144.733C703.006 144.756 702.436 144.902 702.115 145.173C701.8 145.444 701.642 145.801 701.642 146.244C701.642 146.632 701.756 146.908 701.982 147.074C702.209 147.235 702.505 147.315 702.871 147.315C703.413 147.315 703.869 147.154 704.24 146.833C704.617 146.513 704.805 146.056 704.805 145.464V144.7ZM712.466 149H709.935V136.084H712.466V149ZM721.605 146.244C721.605 146.875 721.456 147.409 721.157 147.846C720.864 148.278 720.424 148.607 719.837 148.834C719.251 149.055 718.52 149.166 717.646 149.166C716.999 149.166 716.442 149.125 715.978 149.042C715.518 148.958 715.053 148.82 714.583 148.626V146.535C715.087 146.762 715.626 146.95 716.202 147.099C716.783 147.243 717.292 147.315 717.729 147.315C718.222 147.315 718.573 147.243 718.783 147.099C718.999 146.95 719.107 146.756 719.107 146.518C719.107 146.363 719.063 146.225 718.974 146.103C718.891 145.976 718.708 145.835 718.426 145.68C718.144 145.519 717.701 145.312 717.098 145.057C716.517 144.814 716.038 144.567 715.662 144.318C715.291 144.069 715.015 143.776 714.832 143.438C714.655 143.095 714.566 142.661 714.566 142.135C714.566 141.278 714.898 140.633 715.562 140.201C716.232 139.764 717.126 139.545 718.244 139.545C718.819 139.545 719.367 139.604 719.887 139.72C720.413 139.836 720.952 140.021 721.506 140.276L720.742 142.102C720.283 141.903 719.848 141.74 719.439 141.612C719.035 141.485 718.623 141.421 718.202 141.421C717.831 141.421 717.552 141.471 717.364 141.571C717.176 141.67 717.082 141.823 717.082 142.027C717.082 142.177 717.129 142.31 717.223 142.426C717.322 142.542 717.51 142.672 717.787 142.816C718.069 142.954 718.482 143.134 719.024 143.355C719.55 143.571 720.006 143.798 720.394 144.036C720.781 144.269 721.08 144.559 721.29 144.908C721.5 145.251 721.605 145.696 721.605 146.244ZM727.408 139.545C728.265 139.545 729.004 139.711 729.624 140.043C730.244 140.37 730.722 140.846 731.06 141.471C731.398 142.097 731.566 142.86 731.566 143.762V144.991H725.582C725.609 145.705 725.822 146.266 726.221 146.676C726.625 147.08 727.184 147.282 727.897 147.282C728.49 147.282 729.032 147.221 729.524 147.099C730.017 146.977 730.523 146.795 731.043 146.551V148.51C730.584 148.737 730.103 148.903 729.599 149.008C729.101 149.113 728.495 149.166 727.781 149.166C726.852 149.166 726.027 148.994 725.308 148.651C724.594 148.308 724.032 147.785 723.623 147.083C723.219 146.38 723.017 145.494 723.017 144.426C723.017 143.342 723.199 142.44 723.564 141.72C723.935 140.995 724.45 140.453 725.108 140.093C725.767 139.728 726.533 139.545 727.408 139.545ZM727.424 141.347C726.932 141.347 726.522 141.504 726.196 141.82C725.875 142.135 725.689 142.631 725.64 143.306H729.192C729.187 142.929 729.118 142.595 728.985 142.301C728.858 142.008 728.664 141.776 728.404 141.604C728.149 141.432 727.823 141.347 727.424 141.347Z" fill="#E60000"/>
<path d="M551.209 220H548.636V210.006H545.34V207.864H554.504V210.006H551.209V220ZM561.353 210.545C561.48 210.545 561.626 210.554 561.792 210.57C561.964 210.581 562.102 210.598 562.208 210.62L562.017 212.994C561.934 212.966 561.815 212.947 561.66 212.936C561.51 212.919 561.38 212.911 561.27 212.911C560.943 212.911 560.625 212.953 560.315 213.036C560.011 213.119 559.737 213.254 559.493 213.442C559.25 213.625 559.056 213.868 558.912 214.173C558.774 214.472 558.705 214.84 558.705 215.277V220H556.173V210.72H558.09L558.464 212.28H558.588C558.771 211.965 558.998 211.677 559.269 211.417C559.546 211.151 559.858 210.941 560.207 210.786C560.561 210.626 560.943 210.545 561.353 210.545ZM572.409 210.72V220H570.467L570.126 218.813H569.994C569.794 219.128 569.545 219.386 569.247 219.585C568.948 219.784 568.618 219.931 568.259 220.025C567.899 220.119 567.526 220.166 567.138 220.166C566.474 220.166 565.896 220.05 565.403 219.817C564.911 219.579 564.526 219.211 564.25 218.713C563.978 218.215 563.843 217.568 563.843 216.771V210.72H566.375V216.14C566.375 216.804 566.493 217.305 566.731 217.643C566.969 217.98 567.348 218.149 567.869 218.149C568.383 218.149 568.787 218.033 569.081 217.8C569.374 217.562 569.579 217.216 569.695 216.763C569.817 216.303 569.877 215.744 569.877 215.086V210.72H572.409ZM578.892 210.545C579.75 210.545 580.489 210.711 581.108 211.043C581.728 211.37 582.207 211.846 582.544 212.471C582.882 213.097 583.051 213.86 583.051 214.762V215.991H577.066C577.094 216.705 577.307 217.266 577.705 217.676C578.109 218.08 578.668 218.282 579.382 218.282C579.974 218.282 580.516 218.221 581.009 218.099C581.501 217.977 582.008 217.795 582.528 217.551V219.51C582.069 219.737 581.587 219.903 581.083 220.008C580.585 220.113 579.979 220.166 579.266 220.166C578.336 220.166 577.511 219.994 576.792 219.651C576.078 219.308 575.516 218.785 575.107 218.083C574.703 217.38 574.501 216.494 574.501 215.426C574.501 214.342 574.684 213.44 575.049 212.72C575.42 211.995 575.934 211.453 576.593 211.093C577.251 210.728 578.018 210.545 578.892 210.545ZM578.909 212.347C578.416 212.347 578.007 212.504 577.68 212.82C577.359 213.135 577.174 213.631 577.124 214.306H580.677C580.671 213.929 580.602 213.595 580.469 213.301C580.342 213.008 580.148 212.776 579.888 212.604C579.634 212.432 579.307 212.347 578.909 212.347Z" fill="#00B415"/>
<rect x="534" y="248" width="124" height="34" rx="5" fill="#C5CDFF"/>
<path d="M547.348 271V260.292H549.618V271H547.348ZM556.789 262.658C557.663 262.658 558.366 262.897 558.898 263.375C559.43 263.849 559.696 264.611 559.696 265.661V271H557.462V266.217C557.462 265.631 557.355 265.189 557.14 264.892C556.93 264.594 556.598 264.445 556.144 264.445C555.46 264.445 554.994 264.677 554.745 265.141C554.496 265.604 554.372 266.273 554.372 267.147V271H552.138V262.812H553.844L554.145 263.859H554.269C554.445 263.576 554.662 263.346 554.921 263.17C555.185 262.995 555.475 262.865 555.792 262.782C556.115 262.699 556.447 262.658 556.789 262.658ZM567.709 268.568C567.709 269.125 567.577 269.596 567.313 269.982C567.055 270.363 566.667 270.653 566.149 270.854C565.631 271.049 564.987 271.146 564.215 271.146C563.644 271.146 563.153 271.11 562.743 271.037C562.338 270.963 561.928 270.841 561.513 270.67V268.825C561.957 269.025 562.433 269.191 562.941 269.323C563.454 269.45 563.903 269.513 564.289 269.513C564.723 269.513 565.033 269.45 565.219 269.323C565.409 269.191 565.504 269.02 565.504 268.81C565.504 268.673 565.465 268.551 565.387 268.444C565.314 268.332 565.153 268.207 564.904 268.07C564.655 267.929 564.264 267.746 563.732 267.521C563.219 267.306 562.797 267.089 562.465 266.869C562.138 266.649 561.894 266.391 561.732 266.093C561.576 265.79 561.498 265.407 561.498 264.943C561.498 264.186 561.791 263.617 562.377 263.236C562.968 262.851 563.756 262.658 564.743 262.658C565.25 262.658 565.734 262.709 566.193 262.812C566.657 262.914 567.133 263.078 567.621 263.302L566.947 264.914C566.542 264.738 566.159 264.594 565.797 264.481C565.441 264.369 565.077 264.313 564.706 264.313C564.379 264.313 564.132 264.357 563.966 264.445C563.8 264.533 563.717 264.667 563.717 264.848C563.717 264.979 563.759 265.097 563.842 265.199C563.93 265.302 564.096 265.417 564.34 265.543C564.589 265.666 564.953 265.824 565.431 266.02C565.895 266.21 566.298 266.41 566.64 266.62C566.981 266.825 567.245 267.082 567.431 267.389C567.616 267.692 567.709 268.085 567.709 268.568ZM572.902 269.367C573.146 269.367 573.383 269.342 573.612 269.293C573.847 269.245 574.079 269.184 574.308 269.11V270.773C574.069 270.88 573.771 270.968 573.415 271.037C573.063 271.11 572.677 271.146 572.257 271.146C571.769 271.146 571.33 271.068 570.939 270.912C570.553 270.751 570.248 270.475 570.023 270.084C569.804 269.689 569.694 269.14 569.694 268.437V264.489H568.625V263.544L569.855 262.797L570.5 261.068H571.928V262.812H574.22V264.489H571.928V268.437C571.928 268.749 572.016 268.983 572.191 269.14C572.372 269.291 572.609 269.367 572.902 269.367ZM580.541 262.658C580.653 262.658 580.783 262.665 580.929 262.68C581.081 262.689 581.203 262.704 581.295 262.724L581.127 264.818C581.054 264.794 580.949 264.777 580.812 264.767C580.68 264.752 580.565 264.745 580.468 264.745C580.18 264.745 579.899 264.782 579.625 264.855C579.357 264.928 579.115 265.048 578.9 265.214C578.686 265.375 578.515 265.59 578.388 265.858C578.266 266.122 578.205 266.447 578.205 266.833V271H575.971V262.812H577.663L577.992 264.188H578.102C578.263 263.91 578.463 263.656 578.703 263.427C578.947 263.192 579.223 263.007 579.53 262.87C579.843 262.729 580.18 262.658 580.541 262.658ZM590.297 262.812V271H588.583L588.283 269.953H588.166C587.99 270.231 587.77 270.458 587.506 270.634C587.243 270.81 586.952 270.939 586.635 271.022C586.317 271.105 585.988 271.146 585.646 271.146C585.06 271.146 584.55 271.044 584.115 270.839C583.681 270.629 583.341 270.304 583.097 269.865C582.858 269.425 582.738 268.854 582.738 268.151V262.812H584.972V267.594C584.972 268.18 585.077 268.622 585.287 268.92C585.497 269.218 585.832 269.367 586.291 269.367C586.745 269.367 587.101 269.264 587.36 269.059C587.619 268.849 587.799 268.544 587.902 268.144C588.009 267.738 588.063 267.245 588.063 266.664V262.812H590.297ZM595.966 271.146C595.155 271.146 594.464 271 593.893 270.707C593.322 270.409 592.887 269.95 592.589 269.33C592.292 268.71 592.143 267.917 592.143 266.95C592.143 265.949 592.311 265.133 592.648 264.503C592.99 263.869 593.461 263.402 594.062 263.104C594.667 262.807 595.368 262.658 596.164 262.658C596.73 262.658 597.218 262.714 597.628 262.826C598.043 262.934 598.405 263.063 598.712 263.214L598.053 264.943C597.702 264.801 597.375 264.687 597.072 264.599C596.769 264.506 596.466 264.459 596.164 264.459C595.773 264.459 595.448 264.552 595.189 264.738C594.931 264.918 594.738 265.192 594.611 265.558C594.484 265.924 594.42 266.383 594.42 266.935C594.42 267.477 594.489 267.926 594.625 268.283C594.762 268.639 594.96 268.905 595.219 269.081C595.478 269.252 595.792 269.337 596.164 269.337C596.627 269.337 597.04 269.276 597.401 269.154C597.763 269.027 598.114 268.852 598.456 268.627V270.539C598.114 270.753 597.755 270.907 597.379 271C597.008 271.098 596.537 271.146 595.966 271.146ZM603.686 271.146C602.875 271.146 602.184 271 601.613 270.707C601.042 270.409 600.607 269.95 600.309 269.33C600.011 268.71 599.862 267.917 599.862 266.95C599.862 265.949 600.031 265.133 600.368 264.503C600.709 263.869 601.181 263.402 601.781 263.104C602.387 262.807 603.087 262.658 603.883 262.658C604.45 262.658 604.938 262.714 605.348 262.826C605.763 262.934 606.125 263.063 606.432 263.214L605.773 264.943C605.421 264.801 605.094 264.687 604.792 264.599C604.489 264.506 604.186 264.459 603.883 264.459C603.493 264.459 603.168 264.552 602.909 264.738C602.65 264.918 602.458 265.192 602.331 265.558C602.204 265.924 602.14 266.383 602.14 266.935C602.14 267.477 602.208 267.926 602.345 268.283C602.482 268.639 602.68 268.905 602.938 269.081C603.197 269.252 603.512 269.337 603.883 269.337C604.347 269.337 604.76 269.276 605.121 269.154C605.482 269.027 605.834 268.852 606.176 268.627V270.539C605.834 270.753 605.475 270.907 605.099 271C604.728 271.098 604.257 271.146 603.686 271.146ZM610.314 262.812V271H608.08V262.812H610.314ZM609.201 259.604C609.533 259.604 609.818 259.682 610.058 259.838C610.297 259.989 610.417 260.275 610.417 260.695C610.417 261.11 610.297 261.398 610.058 261.559C609.818 261.715 609.533 261.793 609.201 261.793C608.864 261.793 608.576 261.715 608.336 261.559C608.102 261.398 607.985 261.11 607.985 260.695C607.985 260.275 608.102 259.989 608.336 259.838C608.576 259.682 608.864 259.604 609.201 259.604ZM620.106 266.891C620.106 267.575 620.014 268.18 619.828 268.708C619.647 269.235 619.381 269.682 619.03 270.048C618.683 270.409 618.263 270.683 617.77 270.868C617.282 271.054 616.73 271.146 616.115 271.146C615.539 271.146 615.009 271.054 614.525 270.868C614.047 270.683 613.629 270.409 613.273 270.048C612.921 269.682 612.648 269.235 612.453 268.708C612.262 268.18 612.167 267.575 612.167 266.891C612.167 265.983 612.328 265.214 612.65 264.584C612.973 263.954 613.432 263.476 614.027 263.148C614.623 262.821 615.333 262.658 616.159 262.658C616.925 262.658 617.604 262.821 618.195 263.148C618.791 263.476 619.257 263.954 619.594 264.584C619.936 265.214 620.106 265.983 620.106 266.891ZM614.445 266.891C614.445 267.428 614.503 267.88 614.621 268.246C614.738 268.612 614.921 268.888 615.17 269.074C615.419 269.259 615.744 269.352 616.144 269.352C616.54 269.352 616.859 269.259 617.104 269.074C617.353 268.888 617.533 268.612 617.646 268.246C617.763 267.88 617.821 267.428 617.821 266.891C617.821 266.349 617.763 265.9 617.646 265.543C617.533 265.182 617.353 264.911 617.104 264.73C616.854 264.55 616.53 264.459 616.129 264.459C615.539 264.459 615.109 264.662 614.84 265.067C614.577 265.473 614.445 266.081 614.445 266.891ZM626.603 262.658C627.477 262.658 628.18 262.897 628.712 263.375C629.245 263.849 629.511 264.611 629.511 265.661V271H627.277V266.217C627.277 265.631 627.169 265.189 626.955 264.892C626.745 264.594 626.413 264.445 625.958 264.445C625.275 264.445 624.809 264.677 624.56 265.141C624.311 265.604 624.186 266.273 624.186 267.147V271H621.952V262.812H623.659L623.959 263.859H624.083C624.259 263.576 624.477 263.346 624.735 263.17C624.999 262.995 625.29 262.865 625.607 262.782C625.929 262.699 626.261 262.658 626.603 262.658ZM635.187 262.658C635.944 262.658 636.596 262.804 637.143 263.097C637.689 263.385 638.112 263.805 638.41 264.357C638.708 264.909 638.856 265.583 638.856 266.378V267.462H633.576C633.6 268.092 633.788 268.588 634.14 268.949C634.496 269.306 634.989 269.484 635.619 269.484C636.142 269.484 636.62 269.43 637.055 269.323C637.489 269.215 637.936 269.054 638.395 268.839V270.568C637.99 270.768 637.565 270.915 637.121 271.007C636.681 271.1 636.146 271.146 635.517 271.146C634.696 271.146 633.969 270.995 633.334 270.692C632.704 270.39 632.208 269.928 631.847 269.308C631.491 268.688 631.312 267.907 631.312 266.964C631.312 266.007 631.474 265.211 631.796 264.577C632.123 263.937 632.577 263.458 633.158 263.141C633.739 262.819 634.416 262.658 635.187 262.658ZM635.202 264.247C634.767 264.247 634.406 264.386 634.118 264.665C633.834 264.943 633.671 265.38 633.627 265.976H636.762C636.757 265.644 636.696 265.348 636.579 265.089C636.466 264.831 636.295 264.625 636.066 264.474C635.841 264.323 635.553 264.247 635.202 264.247ZM646.386 268.568C646.386 269.125 646.254 269.596 645.99 269.982C645.731 270.363 645.343 270.653 644.826 270.854C644.308 271.049 643.664 271.146 642.892 271.146C642.321 271.146 641.83 271.11 641.42 271.037C641.015 270.963 640.604 270.841 640.189 270.67V268.825C640.634 269.025 641.11 269.191 641.618 269.323C642.13 269.45 642.58 269.513 642.965 269.513C643.4 269.513 643.71 269.45 643.896 269.323C644.086 269.191 644.181 269.02 644.181 268.81C644.181 268.673 644.142 268.551 644.064 268.444C643.991 268.332 643.83 268.207 643.581 268.07C643.332 267.929 642.941 267.746 642.409 267.521C641.896 267.306 641.474 267.089 641.142 266.869C640.814 266.649 640.57 266.391 640.409 266.093C640.253 265.79 640.175 265.407 640.175 264.943C640.175 264.186 640.468 263.617 641.054 263.236C641.645 262.851 642.433 262.658 643.419 262.658C643.927 262.658 644.411 262.709 644.87 262.812C645.333 262.914 645.81 263.078 646.298 263.302L645.624 264.914C645.219 264.738 644.835 264.594 644.474 264.481C644.118 264.369 643.754 264.313 643.383 264.313C643.056 264.313 642.809 264.357 642.643 264.445C642.477 264.533 642.394 264.667 642.394 264.848C642.394 264.979 642.436 265.097 642.519 265.199C642.606 265.302 642.772 265.417 643.017 265.543C643.266 265.666 643.629 265.824 644.108 266.02C644.572 266.21 644.975 266.41 645.316 266.62C645.658 266.825 645.922 267.082 646.107 267.389C646.293 267.692 646.386 268.085 646.386 268.568Z" fill="#0037AC"/>
<path d="M597 89C597 88.4477 596.552 88 596 88C595.448 88 595 88.4477 595 89L597 89ZM596 112L601.774 102L590.226 102L596 112ZM596 89L595 89L595 103L596 103L597 103L597 89L596 89Z" fill="black"/>
<path d="M597 45C597 44.4477 596.552 44 596 44C595.448 44 595 44.4477 595 45L597 45ZM596 81L601.774 71L590.226 71L596 81ZM596 45L595 45L595 72L596 72L597 72L597 45L596 45Z" fill="black"/>
<path d="M597 203C597 202.448 596.552 202 596 202C595.448 202 595 202.448 595 203L597 203ZM596 246L601.774 236L590.226 236L596 246ZM596 203L595 203L595 237L596 237L597 237L597 203L596 203Z" fill="black"/>
<path d="M676.03 156C675.477 156 675.03 156.448 675.03 157C675.03 157.552 675.477 158 676.03 158V156ZM743 157H744C744 156.448 743.552 156 743 156V157ZM743 323V324C743.552 324 744 323.552 744 323H743ZM615 323L625 328.774V317.226L615 323ZM676.03 157V158H743V157V156H676.03V157ZM743 157H742V323H743H744V157H743ZM743 323V322H624V323V324H743V323Z" fill="black"/>
<circle cx="596" cy="86" r="5" fill="#BCBCBC"/>
<path d="M533 266C533.552 266 534 265.552 534 265C534 264.448 533.552 264 533 264V266ZM466 265H465C465 265.552 465.448 266 466 266V265ZM466 86V85C465.448 85 465 85.4477 465 86H466ZM589 86L579 80.2265V91.7735L589 86ZM533 265V264H466V265V266H533V265ZM466 265H467V86H466H465V265H466ZM466 86V87H580V86V85H466V86Z" fill="black"/>
</g>
<defs>
<clipPath id="clip0_89_1571">
<rect width="1208" height="400" fill="white"/>
</clipPath>
</defs>
</svg>
