<svg width="1400" height="128" viewBox="0 0 1400 128" fill="none" xmlns="http://www.w3.org/2000/svg">
<rect width="1400" height="128" fill="white"/>
<rect x="295.5" y="5.5" width="199" height="77" rx="4.5" fill="#08003C" stroke="white"/>
<path d="M373.205 33.805C374.695 33.805 375.945 34.07 376.955 34.6C377.975 35.13 378.745 35.845 379.265 36.745C379.785 37.635 380.045 38.615 380.045 39.685C380.045 40.565 379.895 41.425 379.595 42.265C379.295 43.105 378.805 43.99 378.125 44.92C377.455 45.85 376.565 46.885 375.455 48.025C374.345 49.155 372.975 50.445 371.345 51.895H380.525L380.09 55H366.815V52.105C368.245 50.725 369.48 49.51 370.52 48.46C371.56 47.4 372.43 46.465 373.13 45.655C373.84 44.845 374.4 44.12 374.81 43.48C375.23 42.83 375.53 42.225 375.71 41.665C375.89 41.105 375.98 40.545 375.98 39.985C375.98 39.035 375.705 38.285 375.155 37.735C374.615 37.185 373.855 36.91 372.875 36.91C372.005 36.91 371.265 37.08 370.655 37.42C370.055 37.75 369.465 38.29 368.885 39.04L366.395 37.15C367.185 36.09 368.125 35.27 369.215 34.69C370.305 34.1 371.635 33.805 373.205 33.805ZM398.138 34.255L397.673 37.165H389.873V42.355C390.423 42.085 390.973 41.895 391.523 41.785C392.073 41.675 392.603 41.62 393.113 41.62C394.203 41.62 395.183 41.885 396.053 42.415C396.933 42.945 397.623 43.71 398.123 44.71C398.633 45.7 398.888 46.89 398.888 48.28C398.888 49.67 398.563 50.91 397.913 52C397.273 53.08 396.373 53.925 395.213 54.535C394.053 55.145 392.693 55.45 391.133 55.45C389.723 55.45 388.468 55.19 387.368 54.67C386.278 54.15 385.343 53.45 384.563 52.57L386.873 50.425C387.423 51.065 388.038 51.55 388.718 51.88C389.398 52.2 390.128 52.36 390.908 52.36C392.098 52.36 393.043 52 393.743 51.28C394.443 50.55 394.793 49.555 394.793 48.295C394.793 47.345 394.658 46.59 394.388 46.03C394.118 45.47 393.748 45.065 393.278 44.815C392.808 44.565 392.268 44.44 391.658 44.44C391.198 44.44 390.743 44.495 390.293 44.605C389.853 44.705 389.378 44.88 388.868 45.13H386.093V34.255H398.138ZM414.567 33.61L416.772 34.66L405.147 55.78L402.957 54.73L414.567 33.61ZM414.402 47.845C413.872 47.845 413.482 48.065 413.232 48.505C412.992 48.945 412.872 49.59 412.872 50.44C412.872 51.24 412.997 51.875 413.247 52.345C413.497 52.815 413.882 53.05 414.402 53.05C414.932 53.05 415.312 52.83 415.542 52.39C415.782 51.95 415.902 51.3 415.902 50.44C415.902 49.54 415.782 48.885 415.542 48.475C415.312 48.055 414.932 47.845 414.402 47.845ZM405.582 35.935C405.052 35.935 404.662 36.16 404.412 36.61C404.172 37.06 404.052 37.705 404.052 38.545C404.052 39.345 404.177 39.98 404.427 40.45C404.677 40.92 405.062 41.155 405.582 41.155C406.112 41.155 406.492 40.935 406.722 40.495C406.962 40.045 407.082 39.395 407.082 38.545C407.082 37.645 406.962 36.985 406.722 36.565C406.492 36.145 406.112 35.935 405.582 35.935ZM405.582 33.805C406.482 33.805 407.252 34.01 407.892 34.42C408.542 34.82 409.037 35.38 409.377 36.1C409.717 36.81 409.887 37.625 409.887 38.545C409.887 39.445 409.717 40.255 409.377 40.975C409.037 41.695 408.542 42.26 407.892 42.67C407.252 43.08 406.482 43.285 405.582 43.285C404.672 43.285 403.892 43.08 403.242 42.67C402.592 42.26 402.097 41.695 401.757 40.975C401.417 40.255 401.247 39.445 401.247 38.545C401.247 37.645 401.417 36.84 401.757 36.13C402.097 35.41 402.592 34.845 403.242 34.435C403.892 34.015 404.672 33.805 405.582 33.805ZM414.402 45.7C415.302 45.7 416.072 45.905 416.712 46.315C417.362 46.725 417.857 47.285 418.197 47.995C418.537 48.705 418.707 49.52 418.707 50.44C418.707 51.35 418.537 52.165 418.197 52.885C417.857 53.595 417.362 54.155 416.712 54.565C416.072 54.975 415.302 55.18 414.402 55.18C413.492 55.18 412.712 54.975 412.062 54.565C411.412 54.155 410.917 53.595 410.577 52.885C410.237 52.165 410.067 51.35 410.067 50.44C410.067 49.55 410.237 48.745 410.577 48.025C410.917 47.305 411.412 46.74 412.062 46.33C412.712 45.91 413.492 45.7 414.402 45.7Z" fill="white"/>
<rect x="495.5" y="5.5" width="199" height="77" rx="4.5" fill="#0037AC" stroke="white"/>
<path d="M573.205 33.805C574.695 33.805 575.945 34.07 576.955 34.6C577.975 35.13 578.745 35.845 579.265 36.745C579.785 37.635 580.045 38.615 580.045 39.685C580.045 40.565 579.895 41.425 579.595 42.265C579.295 43.105 578.805 43.99 578.125 44.92C577.455 45.85 576.565 46.885 575.455 48.025C574.345 49.155 572.975 50.445 571.345 51.895H580.525L580.09 55H566.815V52.105C568.245 50.725 569.48 49.51 570.52 48.46C571.56 47.4 572.43 46.465 573.13 45.655C573.84 44.845 574.4 44.12 574.81 43.48C575.23 42.83 575.53 42.225 575.71 41.665C575.89 41.105 575.98 40.545 575.98 39.985C575.98 39.035 575.705 38.285 575.155 37.735C574.615 37.185 573.855 36.91 572.875 36.91C572.005 36.91 571.265 37.08 570.655 37.42C570.055 37.75 569.465 38.29 568.885 39.04L566.395 37.15C567.185 36.09 568.125 35.27 569.215 34.69C570.305 34.1 571.635 33.805 573.205 33.805ZM598.138 34.255L597.673 37.165H589.873V42.355C590.423 42.085 590.973 41.895 591.523 41.785C592.073 41.675 592.603 41.62 593.113 41.62C594.203 41.62 595.183 41.885 596.053 42.415C596.933 42.945 597.623 43.71 598.123 44.71C598.633 45.7 598.888 46.89 598.888 48.28C598.888 49.67 598.563 50.91 597.913 52C597.273 53.08 596.373 53.925 595.213 54.535C594.053 55.145 592.693 55.45 591.133 55.45C589.723 55.45 588.468 55.19 587.368 54.67C586.278 54.15 585.343 53.45 584.563 52.57L586.873 50.425C587.423 51.065 588.038 51.55 588.718 51.88C589.398 52.2 590.128 52.36 590.908 52.36C592.098 52.36 593.043 52 593.743 51.28C594.443 50.55 594.793 49.555 594.793 48.295C594.793 47.345 594.658 46.59 594.388 46.03C594.118 45.47 593.748 45.065 593.278 44.815C592.808 44.565 592.268 44.44 591.658 44.44C591.198 44.44 590.743 44.495 590.293 44.605C589.853 44.705 589.378 44.88 588.868 45.13H586.093V34.255H598.138ZM614.567 33.61L616.772 34.66L605.147 55.78L602.957 54.73L614.567 33.61ZM614.402 47.845C613.872 47.845 613.482 48.065 613.232 48.505C612.992 48.945 612.872 49.59 612.872 50.44C612.872 51.24 612.997 51.875 613.247 52.345C613.497 52.815 613.882 53.05 614.402 53.05C614.932 53.05 615.312 52.83 615.542 52.39C615.782 51.95 615.902 51.3 615.902 50.44C615.902 49.54 615.782 48.885 615.542 48.475C615.312 48.055 614.932 47.845 614.402 47.845ZM605.582 35.935C605.052 35.935 604.662 36.16 604.412 36.61C604.172 37.06 604.052 37.705 604.052 38.545C604.052 39.345 604.177 39.98 604.427 40.45C604.677 40.92 605.062 41.155 605.582 41.155C606.112 41.155 606.492 40.935 606.722 40.495C606.962 40.045 607.082 39.395 607.082 38.545C607.082 37.645 606.962 36.985 606.722 36.565C606.492 36.145 606.112 35.935 605.582 35.935ZM605.582 33.805C606.482 33.805 607.252 34.01 607.892 34.42C608.542 34.82 609.037 35.38 609.377 36.1C609.717 36.81 609.887 37.625 609.887 38.545C609.887 39.445 609.717 40.255 609.377 40.975C609.037 41.695 608.542 42.26 607.892 42.67C607.252 43.08 606.482 43.285 605.582 43.285C604.672 43.285 603.892 43.08 603.242 42.67C602.592 42.26 602.097 41.695 601.757 40.975C601.417 40.255 601.247 39.445 601.247 38.545C601.247 37.645 601.417 36.84 601.757 36.13C602.097 35.41 602.592 34.845 603.242 34.435C603.892 34.015 604.672 33.805 605.582 33.805ZM614.402 45.7C615.302 45.7 616.072 45.905 616.712 46.315C617.362 46.725 617.857 47.285 618.197 47.995C618.537 48.705 618.707 49.52 618.707 50.44C618.707 51.35 618.537 52.165 618.197 52.885C617.857 53.595 617.362 54.155 616.712 54.565C616.072 54.975 615.302 55.18 614.402 55.18C613.492 55.18 612.712 54.975 612.062 54.565C611.412 54.155 610.917 53.595 610.577 52.885C610.237 52.165 610.067 51.35 610.067 50.44C610.067 49.55 610.237 48.745 610.577 48.025C610.917 47.305 611.412 46.74 612.062 46.33C612.712 45.91 613.492 45.7 614.402 45.7Z" fill="white"/>
<rect x="695.5" y="5.5" width="199" height="77" rx="4.5" fill="#0037AC" stroke="white"/>
<path d="M773.205 33.805C774.695 33.805 775.945 34.07 776.955 34.6C777.975 35.13 778.745 35.845 779.265 36.745C779.785 37.635 780.045 38.615 780.045 39.685C780.045 40.565 779.895 41.425 779.595 42.265C779.295 43.105 778.805 43.99 778.125 44.92C777.455 45.85 776.565 46.885 775.455 48.025C774.345 49.155 772.975 50.445 771.345 51.895H780.525L780.09 55H766.815V52.105C768.245 50.725 769.48 49.51 770.52 48.46C771.56 47.4 772.43 46.465 773.13 45.655C773.84 44.845 774.4 44.12 774.81 43.48C775.23 42.83 775.53 42.225 775.71 41.665C775.89 41.105 775.98 40.545 775.98 39.985C775.98 39.035 775.705 38.285 775.155 37.735C774.615 37.185 773.855 36.91 772.875 36.91C772.005 36.91 771.265 37.08 770.655 37.42C770.055 37.75 769.465 38.29 768.885 39.04L766.395 37.15C767.185 36.09 768.125 35.27 769.215 34.69C770.305 34.1 771.635 33.805 773.205 33.805ZM798.138 34.255L797.673 37.165H789.873V42.355C790.423 42.085 790.973 41.895 791.523 41.785C792.073 41.675 792.603 41.62 793.113 41.62C794.203 41.62 795.183 41.885 796.053 42.415C796.933 42.945 797.623 43.71 798.123 44.71C798.633 45.7 798.888 46.89 798.888 48.28C798.888 49.67 798.563 50.91 797.913 52C797.273 53.08 796.373 53.925 795.213 54.535C794.053 55.145 792.693 55.45 791.133 55.45C789.723 55.45 788.468 55.19 787.368 54.67C786.278 54.15 785.343 53.45 784.563 52.57L786.873 50.425C787.423 51.065 788.038 51.55 788.718 51.88C789.398 52.2 790.128 52.36 790.908 52.36C792.098 52.36 793.043 52 793.743 51.28C794.443 50.55 794.793 49.555 794.793 48.295C794.793 47.345 794.658 46.59 794.388 46.03C794.118 45.47 793.748 45.065 793.278 44.815C792.808 44.565 792.268 44.44 791.658 44.44C791.198 44.44 790.743 44.495 790.293 44.605C789.853 44.705 789.378 44.88 788.868 45.13H786.093V34.255H798.138ZM814.567 33.61L816.772 34.66L805.147 55.78L802.957 54.73L814.567 33.61ZM814.402 47.845C813.872 47.845 813.482 48.065 813.232 48.505C812.992 48.945 812.872 49.59 812.872 50.44C812.872 51.24 812.997 51.875 813.247 52.345C813.497 52.815 813.882 53.05 814.402 53.05C814.932 53.05 815.312 52.83 815.542 52.39C815.782 51.95 815.902 51.3 815.902 50.44C815.902 49.54 815.782 48.885 815.542 48.475C815.312 48.055 814.932 47.845 814.402 47.845ZM805.582 35.935C805.052 35.935 804.662 36.16 804.412 36.61C804.172 37.06 804.052 37.705 804.052 38.545C804.052 39.345 804.177 39.98 804.427 40.45C804.677 40.92 805.062 41.155 805.582 41.155C806.112 41.155 806.492 40.935 806.722 40.495C806.962 40.045 807.082 39.395 807.082 38.545C807.082 37.645 806.962 36.985 806.722 36.565C806.492 36.145 806.112 35.935 805.582 35.935ZM805.582 33.805C806.482 33.805 807.252 34.01 807.892 34.42C808.542 34.82 809.037 35.38 809.377 36.1C809.717 36.81 809.887 37.625 809.887 38.545C809.887 39.445 809.717 40.255 809.377 40.975C809.037 41.695 808.542 42.26 807.892 42.67C807.252 43.08 806.482 43.285 805.582 43.285C804.672 43.285 803.892 43.08 803.242 42.67C802.592 42.26 802.097 41.695 801.757 40.975C801.417 40.255 801.247 39.445 801.247 38.545C801.247 37.645 801.417 36.84 801.757 36.13C802.097 35.41 802.592 34.845 803.242 34.435C803.892 34.015 804.672 33.805 805.582 33.805ZM814.402 45.7C815.302 45.7 816.072 45.905 816.712 46.315C817.362 46.725 817.857 47.285 818.197 47.995C818.537 48.705 818.707 49.52 818.707 50.44C818.707 51.35 818.537 52.165 818.197 52.885C817.857 53.595 817.362 54.155 816.712 54.565C816.072 54.975 815.302 55.18 814.402 55.18C813.492 55.18 812.712 54.975 812.062 54.565C811.412 54.155 810.917 53.595 810.577 52.885C810.237 52.165 810.067 51.35 810.067 50.44C810.067 49.55 810.237 48.745 810.577 48.025C810.917 47.305 811.412 46.74 812.062 46.33C812.712 45.91 813.492 45.7 814.402 45.7Z" fill="white"/>
<rect x="895.5" y="5.5" width="199" height="77" rx="4.5" fill="#0037AC" stroke="white"/>
<path d="M973.205 33.805C974.695 33.805 975.945 34.07 976.955 34.6C977.975 35.13 978.745 35.845 979.265 36.745C979.785 37.635 980.045 38.615 980.045 39.685C980.045 40.565 979.895 41.425 979.595 42.265C979.295 43.105 978.805 43.99 978.125 44.92C977.455 45.85 976.565 46.885 975.455 48.025C974.345 49.155 972.975 50.445 971.345 51.895H980.525L980.09 55H966.815V52.105C968.245 50.725 969.48 49.51 970.52 48.46C971.56 47.4 972.43 46.465 973.13 45.655C973.84 44.845 974.4 44.12 974.81 43.48C975.23 42.83 975.53 42.225 975.71 41.665C975.89 41.105 975.98 40.545 975.98 39.985C975.98 39.035 975.705 38.285 975.155 37.735C974.615 37.185 973.855 36.91 972.875 36.91C972.005 36.91 971.265 37.08 970.655 37.42C970.055 37.75 969.465 38.29 968.885 39.04L966.395 37.15C967.185 36.09 968.125 35.27 969.215 34.69C970.305 34.1 971.635 33.805 973.205 33.805ZM998.138 34.255L997.673 37.165H989.873V42.355C990.423 42.085 990.973 41.895 991.523 41.785C992.073 41.675 992.603 41.62 993.113 41.62C994.203 41.62 995.183 41.885 996.053 42.415C996.933 42.945 997.623 43.71 998.123 44.71C998.633 45.7 998.888 46.89 998.888 48.28C998.888 49.67 998.563 50.91 997.913 52C997.273 53.08 996.373 53.925 995.213 54.535C994.053 55.145 992.693 55.45 991.133 55.45C989.723 55.45 988.468 55.19 987.368 54.67C986.278 54.15 985.343 53.45 984.563 52.57L986.873 50.425C987.423 51.065 988.038 51.55 988.718 51.88C989.398 52.2 990.128 52.36 990.908 52.36C992.098 52.36 993.043 52 993.743 51.28C994.443 50.55 994.793 49.555 994.793 48.295C994.793 47.345 994.658 46.59 994.388 46.03C994.118 45.47 993.748 45.065 993.278 44.815C992.808 44.565 992.268 44.44 991.658 44.44C991.198 44.44 990.743 44.495 990.293 44.605C989.853 44.705 989.378 44.88 988.868 45.13H986.093V34.255H998.138ZM1014.57 33.61L1016.77 34.66L1005.15 55.78L1002.96 54.73L1014.57 33.61ZM1014.4 47.845C1013.87 47.845 1013.48 48.065 1013.23 48.505C1012.99 48.945 1012.87 49.59 1012.87 50.44C1012.87 51.24 1013 51.875 1013.25 52.345C1013.5 52.815 1013.88 53.05 1014.4 53.05C1014.93 53.05 1015.31 52.83 1015.54 52.39C1015.78 51.95 1015.9 51.3 1015.9 50.44C1015.9 49.54 1015.78 48.885 1015.54 48.475C1015.31 48.055 1014.93 47.845 1014.4 47.845ZM1005.58 35.935C1005.05 35.935 1004.66 36.16 1004.41 36.61C1004.17 37.06 1004.05 37.705 1004.05 38.545C1004.05 39.345 1004.18 39.98 1004.43 40.45C1004.68 40.92 1005.06 41.155 1005.58 41.155C1006.11 41.155 1006.49 40.935 1006.72 40.495C1006.96 40.045 1007.08 39.395 1007.08 38.545C1007.08 37.645 1006.96 36.985 1006.72 36.565C1006.49 36.145 1006.11 35.935 1005.58 35.935ZM1005.58 33.805C1006.48 33.805 1007.25 34.01 1007.89 34.42C1008.54 34.82 1009.04 35.38 1009.38 36.1C1009.72 36.81 1009.89 37.625 1009.89 38.545C1009.89 39.445 1009.72 40.255 1009.38 40.975C1009.04 41.695 1008.54 42.26 1007.89 42.67C1007.25 43.08 1006.48 43.285 1005.58 43.285C1004.67 43.285 1003.89 43.08 1003.24 42.67C1002.59 42.26 1002.1 41.695 1001.76 40.975C1001.42 40.255 1001.25 39.445 1001.25 38.545C1001.25 37.645 1001.42 36.84 1001.76 36.13C1002.1 35.41 1002.59 34.845 1003.24 34.435C1003.89 34.015 1004.67 33.805 1005.58 33.805ZM1014.4 45.7C1015.3 45.7 1016.07 45.905 1016.71 46.315C1017.36 46.725 1017.86 47.285 1018.2 47.995C1018.54 48.705 1018.71 49.52 1018.71 50.44C1018.71 51.35 1018.54 52.165 1018.2 52.885C1017.86 53.595 1017.36 54.155 1016.71 54.565C1016.07 54.975 1015.3 55.18 1014.4 55.18C1013.49 55.18 1012.71 54.975 1012.06 54.565C1011.41 54.155 1010.92 53.595 1010.58 52.885C1010.24 52.165 1010.07 51.35 1010.07 50.44C1010.07 49.55 1010.24 48.745 1010.58 48.025C1010.92 47.305 1011.41 46.74 1012.06 46.33C1012.71 45.91 1013.49 45.7 1014.4 45.7Z" fill="white"/>
<path d="M496.01 104.62C496.01 106.02 495.875 107.325 495.605 108.535C495.335 109.735 494.88 110.795 494.24 111.715C493.61 112.635 492.755 113.38 491.675 113.95C492.715 114.13 493.605 114.405 494.345 114.775C495.095 115.135 495.73 115.645 496.25 116.305C496.77 116.975 497.215 117.85 497.585 118.93L494.015 120.19C493.585 119.14 493.11 118.255 492.59 117.535C492.08 116.825 491.435 116.285 490.655 115.915C489.885 115.555 488.9 115.375 487.7 115.375C486.02 115.375 484.615 114.94 483.485 114.07C482.365 113.19 481.52 111.95 480.95 110.35C480.39 108.75 480.11 106.845 480.11 104.635C480.11 102.475 480.405 100.585 480.995 98.965C481.585 97.335 482.465 96.07 483.635 95.17C484.815 94.26 486.29 93.805 488.06 93.805C489.83 93.805 491.3 94.245 492.47 95.125C493.65 96.005 494.535 97.255 495.125 98.875C495.715 100.495 496.01 102.41 496.01 104.62ZM491.735 104.62C491.735 102.01 491.465 100.075 490.925 98.815C490.395 97.545 489.44 96.91 488.06 96.91C486.69 96.91 485.73 97.545 485.18 98.815C484.63 100.085 484.355 102.025 484.355 104.635C484.355 107.255 484.635 109.195 485.195 110.455C485.765 111.715 486.72 112.345 488.06 112.345C489.45 112.345 490.41 111.71 490.94 110.44C491.47 109.17 491.735 107.23 491.735 104.62ZM509.123 94.255V114.4H505.238V98.245L500.813 100.99L499.118 98.245L505.628 94.255H509.123ZM513.158 111.955V115H500.213V111.955H513.158Z" fill="black"/>
<path d="M694.01 104.62C694.01 106.02 693.875 107.325 693.605 108.535C693.335 109.735 692.88 110.795 692.24 111.715C691.61 112.635 690.755 113.38 689.675 113.95C690.715 114.13 691.605 114.405 692.345 114.775C693.095 115.135 693.73 115.645 694.25 116.305C694.77 116.975 695.215 117.85 695.585 118.93L692.015 120.19C691.585 119.14 691.11 118.255 690.59 117.535C690.08 116.825 689.435 116.285 688.655 115.915C687.885 115.555 686.9 115.375 685.7 115.375C684.02 115.375 682.615 114.94 681.485 114.07C680.365 113.19 679.52 111.95 678.95 110.35C678.39 108.75 678.11 106.845 678.11 104.635C678.11 102.475 678.405 100.585 678.995 98.965C679.585 97.335 680.465 96.07 681.635 95.17C682.815 94.26 684.29 93.805 686.06 93.805C687.83 93.805 689.3 94.245 690.47 95.125C691.65 96.005 692.535 97.255 693.125 98.875C693.715 100.495 694.01 102.41 694.01 104.62ZM689.735 104.62C689.735 102.01 689.465 100.075 688.925 98.815C688.395 97.545 687.44 96.91 686.06 96.91C684.69 96.91 683.73 97.545 683.18 98.815C682.63 100.085 682.355 102.025 682.355 104.635C682.355 107.255 682.635 109.195 683.195 110.455C683.765 111.715 684.72 112.345 686.06 112.345C687.45 112.345 688.41 111.71 688.94 110.44C689.47 109.17 689.735 107.23 689.735 104.62ZM703.193 93.805C704.683 93.805 705.933 94.07 706.943 94.6C707.963 95.13 708.733 95.845 709.253 96.745C709.773 97.635 710.033 98.615 710.033 99.685C710.033 100.565 709.883 101.425 709.583 102.265C709.283 103.105 708.793 103.99 708.113 104.92C707.443 105.85 706.553 106.885 705.443 108.025C704.333 109.155 702.963 110.445 701.333 111.895H710.513L710.078 115H696.803V112.105C698.233 110.725 699.468 109.51 700.508 108.46C701.548 107.4 702.418 106.465 703.118 105.655C703.828 104.845 704.388 104.12 704.798 103.48C705.218 102.83 705.518 102.225 705.698 101.665C705.878 101.105 705.968 100.545 705.968 99.985C705.968 99.035 705.693 98.285 705.143 97.735C704.603 97.185 703.843 96.91 702.863 96.91C701.993 96.91 701.253 97.08 700.643 97.42C700.043 97.75 699.453 98.29 698.873 99.04L696.383 97.15C697.173 96.09 698.113 95.27 699.203 94.69C700.293 94.1 701.623 93.805 703.193 93.805Z" fill="black"/>
<path d="M896.01 104.62C896.01 106.02 895.875 107.325 895.605 108.535C895.335 109.735 894.88 110.795 894.24 111.715C893.61 112.635 892.755 113.38 891.675 113.95C892.715 114.13 893.605 114.405 894.345 114.775C895.095 115.135 895.73 115.645 896.25 116.305C896.77 116.975 897.215 117.85 897.585 118.93L894.015 120.19C893.585 119.14 893.11 118.255 892.59 117.535C892.08 116.825 891.435 116.285 890.655 115.915C889.885 115.555 888.9 115.375 887.7 115.375C886.02 115.375 884.615 114.94 883.485 114.07C882.365 113.19 881.52 111.95 880.95 110.35C880.39 108.75 880.11 106.845 880.11 104.635C880.11 102.475 880.405 100.585 880.995 98.965C881.585 97.335 882.465 96.07 883.635 95.17C884.815 94.26 886.29 93.805 888.06 93.805C889.83 93.805 891.3 94.245 892.47 95.125C893.65 96.005 894.535 97.255 895.125 98.875C895.715 100.495 896.01 102.41 896.01 104.62ZM891.735 104.62C891.735 102.01 891.465 100.075 890.925 98.815C890.395 97.545 889.44 96.91 888.06 96.91C886.69 96.91 885.73 97.545 885.18 98.815C884.63 100.085 884.355 102.025 884.355 104.635C884.355 107.255 884.635 109.195 885.195 110.455C885.765 111.715 886.72 112.345 888.06 112.345C889.45 112.345 890.41 111.71 890.94 110.44C891.47 109.17 891.735 107.23 891.735 104.62ZM905.118 93.805C906.548 93.805 907.768 94.045 908.778 94.525C909.798 94.995 910.578 95.63 911.118 96.43C911.658 97.23 911.928 98.11 911.928 99.07C911.928 99.93 911.748 100.695 911.388 101.365C911.038 102.025 910.548 102.575 909.918 103.015C909.298 103.455 908.578 103.78 907.758 103.99C908.668 104.1 909.483 104.35 910.203 104.74C910.933 105.12 911.513 105.67 911.943 106.39C912.373 107.1 912.588 108.01 912.588 109.12C912.588 110.29 912.273 111.355 911.643 112.315C911.013 113.275 910.118 114.04 908.958 114.61C907.808 115.17 906.443 115.45 904.863 115.45C903.453 115.45 902.148 115.2 900.948 114.7C899.748 114.19 898.728 113.445 897.888 112.465L900.213 110.365C900.803 111.055 901.478 111.56 902.238 111.88C903.008 112.2 903.808 112.36 904.638 112.36C905.808 112.36 906.743 112.06 907.443 111.46C908.153 110.85 908.508 109.995 908.508 108.895C908.508 108.075 908.353 107.42 908.043 106.93C907.733 106.43 907.293 106.07 906.723 105.85C906.163 105.62 905.498 105.505 904.728 105.505H902.883L903.348 102.685H904.653C905.283 102.685 905.853 102.575 906.363 102.355C906.883 102.135 907.293 101.8 907.593 101.35C907.903 100.9 908.058 100.335 908.058 99.655C908.058 98.755 907.743 98.055 907.113 97.555C906.483 97.045 905.693 96.79 904.743 96.79C903.883 96.79 903.118 96.95 902.448 97.27C901.778 97.59 901.128 98.045 900.498 98.635L898.443 96.46C899.363 95.57 900.378 94.905 901.488 94.465C902.608 94.025 903.818 93.805 905.118 93.805Z" fill="black"/>
<path d="M1085.24 115V94.255H1089.35V111.67H1098.5L1098.07 115H1085.24ZM1105.08 119.272C1105.56 119.272 1105.94 119.197 1106.23 119.047C1106.52 118.897 1106.67 118.672 1106.67 118.372C1106.67 118.168 1106.61 117.997 1106.5 117.859C1106.38 117.721 1106.16 117.589 1105.84 117.463C1105.51 117.337 1105.03 117.187 1104.4 117.013C1103.82 116.857 1103.3 116.659 1102.85 116.419C1102.41 116.179 1102.06 115.87 1101.81 115.492C1101.56 115.114 1101.44 114.643 1101.44 114.079C1101.44 113.509 1101.6 113.002 1101.91 112.558C1102.23 112.114 1102.7 111.766 1103.32 111.514C1103.94 111.256 1104.69 111.127 1105.59 111.127C1106.44 111.127 1107.18 111.238 1107.81 111.46C1108.45 111.676 1108.99 111.952 1109.46 112.288L1108.32 113.962C1107.93 113.716 1107.5 113.521 1107.04 113.377C1106.59 113.227 1106.13 113.152 1105.67 113.152C1105.21 113.152 1104.86 113.215 1104.63 113.341C1104.41 113.461 1104.3 113.644 1104.3 113.89C1104.3 114.052 1104.36 114.193 1104.47 114.313C1104.59 114.427 1104.81 114.547 1105.14 114.673C1105.46 114.793 1105.93 114.943 1106.56 115.123C1107.18 115.297 1107.71 115.498 1108.17 115.726C1108.63 115.954 1108.99 116.26 1109.24 116.644C1109.49 117.022 1109.62 117.523 1109.62 118.147C1109.62 118.843 1109.41 119.428 1109 119.902C1108.58 120.37 1108.03 120.721 1107.35 120.955C1106.67 121.189 1105.92 121.306 1105.1 121.306C1104.18 121.306 1103.36 121.174 1102.65 120.91C1101.94 120.646 1101.34 120.298 1100.84 119.866L1102.27 118.264C1102.65 118.552 1103.07 118.792 1103.53 118.984C1104.01 119.176 1104.52 119.272 1105.08 119.272Z" fill="black"/>
<path d="M284.24 115V94.255H288.35V111.67H297.5L297.065 115H284.24ZM306.089 111.442V119.056H308.519V121H300.536V119.056H303.245V113.386H300.626V111.442H306.089ZM304.37 106.438C304.862 106.438 305.264 106.591 305.576 106.897C305.888 107.203 306.044 107.584 306.044 108.04C306.044 108.496 305.888 108.88 305.576 109.192C305.264 109.498 304.862 109.651 304.37 109.651C303.872 109.651 303.464 109.498 303.146 109.192C302.834 108.88 302.678 108.496 302.678 108.04C302.678 107.584 302.834 107.203 303.146 106.897C303.464 106.591 303.872 106.438 304.37 106.438Z" fill="black"/>
</svg>
