<svg width="1400" height="394" viewBox="0 0 1400 394" fill="none" xmlns="http://www.w3.org/2000/svg">
<rect width="1400" height="394" fill="white"/>
<rect x="505.39" y="367.186" width="19.1617" height="19.1617" rx="3.74252" fill="#0037AC"/>
<path d="M512.812 372.192C512.685 371.882 512.247 371.882 512.12 372.192L511.92 372.678C511.883 372.769 511.883 372.871 511.92 372.962L514.593 379.522C514.693 379.768 514.512 380.037 514.247 380.037H511.586H510.687C510.421 380.037 510.24 379.767 510.341 379.521L510.803 378.397C510.84 378.306 510.84 378.205 510.803 378.114L510.593 377.599C510.467 377.288 510.028 377.288 509.9 377.598L508.644 380.659C508.543 380.905 508.724 381.175 508.99 381.175H515.942C516.208 381.175 516.389 380.905 516.288 380.659L512.812 372.192Z" fill="white"/>
<path d="M515.348 374.011C515.247 373.765 515.428 373.496 515.694 373.496H518.355H519.253C519.519 373.496 519.701 373.766 519.599 374.012L519.138 375.136C519.101 375.227 519.101 375.329 519.138 375.419L519.348 375.934C519.474 376.245 519.913 376.245 520.04 375.935L521.297 372.874C521.398 372.628 521.217 372.358 520.951 372.358H513.999C513.732 372.358 513.551 372.628 513.652 372.874L517.128 381.341C517.256 381.651 517.694 381.651 517.821 381.341L518.021 380.855C518.058 380.764 518.058 380.662 518.021 380.571L515.348 374.011Z" fill="white"/>
<path d="M536.368 378.455H533.656L533.128 380.281H531.83L534.245 372.69H535.829L538.25 380.281H536.896L536.368 378.455ZM533.92 377.47H536.099L535.015 373.68L533.92 377.47ZM540.545 374.472V378.532C540.545 378.877 540.613 379.122 540.748 379.269C540.888 379.416 541.097 379.489 541.375 379.489C541.64 379.489 541.894 379.41 542.14 379.253C542.386 379.095 542.58 378.902 542.723 378.675V374.472H543.955V380.281H542.894L542.817 379.539C542.6 379.828 542.327 380.05 541.997 380.204C541.667 380.355 541.33 380.43 540.985 380.43C540.424 380.43 540.004 380.276 539.725 379.968C539.45 379.656 539.313 379.229 539.313 378.686V374.472H540.545ZM550.762 379.973C550.549 380.109 550.294 380.219 549.997 380.303C549.7 380.388 549.39 380.43 549.067 380.43C548.392 380.43 547.879 380.256 547.527 379.907C547.179 379.555 547.004 379.093 547.004 378.521V375.369H545.712V374.472H547.004V373.174L548.237 373.025V374.472H550.195L550.057 375.369H548.237V378.51C548.237 378.822 548.314 379.055 548.468 379.209C548.625 379.359 548.882 379.434 549.238 379.434C549.45 379.434 549.647 379.408 549.826 379.357C550.006 379.306 550.169 379.24 550.316 379.159L550.762 379.973ZM554.834 374.318C555.402 374.318 555.881 374.445 556.269 374.698C556.658 374.951 556.952 375.305 557.15 375.759C557.351 376.214 557.452 376.75 557.452 377.366C557.452 377.978 557.349 378.515 557.144 378.977C556.942 379.436 556.645 379.793 556.253 380.05C555.864 380.303 555.389 380.43 554.828 380.43C554.267 380.43 553.79 380.307 553.398 380.061C553.009 379.812 552.712 379.458 552.507 378.999C552.305 378.541 552.204 378 552.204 377.377C552.204 376.772 552.305 376.24 552.507 375.781C552.712 375.323 553.011 374.965 553.403 374.709C553.796 374.448 554.272 374.318 554.834 374.318ZM554.834 375.275C554.39 375.275 554.056 375.446 553.832 375.787C553.609 376.124 553.497 376.654 553.497 377.377C553.497 378.095 553.607 378.625 553.827 378.966C554.051 379.308 554.384 379.478 554.828 379.478C555.272 379.478 555.604 379.308 555.824 378.966C556.048 378.625 556.159 378.092 556.159 377.366C556.159 376.651 556.049 376.124 555.829 375.787C555.609 375.446 555.277 375.275 554.834 375.275ZM559.159 380.281V379.401H560.011V375.347H559.159V374.472H560.952L561.178 375.82C561.394 375.332 561.662 374.962 561.981 374.709C562.303 374.452 562.718 374.324 563.224 374.324C563.396 374.324 563.55 374.338 563.686 374.368C563.825 374.393 563.963 374.428 564.099 374.472L563.73 375.528C563.613 375.495 563.503 375.471 563.4 375.457C563.297 375.438 563.184 375.429 563.059 375.429C562.637 375.429 562.272 375.587 561.964 375.902C561.66 376.218 561.42 376.665 561.244 377.245V379.401H562.415V380.281H559.159ZM563.009 376.612V375.182L563.163 374.472H564.099L563.89 376.612H563.009ZM567.026 379.434C567.026 379.166 567.122 378.937 567.313 378.746C567.503 378.552 567.738 378.455 568.017 378.455C568.299 378.455 568.534 378.552 568.721 378.746C568.912 378.937 569.007 379.166 569.007 379.434C569.007 379.709 568.912 379.944 568.721 380.138C568.534 380.333 568.299 380.43 568.017 380.43C567.738 380.43 567.503 380.333 567.313 380.138C567.122 379.944 567.026 379.709 567.026 379.434ZM567.026 375.528C567.026 375.349 567.07 375.184 567.158 375.033C567.247 374.883 567.366 374.764 567.516 374.676C567.666 374.588 567.833 374.544 568.017 374.544C568.299 374.544 568.534 374.641 568.721 374.835C568.912 375.026 569.007 375.257 569.007 375.528C569.007 375.8 568.912 376.034 568.721 376.232C568.534 376.427 568.299 376.524 568.017 376.524C567.738 376.524 567.503 376.427 567.313 376.232C567.122 376.034 567.026 375.8 567.026 375.528ZM583.714 372.657V377.536C583.714 377.98 583.646 378.382 583.51 378.741C583.375 379.1 583.175 379.407 582.911 379.66C582.65 379.913 582.329 380.107 581.948 380.243C581.57 380.378 581.137 380.446 580.65 380.446C580.158 380.446 579.733 380.384 579.373 380.259C579.018 380.131 578.675 379.955 578.345 379.731L579.032 378.62C579.293 378.8 579.537 378.926 579.764 378.999C579.991 379.069 580.25 379.104 580.54 379.104C580.932 379.104 581.258 378.979 581.519 378.73C581.783 378.477 581.915 378.086 581.915 377.558V373.977H579.571V372.657H583.714ZM587.813 374.247C588.415 374.247 588.926 374.375 589.348 374.632C589.77 374.888 590.093 375.25 590.316 375.715C590.54 376.177 590.652 376.72 590.652 377.344C590.652 377.993 590.538 378.552 590.311 379.021C590.087 379.487 589.764 379.845 589.343 380.094C588.921 380.344 588.411 380.468 587.813 380.468C587.219 380.468 586.709 380.345 586.284 380.1C585.862 379.854 585.538 379.498 585.31 379.032C585.087 378.567 584.975 378.007 584.975 377.355C584.975 376.735 585.087 376.192 585.31 375.726C585.538 375.261 585.862 374.897 586.284 374.637C586.709 374.377 587.219 374.247 587.813 374.247ZM587.813 375.528C587.458 375.528 587.193 375.675 587.021 375.968C586.852 376.258 586.768 376.72 586.768 377.355C586.768 378 586.852 378.468 587.021 378.757C587.193 379.047 587.458 379.192 587.813 379.192C588.169 379.192 588.431 379.047 588.6 378.757C588.772 378.468 588.858 377.996 588.858 377.344C588.858 376.713 588.772 376.253 588.6 375.963C588.431 375.673 588.169 375.528 587.813 375.528ZM594.223 379.225C594.513 379.225 594.746 379.179 594.922 379.088C595.102 378.996 595.191 378.858 595.191 378.675C595.191 378.55 595.157 378.446 595.087 378.361C595.017 378.277 594.883 378.196 594.685 378.119C594.487 378.042 594.194 377.951 593.805 377.844C593.449 377.749 593.134 377.628 592.859 377.481C592.588 377.334 592.375 377.146 592.221 376.915C592.07 376.684 591.995 376.396 591.995 376.051C591.995 375.702 592.092 375.393 592.287 375.121C592.481 374.85 592.767 374.637 593.145 374.483C593.523 374.325 593.985 374.247 594.531 374.247C595.052 374.247 595.505 374.314 595.89 374.45C596.279 374.582 596.614 374.751 596.897 374.956L596.204 375.979C595.962 375.829 595.701 375.71 595.423 375.622C595.144 375.53 594.863 375.484 594.581 375.484C594.298 375.484 594.088 375.523 593.948 375.6C593.813 375.673 593.745 375.785 593.745 375.935C593.745 376.034 593.78 376.121 593.849 376.194C593.923 376.264 594.058 376.337 594.256 376.414C594.454 376.487 594.744 376.579 595.125 376.689C595.503 376.795 595.831 376.918 596.11 377.058C596.393 377.197 596.611 377.384 596.765 377.619C596.919 377.85 596.996 378.156 596.996 378.537C596.996 378.963 596.869 379.32 596.616 379.61C596.363 379.896 596.028 380.111 595.61 380.254C595.191 380.397 594.733 380.468 594.234 380.468C593.669 380.468 593.171 380.388 592.738 380.226C592.305 380.065 591.937 379.852 591.632 379.588L592.507 378.609C592.734 378.785 592.991 378.932 593.277 379.049C593.567 379.166 593.882 379.225 594.223 379.225ZM599.984 377.866C600.024 378.185 600.107 378.444 600.232 378.642C600.36 378.836 600.523 378.979 600.721 379.071C600.919 379.159 601.141 379.203 601.387 379.203C601.655 379.203 601.913 379.159 602.163 379.071C602.412 378.983 602.652 378.866 602.883 378.719L603.582 379.665C603.307 379.9 602.973 380.092 602.581 380.243C602.192 380.393 601.748 380.468 601.249 380.468C600.582 380.468 600.023 380.336 599.572 380.072C599.12 379.804 598.781 379.438 598.554 378.972C598.326 378.506 598.213 377.971 598.213 377.366C598.213 376.79 598.323 376.267 598.543 375.798C598.763 375.325 599.084 374.949 599.506 374.67C599.931 374.388 600.45 374.247 601.062 374.247C601.62 374.247 602.102 374.366 602.509 374.604C602.92 374.842 603.237 375.185 603.461 375.633C603.688 376.08 603.802 376.618 603.802 377.245C603.802 377.344 603.798 377.45 603.791 377.564C603.787 377.677 603.78 377.778 603.769 377.866H599.984ZM601.062 375.413C600.751 375.413 600.499 375.525 600.309 375.748C600.118 375.972 600.002 376.33 599.962 376.821H602.108C602.104 376.396 602.021 376.055 601.86 375.798C601.699 375.541 601.433 375.413 601.062 375.413ZM608.309 374.247C608.818 374.247 609.229 374.373 609.541 374.626C609.852 374.879 610.08 375.237 610.223 375.699C610.37 376.161 610.443 376.709 610.443 377.344C610.443 377.945 610.355 378.482 610.179 378.955C610.003 379.425 609.748 379.795 609.414 380.067C609.081 380.334 608.675 380.468 608.198 380.468C607.63 380.468 607.168 380.265 606.812 379.858V382.537L605.074 382.718V374.439H606.614L606.691 375.094C606.93 374.789 607.19 374.573 607.472 374.445C607.755 374.313 608.033 374.247 608.309 374.247ZM607.769 375.528C607.568 375.528 607.39 375.589 607.236 375.71C607.082 375.831 606.941 375.996 606.812 376.205V378.669C606.933 378.849 607.06 378.981 607.192 379.066C607.327 379.15 607.487 379.192 607.67 379.192C607.978 379.192 608.219 379.053 608.391 378.774C608.563 378.492 608.65 378.022 608.65 377.366C608.65 376.882 608.615 376.507 608.545 376.243C608.475 375.976 608.375 375.791 608.242 375.688C608.11 375.581 607.953 375.528 607.769 375.528ZM613.409 371.947V375.017C613.655 374.756 613.921 374.564 614.207 374.439C614.497 374.311 614.803 374.247 615.126 374.247C615.646 374.247 616.044 374.399 616.319 374.703C616.594 375.008 616.732 375.437 616.732 375.99V380.281H614.994V376.474C614.994 376.122 614.953 375.877 614.873 375.737C614.796 375.598 614.649 375.528 614.432 375.528C614.311 375.528 614.192 375.558 614.075 375.616C613.961 375.671 613.849 375.752 613.739 375.858C613.629 375.965 613.519 376.091 613.409 376.238V380.281H611.671V372.118L613.409 371.947ZM630.344 378.053C630.344 378.526 630.219 378.944 629.97 379.308C629.724 379.671 629.37 379.955 628.908 380.16C628.446 380.366 627.891 380.468 627.241 380.468C626.523 380.468 625.919 380.364 625.432 380.155C624.947 379.942 624.546 379.68 624.227 379.368L625.14 378.356C625.422 378.602 625.734 378.792 626.075 378.928C626.416 379.06 626.79 379.126 627.197 379.126C627.45 379.126 627.672 379.089 627.863 379.016C628.054 378.943 628.202 378.836 628.309 378.697C628.415 378.558 628.468 378.389 628.468 378.191C628.468 378.004 628.426 377.846 628.342 377.718C628.257 377.589 628.114 377.474 627.913 377.371C627.715 377.268 627.438 377.164 627.082 377.058C626.488 376.874 626.009 376.673 625.646 376.452C625.287 376.232 625.024 375.978 624.859 375.688C624.698 375.398 624.617 375.061 624.617 374.676C624.617 374.21 624.746 373.812 625.002 373.482C625.263 373.152 625.611 372.901 626.048 372.728C626.484 372.552 626.965 372.464 627.489 372.464C628.079 372.464 628.6 372.55 629.051 372.723C629.502 372.891 629.893 373.133 630.223 373.449L629.37 374.428C629.114 374.212 628.837 374.052 628.54 373.949C628.243 373.843 627.94 373.79 627.632 373.79C627.405 373.79 627.205 373.819 627.032 373.878C626.86 373.933 626.726 374.015 626.631 374.126C626.535 374.236 626.488 374.373 626.488 374.538C626.488 374.699 626.534 374.835 626.625 374.945C626.717 375.055 626.877 375.16 627.104 375.259C627.331 375.354 627.647 375.466 628.05 375.594C628.531 375.741 628.941 375.917 629.282 376.122C629.627 376.324 629.889 376.579 630.069 376.887C630.252 377.195 630.344 377.584 630.344 378.053ZM636.38 378.598C636.38 378.818 636.409 378.977 636.468 379.077C636.53 379.176 636.629 379.251 636.765 379.302L636.407 380.446C636.063 380.413 635.771 380.338 635.533 380.221C635.298 380.1 635.113 379.918 634.977 379.676C634.753 379.944 634.467 380.144 634.119 380.276C633.771 380.404 633.415 380.468 633.052 380.468C632.45 380.468 631.97 380.298 631.611 379.957C631.255 379.612 631.077 379.17 631.077 378.631C631.077 377.996 631.324 377.507 631.82 377.162C632.318 376.817 633.019 376.645 633.921 376.645H634.708V376.425C634.708 376.121 634.609 375.895 634.411 375.748C634.216 375.602 633.93 375.528 633.552 375.528C633.365 375.528 633.125 375.556 632.832 375.611C632.538 375.662 632.245 375.737 631.952 375.836L631.55 374.681C631.928 374.538 632.32 374.43 632.727 374.357C633.138 374.283 633.505 374.247 633.827 374.247C634.697 374.247 635.338 374.424 635.753 374.78C636.171 375.132 636.38 375.642 636.38 376.309V378.598ZM633.651 379.225C633.838 379.225 634.035 379.17 634.24 379.06C634.445 378.946 634.601 378.787 634.708 378.581V377.635H634.279C633.794 377.635 633.439 377.71 633.211 377.861C632.984 378.007 632.87 378.224 632.87 378.51C632.87 378.734 632.938 378.91 633.074 379.038C633.213 379.163 633.406 379.225 633.651 379.225ZM638.059 380.281V374.439H639.577L639.698 375.116C639.959 374.822 640.234 374.604 640.524 374.461C640.813 374.318 641.143 374.247 641.514 374.247C642.012 374.247 642.405 374.399 642.691 374.703C642.977 375.008 643.12 375.437 643.12 375.99V380.281H641.382V376.491C641.382 376.253 641.365 376.064 641.332 375.924C641.299 375.781 641.241 375.68 641.156 375.622C641.075 375.559 640.964 375.528 640.821 375.528C640.7 375.528 640.58 375.556 640.463 375.611C640.349 375.662 640.237 375.737 640.127 375.836C640.017 375.935 639.907 376.055 639.797 376.194V380.281H638.059ZM649.915 379.94C649.688 380.087 649.413 380.212 649.09 380.314C648.767 380.417 648.404 380.468 648.001 380.468C647.238 380.468 646.671 380.274 646.301 379.885C645.93 379.493 645.745 378.961 645.745 378.29V375.638H644.519V374.439H645.745V373.174L647.484 372.965V374.439H649.365L649.194 375.638H647.484V378.29C647.484 378.58 647.55 378.787 647.682 378.911C647.814 379.036 648.025 379.099 648.314 379.099C648.52 379.099 648.707 379.075 648.875 379.027C649.048 378.976 649.202 378.911 649.338 378.834L649.915 379.94ZM654.823 374.439V379.093H656.309V380.281H651.429V379.093H653.085V375.627H651.484V374.439H654.823ZM653.773 371.38C654.073 371.38 654.319 371.474 654.51 371.661C654.7 371.848 654.796 372.081 654.796 372.36C654.796 372.638 654.7 372.873 654.51 373.064C654.319 373.251 654.073 373.344 653.773 373.344C653.468 373.344 653.219 373.251 653.024 373.064C652.834 372.873 652.738 372.638 652.738 372.36C652.738 372.081 652.834 371.848 653.024 371.661C653.219 371.474 653.468 371.38 653.773 371.38ZM662.768 378.598C662.768 378.818 662.797 378.977 662.856 379.077C662.918 379.176 663.018 379.251 663.153 379.302L662.796 380.446C662.451 380.413 662.159 380.338 661.921 380.221C661.686 380.1 661.501 379.918 661.365 379.676C661.142 379.944 660.856 380.144 660.507 380.276C660.159 380.404 659.803 380.468 659.44 380.468C658.838 380.468 658.358 380.298 657.999 379.957C657.643 379.612 657.465 379.17 657.465 378.631C657.465 377.996 657.713 377.507 658.208 377.162C658.706 376.817 659.407 376.645 660.309 376.645H661.096V376.425C661.096 376.121 660.997 375.895 660.799 375.748C660.604 375.602 660.318 375.528 659.941 375.528C659.754 375.528 659.513 375.556 659.22 375.611C658.927 375.662 658.633 375.737 658.34 375.836L657.938 374.681C658.316 374.538 658.708 374.43 659.115 374.357C659.526 374.283 659.893 374.247 660.216 374.247C661.085 374.247 661.727 374.424 662.141 374.78C662.559 375.132 662.768 375.642 662.768 376.309V378.598ZM660.04 379.225C660.227 379.225 660.423 379.17 660.628 379.06C660.834 378.946 660.989 378.787 661.096 378.581V377.635H660.667C660.183 377.635 659.827 377.71 659.599 377.861C659.372 378.007 659.258 378.224 659.258 378.51C659.258 378.734 659.326 378.91 659.462 379.038C659.601 379.163 659.794 379.225 660.04 379.225ZM669.635 373.504L670.042 374.78C669.836 374.861 669.596 374.92 669.321 374.956C669.046 374.993 668.725 375.011 668.358 375.011C668.725 375.169 669.004 375.365 669.195 375.6C669.389 375.831 669.486 376.135 669.486 376.513C669.486 376.891 669.385 377.228 669.184 377.525C668.982 377.819 668.696 378.05 668.325 378.218C667.955 378.387 667.517 378.471 667.011 378.471C666.886 378.471 666.769 378.466 666.659 378.455C666.549 378.444 666.44 378.427 666.334 378.405C666.272 378.438 666.224 378.486 666.191 378.548C666.158 378.611 666.141 378.675 666.141 378.741C666.141 378.833 666.178 378.915 666.252 378.988C666.329 379.062 666.506 379.099 666.785 379.099H667.742C668.197 379.099 668.589 379.172 668.92 379.319C669.253 379.465 669.512 379.665 669.695 379.918C669.879 380.171 669.97 380.461 669.97 380.787C669.97 381.385 669.708 381.856 669.184 382.201C668.659 382.546 667.88 382.718 666.846 382.718C666.097 382.718 665.518 382.641 665.107 382.487C664.7 382.337 664.416 382.12 664.255 381.838C664.097 381.559 664.018 381.227 664.018 380.842H665.558C665.558 381.011 665.591 381.149 665.657 381.255C665.727 381.365 665.857 381.446 666.048 381.497C666.242 381.548 666.523 381.574 666.89 381.574C667.26 381.574 667.542 381.545 667.737 381.486C667.931 381.427 668.063 381.347 668.133 381.244C668.206 381.145 668.243 381.033 668.243 380.908C668.243 380.736 668.175 380.597 668.039 380.49C667.904 380.384 667.689 380.331 667.396 380.331H666.466C665.835 380.331 665.377 380.215 665.091 379.984C664.805 379.749 664.662 379.476 664.662 379.165C664.662 378.948 664.719 378.743 664.832 378.548C664.95 378.354 665.113 378.191 665.322 378.059C664.948 377.861 664.68 377.628 664.519 377.36C664.357 377.089 664.277 376.764 664.277 376.386C664.277 375.946 664.388 375.569 664.612 375.253C664.836 374.934 665.144 374.688 665.536 374.516C665.932 374.344 666.384 374.258 666.89 374.258C667.326 374.265 667.706 374.236 668.028 374.17C668.351 374.1 668.641 374.006 668.898 373.889C669.154 373.768 669.4 373.64 669.635 373.504ZM666.934 375.385C666.659 375.385 666.44 375.473 666.279 375.649C666.118 375.822 666.037 376.06 666.037 376.364C666.037 376.687 666.119 376.935 666.285 377.107C666.45 377.279 666.666 377.366 666.934 377.366C667.223 377.366 667.443 377.279 667.594 377.107C667.748 376.935 667.825 376.68 667.825 376.342C667.825 376.016 667.75 375.776 667.599 375.622C667.449 375.464 667.227 375.385 666.934 375.385ZM673.575 374.247C674.176 374.247 674.688 374.375 675.11 374.632C675.531 374.888 675.854 375.25 676.078 375.715C676.301 376.177 676.413 376.72 676.413 377.344C676.413 377.993 676.3 378.552 676.072 379.021C675.849 379.487 675.526 379.845 675.104 380.094C674.682 380.344 674.173 380.468 673.575 380.468C672.981 380.468 672.471 380.345 672.045 380.1C671.624 379.854 671.299 379.498 671.072 379.032C670.848 378.567 670.736 378.007 670.736 377.355C670.736 376.735 670.848 376.192 671.072 375.726C671.299 375.261 671.624 374.897 672.045 374.637C672.471 374.377 672.981 374.247 673.575 374.247ZM673.575 375.528C673.219 375.528 672.955 375.675 672.783 375.968C672.614 376.258 672.53 376.72 672.53 377.355C672.53 378 672.614 378.468 672.783 378.757C672.955 379.047 673.219 379.192 673.575 379.192C673.93 379.192 674.193 379.047 674.361 378.757C674.534 378.468 674.62 377.996 674.62 377.344C674.62 376.713 674.534 376.253 674.361 375.963C674.193 375.673 673.93 375.528 673.575 375.528ZM687.952 375.143C687.952 374.872 687.9 374.648 687.797 374.472C687.698 374.292 687.546 374.16 687.341 374.076C687.139 373.988 686.884 373.944 686.576 373.944H685.96V376.436H686.67C686.937 376.436 687.167 376.39 687.357 376.298C687.548 376.207 687.695 376.066 687.797 375.875C687.9 375.684 687.952 375.44 687.952 375.143ZM689.811 375.138C689.811 375.728 689.684 376.216 689.431 376.601C689.178 376.986 688.824 377.274 688.37 377.465C687.915 377.652 687.387 377.745 686.785 377.745H685.96V380.281H684.156V372.657H686.554C687.588 372.657 688.39 372.862 688.958 373.273C689.527 373.684 689.811 374.305 689.811 375.138ZM693.366 374.247C693.967 374.247 694.479 374.375 694.901 374.632C695.322 374.888 695.645 375.25 695.869 375.715C696.093 376.177 696.204 376.72 696.204 377.344C696.204 377.993 696.091 378.552 695.863 379.021C695.64 379.487 695.317 379.845 694.895 380.094C694.473 380.344 693.964 380.468 693.366 380.468C692.772 380.468 692.262 380.345 691.836 380.1C691.415 379.854 691.09 379.498 690.863 379.032C690.639 378.567 690.527 378.007 690.527 377.355C690.527 376.735 690.639 376.192 690.863 375.726C691.09 375.261 691.415 374.897 691.836 374.637C692.262 374.377 692.772 374.247 693.366 374.247ZM693.366 375.528C693.01 375.528 692.746 375.675 692.574 375.968C692.405 376.258 692.321 376.72 692.321 377.355C692.321 378 692.405 378.468 692.574 378.757C692.746 379.047 693.01 379.192 693.366 379.192C693.722 379.192 693.984 379.047 694.152 378.757C694.325 378.468 694.411 377.996 694.411 377.344C694.411 376.713 694.325 376.253 694.152 375.963C693.984 375.673 693.722 375.528 693.366 375.528ZM697.487 380.281V379.115H698.257V375.594H697.487V374.439H699.583L699.902 375.754C700.111 375.251 700.377 374.877 700.7 374.632C701.026 374.386 701.424 374.263 701.894 374.263C702.092 374.263 702.268 374.28 702.422 374.313C702.576 374.342 702.721 374.384 702.856 374.439L702.328 375.875C702.222 375.846 702.116 375.824 702.009 375.809C701.903 375.794 701.786 375.787 701.657 375.787C701.276 375.787 700.94 375.943 700.65 376.254C700.364 376.566 700.146 376.962 699.996 377.443V379.115H701.151V380.281H697.487ZM701.443 376.882V375.176L701.701 374.439H702.856L702.532 376.882H701.443ZM709.288 379.94C709.061 380.087 708.786 380.212 708.463 380.314C708.141 380.417 707.777 380.468 707.374 380.468C706.611 380.468 706.045 380.274 705.674 379.885C705.304 379.493 705.119 378.961 705.119 378.29V375.638H703.892V374.439H705.119V373.174L706.857 372.965V374.439H708.738L708.568 375.638H706.857V378.29C706.857 378.58 706.923 378.787 707.055 378.911C707.187 379.036 707.398 379.099 707.688 379.099C707.893 379.099 708.08 379.075 708.249 379.027C708.421 378.976 708.575 378.911 708.711 378.834L709.288 379.94ZM714.197 374.439V379.093H715.682V380.281H710.802V379.093H712.458V375.627H710.857V374.439H714.197ZM713.146 371.38C713.447 371.38 713.692 371.474 713.883 371.661C714.074 371.848 714.169 372.081 714.169 372.36C714.169 372.638 714.074 372.873 713.883 373.064C713.692 373.251 713.447 373.344 713.146 373.344C712.842 373.344 712.592 373.251 712.398 373.064C712.207 372.873 712.112 372.638 712.112 372.36C712.112 372.081 712.207 371.848 712.398 371.661C712.592 371.474 712.842 371.38 713.146 371.38ZM720.271 372.118V378.444C720.271 378.679 720.337 378.847 720.469 378.95C720.605 379.049 720.79 379.099 721.025 379.099C721.175 379.099 721.32 379.082 721.459 379.049C721.599 379.012 721.729 378.97 721.85 378.922L722.268 380.083C722.07 380.186 721.832 380.276 721.553 380.353C721.274 380.43 720.95 380.468 720.579 380.468C719.875 380.468 719.358 380.267 719.028 379.863C718.698 379.456 718.533 378.911 718.533 378.229V373.306H716.811V372.118H720.271ZM726.868 372.118V378.444C726.868 378.679 726.934 378.847 727.066 378.95C727.202 379.049 727.387 379.099 727.622 379.099C727.772 379.099 727.917 379.082 728.056 379.049C728.196 379.012 728.326 378.97 728.447 378.922L728.865 380.083C728.667 380.186 728.429 380.276 728.15 380.353C727.871 380.43 727.547 380.468 727.176 380.468C726.472 380.468 725.955 380.267 725.625 379.863C725.295 379.456 725.13 378.911 725.13 378.229V373.306H723.408V372.118H726.868ZM735.336 378.598C735.336 378.818 735.365 378.977 735.424 379.077C735.486 379.176 735.585 379.251 735.721 379.302L735.363 380.446C735.018 380.413 734.727 380.338 734.488 380.221C734.254 380.1 734.068 379.918 733.933 379.676C733.709 379.944 733.423 380.144 733.075 380.276C732.726 380.404 732.37 380.468 732.007 380.468C731.406 380.468 730.925 380.298 730.566 379.957C730.21 379.612 730.032 379.17 730.032 378.631C730.032 377.996 730.28 377.507 730.775 377.162C731.274 376.817 731.974 376.645 732.877 376.645H733.663V376.425C733.663 376.121 733.564 375.895 733.366 375.748C733.172 375.602 732.886 375.528 732.508 375.528C732.321 375.528 732.081 375.556 731.787 375.611C731.494 375.662 731.201 375.737 730.907 375.836L730.506 374.681C730.883 374.538 731.276 374.43 731.683 374.357C732.094 374.283 732.46 374.247 732.783 374.247C733.652 374.247 734.294 374.424 734.708 374.78C735.126 375.132 735.336 375.642 735.336 376.309V378.598ZM732.607 379.225C732.794 379.225 732.99 379.17 733.196 379.06C733.401 378.946 733.557 378.787 733.663 378.581V377.635H733.234C732.75 377.635 732.394 377.71 732.167 377.861C731.939 378.007 731.826 378.224 731.826 378.51C731.826 378.734 731.894 378.91 732.029 379.038C732.169 379.163 732.361 379.225 732.607 379.225ZM737.163 377.514V376.161H741.927V377.514H737.163ZM748.821 372.657L749.25 380.281H747.677L747.583 377.019C747.576 376.715 747.572 376.443 747.572 376.205C747.576 375.967 747.582 375.743 747.589 375.534C747.596 375.321 747.607 375.108 747.622 374.896C747.64 374.679 747.659 374.445 747.677 374.192L746.819 378.983H745.454L744.53 374.192C744.552 374.434 744.571 374.663 744.585 374.879C744.604 375.092 744.616 375.306 744.624 375.523C744.631 375.739 744.637 375.972 744.64 376.221C744.644 376.467 744.642 376.742 744.635 377.047L744.58 380.281H743.034L743.463 372.657H745.317L746.164 377.586L746.967 372.657H748.821ZM755.127 378.598C755.127 378.818 755.156 378.977 755.215 379.077C755.277 379.176 755.376 379.251 755.512 379.302L755.154 380.446C754.809 380.413 754.518 380.338 754.279 380.221C754.045 380.1 753.86 379.918 753.724 379.676C753.5 379.944 753.214 380.144 752.866 380.276C752.517 380.404 752.161 380.468 751.798 380.468C751.197 380.468 750.717 380.298 750.357 379.957C750.001 379.612 749.824 379.17 749.824 378.631C749.824 377.996 750.071 377.507 750.566 377.162C751.065 376.817 751.765 376.645 752.668 376.645H753.454V376.425C753.454 376.121 753.355 375.895 753.157 375.748C752.963 375.602 752.677 375.528 752.299 375.528C752.112 375.528 751.872 375.556 751.578 375.611C751.285 375.662 750.992 375.737 750.698 375.836L750.297 374.681C750.674 374.538 751.067 374.43 751.474 374.357C751.885 374.283 752.251 374.247 752.574 374.247C753.443 374.247 754.085 374.424 754.499 374.78C754.918 375.132 755.127 375.642 755.127 376.309V378.598ZM752.398 379.225C752.585 379.225 752.781 379.17 752.987 379.06C753.192 378.946 753.348 378.787 753.454 378.581V377.635H753.025C752.541 377.635 752.185 377.71 751.958 377.861C751.731 378.007 751.617 378.224 751.617 378.51C751.617 378.734 751.685 378.91 751.82 379.038C751.96 379.163 752.152 379.225 752.398 379.225ZM756.861 380.281V379.115H757.631V375.594H756.861V374.439H758.957L759.276 375.754C759.485 375.251 759.751 374.877 760.073 374.632C760.4 374.386 760.798 374.263 761.267 374.263C761.465 374.263 761.641 374.28 761.795 374.313C761.949 374.342 762.094 374.384 762.23 374.439L761.702 375.875C761.595 375.846 761.489 375.824 761.383 375.809C761.276 375.794 761.159 375.787 761.03 375.787C760.649 375.787 760.314 375.943 760.024 376.254C759.738 376.566 759.52 376.962 759.369 377.443V379.115H760.524V380.281H756.861ZM760.816 376.882V375.176L761.074 374.439H762.23L761.905 376.882H760.816ZM768.662 379.94C768.434 380.087 768.159 380.212 767.837 380.314C767.514 380.417 767.151 380.468 766.747 380.468C765.985 380.468 765.418 380.274 765.048 379.885C764.677 379.493 764.492 378.961 764.492 378.29V375.638H763.265V374.439H764.492V373.174L766.23 372.965V374.439H768.112L767.941 375.638H766.23V378.29C766.23 378.58 766.296 378.787 766.428 378.911C766.56 379.036 766.771 379.099 767.061 379.099C767.266 379.099 767.453 379.075 767.622 379.027C767.794 378.976 767.948 378.911 768.084 378.834L768.662 379.94ZM773.57 374.439V379.093H775.055V380.281H770.176V379.093H771.832V375.627H770.231V374.439H773.57ZM773.355 371.094L774.032 372.404L771.435 373.432L770.957 372.552L773.355 371.094ZM776.597 380.281V374.439H778.115L778.236 375.116C778.496 374.822 778.772 374.604 779.061 374.461C779.351 374.318 779.681 374.247 780.051 374.247C780.55 374.247 780.943 374.399 781.229 374.703C781.515 375.008 781.658 375.437 781.658 375.99V380.281H779.919V376.491C779.919 376.253 779.903 376.064 779.87 375.924C779.837 375.781 779.778 375.68 779.694 375.622C779.613 375.559 779.501 375.528 779.358 375.528C779.237 375.528 779.118 375.556 779.001 375.611C778.887 375.662 778.775 375.737 778.665 375.836C778.555 375.935 778.445 376.055 778.335 376.194V380.281H776.597ZM784.701 377.866C784.741 378.185 784.824 378.444 784.949 378.642C785.077 378.836 785.24 378.979 785.438 379.071C785.636 379.159 785.858 379.203 786.104 379.203C786.372 379.203 786.63 379.159 786.88 379.071C787.129 378.983 787.369 378.866 787.6 378.719L788.299 379.665C788.024 379.9 787.69 380.092 787.298 380.243C786.909 380.393 786.465 380.468 785.966 380.468C785.299 380.468 784.74 380.336 784.288 380.072C783.837 379.804 783.498 379.438 783.271 378.972C783.043 378.506 782.93 377.971 782.93 377.366C782.93 376.79 783.04 376.267 783.26 375.798C783.48 375.325 783.801 374.949 784.222 374.67C784.648 374.388 785.167 374.247 785.779 374.247C786.337 374.247 786.819 374.366 787.226 374.604C787.637 374.842 787.954 375.185 788.178 375.633C788.405 376.08 788.519 376.618 788.519 377.245C788.519 377.344 788.515 377.45 788.508 377.564C788.504 377.677 788.497 377.778 788.486 377.866H784.701ZM785.779 375.413C785.468 375.413 785.216 375.525 785.026 375.748C784.835 375.972 784.719 376.33 784.679 376.821H786.825C786.821 376.396 786.738 376.055 786.577 375.798C786.416 375.541 786.15 375.413 785.779 375.413ZM791.865 378.966H794.791L794.626 380.281H789.813V379.055L792.712 375.748H790.055V374.439H794.736V375.66L791.865 378.966ZM806.077 370.379V383.582H804.954V370.379H806.077ZM818.544 372.536C819.095 372.536 819.564 372.616 819.953 372.778C820.341 372.935 820.662 373.157 820.915 373.443C821.172 373.726 821.372 374.059 821.515 374.445C821.658 374.83 821.759 375.248 821.818 375.699C821.876 376.15 821.906 376.618 821.906 377.102C821.906 378.026 821.862 378.8 821.774 379.423C821.686 380.043 821.521 380.509 821.278 380.82C821.04 381.136 820.695 381.293 820.244 381.293C820.024 381.293 819.832 381.244 819.667 381.145C819.505 381.046 819.371 380.918 819.265 380.76C819.162 380.606 819.084 380.439 819.029 380.259C818.977 380.076 818.948 379.904 818.94 379.742H818.896C818.823 379.918 818.722 380.087 818.594 380.248C818.466 380.41 818.302 380.542 818.104 380.644C817.906 380.747 817.664 380.798 817.378 380.798C816.967 380.798 816.637 380.688 816.388 380.468C816.139 380.252 815.957 379.953 815.843 379.572C815.73 379.19 815.673 378.759 815.673 378.279C815.673 377.344 815.864 376.63 816.245 376.139C816.626 375.644 817.178 375.396 817.901 375.396C818.172 375.396 818.44 375.429 818.704 375.495C818.972 375.558 819.26 375.671 819.568 375.836V379.104C819.568 379.452 819.595 379.722 819.65 379.913C819.705 380.103 819.78 380.235 819.876 380.309C819.975 380.382 820.087 380.419 820.211 380.419C820.358 380.419 820.472 380.344 820.552 380.193C820.637 380.043 820.697 379.826 820.734 379.544C820.771 379.258 820.793 378.913 820.8 378.51C820.807 378.106 820.811 377.652 820.811 377.146C820.811 376.603 820.78 376.106 820.717 375.655C820.659 375.2 820.547 374.808 820.382 374.478C820.22 374.148 819.989 373.893 819.689 373.713C819.388 373.533 818.997 373.443 818.517 373.443C818.147 373.443 817.756 373.513 817.345 373.652C816.938 373.792 816.509 374.059 816.058 374.456L815.464 373.768C815.963 373.335 816.467 373.022 816.977 372.827C817.49 372.633 818.013 372.536 818.544 372.536ZM817.917 376.232C817.496 376.232 817.208 376.397 817.054 376.728C816.9 377.054 816.823 377.571 816.823 378.279C816.823 378.631 816.845 378.932 816.889 379.181C816.933 379.43 817.01 379.621 817.12 379.753C817.23 379.885 817.378 379.951 817.565 379.951C817.789 379.951 817.963 379.9 818.088 379.797C818.213 379.694 818.306 379.573 818.368 379.434C818.431 379.291 818.478 379.166 818.511 379.06V376.375C818.412 376.324 818.317 376.287 818.225 376.265C818.134 376.243 818.031 376.232 817.917 376.232ZM827.804 372.657V377.536C827.804 377.98 827.736 378.382 827.6 378.741C827.465 379.1 827.265 379.407 827.001 379.66C826.74 379.913 826.42 380.107 826.038 380.243C825.66 380.378 825.228 380.446 824.74 380.446C824.248 380.446 823.823 380.384 823.464 380.259C823.108 380.131 822.765 379.955 822.435 379.731L823.123 378.62C823.383 378.8 823.627 378.926 823.854 378.999C824.082 379.069 824.34 379.104 824.63 379.104C825.022 379.104 825.349 378.979 825.609 378.73C825.873 378.477 826.005 378.086 826.005 377.558V373.977H823.662V372.657H827.804ZM831.904 374.247C832.505 374.247 833.017 374.375 833.438 374.632C833.86 374.888 834.183 375.25 834.407 375.715C834.63 376.177 834.742 376.72 834.742 377.344C834.742 377.993 834.628 378.552 834.401 379.021C834.177 379.487 833.855 379.845 833.433 380.094C833.011 380.344 832.501 380.468 831.904 380.468C831.309 380.468 830.8 380.345 830.374 380.1C829.952 379.854 829.628 379.498 829.401 379.032C829.177 378.567 829.065 378.007 829.065 377.355C829.065 376.735 829.177 376.192 829.401 375.726C829.628 375.261 829.952 374.897 830.374 374.637C830.8 374.377 831.309 374.247 831.904 374.247ZM831.904 375.528C831.548 375.528 831.284 375.675 831.111 375.968C830.943 376.258 830.858 376.72 830.858 377.355C830.858 378 830.943 378.468 831.111 378.757C831.284 379.047 831.548 379.192 831.904 379.192C832.259 379.192 832.521 379.047 832.69 378.757C832.863 378.468 832.949 377.996 832.949 377.344C832.949 376.713 832.863 376.253 832.69 375.963C832.521 375.673 832.259 375.528 831.904 375.528ZM837.477 377.866C837.518 378.185 837.6 378.444 837.725 378.642C837.853 378.836 838.016 378.979 838.214 379.071C838.413 379.159 838.634 379.203 838.88 379.203C839.148 379.203 839.406 379.159 839.656 379.071C839.905 378.983 840.145 378.866 840.376 378.719L841.075 379.665C840.8 379.9 840.466 380.092 840.074 380.243C839.685 380.393 839.241 380.468 838.743 380.468C838.075 380.468 837.516 380.336 837.065 380.072C836.614 379.804 836.274 379.438 836.047 378.972C835.82 378.506 835.706 377.971 835.706 377.366C835.706 376.79 835.816 376.267 836.036 375.798C836.256 375.325 836.577 374.949 836.999 374.67C837.424 374.388 837.943 374.247 838.556 374.247C839.113 374.247 839.595 374.366 840.002 374.604C840.413 374.842 840.73 375.185 840.954 375.633C841.181 376.08 841.295 376.618 841.295 377.245C841.295 377.344 841.291 377.45 841.284 377.564C841.28 377.677 841.273 377.778 841.262 377.866H837.477ZM838.556 375.413C838.244 375.413 837.993 375.525 837.802 375.748C837.611 375.972 837.496 376.33 837.455 376.821H839.601C839.597 376.396 839.515 376.055 839.353 375.798C839.192 375.541 838.926 375.413 838.556 375.413ZM846.28 375.143C846.28 374.872 846.229 374.648 846.126 374.472C846.027 374.292 845.875 374.16 845.67 374.076C845.468 373.988 845.213 373.944 844.905 373.944H844.289V376.436H844.999C845.266 376.436 845.496 376.39 845.686 376.298C845.877 376.207 846.024 376.066 846.126 375.875C846.229 375.684 846.28 375.44 846.28 375.143ZM848.14 375.138C848.14 375.728 848.013 376.216 847.76 376.601C847.507 376.986 847.153 377.274 846.698 377.465C846.244 377.652 845.716 377.745 845.114 377.745H844.289V380.281H842.485V372.657H844.883C845.917 372.657 846.719 372.862 847.287 373.273C847.855 373.684 848.14 374.305 848.14 375.138ZM851.695 374.247C852.296 374.247 852.808 374.375 853.229 374.632C853.651 374.888 853.974 375.25 854.198 375.715C854.421 376.177 854.533 376.72 854.533 377.344C854.533 377.993 854.42 378.552 854.192 379.021C853.968 379.487 853.646 379.845 853.224 380.094C852.802 380.344 852.292 380.468 851.695 380.468C851.1 380.468 850.591 380.345 850.165 380.1C849.744 379.854 849.419 379.498 849.192 379.032C848.968 378.567 848.856 378.007 848.856 377.355C848.856 376.735 848.968 376.192 849.192 375.726C849.419 375.261 849.744 374.897 850.165 374.637C850.591 374.377 851.1 374.247 851.695 374.247ZM851.695 375.528C851.339 375.528 851.075 375.675 850.902 375.968C850.734 376.258 850.649 376.72 850.649 377.355C850.649 378 850.734 378.468 850.902 378.757C851.075 379.047 851.339 379.192 851.695 379.192C852.05 379.192 852.313 379.047 852.481 378.757C852.654 378.468 852.74 377.996 852.74 377.344C852.74 376.713 852.654 376.253 852.481 375.963C852.313 375.673 852.05 375.528 851.695 375.528ZM855.816 380.281V379.115H856.586V375.594H855.816V374.439H857.912L858.231 375.754C858.44 375.251 858.706 374.877 859.029 374.632C859.355 374.386 859.753 374.263 860.223 374.263C860.421 374.263 860.597 374.28 860.751 374.313C860.905 374.342 861.05 374.384 861.185 374.439L860.657 375.875C860.551 375.846 860.444 375.824 860.338 375.809C860.232 375.794 860.114 375.787 859.986 375.787C859.605 375.787 859.269 375.943 858.979 376.254C858.693 376.566 858.475 376.962 858.325 377.443V379.115H859.48V380.281H855.816ZM859.771 376.882V375.176L860.03 374.439H861.185L860.861 376.882H859.771ZM867.617 379.94C867.39 380.087 867.115 380.212 866.792 380.314C866.469 380.417 866.106 380.468 865.703 380.468C864.94 380.468 864.373 380.274 864.003 379.885C863.633 379.493 863.447 378.961 863.447 378.29V375.638H862.221V374.439H863.447V373.174L865.186 372.965V374.439H867.067L866.897 375.638H865.186V378.29C865.186 378.58 865.252 378.787 865.384 378.911C865.516 379.036 865.727 379.099 866.016 379.099C866.222 379.099 866.409 379.075 866.578 379.027C866.75 378.976 866.904 378.911 867.04 378.834L867.617 379.94ZM872.525 374.439V379.093H874.011V380.281H869.131V379.093H870.787V375.627H869.186V374.439H872.525ZM871.475 371.38C871.775 371.38 872.021 371.474 872.212 371.661C872.403 371.848 872.498 372.081 872.498 372.36C872.498 372.638 872.403 372.873 872.212 373.064C872.021 373.251 871.775 373.344 871.475 373.344C871.17 373.344 870.921 373.251 870.727 373.064C870.536 372.873 870.441 372.638 870.441 372.36C870.441 372.081 870.536 371.848 870.727 371.661C870.921 371.474 871.17 371.38 871.475 371.38ZM878.6 372.118V378.444C878.6 378.679 878.666 378.847 878.798 378.95C878.934 379.049 879.119 379.099 879.354 379.099C879.504 379.099 879.649 379.082 879.788 379.049C879.927 379.012 880.058 378.97 880.179 378.922L880.597 380.083C880.399 380.186 880.16 380.276 879.882 380.353C879.603 380.43 879.278 380.468 878.908 380.468C878.204 380.468 877.687 380.267 877.357 379.863C877.027 379.456 876.862 378.911 876.862 378.229V373.306H875.14V372.118H878.6ZM885.197 372.118V378.444C885.197 378.679 885.263 378.847 885.395 378.95C885.531 379.049 885.716 379.099 885.951 379.099C886.101 379.099 886.246 379.082 886.385 379.049C886.524 379.012 886.655 378.97 886.776 378.922L887.194 380.083C886.996 380.186 886.757 380.276 886.479 380.353C886.2 380.43 885.875 380.468 885.505 380.468C884.801 380.468 884.284 380.267 883.954 379.863C883.624 379.456 883.459 378.911 883.459 378.229V373.306H881.737V372.118H885.197ZM893.664 378.598C893.664 378.818 893.694 378.977 893.752 379.077C893.815 379.176 893.914 379.251 894.049 379.302L893.692 380.446C893.347 380.413 893.056 380.338 892.817 380.221C892.582 380.1 892.397 379.918 892.262 379.676C892.038 379.944 891.752 380.144 891.403 380.276C891.055 380.404 890.699 380.468 890.336 380.468C889.735 380.468 889.254 380.298 888.895 379.957C888.539 379.612 888.361 379.17 888.361 378.631C888.361 377.996 888.609 377.507 889.104 377.162C889.603 376.817 890.303 376.645 891.205 376.645H891.992V376.425C891.992 376.121 891.893 375.895 891.695 375.748C891.501 375.602 891.214 375.528 890.837 375.528C890.65 375.528 890.409 375.556 890.116 375.611C889.823 375.662 889.529 375.737 889.236 375.836L888.834 374.681C889.212 374.538 889.604 374.43 890.012 374.357C890.422 374.283 890.789 374.247 891.112 374.247C891.981 374.247 892.623 374.424 893.037 374.78C893.455 375.132 893.664 375.642 893.664 376.309V378.598ZM890.936 379.225C891.123 379.225 891.319 379.17 891.524 379.06C891.73 378.946 891.886 378.787 891.992 378.581V377.635H891.563C891.079 377.635 890.723 377.71 890.496 377.861C890.268 378.007 890.155 378.224 890.155 378.51C890.155 378.734 890.222 378.91 890.358 379.038C890.498 379.163 890.69 379.225 890.936 379.225Z" fill="black"/>
<rect x="543" y="29" width="77.1792" height="77.1792" rx="2" fill="#345E77"/>
<rect x="543" y="187" width="77.1792" height="77.1792" rx="2" fill="#BCBCBC"/>
<rect x="622" y="29" width="77.1792" height="77.1792" rx="2" fill="#BCBCBC"/>
<rect x="622" y="187" width="77.1792" height="77.1792" rx="2" fill="#BCBCBC"/>
<rect x="701" y="29" width="77.1792" height="77.1792" rx="2" fill="#BCBCBC"/>
<rect x="780" y="29" width="77.1792" height="77.1792" rx="2" fill="#BCBCBC"/>
<rect x="701" y="187" width="77.1792" height="77.1792" rx="2" fill="#5C87E1"/>
<rect x="780" y="187" width="77.1792" height="77.1792" rx="2" fill="#BCBCBC"/>
<rect x="543" y="108" width="77.1792" height="77.1792" rx="2" fill="#BCBCBC"/>
<rect x="543" y="266" width="77.1792" height="77.1792" rx="2" fill="#BCBCBC"/>
<rect x="622" y="108" width="77.1792" height="77.1792" rx="2" fill="#3D5C8B"/>
<rect x="622" y="266" width="77.1792" height="77.1792" rx="2" fill="#BCBCBC"/>
<rect x="701" y="108" width="77.1792" height="77.1792" rx="2" fill="#BCBCBC"/>
<rect x="780" y="108" width="77.1792" height="77.1792" rx="2" fill="#BCBCBC"/>
<rect x="701" y="266" width="77.1792" height="77.1792" rx="2" fill="#BCBCBC"/>
<rect x="780" y="266" width="77.1792" height="77.1792" rx="2" fill="#99CCC5"/>
</svg>
