<svg width="1400" height="350" viewBox="0 0 1400 350" fill="none" xmlns="http://www.w3.org/2000/svg">
<rect width="1400" height="350" fill="white"/>
<rect x="505.39" y="323.186" width="19.1617" height="19.1617" rx="3.74252" fill="#0037AC"/>
<path d="M512.812 328.192C512.685 327.882 512.247 327.882 512.12 328.192L511.92 328.678C511.883 328.769 511.883 328.871 511.92 328.962L514.593 335.522C514.693 335.768 514.512 336.037 514.247 336.037H511.586H510.687C510.421 336.037 510.24 335.767 510.341 335.521L510.803 334.397C510.84 334.306 510.84 334.205 510.803 334.114L510.593 333.599C510.467 333.288 510.028 333.288 509.9 333.598L508.644 336.659C508.543 336.905 508.724 337.175 508.99 337.175H515.942C516.208 337.175 516.389 336.905 516.288 336.659L512.812 328.192Z" fill="white"/>
<path d="M515.348 330.012C515.247 329.765 515.428 329.496 515.694 329.496H518.355H519.253C519.519 329.496 519.701 329.766 519.599 330.013L519.138 331.136C519.101 331.227 519.101 331.329 519.138 331.42L519.348 331.935C519.474 332.245 519.913 332.245 520.04 331.935L521.297 328.875C521.398 328.628 521.217 328.358 520.951 328.358H513.999C513.732 328.358 513.551 328.628 513.652 328.875L517.128 337.342C517.256 337.651 517.694 337.651 517.821 337.342L518.021 336.855C518.058 336.764 518.058 336.662 518.021 336.572L515.348 330.012Z" fill="white"/>
<path d="M536.368 334.455H533.656L533.128 336.282H531.83L534.245 328.69H535.829L538.25 336.282H536.896L536.368 334.455ZM533.92 333.471H536.099L535.015 329.68L533.92 333.471ZM540.545 330.473V334.532C540.545 334.877 540.613 335.123 540.748 335.27C540.888 335.416 541.097 335.49 541.375 335.49C541.64 335.49 541.894 335.411 542.14 335.253C542.386 335.095 542.58 334.903 542.723 334.675V330.473H543.955V336.282H542.894L542.817 335.539C542.6 335.829 542.327 336.051 541.997 336.205C541.667 336.355 541.33 336.43 540.985 336.43C540.424 336.43 540.004 336.276 539.725 335.968C539.45 335.656 539.313 335.229 539.313 334.686V330.473H540.545ZM550.762 335.974C550.549 336.109 550.294 336.219 549.997 336.304C549.7 336.388 549.39 336.43 549.067 336.43C548.392 336.43 547.879 336.256 547.527 335.908C547.179 335.556 547.004 335.093 547.004 334.521V331.369H545.712V330.473H547.004V329.174L548.237 329.026V330.473H550.195L550.057 331.369H548.237V334.51C548.237 334.822 548.314 335.055 548.468 335.209C548.625 335.359 548.882 335.435 549.238 335.435C549.45 335.435 549.647 335.409 549.826 335.358C550.006 335.306 550.169 335.24 550.316 335.16L550.762 335.974ZM554.834 330.319C555.402 330.319 555.881 330.445 556.269 330.698C556.658 330.951 556.952 331.305 557.15 331.76C557.351 332.215 557.452 332.75 557.452 333.366C557.452 333.979 557.349 334.516 557.144 334.978C556.942 335.436 556.645 335.794 556.253 336.051C555.864 336.304 555.389 336.43 554.828 336.43C554.267 336.43 553.79 336.307 553.398 336.062C553.009 335.812 552.712 335.458 552.507 335C552.305 334.542 552.204 334.001 552.204 333.377C552.204 332.772 552.305 332.24 552.507 331.782C552.712 331.323 553.011 330.966 553.403 330.709C553.796 330.449 554.272 330.319 554.834 330.319ZM554.834 331.276C554.39 331.276 554.056 331.446 553.832 331.787C553.609 332.125 553.497 332.655 553.497 333.377C553.497 334.096 553.607 334.626 553.827 334.967C554.051 335.308 554.384 335.479 554.828 335.479C555.272 335.479 555.604 335.308 555.824 334.967C556.048 334.626 556.159 334.092 556.159 333.366C556.159 332.651 556.049 332.125 555.829 331.787C555.609 331.446 555.277 331.276 554.834 331.276ZM559.159 336.282V335.402H560.011V331.347H559.159V330.473H560.952L561.178 331.82C561.394 331.333 561.662 330.962 561.981 330.709C562.303 330.452 562.718 330.324 563.224 330.324C563.396 330.324 563.55 330.339 563.686 330.368C563.825 330.394 563.963 330.429 564.099 330.473L563.73 331.529C563.613 331.496 563.503 331.472 563.4 331.457C563.297 331.439 563.184 331.43 563.059 331.43C562.637 331.43 562.272 331.587 561.964 331.903C561.66 332.218 561.42 332.666 561.244 333.245V335.402H562.415V336.282H559.159ZM563.009 332.612V331.182L563.163 330.473H564.099L563.89 332.612H563.009ZM567.026 335.435C567.026 335.167 567.122 334.938 567.313 334.747C567.503 334.553 567.738 334.455 568.017 334.455C568.299 334.455 568.534 334.553 568.721 334.747C568.912 334.938 569.007 335.167 569.007 335.435C569.007 335.71 568.912 335.944 568.721 336.139C568.534 336.333 568.299 336.43 568.017 336.43C567.738 336.43 567.503 336.333 567.313 336.139C567.122 335.944 567.026 335.71 567.026 335.435ZM567.026 331.529C567.026 331.349 567.07 331.184 567.158 331.034C567.247 330.883 567.366 330.764 567.516 330.676C567.666 330.588 567.833 330.544 568.017 330.544C568.299 330.544 568.534 330.641 568.721 330.836C568.912 331.026 569.007 331.257 569.007 331.529C569.007 331.8 568.912 332.035 568.721 332.233C568.534 332.427 568.299 332.524 568.017 332.524C567.738 332.524 567.503 332.427 567.313 332.233C567.122 332.035 567.026 331.8 567.026 331.529ZM583.714 328.657V333.537C583.714 333.98 583.646 334.382 583.51 334.741C583.375 335.101 583.175 335.407 582.911 335.66C582.65 335.913 582.329 336.108 581.948 336.243C581.57 336.379 581.137 336.447 580.65 336.447C580.158 336.447 579.733 336.384 579.373 336.26C579.018 336.131 578.675 335.955 578.345 335.732L579.032 334.62C579.293 334.8 579.537 334.927 579.764 335C579.991 335.07 580.25 335.105 580.54 335.105C580.932 335.105 581.258 334.98 581.519 334.73C581.783 334.477 581.915 334.087 581.915 333.559V329.977H579.571V328.657H583.714ZM587.813 330.247C588.415 330.247 588.926 330.375 589.348 330.632C589.77 330.889 590.093 331.25 590.316 331.716C590.54 332.178 590.652 332.721 590.652 333.344C590.652 333.993 590.538 334.553 590.311 335.022C590.087 335.488 589.764 335.845 589.343 336.095C588.921 336.344 588.411 336.469 587.813 336.469C587.219 336.469 586.709 336.346 586.284 336.1C585.862 335.854 585.538 335.499 585.31 335.033C585.087 334.567 584.975 334.008 584.975 333.355C584.975 332.735 585.087 332.193 585.31 331.727C585.538 331.261 585.862 330.898 586.284 330.638C586.709 330.377 587.219 330.247 587.813 330.247ZM587.813 331.529C587.458 331.529 587.193 331.675 587.021 331.969C586.852 332.259 586.768 332.721 586.768 333.355C586.768 334.001 586.852 334.468 587.021 334.758C587.193 335.048 587.458 335.193 587.813 335.193C588.169 335.193 588.431 335.048 588.6 334.758C588.772 334.468 588.858 333.997 588.858 333.344C588.858 332.713 588.772 332.253 588.6 331.963C588.431 331.674 588.169 331.529 587.813 331.529ZM594.223 335.226C594.513 335.226 594.746 335.18 594.922 335.088C595.102 334.996 595.191 334.859 595.191 334.675C595.191 334.551 595.157 334.446 595.087 334.362C595.017 334.278 594.883 334.197 594.685 334.12C594.487 334.043 594.194 333.951 593.805 333.845C593.449 333.749 593.134 333.628 592.859 333.482C592.588 333.335 592.375 333.146 592.221 332.915C592.07 332.684 591.995 332.396 591.995 332.051C591.995 331.703 592.092 331.393 592.287 331.122C592.481 330.85 592.767 330.638 593.145 330.484C593.523 330.326 593.985 330.247 594.531 330.247C595.052 330.247 595.505 330.315 595.89 330.451C596.279 330.583 596.614 330.751 596.897 330.957L596.204 331.98C595.962 331.83 595.701 331.71 595.423 331.622C595.144 331.531 594.863 331.485 594.581 331.485C594.298 331.485 594.088 331.523 593.948 331.6C593.813 331.674 593.745 331.785 593.745 331.936C593.745 332.035 593.78 332.121 593.849 332.194C593.923 332.264 594.058 332.337 594.256 332.414C594.454 332.488 594.744 332.579 595.125 332.69C595.503 332.796 595.831 332.919 596.11 333.058C596.393 333.197 596.611 333.384 596.765 333.619C596.919 333.85 596.996 334.156 596.996 334.538C596.996 334.963 596.869 335.321 596.616 335.611C596.363 335.897 596.028 336.111 595.61 336.254C595.191 336.397 594.733 336.469 594.234 336.469C593.669 336.469 593.171 336.388 592.738 336.227C592.305 336.065 591.937 335.853 591.632 335.589L592.507 334.609C592.734 334.785 592.991 334.932 593.277 335.049C593.567 335.167 593.882 335.226 594.223 335.226ZM599.984 333.867C600.024 334.186 600.107 334.444 600.232 334.642C600.36 334.837 600.523 334.98 600.721 335.071C600.919 335.16 601.141 335.204 601.387 335.204C601.655 335.204 601.913 335.16 602.163 335.071C602.412 334.983 602.652 334.866 602.883 334.719L603.582 335.666C603.307 335.9 602.973 336.093 602.581 336.243C602.192 336.394 601.748 336.469 601.249 336.469C600.582 336.469 600.023 336.337 599.572 336.073C599.12 335.805 598.781 335.438 598.554 334.972C598.326 334.507 598.213 333.971 598.213 333.366C598.213 332.79 598.323 332.268 598.543 331.798C598.763 331.325 599.084 330.949 599.506 330.671C599.931 330.388 600.45 330.247 601.062 330.247C601.62 330.247 602.102 330.366 602.509 330.605C602.92 330.843 603.237 331.186 603.461 331.633C603.688 332.081 603.802 332.618 603.802 333.245C603.802 333.344 603.798 333.451 603.791 333.564C603.787 333.678 603.78 333.779 603.769 333.867H599.984ZM601.062 331.413C600.751 331.413 600.499 331.525 600.309 331.749C600.118 331.973 600.002 332.33 599.962 332.822H602.108C602.104 332.396 602.021 332.055 601.86 331.798C601.699 331.542 601.433 331.413 601.062 331.413ZM608.309 330.247C608.818 330.247 609.229 330.374 609.541 330.627C609.852 330.88 610.08 331.237 610.223 331.699C610.37 332.161 610.443 332.71 610.443 333.344C610.443 333.946 610.355 334.483 610.179 334.956C610.003 335.425 609.748 335.796 609.414 336.067C609.081 336.335 608.675 336.469 608.198 336.469C607.63 336.469 607.168 336.265 606.812 335.858V338.537L605.074 338.719V330.44H606.614L606.691 331.094C606.93 330.79 607.19 330.573 607.472 330.445C607.755 330.313 608.033 330.247 608.309 330.247ZM607.769 331.529C607.568 331.529 607.39 331.589 607.236 331.71C607.082 331.831 606.941 331.996 606.812 332.205V334.67C606.933 334.85 607.06 334.982 607.192 335.066C607.327 335.15 607.487 335.193 607.67 335.193C607.978 335.193 608.219 335.053 608.391 334.774C608.563 334.492 608.65 334.023 608.65 333.366C608.65 332.882 608.615 332.508 608.545 332.244C608.475 331.976 608.375 331.791 608.242 331.688C608.11 331.582 607.953 331.529 607.769 331.529ZM613.409 327.948V331.017C613.655 330.757 613.921 330.564 614.207 330.44C614.497 330.311 614.803 330.247 615.126 330.247C615.646 330.247 616.044 330.399 616.319 330.704C616.594 331.008 616.732 331.437 616.732 331.991V336.282H614.994V332.475C614.994 332.123 614.953 331.877 614.873 331.738C614.796 331.598 614.649 331.529 614.432 331.529C614.311 331.529 614.192 331.558 614.075 331.617C613.961 331.672 613.849 331.752 613.739 331.859C613.629 331.965 613.519 332.092 613.409 332.238V336.282H611.671V328.118L613.409 327.948ZM630.344 334.054C630.344 334.527 630.219 334.945 629.97 335.308C629.724 335.671 629.37 335.955 628.908 336.161C628.446 336.366 627.891 336.469 627.241 336.469C626.523 336.469 625.919 336.364 625.432 336.155C624.947 335.943 624.546 335.68 624.227 335.369L625.14 334.356C625.422 334.602 625.734 334.793 626.075 334.928C626.416 335.06 626.79 335.127 627.197 335.127C627.45 335.127 627.672 335.09 627.863 335.016C628.054 334.943 628.202 334.837 628.309 334.697C628.415 334.558 628.468 334.389 628.468 334.191C628.468 334.004 628.426 333.847 628.342 333.718C628.257 333.59 628.114 333.474 627.913 333.372C627.715 333.269 627.438 333.164 627.082 333.058C626.488 332.875 626.009 332.673 625.646 332.453C625.287 332.233 625.024 331.978 624.859 331.688C624.698 331.399 624.617 331.061 624.617 330.676C624.617 330.21 624.746 329.812 625.002 329.482C625.263 329.152 625.611 328.901 626.048 328.729C626.484 328.553 626.965 328.465 627.489 328.465C628.079 328.465 628.6 328.551 629.051 328.723C629.502 328.892 629.893 329.134 630.223 329.449L629.37 330.429C629.114 330.212 628.837 330.053 628.54 329.95C628.243 329.844 627.94 329.79 627.632 329.79C627.405 329.79 627.205 329.82 627.032 329.878C626.86 329.933 626.726 330.016 626.631 330.126C626.535 330.236 626.488 330.374 626.488 330.539C626.488 330.7 626.534 330.836 626.625 330.946C626.717 331.056 626.877 331.16 627.104 331.259C627.331 331.355 627.647 331.466 628.05 331.595C628.531 331.741 628.941 331.918 629.282 332.123C629.627 332.325 629.889 332.579 630.069 332.888C630.252 333.196 630.344 333.584 630.344 334.054ZM636.38 334.598C636.38 334.818 636.409 334.978 636.468 335.077C636.53 335.176 636.629 335.251 636.765 335.303L636.407 336.447C636.063 336.414 635.771 336.339 635.533 336.221C635.298 336.1 635.113 335.919 634.977 335.677C634.753 335.944 634.467 336.144 634.119 336.276C633.771 336.405 633.415 336.469 633.052 336.469C632.45 336.469 631.97 336.298 631.611 335.957C631.255 335.612 631.077 335.171 631.077 334.631C631.077 333.997 631.324 333.507 631.82 333.163C632.318 332.818 633.019 332.646 633.921 332.646H634.708V332.425C634.708 332.121 634.609 331.896 634.411 331.749C634.216 331.602 633.93 331.529 633.552 331.529C633.365 331.529 633.125 331.556 632.832 331.611C632.538 331.663 632.245 331.738 631.952 331.837L631.55 330.682C631.928 330.539 632.32 330.43 632.727 330.357C633.138 330.284 633.505 330.247 633.827 330.247C634.697 330.247 635.338 330.425 635.753 330.781C636.171 331.133 636.38 331.642 636.38 332.31V334.598ZM633.651 335.226C633.838 335.226 634.035 335.171 634.24 335.06C634.445 334.947 634.601 334.787 634.708 334.582V333.636H634.279C633.794 333.636 633.439 333.711 633.211 333.861C632.984 334.008 632.87 334.224 632.87 334.51C632.87 334.734 632.938 334.91 633.074 335.038C633.213 335.163 633.406 335.226 633.651 335.226ZM638.059 336.282V330.44H639.577L639.698 331.116C639.959 330.823 640.234 330.605 640.524 330.462C640.813 330.319 641.143 330.247 641.514 330.247C642.012 330.247 642.405 330.399 642.691 330.704C642.977 331.008 643.12 331.437 643.12 331.991V336.282H641.382V332.491C641.382 332.253 641.365 332.064 641.332 331.925C641.299 331.782 641.241 331.681 641.156 331.622C641.075 331.56 640.964 331.529 640.821 331.529C640.7 331.529 640.58 331.556 640.463 331.611C640.349 331.663 640.237 331.738 640.127 331.837C640.017 331.936 639.907 332.055 639.797 332.194V336.282H638.059ZM649.915 335.941C649.688 336.087 649.413 336.212 649.09 336.315C648.767 336.417 648.404 336.469 648.001 336.469C647.238 336.469 646.671 336.274 646.301 335.886C645.93 335.493 645.745 334.961 645.745 334.29V331.639H644.519V330.44H645.745V329.174L647.484 328.965V330.44H649.365L649.194 331.639H647.484V334.29C647.484 334.58 647.55 334.787 647.682 334.912C647.814 335.037 648.025 335.099 648.314 335.099C648.52 335.099 648.707 335.075 648.875 335.027C649.048 334.976 649.202 334.912 649.338 334.835L649.915 335.941ZM654.823 330.44V335.093H656.309V336.282H651.429V335.093H653.085V331.628H651.484V330.44H654.823ZM653.773 327.381C654.073 327.381 654.319 327.474 654.51 327.661C654.7 327.849 654.796 328.081 654.796 328.36C654.796 328.639 654.7 328.874 654.51 329.064C654.319 329.251 654.073 329.345 653.773 329.345C653.468 329.345 653.219 329.251 653.024 329.064C652.834 328.874 652.738 328.639 652.738 328.36C652.738 328.081 652.834 327.849 653.024 327.661C653.219 327.474 653.468 327.381 653.773 327.381ZM662.768 334.598C662.768 334.818 662.797 334.978 662.856 335.077C662.918 335.176 663.018 335.251 663.153 335.303L662.796 336.447C662.451 336.414 662.159 336.339 661.921 336.221C661.686 336.1 661.501 335.919 661.365 335.677C661.142 335.944 660.856 336.144 660.507 336.276C660.159 336.405 659.803 336.469 659.44 336.469C658.838 336.469 658.358 336.298 657.999 335.957C657.643 335.612 657.465 335.171 657.465 334.631C657.465 333.997 657.713 333.507 658.208 333.163C658.706 332.818 659.407 332.646 660.309 332.646H661.096V332.425C661.096 332.121 660.997 331.896 660.799 331.749C660.604 331.602 660.318 331.529 659.941 331.529C659.754 331.529 659.513 331.556 659.22 331.611C658.927 331.663 658.633 331.738 658.34 331.837L657.938 330.682C658.316 330.539 658.708 330.43 659.115 330.357C659.526 330.284 659.893 330.247 660.216 330.247C661.085 330.247 661.727 330.425 662.141 330.781C662.559 331.133 662.768 331.642 662.768 332.31V334.598ZM660.04 335.226C660.227 335.226 660.423 335.171 660.628 335.06C660.834 334.947 660.989 334.787 661.096 334.582V333.636H660.667C660.183 333.636 659.827 333.711 659.599 333.861C659.372 334.008 659.258 334.224 659.258 334.51C659.258 334.734 659.326 334.91 659.462 335.038C659.601 335.163 659.794 335.226 660.04 335.226ZM669.635 329.504L670.042 330.781C669.836 330.861 669.596 330.92 669.321 330.957C669.046 330.993 668.725 331.012 668.358 331.012C668.725 331.169 669.004 331.366 669.195 331.6C669.389 331.831 669.486 332.136 669.486 332.513C669.486 332.891 669.385 333.229 669.184 333.526C668.982 333.819 668.696 334.05 668.325 334.219C667.955 334.388 667.517 334.472 667.011 334.472C666.886 334.472 666.769 334.466 666.659 334.455C666.549 334.444 666.44 334.428 666.334 334.406C666.272 334.439 666.224 334.487 666.191 334.549C666.158 334.611 666.141 334.675 666.141 334.741C666.141 334.833 666.178 334.916 666.252 334.989C666.329 335.062 666.506 335.099 666.785 335.099H667.742C668.197 335.099 668.589 335.172 668.92 335.319C669.253 335.466 669.512 335.666 669.695 335.919C669.879 336.172 669.97 336.461 669.97 336.788C669.97 337.386 669.708 337.857 669.184 338.202C668.659 338.546 667.88 338.719 666.846 338.719C666.097 338.719 665.518 338.642 665.107 338.488C664.7 338.337 664.416 338.121 664.255 337.839C664.097 337.56 664.018 337.228 664.018 336.843H665.558C665.558 337.012 665.591 337.149 665.657 337.255C665.727 337.365 665.857 337.446 666.048 337.497C666.242 337.549 666.523 337.574 666.89 337.574C667.26 337.574 667.542 337.545 667.737 337.486C667.931 337.428 668.063 337.347 668.133 337.244C668.206 337.145 668.243 337.034 668.243 336.909C668.243 336.736 668.175 336.597 668.039 336.491C667.904 336.384 667.689 336.331 667.396 336.331H666.466C665.835 336.331 665.377 336.216 665.091 335.985C664.805 335.75 664.662 335.477 664.662 335.165C664.662 334.949 664.719 334.743 664.832 334.549C664.95 334.355 665.113 334.191 665.322 334.059C664.948 333.861 664.68 333.628 664.519 333.361C664.357 333.089 664.277 332.765 664.277 332.387C664.277 331.947 664.388 331.569 664.612 331.254C664.836 330.935 665.144 330.689 665.536 330.517C665.932 330.344 666.384 330.258 666.89 330.258C667.326 330.265 667.706 330.236 668.028 330.17C668.351 330.1 668.641 330.007 668.898 329.889C669.154 329.768 669.4 329.64 669.635 329.504ZM666.934 331.386C666.659 331.386 666.44 331.474 666.279 331.65C666.118 331.822 666.037 332.061 666.037 332.365C666.037 332.688 666.119 332.935 666.285 333.108C666.45 333.28 666.666 333.366 666.934 333.366C667.223 333.366 667.443 333.28 667.594 333.108C667.748 332.935 667.825 332.68 667.825 332.343C667.825 332.017 667.75 331.776 667.599 331.622C667.449 331.465 667.227 331.386 666.934 331.386ZM673.575 330.247C674.176 330.247 674.688 330.375 675.11 330.632C675.531 330.889 675.854 331.25 676.078 331.716C676.301 332.178 676.413 332.721 676.413 333.344C676.413 333.993 676.3 334.553 676.072 335.022C675.849 335.488 675.526 335.845 675.104 336.095C674.682 336.344 674.173 336.469 673.575 336.469C672.981 336.469 672.471 336.346 672.045 336.1C671.624 335.854 671.299 335.499 671.072 335.033C670.848 334.567 670.736 334.008 670.736 333.355C670.736 332.735 670.848 332.193 671.072 331.727C671.299 331.261 671.624 330.898 672.045 330.638C672.471 330.377 672.981 330.247 673.575 330.247ZM673.575 331.529C673.219 331.529 672.955 331.675 672.783 331.969C672.614 332.259 672.53 332.721 672.53 333.355C672.53 334.001 672.614 334.468 672.783 334.758C672.955 335.048 673.219 335.193 673.575 335.193C673.93 335.193 674.193 335.048 674.361 334.758C674.534 334.468 674.62 333.997 674.62 333.344C674.62 332.713 674.534 332.253 674.361 331.963C674.193 331.674 673.93 331.529 673.575 331.529ZM687.952 331.144C687.952 330.872 687.9 330.649 687.797 330.473C687.698 330.293 687.546 330.161 687.341 330.076C687.139 329.988 686.884 329.944 686.576 329.944H685.96V332.436H686.67C686.937 332.436 687.167 332.391 687.357 332.299C687.548 332.207 687.695 332.066 687.797 331.875C687.9 331.685 687.952 331.441 687.952 331.144ZM689.811 331.138C689.811 331.729 689.684 332.216 689.431 332.601C689.178 332.987 688.824 333.274 688.37 333.465C687.915 333.652 687.387 333.746 686.785 333.746H685.96V336.282H684.156V328.657H686.554C687.588 328.657 688.39 328.863 688.958 329.273C689.527 329.684 689.811 330.306 689.811 331.138ZM693.366 330.247C693.967 330.247 694.479 330.375 694.901 330.632C695.322 330.889 695.645 331.25 695.869 331.716C696.093 332.178 696.204 332.721 696.204 333.344C696.204 333.993 696.091 334.553 695.863 335.022C695.64 335.488 695.317 335.845 694.895 336.095C694.473 336.344 693.964 336.469 693.366 336.469C692.772 336.469 692.262 336.346 691.836 336.1C691.415 335.854 691.09 335.499 690.863 335.033C690.639 334.567 690.527 334.008 690.527 333.355C690.527 332.735 690.639 332.193 690.863 331.727C691.09 331.261 691.415 330.898 691.836 330.638C692.262 330.377 692.772 330.247 693.366 330.247ZM693.366 331.529C693.01 331.529 692.746 331.675 692.574 331.969C692.405 332.259 692.321 332.721 692.321 333.355C692.321 334.001 692.405 334.468 692.574 334.758C692.746 335.048 693.01 335.193 693.366 335.193C693.722 335.193 693.984 335.048 694.152 334.758C694.325 334.468 694.411 333.997 694.411 333.344C694.411 332.713 694.325 332.253 694.152 331.963C693.984 331.674 693.722 331.529 693.366 331.529ZM697.487 336.282V335.116H698.257V331.595H697.487V330.44H699.583L699.902 331.754C700.111 331.252 700.377 330.878 700.7 330.632C701.026 330.386 701.424 330.264 701.894 330.264C702.092 330.264 702.268 330.28 702.422 330.313C702.576 330.342 702.721 330.385 702.856 330.44L702.328 331.875C702.222 331.846 702.116 331.824 702.009 331.809C701.903 331.795 701.786 331.787 701.657 331.787C701.276 331.787 700.94 331.943 700.65 332.255C700.364 332.567 700.146 332.963 699.996 333.443V335.116H701.151V336.282H697.487ZM701.443 332.882V331.177L701.701 330.44H702.856L702.532 332.882H701.443ZM709.288 335.941C709.061 336.087 708.786 336.212 708.463 336.315C708.141 336.417 707.777 336.469 707.374 336.469C706.611 336.469 706.045 336.274 705.674 335.886C705.304 335.493 705.119 334.961 705.119 334.29V331.639H703.892V330.44H705.119V329.174L706.857 328.965V330.44H708.738L708.568 331.639H706.857V334.29C706.857 334.58 706.923 334.787 707.055 334.912C707.187 335.037 707.398 335.099 707.688 335.099C707.893 335.099 708.08 335.075 708.249 335.027C708.421 334.976 708.575 334.912 708.711 334.835L709.288 335.941ZM714.197 330.44V335.093H715.682V336.282H710.802V335.093H712.458V331.628H710.857V330.44H714.197ZM713.146 327.381C713.447 327.381 713.692 327.474 713.883 327.661C714.074 327.849 714.169 328.081 714.169 328.36C714.169 328.639 714.074 328.874 713.883 329.064C713.692 329.251 713.447 329.345 713.146 329.345C712.842 329.345 712.592 329.251 712.398 329.064C712.207 328.874 712.112 328.639 712.112 328.36C712.112 328.081 712.207 327.849 712.398 327.661C712.592 327.474 712.842 327.381 713.146 327.381ZM720.271 328.118V334.444C720.271 334.679 720.337 334.848 720.469 334.95C720.605 335.049 720.79 335.099 721.025 335.099C721.175 335.099 721.32 335.082 721.459 335.049C721.599 335.013 721.729 334.971 721.85 334.923L722.268 336.084C722.07 336.186 721.832 336.276 721.553 336.353C721.274 336.43 720.95 336.469 720.579 336.469C719.875 336.469 719.358 336.267 719.028 335.864C718.698 335.457 718.533 334.912 718.533 334.23V329.306H716.811V328.118H720.271ZM726.868 328.118V334.444C726.868 334.679 726.934 334.848 727.066 334.95C727.202 335.049 727.387 335.099 727.622 335.099C727.772 335.099 727.917 335.082 728.056 335.049C728.196 335.013 728.326 334.971 728.447 334.923L728.865 336.084C728.667 336.186 728.429 336.276 728.15 336.353C727.871 336.43 727.547 336.469 727.176 336.469C726.472 336.469 725.955 336.267 725.625 335.864C725.295 335.457 725.13 334.912 725.13 334.23V329.306H723.408V328.118H726.868ZM735.336 334.598C735.336 334.818 735.365 334.978 735.424 335.077C735.486 335.176 735.585 335.251 735.721 335.303L735.363 336.447C735.018 336.414 734.727 336.339 734.488 336.221C734.254 336.1 734.068 335.919 733.933 335.677C733.709 335.944 733.423 336.144 733.075 336.276C732.726 336.405 732.37 336.469 732.007 336.469C731.406 336.469 730.925 336.298 730.566 335.957C730.21 335.612 730.032 335.171 730.032 334.631C730.032 333.997 730.28 333.507 730.775 333.163C731.274 332.818 731.974 332.646 732.877 332.646H733.663V332.425C733.663 332.121 733.564 331.896 733.366 331.749C733.172 331.602 732.886 331.529 732.508 331.529C732.321 331.529 732.081 331.556 731.787 331.611C731.494 331.663 731.201 331.738 730.907 331.837L730.506 330.682C730.883 330.539 731.276 330.43 731.683 330.357C732.094 330.284 732.46 330.247 732.783 330.247C733.652 330.247 734.294 330.425 734.708 330.781C735.126 331.133 735.336 331.642 735.336 332.31V334.598ZM732.607 335.226C732.794 335.226 732.99 335.171 733.196 335.06C733.401 334.947 733.557 334.787 733.663 334.582V333.636H733.234C732.75 333.636 732.394 333.711 732.167 333.861C731.939 334.008 731.826 334.224 731.826 334.51C731.826 334.734 731.894 334.91 732.029 335.038C732.169 335.163 732.361 335.226 732.607 335.226ZM737.163 333.515V332.161H741.927V333.515H737.163ZM748.821 328.657L749.25 336.282H747.677L747.583 333.02C747.576 332.715 747.572 332.444 747.572 332.205C747.576 331.967 747.582 331.743 747.589 331.534C747.596 331.322 747.607 331.109 747.622 330.896C747.64 330.68 747.659 330.445 747.677 330.192L746.819 334.983H745.454L744.53 330.192C744.552 330.434 744.571 330.663 744.585 330.88C744.604 331.092 744.616 331.307 744.624 331.523C744.631 331.74 744.637 331.973 744.64 332.222C744.644 332.468 744.642 332.743 744.635 333.047L744.58 336.282H743.034L743.463 328.657H745.317L746.164 333.586L746.967 328.657H748.821ZM755.127 334.598C755.127 334.818 755.156 334.978 755.215 335.077C755.277 335.176 755.376 335.251 755.512 335.303L755.154 336.447C754.809 336.414 754.518 336.339 754.279 336.221C754.045 336.1 753.86 335.919 753.724 335.677C753.5 335.944 753.214 336.144 752.866 336.276C752.517 336.405 752.161 336.469 751.798 336.469C751.197 336.469 750.717 336.298 750.357 335.957C750.001 335.612 749.824 335.171 749.824 334.631C749.824 333.997 750.071 333.507 750.566 333.163C751.065 332.818 751.765 332.646 752.668 332.646H753.454V332.425C753.454 332.121 753.355 331.896 753.157 331.749C752.963 331.602 752.677 331.529 752.299 331.529C752.112 331.529 751.872 331.556 751.578 331.611C751.285 331.663 750.992 331.738 750.698 331.837L750.297 330.682C750.674 330.539 751.067 330.43 751.474 330.357C751.885 330.284 752.251 330.247 752.574 330.247C753.443 330.247 754.085 330.425 754.499 330.781C754.918 331.133 755.127 331.642 755.127 332.31V334.598ZM752.398 335.226C752.585 335.226 752.781 335.171 752.987 335.06C753.192 334.947 753.348 334.787 753.454 334.582V333.636H753.025C752.541 333.636 752.185 333.711 751.958 333.861C751.731 334.008 751.617 334.224 751.617 334.51C751.617 334.734 751.685 334.91 751.82 335.038C751.96 335.163 752.152 335.226 752.398 335.226ZM756.861 336.282V335.116H757.631V331.595H756.861V330.44H758.957L759.276 331.754C759.485 331.252 759.751 330.878 760.073 330.632C760.4 330.386 760.798 330.264 761.267 330.264C761.465 330.264 761.641 330.28 761.795 330.313C761.949 330.342 762.094 330.385 762.23 330.44L761.702 331.875C761.595 331.846 761.489 331.824 761.383 331.809C761.276 331.795 761.159 331.787 761.03 331.787C760.649 331.787 760.314 331.943 760.024 332.255C759.738 332.567 759.52 332.963 759.369 333.443V335.116H760.524V336.282H756.861ZM760.816 332.882V331.177L761.074 330.44H762.23L761.905 332.882H760.816ZM768.662 335.941C768.434 336.087 768.159 336.212 767.837 336.315C767.514 336.417 767.151 336.469 766.747 336.469C765.985 336.469 765.418 336.274 765.048 335.886C764.677 335.493 764.492 334.961 764.492 334.29V331.639H763.265V330.44H764.492V329.174L766.23 328.965V330.44H768.112L767.941 331.639H766.23V334.29C766.23 334.58 766.296 334.787 766.428 334.912C766.56 335.037 766.771 335.099 767.061 335.099C767.266 335.099 767.453 335.075 767.622 335.027C767.794 334.976 767.948 334.912 768.084 334.835L768.662 335.941ZM773.57 330.44V335.093H775.055V336.282H770.176V335.093H771.832V331.628H770.231V330.44H773.57ZM773.355 327.095L774.032 328.404L771.435 329.433L770.957 328.553L773.355 327.095ZM776.597 336.282V330.44H778.115L778.236 331.116C778.496 330.823 778.772 330.605 779.061 330.462C779.351 330.319 779.681 330.247 780.051 330.247C780.55 330.247 780.943 330.399 781.229 330.704C781.515 331.008 781.658 331.437 781.658 331.991V336.282H779.919V332.491C779.919 332.253 779.903 332.064 779.87 331.925C779.837 331.782 779.778 331.681 779.694 331.622C779.613 331.56 779.501 331.529 779.358 331.529C779.237 331.529 779.118 331.556 779.001 331.611C778.887 331.663 778.775 331.738 778.665 331.837C778.555 331.936 778.445 332.055 778.335 332.194V336.282H776.597ZM784.701 333.867C784.741 334.186 784.824 334.444 784.949 334.642C785.077 334.837 785.24 334.98 785.438 335.071C785.636 335.16 785.858 335.204 786.104 335.204C786.372 335.204 786.63 335.16 786.88 335.071C787.129 334.983 787.369 334.866 787.6 334.719L788.299 335.666C788.024 335.9 787.69 336.093 787.298 336.243C786.909 336.394 786.465 336.469 785.966 336.469C785.299 336.469 784.74 336.337 784.288 336.073C783.837 335.805 783.498 335.438 783.271 334.972C783.043 334.507 782.93 333.971 782.93 333.366C782.93 332.79 783.04 332.268 783.26 331.798C783.48 331.325 783.801 330.949 784.222 330.671C784.648 330.388 785.167 330.247 785.779 330.247C786.337 330.247 786.819 330.366 787.226 330.605C787.637 330.843 787.954 331.186 788.178 331.633C788.405 332.081 788.519 332.618 788.519 333.245C788.519 333.344 788.515 333.451 788.508 333.564C788.504 333.678 788.497 333.779 788.486 333.867H784.701ZM785.779 331.413C785.468 331.413 785.216 331.525 785.026 331.749C784.835 331.973 784.719 332.33 784.679 332.822H786.825C786.821 332.396 786.738 332.055 786.577 331.798C786.416 331.542 786.15 331.413 785.779 331.413ZM791.865 334.967H794.791L794.626 336.282H789.813V335.055L792.712 331.749H790.055V330.44H794.736V331.661L791.865 334.967ZM806.077 326.38V339.582H804.954V326.38H806.077ZM818.544 328.536C819.095 328.536 819.564 328.617 819.953 328.778C820.341 328.936 820.662 329.158 820.915 329.444C821.172 329.726 821.372 330.06 821.515 330.445C821.658 330.83 821.759 331.248 821.818 331.699C821.876 332.15 821.906 332.618 821.906 333.102C821.906 334.026 821.862 334.8 821.774 335.424C821.686 336.043 821.521 336.509 821.278 336.821C821.04 337.136 820.695 337.294 820.244 337.294C820.024 337.294 819.832 337.244 819.667 337.145C819.505 337.046 819.371 336.918 819.265 336.76C819.162 336.606 819.084 336.439 819.029 336.26C818.977 336.076 818.948 335.904 818.94 335.743H818.896C818.823 335.919 818.722 336.087 818.594 336.249C818.466 336.41 818.302 336.542 818.104 336.645C817.906 336.747 817.664 336.799 817.378 336.799C816.967 336.799 816.637 336.689 816.388 336.469C816.139 336.252 815.957 335.954 815.843 335.572C815.73 335.191 815.673 334.76 815.673 334.279C815.673 333.344 815.864 332.631 816.245 332.139C816.626 331.644 817.178 331.397 817.901 331.397C818.172 331.397 818.44 331.43 818.704 331.496C818.972 331.558 819.26 331.672 819.568 331.837V335.105C819.568 335.453 819.595 335.722 819.65 335.913C819.705 336.104 819.78 336.236 819.876 336.309C819.975 336.383 820.087 336.419 820.211 336.419C820.358 336.419 820.472 336.344 820.552 336.194C820.637 336.043 820.697 335.827 820.734 335.545C820.771 335.259 820.793 334.914 820.8 334.51C820.807 334.107 820.811 333.652 820.811 333.146C820.811 332.603 820.78 332.106 820.717 331.655C820.659 331.201 820.547 330.808 820.382 330.478C820.22 330.148 819.989 329.893 819.689 329.713C819.388 329.534 818.997 329.444 818.517 329.444C818.147 329.444 817.756 329.514 817.345 329.653C816.938 329.792 816.509 330.06 816.058 330.456L815.464 329.768C815.963 329.336 816.467 329.022 816.977 328.828C817.49 328.633 818.013 328.536 818.544 328.536ZM817.917 332.233C817.496 332.233 817.208 332.398 817.054 332.728C816.9 333.054 816.823 333.572 816.823 334.279C816.823 334.631 816.845 334.932 816.889 335.182C816.933 335.431 817.01 335.622 817.12 335.754C817.23 335.886 817.378 335.952 817.565 335.952C817.789 335.952 817.963 335.9 818.088 335.798C818.213 335.695 818.306 335.574 818.368 335.435C818.431 335.292 818.478 335.167 818.511 335.06V332.376C818.412 332.325 818.317 332.288 818.225 332.266C818.134 332.244 818.031 332.233 817.917 332.233ZM827.804 328.657V333.537C827.804 333.98 827.736 334.382 827.6 334.741C827.465 335.101 827.265 335.407 827.001 335.66C826.74 335.913 826.42 336.108 826.038 336.243C825.66 336.379 825.228 336.447 824.74 336.447C824.248 336.447 823.823 336.384 823.464 336.26C823.108 336.131 822.765 335.955 822.435 335.732L823.123 334.62C823.383 334.8 823.627 334.927 823.854 335C824.082 335.07 824.34 335.105 824.63 335.105C825.022 335.105 825.349 334.98 825.609 334.73C825.873 334.477 826.005 334.087 826.005 333.559V329.977H823.662V328.657H827.804ZM831.904 330.247C832.505 330.247 833.017 330.375 833.438 330.632C833.86 330.889 834.183 331.25 834.407 331.716C834.63 332.178 834.742 332.721 834.742 333.344C834.742 333.993 834.628 334.553 834.401 335.022C834.177 335.488 833.855 335.845 833.433 336.095C833.011 336.344 832.501 336.469 831.904 336.469C831.309 336.469 830.8 336.346 830.374 336.1C829.952 335.854 829.628 335.499 829.401 335.033C829.177 334.567 829.065 334.008 829.065 333.355C829.065 332.735 829.177 332.193 829.401 331.727C829.628 331.261 829.952 330.898 830.374 330.638C830.8 330.377 831.309 330.247 831.904 330.247ZM831.904 331.529C831.548 331.529 831.284 331.675 831.111 331.969C830.943 332.259 830.858 332.721 830.858 333.355C830.858 334.001 830.943 334.468 831.111 334.758C831.284 335.048 831.548 335.193 831.904 335.193C832.259 335.193 832.521 335.048 832.69 334.758C832.863 334.468 832.949 333.997 832.949 333.344C832.949 332.713 832.863 332.253 832.69 331.963C832.521 331.674 832.259 331.529 831.904 331.529ZM837.477 333.867C837.518 334.186 837.6 334.444 837.725 334.642C837.853 334.837 838.016 334.98 838.214 335.071C838.413 335.16 838.634 335.204 838.88 335.204C839.148 335.204 839.406 335.16 839.656 335.071C839.905 334.983 840.145 334.866 840.376 334.719L841.075 335.666C840.8 335.9 840.466 336.093 840.074 336.243C839.685 336.394 839.241 336.469 838.743 336.469C838.075 336.469 837.516 336.337 837.065 336.073C836.614 335.805 836.274 335.438 836.047 334.972C835.82 334.507 835.706 333.971 835.706 333.366C835.706 332.79 835.816 332.268 836.036 331.798C836.256 331.325 836.577 330.949 836.999 330.671C837.424 330.388 837.943 330.247 838.556 330.247C839.113 330.247 839.595 330.366 840.002 330.605C840.413 330.843 840.73 331.186 840.954 331.633C841.181 332.081 841.295 332.618 841.295 333.245C841.295 333.344 841.291 333.451 841.284 333.564C841.28 333.678 841.273 333.779 841.262 333.867H837.477ZM838.556 331.413C838.244 331.413 837.993 331.525 837.802 331.749C837.611 331.973 837.496 332.33 837.455 332.822H839.601C839.597 332.396 839.515 332.055 839.353 331.798C839.192 331.542 838.926 331.413 838.556 331.413ZM846.28 331.144C846.28 330.872 846.229 330.649 846.126 330.473C846.027 330.293 845.875 330.161 845.67 330.076C845.468 329.988 845.213 329.944 844.905 329.944H844.289V332.436H844.999C845.266 332.436 845.496 332.391 845.686 332.299C845.877 332.207 846.024 332.066 846.126 331.875C846.229 331.685 846.28 331.441 846.28 331.144ZM848.14 331.138C848.14 331.729 848.013 332.216 847.76 332.601C847.507 332.987 847.153 333.274 846.698 333.465C846.244 333.652 845.716 333.746 845.114 333.746H844.289V336.282H842.485V328.657H844.883C845.917 328.657 846.719 328.863 847.287 329.273C847.855 329.684 848.14 330.306 848.14 331.138ZM851.695 330.247C852.296 330.247 852.808 330.375 853.229 330.632C853.651 330.889 853.974 331.25 854.198 331.716C854.421 332.178 854.533 332.721 854.533 333.344C854.533 333.993 854.42 334.553 854.192 335.022C853.968 335.488 853.646 335.845 853.224 336.095C852.802 336.344 852.292 336.469 851.695 336.469C851.1 336.469 850.591 336.346 850.165 336.1C849.744 335.854 849.419 335.499 849.192 335.033C848.968 334.567 848.856 334.008 848.856 333.355C848.856 332.735 848.968 332.193 849.192 331.727C849.419 331.261 849.744 330.898 850.165 330.638C850.591 330.377 851.1 330.247 851.695 330.247ZM851.695 331.529C851.339 331.529 851.075 331.675 850.902 331.969C850.734 332.259 850.649 332.721 850.649 333.355C850.649 334.001 850.734 334.468 850.902 334.758C851.075 335.048 851.339 335.193 851.695 335.193C852.05 335.193 852.313 335.048 852.481 334.758C852.654 334.468 852.74 333.997 852.74 333.344C852.74 332.713 852.654 332.253 852.481 331.963C852.313 331.674 852.05 331.529 851.695 331.529ZM855.816 336.282V335.116H856.586V331.595H855.816V330.44H857.912L858.231 331.754C858.44 331.252 858.706 330.878 859.029 330.632C859.355 330.386 859.753 330.264 860.223 330.264C860.421 330.264 860.597 330.28 860.751 330.313C860.905 330.342 861.05 330.385 861.185 330.44L860.657 331.875C860.551 331.846 860.444 331.824 860.338 331.809C860.232 331.795 860.114 331.787 859.986 331.787C859.605 331.787 859.269 331.943 858.979 332.255C858.693 332.567 858.475 332.963 858.325 333.443V335.116H859.48V336.282H855.816ZM859.771 332.882V331.177L860.03 330.44H861.185L860.861 332.882H859.771ZM867.617 335.941C867.39 336.087 867.115 336.212 866.792 336.315C866.469 336.417 866.106 336.469 865.703 336.469C864.94 336.469 864.373 336.274 864.003 335.886C863.633 335.493 863.447 334.961 863.447 334.29V331.639H862.221V330.44H863.447V329.174L865.186 328.965V330.44H867.067L866.897 331.639H865.186V334.29C865.186 334.58 865.252 334.787 865.384 334.912C865.516 335.037 865.727 335.099 866.016 335.099C866.222 335.099 866.409 335.075 866.578 335.027C866.75 334.976 866.904 334.912 867.04 334.835L867.617 335.941ZM872.525 330.44V335.093H874.011V336.282H869.131V335.093H870.787V331.628H869.186V330.44H872.525ZM871.475 327.381C871.775 327.381 872.021 327.474 872.212 327.661C872.403 327.849 872.498 328.081 872.498 328.36C872.498 328.639 872.403 328.874 872.212 329.064C872.021 329.251 871.775 329.345 871.475 329.345C871.17 329.345 870.921 329.251 870.727 329.064C870.536 328.874 870.441 328.639 870.441 328.36C870.441 328.081 870.536 327.849 870.727 327.661C870.921 327.474 871.17 327.381 871.475 327.381ZM878.6 328.118V334.444C878.6 334.679 878.666 334.848 878.798 334.95C878.934 335.049 879.119 335.099 879.354 335.099C879.504 335.099 879.649 335.082 879.788 335.049C879.927 335.013 880.058 334.971 880.179 334.923L880.597 336.084C880.399 336.186 880.16 336.276 879.882 336.353C879.603 336.43 879.278 336.469 878.908 336.469C878.204 336.469 877.687 336.267 877.357 335.864C877.027 335.457 876.862 334.912 876.862 334.23V329.306H875.14V328.118H878.6ZM885.197 328.118V334.444C885.197 334.679 885.263 334.848 885.395 334.95C885.531 335.049 885.716 335.099 885.951 335.099C886.101 335.099 886.246 335.082 886.385 335.049C886.524 335.013 886.655 334.971 886.776 334.923L887.194 336.084C886.996 336.186 886.757 336.276 886.479 336.353C886.2 336.43 885.875 336.469 885.505 336.469C884.801 336.469 884.284 336.267 883.954 335.864C883.624 335.457 883.459 334.912 883.459 334.23V329.306H881.737V328.118H885.197ZM893.664 334.598C893.664 334.818 893.694 334.978 893.752 335.077C893.815 335.176 893.914 335.251 894.049 335.303L893.692 336.447C893.347 336.414 893.056 336.339 892.817 336.221C892.582 336.1 892.397 335.919 892.262 335.677C892.038 335.944 891.752 336.144 891.403 336.276C891.055 336.405 890.699 336.469 890.336 336.469C889.735 336.469 889.254 336.298 888.895 335.957C888.539 335.612 888.361 335.171 888.361 334.631C888.361 333.997 888.609 333.507 889.104 333.163C889.603 332.818 890.303 332.646 891.205 332.646H891.992V332.425C891.992 332.121 891.893 331.896 891.695 331.749C891.501 331.602 891.214 331.529 890.837 331.529C890.65 331.529 890.409 331.556 890.116 331.611C889.823 331.663 889.529 331.738 889.236 331.837L888.834 330.682C889.212 330.539 889.604 330.43 890.012 330.357C890.422 330.284 890.789 330.247 891.112 330.247C891.981 330.247 892.623 330.425 893.037 330.781C893.455 331.133 893.664 331.642 893.664 332.31V334.598ZM890.936 335.226C891.123 335.226 891.319 335.171 891.524 335.06C891.73 334.947 891.886 334.787 891.992 334.582V333.636H891.563C891.079 333.636 890.723 333.711 890.496 333.861C890.268 334.008 890.155 334.224 890.155 334.51C890.155 334.734 890.222 334.91 890.358 335.038C890.498 335.163 890.69 335.226 890.936 335.226Z" fill="black"/>
<rect x="387" y="47" width="77.1792" height="77.1792" rx="2" fill="#00194E"/>
<rect x="789" y="283" width="77.1792" height="77.1792" rx="2" transform="rotate(-90 789 283)" fill="#00194E"/>
<path d="M436.649 103H414.757V98.3945L422.618 90.4473C424.203 88.8193 425.474 87.4626 426.431 86.3773C427.402 85.2777 428.102 84.278 428.53 83.3783C428.973 82.4787 429.194 81.5147 429.194 80.4865C429.194 79.2441 428.844 78.3158 428.145 77.7018C427.459 77.0734 426.538 76.7592 425.381 76.7592C424.167 76.7592 422.989 77.0377 421.847 77.5947C420.704 78.1516 419.512 78.9442 418.27 79.9724L414.671 75.7096C415.571 74.9385 416.52 74.2101 417.52 73.5247C418.534 72.8392 419.705 72.2894 421.033 71.8753C422.375 71.4468 423.982 71.2326 425.853 71.2326C427.909 71.2326 429.673 71.6039 431.144 72.3465C432.629 73.0891 433.771 74.103 434.571 75.3883C435.371 76.6593 435.771 78.1016 435.771 79.7154C435.771 81.4433 435.428 83.0213 434.742 84.4494C434.057 85.8775 433.057 87.2913 431.743 88.6908C430.444 90.0903 428.873 91.6397 427.031 93.3391L423.004 97.1306V97.4305H436.649V103Z" fill="white"/>
<rect x="466" y="47" width="77.1792" height="77.1792" rx="2" fill="#00194E"/>
<rect x="789" y="204" width="77.1792" height="77.1792" rx="2" transform="rotate(-90 789 204)" fill="#00194E"/>
<path d="M516.356 96.5094H512.586V103H506.116V96.5094H492.75V91.9039L506.481 71.6825H512.586V91.3684H516.356V96.5094ZM506.116 91.3684V86.056C506.116 85.5561 506.124 84.9635 506.138 84.278C506.166 83.5926 506.195 82.9071 506.224 82.2216C506.252 81.5361 506.281 80.9292 506.309 80.4008C506.352 79.8582 506.381 79.4797 506.395 79.2655H506.224C505.952 79.851 505.667 80.4222 505.367 80.9792C505.067 81.5219 504.717 82.0931 504.317 82.6929L498.576 91.3684H506.116Z" fill="white"/>
<rect x="545" y="47" width="77.1792" height="77.1792" rx="2" fill="#00194E"/>
<rect x="789" y="125" width="77.1792" height="77.1792" rx="2" transform="rotate(-90 789 125)" fill="#00194E"/>
<path d="M572.542 89.6975C572.542 87.8982 572.671 86.1202 572.928 84.3637C573.199 82.5929 573.663 80.9292 574.32 79.3726C574.977 77.8017 575.898 76.4165 577.084 75.2169C578.269 74.0031 579.775 73.0534 581.603 72.3679C583.431 71.6682 585.645 71.3183 588.244 71.3183C588.858 71.3183 589.572 71.3469 590.386 71.404C591.214 71.4468 591.9 71.5254 592.442 71.6396V76.9306C591.871 76.8021 591.257 76.7021 590.6 76.6307C589.958 76.545 589.315 76.5022 588.672 76.5022C586.073 76.5022 584.06 76.9163 582.632 77.7446C581.218 78.5729 580.218 79.7225 579.633 81.1934C579.061 82.65 578.726 84.3494 578.626 86.2916H578.904C579.304 85.5919 579.804 84.9706 580.404 84.428C581.018 83.8853 581.76 83.4569 582.632 83.1427C583.503 82.8143 584.524 82.65 585.695 82.65C587.523 82.65 589.108 83.0427 590.45 83.8282C591.793 84.5993 592.828 85.7204 593.556 87.1913C594.285 88.6622 594.649 90.4544 594.649 92.568C594.649 94.8243 594.213 96.7665 593.342 98.3945C592.471 100.022 591.236 101.272 589.636 102.143C588.051 103 586.166 103.428 583.981 103.428C582.382 103.428 580.889 103.157 579.504 102.614C578.119 102.057 576.905 101.215 575.863 100.087C574.82 98.9586 574.006 97.5376 573.421 95.824C572.835 94.096 572.542 92.0539 572.542 89.6975ZM583.853 98.1374C585.152 98.1374 586.209 97.6947 587.023 96.8093C587.837 95.9239 588.244 94.5387 588.244 92.6536C588.244 91.1256 587.887 89.926 587.173 89.0549C586.473 88.1695 585.409 87.7268 583.981 87.7268C583.01 87.7268 582.153 87.9482 581.411 88.3909C580.682 88.8193 580.118 89.3691 579.718 90.0403C579.318 90.6972 579.119 91.3755 579.119 92.0753C579.119 92.8036 579.219 93.5248 579.418 94.2388C579.618 94.9528 579.918 95.6026 580.318 96.1881C580.718 96.7736 581.211 97.2449 581.796 97.6019C582.396 97.9589 583.081 98.1374 583.853 98.1374Z" fill="white"/>
<rect x="387" y="126" width="77.1792" height="77.1792" rx="2" fill="#0037AC"/>
<rect x="868" y="283" width="77.1792" height="77.1792" rx="2" transform="rotate(-90 868 283)" fill="#0037AC"/>
<path d="M425.553 150.275C427.352 150.275 429.009 150.554 430.522 151.111C432.05 151.668 433.271 152.51 434.185 153.639C435.099 154.752 435.556 156.152 435.556 157.837C435.556 159.094 435.306 160.193 434.807 161.136C434.321 162.078 433.657 162.907 432.814 163.621C431.972 164.321 431.015 164.935 429.944 165.463C431.058 166.048 432.115 166.734 433.114 167.519C434.114 168.291 434.928 169.197 435.556 170.24C436.199 171.282 436.52 172.496 436.52 173.881C436.52 175.624 436.056 177.137 435.128 178.423C434.2 179.694 432.914 180.679 431.272 181.379C429.63 182.079 427.723 182.428 425.553 182.428C423.211 182.428 421.219 182.093 419.576 181.422C417.934 180.75 416.684 179.794 415.828 178.551C414.971 177.295 414.542 175.795 414.542 174.053C414.542 172.625 414.807 171.382 415.335 170.326C415.878 169.269 416.606 168.362 417.52 167.605C418.434 166.834 419.441 166.177 420.54 165.634C419.612 165.049 418.762 164.385 417.991 163.642C417.234 162.9 416.627 162.05 416.17 161.093C415.728 160.136 415.506 159.037 415.506 157.794C415.506 156.138 415.97 154.752 416.899 153.639C417.841 152.525 419.076 151.689 420.604 151.132C422.132 150.561 423.782 150.275 425.553 150.275ZM420.669 173.667C420.669 174.795 421.069 175.731 421.868 176.473C422.682 177.202 423.882 177.566 425.467 177.566C427.109 177.566 428.337 177.216 429.151 176.516C429.965 175.802 430.372 174.867 430.372 173.71C430.372 172.91 430.137 172.211 429.666 171.611C429.209 171.011 428.63 170.475 427.93 170.004C427.231 169.519 426.524 169.069 425.81 168.655L425.231 168.355C424.317 168.769 423.518 169.233 422.832 169.747C422.161 170.261 421.633 170.84 421.247 171.482C420.862 172.125 420.669 172.853 420.669 173.667ZM425.51 155.117C424.425 155.117 423.525 155.395 422.811 155.952C422.097 156.509 421.74 157.294 421.74 158.308C421.74 159.022 421.911 159.651 422.254 160.193C422.611 160.722 423.075 161.186 423.646 161.586C424.232 161.986 424.867 162.357 425.553 162.7C426.21 162.385 426.824 162.036 427.395 161.65C427.966 161.264 428.43 160.8 428.787 160.258C429.144 159.715 429.323 159.065 429.323 158.308C429.323 157.294 428.959 156.509 428.23 155.952C427.516 155.395 426.609 155.117 425.51 155.117Z" fill="white"/>
<rect x="466" y="126" width="77.1792" height="77.1792" rx="2" fill="#0037AC"/>
<rect x="868" y="204" width="77.1792" height="77.1792" rx="2" transform="rotate(-90 868 204)" fill="#0037AC"/>
<path d="M497.122 182H490.503V163.878C490.503 163.378 490.51 162.764 490.525 162.036C490.539 161.293 490.56 160.536 490.589 159.765C490.617 158.98 490.646 158.273 490.674 157.644C490.517 157.83 490.196 158.151 489.711 158.608C489.239 159.051 488.797 159.451 488.382 159.808L484.784 162.7L481.592 158.715L491.681 150.682H497.122V182ZM527.583 166.341C527.583 168.869 527.383 171.125 526.983 173.11C526.598 175.095 525.969 176.78 525.098 178.166C524.241 179.551 523.113 180.608 521.714 181.336C520.314 182.064 518.615 182.428 516.615 182.428C514.102 182.428 512.038 181.793 510.425 180.522C508.811 179.237 507.618 177.394 506.847 174.995C506.076 172.582 505.691 169.697 505.691 166.341C505.691 162.957 506.04 160.065 506.74 157.666C507.454 155.252 508.611 153.403 510.21 152.118C511.81 150.832 513.945 150.19 516.615 150.19C519.114 150.19 521.171 150.832 522.785 152.118C524.413 153.389 525.619 155.231 526.405 157.644C527.19 160.043 527.583 162.942 527.583 166.341ZM512.267 166.341C512.267 168.726 512.395 170.718 512.652 172.318C512.924 173.903 513.374 175.095 514.002 175.895C514.63 176.695 515.501 177.095 516.615 177.095C517.715 177.095 518.579 176.702 519.207 175.916C519.85 175.117 520.307 173.924 520.578 172.339C520.85 170.74 520.985 168.74 520.985 166.341C520.985 163.956 520.85 161.964 520.578 160.365C520.307 158.765 519.85 157.566 519.207 156.766C518.579 155.952 517.715 155.545 516.615 155.545C515.501 155.545 514.63 155.952 514.002 156.766C513.374 157.566 512.924 158.765 512.652 160.365C512.395 161.964 512.267 163.956 512.267 166.341Z" fill="white"/>
<rect x="545" y="126" width="77.1792" height="77.1792" rx="2" fill="#0037AC"/>
<rect x="868" y="125" width="77.1792" height="77.1792" rx="2" transform="rotate(-90 868 125)" fill="#0037AC"/>
<path d="M576.122 182H569.503V163.878C569.503 163.378 569.51 162.764 569.525 162.036C569.539 161.293 569.56 160.536 569.589 159.765C569.617 158.98 569.646 158.273 569.674 157.644C569.517 157.83 569.196 158.151 568.711 158.608C568.239 159.051 567.797 159.451 567.382 159.808L563.784 162.7L560.592 158.715L570.681 150.682H576.122V182ZM606.754 182H584.862V177.394L592.723 169.447C594.309 167.819 595.58 166.463 596.536 165.377C597.508 164.278 598.207 163.278 598.636 162.378C599.078 161.479 599.3 160.515 599.3 159.487C599.3 158.244 598.95 157.316 598.25 156.702C597.565 156.073 596.644 155.759 595.487 155.759C594.273 155.759 593.095 156.038 591.952 156.595C590.81 157.152 589.617 157.944 588.375 158.972L584.776 154.71C585.676 153.938 586.626 153.21 587.625 152.525C588.639 151.839 589.81 151.289 591.138 150.875C592.481 150.447 594.087 150.233 595.958 150.233C598.014 150.233 599.778 150.604 601.249 151.347C602.734 152.089 603.877 153.103 604.676 154.388C605.476 155.659 605.876 157.102 605.876 158.715C605.876 160.443 605.533 162.021 604.848 163.449C604.162 164.877 603.163 166.291 601.849 167.691C600.549 169.09 598.978 170.64 597.136 172.339L593.109 176.131V176.431H606.754V182Z" fill="white"/>
<rect x="387" y="205" width="77.1792" height="77.1792" rx="2" fill="#5C87E1"/>
<rect x="947" y="283" width="77.1792" height="77.1792" rx="2" transform="rotate(-90 947 283)" fill="#5C87E1"/>
<path d="M418.122 261H411.503V242.878C411.503 242.378 411.51 241.764 411.525 241.036C411.539 240.293 411.56 239.536 411.589 238.765C411.617 237.98 411.646 237.273 411.674 236.644C411.517 236.83 411.196 237.151 410.711 237.608C410.239 238.051 409.797 238.451 409.382 238.808L405.784 241.7L402.592 237.715L412.681 229.682H418.122V261ZM449.461 254.509H445.691V261H439.222V254.509H425.855V249.904L439.586 229.682H445.691V249.368H449.461V254.509ZM439.222 249.368V244.056C439.222 243.556 439.229 242.964 439.243 242.278C439.272 241.593 439.3 240.907 439.329 240.222C439.358 239.536 439.386 238.929 439.415 238.401C439.458 237.858 439.486 237.48 439.5 237.266H439.329C439.058 237.851 438.772 238.422 438.472 238.979C438.172 239.522 437.822 240.093 437.423 240.693L431.682 249.368H439.222Z" fill="white"/>
<rect x="466" y="205" width="77.1792" height="77.1792" rx="2" fill="#5C87E1"/>
<rect x="947" y="204" width="77.1792" height="77.1792" rx="2" transform="rotate(-90 947 204)" fill="#5C87E1"/>
<path d="M497.122 261H490.503V242.878C490.503 242.378 490.51 241.764 490.525 241.036C490.539 240.293 490.56 239.536 490.589 238.765C490.617 237.98 490.646 237.273 490.674 236.644C490.517 236.83 490.196 237.151 489.711 237.608C489.239 238.051 488.797 238.451 488.382 238.808L484.784 241.7L481.592 237.715L491.681 229.682H497.122V261ZM505.648 247.698C505.648 245.898 505.776 244.12 506.033 242.364C506.305 240.593 506.769 238.929 507.426 237.373C508.083 235.802 509.004 234.417 510.189 233.217C511.374 232.003 512.881 231.053 514.709 230.368C516.537 229.668 518.75 229.318 521.349 229.318C521.963 229.318 522.677 229.347 523.491 229.404C524.32 229.447 525.005 229.525 525.548 229.64V234.931C524.977 234.802 524.363 234.702 523.706 234.631C523.063 234.545 522.42 234.502 521.778 234.502C519.179 234.502 517.165 234.916 515.737 235.745C514.323 236.573 513.324 237.722 512.738 239.193C512.167 240.65 511.831 242.349 511.731 244.292H512.01C512.41 243.592 512.909 242.971 513.509 242.428C514.123 241.885 514.866 241.457 515.737 241.143C516.608 240.814 517.629 240.65 518.8 240.65C520.628 240.65 522.213 241.043 523.556 241.828C524.898 242.599 525.933 243.72 526.662 245.191C527.39 246.662 527.754 248.454 527.754 250.568C527.754 252.824 527.319 254.766 526.448 256.394C525.576 258.022 524.341 259.272 522.742 260.143C521.157 261 519.272 261.428 517.087 261.428C515.487 261.428 513.995 261.157 512.61 260.614C511.224 260.057 510.01 259.215 508.968 258.087C507.926 256.959 507.112 255.538 506.526 253.824C505.941 252.096 505.648 250.054 505.648 247.698ZM516.958 256.137C518.258 256.137 519.314 255.695 520.128 254.809C520.942 253.924 521.349 252.539 521.349 250.654C521.349 249.126 520.992 247.926 520.278 247.055C519.579 246.17 518.515 245.727 517.087 245.727C516.115 245.727 515.259 245.948 514.516 246.391C513.788 246.819 513.224 247.369 512.824 248.04C512.424 248.697 512.224 249.376 512.224 250.075C512.224 250.804 512.324 251.525 512.524 252.239C512.724 252.953 513.024 253.603 513.424 254.188C513.823 254.774 514.316 255.245 514.902 255.602C515.501 255.959 516.187 256.137 516.958 256.137Z" fill="white"/>
<rect x="545" y="205" width="77.1792" height="77.1792" rx="2" fill="#5C87E1"/>
<rect x="947" y="125" width="77.1792" height="77.1792" rx="2" transform="rotate(-90 947 125)" fill="#5C87E1"/>
<path d="M576.122 261H569.503V242.878C569.503 242.378 569.51 241.764 569.525 241.036C569.539 240.293 569.56 239.536 569.589 238.765C569.617 237.98 569.646 237.273 569.674 236.644C569.517 236.83 569.196 237.151 568.711 237.608C568.239 238.051 567.797 238.451 567.382 238.808L563.784 241.7L560.592 237.715L570.681 229.682H576.122V261ZM595.658 229.275C597.458 229.275 599.114 229.554 600.628 230.111C602.156 230.668 603.377 231.51 604.291 232.639C605.205 233.752 605.662 235.152 605.662 236.837C605.662 238.094 605.412 239.193 604.912 240.136C604.426 241.078 603.762 241.907 602.92 242.621C602.077 243.321 601.121 243.935 600.049 244.463C601.163 245.048 602.22 245.734 603.22 246.519C604.219 247.291 605.033 248.197 605.662 249.24C606.304 250.282 606.626 251.496 606.626 252.881C606.626 254.624 606.162 256.137 605.233 257.423C604.305 258.694 603.02 259.679 601.378 260.379C599.735 261.079 597.829 261.428 595.658 261.428C593.316 261.428 591.324 261.093 589.682 260.422C588.039 259.75 586.79 258.794 585.933 257.551C585.076 256.295 584.648 254.795 584.648 253.053C584.648 251.625 584.912 250.382 585.44 249.326C585.983 248.269 586.711 247.362 587.625 246.605C588.539 245.834 589.546 245.177 590.646 244.634C589.717 244.049 588.868 243.385 588.097 242.642C587.34 241.9 586.733 241.05 586.276 240.093C585.833 239.136 585.612 238.037 585.612 236.794C585.612 235.138 586.076 233.752 587.004 232.639C587.947 231.525 589.182 230.689 590.71 230.132C592.238 229.561 593.887 229.275 595.658 229.275ZM590.774 252.667C590.774 253.795 591.174 254.731 591.974 255.473C592.788 256.202 593.987 256.566 595.572 256.566C597.215 256.566 598.443 256.216 599.257 255.516C600.071 254.802 600.478 253.867 600.478 252.71C600.478 251.91 600.242 251.211 599.771 250.611C599.314 250.011 598.736 249.475 598.036 249.004C597.336 248.519 596.629 248.069 595.915 247.655L595.337 247.355C594.423 247.769 593.623 248.233 592.938 248.747C592.266 249.261 591.738 249.84 591.353 250.482C590.967 251.125 590.774 251.853 590.774 252.667ZM595.615 234.117C594.53 234.117 593.63 234.395 592.916 234.952C592.202 235.509 591.845 236.294 591.845 237.308C591.845 238.022 592.017 238.651 592.359 239.193C592.716 239.722 593.18 240.186 593.752 240.586C594.337 240.986 594.973 241.357 595.658 241.7C596.315 241.385 596.929 241.036 597.5 240.65C598.072 240.264 598.536 239.8 598.893 239.258C599.25 238.715 599.428 238.065 599.428 237.308C599.428 236.294 599.064 235.509 598.336 234.952C597.622 234.395 596.715 234.117 595.615 234.117Z" fill="white"/>
<path d="M662.151 45.5374V83H651.325V45.5374H638.485V37.2528H675.519L674.397 45.5374H662.151Z" fill="black"/>
<path d="M730.789 142.446V150.598H700.819V142.446H730.789ZM730.789 156.341V164.428H700.819V156.341H730.789Z" fill="black"/>
<path d="M838.649 104H816.757V99.3945L824.618 91.4473C826.203 89.8193 827.474 88.4626 828.431 87.3773C829.402 86.2777 830.102 85.278 830.53 84.3783C830.973 83.4787 831.194 82.5147 831.194 81.4865C831.194 80.2441 830.844 79.3158 830.145 78.7018C829.459 78.0734 828.538 77.7592 827.381 77.7592C826.167 77.7592 824.989 78.0377 823.847 78.5947C822.704 79.1516 821.512 79.9442 820.27 80.9724L816.671 76.7096C817.571 75.9385 818.52 75.2101 819.52 74.5247C820.534 73.8392 821.705 73.2894 823.033 72.8753C824.375 72.4468 825.982 72.2326 827.853 72.2326C829.909 72.2326 831.673 72.6039 833.144 73.3465C834.629 74.0891 835.771 75.103 836.571 76.3883C837.371 77.6593 837.771 79.1016 837.771 80.7154C837.771 82.4433 837.428 84.0213 836.742 85.4494C836.057 86.8775 835.057 88.2913 833.743 89.6908C832.444 91.0903 830.873 92.6397 829.031 94.3391L825.004 98.1306V98.4305H838.649V104Z" fill="white"/>
<path d="M839.356 176.509H835.586V183H829.116V176.509H815.75V171.904L829.481 151.682H835.586V171.368H839.356V176.509ZM829.116 171.368V166.056C829.116 165.556 829.124 164.964 829.138 164.278C829.166 163.593 829.195 162.907 829.224 162.222C829.252 161.536 829.281 160.929 829.309 160.401C829.352 159.858 829.381 159.48 829.395 159.266H829.224C828.952 159.851 828.667 160.422 828.367 160.979C828.067 161.522 827.717 162.093 827.317 162.693L821.576 171.368H829.116Z" fill="white"/>
<path d="M816.542 248.698C816.542 246.898 816.671 245.12 816.928 243.364C817.199 241.593 817.663 239.929 818.32 238.373C818.977 236.802 819.898 235.417 821.084 234.217C822.269 233.003 823.775 232.053 825.603 231.368C827.431 230.668 829.645 230.318 832.244 230.318C832.858 230.318 833.572 230.347 834.386 230.404C835.214 230.447 835.9 230.525 836.442 230.64V235.931C835.871 235.802 835.257 235.702 834.6 235.631C833.958 235.545 833.315 235.502 832.672 235.502C830.073 235.502 828.06 235.916 826.632 236.745C825.218 237.573 824.218 238.722 823.633 240.193C823.061 241.65 822.726 243.349 822.626 245.292H822.904C823.304 244.592 823.804 243.971 824.404 243.428C825.018 242.885 825.76 242.457 826.632 242.143C827.503 241.814 828.524 241.65 829.695 241.65C831.523 241.65 833.108 242.043 834.45 242.828C835.793 243.599 836.828 244.72 837.556 246.191C838.285 247.662 838.649 249.454 838.649 251.568C838.649 253.824 838.213 255.766 837.342 257.394C836.471 259.022 835.236 260.272 833.636 261.143C832.051 262 830.166 262.428 827.981 262.428C826.382 262.428 824.889 262.157 823.504 261.614C822.119 261.057 820.905 260.215 819.863 259.087C818.82 257.959 818.006 256.538 817.421 254.824C816.835 253.096 816.542 251.054 816.542 248.698ZM827.853 257.137C829.152 257.137 830.209 256.695 831.023 255.809C831.837 254.924 832.244 253.539 832.244 251.654C832.244 250.126 831.887 248.926 831.173 248.055C830.473 247.17 829.409 246.727 827.981 246.727C827.01 246.727 826.153 246.948 825.411 247.391C824.682 247.819 824.118 248.369 823.718 249.04C823.318 249.697 823.119 250.376 823.119 251.075C823.119 251.804 823.219 252.525 823.418 253.239C823.618 253.953 823.918 254.603 824.318 255.188C824.718 255.774 825.211 256.245 825.796 256.602C826.396 256.959 827.081 257.137 827.853 257.137Z" fill="white"/>
<path d="M906.553 72.2755C908.352 72.2755 910.009 72.5539 911.522 73.1109C913.05 73.6678 914.271 74.5104 915.185 75.6386C916.099 76.7525 916.556 78.152 916.556 79.8371C916.556 81.0938 916.306 82.1934 915.807 83.1359C915.321 84.0785 914.657 84.9067 913.814 85.6208C912.972 86.3205 912.015 86.9346 910.944 87.463C912.058 88.0485 913.115 88.734 914.114 89.5194C915.114 90.2905 915.928 91.1974 916.556 92.2399C917.199 93.2823 917.52 94.4962 917.52 95.8814C917.52 97.6237 917.056 99.1374 916.128 100.423C915.2 101.694 913.914 102.679 912.272 103.379C910.63 104.079 908.723 104.428 906.553 104.428C904.211 104.428 902.219 104.093 900.576 103.422C898.934 102.75 897.684 101.794 896.828 100.551C895.971 99.2945 895.542 97.795 895.542 96.0528C895.542 94.6247 895.807 93.3823 896.335 92.3255C896.878 91.2688 897.606 90.362 898.52 89.6051C899.434 88.8339 900.441 88.177 901.54 87.6343C900.612 87.0488 899.762 86.3848 898.991 85.6422C898.234 84.8996 897.627 84.0499 897.17 83.0931C896.728 82.1363 896.506 81.0367 896.506 79.7942C896.506 78.1377 896.97 76.7525 897.899 75.6386C898.841 74.5247 900.076 73.6893 901.604 73.1323C903.132 72.5611 904.782 72.2755 906.553 72.2755ZM901.669 95.6672C901.669 96.7954 902.069 97.7308 902.868 98.4734C903.682 99.2017 904.882 99.5658 906.467 99.5658C908.109 99.5658 909.337 99.216 910.151 98.5162C910.965 97.8022 911.372 96.8668 911.372 95.7101C911.372 94.9103 911.137 94.2106 910.666 93.6108C910.209 93.011 909.63 92.4755 908.93 92.0042C908.231 91.5187 907.524 91.0688 906.81 90.6547L906.231 90.3548C905.317 90.7689 904.518 91.2331 903.832 91.7472C903.161 92.2613 902.633 92.8396 902.247 93.4823C901.862 94.1249 901.669 94.8532 901.669 95.6672ZM906.51 77.1166C905.425 77.1166 904.525 77.3951 903.811 77.952C903.097 78.509 902.74 79.2944 902.74 80.3084C902.74 81.0224 902.911 81.6507 903.254 82.1934C903.611 82.7218 904.075 83.1859 904.646 83.5858C905.232 83.9856 905.867 84.3569 906.553 84.6997C907.21 84.3855 907.824 84.0356 908.395 83.65C908.966 83.2645 909.43 82.8003 909.787 82.2577C910.144 81.715 910.323 81.0652 910.323 80.3084C910.323 79.2944 909.959 78.509 909.23 77.952C908.516 77.3951 907.609 77.1166 906.51 77.1166Z" fill="white"/>
<path d="M899.622 182.5H893.003V164.378C893.003 163.878 893.01 163.264 893.025 162.536C893.039 161.793 893.06 161.036 893.089 160.265C893.117 159.48 893.146 158.773 893.174 158.144C893.017 158.33 892.696 158.651 892.211 159.108C891.739 159.551 891.297 159.951 890.882 160.308L887.284 163.2L884.092 159.215L894.181 151.182H899.622V182.5ZM930.083 166.841C930.083 169.369 929.883 171.625 929.483 173.61C929.098 175.595 928.469 177.28 927.598 178.666C926.741 180.051 925.613 181.108 924.214 181.836C922.814 182.564 921.115 182.928 919.115 182.928C916.602 182.928 914.538 182.293 912.925 181.022C911.311 179.737 910.118 177.894 909.347 175.495C908.576 173.082 908.191 170.197 908.191 166.841C908.191 163.457 908.54 160.565 909.24 158.166C909.954 155.752 911.111 153.903 912.71 152.618C914.31 151.332 916.445 150.69 919.115 150.69C921.614 150.69 923.671 151.332 925.285 152.618C926.913 153.889 928.119 155.731 928.905 158.144C929.69 160.543 930.083 163.442 930.083 166.841ZM914.767 166.841C914.767 169.226 914.895 171.218 915.152 172.818C915.424 174.403 915.874 175.595 916.502 176.395C917.13 177.195 918.001 177.595 919.115 177.595C920.215 177.595 921.079 177.202 921.707 176.416C922.35 175.617 922.807 174.424 923.078 172.839C923.35 171.24 923.485 169.24 923.485 166.841C923.485 164.456 923.35 162.464 923.078 160.865C922.807 159.265 922.35 158.066 921.707 157.266C921.079 156.452 920.215 156.045 919.115 156.045C918.001 156.045 917.13 156.452 916.502 157.266C915.874 158.066 915.424 159.265 915.152 160.865C914.895 162.464 914.767 164.456 914.767 166.841Z" fill="white"/>
<path d="M899.622 261.5H893.003V243.378C893.003 242.878 893.01 242.264 893.025 241.536C893.039 240.793 893.06 240.036 893.089 239.265C893.117 238.48 893.146 237.773 893.174 237.144C893.017 237.33 892.696 237.651 892.211 238.108C891.739 238.551 891.297 238.951 890.882 239.308L887.284 242.2L884.092 238.215L894.181 230.182H899.622V261.5ZM930.254 261.5H908.362V256.894L916.223 248.947C917.809 247.319 919.08 245.963 920.036 244.877C921.008 243.778 921.707 242.778 922.136 241.878C922.578 240.979 922.8 240.015 922.8 238.987C922.8 237.744 922.45 236.816 921.75 236.202C921.065 235.573 920.144 235.259 918.987 235.259C917.773 235.259 916.595 235.538 915.452 236.095C914.31 236.652 913.117 237.444 911.875 238.472L908.276 234.21C909.176 233.438 910.126 232.71 911.125 232.025C912.139 231.339 913.31 230.789 914.638 230.375C915.981 229.947 917.587 229.733 919.458 229.733C921.514 229.733 923.278 230.104 924.749 230.847C926.234 231.589 927.377 232.603 928.176 233.888C928.976 235.159 929.376 236.602 929.376 238.215C929.376 239.943 929.033 241.521 928.348 242.949C927.662 244.377 926.663 245.791 925.349 247.191C924.049 248.59 922.478 250.14 920.636 251.839L916.609 255.631V255.931H930.254V261.5Z" fill="white"/>
<path d="M978.122 182H971.503V163.878C971.503 163.378 971.51 162.764 971.525 162.036C971.539 161.293 971.56 160.536 971.589 159.765C971.617 158.98 971.646 158.273 971.674 157.644C971.517 157.83 971.196 158.151 970.711 158.608C970.239 159.051 969.797 159.451 969.382 159.808L965.784 162.7L962.592 158.715L972.681 150.682H978.122V182ZM986.648 168.698C986.648 166.898 986.776 165.12 987.033 163.364C987.305 161.593 987.769 159.929 988.426 158.373C989.083 156.802 990.004 155.417 991.189 154.217C992.374 153.003 993.881 152.053 995.709 151.368C997.537 150.668 999.75 150.318 1002.35 150.318C1002.96 150.318 1003.68 150.347 1004.49 150.404C1005.32 150.447 1006.01 150.525 1006.55 150.64V155.931C1005.98 155.802 1005.36 155.702 1004.71 155.631C1004.06 155.545 1003.42 155.502 1002.78 155.502C1000.18 155.502 998.165 155.916 996.737 156.745C995.323 157.573 994.324 158.722 993.738 160.193C993.167 161.65 992.831 163.349 992.731 165.292H993.01C993.41 164.592 993.909 163.971 994.509 163.428C995.123 162.885 995.866 162.457 996.737 162.143C997.608 161.814 998.629 161.65 999.8 161.65C1001.63 161.65 1003.21 162.043 1004.56 162.828C1005.9 163.599 1006.93 164.72 1007.66 166.191C1008.39 167.662 1008.75 169.454 1008.75 171.568C1008.75 173.824 1008.32 175.766 1007.45 177.394C1006.58 179.022 1005.34 180.272 1003.74 181.143C1002.16 182 1000.27 182.428 998.087 182.428C996.487 182.428 994.995 182.157 993.61 181.614C992.224 181.057 991.01 180.215 989.968 179.087C988.926 177.959 988.112 176.538 987.526 174.824C986.941 173.096 986.648 171.054 986.648 168.698ZM997.958 177.137C999.258 177.137 1000.31 176.695 1001.13 175.809C1001.94 174.924 1002.35 173.539 1002.35 171.654C1002.35 170.126 1001.99 168.926 1001.28 168.055C1000.58 167.17 999.515 166.727 998.087 166.727C997.115 166.727 996.259 166.948 995.516 167.391C994.788 167.819 994.224 168.369 993.824 169.04C993.424 169.697 993.224 170.376 993.224 171.075C993.224 171.804 993.324 172.525 993.524 173.239C993.724 173.953 994.024 174.603 994.424 175.188C994.823 175.774 995.316 176.245 995.902 176.602C996.501 176.959 997.187 177.137 997.958 177.137Z" fill="white"/>
<path d="M978.122 261H971.503V242.878C971.503 242.378 971.51 241.764 971.525 241.036C971.539 240.293 971.56 239.536 971.589 238.765C971.617 237.98 971.646 237.273 971.674 236.644C971.517 236.83 971.196 237.151 970.711 237.608C970.239 238.051 969.797 238.451 969.382 238.808L965.784 241.7L962.592 237.715L972.681 229.682H978.122V261ZM997.658 229.275C999.458 229.275 1001.11 229.554 1002.63 230.111C1004.16 230.668 1005.38 231.51 1006.29 232.639C1007.2 233.752 1007.66 235.152 1007.66 236.837C1007.66 238.094 1007.41 239.193 1006.91 240.136C1006.43 241.078 1005.76 241.907 1004.92 242.621C1004.08 243.321 1003.12 243.935 1002.05 244.463C1003.16 245.048 1004.22 245.734 1005.22 246.519C1006.22 247.291 1007.03 248.197 1007.66 249.24C1008.3 250.282 1008.63 251.496 1008.63 252.881C1008.63 254.624 1008.16 256.137 1007.23 257.423C1006.31 258.694 1005.02 259.679 1003.38 260.379C1001.74 261.079 999.829 261.428 997.658 261.428C995.316 261.428 993.324 261.093 991.682 260.422C990.039 259.75 988.79 258.794 987.933 257.551C987.076 256.295 986.648 254.795 986.648 253.053C986.648 251.625 986.912 250.382 987.44 249.326C987.983 248.269 988.711 247.362 989.625 246.605C990.539 245.834 991.546 245.177 992.646 244.634C991.717 244.049 990.868 243.385 990.097 242.642C989.34 241.9 988.733 241.05 988.276 240.093C987.833 239.136 987.612 238.037 987.612 236.794C987.612 235.138 988.076 233.752 989.004 232.639C989.947 231.525 991.182 230.689 992.71 230.132C994.238 229.561 995.887 229.275 997.658 229.275ZM992.774 252.667C992.774 253.795 993.174 254.731 993.974 255.473C994.788 256.202 995.987 256.566 997.572 256.566C999.215 256.566 1000.44 256.216 1001.26 255.516C1002.07 254.802 1002.48 253.867 1002.48 252.71C1002.48 251.91 1002.24 251.211 1001.77 250.611C1001.31 250.011 1000.74 249.475 1000.04 249.004C999.336 248.519 998.629 248.069 997.915 247.655L997.337 247.355C996.423 247.769 995.623 248.233 994.938 248.747C994.266 249.261 993.738 249.84 993.353 250.482C992.967 251.125 992.774 251.853 992.774 252.667ZM997.615 234.117C996.53 234.117 995.63 234.395 994.916 234.952C994.202 235.509 993.845 236.294 993.845 237.308C993.845 238.022 994.017 238.651 994.359 239.193C994.716 239.722 995.18 240.186 995.752 240.586C996.337 240.986 996.973 241.357 997.658 241.7C998.315 241.385 998.929 241.036 999.5 240.65C1000.07 240.264 1000.54 239.8 1000.89 239.258C1001.25 238.715 1001.43 238.065 1001.43 237.308C1001.43 236.294 1001.06 235.509 1000.34 234.952C999.622 234.395 998.715 234.117 997.615 234.117Z" fill="white"/>
<path d="M978.122 103H971.503V84.8778C971.503 84.378 971.51 83.7639 971.525 83.0356C971.539 82.293 971.56 81.5361 971.589 80.765C971.617 79.9795 971.646 79.2726 971.674 78.6443C971.517 78.8299 971.196 79.1513 970.711 79.6082C970.239 80.0509 969.797 80.4508 969.382 80.8078L965.784 83.6997L962.592 79.7154L972.681 71.6825H978.122V103ZM1009.46 96.5094H1005.69V103H999.222V96.5094H985.855V91.9039L999.586 71.6825L1005.69 71.6825V91.3684H1009.46V96.5094ZM999.222 91.3684V86.056C999.222 85.5561 999.229 84.9635 999.243 84.278C999.272 83.5926 999.3 82.9071 999.329 82.2216C999.358 81.5361 999.386 80.9292 999.415 80.4008C999.458 79.8582 999.486 79.4797 999.5 79.2655H999.329C999.058 79.851 998.772 80.4222 998.472 80.9792C998.172 81.5219 997.822 82.0931 997.423 82.6929L991.682 91.3684H999.222Z" fill="white"/>
</svg>
